<svg xmlns="http://www.w3.org/2000/svg" width="100" height="130" fill="none" xmlns:v="https://vecta.io/nano"><g clip-path="url(#I)"><g filter="url(#C)"><use href="#J" fill="#212121"/><use href="#J" fill="url(#D)"/></g><g fill-rule="evenodd"><path d="M50 16L16 7l3 10v85h-8l-1 6 35 17v-5l5 2 5-2v5l35-17-1-6h-8V17l3-10-34 9z" fill="url(#E)"/><path d="M43 17l7 9 7-9-7-12-7 12z" fill="url(#F)"/></g><path d="M43 17l7-12 7 12-7-10-7 10z" fill="#fff" fill-opacity=".3"/><g fill-rule="evenodd"><path d="M10 105l40 17 40-17V27c0-6.5 4-9 4-9l-4 1 5-11-45 11L5 8l5 11-4-1s4 2.5 4 9v78z" fill="#333"/><path opacity=".15" d="M25.636 14.104c-2.337 3.082-4.771 6.086-7.205 9.09l-4.948 6.17c-1.189 1.513-2.357 3.043-3.483 4.602v-.962c2.124-2.902 4.381-5.699 6.639-8.498l2.009-2.497c2.353-2.942 4.678-5.912 6.824-9.005l.83.203-.667.895.002.002zM10 36.645v-1.392c2.591-3.773 5.379-7.403 8.387-10.881 3.061-3.539 6.027-7.166 8.767-10.957l.972.238c-.927 1.203-1.882 2.385-2.836 3.566h0l-.343.425-4.305 5.199-6.097 7.463c-1.592 2.055-3.123 4.161-4.545 6.339zm35.245-18.808l-1.339-.327a14.09 14.09 0 0 0-1.842 2.014l-.494.666c-.499.676-.998 1.352-1.54 1.992-4.515 5.317-8.163 11.188-11.288 17.408-1.017 2.022-2.054 4.052-3.285 5.945-1.431 2.204-3.234 4.106-5.036 6.008l-1.648 1.759-1.279 1.394h0 0 0l-6.176 6.825c-.433.492-.87.978-1.317 1.452v3.168c1.074-1.088 2.095-2.236 3.07-3.436 2.072-2.548 4.2-5.05 6.329-7.553h0 0l1.593-1.874 1.378-1.602c2.033-2.347 4.067-4.696 5.61-7.415a153.87 153.87 0 0 0 3.658-6.889c2.482-4.938 5.521-9.507 8.946-13.834.541-.684 1.064-1.381 1.588-2.078h0 0l1.8-2.345c.372-.464.802-.905 1.272-1.277zM10 68.272c1.607-1.59 3.107-3.292 4.472-5.133 2.448-3.303 5.097-6.437 7.8-9.527 4.244-4.857 7.767-10.181 10.548-16.008 2.266-4.75 5.209-9.083 8.348-13.289.644-.863 1.286-1.733 1.87-2.637.895-1.39 1.998-2.55 3.227-3.592l.806.197c-.253.214-.496.438-.723.675-1.07 1.12-2.032 2.365-2.907 3.647l-7.017 10.596c-1.247 1.997-2.325 4.103-3.401 6.203h0l-.457.891c-2.298 4.469-5.154 8.561-8.288 12.468l-4.061 4.967h0 0 0 0 0 0 0 0 0 0 0 0l-2.755 3.351-1.887 2.379h0 0 0 0 0 0c-1.255 1.604-2.51 3.207-3.883 4.702-.545.594-1.11 1.17-1.689 1.735v-1.627zm6.597-45.44c-2.243 2.831-4.459 5.679-6.597 8.586v-2.604l2.878-4.387c.738-1.136 1.377-2.336 2.017-3.535h0l.629-1.171c.106-.196.16-.42.214-.644.025-.103.05-.207.08-.308l-.206-.125c-.123.124-.249.246-.375.367h0 0 0 0 0 0 0 0 0 0 0c-.266.256-.532.511-.765.795l-1.669 2.026h0 0 0 0 0 0 0 0 0 0 0l-2.889 3.542a12.11 12.11 0 0 0-.915-3.52l7.814-10.968 7.03 1.719c-2.235 3.529-4.645 6.944-7.244 10.225v.002zM10 72.149c2.539-2.437 4.88-5.055 6.997-7.887l.042-.056c2.033-2.719 4.07-5.444 6.251-8.042 3.534-4.211 6.787-8.613 9.571-13.351.672-1.142 1.301-2.309 1.931-3.477.747-1.384 1.494-2.769 2.31-4.111l3.614-5.75h0l3.654-5.816c1.152-1.898 2.467-3.601 4.138-5.025L50 19l13.569-3.317-3.674 2.376c-3.151 1.953-5.42 4.651-6.91 7.971-1.569 3.493-3.579 6.673-6.044 9.586a30.2 30.2 0 0 0-3.928 5.94c-.368.729-.778 1.44-1.201 2.139-1.875 3.095-4.239 5.819-6.596 8.535l-.001.001-.488.563c-3.795 4.377-7.34 8.929-10.581 13.73l-.376.558c-1.724 2.557-3.459 5.13-5.469 7.453l-.854.986h0 0 0 0L10 84.309v-3.82l3.831-4.528.003.002c3.127-3.591 5.947-7.37 8.539-11.349 1.744-2.678 3.585-5.293 5.462-7.88l3.374-4.524h0 0 0 0 0 0 0 0 0 0l3.425-4.595c1.742-2.404 2.957-5.086 4.173-7.768h0 0 0 0 0 0 0 0 0 0c.626-1.381 1.252-2.762 1.95-4.105.052-.101.072-.219.092-.338h0 0a2.56 2.56 0 0 1 .032-.167l-.058-.04h0l-.099-.067c-.106.102-.217.2-.329.299-.242.213-.484.426-.669.681l-.774 1.045c-.799 1.07-1.6 2.141-2.253 3.293-2.806 4.957-6.255 9.449-9.805 13.872l-2.327 2.844-3.98 4.959-.089.117c-2.982 3.934-5.956 7.858-9.616 11.218l-.883.815v-2.124zm27.477-55.613c.034-.192.068-.385.137-.563l-3.207-.784-.538.77-2.824 3.943h0 0 0 0 0 0 0 0 0 0 0 0 0 0 0 0 0 0l-3.657 5.133c-1.358 1.958-2.537 4.035-3.096 6.385-.142.597-.14 1.247-.094 1.865.035.48.442.719.9.575.47-.149.958-.346 1.336-.651.866-.699 1.731-1.42 2.49-2.229l6.481-6.974h0 0 0 0 0 0 0 0 0l3.725-4.021c.31-.333.612-.677.915-1.021h0 0 0 0 0 0 0 0 0 0c.593-.674 1.188-1.348 1.84-1.948l-3.148-.77-.089.061c-.23.159-.472.299-.715.44h0 0 0 0 0 0 0 0l-.34.199-.085-.066-.085-.066c.021-.092.037-.185.054-.279h0 0 0 0zm-26.112 71.71v-.001h0 0l4.28-5.642c.884-1.136 1.822-2.231 2.76-3.326h0 0c1.096-1.279 2.191-2.558 3.2-3.902 1.669-2.223 3.229-4.529 4.788-6.833h0l.001-.001 1.45-2.136c3.604-5.273 7.854-10.012 12.103-14.749l1.813-2.025c2.131-2.39 3.985-4.927 5.352-7.842.59-1.263 1.438-2.432 2.318-3.524.965-1.199 2.057-2.304 3.169-3.371 2.584-2.482 4.721-5.295 6.482-8.407.833-1.472 1.868-2.791 3.239-3.791l1.151-.839.003-.002h0 0l7.871-5.611c3.803-2.587 7.989-4.241 12.58-4.833l.995-.126c1.992-.251 3.991-.503 5.937-.967l3.493-.889-3.519 7.741c-1.402.301-2.821.538-4.237.77h-.002c-3.097.508-5.885 1.748-8.583 3.298-3.547 2.039-6.898 4.323-9.772 7.26-.559.57-1.087 1.174-1.592 1.793-2.229 2.739-4.984 4.883-7.797 6.97-1.492 1.109-2.955 2.258-4.408 3.415-1.157.921-2.184 1.978-2.893 3.29-1.508 2.789-3.525 5.189-5.644 7.517l-2.162 2.363h0 0 0 0 0 0 0 0 0 0l-5.802 6.441c-3.31 3.81-6.238 7.909-8.865 12.22-2.005 3.289-4.28 6.385-6.621 9.445-1.931 2.524-3.716 5.162-5.5 7.797h0l-1.12 1.652c-1.862 2.734-3.774 5.428-5.833 8.016v-9.354l1.364-1.818v-.001h0zM5.777 8.19l-.428.577L5 8l.777.19zm13.83 100.893l1.923.817c.475-.595.975-1.173 1.497-1.737 1.786-1.926 3.44-3.953 4.736-6.251l2.85-5.047 5.528-9.807c1.798-3.206 3.731-6.305 6.455-8.83 2.636-2.442 5.455-4.653 8.352-6.775l.268-.196h0c1.335-.975 2.682-1.96 3.856-3.112 1.351-1.326 2.636-2.719 3.921-4.112h0l2.17-2.328c2.054-2.159 4.139-4.313 6.763-5.773 2.089-1.162 4.271-2.172 6.467-3.126 4.504-1.955 8.932-4.034 13.065-6.721A17.47 17.47 0 0 1 90 44.717v-5.95c-.675.453-1.34.923-2.003 1.394l-.216.153-1.095.779h0 0c-2.724 1.94-5.445 3.879-8.442 5.401l-6.674 3.472-.776.418c-1.901 1.023-3.806 2.047-5.625 3.201-2.321 1.472-4.14 3.505-5.957 5.535h0 0 0 0 0 0 0 0 0 0 0l-.811.903-1.316 1.473h-.001c-1.404 1.583-2.809 3.168-4.373 4.573-1.812 1.629-3.745 3.125-5.677 4.62h0 0 0 0 0 0 0 0 0 0 0 0 0 0l-2.403 1.876c-3.403 2.703-6.215 5.89-8.322 9.718l-5.809 10.374v.001l-.001.001-3.492 6.201c-1.483 2.651-3.064 5.23-5.136 7.473-.812.878-1.562 1.796-2.26 2.749zm-5.412-2.3l-2.478-1.053c.665-.946 1.377-1.864 2.141-2.751 1.789-2.079 3.253-4.385 4.551-6.8l.305-.57.001-.002c.635-1.186 1.271-2.373 1.98-3.513l.427-.687c1.484-2.391 2.97-4.785 4.577-7.094 2.258-3.243 4.188-6.674 6.047-10.146 2.744-5.123 6.106-9.768 10.345-13.754 1.623-1.526 3.07-3.209 4.517-4.891h0 0 0 0 0 0 0 0 0 0 0 0 0 0 0 0 0 0 0 0 0 0 0 0 0 0 0 0 0 0 0 0 0 0 0 0l2.187-2.498.01-.011c2.719-2.996 5.449-6.004 8.41-8.75 1.33-1.234 2.857-2.256 4.383-3.279l2.142-1.471 1.691-1.209h.001c1.706-1.214 3.413-2.429 5.051-3.729 1.065-.845 1.983-1.917 2.82-3.002 2.403-3.117 5.517-5.321 8.897-7.228 2.361-1.331 4.878-2.157 7.542-2.602l1.429-.257c-.494 1.028-.907 2.306-1.082 3.863-3.699.904-7.021 2.613-9.958 5.157-.602.52-1.172 1.102-1.646 1.739-2.172 2.93-4.935 5.176-7.962 7.158-3.049 1.995-6.054 4.057-9.049 6.131-3.768 2.609-7.034 5.795-10.131 9.139l-.213.23c-2.935 3.172-5.865 6.339-9.079 9.242-3.43 3.097-6.129 6.783-8.258 10.87-2.596 4.982-5.447 9.807-8.512 14.514-1.733 2.661-3.31 5.427-4.841 8.208-1.389 2.521-3.096 4.807-4.807 7.098l-.867 1.165-.571.782zm35.097 14.916c1.847-.644 3.716-1.233 5.594-1.775l8.548-3.633a136.97 136.97 0 0 0-5.199.443c-2.994.319-5.848 1.201-8.638 2.306l.002-.001-1.389.536-2.036.799 3.118 1.325zm-4.965-2.11l-1.506-.64a19.95 19.95 0 0 1 1.782-1.011h-.002c2.706-1.361 5.415-2.716 8.352-3.525 2.428-.669 4.927-.915 7.425-1.082 1.467-.099 2.938-.142 4.408-.185l2.718-.093 1.376-.056 2.569-.113-3.645 1.549-6.261.259c-6.141.264-11.841 2.045-17.217 4.897zm-3.317-1.41l-1.734-.737.037-.031c2.962-2.468 6.087-4.706 9.532-6.463 2.259-1.154 4.651-1.8 7.191-2.011 1.82-.15 3.643-.16 5.464-.171h0l3.724-.066 1.577-.06c3.424-.124 6.857-.249 10.207-1.129 2.882-.757 5.605-1.931 8.329-3.105l.002-.001.982-.423c1.266-.542 2.491-1.146 3.679-1.806v1.873c-1.893 1.079-3.857 2.035-5.82 2.991h0l-2.182 1.071c-2.544 1.268-5.218 2.176-8.059 2.434-2.53.229-5.072.366-7.611.483l-3.859.129h-.001 0 0l-4.434.157c-2.114.109-4.218.361-6.24 1.05-3.907 1.333-7.419 3.408-10.753 5.793l-.031.022zm46.88-28.4l2.11-.787V84.8c-1.096.233-2.198.439-3.304.633-3.261.57-6.363.102-9.295-1.447l-1.633-.855-.002-.001-.002-.001-.002-.001-.002-.001-.002-.001-.002-.001-4.209-2.255c-1.299-.732-2.627-.993-4.072-.645l-.288.068c-.374.088-.749.176-1.109.306-5.318 1.922-10.507 4.134-15.454 6.887-3.144 1.749-6.042 3.83-8.24 6.723-1.429 1.882-2.775 3.828-4.119 5.772l-.374.541-.959 1.395h0c-1.91 2.785-3.819 5.57-6.136 8.047l-.438.468-.001.002-.003.003-2.116 2.314 2.501 1.063a29.52 29.52 0 0 1 1.711-1.816l.236-.23c1.054-1.026 2.114-2.058 3.033-3.198 1.336-1.656 2.631-3.343 3.927-5.031h0l2.644-3.417c1.055-1.343 2.137-2.67 3.283-3.936 1.55-1.712 3.46-2.938 5.651-3.659l.089-.029h.002 0l11.529-3.654c1.37-.4 2.87-.649 4.281-.55 2.756.192 5.485.677 8.136 1.54 4.208 1.37 8.44 1.48 12.63-.053z" fill="url(#G)"/></g><g fill="#5c5c5c"><path d="M20 39l-8-6v46l8-6V39zm60 0l8-6v46l-8-6V39z"/></g><path d="M12 34v-1l8 6v34l-1 .75-.003-34.477L12 34z" fill="#3a3a3a"/><mask id="A" maskUnits="userSpaceOnUse" x="10" y="30" width="12" height="52" fill="#000"><path fill="#fff" d="M10 30h12v52H10z"/><path d="M20 39l-8-6v46l8-6V39z"/></mask><path d="M20 39l-8-6v46l8-6V39z" stroke="#797979" stroke-width="3" mask="url(#A)"/><path d="M88 34v-1l-8 6v34l1 .75.003-34.477L88 34z" fill="#3a3a3a"/><mask id="B" maskUnits="userSpaceOnUse" x="78" y="30" width="12" height="52" fill="#000"><path fill="#fff" d="M78 30h12v52H78z"/><path d="M80 39l8-6v46l-8-6V39z"/></mask><path d="M80 39l8-6v46l-8-6V39z" stroke="#797979" stroke-width="3" mask="url(#B)"/><g opacity=".35" fill="#fff"><path d="M39.485 37.415c-.173.114-.094.304-.174.447-.116.207-.176.206-.413-.026l-.004-.011c.086-.049.111-.123.111-.208.042-.012.059-.039.049-.078.095-.043.129-.121.147-.206l-.005.006.295.057-.004.02h-.001zm-1.268 12.572l.046.143.005.275-.035.158c-.109.039-.219.05-.33.006l-.027-.446c.022-.044.026-.09.014-.138a.08.08 0 0 0 .036-.101l.151-.051.139.155v-.001zm-13.741 1.988c-.066-.176.077-.293.155-.43h.003l.161.004a1.02 1.02 0 0 1 .022.138l.024.155.115.132-.005.127-.149.04-.17.035c-.026-.025-.024-.05.004-.073-.018-.076-.081-.107-.157-.126l-.001-.001zm38.071-6.535c.218-.061.361-.025.344.212l-.036.346.004-.003c-.157.023-.192-.127-.303-.171.026-.043.017-.08-.028-.108l.023-.28-.004.005zM51.192 63.491c-.21-.097-.167-.196-.004-.294a.19.19 0 0 0 .156-.134c.104.005.247-.003.267.099.032.163-.14.165-.264.192a.19.19 0 0 0-.155.136v.001zm-1.05 13.807v-.007c.161.202.219.395-.073.549l.005.005c-.075-.129-.2-.245-.129-.409l-.021.02.218-.157v-.001zM23.007 40.532c-.034.033-.072.063-.099.099-.08.107-.191.158-.308.074s-.059-.193.027-.282l.094-.103-.005.002c.147.014.192.142.295.206l-.004.006v-.001zm13.79 1.632l-.17.008c-.021-.113-.01-.238-.155-.3.007-.091.01-.208.125-.223.182-.023.169.134.21.234l-.012.281h.001zm33.047 9.368h-.209l-.057-.271.318-.135-.005-.003.138.273.019-.01-.205.146v.001zm-55.14-6.916l-.004.043c-.143.094-.296.085-.453.038l.019.016c-.053-.135-.05-.271.004-.406l-.019.023c.225.002.352.129.452.287h.001zm13.462 24.12c-.035-.273-.079-.546.048-.812h.041c.043.277.246.567-.089.812zm24.277 32.059l.003.177a.56.56 0 0 1-.446.021l.017.017.009-.25-.017.016c.147-.051.292-.045.433.019h.001zM40.604 95.9c-.063-.043-.133-.08-.187-.13-.076-.07-.139-.166-.022-.238.106-.065.192.006.249.092l-.04.274v.001zm14.261-47.623c.438.086.492.155.331.422l-.17-.141h.001l-.164-.138-.003-.002.004-.142v.001zm26.767 23.187l-.084.376.009-.005-.288-.132.009-.191c.048-.014.09-.035.127-.066l.228.017h-.001zM47.504 23.973l-.005.536c-.086.018-.149.003-.158-.088-.008-.119.036-.257-.146-.312l.005-.142-.008.007.313-.001h-.001zm27.189 57.992c.205.03.139.182.169.291l.04.15-.049.021-.037-.035a.15.15 0 0 1-.104.004c-.182-.03-.154-.157-.158-.269.073-.036.136-.079.139-.163l.001.001zm-55.483.389v-.058l.147-.182c.277.022.377.109.153.321l-.3-.081zm59.755-13.618h-.052l-.085-.266c.034-.026.048-.058.044-.098l.308-.07-.008.292-.207.141v.001zm-18.658-1.28v-.114l.152-.157h.003l.229-.123.021-.002.079.27-.005.005c-.085.016-.139.06-.161.136l-.317-.015zM38.711 78.261c-.051.085-.124.15-.234.097-.08-.038-.063-.114-.028-.178l.106-.18.16-.008-.001.269h-.001zM26.515 59.398c-.041.022-.086.065-.121.059-.089-.016-.117-.083-.067-.148.021-.026.102-.043.131-.028s.039.076.057.117zm10.279 3.906c-.088-.007-.143-.049-.13-.127s.079-.114.16-.092a.15.15 0 0 1 .091.086c.021.08-.037.12-.121.133zm17.257-42.606c.031.042.036.088.014.134.01.033.007.065-.01.094.028.023.034.05.017.08-.094-.076-.203-.041-.309-.034l-.017-.28.304.003.001.002zM52.45 66.614c-.12-.013-.26-.02-.234-.168.017-.093.134-.103.231-.109l.004.277zm-7.021-44.922c-.054 0-.107 0-.161-.001.004-.101-.071-.134-.163-.151a1.19 1.19 0 0 1 .009-.133l.313-.013c.201.098.023.198.003.298zm-.631 1.179c.03.031.086.061.086.092 0 .083-.071.118-.152.086-.031-.012-.059-.081-.049-.114s.075-.043.116-.064l-.001-.001zm-15.252 1.982c-.04.02-.085.063-.12.057-.086-.016-.115-.081-.066-.144.019-.025.099-.041.129-.026s.039.074.057.114zm18.927 2.237l-.009-.283c.124.013.285.005.256.169-.017.099-.146.108-.247.114zM19.475 71.762c-.039.024-.078.07-.113.068-.091-.008-.128-.072-.084-.142.018-.028.099-.052.133-.04s.044.074.064.114zm25.26-39.818c-.039.024-.079.069-.113.066-.089-.01-.125-.074-.085-.142.017-.027.098-.048.131-.035s.045.073.067.111zm-18.978.538c.008-.093.017-.21.134-.222.192-.019.175.125.183.239l-.318-.016.001-.001zm51.303.488c.035.014.097.021.113.048.039.061.01.124-.067.142a.14.14 0 0 1-.117-.044c-.034-.059-.016-.118.071-.146zM26.075 73.467c-.157-.06-.166-.181-.156-.308.247.024.384.093.156.308zm38.226.404c-.001-.093.005-.21.116-.227.179-.028.192.108.204.224l-.321.003h.001zm-46.733-36.55l-.046-.007-.046.006-.041-.275.003-.002.194-.13c.028.008.057.008.086 0l.039.274-.189.134h.001zm70.09 1.123c.014.122.003.233-.138.299l-.178-.163-.004-.244c.051-.013.104-.019.157-.019l.005.003.157.123v.001z"/><path d="M23.675 40.028c-.142.092-.283.186-.477.139v-.13l.164-.148-.004.003.314.013a.79.79 0 0 0 .004.124l-.001-.001zm-6.239 36.969l.005-.283c.102.006.232.014.249.111.03.163-.131.157-.254.172zm.645-35.846c.009-.09.01-.208.128-.219.183-.018.176.124.187.236l-.316-.016.001-.001zM55.163 77.99l.341.001-.01.282-.27-.008-.061-.276v.001zM36.471 42.014c.001.123-.019.235-.161.294-.256-.233-.046-.264.161-.294zm.898 37.099h-.198l-.044-.264-.01.009.312-.006-.006-.006-.053.266zm28.046-35.247c-.118-.016-.301-.019-.254-.16.053-.155.18-.083.26.02l-.008.14h.001zM44.297 79.947c-.035-.026-.093-.048-.102-.078-.022-.084.04-.133.128-.127s.126.073.097.142c-.013.031-.08.043-.122.064zm16.702.167c.035-.027.069-.076.104-.076.094 0 .131.064.097.135-.014.027-.091.052-.127.043s-.049-.067-.072-.102H61zm-4.534-34.442c-.081-.019-.12-.07-.093-.136.012-.027.076-.057.113-.055.084.007.116.068.092.133-.01.027-.074.039-.112.058zM44.887 81.525c-.018.036-.024.092-.055.108-.071.034-.143.01-.162-.061-.009-.032.019-.093.052-.108.071-.034.133-.005.167.063l-.001-.001zm23.726-33.938l.01.281-.31-.06c.008-.04-.005-.074-.036-.103l.023-.139.313.022zM34.552 82.118l-.318-.01v-.267h.316l.004.276-.001.001zm20.951-34.147c.14.014.283.019.341.166l-.018.014-.164.125-.075-.002h-.075l-.165-.151.155-.151zM29.285 82.279l.306-.022c.001.091.009.214-.097.235-.174.036-.195-.098-.211-.214h.001zm16.623.588c.031.031.088.061.088.092 0 .084-.071.119-.153.088-.032-.012-.059-.082-.05-.116.008-.028.075-.043.116-.064zM20.782 84.67c-.101-.008-.237-.001-.251-.105-.022-.157.138-.16.264-.176l-.012.281h-.001zm-2.08.195l.004.194-.308.041.001-.278.303.041v.001zm51.337.52c.017-.115-.044-.268.178-.281l-.002-.002.144.2v.03l-.281.136c.014-.038 0-.065-.039-.083zm-27.639.02l.308-.019c0 .091.008.214-.098.235-.174.035-.193-.1-.21-.215v-.001zm3.029.836c-.12-.017-.305-.016-.258-.161.052-.156.183-.086.27.014l-.012.148h-.001zm38.041 5.977l.164.147c.059.06.054.135-.003.185-.119.107-.184-.019-.247-.068-.094-.073-.03-.172-.014-.26.033.009.068.008.102-.003h-.001zM12.198 66.46c-.111-.251-.008-.326.269-.257l-.004-.006a.69.69 0 0 0 .017.136v.002l-.184.133-.046-.02-.05.01-.001.001zm74.188-25.297l-.008-.278c.124-.006.233.017.307.116l-.16.165-.07-.005h-.069v.001zm-67.53.329c-.017.077.058.191-.076.219-.052.01-.122-.056-.184-.086h-.021l.209-.157c.017.027.04.035.072.024zm1.142.234a.28.28 0 0 1 .13-.267l.188.133a.38.38 0 0 0-.008.121l-.31.014zm-3.83 27.589c-.002-.081-.023-.188.102-.192.106-.003.152.085.158.179l-.26.014zm54.21-23.305l-.031-.157a.24.24 0 0 0 .044-.115l.131-.017.168.168c-.012.024-.012.049-.003.074l-.309.047zm-3.839 26.004l.168.15-.166.143-.003-.002-.158-.139-.004-.003.002-.143.159-.006h.002zm15.195-21.033c.064-.108.161-.188.272-.069.067.073-.014.157-.104.206l-.169-.136h.001zM58.855 75.424c-.134.006-.294.06-.317-.136l.003-.003.176-.133h.127l.005.276.006-.003h-.001zm-43.455.162c.08-.036.134-.153.248-.077.027.017.032.097.012.127-.072.102-.178.044-.272.027.026-.023.03-.049.012-.077zm65.055.422c-.018-.12.022-.217.139-.285l.179.148c-.005.036-.006.073-.003.109l-.314.028h-.001zm-26.546.419c-.072-.016-.194-.017-.207-.051-.055-.144.09-.181.198-.232l.009.283zm-24.156 24.881c-.102-.05-.179-.128-.082-.215s.184-.019.242.072l-.16.143zM15.634 77.532c-.169-.109-.12-.24-.048-.374l.015-.006c.122.123.108.255.026.389l.006-.01v.001zm18.598-51.584l-.003-.143.165-.134c.148.052.158.164.156.282l-.318-.005zm-9.222.873l.067-.005.194.143c-.008.035-.009.072-.004.107l-.313.027h-.001l.058-.273h-.001zm31.756 5.243a.39.39 0 0 1-.29-.095l.186-.175.07.003.033.267h.001zm13.538 28.647c-.041.018-.086.056-.121.05-.085-.014-.115-.076-.073-.142.013-.02.093-.031.12-.016.036.02.052.071.076.108h-.001zM42.709 85.239l-.174-.138.013-.149.318.014c-.004.114-.019.221-.157.273zm-6.715 16.365l-.312-.036c.01-.028.01-.056-.001-.083l.169-.172a.85.85 0 0 0 .113.001l.039.281-.008.009zm10.552-16.366a.65.65 0 0 1 .159.001c0 .09.054.132.153.133l.058.06c-.022.028-.036.06-.044.093l-.281-.011-.048-.275.004-.002-.001.001zm-23.509-23.04l-.002-.13.17-.139-.005.006.073.003.073-.002v-.008l.005.28-.317-.01h.002zm42.708 23.624c.101-.056.169-.166.313-.15.022.205-.08.291-.306.258.012-.036.009-.073-.007-.108zM61.226 62.91c-.022.039-.032.097-.067.11s-.087-.021-.134-.034c.026-.039.042-.085.079-.113.051-.041.099-.023.122.036zm.347-26.148l.173-.158.157.01v.148l-.155.14-.005.005-.17-.146v.001zm-45.733.287l.308.156c-.017.028-.018.057-.003.086l-.308.04.008-.283-.004.002-.001-.001zm62.857 27.146c.079-.093.179-.184.279-.045.058.08-.026.16-.129.193l-.151-.148zM33.585 99.48c-.005.04-.004.079.005.118l-.224.132-.111-.13.018-.14h-.001l.313.019zm6.885-34.006c.057-.089.144-.152.24-.072s.023.162-.069.216l-.17-.144zm-3.675 26.605l-.319-.022c.12-.151.229-.174.319.022zm33.739-.167c-.086 0-.174-.019-.148-.114.03-.114.104-.065.167-.015a.69.69 0 0 0-.019.129zM44.475 22.113l-.004-.279a.92.92 0 0 1 .158-.001v.151c.004.043 0 .086-.015.128h-.07-.069zm-.648 1.138l.318.006-.003.123-.316.014a1.12 1.12 0 0 1 0-.142zm-14.871.291l.318-.006v.148l-.317-.021-.003-.123.001.001zm-8.492 66.965l.022.283c-.058 0-.115-.001-.173-.002l.021-.281h.13zm20.708-65.856l-.071-.265c.371-.012.111.163.101.264h-.03v.001zm11.776.458l.29.051.009.017-.298.052a.95.95 0 0 1 0-.122l-.001.001zm-.213 1.971c-.079-.105-.171-.211.049-.273l-.049.273zm-31.128 1.001c-.009-.116-.009-.227.146-.273 0 .111-.009.22-.146.273zM35.039 29.1l.313-.022v.152l-.317-.024a.73.73 0 0 0 .004-.107zm7.991.838l.318-.002v.143l-.318-.008v-.132-.001zm16.302 1.702c-.171-.104-.209-.2.018-.283l-.018.283zm-26.853.589c.116.007.18.063.158.164-.014.067-.085.094-.162.093l.004-.257zm55.488 1.244c-.14-.026-.228-.09-.111-.207.044-.043.115.026.144.082a.33.33 0 0 0-.034.125zm-40.61.182l.308-.019.003.149-.316-.032a.49.49 0 0 0 .005-.098zm-13.605 1.683l.306.024a.59.59 0 0 0 .006.096l-.314.029v-.15l.001.001zm-1.436.434l.317-.009c.003.047.001.093-.001.141l-.314-.014v-.118h-.001zm5.274.704l.001-.283h.151l.005.282h-.079-.079v.001zm24.632-.144l.164-.006-.004.29c-.053.005-.104 0-.155-.015l-.005-.271v.001zm.803 1.137l-.004-.283c.184.092.182.188.004.283zm-31.675.278l.307.039a.16.16 0 0 0 .006.078l-.312.045-.001-.163zm-6.077 1.715l.005-.282c.173.097.178.191-.005.282zm52.468-.279c.224.017.178.149.147.274-.095-.013-.142-.072-.179-.142a1.18 1.18 0 0 0 .035-.136l-.004.003.001.001zm-57.169 49.5l.064.256c-.243-.025-.122-.152-.091-.255h.027v-.001zM49.269 40.87l-.015.291c-.17-.105-.166-.201.015-.291z"/><path d="M85.919 41.076c.118-.019.268-.116.298.092h-.001l-.304-.056.008-.036zm-65.898 1.645l-.031-.276.004-.003.163-.006.012.009-.039.28a.67.67 0 0 0-.11-.005v.001zm50.994 45.5l-.317.008v-.149l.317.017v.124zM12.466 43.588l.036-.278a.4.4 0 0 0 .111-.005l.032.281-.18.002.001-.001zm73.117.136l.013-.274.126-.006.034.284-.174-.005h.001zm-52.951.286l.319.002-.001.133-.317.007v-.142h-.001zm-7.671 2.415v-.279c.188.093.188.185 0 .279zm1.265.268l-.147.031c-.088.019-.136-.028-.184-.081.061-.031.119-.072.183-.089.044-.011.098.01.147.018a.39.39 0 0 0 0 .122l.001-.001zm-10.711.018l.317.011-.153.149c-.086-.028-.144-.078-.164-.16zm29.113 1.993h.318v.134l-.318.003v-.139.001zm26.389.425l.013-.281.12.002.028.277-.161.002v-.001zm-7.83 38.102l-.014.283c-.179-.101-.201-.197.014-.283zm-1.949.095l-.292.04a.79.79 0 0 1 0-.124l.3.047-.008.036v.001zM23.74 49.674l-.062-.12c-.043-.079.015-.144.077-.144s.118.065.073.143l-.062.12h-.027v.001zm20.938.137l-.05-.255c.053-.005.104 0 .156.015a.28.28 0 0 1-.106.24zm-16.524.174l.316.005-.001.117-.312.007a.77.77 0 0 1-.001-.127l-.001-.001zm47.986.282c-.158-.047-.155-.164-.155-.28l-.002.002.138-.003.019.281zm5.598-.137l.317-.003v.14l-.318-.009v-.126l.001-.001zm-31.347.561l-.005-.282c.204.091.202.185.005.282z"/><path d="M50.533 51.092c-.171-.03-.176-.139-.156-.259.185.024.158.148.156.259zm-24.778.312c-.201-.093-.196-.189-.003-.284l.003.284zM12 51.265c.16.044.158.158.147.275-.134-.056-.148-.161-.147-.275zm41.613 2.687c-.004-.081-.086-.222.022-.226.203-.009.062.144.079.226h-.05-.05zm-20.49.575l-.01-.279c.222.086.188.181.01.279zm13.11 1.012l.316-.011v.143l-.317-.01.001-.122zm-32.955 1.694l.318.005-.001.127-.317.014v-.146zm15.515.284l.001-.283h.152l.009.284h-.162v-.001zm23.701.478l.29-.047-.003.122-.299-.043.012-.032zm-39.223.659c-.203-.089-.175-.183-.009-.28l.009.28zm50.392.004l.318-.003v.143l-.319-.003v-.136h.001zm.313.567l.014-.264c.171.094.204.184-.014.264zm-51.321.562l-.023-.281.164.002-.024.277-.058-.002-.059.002.001.001zm51.652.29c-.231-.078-.176-.176-.026-.282l.026.282zm-11.199.007c.097-.01.241-.019.236.076-.004.078-.157.073-.255.063a.72.72 0 0 0 .021-.139h-.001zm1.116.562c-.193-.086-.171-.182-.013-.281l.013.281zm8.317-.285l.318.003-.003.126-.317.018v-.148h.001zm-40.236.689l-.064-.258-.004.002.079-.006h.08c.032.104-.03.184-.077.268l-.013-.007zm1.04 1.734l.012.284c-.175-.09-.183-.184-.012-.284zm39.207.019c.186.092.193.18-.01.259l.01-.259zm-43.836.262c.004.047.004.092 0 .139l-.317-.011.16-.142.156.016.001-.001zm25.023.828c-.035-.102-.174-.232.086-.256l-.004-.003-.071.265-.012-.006zm-22.297-.105l.312-.011a.53.53 0 0 1 0 .138l-.314-.02v-.106h.003zm29.761.251l-.014-.265.169-.003c.039.13.036.241-.153.268h-.001zm17.737-.263l.317.002v.131l-.32.01.001-.142.001-.001zm-34.7.158l.312-.02v.144l-.313-.025a.53.53 0 0 0 .001-.1v.001zm-20.965.259l.314.023a.58.58 0 0 0 0 .102l-.313.027-.003-.002-.005-.144.005-.006h.001zm1.287.006l-.009.28c-.169-.041-.174-.154-.152-.277l.161-.002zm63.642.141l.327.014v.113l-.313.012-.014-.139zm-49.418.854c-.169-.097-.178-.191.005-.282l-.005.282zm20.32-.283l-.019.293a.5.5 0 0 0-.122 0l-.019-.293h.161zm-23.033.569l.012-.281h.131l.021.281h-.164zm36.79-.001l.003-.282h.142l.006.28h-.075-.075l-.001.002zm18.072.142l.319.003v.135l-.318.002v-.141h-.001zm-49.901.859l.305.022c0 .034.003.068.009.102l-.318.029.004-.154zm2.08 18.192l-.033.27c-.125-.104-.173-.199.033-.27zm10.107-14.941l-.035-.272h.001l.161-.001h.001l-.04.278-.044-.006h-.045v.001zm-12.828.158l.318-.002v.138l-.317-.005v-.132l-.001.001zm48.321.841c.055-.127.169-.149.304-.134l.004.157-.319-.026.012.003zM40.63 84.248l-.312-.02c.004-.033.004-.065-.001-.098l.314-.031.004.005-.004.144h-.001zM23.829 71.165c-.171-.098-.182-.192.006-.283l-.006.283zM22.55 84.096l-.317.013c.097-.18.204-.165.317-.013zm-1.465-.053c-.073.012-.151.043-.219.032-.076-.014-.075-.083.003-.093.068-.009.144.026.216.041v.019.001zM27.38 72.29l-.032-.273.004-.002.161.006c.008.11-.01.21-.133.268v.001zm-.984-.122l.313.003v.117l-.314.008a.85.85 0 0 1 0-.129h.001zm33.105-.01l.299.019c-.057.121-.17.143-.3.136l.001-.156zm-34.059 1.158c.097-.013.251-.027.25.057s-.153.067-.25.052v-.11.001zm8.01.968l-.031-.276c.209.075.183.171.031.276zm26.687.296l.014-.28c.164.1.174.193-.014.28zm-22.891.847c-.138-.107-.21-.209.033-.281l-.033.281zm12.362.479c.122-.043.263-.13.285.088l.007-.005-.296-.049.005-.033v-.001zm25.73 1.381l.317-.006c-.102.166-.207.163-.317.006zm-26.37.468l.145-.038c.097-.028.134.013.118.09-.011.058-.062.064-.121.036-.044-.02-.095-.028-.144-.042v-.045l.001-.001zm-10.258.238l.162-.006.041.148-.205.127.001-.27zm33.89 3.132c.016.09.028.233-.064.233s-.079-.143-.063-.233h.127zm-.622.565c.08.012.206-.042.201.092 0 .017-.13.03-.201.044a.82.82 0 0 1 0-.136zm-14.245.853l.025-.28c.157.105.201.201-.025.28zm9.459-.007l-.008-.277c.05-.003.1-.003.152 0v.28h-.072-.072v-.002zm-22.996.696l-.048-.263c.245.02.124.156.103.26l-.054.002h-.001zm14.986 20.351l-.01.282h-.133l-.015-.28a1.05 1.05 0 0 1 .158 0v-.002zm-17.755-.285l-.022.276-.116.003-.026-.28h.164v.001zm-1.6-3.553l-.021.275-.113.003-.028-.278.003-.002.161.003-.001-.001zm-2.882-1.271c-.112.14-.219.16-.317-.013l.317.013zm4.008-.58l-.04.272h-.046l-.045.006-.042-.278h.174zm5.709-.263l.04.264a5.37 5.37 0 0 1-.139-.002l.036-.268.063.007zm-13.556-.155c-.109.15-.215.156-.317-.007l.317.007zm16.001-.143c.234.011.171.151.149.273l.005-.003a.63.63 0 0 1-.147-.016l-.008-.254zm-29.461-.705l.037.276a8.28 8.28 0 0 1-.173-.002l.036-.276a.35.35 0 0 0 .098.003l.001-.001zm-5.733-.728l-.316.003a.89.89 0 0 1 .001-.132l.312.003.002.125zm39.659-1.41l-.043.258-.055.008-.058-.273.004-.002c.053.001.104.006.156.012l-.005-.003h.001zm-32.019-.131l.037.265h-.075-.075l.028-.275c.026.011.054.015.082.01h.001zm.82-1.002l.027.275c-.207-.076-.178-.172-.027-.275zm16.658-.146c.231.012.193.143.153.275-.169-.04-.156-.16-.153-.275zM43.673 19c.038.014.106.022.112.041.021.08-.049.084-.114.083l.003-.124zm14.389 1.691c.108.001.164.05.165.147-.097-.011-.152-.06-.165-.147zm-7.517.996c-.069.003-.142 0-.121-.084.005-.021.076-.03.117-.043l.004.127zm11.833.999c.005.097-.045.144-.154.14.008-.085.059-.132.154-.14zm-30.701.438a.44.44 0 0 1 .149-.009c-.003.089-.05.138-.155.134-.001-.042 0-.084.004-.125h.001zm26.542 2.537c-.063-.003-.14 0-.119-.083.005-.021.077-.027.119-.04a.63.63 0 0 1 0 .123zm-2.557.715c.118-.008.171.043.164.147-.1-.008-.155-.058-.164-.147zm-23.35.147c-.018.078-.071.124-.158.14.019-.076.073-.123.158-.14zm4.959.001c.073-.002.155-.002.133.09-.005.022-.085.029-.13.043l-.003-.133zm13.438 1.713c.044.014.12.021.125.041.022.088-.057.088-.126.089a1.08 1.08 0 0 1 0-.13h.001zm-35.511 1.131c.086.017.139.064.158.141-.085-.018-.138-.065-.158-.141zm-.964 1.554c-.137-.043-.135-.085 0-.127v.127zm26.236 2.709v-.141h.16l-.003.132c-.052.007-.103.008-.155.005v.006l-.002-.001zm-27.356 2.693L13 36.262l.114-.063c.003.041.003.083 0 .124v.001zm49.429.014h-.169c-.004-.102.053-.147.165-.14l.005.139-.001.001zm-25.589.14c.051-.002.102 0 .152.007.003.042.004.084.001.126-.089-.01-.139-.056-.154-.134l.001.001zm-11.677 1c.045.014.124.02.129.041.023.091-.059.089-.129.09-.003-.043-.003-.086 0-.131zm-8.628.423l.149-.005c.004.099-.05.146-.161.142a.46.46 0 0 1 .012-.138zm18.544.713c.086.014.136.058.152.135a.18.18 0 0 1-.152-.135zm-17.44 1.834c-.061-.001-.131-.005-.11-.082.005-.019.072-.027.109-.04a.76.76 0 0 1 .001.12v.001zm3.358 2c-.003.09-.052.14-.156.142.012-.082.063-.13.156-.142zm37.911.567l-.125-.059.118-.066.006.125zm-27.353 1.983c-.06 0-.126-.006-.108-.078.005-.019.068-.027.104-.041a.79.79 0 0 1 .003.119h.001zm13.759.008v-.142h.16l-.001.134a.81.81 0 0 1-.157.007l-.001.001zm12.149.128c-.038-.014-.105-.022-.11-.042-.019-.078.047-.085.114-.082l-.004.125v-.001zm-15.664 1.577c-.007-.098.045-.147.157-.142a.41.41 0 0 1-.021.138l-.138.003.001.001zm15.031.145c.09.014.144.06.16.141-.085-.019-.139-.065-.16-.141zm-40.79.987l-.124-.061.121-.062c.003.041.004.083.001.124h.001zm35.673-.133c.102.002.153.049.157.139a.71.71 0 0 1-.155-.016l-.004-.124.001.001zm9.259.429c-.014.033-.022.092-.043.095-.085.017-.082-.045-.086-.097.044-.004.086-.004.13 0l-.001.001zm15.209-.005c-.004.091-.055.142-.16.146.014-.082.067-.132.16-.146zm-50.7.429l.175.07a.16.16 0 0 1-.174.065v-.135h-.001zm36.471.848c0-.092.045-.147.157-.142l-.006.13a.33.33 0 0 1-.153.009l.003.003zm-19.995.437c.064 0 .128.009.107.083-.005.02-.069.027-.105.041a.63.63 0 0 1 0-.123l-.001-.001zm8.64.718c.038.014.107.022.112.042.019.08-.053.08-.116.081l.004-.122v-.001zm-12.799.275c.044.014.122.022.127.043.023.09-.057.092-.129.092l.001-.135zm16.635.571c.067 0 .144 0 .122.085-.005.02-.08.027-.122.04a.67.67 0 0 1 0-.125zm11.029 3.534c-.04-.012-.111-.019-.116-.039-.021-.082.054-.08.116-.082a.62.62 0 0 1 0 .12zm-49.253.853a.71.71 0 0 1-.004-.129c.112-.005.171.039.162.142a.83.83 0 0 1-.158-.014zm14.392.584a.64.64 0 0 1 .152.01.62.62 0 0 1 0 .12c-.091-.006-.143-.049-.153-.13l.001-.001zm9.584 1.28c-.003.057.001.126-.094.108-.022-.005-.03-.069-.044-.107a.93.93 0 0 1 .138 0v-.001zm28.16.424c-.004.09-.057.138-.158.141.014-.081.067-.128.158-.141zm.482.57a.65.65 0 0 1 .153.009l.005.132c-.104-.002-.153-.052-.159-.142v.001zm-48.945 1.422c.089.012.138.06.153.138h.004a1.02 1.02 0 0 1-.156-.006l-.001-.132zm23.035.857c.064.004.142 0 .121.084-.005.02-.077.027-.12.041l-.003-.125h.001zm4.479 1.424c.052-.007.102-.008.153-.006-.017.076-.066.124-.155.135l.001-.13zm-15.198 1.271v-.142h.16v.142h-.08-.08zm41.91.582c.041.014.112.02.116.041.019.083-.054.083-.12.082l.003-.123h.001zm-59.668 3.248c-.06-.003-.135-.001-.114-.081.005-.02.073-.027.113-.04a.62.62 0 0 1 0 .122l.001-.001zm72.3 1.573c.107-.003.152.048.149.139-.093-.009-.142-.057-.149-.139zm-61.575.297c.076.001.148.016.117.101-.008.022-.082.025-.126.036l.008-.138h.001zm51.668.275l.125.072-.13.065a.57.57 0 0 1 .005-.137zm-51.663.704c.051-.135.1-.12.148.002-.049 0-.098 0-.148-.002zm23.019-.004c.104.008.153.06.161.15-.093-.017-.143-.069-.161-.15zm5.275.42c-.071-.002-.142-.016-.112-.098.008-.022.079-.025.121-.036l-.008.134h-.001zm-32.141 2.291a.63.63 0 0 1 .153.009 1.07 1.07 0 0 1 .004.129c-.108.005-.16-.042-.157-.139v.001zm-8.159.566c.11-.002.164.045.161.143a.75.75 0 0 1-.151-.011l.003.002a.52.52 0 0 1-.013-.134zm8.319.714l.113.061-.109.065-.004-.126zm-3.037.291a.63.63 0 0 1 .153-.007c-.013.08-.062.125-.153.131-.003-.041-.003-.082 0-.124zm14.075 24.587c.017-.078.068-.125.157-.14a.19.19 0 0 1-.157.14zm-11.999-.139c.103.003.164.047.168.142-.091-.014-.151-.058-.168-.142zm37.744-6.125l-.118-.067.121-.064-.003.131zm-15.827 5.281c.04.013.109.019.115.039.021.081-.053.081-.116.082a.76.76 0 0 1 0-.122l.001.001zm15.514-1.139c.038.013.103.018.109.039.024.074-.046.08-.105.09-.006-.043-.008-.085-.005-.129h.001zm15.042 6.818l.126.072-.134.057a.56.56 0 0 1 .008-.129zM58.538 96.89c-.041-.014-.112-.022-.117-.042-.021-.083.057-.082.121-.085l-.003.127h-.001zm-19.509-9.658c.086.017.138.064.155.141-.085-.017-.135-.066-.155-.141zm-18.233 8.956c.107.002.165.048.167.145-.095-.013-.153-.059-.167-.145zm17.432-13.224c-.088-.014-.139-.06-.157-.138h-.001l.157.007v.131h.001zM33.586 85.8l-.076.01h-.077c.007-.086.057-.134.157-.138l-.004.127zM18.72 95.63l.16.078-.166.064.006-.142zm52.456-13.518l-.077.002-.076-.01a1.12 1.12 0 0 1-.004-.131c.109-.004.157.047.157.139zm-10.551-.275c.067 0 .143 0 .121.084-.005.02-.079.027-.12.04a.8.8 0 0 1-.001-.124zm-.482 17.626c.106 0 .162.043.162.14-.095-.01-.151-.056-.162-.14zM15.026 80.27a.54.54 0 0 1 .01.136c-.093-.011-.147-.057-.157-.14l.147.004zm40.966-.149c0-.055.005-.115.09-.098.022.005.031.063.046.095l-.068.003h-.068v-.001zm-36.32 14.778a.58.58 0 0 1-.153.01c.006-.086.058-.132.156-.135a1.34 1.34 0 0 1-.003.125zm-2.236-16.06c.044.013.117.017.125.039.028.085-.043.1-.119.099l-.005-.138h-.001zm40.151-.698l.109.063-.109.063v-.125zm25.741 14.768c-.107.009-.145-.042-.147-.129.102-.006.143.046.147.129zm-10.233-11.08c.006.09-.01.176-.095.233-.031.02-.098.029-.131.014-.109-.049-.019-.1.012-.147.023-.038.057-.07.086-.105h.066l.064.006-.001-.001z"/><path d="M73.101 81.26c-.01.089-.022.177-.166.135-.022-.007-.057-.032-.054-.042.03-.106.115-.117.218-.094l.003.001zm-.316 1.133c.008-.058.036-.084.082-.069.001 0-.001.036-.013.044-.019.012-.047.015-.072.022l.002.003z"/><path d="M72.449 82.118l.091-.107c.095.113-.017.102-.088.115l-.004-.008zm.646-.289l-.064-.007h-.066c-.009-.068.013-.118.102-.094.019.005.019.066.028.101zM15.82 75.992c.022.088.022.221-.063.224-.097.003-.103-.123-.084-.212a.73.73 0 0 0 .147-.011v-.001z"/><path d="M15.821 75.992a.66.66 0 0 1-.147.011c-.017-.111.044-.153.162-.142a.28.28 0 0 1-.014.131h-.001zm.971-33.695c-.094.002-.232.084-.267-.039s.081-.229.219-.199c.133.03.037.157.045.241l.002-.003zm51.026 40.668c-.158-.015-.223-.084-.149-.221.03-.055.073-.058.115-.026.099.074.028.165.032.248h.001l.001-.001zM39.506 38.317l-.125-.053.068-.057.053.113.004-.004v.001zm-14.858.426c.024-.119-.045-.285.184-.305.09-.008.138.051.143.118.008.101.076.239-.077.282-.066.019-.169-.065-.254-.101l.004.006zM21.771 69.76l.273.015c.01.105.094.256-.097.272-.244.02-.193-.152-.177-.287zm44.924-8.841c.077-.022.142-.011.174.06.005.013-.023.052-.039.055-.088.01-.125-.038-.139-.107l.004-.008zm-11.168-2.811a.75.75 0 0 0 .112.001c.012.175.099.351-.005.579-.238-.2-.124-.397-.107-.58zm25.878 13.339l.021-.13c.085-.018.137-.067.156-.142.249.065.187.172.051.29l-.228-.017v-.001zm.652-.563c.086.017.138.066.16.141-.085-.018-.136-.067-.16-.141zM15.198 39.889c.216 0 .352.072.326.288-.343.039-.357.026-.326-.288z"/><path d="M15.359 40.602c-.108.001-.251.098-.296-.074-.021-.08.062-.129.129-.139.201-.032.151.116.17.212l-.002.002v-.001zm2.376 11.14l-.059.089c-.017-.015-.05-.034-.046-.045.009-.032.032-.06.05-.09l.055.046v.001zm40.328 5.207l-.129-.057.073-.064.055.122v-.001zM15.341 41.945c-.031.024-.072.081-.099.075-.066-.014-.125-.054-.187-.084.063-.027.124-.066.189-.077.024-.005.063.056.095.085l.001.001zm4.793-7.299a.24.24 0 0 0 .015.119c-.091.055-.131.208-.283.138-.041-.019-.066-.126-.045-.176.057-.138.196-.091.313-.082v.001zM45.903 21.54l-.071-.058c.014.003.035.002.042.011.013.013.018.033.026.05l.003-.002zm-9.44 39.678c.003.089.049.19-.075.242-.018.008-.09-.04-.098-.07-.031-.123.063-.156.176-.169l-.004-.003v.001zm.164.562l-.076.002-.076-.002c.015-.078.067-.123.154-.138a.8.8 0 0 1 0 .136l-.002.001zm-5.75.425a.47.47 0 0 1-.001-.135c.067.001.136.011.113.09-.006.022-.073.031-.112.046zm1.109-21.178c-.013-.072.008-.129.094-.147.016-.003.059.027.058.039-.009.076-.072.102-.149.109h-.004l.001-.001zm9.767-20.053l.074-.067c-.004.014-.002.034-.013.042-.017.012-.042.017-.064.024l.002.002v-.001zM15.511 42.425c-.017-.042-.015-.083.003-.125.196.023.142.139.116.243l-.059.003-.059-.003a.59.59 0 0 1 0-.119v.001zm17.76 42.959c-.005.063-.032.112-.112.117-.014 0-.045-.034-.041-.046.022-.067.081-.082.153-.072zm12.328.985l-.013-.275c.094 0 .191 0 .188.118-.003.098-.072.144-.174.157h-.001zM15.362 54.114c.107.016.193.052.16.167-.009.028-.079.073-.093.065-.109-.057-.062-.154-.063-.238l-.004.005v.001zm29.911.556l.149-.286c.111.031.193.097.166.201-.044.174-.198.09-.317.087l.001-.001zm-7.417 42.632l-.102-.049c.017-.015.037-.046.052-.043.036.007.07.027.104.042l-.054.049v.001zm1.625-16.547l-.026.042-.069-.047.05-.041.046.046h-.001zm22.36 11.719l-.098-.049c.017-.015.039-.043.052-.041.036.008.068.028.102.043l-.055.047zM36.243 80.247l-.093-.05c.017-.014.037-.042.05-.04.035.008.064.028.097.044l-.054.046zm-16.65-4.388c.015.029.036.059.044.09.003.011-.031.027-.047.042-.015-.03-.036-.059-.044-.09-.003-.011.031-.027.047-.042zm-2.038 17.666l.008.218c-.138.008-.344.09-.317-.138.018-.157.192-.09.31-.081h-.001zm43.604.141c.017 0 .037-.005.047.004.041.027.031.059-.03.081-.008.002-.036-.025-.044-.043-.004-.01.015-.027.024-.041h.001zm-.596 8.611l-.101-.05c.017-.015.037-.044.05-.042.036.007.068.027.102.042l-.053.049.001.001zm25.303-24.923c-.018.013-.037.037-.054.036s-.032-.028-.047-.043c.018-.013.037-.037.054-.036s.032.028.047.043zM41.404 53.881l-.028.05-.078-.052.054-.05.051.052h.001zm8.113 1.632l-.051-.026.056-.069c.017.017.047.034.046.05s-.033.031-.051.045zm27.509 20.613l-.056-.025.06-.069.055.049-.059.045zM19.51 44.433l-.296-.011c-.006-.106-.073-.251.116-.266.241-.019.209.139.18.278zm28.97 37.694l.281.01c.001.102.068.248-.116.264-.251.02-.179-.149-.165-.274zm36.594.323l-.054.086c-.017-.015-.049-.034-.045-.045.008-.032.031-.06.047-.091l.051.049v.001zm-29.885 4.222l.113.049-.063.053-.046-.106-.004.003z"/><path d="M30.87 35.339l.004.146c-.151-.044-.156-.093-.004-.146z"/><path d="M31.027 35.618l-.076.003h-.076l-.007-.145c.093.013.143.06.157.141h.001zm54.227 31h.161l-.004.282-.317.004.161-.285h-.001zm-49.269 33.545l-.124-.049.067-.059.053.111.004-.003zm30.389-19.184l-.077.068c.004-.014.003-.035.014-.043.018-.012.044-.015.067-.023l-.002-.002h-.001zm-50.05-13.8a.32.32 0 0 1-.001-.131l.126.065-.124.066h-.001zm33.742 14.367c.106.002.152.055.161.143-.112.005-.157-.051-.161-.143zm-8.793 3.134l.126.059c-.113.093-.106-.005-.122-.062l-.004.003zm33.112-24.325c.012-.08.059-.127.152-.135-.01.081-.06.126-.152.135zm-37.753 7.399l.057-.122.072.066-.129.056zM22.545 92.498l-.047.114-.068-.057.121-.052-.005-.003v-.001zm15.557-42.913a.14.14 0 0 0 .094.002c-.004.102.124.259-.133.259l.04-.263-.001.001zm6.208 30.969l.122.06c-.12.101-.099-.013-.121-.061l-.002.002.001-.001zM15.317 43.409c-.089.011-.142.055-.156.134-.371-.173.005-.241.062-.355.11.048.066.147.094.221zm48.027 50.219l.004-.275c.094.014.189.03.189.14s-.1.122-.192.135h-.001zm-39.669-30.28c-.018.075-.068.123-.155.138.017-.077.067-.124.155-.138zm19.04-29.855l-.169.136c-.117-.005-.236-.006-.291-.124l.133-.159c.143-.01.33-.1.327.147zM83.009 79.56a.57.57 0 0 1 0 .132c-.041-.014-.111-.022-.117-.043-.023-.082.05-.086.117-.089zM15.842 92.071c.162-.02.335-.074.43.109-.167.039-.358.149-.43-.109zM12.48 42.448l-.295-.025.011-.226c.241-.045.371.006.282.252l.001-.001zm21.902-.008l-.073.008-.073-.003c.003-.057.005-.122.095-.105.025.005.035.065.052.1zm40.15 38.826a.79.79 0 0 1 0 .134l-.109-.066.109-.067v-.001zm-1.92-10.673l-.076.004-.076-.003c.006-.059.001-.133.1-.114.024.005.033.073.05.111l.001.001zM47.34 24.421a.52.52 0 0 1-.155-.03l.009-.282c.182.055.138.192.146.312zm9.288 63.526a.89.89 0 0 1 .146.003c-.017.034-.027.091-.052.097-.086.017-.093-.043-.094-.1zM44.936 21.695c.037-.031.054-.069.05-.115.049.007.089-.007.119-.041.094.017.169.05.164.151l-.334.006.001-.001z"/><path d="M44.782 21.684l.173-.002c.022.123-.035.176-.175.158l.003-.156z"/><path d="M44.791 21.978l-.164.006v-.151l.165-.007-.001.152zm9.264-1.05a.12.12 0 0 0 .01-.094c.072-.007.156.022.145.076s-.095.058-.156.018zM38.861 77.999l.005-.152.165.076-.17.076zm1.77-38.82c.052-.003.103-.003.155 0-.051.123-.103.124-.155 0zm8.462 26.289l-.068.007-.068-.003.009-.267c.041-.005.081-.006.122 0l.005.264zM29.748 25.959c.008.098-.013.184-.118.237-.017-.101-.117-.235.118-.237zm32.318 16.484c.014.119.054.25-.151.275-.01-.118-.108-.274.151-.275zm-46.555-.017a.59.59 0 0 0 0 .119c-.126.059-.142-.019-.157-.1.05-.018.103-.024.157-.019zm1.761 3.722c.023.126-.102.188-.155.28-.113-.018-.252.014-.297-.127.129-.102.254-.213.452-.151v-.001zm18.72 55.585c-.003.116-.01.229-.157.281-.003-.118 0-.233.157-.281zm4.155-34.975h-.077-.077a.99.99 0 0 1-.001-.139c.086.016.139.063.157.14l-.001-.001zm1.592 8.807l-.072.007-.073-.002c0-.091.048-.141.155-.138.003.044 0 .089-.009.133zm15.842-53.736c-.099-.006-.148-.055-.157-.139.099.005.148.055.157.139zm-8.971 58.45l-.019.242-.422.009-.013-.256a.6.6 0 0 1 .455.005zm4.499 11.792l.318-.006-.012.279-.294-.008-.013-.265zM23.522 61.932c.049-.008.097-.008.146 0l-.041.235h-.068l-.036-.234v-.001zm25.904-11.523h-.08-.08v-.142h.16v.142z"/></g><g fill="#5c5c5c"><path d="M50 19L7 10.5L50 23V19Z"/><path d="M50 19l43-8.5L50 23v-4z"/></g><g fill-rule="evenodd"><path d="M62.456 62.743L65 69.8 55.7 74l-4.8-20.4-2.875 8.172 3.251-1.335 1.478 6.284-17.752 7.278L35 74h0l7.377-21.078 6.273-4.571-5.096 1.209 1.383-3.952L43.1 44h2.4 0 10.2l4.59 12.734h0l2.166 6.009h0zm1.111-.456l-2.166-6.009L65 54.8l-1.432 7.487z" fill="#f5f1ee"/><path opacity=".3" d="M50 122l40-17V27c0-6.5 4-9 4-9l-4 1 5-11-45 11v103z" fill="#000"/><path d="M8.383 20.657C7.274 18.796 6 18 6 18l4 1L5 8l45 10L95 8l-5 11 4-1s-1.274.796-2.383 2.657C90.76 22.095 90 24.168 90 27v78l-40 17-40-17V27c0-2.832-.759-4.905-1.617-6.343zm2.548.637C11.558 22.815 12 24.705 12 27v76.677l38 16.15 38-16.15V27c0-2.295.442-4.185 1.069-5.706l-2.605.651 5.056-11.123L50 20.049 8.48 10.822l5.056 11.124-2.604-.651z" fill="url(#H)"/></g><path d="M35.569 90l-.3-1.247h-1.893L33.122 90h-1.96l2.033-7.273-.16-.54h2.753L38.016 90h-2.447zm-1.333-5.52l-.587 2.913h1.293l-.707-2.913zm8.77 5.52h-4.727v-7.813h4.627l-.133 1.573-2.287-.067V85.2h1.8v1.56l-1.8-.133V88.4l2.52-.067V90zm2.799-2.6V90h-2.213v-7.813h.88l.953-.027 1.047-.033c.96 0 1.676.211 2.147.633s.713 1.069.713 1.94c0 .516-.113.973-.34 1.373s-.518.718-.887.953c.2.049.371.162.513.34s.26.389.34.633l.207.733.207.727c.08.24.167.42.26.54h-2.46c-.049-.062-.087-.236-.113-.52l-.113-1.033c-.044-.405-.109-.742-.193-1.013h-.033-.273l-.247-.013-.227-.013-.167-.007zm0-1.24h.213l.28-.013a1.98 1.98 0 0 0 .247-.047.55.55 0 0 0 .227-.12c.062-.053.12-.122.173-.207s.093-.193.12-.327a2.41 2.41 0 0 0 .04-.467v-.527c0-.387-.102-.656-.307-.807s-.489-.233-.867-.233h-.127v2.747zM54.783 90h-4.727v-7.813h4.627l-.133 1.573-2.287-.067V85.2h1.8v1.56l-1.8-.133V88.4l2.52-.067V90zm2.725 0h-2.12v-7.187l-.327-.627h2.453l1.227 2.533 1.173 2.527-.327-2.967v-2.093h2.127V90h-2.033l-1.587-3.087-.98-1.933.393 2.56V90zm8.94 0l-.3-1.247h-1.893L64.001 90h-1.96l2.033-7.273-.16-.54h2.753L68.895 90h-2.447zm-1.333-5.52l-.587 2.913h1.293l-.707-2.913z" fill="#f5f1ee"/></g><defs><filter id="C" x="-1" y="-1" width="102" height="132" filterUnits="userSpaceOnUse" color-interpolation-filters="sRGB"><feFlood flood-opacity="0"/><feBlend in="SourceGraphic"/><feGaussianBlur stdDeviation="3"/></filter><linearGradient id="D" x1="50" y1="5" x2="50" y2="125" href="#K"><stop stop-color="#212121"/><stop offset=".516" stop-color="#5c5c5c"/><stop offset="1" stop-color="#212121"/></linearGradient><linearGradient id="E" x1="19.333" y1="66" x2="80.667" y2="66" href="#K"><stop stop-color="#5c5c5c"/><stop offset="1" stop-color="#212121"/></linearGradient><linearGradient id="F" x1="43" y1="16.156" x2="57" y2="16.156" href="#K"><stop stop-color="#5c5c5c"/><stop offset="1" stop-color="#212121"/></linearGradient><linearGradient id="G" x1="5" y1="127.826" x2="59.852" y2="72.569" href="#K"><stop stop-color="#fff" stop-opacity="0"/><stop offset="1"/></linearGradient><linearGradient id="H" x1="5" y1="65.341" x2="95" y2="65.341" href="#K"><stop stop-color="#5c5c5c"/><stop offset="1" stop-color="#212121"/></linearGradient><clipPath id="I"><path fill="#fff" d="M0 0h100v130H0z"/></clipPath><path id="J" d="M16 7l28.442 7.529L50 5l5.558 9.529L84 7l-1.194 3.981L95 8l-5 11 4-1s-4 2.5-4 9v78l-.467.198L90 108l-35 17v-5l-5 2-5-2v5l-35-17 .467-2.802L10 105V27c0-6.5-4-9-4-9l4 1L5 8l12.194 2.981L16 7z"/><linearGradient id="K" gradientUnits="userSpaceOnUse"/></defs></svg>