<svg xmlns="http://www.w3.org/2000/svg" width="100" height="130" fill="none" xmlns:v="https://vecta.io/nano"><mask id="A" fill="#fff"><path d="M12 4H88V130H12V4Z"/></mask><path d="M12 4H88V130H12V4Z" fill="url(#B)" fill-opacity=".2"/><path d="M12 4v-.659h-.659V4H12zm76 0h.659v-.659H88V4zm-76 .659h76V3.341H12v1.317zM87.342 4v126h1.317V4h-1.317zM12.659 130V4h-1.317v126h1.317z" fill="url(#C)" mask="url(#A)"/><path fill="url(#D)" d="M12 4h76v3H12z"/><path d="M100 101l-23.951 29H80l20-25.049V101z" fill="url(#E)"/><path d="M99 109.178L82 130h2.822L99 112v-2.822z" fill="url(#F)"/><g fill-rule="evenodd"><path d="M91 107V10h.5v97l-18 23H73l18-23z" fill="url(#G)"/><path opacity=".5" d="M93.835 19.068l-8.952-8.952.233-.233 9.048 9.048V105h-.329V19.068z" fill="url(#H)"/></g><path opacity=".3" d="M100 4h-9v5h4v13h5V4z" fill="url(#I)"/><path d="M0 101l23.951 29H20L0 104.951V101z" fill="url(#J)"/><path d="M1 109.178L18 130h-2.822L1 112v-2.822z" fill="url(#K)"/><g fill-rule="evenodd"><path d="M9 107V10h-.5v97l18 23h.5L9 107z" fill="url(#L)"/><path opacity=".5" d="M6.165 19.068l8.952-8.952-.233-.233-9.048 9.048V105h.329V19.068z" fill="url(#M)"/></g><path opacity=".3" d="M0 4H9V9H5V22H0V4Z" fill="url(#N)"/><path d="M50 0l3 6-3 4-3-4 3-6z" fill="#ab750f"/><path d="M47 6l3-6v10l-3-4z" fill="#ffc502"/><path d="M49.962 1.279L53 6l-3-6-3 6 2.962-4.721z" fill="#fff" fill-opacity=".3"/><g clip-path="url(#S)"><path d="M45.781 116.038c-.21 0-.403-.033-.58-.099a1.46 1.46 0 0 1-.457-.288 1.33 1.33 0 0 1-.303-.442 1.4 1.4 0 0 1-.108-.553 1.4 1.4 0 0 1 .108-.553 1.28 1.28 0 0 1 .303-.438c.133-.125.288-.221.465-.288a1.58 1.58 0 0 1 .58-.103c.228 0 .433.037.614.111s.339.183.465.326l-.315.308c-.105-.105-.219-.182-.342-.231s-.254-.077-.399-.077a1.09 1.09 0 0 0-.392.069c-.12.047-.224.112-.311.196a.91.91 0 0 0-.203.3c-.046.115-.069.242-.069.38a1 1 0 0 0 .069.376c.049.116.116.217.203.304s.189.149.307.196a1.07 1.07 0 0 0 .392.069c.133 0 .261-.021.384-.062s.244-.115.357-.215l.284.373c-.141.112-.305.198-.492.257a1.92 1.92 0 0 1-.561.084zm.58-.407v-1.006h.472v1.072l-.472-.066zm2.39.407a1.58 1.58 0 0 1-.58-.103c-.177-.069-.33-.165-.461-.288s-.232-.272-.303-.438a1.4 1.4 0 0 1-.108-.553 1.37 1.37 0 0 1 .108-.549c.072-.169.173-.315.303-.438s.284-.223.461-.292a1.57 1.57 0 0 1 .576-.103 1.55 1.55 0 0 1 .576.103 1.39 1.39 0 0 1 .461.292 1.28 1.28 0 0 1 .303.438 1.37 1.37 0 0 1 .108.549 1.4 1.4 0 0 1-.108.553 1.28 1.28 0 0 1-.303.438c-.13.123-.284.219-.461.288a1.54 1.54 0 0 1-.572.103zm-.004-.437c.136 0 .261-.023.376-.069s.215-.112.299-.196a.93.93 0 0 0 .196-.3c.049-.115.073-.242.073-.38s-.024-.264-.073-.376a.88.88 0 0 0-.196-.3.87.87 0 0 0-.299-.2c-.115-.046-.241-.069-.376-.069s-.261.023-.376.069a.92.92 0 0 0-.299.2.93.93 0 0 0-.2.3.98.98 0 0 0-.069.376 1 1 0 0 0 .069.376.97.97 0 0 0 .2.304c.084.084.184.149.299.196s.241.069.376.069zm1.977.399v-2.688h.499v2.266h1.405V116h-1.905zm2.299 0v-2.688h1.175a1.66 1.66 0 0 1 .768.169c.22.113.392.269.515.468s.184.436.184.707-.061.504-.184.707-.294.355-.515.468a1.66 1.66 0 0 1-.768.169h-1.175zm.499-.422h.653c.202 0 .376-.039.522-.116a.81.81 0 0 0 .342-.322c.082-.138.123-.3.123-.484a.92.92 0 0 0-.123-.484.81.81 0 0 0-.342-.322c-.146-.077-.32-.116-.522-.116h-.653v1.844z" fill="url(#O)"/><g clip-path="url(#T)"><path fill-rule="evenodd" d="M53.665 102.074l-1.944 1.393s-1.815-2.398-4.277-.421l-1.118-1.118s1.133-1.303 2.267-1.368V100h1.792v.56c.051.002 1.42.063 3.281 1.514zm-8.138 7.052l1.944-1.393s1.815 2.398 4.277.421l1.118 1.118s-1.124 1.303-2.258 1.368v.56h-1.792v-.56s-1.378-.023-3.29-1.514zm4.085-4.298c-3.565-.097-3.537-2.608-3.537-2.608-.73.58-1.626 4.261 2.757 4.261 4.017 0 4.41 2.463 4.41 2.463 1.62-2.107-.065-4.018-3.629-4.116z" fill="url(#P)"/></g></g><g clip-path="url(#U)"><rect x="36.4" y="70.668" width="27.2" height="27.2" rx="13.6" transform="rotate(270 36.4 70.668)" fill="url(#Q)"/><g fill-rule="evenodd"><path d="M49.926 72.126c8.395 0 15.2-6.805 15.2-15.2s-6.805-15.2-15.2-15.2-15.2 6.805-15.2 15.2 6.805 15.2 15.2 15.2zm-16-15.2c0 8.837 7.163 16 16 16s16-7.163 16-16-7.163-16-16-16-16 7.163-16 16z" fill="url(#R)"/><path d="M50 49.8a2.16 2.16 0 0 1 2.16 2.16v2.88h2.88a2.16 2.16 0 0 1 0 4.32h-2.88v2.88a2.16 2.16 0 1 1-4.32 0v-2.88h-2.88a2.16 2.16 0 0 1 0-4.32h2.88v-2.88A2.16 2.16 0 0 1 50 49.8z" fill="#f5f1ee"/></g></g><defs><linearGradient id="B" x1="50" y1="4" x2="50" y2="130" href="#V"><stop stop-color="#ab750f"/><stop offset="1" stop-color="#997601" stop-opacity="0"/></linearGradient><linearGradient id="C" x1="50" y1="4" x2="50" y2="142.866" href="#V"><stop stop-color="#d1a14a"/><stop offset="1" stop-color="#d1a14a" stop-opacity="0"/></linearGradient><linearGradient id="D" x1="8.447" y1="5.5" x2="89.39" y2="5.5" href="#V"><stop stop-color="#ab750f"/><stop offset=".516" stop-color="#d8a956"/><stop offset="1" stop-color="#ab750f"/></linearGradient><linearGradient id="E" x1="74.929" y1="115.5" x2="100.438" y2="115.5" href="#V"><stop stop-color="#ab750f"/><stop offset=".516" stop-color="#d8a956"/><stop offset="1" stop-color="#ab750f"/></linearGradient><linearGradient id="F" x1="81.205" y1="119.589" x2="99.311" y2="119.589" href="#V"><stop stop-color="#ab750f"/><stop offset=".516" stop-color="#d8a956"/><stop offset="1" stop-color="#ab750f"/></linearGradient><linearGradient id="G" x1="72.135" y1="70.001" x2="91.838" y2="70.001" href="#V"><stop stop-color="#ab750f"/><stop offset=".516" stop-color="#d8a956"/><stop offset="1" stop-color="#ab750f"/></linearGradient><linearGradient id="H" x1="89.524" y1="9.884" x2="89.524" y2="105" href="#V"><stop stop-color="#ab750f"/><stop offset=".516" stop-color="#d8a956"/><stop offset="1" stop-color="#ab750f"/></linearGradient><linearGradient id="I" x1="95.5" y1="4" x2="95.5" y2="22" href="#V"><stop stop-color="#ab750f"/><stop offset=".516" stop-color="#d8a956"/><stop offset="1" stop-color="#ab750f"/></linearGradient><linearGradient id="J" x1="25.071" y1="115.5" x2="-.438" y2="115.5" href="#V"><stop stop-color="#ab750f"/><stop offset=".516" stop-color="#d8a956"/><stop offset="1" stop-color="#ab750f"/></linearGradient><linearGradient id="K" x1="18.795" y1="119.589" x2=".689" y2="119.589" href="#V"><stop stop-color="#ab750f"/><stop offset=".516" stop-color="#d8a956"/><stop offset="1" stop-color="#ab750f"/></linearGradient><linearGradient id="L" x1="27.865" y1="70.001" x2="8.162" y2="70.001" href="#V"><stop stop-color="#ab750f"/><stop offset=".516" stop-color="#d8a956"/><stop offset="1" stop-color="#ab750f"/></linearGradient><linearGradient id="M" x1="10.476" y1="9.884" x2="10.476" y2="105" href="#V"><stop stop-color="#ab750f"/><stop offset=".516" stop-color="#d8a956"/><stop offset="1" stop-color="#ab750f"/></linearGradient><linearGradient id="N" x1="4.5" y1="4" x2="4.5" y2="22" href="#V"><stop stop-color="#ab750f"/><stop offset=".516" stop-color="#d8a956"/><stop offset="1" stop-color="#ab750f"/></linearGradient><linearGradient id="O" x1="43.439" y1="114.5" x2="56.219" y2="114.5" href="#V"><stop stop-color="#ab750f"/><stop offset=".516" stop-color="#d8a956"/><stop offset="1" stop-color="#ab750f"/></linearGradient><linearGradient id="P" x1="45.075" y1="105.6" x2="54.013" y2="105.6" href="#V"><stop stop-color="#ab750f"/><stop offset=".516" stop-color="#d8a956"/><stop offset="1" stop-color="#ab750f"/></linearGradient><linearGradient id="Q" x1="69.564" y1="81.219" x2="35.491" y2="81.566" href="#V"><stop stop-color="#ab750f"/><stop offset=".238" stop-color="#d8a956"/><stop offset="1" stop-color="#ab750f"/></linearGradient><linearGradient id="R" x1="49.926" y1="74.422" x2="49.926" y2="40.341" href="#V"><stop stop-color="#ab750f"/><stop offset=".516" stop-color="#d8a956"/><stop offset="1" stop-color="#ab750f"/></linearGradient><clipPath id="S"><path fill="#fff" transform="translate(42 100)" d="M0 0h16v16H0z"/></clipPath><clipPath id="T"><path fill="#fff" transform="translate(44 100)" d="M0 0h11.2v11.2H0z"/></clipPath><clipPath id="U"><path fill="#fff" transform="translate(34 41)" d="M0 0h32v32H0z"/></clipPath><linearGradient id="V" gradientUnits="userSpaceOnUse"/></defs></svg>