<svg width="100" height="130" viewBox="0 0 100 130" fill="none" xmlns="http://www.w3.org/2000/svg">
<g id="id13">
<g id="bounding-box" clip-path="url(#clip0_2086_4680)">
<g id="id13_2">
<g id="Group 338">
<path id="Subtract" fill-rule="evenodd" clip-rule="evenodd" d="M73.71 95.6087L63.5073 86.4957V87.3372L63.5078 87.3389L64.4295 90.3284L73.4044 96.577C73.4633 96.2281 73.5678 95.9016 73.71 95.6087ZM73.3899 96.6691L64.7475 91.3598L65.4924 93.7761L73.3543 97.4559C73.3407 97.1853 73.3535 96.9217 73.3899 96.6691ZM73.3581 97.5214L65.7214 94.5189L66.3816 96.6604L73.461 98.2067C73.4088 97.9868 73.3737 97.7575 73.3581 97.5214ZM73.4692 98.2406L66.6248 97.4491L67.0115 98.7034L72.4966 99.1181L67.3599 99.5388L68.3842 100.729L72.4966 99.9596L68.3842 101.619L70.1576 102.063H75.9211V100.622C74.7931 100.586 73.8035 99.595 73.4692 98.2406Z" fill="#232222"/>
<path id="Subtract (Stroke)" fill-rule="evenodd" clip-rule="evenodd" d="M63.2858 86L73.983 95.5546L73.9094 95.7061C73.7768 95.9792 73.6786 96.2853 73.623 96.6142L73.6157 96.6574L73.6094 96.701C73.575 96.9392 73.5629 97.1884 73.5758 97.4446L73.5774 97.4757L73.5794 97.5067C73.5942 97.7304 73.6274 97.9474 73.6768 98.1552L73.6806 98.1713L73.6845 98.1871C73.7578 98.4841 73.8632 98.7596 73.9941 99.0083L75.3292 99.1092L74.109 99.2092C74.1513 99.2776 74.1957 99.3435 74.242 99.4069L74.6507 99.3304L74.293 99.4747C74.7285 100.037 75.3155 100.38 75.9282 100.399L76.1429 100.406V102.286H70.1304L67.6675 101.668L70.3428 100.589L68.2997 100.971L66.907 99.3528L69.6643 99.127L66.8444 98.9138L66.3127 97.1892L69.3887 97.5448L66.2082 96.8502L65.3737 94.1433L67.7424 95.0746L65.3098 93.936L64.3622 90.8623L68.1484 93.1883L64.2404 90.4674L63.2951 87.4012L63.2858 87.369V86ZM73.2575 96.204C73.3059 96.0167 73.3673 95.8366 73.4405 95.6656L63.7291 86.9915V87.3037L64.6188 90.1895L73.2575 96.204ZM73.1522 96.7837L65.133 91.8574L65.6753 93.6162L73.1297 97.1053C73.1332 96.9967 73.1407 96.8894 73.1522 96.7837ZM73.1487 97.6779L66.0694 94.8945L66.5553 96.4708L73.1789 97.9175C73.1667 97.8385 73.1566 97.7586 73.1487 97.6779ZM73.2942 98.4442L66.9371 97.7091L67.1788 98.493L73.4842 98.9697C73.4099 98.8016 73.3462 98.6258 73.2942 98.4442ZM73.621 99.2492L67.813 99.7249L68.4688 100.487L73.7665 99.4958C73.7153 99.4162 73.6667 99.3339 73.621 99.2492ZM73.8684 99.646L69.1011 101.569L70.185 101.841H75.6996V100.827C74.9738 100.734 74.33 100.29 73.8684 99.646Z" fill="url(#paint0_linear_2086_4680)"/>
</g>
<g id="Group 338_2">
<path id="Subtract_2" fill-rule="evenodd" clip-rule="evenodd" d="M86.29 95.6087L96.4927 86.4957V87.3372L96.4922 87.3389L95.5705 90.3284L86.5956 96.577C86.5367 96.2281 86.4322 95.9016 86.29 95.6087ZM86.6101 96.6691L95.2525 91.3598L94.5076 93.7761L86.6457 97.4559C86.6593 97.1853 86.6465 96.9217 86.6101 96.6691ZM86.6419 97.5214L94.2786 94.5189L93.6184 96.6604L86.539 98.2067C86.5912 97.9868 86.6263 97.7575 86.6419 97.5214ZM86.5308 98.2406L93.3752 97.4491L92.9885 98.7034L87.5034 99.1181L92.6401 99.5388L91.6158 100.729L87.5034 99.9596L91.6158 101.619L89.8424 102.063H84.0789V100.622C85.2069 100.586 86.1965 99.595 86.5308 98.2406Z" fill="#232222"/>
<path id="Subtract (Stroke)_2" fill-rule="evenodd" clip-rule="evenodd" d="M96.7142 86L86.017 95.5546L86.0906 95.7061C86.2232 95.9792 86.3214 96.2853 86.377 96.6142L86.3843 96.6574L86.3906 96.701C86.425 96.9392 86.4371 97.1884 86.4242 97.4446L86.4226 97.4757L86.4206 97.5067C86.4058 97.7304 86.3726 97.9474 86.3232 98.1552L86.3194 98.1713L86.3155 98.1871C86.2422 98.4841 86.1368 98.7596 86.0059 99.0083L84.6708 99.1092L85.891 99.2092C85.8487 99.2776 85.8043 99.3435 85.758 99.4069L85.3493 99.3304L85.707 99.4747C85.2715 100.037 84.6845 100.38 84.0718 100.399L83.8571 100.406V102.286H89.8696L92.3325 101.668L89.6572 100.589L91.7003 100.971L93.093 99.3528L90.3357 99.127L93.1556 98.9138L93.6873 97.1892L90.6113 97.5448L93.7918 96.8502L94.6263 94.1433L92.2576 95.0746L94.6902 93.936L95.6378 90.8623L91.8516 93.1883L95.7596 90.4674L96.7049 87.4012L96.7142 87.369V86ZM86.7425 96.204C86.6941 96.0167 86.6327 95.8366 86.5595 95.6656L96.2709 86.9915V87.3037L95.3812 90.1895L86.7425 96.204ZM86.8478 96.7837L94.867 91.8574L94.3247 93.6162L86.8703 97.1053C86.8668 96.9967 86.8593 96.8894 86.8478 96.7837ZM86.8513 97.6779L93.9306 94.8945L93.4447 96.4708L86.8211 97.9175C86.8333 97.8385 86.8434 97.7586 86.8513 97.6779ZM86.7058 98.4442L93.0629 97.7091L92.8212 98.493L86.5158 98.9697C86.5901 98.8016 86.6538 98.6258 86.7058 98.4442ZM86.379 99.2492L92.187 99.7249L91.5312 100.487L86.2335 99.4958C86.2847 99.4162 86.3333 99.3339 86.379 99.2492ZM86.1316 99.646L90.8989 101.569L89.815 101.841H84.3004V100.827C85.0262 100.734 85.67 100.29 86.1316 99.646Z" fill="url(#paint1_linear_2086_4680)"/>
</g>
<g id="Group 334">
<path id="Union" fill-rule="evenodd" clip-rule="evenodd" d="M72.5383 108.611L70.7826 110.043L72.9772 109.685L72.5383 111.297L75.6107 108.79L76.4886 109.506L74.294 110.939L75.6107 112.013L77.8053 110.222H78.2443L76.4886 112.729L77.8053 113.804L79.1221 110.222L78.6832 114.52L79.9999 115.595L81.3167 114.52L80.8778 110.222L82.1945 113.804L83.5113 112.729L81.7556 110.222H82.1945L84.3891 112.013L85.7059 110.939L83.5113 109.506L84.3891 108.79L87.4616 111.297L87.0227 109.685L89.2173 110.043L87.4616 108.611V107.715H79.9999H72.5383V108.611Z" fill="#232222"/>
<path id="Union (Stroke)" fill-rule="evenodd" clip-rule="evenodd" d="M69.7142 110.51L72.1871 108.492V107.429H87.8127V108.492L90.2856 110.51L87.4824 110.052L88.0659 112.195L84.3891 109.195L84.037 109.482L86.2316 110.915L84.3891 112.418L82.7761 111.102L83.9492 112.777L82.0271 114.346L81.5066 112.93L81.6801 114.629L79.9999 116L78.3197 114.629L78.4932 112.93L77.9727 114.346L76.0506 112.777L77.2237 111.102L75.6107 112.418L73.7682 110.915L75.9629 109.482L75.6107 109.195L71.9339 112.195L72.5175 110.052L69.7142 110.51ZM72.9772 109.685L72.5383 111.297L75.6107 108.79L76.4885 109.506L74.2939 110.939L75.6107 112.013L77.8053 110.222H78.2442L76.4885 112.729L77.8053 113.804L79.1221 110.222L78.6832 114.52L79.9999 115.595L81.3167 114.52L80.8778 110.222L82.1945 113.804L83.5113 112.729L81.7556 110.222H82.1945L84.3891 112.013L85.7059 110.939L83.5113 109.506L84.3891 108.79L87.4616 111.297L87.0227 109.685L89.2173 110.043L87.4616 108.611V107.715H72.5383V108.611L70.7826 110.043L72.9772 109.685Z" fill="url(#paint2_linear_2086_4680)"/>
<path id="Vector 426" d="M79.1428 114.571L80 115.286L80.8571 114.571L80 114.214L79.1428 114.571Z" fill="url(#paint3_linear_2086_4680)"/>
</g>
<g id="Base">
<path id="Union_2" fill-rule="evenodd" clip-rule="evenodd" d="M80 93L77.8571 94.0715C77.8571 94.0715 77.1836 93.9046 76.7857 93.7143C76.3321 93.4973 75.7143 93 75.7143 93L75.3571 94.0715L73.2143 92.6429C73.2143 92.6429 73.2925 93.6224 73.5714 94.25C73.8504 94.8777 74.6429 95.8572 74.6429 95.8572L73.9286 96.5715L74.2857 96.9286L70.3571 98.7143L70.7143 100.857L67.8571 102.643L68.5714 103.357L65 108.714L70 107.643L69.2857 109.071L74.2857 108.357C74.2857 108.357 75.6574 109.97 76.7857 110.679C77.9263 111.395 80 111.929 80 111.929L80 111.929C80 111.929 82.0736 111.395 83.2143 110.679C84.3426 109.97 85.7143 108.357 85.7143 108.357L90.7143 109.071L90 107.643L95 108.714L91.4286 103.357L92.1429 102.643L89.2857 100.857L89.6429 98.7143L85.7143 96.9286L86.0714 96.5715L85.3571 95.8572C85.3571 95.8572 86.1496 94.8777 86.4286 94.25C86.7075 93.6224 86.7857 92.6429 86.7857 92.6429L84.6429 94.0715L84.2857 93C84.2857 93 83.6679 93.4974 83.2143 93.7143C82.8164 93.9046 82.1429 94.0715 82.1429 94.0715L80 93Z" fill="#232222"/>
<path id="Union_3" fill-rule="evenodd" clip-rule="evenodd" d="M77.8571 94.7857L80 93.7143L82.1428 94.7857L83.9286 94.0715L84.2857 95.1429L86.0714 93.7143C86.0714 93.7143 85.7545 94.4028 85.5357 94.7857C85.2421 95.2995 84.6428 95.8572 84.6428 95.8572L85.3571 96.5715L85 96.9286L88.9286 99.0715L88.5714 101.214L91.4286 102.643L90.7143 103.357L93.9286 108L89.2857 106.929L90 108.357L85.7143 107.643C85.7143 107.643 84.2259 109.349 83.0357 110.143C81.9459 110.87 80 111.929 80 111.929C80 111.929 82.0736 111.395 83.2143 110.679C84.3426 109.97 85.7143 108.357 85.7143 108.357L90.7143 109.071L90 107.643L95 108.714L91.4286 103.357L92.1429 102.643L89.2857 100.857L89.6429 98.7143L85.7143 96.9286L86.0714 96.5715L85.3571 95.8572C85.3571 95.8572 86.1496 94.8777 86.4286 94.25C86.7075 93.6224 86.7857 92.6429 86.7857 92.6429L84.6429 94.0715L84.2857 93C84.2857 93 83.6679 93.4974 83.2143 93.7143C82.8164 93.9046 82.1429 94.0715 82.1429 94.0715L80 93L77.8571 94.0715C77.8571 94.0715 77.1836 93.9046 76.7857 93.7143C76.3321 93.4973 75.7143 93 75.7143 93L75.3571 94.0715L73.2143 92.6429C73.2143 92.6429 73.2925 93.6224 73.5714 94.25C73.8504 94.8777 74.6429 95.8572 74.6429 95.8572L73.9286 96.5715L74.2857 96.9286L70.3571 98.7143L70.7143 100.857L67.8571 102.643L68.5714 103.357L65 108.714L70 107.643L69.2857 109.071L74.2857 108.357C74.2857 108.357 75.6574 109.97 76.7857 110.679C77.9263 111.395 80 111.929 80 111.929C80 111.929 78.0541 110.87 76.9643 110.143C75.7741 109.349 74.2857 107.643 74.2857 107.643L70 108.357L70.7143 106.929L66.0714 108L69.2857 103.357L68.5714 102.643L71.4286 101.214L71.0714 99.0715L75 96.9286L74.6429 96.5715L75.3571 95.8572C75.3571 95.8572 74.7579 95.2995 74.4643 94.7857C74.2455 94.4028 73.9286 93.7143 73.9286 93.7143L75.7143 95.1429L76.0714 94.0715L77.8571 94.7857Z" fill="url(#paint4_linear_2086_4680)"/>
<g id="Group 159">
<path id="Vector 240" d="M67.1431 107.286L68.5716 105.5L70.7145 106.214L67.1431 107.286Z" fill="url(#paint5_linear_2086_4680)"/>
<path id="Vector 241" d="M72.1432 101.571L71.786 99.4286L72.8575 101.929L69.6432 102.643L72.1432 101.571Z" fill="url(#paint6_linear_2086_4680)"/>
<path id="Vector 242" d="M75.7147 96.9286L75.3575 96.5715L76.0718 95.8572L75.7147 96.5715L76.0718 96.9286L75.7147 97.2857H75.0004L75.7147 96.9286Z" fill="url(#paint7_linear_2086_4680)"/>
</g>
<g id="Group 160">
<path id="Union_4" fill-rule="evenodd" clip-rule="evenodd" d="M80 110.857C80.0112 110.852 81.4482 110.203 82.1428 109.786C82.8402 109.367 83.5714 108.714 83.5714 108.714L81.7857 108L80 108.714L78.2143 108L76.4286 108.714C76.4286 108.714 77.1598 109.367 77.8572 109.786C78.5518 110.203 79.9888 110.852 80 110.857V110.857C80 110.857 80 110.857 80 110.857C80 110.857 80 110.857 80 110.857V110.857Z" fill="url(#paint8_linear_2086_4680)"/>
<path id="Union_5" fill-rule="evenodd" clip-rule="evenodd" d="M80.0002 94.7857L81.7859 95.8571L80.0002 95.5L78.2145 95.8571L80.0002 94.7857V94.7857L80.0002 94.7857L80.0002 94.7857V94.7857Z" fill="url(#paint9_linear_2086_4680)"/>
<path id="Vector 240_2" d="M92.8574 107.286L91.4289 105.5L89.286 106.214L92.8574 107.286Z" fill="url(#paint10_linear_2086_4680)"/>
<path id="Vector 241_2" d="M87.8572 101.571L88.2143 99.4286L87.1429 101.929L90.3572 102.643L87.8572 101.571Z" fill="url(#paint11_linear_2086_4680)"/>
<path id="Vector 242_2" d="M84.2858 96.9286L84.643 96.5715L83.9287 95.8572L84.2858 96.5715L83.9287 96.9286L84.2858 97.2857H85.0001L84.2858 96.9286Z" fill="url(#paint12_linear_2086_4680)"/>
<path id="Union_6" fill-rule="evenodd" clip-rule="evenodd" d="M80.0001 109.786H81.0715L80.0001 110.5V110.5L80.0001 110.5L80.0001 110.5V110.5L78.9287 109.786H80.0001H80.0001Z" fill="#232222"/>
</g>
<g id="Group 333">
<g id="Group 155">
<g id="S13" filter="url(#filter0_f_2086_4680)">
<path d="M73.6847 106.432C75.1199 106.511 76.0916 106.55 76.5997 106.55C76.7202 106.55 76.8144 106.516 76.8825 106.448C76.9559 106.375 76.9925 106.278 76.9925 106.157V105.45H75.1854C74.6354 105.45 74.2347 105.327 73.9833 105.081C73.7371 104.829 73.614 104.429 73.614 103.879V103.643C73.614 103.093 73.7371 102.695 73.9833 102.449C74.2347 102.197 74.6354 102.071 75.1854 102.071H77.9433V103.171H75.4997C75.1854 103.171 75.0283 103.329 75.0283 103.643V103.8C75.0283 104.114 75.1854 104.271 75.4997 104.271H76.914C77.4273 104.271 77.8044 104.392 78.0454 104.633C78.2863 104.874 78.4068 105.251 78.4068 105.764V106.157C78.4068 106.67 78.2863 107.048 78.0454 107.289C77.8044 107.53 77.4273 107.65 76.914 107.65C76.6468 107.65 76.364 107.645 76.0654 107.634L75.3426 107.603C74.8083 107.577 74.2557 107.54 73.6847 107.493V106.432ZM79.9383 107.571V103.289L79.0348 103.604L78.6419 102.7L80.0955 102.071H81.3526V107.571H79.9383ZM84.8905 107.65C84.0157 107.65 83.0467 107.598 81.9833 107.493V106.432C83.1409 106.511 84.0052 106.55 84.5762 106.55C84.6967 106.55 84.7909 106.516 84.859 106.448C84.9324 106.375 84.969 106.278 84.969 106.157V105.843C84.969 105.529 84.8119 105.371 84.4976 105.371H82.8476V104.271H84.3405C84.6547 104.271 84.8119 104.114 84.8119 103.8V103.643C84.8119 103.329 84.6547 103.171 84.3405 103.171H82.0619V102.071H84.7333C85.2466 102.071 85.6238 102.189 85.8647 102.425C86.1057 102.655 86.2262 103.009 86.2262 103.486C86.2262 103.8 86.1528 104.057 86.0062 104.256C85.8647 104.45 85.6762 104.586 85.4405 104.664C85.8647 104.78 86.1528 105.062 86.3047 105.513C86.3571 105.675 86.3833 105.864 86.3833 106.079V106.157C86.3833 106.67 86.2628 107.048 86.0219 107.289C85.7809 107.53 85.4038 107.65 84.8905 107.65Z" fill="url(#paint13_linear_2086_4680)"/>
</g>
<path id="S13_2" d="M73.6847 106.432C75.1199 106.511 76.0916 106.55 76.5997 106.55C76.7202 106.55 76.8144 106.516 76.8825 106.448C76.9559 106.375 76.9925 106.278 76.9925 106.157V105.45H75.1854C74.6354 105.45 74.2347 105.327 73.9833 105.081C73.7371 104.829 73.614 104.429 73.614 103.879V103.643C73.614 103.093 73.7371 102.695 73.9833 102.449C74.2347 102.197 74.6354 102.071 75.1854 102.071H77.9433V103.171H75.4997C75.1854 103.171 75.0283 103.329 75.0283 103.643V103.8C75.0283 104.114 75.1854 104.271 75.4997 104.271H76.914C77.4273 104.271 77.8044 104.392 78.0454 104.633C78.2863 104.874 78.4068 105.251 78.4068 105.764V106.157C78.4068 106.67 78.2863 107.048 78.0454 107.289C77.8044 107.53 77.4273 107.65 76.914 107.65C76.6468 107.65 76.364 107.645 76.0654 107.634L75.3426 107.603C74.8083 107.577 74.2557 107.54 73.6847 107.493V106.432ZM79.9383 107.571V103.289L79.0348 103.604L78.6419 102.7L80.0955 102.071H81.3526V107.571H79.9383ZM84.8905 107.65C84.0157 107.65 83.0467 107.598 81.9833 107.493V106.432C83.1409 106.511 84.0052 106.55 84.5762 106.55C84.6967 106.55 84.7909 106.516 84.859 106.448C84.9324 106.375 84.969 106.278 84.969 106.157V105.843C84.969 105.529 84.8119 105.371 84.4976 105.371H82.8476V104.271H84.3405C84.6547 104.271 84.8119 104.114 84.8119 103.8V103.643C84.8119 103.329 84.6547 103.171 84.3405 103.171H82.0619V102.071H84.7333C85.2466 102.071 85.6238 102.189 85.8647 102.425C86.1057 102.655 86.2262 103.009 86.2262 103.486C86.2262 103.8 86.1528 104.057 86.0062 104.256C85.8647 104.45 85.6762 104.586 85.4405 104.664C85.8647 104.78 86.1528 105.062 86.3047 105.513C86.3571 105.675 86.3833 105.864 86.3833 106.079V106.157C86.3833 106.67 86.2628 107.048 86.0219 107.289C85.7809 107.53 85.4038 107.65 84.8905 107.65Z" fill="white"/>
</g>
<g id="Group 183">
<path id="MPL" d="M78.3607 98.8001L77.6992 99.9814H77.0377L76.3762 98.8001V100.643H75.5257V97.3354H76.4234L77.3684 99.0836L78.3134 97.3354H79.2112V100.643H78.3607V98.8001ZM79.78 97.3354H81.7645C82.0953 97.3354 82.3347 97.411 82.4827 97.5622C82.6339 97.7103 82.7095 97.9496 82.7095 98.2804V98.7529C82.7095 99.0836 82.6339 99.3246 82.4827 99.4758C82.3347 99.6239 82.0953 99.6979 81.7645 99.6979H80.6305V100.643H79.78V97.3354ZM81.859 98.2804C81.859 98.0914 81.7645 97.9969 81.5755 97.9969H80.6305V99.0364H81.5755C81.7645 99.0364 81.859 98.9419 81.859 98.7529V98.2804ZM83.9851 99.9814H85.7097V100.643H83.1346V97.3354H83.9851V99.9814Z" fill="white"/>
</g>
</g>
</g>
</g>
</g>
</g>
<defs>
<filter id="filter0_f_2086_4680" x="71.5248" y="99.9822" width="16.9478" height="9.75701" filterUnits="userSpaceOnUse" color-interpolation-filters="sRGB">
<feFlood flood-opacity="0" result="BackgroundImageFix"/>
<feBlend mode="normal" in="SourceGraphic" in2="BackgroundImageFix" result="shape"/>
<feGaussianBlur stdDeviation="1.04463" result="effect1_foregroundBlur_2086_4680"/>
</filter>
<linearGradient id="paint0_linear_2086_4680" x1="69.7143" y1="86" x2="69.7143" y2="102.286" gradientUnits="userSpaceOnUse">
<stop stop-color="#AB750F"/>
<stop offset="0.516" stop-color="#D8A956"/>
<stop offset="1" stop-color="#AB750F"/>
</linearGradient>
<linearGradient id="paint1_linear_2086_4680" x1="90.2857" y1="86" x2="90.2857" y2="102.286" gradientUnits="userSpaceOnUse">
<stop stop-color="#AB750F"/>
<stop offset="0.516" stop-color="#D8A956"/>
<stop offset="1" stop-color="#AB750F"/>
</linearGradient>
<linearGradient id="paint2_linear_2086_4680" x1="79.9999" y1="107.429" x2="79.9999" y2="116" gradientUnits="userSpaceOnUse">
<stop stop-color="#AB750F"/>
<stop offset="0.516" stop-color="#D8A956"/>
<stop offset="1" stop-color="#AB750F"/>
</linearGradient>
<linearGradient id="paint3_linear_2086_4680" x1="80" y1="114.214" x2="80" y2="115.286" gradientUnits="userSpaceOnUse">
<stop stop-color="#AB750F"/>
<stop offset="0.516" stop-color="#D8A956"/>
<stop offset="1" stop-color="#AB750F"/>
</linearGradient>
<linearGradient id="paint4_linear_2086_4680" x1="80" y1="92.6429" x2="80" y2="111.929" gradientUnits="userSpaceOnUse">
<stop stop-color="#AB750F"/>
<stop offset="0.516" stop-color="#D8A956"/>
<stop offset="1" stop-color="#AB750F"/>
</linearGradient>
<linearGradient id="paint5_linear_2086_4680" x1="68.9288" y1="105.5" x2="68.9288" y2="107.286" gradientUnits="userSpaceOnUse">
<stop stop-color="#AB750F"/>
<stop offset="0.516" stop-color="#D8A956"/>
<stop offset="1" stop-color="#AB750F"/>
</linearGradient>
<linearGradient id="paint6_linear_2086_4680" x1="71.2503" y1="99.4286" x2="71.2503" y2="102.643" gradientUnits="userSpaceOnUse">
<stop stop-color="#AB750F"/>
<stop offset="0.516" stop-color="#D8A956"/>
<stop offset="1" stop-color="#AB750F"/>
</linearGradient>
<linearGradient id="paint7_linear_2086_4680" x1="75.5361" y1="95.8572" x2="75.5361" y2="97.2857" gradientUnits="userSpaceOnUse">
<stop stop-color="#AB750F"/>
<stop offset="0.516" stop-color="#D8A956"/>
<stop offset="1" stop-color="#AB750F"/>
</linearGradient>
<linearGradient id="paint8_linear_2086_4680" x1="80" y1="108" x2="80" y2="110.857" gradientUnits="userSpaceOnUse">
<stop stop-color="#AB750F"/>
<stop offset="0.516" stop-color="#D8A956"/>
<stop offset="1" stop-color="#AB750F"/>
</linearGradient>
<linearGradient id="paint9_linear_2086_4680" x1="80.0002" y1="94.7857" x2="80.0002" y2="95.8571" gradientUnits="userSpaceOnUse">
<stop stop-color="#AB750F"/>
<stop offset="0.516" stop-color="#D8A956"/>
<stop offset="1" stop-color="#AB750F"/>
</linearGradient>
<linearGradient id="paint10_linear_2086_4680" x1="91.0717" y1="105.5" x2="91.0717" y2="107.286" gradientUnits="userSpaceOnUse">
<stop stop-color="#AB750F"/>
<stop offset="0.516" stop-color="#D8A956"/>
<stop offset="1" stop-color="#AB750F"/>
</linearGradient>
<linearGradient id="paint11_linear_2086_4680" x1="88.75" y1="99.4286" x2="88.75" y2="102.643" gradientUnits="userSpaceOnUse">
<stop stop-color="#AB750F"/>
<stop offset="0.516" stop-color="#D8A956"/>
<stop offset="1" stop-color="#AB750F"/>
</linearGradient>
<linearGradient id="paint12_linear_2086_4680" x1="84.4644" y1="95.8572" x2="84.4644" y2="97.2857" gradientUnits="userSpaceOnUse">
<stop stop-color="#AB750F"/>
<stop offset="0.516" stop-color="#D8A956"/>
<stop offset="1" stop-color="#AB750F"/>
</linearGradient>
<linearGradient id="paint13_linear_2086_4680" x1="72.5799" y1="104.429" x2="87.034" y2="104.429" gradientUnits="userSpaceOnUse">
<stop stop-color="#AB750F"/>
<stop offset="0.516" stop-color="#D8A956"/>
<stop offset="1" stop-color="#AB750F"/>
</linearGradient>
<clipPath id="clip0_2086_4680">
<rect width="36" height="30" fill="white" transform="translate(62 86)"/>
</clipPath>
</defs>
</svg>
