<svg xmlns="http://www.w3.org/2000/svg" width="100" height="130" fill="none" xmlns:v="https://vecta.io/nano"><g clip-path="url(#P)"><g fill-rule="evenodd"><path d="M73.71 95.609l-10.203-9.113v.841l.001.002.922 2.99 8.975 6.249c.059-.349.163-.675.306-.968zm-.32 1.06l-8.642-5.309.745 2.416 7.862 3.68a4.08 4.08 0 0 1 .036-.787zm-.032.852l-7.637-3.002.66 2.141 7.079 1.546c-.052-.22-.087-.449-.103-.685zm.111.719l-6.844-.791.387 1.254 5.485.415-5.137.421 1.024 1.19 4.112-.769-4.112 1.659 1.773.444h5.763v-1.441c-1.128-.036-2.118-1.027-2.452-2.381z" fill="#232222"/><path d="M63.286 86l10.697 9.555-.074.152c-.133.273-.231.579-.286.908l-.007.043-.006.044a3.85 3.85 0 0 0-.034.744l.002.031.002.031c.015.224.048.441.097.648l.004.016.004.016a3.63 3.63 0 0 0 .31.821l1.335.101-1.22.1.133.198.409-.076-.358.144c.435.562 1.022.905 1.635.924l.215.007v1.88H70.13l-2.463-.618 2.675-1.079-2.043.382-1.393-1.618 2.757-.226-2.82-.213-.532-1.725 3.076.356-3.18-.695-.835-2.707 2.369.931-2.433-1.139-.948-3.074 3.786 2.326-3.908-2.721-.945-3.066-.009-.032V86zm9.972 10.204c.048-.187.11-.367.183-.538l-9.711-8.674v.312l.89 2.886 8.639 6.014zm-.105.58l-8.019-4.926.542 1.759 7.454 3.489.022-.322zm-.003.894l-7.079-2.783.486 1.576 6.624 1.447-.03-.24zm.145.766l-6.357-.735.242.784 6.305.477c-.074-.168-.138-.344-.19-.526zm.327.805l-5.808.476.656.762 5.298-.991-.145-.247zm.247.397l-4.767 1.923 1.084.272H75.7v-1.014c-.726-.093-1.37-.537-1.831-1.181z" fill="url(#B)"/><path d="M86.29 95.609l10.203-9.113v.841l-.001.002-.922 2.99-8.975 6.249c-.059-.349-.163-.675-.306-.968zm.32 1.06l8.642-5.309-.745 2.416-7.862 3.68a4.08 4.08 0 0 0-.036-.787zm.032.852l7.637-3.002-.66 2.141-7.079 1.546c.052-.22.087-.449.103-.685zm-.111.719l6.844-.791-.387 1.254-5.485.415 5.137.421-1.024 1.19-4.112-.769 4.112 1.659-1.773.444h-5.763v-1.441c1.128-.036 2.118-1.027 2.452-2.381z" fill="#232222"/><path d="M96.714 86l-10.697 9.555.074.152c.133.273.231.579.286.908l.007.043.006.044a3.85 3.85 0 0 1 .034.744l-.002.031-.002.031c-.015.224-.048.441-.097.648l-.004.016-.004.016a3.63 3.63 0 0 1-.31.821l-1.335.101 1.22.1-.133.198-.409-.076.358.144c-.435.562-1.022.905-1.635.924l-.215.007v1.88h6.013l2.463-.618-2.675-1.079 2.043.382 1.393-1.618-2.757-.226 2.82-.213.532-1.725-3.076.356 3.18-.695.835-2.707-2.369.931 2.433-1.139.948-3.074-3.786 2.326 3.908-2.721.945-3.066.009-.032V86zm-9.972 10.204c-.048-.187-.11-.367-.183-.538l9.711-8.674v.312l-.89 2.886-8.639 6.014zm.105.58l8.019-4.926-.542 1.759-7.454 3.489-.022-.322zm.003.894l7.079-2.783-.486 1.576-6.624 1.447.03-.24zm-.145.766l6.357-.735-.242.784-6.305.477c.074-.168.138-.344.19-.526zm-.327.805l5.808.476-.656.762-5.298-.991.145-.247zm-.247.397l4.767 1.923-1.084.272H84.3v-1.014c.726-.093 1.37-.537 1.831-1.181z" fill="url(#C)"/><path d="M72.538 108.611l-1.756 1.432 2.195-.358-.439 1.612 3.072-2.507.878.716-2.195 1.433 1.317 1.074 2.195-1.791h.439l-1.756 2.507 1.317 1.075 1.317-3.582-.439 4.298L80 115.595l1.317-1.075-.439-4.298 1.317 3.582 1.317-1.075-1.756-2.507h.439l2.195 1.791 1.317-1.074-2.195-1.433.878-.716 3.073 2.507-.439-1.612 2.195.358-1.756-1.432v-.896H80h-7.462v.896z" fill="#232222"/><path d="M69.714 110.51l2.473-2.018v-1.063h15.626v1.063l2.473 2.018-2.803-.458.584 2.143-3.677-3-.352.287 2.195 1.433-1.843 1.503-1.613-1.316 1.173 1.675-1.922 1.569-.52-1.416.173 1.699L80 116l-1.68-1.371.174-1.699-.52 1.416-1.922-1.569 1.173-1.675-1.613 1.316-1.843-1.503 2.195-1.433-.352-.287-3.677 3 .584-2.143-2.803.458zm3.263-.825l-.439 1.612 3.072-2.507.878.716-2.195 1.433 1.317 1.074 2.195-1.791h.439l-1.756 2.507 1.317 1.075 1.317-3.582-.439 4.298L80 115.595l1.317-1.075-.439-4.298 1.317 3.582 1.317-1.075-1.756-2.507h.439l2.195 1.791 1.317-1.074-2.195-1.433.878-.716 3.073 2.507-.439-1.612 2.195.358-1.756-1.432v-.896H72.538v.896l-1.756 1.432 2.195-.358z" fill="url(#D)"/></g><path d="M79.143 114.571l.857.715.857-.715-.857-.357-.857.357z" fill="url(#E)"/><g fill-rule="evenodd"><path d="M80 93l-2.143 1.072s-.674-.167-1.071-.357c-.454-.217-1.071-.714-1.071-.714l-.357 1.072-2.143-1.429s.078.98.357 1.607 1.072 1.607 1.072 1.607l-.714.714.357.357-3.929 1.786.357 2.143-2.857 1.786.714.714L65 108.714l5-1.071-.714 1.428 5-.714s1.372 1.613 2.5 2.322c1.141.716 3.214 1.25 3.214 1.25h0s2.074-.534 3.214-1.25c1.128-.709 2.5-2.322 2.5-2.322l5 .714-.714-1.428 5 1.071-3.571-5.357.714-.714-2.857-1.786.357-2.143-3.929-1.786.357-.357-.714-.714s.793-.98 1.072-1.607.357-1.607.357-1.607l-2.143 1.429L84.286 93s-.618.497-1.071.714c-.398.19-1.071.357-1.071.357L80 93z" fill="#232222"/><path d="M77.857 94.786L80 93.714l2.143 1.071 1.786-.714.357 1.071 1.786-1.429-.536 1.071c-.294.514-.893 1.072-.893 1.072l.714.714-.357.357 3.929 2.143-.357 2.142 2.857 1.429-.714.714L93.929 108l-4.643-1.071.714 1.428-4.286-.714s-1.488 1.706-2.679 2.5c-1.09.727-3.036 1.786-3.036 1.786s2.074-.534 3.214-1.25c1.128-.709 2.5-2.322 2.5-2.322l5 .714-.714-1.428 5 1.071-3.571-5.357.714-.714-2.857-1.786.357-2.143-3.929-1.786.357-.357-.714-.714s.793-.98 1.072-1.607.357-1.607.357-1.607l-2.143 1.429L84.286 93s-.618.497-1.071.714c-.398.19-1.071.357-1.071.357L80 93l-2.143 1.072s-.674-.167-1.071-.357c-.454-.217-1.071-.714-1.071-.714l-.357 1.072-2.143-1.429s.078.98.357 1.607 1.072 1.607 1.072 1.607l-.714.714.357.357-3.929 1.786.357 2.143-2.857 1.786.714.714L65 108.714l5-1.071-.714 1.428 5-.714s1.372 1.613 2.5 2.322c1.141.716 3.214 1.25 3.214 1.25l-3.036-1.786c-1.19-.794-2.679-2.5-2.679-2.5l-4.286.714.714-1.428L66.071 108l3.214-4.643-.714-.714 2.857-1.429-.357-2.142L75 96.929l-.357-.357.714-.714s-.599-.558-.893-1.072c-.219-.383-.536-1.071-.536-1.071l1.786 1.429.357-1.071 1.786.714z" fill="url(#F)"/></g><path d="M67.143 107.286l1.428-1.786 2.143.714-3.571 1.072z" fill="url(#G)"/><path d="M72.143 101.571l-.357-2.142 1.072 2.5-3.214.714 2.5-1.072z" fill="url(#H)"/><path d="M75.715 96.929l-.357-.357.714-.714-.357.714.357.357-.357.357H75l.714-.357z" fill="url(#I)"/><g fill-rule="evenodd"><path d="M80 110.857l2.143-1.071c.697-.419 1.429-1.072 1.429-1.072L81.786 108l-1.786.714-1.786-.714-1.786.714s.731.653 1.429 1.072 2.132 1.066 2.143 1.071h0 0z" fill="url(#J)"/><path d="M80 94.786l1.786 1.071L80 95.5l-1.786.357L80 94.786h0 0 0 0z" fill="url(#K)"/></g><path d="M92.857 107.286l-1.428-1.786-2.143.714 3.571 1.072z" fill="url(#L)"/><path d="M87.857 101.571l.357-2.142-1.071 2.5 3.214.714-2.5-1.072z" fill="url(#M)"/><path d="M84.286 96.929l.357-.357-.714-.714.357.714-.357.357.357.357H85l-.714-.357z" fill="url(#N)"/><path fill-rule="evenodd" d="M80 109.786h1.071L80 110.5h0 0 0 0l-1.071-.714H80h0z" fill="#232222"/><g filter="url(#A)"><use href="#Q" fill="url(#O)"/></g><g fill="#fff"><use href="#Q"/><path d="M78.361 98.8l-.661 1.181h-.662l-.662-1.181v1.843h-.85v-3.308h.898l.945 1.748.945-1.748h.898v3.308h-.851V98.8zm1.419-1.465h1.984c.331 0 .57.076.718.227s.227.387.227.718v.472c0 .331-.076.572-.227.723s-.387.222-.718.222h-1.134v.945h-.85v-3.308zm2.079.945c0-.189-.094-.284-.283-.284h-.945v1.04h.945c.189 0 .283-.094.283-.284v-.472zm2.126 1.701h1.725v.662h-2.575v-3.308h.85v2.646z"/></g></g><defs><filter id="A" x="73.316" y="99.982" width="13.528" height="9.757" filterUnits="userSpaceOnUse" color-interpolation-filters="sRGB"><feFlood flood-opacity="0"/><feBlend in="SourceGraphic"/><feGaussianBlur stdDeviation="1.045"/></filter><linearGradient id="B" x1="69.714" y1="86" x2="69.714" y2="102.286" href="#R"><stop stop-color="#ab750f"/><stop offset=".516" stop-color="#d8a956"/><stop offset="1" stop-color="#ab750f"/></linearGradient><linearGradient id="C" x1="90.286" y1="86" x2="90.286" y2="102.286" href="#R"><stop stop-color="#ab750f"/><stop offset=".516" stop-color="#d8a956"/><stop offset="1" stop-color="#ab750f"/></linearGradient><linearGradient id="D" x1="80" y1="107.429" x2="80" y2="116" href="#R"><stop stop-color="#ab750f"/><stop offset=".516" stop-color="#d8a956"/><stop offset="1" stop-color="#ab750f"/></linearGradient><linearGradient id="E" x1="80" y1="114.214" x2="80" y2="115.286" href="#R"><stop stop-color="#ab750f"/><stop offset=".516" stop-color="#d8a956"/><stop offset="1" stop-color="#ab750f"/></linearGradient><linearGradient id="F" x1="80" y1="92.643" x2="80" y2="111.929" href="#R"><stop stop-color="#ab750f"/><stop offset=".516" stop-color="#d8a956"/><stop offset="1" stop-color="#ab750f"/></linearGradient><linearGradient id="G" x1="68.929" y1="105.5" x2="68.929" y2="107.286" href="#R"><stop stop-color="#ab750f"/><stop offset=".516" stop-color="#d8a956"/><stop offset="1" stop-color="#ab750f"/></linearGradient><linearGradient id="H" x1="71.25" y1="99.429" x2="71.25" y2="102.643" href="#R"><stop stop-color="#ab750f"/><stop offset=".516" stop-color="#d8a956"/><stop offset="1" stop-color="#ab750f"/></linearGradient><linearGradient id="I" x1="75.536" y1="95.857" x2="75.536" y2="97.286" href="#R"><stop stop-color="#ab750f"/><stop offset=".516" stop-color="#d8a956"/><stop offset="1" stop-color="#ab750f"/></linearGradient><linearGradient id="J" x1="80" y1="108" x2="80" y2="110.857" href="#R"><stop stop-color="#ab750f"/><stop offset=".516" stop-color="#d8a956"/><stop offset="1" stop-color="#ab750f"/></linearGradient><linearGradient id="K" x1="80" y1="94.786" x2="80" y2="95.857" href="#R"><stop stop-color="#ab750f"/><stop offset=".516" stop-color="#d8a956"/><stop offset="1" stop-color="#ab750f"/></linearGradient><linearGradient id="L" x1="91.072" y1="105.5" x2="91.072" y2="107.286" href="#R"><stop stop-color="#ab750f"/><stop offset=".516" stop-color="#d8a956"/><stop offset="1" stop-color="#ab750f"/></linearGradient><linearGradient id="M" x1="88.75" y1="99.429" x2="88.75" y2="102.643" href="#R"><stop stop-color="#ab750f"/><stop offset=".516" stop-color="#d8a956"/><stop offset="1" stop-color="#ab750f"/></linearGradient><linearGradient id="N" x1="84.464" y1="95.857" x2="84.464" y2="97.286" href="#R"><stop stop-color="#ab750f"/><stop offset=".516" stop-color="#d8a956"/><stop offset="1" stop-color="#ab750f"/></linearGradient><linearGradient id="O" x1="72.58" y1="104.429" x2="87.034" y2="104.429" href="#R"><stop stop-color="#ab750f"/><stop offset=".516" stop-color="#d8a956"/><stop offset="1" stop-color="#ab750f"/></linearGradient><clipPath id="P"><path fill="#fff" transform="translate(62 86)" d="M0 0h36v30H0z"/></clipPath><path id="Q" d="M75.476 106.432l2.915.118c.12 0 .215-.034.283-.102.073-.073.11-.17.11-.291v-.707h-1.807c-.55 0-.951-.123-1.202-.369-.246-.252-.369-.652-.369-1.202v-.236c0-.55.123-.948.369-1.194.251-.252.652-.378 1.202-.378h2.758v1.1h-2.444c-.314 0-.471.158-.471.472v.157c0 .314.157.471.471.471h1.414c.513 0 .891.121 1.131.362s.361.618.361 1.131v.393c0 .513-.12.891-.361 1.132s-.618.361-1.131.361c-.267 0-.55-.005-.849-.016l-.723-.031-1.658-.11v-1.061zm5.036-4.361h4.243v1.1l-1.807 4.4h-1.571l1.886-4.4h-2.75v-1.1z"/><linearGradient id="R" gradientUnits="userSpaceOnUse"/></defs></svg>