<svg width="100" height="130" viewBox="0 0 100 130" fill="none" xmlns="http://www.w3.org/2000/svg">
<g id="id9">
<g id="bounding-box" clip-path="url(#clip0_2086_4296)">
<g id="id9_2">
<g id="Group 338">
<path id="Subtract" fill-rule="evenodd" clip-rule="evenodd" d="M73.71 95.6087L63.5073 86.4957V87.3372L63.5078 87.3389L64.4295 90.3284L73.4044 96.577C73.4633 96.2281 73.5678 95.9016 73.71 95.6087ZM73.3899 96.6691L64.7475 91.3598L65.4924 93.7761L73.3543 97.4559C73.3407 97.1853 73.3535 96.9217 73.3899 96.6691ZM73.3581 97.5214L65.7214 94.5189L66.3816 96.6604L73.461 98.2068C73.4088 97.9868 73.3737 97.7575 73.3581 97.5214ZM73.4692 98.2406L66.6248 97.4491L67.0115 98.7034L72.4966 99.1181L67.3599 99.5388L68.3842 100.729L72.4966 99.9596L68.3842 101.619L70.1576 102.063H75.9211V100.622C74.7931 100.586 73.8035 99.595 73.4692 98.2406Z" fill="#232222"/>
<path id="Subtract (Stroke)" fill-rule="evenodd" clip-rule="evenodd" d="M63.2856 86L73.9828 95.5546L73.9093 95.7061C73.7767 95.9792 73.6785 96.2853 73.6229 96.6142L73.6156 96.6574L73.6093 96.701C73.5749 96.9392 73.5628 97.1884 73.5757 97.4446L73.5773 97.4757L73.5793 97.5067C73.5941 97.7304 73.6273 97.9474 73.6767 98.1552L73.6805 98.1713L73.6844 98.1871C73.7577 98.4841 73.8631 98.7596 73.994 99.0083L75.3291 99.1092L74.1088 99.2092C74.1512 99.2776 74.1956 99.3435 74.2419 99.4069L74.6506 99.3304L74.2929 99.4747C74.7283 100.037 75.3154 100.38 75.9281 100.399L76.1428 100.406V102.286H70.1303L67.6674 101.668L70.3427 100.589L68.2996 100.971L66.9069 99.3528L69.6642 99.127L66.8443 98.9138L66.3126 97.1892L69.3885 97.5448L66.2081 96.8502L65.3736 94.1433L67.7423 95.0746L65.3096 93.936L64.362 90.8623L68.1483 93.1883L64.2403 90.4674L63.295 87.4012L63.2856 87.369V86ZM73.2574 96.204C73.3058 96.0167 73.3671 95.8366 73.4403 95.6656L63.729 86.9915V87.3037L64.6187 90.1895L73.2574 96.204ZM73.1521 96.7837L65.1329 91.8574L65.6751 93.6162L73.1295 97.1053C73.133 96.9967 73.1406 96.8894 73.1521 96.7837ZM73.1486 97.6779L66.0692 94.8945L66.5552 96.4708L73.1788 97.9175C73.1666 97.8385 73.1565 97.7586 73.1486 97.6779ZM73.2941 98.4442L66.937 97.7091L67.1786 98.493L73.4841 98.9697C73.4098 98.8016 73.3461 98.6258 73.2941 98.4442ZM73.6209 99.2492L67.8129 99.7249L68.4687 100.487L73.7664 99.4958C73.7152 99.4162 73.6666 99.3339 73.6209 99.2492ZM73.8683 99.646L69.101 101.569L70.1849 101.841H75.6994V100.827C74.9737 100.734 74.3299 100.29 73.8683 99.646Z" fill="url(#paint0_linear_2086_4296)"/>
</g>
<g id="Group 338_2">
<path id="Subtract_2" fill-rule="evenodd" clip-rule="evenodd" d="M86.2902 95.6087L96.4929 86.4957V87.3372L96.4924 87.3389L95.5708 90.3284L86.5959 96.577C86.5369 96.2281 86.4325 95.9016 86.2902 95.6087ZM86.6103 96.6691L95.2528 91.3598L94.5078 93.7761L86.6459 97.4559C86.6596 97.1853 86.6468 96.9217 86.6103 96.6691ZM86.6421 97.5214L94.2788 94.5189L93.6186 96.6604L86.5392 98.2068C86.5915 97.9868 86.6265 97.7575 86.6421 97.5214ZM86.531 98.2406L93.3755 97.4491L92.9888 98.7034L87.5036 99.1181L92.6404 99.5388L91.6161 100.729L87.5036 99.9596L91.6161 101.619L89.8427 102.063H84.0791V100.622C85.2071 100.586 86.1968 99.595 86.531 98.2406Z" fill="#232222"/>
<path id="Subtract (Stroke)_2" fill-rule="evenodd" clip-rule="evenodd" d="M96.7144 86L86.0172 95.5546L86.0907 95.7061C86.2233 95.9792 86.3215 96.2853 86.3771 96.6142L86.3844 96.6574L86.3907 96.701C86.4251 96.9392 86.4372 97.1884 86.4243 97.4446L86.4227 97.4757L86.4207 97.5067C86.4059 97.7304 86.3727 97.9474 86.3233 98.1552L86.3195 98.1713L86.3156 98.1871C86.2423 98.4841 86.1369 98.7596 86.006 99.0083L84.6709 99.1092L85.8912 99.2092C85.8488 99.2776 85.8044 99.3435 85.7581 99.4069L85.3494 99.3304L85.7071 99.4747C85.2717 100.037 84.6846 100.38 84.0719 100.399L83.8572 100.406V102.286H89.8697L92.3326 101.668L89.6573 100.589L91.7004 100.971L93.0931 99.3528L90.3358 99.127L93.1557 98.9138L93.6874 97.1892L90.6115 97.5448L93.7919 96.8502L94.6264 94.1433L92.2577 95.0746L94.6904 93.936L95.638 90.8623L91.8517 93.1883L95.7597 90.4674L96.705 87.4012L96.7144 87.369V86ZM86.7426 96.204C86.6942 96.0167 86.6329 95.8366 86.5597 95.6656L96.271 86.9915V87.3037L95.3813 90.1895L86.7426 96.204ZM86.8479 96.7837L94.8671 91.8574L94.3249 93.6162L86.8705 97.1053C86.867 96.9967 86.8594 96.8894 86.8479 96.7837ZM86.8514 97.6779L93.9308 94.8945L93.4448 96.4708L86.8212 97.9175C86.8334 97.8385 86.8435 97.7586 86.8514 97.6779ZM86.7059 98.4442L93.063 97.7091L92.8214 98.493L86.5159 98.9697C86.5902 98.8016 86.6539 98.6258 86.7059 98.4442ZM86.3791 99.2492L92.1871 99.7249L91.5313 100.487L86.2336 99.4958C86.2848 99.4162 86.3334 99.3339 86.3791 99.2492ZM86.1317 99.646L90.899 101.569L89.8151 101.841H84.3006V100.827C85.0263 100.734 85.6701 100.29 86.1317 99.646Z" fill="url(#paint1_linear_2086_4296)"/>
</g>
<g id="Group 334">
<path id="Union" fill-rule="evenodd" clip-rule="evenodd" d="M72.5384 108.611L70.7827 110.043L72.9773 109.685L72.5384 111.297L75.6108 108.79L76.4887 109.506L74.2941 110.939L75.6108 112.013L77.8055 110.222H78.2444L76.4887 112.729L77.8055 113.804L79.1222 110.222L78.6833 114.52L80.0001 115.595L81.3168 114.52L80.8779 110.222L82.1947 113.804L83.5114 112.729L81.7557 110.222H82.1947L84.3893 112.013L85.706 110.939L83.5114 109.506L84.3893 108.79L87.4617 111.297L87.0228 109.685L89.2174 110.043L87.4617 108.611V107.715H80.0001H72.5384V108.611Z" fill="#232222"/>
<path id="Union (Stroke)" fill-rule="evenodd" clip-rule="evenodd" d="M69.7144 110.51L72.1872 108.492V107.429H87.8128V108.492L90.2857 110.51L87.4825 110.052L88.0661 112.195L84.3893 109.195L84.0371 109.482L86.2317 110.915L84.3893 112.418L82.7763 111.102L83.9493 112.777L82.0272 114.346L81.5068 112.93L81.6803 114.629L80 116L78.3198 114.629L78.4933 112.93L77.9728 114.346L76.0507 112.777L77.2238 111.102L75.6108 112.418L73.7684 110.915L75.963 109.482L75.6108 109.195L71.934 112.195L72.5176 110.052L69.7144 110.51ZM72.9773 109.685L72.5384 111.297L75.6108 108.79L76.4887 109.506L74.2941 110.939L75.6108 112.013L77.8054 110.222H78.2444L76.4887 112.729L77.8054 113.804L79.1222 110.222L78.6833 114.52L80 115.595L81.3168 114.52L80.8779 110.222L82.1946 113.804L83.5114 112.729L81.7557 110.222H82.1946L84.3893 112.013L85.706 110.939L83.5114 109.506L84.3893 108.79L87.4617 111.297L87.0228 109.685L89.2174 110.043L87.4617 108.611V107.715H72.5384V108.611L70.7827 110.043L72.9773 109.685Z" fill="url(#paint2_linear_2086_4296)"/>
<path id="Vector 426" d="M79.1431 114.571L80.0002 115.286L80.8574 114.571L80.0002 114.214L79.1431 114.571Z" fill="url(#paint3_linear_2086_4296)"/>
</g>
<g id="Base">
<path id="Union_2" fill-rule="evenodd" clip-rule="evenodd" d="M80 93L77.8571 94.0715C77.8571 94.0715 77.1836 93.9046 76.7857 93.7143C76.3321 93.4973 75.7143 93 75.7143 93L75.3571 94.0715L73.2143 92.6429C73.2143 92.6429 73.2925 93.6224 73.5714 94.25C73.8504 94.8777 74.6429 95.8572 74.6429 95.8572L73.9286 96.5715L74.2857 96.9286L70.3571 98.7143L70.7143 100.857L67.8571 102.643L68.5714 103.357L65 108.714L70 107.643L69.2857 109.071L74.2857 108.357C74.2857 108.357 75.6574 109.97 76.7857 110.679C77.9263 111.395 80 111.929 80 111.929L80 111.929C80 111.929 82.0736 111.395 83.2143 110.679C84.3426 109.97 85.7143 108.357 85.7143 108.357L90.7143 109.071L90 107.643L95 108.714L91.4286 103.357L92.1429 102.643L89.2857 100.857L89.6429 98.7143L85.7143 96.9286L86.0714 96.5715L85.3571 95.8572C85.3571 95.8572 86.1496 94.8777 86.4286 94.25C86.7075 93.6224 86.7857 92.6429 86.7857 92.6429L84.6429 94.0715L84.2857 93C84.2857 93 83.6679 93.4974 83.2143 93.7143C82.8164 93.9046 82.1429 94.0715 82.1429 94.0715L80 93Z" fill="#232222"/>
<path id="Union_3" fill-rule="evenodd" clip-rule="evenodd" d="M77.8571 94.7857L80 93.7143L82.1428 94.7857L83.9286 94.0715L84.2857 95.1429L86.0714 93.7143C86.0714 93.7143 85.7545 94.4028 85.5357 94.7857C85.2421 95.2995 84.6428 95.8572 84.6428 95.8572L85.3571 96.5715L85 96.9286L88.9286 99.0715L88.5714 101.214L91.4286 102.643L90.7143 103.357L93.9286 108L89.2857 106.929L90 108.357L85.7143 107.643C85.7143 107.643 84.2259 109.349 83.0357 110.143C81.9459 110.87 80 111.929 80 111.929C80 111.929 82.0736 111.395 83.2143 110.679C84.3426 109.97 85.7143 108.357 85.7143 108.357L90.7143 109.071L90 107.643L95 108.714L91.4286 103.357L92.1429 102.643L89.2857 100.857L89.6429 98.7143L85.7143 96.9286L86.0714 96.5715L85.3571 95.8572C85.3571 95.8572 86.1496 94.8777 86.4286 94.25C86.7075 93.6224 86.7857 92.6429 86.7857 92.6429L84.6429 94.0715L84.2857 93C84.2857 93 83.6679 93.4974 83.2143 93.7143C82.8164 93.9046 82.1429 94.0715 82.1429 94.0715L80 93L77.8571 94.0715C77.8571 94.0715 77.1836 93.9046 76.7857 93.7143C76.3321 93.4973 75.7143 93 75.7143 93L75.3571 94.0715L73.2143 92.6429C73.2143 92.6429 73.2925 93.6224 73.5714 94.25C73.8504 94.8777 74.6429 95.8572 74.6429 95.8572L73.9286 96.5715L74.2857 96.9286L70.3571 98.7143L70.7143 100.857L67.8571 102.643L68.5714 103.357L65 108.714L70 107.643L69.2857 109.071L74.2857 108.357C74.2857 108.357 75.6574 109.97 76.7857 110.679C77.9263 111.395 80 111.929 80 111.929C80 111.929 78.0541 110.87 76.9643 110.143C75.7741 109.349 74.2857 107.643 74.2857 107.643L70 108.357L70.7143 106.929L66.0714 108L69.2857 103.357L68.5714 102.643L71.4286 101.214L71.0714 99.0715L75 96.9286L74.6429 96.5715L75.3571 95.8572C75.3571 95.8572 74.7579 95.2995 74.4643 94.7857C74.2455 94.4028 73.9286 93.7143 73.9286 93.7143L75.7143 95.1429L76.0714 94.0715L77.8571 94.7857Z" fill="url(#paint4_linear_2086_4296)"/>
<g id="Group 159">
<path id="Vector 240" d="M67.1431 107.286L68.5716 105.5L70.7145 106.214L67.1431 107.286Z" fill="url(#paint5_linear_2086_4296)"/>
<path id="Vector 241" d="M72.1433 101.571L71.7862 99.4286L72.8576 101.929L69.6433 102.643L72.1433 101.571Z" fill="url(#paint6_linear_2086_4296)"/>
<path id="Vector 242" d="M75.7148 96.9286L75.3576 96.5715L76.0719 95.8572L75.7148 96.5715L76.0719 96.9286L75.7148 97.2857H75.0005L75.7148 96.9286Z" fill="url(#paint7_linear_2086_4296)"/>
</g>
<g id="Group 160">
<path id="Union_4" fill-rule="evenodd" clip-rule="evenodd" d="M80.0002 110.857C80.0113 110.852 81.4483 110.203 82.143 109.786C82.8403 109.367 83.5715 108.714 83.5715 108.714L81.7858 108L80.0001 108.714L78.2145 108L76.4287 108.714C76.4287 108.714 77.1599 109.367 77.8573 109.786C78.552 110.203 79.9889 110.852 80.0001 110.857V110.857C80.0001 110.857 80.0001 110.857 80.0001 110.857C80.0002 110.857 80.0002 110.857 80.0002 110.857V110.857Z" fill="url(#paint8_linear_2086_4296)"/>
<path id="Union_5" fill-rule="evenodd" clip-rule="evenodd" d="M80.0002 94.7857L81.7859 95.8571L80.0002 95.5L78.2145 95.8571L80.0002 94.7857V94.7857L80.0002 94.7857L80.0002 94.7857V94.7857Z" fill="url(#paint9_linear_2086_4296)"/>
<path id="Vector 240_2" d="M92.8574 107.286L91.4289 105.5L89.286 106.214L92.8574 107.286Z" fill="url(#paint10_linear_2086_4296)"/>
<path id="Vector 241_2" d="M87.8572 101.571L88.2143 99.4286L87.1429 101.929L90.3572 102.643L87.8572 101.571Z" fill="url(#paint11_linear_2086_4296)"/>
<path id="Vector 242_2" d="M84.286 96.9286L84.6431 96.5714L83.9288 95.8571L84.286 96.5714L83.9288 96.9286L84.286 97.2857H85.0002L84.286 96.9286Z" fill="url(#paint12_linear_2086_4296)"/>
<path id="Union_6" fill-rule="evenodd" clip-rule="evenodd" d="M80.0001 109.786H81.0715L80.0001 110.5V110.5L80.0001 110.5L80.0001 110.5V110.5L78.9287 109.786H80.0001H80.0001Z" fill="#232222"/>
</g>
<g id="Group 333">
<g id="Group 155">
<g id="S9" filter="url(#filter0_f_2086_4296)">
<path d="M75.2001 106.432C76.6353 106.511 77.607 106.55 78.1151 106.55C78.2356 106.55 78.3299 106.516 78.398 106.448C78.4713 106.375 78.5079 106.278 78.5079 106.157V105.45H76.7008C76.1508 105.45 75.7501 105.327 75.4987 105.081C75.2525 104.829 75.1294 104.429 75.1294 103.879V103.643C75.1294 103.093 75.2525 102.695 75.4987 102.449C75.7501 102.197 76.1508 102.071 76.7008 102.071H79.4587V103.171H77.0151C76.7008 103.171 76.5437 103.329 76.5437 103.643V103.8C76.5437 104.114 76.7008 104.271 77.0151 104.271H78.4294C78.9427 104.271 79.3198 104.392 79.5608 104.633C79.8018 104.874 79.9222 105.251 79.9222 105.764V106.157C79.9222 106.67 79.8018 107.048 79.5608 107.289C79.3198 107.53 78.9427 107.65 78.4294 107.65C78.1622 107.65 77.8794 107.645 77.5808 107.634L76.858 107.603C76.3237 107.577 75.7711 107.54 75.2001 107.493V106.432ZM80.7073 106.432C81.7864 106.511 82.5459 106.55 82.9859 106.55C83.1064 106.55 83.2006 106.516 83.2687 106.448C83.3421 106.375 83.3787 106.278 83.3787 106.157V105.45C82.8706 105.555 82.4254 105.607 82.043 105.607H81.493C81.1368 105.607 80.8514 105.5 80.6366 105.285C80.4218 105.07 80.3145 104.785 80.3145 104.429V103.407C80.3145 102.931 80.4349 102.577 80.6759 102.346C80.9168 102.111 81.294 101.993 81.8073 101.993H83.3002C83.8135 101.993 84.1906 102.111 84.4316 102.346C84.6725 102.577 84.793 102.931 84.793 103.407V106.157C84.793 106.67 84.6725 107.048 84.4316 107.289C84.1906 107.53 83.8135 107.65 83.3002 107.65C82.5825 107.65 81.7183 107.598 80.7073 107.493V106.432ZM82.4359 104.507C82.7345 104.507 83.0487 104.481 83.3787 104.429V103.564C83.3787 103.25 83.2216 103.093 82.9073 103.093H82.2002C81.8859 103.093 81.7287 103.25 81.7287 103.564V104.232C81.7287 104.311 81.7549 104.376 81.8073 104.429C81.8597 104.481 81.9252 104.507 82.0037 104.507H82.4359Z" fill="url(#paint13_linear_2086_4296)"/>
</g>
<path id="S9_2" d="M75.2001 106.432C76.6353 106.511 77.607 106.55 78.1151 106.55C78.2356 106.55 78.3299 106.516 78.398 106.448C78.4713 106.375 78.5079 106.278 78.5079 106.157V105.45H76.7008C76.1508 105.45 75.7501 105.327 75.4987 105.081C75.2525 104.829 75.1294 104.429 75.1294 103.879V103.643C75.1294 103.093 75.2525 102.695 75.4987 102.449C75.7501 102.197 76.1508 102.071 76.7008 102.071H79.4587V103.171H77.0151C76.7008 103.171 76.5437 103.329 76.5437 103.643V103.8C76.5437 104.114 76.7008 104.271 77.0151 104.271H78.4294C78.9427 104.271 79.3198 104.392 79.5608 104.633C79.8018 104.874 79.9222 105.251 79.9222 105.764V106.157C79.9222 106.67 79.8018 107.048 79.5608 107.289C79.3198 107.53 78.9427 107.65 78.4294 107.65C78.1622 107.65 77.8794 107.645 77.5808 107.634L76.858 107.603C76.3237 107.577 75.7711 107.54 75.2001 107.493V106.432ZM80.7073 106.432C81.7864 106.511 82.5459 106.55 82.9859 106.55C83.1064 106.55 83.2006 106.516 83.2687 106.448C83.3421 106.375 83.3787 106.278 83.3787 106.157V105.45C82.8706 105.555 82.4254 105.607 82.043 105.607H81.493C81.1368 105.607 80.8514 105.5 80.6366 105.285C80.4218 105.07 80.3145 104.785 80.3145 104.429V103.407C80.3145 102.931 80.4349 102.577 80.6759 102.346C80.9168 102.111 81.294 101.993 81.8073 101.993H83.3002C83.8135 101.993 84.1906 102.111 84.4316 102.346C84.6725 102.577 84.793 102.931 84.793 103.407V106.157C84.793 106.67 84.6725 107.048 84.4316 107.289C84.1906 107.53 83.8135 107.65 83.3002 107.65C82.5825 107.65 81.7183 107.598 80.7073 107.493V106.432ZM82.4359 104.507C82.7345 104.507 83.0487 104.481 83.3787 104.429V103.564C83.3787 103.25 83.2216 103.093 82.9073 103.093H82.2002C81.8859 103.093 81.7287 103.25 81.7287 103.564V104.232C81.7287 104.311 81.7549 104.376 81.8073 104.429C81.8597 104.481 81.9252 104.507 82.0037 104.507H82.4359Z" fill="white"/>
</g>
<g id="Group 183">
<path id="MPL" d="M78.3606 98.8001L77.6991 99.9814H77.0376L76.3761 98.8001V100.643H75.5256V97.3354H76.4233L77.3683 99.0836L78.3133 97.3354H79.2111V100.643H78.3606V98.8001ZM79.7799 97.3354H81.7644C82.0951 97.3354 82.3345 97.411 82.4826 97.5622C82.6338 97.7103 82.7094 97.9496 82.7094 98.2804V98.7529C82.7094 99.0836 82.6338 99.3246 82.4826 99.4758C82.3345 99.6239 82.0951 99.6979 81.7644 99.6979H80.6304V100.643H79.7799V97.3354ZM81.8589 98.2804C81.8589 98.0914 81.7644 97.9969 81.5754 97.9969H80.6304V99.0364H81.5754C81.7644 99.0364 81.8589 98.9419 81.8589 98.7529V98.2804ZM83.9849 99.9814H85.7096V100.643H83.1344V97.3354H83.9849V99.9814Z" fill="white"/>
</g>
</g>
</g>
</g>
</g>
</g>
<defs>
<filter id="filter0_f_2086_4296" x="73.0401" y="99.9036" width="13.8421" height="9.83565" filterUnits="userSpaceOnUse" color-interpolation-filters="sRGB">
<feFlood flood-opacity="0" result="BackgroundImageFix"/>
<feBlend mode="normal" in="SourceGraphic" in2="BackgroundImageFix" result="shape"/>
<feGaussianBlur stdDeviation="1.04463" result="effect1_foregroundBlur_2086_4296"/>
</filter>
<linearGradient id="paint0_linear_2086_4296" x1="69.7142" y1="86" x2="69.7142" y2="102.286" gradientUnits="userSpaceOnUse">
<stop stop-color="#AB750F"/>
<stop offset="0.516" stop-color="#D8A956"/>
<stop offset="1" stop-color="#AB750F"/>
</linearGradient>
<linearGradient id="paint1_linear_2086_4296" x1="90.2858" y1="86" x2="90.2858" y2="102.286" gradientUnits="userSpaceOnUse">
<stop stop-color="#AB750F"/>
<stop offset="0.516" stop-color="#D8A956"/>
<stop offset="1" stop-color="#AB750F"/>
</linearGradient>
<linearGradient id="paint2_linear_2086_4296" x1="80" y1="107.429" x2="80" y2="116" gradientUnits="userSpaceOnUse">
<stop stop-color="#AB750F"/>
<stop offset="0.516" stop-color="#D8A956"/>
<stop offset="1" stop-color="#AB750F"/>
</linearGradient>
<linearGradient id="paint3_linear_2086_4296" x1="80.0002" y1="114.214" x2="80.0002" y2="115.286" gradientUnits="userSpaceOnUse">
<stop stop-color="#AB750F"/>
<stop offset="0.516" stop-color="#D8A956"/>
<stop offset="1" stop-color="#AB750F"/>
</linearGradient>
<linearGradient id="paint4_linear_2086_4296" x1="80" y1="92.6429" x2="80" y2="111.929" gradientUnits="userSpaceOnUse">
<stop stop-color="#AB750F"/>
<stop offset="0.516" stop-color="#D8A956"/>
<stop offset="1" stop-color="#AB750F"/>
</linearGradient>
<linearGradient id="paint5_linear_2086_4296" x1="68.9288" y1="105.5" x2="68.9288" y2="107.286" gradientUnits="userSpaceOnUse">
<stop stop-color="#AB750F"/>
<stop offset="0.516" stop-color="#D8A956"/>
<stop offset="1" stop-color="#AB750F"/>
</linearGradient>
<linearGradient id="paint6_linear_2086_4296" x1="71.2505" y1="99.4286" x2="71.2505" y2="102.643" gradientUnits="userSpaceOnUse">
<stop stop-color="#AB750F"/>
<stop offset="0.516" stop-color="#D8A956"/>
<stop offset="1" stop-color="#AB750F"/>
</linearGradient>
<linearGradient id="paint7_linear_2086_4296" x1="75.5362" y1="95.8572" x2="75.5362" y2="97.2857" gradientUnits="userSpaceOnUse">
<stop stop-color="#AB750F"/>
<stop offset="0.516" stop-color="#D8A956"/>
<stop offset="1" stop-color="#AB750F"/>
</linearGradient>
<linearGradient id="paint8_linear_2086_4296" x1="80.0001" y1="108" x2="80.0001" y2="110.857" gradientUnits="userSpaceOnUse">
<stop stop-color="#AB750F"/>
<stop offset="0.516" stop-color="#D8A956"/>
<stop offset="1" stop-color="#AB750F"/>
</linearGradient>
<linearGradient id="paint9_linear_2086_4296" x1="80.0002" y1="94.7857" x2="80.0002" y2="95.8571" gradientUnits="userSpaceOnUse">
<stop stop-color="#AB750F"/>
<stop offset="0.516" stop-color="#D8A956"/>
<stop offset="1" stop-color="#AB750F"/>
</linearGradient>
<linearGradient id="paint10_linear_2086_4296" x1="91.0717" y1="105.5" x2="91.0717" y2="107.286" gradientUnits="userSpaceOnUse">
<stop stop-color="#AB750F"/>
<stop offset="0.516" stop-color="#D8A956"/>
<stop offset="1" stop-color="#AB750F"/>
</linearGradient>
<linearGradient id="paint11_linear_2086_4296" x1="88.75" y1="99.4286" x2="88.75" y2="102.643" gradientUnits="userSpaceOnUse">
<stop stop-color="#AB750F"/>
<stop offset="0.516" stop-color="#D8A956"/>
<stop offset="1" stop-color="#AB750F"/>
</linearGradient>
<linearGradient id="paint12_linear_2086_4296" x1="84.4645" y1="95.8571" x2="84.4645" y2="97.2857" gradientUnits="userSpaceOnUse">
<stop stop-color="#AB750F"/>
<stop offset="0.516" stop-color="#D8A956"/>
<stop offset="1" stop-color="#AB750F"/>
</linearGradient>
<linearGradient id="paint13_linear_2086_4296" x1="72.5799" y1="104.429" x2="87.034" y2="104.429" gradientUnits="userSpaceOnUse">
<stop stop-color="#AB750F"/>
<stop offset="0.516" stop-color="#D8A956"/>
<stop offset="1" stop-color="#AB750F"/>
</linearGradient>
<clipPath id="clip0_2086_4296">
<rect width="36" height="30" fill="white" transform="translate(62 86)"/>
</clipPath>
</defs>
</svg>
