<svg xmlns="http://www.w3.org/2000/svg" width="100" height="130" fill="none" xmlns:v="https://vecta.io/nano"><mask id="A" fill="#fff"><path d="M12 4H88V130H12V4Z"/></mask><path d="M12 4H88V130H12V4Z" fill="url(#B)" fill-opacity=".2"/><path d="M12 4v-.659h-.659V4H12zm76 0h.659v-.659H88V4zm-76 .659h76V3.341H12v1.317zM87.342 4v126h1.317V4h-1.317zM12.659 130V4h-1.317v126h1.317z" fill="url(#C)" mask="url(#A)"/><path fill="url(#D)" d="M12 4h76v3H12z"/><path d="M100 101l-23.951 29H80l20-25.049V101z" fill="url(#E)"/><path d="M99 109.178L82 130h2.822L99 112v-2.822z" fill="url(#F)"/><g fill-rule="evenodd"><path d="M91 107V10h.5v97l-18 23H73l18-23z" fill="url(#G)"/><path opacity=".5" d="M93.835 19.068l-8.952-8.952.233-.233 9.048 9.048V105h-.329V19.068z" fill="url(#H)"/></g><path opacity=".3" d="M100 4h-9v5h4v13h5V4z" fill="url(#I)"/><path d="M0 101l23.951 29H20L0 104.951V101z" fill="url(#J)"/><path d="M1 109.178L18 130h-2.822L1 112v-2.822z" fill="url(#K)"/><g fill-rule="evenodd"><path d="M9 107V10h-.5v97l18 23h.5L9 107z" fill="url(#L)"/><path opacity=".5" d="M6.165 19.068l8.952-8.952-.233-.233-9.048 9.048V105h.329V19.068z" fill="url(#M)"/></g><path opacity=".3" d="M0 4H9V9H5V22H0V4Z" fill="url(#N)"/><path d="M50 0l3 6-3 4-3-4 3-6z" fill="#ab750f"/><path d="M47 6l3-6v10l-3-4z" fill="#ffc502"/><path d="M49.962 1.279L53 6l-3-6-3 6 2.962-4.721z" fill="#fff" fill-opacity=".3"/><g clip-path="url(#S)"><path d="M42.279 116.038c-.172 0-.33-.033-.476-.099a.91.91 0 0 1-.353-.288l.284-.342a.82.82 0 0 0 .242.23.58.58 0 0 0 .292.077c.279 0 .418-.165.418-.495v-1.39h-.956v-.419h1.455v1.782c0 .317-.078.554-.234.71s-.378.234-.672.234zm2.762 0c-.369 0-.658-.103-.868-.311s-.311-.507-.311-.898v-1.517h.499v1.498c0 .276.059.477.177.602s.289.189.507.189.385-.063.503-.189.177-.326.177-.602v-1.498h.492v1.517c0 .391-.105.691-.315.898s-.494.311-.86.311zm1.874-.038v-2.688h.411l1.686 2.07h-.203v-2.07h.495V116h-.411l-1.686-2.07h.203V116h-.495zm4.365.038c-.21 0-.403-.033-.58-.099a1.46 1.46 0 0 1-.457-.288 1.33 1.33 0 0 1-.303-.442 1.4 1.4 0 0 1-.108-.553 1.4 1.4 0 0 1 .108-.553 1.28 1.28 0 0 1 .303-.438c.133-.125.288-.221.465-.288a1.58 1.58 0 0 1 .58-.103c.228 0 .433.037.614.111s.339.183.465.326l-.315.308c-.105-.105-.219-.182-.342-.231s-.253-.077-.399-.077c-.141 0-.271.023-.392.069s-.224.112-.311.196a.91.91 0 0 0-.204.3c-.046.115-.069.242-.069.38a1 1 0 0 0 .069.376.94.94 0 0 0 .204.304c.087.084.189.149.307.196s.248.069.392.069c.133 0 .261-.021.384-.062s.244-.115.357-.215l.284.373c-.141.112-.305.198-.491.257a1.92 1.92 0 0 1-.561.084zm.58-.407v-1.006h.472v1.072l-.472-.066zm1.131.369v-2.688h.499v2.266h1.406V116H52.99zm2.76-1.571h1.336v.411H55.75v-.411zm.038 1.152h1.517V116h-2.016v-2.688h1.962v.419h-1.463v1.85z" fill="url(#O)"/><g clip-path="url(#T)"><path fill-rule="evenodd" d="M49.407 100H55.2l-2.34 3.138s-.599.884 0 1.559l1.021 1.119-.056 2.008-1.207 1.026v1.108h-2.625l-.376-.424s2.901-.902 1.851-2.085-3.12-.712-3.12-.712l-.501 1.129.724.063.464.711h-2.191l-.585.659.882.994h.861l.247-.278v.885l-.267.3h-2.18L44 109.168l.565-.637c.531-.469 1.085-1.229 1.521-1.897l.605-.984.173-.304.046-.084.012-.022.003-.005.001-.002h0 0l-.044-.024-.044-.023h0 0l-.001.002-.003.005-.012.022-.046.083-.172.303-.602.978c-.432.662-.973 1.402-1.486 1.863h-.234l.093-1.12-.375-.481.73-.498c.266-.129.512-.305.7-.458l.268-.235.074-.072.02-.02.005-.005.001-.001v-.001h0 0l-.036-.034-.036-.035h0 0v.001l-.001.001-.005.005-.019.018-.072.07-.263.23a3.87 3.87 0 0 1-.512.357l-.034-1.017h.353v-1.172h1.04v-.418h.928l2.051-2.312.214-1.245z" fill="url(#P)"/></g></g><g clip-path="url(#U)"><rect x="36.4" y="70.668" width="27.2" height="27.2" rx="13.6" transform="rotate(270 36.4 70.668)" fill="url(#Q)"/><g fill-rule="evenodd"><path d="M49.926 72.126c8.395 0 15.2-6.805 15.2-15.2s-6.805-15.2-15.2-15.2-15.2 6.805-15.2 15.2 6.805 15.2 15.2 15.2zm-16-15.2c0 8.837 7.163 16 16 16s16-7.163 16-16-7.163-16-16-16-16 7.163-16 16z" fill="url(#R)"/><path d="M50 49.8a2.16 2.16 0 0 1 2.16 2.16v2.88h2.88a2.16 2.16 0 0 1 0 4.32h-2.88v2.88a2.16 2.16 0 1 1-4.32 0v-2.88h-2.88a2.16 2.16 0 0 1 0-4.32h2.88v-2.88A2.16 2.16 0 0 1 50 49.8z" fill="#f5f1ee"/></g></g><defs><linearGradient id="B" x1="50" y1="4" x2="50" y2="130" href="#V"><stop stop-color="#ab750f"/><stop offset="1" stop-color="#997601" stop-opacity="0"/></linearGradient><linearGradient id="C" x1="50" y1="4" x2="50" y2="142.866" href="#V"><stop stop-color="#d1a14a"/><stop offset="1" stop-color="#d1a14a" stop-opacity="0"/></linearGradient><linearGradient id="D" x1="8.447" y1="5.5" x2="89.39" y2="5.5" href="#V"><stop stop-color="#ab750f"/><stop offset=".516" stop-color="#d8a956"/><stop offset="1" stop-color="#ab750f"/></linearGradient><linearGradient id="E" x1="74.929" y1="115.5" x2="100.438" y2="115.5" href="#V"><stop stop-color="#ab750f"/><stop offset=".516" stop-color="#d8a956"/><stop offset="1" stop-color="#ab750f"/></linearGradient><linearGradient id="F" x1="81.205" y1="119.589" x2="99.311" y2="119.589" href="#V"><stop stop-color="#ab750f"/><stop offset=".516" stop-color="#d8a956"/><stop offset="1" stop-color="#ab750f"/></linearGradient><linearGradient id="G" x1="72.135" y1="70.001" x2="91.838" y2="70.001" href="#V"><stop stop-color="#ab750f"/><stop offset=".516" stop-color="#d8a956"/><stop offset="1" stop-color="#ab750f"/></linearGradient><linearGradient id="H" x1="89.524" y1="9.884" x2="89.524" y2="105" href="#V"><stop stop-color="#ab750f"/><stop offset=".516" stop-color="#d8a956"/><stop offset="1" stop-color="#ab750f"/></linearGradient><linearGradient id="I" x1="95.5" y1="4" x2="95.5" y2="22" href="#V"><stop stop-color="#ab750f"/><stop offset=".516" stop-color="#d8a956"/><stop offset="1" stop-color="#ab750f"/></linearGradient><linearGradient id="J" x1="25.071" y1="115.5" x2="-.438" y2="115.5" href="#V"><stop stop-color="#ab750f"/><stop offset=".516" stop-color="#d8a956"/><stop offset="1" stop-color="#ab750f"/></linearGradient><linearGradient id="K" x1="18.795" y1="119.589" x2=".689" y2="119.589" href="#V"><stop stop-color="#ab750f"/><stop offset=".516" stop-color="#d8a956"/><stop offset="1" stop-color="#ab750f"/></linearGradient><linearGradient id="L" x1="27.865" y1="70.001" x2="8.162" y2="70.001" href="#V"><stop stop-color="#ab750f"/><stop offset=".516" stop-color="#d8a956"/><stop offset="1" stop-color="#ab750f"/></linearGradient><linearGradient id="M" x1="10.476" y1="9.884" x2="10.476" y2="105" href="#V"><stop stop-color="#ab750f"/><stop offset=".516" stop-color="#d8a956"/><stop offset="1" stop-color="#ab750f"/></linearGradient><linearGradient id="N" x1="4.5" y1="4" x2="4.5" y2="22" href="#V"><stop stop-color="#ab750f"/><stop offset=".516" stop-color="#d8a956"/><stop offset="1" stop-color="#ab750f"/></linearGradient><linearGradient id="O" x1="40.205" y1="114.5" x2="58.311" y2="114.5" href="#V"><stop stop-color="#ab750f"/><stop offset=".516" stop-color="#d8a956"/><stop offset="1" stop-color="#ab750f"/></linearGradient><linearGradient id="P" x1="43.477" y1="105.6" x2="55.405" y2="105.6" href="#V"><stop stop-color="#ab750f"/><stop offset=".516" stop-color="#d8a956"/><stop offset="1" stop-color="#ab750f"/></linearGradient><linearGradient id="Q" x1="69.564" y1="81.219" x2="35.491" y2="81.566" href="#V"><stop stop-color="#ab750f"/><stop offset=".238" stop-color="#d8a956"/><stop offset="1" stop-color="#ab750f"/></linearGradient><linearGradient id="R" x1="49.926" y1="74.422" x2="49.926" y2="40.341" href="#V"><stop stop-color="#ab750f"/><stop offset=".516" stop-color="#d8a956"/><stop offset="1" stop-color="#ab750f"/></linearGradient><clipPath id="S"><path fill="#fff" transform="translate(42 100)" d="M0 0h16v16H0z"/></clipPath><clipPath id="T"><path fill="#fff" transform="translate(44 100)" d="M0 0h11.2v11.2H0z"/></clipPath><clipPath id="U"><path fill="#fff" transform="translate(34 41)" d="M0 0h32v32H0z"/></clipPath><linearGradient id="V" gradientUnits="userSpaceOnUse"/></defs></svg>