<svg xmlns="http://www.w3.org/2000/svg" width="100" height="130" fill="none" xmlns:v="https://vecta.io/nano"><g fill-rule="evenodd"><path d="M80 91.217c-3.261 0-10.565.522-15 9.131.76.38 10.016 5.648 6.522 6.522-.988.247-2.609 0-2.609 0l3.261 3.913s1.846.455 2.935.978C77.387 112.855 80 116 80 116s2.613-3.145 4.891-4.239c1.089-.523 2.935-.978 2.935-.978l3.261-3.913s-1.62.247-2.609 0c-3.494-.874 5.761-6.142 6.522-6.522-4.435-8.609-11.739-9.131-15-9.131z" fill="#212121"/><path d="M77.391 110.13l.652.653c1.139 1.273 1.957 3.913 1.957 3.913s.817-2.64 1.956-3.913c.24-.269.652-.653.652-.653s-.855-.302-1.304-.652c-.725-.564-1.304-1.956-1.304-1.956s-.58 1.392-1.304 1.956c-.45.35-1.304.652-1.304.652z" fill="url(#B)"/></g><path d="M70.217 99.696c1.304 1.826.978 2.934.652 3.261l1.304 1.956c.217-1.196.13-3.913-1.957-5.217z" fill="url(#C)"/><g stroke-width=".326"><path d="M74.1304 93.1739C74.1304 93.1739 73.1929 95.533 72.1739 96.7609C70.4582 98.828 66.3043 100.348 66.3043 100.348" stroke="url(#D)"/><path d="M72.8261 93.1739C72.8261 93.1739 71.6411 95.2958 70.2174 96.4348C68.7936 97.5738 66.3043 98.3913 66.3043 98.3913" stroke="url(#E)"/></g><path fill-rule="evenodd" d="M74.788 91.893c-3.28.944-7.072 3.183-9.787 8.455.76.38 10.016 5.648 6.522 6.522-.988.247-2.609 0-2.609 0l3.261 3.913s1.846.455 2.935.978c1.903.914 4.04 3.259 4.692 4.007l-3.714-4.333h1.304l-1.957-1.305h-2.609l-1.956-2.608h2.609c-.109-.326-.13-1.044.652-1.305-1.953-2.79-5.339-4.864-6.889-5.813l-.611-.382c.522-3.652 5.109-6.196 7.5-6.848.217.435.913 1.304 1.957 1.304-.772-.772-1.184-2.029-1.3-2.585z" fill="url(#F)"/><path d="M89.783 99.696c-1.304 1.826-.978 2.934-.652 3.261l-1.304 1.956c-.217-1.196-.13-3.913 1.957-5.217z" fill="url(#G)"/><g stroke-width=".326"><path d="M85.8696 93.1739C85.8696 93.1739 86.8071 95.533 87.8261 96.7609C89.5418 98.828 93.6957 100.348 93.6957 100.348" stroke="url(#H)"/><path d="M87.1739 93.1739C87.1739 93.1739 88.3589 95.2958 89.7826 96.4348C91.2064 97.5738 93.6957 98.3913 93.6957 98.3913" stroke="url(#I)"/></g><g fill-rule="evenodd"><path d="M85.213 91.893c3.28.944 7.072 3.183 9.787 8.455-.76.38-10.016 5.648-6.522 6.522.988.247 2.609 0 2.609 0l-3.261 3.913s-1.846.455-2.935.978c-1.903.914-4.04 3.259-4.692 4.007l3.714-4.333h-1.304l1.957-1.305h2.609l1.956-2.608h-2.609c.109-.326.13-1.044-.652-1.305 1.953-2.79 5.339-4.864 6.889-5.813l.611-.382c-.522-3.652-5.109-6.196-7.5-6.848-.217.435-.913 1.304-1.957 1.304.772-.772 1.184-2.029 1.3-2.585z" fill="url(#J)"/><path d="M80 91.217v4.565l.652-3.261c.652 0 2.087.261 2.609 1.304.72-.9 1.067-1.644 1.213-2.126-1.779-.422-3.362-.482-4.474-.482zm0 0v4.565l-.652-3.261c-.652 0-2.087.261-2.609 1.304-.719-.9-1.067-1.644-1.213-2.126 1.779-.422 3.362-.482 4.474-.482z" fill="url(#K)"/><path d="M72.826 91.87l1.957-3.261 1.304 1.304.652-2.609 1.957 1.304L80 86l1.304 2.609 1.957-1.304.652 2.609 1.304-1.304 1.957 3.261s-2.186-.724-3.587-.978S80 90.565 80 90.565s-2.186.071-3.587.326-3.587.978-3.587.978z" fill="url(#L)"/><path d="M79.755 88.087c.116-.316.245-.782.245-.782l.245.782.081.196a.66.66 0 0 0 .326.326s-.199.071-.326.326c-.025.05-.053.118-.081.196l-.245.782-.245-.782-.081-.196c-.127-.255-.326-.326-.326-.326s.199-.071.326-.326c.025-.05.053-.118.081-.196z" fill="#212121"/></g><g filter="url(#A)"><use href="#N" fill="url(#M)"/></g><use href="#N" fill="#fff"/><path d="M77.275 97.2c0 .231-.098.43-.293.598l-.195.155-.875.631h1.363v.57h-2.197v-.773l1.465-1.058v-.203c0-.163-.081-.244-.244-.244h-1.139v-.57h1.302c.285 0 .491.065.618.195s.195.334.195.618v.081zm1.952-.122c0-.163-.081-.244-.244-.244h-.447c-.163 0-.244.081-.244.244v1.302c0 .163.081.244.244.244h.447c.163 0 .244-.081.244-.244v-1.302zm.732 1.302c0 .285-.065.492-.195.622s-.334.191-.618.191h-.773c-.285 0-.492-.064-.622-.191s-.191-.338-.191-.622v-1.302c0-.285.064-.491.191-.618s.338-.195.622-.195h.773c.285 0 .491.065.618.195s.195.334.195.618v1.302zm2.44-1.18c0 .231-.098.43-.293.598l-.195.155-.875.631h1.363v.57h-2.197v-.773l1.465-1.058v-.203c0-.163-.081-.244-.244-.244h-1.139v-.57h1.302c.285 0 .491.065.618.195s.195.334.195.618v.081zm1.545 1.383h-1.505v-.57l.976-1.709h.814l-.976 1.709h.692v-.61h.732v.61h.285v.57h-.285v.57h-.732v-.57z" fill="#f5f1ee"/><defs><filter id="A" x="71.203" y="97.349" width="18.585" height="11.788" filterUnits="userSpaceOnUse" color-interpolation-filters="sRGB"><feFlood flood-opacity="0"/><feBlend in="SourceGraphic"/><feGaussianBlur stdDeviation="1.272"/></filter><linearGradient id="B" x1="80" y1="107.522" x2="80" y2="114.696" href="#O"><stop stop-color="#ab750f"/><stop offset=".516" stop-color="#d8a956"/><stop offset="1" stop-color="#ab750f"/></linearGradient><linearGradient id="C" x1="70.122" y1="102.304" x2="72.292" y2="102.304" href="#O"><stop stop-color="#ab750f"/><stop offset=".516" stop-color="#d8a956"/><stop offset="1" stop-color="#ab750f"/></linearGradient><linearGradient id="D" x1="65.939" y1="96.761" x2="74.274" y2="96.761" href="#O"><stop stop-color="#ab750f"/><stop offset=".516" stop-color="#d8a956"/><stop offset="1" stop-color="#ab750f"/></linearGradient><linearGradient id="E" x1="65.999" y1="95.783" x2="72.945" y2="95.783" href="#O"><stop stop-color="#ab750f"/><stop offset=".516" stop-color="#d8a956"/><stop offset="1" stop-color="#ab750f"/></linearGradient><linearGradient id="F" x1="64.308" y1="103.831" x2="80.072" y2="103.831" href="#O"><stop stop-color="#ab750f"/><stop offset=".516" stop-color="#d8a956"/><stop offset="1" stop-color="#ab750f"/></linearGradient><linearGradient id="G" x1="89.878" y1="102.304" x2="87.708" y2="102.304" href="#O"><stop stop-color="#ab750f"/><stop offset=".516" stop-color="#d8a956"/><stop offset="1" stop-color="#ab750f"/></linearGradient><linearGradient id="H" x1="94.062" y1="96.761" x2="85.726" y2="96.761" href="#O"><stop stop-color="#ab750f"/><stop offset=".516" stop-color="#d8a956"/><stop offset="1" stop-color="#ab750f"/></linearGradient><linearGradient id="I" x1="94.001" y1="95.783" x2="87.055" y2="95.783" href="#O"><stop stop-color="#ab750f"/><stop offset=".516" stop-color="#d8a956"/><stop offset="1" stop-color="#ab750f"/></linearGradient><linearGradient id="J" x1="95.692" y1="103.831" x2="79.928" y2="103.831" href="#O"><stop stop-color="#ab750f"/><stop offset=".516" stop-color="#d8a956"/><stop offset="1" stop-color="#ab750f"/></linearGradient><linearGradient id="K" x1="84.893" y1="93.5" x2="75.362" y2="93.5" href="#O"><stop stop-color="#ab750f"/><stop offset=".516" stop-color="#d8a956"/><stop offset="1" stop-color="#ab750f"/></linearGradient><linearGradient id="L" x1="72.155" y1="88.935" x2="87.436" y2="88.935" href="#O"><stop stop-color="#ab750f"/><stop offset=".516" stop-color="#d8a956"/><stop offset="1" stop-color="#ab750f"/></linearGradient><linearGradient id="M" x1="72.107" y1="103" x2="88.083" y2="103" href="#O"><stop stop-color="#ab750f"/><stop offset=".516" stop-color="#d8a956"/><stop offset="1" stop-color="#ab750f"/></linearGradient><path id="N" d="M79.33 102.87l-1.303 2.327h-1.303l-1.303-2.327v3.63h-1.675v-6.515h1.768l1.861 3.444 1.861-3.444h1.768v6.515H79.33v-3.63zm4.378-2.978c.85 0 1.874.062 3.071.186v1.257l-.875-.047-.586-.037-.447-.037-.689-.019c-.379 0-.568.155-.568.466v.837c.602-.124 1.129-.186 1.582-.186h.651c.422 0 .76.127 1.014.382s.382.592.382 1.014v1.21c0 .564-.143.986-.428 1.266-.285.273-.732.409-1.34.409h-1.768c-.608 0-1.055-.136-1.34-.409-.285-.28-.428-.702-.428-1.266v-3.257c0-.609.143-1.055.428-1.341s.732-.428 1.34-.428zm1.024 3.723a5.24 5.24 0 0 0-.651.037l-.465.056v1.024c0 .372.186.558.558.558h.838c.372 0 .558-.186.558-.558v-.791c0-.093-.031-.171-.093-.233s-.14-.093-.233-.093h-.512z"/><linearGradient id="O" gradientUnits="userSpaceOnUse"/></defs></svg>