<svg xmlns="http://www.w3.org/2000/svg" width="100" height="130" fill="none" xmlns:v="https://vecta.io/nano"><mask id="A" fill="#fff"><path d="M12 4H88V130H12V4Z"/></mask><path d="M12 4H88V130H12V4Z" fill="url(#B)" fill-opacity=".2"/><path d="M12 4v-.659h-.659V4H12zm76 0h.659v-.659H88V4zm-76 .659h76V3.341H12v1.317zM87.342 4v126h1.317V4h-1.317zM12.659 130V4h-1.317v126h1.317z" fill="url(#C)" mask="url(#A)"/><path fill="url(#D)" d="M12 4h76v3H12z"/><path d="M100 101l-23.951 29H80l20-25.049V101z" fill="url(#E)"/><path d="M99 109.178L82 130h2.822L99 112v-2.822z" fill="url(#F)"/><g fill-rule="evenodd"><path d="M91 107V10h.5v97l-18 23H73l18-23z" fill="url(#G)"/><path opacity=".5" d="M93.835 19.068l-8.952-8.952.233-.233 9.048 9.048V105h-.329V19.068z" fill="url(#H)"/></g><path opacity=".3" d="M100 4h-9v5h4v13h5V4z" fill="url(#I)"/><path d="M0 101l23.951 29H20L0 104.951V101z" fill="url(#J)"/><path d="M1 109.178L18 130h-2.822L1 112v-2.822z" fill="url(#K)"/><g fill-rule="evenodd"><path d="M9 107V10h-.5v97l18 23h.5L9 107z" fill="url(#L)"/><path opacity=".5" d="M6.165 19.068l8.952-8.952-.233-.233-9.048 9.048V105h.329V19.068z" fill="url(#M)"/></g><path opacity=".3" d="M0 4H9V9H5V22H0V4Z" fill="url(#N)"/><path d="M50 0l3 6-3 4-3-4 3-6z" fill="#ab750f"/><path d="M47 6l3-6v10l-3-4z" fill="#ffc502"/><path d="M49.962 1.279L53 6l-3-6-3 6 2.962-4.721z" fill="#fff" fill-opacity=".3"/><g clip-path="url(#S)"><path fill-rule="evenodd" d="M48.816 100h-3.92l-.896.896v3.808l1.344-1.344v-2.016h2.128L48.816 100zm1.568 11.2h3.92l.896-.896v-3.808l-1.344 1.344v2.016h-2.128l-1.344 1.344zm4.816-8.736V100h-2.352L44 108.736v2.464h2.352l8.848-8.736z" fill="url(#O)"/></g><path d="M45.828 116v-2.688h.411l1.175 1.962h-.215l1.156-1.962h.411L48.77 116h-.472l-.004-1.947h.1l-.983 1.64h-.223l-.998-1.64h.115V116h-.476zm3.667 0v-2.688h.499V116h-.499zm1.226 0v-2.688h1.175a1.66 1.66 0 0 1 .768.169c.22.113.392.269.515.468s.184.436.184.707-.062.504-.184.707-.294.355-.515.468a1.66 1.66 0 0 1-.768.169h-1.175zm.499-.422h.653c.202 0 .376-.039.522-.116a.81.81 0 0 0 .342-.322c.082-.138.123-.3.123-.484a.92.92 0 0 0-.123-.484.81.81 0 0 0-.342-.322c-.146-.077-.32-.116-.522-.116h-.653v1.844z" fill="url(#P)"/><g clip-path="url(#T)"><rect x="36.4" y="70.668" width="27.2" height="27.2" rx="13.6" transform="rotate(270 36.4 70.668)" fill="url(#Q)"/><g fill-rule="evenodd"><path d="M49.926 72.126c8.395 0 15.2-6.805 15.2-15.2s-6.805-15.2-15.2-15.2-15.2 6.805-15.2 15.2 6.805 15.2 15.2 15.2zm-16-15.2c0 8.837 7.163 16 16 16s16-7.163 16-16-7.163-16-16-16-16 7.163-16 16z" fill="url(#R)"/><path d="M50 49.8a2.16 2.16 0 0 1 2.16 2.16v2.88h2.88a2.16 2.16 0 0 1 0 4.32h-2.88v2.88a2.16 2.16 0 1 1-4.32 0v-2.88h-2.88a2.16 2.16 0 0 1 0-4.32h2.88v-2.88A2.16 2.16 0 0 1 50 49.8z" fill="#f5f1ee"/></g></g><defs><linearGradient id="B" x1="50" y1="4" x2="50" y2="130" href="#U"><stop stop-color="#ab750f"/><stop offset="1" stop-color="#997601" stop-opacity="0"/></linearGradient><linearGradient id="C" x1="50" y1="4" x2="50" y2="142.866" href="#U"><stop stop-color="#d1a14a"/><stop offset="1" stop-color="#d1a14a" stop-opacity="0"/></linearGradient><linearGradient id="D" x1="8.447" y1="5.5" x2="89.39" y2="5.5" href="#U"><stop stop-color="#ab750f"/><stop offset=".516" stop-color="#d8a956"/><stop offset="1" stop-color="#ab750f"/></linearGradient><linearGradient id="E" x1="74.929" y1="115.5" x2="100.438" y2="115.5" href="#U"><stop stop-color="#ab750f"/><stop offset=".516" stop-color="#d8a956"/><stop offset="1" stop-color="#ab750f"/></linearGradient><linearGradient id="F" x1="81.205" y1="119.589" x2="99.311" y2="119.589" href="#U"><stop stop-color="#ab750f"/><stop offset=".516" stop-color="#d8a956"/><stop offset="1" stop-color="#ab750f"/></linearGradient><linearGradient id="G" x1="72.135" y1="70.001" x2="91.838" y2="70.001" href="#U"><stop stop-color="#ab750f"/><stop offset=".516" stop-color="#d8a956"/><stop offset="1" stop-color="#ab750f"/></linearGradient><linearGradient id="H" x1="89.524" y1="9.884" x2="89.524" y2="105" href="#U"><stop stop-color="#ab750f"/><stop offset=".516" stop-color="#d8a956"/><stop offset="1" stop-color="#ab750f"/></linearGradient><linearGradient id="I" x1="95.5" y1="4" x2="95.5" y2="22" href="#U"><stop stop-color="#ab750f"/><stop offset=".516" stop-color="#d8a956"/><stop offset="1" stop-color="#ab750f"/></linearGradient><linearGradient id="J" x1="25.071" y1="115.5" x2="-.438" y2="115.5" href="#U"><stop stop-color="#ab750f"/><stop offset=".516" stop-color="#d8a956"/><stop offset="1" stop-color="#ab750f"/></linearGradient><linearGradient id="K" x1="18.795" y1="119.589" x2=".689" y2="119.589" href="#U"><stop stop-color="#ab750f"/><stop offset=".516" stop-color="#d8a956"/><stop offset="1" stop-color="#ab750f"/></linearGradient><linearGradient id="L" x1="27.865" y1="70.001" x2="8.162" y2="70.001" href="#U"><stop stop-color="#ab750f"/><stop offset=".516" stop-color="#d8a956"/><stop offset="1" stop-color="#ab750f"/></linearGradient><linearGradient id="M" x1="10.476" y1="9.884" x2="10.476" y2="105" href="#U"><stop stop-color="#ab750f"/><stop offset=".516" stop-color="#d8a956"/><stop offset="1" stop-color="#ab750f"/></linearGradient><linearGradient id="N" x1="4.5" y1="4" x2="4.5" y2="22" href="#U"><stop stop-color="#ab750f"/><stop offset=".516" stop-color="#d8a956"/><stop offset="1" stop-color="#ab750f"/></linearGradient><linearGradient id="O" x1="43.477" y1="105.6" x2="55.405" y2="105.6" href="#U"><stop stop-color="#ab750f"/><stop offset=".516" stop-color="#d8a956"/><stop offset="1" stop-color="#ab750f"/></linearGradient><linearGradient id="P" x1="44.58" y1="114.5" x2="54.165" y2="114.5" href="#U"><stop stop-color="#ab750f"/><stop offset=".516" stop-color="#d8a956"/><stop offset="1" stop-color="#ab750f"/></linearGradient><linearGradient id="Q" x1="69.564" y1="81.219" x2="35.491" y2="81.566" href="#U"><stop stop-color="#ab750f"/><stop offset=".238" stop-color="#d8a956"/><stop offset="1" stop-color="#ab750f"/></linearGradient><linearGradient id="R" x1="49.926" y1="74.422" x2="49.926" y2="40.341" href="#U"><stop stop-color="#ab750f"/><stop offset=".516" stop-color="#d8a956"/><stop offset="1" stop-color="#ab750f"/></linearGradient><clipPath id="S"><path fill="#fff" transform="translate(44 100)" d="M0 0h11.2v11.2H0z"/></clipPath><clipPath id="T"><path fill="#fff" transform="translate(34 41)" d="M0 0h32v32H0z"/></clipPath><linearGradient id="U" gradientUnits="userSpaceOnUse"/></defs></svg>