<svg width="100" height="130" viewBox="0 0 100 130" fill="none" xmlns="http://www.w3.org/2000/svg">
<g id="msc2024">
<g id="bounding-box">
<g id="MSC 2024 Sticker">
<path id="shape" fill-rule="evenodd" clip-rule="evenodd" d="M92.161 87.2431L92.0523 86L90.8092 86.1088L90.8636 86.7303L88.8785 89.096L86.6759 88.9756L84.9861 87.5577L85.258 90.6654L84.9762 91.0012L80.8824 86.9074V95.88L80 96.9316L79.1176 95.88V86.8823L75.0124 90.9876L74.742 90.6654L75.0139 87.5577L73.3241 88.9756L71.1215 89.096L69.1364 86.7303L69.1908 86.1088L67.9477 86L67.839 87.2431L68.4605 87.2975L70.4456 89.6632L69.9445 91.8114L68.2547 93.2293L71.3624 93.5012L71.8809 94.1191L65 101L71.2999 107.3L69.0938 109.929L67.2291 110.092L67.9477 114.727L72.6365 114.63L72.4734 112.765L74.4314 110.431L79.1176 115.118V104.847L80 103.795L80.8824 104.847V115.143L85.58 110.445L87.5266 112.765L87.3635 114.63L92.0523 114.727L92.7709 110.092L90.9062 109.929L88.7115 107.314L95 101.025L88.1077 94.1328L88.6376 93.5012L91.7453 93.2293L90.0555 91.8114L89.5544 89.6632L91.5395 87.2975L92.161 87.2431Z" fill="#212121"/>
<path id="stroke (Stroke)" fill-rule="evenodd" clip-rule="evenodd" d="M88.6376 93.5012L91.7453 93.2293L90.0555 91.8114L89.5544 89.6632L91.5395 87.2975L92.161 87.2431L92.0523 86L90.8092 86.1088L90.8636 86.7303L88.8785 89.096L86.6759 88.9756L84.9861 87.5577L85.258 90.6654L84.9843 90.9916L80.8824 86.8823V95.88L80 96.9316L79.1176 95.88V86.8823L75.0124 90.9876L74.742 90.6654L75.0139 87.5577L73.3241 88.9756L71.1215 89.096L69.1364 86.7303L69.1908 86.1088L67.9477 86L67.839 87.2431L68.4605 87.2975L70.4456 89.6632L69.9445 91.8114L68.2547 93.2293L71.3624 93.5012L71.8809 94.1191L65 101L71.2948 107.306L69.0938 109.929L67.2291 110.092L67.9477 114.727L72.6365 114.63L72.4734 112.765L74.4238 110.441L79.1176 115.143V104.847L80 103.795L80.8824 104.847V115.143L85.58 110.445L87.5266 112.765L87.3635 114.63L92.0523 114.727L92.7709 110.092L90.9062 109.929L88.7115 107.314L95 101.025L88.1132 94.1261L88.6376 93.5012ZM94.0645 101.025L87.2169 94.1648L88.3068 92.8659L90.0961 92.7093L89.4611 92.1766L88.8974 89.7598L86.4195 89.6243L85.7846 89.0915L85.9411 90.8808L85.0266 91.9707L81.5441 88.482V96.1209L80 97.9611L78.4559 96.1209V88.48L74.9697 91.9662L74.0589 90.8808L74.2154 89.0915L73.5805 89.6243L71.1026 89.7598L70.5389 92.1766L69.9039 92.7093L71.6932 92.8659L72.7776 94.1583L65.9355 101L72.1912 107.267L69.4245 110.565L67.9915 110.69L68.513 114.053L71.9156 113.983L71.7902 112.55L74.3815 109.461L78.4559 113.543V104.606L80 102.766L81.5441 104.606V113.545L85.6227 109.466L88.2098 112.55L88.0844 113.983L91.487 114.053L92.0085 110.69L90.5755 110.565L87.8148 107.274L94.0645 101.025Z" fill="url(#paint0_linear_287_58180)"/>
<rect id="Rectangle 256" x="76.0294" y="93.9412" width="7.94118" height="15" fill="#212121"/>
<g id="2024">
<g id="2024_2">
<mask id="path-4-outside-1_287_58180" maskUnits="userSpaceOnUse" x="67.1147" y="99" width="26" height="9" fill="black">
<rect fill="white" x="67.1147" y="99" width="26" height="9"/>
<path d="M73.55 102.341C73.55 102.891 73.3171 103.367 72.8512 103.768C72.7089 103.891 72.5536 104.014 72.3853 104.137L70.2986 105.641H73.55V107H68.3089V105.156L71.803 102.632V102.147C71.803 101.759 71.6089 101.565 71.2206 101.565H68.503V100.206H71.6089C72.2883 100.206 72.78 100.361 73.0842 100.672C73.3947 100.976 73.55 101.468 73.55 102.147V102.341ZM78.2073 102.05C78.2073 101.662 78.0132 101.468 77.625 101.468H76.5573C76.1691 101.468 75.975 101.662 75.975 102.05V105.156C75.975 105.544 76.1691 105.738 76.5573 105.738H77.625C78.0132 105.738 78.2073 105.544 78.2073 105.156V102.05ZM79.9544 105.156C79.9544 105.835 79.7991 106.33 79.4885 106.641C79.1844 106.945 78.6926 107.097 78.0132 107.097H76.1691C75.4897 107.097 74.9947 106.945 74.6841 106.641C74.38 106.33 74.2279 105.835 74.2279 105.156V102.05C74.2279 101.371 74.38 100.879 74.6841 100.575C74.9947 100.264 75.4897 100.109 76.1691 100.109H78.0132C78.6926 100.109 79.1844 100.264 79.4885 100.575C79.7991 100.879 79.9544 101.371 79.9544 102.05V105.156ZM85.7772 102.341C85.7772 102.891 85.5442 103.367 85.0784 103.768C84.936 103.891 84.7807 104.014 84.6125 104.137L82.5257 105.641H85.7772V107H80.536V105.156L84.0301 102.632V102.147C84.0301 101.759 83.836 101.565 83.4478 101.565H80.7301V100.206H83.836C84.5154 100.206 85.0072 100.361 85.3113 100.672C85.6219 100.976 85.7772 101.468 85.7772 102.147V102.341ZM89.4635 105.641H85.8723V104.282L88.2018 100.206H90.1429L87.8135 104.282H89.4635V102.826H91.2106V104.282H91.89V105.641H91.2106V107H89.4635V105.641Z"/>
</mask>
<path d="M73.55 102.341C73.55 102.891 73.3171 103.367 72.8512 103.768C72.7089 103.891 72.5536 104.014 72.3853 104.137L70.2986 105.641H73.55V107H68.3089V105.156L71.803 102.632V102.147C71.803 101.759 71.6089 101.565 71.2206 101.565H68.503V100.206H71.6089C72.2883 100.206 72.78 100.361 73.0842 100.672C73.3947 100.976 73.55 101.468 73.55 102.147V102.341ZM78.2073 102.05C78.2073 101.662 78.0132 101.468 77.625 101.468H76.5573C76.1691 101.468 75.975 101.662 75.975 102.05V105.156C75.975 105.544 76.1691 105.738 76.5573 105.738H77.625C78.0132 105.738 78.2073 105.544 78.2073 105.156V102.05ZM79.9544 105.156C79.9544 105.835 79.7991 106.33 79.4885 106.641C79.1844 106.945 78.6926 107.097 78.0132 107.097H76.1691C75.4897 107.097 74.9947 106.945 74.6841 106.641C74.38 106.33 74.2279 105.835 74.2279 105.156V102.05C74.2279 101.371 74.38 100.879 74.6841 100.575C74.9947 100.264 75.4897 100.109 76.1691 100.109H78.0132C78.6926 100.109 79.1844 100.264 79.4885 100.575C79.7991 100.879 79.9544 101.371 79.9544 102.05V105.156ZM85.7772 102.341C85.7772 102.891 85.5442 103.367 85.0784 103.768C84.936 103.891 84.7807 104.014 84.6125 104.137L82.5257 105.641H85.7772V107H80.536V105.156L84.0301 102.632V102.147C84.0301 101.759 83.836 101.565 83.4478 101.565H80.7301V100.206H83.836C84.5154 100.206 85.0072 100.361 85.3113 100.672C85.6219 100.976 85.7772 101.468 85.7772 102.147V102.341ZM89.4635 105.641H85.8723V104.282L88.2018 100.206H90.1429L87.8135 104.282H89.4635V102.826H91.2106V104.282H91.89V105.641H91.2106V107H89.4635V105.641Z" fill="#212121"/>
<path d="M72.8512 103.768L72.4194 103.266L72.4187 103.267L72.8512 103.768ZM72.3853 104.137L72.7723 104.674L72.7758 104.671L72.3853 104.137ZM70.2986 105.641L69.9116 105.104L68.249 106.303H70.2986V105.641ZM73.55 105.641H74.2118V104.979H73.55V105.641ZM73.55 107V107.662H74.2118V107H73.55ZM68.3089 107H67.6471V107.662H68.3089V107ZM68.3089 105.156L67.9214 104.619L67.6471 104.818V105.156H68.3089ZM71.803 102.632L72.1904 103.169L72.4647 102.971V102.632H71.803ZM68.503 101.565H67.8412V102.226H68.503V101.565ZM68.503 100.206V99.5441H67.8412V100.206H68.503ZM73.0842 100.672L72.6112 101.135L72.6212 101.145L73.0842 100.672ZM72.8883 102.341C72.8883 102.674 72.7586 102.974 72.4194 103.266L73.283 104.269C73.8756 103.759 74.2118 103.108 74.2118 102.341H72.8883ZM72.4187 103.267C72.2912 103.377 72.1502 103.489 71.9949 103.602L72.7758 104.671C72.957 104.539 73.1265 104.405 73.2838 104.269L72.4187 103.267ZM71.9983 103.6L69.9116 105.104L70.6856 106.178L72.7723 104.674L71.9983 103.6ZM70.2986 106.303H73.55V104.979H70.2986V106.303ZM72.8883 105.641V107H74.2118V105.641H72.8883ZM73.55 106.338H68.3089V107.662H73.55V106.338ZM68.9706 107V105.156H67.6471V107H68.9706ZM68.6963 105.692L72.1904 103.169L71.4155 102.096L67.9214 104.619L68.6963 105.692ZM72.4647 102.632V102.147H71.1412V102.632H72.4647ZM72.4647 102.147C72.4647 101.851 72.3903 101.507 72.1253 101.242C71.8604 100.977 71.5168 100.903 71.2206 100.903V102.226C71.2645 102.226 71.276 102.232 71.2661 102.229C71.2531 102.225 71.2218 102.211 71.1895 102.178C71.1571 102.146 71.1431 102.115 71.1388 102.102C71.1355 102.092 71.1412 102.103 71.1412 102.147H72.4647ZM71.2206 100.903H68.503V102.226H71.2206V100.903ZM69.1647 101.565V100.206H67.8412V101.565H69.1647ZM68.503 100.868H71.6089V99.5441H68.503V100.868ZM71.6089 100.868C72.208 100.868 72.4865 101.007 72.6113 101.135L73.557 100.209C73.0736 99.7151 72.3685 99.5441 71.6089 99.5441V100.868ZM72.6212 101.145C72.7486 101.269 72.8883 101.548 72.8883 102.147H74.2118C74.2118 101.387 74.0409 100.682 73.5471 100.199L72.6212 101.145ZM72.8883 102.147V102.341H74.2118V102.147H72.8883ZM79.4885 106.641L79.0206 106.173L79.4885 106.641ZM74.6841 106.641L74.2112 107.104L74.2211 107.114L74.6841 106.641ZM74.6841 100.575L74.2162 100.107V100.107L74.6841 100.575ZM79.4885 100.575L79.0156 101.038L79.0255 101.048L79.4885 100.575ZM78.8691 102.05C78.8691 101.754 78.7946 101.41 78.5297 101.145C78.2648 100.88 77.9211 100.806 77.625 100.806V102.129C77.6689 102.129 77.6803 102.135 77.6705 102.132C77.6575 102.128 77.6261 102.113 77.5938 102.081C77.5615 102.049 77.5475 102.018 77.5431 102.004C77.5399 101.995 77.5456 102.006 77.5456 102.05H78.8691ZM77.625 100.806H76.5573V102.129H77.625V100.806ZM76.5573 100.806C76.2612 100.806 75.9176 100.88 75.6526 101.145C75.3877 101.41 75.3132 101.754 75.3132 102.05H76.6368C76.6368 102.006 76.6425 101.995 76.6392 102.004C76.6348 102.018 76.6208 102.049 76.5885 102.081C76.5562 102.113 76.5249 102.128 76.5118 102.132C76.502 102.135 76.5135 102.129 76.5573 102.129V100.806ZM75.3132 102.05V105.156H76.6368V102.05H75.3132ZM75.3132 105.156C75.3132 105.452 75.3877 105.796 75.6526 106.061C75.9176 106.326 76.2612 106.4 76.5573 106.4V105.076C76.5135 105.076 76.502 105.071 76.5118 105.074C76.5249 105.078 76.5562 105.092 76.5885 105.125C76.6208 105.157 76.6348 105.188 76.6392 105.201C76.6425 105.211 76.6368 105.2 76.6368 105.156H75.3132ZM76.5573 106.4H77.625V105.076H76.5573V106.4ZM77.625 106.4C77.9211 106.4 78.2648 106.326 78.5297 106.061C78.7946 105.796 78.8691 105.452 78.8691 105.156H77.5456C77.5456 105.2 77.5399 105.211 77.5431 105.201C77.5475 105.188 77.5615 105.157 77.5938 105.125C77.6261 105.092 77.6575 105.078 77.6705 105.074C77.6803 105.071 77.6689 105.076 77.625 105.076V106.4ZM78.8691 105.156V102.05H77.5456V105.156H78.8691ZM79.2926 105.156C79.2926 105.753 79.1537 106.04 79.0206 106.173L79.9565 107.109C80.4446 106.621 80.6162 105.917 80.6162 105.156H79.2926ZM79.0206 106.173C78.8961 106.297 78.6156 106.435 78.0132 106.435V107.759C78.7697 107.759 79.4727 107.593 79.9565 107.109L79.0206 106.173ZM78.0132 106.435H76.1691V107.759H78.0132V106.435ZM76.1691 106.435C75.5684 106.435 75.2799 106.298 75.1471 106.168L74.2211 107.114C74.7095 107.592 75.411 107.759 76.1691 107.759V106.435ZM75.1569 106.178C75.0269 106.045 74.8897 105.757 74.8897 105.156H73.5662C73.5662 105.914 73.7331 106.615 74.2113 107.104L75.1569 106.178ZM74.8897 105.156V102.05H73.5662V105.156H74.8897ZM74.8897 102.05C74.8897 101.448 75.0276 101.167 75.1521 101.043L74.2162 100.107C73.7324 100.591 73.5662 101.294 73.5662 102.05H74.8897ZM75.152 101.043C75.2851 100.91 75.5715 100.771 76.1691 100.771V99.4471C75.4079 99.4471 74.7043 99.6187 74.2162 100.107L75.152 101.043ZM76.1691 100.771H78.0132V99.4471H76.1691V100.771ZM78.0132 100.771C78.6124 100.771 78.8909 100.91 79.0157 101.038L79.9614 100.112C79.4779 99.618 78.7729 99.4471 78.0132 99.4471V100.771ZM79.0255 101.048C79.153 101.172 79.2926 101.451 79.2926 102.05H80.6162C80.6162 101.29 80.4452 100.585 79.9515 100.102L79.0255 101.048ZM79.2926 102.05V105.156H80.6162V102.05H79.2926ZM85.0784 103.768L84.6465 103.266L84.6458 103.267L85.0784 103.768ZM84.6125 104.137L84.9995 104.674L85.0029 104.671L84.6125 104.137ZM82.5257 105.641L82.1387 105.104L80.4762 106.303H82.5257V105.641ZM85.7772 105.641H86.4389V104.979H85.7772V105.641ZM85.7772 107V107.662H86.4389V107H85.7772ZM80.536 107H79.8742V107.662H80.536V107ZM80.536 105.156L80.1485 104.619L79.8742 104.818V105.156H80.536ZM84.0301 102.632L84.4176 103.169L84.6919 102.971V102.632H84.0301ZM80.7301 101.565H80.0684V102.226H80.7301V101.565ZM80.7301 100.206V99.5441H80.0684V100.206H80.7301ZM85.3113 100.672L84.8384 101.135L84.8483 101.145L85.3113 100.672ZM85.1154 102.341C85.1154 102.674 84.9857 102.974 84.6465 103.266L85.5102 104.269C86.1028 103.759 86.4389 103.108 86.4389 102.341H85.1154ZM84.6458 103.267C84.5184 103.377 84.3773 103.489 84.222 103.602L85.0029 104.671C85.1841 104.539 85.3536 104.405 85.5109 104.269L84.6458 103.267ZM84.2255 103.6L82.1387 105.104L82.9127 106.178L84.9995 104.674L84.2255 103.6ZM82.5257 106.303H85.7772V104.979H82.5257V106.303ZM85.1154 105.641V107H86.4389V105.641H85.1154ZM85.7772 106.338H80.536V107.662H85.7772V106.338ZM81.1978 107V105.156H79.8742V107H81.1978ZM80.9235 105.692L84.4176 103.169L83.6427 102.096L80.1485 104.619L80.9235 105.692ZM84.6919 102.632V102.147H83.3684V102.632H84.6919ZM84.6919 102.147C84.6919 101.851 84.6174 101.507 84.3525 101.242C84.0875 100.977 83.7439 100.903 83.4478 100.903V102.226C83.4917 102.226 83.5031 102.232 83.4933 102.229C83.4802 102.225 83.4489 102.211 83.4166 102.178C83.3843 102.146 83.3703 102.115 83.3659 102.102C83.3626 102.092 83.3684 102.103 83.3684 102.147H84.6919ZM83.4478 100.903H80.7301V102.226H83.4478V100.903ZM81.3919 101.565V100.206H80.0684V101.565H81.3919ZM80.7301 100.868H83.836V99.5441H80.7301V100.868ZM83.836 100.868C84.4351 100.868 84.7136 101.007 84.8385 101.135L85.7841 100.209C85.3007 99.7151 84.5957 99.5441 83.836 99.5441V100.868ZM84.8483 101.145C84.9758 101.269 85.1154 101.548 85.1154 102.147H86.4389C86.4389 101.387 86.268 100.682 85.7743 100.199L84.8483 101.145ZM85.1154 102.147V102.341H86.4389V102.147H85.1154ZM89.4635 105.641H90.1253V104.979H89.4635V105.641ZM85.8723 105.641H85.2106V106.303H85.8723V105.641ZM85.8723 104.282L85.2978 103.954L85.2106 104.107V104.282H85.8723ZM88.2018 100.206V99.5441H87.8177L87.6272 99.8776L88.2018 100.206ZM90.1429 100.206L90.7175 100.534L91.2833 99.5441H90.1429V100.206ZM87.8135 104.282L87.2389 103.954L86.6732 104.944H87.8135V104.282ZM89.4635 104.282V104.944H90.1253V104.282H89.4635ZM89.4635 102.826V102.165H88.8018V102.826H89.4635ZM91.2106 102.826H91.8723V102.165H91.2106V102.826ZM91.2106 104.282H90.5488V104.944H91.2106V104.282ZM91.89 104.282H92.5518V103.621H91.89V104.282ZM91.89 105.641V106.303H92.5518V105.641H91.89ZM91.2106 105.641V104.979H90.5488V105.641H91.2106ZM91.2106 107V107.662H91.8723V107H91.2106ZM89.4635 107H88.8018V107.662H89.4635V107ZM89.4635 104.979H85.8723V106.303H89.4635V104.979ZM86.5341 105.641V104.282H85.2106V105.641H86.5341ZM86.4469 104.611L88.7763 100.534L87.6272 99.8776L85.2978 103.954L86.4469 104.611ZM88.2018 100.868H90.1429V99.5441H88.2018V100.868ZM89.5684 99.8776L87.2389 103.954L88.3881 104.611L90.7175 100.534L89.5684 99.8776ZM87.8135 104.944H89.4635V103.621H87.8135V104.944ZM90.1253 104.282V102.826H88.8018V104.282H90.1253ZM89.4635 103.488H91.2106V102.165H89.4635V103.488ZM90.5488 102.826V104.282H91.8723V102.826H90.5488ZM91.2106 104.944H91.89V103.621H91.2106V104.944ZM91.2282 104.282V105.641H92.5518V104.282H91.2282ZM91.89 104.979H91.2106V106.303H91.89V104.979ZM90.5488 105.641V107H91.8723V105.641H90.5488ZM91.2106 106.338H89.4635V107.662H91.2106V106.338ZM90.1253 107V105.641H88.8018V107H90.1253Z" fill="#212121" mask="url(#path-4-outside-1_287_58180)"/>
</g>
<g id="2024_3" filter="url(#filter0_f_287_58180)">
<path d="M73.55 102.341C73.55 102.891 73.3171 103.367 72.8512 103.768C72.7089 103.891 72.5536 104.014 72.3853 104.137L70.2986 105.641H73.55V107H68.3089V105.156L71.803 102.632V102.147C71.803 101.759 71.6089 101.565 71.2206 101.565H68.503V100.206H71.6089C72.2883 100.206 72.78 100.361 73.0842 100.672C73.3947 100.976 73.55 101.468 73.55 102.147V102.341ZM78.2073 102.05C78.2073 101.662 78.0132 101.468 77.625 101.468H76.5573C76.1691 101.468 75.975 101.662 75.975 102.05V105.156C75.975 105.544 76.1691 105.738 76.5573 105.738H77.625C78.0132 105.738 78.2073 105.544 78.2073 105.156V102.05ZM79.9544 105.156C79.9544 105.835 79.7991 106.33 79.4885 106.641C79.1844 106.945 78.6926 107.097 78.0132 107.097H76.1691C75.4897 107.097 74.9947 106.945 74.6841 106.641C74.38 106.33 74.2279 105.835 74.2279 105.156V102.05C74.2279 101.371 74.38 100.879 74.6841 100.575C74.9947 100.264 75.4897 100.109 76.1691 100.109H78.0132C78.6926 100.109 79.1844 100.264 79.4885 100.575C79.7991 100.879 79.9544 101.371 79.9544 102.05V105.156ZM85.7772 102.341C85.7772 102.891 85.5442 103.367 85.0784 103.768C84.936 103.891 84.7807 104.014 84.6125 104.137L82.5257 105.641H85.7772V107H80.536V105.156L84.0301 102.632V102.147C84.0301 101.759 83.836 101.565 83.4478 101.565H80.7301V100.206H83.836C84.5154 100.206 85.0072 100.361 85.3113 100.672C85.6219 100.976 85.7772 101.468 85.7772 102.147V102.341ZM89.4635 105.641H85.8723V104.282L88.2018 100.206H90.1429L87.8135 104.282H89.4635V102.826H91.2106V104.282H91.89V105.641H91.2106V107H89.4635V105.641Z" fill="url(#paint1_linear_287_58180)"/>
</g>
<path id="2024_4" d="M73.55 102.341C73.55 102.891 73.3171 103.367 72.8512 103.768C72.7089 103.891 72.5536 104.014 72.3853 104.137L70.2986 105.641H73.55V107H68.3089V105.156L71.803 102.632V102.147C71.803 101.759 71.6089 101.565 71.2206 101.565H68.503V100.206H71.6089C72.2883 100.206 72.78 100.361 73.0842 100.672C73.3947 100.976 73.55 101.468 73.55 102.147V102.341ZM78.2073 102.05C78.2073 101.662 78.0132 101.468 77.625 101.468H76.5573C76.1691 101.468 75.975 101.662 75.975 102.05V105.156C75.975 105.544 76.1691 105.738 76.5573 105.738H77.625C78.0132 105.738 78.2073 105.544 78.2073 105.156V102.05ZM79.9544 105.156C79.9544 105.835 79.7991 106.33 79.4885 106.641C79.1844 106.945 78.6926 107.097 78.0132 107.097H76.1691C75.4897 107.097 74.9947 106.945 74.6841 106.641C74.38 106.33 74.2279 105.835 74.2279 105.156V102.05C74.2279 101.371 74.38 100.879 74.6841 100.575C74.9947 100.264 75.4897 100.109 76.1691 100.109H78.0132C78.6926 100.109 79.1844 100.264 79.4885 100.575C79.7991 100.879 79.9544 101.371 79.9544 102.05V105.156ZM85.7772 102.341C85.7772 102.891 85.5442 103.367 85.0784 103.768C84.936 103.891 84.7807 104.014 84.6125 104.137L82.5257 105.641H85.7772V107H80.536V105.156L84.0301 102.632V102.147C84.0301 101.759 83.836 101.565 83.4478 101.565H80.7301V100.206H83.836C84.5154 100.206 85.0072 100.361 85.3113 100.672C85.6219 100.976 85.7772 101.468 85.7772 102.147V102.341ZM89.4635 105.641H85.8723V104.282L88.2018 100.206H90.1429L87.8135 104.282H89.4635V102.826H91.2106V104.282H91.89V105.641H91.2106V107H89.4635V105.641Z" fill="white"/>
</g>
<g id="MSC">
<path id="MSC_2" d="M77.6752 96.9887L76.8582 98.4477H76.0411L75.2241 96.9887V99.2647H74.1736V95.1796H75.2825L76.4496 97.3389L77.6168 95.1796H78.7257V99.2647H77.6752V96.9887ZM79.3057 98.4185C80.3717 98.4769 81.0934 98.506 81.4708 98.506C81.5603 98.506 81.6303 98.4808 81.6809 98.4302C81.7354 98.3757 81.7626 98.3037 81.7626 98.2142V97.689H80.4203C80.0118 97.689 79.7142 97.5976 79.5275 97.4147C79.3446 97.228 79.2532 96.9303 79.2532 96.5218V96.3468C79.2532 95.9382 79.3446 95.6426 79.5275 95.4597C79.7142 95.2729 80.0118 95.1796 80.4203 95.1796H82.4688V95.9966H80.6538C80.4203 95.9966 80.3036 96.1133 80.3036 96.3468V96.4635C80.3036 96.6969 80.4203 96.8136 80.6538 96.8136H81.7042C82.0855 96.8136 82.3657 96.9031 82.5446 97.0821C82.7236 97.261 82.8131 97.5412 82.8131 97.9224V98.2142C82.8131 98.5955 82.7236 98.8756 82.5446 99.0546C82.3657 99.2336 82.0855 99.3231 81.7042 99.3231C81.5058 99.3231 81.2957 99.3192 81.074 99.3114L80.5371 99.2881C80.1402 99.2686 79.7298 99.2414 79.3057 99.2064V98.4185ZM86.4892 99.2064C85.6216 99.2842 84.9019 99.3231 84.33 99.3231C83.9487 99.3231 83.6686 99.2336 83.4896 99.0546C83.3106 98.8756 83.2211 98.5955 83.2211 98.2142V96.3468C83.2211 95.9382 83.3126 95.6426 83.4954 95.4597C83.6822 95.2729 83.9798 95.1796 84.3883 95.1796H86.4892V95.9966H84.6218C84.3883 95.9966 84.2716 96.1133 84.2716 96.3468V98.2142C84.2716 98.3037 84.2969 98.3757 84.3475 98.4302C84.4019 98.4808 84.47 98.506 84.5517 98.506C84.6334 98.506 84.7229 98.506 84.8202 98.506C84.9174 98.5022 85.0186 98.4983 85.1236 98.4944C85.2287 98.4905 85.3337 98.4866 85.4388 98.4827C85.5477 98.4788 85.6858 98.471 85.8531 98.4594C86.0243 98.4477 86.2364 98.4341 86.4892 98.4185V99.2064Z" fill="white"/>
</g>
<path id="Union" fill-rule="evenodd" clip-rule="evenodd" d="M67.647 100.118L66.7646 101L67.647 101.882V101V100.118Z" fill="url(#paint2_linear_287_58180)"/>
<path id="Union_2" fill-rule="evenodd" clip-rule="evenodd" d="M92.353 100.118L93.2354 101L92.353 101.882V101V100.118Z" fill="url(#paint3_linear_287_58180)"/>
<path id="Union_3" fill-rule="evenodd" clip-rule="evenodd" d="M72.5 97.4706L71.1765 97.0294L71.6177 97.4706L71.1765 97.9118L72.5 97.4706Z" fill="url(#paint4_linear_287_58180)"/>
<path id="Union_4" fill-rule="evenodd" clip-rule="evenodd" d="M87.9411 97.4706L89.2646 97.0294L88.8235 97.4706L89.2646 97.9118L87.9411 97.4706Z" fill="url(#paint5_linear_287_58180)"/>
<path id="Vector 279" d="M78.2353 112.912L78.0147 110.265V112.25L76.4706 110.926L78.2353 112.912Z" fill="url(#paint6_linear_287_58180)"/>
<path id="Vector 281" d="M78.2353 89.0882L78.0147 91.7353V89.75L76.4706 91.0735L78.2353 89.0882Z" fill="url(#paint7_linear_287_58180)"/>
<path id="Vector 280" d="M81.7647 112.912L81.9853 110.265V112.25L83.5294 110.926L81.7647 112.912Z" fill="url(#paint8_linear_287_58180)"/>
<path id="Vector 282" d="M81.7647 89.0882L81.9853 91.7353V89.75L83.5294 91.0735L81.7647 89.0882Z" fill="url(#paint9_linear_287_58180)"/>
<g id="Group 185">
<path id="Vector 277" d="M71.3952 91.4668L71.5039 90.2237L73.2054 92.2514L71.3952 91.4668Z" fill="url(#paint10_linear_287_58180)"/>
<path id="Vector 278" d="M72.747 90.3324L71.5039 90.2237L73.2054 92.2514L72.747 90.3324Z" fill="url(#paint11_linear_287_58180)"/>
</g>
<g id="Group 185_2">
<path id="Vector 277_2" d="M88.6048 91.4668L88.4961 90.2237L86.7946 92.2514L88.6048 91.4668Z" fill="url(#paint12_linear_287_58180)"/>
<path id="Vector 278_2" d="M87.253 90.3324L88.4961 90.2237L86.7946 92.2514L87.253 90.3324Z" fill="url(#paint13_linear_287_58180)"/>
</g>
</g>
</g>
</g>
<defs>
<filter id="filter0_f_287_58180" x="66.5441" y="98.3441" width="27.1106" height="10.5176" filterUnits="userSpaceOnUse" color-interpolation-filters="sRGB">
<feFlood flood-opacity="0" result="BackgroundImageFix"/>
<feBlend mode="normal" in="SourceGraphic" in2="BackgroundImageFix" result="shape"/>
<feGaussianBlur stdDeviation="0.882353" result="effect1_foregroundBlur_287_58180"/>
</filter>
<linearGradient id="paint0_linear_287_58180" x1="63.5976" y1="100.571" x2="95.5488" y2="100.571" gradientUnits="userSpaceOnUse">
<stop stop-color="#AB750F"/>
<stop offset="0.516" stop-color="#D8A956"/>
<stop offset="1" stop-color="#AB750F"/>
</linearGradient>
<linearGradient id="paint1_linear_287_58180" x1="80.1147" y1="100" x2="80.1147" y2="107" gradientUnits="userSpaceOnUse">
<stop stop-color="#AB750F"/>
<stop offset="0.516" stop-color="#D8A956"/>
<stop offset="1" stop-color="#AB750F"/>
</linearGradient>
<linearGradient id="paint2_linear_287_58180" x1="67.2058" y1="100.118" x2="67.2058" y2="101.882" gradientUnits="userSpaceOnUse">
<stop stop-color="#AB750F"/>
<stop offset="0.516" stop-color="#D8A956"/>
<stop offset="1" stop-color="#AB750F"/>
</linearGradient>
<linearGradient id="paint3_linear_287_58180" x1="92.7942" y1="100.118" x2="92.7942" y2="101.882" gradientUnits="userSpaceOnUse">
<stop stop-color="#AB750F"/>
<stop offset="0.516" stop-color="#D8A956"/>
<stop offset="1" stop-color="#AB750F"/>
</linearGradient>
<linearGradient id="paint4_linear_287_58180" x1="71.8383" y1="97.0294" x2="71.8383" y2="97.9118" gradientUnits="userSpaceOnUse">
<stop stop-color="#AB750F"/>
<stop offset="0.516" stop-color="#D8A956"/>
<stop offset="1" stop-color="#AB750F"/>
</linearGradient>
<linearGradient id="paint5_linear_287_58180" x1="88.6029" y1="97.0294" x2="88.6029" y2="97.9118" gradientUnits="userSpaceOnUse">
<stop stop-color="#AB750F"/>
<stop offset="0.516" stop-color="#D8A956"/>
<stop offset="1" stop-color="#AB750F"/>
</linearGradient>
<linearGradient id="paint6_linear_287_58180" x1="77.3529" y1="110.265" x2="77.3529" y2="112.912" gradientUnits="userSpaceOnUse">
<stop stop-color="#AB750F"/>
<stop offset="0.516" stop-color="#D8A956"/>
<stop offset="1" stop-color="#AB750F"/>
</linearGradient>
<linearGradient id="paint7_linear_287_58180" x1="77.3529" y1="91.7353" x2="77.3529" y2="89.0882" gradientUnits="userSpaceOnUse">
<stop stop-color="#AB750F"/>
<stop offset="0.516" stop-color="#D8A956"/>
<stop offset="1" stop-color="#AB750F"/>
</linearGradient>
<linearGradient id="paint8_linear_287_58180" x1="82.6471" y1="110.265" x2="82.6471" y2="112.912" gradientUnits="userSpaceOnUse">
<stop stop-color="#AB750F"/>
<stop offset="0.516" stop-color="#D8A956"/>
<stop offset="1" stop-color="#AB750F"/>
</linearGradient>
<linearGradient id="paint9_linear_287_58180" x1="82.6471" y1="91.7353" x2="82.6471" y2="89.0882" gradientUnits="userSpaceOnUse">
<stop stop-color="#AB750F"/>
<stop offset="0.516" stop-color="#D8A956"/>
<stop offset="1" stop-color="#AB750F"/>
</linearGradient>
<linearGradient id="paint10_linear_287_58180" x1="71.166" y1="90.5073" x2="72.8675" y2="92.535" gradientUnits="userSpaceOnUse">
<stop stop-color="#AB750F"/>
<stop offset="0.516" stop-color="#D8A956"/>
<stop offset="1" stop-color="#AB750F"/>
</linearGradient>
<linearGradient id="paint11_linear_287_58180" x1="71.8418" y1="89.9401" x2="73.5433" y2="91.9679" gradientUnits="userSpaceOnUse">
<stop stop-color="#AB750F"/>
<stop offset="0.516" stop-color="#D8A956"/>
<stop offset="1" stop-color="#AB750F"/>
</linearGradient>
<linearGradient id="paint12_linear_287_58180" x1="88.834" y1="90.5073" x2="87.1325" y2="92.535" gradientUnits="userSpaceOnUse">
<stop stop-color="#AB750F"/>
<stop offset="0.516" stop-color="#D8A956"/>
<stop offset="1" stop-color="#AB750F"/>
</linearGradient>
<linearGradient id="paint13_linear_287_58180" x1="88.1582" y1="89.9401" x2="86.4567" y2="91.9679" gradientUnits="userSpaceOnUse">
<stop stop-color="#AB750F"/>
<stop offset="0.516" stop-color="#D8A956"/>
<stop offset="1" stop-color="#AB750F"/>
</linearGradient>
</defs>
</svg>
