<svg xmlns="http://www.w3.org/2000/svg" width="100" height="130" fill="none" xmlns:v="https://vecta.io/nano"><g fill-rule="evenodd"><path d="M92.161 87.243L92.052 86l-1.243.109.054.621-1.985 2.366-2.203-.12-1.69-1.418.272 3.108-.282.336-4.094-4.094v8.973L80 96.932l-.882-1.052v-8.998l-4.105 4.105-.27-.322.272-3.108-1.69 1.418-2.203.12-1.985-2.366.054-.621L67.948 86l-.109 1.243.621.054 1.985 2.366-.501 2.148-1.69 1.418 3.108.272.519.618L65 101l6.3 6.3-2.206 2.629-1.865.163.719 4.635 4.689-.097-.163-1.865 1.958-2.334 4.686 4.687v-10.271l.882-1.052.882 1.052v10.296l4.698-4.698 1.947 2.32-.163 1.865 4.689.097.719-4.635-1.865-.163-2.195-2.615L95 101.025l-6.892-6.892.53-.632 3.108-.272-1.69-1.418-.501-2.148 1.985-2.366.621-.054z" fill="#212121"/><path d="M88.638 93.501l3.108-.272-1.69-1.418-.501-2.148 1.985-2.366.621-.054L92.052 86l-1.243.109.054.621-1.985 2.366-2.203-.12-1.69-1.418.272 3.108-.274.326-4.102-4.109v8.998L80 96.932l-.882-1.052v-8.998l-4.105 4.105-.27-.322.272-3.108-1.69 1.418-2.203.12-1.985-2.366.054-.621L67.948 86l-.109 1.243.621.054 1.985 2.366-.501 2.148-1.69 1.418 3.108.272.519.618L65 101l6.295 6.306-2.201 2.623-1.865.163.719 4.635 4.689-.097-.163-1.865 1.95-2.324 4.694 4.702v-10.296l.882-1.052.882 1.052v10.296l4.698-4.698 1.947 2.32-.163 1.865 4.689.097.719-4.635-1.865-.163-2.195-2.615L95 101.025l-6.887-6.899.524-.625zm5.427 7.524l-6.848-6.86 1.09-1.299 1.789-.157-.635-.533-.564-2.417-2.478-.135-.635-.533.157 1.789-.915 1.09-3.483-3.489v7.639L80 97.961l-1.544-1.84V88.48l-3.486 3.486-.911-1.085.157-1.789-.635.533-2.478.135-.564 2.417-.635.533 1.789.157 1.084 1.292L65.936 101l6.256 6.267-2.767 3.298-1.433.125.522 3.363 3.403-.07-.125-1.433 2.591-3.089 4.074 4.082v-8.937l1.544-1.84 1.544 1.84v8.939l4.079-4.079 2.587 3.084-.125 1.433 3.403.07.522-3.363-1.433-.125-2.761-3.291 6.25-6.249z" fill="url(#C)"/></g><path fill="#212121" d="M76.029 93.941h7.941v15h-7.941z"/><mask id="A" maskUnits="userSpaceOnUse" x="67.115" y="99" width="26" height="9" fill="#000"><path fill="#fff" d="M67.115 99h26v9h-26z"/><path d="M73.55 102.341c0 .55-.233 1.026-.699 1.427l-.466.369-2.087 1.504h3.251V107h-5.241v-1.844l3.494-2.524v-.485c0-.388-.194-.582-.582-.582h-2.718v-1.359h3.106c.679 0 1.171.155 1.475.466.311.304.466.796.466 1.475v.194zm4.657-.291c0-.388-.194-.582-.582-.582h-1.068c-.388 0-.582.194-.582.582v3.106c0 .388.194.582.582.582h1.068c.388 0 .582-.194.582-.582v-3.106zm1.747 3.106c0 .679-.155 1.174-.466 1.485-.304.304-.796.456-1.475.456h-1.844c-.679 0-1.174-.152-1.485-.456-.304-.311-.456-.806-.456-1.485v-3.106c0-.679.152-1.171.456-1.475.311-.311.806-.466 1.485-.466h1.844c.679 0 1.171.155 1.475.466.311.304.466.796.466 1.475v3.106zm5.823-2.815c0 .55-.233 1.026-.699 1.427l-.466.369-2.087 1.504h3.251V107h-5.241v-1.844l3.494-2.524v-.485c0-.388-.194-.582-.582-.582H80.73v-1.359h3.106c.679 0 1.171.155 1.475.466.311.304.466.796.466 1.475v.194zm3.686 3.3h-3.591v-1.359l2.33-4.076h1.941l-2.329 4.076h1.65v-1.456h1.747v1.456h.679v1.359h-.679V107h-1.747v-1.359z"/></mask><use href="#Q" fill="#212121"/><path d="M72.851 103.768l-.432-.502v.001l.433.501zm-.466.369l.387.537.004-.003-.391-.534zm-2.087 1.504l-.387-.537-1.663 1.199h2.05v-.662zm3.251 0h.662v-.662h-.662v.662zm0 1.359v.662h.662V107h-.662zm-5.241 0h-.662v.662h.662V107zm0-1.844l-.387-.537-.274.199v.338h.662zm3.494-2.524l.387.537.274-.198v-.339h-.662zm-3.3-1.067h-.662v.661h.662v-.661zm0-1.359v-.662h-.662v.662h.662zm4.581.466l-.473.463.01.01.463-.473zm-.196 1.669c0 .333-.13.633-.469.925l.864 1.003c.593-.51.929-1.161.929-1.928h-1.323zm-.47.926l-.424.335.781 1.069.508-.402-.865-1.002zm-.42.333l-2.087 1.504.774 1.074 2.087-1.504-.774-1.074zm-1.7 2.703h3.251v-1.324h-3.251v1.324zm2.59-.662V107h1.323v-1.359h-1.323zm.662.697h-5.241v1.324h5.241v-1.324zm-4.579.662v-1.844h-1.324V107h1.324zm-.274-1.308l3.494-2.523-.775-1.073-3.494 2.523.775 1.073zm3.768-3.06v-.485h-1.323v.485h1.323zm0-.485c0-.296-.074-.64-.339-.905s-.608-.339-.905-.339v1.323c.044 0 .055.006.045.003s-.044-.018-.077-.051-.046-.063-.051-.076.002.001.002.045h1.323zm-1.244-1.244h-2.718v1.323h2.718v-1.323zm-2.056.662v-1.359h-1.323v1.359h1.323zm-.662-.697h3.106v-1.324h-3.106v1.324zm3.106 0c.599 0 .878.139 1.002.267l.946-.926c-.483-.494-1.189-.665-1.948-.665v1.324zm1.012.277c.127.124.267.403.267 1.002h1.323c0-.76-.171-1.465-.665-1.948l-.926.946zm.267 1.002v.194h1.323v-.194h-1.323zm6.6 4.494l-.468-.468.468.468zm-4.804 0l-.473.463.01.01.463-.473zm0-6.066l-.468-.468h0l.468.468zm4.804 0l-.473.463.01.01.463-.473zm-.619 1.475c0-.296-.075-.64-.339-.905s-.609-.339-.905-.339v1.323c.044 0 .055.006.046.003s-.044-.019-.077-.051-.046-.063-.051-.077.002.002.002.046h1.324zm-1.244-1.244h-1.068v1.323h1.068v-1.323zm-1.068 0c-.296 0-.64.074-.905.339s-.339.609-.339.905h1.324c0-.044.006-.055.002-.046s-.018.045-.051.077-.064.047-.077.051.002-.003.046-.003v-1.323zm-1.244 1.244v3.106h1.324v-3.106h-1.324zm0 3.106c0 .296.075.64.339.905s.609.339.905.339v-1.324c-.044 0-.055-.005-.046-.002s.044.018.077.051.046.063.051.076-.002-.001-.002-.045h-1.324zm1.244 1.244h1.068v-1.324h-1.068v1.324zm1.068 0c.296 0 .64-.074.905-.339s.339-.609.339-.905h-1.324c0 .044-.006.055-.002.045s.018-.044.051-.076.064-.047.077-.051-.002.002-.046.002v1.324zm1.244-1.244v-3.106h-1.324v3.106h1.324zm.423 0c0 .597-.139.884-.272 1.017l.936.936c.488-.488.66-1.192.66-1.953h-1.324zm-.272 1.017c-.124.124-.405.262-1.007.262v1.324c.757 0 1.46-.166 1.943-.65l-.936-.936zm-1.007.262h-1.844v1.324h1.844v-1.324zm-1.844 0c-.601 0-.889-.137-1.022-.267l-.926.946c.488.478 1.19.645 1.948.645v-1.324zm-1.012-.257c-.13-.133-.267-.421-.267-1.022h-1.324c0 .758.167 1.459.645 1.948l.946-.926zm-.267-1.022v-3.106h-1.324v3.106h1.324zm0-3.106c0-.602.138-.883.262-1.007l-.936-.936c-.484.484-.65 1.187-.65 1.943h1.324zm.262-1.007c.133-.133.419-.272 1.017-.272v-1.324c-.761 0-1.465.172-1.953.66l.936.936zm1.017-.272h1.844v-1.324h-1.844v1.324zm1.844 0c.599 0 .878.139 1.002.267l.946-.926c-.483-.494-1.188-.665-1.948-.665v1.324zm1.012.277c.128.124.267.403.267 1.002h1.324c0-.76-.171-1.465-.665-1.948l-.926.946zm.267 1.002v3.106h1.324v-3.106h-1.324zm5.786 1.718l-.432-.502-.001.001.433.501zm-.466.369l.387.537.003-.003-.39-.534zm-2.087 1.504l-.387-.537-1.662 1.199h2.049v-.662zm3.251 0h.662v-.662h-.662v.662zm0 1.359v.662h.662V107h-.662zm-5.241 0h-.662v.662h.662V107zm0-1.844l-.388-.537-.274.199v.338h.662zm3.494-2.524l.387.537.274-.198v-.339h-.662zm-3.3-1.067h-.662v.661h.662v-.661zm0-1.359v-.662h-.662v.662h.662zm4.581.466l-.473.463.01.01.463-.473zm-.196 1.669c0 .333-.13.633-.469.925l.864 1.003c.593-.51.929-1.161.929-1.928h-1.324zm-.47.926l-.424.335.781 1.069.508-.402-.865-1.002zm-.42.333l-2.087 1.504.774 1.074L85 104.674l-.774-1.074zm-1.7 2.703h3.251v-1.324h-3.251v1.324zm2.59-.662V107h1.324v-1.359h-1.324zm.662.697h-5.241v1.324h5.241v-1.324zm-4.579.662v-1.844h-1.324V107h1.324zm-.274-1.308l3.494-2.523-.775-1.073-3.494 2.523.775 1.073zm3.768-3.06v-.485h-1.324v.485h1.324zm0-.485c0-.296-.075-.64-.339-.905s-.609-.339-.905-.339v1.323c.044 0 .055.006.046.003s-.044-.018-.077-.051-.046-.063-.051-.076.002.001.002.045h1.324zm-1.244-1.244H80.73v1.323h2.718v-1.323zm-2.056.662v-1.359h-1.324v1.359h1.324zm-.662-.697h3.106v-1.324H80.73v1.324zm3.106 0c.599 0 .878.139 1.002.267l.946-.926c-.483-.494-1.188-.665-1.948-.665v1.324zm1.012.277c.128.124.267.403.267 1.002h1.324c0-.76-.171-1.465-.665-1.948l-.926.946zm.267 1.002v.194h1.324v-.194h-1.324zm4.348 3.494h.662v-.662h-.662v.662zm-3.591 0h-.662v.662h.662v-.662zm0-1.359l-.575-.328-.087.153v.175h.662zm2.33-4.076v-.662h-.384l-.191.334.575.328zm1.941 0l.575.328.566-.99h-1.14v.662zm-2.329 4.076l-.575-.328-.566.99h1.14v-.662zm1.65 0v.662h.662v-.662h-.662zm0-1.456v-.661h-.662v.661h.662zm1.747 0h.662v-.661h-.662v.661zm0 1.456h-.662v.662h.662v-.662zm.679 0h.662v-.661h-.662v.661zm0 1.359v.662h.662v-.662h-.662zm-.679 0v-.662h-.662v.662h.662zm0 1.359v.662h.662V107h-.662zm-1.747 0h-.662v.662h.662V107zm0-2.021h-3.591v1.324h3.591v-1.324zm-2.929.662v-1.359h-1.323v1.359h1.323zm-.087-1.03l2.329-4.077-1.149-.656-2.329 4.076 1.149.657zm1.755-3.743h1.941v-1.324h-1.941v1.324zm1.367-.99l-2.329 4.076 1.149.657 2.329-4.077-1.149-.656zm-1.755 5.066h1.65v-1.323h-1.65v1.323zm2.312-.662v-1.456h-1.323v1.456h1.323zm-.662-.794h1.747v-1.323h-1.747v1.323zm1.085-.662v1.456h1.323v-1.456h-1.323zm.662 2.118h.679v-1.323h-.679v1.323zm.018-.662v1.359h1.324v-1.359h-1.324zm.662.697h-.679v1.324h.679v-1.324zm-1.341.662V107h1.323v-1.359h-1.323zm.662.697h-1.747v1.324h1.747v-1.324zm-1.085.662v-1.359h-1.323V107h1.323z" fill="#212121" mask="url(#A)"/><g filter="url(#B)"><use href="#Q" fill="url(#D)"/></g><g fill="#fff"><use href="#Q"/><path d="M77.675 96.989l-.817 1.459h-.817l-.817-1.459v2.276h-1.051V95.18h1.109l1.167 2.159 1.167-2.159h1.109v4.085h-1.05v-2.276zm1.63 1.43l2.165.088c.09 0 .16-.025.21-.076s.082-.126.082-.216v-.525H80.42c-.409 0-.706-.091-.893-.274s-.274-.484-.274-.893v-.175c0-.409.091-.704.274-.887s.484-.28.893-.28h2.049v.817h-1.815c-.234 0-.35.117-.35.35v.117c0 .233.117.35.35.35h1.05c.381 0 .662.09.84.269s.269.459.269.84v.292c0 .381-.09.661-.269.84s-.459.269-.84.269c-.198 0-.409-.004-.63-.012l-.537-.023-1.231-.082v-.788zm7.183.788l-2.159.117c-.381 0-.661-.09-.84-.269s-.268-.459-.268-.84v-1.867c0-.409.091-.704.274-.887s.484-.28.893-.28h2.101v.817h-1.867c-.233 0-.35.117-.35.35v1.867c0 .09.025.161.076.216s.123.076.204.076h.269l.303-.012.315-.012.414-.023.636-.041v.788z"/></g><g fill-rule="evenodd"><path d="M67.647 100.118l-.882.882.882.882V101v-.882z" fill="url(#E)"/><path d="M92.353 100.118l.882.882-.882.882V101v-.882z" fill="url(#F)"/><path d="M72.5 97.471l-1.323-.441.441.441-.441.441 1.323-.441z" fill="url(#G)"/><path d="M87.941 97.471l1.323-.441-.441.441.441.441-1.323-.441z" fill="url(#H)"/></g><path d="M78.235 112.912l-.221-2.647v1.985l-1.544-1.324 1.765 1.986z" fill="url(#I)"/><path d="M78.235 89.088l-.221 2.647V89.75l-1.544 1.323 1.765-1.985z" fill="url(#J)"/><path d="M81.765 112.912l.221-2.647v1.985l1.544-1.324-1.765 1.986z" fill="url(#K)"/><path d="M81.765 89.088l.221 2.647V89.75l1.544 1.323-1.765-1.985z" fill="url(#L)"/><path d="M71.395 91.467l.109-1.243 1.701 2.028-1.81-.785z" fill="url(#M)"/><path d="M72.747 90.332l-1.243-.109 1.701 2.028-.458-1.919z" fill="url(#N)"/><path d="M88.605 91.467l-.109-1.243-1.701 2.028 1.81-.785z" fill="url(#O)"/><path d="M87.253 90.332l1.243-.109-1.701 2.028.458-1.919z" fill="url(#P)"/><defs><filter id="B" x="66.544" y="98.344" width="27.111" height="10.518" filterUnits="userSpaceOnUse" color-interpolation-filters="sRGB"><feFlood flood-opacity="0"/><feBlend in="SourceGraphic"/><feGaussianBlur stdDeviation=".882"/></filter><linearGradient id="C" x1="63.598" y1="100.571" x2="95.549" y2="100.571" href="#R"><stop stop-color="#ab750f"/><stop offset=".516" stop-color="#d8a956"/><stop offset="1" stop-color="#ab750f"/></linearGradient><linearGradient id="D" x1="80.115" y1="100" x2="80.115" y2="107" href="#R"><stop stop-color="#ab750f"/><stop offset=".516" stop-color="#d8a956"/><stop offset="1" stop-color="#ab750f"/></linearGradient><linearGradient id="E" x1="67.206" y1="100.118" x2="67.206" y2="101.882" href="#R"><stop stop-color="#ab750f"/><stop offset=".516" stop-color="#d8a956"/><stop offset="1" stop-color="#ab750f"/></linearGradient><linearGradient id="F" x1="92.794" y1="100.118" x2="92.794" y2="101.882" href="#R"><stop stop-color="#ab750f"/><stop offset=".516" stop-color="#d8a956"/><stop offset="1" stop-color="#ab750f"/></linearGradient><linearGradient id="G" x1="71.838" y1="97.029" x2="71.838" y2="97.912" href="#R"><stop stop-color="#ab750f"/><stop offset=".516" stop-color="#d8a956"/><stop offset="1" stop-color="#ab750f"/></linearGradient><linearGradient id="H" x1="88.603" y1="97.029" x2="88.603" y2="97.912" href="#R"><stop stop-color="#ab750f"/><stop offset=".516" stop-color="#d8a956"/><stop offset="1" stop-color="#ab750f"/></linearGradient><linearGradient id="I" x1="77.353" y1="110.265" x2="77.353" y2="112.912" href="#R"><stop stop-color="#ab750f"/><stop offset=".516" stop-color="#d8a956"/><stop offset="1" stop-color="#ab750f"/></linearGradient><linearGradient id="J" x1="77.353" y1="91.735" x2="77.353" y2="89.088" href="#R"><stop stop-color="#ab750f"/><stop offset=".516" stop-color="#d8a956"/><stop offset="1" stop-color="#ab750f"/></linearGradient><linearGradient id="K" x1="82.647" y1="110.265" x2="82.647" y2="112.912" href="#R"><stop stop-color="#ab750f"/><stop offset=".516" stop-color="#d8a956"/><stop offset="1" stop-color="#ab750f"/></linearGradient><linearGradient id="L" x1="82.647" y1="91.735" x2="82.647" y2="89.088" href="#R"><stop stop-color="#ab750f"/><stop offset=".516" stop-color="#d8a956"/><stop offset="1" stop-color="#ab750f"/></linearGradient><linearGradient id="M" x1="71.166" y1="90.507" x2="72.868" y2="92.535" href="#R"><stop stop-color="#ab750f"/><stop offset=".516" stop-color="#d8a956"/><stop offset="1" stop-color="#ab750f"/></linearGradient><linearGradient id="N" x1="71.842" y1="89.94" x2="73.543" y2="91.968" href="#R"><stop stop-color="#ab750f"/><stop offset=".516" stop-color="#d8a956"/><stop offset="1" stop-color="#ab750f"/></linearGradient><linearGradient id="O" x1="88.834" y1="90.507" x2="87.133" y2="92.535" href="#R"><stop stop-color="#ab750f"/><stop offset=".516" stop-color="#d8a956"/><stop offset="1" stop-color="#ab750f"/></linearGradient><linearGradient id="P" x1="88.158" y1="89.94" x2="86.457" y2="91.968" href="#R"><stop stop-color="#ab750f"/><stop offset=".516" stop-color="#d8a956"/><stop offset="1" stop-color="#ab750f"/></linearGradient><path id="Q" d="M73.55 102.341c0 .55-.233 1.026-.699 1.427l-.466.369-2.087 1.504h3.251V107h-5.241v-1.844l3.494-2.524v-.485c0-.388-.194-.582-.582-.582h-2.718v-1.359h3.106c.679 0 1.171.155 1.475.466.311.304.466.796.466 1.475v.194zm4.657-.291c0-.388-.194-.582-.582-.582h-1.068c-.388 0-.582.194-.582.582v3.106c0 .388.194.582.582.582h1.068c.388 0 .582-.194.582-.582v-3.106zm1.747 3.106c0 .679-.155 1.174-.466 1.485-.304.304-.796.456-1.475.456h-1.844c-.679 0-1.174-.152-1.485-.456-.304-.311-.456-.806-.456-1.485v-3.106c0-.679.152-1.171.456-1.475.311-.311.806-.466 1.485-.466h1.844c.679 0 1.171.155 1.475.466.311.304.466.796.466 1.475v3.106zm5.823-2.815c0 .55-.233 1.026-.699 1.427l-.466.369-2.087 1.504h3.251V107h-5.241v-1.844l3.494-2.524v-.485c0-.388-.194-.582-.582-.582H80.73v-1.359h3.106c.679 0 1.171.155 1.475.466.311.304.466.796.466 1.475v.194zm3.686 3.3h-3.591v-1.359l2.33-4.076h1.941l-2.329 4.076h1.65v-1.456h1.747v1.456h.679v1.359h-.679V107h-1.747v-1.359z"/><linearGradient id="R" gradientUnits="userSpaceOnUse"/></defs></svg>