<svg xmlns="http://www.w3.org/2000/svg" width="100" height="130" fill="none" xmlns:v="https://vecta.io/nano"><g fill-rule="evenodd"><path d="M35 26v-7.36l-20-5.814V26l10 4 10-4z" fill="url(#B)"/><use href="#G" fill="url(#C)"/><use href="#G" fill="url(#D)"/><path d="M32 17.767l-14-4.07V29l7 3 7-3V17.767z" fill="url(#E)"/><path d="M32 17.768l-1-.291v10.864l-6 2.571-6-2.571V13.988l-1-.291V29l7 3 7-3V17.768z" fill="url(#F)"/></g><g filter="url(#A)"><use href="#H" fill="#beef18"/></g><use href="#H" fill="#f5f1ee"/><defs><filter id="A" x="20.086" y="18.586" width="9.829" height="9.829" filterUnits="userSpaceOnUse" color-interpolation-filters="sRGB"><feFlood flood-opacity="0"/><feBlend in="SourceGraphic"/><feGaussianBlur stdDeviation=".457"/></filter><linearGradient id="B" x1="15" y1="15.745" x2="35" y2="15.745" href="#I"><stop stop-color="#212121"/><stop offset=".504" stop-color="#333"/><stop offset="1" stop-color="#101010"/></linearGradient><linearGradient id="C" x1="14.065" y1="21.413" x2="35.366" y2="21.413" href="#I"><stop stop-color="#ab750f"/><stop offset=".516" stop-color="#d8a956"/><stop offset="1" stop-color="#ab750f"/></linearGradient><linearGradient id="D" x1="14.065" y1="21.413" x2="35.366" y2="21.413" href="#I"><stop stop-color="#71a22a"/><stop offset=".516" stop-color="#beef18"/><stop offset="1" stop-color="#71a22a"/></linearGradient><linearGradient id="E" x1="18" y1="21.099" x2="32" y2="21.099" href="#I"><stop stop-color="#212121"/><stop offset=".504" stop-color="#333"/><stop offset="1" stop-color="#101010"/></linearGradient><linearGradient id="F" x1="17.346" y1="22.849" x2="32.256" y2="22.849" href="#I"><stop stop-color="#71a22a"/><stop offset=".516" stop-color="#beef18"/><stop offset="1" stop-color="#71a22a"/></linearGradient><path id="G" d="M16 25.323V13.116l-1-.291V26l10 4 10-4v-7.36l-1-.291v6.974l-9 3.6-9-3.6z"/><path id="H" d="M24.44 24.22l-.86-.86a.38.38 0 0 0-.28-.11.38.38 0 0 0-.39.39.38.38 0 0 0 .11.28l1.14 1.14c.08.08.173.12.28.12s.2-.04.28-.12l2.26-2.26a.38.38 0 0 0 .11-.28.38.38 0 0 0-.39-.39.38.38 0 0 0-.28.11l-1.98 1.98zM25 27.5c-.553 0-1.073-.105-1.56-.315a4.04 4.04 0 0 1-2.125-2.125c-.21-.487-.315-1.007-.315-1.56s.105-1.073.315-1.56a4.04 4.04 0 0 1 2.125-2.125c.487-.21 1.007-.315 1.56-.315s1.073.105 1.56.315a4.04 4.04 0 0 1 2.125 2.125c.21.487.315 1.007.315 1.56s-.105 1.073-.315 1.56a4.04 4.04 0 0 1-2.125 2.125c-.487.21-1.007.315-1.56.315zm0-.8c.893 0 1.65-.31 2.27-.93s.93-1.377.93-2.27-.31-1.65-.93-2.27-1.377-.93-2.27-.93-1.65.31-2.27.93-.93 1.377-.93 2.27.31 1.65.93 2.27 1.377.93 2.27.93z"/><linearGradient id="I" gradientUnits="userSpaceOnUse"/></defs></svg>