<svg width="100" height="130" viewBox="0 0 100 130" fill="none" xmlns="http://www.w3.org/2000/svg">
<g id="ph15">
<g id="bounding-box" clip-path="url(#clip0_868_6662)">
<g id="ph15_2">
<g id="ring">
<path id="Subtract" fill-rule="evenodd" clip-rule="evenodd" d="M80 116C81.8935 116 83.4286 114.465 83.4286 112.571C83.4286 110.678 81.8935 109.143 80 109.143C78.1064 109.143 76.5714 110.678 76.5714 112.571C76.5714 114.465 78.1064 116 80 116ZM80.0001 115.143C81.4203 115.143 82.5715 113.992 82.5715 112.571C82.5715 111.151 81.4203 110 80.0001 110C78.5799 110 77.4287 111.151 77.4287 112.571C77.4287 113.992 78.5799 115.143 80.0001 115.143Z" fill="#212121"/>
<path id="Subtract (Stroke)" fill-rule="evenodd" clip-rule="evenodd" d="M83.6429 112.571C83.6429 114.583 82.0119 116.214 80 116.214C77.9881 116.214 76.3572 114.583 76.3572 112.571C76.3572 110.56 77.9881 108.929 80 108.929C82.0119 108.929 83.6429 110.56 83.6429 112.571ZM80.0001 114.929C81.3019 114.929 82.3572 113.873 82.3572 112.571C82.3572 111.27 81.3019 110.214 80.0001 110.214C78.6982 110.214 77.6429 111.27 77.6429 112.571C77.6429 113.873 78.6982 114.929 80.0001 114.929ZM83.4286 112.571C83.4286 114.465 81.8936 116 80 116C78.1065 116 76.5715 114.465 76.5715 112.571C76.5715 110.678 78.1065 109.143 80 109.143C81.8936 109.143 83.4286 110.678 83.4286 112.571ZM82.5715 112.571C82.5715 113.992 81.4202 115.143 80.0001 115.143C78.5799 115.143 77.4286 113.992 77.4286 112.571C77.4286 111.151 78.5799 110 80.0001 110C81.4202 110 82.5715 111.151 82.5715 112.571Z" fill="url(#paint0_linear_868_6662)"/>
</g>
<g id="sun">
<circle id="Ellipse 38" cx="80" cy="93.2857" r="3.42857" fill="url(#paint1_linear_868_6662)"/>
<g id="Group 173">
<path id="Vector 267" d="M78.7142 88.5714L79.9999 87.7142V90.7142H79.1428L78.7142 88.5714Z" fill="url(#paint2_linear_868_6662)"/>
<path id="Vector 268" d="M81.2856 88.5714L79.9999 87.7142V90.7142H80.8571L81.2856 88.5714Z" fill="url(#paint3_linear_868_6662)"/>
<path id="Subtract_2" fill-rule="evenodd" clip-rule="evenodd" d="M79.1733 88.2653L78.7142 88.5714L79.1428 90.7142H79.9999V87.7142L79.357 88.1429L79.5713 89.8571L79.1733 88.2653Z" fill="#212121"/>
<path id="Subtract_3" fill-rule="evenodd" clip-rule="evenodd" d="M80.8265 88.2653L81.2856 88.5714L80.8571 90.7142H79.9999V87.7142L80.6428 88.1428H80.6428L80.4285 89.8571L80.8265 88.2653Z" fill="#212121"/>
<path id="Intersect" fill-rule="evenodd" clip-rule="evenodd" d="M79.9999 87.7142L78.7142 88.5714L79.1428 90.7142V90.2857L78.9285 88.5714L79.9999 87.9285V87.7142Z" fill="url(#paint4_linear_868_6662)"/>
<path id="Intersect_2" fill-rule="evenodd" clip-rule="evenodd" d="M79.9999 87.7142L81.2856 88.5714L80.8571 90.7142V90.2857L81.0714 88.5714L79.9999 87.9285V87.7142Z" fill="url(#paint5_linear_868_6662)"/>
</g>
<g id="Group 174">
<path id="Vector 267_2" d="M75.8917 90.5672L76.1948 89.052L78.3161 91.1733L77.71 91.7794L75.8917 90.5672Z" fill="url(#paint6_linear_868_6662)"/>
<path id="Vector 268_2" d="M77.71 88.749L76.1947 89.052L78.3161 91.1733L78.9222 90.5672L77.71 88.749Z" fill="url(#paint7_linear_868_6662)"/>
<path id="Subtract_4" fill-rule="evenodd" clip-rule="evenodd" d="M76 90.0261L75.8917 90.5672L77.71 91.7794L78.3161 91.1733L76.1948 89.052L76.0432 89.8097L77.4068 90.8703L76 90.0261Z" fill="#212121"/>
<path id="Subtract_5" fill-rule="evenodd" clip-rule="evenodd" d="M77.1688 88.8572L77.71 88.749L78.9222 90.5672L78.3161 91.1733L76.1947 89.052L76.9523 88.9005L78.0129 90.2642L77.1688 88.8572Z" fill="#212121"/>
<path id="Intersect_3" fill-rule="evenodd" clip-rule="evenodd" d="M76.1948 89.052L75.8917 90.5672L77.71 91.7794L77.407 91.4763L76.0433 90.4157L76.3463 89.2035L76.1948 89.052Z" fill="url(#paint8_linear_868_6662)"/>
<path id="Intersect_4" fill-rule="evenodd" clip-rule="evenodd" d="M76.1947 89.052L77.71 88.749L78.9222 90.5672L78.6191 90.2642L77.5585 88.9005L76.3463 89.2035L76.1947 89.052Z" fill="url(#paint9_linear_868_6662)"/>
</g>
<g id="Group 175">
<path id="Vector 267_3" d="M84.1905 90.5672L83.8875 89.052L81.7662 91.1733L82.3723 91.7794L84.1905 90.5672Z" fill="url(#paint10_linear_868_6662)"/>
<path id="Vector 268_3" d="M82.3723 88.749L83.8875 89.052L81.7662 91.1733L81.1601 90.5672L82.3723 88.749Z" fill="url(#paint11_linear_868_6662)"/>
<path id="Subtract_6" fill-rule="evenodd" clip-rule="evenodd" d="M84.0823 90.0261L84.1905 90.5672L82.3723 91.7794L81.7662 91.1733L83.8875 89.052L84.039 89.8096L82.6754 90.8703L84.0823 90.0261Z" fill="#212121"/>
<path id="Subtract_7" fill-rule="evenodd" clip-rule="evenodd" d="M82.9135 88.8572L82.3723 88.749L81.1601 90.5672L81.7662 91.1733L83.8875 89.052L83.1299 88.9005L82.0693 90.2642L82.9135 88.8572Z" fill="#212121"/>
<path id="Intersect_5" fill-rule="evenodd" clip-rule="evenodd" d="M83.8875 89.052L84.1905 90.5672L82.3723 91.7794L82.6753 91.4763L84.039 90.4157L83.736 89.2035L83.8875 89.052Z" fill="url(#paint12_linear_868_6662)"/>
<path id="Intersect_6" fill-rule="evenodd" clip-rule="evenodd" d="M83.8875 89.052L82.3723 88.749L81.1601 90.5672L81.4632 90.2642L82.5238 88.9005L83.736 89.2035L83.8875 89.052Z" fill="url(#paint13_linear_868_6662)"/>
</g>
</g>
<g id="left">
<g id="Group 168">
<path id="Vector 252" d="M63.7142 101C64.9999 101 68.4285 98 68.8571 95.8571L70.1428 97.1428V99.7143L66.2857 103.571L63.7142 102.286L64.9999 101.857C64.8571 101.714 64.0571 101.343 63.7142 101Z" fill="#212121"/>
<path id="Intersect_7" fill-rule="evenodd" clip-rule="evenodd" d="M66.7787 99.0659C65.6638 100.167 64.3916 101 63.7142 101C63.9226 101.208 64.2998 101.427 64.5957 101.599C64.7867 101.71 64.9439 101.801 64.9999 101.857L63.7142 102.286L66.2857 103.571L64.3571 102.286L65.4285 101.857L64.5714 101.214C66.2373 100.381 67.4985 99.346 69.1416 96.1416L68.8571 95.8571C68.739 96.4476 68.3931 97.1032 67.927 97.7431C67.6248 98.1741 67.2454 98.6259 66.7787 99.0659Z" fill="url(#paint14_linear_868_6662)"/>
</g>
<g id="Group 167">
<path id="Vector 251" d="M72.2856 95.4286C72.1427 95.5714 70.5713 96.1143 68.857 97.1428C67.9999 96.2857 67.9999 94.1428 67.9999 93.2857C69.7142 93.2857 70.9999 94.4286 72.2856 95.4286Z" fill="#212121"/>
<path id="Vector 255" d="M68.857 97.1428C67.9999 96.2857 67.9999 94.1428 67.9999 93.2857H68.4284C67.7856 94.5714 68.857 97.1428 68.857 97.1428Z" fill="url(#paint15_linear_868_6662)"/>
</g>
<g id="Group 169">
<path id="Vector 247" d="M73.5714 95L66.7142 91.5714C66.8109 92.5376 67.1428 93.0714 69.4999 94.3571C70.5441 94.9267 71.4285 95.8571 71.8571 96.2857L73.5714 95Z" fill="#212121"/>
<path id="Intersect_8" fill-rule="evenodd" clip-rule="evenodd" d="M67.1427 92C67.1427 92.4286 67.1687 92.8107 69.4999 94.1429C70.9997 94.9999 71.7854 95.9997 71.857 96.2856C71.8247 96.2533 71.7897 96.2181 71.7524 96.1804C71.2941 95.7187 70.4653 94.8837 69.4999 94.3571C67.1428 93.0714 66.8109 92.5376 66.7142 91.5714L72.9999 94.7143L72.7142 95L67.1427 92Z" fill="url(#paint16_linear_868_6662)"/>
</g>
<g id="Group 166">
<path id="Vector 253" d="M65.8572 110.429C67.5715 109.4 68.5715 107.714 68.8572 107H74.4286V107.857C74.4286 108.543 72.4286 110.429 71.4286 111.286L71 109.143C70 109.571 67.5715 110.429 65.8572 110.429Z" fill="#212121"/>
<path id="Intersect_9" fill-rule="evenodd" clip-rule="evenodd" d="M67.9944 108.464C67.4862 109.141 66.7738 109.879 65.8572 110.429C67.5715 110.429 70 109.571 71 109.143C71 109.143 71 109.143 71 109.143L71.4286 111.286C72.1397 110.676 73.3563 109.547 74 108.698V108.286C74 108.286 73.5715 109.143 71.6429 110.857C71.4286 109.571 71.2143 108.714 71.2143 108.714C71.2143 108.714 68.8572 109.786 66.7143 110.214C68.4286 108.714 69.2857 107 69.2857 107C69.2857 107 68.7631 107.653 67.9944 108.464Z" fill="url(#paint17_linear_868_6662)"/>
</g>
<g id="Group 170">
<path id="Vector 246" d="M74.0001 96.2857C68.5143 90.8 70.8572 87.1429 72.7143 86C71.2143 89 74.5715 91.4286 76.5715 92C76.5715 92.1429 76.0572 93.2 74.0001 96.2857Z" fill="#212121"/>
<path id="Intersect_10" fill-rule="evenodd" clip-rule="evenodd" d="M72.7559 94.9148C72.8935 94.9697 73.0236 95 73.1427 95L73.357 94.7857C69.2145 89.9228 71.2786 87.6334 72.1697 86.6451C72.2842 86.518 72.3794 86.4125 72.4395 86.3257C71.6752 87.8191 72.3433 89.8992 74.6427 91.5714C74.6678 91.421 74.6606 91.2471 74.6283 91.0573C73.0258 89.9625 71.652 88.1246 72.7143 86C71.0165 87.0448 68.9127 90.1911 72.7559 94.9148Z" fill="url(#paint18_linear_868_6662)"/>
</g>
</g>
<g id="left_2">
<g id="Group 168_2">
<path id="Vector 252_2" d="M96.2856 101C94.9999 101 91.5714 98 91.1428 95.8571L89.8571 97.1428V99.7143L93.7142 103.571L96.2856 102.286L94.9999 101.857C95.1428 101.714 95.9428 101.343 96.2856 101Z" fill="#212121"/>
<path id="Intersect_11" fill-rule="evenodd" clip-rule="evenodd" d="M93.2212 99.0659C94.3361 100.167 95.6083 101 96.2856 101C96.0773 101.208 95.7001 101.427 95.4042 101.599C95.2131 101.71 95.056 101.801 94.9999 101.857L96.2856 102.286L93.7142 103.571L95.6428 102.286L94.5714 101.857L95.4285 101.214C93.7626 100.381 92.5014 99.346 90.8583 96.1416L91.1428 95.8571C91.2609 96.4476 91.6068 97.1032 92.0728 97.7431C92.3751 98.1741 92.7545 98.6259 93.2212 99.0659Z" fill="url(#paint19_linear_868_6662)"/>
</g>
<g id="Group 167_2">
<path id="Vector 251_2" d="M87.7143 95.4286C87.8571 95.5714 89.4286 96.1143 91.1429 97.1428C92 96.2857 92 94.1428 92 93.2857C90.2857 93.2857 89 94.4286 87.7143 95.4286Z" fill="#212121"/>
<path id="Vector 255_2" d="M91.1429 97.1428C92 96.2857 92 94.1428 92 93.2857H91.5714C92.2143 94.5714 91.1429 97.1428 91.1429 97.1428Z" fill="url(#paint20_linear_868_6662)"/>
</g>
<g id="Group 169_2">
<path id="Vector 247_2" d="M86.4286 95L93.2858 91.5714C93.1891 92.5376 92.8572 93.0714 90.5001 94.3571C89.4559 94.9267 88.5715 95.8571 88.1429 96.2857L86.4286 95Z" fill="#212121"/>
<path id="Intersect_12" fill-rule="evenodd" clip-rule="evenodd" d="M92.8572 92C92.8572 92.4286 92.8313 92.8107 90.5001 94.1429C89.0002 94.9999 88.2145 95.9998 88.143 96.2856C88.1753 96.2533 88.2102 96.2181 88.2476 96.1804C88.7059 95.7187 89.5347 94.8837 90.5001 94.3571C92.8572 93.0714 93.1891 92.5376 93.2858 91.5714L87.0001 94.7143L87.2858 95L92.8572 92Z" fill="url(#paint21_linear_868_6662)"/>
</g>
<g id="Group 165">
<path id="Union" fill-rule="evenodd" clip-rule="evenodd" d="M85.1429 109.143L86 110.429L82.5714 112.143L82.1429 113C81.7143 113.143 80.6857 113.429 80 113.429V109.143H85.1429ZM74.8571 109.143L73.9999 110.429L77.4285 112.143L77.8571 113C78.2856 113.143 79.3142 113.429 79.9999 113.429V109.143H74.8571Z" fill="#212121"/>
<path id="Union_2" fill-rule="evenodd" clip-rule="evenodd" d="M85.143 109.571H85.4287L86.0001 110.428V110.429L82.5716 112.143L82.143 113C81.7144 113.143 80.6859 113.429 80.0002 113.429L81.9287 112.786L82.3573 111.929L85.5716 110.429L85.143 109.571ZM74.8571 109.571H74.5714L74 110.428V110.429L77.4285 112.143L77.8571 113C78.2857 113.143 79.3142 113.429 79.9999 113.429L78.0714 112.786L77.6428 111.929L74.4285 110.429L74.8571 109.571Z" fill="url(#paint22_linear_868_6662)"/>
</g>
<g id="Group 166_2">
<path id="Vector 253_2" d="M94.1428 110.429C92.4285 109.4 91.4285 107.714 91.1428 107H85.5714V107.857C85.5714 108.543 87.5714 110.429 88.5714 111.286L89 109.143C90 109.571 92.4285 110.429 94.1428 110.429Z" fill="#212121"/>
<path id="Intersect_13" fill-rule="evenodd" clip-rule="evenodd" d="M92.0056 108.464C92.5138 109.141 93.2262 109.879 94.1428 110.429C92.4285 110.429 90 109.571 89 109.143C89 109.143 89 109.143 89 109.143L88.5714 111.286C87.8603 110.676 86.6437 109.547 86 108.698V108.286C86 108.286 86.4285 109.143 88.3571 110.857C88.5714 109.571 88.7857 108.714 88.7857 108.714C88.7857 108.714 91.1428 109.786 93.2857 110.214C91.5714 108.714 90.7143 107 90.7143 107C90.7143 107 91.2369 107.653 92.0056 108.464Z" fill="url(#paint23_linear_868_6662)"/>
</g>
<g id="Group 170_2">
<path id="Vector 246_2" d="M85.9999 96.2857C91.4857 90.8 89.1428 87.1429 87.2857 86C88.7857 89 85.4285 91.4286 83.4285 92C83.4285 92.1429 83.9428 93.2 85.9999 96.2857Z" fill="#212121"/>
<path id="Intersect_14" fill-rule="evenodd" clip-rule="evenodd" d="M87.2441 94.9148C87.1064 94.9697 86.9764 95 86.8573 95L86.643 94.7857C90.7855 89.9228 88.7213 87.6334 87.8303 86.6451C87.7157 86.518 87.6206 86.4125 87.5605 86.3257C88.3247 87.8191 87.6566 89.8992 85.3573 91.5714C85.3322 91.421 85.3394 91.2471 85.3717 91.0573C86.9742 89.9626 88.348 88.1246 87.2857 86C88.9835 87.0448 91.0873 90.1911 87.2441 94.9148Z" fill="url(#paint24_linear_868_6662)"/>
</g>
</g>
<g id="Base">
<path id="Union_3" fill-rule="evenodd" clip-rule="evenodd" d="M80 89.8572L77.4286 91.1429C77.4286 91.1429 76.6203 90.9427 76.1429 90.7143C75.5985 90.4539 74.8571 89.8572 74.8571 89.8572L74.4286 91.1429L71.8571 89.4286C71.8571 89.4286 71.951 90.604 72.2857 91.3572C72.6205 92.1103 73.5714 93.2857 73.5714 93.2857L72.7143 94.1429L73.1429 94.5714L68.4286 96.7143L68.8571 99.2857L65.4286 101.429L66.2857 102.286L62 108.714L68 107.429L67.1429 109.143L73.1429 108.286C73.1429 108.286 74.7889 110.221 76.1429 111.071C77.5116 111.931 80 112.571 80 112.571L80 112.571C80 112.571 82.4884 111.931 83.8571 111.071C85.2111 110.221 86.8571 108.286 86.8571 108.286L92.8571 109.143L92 107.429L98 108.714L93.7143 102.286L94.5714 101.429L91.1429 99.2857L91.5714 96.7143L86.8571 94.5715L87.2857 94.1429L86.4286 93.2857C86.4286 93.2857 87.3795 92.1103 87.7143 91.3572C88.049 90.604 88.1429 89.4286 88.1429 89.4286L85.5714 91.1429L85.1429 89.8572C85.1429 89.8572 84.4015 90.454 83.8571 90.7143C83.3797 90.9427 82.5714 91.1429 82.5714 91.1429L80 89.8572Z" fill="#232222"/>
<path id="Union_4" fill-rule="evenodd" clip-rule="evenodd" d="M77.4286 92L80 90.7143L82.5714 92L84.7143 91.1429L85.1429 92.4286L87.2857 90.7143C87.2857 90.7143 86.9054 91.5405 86.6429 92C86.2906 92.6166 85.5714 93.2857 85.5714 93.2857L86.4286 94.1429L86 94.5715L90.7143 97.1429L90.2857 99.7143L93.7143 101.429L92.8571 102.286L96.7143 107.857L91.1429 106.571L92 108.286L86.8571 107.429C86.8571 107.429 85.0711 109.475 83.6429 110.429C82.3351 111.301 80 112.571 80 112.571C80 112.571 82.4884 111.931 83.8571 111.071C85.2111 110.221 86.8571 108.286 86.8571 108.286L92.8571 109.143L92 107.429L98 108.714L93.7143 102.286L94.5714 101.429L91.1429 99.2857L91.5714 96.7143L86.8571 94.5715L87.2857 94.1429L86.4286 93.2857C86.4286 93.2857 87.3795 92.1103 87.7143 91.3572C88.049 90.604 88.1429 89.4286 88.1429 89.4286L85.5714 91.1429L85.1429 89.8572C85.1429 89.8572 84.4015 90.454 83.8571 90.7143C83.3797 90.9427 82.5714 91.1429 82.5714 91.1429L80 89.8572L77.4286 91.1429C77.4286 91.1429 76.6203 90.9427 76.1429 90.7143C75.5985 90.4539 74.8571 89.8572 74.8571 89.8572L74.4286 91.1429L71.8571 89.4286C71.8571 89.4286 71.951 90.604 72.2857 91.3572C72.6205 92.1103 73.5714 93.2857 73.5714 93.2857L72.7143 94.1429L73.1429 94.5714L68.4286 96.7143L68.8571 99.2857L65.4286 101.429L66.2857 102.286L62 108.714L68 107.429L67.1429 109.143L73.1429 108.286C73.1429 108.286 74.7889 110.221 76.1429 111.071C77.5116 111.931 80 112.571 80 112.571C80 112.571 77.6649 111.301 76.3571 110.429C74.9289 109.475 73.1429 107.429 73.1429 107.429L68 108.286L68.8571 106.571L63.2857 107.857L67.1429 102.286L66.2857 101.429L69.7143 99.7143L69.2857 97.1429L74 94.5714L73.5714 94.1429L74.4286 93.2857C74.4286 93.2857 73.7094 92.6165 73.3571 92C73.0946 91.5405 72.7143 90.7143 72.7143 90.7143L74.8571 92.4286L75.2857 91.1429L77.4286 92Z" fill="url(#paint25_linear_868_6662)"/>
</g>
<g id="Group 159">
<path id="Vector 240" d="M64.5714 107L66.2857 104.857L68.8571 105.714L64.5714 107Z" fill="url(#paint26_linear_868_6662)"/>
<path id="Vector 241" d="M70.5714 100.143L70.1428 97.5715L71.4286 100.571L67.5714 101.429L70.5714 100.143Z" fill="url(#paint27_linear_868_6662)"/>
<path id="Vector 242" d="M74.8571 94.5715L74.4286 94.1429L75.2857 93.2858L74.8571 94.1429L75.2857 94.5715L74.8571 95.0001H74L74.8571 94.5715Z" fill="url(#paint28_linear_868_6662)"/>
</g>
<g id="Group 160">
<path id="Union_5" fill-rule="evenodd" clip-rule="evenodd" d="M80 111.286C80.0134 111.28 81.7378 110.5 82.5714 110C83.4082 109.498 84.2856 108.714 84.2856 108.714L82.1428 107.857L80 108.714L77.8572 107.857L75.7143 108.714C75.7143 108.714 76.5917 109.498 77.4286 110C78.2622 110.5 79.9865 111.28 79.9999 111.286V111.286C79.9999 111.286 79.9999 111.286 80 111.286C80 111.286 80 111.286 80 111.286V111.286Z" fill="url(#paint29_linear_868_6662)"/>
<path id="Union_6" fill-rule="evenodd" clip-rule="evenodd" d="M80 92L82.1428 93.2857L80 92.8571L77.8571 93.2857L80 92V92L80 92L80 92V92Z" fill="url(#paint30_linear_868_6662)"/>
<path id="Vector 240_2" d="M95.4286 107L93.7143 104.857L91.1429 105.714L95.4286 107Z" fill="url(#paint31_linear_868_6662)"/>
<path id="Vector 241_2" d="M89.4285 100.143L89.857 97.5715L88.5713 100.571L92.4285 101.429L89.4285 100.143Z" fill="url(#paint32_linear_868_6662)"/>
<path id="Vector 242_2" d="M85.1427 94.5715L85.5713 94.1429L84.7142 93.2858L85.1427 94.1429L84.7142 94.5715L85.1427 95.0001H85.9999L85.1427 94.5715Z" fill="url(#paint33_linear_868_6662)"/>
<path id="Union_7" fill-rule="evenodd" clip-rule="evenodd" d="M80 110H81.2856L80 110.857V110.857L79.9999 110.857L79.9999 110.857V110.857L78.7142 110H79.9999H80Z" fill="#232222"/>
</g>
<g id="Group 155">
<g id="S15" filter="url(#filter0_f_868_6662)">
<path d="M72.4722 105.776C74.1945 105.87 75.3605 105.917 75.9702 105.917C76.1148 105.917 76.228 105.876 76.3097 105.795C76.3977 105.707 76.4417 105.59 76.4417 105.446V104.597H74.2731C73.6131 104.597 73.1322 104.449 72.8305 104.154C72.5351 103.852 72.3874 103.371 72.3874 102.711V102.429C72.3874 101.769 72.5351 101.291 72.8305 100.995C73.1322 100.694 73.6131 100.543 74.2731 100.543H77.5825V101.863H74.6502C74.2731 101.863 74.0845 102.051 74.0845 102.429V102.617C74.0845 102.994 74.2731 103.183 74.6502 103.183H76.3474C76.9634 103.183 77.416 103.327 77.7051 103.617C77.9942 103.906 78.1388 104.358 78.1388 104.974V105.446C78.1388 106.062 77.9942 106.514 77.7051 106.803C77.416 107.093 76.9634 107.237 76.3474 107.237C76.0268 107.237 75.6874 107.231 75.3291 107.218L74.4617 107.181C73.8205 107.149 73.1574 107.105 72.4722 107.049V105.776ZM79.9766 107.143V102.004L78.8924 102.381L78.4209 101.297L80.1652 100.543H81.6738V107.143H79.9766ZM85.9192 107.237C84.8695 107.237 83.7067 107.174 82.4307 107.049V105.776C83.8198 105.87 84.8569 105.917 85.5421 105.917C85.6867 105.917 85.7998 105.876 85.8815 105.795C85.9695 105.707 86.0135 105.59 86.0135 105.446V104.974C86.0135 104.597 85.8249 104.409 85.4478 104.409H82.7135V100.543H87.2392V101.863H84.4107V103.089H85.9192C86.5352 103.089 86.9878 103.23 87.2769 103.513C87.5661 103.789 87.7107 104.214 87.7107 104.786V105.446C87.7107 106.062 87.5661 106.514 87.2769 106.803C86.9878 107.093 86.5352 107.237 85.9192 107.237Z" fill="url(#paint34_linear_868_6662)"/>
</g>
<path id="S15_2" d="M72.4722 105.776C74.1945 105.87 75.3605 105.917 75.9702 105.917C76.1148 105.917 76.228 105.876 76.3097 105.795C76.3977 105.707 76.4417 105.59 76.4417 105.446V104.597H74.2731C73.6131 104.597 73.1322 104.449 72.8305 104.154C72.5351 103.852 72.3874 103.371 72.3874 102.711V102.429C72.3874 101.769 72.5351 101.291 72.8305 100.995C73.1322 100.694 73.6131 100.543 74.2731 100.543H77.5825V101.863H74.6502C74.2731 101.863 74.0845 102.051 74.0845 102.429V102.617C74.0845 102.994 74.2731 103.183 74.6502 103.183H76.3474C76.9634 103.183 77.416 103.327 77.7051 103.617C77.9942 103.906 78.1388 104.358 78.1388 104.974V105.446C78.1388 106.062 77.9942 106.514 77.7051 106.803C77.416 107.093 76.9634 107.237 76.3474 107.237C76.0268 107.237 75.6874 107.231 75.3291 107.218L74.4617 107.181C73.8205 107.149 73.1574 107.105 72.4722 107.049V105.776ZM79.9766 107.143V102.004L78.8924 102.381L78.4209 101.297L80.1652 100.543H81.6738V107.143H79.9766ZM85.9192 107.237C84.8695 107.237 83.7067 107.174 82.4307 107.049V105.776C83.8198 105.87 84.8569 105.917 85.5421 105.917C85.6867 105.917 85.7998 105.876 85.8815 105.795C85.9695 105.707 86.0135 105.59 86.0135 105.446V104.974C86.0135 104.597 85.8249 104.409 85.4478 104.409H82.7135V100.543H87.2392V101.863H84.4107V103.089H85.9192C86.5352 103.089 86.9878 103.23 87.2769 103.513C87.5661 103.789 87.7107 104.214 87.7107 104.786V105.446C87.7107 106.062 87.5661 106.514 87.2769 106.803C86.9878 107.093 86.5352 107.237 85.9192 107.237Z" fill="white"/>
</g>
<g id="Group 183">
<path id="MPL" d="M77.9327 97.2173L77.1389 98.6348H76.3451L75.5513 97.2173V99.4286H74.5307V95.4596H75.608L76.742 97.5575L77.876 95.4596H78.9533V99.4286H77.9327V97.2173ZM79.6359 95.4596H82.0173C82.4142 95.4596 82.7015 95.5503 82.8791 95.7317C83.0606 95.9094 83.1513 96.1967 83.1513 96.5936V97.1606C83.1513 97.5575 83.0606 97.8467 82.8791 98.0281C82.7015 98.2058 82.4142 98.2946 82.0173 98.2946H80.6565V99.4286H79.6359V95.4596ZM82.1307 96.5936C82.1307 96.3668 82.0173 96.2534 81.7905 96.2534H80.6565V97.5008H81.7905C82.0173 97.5008 82.1307 97.3874 82.1307 97.1606V96.5936ZM84.682 98.6348H86.7515V99.4286H83.6614V95.4596H84.682V98.6348Z" fill="white"/>
</g>
</g>
</g>
</g>
<defs>
<filter id="filter0_f_868_6662" x="69.8802" y="98.0358" width="20.3376" height="11.7085" filterUnits="userSpaceOnUse" color-interpolation-filters="sRGB">
<feFlood flood-opacity="0" result="BackgroundImageFix"/>
<feBlend mode="normal" in="SourceGraphic" in2="BackgroundImageFix" result="shape"/>
<feGaussianBlur stdDeviation="1.25356" result="effect1_foregroundBlur_868_6662"/>
</filter>
<linearGradient id="paint0_linear_868_6662" x1="76.0166" y1="112.571" x2="83.7762" y2="112.571" gradientUnits="userSpaceOnUse">
<stop stop-color="#AB750F"/>
<stop offset="0.516" stop-color="#D8A956"/>
<stop offset="1" stop-color="#AB750F"/>
</linearGradient>
<linearGradient id="paint1_linear_868_6662" x1="80" y1="89.8571" x2="80" y2="96.7143" gradientUnits="userSpaceOnUse">
<stop stop-color="#AB750F"/>
<stop offset="0.516" stop-color="#D8A956"/>
<stop offset="1" stop-color="#AB750F"/>
</linearGradient>
<linearGradient id="paint2_linear_868_6662" x1="79.3571" y1="87.7142" x2="79.3571" y2="90.7142" gradientUnits="userSpaceOnUse">
<stop stop-color="#AB750F"/>
<stop offset="0.516" stop-color="#D8A956"/>
<stop offset="1" stop-color="#AB750F"/>
</linearGradient>
<linearGradient id="paint3_linear_868_6662" x1="80.6428" y1="87.7142" x2="80.6428" y2="90.7142" gradientUnits="userSpaceOnUse">
<stop stop-color="#AB750F"/>
<stop offset="0.516" stop-color="#D8A956"/>
<stop offset="1" stop-color="#AB750F"/>
</linearGradient>
<linearGradient id="paint4_linear_868_6662" x1="79.3571" y1="87.7142" x2="79.3571" y2="90.7142" gradientUnits="userSpaceOnUse">
<stop stop-color="#AB750F"/>
<stop offset="0.516" stop-color="#D8A956"/>
<stop offset="1" stop-color="#AB750F"/>
</linearGradient>
<linearGradient id="paint5_linear_868_6662" x1="80.6428" y1="87.7142" x2="80.6428" y2="90.7142" gradientUnits="userSpaceOnUse">
<stop stop-color="#AB750F"/>
<stop offset="0.516" stop-color="#D8A956"/>
<stop offset="1" stop-color="#AB750F"/>
</linearGradient>
<linearGradient id="paint6_linear_868_6662" x1="75.7402" y1="89.5066" x2="77.8615" y2="91.6279" gradientUnits="userSpaceOnUse">
<stop stop-color="#AB750F"/>
<stop offset="0.516" stop-color="#D8A956"/>
<stop offset="1" stop-color="#AB750F"/>
</linearGradient>
<linearGradient id="paint7_linear_868_6662" x1="76.6493" y1="88.5975" x2="78.7706" y2="90.7188" gradientUnits="userSpaceOnUse">
<stop stop-color="#AB750F"/>
<stop offset="0.516" stop-color="#D8A956"/>
<stop offset="1" stop-color="#AB750F"/>
</linearGradient>
<linearGradient id="paint8_linear_868_6662" x1="75.7402" y1="89.5066" x2="77.8615" y2="91.6279" gradientUnits="userSpaceOnUse">
<stop stop-color="#AB750F"/>
<stop offset="0.516" stop-color="#D8A956"/>
<stop offset="1" stop-color="#AB750F"/>
</linearGradient>
<linearGradient id="paint9_linear_868_6662" x1="76.6493" y1="88.5975" x2="78.7706" y2="90.7188" gradientUnits="userSpaceOnUse">
<stop stop-color="#AB750F"/>
<stop offset="0.516" stop-color="#D8A956"/>
<stop offset="1" stop-color="#AB750F"/>
</linearGradient>
<linearGradient id="paint10_linear_868_6662" x1="84.3421" y1="89.5066" x2="82.2207" y2="91.6279" gradientUnits="userSpaceOnUse">
<stop stop-color="#AB750F"/>
<stop offset="0.516" stop-color="#D8A956"/>
<stop offset="1" stop-color="#AB750F"/>
</linearGradient>
<linearGradient id="paint11_linear_868_6662" x1="83.433" y1="88.5975" x2="81.3116" y2="90.7188" gradientUnits="userSpaceOnUse">
<stop stop-color="#AB750F"/>
<stop offset="0.516" stop-color="#D8A956"/>
<stop offset="1" stop-color="#AB750F"/>
</linearGradient>
<linearGradient id="paint12_linear_868_6662" x1="84.3421" y1="89.5066" x2="82.2207" y2="91.6279" gradientUnits="userSpaceOnUse">
<stop stop-color="#AB750F"/>
<stop offset="0.516" stop-color="#D8A956"/>
<stop offset="1" stop-color="#AB750F"/>
</linearGradient>
<linearGradient id="paint13_linear_868_6662" x1="83.433" y1="88.5975" x2="81.3116" y2="90.7188" gradientUnits="userSpaceOnUse">
<stop stop-color="#AB750F"/>
<stop offset="0.516" stop-color="#D8A956"/>
<stop offset="1" stop-color="#AB750F"/>
</linearGradient>
<linearGradient id="paint14_linear_868_6662" x1="63.4605" y1="99.7143" x2="69.2409" y2="99.7143" gradientUnits="userSpaceOnUse">
<stop stop-color="#AB750F"/>
<stop offset="0.516" stop-color="#D8A956"/>
<stop offset="1" stop-color="#AB750F"/>
</linearGradient>
<linearGradient id="paint15_linear_868_6662" x1="67.9598" y1="95.2143" x2="68.8727" y2="95.2143" gradientUnits="userSpaceOnUse">
<stop stop-color="#AB750F"/>
<stop offset="0.516" stop-color="#D8A956"/>
<stop offset="1" stop-color="#AB750F"/>
</linearGradient>
<linearGradient id="paint16_linear_868_6662" x1="66.4204" y1="93.9286" x2="73.1149" y2="93.9286" gradientUnits="userSpaceOnUse">
<stop stop-color="#AB750F"/>
<stop offset="0.516" stop-color="#D8A956"/>
<stop offset="1" stop-color="#AB750F"/>
</linearGradient>
<linearGradient id="paint17_linear_868_6662" x1="65.4765" y1="109.143" x2="74.149" y2="109.143" gradientUnits="userSpaceOnUse">
<stop stop-color="#AB750F"/>
<stop offset="0.516" stop-color="#D8A956"/>
<stop offset="1" stop-color="#AB750F"/>
</linearGradient>
<linearGradient id="paint18_linear_868_6662" x1="70.3995" y1="90.5" x2="74.7322" y2="90.5" gradientUnits="userSpaceOnUse">
<stop stop-color="#AB750F"/>
<stop offset="0.516" stop-color="#D8A956"/>
<stop offset="1" stop-color="#AB750F"/>
</linearGradient>
<linearGradient id="paint19_linear_868_6662" x1="96.5394" y1="99.7143" x2="90.759" y2="99.7143" gradientUnits="userSpaceOnUse">
<stop stop-color="#AB750F"/>
<stop offset="0.516" stop-color="#D8A956"/>
<stop offset="1" stop-color="#AB750F"/>
</linearGradient>
<linearGradient id="paint20_linear_868_6662" x1="92.0401" y1="95.2143" x2="91.1272" y2="95.2143" gradientUnits="userSpaceOnUse">
<stop stop-color="#AB750F"/>
<stop offset="0.516" stop-color="#D8A956"/>
<stop offset="1" stop-color="#AB750F"/>
</linearGradient>
<linearGradient id="paint21_linear_868_6662" x1="93.5796" y1="93.9286" x2="86.8851" y2="93.9286" gradientUnits="userSpaceOnUse">
<stop stop-color="#AB750F"/>
<stop offset="0.516" stop-color="#D8A956"/>
<stop offset="1" stop-color="#AB750F"/>
</linearGradient>
<linearGradient id="paint22_linear_868_6662" x1="86.5611" y1="111.5" x2="73.7805" y2="111.5" gradientUnits="userSpaceOnUse">
<stop stop-color="#AB750F"/>
<stop offset="0.516" stop-color="#D8A956"/>
<stop offset="1" stop-color="#AB750F"/>
</linearGradient>
<linearGradient id="paint23_linear_868_6662" x1="94.5235" y1="109.143" x2="85.851" y2="109.143" gradientUnits="userSpaceOnUse">
<stop stop-color="#AB750F"/>
<stop offset="0.516" stop-color="#D8A956"/>
<stop offset="1" stop-color="#AB750F"/>
</linearGradient>
<linearGradient id="paint24_linear_868_6662" x1="89.6005" y1="90.5" x2="85.2678" y2="90.5" gradientUnits="userSpaceOnUse">
<stop stop-color="#AB750F"/>
<stop offset="0.516" stop-color="#D8A956"/>
<stop offset="1" stop-color="#AB750F"/>
</linearGradient>
<linearGradient id="paint25_linear_868_6662" x1="80" y1="89.4286" x2="80" y2="112.571" gradientUnits="userSpaceOnUse">
<stop stop-color="#AB750F"/>
<stop offset="0.516" stop-color="#D8A956"/>
<stop offset="1" stop-color="#AB750F"/>
</linearGradient>
<linearGradient id="paint26_linear_868_6662" x1="66.7143" y1="104.857" x2="66.7143" y2="107" gradientUnits="userSpaceOnUse">
<stop stop-color="#AB750F"/>
<stop offset="0.516" stop-color="#D8A956"/>
<stop offset="1" stop-color="#AB750F"/>
</linearGradient>
<linearGradient id="paint27_linear_868_6662" x1="69.5" y1="97.5715" x2="69.5" y2="101.429" gradientUnits="userSpaceOnUse">
<stop stop-color="#AB750F"/>
<stop offset="0.516" stop-color="#D8A956"/>
<stop offset="1" stop-color="#AB750F"/>
</linearGradient>
<linearGradient id="paint28_linear_868_6662" x1="74.6429" y1="93.2858" x2="74.6429" y2="95.0001" gradientUnits="userSpaceOnUse">
<stop stop-color="#AB750F"/>
<stop offset="0.516" stop-color="#D8A956"/>
<stop offset="1" stop-color="#AB750F"/>
</linearGradient>
<linearGradient id="paint29_linear_868_6662" x1="80" y1="107.857" x2="80" y2="111.286" gradientUnits="userSpaceOnUse">
<stop stop-color="#AB750F"/>
<stop offset="0.516" stop-color="#D8A956"/>
<stop offset="1" stop-color="#AB750F"/>
</linearGradient>
<linearGradient id="paint30_linear_868_6662" x1="80" y1="92" x2="80" y2="93.2857" gradientUnits="userSpaceOnUse">
<stop stop-color="#AB750F"/>
<stop offset="0.516" stop-color="#D8A956"/>
<stop offset="1" stop-color="#AB750F"/>
</linearGradient>
<linearGradient id="paint31_linear_868_6662" x1="93.2857" y1="104.857" x2="93.2857" y2="107" gradientUnits="userSpaceOnUse">
<stop stop-color="#AB750F"/>
<stop offset="0.516" stop-color="#D8A956"/>
<stop offset="1" stop-color="#AB750F"/>
</linearGradient>
<linearGradient id="paint32_linear_868_6662" x1="90.4999" y1="97.5715" x2="90.4999" y2="101.429" gradientUnits="userSpaceOnUse">
<stop stop-color="#AB750F"/>
<stop offset="0.516" stop-color="#D8A956"/>
<stop offset="1" stop-color="#AB750F"/>
</linearGradient>
<linearGradient id="paint33_linear_868_6662" x1="85.357" y1="93.2858" x2="85.357" y2="95.0001" gradientUnits="userSpaceOnUse">
<stop stop-color="#AB750F"/>
<stop offset="0.516" stop-color="#D8A956"/>
<stop offset="1" stop-color="#AB750F"/>
</linearGradient>
<linearGradient id="paint34_linear_868_6662" x1="71.0959" y1="103.571" x2="88.4408" y2="103.571" gradientUnits="userSpaceOnUse">
<stop stop-color="#AB750F"/>
<stop offset="0.516" stop-color="#D8A956"/>
<stop offset="1" stop-color="#AB750F"/>
</linearGradient>
<clipPath id="clip0_868_6662">
<rect width="36" height="30" fill="white" transform="translate(62 86)"/>
</clipPath>
</defs>
</svg>
