<svg xmlns="http://www.w3.org/2000/svg" width="100" height="130" fill="none" xmlns:v="https://vecta.io/nano"><style><![CDATA[.B{fill:#212121}.C{fill-rule:evenodd}]]></style><g clip-path="url(#e)"><g class="C"><path d="M80 116a3.43 3.43 0 0 0 3.429-3.429A3.43 3.43 0 0 0 80 109.143a3.43 3.43 0 0 0-3.429 3.428A3.43 3.43 0 0 0 80 116zm0-.857A2.57 2.57 0 1 0 80 110a2.57 2.57 0 1 0 0 5.143z" class="B"/><path d="M83.643 112.571c0 2.012-1.631 3.643-3.643 3.643s-3.643-1.631-3.643-3.643 1.631-3.642 3.643-3.642 3.643 1.631 3.643 3.642zM80 114.929a2.36 2.36 0 0 0 2.357-2.358A2.36 2.36 0 0 0 80 110.214a2.36 2.36 0 0 0-2.357 2.357A2.36 2.36 0 0 0 80 114.929zm3.428-2.358A3.43 3.43 0 0 1 80 116a3.43 3.43 0 0 1-3.428-3.429A3.43 3.43 0 0 1 80 109.143a3.43 3.43 0 0 1 3.429 3.428zm-.857 0a2.57 2.57 0 1 1-5.143 0 2.57 2.57 0 1 1 5.143 0z" fill="url(#B)"/></g><circle cx="80" cy="93.286" r="3.429" fill="url(#C)"/><path d="M78.714 88.571L80 87.714v3h-.857l-.429-2.143z" fill="url(#D)"/><path d="M81.286 88.571L80 87.714v3h.857l.428-2.143z" fill="url(#E)"/><g class="C"><g class="B"><path d="M79.173 88.265l-.459.306.429 2.143H80v-3l-.643.429.214 1.714-.398-1.592z"/><path d="M80.827 88.265l.459.306-.428 2.143H80v-3l.643.429h0l-.214 1.714.398-1.592z"/></g><path d="M80 87.714l-1.286.857.429 2.143v-.429l-.214-1.714L80 87.929v-.214z" fill="url(#D)"/><path d="M80 87.714l1.286.857-.428 2.143v-.429l.214-1.714L80 87.929v-.214z" fill="url(#E)"/></g><path d="M75.892 90.567l.303-1.515 2.121 2.121-.606.606-1.818-1.212z" fill="url(#F)"/><path d="M77.71 88.749l-1.515.303 2.121 2.121.606-.606-1.212-1.818z" fill="url(#G)"/><g class="C"><g class="B"><path d="M76 90.026l-.108.541 1.818 1.212.606-.606-2.121-2.121-.152.758 1.364 1.061L76 90.026z"/><path d="M77.169 88.857l.541-.108 1.212 1.818-.606.606-2.121-2.121.758-.152 1.061 1.364-.844-1.407z"/></g><path d="M76.195 89.052l-.303 1.515 1.818 1.212-.303-.303-1.364-1.061.303-1.212-.151-.151z" fill="url(#F)"/><path d="M76.195 89.052l1.515-.303 1.212 1.818-.303-.303-1.061-1.364-1.212.303-.152-.151z" fill="url(#G)"/></g><path d="M84.191 90.567l-.303-1.515-2.121 2.121.606.606 1.818-1.212z" fill="url(#H)"/><path d="M82.372 88.749l1.515.303-2.121 2.121-.606-.606 1.212-1.818z" fill="url(#I)"/><g class="C"><g class="B"><path d="M84.082 90.026l.108.541-1.818 1.212-.606-.606 2.121-2.121.151.758-1.364 1.061 1.407-.844z"/><path d="M82.914 88.857l-.541-.108-1.212 1.818.606.606 2.121-2.121-.758-.152-1.061 1.364.844-1.407z"/></g><path d="M83.888 89.052l.303 1.515-1.818 1.212.303-.303 1.364-1.061-.303-1.212.151-.151z" fill="url(#H)"/><path d="M83.888 89.052l-1.515-.303-1.212 1.818.303-.303 1.061-1.364 1.212.303.151-.151z" fill="url(#I)"/></g><path d="M63.714 101c1.286 0 4.714-3 5.143-5.143l1.286 1.286v2.571l-3.857 3.857-2.572-1.285 1.286-.429c-.143-.143-.943-.514-1.286-.857z" class="B"/><path d="M66.779 99.066c-1.115 1.101-2.387 1.934-3.065 1.934.208.208.586.427.881.599l.404.258-1.286.429 2.572 1.285-1.929-1.285 1.071-.429-.857-.643c1.666-.833 2.927-1.868 4.57-5.072l-.284-.285c-.118.59-.464 1.246-.93 1.886-.302.431-.682.883-1.148 1.323z" fill="url(#J)" class="C"/><path d="M72.286 95.429c-.143.143-1.714.686-3.429 1.714-.857-.857-.857-3-.857-3.857 1.714 0 3 1.143 4.286 2.143z" class="B"/><path d="M68.857 97.143c-.857-.857-.857-3-.857-3.857h.429c-.643 1.286.428 3.857.428 3.857z" fill="url(#K)"/><path d="M73.571 95l-6.857-3.429c.097.966.429 1.5 2.786 2.786 1.044.57 1.929 1.5 2.357 1.929L73.571 95z" class="B"/><path d="M67.143 92c0 .429.026.811 2.357 2.143C71 95 71.785 96 71.857 96.286l-.105-.105c-.458-.462-1.287-1.297-2.252-1.823-2.357-1.286-2.689-1.82-2.786-2.786L73 94.714l-.286.286-5.571-3z" fill="url(#L)" class="C"/><path d="M65.857 110.429c1.714-1.029 2.714-2.715 3-3.429h5.571v.857c0 .686-2 2.572-3 3.429L71 109.143c-1 .428-3.428 1.286-5.143 1.286z" class="B"/><path d="M67.994 108.464c-.508.677-1.221 1.415-2.137 1.965 1.714 0 4.143-.858 5.143-1.286l.429 2.143c.711-.61 1.928-1.739 2.571-2.588v-.412s-.428.857-2.357 2.571l-.429-2.143s-2.357 1.072-4.5 1.5c1.714-1.5 2.571-3.214 2.571-3.214l-1.291 1.464z" fill="url(#M)" class="C"/><path d="M74 96.286C68.514 90.8 70.857 87.143 72.714 86c-1.5 3 1.857 5.429 3.857 6 0 .143-.514 1.2-2.571 4.286z" class="B"/><path d="M72.756 94.915a1.06 1.06 0 0 0 .387.085l.214-.214c-4.142-4.863-2.078-7.152-1.187-8.141l.27-.319c-.764 1.493-.096 3.573 2.203 5.246.025-.15.018-.324-.014-.514-1.602-1.095-2.976-2.933-1.914-5.057-1.698 1.045-3.802 4.191.042 8.915z" fill="url(#N)" class="C"/><path d="M96.286 101c-1.286 0-4.714-3-5.143-5.143l-1.286 1.286v2.571l3.857 3.857 2.572-1.285-1.286-.429c.143-.143.943-.514 1.286-.857z" class="B"/><path d="M93.221 99.066c1.115 1.101 2.387 1.934 3.064 1.934-.208.208-.586.427-.881.599l-.404.258 1.286.429-2.572 1.285 1.929-1.285-1.071-.429.857-.643c-1.666-.833-2.927-1.868-4.57-5.072l.284-.285c.118.59.464 1.246.93 1.886.302.431.682.883 1.148 1.323z" fill="url(#O)" class="C"/><path d="M87.714 95.429c.143.143 1.714.686 3.429 1.714.857-.857.857-3 .857-3.857-1.714 0-3 1.143-4.286 2.143z" class="B"/><path d="M91.143 97.143c.857-.857.857-3 .857-3.857h-.429c.643 1.286-.428 3.857-.428 3.857z" fill="url(#P)"/><path d="M86.429 95l6.857-3.429c-.097.966-.429 1.5-2.786 2.786-1.044.57-1.929 1.5-2.357 1.929L86.429 95z" class="B"/><g class="C"><path d="M92.857 92c0 .429-.026.811-2.357 2.143C89 95 88.215 96 88.143 96.286l.105-.105c.458-.462 1.287-1.297 2.252-1.823 2.357-1.286 2.689-1.82 2.786-2.786L87 94.714l.286.286 5.571-3z" fill="url(#Q)"/><path d="M85.143 109.143l.857 1.286-3.429 1.714-.428.857c-.429.143-1.457.429-2.143.429v-4.286h5.143zm-10.286 0L74 110.429l3.429 1.714.429.857c.428.143 1.457.429 2.143.429v-4.286h-5.143z" class="B"/><path d="M85.143 109.571h.286l.571.857v.001l-3.428 1.714-.429.857c-.429.143-1.457.429-2.143.429l1.928-.643.429-.857 3.214-1.5-.429-.858zm-10.286 0h-.286l-.571.857v.001l3.428 1.714.429.857c.429.143 1.457.429 2.143.429l-1.928-.643-.429-.857-3.214-1.5.429-.858z" fill="url(#R)"/></g><path d="M94.143 110.429c-1.714-1.029-2.714-2.715-3-3.429h-5.571v.857c0 .686 2 2.572 3 3.429l.429-2.143c1 .428 3.428 1.286 5.143 1.286z" class="B"/><path d="M92.006 108.464c.508.677 1.221 1.415 2.137 1.965-1.714 0-4.143-.858-5.143-1.286l-.429 2.143c-.711-.61-1.928-1.739-2.571-2.588v-.412s.428.857 2.357 2.571l.429-2.143s2.357 1.072 4.5 1.5c-1.714-1.5-2.571-3.214-2.571-3.214l1.291 1.464z" fill="url(#S)" class="C"/><path d="M86 96.286C91.486 90.8 89.143 87.143 87.286 86c1.5 3-1.857 5.429-3.857 6 0 .143.514 1.2 2.571 4.286z" class="B"/><g class="C"><path d="M87.244 94.915a1.06 1.06 0 0 1-.387.085l-.214-.214c4.142-4.863 2.078-7.152 1.187-8.141l-.27-.319c.764 1.493.096 3.573-2.203 5.246-.025-.15-.018-.324.014-.514 1.602-1.095 2.976-2.933 1.914-5.057 1.698 1.045 3.802 4.191-.042 8.915z" fill="url(#T)"/><path d="M80 89.857l-2.571 1.286s-.808-.2-1.286-.429c-.544-.26-1.286-.857-1.286-.857l-.428 1.286-2.572-1.714s.094 1.175.429 1.928 1.286 1.929 1.286 1.929l-.857.857.429.428-4.714 2.143.428 2.571-3.428 2.143.857.857L62 108.714l6-1.285-.857 1.714 6-.857s1.646 1.935 3 2.785c1.369.86 3.857 1.5 3.857 1.5h0s2.488-.64 3.857-1.5c1.354-.85 3-2.785 3-2.785l6 .857-.857-1.714 6 1.285-4.286-6.428.857-.857-3.428-2.143.428-2.571-4.714-2.143.429-.428-.857-.857s.951-1.175 1.286-1.928.429-1.929.429-1.929l-2.572 1.714-.428-1.286s-.741.597-1.286.857c-.477.228-1.286.429-1.286.429L80 89.857z" fill="#232222"/><path d="M77.429 92L80 90.714 82.571 92l2.143-.857.429 1.286 2.143-1.714L86.643 92c-.352.617-1.072 1.286-1.072 1.286l.857.857-.429.428 4.714 2.572-.429 2.571 3.429 1.715-.857.857 3.857 5.571-5.571-1.286.857 1.715-5.143-.857s-1.786 2.046-3.214 3c-1.308.872-3.643 2.142-3.643 2.142s2.488-.64 3.857-1.5c1.354-.85 3-2.785 3-2.785l6 .857-.857-1.714 6 1.285-4.286-6.428.857-.857-3.428-2.143.428-2.571-4.714-2.143.429-.428-.857-.857s.951-1.175 1.286-1.928.429-1.929.429-1.929l-2.572 1.714-.428-1.286s-.741.597-1.286.857c-.477.228-1.286.429-1.286.429L80 89.857l-2.571 1.286s-.808-.2-1.286-.429c-.544-.26-1.286-.857-1.286-.857l-.428 1.286-2.572-1.714s.094 1.175.429 1.928 1.286 1.929 1.286 1.929l-.857.857.429.428-4.714 2.143.428 2.571-3.428 2.143.857.857L62 108.714l6-1.285-.857 1.714 6-.857s1.646 1.935 3 2.785c1.369.86 3.857 1.5 3.857 1.5l-3.643-2.142c-1.428-.954-3.214-3-3.214-3l-5.143.857.857-1.715-5.571 1.286 3.857-5.571-.857-.857 3.429-1.715-.429-2.571L74 94.571l-.429-.428.857-.857s-.719-.669-1.072-1.286c-.263-.46-.643-1.286-.643-1.286l2.143 1.714.429-1.286 2.143.857z" fill="url(#U)"/></g><path d="M64.571 107l1.714-2.143 2.571.857L64.571 107z" fill="url(#V)"/><path d="M70.571 100.143l-.429-2.572 1.286 3-3.857.858 3-1.286z" fill="url(#W)"/><path d="M74.857 94.571l-.428-.428.857-.857-.429.857.429.428-.429.429H74l.857-.429z" fill="url(#X)"/><g class="C"><path d="M80 111.286L82.571 110c.837-.502 1.714-1.286 1.714-1.286l-2.143-.857-2.143.857-2.143-.857-2.143.857s.877.784 1.714 1.286 2.558 1.28 2.571 1.286h0 0z" fill="url(#Y)"/><path d="M80 92l2.143 1.286L80 92.857l-2.143.429L80 92h0 0 0 0z" fill="url(#Z)"/></g><path d="M95.429 107l-1.714-2.143-2.571.857L95.429 107z" fill="url(#a)"/><path d="M89.429 100.143l.428-2.572-1.286 2.999 3.857.858-3-1.286z" fill="url(#b)"/><path d="M85.143 94.572l.428-.429-.857-.857.429.857-.429.429.429.428H86l-.857-.428z" fill="url(#c)"/><path d="M80 110h1.286l-1.286.857h0 0 0 0L78.714 110H80h0z" fill="#232222" class="C"/><g filter="url(#A)"><use href="#f" fill="url(#d)"/></g><g fill="#fff"><use href="#f"/><path d="M77.933 97.217l-.794 1.418h-.794l-.794-1.418v2.211h-1.021V95.46h1.077l1.134 2.098 1.134-2.098h1.077v3.969h-1.021v-2.211zm1.703-1.758h2.381c.397 0 .684.091.862.272s.272.465.272.862v.567c0 .397-.091.686-.272.867s-.465.267-.862.267h-1.361v1.134h-1.021V95.46zm2.495 1.134c0-.227-.113-.34-.34-.34h-1.134v1.247h1.134c.227 0 .34-.113.34-.34v-.567zm2.551 2.041h2.069v.794h-3.09V95.46h1.021v3.175z"/></g></g><defs><filter id="A" x="71.791" y="98.464" width="16.516" height="11.709" filterUnits="userSpaceOnUse" color-interpolation-filters="sRGB"><feFlood flood-opacity="0"/><feBlend in="SourceGraphic"/><feGaussianBlur stdDeviation="1.254"/></filter><linearGradient id="B" x1="76.017" y1="112.571" x2="83.776" y2="112.571" href="#g"><stop stop-color="#ab750f"/><stop offset=".516" stop-color="#d8a956"/><stop offset="1" stop-color="#ab750f"/></linearGradient><linearGradient id="C" x1="80" y1="89.857" x2="80" y2="96.714" href="#g"><stop stop-color="#ab750f"/><stop offset=".516" stop-color="#d8a956"/><stop offset="1" stop-color="#ab750f"/></linearGradient><linearGradient id="D" x1="79.357" y1="87.714" x2="79.357" y2="90.714" href="#g"><stop stop-color="#ab750f"/><stop offset=".516" stop-color="#d8a956"/><stop offset="1" stop-color="#ab750f"/></linearGradient><linearGradient id="E" x1="80.643" y1="87.714" x2="80.643" y2="90.714" href="#g"><stop stop-color="#ab750f"/><stop offset=".516" stop-color="#d8a956"/><stop offset="1" stop-color="#ab750f"/></linearGradient><linearGradient id="F" x1="75.74" y1="89.507" x2="77.862" y2="91.628" href="#g"><stop stop-color="#ab750f"/><stop offset=".516" stop-color="#d8a956"/><stop offset="1" stop-color="#ab750f"/></linearGradient><linearGradient id="G" x1="76.649" y1="88.598" x2="78.771" y2="90.719" href="#g"><stop stop-color="#ab750f"/><stop offset=".516" stop-color="#d8a956"/><stop offset="1" stop-color="#ab750f"/></linearGradient><linearGradient id="H" x1="84.342" y1="89.507" x2="82.221" y2="91.628" href="#g"><stop stop-color="#ab750f"/><stop offset=".516" stop-color="#d8a956"/><stop offset="1" stop-color="#ab750f"/></linearGradient><linearGradient id="I" x1="83.433" y1="88.598" x2="81.312" y2="90.719" href="#g"><stop stop-color="#ab750f"/><stop offset=".516" stop-color="#d8a956"/><stop offset="1" stop-color="#ab750f"/></linearGradient><linearGradient id="J" x1="63.461" y1="99.714" x2="69.241" y2="99.714" href="#g"><stop stop-color="#ab750f"/><stop offset=".516" stop-color="#d8a956"/><stop offset="1" stop-color="#ab750f"/></linearGradient><linearGradient id="K" x1="67.96" y1="95.214" x2="68.873" y2="95.214" href="#g"><stop stop-color="#ab750f"/><stop offset=".516" stop-color="#d8a956"/><stop offset="1" stop-color="#ab750f"/></linearGradient><linearGradient id="L" x1="66.42" y1="93.929" x2="73.115" y2="93.929" href="#g"><stop stop-color="#ab750f"/><stop offset=".516" stop-color="#d8a956"/><stop offset="1" stop-color="#ab750f"/></linearGradient><linearGradient id="M" x1="65.477" y1="109.143" x2="74.149" y2="109.143" href="#g"><stop stop-color="#ab750f"/><stop offset=".516" stop-color="#d8a956"/><stop offset="1" stop-color="#ab750f"/></linearGradient><linearGradient id="N" x1="70.4" y1="90.5" x2="74.732" y2="90.5" href="#g"><stop stop-color="#ab750f"/><stop offset=".516" stop-color="#d8a956"/><stop offset="1" stop-color="#ab750f"/></linearGradient><linearGradient id="O" x1="96.54" y1="99.714" x2="90.759" y2="99.714" href="#g"><stop stop-color="#ab750f"/><stop offset=".516" stop-color="#d8a956"/><stop offset="1" stop-color="#ab750f"/></linearGradient><linearGradient id="P" x1="92.04" y1="95.214" x2="91.127" y2="95.214" href="#g"><stop stop-color="#ab750f"/><stop offset=".516" stop-color="#d8a956"/><stop offset="1" stop-color="#ab750f"/></linearGradient><linearGradient id="Q" x1="93.58" y1="93.929" x2="86.885" y2="93.929" href="#g"><stop stop-color="#ab750f"/><stop offset=".516" stop-color="#d8a956"/><stop offset="1" stop-color="#ab750f"/></linearGradient><linearGradient id="R" x1="86.561" y1="111.5" x2="73.781" y2="111.5" href="#g"><stop stop-color="#ab750f"/><stop offset=".516" stop-color="#d8a956"/><stop offset="1" stop-color="#ab750f"/></linearGradient><linearGradient id="S" x1="94.524" y1="109.143" x2="85.851" y2="109.143" href="#g"><stop stop-color="#ab750f"/><stop offset=".516" stop-color="#d8a956"/><stop offset="1" stop-color="#ab750f"/></linearGradient><linearGradient id="T" x1="89.601" y1="90.5" x2="85.268" y2="90.5" href="#g"><stop stop-color="#ab750f"/><stop offset=".516" stop-color="#d8a956"/><stop offset="1" stop-color="#ab750f"/></linearGradient><linearGradient id="U" x1="80" y1="89.429" x2="80" y2="112.571" href="#g"><stop stop-color="#ab750f"/><stop offset=".516" stop-color="#d8a956"/><stop offset="1" stop-color="#ab750f"/></linearGradient><linearGradient id="V" x1="66.714" y1="104.857" x2="66.714" y2="107" href="#g"><stop stop-color="#ab750f"/><stop offset=".516" stop-color="#d8a956"/><stop offset="1" stop-color="#ab750f"/></linearGradient><linearGradient id="W" x1="69.5" y1="97.571" x2="69.5" y2="101.429" href="#g"><stop stop-color="#ab750f"/><stop offset=".516" stop-color="#d8a956"/><stop offset="1" stop-color="#ab750f"/></linearGradient><linearGradient id="X" x1="74.643" y1="93.286" x2="74.643" y2="95" href="#g"><stop stop-color="#ab750f"/><stop offset=".516" stop-color="#d8a956"/><stop offset="1" stop-color="#ab750f"/></linearGradient><linearGradient id="Y" x1="80" y1="107.857" x2="80" y2="111.286" href="#g"><stop stop-color="#ab750f"/><stop offset=".516" stop-color="#d8a956"/><stop offset="1" stop-color="#ab750f"/></linearGradient><linearGradient id="Z" x1="80" y1="92" x2="80" y2="93.286" href="#g"><stop stop-color="#ab750f"/><stop offset=".516" stop-color="#d8a956"/><stop offset="1" stop-color="#ab750f"/></linearGradient><linearGradient id="a" x1="93.286" y1="104.857" x2="93.286" y2="107" href="#g"><stop stop-color="#ab750f"/><stop offset=".516" stop-color="#d8a956"/><stop offset="1" stop-color="#ab750f"/></linearGradient><linearGradient id="b" x1="90.5" y1="97.572" x2="90.5" y2="101.429" href="#g"><stop stop-color="#ab750f"/><stop offset=".516" stop-color="#d8a956"/><stop offset="1" stop-color="#ab750f"/></linearGradient><linearGradient id="c" x1="85.357" y1="93.286" x2="85.357" y2="95" href="#g"><stop stop-color="#ab750f"/><stop offset=".516" stop-color="#d8a956"/><stop offset="1" stop-color="#ab750f"/></linearGradient><linearGradient id="d" x1="73.439" y1="104.071" x2="86.22" y2="104.071" href="#g"><stop stop-color="#ab750f"/><stop offset=".516" stop-color="#d8a956"/><stop offset="1" stop-color="#ab750f"/></linearGradient><clipPath id="e"><path fill="#fff" transform="translate(62 86)" d="M0 0h36v30H0z"/></clipPath><path id="f" d="M74.383 106.204l3.498.142c.145 0 .258-.041.339-.123a.47.47 0 0 0 .132-.349v-.848h-2.169c-.66 0-1.141-.148-1.442-.443-.296-.302-.443-.783-.443-1.443v-.283c0-.66.148-1.138.443-1.433.302-.302.782-.453 1.442-.453h3.31v1.32h-2.932c-.377 0-.566.189-.566.566v.189c0 .377.189.565.566.565h1.697c.616 0 1.069.145 1.358.434s.434.742.434 1.358v.471c0 .616-.145 1.069-.434 1.358s-.742.434-1.358.434c-.321 0-.66-.007-1.018-.019l-.867-.038-1.989-.132v-1.273zm9.626 1.462c-1.05 0-2.213-.063-3.489-.189v-1.273l3.112.142c.144 0 .258-.041.339-.123a.47.47 0 0 0 .132-.349v-.471c0-.377-.189-.566-.566-.566h-2.734v-3.866h4.526v1.32H82.5v1.226h1.509c.616 0 1.069.142 1.358.424s.434.701.434 1.273v.66c0 .616-.144 1.069-.434 1.358s-.742.434-1.358.434z"/><linearGradient id="g" gradientUnits="userSpaceOnUse"/></defs></svg>