<svg width="286" height="108" viewBox="0 0 286 108" fill="none" xmlns="http://www.w3.org/2000/svg">
<g id="team">
<path id="back-bottom-design" d="M62 95L68 101H218L224 95H62Z" fill="url(#paint0_linear_3419_7187)"/>
<path id="back-bottom-design_2" opacity="0.5" d="M218 101L224 95H143V101H218Z" fill="black"/>
<g id="back wing">
<path id="Vector 452" d="M16 62L44 29C44 29 39.5 26 34.5 15C29.5 4 29 0 29 0C29 0 21.5 19.5 20 27C18.5 34.5 20.75 39 21.5 45C22.125 50 16 62 16 62Z" fill="url(#paint1_linear_3419_7187)"/>
<path id="Vector 462" d="M29 20C30.5212 22.6437 34 26 34 26C34 26 31.3574 21.8409 30 19C27.95 14.7096 26.9251 9.28404 26 7.5C26 7.5 26.4963 15.6487 29 20Z" fill="#606060"/>
</g>
<g id="back wing_2">
<path id="Vector 452_2" d="M273 64L245 31C245 31 249.5 28 254.5 17C259.5 6 260 2 260 2C260 2 267.5 21.5 269 29C270.5 36.5 268.25 41 267.5 47C266.875 52 273 64 273 64Z" fill="url(#paint2_linear_3419_7187)"/>
<path id="Vector 462_2" d="M257 20C255.479 22.6437 252 26 252 26C252 26 254.643 21.8409 256 19C258.05 14.7096 259.075 9.28404 260 7.5C260 7.5 259.504 15.6487 257 20Z" fill="#606060"/>
</g>
<g id="shape-glow" filter="url(#filter0_f_3419_7187)">
<path d="M41 31H245L273 64L245 97H41L13 64L41 31Z" fill="#5C5C5C"/>
</g>
<path id="body-shape" d="M41 31H245L273 64L245 97H160L143 106L126 97H41L13 64L41 31Z" fill="#333333"/>
<path id="body-shape-darken" opacity="0.5" d="M143 31H245L273 64L245 97H160L143 106V31Z" fill="black"/>
<path id="waves" opacity="0.15" fill-rule="evenodd" clip-rule="evenodd" d="M33.0579 57.9256C32.4955 60.6025 30.9437 63.1553 28.9974 65.6498L29.0004 65.6483C28.6785 66.061 28.3667 66.4757 28.0551 66.8903C27.4802 67.6551 26.9056 68.4195 26.2679 69.1701C24.9006 70.7825 23.0739 72.1272 20.8279 73.2257L19.2322 71.345C20.5437 70.5249 21.6254 69.5817 22.443 68.5107C24.5042 65.8069 26.2738 63.0343 27.8226 60.2422C29.1771 57.7986 29.8632 55.2742 30.084 52.7229C30.3078 50.1522 30.6641 47.5844 31.0351 45.0182L31.0763 44.7305C31.1971 43.8839 31.3182 43.0352 31.5038 42.192L39.5087 32.7576C40.3883 32.1716 41.268 31.5857 42.1481 31H45.8727C45.1568 31.541 44.4445 32.0833 43.7347 32.6266C43.6682 32.6775 43.6016 32.7284 43.5351 32.7793C41.8106 34.0985 40.0815 35.4212 38.5789 36.805C35.9023 39.271 35.0131 41.9838 34.7598 44.7669C34.5361 47.221 34.2975 49.6736 33.9884 52.1247C33.744 54.0613 33.4643 55.9965 33.0579 57.9256ZM48.4435 31C47.4564 31.7946 46.4812 32.5935 45.5132 33.3953C45.3567 33.5248 45.1998 33.6543 45.043 33.7838C42.7462 35.6801 40.4561 37.5708 39.1413 39.7196C38.1843 41.2809 37.6366 42.8796 37.5012 44.5127C37.3729 46.0613 37.2493 47.6099 37.1257 49.1585C36.9712 51.0943 36.8167 53.0302 36.6532 54.9661C36.1673 60.7057 32.7635 66.0147 27.3397 71.0111C25.8588 72.375 24.0084 73.5011 21.8456 74.4251L22.6589 75.3838C26.0758 74.0292 28.8125 72.261 30.9378 70.1153V70.1168C33.3346 67.6971 35.7197 65.2744 37.1448 62.6483C38.3226 60.4769 38.7555 58.2427 39.0499 56.0084C39.223 54.6964 39.2991 53.3815 39.3752 52.0666L39.3752 52.0665L39.3752 52.0664C39.4222 51.2561 39.4691 50.4458 39.5387 49.6362C39.5736 49.2266 39.6059 48.8167 39.6382 48.4068L39.6382 48.4063L39.6382 48.4059C39.7641 46.809 39.89 45.2109 40.1688 43.6213C40.637 40.9385 42.3213 38.4231 44.9772 36.0976C45.7414 35.428 46.5002 34.7565 47.2591 34.085C48.4235 33.0546 49.5881 32.024 50.7725 31H48.4435ZM50.1255 34.7235L50.1255 34.7236L50.1254 34.7236C49.5004 35.3752 48.8755 36.0267 48.2397 36.6748C46.0078 38.9495 44.4089 41.3407 43.9555 43.8816C43.5521 46.1442 43.3106 48.4173 43.1045 50.6875C43.0004 51.8371 42.939 52.9879 42.8775 54.1389L42.8775 54.1389L42.8775 54.139V54.139C42.807 55.4615 42.7364 56.7842 42.601 58.1051C42.4096 59.9954 41.965 61.8767 40.7518 63.6847C38.4051 67.1782 34.7509 70.3187 30.552 73.3006C28.6338 74.6636 26.3675 75.7943 23.7764 76.7007L24.8789 78.0001C27.5033 77.1494 29.8253 76.0883 31.8652 74.8454C36.2113 72.1969 40.1511 69.4019 43.2458 66.3212C45.2775 64.3008 46.4141 62.1622 46.7851 59.8906C47.0494 58.263 47.0681 56.6332 47.0869 55.0048V55.0047V55.0046C47.0997 53.8935 47.1124 52.7831 47.2032 51.6744C47.2416 51.2056 47.2751 50.7363 47.3087 50.2668L47.3087 50.2666L47.3088 50.2665L47.3088 50.2663L47.3088 50.2662L47.3088 50.266L47.3088 50.2659L47.3088 50.2657L47.3088 50.2655L47.3088 50.2653L47.3088 50.2651L47.3089 50.2649L47.3089 50.2647L47.3089 50.2645C47.5278 47.2031 47.7474 44.1331 49.2967 41.1373C50.6292 38.5598 52.6959 36.1252 54.7641 33.689L54.7641 33.689L54.7641 33.6889L54.7654 33.6874C55.0139 33.3947 55.2624 33.1019 55.5097 32.8089C56.0275 32.1955 56.5766 31.5927 57.1563 31H53.7963C52.5208 32.2264 51.3229 33.4752 50.1255 34.7235ZM216.866 48.6446C221.421 45.0585 224.145 41.1059 225.514 36.9171H225.508C226.155 34.9365 226.859 32.9637 227.643 31H245L273 64L245 97H230.663C233.205 93.6852 237.072 89.9253 242.934 85.9554C238.941 86.9469 235.178 88.1643 231.733 89.6702C230.527 90.197 229.338 90.7352 228.148 91.2734C225.373 92.529 222.598 93.7848 219.613 94.8954C217.716 95.6011 215.812 96.3024 213.903 97H203.856C204.3 96.8069 204.708 96.5913 205.115 96.3758L205.115 96.3757C205.329 96.2626 205.543 96.1496 205.762 96.0398L205.541 95.8558C205.364 95.8827 205.182 95.905 205 95.9272C204.605 95.9755 204.211 96.0238 203.866 96.119C203.181 96.3085 202.493 96.495 201.804 96.6815C201.413 96.7875 201.021 96.8934 200.631 97H193.781C195.321 96.3893 196.857 95.775 198.389 95.1585H198.392C208.183 91.2194 218.65 87.7649 229.622 84.7395C237.21 82.6473 245.08 80.8812 253.44 79.7685C254.308 79.2631 255.51 78.5049 256.814 77.5134C254.232 77.959 251.647 78.4002 249.02 78.7681C240.107 80.0183 231.918 82.0955 224.051 84.4778C215.494 87.068 207.608 90.1681 199.838 93.3251C198.369 93.9218 196.905 94.5216 195.442 95.1212C193.91 95.7487 192.379 96.3762 190.842 97H189.237C192.089 95.8484 194.92 94.6834 197.752 93.5184C203.04 91.3422 208.33 89.1658 213.757 87.0755L213.76 87.077C221.845 83.9634 230.579 81.439 239.898 79.459C243.166 78.7643 246.546 78.2052 249.928 77.6458L249.928 77.6457L249.928 77.6457L249.929 77.6457L249.929 77.6457L249.929 77.6456L249.929 77.6456C251.803 77.3357 253.677 77.0256 255.533 76.6924L256.265 76.5615C256.999 76.4305 257.733 76.2995 258.466 76.166C258.893 75.7921 259.32 75.3943 259.741 74.9741L258.973 75.1266C258.539 75.212 258.106 75.2977 257.672 75.3833L257.666 75.3845L257.66 75.3857L257.654 75.3869C253.676 76.1733 249.688 76.9617 245.602 77.5717C236.615 78.9132 228.411 81.0696 220.709 83.6882C211.922 86.6747 203.672 90.047 195.677 93.5584C192.98 94.7431 190.231 95.8897 187.431 97H185.214L185.23 96.9936C189.699 95.2355 194.033 93.3891 198.368 91.5423L198.368 91.5423L198.368 91.5422L198.368 91.5421L198.368 91.542L198.369 91.5419L198.369 91.5418L198.369 91.5417L198.369 91.5416L198.37 91.5415L198.371 91.541C201.406 90.2479 204.441 88.9547 207.523 87.6917L208.271 87.3848C214.231 84.9404 220.201 82.492 226.995 80.636C227.835 80.4065 228.671 80.1718 229.506 79.9372L229.506 79.937L229.507 79.9369L229.507 79.9367L229.508 79.9366L229.508 79.9365L229.509 79.9363L229.51 79.9362L229.51 79.936C233.022 78.9492 236.532 77.9629 240.413 77.3639C240.9 77.289 241.388 77.2152 241.876 77.1415L241.877 77.1414C243.708 76.8645 245.542 76.5874 247.327 76.2498C251.458 75.4676 255.554 74.6331 259.647 73.7972H259.644C260.145 73.694 260.636 73.5833 261.122 73.4682C262.111 72.2942 263.004 70.9872 263.684 69.5515C262.273 69.9254 260.783 70.223 259.185 70.4323C251.564 71.4283 243.853 72.1133 236.002 72.4109C231.627 72.5768 227.608 73.2393 224.242 74.7468C223.188 75.2179 222.101 75.68 220.947 76.0867C219.389 76.6366 217.816 77.1752 216.243 77.7138L216.242 77.7141L216.241 77.7145L216.24 77.7148L216.239 77.7151L216.238 77.7154L216.238 77.7157L216.237 77.7161L216.236 77.7164L216.235 77.7167L216.233 77.7171C214.31 78.3758 212.386 79.0344 210.491 79.7133C208.168 80.545 205.864 81.39 203.559 82.235L203.558 82.2354L203.557 82.2359L203.556 82.2363L203.555 82.2368L203.553 82.2372L203.552 82.2377L203.551 82.2381L203.55 82.2386L203.548 82.239L203.547 82.2396C200.547 83.3394 197.548 84.4391 194.508 85.5098C191.06 86.7241 187.403 87.7784 183.266 88.2779C182.215 88.405 181.07 88.4035 179.983 88.3616C179.138 88.3302 178.717 87.9668 178.97 87.5571C179.232 87.1368 179.58 86.7002 180.116 86.3622C181.346 85.5875 182.616 84.8144 184.041 84.1354C188.117 82.1933 192.219 80.2662 196.322 78.3389C198.683 77.2298 201.044 76.1206 203.401 75.0085C203.987 74.7316 204.591 74.4613 205.196 74.1908L205.196 74.1907L205.196 74.1906L205.197 74.1905L205.197 74.1904L205.197 74.1903L205.197 74.1902L205.198 74.1901L205.198 74.19L205.199 74.1897C206.765 73.4892 208.333 72.7874 209.599 71.9667C213.197 69.6307 215.891 66.9823 218.25 64.2844C220.756 61.4161 223.627 58.6853 227.861 56.3987C235.378 52.34 240.896 47.5978 246.27 42.8108C245.593 42.4085 244.868 41.9599 244.109 41.4694C243.405 42.1393 242.639 42.7988 241.806 43.4449C240.125 44.7504 238.594 46.1143 237.198 47.5036C234.218 50.4677 230.564 53.1879 226.306 55.7108C223.444 57.4082 220.753 59.1938 218.998 61.2426C216.657 63.9719 213.612 66.4783 210.438 68.9593C208.745 70.2843 206.705 71.4373 204.214 72.3854C203.824 72.5335 203.433 72.6801 203.041 72.8268C201.851 73.2728 200.66 73.7189 199.535 74.2039C190.174 78.2417 179.836 81.5034 168.885 84.2984C165.325 85.2077 161.751 86.1349 158.418 87.2355C154.537 88.515 151.188 90.1273 147.84 91.7394L147.839 91.7396L147.839 91.7398L147.838 91.74L147.838 91.7403L147.837 91.7405L147.837 91.7407L147.836 91.741L147.836 91.7412L147.835 91.7414C146.809 92.2352 145.784 92.7289 144.743 93.213C143.928 93.5922 143.113 93.9719 142.299 94.3515L142.289 94.3563L142.287 94.3569C138.514 96.1155 134.74 97.8742 130.904 99.5962L128.351 98.2445C132.78 96.4135 137.131 94.5336 141.483 92.6535L141.484 92.6528C142.584 92.1778 143.684 91.7027 144.784 91.2284C145.73 90.8211 146.667 90.4086 147.605 89.9961L147.606 89.9957L147.606 89.9956C151.739 88.1773 155.874 86.3585 160.661 84.9788C164.639 83.8317 168.7 82.752 172.79 81.7082C181.485 79.4889 189.529 76.7716 197.147 73.7088C198.35 73.2252 199.578 72.7571 200.806 72.2891L200.806 72.2888C202.194 71.7596 203.582 71.2305 204.935 70.679C205.945 70.2677 206.893 69.7772 207.626 69.2373C208.296 68.744 208.986 68.2567 209.677 67.7692C211.95 66.1642 214.226 64.5575 215.771 62.729C218.444 59.5646 222.207 56.7695 226.409 54.0971L226.406 54.0986C229.831 51.9212 232.516 49.5164 234.863 46.9936C236.514 45.2159 238.4 43.4921 240.283 41.7714C240.529 41.5465 240.775 41.3217 241.02 41.0969C241.382 40.7649 241.727 40.4299 242.056 40.0919C241.641 39.8003 241.217 39.4982 240.793 39.1857C240.322 39.7031 239.822 40.2146 239.283 40.72L238.957 41.0249L238.957 41.025L238.957 41.0251C237.411 42.4704 235.858 43.9221 234.604 45.4338C231.724 48.9018 228.035 52.1021 223.532 55.0946C221.041 56.7501 218.762 58.5252 216.904 60.3796C214.69 62.5914 212.367 64.7419 209.543 66.7743C206.984 68.6182 204.181 70.2857 200.421 71.515C198.828 72.0369 197.297 72.6111 195.777 73.1869C188.372 75.9939 180.743 78.626 172.38 80.6523C162.122 83.1393 152.746 86.2888 144.196 90.0843C138.754 92.501 133.236 94.8699 127.421 97.0593C127.166 97.1553 126.912 97.252 126.66 97.3495L126 97H124.535C125.304 96.6904 126.077 96.383 126.851 96.0755L126.851 96.0755L126.851 96.0755L126.851 96.0755L126.851 96.0755L126.851 96.0754L126.851 96.0754C128.255 95.5174 129.659 94.9594 131.039 94.3884C133.014 93.5714 134.978 92.7475 136.942 91.9237C139.846 90.7057 142.75 89.4876 145.688 88.2913C152.567 85.4888 159.772 82.9345 167.64 80.8797C168.161 80.7436 168.682 80.608 169.204 80.4722L169.209 80.4709C172.907 79.509 176.615 78.5445 180.13 77.4296C186.455 75.4242 192.624 73.2886 198.787 71.1546C201.045 70.3725 203.236 69.5126 205.209 68.5554C206.618 67.8723 207.75 67.0286 208.861 66.2006L208.861 66.2005L209.066 66.0475C209.443 65.7675 209.826 65.4888 210.21 65.2098C211.683 64.1385 213.162 63.0636 214.281 61.9021C216.707 59.3852 219.419 56.9729 222.732 54.7327C226.18 52.4028 229.321 49.9801 231.595 47.2852C231.925 46.8927 232.252 46.4989 232.579 46.1049L232.579 46.1047C233.775 44.6617 234.973 43.2174 236.388 41.8312C237.575 40.6692 238.653 39.4908 239.615 38.2929C238.976 37.7994 238.335 37.2834 237.696 36.7436C236.73 38.1359 235.64 39.5087 234.454 40.8681C232.97 42.567 231.668 44.3077 230.381 46.0485C228.255 48.9213 225.164 51.5129 221.666 53.9925C218.497 56.2387 215.57 58.5567 213.321 61.0825C212.084 62.4724 210.276 63.6645 208.464 64.8587C207.96 65.1911 207.456 65.5236 206.964 65.8606H206.973C204.246 67.727 200.821 69.1237 196.932 70.3231C193.487 71.3856 190.089 72.4882 186.692 73.5907L186.691 73.591C183.332 74.6811 179.972 75.7712 176.568 76.8225C174.205 77.5526 171.768 78.2201 169.331 78.8878L169.331 78.8879L169.331 78.8879L169.331 78.888L169.331 78.888L169.33 78.8881L169.33 78.8882L169.329 78.8884C167.274 79.4514 165.219 80.0144 163.208 80.615C154.866 83.105 147.117 86.0137 139.702 89.1736C135.129 91.1238 130.331 92.9456 125.544 94.7635L125.544 94.7636L125.445 94.8011C123.586 95.5066 121.78 96.24 120.024 97H115.857C120.056 95.1145 124.527 93.3936 129.005 91.6697L129.005 91.6697L129.211 91.5904C132.184 90.4463 135.062 89.2391 137.941 88.0317L137.942 88.0315C139.605 87.334 141.268 86.6364 142.95 85.9509C150.738 82.776 158.647 79.6923 167.375 77.1829C169.404 76.5982 171.29 75.8824 173.173 75.1678L173.174 75.1674L173.175 75.167L173.176 75.1666L173.177 75.1663L173.178 75.1659L173.179 75.1655L173.18 75.1651L173.181 75.1648C173.791 74.9336 174.399 74.7025 175.013 74.4761C175.462 74.3102 175.837 74.0938 176.213 73.8774C176.385 73.7777 176.558 73.6781 176.738 73.5833C176.676 73.5354 176.612 73.4891 176.55 73.4427C176.454 73.4543 176.355 73.4628 176.255 73.4712C176.047 73.489 175.838 73.5068 175.661 73.5534C173.295 74.1775 170.863 74.7373 168.431 75.2969C163.709 76.3839 158.988 77.4705 154.755 79.0283C152.031 80.0303 149.348 81.0607 146.665 82.091L146.664 82.0915C144.022 83.1064 141.379 84.1213 138.698 85.109C134.143 86.7869 129.538 88.4334 124.824 89.9932C118.348 92.1361 112.171 94.4528 106.281 97H99.6884C101.663 96.1399 103.63 95.2749 105.597 94.4097L105.599 94.4089L105.601 94.4081L105.603 94.4072L105.605 94.4064L105.607 94.4056L105.609 94.4048L105.61 94.4039L105.612 94.4031L105.614 94.4023L105.616 94.4015L105.618 94.4006L105.62 94.3998C106.199 94.1452 106.778 93.8906 107.357 93.6361C111.447 91.8392 115.976 90.2879 120.479 88.7459L120.479 88.7459L121.461 88.4094C129.915 85.5112 137.93 82.3408 145.635 78.9475L146.212 78.6938L146.628 78.5104L146.629 78.51L146.629 78.5097C151.411 76.4018 156.207 74.2881 161.657 72.6112C162.887 72.2328 164.139 71.8664 165.423 71.5374C169.183 70.5743 172.672 69.4049 175.881 68.0245C181.011 65.8202 186.608 64.0226 192.759 62.6199C198.604 61.2874 203.354 59.258 206.793 56.4406C208.682 54.8935 210.676 53.3803 212.671 51.867L212.672 51.8666C214.082 50.7966 215.493 49.7267 216.866 48.6446ZM90.6227 97H74.3475C75.4464 96.611 76.5504 96.2254 77.6583 95.8421C78.6264 95.5074 79.5965 95.1738 80.5668 94.8402C85.2067 93.2448 89.8504 91.6481 94.2947 89.9215C99.6832 87.8278 105.133 85.794 110.925 84.0009C118.516 81.6515 125.733 79.0329 132.441 76.0734C136.281 74.3784 140.034 72.6308 143.786 70.8836L143.786 70.8835L143.786 70.8835L143.786 70.8834L143.786 70.8833L143.79 70.8817C145.174 70.237 146.558 69.5923 147.947 68.9504C152.045 67.0556 156.271 65.2521 161.182 63.9031C163.491 63.2691 165.352 62.3508 166.974 61.316C169.012 60.0164 171.035 58.7078 172.987 57.3739C176.662 54.8585 180.436 52.3954 185.26 50.4019C186.349 49.9503 187.412 49.4777 188.416 48.9782C193.587 46.409 197.609 43.4121 201.198 40.2402C203.928 37.8279 206.11 35.335 207.005 32.5654V32.5639C207.173 32.0427 207.343 31.521 207.521 31H219.555C219.23 32.0153 218.976 33.0389 218.723 34.0604L218.723 34.0617L218.722 34.063L218.722 34.0643L218.722 34.0656L218.721 34.0669L218.721 34.0683L218.721 34.0696L218.72 34.071C218.648 34.3644 218.575 34.6577 218.5 34.9505C217.458 39.0556 214.546 42.7988 209.991 46.1995C206.799 48.5814 203.456 50.91 200.112 53.2386C199.618 53.5826 199.124 53.9265 198.631 54.2706C196.87 55.4969 194.547 56.4226 191.956 57.1674C186.476 58.7421 181.523 60.6533 177.153 62.9638C175.275 63.9583 173.329 64.9349 171.217 65.7978C169.295 66.5844 167.236 67.3426 165.013 67.8705C159.881 69.0923 155.414 70.7508 151.206 72.656C150.016 73.1953 148.829 73.7363 147.641 74.2772C139.3 78.0765 130.957 81.877 121.673 85.0999C120.421 85.5344 119.165 85.9661 117.909 86.3978L117.909 86.3978L117.909 86.3979L117.909 86.3979L117.909 86.398L117.909 86.398L117.908 86.3981L117.908 86.3982L117.908 86.3982L117.908 86.3983L117.908 86.3983L117.908 86.3984L117.907 86.3984C113.851 87.7926 109.793 89.1873 105.879 90.6796C103.512 91.582 101.26 92.5617 99.0083 93.5415L99.0077 93.5417L99.0072 93.5419L99.0071 93.542C97.0799 94.3805 95.1525 95.2192 93.1525 96.0095C92.3119 96.3414 91.4684 96.6715 90.6227 97ZM32.8678 87.4156L30.9611 85.1685C34.7741 84.0112 38.2554 82.6185 41.3966 80.9829L41.802 80.7715L41.8022 80.7714C43.6081 79.8293 45.4249 78.8815 47.4329 78.0592C50.3479 76.865 53.3184 75.7064 56.2895 74.5476L56.2901 74.5474L56.2906 74.5472C58.301 73.7631 60.3117 72.9789 62.3056 72.1835C64.67 71.2398 67.008 70.2722 69.237 69.2478C72.2522 67.8615 74.4105 66.1537 75.6796 64.1946L75.7311 64.1151L75.7312 64.1149C77.9519 60.6899 80.1736 57.2631 82.1663 53.804C82.8701 52.5792 83.3088 51.2378 83.1351 49.9756C82.7964 47.511 81.9425 45.0704 80.4232 42.7001C78.0116 38.9374 77.8173 35.1524 80.5174 31.4062C80.615 31.2707 80.713 31.1353 80.8114 31H88.6991C88.5153 31.4903 88.34 31.9818 88.1704 32.4741C87.1664 35.3903 87.9908 38.1644 90.7174 40.786C91.2238 41.2732 91.7253 41.7618 92.2269 42.2505L92.2271 42.2507L92.2273 42.2509L92.2275 42.2512L92.2278 42.2514L92.228 42.2516L92.2282 42.2518L92.2285 42.2521L92.2287 42.2523L92.2289 42.2525L92.2291 42.2528L92.2294 42.253L92.2296 42.2532L92.2301 42.2537L92.2306 42.2541L92.231 42.2546L92.2318 42.2553L92.2327 42.2562L92.2329 42.2564C93.5288 43.519 94.8247 44.7816 96.2031 46.0202C97.4928 47.1821 97.9521 48.3696 97.3397 49.6616C97.2988 49.7472 97.2591 49.833 97.2194 49.9189C97.0648 50.2535 96.9097 50.5891 96.6801 50.9104C93.2968 55.666 89.4012 60.3065 84.5546 64.7301C81.4746 67.5416 77.8117 70.1333 72.7177 72.0983C69.4035 73.3765 65.9784 74.5795 62.5552 75.7818L61.6021 76.1167C60.7867 76.4032 59.9689 76.6881 59.1511 76.9729L59.1493 76.9735L59.1463 76.9746C54.2422 78.6825 49.3396 80.39 44.9774 82.462C44.7016 82.5929 44.4261 82.724 44.1506 82.8551L44.1451 82.8577L44.145 82.8577L44.145 82.8577C41.0758 84.3183 38.0058 85.7793 34.4331 86.9245C33.9146 87.0908 33.3924 87.2542 32.8678 87.4156ZM168.313 31H158.398C158.099 31.2675 157.783 31.5316 157.449 31.7922C152.717 35.4875 149.057 39.4475 145.615 43.4749C143.937 45.4384 142.158 47.39 140.112 49.2579C137.541 51.6043 133.749 53.4691 129.947 55.3056C128.595 55.9592 127.222 56.6025 125.849 57.2457L125.849 57.2457C123.396 58.3949 120.943 59.544 118.608 60.7521C116.58 61.8019 114.846 63.0066 113.129 64.2001L112.784 64.44C109.047 67.0302 105.154 69.5515 100.855 71.9084C96.4092 74.3445 90.953 76.0733 85.3084 77.681C79.5504 79.3212 73.804 80.9705 68.0573 82.62L68.0559 82.6203L68.0531 82.6212L68.0503 82.622L68.0474 82.6228L68.0446 82.6236L68.0418 82.6244C65.0802 83.4744 62.1186 84.3245 59.1552 85.1733C55.1095 86.3323 51.5407 87.8113 48.1487 89.4085C44.9854 90.8989 41.5465 92.1785 37.7933 93.2207L39.1567 94.8276C43.5612 93.6101 47.6653 92.1848 51.3698 90.4464C55.3184 88.5935 59.8588 87.1802 64.5259 85.8538C68.1706 84.8179 71.8074 83.7745 75.4443 82.7311L75.445 82.7309L75.4451 82.7309L75.4453 82.7308L75.4455 82.7308L75.4456 82.7307L75.4458 82.7307L75.4459 82.7306L75.4461 82.7306L75.4463 82.7305L75.4464 82.7305L75.4466 82.7304L75.4468 82.7304L75.4469 82.7304L75.4471 82.7303L75.4472 82.7303C81.5231 80.9871 87.599 79.2439 93.7119 77.5359C100.452 75.6516 106.064 73.1377 110.822 70.0944C111.936 69.3826 113.032 68.6631 114.128 67.9436C116.76 66.2156 119.393 64.4875 122.262 62.8667C124.736 61.4677 127.527 60.2112 130.314 58.9561C131.183 58.5651 132.051 58.1741 132.909 57.7791C133.437 57.5361 133.969 57.2944 134.501 57.0527C138.074 55.4279 141.654 53.8005 144.246 51.7254C146.277 50.0987 148.081 48.3955 149.881 46.6954L149.881 46.6951L149.883 46.6938L149.883 46.6934L149.884 46.693L149.884 46.6926L149.884 46.6922C150.129 46.4616 150.373 46.231 150.617 46.0007C152.717 44.0282 154.731 42.0317 156.73 40.0322C159.41 37.3523 162.823 34.919 166.239 32.483C166.697 32.1567 167.154 31.8304 167.61 31.5035L167.88 31.3105L168.313 31ZM51.4109 97H58.7203C61.993 95.6711 65.5484 94.549 69.2487 93.5391C69.5811 93.4483 69.9139 93.3578 70.2468 93.2672L70.2544 93.2651L70.2545 93.2651C72.3426 92.6971 74.4325 92.1287 76.4392 91.4947L77.6499 91.113L77.6502 91.1129C81.8601 89.7858 86.0749 88.4572 90.14 87.0203C95.8494 85.0014 101.892 83.2756 108.004 81.6126C117.023 79.1585 125.203 76.1526 132.22 72.3616C134.908 70.9098 137.87 69.6158 140.833 68.3219L140.834 68.3215C142.311 67.6762 143.789 67.031 145.232 66.3662L145.252 66.357L145.253 66.3566C150.528 63.9252 155.824 61.4845 160.658 58.8365C162.83 57.6469 164.63 56.2821 166.431 54.9169C167.281 54.2722 168.131 53.6275 169.021 53.0011C169.734 52.4983 170.441 51.9933 171.149 51.4883C173.288 49.9624 175.426 48.4365 177.716 46.9713C179.203 46.0187 181.09 45.1977 183.001 44.4499C188.49 42.3009 192.371 39.5163 195.727 36.494C197.657 34.7555 198.984 32.9228 199.83 31H193.086C191.366 33.688 188.641 36.1373 184.88 38.3438C183.964 38.8822 182.939 39.3922 181.818 39.8154C176.659 41.758 172.704 44.2286 169.215 46.9354C165.702 49.6616 162.072 52.349 158.42 55.0274C153.827 58.3967 148.218 61.3174 142.329 64.087L141.923 64.2776C136.337 66.9026 130.763 69.5224 125.651 72.3959C120.198 75.4632 113.708 77.8769 106.512 79.7806C97.7399 82.1016 89.245 84.6514 80.9562 87.3926C76.2715 88.9419 71.4013 90.3522 66.5046 91.722C62.0646 92.964 58.0403 94.4904 54.0062 96.0206C53.3237 96.2795 52.6409 96.5385 51.9557 96.7962C51.7744 96.8644 51.5928 96.9323 51.4109 97ZM13 64L13.1952 63.7699L13.5727 64.675L13 64ZM261.422 57.0776C260.939 57.9929 260.568 58.929 261.063 59.8816C261.564 60.8447 262.954 61.3368 264.838 61.1543C264.564 59.5661 263.934 57.4021 262.518 55.0587C262.147 55.7302 261.779 56.4032 261.422 57.0776ZM264.608 67.0301C263.239 67.4713 261.761 67.8153 260.106 68.0022C252.854 68.8187 245.537 69.23 238.093 68.8651C232.923 68.6124 228.079 69.0894 223.986 70.8122C222.55 71.4172 221.246 72.1062 219.944 72.7939C219.634 72.9578 219.324 73.1216 219.013 73.2842C216.545 74.5718 213.819 75.6695 210.518 76.3545C210.19 76.423 209.832 76.4551 209.476 76.4872L209.475 76.4873C209.31 76.5021 209.146 76.517 208.984 76.5354C208.945 76.51 208.906 76.4846 208.867 76.4591L208.866 76.4585L208.811 76.4222L208.751 76.3829C208.87 76.2822 208.986 76.1804 209.102 76.0787C209.349 75.8617 209.595 75.6449 209.876 75.4392C210.377 75.0709 210.906 74.7102 211.436 74.3495L211.436 74.3493C212.514 73.6145 213.593 72.8797 214.434 72.0804C216.931 69.7115 219.316 67.3023 221.433 64.8392C223.856 62.0233 227.139 59.5378 231.421 57.3888C237.943 54.1137 243.691 50.5574 248.337 46.5077C248.941 45.9812 249.518 45.4488 250.068 44.915C250.693 45.2305 251.049 45.395 251.049 45.395C252.86 46.2519 254.435 47.1716 255.81 48.1243C254.432 50.0116 252.913 51.8704 251.055 53.656C250.112 54.562 249 55.4221 247.888 56.2822C247.274 56.7566 246.661 57.2311 246.076 57.7133C245.877 57.8766 245.675 58.0394 245.473 58.2023C244.663 58.8553 243.85 59.5103 243.237 60.2092C242.015 61.6015 242.642 62.7411 244.93 63.7341C247.065 64.6613 249.609 65.1174 252.356 65.2849C254.303 65.4045 256.261 65.4853 258.219 65.5436C260.786 65.6214 262.989 65.2385 265 64.6104C264.947 65.4464 264.815 66.254 264.611 67.0301H264.608Z" fill="url(#paint3_linear_3419_7187)"/>
<g id="Dust">
<mask id="mask0_3419_7187" style="mask-type:alpha" maskUnits="userSpaceOnUse" x="13" y="31" width="260" height="75">
<path id="body-shape_2" d="M41 31H245L273 64L245 97H160L143 106L126 97H41L13 64L41 31Z" fill="#333333"/>
</mask>
<g mask="url(#mask0_3419_7187)">
<g id="Dust_2" opacity="0.3">
<path id="Vector" d="M111.753 42.9942C111.795 43.1021 111.837 43.21 111.88 43.3179C111.883 43.526 111.887 43.7315 111.894 43.9395C111.862 44.0577 111.83 44.1784 111.798 44.2966C111.499 44.3839 111.199 44.4096 110.896 44.3094C110.871 43.9729 110.847 43.6364 110.822 43.3025C110.882 43.2023 110.893 43.0996 110.861 42.9917C110.967 42.9326 110.998 42.8555 110.959 42.7631C111.097 42.7245 111.234 42.686 111.372 42.6475C111.499 42.7631 111.626 42.8812 111.753 42.9968V42.9942Z" fill="#F5F1EE"/>
<path id="Vector_2" d="M74.1441 47.4837C73.9643 47.0855 74.3556 46.8209 74.5671 46.5127H74.5742C74.7222 46.5127 74.8667 46.5153 75.0148 46.5204C75.043 46.6206 75.0641 46.7259 75.0747 46.8312C75.0994 46.9468 75.1205 47.065 75.1417 47.1806C75.2474 47.2807 75.3497 47.3784 75.4554 47.4785C75.4484 47.5736 75.4413 47.6712 75.4413 47.7663C75.3038 47.7919 75.1664 47.8202 75.0324 47.8562C74.8773 47.8818 74.7222 47.9101 74.5671 47.9358C74.4966 47.8793 74.5001 47.8228 74.5777 47.7714C74.5283 47.5993 74.3556 47.5299 74.1476 47.4862L74.1441 47.4837Z" fill="#F5F1EE"/>
<path id="Vector_3" d="M178.338 32.7241C178.934 32.5853 179.325 32.6676 179.279 33.2019C179.258 33.4639 179.216 33.7233 179.181 33.9828L179.191 33.9751C178.761 34.0264 178.666 33.6874 178.363 33.5897C178.433 33.4921 178.409 33.4099 178.285 33.3457C178.306 33.1351 178.327 32.9244 178.349 32.7138L178.338 32.7241Z" fill="#F5F1EE"/>
<path id="Vector_4" d="M147.261 73.4967C146.686 73.2784 146.803 73.0549 147.25 72.8314C147.483 72.8006 147.606 72.685 147.677 72.5283C147.962 72.5386 148.354 72.5206 148.407 72.7518C148.495 73.1191 148.022 73.1243 147.684 73.1859C147.448 73.2193 147.328 73.3375 147.261 73.4942V73.4967Z" fill="#F5F1EE"/>
<path id="Vector_5" d="M144.388 104.684V104.669C144.829 105.126 144.987 105.56 144.187 105.91L144.201 105.92C143.997 105.63 143.655 105.368 143.849 104.995L143.792 105.041C143.99 104.923 144.191 104.805 144.388 104.687V104.684Z" fill="#F5F1EE"/>
<path id="Vector_6" d="M198.311 46.4858C198.121 46.4858 197.931 46.4858 197.74 46.4858C197.687 46.2829 197.635 46.0774 197.585 45.8744C197.874 45.7717 198.167 45.6715 198.456 45.5687L198.442 45.561C198.569 45.7665 198.692 45.972 198.819 46.1775L198.872 46.1544C198.685 46.2649 198.498 46.3753 198.311 46.4832V46.4858Z" fill="#F5F1EE"/>
<path id="Vector_7" d="M47.3997 30.8618L47.3892 30.9594C46.9979 31.1726 46.5784 31.1521 46.1483 31.0442L46.2012 31.0801C46.0567 30.7745 46.0637 30.4688 46.2118 30.1631L46.1589 30.2145C46.7758 30.2196 47.1213 30.5047 47.3962 30.8618H47.3997Z" fill="#F5F1EE"/>
<path id="Vector_8" d="M84.2429 85.3453C84.1477 84.7288 84.0278 84.1123 84.3733 83.5112H84.4861C84.6024 84.138 85.1594 84.793 84.2429 85.3453Z" fill="#F5F1EE"/>
<path id="Vector_9" d="M157.315 39.1305C158.513 39.3257 158.661 39.4798 158.22 40.0835C158.065 39.9782 157.91 39.8703 157.755 39.765H157.759C157.611 39.6648 157.459 39.5595 157.311 39.4542L157.304 39.449C157.304 39.3411 157.304 39.2358 157.315 39.1279V39.1305Z" fill="#F5F1EE"/>
<path id="Vector_10" d="M230.573 91.5073C230.495 91.7898 230.421 92.075 230.344 92.3575L230.368 92.3473L229.579 92.0493C229.586 91.9054 229.596 91.7616 229.603 91.6177C229.734 91.5869 229.85 91.5381 229.952 91.4688C230.16 91.4816 230.368 91.4944 230.576 91.5073H230.573Z" fill="#F5F1EE"/>
<path id="Vector_11" d="M223.272 85.3445H223.131C223.053 85.1442 222.976 84.9438 222.898 84.7435C222.99 84.6844 223.029 84.6124 223.018 84.5225C223.3 84.4712 223.579 84.4172 223.861 84.3633C223.853 84.5842 223.846 84.8025 223.839 85.0235C223.649 85.1288 223.462 85.2367 223.272 85.342V85.3445Z" fill="#F5F1EE"/>
<path id="Vector_12" d="M172.208 82.452C172.208 82.3673 172.208 82.2799 172.208 82.1952C172.345 82.077 172.486 81.9588 172.624 81.8407H172.631C172.839 81.7456 173.047 81.6531 173.258 81.5632L173.315 81.5581C173.385 81.761 173.459 81.964 173.53 82.1669L173.516 82.1772C173.283 82.2131 173.135 82.3133 173.075 82.4854C172.786 82.4751 172.497 82.4623 172.208 82.452Z" fill="#F5F1EE"/>
<path id="Vector_13" d="M79.7236 64.2525C79.6108 64.3013 79.4875 64.399 79.3923 64.3861C79.1491 64.3501 79.0715 64.1986 79.209 64.0522C79.2654 63.9931 79.4875 63.9546 79.5685 63.988C79.6602 64.0265 79.6743 64.1601 79.7236 64.2525Z" fill="#F5F1EE"/>
<path id="Vector_14" d="M107.858 73.0727C107.618 73.0573 107.467 72.9622 107.502 72.785C107.537 72.6155 107.717 72.5281 107.939 72.5769C108.041 72.6 108.165 72.6951 108.189 72.7721C108.246 72.952 108.087 73.0444 107.858 73.0727Z" fill="#F5F1EE"/>
<path id="Vector_15" d="M150.705 80.5511C150.377 80.5228 149.993 80.5049 150.063 80.1709C150.109 79.9603 150.43 79.9372 150.694 79.9243C150.698 80.1324 150.701 80.3405 150.705 80.5511Z" fill="#F5F1EE"/>
<path id="Vector_16" d="M60.4566 92.1806C60.3508 92.2345 60.2415 92.3399 60.1464 92.3347C59.8961 92.3167 59.7974 92.1729 59.9172 92.0136C59.9666 91.9494 60.1887 91.8955 60.2803 91.9237C60.372 91.952 60.4002 92.0907 60.4566 92.1806Z" fill="#F5F1EE"/>
<path id="Vector_17" d="M78.5225 96.0311C78.0924 95.895 78.0678 95.6227 78.096 95.335C78.7728 95.3889 79.1464 95.5456 78.5225 96.0311Z" fill="#F5F1EE"/>
<path id="Vector_18" d="M183.139 96.9423C183.136 96.7316 183.153 96.467 183.457 96.4285C183.947 96.3643 183.982 96.6725 184.013 96.9346L183.136 96.9423H183.139Z" fill="#F5F1EE"/>
<path id="Vector_19" d="M54.876 104.004C54.8795 103.791 54.8865 103.578 54.8901 103.365C55.1686 103.378 55.5246 103.396 55.5704 103.616C55.6515 103.984 55.2109 103.971 54.876 104.004Z" fill="#F5F1EE"/>
<path id="Vector_20" d="M161.693 33.2482C161.471 33.2046 161.365 33.089 161.439 32.94C161.471 32.8783 161.647 32.8115 161.749 32.8167C161.978 32.8321 162.066 32.9708 161.999 33.1172C161.971 33.1789 161.799 33.2046 161.693 33.2482Z" fill="#F5F1EE"/>
<path id="Vector_21" d="M194.941 37.5727C194.951 37.7834 194.958 37.994 194.969 38.2072C194.687 38.161 194.405 38.1173 194.119 38.0711C194.141 37.9812 194.105 37.9041 194.021 37.8373C194.045 37.732 194.067 37.6267 194.084 37.5239C194.37 37.5419 194.655 37.5573 194.941 37.5727Z" fill="#F5F1EE"/>
<path id="Vector_22" d="M159.059 38.4385C159.443 38.4693 159.835 38.4822 159.993 38.8135L159.944 38.8443C159.796 38.9394 159.644 39.0319 159.496 39.1269L159.292 39.1218H159.087C158.936 39.0087 158.788 38.8932 158.636 38.7801C158.777 38.6671 158.918 38.5515 159.059 38.4385Z" fill="#F5F1EE"/>
<path id="Vector_23" d="M40.5431 80.2024C40.2399 79.6347 40.522 79.4652 41.2798 79.6219L41.2693 79.6091C41.2728 79.7118 41.2869 79.8171 41.3151 79.9173V79.9224C41.1459 80.0226 40.9767 80.1228 40.811 80.223L40.6841 80.1767L40.5466 80.1999L40.5431 80.2024Z" fill="#F5F1EE"/>
<path id="Vector_24" d="M51.4079 86.6531C51.4008 86.4707 51.3444 86.2292 51.6863 86.219C51.9754 86.2113 52.1023 86.4116 52.1199 86.6223C51.8837 86.6325 51.644 86.6428 51.4079 86.6531Z" fill="#F5F1EE"/>
<path id="Vector_25" d="M199.771 34.0104L199.686 33.6559C199.753 33.5763 199.795 33.4889 199.806 33.3964C199.926 33.381 200.046 33.3682 200.165 33.3579C200.317 33.4838 200.472 33.6097 200.624 33.7381C200.592 33.792 200.592 33.8485 200.617 33.9051C200.335 33.941 200.053 33.977 199.771 34.0104Z" fill="#F5F1EE"/>
<path id="Vector_26" d="M189.266 92.748C189.418 92.8611 189.573 92.9741 189.724 93.0871L189.27 93.4108L189.263 93.4056C189.118 93.3003 188.973 93.195 188.829 93.0923L188.818 93.0846C188.818 92.9767 188.825 92.8688 188.825 92.7609C188.97 92.7532 189.114 92.7506 189.259 92.748H189.266Z" fill="#F5F1EE"/>
<path id="Vector_27" d="M230.85 45.2395C231.027 44.9955 231.291 44.8157 231.594 45.0829C231.778 45.2473 231.555 45.4373 231.309 45.5478C231.154 45.4451 231.002 45.3423 230.847 45.2395H230.85Z" fill="#F5F1EE"/>
<path id="Vector_28" d="M168.235 100.451C167.868 100.464 167.431 100.588 167.368 100.143L167.375 100.136C167.537 100.035 167.696 99.9351 167.858 99.835C167.974 99.835 168.091 99.835 168.207 99.835C168.21 100.043 168.217 100.251 168.221 100.459L168.239 100.451H168.235Z" fill="#F5F1EE"/>
<path id="Vector_29" d="M49.3064 100.817C49.5249 100.734 49.673 100.47 49.9867 100.642C50.0607 100.681 50.0748 100.86 50.0184 100.93C49.821 101.161 49.532 101.03 49.2747 100.991C49.3452 100.94 49.3557 100.881 49.3064 100.817Z" fill="#F5F1EE"/>
<path id="Vector_30" d="M227.35 101.769C227.301 101.497 227.41 101.279 227.731 101.125C227.893 101.235 228.059 101.348 228.221 101.458C228.207 101.541 228.203 101.623 228.214 101.705C227.928 101.726 227.639 101.749 227.354 101.769H227.35Z" fill="#F5F1EE"/>
<path id="Vector_31" d="M154.699 102.717C154.502 102.681 154.167 102.679 154.131 102.602C153.98 102.275 154.378 102.193 154.674 102.078C154.685 102.291 154.692 102.504 154.699 102.717Z" fill="#F5F1EE"/>
<path id="Vector_32" d="M49.9438 105.214C49.482 104.967 49.6159 104.672 49.8133 104.369L49.8556 104.356C50.1905 104.633 50.1517 104.931 49.9261 105.234L49.9438 105.211V105.214Z" fill="#F5F1EE"/>
<path id="Vector_33" d="M199.569 67.2169C199.457 67.258 199.333 67.3427 199.238 67.3299C199.005 67.2991 198.924 67.1578 199.037 67.0088C199.072 66.9626 199.291 66.9394 199.365 66.9728C199.464 67.0191 199.506 67.1321 199.573 67.2169H199.569Z" fill="#F5F1EE"/>
<path id="Vector_34" d="M70.2065 70.5771C70.1995 70.4794 70.1995 70.3818 70.1995 70.2842C70.3546 70.1789 70.5097 70.0761 70.6648 69.9708L70.6507 69.9837L70.8516 69.9914L71.0525 69.9862V69.9683C71.0596 70.1789 71.0631 70.3895 71.0666 70.6002C70.7776 70.5899 70.4885 70.5822 70.1995 70.5771H70.2065Z" fill="#F5F1EE"/>
<path id="Vector_35" d="M174.724 72.1858C174.665 72.2731 174.636 72.4041 174.541 72.435C174.453 72.4632 174.301 72.3887 174.175 72.3579C174.245 72.2706 174.291 72.1652 174.39 72.1036C174.531 72.0111 174.661 72.0522 174.724 72.1858Z" fill="#F5F1EE"/>
<path id="Vector_36" d="M222.54 75.0873C222.755 74.8766 223.03 74.6711 223.304 74.9845C223.463 75.1643 223.234 75.3467 222.952 75.4212C222.815 75.3107 222.677 75.1977 222.54 75.0873Z" fill="#F5F1EE"/>
<path id="Vector_37" d="M117.918 77.9755C118.074 77.7752 118.313 77.6313 118.574 77.8137C118.838 77.9986 118.638 78.1785 118.384 78.3018C118.229 78.1939 118.074 78.0834 117.918 77.9755Z" fill="#F5F1EE"/>
<path id="Vector_38" d="M75.4729 34.9487V34.3193C75.9876 34.53 75.9876 34.738 75.4729 34.9487Z" fill="#F5F1EE"/>
<path id="Vector_39" d="M78.935 35.5551C78.801 35.5782 78.6671 35.5987 78.5331 35.6244C78.2934 35.6681 78.1595 35.5602 78.0291 35.4421C78.1947 35.3727 78.3534 35.2802 78.5296 35.2417C78.6495 35.216 78.7975 35.2648 78.9315 35.2828C78.9138 35.3753 78.9138 35.4652 78.9315 35.5576L78.935 35.5551Z" fill="#F5F1EE"/>
<path id="Vector_40" d="M49.6201 35.5938C49.9092 35.6015 50.1982 35.6117 50.4873 35.6194C50.3463 35.7325 50.2088 35.8455 50.0678 35.9559C49.8316 35.8917 49.673 35.7787 49.6201 35.5938Z" fill="#F5F1EE"/>
<path id="Vector_41" d="M129.298 40.0963C129.59 40.0963 129.879 40.0963 130.169 40.0963C130.169 40.1991 130.169 40.2993 130.169 40.3994C129.879 40.402 129.587 40.4046 129.298 40.4071C129.298 40.3018 129.298 40.1965 129.298 40.0938V40.0963Z" fill="#F5F1EE"/>
<path id="Vector_42" d="M201.519 41.0578C201.53 40.8472 201.544 40.634 201.554 40.4233C201.664 40.4285 201.773 40.4311 201.882 40.4285C201.907 40.6366 201.935 40.8472 201.96 41.0553C201.812 41.0553 201.667 41.0553 201.519 41.0604V41.0578Z" fill="#F5F1EE"/>
<path id="Vector_43" d="M72.1315 42.2875C72.0751 42.1976 72.0187 42.1051 71.9623 42.0152C71.8459 41.8379 72.0046 41.689 72.1738 41.689C72.3394 41.689 72.4981 41.8354 72.3747 42.0126C72.3112 42.1025 72.2619 42.195 72.2055 42.2849H72.1315V42.2875Z" fill="#F5F1EE"/>
<path id="Vector_44" d="M129.435 42.5963C129.389 42.4037 129.344 42.2136 129.298 42.0209C129.442 42.0106 129.583 42.0209 129.724 42.0543C129.735 42.2649 129.65 42.4499 129.435 42.5963Z" fill="#F5F1EE"/>
<path id="Vector_45" d="M84.2118 42.9883C84.5009 42.9909 84.7864 42.996 85.0755 42.9986C85.0755 43.0859 85.072 43.1758 85.072 43.2631C84.7864 43.2683 84.5009 43.2734 84.2189 43.2786C84.2083 43.1835 84.2083 43.0859 84.2154 42.9908L84.2118 42.9883Z" fill="#F5F1EE"/>
<path id="Vector_46" d="M215.542 43.6257C215.108 43.5204 215.119 43.2558 215.119 42.9938L215.112 42.9989C215.238 42.9989 215.362 42.9963 215.489 42.9912C215.506 43.2018 215.524 43.4151 215.542 43.6257Z" fill="#F5F1EE"/>
<path id="Vector_47" d="M230.861 43.3173C231.15 43.3147 231.44 43.3121 231.729 43.3096C231.736 43.4149 231.736 43.5202 231.729 43.6255C231.44 43.6178 231.15 43.6101 230.858 43.605C230.858 43.5099 230.858 43.4149 230.858 43.3198L230.861 43.3173Z" fill="#F5F1EE"/>
<path id="Vector_48" d="M145.068 44.5843C145.065 44.3711 145.058 44.1605 145.054 43.9473C145.611 44.1528 145.608 44.366 145.068 44.5843Z" fill="#F5F1EE"/>
<path id="Vector_49" d="M145.46 45.4905C144.991 45.4237 144.977 45.1771 145.033 44.9048C145.541 44.9587 145.467 45.2387 145.46 45.4905Z" fill="#F5F1EE"/>
<path id="Vector_50" d="M77.6446 46.1944C77.0947 45.9838 77.1088 45.768 77.6376 45.5522C77.6376 45.7655 77.6411 45.9812 77.6446 46.1944Z" fill="#F5F1EE"/>
<path id="Vector_51" d="M40.0002 45.8813C40.4373 45.9815 40.4338 46.2384 40.4021 46.503C40.0355 46.3771 39.9967 46.1382 40.0002 45.8813Z" fill="#F5F1EE"/>
<path id="Vector_52" d="M153.888 51.951C153.877 51.7686 153.652 51.4501 153.948 51.4398C154.505 51.4193 154.117 51.7661 154.163 51.951H154.026H153.888Z" fill="#F5F1EE"/>
<path id="Vector_53" d="M97.8112 53.2485C97.8006 53.0379 97.7935 52.8272 97.783 52.6191C98.3893 52.8144 98.2976 53.0276 97.8112 53.2485Z" fill="#F5F1EE"/>
<path id="Vector_54" d="M133.689 55.534C133.978 55.5263 134.264 55.516 134.553 55.5083C134.553 55.6162 134.553 55.7241 134.553 55.832C134.264 55.8243 133.975 55.8191 133.686 55.8088C133.686 55.7164 133.686 55.6239 133.689 55.534Z" fill="#F5F1EE"/>
<path id="Vector_55" d="M43.4971 59.3618C43.7861 59.3644 44.0787 59.367 44.3678 59.3721C44.3678 59.4697 44.3678 59.5647 44.3642 59.6598C44.0752 59.6701 43.7861 59.6803 43.4971 59.6906C43.4971 59.5802 43.4971 59.4697 43.4971 59.3618Z" fill="#F5F1EE"/>
<path id="Vector_56" d="M85.9602 60.0044C85.9602 59.7912 85.9602 59.578 85.9637 59.3647C86.1012 59.3647 86.2422 59.3647 86.3797 59.3647C86.3867 59.578 86.3973 59.7912 86.4044 60.0069C86.2563 60.0069 86.1083 60.0069 85.9602 60.0069V60.0044Z" fill="#F5F1EE"/>
<path id="Vector_57" d="M150.825 61.0824C151.089 61.0464 151.354 61.0104 151.618 60.9771C151.618 61.0695 151.615 61.1594 151.611 61.2519C151.34 61.2185 151.065 61.1877 150.793 61.1543L150.825 61.0824Z" fill="#F5F1EE"/>
<path id="Vector_58" d="M43.4794 62.5694C42.9224 62.369 43 62.1558 43.4547 61.9375C43.4618 62.1481 43.4723 62.3588 43.4794 62.5694Z" fill="#F5F1EE"/>
<path id="Vector_59" d="M181.394 62.58L182.265 62.5723C182.265 62.6802 182.265 62.788 182.265 62.8959C181.972 62.8934 181.683 62.8908 181.391 62.8882C181.391 62.7855 181.391 62.6827 181.391 62.58H181.394Z" fill="#F5F1EE"/>
<path id="Vector_60" d="M182.25 63.8625C182.265 63.6648 182.275 63.4644 182.289 63.2666C182.758 63.4798 182.846 63.6827 182.25 63.8625Z" fill="#F5F1EE"/>
<path id="Vector_61" d="M41.7905 65.1316C41.7694 64.9209 41.7482 64.7077 41.7271 64.4971L42.1747 64.5022C42.1536 64.7103 42.1289 64.9209 42.1078 65.129L41.9491 65.1238L41.787 65.129L41.7905 65.1316Z" fill="#F5F1EE"/>
<path id="Vector_62" d="M183.157 65.786C182.526 65.6087 182.674 65.3878 183.086 65.1489C183.111 65.3621 183.132 65.5728 183.157 65.786Z" fill="#F5F1EE"/>
<path id="Vector_63" d="M152.506 65.8019C152.77 65.7788 153.165 65.7582 153.151 65.974C153.141 66.1512 152.721 66.1384 152.453 66.1153C152.485 66.0125 152.502 65.9072 152.51 65.8019H152.506Z" fill="#F5F1EE"/>
<path id="Vector_64" d="M155.559 67.0705C155.03 66.8753 155.09 66.6595 155.524 66.436C155.534 66.6467 155.548 66.8599 155.559 67.0705Z" fill="#F5F1EE"/>
<path id="Vector_65" d="M178.324 66.4258C178.613 66.4284 178.905 66.4309 179.195 66.4335C179.195 66.5285 179.195 66.6236 179.187 66.7186C178.898 66.7315 178.609 66.7469 178.32 66.7597C178.32 66.6493 178.32 66.5362 178.32 66.4258H178.324Z" fill="#F5F1EE"/>
<path id="Vector_66" d="M68.2047 67.9824C68.1447 67.7872 68.0848 67.592 68.0284 67.3993L68.0178 67.4044L68.2329 67.3916H68.4514C68.5395 67.6254 68.3703 67.8077 68.2399 67.9978L68.2047 67.9824Z" fill="#F5F1EE"/>
<path id="Vector_67" d="M71.0487 71.9004C71.0593 72.1136 71.0699 72.3294 71.0805 72.5426C70.6011 72.3396 70.5799 72.1264 71.0487 71.9004Z" fill="#F5F1EE"/>
<path id="Vector_68" d="M178.352 71.9429C178.86 72.1509 178.881 72.3487 178.324 72.5285C178.335 72.3333 178.345 72.1381 178.352 71.9429Z" fill="#F5F1EE"/>
<path id="Vector_69" d="M58.3801 72.5344C58.3907 72.6397 58.3907 72.7424 58.3801 72.8478C58.0911 72.8401 57.802 72.8298 57.5129 72.8221C57.6575 72.7142 57.8055 72.6089 57.95 72.501C58.091 72.5138 58.2356 72.5241 58.3766 72.5369L58.3801 72.5344Z" fill="#F5F1EE"/>
<path id="Vector_70" d="M126.865 74.4035C126.77 74.1724 126.389 73.8795 127.101 73.8256L127.091 73.8179C127.027 74.0182 126.96 74.216 126.897 74.4164L126.865 74.4035Z" fill="#F5F1EE"/>
<path id="Vector_71" d="M65.8425 74.1673L66.6956 74.1416C66.7132 74.2444 66.7132 74.3497 66.6956 74.4524C66.41 74.437 66.1245 74.4216 65.8354 74.4062C65.839 74.3266 65.839 74.2469 65.8354 74.1673H65.8425Z" fill="#F5F1EE"/>
<path id="Vector_72" d="M147.293 74.7351C147.279 74.5348 147.265 74.337 147.254 74.1366C147.409 74.134 147.561 74.1315 147.716 74.1289C147.822 74.4217 147.815 74.6735 147.296 74.7351H147.293Z" fill="#F5F1EE"/>
<path id="Vector_73" d="M195.836 74.1401C196.125 74.1401 196.415 74.1427 196.704 74.1453C196.704 74.2429 196.707 74.3405 196.704 74.4407C196.415 74.4484 196.122 74.4561 195.829 74.4638C195.829 74.3559 195.829 74.248 195.833 74.1427L195.836 74.1401Z" fill="#F5F1EE"/>
<path id="Vector_74" d="M100.868 74.4979C101.153 74.4825 101.439 74.4671 101.721 74.4517C101.721 74.5595 101.721 74.67 101.721 74.7779C101.435 74.7599 101.15 74.7394 100.864 74.7214C100.875 74.6469 100.875 74.5724 100.868 74.4953V74.4979Z" fill="#F5F1EE"/>
<path id="Vector_75" d="M43.4903 75.082C43.7793 75.1 44.0649 75.1154 44.3504 75.1334C44.3433 75.2105 44.3433 75.2875 44.3504 75.3646C44.0649 75.3851 43.7793 75.4057 43.4938 75.4262L43.4868 75.4211C43.4832 75.3132 43.4762 75.2028 43.4727 75.0949L43.4868 75.082H43.4903Z" fill="#F5F1EE"/>
<path id="Vector_76" d="M47.0113 75.0947C47.0042 75.3054 46.9936 75.516 46.9866 75.7266C46.5248 75.6342 46.5107 75.3799 46.5706 75.0999C46.7187 75.0999 46.8667 75.0973 47.0113 75.0947Z" fill="#F5F1EE"/>
<path id="Vector_77" d="M221.189 75.4146C221.488 75.4248 221.784 75.4351 222.084 75.4454C222.081 75.5302 222.081 75.6149 222.084 75.6997C221.799 75.71 221.513 75.7177 221.228 75.7279C221.217 75.6252 221.206 75.5199 221.189 75.4146Z" fill="#F5F1EE"/>
<path id="Vector_78" d="M85.939 77.3426C85.4773 77.1243 85.4526 76.9111 85.9531 76.7056C85.9496 76.9188 85.9426 77.132 85.939 77.3426Z" fill="#F5F1EE"/>
<path id="Vector_79" d="M141.554 76.7041C141.536 76.925 141.519 77.1459 141.501 77.3668C141.388 77.3566 141.279 77.3566 141.166 77.3668C141.149 77.1459 141.131 76.925 141.113 76.7041C141.261 76.7041 141.406 76.7041 141.554 76.7041Z" fill="#F5F1EE"/>
<path id="Vector_80" d="M78.5149 77.9904C78.5255 77.7798 78.5325 77.5666 78.5466 77.356C78.6665 77.356 78.7863 77.356 78.9062 77.356C78.9238 77.5666 78.945 77.7772 78.9626 77.9904C78.8145 77.9904 78.6629 77.9904 78.5149 77.9904Z" fill="#F5F1EE"/>
<path id="Vector_81" d="M179.205 77.9891C179.205 77.7759 179.208 77.5653 179.212 77.3521C179.342 77.3521 179.469 77.3521 179.6 77.3521L179.617 77.984H179.413H179.208L179.205 77.9891Z" fill="#F5F1EE"/>
<path id="Vector_82" d="M228.666 78.3096C228.958 78.3096 229.247 78.3147 229.54 78.3173C229.54 78.42 229.54 78.5202 229.54 78.623C229.251 78.623 228.958 78.6281 228.669 78.6281C228.666 78.5228 228.666 78.4149 228.669 78.3096H228.666Z" fill="#F5F1EE"/>
<path id="Vector_83" d="M92.0938 80.2485C92.3723 80.2639 92.6508 80.2794 92.9293 80.2973C92.9293 80.3744 92.9363 80.4515 92.9539 80.5285C92.6614 80.5516 92.3723 80.5748 92.0833 80.5953C92.0833 80.4797 92.0903 80.3641 92.0938 80.2485Z" fill="#F5F1EE"/>
<path id="Vector_84" d="M125.447 87.5921C125.416 87.3866 125.384 87.1836 125.352 86.9781H125.356C125.504 86.9781 125.652 86.9782 125.796 86.9756H125.8C125.765 87.1862 125.726 87.3943 125.691 87.6023L125.571 87.5895H125.447V87.5921Z" fill="#F5F1EE"/>
<path id="Vector_85" d="M90.3384 87.9495C90.631 87.9495 90.92 87.9469 91.2091 87.9443C91.2091 88.0471 91.2091 88.1524 91.2091 88.2552C90.92 88.2526 90.631 88.2474 90.3419 88.2449C90.3419 88.1473 90.3384 88.0471 90.3419 87.9469L90.3384 87.9495Z" fill="#F5F1EE"/>
<path id="Vector_86" d="M222.585 89.8474C222.736 89.5597 223.046 89.5109 223.417 89.5443C223.417 89.6625 223.424 89.7806 223.427 89.8988C223.135 89.8782 222.846 89.8602 222.553 89.8397L222.585 89.8474Z" fill="#F5F1EE"/>
<path id="Vector_87" d="M72.3747 90.831C71.9058 90.6101 71.8776 90.3969 72.3923 90.1914C72.3852 90.4046 72.3817 90.6178 72.3747 90.831Z" fill="#F5F1EE"/>
<path id="Vector_88" d="M82.0935 93.3711C82.0653 93.1656 82.0336 92.9602 82.0054 92.7547L82.0159 92.7495C82.164 92.7546 82.3085 92.7572 82.4566 92.7624C82.4777 93.0115 82.4284 93.2376 82.0935 93.3686V93.3711Z" fill="#F5F1EE"/>
<path id="Vector_89" d="M79.3998 93.0977C79.6854 93.1002 79.9709 93.1028 80.2564 93.1054C80.26 93.1927 80.26 93.2826 80.2564 93.3699C79.9709 93.3751 79.6819 93.3802 79.3963 93.3879C79.3857 93.2903 79.3893 93.1953 79.3963 93.0977H79.3998Z" fill="#F5F1EE"/>
<path id="Vector_90" d="M170.001 93.0737C170.273 93.0891 170.547 93.102 170.819 93.1174C170.664 93.3897 170.354 93.4411 169.998 93.4256C169.998 93.3075 169.998 93.1893 170.001 93.0737Z" fill="#F5F1EE"/>
<path id="Vector_91" d="M76.7881 95.6894C77.0525 95.6611 77.4755 95.6277 77.4719 95.8178C77.4684 96.013 77.0525 95.9694 76.7881 95.936C76.7881 95.8538 76.7881 95.769 76.7881 95.6868V95.6894Z" fill="#F5F1EE"/>
<path id="Vector_92" d="M98.7106 97.8752C98.6824 97.6671 98.6542 97.459 98.626 97.251C99.197 97.4205 99.1265 97.6363 98.7106 97.8752Z" fill="#F5F1EE"/>
<path id="Vector_93" d="M171.75 98.5465C171.764 98.3358 171.774 98.1252 171.789 97.9146C172.236 98.1406 172.264 98.3512 171.75 98.5465Z" fill="#F5F1EE"/>
<path id="Vector_94" d="M109.099 100.46C108.721 100.218 108.524 99.987 109.19 99.8252C109.159 100.036 109.13 100.249 109.099 100.46Z" fill="#F5F1EE"/>
<path id="Vector_95" d="M142.932 101.541C143.267 101.443 143.651 101.248 143.711 101.738L143.728 101.728C143.457 101.692 143.189 101.654 142.918 101.618L142.932 101.543V101.541Z" fill="#F5F1EE"/>
<path id="Vector_96" d="M213.352 104.659C213.641 104.654 213.93 104.649 214.219 104.646C213.941 105.021 213.652 105.013 213.352 104.659Z" fill="#F5F1EE"/>
<path id="Vector_97" d="M141.18 105.717C141.314 105.689 141.448 105.666 141.578 105.632C141.843 105.568 141.945 105.661 141.903 105.835C141.871 105.966 141.733 105.979 141.571 105.917C141.451 105.871 141.31 105.853 141.177 105.822V105.72L141.18 105.717Z" fill="#F5F1EE"/>
<path id="Vector_98" d="M93.8304 31.7253C93.6653 31.7253 93.4862 31.7124 93.5354 31.548C93.5494 31.5044 93.7215 31.4864 93.8198 31.4556C93.8304 31.5455 93.8339 31.6354 93.8269 31.7253H93.8304Z" fill="#F5F1EE"/>
<path id="Vector_99" d="M131.486 31.743C131.486 31.6351 131.486 31.5298 131.486 31.4219C131.631 31.4219 131.779 31.4219 131.923 31.4219C131.923 31.5246 131.923 31.6248 131.92 31.725C131.775 31.743 131.634 31.7455 131.49 31.7404L131.486 31.743Z" fill="#F5F1EE"/>
<path id="Vector_100" d="M164.737 32.033C164.631 32.0022 164.449 31.9842 164.435 31.938C164.382 31.7607 164.565 31.7453 164.747 31.753C164.747 31.848 164.747 31.9405 164.737 32.0356V32.033Z" fill="#F5F1EE"/>
<path id="Vector_101" d="M121.866 35.5927C121.848 35.3718 121.989 35.2614 122.296 35.2717C122.296 35.3795 122.282 35.4823 122.24 35.5825C122.113 35.5902 121.989 35.5927 121.863 35.5902L121.866 35.5927Z" fill="#F5F1EE"/>
<path id="Vector_102" d="M163.004 35.9219C163.251 35.9527 163.399 36.058 163.441 36.2404C163.208 36.1967 163.06 36.094 163.004 35.9219Z" fill="#F5F1EE"/>
<path id="Vector_103" d="M51.3684 38.1521C51.2556 38.1058 51.1428 38.0596 51.03 38.0134C51.1428 37.9671 51.2521 37.9183 51.3614 37.8721C51.3684 37.9645 51.372 38.0596 51.3649 38.1521H51.3684Z" fill="#F5F1EE"/>
<path id="Vector_104" d="M148.999 37.8502C149.277 37.8554 149.418 37.9607 149.429 38.1636C149.288 38.1636 149.147 38.1533 149.006 38.1276C148.999 38.0352 148.995 37.9427 148.995 37.8477L148.999 37.8502Z" fill="#F5F1EE"/>
<path id="Vector_105" d="M174.34 38.8194C174.302 38.8939 174.28 39.0275 174.224 39.0352C173.991 39.0737 173.998 38.9324 173.988 38.8168C174.108 38.8091 174.224 38.8091 174.344 38.8168L174.34 38.8194Z" fill="#F5F1EE"/>
<path id="Vector_106" d="M215.965 38.8096C215.954 39.0151 215.813 39.1307 215.528 39.1384C215.566 38.9534 215.711 38.8404 215.965 38.8096Z" fill="#F5F1EE"/>
<path id="Vector_107" d="M77.2073 39.7769C77.3659 39.8308 77.5245 39.8822 77.6867 39.9361C77.5739 40.0646 77.4153 40.1159 77.2108 40.0825C77.2108 39.9798 77.2073 39.8796 77.2108 39.7769H77.2073Z" fill="#F5F1EE"/>
<path id="Vector_108" d="M177.023 41.6938C177.023 41.4857 177.146 41.3624 177.453 41.3727C177.449 41.4703 177.442 41.5679 177.435 41.6655C177.298 41.6989 177.16 41.7066 177.016 41.6861L177.023 41.6938Z" fill="#F5F1EE"/>
<path id="Vector_109" d="M122.3 42.6802C122.476 42.6802 122.651 42.7007 122.592 42.8677C122.577 42.9139 122.402 42.9293 122.304 42.9602C122.293 42.8677 122.293 42.7752 122.304 42.6827L122.3 42.6802Z" fill="#F5F1EE"/>
<path id="Vector_110" d="M145.946 44.3008C146.052 44.3316 146.238 44.3496 146.252 44.3958C146.305 44.5756 146.108 44.5756 145.936 44.5782C145.936 44.4857 145.936 44.3933 145.946 44.3034V44.3008Z" fill="#F5F1EE"/>
<path id="Vector_111" d="M110.917 44.9233C111.037 44.9542 111.252 44.9721 111.266 45.021C111.329 45.2239 111.111 45.229 110.913 45.229C110.913 45.1263 110.913 45.0261 110.917 44.9233Z" fill="#F5F1EE"/>
<path id="Vector_112" d="M156.444 46.2129C156.627 46.2129 156.839 46.2129 156.779 46.4055C156.765 46.4518 156.56 46.4672 156.444 46.4955C156.433 46.4004 156.433 46.3079 156.444 46.2129Z" fill="#F5F1EE"/>
<path id="Vector_113" d="M186.629 54.1966C186.52 54.1684 186.326 54.1529 186.312 54.1093C186.255 53.9243 186.46 53.9295 186.629 53.9243C186.639 54.0142 186.639 54.1067 186.629 54.1966Z" fill="#F5F1EE"/>
<path id="Vector_114" d="M51.8303 56.1216C51.8162 56.024 51.8126 55.9289 51.8197 55.8313C52.1264 55.821 52.2885 55.9186 52.2638 56.1524C52.1193 56.1524 51.9748 56.1447 51.8303 56.1216Z" fill="#F5F1EE"/>
<path id="Vector_115" d="M91.2193 57.4408C91.3603 57.4356 91.4978 57.4408 91.6353 57.4639C91.6459 57.5538 91.6459 57.6463 91.6353 57.7362C91.385 57.7234 91.244 57.6257 91.2158 57.4434L91.2193 57.4408Z" fill="#F5F1EE"/>
<path id="Vector_116" d="M117.449 60.3323C117.442 60.4607 117.453 60.6174 117.192 60.5763C117.132 60.5661 117.111 60.4197 117.072 60.3349C117.199 60.3272 117.323 60.3272 117.449 60.3349V60.3323Z" fill="#F5F1EE"/>
<path id="Vector_117" d="M194.517 61.291C194.507 61.4939 194.362 61.6018 194.084 61.6095C194.123 61.4272 194.267 61.3193 194.517 61.291Z" fill="#F5F1EE"/>
<path id="Vector_118" d="M195.839 62.5781C195.98 62.5704 196.121 62.5781 196.259 62.5987C196.266 62.6989 196.273 62.799 196.273 62.8967C195.987 62.8915 195.853 62.7785 195.839 62.5756V62.5781Z" fill="#F5F1EE"/>
<path id="Vector_119" d="M61.8838 65.7881C62.127 65.8163 62.261 65.9242 62.3033 66.0989H62.3138C62.1728 66.104 62.0283 66.0989 61.8873 66.0861C61.8873 65.9859 61.8838 65.8883 61.8838 65.7881Z" fill="#F5F1EE"/>
<path id="Vector_120" d="M124.926 67.7256C125.103 67.7333 125.314 67.7256 125.258 67.9157C125.244 67.9619 125.046 67.9773 124.93 68.0082C124.923 67.9131 124.919 67.8206 124.923 67.7256H124.926Z" fill="#F5F1EE"/>
<path id="Vector_121" d="M137.186 70.9425C137.327 70.9271 137.465 70.9245 137.606 70.9297C137.56 71.1018 137.426 71.2096 137.183 71.2353C137.183 71.1377 137.183 71.0401 137.186 70.9425Z" fill="#F5F1EE"/>
<path id="Vector_122" d="M95.5903 73.8138C95.5903 73.7059 95.5903 73.6006 95.5903 73.4927C95.7349 73.4927 95.8829 73.4927 96.0274 73.4927V73.8138H95.8089H95.5903Z" fill="#F5F1EE"/>
<path id="Vector_123" d="M210.292 75.1289C210.405 75.1597 210.599 75.1751 210.61 75.2214C210.663 75.4089 210.462 75.4089 210.282 75.4063C210.278 75.3139 210.282 75.2214 210.289 75.1289H210.292Z" fill="#F5F1EE"/>
<path id="Vector_124" d="M46.9891 82.4652C46.824 82.4575 46.6203 82.4626 46.6765 82.2828C46.6906 82.2365 46.8767 82.2211 46.9856 82.1929C46.9961 82.2853 46.9961 82.3753 46.9856 82.4677L46.9891 82.4652Z" fill="#F5F1EE"/>
<path id="Vector_125" d="M244.862 86.017C245.155 86.0093 245.278 86.1249 245.271 86.3304C245.017 86.3098 244.883 86.2019 244.862 86.017Z" fill="#F5F1EE"/>
<path id="Vector_126" d="M76.3438 86.6885C76.5517 86.691 76.7491 86.7244 76.6645 86.9171C76.6434 86.9659 76.4389 86.9736 76.3191 86.9993C76.3297 86.8966 76.3367 86.7912 76.3402 86.6885H76.3438Z" fill="#F5F1EE"/>
<path id="Vector_127" d="M217.748 87.3096C217.861 87.3635 217.977 87.4175 218.09 87.4714C217.97 87.5202 217.854 87.569 217.734 87.6178C217.723 87.5151 217.727 87.4123 217.748 87.3096Z" fill="#F5F1EE"/>
<path id="Vector_128" d="M76.3574 88.8985C76.4984 88.5942 76.6324 88.6274 76.7628 88.9036C76.6288 88.9036 76.4949 88.9036 76.3574 88.8985Z" fill="#F5F1EE"/>
<path id="Vector_129" d="M139.354 88.8892C139.64 88.9071 139.773 89.0253 139.795 89.2282C139.541 89.1897 139.403 89.0715 139.354 88.8892Z" fill="#F5F1EE"/>
<path id="Vector_130" d="M153.793 89.8397C153.599 89.8346 153.405 89.8038 153.486 89.6188C153.507 89.57 153.701 89.5623 153.818 89.5366C153.807 89.6368 153.8 89.7396 153.796 89.8397H153.793Z" fill="#F5F1EE"/>
<path id="Vector_131" d="M65.8289 95.0142C65.9699 95.0065 66.1109 95.0142 66.2483 95.0347C66.2589 95.1323 66.2624 95.2299 66.2589 95.325C65.9628 95.3353 65.8218 95.2299 65.8289 95.0116V95.0142Z" fill="#F5F1EE"/>
<path id="Vector_132" d="M43.4967 96.2927C43.7964 96.2875 43.9444 96.3954 43.9374 96.6163C43.7999 96.6189 43.6624 96.6112 43.5249 96.5906L43.532 96.5958C43.5038 96.4956 43.4932 96.3954 43.4967 96.2927Z" fill="#F5F1EE"/>
<path id="Vector_133" d="M66.2654 97.9058C66.3672 97.952 66.4726 97.9982 66.5744 98.0445C66.4761 98.0933 66.3742 98.1421 66.2759 98.1909C66.2689 98.0958 66.2654 98.0008 66.2654 97.9058Z" fill="#F5F1EE"/>
<path id="Vector_134" d="M57.9535 98.5635C58.0945 98.5455 58.232 98.5378 58.373 98.5481C58.3378 98.7279 58.2038 98.8306 57.9535 98.8435C57.9465 98.751 57.9465 98.6585 57.9535 98.5635Z" fill="#F5F1EE"/>
<path id="Vector_135" d="M50.4554 101.733C50.5153 101.931 50.5153 102.231 50.2826 102.239C50.0183 102.247 50.0006 101.962 50.0535 101.761C50.1875 101.764 50.3214 101.756 50.4554 101.735V101.733Z" fill="#F5F1EE"/>
<path id="Vector_136" d="M50.456 101.734C50.3221 101.755 50.1916 101.762 50.0541 101.76C50.0083 101.508 50.174 101.413 50.4983 101.439C50.5159 101.539 50.5018 101.636 50.4595 101.734H50.456Z" fill="#F5F1EE"/>
<path id="Vector_137" d="M66.7417 87.6572C66.9919 87.6675 67.2387 87.6778 67.489 87.6906C67.5172 87.9269 67.7463 88.2686 67.2246 88.3046C66.5583 88.3508 66.6958 87.9603 66.7417 87.6572Z" fill="#F5F1EE"/>
<path id="Vector_138" d="M189.692 67.6873C189.903 67.6384 190.079 67.6616 190.168 67.8234C190.182 67.8517 190.104 67.9416 190.062 67.9467C189.822 67.9698 189.72 67.8619 189.681 67.7052L189.692 67.6873Z" fill="#F5F1EE"/>
<path id="Vector_139" d="M159.127 61.3364C159.229 61.3441 159.331 61.3441 159.433 61.339C159.465 61.7346 159.705 62.1327 159.419 62.6465C158.767 62.1944 159.081 61.75 159.127 61.3364Z" fill="#F5F1EE"/>
<path id="Vector_140" d="M229.949 91.4689C229.963 91.3713 229.984 91.2737 230.005 91.1761C230.238 91.135 230.379 91.0245 230.432 90.855C231.112 91.0014 230.943 91.2429 230.573 91.51C230.365 91.4972 230.157 91.4843 229.949 91.4715V91.4689Z" fill="#F5F1EE"/>
<path id="Vector_141" d="M231.736 90.1973C231.972 90.2358 232.113 90.3463 232.173 90.5158C231.94 90.4747 231.799 90.3642 231.736 90.1973Z" fill="#F5F1EE"/>
<path id="Vector_142" d="M55.6963 46.9574C55.6401 47.0267 55.5874 47.0935 55.5347 47.1577C55.4891 47.1243 55.3978 47.0807 55.4083 47.055C55.4329 46.9831 55.4961 46.9188 55.5453 46.8521C55.5944 46.8854 55.6401 46.9188 55.6963 46.9548V46.9574Z" fill="#F5F1EE"/>
<path id="Vector_143" d="M166.067 58.7196C165.947 58.6759 165.831 58.6322 165.714 58.5911C165.781 58.5423 165.848 58.4935 165.915 58.4473C165.965 58.5397 166.018 58.6296 166.067 58.7221V58.7196Z" fill="#F5F1EE"/>
<path id="Vector_144" d="M106.952 68.3629C106.959 68.5633 107.086 68.7919 106.748 68.9101C106.698 68.9281 106.501 68.8202 106.48 68.7508C106.395 68.4734 106.652 68.3989 106.963 68.3681L106.952 68.3604V68.3629Z" fill="#F5F1EE"/>
<path id="Vector_145" d="M107.399 69.6316L107.191 69.6368L106.983 69.6316C107.026 69.4544 107.167 69.3542 107.406 69.3208C107.417 69.4236 107.417 69.5263 107.406 69.6291L107.399 69.6316Z" fill="#F5F1EE"/>
<path id="Vector_146" d="M91.6633 70.5923C91.6457 70.4896 91.6422 70.3894 91.6598 70.2866C91.8431 70.2892 92.0334 70.3123 91.97 70.4896C91.9524 70.5384 91.7691 70.5589 91.6633 70.5923Z" fill="#F5F1EE"/>
<path id="Vector_147" d="M49.2007 52.3166C49.4933 52.3525 49.7295 52.4347 49.6378 52.6942C49.6132 52.7584 49.4228 52.8586 49.384 52.8406C49.0844 52.7122 49.2148 52.4938 49.2113 52.3037L49.2007 52.314V52.3166Z" fill="#F5F1EE"/>
<path id="Vector_148" d="M131.063 53.5716C131.201 53.3559 131.338 53.1401 131.472 52.9243C131.775 52.9937 132.001 53.1427 131.927 53.379C131.807 53.772 131.384 53.5819 131.06 53.5742L131.063 53.5716Z" fill="#F5F1EE"/>
<path id="Vector_149" d="M60.78 101.433C60.8221 101.5 60.8783 101.567 60.8994 101.636C60.9064 101.662 60.8151 101.698 60.7694 101.731C60.7273 101.664 60.6711 101.598 60.65 101.528C60.643 101.502 60.7343 101.466 60.78 101.433Z" fill="#F5F1EE"/>
<path id="Vector_150" d="M242.158 104.814C242.109 104.845 242.056 104.901 242.011 104.899C241.965 104.896 241.923 104.835 241.881 104.799C241.93 104.768 241.982 104.712 242.028 104.714C242.074 104.714 242.116 104.778 242.158 104.814Z" fill="#F5F1EE"/>
<path id="Vector_151" d="M120.472 51.7886C120.448 51.8271 120.423 51.8656 120.395 51.9016C120.325 51.8631 120.251 51.822 120.181 51.7834C120.23 51.7449 120.279 51.7089 120.328 51.6704C120.374 51.7089 120.423 51.75 120.469 51.7886H120.472Z" fill="#F5F1EE"/>
<path id="Vector_152" d="M142.678 55.4746C142.632 55.4567 142.583 55.4362 142.538 55.4158C142.59 55.3646 142.639 55.3109 142.692 55.2598C142.738 55.2981 142.822 55.3365 142.819 55.3723C142.819 55.4081 142.727 55.4413 142.678 55.4746Z" fill="#F5F1EE"/>
<path id="Vector_153" d="M217.966 102.035C217.913 102.018 217.864 101.997 217.811 101.979C217.867 101.928 217.92 101.877 217.976 101.823C218.025 101.859 218.078 101.897 218.127 101.933L217.966 102.035Z" fill="#F5F1EE"/>
<path id="Vector_154" d="M240.485 80.5596C240.633 80.5596 240.777 80.5596 240.925 80.5596C240.922 80.7728 240.918 80.9834 240.915 81.1966L240.048 81.2043C240.196 80.9911 240.34 80.7753 240.488 80.5596H240.485Z" fill="#F5F1EE"/>
<path id="Vector_155" d="M51.8341 81.8276C51.8094 81.73 51.8059 81.6298 51.8306 81.5322C51.9469 81.581 52.0597 81.6298 52.176 81.6786C52.0632 81.7275 51.9504 81.7788 51.8376 81.8276H51.8341Z" fill="#F5F1EE"/>
<path id="Vector_156" d="M210.737 66.4136C210.769 66.2338 210.899 66.1259 211.153 66.1079C211.125 66.2903 210.987 66.393 210.737 66.4136Z" fill="#F5F1EE"/>
<path id="Vector_157" d="M107.413 83.1254C107.466 83.033 107.515 82.9431 107.568 82.8506C107.632 82.8994 107.699 82.9508 107.766 82.9996C107.649 83.0407 107.529 83.0818 107.413 83.1254Z" fill="#F5F1EE"/>
<path id="Vector_158" d="M111.436 42.0875C111.52 42.1132 111.605 42.1158 111.693 42.0927C111.682 42.3239 112.031 42.6783 111.33 42.6783C111.365 42.4805 111.4 42.2828 111.439 42.085L111.436 42.0875Z" fill="#F5F1EE"/>
<path id="Vector_159" d="M71.9521 73.1743C71.9027 73.3439 71.7652 73.4517 71.5291 73.4851C71.5749 73.3105 71.7124 73.2051 71.9521 73.1743Z" fill="#F5F1EE"/>
<path id="Vector_160" d="M205.886 89.5397L205.678 89.55L205.47 89.5423C205.488 89.4087 205.474 89.2417 205.745 89.2854C205.812 89.2957 205.837 89.4498 205.883 89.5371L205.886 89.5397Z" fill="#F5F1EE"/>
<path id="Vector_161" d="M113.515 106.267C113.522 106.151 113.526 106.038 113.529 105.923C113.678 105.979 113.829 106.038 113.981 106.095C113.826 106.151 113.67 106.211 113.515 106.267Z" fill="#F5F1EE"/>
<path id="Vector_162" d="M141.518 77.9626L141.332 77.978C141.332 77.978 141.141 77.9703 141.145 77.9703C141.152 77.7699 141.162 77.567 141.17 77.3666C141.282 77.3563 141.392 77.3538 141.504 77.3666C141.508 77.5644 141.515 77.7648 141.518 77.9626Z" fill="#F5F1EE"/>
<path id="Vector_163" d="M54.4282 34.3215C54.4917 34.6067 54.1497 34.7454 54.0052 34.9535C53.695 34.9124 53.3143 34.9843 53.1909 34.6658C53.5434 34.4346 53.8854 34.1854 54.4282 34.3241V34.3215Z" fill="#F5F1EE"/>
<path id="Vector_164" d="M117.034 80.8769H116.822H116.611C116.6 80.7715 116.6 80.6688 116.607 80.5635C116.844 80.5994 116.988 80.7048 117.038 80.8794L117.034 80.8769Z" fill="#F5F1EE"/>
<path id="Vector_165" d="M121.391 100.769L121.193 100.785L120.992 100.779C120.992 100.574 121.123 100.461 121.415 100.469C121.422 100.569 121.415 100.669 121.391 100.769Z" fill="#F5F1EE"/>
<path id="Vector_166" d="M71.5356 69.9764C71.6696 69.9584 71.8 69.9584 71.934 69.9764C71.8952 70.1536 71.8599 70.3309 71.8212 70.5081H71.6343C71.6026 70.3334 71.5709 70.1562 71.5356 69.9789V69.9764Z" fill="#F5F1EE"/>
<path id="Vector_167" d="M142.428 43.9456H142.209H141.991C141.991 43.8377 141.991 43.7324 141.991 43.6245C142.135 43.6245 142.283 43.6245 142.428 43.6245C142.428 43.7324 142.428 43.8377 142.428 43.9456Z" fill="#F5F1EE"/>
</g>
</g>
</g>
<g id="middle wing">
<path id="middle wing_2" d="M24 67C21.2369 57.5947 41 39 41 39C41 39 29.7888 32.1098 24.9819 26.7426C18.3738 19.3643 12 6 12 6L7 26C7 26 14.6896 37.5039 12.5948 53.2519C10.5 69 13.8593 72.5362 13.8593 72.5362L47 106C47 106 46.0515 95.753 42 87C38.0138 78.3881 26.6084 75.8785 24 67Z" fill="url(#paint4_linear_3419_7187)"/>
<path id="Vector 463" d="M15.5 18.5C16.9832 20.9953 20.5 24 20.5 24L17 18.5L13 11C13 11 13.9225 15.8461 15.5 18.5Z" fill="#606060"/>
</g>
<g id="middle wing_3">
<path id="middle wing_4" d="M262 67C264.763 57.5947 245 39 245 39C245 39 256.211 32.1098 261.018 26.7426C267.626 19.3643 274 6 274 6L279 26C279 26 271.31 37.5039 273.405 53.2519C275.5 69 272.141 72.5362 272.141 72.5362L239 106C239 106 239.948 95.753 244 87C247.986 78.3881 259.392 75.8785 262 67Z" fill="url(#paint5_linear_3419_7187)"/>
<path id="Vector 463_2" d="M270.5 18.5C269.017 20.9953 265.5 24 265.5 24L269 18.5L273 11C273 11 272.077 15.8461 270.5 18.5Z" fill="#606060"/>
</g>
<g id="fangs">
<g id="Group 407">
<g id="Vector 457" filter="url(#filter1_f_3419_7187)">
<path d="M29.2471 89L42.101 96C42.101 96 38.146 91.5 41.6067 74.5C45.0673 57.5 50.9999 49 50.9999 49C50.9999 49 40.6179 52.5 32.7077 66.5C24.7976 80.5 29.2471 89 29.2471 89Z" fill="#5C5C5C"/>
</g>
<path id="Vector 459" d="M29.2471 89L42.101 96C42.101 96 38.146 91.5 41.6067 74.5C45.0673 57.5 50.9999 49 50.9999 49C50.9999 49 40.6179 52.5 32.7077 66.5C24.7976 80.5 29.2471 89 29.2471 89Z" fill="#5C5C5C"/>
<path id="Vector 458" d="M42.1011 96L37.6516 94C37.6516 94 35.1797 88 38.146 76C41.8952 62.7288 50.087 50.3561 50.9296 49.104C50.9758 49.0347 51 49 51 49C51 49 50.9759 49.0352 50.9296 49.104C50.2524 50.1203 44.8465 58.5856 41.6068 74.5C38.1461 91.5 42.1011 96 42.1011 96Z" fill="#212121"/>
</g>
<g id="Group 408">
<g id="Vector 457_2" filter="url(#filter2_f_3419_7187)">
<path d="M256.753 89L243.899 96C243.899 96 247.854 91.5 244.393 74.5C240.933 57.5 235 49 235 49C235 49 245.382 52.5 253.292 66.5C261.202 80.5 256.753 89 256.753 89Z" fill="#5C5C5C"/>
</g>
<path id="Vector 459_2" d="M256.753 89L243.899 96C243.899 96 247.854 91.5 244.393 74.5C240.933 57.5 235 49 235 49C235 49 245.382 52.5 253.292 66.5C261.202 80.5 256.753 89 256.753 89Z" fill="#5C5C5C"/>
<path id="Vector 458_2" d="M243.899 96L248.348 94C248.348 94 250.82 88 247.854 76C244.105 62.7288 235.913 50.3561 235.07 49.104C235.024 49.0347 235 49 235 49C235 49 235.024 49.0352 235.07 49.104C235.748 50.1203 241.154 58.5856 244.393 74.5C247.854 91.5 243.899 96 243.899 96Z" fill="#212121"/>
</g>
</g>
<g id="knife">
<g id="shadow-knife" opacity="0.3" filter="url(#filter3_f_3419_7187)">
<path d="M37.4914 26C51.486 17 55.2124 14.1935 66.9801 12C79.2847 9.70643 87.4723 15 100.967 14C114.462 13 136.953 2 136.953 2C136.953 2 138.453 18 124.458 28.5C110.463 39 93.9698 41 93.9698 41C93.9698 41 96.9686 35 88.4719 33C79.9751 31 67.4799 33 61.982 34.5C56.4841 36 42.4895 40 31.4937 47.5C20.4979 55 15 66 15 66V52C15 52 23.4967 35 37.4914 26Z" fill="#F5F1EE"/>
</g>
<path id="Vector 456" d="M37.4914 26C51.486 17 55.2124 14.1935 66.9801 12C79.2847 9.70643 87.4723 15 100.967 14C114.462 13 136.953 2 136.953 2C136.953 2 138.453 18 124.458 28.5C110.463 39 93.9698 41 93.9698 41C93.9698 41 96.9686 35 88.4719 33C79.9751 31 67.4799 33 61.982 34.5C56.4841 36 42.4895 40 31.4937 47.5C20.4979 55 15 66 15 66V52C15 52 23.4967 35 37.4914 26Z" fill="#212121"/>
<path id="Vector 454" d="M40 34C30.6755 38.6025 15 52 15 52C15 52 23.5 35 37.5 26C51.5 17 55.2278 14.1935 67 12C79.3093 9.70643 87.5 15 101 14C114.5 13 137 2 137 2C137 2 136.5 14.5 122.5 25C108.5 35.5 97 38 97 38C97 38 96.5 31 87 27.5C77.6148 24.0423 72.7177 24.7215 63.828 25.9545L63.5 26C53.8973 27.3311 48.6932 29.7091 40 34Z" fill="url(#paint6_linear_3419_7187)"/>
<path id="Vector 463_3" d="M67.8788 14.0936C62.4761 14.7225 55 19.3966 55 19.3966L80 15.6087C80 15.6087 72.6173 13.542 67.8788 14.0936Z" fill="#676767"/>
</g>
<g id="knife_2">
<g id="shadow-knife_2" opacity="0.3" filter="url(#filter4_f_3419_7187)">
<path d="M248.509 26C234.514 17 230.788 14.1935 219.02 12C206.715 9.70643 198.528 15 185.033 14C171.538 13 149.047 2 149.047 2C149.047 2 147.547 18 161.542 28.5C175.537 39 192.03 41 192.03 41C192.03 41 189.031 35 197.528 33C206.025 31 218.52 33 224.018 34.5C229.516 36 243.511 40 254.506 47.5C265.502 55 271 66 271 66V52C271 52 262.503 35 248.509 26Z" fill="#F5F1EE"/>
</g>
<path id="Vector 456_2" d="M248.509 26C234.514 17 230.788 14.1935 219.02 12C206.715 9.70643 198.528 15 185.033 14C171.538 13 149.047 2 149.047 2C149.047 2 147.547 18 161.542 28.5C175.537 39 192.03 41 192.03 41C192.03 41 189.031 35 197.528 33C206.025 31 218.52 33 224.018 34.5C229.516 36 243.511 40 254.506 47.5C265.502 55 271 66 271 66V52C271 52 262.503 35 248.509 26Z" fill="#212121"/>
<path id="Vector 454_2" d="M246 34C255.325 38.6025 271 52 271 52C271 52 262.5 35 248.5 26C234.5 17 230.772 14.1935 219 12C206.691 9.70643 198.5 15 185 14C171.5 13 149 2 149 2C149 2 149.5 14.5 163.5 25C177.5 35.5 189 38 189 38C189 38 189.5 31 199 27.5C208.385 24.0423 213.282 24.7215 222.172 25.9545L222.5 26C232.103 27.3311 237.307 29.7091 246 34Z" fill="url(#paint7_linear_3419_7187)"/>
<path id="Vector 463_4" d="M218.121 14.0936C223.524 14.7225 231 19.3966 231 19.3966L206 15.6087C206 15.6087 213.383 13.542 218.121 14.0936Z" fill="#676767"/>
</g>
<g id="front wing">
<g id="front wing shadow" filter="url(#filter5_f_3419_7187)">
<path d="M7 23C8.72221 25.5468 7.85175 30.6329 16 34.8974C29.4268 41.9245 18.6322 57.7151 22.5 67.7212C24.8209 73.7254 32.6294 76.0271 37.5 82.1587C43.7683 90.0499 49 104 49 104C38.2684 96.5517 11.7045 74.7844 9.10218 71.0643C6.12142 66.8033 10.2042 61.3962 11 54.641C11.7958 47.8858 4 41 4 41L7 23Z" fill="#212121"/>
</g>
<path id="front wing_2" d="M5 25C6.72221 27.5468 5.85175 32.6329 14 36.8974C27.4268 43.9245 16.6322 59.7151 20.5 69.7212C22.8209 75.7254 30.6294 78.0271 35.5 84.1587C41.7683 92.0499 47 106 47 106C36.2684 98.5517 9.70449 76.7844 7.10218 73.0643C4.12142 68.8033 8.20421 63.3962 9 56.641C9.79579 49.8858 2 43 2 43L5 25Z" fill="url(#paint8_linear_3419_7187)"/>
<path id="Vector 460" d="M20 82L37 96L36 94L20 82Z" fill="#555555"/>
<path id="Vector 461" d="M16.8245 41.913C15.5764 40.3541 12.4365 39.2871 12.4365 39.2871C12.4365 39.2871 14.3074 43.2558 15 44.5001C15.821 45.9751 17.8245 49.413 17.8245 49.413C17.8245 49.413 18.6711 44.2198 16.8245 41.913Z" fill="#707070"/>
</g>
<g id="front wing_3">
<g id="front wing shadow_2" filter="url(#filter6_f_3419_7187)">
<path d="M279 23C277.278 25.5468 278.148 30.6329 270 34.8974C256.573 41.9245 267.368 57.7151 263.5 67.7212C261.179 73.7254 253.371 76.0271 248.5 82.1587C242.232 90.0499 237 104 237 104C247.732 96.5517 274.296 74.7844 276.898 71.0643C279.879 66.8033 275.796 61.3962 275 54.641C274.204 47.8858 282 41 282 41L279 23Z" fill="#212121"/>
</g>
<path id="front wing_4" d="M281 25C279.278 27.5468 280.148 32.6329 272 36.8974C258.573 43.9245 269.368 59.7151 265.5 69.7212C263.179 75.7254 255.371 78.0271 250.5 84.1587C244.232 92.0499 239 106 239 106C249.732 98.5517 276.296 76.7844 278.898 73.0643C281.879 68.8033 277.796 63.3962 277 56.641C276.204 49.8858 284 43 284 43L281 25Z" fill="url(#paint9_linear_3419_7187)"/>
<path id="Vector 460_2" d="M266 82L249 96L250 94L266 82Z" fill="#555555"/>
<path id="Vector 461_2" d="M269.176 41.913C270.424 40.3541 273.563 39.2871 273.563 39.2871C273.563 39.2871 271.693 43.2558 271 44.5001C270.179 45.9751 268.176 49.413 268.176 49.413C268.176 49.413 267.329 44.2198 269.176 41.913Z" fill="#707070"/>
</g>
<g id="aerena-logo">
<g id="level shape gloow" filter="url(#filter7_f_3419_7187)">
<path fill-rule="evenodd" clip-rule="evenodd" d="M143 5C138.733 9.56705 127.96 19 119 19C121.56 20.0961 124.613 21.4321 127 24.1816C131.168 28.9825 130 39 130 39L143 45L156 39C156 39 154.832 28.9825 159 24.1816C161.387 21.4321 164.44 20.0961 167 19C158.04 19 147.267 9.56705 143 5Z" fill="#5C5C5C"/>
</g>
<path id="level shape " fill-rule="evenodd" clip-rule="evenodd" d="M143 5C138.733 9.56705 127.96 19 119 19C121.56 20.0961 124.613 21.4321 127 24.1816C131.168 28.9825 130 39 130 39L143 45L156 39C156 39 154.832 28.9825 159 24.1816C161.387 21.4321 164.44 20.0961 167 19C158.04 19 147.267 9.56705 143 5Z" fill="url(#paint10_linear_3419_7187)"/>
<path id="Union" fill-rule="evenodd" clip-rule="evenodd" d="M143 13C139.8 15.7402 136 18.6299 128 20C128.436 20.3734 128.988 20.7355 129.584 21.126C130.736 21.8815 132.051 22.7434 133 24C136.074 28.0679 135 36 135 36L143 40L151 36C151 36 149.926 28.0679 153 24C153.949 22.7434 155.264 21.8815 156.416 21.1259C157.012 20.7355 157.564 20.3734 158 20C150 18.6299 146.2 15.7402 143 13L143 40L143 13Z" fill="#212121"/>
<path id="Union_2" fill-rule="evenodd" clip-rule="evenodd" d="M128 20C136 18.6299 139.8 15.7402 143 13V14.5903C143 14.5903 139.356 17.4419 136.6 18.7007C134.244 19.7762 131.8 20.7558 131.8 20.7558C131.8 20.7558 134.036 22.6799 135 24.1811C137.329 27.8105 135.652 34.3176 135.137 36.0683L135 36C135 36 136.074 28.0679 133 24C132.051 22.7434 130.736 21.8815 129.584 21.1259C128.988 20.7355 128.436 20.3734 128 20ZM158 19.9997C150.001 18.6297 146.201 15.7403 143.001 13.0002L143 13L143 14.5905C143.042 14.6233 146.659 17.4491 149.4 18.7005C151.755 19.7761 154.2 20.7557 154.2 20.7557C154.2 20.7557 151.964 22.6798 151 24.181C148.671 27.8104 150.348 34.3175 150.863 36.0682L151 35.9997C151 35.9997 149.926 28.0676 153 23.9997C153.949 22.7431 155.264 21.8812 156.416 21.1256C157.012 20.7352 157.564 20.3731 158 19.9997Z" fill="white" fill-opacity="0.2"/>
<g id="Union_3">
<path d="M148 30.6L144.9 32L143.3 25.2L142.342 27.924L143.425 27.4789L143.918 29.5735L138 32L140.459 24.9739L142.55 23.45L140.851 23.8531L141.312 22.5359L140.7 22L144.9 22L148 30.6Z" fill="#F5F1EE"/>
<path d="M147.522 28.0958L146.8 26.0927L148 25.6L147.522 28.0958Z" fill="#F5F1EE"/>
</g>
<path id="level shape -darken" opacity="0.5" d="M143 5V45L156 39C156 39 154.832 28.9825 159 24.1816C161.387 21.4321 164.44 20.0961 167 19C158.04 19 147.267 9.56705 143 5Z" fill="black"/>
</g>
<path id="bottom-line-design" fill-rule="evenodd" clip-rule="evenodd" d="M126 88L143 97L160 88H232L237 81L232 86H160L143 95L126 86H54L49 81L54 88H126Z" fill="url(#paint11_linear_3419_7187)"/>
<g id="text">
<path id="ONIC PH" d="M91.4606 61.68C91.4606 60.4 90.8206 59.76 89.5406 59.76H84.1006C82.8206 59.76 82.1806 60.4 82.1806 61.68V71.92C82.1806 73.2 82.8206 73.84 84.1006 73.84H89.5406C90.8206 73.84 91.4606 73.2 91.4606 71.92V61.68ZM97.2206 71.92C97.2206 74.16 96.7086 75.792 95.6846 76.816C94.682 77.8187 93.0606 78.32 90.8206 78.32H82.8206C80.5806 78.32 78.9486 77.8187 77.9246 76.816C76.922 75.792 76.4206 74.16 76.4206 71.92V61.68C76.4206 59.44 76.922 57.8187 77.9246 56.816C78.9486 55.792 80.5806 55.28 82.8206 55.28H90.8206C93.0606 55.28 94.682 55.792 95.6846 56.816C96.7086 57.8187 97.2206 59.44 97.2206 61.68V71.92ZM119.956 78H113.876L106.196 64.56V78H100.436V55.6H106.516L114.196 69.04V55.6H119.956V78ZM134.371 78H122.851V73.52H125.731V60.08H122.851V55.6H134.371V60.08H131.491V73.52H134.371V78ZM154.528 77.68C149.771 78.1067 145.824 78.32 142.688 78.32C140.597 78.32 139.061 77.8293 138.08 76.848C137.099 75.8667 136.608 74.3307 136.608 72.24V62C136.608 59.76 137.109 58.1387 138.112 57.136C139.136 56.112 140.768 55.6 143.008 55.6H154.528V60.08H144.288C143.008 60.08 142.368 60.72 142.368 62V72.24C142.368 72.7307 142.507 73.1253 142.784 73.424C143.083 73.7013 143.456 73.84 143.904 73.84C144.352 73.84 144.843 73.84 145.376 73.84C145.909 73.8187 146.464 73.7973 147.04 73.776C147.616 73.7547 148.192 73.7333 148.768 73.712C149.365 73.6907 150.123 73.648 151.04 73.584C151.979 73.52 153.141 73.4453 154.528 73.36V77.68ZM166.686 55.6H180.126C182.366 55.6 183.987 56.112 184.99 57.136C186.014 58.1387 186.526 59.76 186.526 62V65.2C186.526 67.44 186.014 69.072 184.99 70.096C183.987 71.0987 182.366 71.6 180.126 71.6H172.446V78H166.686V55.6ZM180.766 62C180.766 60.72 180.126 60.08 178.846 60.08H172.446V67.12H178.846C180.126 67.12 180.766 66.48 180.766 65.2V62ZM208.924 78H203.164V68.88H195.164V78H189.404V55.6H195.164V64.4H203.164V55.6H208.924V78Z" fill="white"/>
</g>
</g>
<defs>
<filter id="filter0_f_3419_7187" x="4.9" y="22.9" width="276.2" height="82.2" filterUnits="userSpaceOnUse" color-interpolation-filters="sRGB">
<feFlood flood-opacity="0" result="BackgroundImageFix"/>
<feBlend mode="normal" in="SourceGraphic" in2="BackgroundImageFix" result="shape"/>
<feGaussianBlur stdDeviation="4.05" result="effect1_foregroundBlur_3419_7187"/>
</filter>
<filter id="filter1_f_3419_7187" x="24" y="45" width="31" height="55" filterUnits="userSpaceOnUse" color-interpolation-filters="sRGB">
<feFlood flood-opacity="0" result="BackgroundImageFix"/>
<feBlend mode="normal" in="SourceGraphic" in2="BackgroundImageFix" result="shape"/>
<feGaussianBlur stdDeviation="2" result="effect1_foregroundBlur_3419_7187"/>
</filter>
<filter id="filter2_f_3419_7187" x="231" y="45" width="31" height="55" filterUnits="userSpaceOnUse" color-interpolation-filters="sRGB">
<feFlood flood-opacity="0" result="BackgroundImageFix"/>
<feBlend mode="normal" in="SourceGraphic" in2="BackgroundImageFix" result="shape"/>
<feGaussianBlur stdDeviation="2" result="effect1_foregroundBlur_3419_7187"/>
</filter>
<filter id="filter3_f_3419_7187" x="11" y="-2" width="130" height="72" filterUnits="userSpaceOnUse" color-interpolation-filters="sRGB">
<feFlood flood-opacity="0" result="BackgroundImageFix"/>
<feBlend mode="normal" in="SourceGraphic" in2="BackgroundImageFix" result="shape"/>
<feGaussianBlur stdDeviation="2" result="effect1_foregroundBlur_3419_7187"/>
</filter>
<filter id="filter4_f_3419_7187" x="145" y="-2" width="130" height="72" filterUnits="userSpaceOnUse" color-interpolation-filters="sRGB">
<feFlood flood-opacity="0" result="BackgroundImageFix"/>
<feBlend mode="normal" in="SourceGraphic" in2="BackgroundImageFix" result="shape"/>
<feGaussianBlur stdDeviation="2" result="effect1_foregroundBlur_3419_7187"/>
</filter>
<filter id="filter5_f_3419_7187" x="-1.6" y="17.4" width="56.2" height="92.2" filterUnits="userSpaceOnUse" color-interpolation-filters="sRGB">
<feFlood flood-opacity="0" result="BackgroundImageFix"/>
<feBlend mode="normal" in="SourceGraphic" in2="BackgroundImageFix" result="shape"/>
<feGaussianBlur stdDeviation="2.8" result="effect1_foregroundBlur_3419_7187"/>
</filter>
<filter id="filter6_f_3419_7187" x="231.4" y="17.4" width="56.2" height="92.2" filterUnits="userSpaceOnUse" color-interpolation-filters="sRGB">
<feFlood flood-opacity="0" result="BackgroundImageFix"/>
<feBlend mode="normal" in="SourceGraphic" in2="BackgroundImageFix" result="shape"/>
<feGaussianBlur stdDeviation="2.8" result="effect1_foregroundBlur_3419_7187"/>
</filter>
<filter id="filter7_f_3419_7187" x="115" y="1" width="56" height="48" filterUnits="userSpaceOnUse" color-interpolation-filters="sRGB">
<feFlood flood-opacity="0" result="BackgroundImageFix"/>
<feBlend mode="normal" in="SourceGraphic" in2="BackgroundImageFix" result="shape"/>
<feGaussianBlur stdDeviation="2" result="effect1_foregroundBlur_3419_7187"/>
</filter>
<linearGradient id="paint0_linear_3419_7187" x1="62" y1="98" x2="224" y2="98" gradientUnits="userSpaceOnUse">
<stop stop-color="#5C5C5C"/>
<stop offset="1" stop-color="#212121"/>
</linearGradient>
<linearGradient id="paint1_linear_3419_7187" x1="30" y1="0" x2="30" y2="62" gradientUnits="userSpaceOnUse">
<stop stop-color="#212121"/>
<stop offset="1" stop-color="#5C5C5C"/>
</linearGradient>
<linearGradient id="paint2_linear_3419_7187" x1="259" y1="2" x2="259" y2="64" gradientUnits="userSpaceOnUse">
<stop stop-color="#212121"/>
<stop offset="1" stop-color="#5C5C5C"/>
</linearGradient>
<linearGradient id="paint3_linear_3419_7187" x1="-4" y1="116.5" x2="143" y2="49.5" gradientUnits="userSpaceOnUse">
<stop stop-color="white" stop-opacity="0"/>
<stop offset="1"/>
</linearGradient>
<linearGradient id="paint4_linear_3419_7187" x1="12.5" y1="15.5" x2="42.5" y2="106" gradientUnits="userSpaceOnUse">
<stop stop-color="#212121"/>
<stop offset="0.48837" stop-color="#5C5C5C"/>
<stop offset="0.699" stop-color="#212121"/>
</linearGradient>
<linearGradient id="paint5_linear_3419_7187" x1="273.5" y1="15.5" x2="243.5" y2="106" gradientUnits="userSpaceOnUse">
<stop stop-color="#212121"/>
<stop offset="0.48837" stop-color="#5C5C5C"/>
<stop offset="0.699" stop-color="#212121"/>
</linearGradient>
<linearGradient id="paint6_linear_3419_7187" x1="40.5" y1="-16.5" x2="91.5" y2="60.5" gradientUnits="userSpaceOnUse">
<stop stop-color="#5C5C5C"/>
<stop offset="0.382334" stop-color="#5C5C5C"/>
<stop offset="0.71264" stop-color="#212121"/>
<stop offset="1" stop-color="#5C5C5C"/>
</linearGradient>
<linearGradient id="paint7_linear_3419_7187" x1="245.5" y1="-16.5" x2="194.5" y2="60.5" gradientUnits="userSpaceOnUse">
<stop stop-color="#5C5C5C"/>
<stop offset="0.382334" stop-color="#5C5C5C"/>
<stop offset="0.71264" stop-color="#212121"/>
<stop offset="1" stop-color="#5C5C5C"/>
</linearGradient>
<linearGradient id="paint8_linear_3419_7187" x1="11.6616" y1="42.8603" x2="31.5123" y2="113.066" gradientUnits="userSpaceOnUse">
<stop stop-color="#5C5C5C"/>
<stop offset="0.704" stop-color="#212121"/>
<stop offset="1" stop-color="#212121"/>
</linearGradient>
<linearGradient id="paint9_linear_3419_7187" x1="274.338" y1="42.8603" x2="254.488" y2="113.066" gradientUnits="userSpaceOnUse">
<stop stop-color="#5C5C5C"/>
<stop offset="0.704" stop-color="#212121"/>
<stop offset="1" stop-color="#212121"/>
</linearGradient>
<linearGradient id="paint10_linear_3419_7187" x1="116.756" y1="25.0002" x2="167.878" y2="25.0002" gradientUnits="userSpaceOnUse">
<stop stop-color="#212121"/>
<stop offset="0.516" stop-color="#5C5C5C"/>
<stop offset="1" stop-color="#212121"/>
</linearGradient>
<linearGradient id="paint11_linear_3419_7187" x1="55.5" y1="89.0001" x2="238.719" y2="89.0001" gradientUnits="userSpaceOnUse">
<stop stop-color="white" stop-opacity="0"/>
<stop offset="0.484" stop-color="white"/>
<stop offset="1" stop-color="white" stop-opacity="0"/>
</linearGradient>
</defs>
</svg>
