<svg xmlns="http://www.w3.org/2000/svg" width="100" height="130" fill="none" xmlns:v="https://vecta.io/nano"><style><![CDATA[.B{fill:#f5f1ee}.C{color-interpolation-filters:sRGB}.D{flood-opacity:0}]]></style><g clip-path="url(#I)"><path d="M72.8 92.6s-.9-1.8.097-4.077c-4.793 2.774-8.655 9.159-2.827 13.424.735.538 1.427.989 2.066 1.405 3.135 2.043 4.586 3.115 3.964 9.648.577-6.062-6.929-4.998-9.9-8.169 1.666 6.118 7.248 10.615 13.877 10.615 7.944 0 14.323-6.48 14.323-14.446s-6.3-14.4-13.8-14.4c-4.8 0-7.8 4.2-7.8 6z" fill="#212121"/><path fill-rule="evenodd" d="M74.18 87.087l-.734 1.677c-.228.52-.344 1.01-.392 1.451a9.1 9.1 0 0 1 1.434-1.726C75.925 87.132 78.016 86 80.6 86c7.852 0 14.4 6.724 14.4 15 0 8.291-6.642 15.046-14.923 15.046-6.908 0-12.721-4.686-14.456-11.058l-.635-2.331 1.651 1.763c.65.694 1.575 1.183 2.664 1.615.517.205 1.055.391 1.606.582l.078.027c.573.198 1.16.403 1.721.632 1.074.438 2.124.993 2.884 1.854-.09-1.018-.297-1.767-.6-2.367-.593-1.174-1.594-1.873-3.183-2.908l-.005-.003c-.637-.415-1.34-.873-2.088-1.421-1.543-1.128-2.483-2.428-2.91-3.814s-.324-2.799.127-4.133c.894-2.648 3.177-5.04 5.664-6.48l1.584-.917zm2.058 23.003c.013.831-.032 1.79-.139 2.91.11-1.151-.072-2.045-.459-2.76-.899-1.661-2.904-2.355-4.932-3.058-1.305-.451-2.62-.907-3.656-1.625-.312-.216-.598-.456-.852-.726a14.29 14.29 0 0 0 .349 1.104c2.004 5.547 7.304 9.511 13.528 9.511 7.944 0 14.323-6.48 14.323-14.446s-6.3-14.4-13.8-14.4c-3.937 0-6.663 2.826-7.516 4.835-.187.44-.284.842-.284 1.165 0 0-.236-.473-.333-1.241-.066-.527-.066-1.194.122-1.941.072-.287.172-.587.307-.895-.279.162-.556.336-.827.521-4.383 2.991-7.488 8.887-2 12.903.735.538 1.427.989 2.066 1.405 2.597 1.693 4.039 2.719 4.103 6.738z" fill="url(#D)"/><path d="M85.111 113.087a.18.18 0 0 1-.018.015l.018-.015c.489-.416 3.257-5.674.845-10.37-2.445-4.76-13.196-6.734-8.819-12.278 5.56-7.041 26.21 8.661 7.975 22.648z" fill="url(#E)"/><g filter="url(#A)"><use href="#J" fill="url(#F)"/></g><use href="#J" class="B"/><g filter="url(#B)"><use href="#K" fill="url(#G)"/></g><use href="#K" class="B"/><g filter="url(#C)"><use href="#L" fill="url(#H)"/></g><use href="#L" class="B"/></g><defs><filter id="A" x="68.394" y="97.082" width="23.784" height="10.443" filterUnits="userSpaceOnUse" class="C"><feFlood class="D"/><feBlend in="SourceGraphic"/><feGaussianBlur stdDeviation=".761"/></filter><filter id="B" x="68.606" y="94.071" width="22.545" height="4.29" filterUnits="userSpaceOnUse" class="C"><feFlood class="D"/><feBlend in="SourceGraphic"/><feGaussianBlur stdDeviation=".309"/></filter><filter id="C" x="74.521" y="105.151" width="11.436" height="7.03" filterUnits="userSpaceOnUse" class="C"><feFlood class="D"/><feBlend in="SourceGraphic"/><feGaussianBlur stdDeviation="1.071"/></filter><linearGradient id="D" x1="63.584" y1="101.023" x2="95.549" y2="101.023" href="#M"><stop stop-color="#ab750f"/><stop offset=".516" stop-color="#d8a956"/><stop offset="1" stop-color="#ab750f"/></linearGradient><linearGradient id="E" x1="84.291" y1="88.7" x2="84.291" y2="113.102" href="#M"><stop stop-color="#ab750f"/><stop offset=".516" stop-color="#d8a956"/><stop offset="1" stop-color="#ab750f"/></linearGradient><linearGradient id="F" x1="68.257" y1="102.4" x2="91.688" y2="102.4" href="#M"><stop stop-color="#ab750f"/><stop offset=".516" stop-color="#d8a956"/><stop offset="1" stop-color="#ab750f"/></linearGradient><linearGradient id="G" x1="67.829" y1="96.2" x2="91.26" y2="96.2" href="#M"><stop stop-color="#ab750f"/><stop offset=".516" stop-color="#d8a956"/><stop offset="1" stop-color="#ab750f"/></linearGradient><linearGradient id="H" x1="75.769" y1="108.5" x2="84.289" y2="108.5" href="#M"><stop stop-color="#ab750f"/><stop offset=".516" stop-color="#d8a956"/><stop offset="1" stop-color="#ab750f"/></linearGradient><clipPath id="I"><path fill="#fff" transform="translate(65 86)" d="M0 0h30v30H0z"/></clipPath><path id="J" d="M70.009 104.389l3.867.156c.16 0 .285-.045.375-.136.097-.097.146-.225.146-.385v-.938H72c-.73 0-1.261-.164-1.595-.49-.327-.334-.49-.865-.49-1.595v-.313c0-.729.163-1.258.49-1.584.334-.334.865-.5 1.595-.5h3.659v1.46h-3.242c-.417 0-.625.208-.625.625v.209c0 .417.208.625.625.625h1.876c.681 0 1.181.16 1.501.48s.48.82.48 1.501v.521c0 .681-.16 1.181-.48 1.501s-.82.479-1.501.479a31.94 31.94 0 0 1-1.126-.021l-.959-.041-2.199-.146v-1.407zm7.202-5.785h4.378c.73 0 1.258.167 1.584.5.334.327.5.855.5 1.584v1.043c0 .729-.167 1.261-.5 1.594-.327.327-.855.49-1.584.49h-2.502v2.085h-1.876v-7.297zm4.586 2.085c0-.417-.209-.625-.625-.625h-2.085v2.293h2.085c.417 0 .625-.208.625-.625v-1.043zm2.595 3.701l3.867.156c.16 0 .285-.045.375-.136.097-.097.146-.225.146-.385v-.938h-2.397c-.73 0-1.261-.164-1.595-.49-.327-.334-.49-.865-.49-1.595v-.313c0-.729.163-1.258.49-1.584.334-.334.865-.5 1.595-.5h3.659v1.46H86.8c-.417 0-.625.208-.625.625v.209c0 .417.209.625.625.625h1.876c.681 0 1.181.16 1.501.48s.479.82.479 1.501v.521c0 .681-.16 1.181-.479 1.501s-.82.479-1.501.479a31.94 31.94 0 0 1-1.126-.021l-.959-.041-2.199-.146v-1.407z"/><path id="K" d="M69.263 97.085l1.573.064c.065 0 .116-.018.153-.055s.059-.092.059-.157v-.382h-.975c-.297 0-.513-.066-.649-.199s-.199-.352-.199-.649v-.127c0-.297.066-.512.199-.644s.352-.204.649-.204h1.488v.594h-1.319c-.17 0-.254.085-.254.254v.085c0 .17.085.254.254.254h.763c.277 0 .481.065.611.195s.195.334.195.611v.212c0 .277-.065.481-.195.611s-.334.195-.611.195c-.144 0-.297-.003-.458-.008l-.39-.017-.895-.059v-.572zm5.283.615h-2.353v-2.968h2.353v.594h-1.59v.572h1.251v.594h-1.251v.615h1.59v.594zm.868 0h-.827l1.124-2.968h.848l1.124 2.968h-.827l-.191-.53h-1.06l-.191.53zm.382-1.081h.678l-.339-.996-.339.996zm2.01.466l1.573.064c.065 0 .116-.018.153-.055s.059-.092.059-.157v-.382h-.975c-.297 0-.513-.066-.649-.199s-.199-.352-.199-.649v-.127c0-.297.066-.512.199-.644s.352-.204.649-.204h1.488v.594h-1.319c-.17 0-.254.085-.254.254v.085c0 .17.085.254.254.254h.763c.277 0 .481.065.611.195s.195.334.195.611v.212c0 .277-.065.481-.195.611s-.334.195-.611.195a12.98 12.98 0 0 1-.458-.008l-.39-.017-.895-.059v-.572zm4.838-1.548c0-.17-.085-.254-.254-.254h-.721c-.17 0-.254.085-.254.254v1.357c0 .17.085.254.254.254h.721c.17 0 .254-.085.254-.254v-1.357zm.763 1.357c0 .297-.068.513-.204.649s-.348.199-.644.199h-1.06c-.297 0-.513-.066-.649-.199s-.199-.352-.199-.649v-1.357c0-.297.066-.512.199-.644s.352-.204.649-.204h1.06c.297 0 .512.068.644.204s.204.348.204.644v1.357zm3.012.806h-.806l-1.018-1.781V97.7h-.763v-2.968h.806l1.018 1.781v-1.781h.763V97.7zm2.503-3.01c.387 0 .854.028 1.399.085v.572l-.399-.021-.267-.017-.204-.017-.314-.009c-.172 0-.259.071-.259.212v.382a3.63 3.63 0 0 1 .721-.085h.297c.192 0 .346.058.462.174s.174.27.174.462v.551c0 .257-.065.45-.195.577s-.334.187-.611.187h-.806c-.277 0-.481-.062-.611-.187s-.195-.319-.195-.577v-1.484c0-.277.065-.48.195-.611s.334-.195.611-.195zm.466 1.696c-.107 0-.206.006-.297.017l-.212.025v.466c0 .17.085.254.254.254h.382c.17 0 .254-.085.254-.254v-.36c0-.042-.014-.078-.042-.106s-.064-.042-.106-.042h-.233z"/><path id="L" d="M78.809 110h-2.145v-2.706h2.145v.541h-1.45v.522h1.14v.541h-1.14v.561h1.45V110zm.227-.561l1.434.058c.059 0 .106-.016.139-.05s.054-.084.054-.143v-.348h-.889c-.271 0-.468-.06-.591-.181s-.182-.321-.182-.592v-.116c0-.271.061-.466.182-.588s.321-.185.591-.185h1.357v.541H79.93c-.155 0-.232.077-.232.232v.077c0 .155.077.232.232.232h.696c.252 0 .438.06.557.178s.178.304.178.557v.193c0 .253-.059.438-.178.557s-.304.178-.557.178a12.36 12.36 0 0 1-.418-.008l-.356-.016-.816-.054v-.522zm3.367.02h1.411V110h-2.107v-2.706h.696v2.165z"/><linearGradient id="M" gradientUnits="userSpaceOnUse"/></defs></svg>