<svg width="100" height="130" viewBox="0 0 100 130" fill="none" xmlns="http://www.w3.org/2000/svg">
<g id="sps6">
<g id="bounding-box">
<g id="SPS-ESL" clip-path="url(#clip0_842_64)">
<path id="Subtract" d="M72.8 92.6C72.8 92.6 71.9 90.8 72.8968 88.5229C68.1041 91.297 64.2416 97.6823 70.07 101.947C70.8048 102.485 71.4968 102.936 72.1356 103.352C75.2702 105.395 76.7216 106.467 76.1 113C76.6768 106.938 69.1705 108.002 66.2 104.831C67.8656 110.949 73.4475 115.446 80.077 115.446C88.0208 115.446 94.4 108.966 94.4 101C94.4 93.0344 88.1 86.6 80.6 86.6C75.8 86.6 72.8 90.8 72.8 92.6Z" fill="#212121"/>
<path id="Subtract (Stroke)" fill-rule="evenodd" clip-rule="evenodd" d="M74.1804 87.0866L73.4464 88.7635C73.2188 89.2835 73.1022 89.7736 73.0544 90.2149C73.4224 89.6341 73.9042 89.0402 74.4881 88.4888C75.9251 87.1315 78.0164 86 80.6 86C88.4515 86 95 92.7235 95 101C95 109.291 88.3583 116.046 80.077 116.046C73.169 116.046 67.3557 111.36 65.6211 104.988L64.9866 102.657L66.6379 104.42C67.2879 105.114 68.2129 105.603 69.3023 106.035C69.8195 106.24 70.3574 106.426 70.9085 106.617L70.9863 106.644C71.5594 106.842 72.1459 107.047 72.707 107.276C73.7808 107.714 74.8312 108.269 75.5908 109.13C75.5011 108.112 75.2941 107.363 74.9909 106.763C74.3979 105.589 73.3964 104.89 71.808 103.855L71.8035 103.852C71.1669 103.437 70.4636 102.979 69.7157 102.431C68.173 101.303 67.2324 100.003 66.8055 98.6172C66.3792 97.2338 66.4815 95.8184 66.932 94.484C67.8262 91.836 70.1086 89.4435 72.5962 88.0036L74.1804 87.0866ZM76.2389 110.09C76.2522 110.921 76.2066 111.88 76.1 113C76.2096 111.849 76.0276 110.955 75.6405 110.24C74.7417 108.579 72.7368 107.885 70.7082 107.182C69.4032 106.731 68.0883 106.275 67.0519 105.557C66.7402 105.341 66.4536 105.101 66.2 104.831C66.302 105.205 66.4186 105.574 66.5493 105.935C68.5529 111.482 73.8534 115.446 80.077 115.446C88.0208 115.446 94.4 108.966 94.4 101C94.4 93.0344 88.1 86.6 80.6 86.6C76.6631 86.6 73.937 89.4255 73.084 91.4347C72.897 91.8751 72.8 92.2764 72.8 92.6C72.8 92.6 72.5635 92.1269 72.4672 91.3589C72.4011 90.8316 72.4012 90.1653 72.5894 89.4177C72.6618 89.1304 72.7619 88.831 72.8968 88.5229C72.6173 88.6847 72.3409 88.8588 72.0695 89.044C67.6865 92.0346 64.5816 97.9311 70.07 101.947C70.8049 102.485 71.4968 102.936 72.1357 103.352C74.733 105.045 76.1747 106.071 76.2389 110.09Z" fill="url(#paint0_linear_842_64)"/>
<path id="Vector 224" d="M85.1111 113.087C85.1045 113.093 85.0984 113.098 85.0926 113.102C85.0988 113.097 85.105 113.092 85.1111 113.087C85.5998 112.671 88.3683 107.413 85.9556 102.717C83.5104 97.9574 72.7594 95.9828 77.1363 90.4393C82.6958 83.3981 103.346 99.1006 85.1111 113.087Z" fill="url(#paint1_linear_842_64)"/>
<g id="Group 156">
<g id="SPS" filter="url(#filter0_f_842_64)">
<path d="M70.0092 104.389C71.9132 104.493 73.2022 104.545 73.8763 104.545C74.0361 104.545 74.1612 104.5 74.2515 104.409C74.3488 104.312 74.3974 104.184 74.3974 104.024V103.086H72C71.2704 103.086 70.7388 102.922 70.4052 102.596C70.0786 102.262 69.9153 101.731 69.9153 101.001V100.688C69.9153 99.9586 70.0786 99.4305 70.4052 99.1039C70.7388 98.7703 71.2704 98.6035 72 98.6035H75.6587V100.063H72.417C72 100.063 71.7916 100.271 71.7916 100.688V100.897C71.7916 101.314 72 101.522 72.417 101.522H74.2932C74.9742 101.522 75.4745 101.682 75.7942 102.002C76.1138 102.321 76.2737 102.822 76.2737 103.503V104.024C76.2737 104.705 76.1138 105.205 75.7942 105.525C75.4745 105.844 74.9742 106.004 74.2932 106.004C73.9388 106.004 73.5636 105.997 73.1675 105.983L72.2085 105.942C71.4997 105.907 70.7666 105.858 70.0092 105.796V104.389ZM77.211 98.6035H81.5888C82.3185 98.6035 82.8466 98.7703 83.1732 99.1039C83.5068 99.4305 83.6735 99.9586 83.6735 100.688V101.731C83.6735 102.46 83.5068 102.992 83.1732 103.325C82.8466 103.652 82.3185 103.815 81.5888 103.815H79.0872V105.9H77.211V98.6035ZM81.7973 100.688C81.7973 100.271 81.5888 100.063 81.1719 100.063H79.0872V102.356H81.1719C81.5888 102.356 81.7973 102.148 81.7973 101.731V100.688ZM84.3924 104.389C86.2964 104.493 87.5854 104.545 88.2595 104.545C88.4193 104.545 88.5444 104.5 88.6347 104.409C88.732 104.312 88.7807 104.184 88.7807 104.024V103.086H86.3833C85.6536 103.086 85.122 102.922 84.7885 102.596C84.4619 102.262 84.2986 101.731 84.2986 101.001V100.688C84.2986 99.9586 84.4619 99.4305 84.7885 99.1039C85.122 98.7703 85.6536 98.6035 86.3833 98.6035H90.0419V100.063H86.8002C86.3833 100.063 86.1748 100.271 86.1748 100.688V100.897C86.1748 101.314 86.3833 101.522 86.8002 101.522H88.6764C89.3574 101.522 89.8578 101.682 90.1774 102.002C90.4971 102.321 90.6569 102.822 90.6569 103.503V104.024C90.6569 104.705 90.4971 105.205 90.1774 105.525C89.8578 105.844 89.3574 106.004 88.6764 106.004C88.322 106.004 87.9468 105.997 87.5507 105.983L86.5917 105.942C85.8829 105.907 85.1498 105.858 84.3924 105.796V104.389Z" fill="url(#paint2_linear_842_64)"/>
</g>
<path id="SPS_2" d="M70.0092 104.389C71.9132 104.493 73.2022 104.545 73.8763 104.545C74.0361 104.545 74.1612 104.5 74.2515 104.409C74.3488 104.312 74.3974 104.184 74.3974 104.024V103.086H72C71.2704 103.086 70.7388 102.922 70.4052 102.596C70.0786 102.262 69.9153 101.731 69.9153 101.001V100.688C69.9153 99.9586 70.0786 99.4305 70.4052 99.1039C70.7388 98.7703 71.2704 98.6035 72 98.6035H75.6587V100.063H72.417C72 100.063 71.7916 100.271 71.7916 100.688V100.897C71.7916 101.314 72 101.522 72.417 101.522H74.2932C74.9742 101.522 75.4745 101.682 75.7942 102.002C76.1138 102.321 76.2737 102.822 76.2737 103.503V104.024C76.2737 104.705 76.1138 105.205 75.7942 105.525C75.4745 105.844 74.9742 106.004 74.2932 106.004C73.9388 106.004 73.5636 105.997 73.1675 105.983L72.2085 105.942C71.4997 105.907 70.7666 105.858 70.0092 105.796V104.389ZM77.211 98.6035H81.5888C82.3185 98.6035 82.8466 98.7703 83.1732 99.1039C83.5068 99.4305 83.6735 99.9586 83.6735 100.688V101.731C83.6735 102.46 83.5068 102.992 83.1732 103.325C82.8466 103.652 82.3185 103.815 81.5888 103.815H79.0872V105.9H77.211V98.6035ZM81.7973 100.688C81.7973 100.271 81.5888 100.063 81.1719 100.063H79.0872V102.356H81.1719C81.5888 102.356 81.7973 102.148 81.7973 101.731V100.688ZM84.3924 104.389C86.2964 104.493 87.5854 104.545 88.2595 104.545C88.4193 104.545 88.5444 104.5 88.6347 104.409C88.732 104.312 88.7807 104.184 88.7807 104.024V103.086H86.3833C85.6536 103.086 85.122 102.922 84.7885 102.596C84.4619 102.262 84.2986 101.731 84.2986 101.001V100.688C84.2986 99.9586 84.4619 99.4305 84.7885 99.1039C85.122 98.7703 85.6536 98.6035 86.3833 98.6035H90.0419V100.063H86.8002C86.3833 100.063 86.1748 100.271 86.1748 100.688V100.897C86.1748 101.314 86.3833 101.522 86.8002 101.522H88.6764C89.3574 101.522 89.8578 101.682 90.1774 102.002C90.4971 102.321 90.6569 102.822 90.6569 103.503V104.024C90.6569 104.705 90.4971 105.205 90.1774 105.525C89.8578 105.844 89.3574 106.004 88.6764 106.004C88.322 106.004 87.9468 105.997 87.5507 105.983L86.5917 105.942C85.8829 105.907 85.1498 105.858 84.3924 105.796V104.389Z" fill="#F5F1EE"/>
</g>
<g id="Group 159">
<g id="SEASON 6" filter="url(#filter1_f_842_64)">
<path d="M69.2631 97.0852C70.0376 97.1276 70.562 97.1488 70.8362 97.1488C70.9012 97.1488 70.952 97.1304 70.9888 97.0937C71.0284 97.0541 71.0482 97.0018 71.0482 96.9368V96.5552H70.073C69.7762 96.5552 69.5599 96.4888 69.4242 96.3559C69.2914 96.2203 69.225 96.004 69.225 95.7072V95.58C69.225 95.2832 69.2914 95.0684 69.4242 94.9356C69.5599 94.7999 69.7762 94.732 70.073 94.732H71.5612V95.3256H70.2426C70.073 95.3256 69.9882 95.4104 69.9882 95.58V95.6648C69.9882 95.8344 70.073 95.9192 70.2426 95.9192H71.0058C71.2828 95.9192 71.4863 95.9842 71.6163 96.1143C71.7463 96.2443 71.8113 96.4478 71.8113 96.7248V96.9368C71.8113 97.2138 71.7463 97.4174 71.6163 97.5474C71.4863 97.6774 71.2828 97.7424 71.0058 97.7424C70.8616 97.7424 70.709 97.7396 70.5478 97.7339L70.1578 97.717C69.8694 97.7028 69.5712 97.6831 69.2631 97.6576V97.0852ZM74.5458 97.7H72.1926V94.732H74.5458V95.3256H72.9558V95.898H74.2066V96.4916H72.9558V97.1064H74.5458V97.7ZM75.414 97.7H74.5872L75.7108 94.732H76.5588L77.6824 97.7H76.8556L76.6648 97.17H75.6048L75.414 97.7ZM75.7956 96.6188H76.474L76.1348 95.6224L75.7956 96.6188ZM77.8052 97.0852C78.5797 97.1276 79.104 97.1488 79.3782 97.1488C79.4432 97.1488 79.4941 97.1304 79.5309 97.0937C79.5704 97.0541 79.5902 97.0018 79.5902 96.9368V96.5552H78.615C78.3182 96.5552 78.102 96.4888 77.9663 96.3559C77.8334 96.2203 77.767 96.004 77.767 95.7072V95.58C77.767 95.2832 77.8334 95.0684 77.9663 94.9356C78.102 94.7999 78.3182 94.732 78.615 94.732H80.1033V95.3256H78.7846C78.615 95.3256 78.5302 95.4104 78.5302 95.58V95.6648C78.5302 95.8344 78.615 95.9192 78.7846 95.9192H79.5478C79.8248 95.9192 80.0283 95.9842 80.1584 96.1143C80.2884 96.2443 80.3534 96.4478 80.3534 96.7248V96.9368C80.3534 97.2138 80.2884 97.4174 80.1584 97.5474C80.0283 97.6774 79.8248 97.7424 79.5478 97.7424C79.4037 97.7424 79.251 97.7396 79.0899 97.7339L78.6998 97.717C78.4115 97.7028 78.1133 97.6831 77.8052 97.6576V97.0852ZM82.6427 95.5376C82.6427 95.368 82.5579 95.2832 82.3883 95.2832H81.6675C81.4979 95.2832 81.4131 95.368 81.4131 95.5376V96.8944C81.4131 97.064 81.4979 97.1488 81.6675 97.1488H82.3883C82.5579 97.1488 82.6427 97.064 82.6427 96.8944V95.5376ZM83.4059 96.8944C83.4059 97.1912 83.338 97.4075 83.2023 97.5431C83.0695 97.676 82.8547 97.7424 82.5579 97.7424H81.4979C81.2011 97.7424 80.9848 97.676 80.8492 97.5431C80.7163 97.4075 80.6499 97.1912 80.6499 96.8944V95.5376C80.6499 95.2408 80.7163 95.026 80.8492 94.8932C80.9848 94.7575 81.2011 94.6896 81.4979 94.6896H82.5579C82.8547 94.6896 83.0695 94.7575 83.2023 94.8932C83.338 95.026 83.4059 95.2408 83.4059 95.5376V96.8944ZM86.4182 97.7H85.6126L84.595 95.9192V97.7H83.8318V94.732H84.6374L85.655 96.5128V94.732H86.4182V97.7ZM88.921 94.6896C89.3082 94.6896 89.7746 94.7179 90.3202 94.7744V95.3468C90.1647 95.3384 90.0319 95.3313 89.9216 95.3256C89.8142 95.3172 89.7252 95.3115 89.6545 95.3087C89.5867 95.303 89.5188 95.2974 89.451 95.2917C89.3379 95.2861 89.2333 95.2832 89.1372 95.2832C88.9648 95.2832 88.8786 95.3539 88.8786 95.4952V95.8768C89.1528 95.8203 89.393 95.792 89.5994 95.792H89.8962C90.0884 95.792 90.2424 95.85 90.3583 95.9659C90.4742 96.0818 90.5322 96.2358 90.5322 96.428V96.9792C90.5322 97.2364 90.4672 97.4287 90.3371 97.5559C90.2071 97.6802 90.0036 97.7424 89.7266 97.7424H88.921C88.644 97.7424 88.4404 97.6802 88.3104 97.5559C88.1804 97.4287 88.1154 97.2364 88.1154 96.9792V95.4952C88.1154 95.2182 88.1804 95.0147 88.3104 94.8847C88.4404 94.7546 88.644 94.6896 88.921 94.6896ZM89.3874 96.3856C89.28 96.3856 89.181 96.3913 89.0906 96.4026C89.0029 96.4139 88.9323 96.4224 88.8786 96.428V96.8944C88.8786 97.064 88.9634 97.1488 89.133 97.1488H89.5146C89.6842 97.1488 89.769 97.064 89.769 96.8944V96.534C89.769 96.4916 89.7548 96.4563 89.7266 96.428C89.6983 96.3998 89.663 96.3856 89.6206 96.3856H89.3874Z" fill="url(#paint3_linear_842_64)"/>
</g>
<path id="SEASON 6_2" d="M69.2631 97.0852C70.0376 97.1276 70.562 97.1488 70.8362 97.1488C70.9012 97.1488 70.952 97.1304 70.9888 97.0937C71.0284 97.0541 71.0482 97.0018 71.0482 96.9368V96.5552H70.073C69.7762 96.5552 69.5599 96.4888 69.4242 96.3559C69.2914 96.2203 69.225 96.004 69.225 95.7072V95.58C69.225 95.2832 69.2914 95.0684 69.4242 94.9356C69.5599 94.7999 69.7762 94.732 70.073 94.732H71.5612V95.3256H70.2426C70.073 95.3256 69.9882 95.4104 69.9882 95.58V95.6648C69.9882 95.8344 70.073 95.9192 70.2426 95.9192H71.0058C71.2828 95.9192 71.4863 95.9842 71.6163 96.1143C71.7463 96.2443 71.8113 96.4478 71.8113 96.7248V96.9368C71.8113 97.2138 71.7463 97.4174 71.6163 97.5474C71.4863 97.6774 71.2828 97.7424 71.0058 97.7424C70.8616 97.7424 70.709 97.7396 70.5478 97.7339L70.1578 97.717C69.8694 97.7028 69.5712 97.6831 69.2631 97.6576V97.0852ZM74.5458 97.7H72.1926V94.732H74.5458V95.3256H72.9558V95.898H74.2066V96.4916H72.9558V97.1064H74.5458V97.7ZM75.414 97.7H74.5872L75.7108 94.732H76.5588L77.6824 97.7H76.8556L76.6648 97.17H75.6048L75.414 97.7ZM75.7956 96.6188H76.474L76.1348 95.6224L75.7956 96.6188ZM77.8052 97.0852C78.5797 97.1276 79.104 97.1488 79.3782 97.1488C79.4432 97.1488 79.4941 97.1304 79.5309 97.0937C79.5704 97.0541 79.5902 97.0018 79.5902 96.9368V96.5552H78.615C78.3182 96.5552 78.102 96.4888 77.9663 96.3559C77.8334 96.2203 77.767 96.004 77.767 95.7072V95.58C77.767 95.2832 77.8334 95.0684 77.9663 94.9356C78.102 94.7999 78.3182 94.732 78.615 94.732H80.1033V95.3256H78.7846C78.615 95.3256 78.5302 95.4104 78.5302 95.58V95.6648C78.5302 95.8344 78.615 95.9192 78.7846 95.9192H79.5478C79.8248 95.9192 80.0283 95.9842 80.1584 96.1143C80.2884 96.2443 80.3534 96.4478 80.3534 96.7248V96.9368C80.3534 97.2138 80.2884 97.4174 80.1584 97.5474C80.0283 97.6774 79.8248 97.7424 79.5478 97.7424C79.4037 97.7424 79.251 97.7396 79.0899 97.7339L78.6998 97.717C78.4115 97.7028 78.1133 97.6831 77.8052 97.6576V97.0852ZM82.6427 95.5376C82.6427 95.368 82.5579 95.2832 82.3883 95.2832H81.6675C81.4979 95.2832 81.4131 95.368 81.4131 95.5376V96.8944C81.4131 97.064 81.4979 97.1488 81.6675 97.1488H82.3883C82.5579 97.1488 82.6427 97.064 82.6427 96.8944V95.5376ZM83.4059 96.8944C83.4059 97.1912 83.338 97.4075 83.2023 97.5431C83.0695 97.676 82.8547 97.7424 82.5579 97.7424H81.4979C81.2011 97.7424 80.9848 97.676 80.8492 97.5431C80.7163 97.4075 80.6499 97.1912 80.6499 96.8944V95.5376C80.6499 95.2408 80.7163 95.026 80.8492 94.8932C80.9848 94.7575 81.2011 94.6896 81.4979 94.6896H82.5579C82.8547 94.6896 83.0695 94.7575 83.2023 94.8932C83.338 95.026 83.4059 95.2408 83.4059 95.5376V96.8944ZM86.4182 97.7H85.6126L84.595 95.9192V97.7H83.8318V94.732H84.6374L85.655 96.5128V94.732H86.4182V97.7ZM88.921 94.6896C89.3082 94.6896 89.7746 94.7179 90.3202 94.7744V95.3468C90.1647 95.3384 90.0319 95.3313 89.9216 95.3256C89.8142 95.3172 89.7252 95.3115 89.6545 95.3087C89.5867 95.303 89.5188 95.2974 89.451 95.2917C89.3379 95.2861 89.2333 95.2832 89.1372 95.2832C88.9648 95.2832 88.8786 95.3539 88.8786 95.4952V95.8768C89.1528 95.8203 89.393 95.792 89.5994 95.792H89.8962C90.0884 95.792 90.2424 95.85 90.3583 95.9659C90.4742 96.0818 90.5322 96.2358 90.5322 96.428V96.9792C90.5322 97.2364 90.4672 97.4287 90.3371 97.5559C90.2071 97.6802 90.0036 97.7424 89.7266 97.7424H88.921C88.644 97.7424 88.4404 97.6802 88.3104 97.5559C88.1804 97.4287 88.1154 97.2364 88.1154 96.9792V95.4952C88.1154 95.2182 88.1804 95.0147 88.3104 94.8847C88.4404 94.7546 88.644 94.6896 88.921 94.6896ZM89.3874 96.3856C89.28 96.3856 89.181 96.3913 89.0906 96.4026C89.0029 96.4139 88.9323 96.4224 88.8786 96.428V96.8944C88.8786 97.064 88.9634 97.1488 89.133 97.1488H89.5146C89.6842 97.1488 89.769 97.064 89.769 96.8944V96.534C89.769 96.4916 89.7548 96.4563 89.7266 96.428C89.6983 96.3998 89.663 96.3856 89.6206 96.3856H89.3874Z" fill="#F5F1EE"/>
</g>
<g id="Group 160">
<g id="ESL" filter="url(#filter2_f_842_64)">
<path d="M78.8093 110H76.6638V107.294H78.8093V107.835H77.3596V108.357H78.5V108.898H77.3596V109.459H78.8093V110ZM79.0365 109.439C79.7427 109.478 80.2207 109.497 80.4707 109.497C80.53 109.497 80.5764 109.481 80.6099 109.447C80.646 109.411 80.664 109.363 80.664 109.304V108.956H79.7749C79.5043 108.956 79.3071 108.896 79.1834 108.775C79.0623 108.651 79.0017 108.454 79.0017 108.183V108.067C79.0017 107.796 79.0623 107.601 79.1834 107.479C79.3071 107.356 79.5043 107.294 79.7749 107.294H81.1318V107.835H79.9295C79.7749 107.835 79.6976 107.912 79.6976 108.067V108.144C79.6976 108.299 79.7749 108.376 79.9295 108.376H80.6254C80.8779 108.376 81.0635 108.436 81.182 108.554C81.3006 108.673 81.3599 108.858 81.3599 109.111V109.304C81.3599 109.557 81.3006 109.742 81.182 109.861C81.0635 109.979 80.8779 110.039 80.6254 110.039C80.4939 110.039 80.3548 110.036 80.2078 110.031L79.8522 110.015C79.5893 110.003 79.3174 109.985 79.0365 109.961V109.439ZM82.4034 109.459H83.8144V110H81.7075V107.294H82.4034V109.459Z" fill="url(#paint4_linear_842_64)"/>
</g>
<path id="ESL_2" d="M78.8093 110H76.6638V107.294H78.8093V107.835H77.3596V108.357H78.5V108.898H77.3596V109.459H78.8093V110ZM79.0365 109.439C79.7427 109.478 80.2207 109.497 80.4707 109.497C80.53 109.497 80.5764 109.481 80.6099 109.447C80.646 109.411 80.664 109.363 80.664 109.304V108.956H79.7749C79.5043 108.956 79.3071 108.896 79.1834 108.775C79.0623 108.651 79.0017 108.454 79.0017 108.183V108.067C79.0017 107.796 79.0623 107.601 79.1834 107.479C79.3071 107.356 79.5043 107.294 79.7749 107.294H81.1318V107.835H79.9295C79.7749 107.835 79.6976 107.912 79.6976 108.067V108.144C79.6976 108.299 79.7749 108.376 79.9295 108.376H80.6254C80.8779 108.376 81.0635 108.436 81.182 108.554C81.3006 108.673 81.3599 108.858 81.3599 109.111V109.304C81.3599 109.557 81.3006 109.742 81.182 109.861C81.0635 109.979 80.8779 110.039 80.6254 110.039C80.4939 110.039 80.3548 110.036 80.2078 110.031L79.8522 110.015C79.5893 110.003 79.3174 109.985 79.0365 109.961V109.439ZM82.4034 109.459H83.8144V110H81.7075V107.294H82.4034V109.459Z" fill="#F5F1EE"/>
</g>
</g>
</g>
</g>
<defs>
<filter id="filter0_f_842_64" x="68.3942" y="97.0824" width="23.7838" height="10.4429" filterUnits="userSpaceOnUse" color-interpolation-filters="sRGB">
<feFlood flood-opacity="0" result="BackgroundImageFix"/>
<feBlend mode="normal" in="SourceGraphic" in2="BackgroundImageFix" result="shape"/>
<feGaussianBlur stdDeviation="0.760563" result="effect1_foregroundBlur_842_64"/>
</filter>
<filter id="filter1_f_842_64" x="68.6062" y="94.0709" width="22.5447" height="4.29028" filterUnits="userSpaceOnUse" color-interpolation-filters="sRGB">
<feFlood flood-opacity="0" result="BackgroundImageFix"/>
<feBlend mode="normal" in="SourceGraphic" in2="BackgroundImageFix" result="shape"/>
<feGaussianBlur stdDeviation="0.309375" result="effect1_foregroundBlur_842_64"/>
</filter>
<filter id="filter2_f_842_64" x="74.5209" y="105.151" width="11.4363" height="7.03047" filterUnits="userSpaceOnUse" color-interpolation-filters="sRGB">
<feFlood flood-opacity="0" result="BackgroundImageFix"/>
<feBlend mode="normal" in="SourceGraphic" in2="BackgroundImageFix" result="shape"/>
<feGaussianBlur stdDeviation="1.07143" result="effect1_foregroundBlur_842_64"/>
</filter>
<linearGradient id="paint0_linear_842_64" x1="63.5835" y1="101.023" x2="95.5491" y2="101.023" gradientUnits="userSpaceOnUse">
<stop stop-color="#AB750F"/>
<stop offset="0.516" stop-color="#D8A956"/>
<stop offset="1" stop-color="#AB750F"/>
</linearGradient>
<linearGradient id="paint1_linear_842_64" x1="84.2913" y1="88.7" x2="84.2913" y2="113.102" gradientUnits="userSpaceOnUse">
<stop stop-color="#AB750F"/>
<stop offset="0.516" stop-color="#D8A956"/>
<stop offset="1" stop-color="#AB750F"/>
</linearGradient>
<linearGradient id="paint2_linear_842_64" x1="68.2573" y1="102.4" x2="91.6881" y2="102.4" gradientUnits="userSpaceOnUse">
<stop stop-color="#AB750F"/>
<stop offset="0.516" stop-color="#D8A956"/>
<stop offset="1" stop-color="#AB750F"/>
</linearGradient>
<linearGradient id="paint3_linear_842_64" x1="67.8287" y1="96.2" x2="91.2596" y2="96.2" gradientUnits="userSpaceOnUse">
<stop stop-color="#AB750F"/>
<stop offset="0.516" stop-color="#D8A956"/>
<stop offset="1" stop-color="#AB750F"/>
</linearGradient>
<linearGradient id="paint4_linear_842_64" x1="75.7689" y1="108.5" x2="84.2892" y2="108.5" gradientUnits="userSpaceOnUse">
<stop stop-color="#AB750F"/>
<stop offset="0.516" stop-color="#D8A956"/>
<stop offset="1" stop-color="#AB750F"/>
</linearGradient>
<clipPath id="clip0_842_64">
<rect width="30" height="30" fill="white" transform="translate(65 86)"/>
</clipPath>
</defs>
</svg>
