<svg width="84" height="70" viewBox="0 0 84 70" fill="none" xmlns="http://www.w3.org/2000/svg">
<g id="all-leagues">
<g id="Group 349">
<path id="Rectangle 297" d="M28.2842 46.2843L42.2842 32.2843L55.9999 46L41.9999 60L28.2842 46.2843Z" fill="#212121"/>
<path id="Rectangle 297 (Stroke)" fill-rule="evenodd" clip-rule="evenodd" d="M26.8701 46.2843L42.2843 30.8701L57.4143 46L42 61.4142L26.8701 46.2843ZM28.2843 46.2843L42 60L56.0001 46L42.2843 32.2843L28.2843 46.2843Z" fill="url(#paint0_linear_2164_2763)"/>
</g>
<g id="Group 171">
<path id="Vector 246" d="M52.3689 27.8206C60.6226 19.5669 57.0976 14.0645 54.3034 12.3449C56.5602 16.8587 51.5091 20.5126 48.5 21.3724C48.5 21.5873 49.2738 23.1779 52.3689 27.8206Z" fill="#212121"/>
<path id="Vector 246 (Stroke)" fill-rule="evenodd" clip-rule="evenodd" d="M53.0718 11L53.8561 12.5685C54.8677 14.5918 54.2667 16.4197 52.9965 17.9038C51.7104 19.4063 49.7836 20.4856 48.3626 20.8916L47.9999 20.9952V21.3724C47.9999 21.4999 48.0449 21.6258 48.0706 21.6951C48.1051 21.7878 48.1545 21.9008 48.2184 22.0341C48.3469 22.3018 48.5472 22.6779 48.8407 23.1861C49.4284 24.2037 50.402 25.7717 51.9528 28.0979L52.2911 28.6054L52.7224 28.1741C56.9086 23.9879 58.1914 20.4142 57.9776 17.5946C57.7643 14.7817 56.0702 12.8452 54.5653 11.9191L53.0718 11ZM52.4438 27.0299C51.0972 24.9952 50.2363 23.6029 49.7067 22.686C49.4516 22.2443 49.2758 21.917 49.1603 21.684C50.6654 21.1432 52.4806 20.0444 53.7562 18.554C54.8629 17.2611 55.5891 15.6333 55.3064 13.8217C56.1491 14.7349 56.8561 16.0304 56.9804 17.6702C57.1577 20.0077 56.1591 23.1623 52.4438 27.0299Z" fill="url(#paint1_linear_2164_2763)"/>
</g>
<g id="Group 350">
<path id="Vector 246_2" d="M31.6311 27.8206C23.3774 19.5669 26.9024 14.0645 29.6966 12.3449C27.4398 16.8587 32.4909 20.5126 35.5 21.3724C35.5 21.5873 34.7262 23.1779 31.6311 27.8206Z" fill="#212121"/>
<path id="Vector 246 (Stroke)_2" fill-rule="evenodd" clip-rule="evenodd" d="M30.9282 11L30.1439 12.5685C29.1323 14.5918 29.7333 16.4197 31.0035 17.9038C32.2896 19.4063 34.2164 20.4856 35.6374 20.8916L36.0001 20.9952V21.3724C36.0001 21.4999 35.9551 21.6258 35.9294 21.6951C35.8949 21.7878 35.8455 21.9008 35.7816 22.0341C35.6531 22.3018 35.4528 22.6779 35.1593 23.1861C34.5716 24.2037 33.598 25.7717 32.0472 28.0979L31.7089 28.6054L31.2776 28.1741C27.0914 23.9879 25.8086 20.4142 26.0224 17.5946C26.2357 14.7817 27.9298 12.8452 29.4347 11.9191L30.9282 11ZM31.5562 27.0299C32.9028 24.9952 33.7637 23.6029 34.2933 22.686C34.5484 22.2443 34.7242 21.917 34.8397 21.684C33.3346 21.1432 31.5194 20.0444 30.2438 18.554C29.1371 17.2611 28.4109 15.6333 28.6936 13.8217C27.8509 14.7349 27.1439 16.0304 27.0196 17.6702C26.8423 20.0077 27.8409 23.1623 31.5562 27.0299Z" fill="url(#paint2_linear_2164_2763)"/>
</g>
<g id="Union">
<mask id="path-7-inside-1_2164_2763" fill="white">
<path fill-rule="evenodd" clip-rule="evenodd" d="M78 33L84 24L70 27L72 23L58 25L42 15L26 25L12 23L14 27L0 24L6 33L3 50L11 57L10 52H25L42 57L59 52H74L73 57L81 50L78 33Z"/>
</mask>
<path fill-rule="evenodd" clip-rule="evenodd" d="M78 33L84 24L70 27L72 23L58 25L42 15L26 25L12 23L14 27L0 24L6 33L3 50L11 57L10 52H25L42 57L59 52H74L73 57L81 50L78 33Z" fill="#212121"/>
<path d="M78 33L77.1679 32.4453L76.9455 32.7789L77.0152 33.1738L78 33ZM84 24L84.8321 24.5547L86.1976 22.5064L83.7905 23.0222L84 24ZM70 27L69.1056 26.5528L68.1751 28.4137L70.2095 27.9778L70 27ZM72 23L72.8944 23.4472L73.748 21.7401L71.8586 22.01L72 23ZM58 25L57.47 25.848L57.7798 26.0416L58.1414 25.9899L58 25ZM42 15L42.53 14.152L42 13.8208L41.47 14.152L42 15ZM26 25L25.8586 25.99L26.2202 26.0416L26.53 25.848L26 25ZM12 23L12.1414 22.0101L10.252 21.7401L11.1056 23.4472L12 23ZM14 27L13.7905 27.9778L15.8249 28.4138L14.8944 26.5528L14 27ZM0 24L0.209529 23.0222L-2.19759 22.5064L-0.83205 24.5547L0 24ZM6 33L6.98478 33.1738L7.05447 32.7789L6.83205 32.4453L6 33ZM3 50L2.01522 49.8262L1.91725 50.3814L2.3415 50.7526L3 50ZM11 57L10.3415 57.7526L12.5583 59.6922L11.9806 56.8039L11 57ZM10 52V51H8.7802L9.01942 52.1961L10 52ZM25 52L25.2822 51.0406L25.144 51H25V52ZM42 57L41.7178 57.9594L42 58.0424L42.2822 57.9594L42 57ZM59 52V51H58.856L58.7178 51.0406L59 52ZM74 52L74.9806 52.1961L75.2198 51H74V52ZM73 57L72.0194 56.8039L71.4417 59.6922L73.6585 57.7526L73 57ZM81 50L81.6585 50.7526L82.0828 50.3814L81.9848 49.8262L81 50ZM78.8321 33.5547L84.8321 24.5547L83.1679 23.4453L77.1679 32.4453L78.8321 33.5547ZM83.7905 23.0222L69.7905 26.0222L70.2095 27.9778L84.2095 24.9778L83.7905 23.0222ZM70.8944 27.4472L72.8944 23.4472L71.1056 22.5528L69.1056 26.5528L70.8944 27.4472ZM71.8586 22.01L57.8586 24.01L58.1414 25.9899L72.1414 23.9899L71.8586 22.01ZM58.53 24.152L42.53 14.152L41.47 15.848L57.47 25.848L58.53 24.152ZM41.47 14.152L25.47 24.152L26.53 25.848L42.53 15.848L41.47 14.152ZM26.1414 24.0101L12.1414 22.0101L11.8586 23.99L25.8586 25.99L26.1414 24.0101ZM11.1056 23.4472L13.1056 27.4472L14.8944 26.5528L12.8944 22.5528L11.1056 23.4472ZM14.2095 26.0222L0.209529 23.0222L-0.209529 24.9778L13.7905 27.9778L14.2095 26.0222ZM-0.83205 24.5547L5.16795 33.5547L6.83205 32.4453L0.83205 23.4453L-0.83205 24.5547ZM5.01522 32.8262L2.01522 49.8262L3.98478 50.1738L6.98478 33.1738L5.01522 32.8262ZM11.6585 56.2474L3.6585 49.2474L2.3415 50.7526L10.3415 57.7526L11.6585 56.2474ZM9.01942 52.1961L10.0194 57.1961L11.9806 56.8039L10.9806 51.8039L9.01942 52.1961ZM25 51H10V53H25V51ZM42.2822 56.0406L25.2822 51.0406L24.7178 52.9594L41.7178 57.9594L42.2822 56.0406ZM58.7178 51.0406L41.7178 56.0406L42.2822 57.9594L59.2822 52.9594L58.7178 51.0406ZM74 51H59V53H74V51ZM73.9806 57.1961L74.9806 52.1961L73.0194 51.8039L72.0194 56.8039L73.9806 57.1961ZM80.3415 49.2474L72.3415 56.2474L73.6585 57.7526L81.6585 50.7526L80.3415 49.2474ZM81.9848 49.8262L78.9848 32.8262L77.0152 33.1738L80.0152 50.1738L81.9848 49.8262Z" fill="url(#paint3_linear_2164_2763)" mask="url(#path-7-inside-1_2164_2763)"/>
</g>
<g id="ALL LEAGUES" filter="url(#filter0_f_2164_2763)">
<path d="M31.007 35H28.277L31.987 25.2H34.787L38.497 35H35.767L35.137 33.25H31.637L31.007 35ZM32.267 31.43H34.507L33.387 28.14L32.267 31.43ZM41.7164 33.04H46.8264V35H39.1964V25.2H41.7164V33.04ZM50.3297 33.04H55.4397V35H47.8097V25.2H50.3297V33.04ZM12.4928 45.04H17.6028V47H9.97281V37.2H12.4928V45.04ZM26.3561 47H18.5861V37.2H26.3561V39.16H21.1061V41.05H25.2361V43.01H21.1061V45.04H26.3561V47ZM29.2228 47H26.4928L30.2028 37.2H33.0028L36.7128 47H33.9828L33.3528 45.25H29.8528L29.2228 47ZM30.4828 43.43H32.7228L31.6028 40.14L30.4828 43.43ZM45.5388 46.79C43.3548 47.0233 41.3482 47.14 39.5188 47.14C38.6042 47.14 37.9322 46.9253 37.5028 46.496C37.0735 46.0667 36.8588 45.3947 36.8588 44.48V40C36.8588 39.02 37.0782 38.3107 37.5168 37.872C37.9648 37.424 38.6788 37.2 39.6588 37.2H44.6988V39.16H40.2188C39.6588 39.16 39.3788 39.44 39.3788 40V44.48C39.3788 44.6947 39.4395 44.8673 39.5608 44.998C39.6915 45.1193 39.8642 45.18 40.0788 45.18C41.1522 45.18 42.1322 45.1567 43.0188 45.11V43.08H41.1988V41.4H45.5388V46.79ZM53.2416 37.2H55.7616V44.34C55.7616 45.32 55.5376 46.034 55.0896 46.482C54.6509 46.9207 53.9416 47.14 52.9616 47.14H49.7416C48.7616 47.14 48.0476 46.9207 47.5996 46.482C47.1609 46.034 46.9416 45.32 46.9416 44.34V37.2H49.4616V44.34C49.4616 44.9 49.7416 45.18 50.3016 45.18H52.4016C52.9616 45.18 53.2416 44.9 53.2416 44.34V37.2ZM65.2116 47H57.4416V37.2H65.2116V39.16H59.9616V41.05H64.0916V43.01H59.9616V45.04H65.2116V47ZM66.0343 44.97C68.5916 45.11 70.3229 45.18 71.2283 45.18C71.4429 45.18 71.6109 45.1193 71.7323 44.998C71.8629 44.8673 71.9283 44.6947 71.9283 44.48V43.22H68.7083C67.7283 43.22 67.0143 43.0007 66.5663 42.562C66.1276 42.114 65.9083 41.4 65.9083 40.42V40C65.9083 39.02 66.1276 38.3107 66.5663 37.872C67.0143 37.424 67.7283 37.2 68.7083 37.2H73.6223V39.16H69.2683C68.7083 39.16 68.4283 39.44 68.4283 40V40.28C68.4283 40.84 68.7083 41.12 69.2683 41.12H71.7883C72.7029 41.12 73.3749 41.3347 73.8043 41.764C74.2336 42.1933 74.4483 42.8653 74.4483 43.78V44.48C74.4483 45.3947 74.2336 46.0667 73.8043 46.496C73.3749 46.9253 72.7029 47.14 71.7883 47.14C71.3123 47.14 70.8083 47.1307 70.2763 47.112L68.9883 47.056C68.0363 47.0093 67.0516 46.944 66.0343 46.86V44.97Z" fill="url(#paint4_linear_2164_2763)"/>
</g>
<path id="ALL LEAGUES_2" d="M31.007 35H28.277L31.987 25.2H34.787L38.497 35H35.767L35.137 33.25H31.637L31.007 35ZM32.267 31.43H34.507L33.387 28.14L32.267 31.43ZM41.7164 33.04H46.8264V35H39.1964V25.2H41.7164V33.04ZM50.3297 33.04H55.4397V35H47.8097V25.2H50.3297V33.04ZM12.4928 45.04H17.6028V47H9.97281V37.2H12.4928V45.04ZM26.3561 47H18.5861V37.2H26.3561V39.16H21.1061V41.05H25.2361V43.01H21.1061V45.04H26.3561V47ZM29.2228 47H26.4928L30.2028 37.2H33.0028L36.7128 47H33.9828L33.3528 45.25H29.8528L29.2228 47ZM30.4828 43.43H32.7228L31.6028 40.14L30.4828 43.43ZM45.5388 46.79C43.3548 47.0233 41.3482 47.14 39.5188 47.14C38.6042 47.14 37.9322 46.9253 37.5028 46.496C37.0735 46.0667 36.8588 45.3947 36.8588 44.48V40C36.8588 39.02 37.0782 38.3107 37.5168 37.872C37.9648 37.424 38.6788 37.2 39.6588 37.2H44.6988V39.16H40.2188C39.6588 39.16 39.3788 39.44 39.3788 40V44.48C39.3788 44.6947 39.4395 44.8673 39.5608 44.998C39.6915 45.1193 39.8642 45.18 40.0788 45.18C41.1522 45.18 42.1322 45.1567 43.0188 45.11V43.08H41.1988V41.4H45.5388V46.79ZM53.2416 37.2H55.7616V44.34C55.7616 45.32 55.5376 46.034 55.0896 46.482C54.6509 46.9207 53.9416 47.14 52.9616 47.14H49.7416C48.7616 47.14 48.0476 46.9207 47.5996 46.482C47.1609 46.034 46.9416 45.32 46.9416 44.34V37.2H49.4616V44.34C49.4616 44.9 49.7416 45.18 50.3016 45.18H52.4016C52.9616 45.18 53.2416 44.9 53.2416 44.34V37.2ZM65.2116 47H57.4416V37.2H65.2116V39.16H59.9616V41.05H64.0916V43.01H59.9616V45.04H65.2116V47ZM66.0343 44.97C68.5916 45.11 70.3229 45.18 71.2283 45.18C71.4429 45.18 71.6109 45.1193 71.7323 44.998C71.8629 44.8673 71.9283 44.6947 71.9283 44.48V43.22H68.7083C67.7283 43.22 67.0143 43.0007 66.5663 42.562C66.1276 42.114 65.9083 41.4 65.9083 40.42V40C65.9083 39.02 66.1276 38.3107 66.5663 37.872C67.0143 37.424 67.7283 37.2 68.7083 37.2H73.6223V39.16H69.2683C68.7083 39.16 68.4283 39.44 68.4283 40V40.28C68.4283 40.84 68.7083 41.12 69.2683 41.12H71.7883C72.7029 41.12 73.3749 41.3347 73.8043 41.764C74.2336 42.1933 74.4483 42.8653 74.4483 43.78V44.48C74.4483 45.3947 74.2336 46.0667 73.8043 46.496C73.3749 46.9253 72.7029 47.14 71.7883 47.14C71.3123 47.14 70.8083 47.1307 70.2763 47.112L68.9883 47.056C68.0363 47.0093 67.0516 46.944 66.0343 46.86V44.97Z" fill="#F5F1EE"/>
<g id="Group 347">
<path id="Vector 431" d="M13 30L7 29L15 34L13 30Z" fill="url(#paint5_linear_2164_2763)"/>
<path id="Vector 432" d="M23 27L17 26L23 30V27Z" fill="url(#paint6_linear_2164_2763)"/>
</g>
<g id="Group 348">
<path id="Vector 431_2" d="M71 30L77 29L69 34L71 30Z" fill="url(#paint7_linear_2164_2763)"/>
<path id="Vector 432_2" d="M61 27L67 26L61 30V27Z" fill="url(#paint8_linear_2164_2763)"/>
</g>
<path id="Union_2" fill-rule="evenodd" clip-rule="evenodd" d="M42 54C41.6 54 30.8333 50.3333 27 49L42 51L57 49C53.1667 50.3333 42.4 54 42 54Z" fill="url(#paint9_linear_2164_2763)"/>
<path id="Union_3" d="M42 23L39 20L42 18L45 20L42 23Z" fill="url(#paint10_linear_2164_2763)"/>
</g>
<defs>
<filter id="filter0_f_2164_2763" x="5.97266" y="21.2" width="72.4756" height="29.94" filterUnits="userSpaceOnUse" color-interpolation-filters="sRGB">
<feFlood flood-opacity="0" result="BackgroundImageFix"/>
<feBlend mode="normal" in="SourceGraphic" in2="BackgroundImageFix" result="shape"/>
<feGaussianBlur stdDeviation="2" result="effect1_foregroundBlur_2164_2763"/>
</filter>
<linearGradient id="paint0_linear_2164_2763" x1="34.5772" y1="38.5772" x2="49.7072" y2="53.7071" gradientUnits="userSpaceOnUse">
<stop stop-color="#AB750F"/>
<stop offset="0.516" stop-color="#D8A956"/>
<stop offset="1" stop-color="#AB750F"/>
</linearGradient>
<linearGradient id="paint1_linear_2164_2763" x1="53" y1="11" x2="53" y2="28.6054" gradientUnits="userSpaceOnUse">
<stop stop-color="#AB750F"/>
<stop offset="0.516" stop-color="#D8A956"/>
<stop offset="1" stop-color="#AB750F"/>
</linearGradient>
<linearGradient id="paint2_linear_2164_2763" x1="31" y1="11" x2="31" y2="28.6054" gradientUnits="userSpaceOnUse">
<stop stop-color="#AB750F"/>
<stop offset="0.516" stop-color="#D8A956"/>
<stop offset="1" stop-color="#AB750F"/>
</linearGradient>
<linearGradient id="paint3_linear_2164_2763" x1="-3.92683" y1="36.0002" x2="85.5366" y2="36.0002" gradientUnits="userSpaceOnUse">
<stop stop-color="#AB750F"/>
<stop offset="0.516" stop-color="#D8A956"/>
<stop offset="1" stop-color="#AB750F"/>
</linearGradient>
<linearGradient id="paint4_linear_2164_2763" x1="42" y1="25" x2="42" y2="47" gradientUnits="userSpaceOnUse">
<stop stop-color="#AB750F"/>
<stop offset="0.516" stop-color="#D8A956"/>
<stop offset="1" stop-color="#AB750F"/>
</linearGradient>
<linearGradient id="paint5_linear_2164_2763" x1="6.62602" y1="31.5" x2="15.1463" y2="31.5" gradientUnits="userSpaceOnUse">
<stop stop-color="#AB750F"/>
<stop offset="0.516" stop-color="#D8A956"/>
<stop offset="1" stop-color="#AB750F"/>
</linearGradient>
<linearGradient id="paint6_linear_2164_2763" x1="16.7195" y1="28" x2="23.1098" y2="28" gradientUnits="userSpaceOnUse">
<stop stop-color="#AB750F"/>
<stop offset="0.516" stop-color="#D8A956"/>
<stop offset="1" stop-color="#AB750F"/>
</linearGradient>
<linearGradient id="paint7_linear_2164_2763" x1="77.374" y1="31.5" x2="68.8537" y2="31.5" gradientUnits="userSpaceOnUse">
<stop stop-color="#AB750F"/>
<stop offset="0.516" stop-color="#D8A956"/>
<stop offset="1" stop-color="#AB750F"/>
</linearGradient>
<linearGradient id="paint8_linear_2164_2763" x1="67.2805" y1="28" x2="60.8902" y2="28" gradientUnits="userSpaceOnUse">
<stop stop-color="#AB750F"/>
<stop offset="0.516" stop-color="#D8A956"/>
<stop offset="1" stop-color="#AB750F"/>
</linearGradient>
<linearGradient id="paint9_linear_2164_2763" x1="42" y1="49" x2="42" y2="54" gradientUnits="userSpaceOnUse">
<stop stop-color="#AB750F"/>
<stop offset="0.516" stop-color="#D8A956"/>
<stop offset="1" stop-color="#AB750F"/>
</linearGradient>
<linearGradient id="paint10_linear_2164_2763" x1="42" y1="18" x2="42" y2="23" gradientUnits="userSpaceOnUse">
<stop stop-color="#AB750F"/>
<stop offset="0.516" stop-color="#D8A956"/>
<stop offset="1" stop-color="#AB750F"/>
</linearGradient>
</defs>
</svg>
