<svg width="84" height="70" viewBox="0 0 84 70" fill="none" xmlns="http://www.w3.org/2000/svg">
<g id="all-leagues">
<path id="ALL LEAGUES" d="M30.7218 33H27.7968L31.7718 22.5H34.7718L38.7468 33H35.8218L35.1468 31.125H31.3968L30.7218 33ZM32.0718 29.175H34.4718L33.2718 25.65L32.0718 29.175ZM42.1962 30.9H47.6712V33H39.4962V22.5H42.1962V30.9ZM51.4247 30.9H56.8997V33H48.7247V22.5H51.4247V30.9ZM10.8852 44.9H16.3602V47H8.18516V36.5H10.8852V44.9ZM25.7387 47H17.4137V36.5H25.7387V38.6H20.1137V40.625H24.5387V42.725H20.1137V44.9H25.7387V47ZM28.8102 47H25.8852L29.8602 36.5H32.8602L36.8352 47H33.9102L33.2352 45.125H29.4852L28.8102 47ZM30.1602 43.175H32.5602L31.3602 39.65L30.1602 43.175ZM46.2916 46.775C43.9516 47.025 41.8016 47.15 39.8416 47.15C38.8616 47.15 38.1416 46.92 37.6816 46.46C37.2216 46 36.9916 45.28 36.9916 44.3V39.5C36.9916 38.45 37.2266 37.69 37.6966 37.22C38.1766 36.74 38.9416 36.5 39.9916 36.5H45.3916V38.6H40.5916C39.9916 38.6 39.6916 38.9 39.6916 39.5V44.3C39.6916 44.53 39.7566 44.715 39.8866 44.855C40.0266 44.985 40.2116 45.05 40.4416 45.05C41.5916 45.05 42.6416 45.025 43.5916 44.975V42.8H41.6416V41H46.2916V46.775ZM54.5445 36.5H57.2445V44.15C57.2445 45.2 57.0045 45.965 56.5245 46.445C56.0545 46.915 55.2945 47.15 54.2445 47.15H50.7945C49.7445 47.15 48.9795 46.915 48.4995 46.445C48.0295 45.965 47.7945 45.2 47.7945 44.15V36.5H50.4945V44.15C50.4945 44.75 50.7945 45.05 51.3945 45.05H53.6445C54.2445 45.05 54.5445 44.75 54.5445 44.15V36.5ZM67.3695 47H59.0445V36.5H67.3695V38.6H61.7445V40.625H66.1695V42.725H61.7445V44.9H67.3695V47ZM68.251 44.825C70.991 44.975 72.846 45.05 73.816 45.05C74.046 45.05 74.226 44.985 74.356 44.855C74.496 44.715 74.566 44.53 74.566 44.3V42.95H71.116C70.066 42.95 69.301 42.715 68.821 42.245C68.351 41.765 68.116 41 68.116 39.95V39.5C68.116 38.45 68.351 37.69 68.821 37.22C69.301 36.74 70.066 36.5 71.116 36.5H76.381V38.6H71.716C71.116 38.6 70.816 38.9 70.816 39.5V39.8C70.816 40.4 71.116 40.7 71.716 40.7H74.416C75.396 40.7 76.116 40.93 76.576 41.39C77.036 41.85 77.266 42.57 77.266 43.55V44.3C77.266 45.28 77.036 46 76.576 46.46C76.116 46.92 75.396 47.15 74.416 47.15C73.906 47.15 73.366 47.14 72.796 47.12L71.416 47.06C70.396 47.01 69.341 46.94 68.251 46.85V44.825Z" fill="url(#paint0_linear_2154_2234)"/>
</g>
<defs>
<linearGradient id="paint0_linear_2154_2234" x1="3.68089" y1="34.5001" x2="79.2988" y2="34.5001" gradientUnits="userSpaceOnUse">
<stop stop-color="#AB750F"/>
<stop offset="0.516" stop-color="#D8A956"/>
<stop offset="1" stop-color="#AB750F"/>
</linearGradient>
</defs>
</svg>
