<svg width="84" height="70" viewBox="0 0 84 70" fill="none" xmlns="http://www.w3.org/2000/svg">
<g id="all-regions">
<g id="Group 349">
<path id="Rectangle 297" d="M28.2842 46.2843L42.2842 32.2843L55.9999 46L41.9999 60L28.2842 46.2843Z" fill="#212121"/>
<path id="Rectangle 297 (Stroke)" fill-rule="evenodd" clip-rule="evenodd" d="M26.8701 46.2843L42.2843 30.8701L57.4143 46L42 61.4142L26.8701 46.2843ZM28.2843 46.2843L42 60L56.0001 46L42.2843 32.2843L28.2843 46.2843Z" fill="url(#paint0_linear_2190_2232)"/>
</g>
<g id="Group 171">
<path id="Vector 246" d="M52.3689 27.8206C60.6226 19.5669 57.0976 14.0644 54.3034 12.3449C56.5602 16.8586 51.5091 20.5126 48.5 21.3724C48.5 21.5873 49.2738 23.1779 52.3689 27.8206Z" fill="#212121"/>
<path id="Vector 246 (Stroke)" fill-rule="evenodd" clip-rule="evenodd" d="M53.0719 11L53.8561 12.5685C54.8677 14.5918 54.2668 16.4197 52.9966 17.9038C51.7105 19.4063 49.7836 20.4856 48.3626 20.8916L48 20.9952V21.3724C48 21.4999 48.0449 21.6258 48.0707 21.6951C48.1052 21.7878 48.1545 21.9008 48.2185 22.0341C48.347 22.3018 48.5473 22.6779 48.8408 23.1861C49.4285 24.2037 50.4021 25.7717 51.9529 28.0979L52.2912 28.6054L52.7224 28.1741C56.9087 23.9879 58.1914 20.4142 57.9776 17.5946C57.7644 14.7817 56.0703 12.8452 54.5654 11.9191L53.0719 11ZM52.4439 27.0299C51.0972 24.9952 50.2363 23.6029 49.7068 22.686C49.4517 22.2443 49.2758 21.917 49.1604 21.684C50.6654 21.1432 52.4807 20.0444 53.7563 18.554C54.8629 17.2611 55.5891 15.6333 55.3065 13.8217C56.1492 14.7349 56.8562 16.0304 56.9805 17.6702C57.1577 20.0077 56.1592 23.1623 52.4439 27.0299Z" fill="url(#paint1_linear_2190_2232)"/>
</g>
<g id="Group 350">
<path id="Vector 246_2" d="M31.6312 27.8206C23.3775 19.5669 26.9025 14.0644 29.6967 12.3449C27.4398 16.8586 32.4909 20.5126 35.5001 21.3724C35.5001 21.5873 34.7263 23.1779 31.6312 27.8206Z" fill="#212121"/>
<path id="Vector 246 (Stroke)_2" fill-rule="evenodd" clip-rule="evenodd" d="M30.9282 11L30.1439 12.5685C29.1323 14.5918 29.7333 16.4197 31.0035 17.9038C32.2896 19.4063 34.2164 20.4856 35.6374 20.8916L36.0001 20.9952V21.3724C36.0001 21.4999 35.9551 21.6258 35.9294 21.6951C35.8949 21.7878 35.8455 21.9008 35.7816 22.0341C35.6531 22.3018 35.4528 22.6779 35.1593 23.1861C34.5716 24.2037 33.598 25.7717 32.0472 28.0979L31.7089 28.6054L31.2776 28.1741C27.0914 23.9879 25.8086 20.4142 26.0224 17.5946C26.2357 14.7817 27.9298 12.8452 29.4347 11.9191L30.9282 11ZM31.5562 27.0299C32.9028 24.9952 33.7637 23.6029 34.2933 22.686C34.5484 22.2443 34.7242 21.917 34.8397 21.684C33.3346 21.1432 31.5194 20.0444 30.2438 18.554C29.1371 17.2611 28.4109 15.6333 28.6936 13.8217C27.8509 14.7349 27.1439 16.0304 27.0196 17.6702C26.8423 20.0077 27.8409 23.1623 31.5562 27.0299Z" fill="url(#paint2_linear_2190_2232)"/>
</g>
<g id="Union">
<mask id="path-7-inside-1_2190_2232" fill="white">
<path fill-rule="evenodd" clip-rule="evenodd" d="M78 33L84 24L70 27L72 23L58 25L42 15L26 25L12 23L14 27L0 24L6 33L3 50L11 57L10 52H25L42 57L59 52H74L73 57L81 50L78 33Z"/>
</mask>
<path fill-rule="evenodd" clip-rule="evenodd" d="M78 33L84 24L70 27L72 23L58 25L42 15L26 25L12 23L14 27L0 24L6 33L3 50L11 57L10 52H25L42 57L59 52H74L73 57L81 50L78 33Z" fill="#212121"/>
<path d="M78 33L77.1679 32.4453L76.9455 32.7789L77.0152 33.1738L78 33ZM84 24L84.8321 24.5547L86.1976 22.5064L83.7905 23.0222L84 24ZM70 27L69.1056 26.5528L68.1751 28.4137L70.2095 27.9778L70 27ZM72 23L72.8944 23.4472L73.748 21.7401L71.8586 22.01L72 23ZM58 25L57.47 25.848L57.7798 26.0416L58.1414 25.9899L58 25ZM42 15L42.53 14.152L42 13.8208L41.47 14.152L42 15ZM26 25L25.8586 25.99L26.2202 26.0416L26.53 25.848L26 25ZM12 23L12.1414 22.0101L10.252 21.7401L11.1056 23.4472L12 23ZM14 27L13.7905 27.9778L15.8249 28.4138L14.8944 26.5528L14 27ZM0 24L0.209529 23.0222L-2.19759 22.5064L-0.83205 24.5547L0 24ZM6 33L6.98478 33.1738L7.05447 32.7789L6.83205 32.4453L6 33ZM3 50L2.01522 49.8262L1.91725 50.3814L2.3415 50.7526L3 50ZM11 57L10.3415 57.7526L12.5583 59.6922L11.9806 56.8039L11 57ZM10 52V51H8.7802L9.01942 52.1961L10 52ZM25 52L25.2822 51.0406L25.144 51H25V52ZM42 57L41.7178 57.9594L42 58.0424L42.2822 57.9594L42 57ZM59 52V51H58.856L58.7178 51.0406L59 52ZM74 52L74.9806 52.1961L75.2198 51H74V52ZM73 57L72.0194 56.8039L71.4417 59.6922L73.6585 57.7526L73 57ZM81 50L81.6585 50.7526L82.0827 50.3814L81.9848 49.8262L81 50ZM78.8321 33.5547L84.8321 24.5547L83.1679 23.4453L77.1679 32.4453L78.8321 33.5547ZM83.7905 23.0222L69.7905 26.0222L70.2095 27.9778L84.2095 24.9778L83.7905 23.0222ZM70.8944 27.4472L72.8944 23.4472L71.1056 22.5528L69.1056 26.5528L70.8944 27.4472ZM71.8586 22.01L57.8586 24.01L58.1414 25.9899L72.1414 23.9899L71.8586 22.01ZM58.53 24.152L42.53 14.152L41.47 15.848L57.47 25.848L58.53 24.152ZM41.47 14.152L25.47 24.152L26.53 25.848L42.53 15.848L41.47 14.152ZM26.1414 24.0101L12.1414 22.0101L11.8586 23.99L25.8586 25.99L26.1414 24.0101ZM11.1056 23.4472L13.1056 27.4472L14.8944 26.5528L12.8944 22.5528L11.1056 23.4472ZM14.2095 26.0222L0.209529 23.0222L-0.209529 24.9778L13.7905 27.9778L14.2095 26.0222ZM-0.83205 24.5547L5.16795 33.5547L6.83205 32.4453L0.83205 23.4453L-0.83205 24.5547ZM5.01522 32.8262L2.01522 49.8262L3.98478 50.1738L6.98478 33.1738L5.01522 32.8262ZM11.6585 56.2474L3.6585 49.2474L2.3415 50.7526L10.3415 57.7526L11.6585 56.2474ZM9.01942 52.1961L10.0194 57.1961L11.9806 56.8039L10.9806 51.8039L9.01942 52.1961ZM25 51H10V53H25V51ZM42.2822 56.0406L25.2822 51.0406L24.7178 52.9594L41.7178 57.9594L42.2822 56.0406ZM58.7178 51.0406L41.7178 56.0406L42.2822 57.9594L59.2822 52.9594L58.7178 51.0406ZM74 51H59V53H74V51ZM73.9806 57.1961L74.9806 52.1961L73.0194 51.8039L72.0194 56.8039L73.9806 57.1961ZM80.3415 49.2474L72.3415 56.2474L73.6585 57.7526L81.6585 50.7526L80.3415 49.2474ZM81.9848 49.8262L78.9848 32.8262L77.0152 33.1738L80.0152 50.1738L81.9848 49.8262Z" fill="url(#paint3_linear_2190_2232)" mask="url(#path-7-inside-1_2190_2232)"/>
</g>
<g id="ALL REGIONS" filter="url(#filter0_f_2190_2232)">
<path d="M31.507 35H28.777L32.487 25.2H35.287L38.997 35H36.267L35.637 33.25H32.137L31.507 35ZM32.767 31.43H35.007L33.887 28.14L32.767 31.43ZM42.2164 33.04H47.3264V35H39.6964V25.2H42.2164V33.04ZM50.8297 33.04H55.9397V35H48.3097V25.2H50.8297V33.04ZM11.1017 37.2H16.9817C17.9617 37.2 18.6711 37.424 19.1097 37.872C19.5577 38.3107 19.7817 39.02 19.7817 40V41.26C19.7817 42.0347 19.6511 42.6367 19.3897 43.066C19.1377 43.4953 18.7317 43.78 18.1717 43.92L19.9217 47H17.1917L15.5817 44.06H13.6217V47H11.1017V37.2ZM17.2617 40C17.2617 39.44 16.9817 39.16 16.4217 39.16H13.6217V42.1H16.4217C16.9817 42.1 17.2617 41.82 17.2617 41.26V40ZM28.9479 47H21.1779V37.2H28.9479V39.16H23.6979V41.05H27.8279V43.01H23.6979V45.04H28.9479V47ZM38.4646 46.79C36.2806 47.0233 34.2739 47.14 32.4446 47.14C31.5299 47.14 30.8579 46.9253 30.4286 46.496C29.9993 46.0667 29.7846 45.3947 29.7846 44.48V40C29.7846 39.02 30.0039 38.3107 30.4426 37.872C30.8906 37.424 31.6046 37.2 32.5846 37.2H37.6246V39.16H33.1446C32.5846 39.16 32.3046 39.44 32.3046 40V44.48C32.3046 44.6947 32.3653 44.8673 32.4866 44.998C32.6173 45.1193 32.7899 45.18 33.0046 45.18C34.0779 45.18 35.0579 45.1567 35.9446 45.11V43.08H34.1246V41.4H38.4646V46.79ZM44.4873 47H39.4473V45.04H40.7073V39.16H39.4473V37.2H44.4873V39.16H43.2273V45.04H44.4873V47ZM52.0463 39.86C52.0463 39.3 51.7663 39.02 51.2063 39.02H48.8263C48.2663 39.02 47.9863 39.3 47.9863 39.86V44.34C47.9863 44.9 48.2663 45.18 48.8263 45.18H51.2063C51.7663 45.18 52.0463 44.9 52.0463 44.34V39.86ZM54.5663 44.34C54.5663 45.32 54.3423 46.034 53.8943 46.482C53.4556 46.9207 52.7463 47.14 51.7663 47.14H48.2663C47.2863 47.14 46.5723 46.9207 46.1243 46.482C45.6856 46.034 45.4663 45.32 45.4663 44.34V39.86C45.4663 38.88 45.6856 38.1707 46.1243 37.732C46.5723 37.284 47.2863 37.06 48.2663 37.06H51.7663C52.7463 37.06 53.4556 37.284 53.8943 37.732C54.3423 38.1707 54.5663 38.88 54.5663 39.86V44.34ZM64.5128 47H61.8528L58.4928 41.12V47H55.9728V37.2H58.6328L61.9928 43.08V37.2H64.5128V47ZM65.9054 44.97C68.4627 45.11 70.194 45.18 71.0994 45.18C71.314 45.18 71.482 45.1193 71.6034 44.998C71.734 44.8673 71.7994 44.6947 71.7994 44.48V43.22H68.5794C67.5994 43.22 66.8854 43.0007 66.4374 42.562C65.9987 42.114 65.7794 41.4 65.7794 40.42V40C65.7794 39.02 65.9987 38.3107 66.4374 37.872C66.8854 37.424 67.5994 37.2 68.5794 37.2H73.4934V39.16H69.1394C68.5794 39.16 68.2994 39.44 68.2994 40V40.28C68.2994 40.84 68.5794 41.12 69.1394 41.12H71.6594C72.574 41.12 73.246 41.3347 73.6754 41.764C74.1047 42.1933 74.3194 42.8653 74.3194 43.78V44.48C74.3194 45.3947 74.1047 46.0667 73.6754 46.496C73.246 46.9253 72.574 47.14 71.6594 47.14C71.1834 47.14 70.6794 47.1307 70.1474 47.112L68.8594 47.056C67.9074 47.0093 66.9227 46.944 65.9054 46.86V44.97Z" fill="url(#paint4_linear_2190_2232)"/>
</g>
<path id="ALL REGIONS_2" d="M31.507 35H28.777L32.487 25.2H35.287L38.997 35H36.267L35.637 33.25H32.137L31.507 35ZM32.767 31.43H35.007L33.887 28.14L32.767 31.43ZM42.2164 33.04H47.3264V35H39.6964V25.2H42.2164V33.04ZM50.8297 33.04H55.9397V35H48.3097V25.2H50.8297V33.04ZM11.1017 37.2H16.9817C17.9617 37.2 18.6711 37.424 19.1097 37.872C19.5577 38.3107 19.7817 39.02 19.7817 40V41.26C19.7817 42.0347 19.6511 42.6367 19.3897 43.066C19.1377 43.4953 18.7317 43.78 18.1717 43.92L19.9217 47H17.1917L15.5817 44.06H13.6217V47H11.1017V37.2ZM17.2617 40C17.2617 39.44 16.9817 39.16 16.4217 39.16H13.6217V42.1H16.4217C16.9817 42.1 17.2617 41.82 17.2617 41.26V40ZM28.9479 47H21.1779V37.2H28.9479V39.16H23.6979V41.05H27.8279V43.01H23.6979V45.04H28.9479V47ZM38.4646 46.79C36.2806 47.0233 34.2739 47.14 32.4446 47.14C31.5299 47.14 30.8579 46.9253 30.4286 46.496C29.9993 46.0667 29.7846 45.3947 29.7846 44.48V40C29.7846 39.02 30.0039 38.3107 30.4426 37.872C30.8906 37.424 31.6046 37.2 32.5846 37.2H37.6246V39.16H33.1446C32.5846 39.16 32.3046 39.44 32.3046 40V44.48C32.3046 44.6947 32.3653 44.8673 32.4866 44.998C32.6173 45.1193 32.7899 45.18 33.0046 45.18C34.0779 45.18 35.0579 45.1567 35.9446 45.11V43.08H34.1246V41.4H38.4646V46.79ZM44.4873 47H39.4473V45.04H40.7073V39.16H39.4473V37.2H44.4873V39.16H43.2273V45.04H44.4873V47ZM52.0463 39.86C52.0463 39.3 51.7663 39.02 51.2063 39.02H48.8263C48.2663 39.02 47.9863 39.3 47.9863 39.86V44.34C47.9863 44.9 48.2663 45.18 48.8263 45.18H51.2063C51.7663 45.18 52.0463 44.9 52.0463 44.34V39.86ZM54.5663 44.34C54.5663 45.32 54.3423 46.034 53.8943 46.482C53.4556 46.9207 52.7463 47.14 51.7663 47.14H48.2663C47.2863 47.14 46.5723 46.9207 46.1243 46.482C45.6856 46.034 45.4663 45.32 45.4663 44.34V39.86C45.4663 38.88 45.6856 38.1707 46.1243 37.732C46.5723 37.284 47.2863 37.06 48.2663 37.06H51.7663C52.7463 37.06 53.4556 37.284 53.8943 37.732C54.3423 38.1707 54.5663 38.88 54.5663 39.86V44.34ZM64.5128 47H61.8528L58.4928 41.12V47H55.9728V37.2H58.6328L61.9928 43.08V37.2H64.5128V47ZM65.9054 44.97C68.4627 45.11 70.194 45.18 71.0994 45.18C71.314 45.18 71.482 45.1193 71.6034 44.998C71.734 44.8673 71.7994 44.6947 71.7994 44.48V43.22H68.5794C67.5994 43.22 66.8854 43.0007 66.4374 42.562C65.9987 42.114 65.7794 41.4 65.7794 40.42V40C65.7794 39.02 65.9987 38.3107 66.4374 37.872C66.8854 37.424 67.5994 37.2 68.5794 37.2H73.4934V39.16H69.1394C68.5794 39.16 68.2994 39.44 68.2994 40V40.28C68.2994 40.84 68.5794 41.12 69.1394 41.12H71.6594C72.574 41.12 73.246 41.3347 73.6754 41.764C74.1047 42.1933 74.3194 42.8653 74.3194 43.78V44.48C74.3194 45.3947 74.1047 46.0667 73.6754 46.496C73.246 46.9253 72.574 47.14 71.6594 47.14C71.1834 47.14 70.6794 47.1307 70.1474 47.112L68.8594 47.056C67.9074 47.0093 66.9227 46.944 65.9054 46.86V44.97Z" fill="#F5F1EE"/>
<g id="Group 347">
<path id="Vector 431" d="M13 30L7 29L15 34L13 30Z" fill="url(#paint5_linear_2190_2232)"/>
<path id="Vector 432" d="M23 27L17 26L23 30V27Z" fill="url(#paint6_linear_2190_2232)"/>
</g>
<g id="Group 348">
<path id="Vector 431_2" d="M71 30L77 29L69 34L71 30Z" fill="url(#paint7_linear_2190_2232)"/>
<path id="Vector 432_2" d="M61 27L67 26L61 30V27Z" fill="url(#paint8_linear_2190_2232)"/>
</g>
<path id="Union_2" fill-rule="evenodd" clip-rule="evenodd" d="M42 54C41.6 54 30.8333 50.3333 27 49L42 51L57 49C53.1667 50.3333 42.4 54 42 54Z" fill="url(#paint9_linear_2190_2232)"/>
<path id="Union_3" d="M42 23L39 20L42 18L45 20L42 23Z" fill="url(#paint10_linear_2190_2232)"/>
</g>
<defs>
<filter id="filter0_f_2190_2232" x="7.10172" y="21.2" width="71.2177" height="29.94" filterUnits="userSpaceOnUse" color-interpolation-filters="sRGB">
<feFlood flood-opacity="0" result="BackgroundImageFix"/>
<feBlend mode="normal" in="SourceGraphic" in2="BackgroundImageFix" result="shape"/>
<feGaussianBlur stdDeviation="2" result="effect1_foregroundBlur_2190_2232"/>
</filter>
<linearGradient id="paint0_linear_2190_2232" x1="34.5772" y1="38.5772" x2="49.7072" y2="53.7071" gradientUnits="userSpaceOnUse">
<stop stop-color="#AB750F"/>
<stop offset="0.516" stop-color="#D8A956"/>
<stop offset="1" stop-color="#AB750F"/>
</linearGradient>
<linearGradient id="paint1_linear_2190_2232" x1="53" y1="11" x2="53" y2="28.6054" gradientUnits="userSpaceOnUse">
<stop stop-color="#AB750F"/>
<stop offset="0.516" stop-color="#D8A956"/>
<stop offset="1" stop-color="#AB750F"/>
</linearGradient>
<linearGradient id="paint2_linear_2190_2232" x1="31" y1="11" x2="31" y2="28.6054" gradientUnits="userSpaceOnUse">
<stop stop-color="#AB750F"/>
<stop offset="0.516" stop-color="#D8A956"/>
<stop offset="1" stop-color="#AB750F"/>
</linearGradient>
<linearGradient id="paint3_linear_2190_2232" x1="-3.92683" y1="36.0002" x2="85.5366" y2="36.0002" gradientUnits="userSpaceOnUse">
<stop stop-color="#AB750F"/>
<stop offset="0.516" stop-color="#D8A956"/>
<stop offset="1" stop-color="#AB750F"/>
</linearGradient>
<linearGradient id="paint4_linear_2190_2232" x1="42.5" y1="25" x2="42.5" y2="47" gradientUnits="userSpaceOnUse">
<stop stop-color="#AB750F"/>
<stop offset="0.516" stop-color="#D8A956"/>
<stop offset="1" stop-color="#AB750F"/>
</linearGradient>
<linearGradient id="paint5_linear_2190_2232" x1="6.62602" y1="31.5" x2="15.1463" y2="31.5" gradientUnits="userSpaceOnUse">
<stop stop-color="#AB750F"/>
<stop offset="0.516" stop-color="#D8A956"/>
<stop offset="1" stop-color="#AB750F"/>
</linearGradient>
<linearGradient id="paint6_linear_2190_2232" x1="16.7195" y1="28" x2="23.1098" y2="28" gradientUnits="userSpaceOnUse">
<stop stop-color="#AB750F"/>
<stop offset="0.516" stop-color="#D8A956"/>
<stop offset="1" stop-color="#AB750F"/>
</linearGradient>
<linearGradient id="paint7_linear_2190_2232" x1="77.374" y1="31.5" x2="68.8537" y2="31.5" gradientUnits="userSpaceOnUse">
<stop stop-color="#AB750F"/>
<stop offset="0.516" stop-color="#D8A956"/>
<stop offset="1" stop-color="#AB750F"/>
</linearGradient>
<linearGradient id="paint8_linear_2190_2232" x1="67.2805" y1="28" x2="60.8902" y2="28" gradientUnits="userSpaceOnUse">
<stop stop-color="#AB750F"/>
<stop offset="0.516" stop-color="#D8A956"/>
<stop offset="1" stop-color="#AB750F"/>
</linearGradient>
<linearGradient id="paint9_linear_2190_2232" x1="42" y1="49" x2="42" y2="54" gradientUnits="userSpaceOnUse">
<stop stop-color="#AB750F"/>
<stop offset="0.516" stop-color="#D8A956"/>
<stop offset="1" stop-color="#AB750F"/>
</linearGradient>
<linearGradient id="paint10_linear_2190_2232" x1="42" y1="18" x2="42" y2="23" gradientUnits="userSpaceOnUse">
<stop stop-color="#AB750F"/>
<stop offset="0.516" stop-color="#D8A956"/>
<stop offset="1" stop-color="#AB750F"/>
</linearGradient>
</defs>
</svg>
