<svg xmlns="http://www.w3.org/2000/svg" width="100" height="100" fill="none" xmlns:v="https://vecta.io/nano"><style><![CDATA[.B{stroke:#000}.C{fill:#fff}.D{stroke-linejoin:bevel}.E{stroke-width:.15}]]></style><path d="M87.426 11.796H14.37c-6.944 0-12.574 5.63-12.574 12.574v53.889c0 6.945 5.63 12.574 12.574 12.574h73.056c6.945 0 12.574-5.63 12.574-12.574V24.37c0-6.944-5.63-12.574-12.574-12.574z" fill="#605f5e" fill-opacity=".3"/><path d="M85.63 10H12.574C5.63 10 0 15.63 0 22.574v53.889c0 6.945 5.63 12.574 12.574 12.574H85.63c6.945 0 12.574-5.63 12.574-12.574V22.574C98.204 15.63 92.574 10 85.63 10z" fill="#f5f1ee"/><g clip-path="url(#A)"><g clip-path="url(#B)"><path d="M9 20H89V80H9V20Z" fill="#032ea1"/><path d="M9 35H89V65H9V35Z" fill="#e00025"/><g class="B C"><g class="D E"><path d="M40.55 48.275h17.07v6.57H40.55v-6.57z"/><path d="M56.75 51.89h.525v2.475h-.525V51.89zm-16.2-1.215h17.07v.75H40.55v-.75zm0-1.05h17.07v.69H40.55v-.69z"/></g><path d="M40.55 48.605h17.07v.645H40.55v-.645z" stroke-width=".135" class="D"/><g class="E"><path d="M45.05 51.89h.54v2.475h-.54V51.89zm7.35 0h.54v2.475h-.54V51.89zm-11.7 0h.525v2.475H40.7V51.89zm1.05 0h.525v2.475h-.525V51.89zm1.125 0h.525v2.475h-.525V51.89zm1.125 0h.525v2.475H44V51.89zm9.42 0h.54v2.475h-.54V51.89zm1.125 0h.54v2.475h-.54V51.89zm1.125 0h.54v2.475h-.54V51.89z" class="D"/><path d="M33.875 55.175a1.35 1.35 0 0 0 .66-.795H63.5a1.35 1.35 0 0 0 .66.795H33.875z"/><path d="M48.65 38.27s-.015-.615.345-.63c.345 0 .33.63.33.63h-.675zm-1.875 8.175v-.825c0-.42-.42-.45-.42-.75 0 0-.06-.45.06-.66.165.6.45.495.45.24 0-.21-.15-.42-.495-.945-.12-.165-.045-.69.105-.885.04.45.15.675.33.675.13.01.2-.09.21-.3 0-.3-.195-.45-.3-.72a.75.75 0 0 1 .165-.795c.075.45.06.63.255.63.405-.135 0-.72-.09-.87-.09-.165.15-.51.15-.51.12.405.15.435.3.39.18-.045.15-.3-.06-.51-.13-.16-.12-.325.03-.495.15.285.33.27.345.09l-.12-.66h2.61l-.135.645c-.03.18.21.225.36-.075.15.15.165.36.03.495-.21.21-.24.465-.06.51.15.045.18 0 .3-.39 0 0 .225.225.15.51-.09.15-.495.75-.09.87.195 0 .18-.18.255-.63a.75.75 0 0 1 .15.795c-.09.27-.3.42-.3.72.02.21.095.31.225.3.18 0 .29-.225.33-.675.15.195.225.72.105.9-.345.51-.51.72-.51.93 0 .255.3.36.45-.24.135.21.075.66.075.66 0 .3-.405.33-.42.75v.825h-4.44zm1.08-6.9l-.06-.465h2.385l-.06.465h-2.265zm.15-.48l-.03-.375H50l-.045.375h-1.95zm.345-.39l-.045-.39h1.35l-.015.39h-1.29zm4.95 16.5c-.3-.105-.75-.435-.75-.75V50.78l.39-.51h-7.89l.375.51v3.645c0 .315-.3.645-.6.75H53.3z"/><path d="M46.43 51.89h.54v2.475h-.54V51.89zm4.56 0h.54v2.475h-.54V51.89z" class="D"/><path d="M44.9 46.13v4.14H53v-4.14a.6.6 0 0 0-.39.42v1.77h-7.305v-1.77s-.09-.3-.42-.42h.015z"/><path d="M51.89 55.175c-.27-.105-.84-.435-.84-.75v-4.08c.06-.225.36-.36.555-.51H46.25c.255.15.54.255.645.51v4.08c0 .315-.45.645-.72.75h5.715z"/><path d="M52.61 49.88v-2.94h-.735v-.285h-5.82v.3h-.75v2.925h7.305zm-1.86 5.295c-.27-.105-.645-.435-.645-.75v-3.48l.21-.315H47.66l.225.3v3.495c0 .315-.39.645-.645.75h3.51z"/><path d="M48.305 50.63h1.35v4.545h-1.35V50.63z"/><path d="M50.36 49.625c0-.3.87-.315 1.32-.57h-5.4c.45.255 1.305.27 1.305.57l.18.585 2.25.09.345-.675z" class="D"/><path d="M51.41 46.445c0-.735.03-1.005.255-1.005v2.31c-.555.21-.945.9-.945.9h-3.48s-.39-.69-.945-.9v-2.325c.27 0 .27.3.27 1.005l4.845.015zm.255-.3c0-.84.735-.93.735-.93v.75c-.285-.015-.42.24-.42.6 0 .375.225.375.225.375v2.13h-.54v-2.925z"/><path d="M46.295 46.145c0-.84-.735-.93-.735-.93v.75c.285-.015.42.24.42.6 0 .375-.225.375-.225.375v2.13h.54v-2.925z"/></g></g><path d="M47.72 40.34h2.58m-2.88.81h3.15m-3.45.975h3.735m-4.05 1.185h4.425m-4.53 1.35h4.56" stroke-width=".12" class="B"/><g class="E B"><path d="M45.32 49.1h7.29m-4.98 0h2.7v.99h-2.7v-.99z"/><g class="C"><path d="M47.3 46.88c.45.54.39 1.455.39 1.995h2.61c0-.54-.06-1.455.39-1.995H47.3zm1.455-6.15l-.36-.195v-.525c.15.045.3.06.33.3.045-.345.15-.315.285-.45.15.135.225.105.285.45 0-.24.18-.255.315-.3v.525l-.345.18-.51.015z"/><path d="M48.725 41.585l-.6-.42V40.7c.225.045.45.075.48.33.06-.375.195-.555.405-.705.195.15.33.33.405.705.015-.255.255-.285.45-.33v.48l-.585.405h-.555z"/><path d="M48.68 42.92l-.675-.6v-.705c.24.06.51.09.54.465.075-.525.225-.81.45-1.02.24.21.39.495.48 1.02.03-.375.3-.405.54-.465v.705l-.69.6h-.645zm1.26.795l-.6.855h-.705l-.615-.855h1.92zm-2.28 1.425c.29.15.44.53.45 1.14h1.74c.01-.61.16-.99.45-1.14h-2.64z"/><g class="D"><path d="M50.33 43.7v-.84a.75.75 0 0 0-.57.495c0-.3-.375-.945-.78-1.275-.405.36-.795.96-.78 1.26-.08-.24-.27-.4-.57-.48v.855l2.7-.015z"/><path d="M50.45 45.14v-.84c-.32.09-.525.255-.615.495 0-.3-.405-.945-.855-1.275-.45.375-.87.96-.855 1.275-.08-.23-.285-.395-.615-.495v.855l2.94-.015z"/><path d="M50.81 46.895v-.99a1.5 1.5 0 0 0-.765.57c0-.525-.6-1.35-1.065-1.605-.48.27-1.065 1.11-1.065 1.605a1.5 1.5 0 0 0-.78-.57v.99h3.675z"/><path d="M50.6 49.1v-1.02c-.36.135-.45.465-.57.705.045-1.035-.57-2.13-1.05-2.415-.48.285-1.11 1.41-1.05 2.4-.12-.21-.225-.555-.57-.69v1.005l3.24.015z"/></g><path d="M50.36 50.63v-1.02c-.375.09-.39.225-.51.45.045-.615-.39-1.32-.87-1.59-.48.27-.9.975-.87 1.59-.12-.225-.135-.36-.51-.45v1.02h2.76zm-15.81 3.75v-3.06c-.105-.39-.45-.75-.69-.81v-2.7l.555.3.645 2.835v3.45l-.51-.015z"/><path d="M34.55 54.395V51.32c-.105-.39-.45-.75-.69-.81v-2.88c.375 0 .555.48.555.48l.645 2.835v3.435l-.51.015z"/><path d="M34.145 55.175c.255-.105.63-.435.63-.75v-3.84l-.18-.3h6.555l-.255.3v3.84a.9.9 0 0 0 .51.75h-7.26z"/><path d="M40.07 55.175c-.255-.105-.63-.435-.63-.75V50.78l.54-.51h-4.44l.54.51v3.645c0 .315-.375.645-.63.75h4.62z"/><path d="M39.455 55.175c-.255-.105-.645-.435-.645-.75v-3.3l.36-.495h-2.82l.36.495v3.3c0 .315-.375.645-.645.75h3.39z"/><path d="M37.1 50.63h1.335v4.56h-1.35l.015-4.56z"/></g></g><path d="M35.255 51.89h.54v2.475h-.54V51.89zm4.62 0h.525v2.475h-.54l.015-2.475zm-5.085-4.17h.66v2.55h-.66v-2.55zm0-.48h.645v.48h-.645v-.48zm5.34 1.035h.915v1.95h-.915v-1.95z" class="C"/><g class="B E"><path d="M34.79 47.72h.66v2.55h-.66v-2.55zm0 0h.645v-.48h-.645v.48zm.465 4.17h.54v2.475h-.54V51.89zm4.62 0h.525v2.475h-.54l.015-2.475zm.255-3.615h.915v1.95h-.915v-1.95z" class="D"/><g class="C"><path d="M35.435 50.24v-4.35c.18 0 .21.645.63.645.225 0 .21-.27.075-.48-.105-.195-.24-.45-.06-.945.135.375.465.495.405.27-.105-.405-.42-.48-.18-1.095.075.51.405.495.33.195-.09-.345-.285-.495-.045-.975.135.555.3.525.3.18 0-.51 0-1.05.63-1.245 0 0 .045-.45.285-.45s.27.45.27.45c.645.195.63.75.63 1.245 0 .345.165.375.3-.18.24.48.045.63-.045.975-.075.3.255.315.33-.195.24.615-.075.69-.18 1.095-.06.225.27.105.405-.27.18.495.045.75-.06.945-.12.21-.15.48.075.48.42 0 .45-.63.63-.63v4.335h-4.725zM34.4 46.955v3.315h.375v-3.315a.36.36 0 0 0-.375 0z"/><path d="M34.43 49.1c.465.24.93.525 1.05 1.17h-1.05V49.1zm6.48-.99v2.16h.3v-2.16c-.1-.05-.2-.05-.3 0z"/><path d="M41.21 49.1c-.465.225-.93.495-1.05 1.155h1.05V49.1zm-3.09-5.055l.27-.225v-.3c-.08 0-.155.05-.225.15a.75.75 0 0 0-.375-.45.75.75 0 0 0-.39.435c-.06-.09-.135-.14-.225-.15v.3l.27.24h.675z"/><path d="M38.27 44.78l.12-.285v-.375c-.08 0-.155.05-.225.15a.75.75 0 0 0-.375-.45.75.75 0 0 0-.39.435c-.06-.09-.135-.135-.225-.135v.375l.12.285h.975z"/><path d="M38.3 45.77l.39-.495v-.48c-.13 0-.24.08-.33.24-.105-.345-.3-.405-.57-.57-.285.15-.48.225-.57.555-.12-.165-.195-.21-.345-.225v.48l.405.495h1.02z"/><path d="M38.405 46.745s.48-.405.495-.63v-.525c-.18.015-.345.06-.48.285-.12-.435-.3-.555-.63-.75-.345.195-.525.315-.63.75-.15-.225-.3-.27-.495-.3v.54a2.25 2.25 0 0 0 .495.63h1.245z"/><path d="M38.6 48.545s.66-.705.675-.99v-.81c-.25.02-.47.2-.66.54-.13-.66-.405-1.15-.825-1.47-.45.33-.69.795-.84 1.47-.19-.34-.405-.52-.645-.54v.81c.045.285.66.99.66.99H38.6z"/><path d="M38.6 49.61s.555-.555.675-.795v-.81c-.25.03-.47.205-.66.525a2.1 2.1 0 0 0-.825-1.38c-.45.33-.69.705-.84 1.38-.19-.32-.405-.495-.645-.525v.81c.15.24.66.795.66.795H38.6z"/><path d="M38.825 50.24c-.15-.705-.3-1.23-1.065-1.755-.78.525-.915 1.05-1.08 1.755h2.145z"/><path d="M39.23 50.63v-1.02c-.36.15-.675.345-.795.57-.12-.57-.375-.81-.69-1.155-.315.345-.525.6-.66 1.155-.12-.225-.435-.435-.78-.57v1.02h2.925zm24.225 3.75v-3.06c.105-.39.45-.75.69-.81v-2.7l-.555.3-.645 2.835v3.45l.51-.015z"/><path d="M63.455 54.395V51.32c.105-.39.45-.75.69-.81v-2.88c-.375 0-.555.48-.555.48l-.645 2.835v3.435l.51.015z"/><path d="M63.86 55.175c-.255-.105-.63-.435-.63-.75v-3.84l.18-.3h-6.555l.255.3v3.84a.9.9 0 0 1-.51.75h7.26z"/><path d="M57.935 55.175c.255-.105.63-.435.63-.75V50.78l-.54-.51h4.44l-.54.51v3.645c0 .315.375.645.63.75h-4.62z"/><path d="M58.55 55.175c.255-.105.645-.435.645-.75v-3.3l-.36-.495h2.82l-.36.495v3.3c0 .315.375.645.645.75h-3.39z"/><path d="M60.905 50.63H59.57v4.56h1.35l-.015-4.56z"/></g></g><path d="M62.75 51.89h-.54v2.475h.54V51.89zm-4.62 0h-.525v2.475h.54l-.015-2.475zm5.085-4.17h-.66v2.55h.66v-2.55zm0-.48h-.645v.48h.645v-.48zm-5.34 1.035h-.915v1.95h.915v-1.95z" class="C"/><g class="B E"><path d="M63.215 47.72h-.66v2.55h.66v-2.55zm0 0h-.645v-.48h.645v.48zm-.465 4.17h-.54v2.475h.54V51.89zm-4.62 0h-.525v2.475h.54l-.015-2.475zm-.255-3.615h-.915v1.95h.915v-1.95z" class="D"/><g class="C"><path d="M62.57 50.24v-4.35c-.18 0-.21.645-.63.645-.225 0-.21-.27-.075-.48.105-.195.24-.45.06-.945-.135.375-.465.495-.405.27.105-.405.42-.48.18-1.095-.075.51-.405.495-.33.195.09-.345.285-.495.045-.975-.135.555-.3.525-.3.18 0-.51 0-1.05-.63-1.245 0 0-.045-.45-.285-.45s-.27.45-.27.45c-.645.195-.63.75-.63 1.245 0 .345-.165.375-.3-.18-.24.48-.045.63.045.975.075.3-.255.315-.33-.195-.24.615.075.69.18 1.095.06.225-.27.105-.405-.27-.18.495-.045.75.06.945.12.21.15.48-.075.48-.42 0-.45-.63-.63-.63v4.335h4.725zm1.035-3.285v3.315h-.375v-3.315a.36.36 0 0 1 .375 0z"/><path d="M63.575 49.1c-.465.24-.93.525-1.05 1.17h1.05V49.1zm-6.48-.99v2.16h-.3v-2.16c.1-.05.2-.05.3 0z"/><path d="M56.795 49.1c.465.225.93.495 1.05 1.155h-1.05V49.1zm3.09-5.055l-.27-.225v-.3c.08 0 .155.05.225.15a.75.75 0 0 1 .375-.45.75.75 0 0 1 .39.435c.06-.09.135-.14.225-.15v.3l-.27.24h-.675z"/><path d="M59.735 44.78l-.12-.285v-.375c.08 0 .155.05.225.15a.75.75 0 0 1 .375-.45.75.75 0 0 1 .39.435c.06-.09.135-.135.225-.135v.375l-.12.285h-.975z"/><path d="M59.705 45.77l-.39-.495v-.48c.13 0 .24.08.33.24.105-.345.3-.405.57-.57.285.15.48.225.57.555.12-.165.195-.21.345-.225v.48l-.405.495h-1.02z"/><path d="M59.6 46.745s-.48-.405-.495-.63v-.525c.18.015.345.06.48.285.12-.435.3-.555.63-.75.345.195.525.315.63.75.15-.225.3-.27.495-.3v.54a2.25 2.25 0 0 1-.495.63H59.6z"/><path d="M59.405 48.545s-.66-.705-.675-.99v-.81c.25.02.47.2.66.54.13-.66.405-1.15.825-1.47.45.33.69.795.84 1.47.19-.34.405-.52.645-.54v.81c-.045.285-.66.99-.66.99h-1.635z"/><path d="M59.405 49.61s-.555-.555-.675-.795v-.81c.25.03.47.205.66.525a2.1 2.1 0 0 1 .825-1.38c.45.33.69.705.84 1.38.19-.32.405-.495.645-.525v.81c-.15.24-.66.795-.66.795h-1.635z"/><path d="M59.18 50.24c.15-.705.3-1.23 1.065-1.755.78.525.915 1.05 1.08 1.755H59.18z"/><path d="M58.775 50.63v-1.02c.36.15.675.345.795.57.12-.57.375-.81.69-1.155.315.345.525.6.66 1.155.12-.225.435-.435.78-.57v1.02h-2.925zm-28.17 8.265H67.4v1.875H30.605v-1.875zm-.975 1.875h38.745v1.875H29.63V60.77zm2.91-4.695h32.91v1.215H32.54v-1.215z"/><path d="M31.58 57.29h34.86v1.59H31.58v-1.59zm1.53-2.145h31.8v.93h-31.8v-.93z"/><path d="M36.56 55.145h2.4v7.5h-2.4v-7.5z"/><path d="M37.1 55.145h1.335v7.5h-1.35l.015-7.5zm10.65 0h2.4v7.5h-2.4v-7.5z"/><path d="M48.305 55.145h1.35v7.5h-1.35v-7.5zm10.725 0h2.4v7.5h-2.4v-7.5z"/><path d="M59.555 55.145h1.35v7.5h-1.35v-7.5z"/></g><path d="M34.55 54.38H63.5M37.07 61.7h1.38m-1.38-.945h1.38m-1.38-.93h1.38m-1.38-.945h1.38m-1.38-.93h1.38m-1.38-.945h1.38m-1.38-.93h1.38m9.87 5.625h1.29m-1.29-.945h1.29m-1.29-.93h1.29m-1.29-.945h1.29m-1.29-.93h1.29m-1.29-.945h1.29m-1.29-.93h1.29m9.93 5.625h1.38m-1.38-.945h1.38m-1.38-.93h1.38m-1.38-.945h1.38m-1.38-.93h1.38m-1.38-.945h1.38m-1.38-.93h1.38"/></g></g><g style="mix-blend-mode:screen"><path fill="#4a4a4a" d="M11 21h76.648v57.482H11z"/></g></g><defs><clipPath id="A"><rect x="10.778" y="20.778" width="76.642" height="57.482" rx="4" class="C"/></clipPath><clipPath id="B"><path transform="translate(9 20)" d="M0 0h80v60H0z" class="C"/></clipPath></defs></svg>