<svg width="100" height="100" viewBox="0 0 100 100" fill="none" xmlns="http://www.w3.org/2000/svg">
<g id="cambodia">
<g id="Frame 1">
<path id="Union" d="M87.4259 11.7963H14.3704C7.42591 11.7963 1.7963 17.4259 1.7963 24.3704V78.2594C1.7963 85.2039 7.4259 90.8335 14.3704 90.8335H87.4259C94.3704 90.8335 100 85.2039 100 78.2594V24.3704C100 17.426 94.3704 11.7963 87.4259 11.7963Z" fill="#605F5E" fill-opacity="0.3"/>
<path id="Union_2" d="M85.6296 10H12.5741C5.62962 10 0 15.6296 0 22.5741V76.4631C0 83.4076 5.6296 89.0372 12.5741 89.0372H85.6296C92.5741 89.0372 98.2037 83.4076 98.2037 76.4631V22.5741C98.2037 15.6296 92.5741 10 85.6296 10Z" fill="#F5F1EE"/>
<g id="flag-container">
<g clip-path="url(#clip0_2005_2)">
<g id="Cambodia (KH)" clip-path="url(#clip1_2005_2)">
<path id="Vector" d="M9 20H89V80H9V20Z" fill="#032EA1"/>
<path id="Vector_2" d="M9 35H89V65H9V35Z" fill="#E00025"/>
<g id="Group">
<g id="Group_2">
<path id="Vector_3" d="M40.55 48.275H57.62V54.845H40.55V48.275Z" fill="white" stroke="black" stroke-width="0.15" stroke-linejoin="bevel"/>
<path id="Vector_4" d="M56.75 51.89H57.275V54.365H56.75V51.89ZM40.55 50.675H57.62V51.425H40.55V50.675ZM40.55 49.625H57.62V50.315H40.55V49.625Z" fill="white" stroke="black" stroke-width="0.15" stroke-linejoin="bevel"/>
<path id="Vector_5" d="M40.55 48.605H57.62V49.25H40.55V48.605Z" fill="white" stroke="black" stroke-width="0.135" stroke-linejoin="bevel"/>
<path id="Vector_6" d="M45.05 51.89H45.59V54.365H45.05V51.89ZM52.4 51.89H52.94V54.365H52.4V51.89ZM40.7 51.89H41.225V54.365H40.7V51.89ZM41.75 51.89H42.275V54.365H41.75V51.89ZM42.875 51.89H43.4V54.365H42.875V51.89ZM44 51.89H44.525V54.365H44V51.89ZM53.42 51.89H53.96V54.365H53.42V51.89ZM54.545 51.89H55.085V54.365H54.545V51.89ZM55.67 51.89H56.21V54.365H55.67V51.89Z" fill="white" stroke="black" stroke-width="0.15" stroke-linejoin="bevel"/>
<path id="Vector_7" d="M33.875 55.175C34.0318 55.0923 34.1708 54.9795 34.2841 54.8431C34.3973 54.7067 34.4826 54.5494 34.535 54.38H63.5C63.5524 54.5494 63.6377 54.7067 63.7509 54.8431C63.8642 54.9795 64.0032 55.0923 64.16 55.175H33.875Z" fill="white" stroke="black" stroke-width="0.15"/>
</g>
<path id="Vector_8" d="M48.65 38.27C48.65 38.27 48.635 37.655 48.995 37.64C49.34 37.64 49.325 38.27 49.325 38.27H48.65ZM46.775 46.445V45.62C46.775 45.2 46.355 45.17 46.355 44.87C46.355 44.87 46.295 44.42 46.415 44.21C46.58 44.81 46.865 44.705 46.865 44.45C46.865 44.24 46.715 44.03 46.37 43.505C46.25 43.34 46.325 42.815 46.475 42.62C46.515 43.07 46.625 43.295 46.805 43.295C46.935 43.305 47.005 43.205 47.015 42.995C47.015 42.695 46.82 42.545 46.715 42.275C46.6633 42.1406 46.6514 41.9942 46.6806 41.8533C46.7099 41.7123 46.7791 41.5827 46.88 41.48C46.955 41.93 46.94 42.11 47.135 42.11C47.54 41.975 47.135 41.39 47.045 41.24C46.955 41.075 47.195 40.73 47.195 40.73C47.315 41.135 47.345 41.165 47.495 41.12C47.675 41.075 47.645 40.82 47.435 40.61C47.305 40.45 47.315 40.285 47.465 40.115C47.615 40.4 47.795 40.385 47.81 40.205L47.69 39.545H50.3L50.165 40.19C50.135 40.37 50.375 40.415 50.525 40.115C50.675 40.265 50.69 40.475 50.555 40.61C50.345 40.82 50.315 41.075 50.495 41.12C50.645 41.165 50.675 41.12 50.795 40.73C50.795 40.73 51.02 40.955 50.945 41.24C50.855 41.39 50.45 41.99 50.855 42.11C51.05 42.11 51.035 41.93 51.11 41.48C51.2084 41.5843 51.2748 41.7147 51.3014 41.8556C51.328 41.9965 51.3136 42.142 51.26 42.275C51.17 42.545 50.96 42.695 50.96 42.995C50.98 43.205 51.055 43.305 51.185 43.295C51.365 43.295 51.475 43.07 51.515 42.62C51.665 42.815 51.74 43.34 51.62 43.52C51.275 44.03 51.11 44.24 51.11 44.45C51.11 44.705 51.41 44.81 51.56 44.21C51.695 44.42 51.635 44.87 51.635 44.87C51.635 45.17 51.23 45.2 51.215 45.62V46.445H46.775ZM47.855 39.545L47.795 39.08H50.18L50.12 39.545H47.855ZM48.005 39.065L47.975 38.69H50L49.955 39.065H48.005ZM48.35 38.675L48.305 38.285H49.655L49.64 38.675H48.35ZM53.3 55.175C53 55.07 52.55 54.74 52.55 54.425V50.78L52.94 50.27H45.05L45.425 50.78V54.425C45.425 54.74 45.125 55.07 44.825 55.175H53.3Z" fill="white" stroke="black" stroke-width="0.15"/>
<path id="Vector_9" d="M46.43 51.89H46.97V54.365H46.43V51.89ZM50.99 51.89H51.53V54.365H50.99V51.89Z" fill="white" stroke="black" stroke-width="0.15" stroke-linejoin="bevel"/>
<path id="Vector_10" d="M44.9 46.13V50.27H53V46.13C52.9051 46.1619 52.8197 46.2171 52.7516 46.2904C52.6835 46.3638 52.6348 46.453 52.61 46.55V48.32H45.305V46.55C45.305 46.55 45.215 46.25 44.885 46.13H44.9Z" fill="white" stroke="black" stroke-width="0.15"/>
<path id="Vector_11" d="M51.89 55.175C51.62 55.07 51.05 54.74 51.05 54.425V50.345C51.11 50.12 51.41 49.985 51.605 49.835H46.25C46.505 49.985 46.79 50.09 46.895 50.345V54.425C46.895 54.74 46.445 55.07 46.175 55.175H51.89Z" fill="white" stroke="black" stroke-width="0.15"/>
<path id="Vector_12" d="M52.61 49.88V46.94H51.875V46.655H46.055V46.955H45.305V49.88H52.61ZM50.75 55.175C50.48 55.07 50.105 54.74 50.105 54.425V50.945L50.315 50.63H47.66L47.885 50.93V54.425C47.885 54.74 47.495 55.07 47.24 55.175H50.75Z" fill="white" stroke="black" stroke-width="0.15"/>
<path id="Vector_13" d="M48.305 50.63H49.655V55.175H48.305V50.63Z" fill="white" stroke="black" stroke-width="0.15"/>
<path id="Vector_14" d="M50.36 49.625C50.36 49.325 51.23 49.31 51.68 49.055H46.28C46.73 49.31 47.585 49.325 47.585 49.625L47.765 50.21L50.015 50.3L50.36 49.625Z" fill="white" stroke="black" stroke-width="0.15" stroke-linejoin="bevel"/>
<path id="Vector_15" d="M51.41 46.445C51.41 45.71 51.44 45.44 51.665 45.44V47.75C51.11 47.96 50.72 48.65 50.72 48.65H47.24C47.24 48.65 46.85 47.96 46.295 47.75V45.425C46.565 45.425 46.565 45.725 46.565 46.43L51.41 46.445ZM51.665 46.145C51.665 45.305 52.4 45.215 52.4 45.215V45.965C52.115 45.95 51.98 46.205 51.98 46.565C51.98 46.94 52.205 46.94 52.205 46.94V49.07H51.665V46.145Z" fill="white" stroke="black" stroke-width="0.15"/>
<path id="Vector_16" d="M46.295 46.145C46.295 45.305 45.56 45.215 45.56 45.215V45.965C45.845 45.95 45.98 46.205 45.98 46.565C45.98 46.94 45.755 46.94 45.755 46.94V49.07H46.295V46.145Z" fill="white" stroke="black" stroke-width="0.15"/>
<g id="Group_3">
<path id="Vector_17" d="M47.72 40.34H50.3M47.42 41.15H50.57M47.12 42.125H50.855M46.805 43.31H51.23M46.7 44.66H51.26" stroke="black" stroke-width="0.12"/>
<path id="Vector_18" d="M45.32 49.1H52.61M47.63 49.1H50.33V50.09H47.63V49.1Z" stroke="black" stroke-width="0.15"/>
</g>
<path id="Vector_19" d="M47.3 46.88C47.75 47.42 47.69 48.335 47.69 48.875H50.3C50.3 48.335 50.24 47.42 50.69 46.88H47.3ZM48.755 40.73L48.395 40.535V40.01C48.545 40.055 48.695 40.07 48.725 40.31C48.77 39.965 48.875 39.995 49.01 39.86C49.16 39.995 49.235 39.965 49.295 40.31C49.295 40.07 49.475 40.055 49.61 40.01V40.535L49.265 40.715L48.755 40.73Z" fill="white" stroke="black" stroke-width="0.15"/>
<path id="Vector_20" d="M48.725 41.585L48.125 41.165V40.7C48.35 40.745 48.575 40.775 48.605 41.03C48.665 40.655 48.8 40.475 49.01 40.325C49.205 40.475 49.34 40.655 49.415 41.03C49.43 40.775 49.67 40.745 49.865 40.7V41.18L49.28 41.585H48.725Z" fill="white" stroke="black" stroke-width="0.15"/>
<path id="Vector_21" d="M48.68 42.92L48.005 42.32V41.615C48.245 41.675 48.515 41.705 48.545 42.08C48.62 41.555 48.77 41.27 48.995 41.06C49.235 41.27 49.385 41.555 49.475 42.08C49.505 41.705 49.775 41.675 50.015 41.615V42.32L49.325 42.92H48.68ZM49.94 43.715L49.34 44.57H48.635L48.02 43.715H49.94ZM47.66 45.14C47.95 45.29 48.1 45.67 48.11 46.28H49.85C49.86 45.67 50.01 45.29 50.3 45.14H47.66Z" fill="white" stroke="black" stroke-width="0.15"/>
<path id="Vector_22" d="M50.33 43.7V42.86C50.1997 42.8848 50.0783 42.9436 49.9782 43.0306C49.8781 43.1175 49.8028 43.2295 49.76 43.355C49.76 43.055 49.385 42.41 48.98 42.08C48.575 42.44 48.185 43.04 48.2 43.34C48.12 43.1 47.93 42.94 47.63 42.86V43.715L50.33 43.7Z" fill="white" stroke="black" stroke-width="0.15" stroke-linejoin="bevel"/>
<path id="Vector_23" d="M50.45 45.14V44.3C50.13 44.39 49.925 44.555 49.835 44.795C49.835 44.495 49.43 43.85 48.98 43.52C48.53 43.895 48.11 44.48 48.125 44.795C48.045 44.565 47.84 44.4 47.51 44.3V45.155L50.45 45.14Z" fill="white" stroke="black" stroke-width="0.15" stroke-linejoin="bevel"/>
<path id="Vector_24" d="M50.81 46.895V45.905C50.4998 46.0067 50.2312 46.2068 50.045 46.475C50.045 45.95 49.445 45.125 48.98 44.87C48.5 45.14 47.915 45.98 47.915 46.475C47.725 46.2042 47.4508 46.0038 47.135 45.905V46.895H50.81Z" fill="white" stroke="black" stroke-width="0.15" stroke-linejoin="bevel"/>
<path id="Vector_25" d="M50.6 49.1V48.08C50.24 48.215 50.15 48.545 50.03 48.785C50.075 47.75 49.46 46.655 48.98 46.37C48.5 46.655 47.87 47.78 47.93 48.77C47.81 48.56 47.705 48.215 47.36 48.08V49.085L50.6 49.1Z" fill="white" stroke="black" stroke-width="0.15" stroke-linejoin="bevel"/>
<path id="Vector_26" d="M50.36 50.63V49.61C49.985 49.7 49.97 49.835 49.85 50.06C49.895 49.445 49.46 48.74 48.98 48.47C48.5 48.74 48.08 49.445 48.11 50.06C47.99 49.835 47.975 49.7 47.6 49.61V50.63H50.36Z" fill="white" stroke="black" stroke-width="0.15"/>
<g id="a">
<path id="Vector_27" d="M34.55 54.38V51.32C34.445 50.93 34.1 50.57 33.86 50.51V47.81L34.415 48.11L35.06 50.945V54.395L34.55 54.38Z" fill="white" stroke="black" stroke-width="0.15"/>
<path id="Vector_28" d="M34.55 54.395V51.32C34.445 50.93 34.1 50.57 33.86 50.51V47.63C34.235 47.63 34.415 48.11 34.415 48.11L35.06 50.945V54.38L34.55 54.395Z" fill="white" stroke="black" stroke-width="0.15"/>
<path id="Vector_29" d="M34.145 55.175C34.4 55.07 34.775 54.74 34.775 54.425V50.585L34.595 50.285H41.15L40.895 50.585V54.425C40.906 54.5839 40.959 54.7371 41.0486 54.8689C41.1382 55.0007 41.2612 55.1063 41.405 55.175H34.145Z" fill="white" stroke="black" stroke-width="0.15"/>
<path id="Vector_30" d="M40.07 55.175C39.815 55.07 39.44 54.74 39.44 54.425V50.78L39.98 50.27H35.54L36.08 50.78V54.425C36.08 54.74 35.705 55.07 35.45 55.175H40.07Z" fill="white" stroke="black" stroke-width="0.15"/>
<path id="Vector_31" d="M39.455 55.175C39.2 55.07 38.81 54.74 38.81 54.425V51.125L39.17 50.63H36.35L36.71 51.125V54.425C36.71 54.74 36.335 55.07 36.065 55.175H39.455Z" fill="white" stroke="black" stroke-width="0.15"/>
<path id="Vector_32" d="M37.1 50.63H38.435V55.19H37.085L37.1 50.63Z" fill="white" stroke="black" stroke-width="0.15"/>
<g id="Vector_33">
<path d="M35.255 51.89H35.795V54.365H35.255V51.89ZM39.875 51.89H40.4V54.365H39.86L39.875 51.89ZM34.79 47.72H35.45V50.27H34.79V47.72ZM34.79 47.24H35.435V47.72H34.79V47.24ZM40.13 48.275H41.045V50.225H40.13V48.275Z" fill="white"/>
<path d="M34.79 47.72H35.45V50.27H34.79V47.72ZM34.79 47.72H35.435V47.24H34.79V47.72ZM35.255 51.89H35.795V54.365H35.255V51.89ZM39.875 51.89H40.4V54.365H39.86L39.875 51.89ZM40.13 48.275H41.045V50.225H40.13V48.275Z" stroke="black" stroke-width="0.15" stroke-linejoin="bevel"/>
</g>
<path id="Vector_34" d="M35.435 50.24V45.89C35.615 45.89 35.645 46.535 36.065 46.535C36.29 46.535 36.275 46.265 36.14 46.055C36.035 45.86 35.9 45.605 36.08 45.11C36.215 45.485 36.545 45.605 36.485 45.38C36.38 44.975 36.065 44.9 36.305 44.285C36.38 44.795 36.71 44.78 36.635 44.48C36.545 44.135 36.35 43.985 36.59 43.505C36.725 44.06 36.89 44.03 36.89 43.685C36.89 43.175 36.89 42.635 37.52 42.44C37.52 42.44 37.565 41.99 37.805 41.99C38.045 41.99 38.075 42.44 38.075 42.44C38.72 42.635 38.705 43.19 38.705 43.685C38.705 44.03 38.87 44.06 39.005 43.505C39.245 43.985 39.05 44.135 38.96 44.48C38.885 44.78 39.215 44.795 39.29 44.285C39.53 44.9 39.215 44.975 39.11 45.38C39.05 45.605 39.38 45.485 39.515 45.11C39.695 45.605 39.56 45.86 39.455 46.055C39.335 46.265 39.305 46.535 39.53 46.535C39.95 46.535 39.98 45.905 40.16 45.905V50.24H35.435ZM34.4 46.955V50.27H34.775V46.955C34.645 46.885 34.52 46.885 34.4 46.955Z" fill="white" stroke="black" stroke-width="0.15"/>
<path id="Vector_35" d="M34.43 49.1C34.895 49.34 35.36 49.625 35.48 50.27H34.43V49.1ZM40.91 48.11V50.27H41.21V48.11C41.11 48.06 41.01 48.06 40.91 48.11Z" fill="white" stroke="black" stroke-width="0.15"/>
<path id="Vector_36" d="M41.21 49.1C40.745 49.325 40.28 49.595 40.16 50.255H41.21V49.1ZM38.12 44.045L38.39 43.82V43.52C38.31 43.52 38.235 43.57 38.165 43.67C38.1359 43.5736 38.0877 43.4842 38.0233 43.4068C37.9588 43.3295 37.8795 43.266 37.79 43.22C37.6992 43.2627 37.6179 43.3232 37.5509 43.3979C37.4839 43.4727 37.4326 43.5601 37.4 43.655C37.34 43.565 37.265 43.515 37.175 43.505V43.805L37.445 44.045H38.12Z" fill="white" stroke="black" stroke-width="0.15"/>
<path id="Vector_37" d="M38.27 44.78L38.39 44.495V44.12C38.31 44.12 38.235 44.17 38.165 44.27C38.1359 44.1737 38.0877 44.0842 38.0233 44.0069C37.9588 43.9296 37.8795 43.866 37.79 43.82C37.6992 43.8627 37.6179 43.9233 37.5509 43.998C37.4839 44.0727 37.4326 44.1601 37.4 44.255C37.34 44.165 37.265 44.12 37.175 44.12V44.495L37.295 44.78H38.27Z" fill="white" stroke="black" stroke-width="0.15"/>
<path id="Vector_38" d="M38.3 45.77L38.69 45.275V44.795C38.56 44.795 38.45 44.875 38.36 45.035C38.255 44.69 38.06 44.63 37.79 44.465C37.505 44.615 37.31 44.69 37.22 45.02C37.1 44.855 37.025 44.81 36.875 44.795V45.275L37.28 45.77H38.3Z" fill="white" stroke="black" stroke-width="0.15"/>
<path id="Vector_39" d="M38.405 46.745C38.405 46.745 38.885 46.34 38.9 46.115V45.59C38.72 45.605 38.555 45.65 38.42 45.875C38.3 45.44 38.12 45.32 37.79 45.125C37.445 45.32 37.265 45.44 37.16 45.875C37.01 45.65 36.86 45.605 36.665 45.575V46.115C36.791 46.3529 36.9586 46.5663 37.16 46.745H38.405Z" fill="white" stroke="black" stroke-width="0.15"/>
<path id="Vector_40" d="M38.6 48.545C38.6 48.545 39.26 47.84 39.275 47.555V46.745C39.025 46.765 38.805 46.945 38.615 47.285C38.485 46.625 38.21 46.135 37.79 45.815C37.34 46.145 37.1 46.61 36.95 47.285C36.76 46.945 36.545 46.765 36.305 46.745V47.555C36.35 47.84 36.965 48.545 36.965 48.545H38.6Z" fill="white" stroke="black" stroke-width="0.15"/>
<path id="Vector_41" d="M38.6 49.61C38.6 49.61 39.155 49.055 39.275 48.815V48.005C39.025 48.035 38.805 48.21 38.615 48.53C38.5749 48.2571 38.4814 47.9947 38.3398 47.7579C38.1983 47.5212 38.0114 47.3146 37.79 47.15C37.34 47.48 37.1 47.855 36.95 48.53C36.76 48.21 36.545 48.035 36.305 48.005V48.815C36.455 49.055 36.965 49.61 36.965 49.61H38.6Z" fill="white" stroke="black" stroke-width="0.15"/>
<path id="Vector_42" d="M38.825 50.24C38.675 49.535 38.525 49.01 37.76 48.485C36.98 49.01 36.845 49.535 36.68 50.24H38.825Z" fill="white" stroke="black" stroke-width="0.15"/>
<path id="Vector_43" d="M39.23 50.63V49.61C38.87 49.76 38.555 49.955 38.435 50.18C38.315 49.61 38.06 49.37 37.745 49.025C37.43 49.37 37.22 49.625 37.085 50.18C36.965 49.955 36.65 49.745 36.305 49.61V50.63H39.23Z" fill="white" stroke="black" stroke-width="0.15"/>
</g>
<g id="a_2">
<path id="Vector_44" d="M63.455 54.38V51.32C63.56 50.93 63.905 50.57 64.145 50.51V47.81L63.59 48.11L62.945 50.945V54.395L63.455 54.38Z" fill="white" stroke="black" stroke-width="0.15"/>
<path id="Vector_45" d="M63.455 54.395V51.32C63.56 50.93 63.905 50.57 64.145 50.51V47.63C63.77 47.63 63.59 48.11 63.59 48.11L62.945 50.945V54.38L63.455 54.395Z" fill="white" stroke="black" stroke-width="0.15"/>
<path id="Vector_46" d="M63.86 55.175C63.605 55.07 63.23 54.74 63.23 54.425V50.585L63.41 50.285H56.855L57.11 50.585V54.425C57.099 54.5839 57.046 54.7371 56.9564 54.8689C56.8668 55.0007 56.7438 55.1063 56.6 55.175H63.86Z" fill="white" stroke="black" stroke-width="0.15"/>
<path id="Vector_47" d="M57.935 55.175C58.19 55.07 58.565 54.74 58.565 54.425V50.78L58.025 50.27H62.465L61.925 50.78V54.425C61.925 54.74 62.3 55.07 62.555 55.175H57.935Z" fill="white" stroke="black" stroke-width="0.15"/>
<path id="Vector_48" d="M58.55 55.175C58.805 55.07 59.195 54.74 59.195 54.425V51.125L58.835 50.63H61.655L61.295 51.125V54.425C61.295 54.74 61.67 55.07 61.94 55.175H58.55Z" fill="white" stroke="black" stroke-width="0.15"/>
<path id="Vector_49" d="M60.905 50.63H59.57V55.19H60.92L60.905 50.63Z" fill="white" stroke="black" stroke-width="0.15"/>
<g id="Vector_50">
<path d="M62.75 51.89H62.21V54.365H62.75V51.89ZM58.13 51.89H57.605V54.365H58.145L58.13 51.89ZM63.215 47.72H62.555V50.27H63.215V47.72ZM63.215 47.24H62.57V47.72H63.215V47.24ZM57.875 48.275H56.96V50.225H57.875V48.275Z" fill="white"/>
<path d="M63.215 47.72H62.555V50.27H63.215V47.72ZM63.215 47.72H62.57V47.24H63.215V47.72ZM62.75 51.89H62.21V54.365H62.75V51.89ZM58.13 51.89H57.605V54.365H58.145L58.13 51.89ZM57.875 48.275H56.96V50.225H57.875V48.275Z" stroke="black" stroke-width="0.15" stroke-linejoin="bevel"/>
</g>
<path id="Vector_51" d="M62.57 50.24V45.89C62.39 45.89 62.36 46.535 61.94 46.535C61.715 46.535 61.73 46.265 61.865 46.055C61.97 45.86 62.105 45.605 61.925 45.11C61.79 45.485 61.46 45.605 61.52 45.38C61.625 44.975 61.94 44.9 61.7 44.285C61.625 44.795 61.295 44.78 61.37 44.48C61.46 44.135 61.655 43.985 61.415 43.505C61.28 44.06 61.115 44.03 61.115 43.685C61.115 43.175 61.115 42.635 60.485 42.44C60.485 42.44 60.44 41.99 60.2 41.99C59.96 41.99 59.93 42.44 59.93 42.44C59.285 42.635 59.3 43.19 59.3 43.685C59.3 44.03 59.135 44.06 59 43.505C58.76 43.985 58.955 44.135 59.045 44.48C59.12 44.78 58.79 44.795 58.715 44.285C58.475 44.9 58.79 44.975 58.895 45.38C58.955 45.605 58.625 45.485 58.49 45.11C58.31 45.605 58.445 45.86 58.55 46.055C58.67 46.265 58.7 46.535 58.475 46.535C58.055 46.535 58.025 45.905 57.845 45.905V50.24H62.57ZM63.605 46.955V50.27H63.23V46.955C63.36 46.885 63.485 46.885 63.605 46.955Z" fill="white" stroke="black" stroke-width="0.15"/>
<path id="Vector_52" d="M63.575 49.1C63.11 49.34 62.645 49.625 62.525 50.27H63.575V49.1ZM57.095 48.11V50.27H56.795V48.11C56.895 48.06 56.995 48.06 57.095 48.11Z" fill="white" stroke="black" stroke-width="0.15"/>
<path id="Vector_53" d="M56.795 49.1C57.26 49.325 57.725 49.595 57.845 50.255H56.795V49.1ZM59.885 44.045L59.615 43.82V43.52C59.695 43.52 59.77 43.57 59.84 43.67C59.8691 43.5736 59.9173 43.4842 59.9818 43.4068C60.0462 43.3295 60.1255 43.266 60.215 43.22C60.3058 43.2627 60.3871 43.3232 60.4541 43.3979C60.5211 43.4727 60.5724 43.5601 60.605 43.655C60.665 43.565 60.74 43.515 60.83 43.505V43.805L60.56 44.045H59.885Z" fill="white" stroke="black" stroke-width="0.15"/>
<path id="Vector_54" d="M59.735 44.78L59.615 44.495V44.12C59.695 44.12 59.77 44.17 59.84 44.27C59.8691 44.1737 59.9173 44.0842 59.9818 44.0069C60.0462 43.9296 60.1255 43.866 60.215 43.82C60.3058 43.8627 60.3871 43.9233 60.4541 43.998C60.5211 44.0727 60.5724 44.1601 60.605 44.255C60.665 44.165 60.74 44.12 60.83 44.12V44.495L60.71 44.78H59.735Z" fill="white" stroke="black" stroke-width="0.15"/>
<path id="Vector_55" d="M59.705 45.77L59.315 45.275V44.795C59.445 44.795 59.555 44.875 59.645 45.035C59.75 44.69 59.945 44.63 60.215 44.465C60.5 44.615 60.695 44.69 60.785 45.02C60.905 44.855 60.98 44.81 61.13 44.795V45.275L60.725 45.77H59.705Z" fill="white" stroke="black" stroke-width="0.15"/>
<path id="Vector_56" d="M59.6 46.745C59.6 46.745 59.12 46.34 59.105 46.115V45.59C59.285 45.605 59.45 45.65 59.585 45.875C59.705 45.44 59.885 45.32 60.215 45.125C60.56 45.32 60.74 45.44 60.845 45.875C60.995 45.65 61.145 45.605 61.34 45.575V46.115C61.214 46.3529 61.0464 46.5663 60.845 46.745H59.6Z" fill="white" stroke="black" stroke-width="0.15"/>
<path id="Vector_57" d="M59.405 48.545C59.405 48.545 58.745 47.84 58.73 47.555V46.745C58.98 46.765 59.2 46.945 59.39 47.285C59.52 46.625 59.795 46.135 60.215 45.815C60.665 46.145 60.905 46.61 61.055 47.285C61.245 46.945 61.46 46.765 61.7 46.745V47.555C61.655 47.84 61.04 48.545 61.04 48.545H59.405Z" fill="white" stroke="black" stroke-width="0.15"/>
<path id="Vector_58" d="M59.405 49.61C59.405 49.61 58.85 49.055 58.73 48.815V48.005C58.98 48.035 59.2 48.21 59.39 48.53C59.4301 48.2571 59.5237 47.9947 59.6652 47.7579C59.8068 47.5212 59.9936 47.3146 60.215 47.15C60.665 47.48 60.905 47.855 61.055 48.53C61.245 48.21 61.46 48.035 61.7 48.005V48.815C61.55 49.055 61.04 49.61 61.04 49.61H59.405Z" fill="white" stroke="black" stroke-width="0.15"/>
<path id="Vector_59" d="M59.18 50.24C59.33 49.535 59.48 49.01 60.245 48.485C61.025 49.01 61.16 49.535 61.325 50.24H59.18Z" fill="white" stroke="black" stroke-width="0.15"/>
<path id="Vector_60" d="M58.775 50.63V49.61C59.135 49.76 59.45 49.955 59.57 50.18C59.69 49.61 59.945 49.37 60.26 49.025C60.575 49.37 60.785 49.625 60.92 50.18C61.04 49.955 61.355 49.745 61.7 49.61V50.63H58.775Z" fill="white" stroke="black" stroke-width="0.15"/>
</g>
<path id="Vector_61" d="M30.605 58.895H67.4V60.77H30.605V58.895ZM29.63 60.77H68.375V62.645H29.63V60.77ZM32.54 56.075H65.45V57.29H32.54V56.075Z" fill="white" stroke="black" stroke-width="0.15"/>
<path id="Vector_62" d="M31.58 57.29H66.44V58.88H31.58V57.29ZM33.11 55.145H64.91V56.075H33.11V55.145Z" fill="white" stroke="black" stroke-width="0.15"/>
<path id="Vector_63" d="M36.56 55.145H38.96V62.645H36.56V55.145Z" fill="white" stroke="black" stroke-width="0.15"/>
<path id="Vector_64" d="M37.1 55.145H38.435V62.645H37.085L37.1 55.145ZM47.75 55.145H50.15V62.645H47.75V55.145Z" fill="white" stroke="black" stroke-width="0.15"/>
<path id="Vector_65" d="M48.305 55.145H49.655V62.645H48.305V55.145ZM59.03 55.145H61.43V62.645H59.03V55.145Z" fill="white" stroke="black" stroke-width="0.15"/>
<path id="Vector_66" d="M59.555 55.145H60.905V62.645H59.555V55.145Z" fill="white" stroke="black" stroke-width="0.15"/>
<path id="Vector_67" d="M34.55 54.38H63.5M37.07 61.7H38.45M37.07 60.755H38.45M37.07 59.825H38.45M37.07 58.88H38.45M37.07 57.95H38.45M37.07 57.005H38.45M37.07 56.075H38.45M48.32 61.7H49.61M48.32 60.755H49.61M48.32 59.825H49.61M48.32 58.88H49.61M48.32 57.95H49.61M48.32 57.005H49.61M48.32 56.075H49.61M59.54 61.7H60.92M59.54 60.755H60.92M59.54 59.825H60.92M59.54 58.88H60.92M59.54 57.95H60.92M59.54 57.005H60.92M59.54 56.075H60.92" stroke="black" stroke-width="0.15"/>
</g>
</g>
<g id="filter" style="mix-blend-mode:screen">
<rect x="11" y="21" width="76.6481" height="57.4816" fill="#4A4A4A"/>
</g>
</g>
</g>
</g>
</g>
<defs>
<clipPath id="clip0_2005_2">
<rect x="10.7778" y="20.7778" width="76.6421" height="57.4816" rx="4" fill="white"/>
</clipPath>
<clipPath id="clip1_2005_2">
<rect width="80" height="60" fill="white" transform="translate(9 20)"/>
</clipPath>
</defs>
</svg>
