<svg width="100" height="100" viewBox="0 0 100 100" fill="none" xmlns="http://www.w3.org/2000/svg">
<g id="china" clip-path="url(#clip0_2005_310)">
<g id="Frame 1">
<path id="Union" d="M87.4259 11.7963H14.3704C7.42593 11.7963 1.79631 17.4259 1.79631 24.3704V78.2594C1.79631 85.2039 7.42591 90.8335 14.3704 90.8335H87.4259C94.3704 90.8335 100 85.2039 100 78.2594V24.3704C100 17.426 94.3704 11.7963 87.4259 11.7963Z" fill="#605F5E" fill-opacity="0.3"/>
<path id="Union_2" d="M85.6296 10H12.5741C5.62962 10 0 15.6296 0 22.5741V76.4631C0 83.4076 5.6296 89.0372 12.5741 89.0372H85.6296C92.5741 89.0372 98.2037 83.4076 98.2037 76.4631V22.5741C98.2037 15.6296 92.5741 10 85.6296 10Z" fill="#F5F1EE"/>
<g id="flag-container">
<g clip-path="url(#clip1_2005_310)">
<g id="China (CN)" clip-path="url(#clip2_2005_310)">
<path id="Vector" d="M9 19.9999H89V79.9999H9V19.9999Z" fill="#EE1C25"/>
<path id="Vector_2" d="M18.6001 42.1999L24 25.9999L29.3999 42.1999L15.0001 32.2999H32.9999L18.6001 42.1999Z" fill="#FFFF00"/>
<path id="Vector_3" d="M42.0214 26.3104L36.4642 27.5419L40.171 23.2223L39.8075 29.0359L36.7235 23.8891L42.0214 26.3104Z" fill="#FFFF00"/>
<path id="Vector_4" d="M47.6299 33.4184L42.03 32.3982L47.122 29.8544L44.5322 35.0719L43.6858 29.1319L47.6299 33.4184Z" fill="#FFFF00"/>
<path id="Vector_5" d="M46.8125 43.3905L42.1157 40.175L47.8024 39.9292L43.3098 43.6368L44.9596 37.8681L46.8125 43.3905Z" fill="#FFFF00"/>
<path id="Vector_6" d="M39.7486 49.905L36.6581 45.125L41.9985 47.0947L36.4225 48.7794L40.1723 44.0955L39.7486 49.905Z" fill="#FFFF00"/>
</g>
<g id="filter" style="mix-blend-mode:screen">
<rect x="10.7778" y="20.7778" width="76.6481" height="57.4816" fill="#414141"/>
</g>
</g>
</g>
</g>
</g>
<defs>
<clipPath id="clip0_2005_310">
<rect width="100" height="100" fill="white"/>
</clipPath>
<clipPath id="clip1_2005_310">
<rect x="10.7778" y="20.7778" width="76.6421" height="57.4816" rx="4" fill="white"/>
</clipPath>
<clipPath id="clip2_2005_310">
<rect width="80" height="60" fill="white" transform="translate(9 19.9999)"/>
</clipPath>
</defs>
</svg>
