<svg xmlns="http://www.w3.org/2000/svg" width="100" height="100" fill="none" xmlns:v="https://vecta.io/nano"><g clip-path="url(#A)"><path d="M87.426 11.796H14.37c-6.944 0-12.574 5.63-12.574 12.574v53.889c0 6.945 5.63 12.574 12.574 12.574h73.056c6.945 0 12.574-5.63 12.574-12.574V24.37c0-6.944-5.63-12.574-12.574-12.574z" fill="#605f5e" fill-opacity=".3"/><path d="M85.63 10H12.574C5.63 10 0 15.63 0 22.574v53.889c0 6.945 5.63 12.574 12.574 12.574H85.63c6.945 0 12.574-5.63 12.574-12.574V22.574C98.204 15.63 92.574 10 85.63 10z" fill="#f5f1ee"/><g clip-path="url(#B)"><g clip-path="url(#C)"><path d="M9 20h80v60H9V20z" fill="#ee1c25"/><g fill="#ff0"><path d="M18.6 42.2L24 26l5.4 16.2L15 32.3h18l-14.4 9.9zm23.421-15.89l-5.557 1.231 3.707-4.32-.364 5.814-3.084-5.147 5.298 2.421zm5.609 7.108l-5.6-1.02 5.092-2.544-2.59 5.218-.846-5.94 3.944 4.286zm-.817 9.973l-4.697-3.216 5.687-.246-4.493 3.708 1.65-5.769 1.853 5.522zm-7.064 6.514l-3.091-4.78 5.34 1.97-5.576 1.685 3.75-4.684-.424 5.81z"/></g></g><g style="mix-blend-mode:screen"><path fill="#414141" d="M10.778 20.778h76.648v57.482H10.778z"/></g></g></g><defs><clipPath id="A"><path fill="#fff" d="M0 0h100v100H0z"/></clipPath><clipPath id="B"><rect x="10.778" y="20.778" width="76.642" height="57.482" rx="4" fill="#fff"/></clipPath><clipPath id="C"><path fill="#fff" transform="translate(9 20)" d="M0 0h80v60H0z"/></clipPath></defs></svg>