<svg width="84" height="70" viewBox="0 0 84 70" fill="none" xmlns="http://www.w3.org/2000/svg">
<g id="id1">
<g id="Group 338">
<path id="Subtract" fill-rule="evenodd" clip-rule="evenodd" d="M27.3234 22.4203L3.51709 1.15675V3.12023L3.51822 3.12413L5.66878 10.0997L26.6102 24.6796C26.7478 23.8655 26.9914 23.1038 27.3234 22.4203ZM26.5765 24.8945L6.41076 12.5063L8.14893 18.1443L26.4934 26.7304C26.4615 26.0991 26.4914 25.4839 26.5765 24.8945ZM26.5023 26.8832L8.68328 19.8775L10.2238 24.8744L26.7424 28.4824C26.6205 27.9693 26.5387 27.4343 26.5023 26.8832ZM26.7615 28.5613L10.7912 26.7146L11.6934 29.6412L24.4921 30.6089L12.5064 31.5906L14.8964 34.3675L24.4921 32.5724L14.8964 36.4432L19.0343 37.4811H32.4826V34.1175C29.8506 34.0339 27.5414 31.7217 26.7615 28.5613Z" fill="#232222"/>
<path id="Subtract (Stroke)" fill-rule="evenodd" clip-rule="evenodd" d="M3 0L27.9601 22.2941L27.7885 22.6475C27.4791 23.2848 27.25 23.999 27.1203 24.7664L27.1033 24.8672L27.0886 24.9689C27.0083 25.5248 26.9799 26.1062 27.0101 26.7042L27.0138 26.7765L27.0186 26.8489C27.0531 27.371 27.1305 27.8772 27.2457 28.3621L27.2546 28.3997L27.2638 28.4367C27.4348 29.1295 27.6806 29.7724 27.9861 30.3527L31.1013 30.5882L28.2541 30.8214C28.353 30.981 28.4566 31.1348 28.5646 31.2827L29.5181 31.1043L28.6836 31.4409C29.6996 32.7529 31.0694 33.5534 32.4991 33.5988L33 33.6147V38H18.9708L13.224 36.5586L19.4664 34.0405L14.6993 34.9323L11.4496 31.1566L17.8832 30.6296L11.3035 30.1321L10.0629 26.108L17.2401 26.938L9.81903 25.317L7.8718 19.001L13.3989 21.1741L7.72267 18.5173L5.51157 11.3454L14.3462 16.7727L5.2275 10.424L3.02175 3.26945L3 3.19437V0ZM26.2674 23.8092C26.3804 23.3723 26.5235 22.9522 26.6943 22.553L4.03448 2.31354V3.04205L6.11037 9.77539L26.2674 23.8092ZM26.0216 25.162L7.31025 13.6673L8.5755 17.7712L25.9691 25.9123C25.9773 25.659 25.9949 25.4087 26.0216 25.162ZM26.0135 27.2484L9.49505 20.7539L10.6289 24.4318L26.084 27.8075C26.0556 27.6232 26.0321 27.4367 26.0135 27.2484ZM26.353 29.0365L11.5197 27.3212L12.0837 29.1503L26.7963 30.2627C26.6231 29.8703 26.4744 29.4603 26.353 29.0365ZM27.1155 30.9147L13.5635 32.0247L15.0938 33.8028L27.4551 31.4902C27.3356 31.3044 27.2222 31.1123 27.1155 30.9147ZM27.6929 31.8406L16.5691 36.3278L19.0982 36.9622H31.9655V34.5961C30.2721 34.3785 28.7699 33.3438 27.6929 31.8406Z" fill="url(#paint0_linear_2086_7117)"/>
</g>
<g id="Group 338_2">
<path id="Subtract_2" fill-rule="evenodd" clip-rule="evenodd" d="M56.6766 22.4203L80.4829 1.15675V3.12023L80.4818 3.12413L78.3312 10.0997L57.3898 24.6796C57.2522 23.8655 57.0086 23.1038 56.6766 22.4203ZM57.4235 24.8945L77.5892 12.5063L75.8511 18.1443L57.5066 26.7304C57.5385 26.0991 57.5086 25.4839 57.4235 24.8945ZM57.4977 26.8832L75.3167 19.8775L73.7762 24.8744L57.2576 28.4824C57.3795 27.9693 57.4613 27.4343 57.4977 26.8832ZM57.2385 28.5613L73.2088 26.7146L72.3066 29.6412L59.5079 30.6089L71.4936 31.5906L69.1036 34.3675L59.5079 32.5724L69.1036 36.4432L64.9657 37.4811H51.5174V34.1175C54.1494 34.0339 56.4586 31.7217 57.2385 28.5613Z" fill="#232222"/>
<path id="Subtract (Stroke)_2" fill-rule="evenodd" clip-rule="evenodd" d="M81 0L56.0399 22.2941L56.2115 22.6475C56.5209 23.2848 56.75 23.999 56.8797 24.7664L56.8967 24.8672L56.9114 24.9689C56.9917 25.5248 57.0201 26.1062 56.9899 26.7042L56.9862 26.7765L56.9814 26.8489C56.9469 27.371 56.8695 27.8772 56.7543 28.3621L56.7454 28.3997L56.7362 28.4367C56.5652 29.1295 56.3194 29.7724 56.0139 30.3527L52.8987 30.5882L55.7459 30.8214C55.647 30.981 55.5434 31.1348 55.4354 31.2827L54.4819 31.1043L55.3164 31.4409C54.3004 32.7529 52.9306 33.5534 51.5009 33.5988L51 33.6147V38H65.0292L70.776 36.5586L64.5336 34.0405L69.3007 34.9323L72.5504 31.1566L66.1168 30.6296L72.6965 30.1321L73.9371 26.108L66.7599 26.938L74.181 25.317L76.1282 19.001L70.6011 21.1741L76.2773 18.5173L78.4884 11.3454L69.6538 16.7727L78.7725 10.424L80.9782 3.26945L81 3.19437V0ZM57.7326 23.8092C57.6196 23.3723 57.4765 22.9522 57.3057 22.553L79.9655 2.31354V3.04205L77.8896 9.77539L57.7326 23.8092ZM57.9784 25.162L76.6898 13.6673L75.4245 17.7712L58.0309 25.9123C58.0227 25.659 58.0051 25.4087 57.9784 25.162ZM57.9865 27.2484L74.5049 20.7539L73.3711 24.4318L57.916 27.8075C57.9444 27.6232 57.9679 27.4367 57.9865 27.2484ZM57.647 29.0365L72.4803 27.3212L71.9163 29.1503L57.2037 30.2627C57.3769 29.8703 57.5256 29.4603 57.647 29.0365ZM56.8845 30.9147L70.4365 32.0247L68.9062 33.8028L56.5449 31.4902C56.6644 31.3044 56.7778 31.1123 56.8845 30.9147ZM56.3071 31.8406L67.4309 36.3278L64.9018 36.9622H52.0345V34.5961C53.7279 34.3785 55.2301 33.3438 56.3071 31.8406Z" fill="url(#paint1_linear_2086_7117)"/>
</g>
<g id="Group 334">
<path id="Union" fill-rule="evenodd" clip-rule="evenodd" d="M24.5893 52.7579L20.4927 56.1008L25.6134 55.2651L24.5893 59.0258L31.7583 53.1757L33.8066 54.8472L28.6859 58.1901L31.7583 60.6973L36.8791 56.5186H37.9032L33.8066 62.3687L36.8791 64.8759L39.9515 56.5186L38.9274 66.5473L41.9998 69.0545L45.0723 66.5473L44.0481 56.5186L47.1206 64.8759L50.193 62.3687L46.0964 56.5186H47.1206L52.2413 60.6973L55.3138 58.1901L50.193 54.8472L52.2413 53.1757L59.4104 59.0258L58.3862 55.2651L63.507 56.1008L59.4104 52.7579V50.6686H41.9998H24.5893V52.7579Z" fill="#232222"/>
<path id="Union (Stroke)" fill-rule="evenodd" clip-rule="evenodd" d="M18 57.1894L23.7701 52.481V50H60.2298V52.481L65.9999 57.1894L59.459 56.1219L60.8206 61.122L52.2414 54.1213L51.4198 54.7918L56.5405 58.1346L52.2414 61.6428L48.4778 58.5716L51.215 62.4804L46.7301 66.1401L45.5156 62.8367L45.9204 66.8008L41.9999 70L38.0794 66.8008L38.4843 62.8367L37.2698 66.1401L32.7849 62.4804L35.5221 58.5716L31.7584 61.6428L27.4594 58.1346L32.5801 54.7918L31.7584 54.1213L23.1792 61.122L24.5409 56.1219L18 57.1894ZM25.6135 55.2651L24.5894 59.0258L31.7584 53.1757L33.8067 54.8472L28.686 58.1901L31.7584 60.6973L36.8792 56.5186H37.9033L33.8067 62.3687L36.8792 64.8759L39.9516 56.5186L38.9275 66.5473L41.9999 69.0545L45.0724 66.5473L44.0482 56.5186L47.1207 64.8759L50.1931 62.3687L46.0965 56.5186H47.1207L52.2414 60.6973L55.3139 58.1901L50.1931 54.8472L52.2414 53.1757L59.4105 59.0258L58.3863 55.2651L63.5071 56.1008L59.4105 52.7579V50.6686H24.5894V52.7579L20.4928 56.1008L25.6135 55.2651Z" fill="url(#paint2_linear_2086_7117)"/>
<path id="Vector 426" d="M40 66.6667L42 68.3333L44 66.6667L42 65.8333L40 66.6667Z" fill="url(#paint3_linear_2086_7117)"/>
</g>
<g id="Base">
<path id="Union_2" fill-rule="evenodd" clip-rule="evenodd" d="M42.0001 16.3334L37.0001 18.8334C37.0001 18.8334 35.4285 18.4441 34.5001 18C33.4416 17.4938 32.0001 16.3334 32.0001 16.3334L31.1668 18.8334L26.1668 15.5C26.1668 15.5 26.3492 17.7856 27.0001 19.25C27.651 20.7145 29.5001 23 29.5001 23L27.8335 24.6667L28.6668 25.5L19.5001 29.6667L20.3335 34.6667L13.6668 38.8334L15.3335 40.5L7.00012 53L18.6668 50.5L17.0001 53.8334L28.6668 52.1667C28.6668 52.1667 31.8673 55.9303 34.5001 57.5834C37.1616 59.2545 42.0001 60.5 42.0001 60.5L42.0001 60.5001C42.0001 60.5001 46.8386 59.2545 49.5001 57.5834C52.1329 55.9303 55.3334 52.1667 55.3334 52.1667L67.0001 53.8334L65.3335 50.5001L77.0001 53.0001L68.6668 40.5001L70.3335 38.8334L63.6668 34.6667L64.5001 29.6667L55.3334 25.5001L56.1668 24.6667L54.5001 23.0001C54.5001 23.0001 56.3492 20.7145 57.0001 19.2501C57.651 17.7856 57.8335 15.5001 57.8335 15.5001L52.8334 18.8334L52.0001 16.3334C52.0001 16.3334 50.5587 17.4938 49.5001 18.0001C48.5717 18.4441 47.0001 18.8334 47.0001 18.8334L42.0001 16.3334Z" fill="#232222"/>
<path id="Union_3" fill-rule="evenodd" clip-rule="evenodd" d="M37.0001 20.5L42.0001 18.0001L47.0001 20.5001L51.1668 18.8334L52.0001 21.3334L56.1668 18.0001C56.1668 18.0001 55.4274 19.6065 54.9168 20.5001C54.2317 21.6988 52.8334 23.0001 52.8334 23.0001L54.5001 24.6667L53.6668 25.5001L62.8334 30.5001L62.0001 35.5001L68.6668 38.8334L67.0001 40.5001L74.5001 51.3334L63.6668 48.8334L65.3334 52.1667L55.3334 50.5001C55.3334 50.5001 51.8605 54.4801 49.0834 56.3334C46.5405 58.0304 42.0001 60.5001 42.0001 60.5001C42.0001 60.5001 46.8386 59.2545 49.5001 57.5834C52.1329 55.9303 55.3334 52.1667 55.3334 52.1667L67.0001 53.8334L65.3335 50.5001L77.0001 53.0001L68.6668 40.5001L70.3335 38.8334L63.6668 34.6667L64.5001 29.6667L55.3334 25.5001L56.1668 24.6667L54.5001 23.0001C54.5001 23.0001 56.3492 20.7145 57.0001 19.2501C57.651 17.7856 57.8335 15.5001 57.8335 15.5001L52.8334 18.8334L52.0001 16.3334C52.0001 16.3334 50.5587 17.4938 49.5001 18.0001C48.5717 18.4441 47.0001 18.8334 47.0001 18.8334L42.0001 16.3334L37.0001 18.8334C37.0001 18.8334 35.4285 18.4441 34.5001 18C33.4416 17.4938 32.0001 16.3334 32.0001 16.3334L31.1668 18.8334L26.1668 15.5C26.1668 15.5 26.3492 17.7856 27.0001 19.25C27.651 20.7145 29.5001 23 29.5001 23L27.8335 24.6667L28.6668 25.5L19.5001 29.6667L20.3335 34.6667L13.6668 38.8334L15.3335 40.5L7.00012 53L18.6668 50.5L17.0001 53.8334L28.6668 52.1667C28.6668 52.1667 31.8673 55.9303 34.5001 57.5834C37.1616 59.2545 42.0001 60.5 42.0001 60.5C42.0001 60.5 37.4597 58.0304 34.9168 56.3334C32.1397 54.48 28.6668 50.5 28.6668 50.5L18.6668 52.1667L20.3335 48.8334L9.50013 51.3334L17.0001 40.5L15.3335 38.8334L22.0001 35.5L21.1668 30.5L30.3335 25.5L29.5001 24.6667L31.1668 23C31.1668 23 29.7685 21.6988 29.0835 20.5C28.5729 19.6065 27.8335 18 27.8335 18L32.0001 21.3334L32.8335 18.8334L37.0001 20.5Z" fill="url(#paint4_linear_2086_7117)"/>
<g id="Group 159">
<path id="Vector 240" d="M12.0004 49.6667L15.3337 45.5001L20.3337 47.1667L12.0004 49.6667Z" fill="url(#paint5_linear_2086_7117)"/>
<path id="Vector 241" d="M23.6674 36.3334L22.8341 31.3334L25.3341 37.1667L17.8341 38.8334L23.6674 36.3334Z" fill="url(#paint6_linear_2086_7117)"/>
<path id="Vector 242" d="M32.0008 25.5001L31.1674 24.6667L32.8341 23.0001L32.0008 24.6667L32.8341 25.5001L32.0008 26.3334H30.3341L32.0008 25.5001Z" fill="url(#paint7_linear_2086_7117)"/>
</g>
<g id="Group 160">
<path id="Union_4" fill-rule="evenodd" clip-rule="evenodd" d="M42.0002 58C42.0262 57.9882 45.3792 56.4726 47 55.5001C48.6272 54.5237 50.3334 53.0001 50.3334 53.0001L46.1667 51.3334L42.0001 53L37.8335 51.3334L33.6669 53.0001C33.6669 53.0001 35.373 54.5237 37.0002 55.5001C38.6211 56.4726 41.974 57.9882 42 58V58.0001C42 58.0001 42.0001 58 42.0001 58C42.0002 58 42.0002 58.0001 42.0002 58.0001V58Z" fill="url(#paint8_linear_2086_7117)"/>
<path id="Union_5" fill-rule="evenodd" clip-rule="evenodd" d="M42.0005 20.5001L46.1671 23L42.0004 22.1667L37.8338 23L42.0004 20.5001V20.5L42.0005 20.5L42.0005 20.5V20.5001Z" fill="url(#paint9_linear_2086_7117)"/>
<path id="Vector 240_2" d="M72.0007 49.6667L68.6674 45.5L63.6674 47.1667L72.0007 49.6667Z" fill="url(#paint10_linear_2086_7117)"/>
<path id="Vector 241_2" d="M60.3334 36.3334L61.1667 31.3334L58.6667 37.1667L66.1667 38.8334L60.3334 36.3334Z" fill="url(#paint11_linear_2086_7117)"/>
<path id="Vector 242_2" d="M52.0003 25.5001L52.8337 24.6667L51.167 23.0001L52.0003 24.6667L51.167 25.5001L52.0003 26.3334H53.667L52.0003 25.5001Z" fill="url(#paint12_linear_2086_7117)"/>
<path id="Union_6" fill-rule="evenodd" clip-rule="evenodd" d="M42.0004 55.5H44.5004L42.0004 57.1666V57.1667L42.0004 57.1667L42.0004 57.1667V57.1666L39.5004 55.5H42.0004H42.0004Z" fill="#232222"/>
</g>
<g id="Group 333">
<g id="Group 155">
<g id="S1" filter="url(#filter0_f_2086_7117)">
<path d="M32.8592 46.675C36.2081 46.8584 38.4753 46.95 39.6608 46.95C39.9419 46.95 40.1619 46.8706 40.3208 46.7117C40.4919 46.5406 40.5775 46.3145 40.5775 46.0334V44.3834H36.3609C35.0775 44.3834 34.1425 44.0962 33.5559 43.5217C32.9814 42.935 32.6942 42.0001 32.6942 40.7167V40.1667C32.6942 38.8834 32.9814 37.9545 33.5559 37.3801C34.1425 36.7934 35.0775 36.5001 36.3609 36.5001H42.7958V39.0667H37.0942C36.3609 39.0667 35.9942 39.4334 35.9942 40.1667V40.5334C35.9942 41.2667 36.3609 41.6334 37.0942 41.6334H40.3942C41.5919 41.6334 42.4719 41.9145 43.0342 42.4767C43.5964 43.0389 43.8775 43.9189 43.8775 45.1167V46.0334C43.8775 47.2311 43.5964 48.1111 43.0342 48.6733C42.4719 49.2356 41.5919 49.5167 40.3942 49.5167C39.7708 49.5167 39.1108 49.5045 38.4142 49.48L36.7275 49.4067C35.4809 49.3456 34.1914 49.26 32.8592 49.15V46.675ZM47.451 49.3333V39.3417L45.3427 40.0751L44.426 37.9667L47.8177 36.5001H50.751V49.3333H47.451Z" fill="url(#paint13_linear_2086_7117)"/>
</g>
<path id="S1_2" d="M32.8592 46.675C36.2081 46.8584 38.4753 46.95 39.6608 46.95C39.9419 46.95 40.1619 46.8706 40.3208 46.7117C40.4919 46.5406 40.5775 46.3145 40.5775 46.0334V44.3834H36.3609C35.0775 44.3834 34.1425 44.0962 33.5559 43.5217C32.9814 42.935 32.6942 42.0001 32.6942 40.7167V40.1667C32.6942 38.8834 32.9814 37.9545 33.5559 37.3801C34.1425 36.7934 35.0775 36.5001 36.3609 36.5001H42.7958V39.0667H37.0942C36.3609 39.0667 35.9942 39.4334 35.9942 40.1667V40.5334C35.9942 41.2667 36.3609 41.6334 37.0942 41.6334H40.3942C41.5919 41.6334 42.4719 41.9145 43.0342 42.4767C43.5964 43.0389 43.8775 43.9189 43.8775 45.1167V46.0334C43.8775 47.2311 43.5964 48.1111 43.0342 48.6733C42.4719 49.2356 41.5919 49.5167 40.3942 49.5167C39.7708 49.5167 39.1108 49.5045 38.4142 49.48L36.7275 49.4067C35.4809 49.3456 34.1914 49.26 32.8592 49.15V46.675ZM47.451 49.3333V39.3417L45.3427 40.0751L44.426 37.9667L47.8177 36.5001H50.751V49.3333H47.451Z" fill="white"/>
</g>
<g id="Group 183">
<path id="MPL" d="M37.8415 30.867L36.298 33.6232H34.7545L33.211 30.867V35.1667H31.2265V27.4493H33.3213L35.5262 31.5285L37.7312 27.4493H39.826V35.1667H37.8415V30.867ZM41.1533 27.4493H45.7837C46.5555 27.4493 47.1141 27.6257 47.4595 27.9785C47.8123 28.3239 47.9887 28.8825 47.9887 29.6542V30.7567C47.9887 31.5285 47.8123 32.0908 47.4595 32.4436C47.1141 32.789 46.5555 32.9617 45.7837 32.9617H43.1378V35.1667H41.1533V27.4493ZM46.0042 29.6542C46.0042 29.2133 45.7837 28.9928 45.3427 28.9928H43.1378V31.4182H45.3427C45.7837 31.4182 46.0042 31.1977 46.0042 30.7567V29.6542ZM50.965 33.6232H54.9891V35.1667H48.9805V27.4493H50.965V33.6232Z" fill="white"/>
</g>
</g>
</g>
</g>
<defs>
<filter id="filter0_f_2086_7117" x="27.8193" y="31.6251" width="27.8066" height="22.7665" filterUnits="userSpaceOnUse" color-interpolation-filters="sRGB">
<feFlood flood-opacity="0" result="BackgroundImageFix"/>
<feBlend mode="normal" in="SourceGraphic" in2="BackgroundImageFix" result="shape"/>
<feGaussianBlur stdDeviation="2.43747" result="effect1_foregroundBlur_2086_7117"/>
</filter>
<linearGradient id="paint0_linear_2086_7117" x1="18" y1="0" x2="18" y2="38" gradientUnits="userSpaceOnUse">
<stop stop-color="#AB750F"/>
<stop offset="0.516" stop-color="#D8A956"/>
<stop offset="1" stop-color="#AB750F"/>
</linearGradient>
<linearGradient id="paint1_linear_2086_7117" x1="66" y1="0" x2="66" y2="38" gradientUnits="userSpaceOnUse">
<stop stop-color="#AB750F"/>
<stop offset="0.516" stop-color="#D8A956"/>
<stop offset="1" stop-color="#AB750F"/>
</linearGradient>
<linearGradient id="paint2_linear_2086_7117" x1="41.9999" y1="50" x2="41.9999" y2="70" gradientUnits="userSpaceOnUse">
<stop stop-color="#AB750F"/>
<stop offset="0.516" stop-color="#D8A956"/>
<stop offset="1" stop-color="#AB750F"/>
</linearGradient>
<linearGradient id="paint3_linear_2086_7117" x1="42" y1="65.8333" x2="42" y2="68.3333" gradientUnits="userSpaceOnUse">
<stop stop-color="#AB750F"/>
<stop offset="0.516" stop-color="#D8A956"/>
<stop offset="1" stop-color="#AB750F"/>
</linearGradient>
<linearGradient id="paint4_linear_2086_7117" x1="42.0001" y1="15.5" x2="42.0001" y2="60.5001" gradientUnits="userSpaceOnUse">
<stop stop-color="#AB750F"/>
<stop offset="0.516" stop-color="#D8A956"/>
<stop offset="1" stop-color="#AB750F"/>
</linearGradient>
<linearGradient id="paint5_linear_2086_7117" x1="16.167" y1="45.5001" x2="16.167" y2="49.6667" gradientUnits="userSpaceOnUse">
<stop stop-color="#AB750F"/>
<stop offset="0.516" stop-color="#D8A956"/>
<stop offset="1" stop-color="#AB750F"/>
</linearGradient>
<linearGradient id="paint6_linear_2086_7117" x1="21.5841" y1="31.3334" x2="21.5841" y2="38.8334" gradientUnits="userSpaceOnUse">
<stop stop-color="#AB750F"/>
<stop offset="0.516" stop-color="#D8A956"/>
<stop offset="1" stop-color="#AB750F"/>
</linearGradient>
<linearGradient id="paint7_linear_2086_7117" x1="31.5841" y1="23.0001" x2="31.5841" y2="26.3334" gradientUnits="userSpaceOnUse">
<stop stop-color="#AB750F"/>
<stop offset="0.516" stop-color="#D8A956"/>
<stop offset="1" stop-color="#AB750F"/>
</linearGradient>
<linearGradient id="paint8_linear_2086_7117" x1="42.0001" y1="51.3334" x2="42.0001" y2="58.0001" gradientUnits="userSpaceOnUse">
<stop stop-color="#AB750F"/>
<stop offset="0.516" stop-color="#D8A956"/>
<stop offset="1" stop-color="#AB750F"/>
</linearGradient>
<linearGradient id="paint9_linear_2086_7117" x1="42.0005" y1="20.5" x2="42.0005" y2="23" gradientUnits="userSpaceOnUse">
<stop stop-color="#AB750F"/>
<stop offset="0.516" stop-color="#D8A956"/>
<stop offset="1" stop-color="#AB750F"/>
</linearGradient>
<linearGradient id="paint10_linear_2086_7117" x1="67.8341" y1="45.5" x2="67.8341" y2="49.6667" gradientUnits="userSpaceOnUse">
<stop stop-color="#AB750F"/>
<stop offset="0.516" stop-color="#D8A956"/>
<stop offset="1" stop-color="#AB750F"/>
</linearGradient>
<linearGradient id="paint11_linear_2086_7117" x1="62.4167" y1="31.3334" x2="62.4167" y2="38.8334" gradientUnits="userSpaceOnUse">
<stop stop-color="#AB750F"/>
<stop offset="0.516" stop-color="#D8A956"/>
<stop offset="1" stop-color="#AB750F"/>
</linearGradient>
<linearGradient id="paint12_linear_2086_7117" x1="52.417" y1="23.0001" x2="52.417" y2="26.3334" gradientUnits="userSpaceOnUse">
<stop stop-color="#AB750F"/>
<stop offset="0.516" stop-color="#D8A956"/>
<stop offset="1" stop-color="#AB750F"/>
</linearGradient>
<linearGradient id="paint13_linear_2086_7117" x1="24.6865" y1="43" x2="58.4126" y2="43" gradientUnits="userSpaceOnUse">
<stop stop-color="#AB750F"/>
<stop offset="0.516" stop-color="#D8A956"/>
<stop offset="1" stop-color="#AB750F"/>
</linearGradient>
</defs>
</svg>
