<svg xmlns="http://www.w3.org/2000/svg" width="84" height="70" fill="none" xmlns:v="https://vecta.io/nano"><g fill-rule="evenodd"><path d="M27.323 22.42L3.517 1.157V3.12l.001.004L5.669 10.1 26.61 24.68c.138-.814.381-1.576.713-2.259zm-.747 2.474L6.411 12.506l1.738 5.638 18.344 8.586a9.5 9.5 0 0 1 .083-1.836zm-.074 1.989L8.683 19.878l1.541 4.997 16.519 3.608a9.68 9.68 0 0 1-.24-1.599zm.259 1.678l-15.97-1.847.902 2.927 12.799.968-11.986.982 2.39 2.777 9.596-1.795-9.596 3.871 4.138 1.038h13.448v-3.364c-2.632-.084-4.941-2.396-5.721-5.556z" fill="#232222"/><path d="M3 0l24.96 22.294-.172.353a7.85 7.85 0 0 0-.668 2.119l-.017.101-.015.102c-.08.556-.109 1.137-.078 1.735l.004.072.005.072a9.16 9.16 0 0 0 .227 1.513l.009.038.009.037a8.47 8.47 0 0 0 .722 1.916l3.115.236-2.847.233.31.461.954-.178-.835.337c1.016 1.312 2.386 2.113 3.816 2.158l.501.016V38H18.971l-5.747-1.441 6.242-2.518-4.767.892-3.25-3.776 6.434-.527-6.58-.497-1.241-4.024 7.177.83-7.421-1.621-1.947-6.316 5.527 2.173-5.676-2.657-2.211-7.172 8.835 5.427-9.119-6.349-2.206-7.155L3 3.194V0zm23.267 23.809a8.79 8.79 0 0 1 .427-1.256L4.034 2.314v.729L6.11 9.775l20.157 14.034zm-.246 1.353L7.31 13.667l1.265 4.104 17.394 8.141.052-.75zm-.008 2.086L9.495 20.754l1.134 3.678 15.455 3.376-.07-.559zm.34 1.788L11.52 27.321l.564 1.829 14.713 1.112c-.173-.392-.322-.802-.443-1.226zm.762 1.878l-13.552 1.11 1.53 1.778 12.361-2.313-.34-.576zm.577.926l-11.124 4.487 2.529.634h12.867v-2.366c-1.693-.218-3.196-1.252-4.273-2.756z" fill="url(#B)"/><path d="M56.677 22.42L80.483 1.157V3.12l-.001.004-2.151 6.976L57.39 24.68c-.138-.814-.381-1.576-.713-2.259zm.747 2.474l20.166-12.388-1.738 5.638-18.345 8.586a9.5 9.5 0 0 0-.083-1.836zm.074 1.989l17.819-7.006-1.54 4.997-16.519 3.608a9.68 9.68 0 0 0 .24-1.599zm-.259 1.678l15.97-1.847-.902 2.927-12.799.968 11.986.982-2.39 2.777-9.596-1.795 9.596 3.871-4.138 1.038H51.517v-3.364c2.632-.084 4.941-2.396 5.721-5.556z" fill="#232222"/><path d="M81 0L56.04 22.294l.172.353a7.85 7.85 0 0 1 .668 2.119l.017.101.015.102c.08.556.109 1.137.078 1.735l-.004.072-.005.072a9.16 9.16 0 0 1-.227 1.513l-.009.038-.009.037a8.47 8.47 0 0 1-.722 1.916l-3.115.236 2.847.233-.31.461-.953-.178.834.337c-1.016 1.312-2.386 2.113-3.815 2.158l-.501.016V38h14.029l5.747-1.441-6.242-2.518 4.767.892 3.25-3.776-6.434-.527 6.58-.497 1.241-4.024-7.177.83 7.421-1.621 1.947-6.316-5.527 2.173 5.676-2.657 2.211-7.172-8.835 5.427 9.119-6.349 2.206-7.155.022-.075V0zM57.733 23.809a8.79 8.79 0 0 0-.427-1.256l22.66-20.239v.729L77.89 9.775 57.733 23.809zm.246 1.353L76.69 13.667l-1.265 4.104-17.394 8.141-.053-.75zm.008 2.086l16.518-6.494-1.134 3.678-15.455 3.376.071-.559zm-.34 1.788l14.833-1.715-.564 1.829-14.713 1.112c.173-.392.322-.802.443-1.226zm-.762 1.878l13.552 1.11-1.53 1.778-12.361-2.313.34-.576zm-.577.926l11.124 4.487-2.529.634H52.035v-2.366c1.693-.218 3.196-1.252 4.273-2.756z" fill="url(#C)"/><path d="M24.589 52.758l-4.097 3.343 5.121-.836-1.024 3.761 7.169-5.85 2.048 1.672-5.121 3.343 3.072 2.507 5.121-4.179h1.024l-4.097 5.85 3.072 2.507 3.072-8.357-1.024 10.029L42 69.055l3.072-2.507-1.024-10.029 3.073 8.357 3.072-2.507-4.097-5.85h1.024l5.121 4.179 3.072-2.507-5.121-3.343 2.048-1.672 7.169 5.85-1.024-3.761 5.121.836-4.097-3.343v-2.089H42h-17.41v2.089z" fill="#232222"/><path d="M18 57.189l5.77-4.708V50h36.46v2.481L66 57.189l-6.541-1.068 1.362 5-8.579-7.001-.822.671 5.121 3.343-4.299 3.508-3.764-3.071 2.737 3.909-4.485 3.66-1.215-3.303.405 3.964L42 70l-3.92-3.199.405-3.964-1.215 3.303-4.485-3.66 2.737-3.909-3.764 3.071-4.299-3.508 5.121-3.343-.822-.671-8.579 7.001 1.362-5L18 57.189zm7.613-1.924l-1.024 3.761 7.169-5.85 2.048 1.672-5.121 3.343 3.072 2.507 5.121-4.179h1.024l-4.097 5.85 3.072 2.507 3.072-8.357-1.024 10.029L42 69.055l3.073-2.507-1.024-10.029 3.072 8.357 3.072-2.507-4.097-5.85h1.024l5.121 4.179 3.072-2.507-5.121-3.343 2.048-1.672 7.169 5.85-1.024-3.761 5.121.836-4.097-3.343v-2.089H24.589v2.089l-4.097 3.343 5.121-.836z" fill="url(#D)"/></g><path d="M40 66.667l2 1.667 2-1.667-2-.833-2 .833z" fill="url(#E)"/><g fill-rule="evenodd"><path d="M42 16.333l-5 2.5s-1.572-.389-2.5-.833c-1.059-.506-2.5-1.667-2.5-1.667l-.833 2.5-5-3.333s.182 2.286.833 3.75S29.5 23 29.5 23l-1.667 1.667.833.833-9.167 4.167.833 5-6.667 4.167 1.667 1.667L7 53l11.667-2.5L17 53.833l11.667-1.667s3.201 3.764 5.833 5.417C37.162 59.255 42 60.5 42 60.5h0s4.838-1.246 7.5-2.917c2.633-1.653 5.833-5.417 5.833-5.417L67 53.833 65.334 50.5 77 53l-8.333-12.5 1.667-1.667-6.667-4.167.833-5-9.167-4.167.833-.833L54.5 23s1.849-2.286 2.5-3.75.833-3.75.833-3.75l-5 3.333-.833-2.5s-1.441 1.16-2.5 1.667c-.928.444-2.5.833-2.5.833l-5-2.5z" fill="#232222"/><path d="M37 20.5l5-2.5 5 2.5 4.167-1.667.833 2.5L56.167 18l-1.25 2.5c-.685 1.199-2.083 2.5-2.083 2.5l1.667 1.667-.833.833 9.167 5-.833 5 6.667 3.333L67 40.5l7.5 10.833-10.833-2.5 1.667 3.333-10-1.667s-3.473 3.98-6.25 5.833C46.541 58.03 42 60.5 42 60.5s4.838-1.246 7.5-2.917c2.633-1.653 5.833-5.417 5.833-5.417L67 53.833 65.334 50.5 77 53l-8.333-12.5 1.667-1.667-6.667-4.167.833-5-9.167-4.167.833-.833L54.5 23s1.849-2.286 2.5-3.75.833-3.75.833-3.75l-5 3.333-.833-2.5s-1.441 1.16-2.5 1.667c-.928.444-2.5.833-2.5.833l-5-2.5-5 2.5s-1.572-.389-2.5-.833c-1.059-.506-2.5-1.667-2.5-1.667l-.833 2.5-5-3.333s.182 2.286.833 3.75S29.5 23 29.5 23l-1.667 1.667.833.833-9.167 4.167.833 5-6.667 4.167 1.667 1.667L7 53l11.667-2.5L17 53.833l11.667-1.667s3.201 3.764 5.833 5.417C37.162 59.255 42 60.5 42 60.5l-7.083-4.167c-2.777-1.853-6.25-5.833-6.25-5.833l-10 1.667 1.667-3.333-10.833 2.5L17 40.5l-1.667-1.667L22 35.5l-.833-5 9.167-5-.833-.833L31.167 23s-1.398-1.301-2.083-2.5c-.511-.893-1.25-2.5-1.25-2.5L32 21.333l.833-2.5L37 20.5z" fill="url(#F)"/></g><path d="M12 49.667l3.333-4.167 5 1.667-8.333 2.5z" fill="url(#G)"/><path d="M23.667 36.333l-.833-5 2.5 5.833-7.5 1.667 5.833-2.5z" fill="url(#H)"/><path d="M32.001 25.5l-.833-.833L32.834 23l-.833 1.667.833.833-.833.833h-1.667l1.667-.833z" fill="url(#I)"/><g fill-rule="evenodd"><path d="M42 58l5-2.5c1.627-.976 3.333-2.5 3.333-2.5l-4.167-1.667L42 53l-4.167-1.667L33.667 53s1.706 1.524 3.333 2.5c1.621.972 4.974 2.488 5 2.5h0 0z" fill="url(#J)"/><path d="M42.001 20.5l4.167 2.5L42 22.167 37.834 23 42 20.5h0 0 0 0z" fill="url(#K)"/></g><path d="M72.001 49.667L68.667 45.5l-5 1.667 8.333 2.5z" fill="url(#L)"/><path d="M60.333 36.333l.833-5-2.5 5.833 7.5 1.667-5.833-2.5z" fill="url(#M)"/><path d="M52 25.5l.833-.833L51.167 23 52 24.667l-.833.833.833.833h1.667L52 25.5z" fill="url(#N)"/><path fill-rule="evenodd" d="M42 55.5h2.5L42 57.167h0 0 0 0L39.5 55.5H42h0z" fill="#232222"/><g filter="url(#A)"><use href="#P" fill="url(#O)"/></g><g fill="#fff"><use href="#P"/><path d="M37.842 30.867l-1.544 2.756h-1.544l-1.544-2.756v4.3h-1.984v-7.717h2.095l2.205 4.079 2.205-4.079h2.095v7.717h-1.984v-4.3zm3.312-3.418h4.63c.772 0 1.33.176 1.676.529.353.345.529.904.529 1.676v1.102c0 .772-.176 1.334-.529 1.687-.345.345-.904.518-1.676.518h-2.646v2.205h-1.984v-7.717zm4.851 2.205c0-.441-.22-.662-.661-.662h-2.205v2.425h2.205c.441 0 .661-.22.661-.662v-1.102zm4.961 3.969h4.024v1.544h-6.009v-7.717h1.985v6.174z"/></g><defs><filter id="A" x="26.405" y="31.625" width="31.565" height="22.767" filterUnits="userSpaceOnUse" color-interpolation-filters="sRGB"><feFlood flood-opacity="0"/><feBlend in="SourceGraphic"/><feGaussianBlur stdDeviation="2.437"/></filter><linearGradient id="B" x1="18" y1="0" x2="18" y2="38" href="#Q"><stop stop-color="#ab750f"/><stop offset=".516" stop-color="#d8a956"/><stop offset="1" stop-color="#ab750f"/></linearGradient><linearGradient id="C" x1="66" y1="0" x2="66" y2="38" href="#Q"><stop stop-color="#ab750f"/><stop offset=".516" stop-color="#d8a956"/><stop offset="1" stop-color="#ab750f"/></linearGradient><linearGradient id="D" x1="42" y1="50" x2="42" y2="70" href="#Q"><stop stop-color="#ab750f"/><stop offset=".516" stop-color="#d8a956"/><stop offset="1" stop-color="#ab750f"/></linearGradient><linearGradient id="E" x1="42" y1="65.833" x2="42" y2="68.333" href="#Q"><stop stop-color="#ab750f"/><stop offset=".516" stop-color="#d8a956"/><stop offset="1" stop-color="#ab750f"/></linearGradient><linearGradient id="F" x1="42" y1="15.5" x2="42" y2="60.5" href="#Q"><stop stop-color="#ab750f"/><stop offset=".516" stop-color="#d8a956"/><stop offset="1" stop-color="#ab750f"/></linearGradient><linearGradient id="G" x1="16.167" y1="45.5" x2="16.167" y2="49.667" href="#Q"><stop stop-color="#ab750f"/><stop offset=".516" stop-color="#d8a956"/><stop offset="1" stop-color="#ab750f"/></linearGradient><linearGradient id="H" x1="21.584" y1="31.333" x2="21.584" y2="38.833" href="#Q"><stop stop-color="#ab750f"/><stop offset=".516" stop-color="#d8a956"/><stop offset="1" stop-color="#ab750f"/></linearGradient><linearGradient id="I" x1="31.584" y1="23" x2="31.584" y2="26.333" href="#Q"><stop stop-color="#ab750f"/><stop offset=".516" stop-color="#d8a956"/><stop offset="1" stop-color="#ab750f"/></linearGradient><linearGradient id="J" x1="42" y1="51.333" x2="42" y2="58" href="#Q"><stop stop-color="#ab750f"/><stop offset=".516" stop-color="#d8a956"/><stop offset="1" stop-color="#ab750f"/></linearGradient><linearGradient id="K" x1="42.001" y1="20.5" x2="42.001" y2="23" href="#Q"><stop stop-color="#ab750f"/><stop offset=".516" stop-color="#d8a956"/><stop offset="1" stop-color="#ab750f"/></linearGradient><linearGradient id="L" x1="67.834" y1="45.5" x2="67.834" y2="49.667" href="#Q"><stop stop-color="#ab750f"/><stop offset=".516" stop-color="#d8a956"/><stop offset="1" stop-color="#ab750f"/></linearGradient><linearGradient id="M" x1="62.417" y1="31.333" x2="62.417" y2="38.833" href="#Q"><stop stop-color="#ab750f"/><stop offset=".516" stop-color="#d8a956"/><stop offset="1" stop-color="#ab750f"/></linearGradient><linearGradient id="N" x1="52.417" y1="23" x2="52.417" y2="26.333" href="#Q"><stop stop-color="#ab750f"/><stop offset=".516" stop-color="#d8a956"/><stop offset="1" stop-color="#ab750f"/></linearGradient><linearGradient id="O" x1="24.687" y1="43" x2="58.413" y2="43" href="#Q"><stop stop-color="#ab750f"/><stop offset=".516" stop-color="#d8a956"/><stop offset="1" stop-color="#ab750f"/></linearGradient><path id="P" d="M31.445 46.675l6.802.275c.281 0 .501-.079.66-.238.171-.171.257-.397.257-.678v-1.65h-4.217c-1.283 0-2.218-.287-2.805-.862-.574-.587-.862-1.522-.862-2.805v-.55c0-1.283.287-2.212.862-2.787.587-.587 1.522-.88 2.805-.88h6.435v2.567H35.68c-.733 0-1.1.367-1.1 1.1v.367c0 .733.367 1.1 1.1 1.1h3.3c1.198 0 2.078.281 2.64.843s.843 1.442.843 2.64v.917c0 1.198-.281 2.078-.843 2.64s-1.442.843-2.64.843c-.623 0-1.283-.012-1.98-.037l-1.687-.073-3.868-.257v-2.475zM43.195 36.5h9.9v2.567l-4.217 10.267h-3.667l4.4-10.267h-6.417V36.5z"/><linearGradient id="Q" gradientUnits="userSpaceOnUse"/></defs></svg>