<svg xmlns="http://www.w3.org/2000/svg" width="84" height="70" fill="none" xmlns:v="https://vecta.io/nano"><g fill-rule="evenodd"><path d="M41.542 12.174c-7.609 0-24.652 1.217-35 21.304 1.774.887 23.371 13.179 15.217 15.217-2.306.577-6.087 0-6.087 0l7.609 9.13s4.307 1.062 6.848 2.283C35.445 62.663 41.542 70 41.542 70s6.097-7.337 11.413-9.891c2.541-1.221 6.848-2.283 6.848-2.283l7.609-9.13s-3.781.577-6.087 0c-8.153-2.038 13.443-14.33 15.217-15.217-10.348-20.087-27.391-21.304-35-21.304z" fill="#212121"/><path d="M35.455 56.304l1.522 1.522c2.658 2.971 4.565 9.131 4.565 9.131s1.907-6.16 4.565-9.131c.56-.626 1.522-1.522 1.522-1.522s-1.995-.706-3.044-1.522c-1.691-1.315-3.043-4.565-3.043-4.565s-1.352 3.25-3.044 4.565c-1.049.816-3.044 1.522-3.044 1.522z" fill="url(#B)"/></g><path d="M18.716 31.957c3.043 4.261 2.283 6.848 1.522 7.609l3.043 4.565c.507-2.79.304-9.13-4.565-12.174z" fill="url(#C)"/><g stroke-width=".761"><path d="M27.8461 16.7391C27.8461 16.7391 25.6587 22.2438 23.2809 25.1087C19.2777 29.932 9.58524 33.4783 9.58524 33.4783" stroke="url(#D)"/><path d="M24.8026 16.7391C24.8026 16.7391 22.0378 21.6901 18.7157 24.3478C15.3936 27.0055 9.58524 28.913 9.58524 28.913" stroke="url(#E)"/></g><path fill-rule="evenodd" d="M29.379 13.751c-7.654 2.202-16.501 7.427-22.837 19.727 1.774.887 23.371 13.179 15.217 15.217-2.306.577-6.087 0-6.087 0l7.609 9.13s4.307 1.062 6.848 2.283c4.442 2.134 9.428 7.606 10.948 9.349l-8.666-10.11h3.044l-4.565-3.044h-6.087l-4.565-6.087h6.087c-.254-.761-.304-2.435 1.522-3.043-4.558-6.511-12.458-11.351-16.073-13.565l-1.427-.892c1.217-8.522 11.92-14.457 17.5-15.978.507 1.014 2.13 3.043 4.565 3.043-1.8-1.8-2.762-4.733-3.032-6.031z" fill="url(#F)"/><path d="M64.368 31.957c-3.044 4.261-2.283 6.848-1.522 7.609l-3.044 4.565c-.507-2.79-.304-9.13 4.565-12.174z" fill="url(#G)"/><g stroke-width=".761"><path d="M55.2374 16.7391C55.2374 16.7391 57.4248 22.2438 59.8026 25.1087C63.8058 29.932 73.4983 33.4783 73.4983 33.4783" stroke="url(#H)"/><path d="M58.2809 16.7391C58.2809 16.7391 61.0457 21.6901 64.3678 24.3478C67.6899 27.0055 73.4983 28.913 73.4983 28.913" stroke="url(#I)"/></g><g fill-rule="evenodd"><path d="M53.704 13.751c7.654 2.202 16.501 7.427 22.837 19.727-1.774.887-23.371 13.179-15.217 15.217 2.306.577 6.087 0 6.087 0l-7.609 9.13s-4.307 1.062-6.848 2.283c-4.441 2.134-9.427 7.606-10.948 9.349l8.666-10.11h-3.043l4.565-3.043h6.087l4.565-6.087h-6.087c.254-.761.304-2.435-1.522-3.043 4.558-6.511 12.458-11.35 16.074-13.565l1.426-.892c-1.217-8.522-11.92-14.456-17.5-15.978-.507 1.014-2.13 3.043-4.565 3.043 1.8-1.8 2.762-4.733 3.032-6.031z" fill="url(#J)"/><path d="M41.542 12.174v10.652l1.522-7.609c1.522 0 4.87.609 6.087 3.044 1.679-2.099 2.49-3.836 2.831-4.961-4.151-.984-7.844-1.126-10.44-1.126zm0 0v10.652l-1.522-7.609c-1.522 0-4.87.609-6.087 3.044-1.679-2.099-2.49-3.836-2.831-4.961 4.151-.984 7.844-1.126 10.44-1.126z" fill="url(#K)"/><path d="M24.803 13.696l4.565-7.609 3.043 3.043 1.522-6.087 4.565 3.043L41.542 0l3.044 6.087 4.565-3.043 1.522 6.087 3.044-3.043 4.565 7.609s-5.101-1.688-8.37-2.283-8.37-.761-8.37-.761-5.101.167-8.37.761-8.37 2.283-8.37 2.283z" fill="url(#L)"/><path d="M40.971 4.869c.272-.737.571-1.826.571-1.826l.571 1.826.19.457c.297.594.761.761.761.761s-.464.167-.761.761c-.058.117-.123.276-.19.457l-.571 1.826-.571-1.826-.19-.457c-.297-.594-.761-.761-.761-.761s.464-.167.761-.761c.058-.117.123-.276.19-.457z" fill="#212121"/></g><g filter="url(#A)"><use href="#N" fill="url(#M)"/></g><use href="#N" fill="#fff"/><path d="M35.338 26.134c0 .538-.228 1.003-.683 1.395l-.456.361-2.041 1.471h3.18v1.329h-5.126v-1.804l3.417-2.468v-.475c0-.38-.19-.569-.57-.569h-2.658v-1.329h3.037c.664 0 1.145.152 1.443.456.304.297.456.778.456 1.443v.19zm4.555-.285c0-.38-.19-.57-.569-.57h-1.044c-.38 0-.569.19-.569.57v3.037c0 .38.19.57.569.57h1.044c.38 0 .569-.19.569-.57v-3.037zm1.709 3.037c0 .664-.152 1.149-.456 1.452-.297.297-.778.446-1.443.446h-1.803c-.664 0-1.148-.149-1.452-.446-.297-.304-.446-.788-.446-1.452v-3.037c0-.665.149-1.145.446-1.443.304-.304.788-.456 1.452-.456h1.803c.664 0 1.145.152 1.443.456.304.297.456.778.456 1.443v3.037zm5.694-2.753c0 .538-.228 1.003-.683 1.395l-.456.361-2.041 1.471h3.18v1.329H42.17v-1.804l3.417-2.468v-.475c0-.38-.19-.569-.57-.569h-2.658v-1.329h3.037c.664 0 1.145.152 1.443.456.304.297.456.778.456 1.443v.19zm3.605 3.227h-3.512v-1.329l2.278-3.987h1.898l-2.278 3.987H50.9v-1.424h1.709v1.424h.664v1.329h-.664v1.329H50.9v-1.329z" fill="#f5f1ee"/><defs><filter id="A" x="20.514" y="26.221" width="43.366" height="27.505" filterUnits="userSpaceOnUse" color-interpolation-filters="sRGB"><feFlood flood-opacity="0"/><feBlend in="SourceGraphic"/><feGaussianBlur stdDeviation="2.967"/></filter><linearGradient id="B" x1="41.542" y1="50.217" x2="41.542" y2="66.957" href="#O"><stop stop-color="#ab750f"/><stop offset=".516" stop-color="#d8a956"/><stop offset="1" stop-color="#ab750f"/></linearGradient><linearGradient id="C" x1="18.493" y1="38.044" x2="23.557" y2="38.044" href="#O"><stop stop-color="#ab750f"/><stop offset=".516" stop-color="#d8a956"/><stop offset="1" stop-color="#ab750f"/></linearGradient><linearGradient id="D" x1="8.732" y1="25.109" x2="28.18" y2="25.109" href="#O"><stop stop-color="#ab750f"/><stop offset=".516" stop-color="#d8a956"/><stop offset="1" stop-color="#ab750f"/></linearGradient><linearGradient id="E" x1="8.874" y1="22.826" x2="25.081" y2="22.826" href="#O"><stop stop-color="#ab750f"/><stop offset=".516" stop-color="#d8a956"/><stop offset="1" stop-color="#ab750f"/></linearGradient><linearGradient id="F" x1="4.927" y1="41.605" x2="41.709" y2="41.605" href="#O"><stop stop-color="#ab750f"/><stop offset=".516" stop-color="#d8a956"/><stop offset="1" stop-color="#ab750f"/></linearGradient><linearGradient id="G" x1="64.59" y1="38.044" x2="59.526" y2="38.044" href="#O"><stop stop-color="#ab750f"/><stop offset=".516" stop-color="#d8a956"/><stop offset="1" stop-color="#ab750f"/></linearGradient><linearGradient id="H" x1="74.352" y1="25.109" x2="54.903" y2="25.109" href="#O"><stop stop-color="#ab750f"/><stop offset=".516" stop-color="#d8a956"/><stop offset="1" stop-color="#ab750f"/></linearGradient><linearGradient id="I" x1="74.21" y1="22.826" x2="58.003" y2="22.826" href="#O"><stop stop-color="#ab750f"/><stop offset=".516" stop-color="#d8a956"/><stop offset="1" stop-color="#ab750f"/></linearGradient><linearGradient id="J" x1="78.156" y1="41.605" x2="41.375" y2="41.605" href="#O"><stop stop-color="#ab750f"/><stop offset=".516" stop-color="#d8a956"/><stop offset="1" stop-color="#ab750f"/></linearGradient><linearGradient id="K" x1="52.958" y1="17.5" x2="30.72" y2="17.5" href="#O"><stop stop-color="#ab750f"/><stop offset=".516" stop-color="#d8a956"/><stop offset="1" stop-color="#ab750f"/></linearGradient><linearGradient id="L" x1="23.238" y1="6.848" x2="58.893" y2="6.848" href="#O"><stop stop-color="#ab750f"/><stop offset=".516" stop-color="#d8a956"/><stop offset="1" stop-color="#ab750f"/></linearGradient><linearGradient id="M" x1="23.172" y1="40.074" x2="59.384" y2="40.074" href="#O"><stop stop-color="#ab750f"/><stop offset=".516" stop-color="#d8a956"/><stop offset="1" stop-color="#ab750f"/></linearGradient><path id="N" d="M39.478 39.104l-3.04 5.429h-3.04l-3.04-5.429v8.469h-3.909V32.373h4.126l4.343 8.035 4.343-8.035h4.126v15.201h-3.909v-8.469zm10.215-6.949c1.983 0 4.372.145 7.166.434v2.932l-2.041-.109-1.368-.087-1.042-.087-1.607-.043c-.883 0-1.325.362-1.325 1.086v1.954c1.404-.29 2.635-.434 3.692-.434h1.52c.984 0 1.773.297 2.367.89s.89 1.383.89 2.367v2.823c0 1.317-.333 2.302-.999 2.953-.666.637-1.708.956-3.127.956h-4.126c-1.419 0-2.461-.319-3.127-.956-.666-.651-.999-1.636-.999-2.953v-7.6c0-1.419.333-2.461.999-3.127s1.708-.999 3.127-.999zm2.389 8.686a12.3 12.3 0 0 0-1.52.087l-1.086.13v2.389c0 .869.434 1.303 1.303 1.303h1.954c.869 0 1.303-.434 1.303-1.303v-1.846c0-.217-.072-.398-.217-.543s-.326-.217-.543-.217h-1.194z"/><linearGradient id="O" gradientUnits="userSpaceOnUse"/></defs></svg>