<svg xmlns="http://www.w3.org/2000/svg" width="100" height="100" fill="none" xmlns:v="https://vecta.io/nano"><path d="M87.426 11.796H14.37c-6.944 0-12.574 5.63-12.574 12.574v53.889c0 6.945 5.63 12.574 12.574 12.574h73.056c6.945 0 12.574-5.63 12.574-12.574V24.37c0-6.944-5.63-12.574-12.574-12.574z" fill="#605f5e" fill-opacity=".3"/><path d="M85.63 10H12.574C5.63 10 0 15.63 0 22.574v53.889c0 6.945 5.63 12.574 12.574 12.574H85.63c6.945 0 12.574-5.63 12.574-12.574V22.574C98.204 15.63 92.574 10 85.63 10z" fill="#f5f1ee"/><g clip-path="url(#B)"><g clip-path="url(#C)"><mask id="A" maskUnits="userSpaceOnUse" x="11" y="21" width="77" height="58"><path d="M11 21H87.64V78.48H11V21Z" fill="#fff"/></mask><g mask="url(#A)"><path d="M11 21H87.64V78.48H11V21Z" fill="#c00"/><path d="M11 21h76.64v4.107H11V21z" fill="#c00"/><use href="#D" fill="#fff"/><path d="M11 29.215h76.64v4.107H11v-4.107z" fill="#c00"/><path d="M11 33.322h76.64v4.083H11v-4.083z" fill="#fff"/><path d="M11 37.418h76.64v4.107H11v-4.107z" fill="#c00"/><path d="M11 41.525h76.64v4.107H11v-4.107z" fill="#fff"/><path d="M11 45.633h76.64v4.107H11v-4.107z" fill="#c00"/><path d="M11 49.74h76.64v4.107H11V49.74z" fill="#fff"/><path d="M11 53.847h76.64v4.107H11v-4.107z" fill="#c00"/><path d="M11 57.955h76.64v4.108H11v-4.108z" fill="#fff"/><path d="M11 62.062h76.64v4.083H11v-4.083z" fill="#c00"/><path d="M11 66.158h76.64v4.107H11v-4.107z" fill="#fff"/><path d="M11 70.265h76.64v4.108H11v-4.108z" fill="#c00"/><path d="M11 74.373h76.64v4.107H11v-4.107z" fill="#fff"/><path d="M11 21.06h38.32v32.847H11V21.06z" fill="#006"/><path d="M35.65 31.18c.034-.228.362-.228.396 0l.521 3.532 1.983-2.931c.129-.191.426-.048.356.172l-1.069 3.381 3.061-1.794c.199-.117.405.141.247.309l-2.422 2.586 3.548-.277c.23-.018.303.303.088.386l-3.313 1.28 3.313 1.28c.215.083.142.404-.088.386l-3.548-.277 2.422 2.586c.158.169-.048.426-.247.309l-3.061-1.794 1.064 3.399c.069.22-.228.363-.357.172l-1.989-2.948-.519 3.52c-.034.228-.363.228-.396 0l-.51-3.52-1.983 2.931c-.129.191-.426.048-.356-.172l1.069-3.381-3.069 1.798c-.199.117-.405-.14-.247-.309l2.418-2.591-3.544.277c-.23.018-.303-.303-.087-.386l3.32-1.28-3.313-1.28c-.215-.083-.142-.404.088-.386l3.548.277-2.422-2.586c-.158-.168.048-.426.247-.309l3.061 1.794-1.069-3.39c-.069-.22.227-.363.356-.172l1.982 2.939.521-3.532zm-4.615-1.668c.105.06.023.219-.092.183-1.036-.324-2.127-.448-3.215-.362-1.415.112-2.779.576-3.969 1.349s-2.168 1.832-2.844 3.08-1.031 2.645-1.03 4.064.353 2.816 1.03 4.064 1.654 2.306 2.844 3.08 2.554 1.237 3.969 1.349a8.51 8.51 0 0 0 3.22-.364c.115-.036.197.123.092.183a9.58 9.58 0 0 1-9.143.215 9.58 9.58 0 0 1-5.197-8.526 9.58 9.58 0 0 1 5.204-8.519 9.58 9.58 0 0 1 9.131.206z" fill="#fc0"/></g></g><g style="mix-blend-mode:screen"><path fill="#4a4a4a" d="M11 21h76.648v57.482H11z"/></g></g><defs><clipPath id="B"><rect x="10.778" y="20.778" width="76.642" height="57.482" rx="4" fill="#fff"/></clipPath><clipPath id="C"><path fill="#fff" transform="translate(11 21)" d="M0 0h76.64v57.48H0z"/></clipPath><path id="D" d="M11 25.107h76.64v4.107H11v-4.107z"/></defs></svg>