<svg width="84" height="70" viewBox="0 0 84 70" fill="none" xmlns="http://www.w3.org/2000/svg">
<g id="icon-sticker-msc2024">
<g id="icon-sticker-msc2024-inside">
<path id="shape" fill-rule="evenodd" clip-rule="evenodd" d="M70.3757 2.90054L70.122 0L67.2214 0.253764L67.3483 1.70403L62.7165 7.22406L57.5771 6.94301L53.6342 3.63455L54.2686 10.8859L53.611 11.6696L44.0588 2.11737V23.0534L42 25.507L39.9412 23.0534V2.05881L30.3623 11.6377L29.7314 10.8859L30.3658 3.63455L26.4229 6.94301L21.2836 7.22406L16.6517 1.70403L16.7786 0.253764L13.878 0L13.6243 2.90054L15.0746 3.02742L19.7064 8.54745L18.5372 13.5599L14.5943 16.8684L21.8456 17.5028L23.0554 18.9446L7 35L21.6998 49.6998L16.5521 55.8347L12.2013 56.2153L13.8781 67.0289L24.8185 66.8024L24.4379 62.4516L29.0067 57.0067L39.9412 67.9412V43.9755L42 41.5219L44.0588 43.9755V67.9997L55.02 57.0385L59.5622 62.4516L59.1815 66.8024L70.122 67.0289L71.7987 56.2153L67.4479 55.8347L62.3269 49.7317L77 35.0586L60.9179 18.9764L62.1544 17.5028L69.4057 16.8684L65.4628 13.5599L64.2936 8.54745L68.9255 3.02742L70.3757 2.90054Z" fill="#212121"/>
<path id="stroke (Stroke)" fill-rule="evenodd" clip-rule="evenodd" d="M62.1544 17.5028L69.4057 16.8684L65.4628 13.5599L64.2936 8.54745L68.9255 3.02742L70.3757 2.90054L70.122 0L67.2214 0.253764L67.3483 1.70403L62.7165 7.22406L57.5771 6.94301L53.6342 3.63455L54.2686 10.8859L53.63 11.647L44.0588 2.05881V23.0534L42 25.507L39.9412 23.0534V2.05881L30.3623 11.6377L29.7314 10.8859L30.3658 3.63455L26.4229 6.94301L21.2836 7.22406L16.6517 1.70403L16.7786 0.253764L13.878 0L13.6243 2.90054L15.0746 3.02742L19.7064 8.54744L18.5372 13.5599L14.5943 16.8684L21.8456 17.5028L23.0554 18.9446L7 35L21.6879 49.714L16.5521 55.8347L12.2013 56.2153L13.8781 67.0289L24.8185 66.8024L24.4379 62.4516L28.9889 57.0279L39.9412 67.9997V43.9755L42 41.5218L44.0588 43.9755V67.9997L55.02 57.0385L59.5622 62.4516L59.1815 66.8024L70.122 67.0289L71.7987 56.2153L67.4479 55.8347L62.3269 49.7317L77 35.0586L60.9309 18.9609L62.1544 17.5028ZM74.8173 35.0576L58.8394 19.0513L61.3826 16.0203L65.5575 15.6551L64.076 14.412L62.7606 8.7729L56.9788 8.45672L55.4973 7.21361L55.8626 11.3885L53.7287 13.9315L45.6029 5.79133V23.6155L42 27.9093L38.3971 23.6154V5.78664L30.2626 13.9211L28.1374 11.3885L28.5027 7.21361L27.0212 8.45672L21.2394 8.7729L19.924 14.412L18.4425 15.6551L22.6174 16.0203L25.1478 19.0359L9.18274 35.001L23.7795 49.6236L17.3239 57.3172L13.9801 57.6097L15.1969 65.4571L23.1364 65.2928L22.8439 61.949L28.8901 54.7434L38.3971 64.2672V43.4135L42 39.1196L45.6029 43.4134V64.2719L55.1197 54.7551L61.1561 61.949L60.8636 65.2928L68.8031 65.4571L70.0199 57.6097L66.6762 57.3172L60.2345 49.6403L74.8173 35.0576Z" fill="url(#paint0_linear_349_185)"/>
<rect id="Rectangle 256" x="32.7353" y="18.5294" width="18.5294" height="35" fill="#212121"/>
<g id="2024">
<g id="2024_2">
<mask id="path-4-outside-1_349_185" maskUnits="userSpaceOnUse" x="12.2676" y="31.9706" width="60" height="20" fill="black">
<rect fill="white" x="12.2676" y="31.9706" width="60" height="20"/>
<path d="M26.95 39.1C26.95 40.3833 26.4065 41.493 25.3194 42.4291C24.9872 42.716 24.6249 43.0028 24.2323 43.2897L19.3632 46.8H26.95V49.9706H14.7206V45.6676L22.8735 39.7794V38.6471C22.8735 37.7412 22.4206 37.2882 21.5147 37.2882H15.1735V34.1176H22.4206C24.0059 34.1176 25.1533 34.48 25.8629 35.2047C26.5876 35.9143 26.95 37.0618 26.95 38.6471V39.1ZM37.817 38.4206C37.817 37.5147 37.3641 37.0618 36.4582 37.0618H33.967C33.0612 37.0618 32.6082 37.5147 32.6082 38.4206V45.6676C32.6082 46.5735 33.0612 47.0265 33.967 47.0265H36.4582C37.3641 47.0265 37.817 46.5735 37.817 45.6676V38.4206ZM41.8935 45.6676C41.8935 47.2529 41.5312 48.4079 40.8065 49.1326C40.0968 49.8423 38.9494 50.1971 37.3641 50.1971H33.0612C31.4759 50.1971 30.3209 49.8423 29.5962 49.1326C28.8866 48.4079 28.5317 47.2529 28.5317 45.6676V38.4206C28.5317 36.8353 28.8866 35.6878 29.5962 34.9782C30.3209 34.2535 31.4759 33.8912 33.0612 33.8912H37.3641C38.9494 33.8912 40.0968 34.2535 40.8065 34.9782C41.5312 35.6878 41.8935 36.8353 41.8935 38.4206V45.6676ZM55.48 39.1C55.48 40.3833 54.9365 41.493 53.8494 42.4291C53.5172 42.716 53.1549 43.0028 52.7623 43.2897L47.8932 46.8H55.48V49.9706H43.2506V45.6676L51.4035 39.7794V38.6471C51.4035 37.7412 50.9506 37.2882 50.0447 37.2882H43.7035V34.1176H50.9506C52.5359 34.1176 53.6833 34.48 54.3929 35.2047C55.1176 35.9143 55.48 37.0618 55.48 38.6471V39.1ZM64.0814 46.8H55.702V43.6294L61.1373 34.1176H65.6667L60.2314 43.6294H64.0814V40.2324H68.1579V43.6294H69.7432V46.8H68.1579V49.9706H64.0814V46.8Z"/>
</mask>
<path d="M26.95 39.1C26.95 40.3833 26.4065 41.493 25.3194 42.4291C24.9872 42.716 24.6249 43.0028 24.2323 43.2897L19.3632 46.8H26.95V49.9706H14.7206V45.6676L22.8735 39.7794V38.6471C22.8735 37.7412 22.4206 37.2882 21.5147 37.2882H15.1735V34.1176H22.4206C24.0059 34.1176 25.1533 34.48 25.8629 35.2047C26.5876 35.9143 26.95 37.0618 26.95 38.6471V39.1ZM37.817 38.4206C37.817 37.5147 37.3641 37.0618 36.4582 37.0618H33.967C33.0612 37.0618 32.6082 37.5147 32.6082 38.4206V45.6676C32.6082 46.5735 33.0612 47.0265 33.967 47.0265H36.4582C37.3641 47.0265 37.817 46.5735 37.817 45.6676V38.4206ZM41.8935 45.6676C41.8935 47.2529 41.5312 48.4079 40.8065 49.1326C40.0968 49.8423 38.9494 50.1971 37.3641 50.1971H33.0612C31.4759 50.1971 30.3209 49.8423 29.5962 49.1326C28.8866 48.4079 28.5317 47.2529 28.5317 45.6676V38.4206C28.5317 36.8353 28.8866 35.6878 29.5962 34.9782C30.3209 34.2535 31.4759 33.8912 33.0612 33.8912H37.3641C38.9494 33.8912 40.0968 34.2535 40.8065 34.9782C41.5312 35.6878 41.8935 36.8353 41.8935 38.4206V45.6676ZM55.48 39.1C55.48 40.3833 54.9365 41.493 53.8494 42.4291C53.5172 42.716 53.1549 43.0028 52.7623 43.2897L47.8932 46.8H55.48V49.9706H43.2506V45.6676L51.4035 39.7794V38.6471C51.4035 37.7412 50.9506 37.2882 50.0447 37.2882H43.7035V34.1176H50.9506C52.5359 34.1176 53.6833 34.48 54.3929 35.2047C55.1176 35.9143 55.48 37.0618 55.48 38.6471V39.1ZM64.0814 46.8H55.702V43.6294L61.1373 34.1176H65.6667L60.2314 43.6294H64.0814V40.2324H68.1579V43.6294H69.7432V46.8H68.1579V49.9706H64.0814V46.8Z" fill="#212121"/>
<path d="M25.3194 42.4291L24.3118 41.259L24.3101 41.2605L25.3194 42.4291ZM24.2323 43.2897L25.1354 44.5423L25.1434 44.5364L24.2323 43.2897ZM19.3632 46.8L18.4602 45.5474L14.581 48.3441H19.3632V46.8ZM26.95 46.8H28.4941V45.2559H26.95V46.8ZM26.95 49.9706V51.5147H28.4941V49.9706H26.95ZM14.7206 49.9706H13.1765V51.5147H14.7206V49.9706ZM14.7206 45.6676L13.8165 44.4159L13.1765 44.8781V45.6676H14.7206ZM22.8735 39.7794L23.7776 41.0312L24.4176 40.5689V39.7794H22.8735ZM15.1735 37.2882H13.6294V38.8324H15.1735V37.2882ZM15.1735 34.1176V32.5735H13.6294V34.1176H15.1735ZM25.8629 35.2047L24.7596 36.285L24.771 36.2966L24.7826 36.308L25.8629 35.2047ZM25.4059 39.1C25.4059 39.8776 25.1032 40.5775 24.3118 41.259L26.327 43.5992C27.7097 42.4085 28.4941 40.889 28.4941 39.1H25.4059ZM24.3101 41.2605C24.0128 41.5173 23.6836 41.7782 23.3213 42.043L25.1434 44.5364C25.5662 44.2275 25.9617 43.9147 26.3287 43.5977L24.3101 41.2605ZM23.3293 42.0372L18.4602 45.5474L20.2662 48.0526L25.1353 44.5423L23.3293 42.0372ZM19.3632 48.3441H26.95V45.2559H19.3632V48.3441ZM25.4059 46.8V49.9706H28.4941V46.8H25.4059ZM26.95 48.4265H14.7206V51.5147H26.95V48.4265ZM16.2647 49.9706V45.6676H13.1765V49.9706H16.2647ZM15.6246 46.9194L23.7776 41.0312L21.9695 38.5276L13.8165 44.4159L15.6246 46.9194ZM24.4176 39.7794V38.6471H21.3294V39.7794H24.4176ZM24.4176 38.6471C24.4176 37.9561 24.2439 37.1543 23.6257 36.5361C23.0075 35.9179 22.2057 35.7441 21.5147 35.7441V38.8324C21.6171 38.8324 21.6438 38.8457 21.6209 38.838C21.5905 38.8279 21.5174 38.7952 21.442 38.7198C21.3666 38.6444 21.3339 38.5713 21.3237 38.5409C21.3161 38.5179 21.3294 38.5447 21.3294 38.6471H24.4176ZM21.5147 35.7441H15.1735V38.8324H21.5147V35.7441ZM16.7176 37.2882V34.1176H13.6294V37.2882H16.7176ZM15.1735 35.6618H22.4206V32.5735H15.1735V35.6618ZM22.4206 35.6618C23.8186 35.6618 24.4684 35.9876 24.7596 36.285L26.9662 34.1244C25.8382 32.9724 24.1932 32.5735 22.4206 32.5735V35.6618ZM24.7826 36.308C25.08 36.5992 25.4059 37.2491 25.4059 38.6471H28.4941C28.4941 36.8745 28.0952 35.2294 26.9432 34.1014L24.7826 36.308ZM25.4059 38.6471V39.1H28.4941V38.6471H25.4059ZM40.8065 49.1326L39.7146 48.0408L39.7146 48.0408L40.8065 49.1326ZM29.5962 49.1326L28.4929 50.213L28.5042 50.2246L28.5159 50.2359L29.5962 49.1326ZM29.5962 34.9782L28.5043 33.8864L28.5043 33.8864L29.5962 34.9782ZM40.8065 34.9782L39.7032 36.0585L39.7145 36.0701L39.7262 36.0815L40.8065 34.9782ZM39.3612 38.4206C39.3612 37.7296 39.1874 36.9278 38.5692 36.3096C37.951 35.6914 37.1492 35.5176 36.4582 35.5176V38.6059C36.5606 38.6059 36.5874 38.6192 36.5644 38.6116C36.534 38.6014 36.4609 38.5687 36.3855 38.4933C36.3101 38.4179 36.2774 38.3448 36.2672 38.3144C36.2596 38.2914 36.2729 38.3182 36.2729 38.4206H39.3612ZM36.4582 35.5176H33.967V38.6059H36.4582V35.5176ZM33.967 35.5176C33.2761 35.5176 32.4743 35.6914 31.8561 36.3096C31.2379 36.9278 31.0641 37.7296 31.0641 38.4206H34.1523C34.1523 38.3182 34.1657 38.2914 34.158 38.3144C34.1479 38.3448 34.1152 38.4179 34.0398 38.4933C33.9644 38.5687 33.8913 38.6014 33.8609 38.6116C33.8379 38.6192 33.8646 38.6059 33.967 38.6059V35.5176ZM31.0641 38.4206V45.6676H34.1523V38.4206H31.0641ZM31.0641 45.6676C31.0641 46.3586 31.2379 47.1604 31.8561 47.7786C32.4743 48.3968 33.2761 48.5706 33.967 48.5706V45.4824C33.8646 45.4824 33.8379 45.469 33.8609 45.4767C33.8913 45.4868 33.9644 45.5195 34.0398 45.5949C34.1152 45.6703 34.1479 45.7434 34.158 45.7738C34.1657 45.7968 34.1523 45.77 34.1523 45.6676H31.0641ZM33.967 48.5706H36.4582V45.4824H33.967V48.5706ZM36.4582 48.5706C37.1492 48.5706 37.951 48.3968 38.5692 47.7786C39.1874 47.1604 39.3612 46.3586 39.3612 45.6676H36.2729C36.2729 45.77 36.2596 45.7968 36.2672 45.7738C36.2774 45.7434 36.3101 45.6703 36.3855 45.5949C36.4609 45.5195 36.534 45.4868 36.5644 45.4767C36.5874 45.469 36.5606 45.4824 36.4582 45.4824V48.5706ZM39.3612 45.6676V38.4206H36.2729V45.6676H39.3612ZM40.3494 45.6676C40.3494 47.062 40.0251 47.7303 39.7146 48.0408L41.8983 50.2245C43.0372 49.0856 43.4376 47.4439 43.4376 45.6676H40.3494ZM39.7146 48.0408C39.4242 48.3312 38.7696 48.6529 37.3641 48.6529V51.7412C39.1292 51.7412 40.7695 51.3534 41.8983 50.2245L39.7146 48.0408ZM37.3641 48.6529H33.0612V51.7412H37.3641V48.6529ZM33.0612 48.6529C31.6595 48.6529 30.9863 48.3327 30.6765 48.0294L28.5159 50.2359C29.6554 51.3518 31.2923 51.7412 33.0612 51.7412V48.6529ZM30.6994 48.0523C30.3961 47.7425 30.0759 47.0693 30.0759 45.6676H26.9876C26.9876 47.4366 27.377 49.0734 28.4929 50.213L30.6994 48.0523ZM30.0759 45.6676V38.4206H26.9876V45.6676H30.0759ZM30.0759 38.4206C30.0759 37.0151 30.3977 36.3605 30.688 36.0701L28.5043 33.8864C27.3754 35.0152 26.9876 36.6555 26.9876 38.4206H30.0759ZM30.688 36.0701C30.9985 35.7596 31.6668 35.4353 33.0612 35.4353V32.3471C31.2849 32.3471 29.6432 32.7475 28.5043 33.8864L30.688 36.0701ZM33.0612 35.4353H37.3641V32.3471H33.0612V35.4353ZM37.3641 35.4353C38.7621 35.4353 39.4119 35.7611 39.7032 36.0585L41.9097 33.8979C40.7817 32.7459 39.1367 32.3471 37.3641 32.3471V35.4353ZM39.7262 36.0815C40.0236 36.3727 40.3494 37.0226 40.3494 38.4206H43.4376C43.4376 36.648 43.0388 35.0029 41.8868 33.8749L39.7262 36.0815ZM40.3494 38.4206V45.6676H43.4376V38.4206H40.3494ZM53.8494 42.4291L52.8418 41.259L52.8401 41.2605L53.8494 42.4291ZM52.7623 43.2897L53.6654 44.5423L53.6734 44.5364L52.7623 43.2897ZM47.8932 46.8L46.9902 45.5474L43.111 48.3441H47.8932V46.8ZM55.48 46.8H57.0241V45.2559H55.48V46.8ZM55.48 49.9706V51.5147H57.0241V49.9706H55.48ZM43.2506 49.9706H41.7065V51.5147H43.2506V49.9706ZM43.2506 45.6676L42.3465 44.4159L41.7065 44.8781V45.6676H43.2506ZM51.4035 39.7794L52.3076 41.0312L52.9476 40.5689V39.7794H51.4035ZM43.7035 37.2882H42.1594V38.8324H43.7035V37.2882ZM43.7035 34.1176V32.5735H42.1594V34.1176H43.7035ZM54.3929 35.2047L53.2896 36.285L53.301 36.2966L53.3126 36.308L54.3929 35.2047ZM53.9359 39.1C53.9359 39.8776 53.6332 40.5775 52.8418 41.259L54.857 43.5992C56.2397 42.4085 57.0241 40.889 57.0241 39.1H53.9359ZM52.8401 41.2605C52.5428 41.5173 52.2136 41.7782 51.8513 42.043L53.6734 44.5364C54.0962 44.2275 54.4917 43.9147 54.8587 43.5977L52.8401 41.2605ZM51.8593 42.0372L46.9902 45.5474L48.7962 48.0526L53.6653 44.5423L51.8593 42.0372ZM47.8932 48.3441H55.48V45.2559H47.8932V48.3441ZM53.9359 46.8V49.9706H57.0241V46.8H53.9359ZM55.48 48.4265H43.2506V51.5147H55.48V48.4265ZM44.7947 49.9706V45.6676H41.7065V49.9706H44.7947ZM44.1546 46.9194L52.3076 41.0312L50.4994 38.5276L42.3465 44.4159L44.1546 46.9194ZM52.9476 39.7794V38.6471H49.8594V39.7794H52.9476ZM52.9476 38.6471C52.9476 37.9561 52.7738 37.1543 52.1557 36.5361C51.5375 35.9179 50.7356 35.7441 50.0447 35.7441V38.8324C50.1471 38.8324 50.1738 38.8457 50.1509 38.838C50.1205 38.8279 50.0473 38.7952 49.9719 38.7198C49.8965 38.6444 49.8638 38.5713 49.8537 38.5409C49.8461 38.5179 49.8594 38.5447 49.8594 38.6471H52.9476ZM50.0447 35.7441H43.7035V38.8324H50.0447V35.7441ZM45.2476 37.2882V34.1176H42.1594V37.2882H45.2476ZM43.7035 35.6618H50.9506V32.5735H43.7035V35.6618ZM50.9506 35.6618C52.3486 35.6618 52.9984 35.9876 53.2896 36.285L55.4962 34.1244C54.3682 32.9724 52.7232 32.5735 50.9506 32.5735V35.6618ZM53.3126 36.308C53.61 36.5992 53.9359 37.2491 53.9359 38.6471H57.0241C57.0241 36.8745 56.6252 35.2294 55.4732 34.1014L53.3126 36.308ZM53.9359 38.6471V39.1H57.0241V38.6471H53.9359ZM64.0814 46.8H65.6256V45.2559H64.0814V46.8ZM55.702 46.8H54.1579V48.3441H55.702V46.8ZM55.702 43.6294L54.3614 42.8633L54.1579 43.2193V43.6294H55.702ZM61.1373 34.1176V32.5735H60.2412L59.7967 33.3515L61.1373 34.1176ZM65.6667 34.1176L67.0074 34.8837L68.3275 32.5735H65.6667V34.1176ZM60.2314 43.6294L58.8908 42.8633L57.5706 45.1735H60.2314V43.6294ZM64.0814 43.6294V45.1735H65.6256V43.6294H64.0814ZM64.0814 40.2324V38.6882H62.5373V40.2324H64.0814ZM68.1579 40.2324H69.702V38.6882H68.1579V40.2324ZM68.1579 43.6294H66.6138V45.1735H68.1579V43.6294ZM69.7432 43.6294H71.2873V42.0853H69.7432V43.6294ZM69.7432 46.8V48.3441H71.2873V46.8H69.7432ZM68.1579 46.8V45.2559H66.6138V46.8H68.1579ZM68.1579 49.9706V51.5147H69.702V49.9706H68.1579ZM64.0814 49.9706H62.5373V51.5147H64.0814V49.9706ZM64.0814 45.2559H55.702V48.3441H64.0814V45.2559ZM57.2461 46.8V43.6294H54.1579V46.8H57.2461ZM57.0427 44.3955L62.478 34.8837L59.7967 33.3515L54.3614 42.8633L57.0427 44.3955ZM61.1373 35.6618H65.6667V32.5735H61.1373V35.6618ZM64.3261 33.3515L58.8908 42.8633L61.5721 44.3955L67.0074 34.8837L64.3261 33.3515ZM60.2314 45.1735H64.0814V42.0853H60.2314V45.1735ZM65.6256 43.6294V40.2324H62.5373V43.6294H65.6256ZM64.0814 41.7765H68.1579V38.6882H64.0814V41.7765ZM66.6138 40.2324V43.6294H69.702V40.2324H66.6138ZM68.1579 45.1735H69.7432V42.0853H68.1579V45.1735ZM68.1991 43.6294V46.8H71.2873V43.6294H68.1991ZM69.7432 45.2559H68.1579V48.3441H69.7432V45.2559ZM66.6138 46.8V49.9706H69.702V46.8H66.6138ZM68.1579 48.4265H64.0814V51.5147H68.1579V48.4265ZM65.6256 49.9706V46.8H62.5373V49.9706H65.6256Z" fill="#212121" mask="url(#path-4-outside-1_349_185)"/>
</g>
<g id="2024_3" filter="url(#filter0_f_349_185)">
<path d="M26.95 39.1C26.95 40.3833 26.4065 41.493 25.3194 42.4291C24.9872 42.716 24.6249 43.0028 24.2323 43.2897L19.3632 46.8H26.95V49.9706H14.7206V45.6676L22.8735 39.7794V38.6471C22.8735 37.7412 22.4206 37.2882 21.5147 37.2882H15.1735V34.1176H22.4206C24.0059 34.1176 25.1533 34.48 25.8629 35.2047C26.5876 35.9143 26.95 37.0618 26.95 38.6471V39.1ZM37.817 38.4206C37.817 37.5147 37.3641 37.0618 36.4582 37.0618H33.967C33.0612 37.0618 32.6082 37.5147 32.6082 38.4206V45.6676C32.6082 46.5735 33.0612 47.0265 33.967 47.0265H36.4582C37.3641 47.0265 37.817 46.5735 37.817 45.6676V38.4206ZM41.8935 45.6676C41.8935 47.2529 41.5312 48.4079 40.8065 49.1326C40.0968 49.8423 38.9494 50.1971 37.3641 50.1971H33.0612C31.4759 50.1971 30.3209 49.8423 29.5962 49.1326C28.8866 48.4079 28.5317 47.2529 28.5317 45.6676V38.4206C28.5317 36.8353 28.8866 35.6878 29.5962 34.9782C30.3209 34.2535 31.4759 33.8912 33.0612 33.8912H37.3641C38.9494 33.8912 40.0968 34.2535 40.8065 34.9782C41.5312 35.6878 41.8935 36.8353 41.8935 38.4206V45.6676ZM55.48 39.1C55.48 40.3833 54.9365 41.493 53.8494 42.4291C53.5172 42.716 53.1549 43.0028 52.7623 43.2897L47.8932 46.8H55.48V49.9706H43.2506V45.6676L51.4035 39.7794V38.6471C51.4035 37.7412 50.9506 37.2882 50.0447 37.2882H43.7035V34.1176H50.9506C52.5359 34.1176 53.6833 34.48 54.3929 35.2047C55.1176 35.9143 55.48 37.0618 55.48 38.6471V39.1ZM64.0814 46.8H55.702V43.6294L61.1373 34.1176H65.6667L60.2314 43.6294H64.0814V40.2324H68.1579V43.6294H69.7432V46.8H68.1579V49.9706H64.0814V46.8Z" fill="url(#paint1_linear_349_185)"/>
</g>
<path id="2024_4" d="M26.95 39.1C26.95 40.3833 26.4065 41.493 25.3194 42.4291C24.9872 42.716 24.6249 43.0028 24.2323 43.2897L19.3632 46.8H26.95V49.9706H14.7206V45.6676L22.8735 39.7794V38.6471C22.8735 37.7412 22.4206 37.2882 21.5147 37.2882H15.1735V34.1176H22.4206C24.0059 34.1176 25.1533 34.48 25.8629 35.2047C26.5876 35.9143 26.95 37.0618 26.95 38.6471V39.1ZM37.817 38.4206C37.817 37.5147 37.3641 37.0618 36.4582 37.0618H33.967C33.0612 37.0618 32.6082 37.5147 32.6082 38.4206V45.6676C32.6082 46.5735 33.0612 47.0265 33.967 47.0265H36.4582C37.3641 47.0265 37.817 46.5735 37.817 45.6676V38.4206ZM41.8935 45.6676C41.8935 47.2529 41.5312 48.4079 40.8065 49.1326C40.0968 49.8423 38.9494 50.1971 37.3641 50.1971H33.0612C31.4759 50.1971 30.3209 49.8423 29.5962 49.1326C28.8866 48.4079 28.5317 47.2529 28.5317 45.6676V38.4206C28.5317 36.8353 28.8866 35.6878 29.5962 34.9782C30.3209 34.2535 31.4759 33.8912 33.0612 33.8912H37.3641C38.9494 33.8912 40.0968 34.2535 40.8065 34.9782C41.5312 35.6878 41.8935 36.8353 41.8935 38.4206V45.6676ZM55.48 39.1C55.48 40.3833 54.9365 41.493 53.8494 42.4291C53.5172 42.716 53.1549 43.0028 52.7623 43.2897L47.8932 46.8H55.48V49.9706H43.2506V45.6676L51.4035 39.7794V38.6471C51.4035 37.7412 50.9506 37.2882 50.0447 37.2882H43.7035V34.1176H50.9506C52.5359 34.1176 53.6833 34.48 54.3929 35.2047C55.1176 35.9143 55.48 37.0618 55.48 38.6471V39.1ZM64.0814 46.8H55.702V43.6294L61.1373 34.1176H65.6667L60.2314 43.6294H64.0814V40.2324H68.1579V43.6294H69.7432V46.8H68.1579V49.9706H64.0814V46.8Z" fill="white"/>
</g>
<g id="MSC">
<path id="MSC_2" d="M36.5756 26.307L34.6692 29.7112H32.7628L30.8564 26.307V31.6176H28.4053V22.0857H30.9925L33.716 27.124L36.4394 22.0857H39.0266V31.6176H36.5756V26.307ZM40.3801 29.6432C42.8675 29.7793 44.5514 29.8474 45.432 29.8474C45.6408 29.8474 45.8042 29.7884 45.9222 29.6704C46.0493 29.5433 46.1129 29.3754 46.1129 29.1666V27.941H42.9809C42.0277 27.941 41.3333 27.7277 40.8975 27.301C40.4708 26.8653 40.2575 26.1708 40.2575 25.2176V24.8091C40.2575 23.8559 40.4708 23.1659 40.8975 22.7393C41.3333 22.3035 42.0277 22.0857 42.9809 22.0857H47.7605V23.9921H43.5256C42.9809 23.9921 42.7086 24.2644 42.7086 24.8091V25.0814C42.7086 25.6261 42.9809 25.8984 43.5256 25.8984H45.9767C46.8664 25.8984 47.52 26.1072 47.9376 26.5248C48.3552 26.9424 48.564 27.5961 48.564 28.4857V29.1666C48.564 30.0562 48.3552 30.7098 47.9376 31.1274C47.52 31.545 46.8664 31.7538 45.9767 31.7538C45.5137 31.7538 45.0235 31.7447 44.5061 31.7266L43.2533 31.6721C42.3273 31.6267 41.3696 31.5632 40.3801 31.4815V29.6432ZM57.1417 31.4815C55.1173 31.663 53.4378 31.7538 52.1033 31.7538C51.2137 31.7538 50.5601 31.545 50.1425 31.1274C49.7249 30.7098 49.5161 30.0562 49.5161 29.1666V24.8091C49.5161 23.8559 49.7294 23.1659 50.1561 22.7393C50.5918 22.3035 51.2863 22.0857 52.2395 22.0857H57.1417V23.9921H52.7842C52.2395 23.9921 51.9672 24.2644 51.9672 24.8091V29.1666C51.9672 29.3754 52.0262 29.5433 52.1442 29.6704C52.2713 29.7884 52.4302 29.8474 52.6208 29.8474C52.8114 29.8474 53.0202 29.8474 53.2472 29.8474C53.4741 29.8383 53.7102 29.8293 53.9553 29.8202C54.2004 29.8111 54.4455 29.802 54.6906 29.7929C54.9448 29.7839 55.2671 29.7657 55.6574 29.7385C56.0569 29.7112 56.5516 29.6795 57.1417 29.6432V31.4815Z" fill="white"/>
</g>
<path id="Union" fill-rule="evenodd" clip-rule="evenodd" d="M13.1765 32.9412L11.1177 35L13.1765 37.0588V35V32.9412Z" fill="url(#paint2_linear_349_185)"/>
<path id="Union_2" fill-rule="evenodd" clip-rule="evenodd" d="M70.8235 32.9412L72.8823 35L70.8235 37.0588V35V32.9412Z" fill="url(#paint3_linear_349_185)"/>
<path id="Union_3" fill-rule="evenodd" clip-rule="evenodd" d="M24.5 26.7647L21.4117 25.7353L22.4412 26.7647L21.4117 27.7941L24.5 26.7647Z" fill="url(#paint4_linear_349_185)"/>
<path id="Union_4" fill-rule="evenodd" clip-rule="evenodd" d="M60.5294 26.7647L63.6177 25.7353L62.5883 26.7647L63.6177 27.7941L60.5294 26.7647Z" fill="url(#paint5_linear_349_185)"/>
<path id="Vector 279" d="M37.8824 62.7941L37.3677 56.6176V61.25L33.7647 58.1618L37.8824 62.7941Z" fill="url(#paint6_linear_349_185)"/>
<path id="Vector 281" d="M37.8824 7.20588L37.3677 13.3824V8.75L33.7647 11.8382L37.8824 7.20588Z" fill="url(#paint7_linear_349_185)"/>
<path id="Vector 280" d="M46.1176 62.7941L46.6323 56.6176V61.25L50.2353 58.1618L46.1176 62.7941Z" fill="url(#paint8_linear_349_185)"/>
<path id="Vector 282" d="M46.1176 7.20588L46.6323 13.3824V8.75L50.2353 11.8382L46.1176 7.20588Z" fill="url(#paint9_linear_349_185)"/>
<g id="Group 185">
<path id="Vector 277" d="M21.9221 12.7558L22.1759 9.85526L26.1461 14.5867L21.9221 12.7558Z" fill="url(#paint10_linear_349_185)"/>
<path id="Vector 278" d="M25.0764 10.109L22.1759 9.85526L26.1461 14.5867L25.0764 10.109Z" fill="url(#paint11_linear_349_185)"/>
</g>
<g id="Group 185_2">
<path id="Vector 277_2" d="M62.0779 12.7558L61.8241 9.85526L57.8539 14.5867L62.0779 12.7558Z" fill="url(#paint12_linear_349_185)"/>
<path id="Vector 278_2" d="M58.9236 10.109L61.8241 9.85526L57.8539 14.5867L58.9236 10.109Z" fill="url(#paint13_linear_349_185)"/>
</g>
</g>
</g>
<defs>
<filter id="filter0_f_349_185" x="10.6029" y="29.7735" width="63.2579" height="24.5412" filterUnits="userSpaceOnUse" color-interpolation-filters="sRGB">
<feFlood flood-opacity="0" result="BackgroundImageFix"/>
<feBlend mode="normal" in="SourceGraphic" in2="BackgroundImageFix" result="shape"/>
<feGaussianBlur stdDeviation="2.05882" result="effect1_foregroundBlur_349_185"/>
</filter>
<linearGradient id="paint0_linear_349_185" x1="3.72764" y1="34.0002" x2="78.2805" y2="34.0002" gradientUnits="userSpaceOnUse">
<stop stop-color="#AB750F"/>
<stop offset="0.516" stop-color="#D8A956"/>
<stop offset="1" stop-color="#AB750F"/>
</linearGradient>
<linearGradient id="paint1_linear_349_185" x1="42.2676" y1="33.9706" x2="42.2676" y2="49.9706" gradientUnits="userSpaceOnUse">
<stop stop-color="#AB750F"/>
<stop offset="0.516" stop-color="#D8A956"/>
<stop offset="1" stop-color="#AB750F"/>
</linearGradient>
<linearGradient id="paint2_linear_349_185" x1="12.1471" y1="32.9412" x2="12.1471" y2="37.0588" gradientUnits="userSpaceOnUse">
<stop stop-color="#AB750F"/>
<stop offset="0.516" stop-color="#D8A956"/>
<stop offset="1" stop-color="#AB750F"/>
</linearGradient>
<linearGradient id="paint3_linear_349_185" x1="71.8529" y1="32.9412" x2="71.8529" y2="37.0588" gradientUnits="userSpaceOnUse">
<stop stop-color="#AB750F"/>
<stop offset="0.516" stop-color="#D8A956"/>
<stop offset="1" stop-color="#AB750F"/>
</linearGradient>
<linearGradient id="paint4_linear_349_185" x1="22.9559" y1="25.7353" x2="22.9559" y2="27.7941" gradientUnits="userSpaceOnUse">
<stop stop-color="#AB750F"/>
<stop offset="0.516" stop-color="#D8A956"/>
<stop offset="1" stop-color="#AB750F"/>
</linearGradient>
<linearGradient id="paint5_linear_349_185" x1="62.0736" y1="25.7353" x2="62.0736" y2="27.7941" gradientUnits="userSpaceOnUse">
<stop stop-color="#AB750F"/>
<stop offset="0.516" stop-color="#D8A956"/>
<stop offset="1" stop-color="#AB750F"/>
</linearGradient>
<linearGradient id="paint6_linear_349_185" x1="35.8235" y1="56.6176" x2="35.8235" y2="62.7941" gradientUnits="userSpaceOnUse">
<stop stop-color="#AB750F"/>
<stop offset="0.516" stop-color="#D8A956"/>
<stop offset="1" stop-color="#AB750F"/>
</linearGradient>
<linearGradient id="paint7_linear_349_185" x1="35.8235" y1="13.3824" x2="35.8235" y2="7.20588" gradientUnits="userSpaceOnUse">
<stop stop-color="#AB750F"/>
<stop offset="0.516" stop-color="#D8A956"/>
<stop offset="1" stop-color="#AB750F"/>
</linearGradient>
<linearGradient id="paint8_linear_349_185" x1="48.1765" y1="56.6176" x2="48.1765" y2="62.7941" gradientUnits="userSpaceOnUse">
<stop stop-color="#AB750F"/>
<stop offset="0.516" stop-color="#D8A956"/>
<stop offset="1" stop-color="#AB750F"/>
</linearGradient>
<linearGradient id="paint9_linear_349_185" x1="48.1765" y1="13.3824" x2="48.1765" y2="7.20588" gradientUnits="userSpaceOnUse">
<stop stop-color="#AB750F"/>
<stop offset="0.516" stop-color="#D8A956"/>
<stop offset="1" stop-color="#AB750F"/>
</linearGradient>
<linearGradient id="paint10_linear_349_185" x1="21.3873" y1="10.5169" x2="25.3575" y2="15.2484" gradientUnits="userSpaceOnUse">
<stop stop-color="#AB750F"/>
<stop offset="0.516" stop-color="#D8A956"/>
<stop offset="1" stop-color="#AB750F"/>
</linearGradient>
<linearGradient id="paint11_linear_349_185" x1="22.9645" y1="9.19356" x2="26.9346" y2="13.925" gradientUnits="userSpaceOnUse">
<stop stop-color="#AB750F"/>
<stop offset="0.516" stop-color="#D8A956"/>
<stop offset="1" stop-color="#AB750F"/>
</linearGradient>
<linearGradient id="paint12_linear_349_185" x1="62.6127" y1="10.5169" x2="58.6425" y2="15.2484" gradientUnits="userSpaceOnUse">
<stop stop-color="#AB750F"/>
<stop offset="0.516" stop-color="#D8A956"/>
<stop offset="1" stop-color="#AB750F"/>
</linearGradient>
<linearGradient id="paint13_linear_349_185" x1="61.0355" y1="9.19356" x2="57.0654" y2="13.925" gradientUnits="userSpaceOnUse">
<stop stop-color="#AB750F"/>
<stop offset="0.516" stop-color="#D8A956"/>
<stop offset="1" stop-color="#AB750F"/>
</linearGradient>
</defs>
</svg>
