<svg xmlns="http://www.w3.org/2000/svg" width="84" height="70" fill="none" xmlns:v="https://vecta.io/nano"><g fill-rule="evenodd"><path d="M70.376 2.901L70.122 0l-2.901.254.127 1.45-4.632 5.52-5.139-.281-3.943-3.308.634 7.251-.658.784-9.552-9.552v20.936L42 25.507l-2.059-2.454V2.059l-9.579 9.579-.631-.752.634-7.251-3.943 3.308-5.139.281-4.632-5.52.127-1.45L13.878 0l-.254 2.901 1.45.127 4.632 5.52-1.169 5.012-3.943 3.309 7.251.634 1.21 1.442L7 35l14.7 14.7-5.148 6.135-4.351.381 1.677 10.814 10.94-.226-.381-4.351 4.569-5.445 10.935 10.934V43.976L42 41.522l2.059 2.454V68L55.02 57.039l4.542 5.413-.381 4.351 10.941.226 1.677-10.814-4.351-.381-5.121-6.103L77 35.059 60.918 18.976l1.236-1.474 7.251-.634-3.943-3.309-1.169-5.012 4.632-5.52 1.45-.127z" fill="#212121"/><path d="M62.154 17.503l7.251-.634-3.943-3.309-1.169-5.012 4.632-5.52 1.45-.127L70.122 0l-2.901.254.127 1.45-4.632 5.52-5.139-.281-3.943-3.308.634 7.251-.639.761-9.571-9.588v20.995L42 25.507l-2.059-2.454V2.059l-9.579 9.579-.631-.752.634-7.251-3.943 3.308-5.139.281-4.632-5.52.127-1.45L13.878 0l-.254 2.901 1.45.127 4.632 5.52-1.169 5.012-3.943 3.309 7.251.634 1.21 1.442L7 35l14.688 14.714-5.136 6.121-4.351.381 1.677 10.814 10.94-.226-.381-4.351 4.551-5.424L39.941 68V43.976L42 41.522l2.059 2.454V68L55.02 57.039l4.542 5.413-.381 4.351 10.941.226 1.677-10.814-4.351-.381-5.121-6.103L77 35.059 60.931 18.961l1.224-1.458zm12.663 17.555L58.839 19.051l2.543-3.031 4.175-.365-1.482-1.243-1.315-5.639-5.782-.316-1.481-1.243.365 4.175-2.134 2.543-8.126-8.14v17.824L42 27.909l-3.603-4.294V5.787l-8.135 8.134-2.125-2.533.365-4.175-1.482 1.243-5.782.316-1.315 5.639-1.482 1.243 4.175.365 2.53 3.016L9.183 35.001 23.78 49.624l-6.456 7.694-3.344.292 1.217 7.847 7.939-.164-.292-3.344 6.046-7.206 9.507 9.524V43.414L42 39.12l3.603 4.294v20.859l9.517-9.517 6.036 7.194-.293 3.344 7.94.164 1.217-7.847-3.344-.292-6.442-7.677 14.583-14.583z" fill="url(#C)"/></g><path fill="#212121" d="M32.735 18.529h18.529v35H32.735z"/><mask id="A" maskUnits="userSpaceOnUse" x="12.268" y="31.971" width="60" height="20" fill="#000"><path fill="#fff" d="M12.268 31.971h60v20h-60z"/><path d="M26.95 39.1c0 1.283-.543 2.393-1.631 3.329l-1.087.861-4.869 3.51h7.587v3.171H14.721v-4.303l8.153-5.888v-1.132c0-.906-.453-1.359-1.359-1.359h-6.341v-3.171h7.247c1.585 0 2.733.362 3.442 1.087.725.71 1.087 1.857 1.087 3.442v.453zm10.867-.679c0-.906-.453-1.359-1.359-1.359h-2.491c-.906 0-1.359.453-1.359 1.359v7.247c0 .906.453 1.359 1.359 1.359h2.491c.906 0 1.359-.453 1.359-1.359v-7.247zm4.077 7.247c0 1.585-.362 2.74-1.087 3.465-.71.71-1.857 1.065-3.442 1.065h-4.303c-1.585 0-2.74-.355-3.465-1.065-.71-.725-1.064-1.88-1.064-3.465v-7.247c0-1.585.355-2.733 1.064-3.442.725-.725 1.88-1.087 3.465-1.087h4.303c1.585 0 2.733.362 3.442 1.087.725.71 1.087 1.857 1.087 3.442v7.247zM55.48 39.1c0 1.283-.543 2.393-1.631 3.329l-1.087.861-4.869 3.51h7.587v3.171H43.251v-4.303l8.153-5.888v-1.132c0-.906-.453-1.359-1.359-1.359h-6.341v-3.171h7.247c1.585 0 2.733.362 3.442 1.087.725.71 1.087 1.857 1.087 3.442v.453zm8.601 7.7h-8.379v-3.171l5.435-9.512h4.529l-5.435 9.512h3.85v-3.397h4.076v3.397h1.585V46.8h-1.585v3.171h-4.076V46.8z"/></mask><use href="#Q" fill="#212121"/><path d="M25.319 42.429l-1.008-1.17-.002.002 1.009 1.169zm-1.087.861l.903 1.253.008-.006-.911-1.247zm-4.869 3.51l-.903-1.253-3.879 2.797h4.782V46.8zm7.587 0h1.544v-1.544H26.95V46.8zm0 3.171v1.544h1.544v-1.544H26.95zm-12.229 0h-1.544v1.544h1.544v-1.544zm0-4.303l-.904-1.252-.64.462v.789h1.544zm8.153-5.888l.904 1.252.64-.462v-.789h-1.544zm-7.7-2.491h-1.544v1.544h1.544v-1.544zm0-3.171v-1.544h-1.544v1.544h1.544zm10.689 1.087l-1.103 1.08.011.012.012.011 1.08-1.103zm-.457 3.895c0 .778-.303 1.477-1.094 2.159l2.015 2.34c1.383-1.191 2.167-2.71 2.167-4.499h-3.088zm-1.096 2.16l-.989.782 1.822 2.493 1.185-.939-2.019-2.337zm-.981.777l-4.869 3.51 1.806 2.505 4.869-3.51-1.806-2.505zm-3.966 6.307h7.587v-3.088h-7.587v3.088zm6.043-1.544v3.171h3.088V46.8h-3.088zm1.544 1.627H14.721v3.088H26.95v-3.088zm-10.685 1.544v-4.303h-3.088v4.303h3.088zm-.64-3.051l8.153-5.888-1.808-2.504-8.153 5.888 1.808 2.504zm8.793-7.14v-1.132h-3.088v1.132h3.088zm0-1.132c0-.691-.174-1.493-.792-2.111s-1.42-.792-2.111-.792v3.088c.102 0 .129.013.106.006a.49.49 0 0 1-.297-.297c-.008-.023.006.004.006.106h3.088zm-2.903-2.903h-6.341v3.088h6.341v-3.088zm-4.797 1.544v-3.171h-3.088v3.171h3.088zm-1.544-1.626h7.247v-3.088h-7.247v3.088zm7.247 0c1.398 0 2.048.326 2.339.623l2.207-2.161c-1.128-1.152-2.773-1.551-4.546-1.551v3.088zm2.362.646c.297.291.623.941.623 2.339h3.088c0-1.773-.399-3.418-1.551-4.546l-2.161 2.207zm.623 2.339v.453h3.088v-.453h-3.088zm15.401 10.485l-1.092-1.092h0l1.092 1.092zm-11.21 0l-1.103 1.08.011.012.012.011 1.08-1.103zm0-14.154l-1.092-1.092h0l1.092 1.092zm11.21 0l-1.103 1.08.011.012.012.011 1.08-1.103zm-1.445 3.442c0-.691-.174-1.493-.792-2.111s-1.42-.792-2.111-.792v3.088c.102 0 .129.013.106.006a.49.49 0 0 1-.297-.297c-.008-.023.006.004.006.106h3.088zm-2.903-2.903h-2.491v3.088h2.491v-3.088zm-2.491 0c-.691 0-1.493.174-2.111.792s-.792 1.42-.792 2.111h3.088c0-.102.013-.129.006-.106a.49.49 0 0 1-.297.297c-.023.008.004-.006.106-.006v-3.088zm-2.903 2.903v7.247h3.088v-7.247h-3.088zm0 7.247c0 .691.174 1.493.792 2.111s1.42.792 2.111.792v-3.088c-.102 0-.129-.013-.106-.006a.49.49 0 0 1 .297.297c.008.023-.006-.004-.006-.106h-3.088zm2.903 2.903h2.491v-3.088h-2.491v3.088zm2.491 0c.691 0 1.493-.174 2.111-.792s.792-1.42.792-2.111h-3.088c0 .102-.013.129-.006.106a.49.49 0 0 1 .297-.297c.023-.008-.004.006-.106.006v3.088zm2.903-2.903v-7.247h-3.088v7.247h3.088zm.988 0c0 1.394-.324 2.063-.635 2.373l2.184 2.184c1.139-1.139 1.539-2.781 1.539-4.557h-3.088zm-.635 2.373c-.29.29-.945.612-2.35.612v3.088c1.765 0 3.405-.388 4.534-1.517l-2.184-2.184zm-2.35.612h-4.303v3.088h4.303v-3.088zm-4.303 0c-1.402 0-2.075-.32-2.385-.623l-2.161 2.206c1.14 1.116 2.776 1.505 4.545 1.505v-3.088zm-2.362-.601c-.303-.31-.623-.983-.623-2.385h-3.088c0 1.769.389 3.406 1.505 4.545l2.207-2.161zm-.623-2.385v-7.247h-3.088v7.247h3.088zm0-7.247c0-1.406.322-2.06.612-2.351l-2.184-2.184c-1.129 1.129-1.517 2.769-1.517 4.534h3.088zm.612-2.351c.311-.31.979-.635 2.373-.635v-3.088c-1.776 0-3.418.4-4.557 1.539l2.184 2.184zm2.373-.635h4.303v-3.088h-4.303v3.088zm4.303 0c1.398 0 2.048.326 2.339.623l2.206-2.161c-1.128-1.152-2.773-1.551-4.546-1.551v3.088zm2.362.646c.297.291.623.941.623 2.339h3.088c0-1.773-.399-3.418-1.551-4.546l-2.161 2.207zm.623 2.339v7.247h3.088v-7.247h-3.088zm13.5 4.008l-1.008-1.17-.002.002 1.009 1.169zm-1.087.861l.903 1.253.008-.006-.911-1.247zm-4.869 3.51l-.903-1.253-3.879 2.797h4.782V46.8zm7.587 0h1.544v-1.544H55.48V46.8zm0 3.171v1.544h1.544v-1.544H55.48zm-12.229 0h-1.544v1.544h1.544v-1.544zm0-4.303l-.904-1.252-.64.462v.789h1.544zm8.153-5.888l.904 1.252.64-.462v-.789h-1.544zm-7.7-2.491h-1.544v1.544h1.544v-1.544zm0-3.171v-1.544h-1.544v1.544h1.544zm10.689 1.087l-1.103 1.08.011.012.012.011 1.08-1.103zm-.457 3.895c0 .778-.303 1.477-1.094 2.159l2.015 2.34c1.383-1.191 2.167-2.71 2.167-4.499h-3.088zm-1.096 2.16l-.989.782 1.822 2.493 1.185-.939-2.019-2.337zm-.981.777l-4.869 3.51 1.806 2.505 4.869-3.51-1.806-2.505zm-3.966 6.307h7.587v-3.088h-7.587v3.088zm6.043-1.544v3.171h3.088V46.8h-3.088zm1.544 1.627H43.251v3.088H55.48v-3.088zm-10.685 1.544v-4.303h-3.088v4.303h3.088zm-.64-3.051l8.153-5.888-1.808-2.504-8.153 5.888 1.808 2.504zm8.793-7.14v-1.132h-3.088v1.132h3.088zm0-1.132c0-.691-.174-1.493-.792-2.111s-1.42-.792-2.111-.792v3.088c.102 0 .129.013.106.006a.49.49 0 0 1-.297-.297c-.008-.023.006.004.006.106h3.088zm-2.903-2.903h-6.341v3.088h6.341v-3.088zm-4.797 1.544v-3.171h-3.088v3.171h3.088zm-1.544-1.626h7.247v-3.088h-7.247v3.088zm7.247 0c1.398 0 2.048.326 2.339.623l2.207-2.161c-1.128-1.152-2.773-1.551-4.546-1.551v3.088zm2.362.646c.297.291.623.941.623 2.339h3.088c0-1.773-.399-3.418-1.551-4.546l-2.161 2.207zm.623 2.339v.453h3.088v-.453h-3.088zM64.081 46.8h1.544v-1.544h-1.544V46.8zm-8.379 0h-1.544v1.544h1.544V46.8zm0-3.171l-1.341-.766-.204.356v.41h1.544zm5.435-9.512v-1.544h-.896l-.444.778 1.341.766zm4.529 0l1.341.766 1.32-2.31h-2.661v1.544zm-5.435 9.512l-1.341-.766-1.32 2.31h2.661v-1.544zm3.85 0v1.544h1.544v-1.544h-1.544zm0-3.397v-1.544h-1.544v1.544h1.544zm4.076 0h1.544v-1.544h-1.544v1.544zm0 3.397h-1.544v1.544h1.544v-1.544zm1.585 0h1.544v-1.544h-1.544v1.544zm0 3.171v1.544h1.544V46.8h-1.544zm-1.585 0v-1.544h-1.544V46.8h1.544zm0 3.171v1.544h1.544v-1.544h-1.544zm-4.076 0h-1.544v1.544h1.544v-1.544zm0-4.715h-8.379v3.088h8.379v-3.088zM57.246 46.8v-3.171h-3.088V46.8h3.088zm-.203-2.404l5.435-9.512-2.681-1.532-5.435 9.512 2.681 1.532zm4.095-8.734h4.529v-3.088h-4.529v3.088zm3.189-2.31l-5.435 9.512 2.681 1.532 5.435-9.512-2.681-1.532zm-4.095 11.822h3.85v-3.088h-3.85v3.088zm5.394-1.544v-3.397h-3.088v3.397h3.088zm-1.544-1.853h4.076v-3.088h-4.076v3.088zm2.532-1.544v3.397h3.088v-3.397h-3.088zm1.544 4.941h1.585v-3.088h-1.585v3.088zm.041-1.544V46.8h3.088v-3.171h-3.088zm1.544 1.627h-1.585v3.088h1.585v-3.088zM66.614 46.8v3.171h3.088V46.8h-3.088zm1.544 1.627h-4.076v3.088h4.076v-3.088zm-2.532 1.544V46.8h-3.088v3.171h3.088z" fill="#212121" mask="url(#A)"/><g filter="url(#B)"><use href="#Q" fill="url(#D)"/></g><g fill="#fff"><use href="#Q"/><path d="M36.576 26.307l-1.906 3.404h-1.906l-1.906-3.404v5.311h-2.451v-9.532h2.587l2.723 5.038 2.724-5.038h2.587v9.532h-2.451v-5.311zm3.805 3.336l5.052.204c.209 0 .372-.059.49-.177a.68.68 0 0 0 .191-.504v-1.226h-3.132c-.953 0-1.648-.213-2.083-.64-.427-.436-.64-1.13-.64-2.083v-.409c0-.953.213-1.643.64-2.07.436-.436 1.13-.654 2.083-.654h4.78v1.906h-4.235c-.545 0-.817.272-.817.817v.272c0 .545.272.817.817.817h2.451c.89 0 1.543.209 1.961.626s.626 1.071.626 1.961v.681c0 .89-.209 1.543-.626 1.961s-1.071.626-1.961.626c-.463 0-.953-.009-1.471-.027l-1.253-.055-2.873-.191v-1.838zm16.762 1.838l-5.038.272c-.89 0-1.543-.209-1.961-.626s-.626-1.071-.626-1.961v-4.357c0-.953.213-1.643.64-2.07.436-.436 1.13-.654 2.083-.654h4.902v1.906h-4.358c-.545 0-.817.272-.817.817v4.357c0 .209.059.377.177.504.127.118.286.177.477.177h.626l.708-.027.735-.027.967-.054 1.484-.095v1.838z"/></g><g fill-rule="evenodd"><path d="M13.177 32.941L11.118 35l2.059 2.059V35v-2.059z" fill="url(#E)"/><path d="M70.824 32.941L72.882 35l-2.059 2.059V35v-2.059z" fill="url(#F)"/><path d="M24.5 26.765l-3.088-1.029 1.029 1.029-1.029 1.029 3.088-1.029z" fill="url(#G)"/><path d="M60.529 26.765l3.088-1.029-1.029 1.029 1.029 1.029-3.088-1.029z" fill="url(#H)"/></g><path d="M37.882 62.794l-.515-6.176v4.632l-3.603-3.088 4.118 4.632z" fill="url(#I)"/><path d="M37.882 7.206l-.515 6.177V8.75l-3.603 3.088 4.118-4.632z" fill="url(#J)"/><path d="M46.118 62.794l.515-6.176v4.632l3.603-3.088-4.118 4.632z" fill="url(#K)"/><path d="M46.118 7.206l.515 6.177V8.75l3.603 3.088-4.118-4.632z" fill="url(#L)"/><path d="M21.922 12.756l.254-2.901 3.97 4.731-4.224-1.831z" fill="url(#M)"/><path d="M25.076 10.109l-2.901-.254 3.97 4.731-1.07-4.478z" fill="url(#N)"/><path d="M62.078 12.756l-.254-2.901-3.97 4.731 4.224-1.831z" fill="url(#O)"/><path d="M58.924 10.109l2.901-.254-3.97 4.731 1.07-4.478z" fill="url(#P)"/><defs><filter id="B" x="10.603" y="29.774" width="63.258" height="24.541" filterUnits="userSpaceOnUse" color-interpolation-filters="sRGB"><feFlood flood-opacity="0"/><feBlend in="SourceGraphic"/><feGaussianBlur stdDeviation="2.059"/></filter><linearGradient id="C" x1="3.728" y1="34" x2="78.281" y2="34" href="#R"><stop stop-color="#ab750f"/><stop offset=".516" stop-color="#d8a956"/><stop offset="1" stop-color="#ab750f"/></linearGradient><linearGradient id="D" x1="42.268" y1="33.971" x2="42.268" y2="49.971" href="#R"><stop stop-color="#ab750f"/><stop offset=".516" stop-color="#d8a956"/><stop offset="1" stop-color="#ab750f"/></linearGradient><linearGradient id="E" x1="12.147" y1="32.941" x2="12.147" y2="37.059" href="#R"><stop stop-color="#ab750f"/><stop offset=".516" stop-color="#d8a956"/><stop offset="1" stop-color="#ab750f"/></linearGradient><linearGradient id="F" x1="71.853" y1="32.941" x2="71.853" y2="37.059" href="#R"><stop stop-color="#ab750f"/><stop offset=".516" stop-color="#d8a956"/><stop offset="1" stop-color="#ab750f"/></linearGradient><linearGradient id="G" x1="22.956" y1="25.735" x2="22.956" y2="27.794" href="#R"><stop stop-color="#ab750f"/><stop offset=".516" stop-color="#d8a956"/><stop offset="1" stop-color="#ab750f"/></linearGradient><linearGradient id="H" x1="62.074" y1="25.735" x2="62.074" y2="27.794" href="#R"><stop stop-color="#ab750f"/><stop offset=".516" stop-color="#d8a956"/><stop offset="1" stop-color="#ab750f"/></linearGradient><linearGradient id="I" x1="35.824" y1="56.618" x2="35.824" y2="62.794" href="#R"><stop stop-color="#ab750f"/><stop offset=".516" stop-color="#d8a956"/><stop offset="1" stop-color="#ab750f"/></linearGradient><linearGradient id="J" x1="35.824" y1="13.382" x2="35.824" y2="7.206" href="#R"><stop stop-color="#ab750f"/><stop offset=".516" stop-color="#d8a956"/><stop offset="1" stop-color="#ab750f"/></linearGradient><linearGradient id="K" x1="48.177" y1="56.618" x2="48.177" y2="62.794" href="#R"><stop stop-color="#ab750f"/><stop offset=".516" stop-color="#d8a956"/><stop offset="1" stop-color="#ab750f"/></linearGradient><linearGradient id="L" x1="48.177" y1="13.382" x2="48.177" y2="7.206" href="#R"><stop stop-color="#ab750f"/><stop offset=".516" stop-color="#d8a956"/><stop offset="1" stop-color="#ab750f"/></linearGradient><linearGradient id="M" x1="21.387" y1="10.517" x2="25.358" y2="15.248" href="#R"><stop stop-color="#ab750f"/><stop offset=".516" stop-color="#d8a956"/><stop offset="1" stop-color="#ab750f"/></linearGradient><linearGradient id="N" x1="22.965" y1="9.194" x2="26.935" y2="13.925" href="#R"><stop stop-color="#ab750f"/><stop offset=".516" stop-color="#d8a956"/><stop offset="1" stop-color="#ab750f"/></linearGradient><linearGradient id="O" x1="62.613" y1="10.517" x2="58.643" y2="15.248" href="#R"><stop stop-color="#ab750f"/><stop offset=".516" stop-color="#d8a956"/><stop offset="1" stop-color="#ab750f"/></linearGradient><linearGradient id="P" x1="61.036" y1="9.194" x2="57.065" y2="13.925" href="#R"><stop stop-color="#ab750f"/><stop offset=".516" stop-color="#d8a956"/><stop offset="1" stop-color="#ab750f"/></linearGradient><path id="Q" d="M26.95 39.1c0 1.283-.543 2.393-1.631 3.329l-1.087.861-4.869 3.51h7.587v3.171H14.721v-4.303l8.153-5.888v-1.132c0-.906-.453-1.359-1.359-1.359h-6.341v-3.171h7.247c1.585 0 2.733.362 3.442 1.087.725.71 1.087 1.857 1.087 3.442v.453zm10.867-.679c0-.906-.453-1.359-1.359-1.359h-2.491c-.906 0-1.359.453-1.359 1.359v7.247c0 .906.453 1.359 1.359 1.359h2.491c.906 0 1.359-.453 1.359-1.359v-7.247zm4.077 7.247c0 1.585-.362 2.74-1.087 3.465-.71.71-1.857 1.065-3.442 1.065h-4.303c-1.585 0-2.74-.355-3.465-1.065-.71-.725-1.064-1.88-1.064-3.465v-7.247c0-1.585.355-2.733 1.064-3.442.725-.725 1.88-1.087 3.465-1.087h4.303c1.585 0 2.733.362 3.442 1.087.725.71 1.087 1.857 1.087 3.442v7.247zM55.48 39.1c0 1.283-.543 2.393-1.631 3.329l-1.087.861-4.869 3.51h7.587v3.171H43.251v-4.303l8.153-5.888v-1.132c0-.906-.453-1.359-1.359-1.359h-6.341v-3.171h7.247c1.585 0 2.733.362 3.442 1.087.725.71 1.087 1.857 1.087 3.442v.453zm8.601 7.7h-8.379v-3.171l5.435-9.512h4.529l-5.435 9.512h3.85v-3.397h4.076v3.397h1.585V46.8h-1.585v3.171h-4.076V46.8z"/><linearGradient id="R" gradientUnits="userSpaceOnUse"/></defs></svg>