<svg xmlns="http://www.w3.org/2000/svg" width="100" height="100" fill="none" xmlns:v="https://vecta.io/nano"><g clip-path="url(#A)"><path d="M87.426 11.796H14.37c-6.944 0-12.574 5.63-12.574 12.574v53.889c0 6.945 5.63 12.574 12.574 12.574h73.056c6.945 0 12.574-5.63 12.574-12.574V24.37c0-6.944-5.63-12.574-12.574-12.574z" fill="#605f5e" fill-opacity=".3"/><path d="M85.63 10H12.574C5.63 10 0 15.63 0 22.574v53.889c0 6.945 5.63 12.574 12.574 12.574H85.63c6.945 0 12.574-5.63 12.574-12.574V22.574C98.204 15.63 92.574 10 85.63 10z" fill="#f5f1ee"/><g clip-path="url(#B)"><g clip-path="url(#C)"><path d="M9 20H89V80H9V20Z" fill="#fecb00"/><path d="M9 40H89V80H9V40Z" fill="#34b233"/><path d="M9 60H89V80H9V60Z" fill="#ea2839"/><g fill="#fff"><path d="M49 30.003l6.633 22.11H42.367L49 30.003z"/><path d="M36.004 70l7.63-21.786 10.732 7.798L36.004 70z"/><path d="M27.972 45.28l23.078.524-4.099 12.617L27.972 45.28z"/><path d="M70.028 45.28L51.05 58.421 46.95 45.804l23.078-.524z"/><path d="M61.996 70L43.634 56.011l10.732-7.798L61.996 70z"/></g></g><g style="mix-blend-mode:screen"><path fill="#414141" d="M10.778 20.778h76.648v57.482H10.778z"/></g></g></g><defs><clipPath id="A"><path fill="#fff" d="M0 0h100v100H0z"/></clipPath><clipPath id="B"><rect x="10.778" y="20.778" width="76.642" height="57.482" rx="4" fill="#fff"/></clipPath><clipPath id="C"><path fill="#fff" transform="translate(9 20)" d="M0 0h80v60H0z"/></clipPath></defs></svg>