<svg xmlns="http://www.w3.org/2000/svg" width="84" height="70" fill="none" xmlns:v="https://vecta.io/nano"><style><![CDATA[.B{fill:#212121}.C{fill-rule:evenodd}]]></style><g class="C"><path d="M42 70a8 8 0 1 0 0-16 8 8 0 1 0 0 16zm0-2a6 6 0 1 0 0-12 6 6 0 1 0 0 12z" class="B"/><path d="M50.5 62a8.5 8.5 0 1 1-17 0 8.5 8.5 0 1 1 17 0zM42 67.5a5.5 5.5 0 1 0 0-11 5.5 5.5 0 1 0 0 11zm8-5.5a8 8 0 1 1-16 0 8 8 0 1 1 16 0zm-2 0a6 6 0 1 1-12 0 6 6 0 1 1 12 0z" fill="url(#B)"/></g><circle cx="42" cy="17" r="8" fill="url(#C)"/><path d="M39 6l3-2v7h-2l-1-5z" fill="url(#D)"/><path d="M45 6l-3-2v7h2l1-5z" fill="url(#E)"/><g class="C"><g class="B"><path d="M40.071 5.286L39 6l1 5h2V4l-1.5 1 .5 4-.928-3.714z"/><path d="M43.928 5.286L45 6l-1 5h-2V4l1.5 1h0L43 9l.929-3.714z"/></g><path d="M42 4l-3 2 1 5v-1l-.5-4L42 4.5V4z" fill="url(#D)"/><path d="M42 4l3 2-1 5v-1l.5-4L42 4.5V4z" fill="url(#E)"/></g><path d="M32.414 10.657l.707-3.535 4.95 4.95-1.414 1.414-4.243-2.828z" fill="url(#F)"/><path d="M36.657 6.414l-3.535.707 4.95 4.95 1.414-1.414-2.829-4.243z" fill="url(#G)"/><g class="C"><g class="B"><path d="M32.667 9.394l-.252 1.263 4.243 2.829 1.414-1.414-4.95-4.95-.354 1.768 3.182 2.475-3.283-1.97z"/><path d="M35.394 6.667l1.263-.253 2.829 4.243-1.414 1.414-4.95-4.95 1.768-.354 2.475 3.182-1.97-3.283z"/></g><path d="M33.121 7.121l-.707 3.535 4.243 2.829-.707-.707-3.182-2.475.707-2.828-.354-.354z" fill="url(#F)"/><path d="M33.121 7.121l3.535-.707 2.829 4.243-.707-.707-2.475-3.182-2.828.707-.354-.354z" fill="url(#G)"/></g><path d="M51.778 10.657l-.707-3.535-4.95 4.95 1.414 1.414 4.243-2.828z" fill="url(#H)"/><path d="M47.536 6.414l3.535.707-4.95 4.95-1.414-1.414 2.828-4.243z" fill="url(#I)"/><g class="C"><g class="B"><path d="M51.526 9.394l.252 1.263-4.243 2.829-1.414-1.414 4.95-4.95.354 1.768-3.182 2.475 3.283-1.97z"/><path d="M48.798 6.667l-1.263-.253-2.828 4.243 1.414 1.414 4.95-4.95-1.768-.354-2.475 3.182 1.97-3.283z"/></g><path d="M51.071 7.121l.707 3.535-4.243 2.829.707-.707 3.182-2.475-.707-2.828.354-.354z" fill="url(#H)"/><path d="M51.071 7.121l-3.535-.707-2.828 4.243.707-.707 2.475-3.182 2.828.707.353-.354z" fill="url(#I)"/></g><path d="M4 35c3 0 11-7 12-12l3 3v6l-9 9-6-3 3-1c-.333-.333-2.2-1.2-3-2z" class="B"/><path d="M11.15 30.487C8.549 33.057 5.58 35 4 35c.486.486 1.366.997 2.057 1.398L7 37l-3 1 6 3-4.5-3L8 37l-2-1.5c3.887-1.944 6.83-4.359 10.664-11.836L16 23c-.276 1.378-1.083 2.907-2.17 4.401-.705 1.006-1.591 2.06-2.68 3.087z" fill="url(#J)" class="C"/><path d="M24 22c-.333.333-4 1.6-8 4-2-2-2-7-2-9 4 0 7 2.667 10 5z" class="B"/><path d="M16 26c-2-2-2-7-2-9h1c-1.5 3 1 9 1 9z" fill="url(#K)"/><path d="M27 21l-16-8c.226 2.254 1 3.5 6.5 6.5C19.936 20.829 22 23 23 24l4-3z" class="B"/><path d="M12 14c0 1 .06 1.892 5.5 5 3.5 2 5.333 4.333 5.5 5l-.244-.245c-1.069-1.077-3.003-3.026-5.256-4.254-5.5-3-6.274-4.246-6.5-6.5l14.667 7.333L25 21l-13-7z" fill="url(#L)" class="C"/><path d="M9 57c4-2.4 6.333-6.333 7-8h13v2c0 1.6-4.667 6-7 8l-1-5c-2.333 1-8 3-12 3z" class="B"/><path d="M13.987 52.416C12.801 53.995 11.139 55.717 9 57c4 0 9.667-2 12-3l1 5c1.659-1.422 4.498-4.058 6-6.037V52s-1 2-5.5 6c-.5-3-1-5-1-5S16 55.5 11 56.5c4-3.5 6-7.5 6-7.5s-1.22 1.525-3.013 3.416z" fill="url(#M)" class="C"/><path d="M28 24C15.2 11.2 20.667 2.667 25 0c-3.5 7 4.333 12.667 9 14 0 .333-1.2 2.8-6 10z" class="B"/><path d="M25.097 20.801c.321.128.625.199.903.199l.5-.5C16.834 9.153 21.65 3.811 23.729 1.505c.267-.296.489-.543.63-.745C22.576 4.245 24.135 9.098 29.5 13c.058-.351.042-.757-.034-1.2C25.727 9.246 22.521 4.957 25 0c-3.962 2.438-8.87 9.779.097 20.801z" fill="url(#N)" class="C"/><path d="M80 35c-3 0-11-7-12-12l-3 3v6l9 9 6-3-3-1c.333-.333 2.2-1.2 3-2z" class="B"/><path d="M72.85 30.487C75.451 33.057 78.42 35 80 35c-.486.486-1.366.997-2.057 1.398L77 37l3 1-6 3 4.5-3-2.5-1 2-1.5c-3.887-1.944-6.83-4.359-10.664-11.836L68 23c.275 1.378 1.083 2.907 2.17 4.401.705 1.006 1.591 2.06 2.68 3.087z" fill="url(#O)" class="C"/><path d="M60 22c.333.333 4 1.6 8 4 2-2 2-7 2-9-4 0-7 2.667-10 5z" class="B"/><path d="M68 26c2-2 2-7 2-9h-1c1.5 3-1 9-1 9z" fill="url(#P)"/><path d="M57 21l16-8c-.225 2.254-1 3.5-6.5 6.5C64.064 20.829 62 23 61 24l-4-3z" class="B"/><g class="C"><path d="M72 14c0 1-.06 1.892-5.5 5-3.5 2-5.333 4.333-5.5 5l.244-.245c1.069-1.077 3.003-3.026 5.256-4.254 5.5-3 6.275-4.246 6.5-6.5l-14.667 7.333L59 21l13-7z" fill="url(#Q)"/><path d="M54 54l2 3-8 4-1 2c-1 .333-3.4 1-5 1V54h12zm-24 0l-2 3 8 4 1 2c1 .333 3.4 1 5 1V54H30z" class="B"/><path d="M54 55h.667L56 57h0l-8 4-1 2c-1 .333-3.4 1-5 1l4.5-1.5 1-2L55 57l-1-2zm-24 0h-.667L28 57h0l8 4 1 2c1 .333 3.4 1 5 1l-4.5-1.5-1-2L29 57l1-2z" fill="url(#R)"/></g><path d="M75 57c-4-2.4-6.333-6.333-7-8H55v2c0 1.6 4.667 6 7 8l1-5c2.333 1 8 3 12 3z" class="B"/><path d="M70.013 52.416C71.199 53.995 72.861 55.717 75 57c-4 0-9.667-2-12-3l-1 5c-1.659-1.422-4.498-4.058-6-6.037V52s1 2 5.5 6c.5-3 1-5 1-5S68 55.5 73 56.5C69 53 67 49 67 49s1.22 1.525 3.013 3.416z" fill="url(#S)" class="C"/><path d="M56 24c12.8-12.8 7.333-21.333 3-24 3.5 7-4.333 12.667-9 14 0 .333 1.2 2.8 6 10z" class="B"/><g class="C"><path d="M58.903 20.801c-.321.128-.625.199-.903.199l-.5-.5c9.666-11.347 4.849-16.689 2.77-18.995-.267-.296-.489-.543-.63-.745 1.783 3.484.224 8.338-5.141 12.24-.058-.351-.042-.757.034-1.2C58.273 9.246 61.479 4.957 59 0c3.962 2.438 8.87 9.779-.097 20.801z" fill="url(#T)"/><path d="M42 9l-6 3s-1.886-.467-3-1c-1.27-.607-3-2-3-2l-1 3-6-4s.219 2.743 1 4.5 3 4.5 3 4.5l-2 2 1 1-11 5 1 6-8 5 2 2L0 53l14-3-2 4 14-2s3.841 4.516 7 6.5c3.194 2.005 9 3.5 9 3.5h0s5.806-1.495 9-3.5c3.159-1.984 7-6.5 7-6.5l14 2-2-4 14 3-10-15 2-2-8-5 1-6-11-5 1-1-2-2s2.219-2.743 3-4.5S61 8 61 8l-6 4-1-3s-1.73 1.392-3 2c-1.114.533-3 1-3 1l-6-3z" fill="#232222"/><path d="M36 14l6-3 6 3 5-2 1 3 5-4-1.5 3c-.822 1.438-2.5 3-2.5 3l2 2-1 1 11 6-1 6 8 4-2 2 9 13-13-3 2 4-12-2s-4.167 4.776-7.5 7c-3.051 2.036-8.5 5-8.5 5s5.806-1.495 9-3.5c3.159-1.984 7-6.5 7-6.5l14 2-2-4 14 3-10-15 2-2-8-5 1-6-11-5 1-1-2-2s2.219-2.743 3-4.5S61 8 61 8l-6 4-1-3s-1.73 1.392-3 2c-1.114.533-3 1-3 1l-6-3-6 3s-1.886-.467-3-1c-1.27-.607-3-2-3-2l-1 3-6-4s.219 2.743 1 4.5 3 4.5 3 4.5l-2 2 1 1-11 5 1 6-8 5 2 2L0 53l14-3-2 4 14-2s3.841 4.516 7 6.5c3.194 2.005 9 3.5 9 3.5s-5.449-2.964-8.5-5c-3.332-2.224-7.5-7-7.5-7l-12 2 2-4-13 3 9-13-2-2 8-4-1-6 11-6-1-1 2-2s-1.678-1.561-2.5-3c-.613-1.072-1.5-3-1.5-3l5 4 1-3 5 2z" fill="url(#U)"/></g><path d="M6 49l4-5 6 2-10 3z" fill="url(#V)"/><path d="M20 33l-1-6 3 7-9 2 7-3z" fill="url(#W)"/><path d="M30 20l-1-1 2-2-1 2 1 1-1 1h-2l2-1z" fill="url(#X)"/><g class="C"><path d="M42 59l6-3c1.953-1.172 4-3 4-3l-5-2-5 2-5-2-5 2s2.047 1.828 4 3c1.945 1.167 5.968 2.986 6 3h0 0z" fill="url(#Y)"/><path d="M42 14l5 3-5-1-5 1 5-3h0 0 0 0z" fill="url(#Z)"/></g><path d="M78 49l-4-5-6 2 10 3z" fill="url(#a)"/><path d="M64 33l1-6-3 7 9 2-7-3z" fill="url(#b)"/><path d="M54 20l1-1-2-2 1 2-1 1 1 1h2l-2-1z" fill="url(#c)"/><path d="M42 56h3l-3 2h0 0 0 0l-3-2h3 0z" fill="#232222" class="C"/><g filter="url(#A)"><use href="#e" fill="url(#d)"/></g><g fill="#fff"><use href="#e"/><path d="M37.01 25.84l-1.852 3.308h-1.852l-1.852-3.308V31h-2.381v-9.261h2.514l2.646 4.895 2.646-4.895h2.514V31H37.01v-5.16zm3.974-4.101h5.557c.926 0 1.596.212 2.011.635.423.415.635 1.085.635 2.011v1.323c0 .926-.212 1.601-.635 2.024-.415.415-1.085.622-2.011.622h-3.175V31h-2.381v-9.261zm5.821 2.646c0-.529-.265-.794-.794-.794h-2.646v2.911h2.646c.529 0 .794-.265.794-.794v-1.323zm5.953 4.763h4.829V31h-7.21v-9.261h2.381v7.409z"/></g><defs><filter id="A" x="18.495" y="27.75" width="47.014" height="27.32" filterUnits="userSpaceOnUse" color-interpolation-filters="sRGB"><feFlood flood-opacity="0"/><feBlend in="SourceGraphic"/><feGaussianBlur stdDeviation="2.925"/></filter><linearGradient id="B" x1="32.705" y1="62" x2="50.811" y2="62" href="#f"><stop stop-color="#ab750f"/><stop offset=".516" stop-color="#d8a956"/><stop offset="1" stop-color="#ab750f"/></linearGradient><linearGradient id="C" x1="42" y1="9" x2="42" y2="25" href="#f"><stop stop-color="#ab750f"/><stop offset=".516" stop-color="#d8a956"/><stop offset="1" stop-color="#ab750f"/></linearGradient><linearGradient id="D" x1="40.5" y1="4" x2="40.5" y2="11" href="#f"><stop stop-color="#ab750f"/><stop offset=".516" stop-color="#d8a956"/><stop offset="1" stop-color="#ab750f"/></linearGradient><linearGradient id="E" x1="43.5" y1="4" x2="43.5" y2="11" href="#f"><stop stop-color="#ab750f"/><stop offset=".516" stop-color="#d8a956"/><stop offset="1" stop-color="#ab750f"/></linearGradient><linearGradient id="F" x1="32.06" y1="8.182" x2="37.01" y2="13.132" href="#f"><stop stop-color="#ab750f"/><stop offset=".516" stop-color="#d8a956"/><stop offset="1" stop-color="#ab750f"/></linearGradient><linearGradient id="G" x1="34.182" y1="6.061" x2="39.132" y2="11.01" href="#f"><stop stop-color="#ab750f"/><stop offset=".516" stop-color="#d8a956"/><stop offset="1" stop-color="#ab750f"/></linearGradient><linearGradient id="H" x1="52.132" y1="8.182" x2="47.182" y2="13.132" href="#f"><stop stop-color="#ab750f"/><stop offset=".516" stop-color="#d8a956"/><stop offset="1" stop-color="#ab750f"/></linearGradient><linearGradient id="I" x1="50.01" y1="6.061" x2="45.061" y2="11.01" href="#f"><stop stop-color="#ab750f"/><stop offset=".516" stop-color="#d8a956"/><stop offset="1" stop-color="#ab750f"/></linearGradient><linearGradient id="J" x1="3.408" y1="32" x2="16.895" y2="32" href="#f"><stop stop-color="#ab750f"/><stop offset=".516" stop-color="#d8a956"/><stop offset="1" stop-color="#ab750f"/></linearGradient><linearGradient id="K" x1="13.906" y1="21.5" x2="16.036" y2="21.5" href="#f"><stop stop-color="#ab750f"/><stop offset=".516" stop-color="#d8a956"/><stop offset="1" stop-color="#ab750f"/></linearGradient><linearGradient id="L" x1="10.314" y1="18.5" x2="25.935" y2="18.5" href="#f"><stop stop-color="#ab750f"/><stop offset=".516" stop-color="#d8a956"/><stop offset="1" stop-color="#ab750f"/></linearGradient><linearGradient id="M" x1="8.112" y1="54" x2="28.348" y2="54" href="#f"><stop stop-color="#ab750f"/><stop offset=".516" stop-color="#d8a956"/><stop offset="1" stop-color="#ab750f"/></linearGradient><linearGradient id="N" x1="19.599" y1="10.5" x2="29.709" y2="10.5" href="#f"><stop stop-color="#ab750f"/><stop offset=".516" stop-color="#d8a956"/><stop offset="1" stop-color="#ab750f"/></linearGradient><linearGradient id="O" x1="80.592" y1="32" x2="67.105" y2="32" href="#f"><stop stop-color="#ab750f"/><stop offset=".516" stop-color="#d8a956"/><stop offset="1" stop-color="#ab750f"/></linearGradient><linearGradient id="P" x1="70.094" y1="21.5" x2="67.964" y2="21.5" href="#f"><stop stop-color="#ab750f"/><stop offset=".516" stop-color="#d8a956"/><stop offset="1" stop-color="#ab750f"/></linearGradient><linearGradient id="Q" x1="73.686" y1="18.5" x2="58.065" y2="18.5" href="#f"><stop stop-color="#ab750f"/><stop offset=".516" stop-color="#d8a956"/><stop offset="1" stop-color="#ab750f"/></linearGradient><linearGradient id="R" x1="57.309" y1="59.5" x2="27.488" y2="59.5" href="#f"><stop stop-color="#ab750f"/><stop offset=".516" stop-color="#d8a956"/><stop offset="1" stop-color="#ab750f"/></linearGradient><linearGradient id="S" x1="75.888" y1="54" x2="55.652" y2="54" href="#f"><stop stop-color="#ab750f"/><stop offset=".516" stop-color="#d8a956"/><stop offset="1" stop-color="#ab750f"/></linearGradient><linearGradient id="T" x1="64.401" y1="10.5" x2="54.292" y2="10.5" href="#f"><stop stop-color="#ab750f"/><stop offset=".516" stop-color="#d8a956"/><stop offset="1" stop-color="#ab750f"/></linearGradient><linearGradient id="U" x1="42" y1="8" x2="42" y2="62" href="#f"><stop stop-color="#ab750f"/><stop offset=".516" stop-color="#d8a956"/><stop offset="1" stop-color="#ab750f"/></linearGradient><linearGradient id="V" x1="11" y1="44" x2="11" y2="49" href="#f"><stop stop-color="#ab750f"/><stop offset=".516" stop-color="#d8a956"/><stop offset="1" stop-color="#ab750f"/></linearGradient><linearGradient id="W" x1="17.5" y1="27" x2="17.5" y2="36" href="#f"><stop stop-color="#ab750f"/><stop offset=".516" stop-color="#d8a956"/><stop offset="1" stop-color="#ab750f"/></linearGradient><linearGradient id="X" x1="29.5" y1="17" x2="29.5" y2="21" href="#f"><stop stop-color="#ab750f"/><stop offset=".516" stop-color="#d8a956"/><stop offset="1" stop-color="#ab750f"/></linearGradient><linearGradient id="Y" x1="42" y1="51" x2="42" y2="59" href="#f"><stop stop-color="#ab750f"/><stop offset=".516" stop-color="#d8a956"/><stop offset="1" stop-color="#ab750f"/></linearGradient><linearGradient id="Z" x1="42" y1="14" x2="42" y2="17" href="#f"><stop stop-color="#ab750f"/><stop offset=".516" stop-color="#d8a956"/><stop offset="1" stop-color="#ab750f"/></linearGradient><linearGradient id="a" x1="73" y1="44" x2="73" y2="49" href="#f"><stop stop-color="#ab750f"/><stop offset=".516" stop-color="#d8a956"/><stop offset="1" stop-color="#ab750f"/></linearGradient><linearGradient id="b" x1="66.5" y1="27" x2="66.5" y2="36" href="#f"><stop stop-color="#ab750f"/><stop offset=".516" stop-color="#d8a956"/><stop offset="1" stop-color="#ab750f"/></linearGradient><linearGradient id="c" x1="54.5" y1="17" x2="54.5" y2="21" href="#f"><stop stop-color="#ab750f"/><stop offset=".516" stop-color="#d8a956"/><stop offset="1" stop-color="#ab750f"/></linearGradient><linearGradient id="d" x1="21.224" y1="41" x2="61.695" y2="41" href="#f"><stop stop-color="#ab750f"/><stop offset=".516" stop-color="#d8a956"/><stop offset="1" stop-color="#ab750f"/></linearGradient><path id="e" d="M24.543 45.81l8.162.33c.337 0 .601-.095.792-.286.205-.205.308-.477.308-.814v-1.98h-5.06c-1.54 0-2.662-.345-3.366-1.034-.689-.704-1.034-1.826-1.034-3.366V38c0-1.54.345-2.655 1.034-3.344.704-.704 1.826-1.056 3.366-1.056h7.722v3.08h-6.842c-.88 0-1.32.44-1.32 1.32v.44c0 .88.44 1.32 1.32 1.32h3.96c1.437 0 2.493.337 3.168 1.012s1.012 1.731 1.012 3.168v1.1c0 1.437-.337 2.493-1.012 3.168s-1.731 1.012-3.168 1.012c-.748 0-1.54-.015-2.376-.044l-2.024-.088-4.642-.308v-2.97zM42.053 49V37.01l-2.53.88-1.1-2.53 4.07-1.76h3.52V49h-3.96zm17.606-10.56c0 1.247-.528 2.325-1.584 3.234l-1.056.836-4.73 3.41h7.37V49h-11.88v-4.18l7.92-5.72V38c0-.88-.44-1.32-1.32-1.32h-6.16V33.6h7.04c1.54 0 2.655.352 3.344 1.056.704.689 1.056 1.804 1.056 3.344v.44z"/><linearGradient id="f" gradientUnits="userSpaceOnUse"/></defs></svg>