<svg width="84" height="70" viewBox="0 0 84 70" fill="none" xmlns="http://www.w3.org/2000/svg">
<g id="ph14">
<g id="ring">
<path id="Subtract" fill-rule="evenodd" clip-rule="evenodd" d="M42.0001 70C46.4184 70 50.0001 66.4183 50.0001 62C50.0001 57.5817 46.4184 54 42.0001 54C37.5818 54 34.0001 57.5817 34.0001 62C34.0001 66.4183 37.5818 70 42.0001 70ZM42.0002 68C45.3139 68 48.0002 65.3137 48.0002 62C48.0002 58.6863 45.3139 56 42.0002 56C38.6865 56 36.0002 58.6863 36.0002 62C36.0002 65.3137 38.6865 68 42.0002 68Z" fill="#212121"/>
<path id="Subtract (Stroke)" fill-rule="evenodd" clip-rule="evenodd" d="M50.5001 62C50.5001 66.6944 46.6945 70.5 42.0001 70.5C37.3057 70.5 33.5001 66.6944 33.5001 62C33.5001 57.3056 37.3057 53.5 42.0001 53.5C46.6945 53.5 50.5001 57.3056 50.5001 62ZM42.0002 67.5C45.0378 67.5 47.5002 65.0376 47.5002 62C47.5002 58.9625 45.0378 56.5 42.0002 56.5C38.9626 56.5 36.5002 58.9625 36.5002 62C36.5002 65.0376 38.9626 67.5 42.0002 67.5ZM50.0001 62C50.0001 66.4183 46.4184 70 42.0001 70C37.5818 70 34.0001 66.4183 34.0001 62C34.0001 57.5817 37.5818 54 42.0001 54C46.4184 54 50.0001 57.5817 50.0001 62ZM48.0002 62C48.0002 65.3137 45.3139 68 42.0002 68C38.6865 68 36.0002 65.3137 36.0002 62C36.0002 58.6863 38.6865 56 42.0002 56C45.3139 56 48.0002 58.6863 48.0002 62Z" fill="url(#paint0_linear_868_258)"/>
</g>
<g id="sun">
<circle id="Ellipse 38" cx="41.9999" cy="17" r="8" fill="url(#paint1_linear_868_258)"/>
<g id="Group 173">
<path id="Vector 267" d="M38.9999 5.99997L41.9999 3.99997V11H39.9999L38.9999 5.99997Z" fill="url(#paint2_linear_868_258)"/>
<path id="Vector 268" d="M44.9999 5.99998L41.9999 3.99998V11H43.9999L44.9999 5.99998Z" fill="url(#paint3_linear_868_258)"/>
<path id="Subtract_2" fill-rule="evenodd" clip-rule="evenodd" d="M40.0712 5.28581L38.9999 5.99997L39.9999 11H41.9999V3.99997L40.4997 5.0001L40.9997 8.99999L40.0712 5.28581Z" fill="#212121"/>
<path id="Subtract_3" fill-rule="evenodd" clip-rule="evenodd" d="M43.9284 5.28569L44.9999 5.99998L43.9999 11H41.9999V3.99998L43.4999 5H43.4999L42.9999 9L43.9284 5.28569Z" fill="#212121"/>
<path id="Intersect" fill-rule="evenodd" clip-rule="evenodd" d="M41.9999 3.99997L38.9999 5.99997L39.9999 11V9.99997L39.4999 5.99997L41.9999 4.49997V3.99997Z" fill="url(#paint4_linear_868_258)"/>
<path id="Intersect_2" fill-rule="evenodd" clip-rule="evenodd" d="M41.9999 3.99998L44.9999 5.99998L43.9999 11V9.99999L44.4999 5.99998L41.9999 4.49998V3.99998Z" fill="url(#paint5_linear_868_258)"/>
</g>
<g id="Group 174">
<path id="Vector 267_2" d="M32.414 10.6568L33.1211 7.12131L38.0708 12.0711L36.6566 13.4853L32.414 10.6568Z" fill="url(#paint6_linear_868_258)"/>
<path id="Vector 268_2" d="M36.6566 6.41423L33.1211 7.12134L38.0709 12.0711L39.4851 10.6569L36.6566 6.41423Z" fill="url(#paint7_linear_868_258)"/>
<path id="Subtract_4" fill-rule="evenodd" clip-rule="evenodd" d="M32.6665 9.39424L32.414 10.6568L36.6566 13.4853L38.0708 12.0711L33.1211 7.12131L32.7675 8.88918L35.9493 11.3639L32.6665 9.39424Z" fill="#212121"/>
<path id="Subtract_5" fill-rule="evenodd" clip-rule="evenodd" d="M35.3938 6.6668L36.6566 6.41423L39.4851 10.6569L38.0709 12.0711L33.1211 7.12134L34.8887 6.76781L37.3636 9.94977L35.3938 6.6668Z" fill="#212121"/>
<path id="Intersect_3" fill-rule="evenodd" clip-rule="evenodd" d="M33.1211 7.12131L32.414 10.6568L36.6566 13.4853L35.9495 12.7782L32.7675 10.3033L33.4746 7.47486L33.1211 7.12131Z" fill="url(#paint8_linear_868_258)"/>
<path id="Intersect_4" fill-rule="evenodd" clip-rule="evenodd" d="M33.1211 7.12134L36.6566 6.41423L39.4851 10.6569L38.778 9.94976L36.3031 6.76778L33.4747 7.47489L33.1211 7.12134Z" fill="url(#paint9_linear_868_258)"/>
</g>
<g id="Group 175">
<path id="Vector 267_3" d="M51.778 10.6568L51.0709 7.12131L46.1212 12.0711L47.5354 13.4853L51.778 10.6568Z" fill="url(#paint10_linear_868_258)"/>
<path id="Vector 268_3" d="M47.5355 6.41423L51.071 7.12134L46.1213 12.0711L44.7071 10.6569L47.5355 6.41423Z" fill="url(#paint11_linear_868_258)"/>
<path id="Subtract_6" fill-rule="evenodd" clip-rule="evenodd" d="M51.5255 9.39417L51.778 10.6568L47.5354 13.4853L46.1212 12.0711L51.0709 7.12131L51.4245 8.8891L48.2426 11.3639L51.5255 9.39417Z" fill="#212121"/>
<path id="Subtract_7" fill-rule="evenodd" clip-rule="evenodd" d="M48.7982 6.66678L47.5355 6.41423L44.7071 10.6569L46.1213 12.0711L51.071 7.12134L49.3033 6.76779L46.8284 9.94977L48.7982 6.66678Z" fill="#212121"/>
<path id="Intersect_5" fill-rule="evenodd" clip-rule="evenodd" d="M51.0709 7.12131L51.778 10.6568L47.5354 13.4853L48.2425 12.7782L51.4245 10.3033L50.7174 7.47486L51.0709 7.12131Z" fill="url(#paint12_linear_868_258)"/>
<path id="Intersect_6" fill-rule="evenodd" clip-rule="evenodd" d="M51.071 7.12134L47.5355 6.41423L44.7071 10.6569L45.4142 9.94976L47.889 6.76778L50.7175 7.47489L51.071 7.12134Z" fill="url(#paint13_linear_868_258)"/>
</g>
</g>
<g id="left">
<g id="Group 168">
<path id="Vector 252" d="M3.99988 35C6.99988 35 14.9999 28 15.9999 23L18.9999 26V32L9.99988 41L3.99988 38L6.99988 37C6.66654 36.6667 4.79988 35.8 3.99988 35Z" fill="#212121"/>
<path id="Intersect_7" fill-rule="evenodd" clip-rule="evenodd" d="M11.1502 30.4871C8.54883 33.057 5.58043 35 3.99988 35C4.48605 35.4862 5.36617 35.997 6.05668 36.3977C6.5024 36.6564 6.86912 36.8692 6.99988 37L3.99988 38L9.99988 41L5.49988 38L7.99988 37L5.99988 35.5C9.88706 33.5564 12.8299 31.1406 16.6638 23.6639L15.9999 23C15.7243 24.3777 14.9173 25.9074 13.8298 27.4005C13.1245 28.4062 12.2392 29.4604 11.1502 30.4871Z" fill="url(#paint14_linear_868_258)"/>
</g>
<g id="Group 167">
<path id="Vector 251" d="M23.9998 22C23.6664 22.3333 19.9998 23.6 15.9998 26C13.9998 24 13.9997 19 13.9998 17C17.9997 17 20.9998 19.6667 23.9998 22Z" fill="#212121"/>
<path id="Vector 255" d="M15.9998 26C13.9998 24 13.9997 19 13.9998 17L14.9998 17C13.4998 20 15.9998 26 15.9998 26Z" fill="url(#paint15_linear_868_258)"/>
</g>
<g id="Group 169">
<path id="Vector 247" d="M26.9998 21L10.9998 13C11.2253 15.2544 11.9998 16.5 17.4998 19.5C19.9362 20.8289 21.9998 23 22.9998 24L26.9998 21Z" fill="#212121"/>
<path id="Intersect_8" fill-rule="evenodd" clip-rule="evenodd" d="M11.9997 14C11.9997 15 12.0602 15.8917 17.4997 19C20.9994 20.9998 22.8327 23.3329 22.9997 23.9998C22.9242 23.9244 22.8427 23.8422 22.7554 23.7543C21.6861 22.6769 19.7522 20.7285 17.4998 19.5C11.9998 16.5 11.2253 15.2544 10.9998 13L25.6664 20.3333L24.9997 21L11.9997 14Z" fill="url(#paint16_linear_868_258)"/>
</g>
<g id="Group 166">
<path id="Vector 253" d="M9.00006 57C13.0001 54.6 15.3334 50.6667 16.0001 49H29.0001V51C29.0001 52.6 24.3334 57 22.0001 59L21.0001 54C18.6667 55 13.0001 57 9.00006 57Z" fill="#212121"/>
<path id="Intersect_9" fill-rule="evenodd" clip-rule="evenodd" d="M13.9868 52.416C12.8011 53.9951 11.1388 55.7167 9.00006 57C13.0001 57 18.6667 55 21.0001 54C21.0001 54 21.0001 54 21.0001 54L22.0001 59C23.6592 57.5779 26.498 54.9423 28.0001 52.9628V52C28.0001 52 27.0001 54 22.5001 58C22.0001 55 21.5001 53 21.5001 53C21.5001 53 16.0001 55.5 11.0001 56.5C15.0001 53 17.0001 49 17.0001 49C17.0001 49 15.7805 50.5245 13.9868 52.416Z" fill="url(#paint17_linear_868_258)"/>
</g>
<g id="Group 170">
<path id="Vector 246" d="M28 24C15.2 11.2 20.6667 2.66667 25 0C21.5 7 29.3334 12.6667 34 14C34 14.3333 32.8 16.8 28 24Z" fill="#212121"/>
<path id="Intersect_10" fill-rule="evenodd" clip-rule="evenodd" d="M25.097 20.8011C25.4183 20.9293 25.7218 21 25.9997 21L26.4997 20.5C16.8339 9.15322 21.6503 3.81121 23.7294 1.50515C23.9967 1.20873 24.2187 0.962469 24.3589 0.760066C22.5756 4.24454 24.1345 9.09807 29.4997 13C29.5582 12.649 29.5414 12.2433 29.4661 11.8004C25.7268 9.24602 22.5213 4.95737 25 0C21.0384 2.43791 16.1296 9.77914 25.097 20.8011Z" fill="url(#paint18_linear_868_258)"/>
</g>
</g>
<g id="left_2">
<g id="Group 168_2">
<path id="Vector 252_2" d="M80.0001 35C77.0001 35 69.0001 28 68.0001 23L65.0001 26V32L74.0001 41L80.0001 38L77.0001 37C77.3334 36.6667 79.2001 35.8 80.0001 35Z" fill="#212121"/>
<path id="Intersect_11" fill-rule="evenodd" clip-rule="evenodd" d="M72.8497 30.4871C75.4511 33.057 78.4195 35 80.0001 35C79.5139 35.4862 78.6338 35.997 77.9433 36.3977C77.4975 36.6564 77.1308 36.8692 77.0001 37L80.0001 38L74.0001 41L78.5001 38L76.0001 37L78.0001 35.5C74.1129 33.5564 71.1701 31.1406 67.3362 23.6639L68.0001 23C68.2756 24.3777 69.0827 25.9074 70.1702 27.4005C70.8755 28.4062 71.7607 29.4604 72.8497 30.4871Z" fill="url(#paint19_linear_868_258)"/>
</g>
<g id="Group 167_2">
<path id="Vector 251_2" d="M60.0002 22C60.3335 22.3333 64.0002 23.6 68.0002 26C70.0002 24 70.0002 19 70.0002 17C66.0002 17 63.0002 19.6667 60.0002 22Z" fill="#212121"/>
<path id="Vector 255_2" d="M68.0002 26C70.0002 24 70.0002 19 70.0002 17L69.0002 17C70.5002 20 68.0002 26 68.0002 26Z" fill="url(#paint20_linear_868_258)"/>
</g>
<g id="Group 169_2">
<path id="Vector 247_2" d="M57.0001 21L73.0001 13C72.7747 15.2544 72.0001 16.5 66.5001 19.5C64.0638 20.8289 62.0001 23 61.0001 24L57.0001 21Z" fill="#212121"/>
<path id="Intersect_12" fill-rule="evenodd" clip-rule="evenodd" d="M72.0002 14C72.0002 15 71.9398 15.8917 66.5002 19C63.0005 20.9998 61.1672 23.3329 61.0003 23.9998C61.0757 23.9244 61.1572 23.8422 61.2445 23.7543C62.3139 22.6769 64.2477 20.7285 66.5001 19.5C72.0001 16.5 72.7747 15.2544 73.0001 13L58.3335 20.3333L59.0002 21L72.0002 14Z" fill="url(#paint21_linear_868_258)"/>
</g>
<g id="Group 165">
<path id="Union" fill-rule="evenodd" clip-rule="evenodd" d="M54.0001 54L56.0001 57L48.0001 61L47.0001 63C46.0001 63.3333 43.6001 64 42.0001 64V54H54.0001ZM29.9999 54L27.9999 57L35.9999 61L36.9999 63C37.9999 63.3333 40.3999 64 41.9999 64V54H29.9999Z" fill="#212121"/>
<path id="Union_2" fill-rule="evenodd" clip-rule="evenodd" d="M54.0001 55H54.6669L56.0001 56.9999V57.0001L48.0002 61L47.0002 63C46.0002 63.3333 43.6002 64 42.0002 64L46.5001 62.5L47.5001 60.5L55.0001 57L54.0001 55ZM29.9998 55H29.333L27.9998 56.9999V57.0001L35.9997 61L36.9997 63C37.9997 63.3333 40.3997 64 41.9997 64L37.4998 62.5L36.4998 60.5L28.9998 57L29.9998 55Z" fill="url(#paint22_linear_868_258)"/>
</g>
<g id="Group 166_2">
<path id="Vector 253_2" d="M74.9999 57C70.9999 54.6 68.6665 50.6667 67.9999 49H54.9999V51C54.9999 52.6 59.6665 57 61.9999 59L62.9999 54C65.3332 55 70.9999 57 74.9999 57Z" fill="#212121"/>
<path id="Intersect_13" fill-rule="evenodd" clip-rule="evenodd" d="M70.0131 52.416C71.1989 53.9951 72.8611 55.7167 74.9999 57C70.9999 57 65.3332 55 62.9999 54C62.9999 54 62.9999 54 62.9999 54L61.9999 59C60.3408 57.5779 57.5019 54.9423 55.9999 52.9628V52C55.9999 52 56.9999 54 61.4999 58C61.9999 55 62.4999 53 62.4999 53C62.4999 53 67.9999 55.5 72.9999 56.5C68.9999 53 66.9999 49 66.9999 49C66.9999 49 68.2195 50.5245 70.0131 52.416Z" fill="url(#paint23_linear_868_258)"/>
</g>
<g id="Group 170_2">
<path id="Vector 246_2" d="M55.9999 24C68.7999 11.2 63.3332 2.66667 58.9999 0C62.4999 7 54.6666 12.6667 49.9999 14C49.9999 14.3333 51.1999 16.8 55.9999 24Z" fill="#212121"/>
<path id="Intersect_14" fill-rule="evenodd" clip-rule="evenodd" d="M58.903 20.8011C58.5817 20.9293 58.2781 21 58.0002 21L57.5002 20.5C67.1661 9.15322 62.3497 3.81121 60.2705 1.50515C60.0033 1.20873 59.7812 0.962469 59.641 0.760066C61.4243 4.24454 59.8654 9.09807 54.5002 13C54.4418 12.649 54.4585 12.2433 54.5338 11.8004C58.2731 9.24602 61.4786 4.95737 58.9999 0C62.9615 2.43791 67.8703 9.77914 58.903 20.8011Z" fill="url(#paint24_linear_868_258)"/>
</g>
</g>
<g id="Base">
<path id="Union_3" fill-rule="evenodd" clip-rule="evenodd" d="M42 9.00003L36 12C36 12 34.1141 11.5329 33 11C31.7297 10.3925 30 9.00003 30 9.00003L29 12L23 8.00003C23 8.00003 23.219 10.7427 24 12.5C24.7811 14.2574 27 17 27 17L25 19L26 20L15 25L16 31L8 36L10 38L0 53L14 50L12 54L26 52C26 52 29.8407 56.5163 33 58.5C36.1938 60.5054 42 62 42 62L42 62.0001C42 62.0001 47.8062 60.5054 51 58.5001C54.1593 56.5164 58 52.0001 58 52.0001L72 54.0001L70 50.0001L84 53.0001L74 38.0001L76 36.0001L68 31.0001L69 25.0001L58 20.0001L59 19.0001L57 17.0001C57 17.0001 59.2189 14.2574 60 12.5001C60.781 10.7427 61 8.00006 61 8.00006L55 12.0001L54 9.00006C54 9.00006 52.2702 10.3925 51 11.0001C49.8859 11.5329 48 12.0001 48 12.0001L42 9.00003Z" fill="#232222"/>
<path id="Union_4" fill-rule="evenodd" clip-rule="evenodd" d="M36 14L42 11.0001L48 14.0001L53 12.0001L54 15.0001L59 11.0001C59 11.0001 58.1127 12.9278 57.5 14.0001C56.678 15.4386 55 17.0001 55 17.0001L57 19.0001L56 20.0001L67 26.0001L66 32.0001L74 36.0001L72 38.0001L81 51.0001L68 48.0001L70 52.0001L58 50.0001C58 50.0001 53.8325 54.7761 50.5 57.0001C47.4485 59.0365 42 62.0001 42 62.0001C42 62.0001 47.8062 60.5054 51 58.5001C54.1593 56.5164 58 52.0001 58 52.0001L72 54.0001L70 50.0001L84 53.0001L74 38.0001L76 36.0001L68 31.0001L69 25.0001L58 20.0001L59 19.0001L57 17.0001C57 17.0001 59.2189 14.2574 60 12.5001C60.781 10.7427 61 8.00006 61 8.00006L55 12.0001L54 9.00006C54 9.00006 52.2702 10.3925 51 11.0001C49.8859 11.5329 48 12.0001 48 12.0001L42 9.00003L36 12C36 12 34.1141 11.5329 33 11C31.7297 10.3925 30 9.00003 30 9.00003L29 12L23 8.00003C23 8.00003 23.219 10.7427 24 12.5C24.7811 14.2574 27 17 27 17L25 19L26 20L15 25L16 31L8 36L10 38L0 53L14 50L12 54L26 52C26 52 29.8407 56.5163 33 58.5C36.1938 60.5054 42 62 42 62C42 62 36.5515 59.0365 33.5 57C30.1675 54.7761 26 50 26 50L14 52L16 48L3.00001 51L12 38L10 36L18 32L17 26L28 20L27 19L29 17C29 17 27.322 15.4386 26.5 14C25.8873 12.9278 25 11 25 11L30 15L31 12L36 14Z" fill="url(#paint25_linear_868_258)"/>
</g>
<g id="Group 159">
<path id="Vector 240" d="M5.99988 49L9.99988 44L15.9999 46L5.99988 49Z" fill="url(#paint26_linear_868_258)"/>
<path id="Vector 241" d="M20.0001 33L19.0001 27L22.0001 34L13.0001 36L20.0001 33Z" fill="url(#paint27_linear_868_258)"/>
<path id="Vector 242" d="M30.0001 20L29.0001 19L31.0001 17L30.0001 19L31.0001 20L30.0001 21H28.0001L30.0001 20Z" fill="url(#paint28_linear_868_258)"/>
</g>
<g id="Group 160">
<path id="Union_5" fill-rule="evenodd" clip-rule="evenodd" d="M42.0001 59C42.0313 58.9859 46.0548 57.1671 47.9999 56.0001C49.9525 54.8285 51.9999 53.0001 51.9999 53.0001L46.9999 51.0001L42 53L37.0001 51.0001L32.0001 53.0001C32.0001 53.0001 34.0474 54.8285 36.0001 56.0001C37.9451 57.1671 41.9686 58.9859 41.9999 59V59.0001C41.9999 59.0001 41.9999 59.0001 42 59C42 59.0001 42.0001 59.0001 42.0001 59.0001V59Z" fill="url(#paint29_linear_868_258)"/>
<path id="Union_6" fill-rule="evenodd" clip-rule="evenodd" d="M42 14.0001L46.9999 17L41.9999 16L37 17L41.9999 14.0001V14L42 14L42 14V14.0001Z" fill="url(#paint30_linear_868_258)"/>
<path id="Vector 240_2" d="M78.0001 49L74.0001 44L68.0001 46L78.0001 49Z" fill="url(#paint31_linear_868_258)"/>
<path id="Vector 241_2" d="M63.9999 33.0001L64.9999 27.0001L61.9999 34.0001L70.9999 36.0001L63.9999 33.0001Z" fill="url(#paint32_linear_868_258)"/>
<path id="Vector 242_2" d="M53.9998 20L54.9998 19L52.9998 17L53.9998 19L52.9998 20L53.9998 21H55.9998L53.9998 20Z" fill="url(#paint33_linear_868_258)"/>
<path id="Union_7" fill-rule="evenodd" clip-rule="evenodd" d="M42 56H44.9999L42 58V58L42 58L41.9999 58V58L39 56H41.9999H42Z" fill="#232222"/>
</g>
<g id="Group 155">
<g id="S14" filter="url(#filter0_f_868_258)">
<path d="M23.8766 45.81C27.8952 46.03 30.6159 46.14 32.0386 46.14C32.3759 46.14 32.6399 46.0447 32.8306 45.854C33.0359 45.6487 33.1386 45.3773 33.1386 45.04V43.06H28.0786C26.5386 43.06 25.4166 42.7153 24.7126 42.026C24.0232 41.322 23.6786 40.2 23.6786 38.66V38C23.6786 36.46 24.0232 35.3453 24.7126 34.656C25.4166 33.952 26.5386 33.6 28.0786 33.6H35.8006V36.68H28.9586C28.0786 36.68 27.6386 37.12 27.6386 38V38.44C27.6386 39.32 28.0786 39.76 28.9586 39.76H32.9186C34.3559 39.76 35.4119 40.0973 36.0866 40.772C36.7612 41.4467 37.0986 42.5027 37.0986 43.94V45.04C37.0986 46.4773 36.7612 47.5333 36.0866 48.208C35.4119 48.8827 34.3559 49.22 32.9186 49.22C32.1706 49.22 31.3786 49.2053 30.5426 49.176L28.5186 49.088C27.0226 49.0147 25.4752 48.912 23.8766 48.78V45.81ZM41.3868 49V37.01L38.8568 37.89L37.7568 35.36L41.8268 33.6H45.3468V49H41.3868ZM55.2529 45.92H47.1129V42.84L52.3929 33.6H56.7929L51.5129 42.84H55.2529V39.54H59.2129V42.84H60.7529V45.92H59.2129V49H55.2529V45.92Z" fill="url(#paint34_linear_868_258)"/>
</g>
<path id="S14_2" d="M23.8766 45.81C27.8952 46.03 30.6159 46.14 32.0386 46.14C32.3759 46.14 32.6399 46.0447 32.8306 45.854C33.0359 45.6487 33.1386 45.3773 33.1386 45.04V43.06H28.0786C26.5386 43.06 25.4166 42.7153 24.7126 42.026C24.0232 41.322 23.6786 40.2 23.6786 38.66V38C23.6786 36.46 24.0232 35.3453 24.7126 34.656C25.4166 33.952 26.5386 33.6 28.0786 33.6H35.8006V36.68H28.9586C28.0786 36.68 27.6386 37.12 27.6386 38V38.44C27.6386 39.32 28.0786 39.76 28.9586 39.76H32.9186C34.3559 39.76 35.4119 40.0973 36.0866 40.772C36.7612 41.4467 37.0986 42.5027 37.0986 43.94V45.04C37.0986 46.4773 36.7612 47.5333 36.0866 48.208C35.4119 48.8827 34.3559 49.22 32.9186 49.22C32.1706 49.22 31.3786 49.2053 30.5426 49.176L28.5186 49.088C27.0226 49.0147 25.4752 48.912 23.8766 48.78V45.81ZM41.3868 49V37.01L38.8568 37.89L37.7568 35.36L41.8268 33.6H45.3468V49H41.3868ZM55.2529 45.92H47.1129V42.84L52.3929 33.6H56.7929L51.5129 42.84H55.2529V39.54H59.2129V42.84H60.7529V45.92H59.2129V49H55.2529V45.92Z" fill="white"/>
</g>
<g id="Group 183">
<path id="MPL" d="M37.0096 25.8403L35.1574 29.1478H33.3052L31.453 25.8403V31H29.0716V21.739H31.5852L34.2313 26.6341L36.8773 21.739H39.391V31H37.0096V25.8403ZM40.9837 21.739H46.5403C47.4664 21.739 48.1367 21.9507 48.5513 22.374C48.9746 22.7886 49.1863 23.4589 49.1863 24.385V25.708C49.1863 26.6341 48.9746 27.3088 48.5513 27.7322C48.1367 28.1467 47.4664 28.354 46.5403 28.354H43.3651V31H40.9837V21.739ZM46.8049 24.385C46.8049 23.8558 46.5403 23.5912 46.0111 23.5912H43.3651V26.5018H46.0111C46.5403 26.5018 46.8049 26.2372 46.8049 25.708V24.385ZM52.7579 29.1478H57.5869V31H50.3765V21.739H52.7579V29.1478Z" fill="white"/>
</g>
</g>
<defs>
<filter id="filter0_f_868_258" x="17.8286" y="27.7501" width="48.7742" height="27.3199" filterUnits="userSpaceOnUse" color-interpolation-filters="sRGB">
<feFlood flood-opacity="0" result="BackgroundImageFix"/>
<feBlend mode="normal" in="SourceGraphic" in2="BackgroundImageFix" result="shape"/>
<feGaussianBlur stdDeviation="2.92498" result="effect1_foregroundBlur_868_258"/>
</filter>
<linearGradient id="paint0_linear_868_258" x1="32.7054" y1="62.0001" x2="50.8111" y2="62.0001" gradientUnits="userSpaceOnUse">
<stop stop-color="#AB750F"/>
<stop offset="0.516" stop-color="#D8A956"/>
<stop offset="1" stop-color="#AB750F"/>
</linearGradient>
<linearGradient id="paint1_linear_868_258" x1="41.9999" y1="9.00003" x2="41.9999" y2="25" gradientUnits="userSpaceOnUse">
<stop stop-color="#AB750F"/>
<stop offset="0.516" stop-color="#D8A956"/>
<stop offset="1" stop-color="#AB750F"/>
</linearGradient>
<linearGradient id="paint2_linear_868_258" x1="40.4999" y1="3.99997" x2="40.4999" y2="11" gradientUnits="userSpaceOnUse">
<stop stop-color="#AB750F"/>
<stop offset="0.516" stop-color="#D8A956"/>
<stop offset="1" stop-color="#AB750F"/>
</linearGradient>
<linearGradient id="paint3_linear_868_258" x1="43.4999" y1="3.99998" x2="43.4999" y2="11" gradientUnits="userSpaceOnUse">
<stop stop-color="#AB750F"/>
<stop offset="0.516" stop-color="#D8A956"/>
<stop offset="1" stop-color="#AB750F"/>
</linearGradient>
<linearGradient id="paint4_linear_868_258" x1="40.4999" y1="3.99997" x2="40.4999" y2="11" gradientUnits="userSpaceOnUse">
<stop stop-color="#AB750F"/>
<stop offset="0.516" stop-color="#D8A956"/>
<stop offset="1" stop-color="#AB750F"/>
</linearGradient>
<linearGradient id="paint5_linear_868_258" x1="43.4999" y1="3.99998" x2="43.4999" y2="11" gradientUnits="userSpaceOnUse">
<stop stop-color="#AB750F"/>
<stop offset="0.516" stop-color="#D8A956"/>
<stop offset="1" stop-color="#AB750F"/>
</linearGradient>
<linearGradient id="paint6_linear_868_258" x1="32.0604" y1="8.18197" x2="37.0102" y2="13.1317" gradientUnits="userSpaceOnUse">
<stop stop-color="#AB750F"/>
<stop offset="0.516" stop-color="#D8A956"/>
<stop offset="1" stop-color="#AB750F"/>
</linearGradient>
<linearGradient id="paint7_linear_868_258" x1="34.1818" y1="6.06068" x2="39.1315" y2="11.0104" gradientUnits="userSpaceOnUse">
<stop stop-color="#AB750F"/>
<stop offset="0.516" stop-color="#D8A956"/>
<stop offset="1" stop-color="#AB750F"/>
</linearGradient>
<linearGradient id="paint8_linear_868_258" x1="32.0604" y1="8.18197" x2="37.0102" y2="13.1317" gradientUnits="userSpaceOnUse">
<stop stop-color="#AB750F"/>
<stop offset="0.516" stop-color="#D8A956"/>
<stop offset="1" stop-color="#AB750F"/>
</linearGradient>
<linearGradient id="paint9_linear_868_258" x1="34.1818" y1="6.06068" x2="39.1315" y2="11.0104" gradientUnits="userSpaceOnUse">
<stop stop-color="#AB750F"/>
<stop offset="0.516" stop-color="#D8A956"/>
<stop offset="1" stop-color="#AB750F"/>
</linearGradient>
<linearGradient id="paint10_linear_868_258" x1="52.1316" y1="8.18197" x2="47.1819" y2="13.1317" gradientUnits="userSpaceOnUse">
<stop stop-color="#AB750F"/>
<stop offset="0.516" stop-color="#D8A956"/>
<stop offset="1" stop-color="#AB750F"/>
</linearGradient>
<linearGradient id="paint11_linear_868_258" x1="50.0104" y1="6.06068" x2="45.0606" y2="11.0104" gradientUnits="userSpaceOnUse">
<stop stop-color="#AB750F"/>
<stop offset="0.516" stop-color="#D8A956"/>
<stop offset="1" stop-color="#AB750F"/>
</linearGradient>
<linearGradient id="paint12_linear_868_258" x1="52.1316" y1="8.18197" x2="47.1819" y2="13.1317" gradientUnits="userSpaceOnUse">
<stop stop-color="#AB750F"/>
<stop offset="0.516" stop-color="#D8A956"/>
<stop offset="1" stop-color="#AB750F"/>
</linearGradient>
<linearGradient id="paint13_linear_868_258" x1="50.0104" y1="6.06068" x2="45.0606" y2="11.0104" gradientUnits="userSpaceOnUse">
<stop stop-color="#AB750F"/>
<stop offset="0.516" stop-color="#D8A956"/>
<stop offset="1" stop-color="#AB750F"/>
</linearGradient>
<linearGradient id="paint14_linear_868_258" x1="3.40787" y1="32.0001" x2="16.8954" y2="32.0001" gradientUnits="userSpaceOnUse">
<stop stop-color="#AB750F"/>
<stop offset="0.516" stop-color="#D8A956"/>
<stop offset="1" stop-color="#AB750F"/>
</linearGradient>
<linearGradient id="paint15_linear_868_258" x1="13.9063" y1="21.5" x2="16.0363" y2="21.5" gradientUnits="userSpaceOnUse">
<stop stop-color="#AB750F"/>
<stop offset="0.516" stop-color="#D8A956"/>
<stop offset="1" stop-color="#AB750F"/>
</linearGradient>
<linearGradient id="paint16_linear_868_258" x1="10.3142" y1="18.5" x2="25.9348" y2="18.5" gradientUnits="userSpaceOnUse">
<stop stop-color="#AB750F"/>
<stop offset="0.516" stop-color="#D8A956"/>
<stop offset="1" stop-color="#AB750F"/>
</linearGradient>
<linearGradient id="paint17_linear_868_258" x1="8.11185" y1="54" x2="28.3476" y2="54" gradientUnits="userSpaceOnUse">
<stop stop-color="#AB750F"/>
<stop offset="0.516" stop-color="#D8A956"/>
<stop offset="1" stop-color="#AB750F"/>
</linearGradient>
<linearGradient id="paint18_linear_868_258" x1="19.5989" y1="10.5001" x2="29.7085" y2="10.5001" gradientUnits="userSpaceOnUse">
<stop stop-color="#AB750F"/>
<stop offset="0.516" stop-color="#D8A956"/>
<stop offset="1" stop-color="#AB750F"/>
</linearGradient>
<linearGradient id="paint19_linear_868_258" x1="80.5921" y1="32.0001" x2="67.1045" y2="32.0001" gradientUnits="userSpaceOnUse">
<stop stop-color="#AB750F"/>
<stop offset="0.516" stop-color="#D8A956"/>
<stop offset="1" stop-color="#AB750F"/>
</linearGradient>
<linearGradient id="paint20_linear_868_258" x1="70.0937" y1="21.5" x2="67.9636" y2="21.5" gradientUnits="userSpaceOnUse">
<stop stop-color="#AB750F"/>
<stop offset="0.516" stop-color="#D8A956"/>
<stop offset="1" stop-color="#AB750F"/>
</linearGradient>
<linearGradient id="paint21_linear_868_258" x1="73.6858" y1="18.5" x2="58.0652" y2="18.5" gradientUnits="userSpaceOnUse">
<stop stop-color="#AB750F"/>
<stop offset="0.516" stop-color="#D8A956"/>
<stop offset="1" stop-color="#AB750F"/>
</linearGradient>
<linearGradient id="paint22_linear_868_258" x1="57.3091" y1="59.5001" x2="27.4876" y2="59.5001" gradientUnits="userSpaceOnUse">
<stop stop-color="#AB750F"/>
<stop offset="0.516" stop-color="#D8A956"/>
<stop offset="1" stop-color="#AB750F"/>
</linearGradient>
<linearGradient id="paint23_linear_868_258" x1="75.8881" y1="54" x2="55.6523" y2="54" gradientUnits="userSpaceOnUse">
<stop stop-color="#AB750F"/>
<stop offset="0.516" stop-color="#D8A956"/>
<stop offset="1" stop-color="#AB750F"/>
</linearGradient>
<linearGradient id="paint24_linear_868_258" x1="64.4011" y1="10.5001" x2="54.2915" y2="10.5001" gradientUnits="userSpaceOnUse">
<stop stop-color="#AB750F"/>
<stop offset="0.516" stop-color="#D8A956"/>
<stop offset="1" stop-color="#AB750F"/>
</linearGradient>
<linearGradient id="paint25_linear_868_258" x1="42" y1="8.00003" x2="42" y2="62.0001" gradientUnits="userSpaceOnUse">
<stop stop-color="#AB750F"/>
<stop offset="0.516" stop-color="#D8A956"/>
<stop offset="1" stop-color="#AB750F"/>
</linearGradient>
<linearGradient id="paint26_linear_868_258" x1="10.9999" y1="44" x2="10.9999" y2="49" gradientUnits="userSpaceOnUse">
<stop stop-color="#AB750F"/>
<stop offset="0.516" stop-color="#D8A956"/>
<stop offset="1" stop-color="#AB750F"/>
</linearGradient>
<linearGradient id="paint27_linear_868_258" x1="17.5001" y1="27" x2="17.5001" y2="36" gradientUnits="userSpaceOnUse">
<stop stop-color="#AB750F"/>
<stop offset="0.516" stop-color="#D8A956"/>
<stop offset="1" stop-color="#AB750F"/>
</linearGradient>
<linearGradient id="paint28_linear_868_258" x1="29.5001" y1="17" x2="29.5001" y2="21" gradientUnits="userSpaceOnUse">
<stop stop-color="#AB750F"/>
<stop offset="0.516" stop-color="#D8A956"/>
<stop offset="1" stop-color="#AB750F"/>
</linearGradient>
<linearGradient id="paint29_linear_868_258" x1="42" y1="51.0001" x2="42" y2="59.0001" gradientUnits="userSpaceOnUse">
<stop stop-color="#AB750F"/>
<stop offset="0.516" stop-color="#D8A956"/>
<stop offset="1" stop-color="#AB750F"/>
</linearGradient>
<linearGradient id="paint30_linear_868_258" x1="42" y1="14" x2="42" y2="17" gradientUnits="userSpaceOnUse">
<stop stop-color="#AB750F"/>
<stop offset="0.516" stop-color="#D8A956"/>
<stop offset="1" stop-color="#AB750F"/>
</linearGradient>
<linearGradient id="paint31_linear_868_258" x1="73.0001" y1="44" x2="73.0001" y2="49" gradientUnits="userSpaceOnUse">
<stop stop-color="#AB750F"/>
<stop offset="0.516" stop-color="#D8A956"/>
<stop offset="1" stop-color="#AB750F"/>
</linearGradient>
<linearGradient id="paint32_linear_868_258" x1="66.4999" y1="27.0001" x2="66.4999" y2="36.0001" gradientUnits="userSpaceOnUse">
<stop stop-color="#AB750F"/>
<stop offset="0.516" stop-color="#D8A956"/>
<stop offset="1" stop-color="#AB750F"/>
</linearGradient>
<linearGradient id="paint33_linear_868_258" x1="54.4998" y1="17" x2="54.4998" y2="21" gradientUnits="userSpaceOnUse">
<stop stop-color="#AB750F"/>
<stop offset="0.516" stop-color="#D8A956"/>
<stop offset="1" stop-color="#AB750F"/>
</linearGradient>
<linearGradient id="paint34_linear_868_258" x1="21.2236" y1="41.0001" x2="61.6951" y2="41.0001" gradientUnits="userSpaceOnUse">
<stop stop-color="#AB750F"/>
<stop offset="0.516" stop-color="#D8A956"/>
<stop offset="1" stop-color="#AB750F"/>
</linearGradient>
</defs>
</svg>
