<svg xmlns="http://www.w3.org/2000/svg" width="100" height="100" fill="none" xmlns:v="https://vecta.io/nano"><g clip-path="url(#A)"><path d="M87.426 11.796H14.37c-6.944 0-12.574 5.63-12.574 12.574v53.889c0 6.945 5.63 12.574 12.574 12.574h73.056c6.945 0 12.574-5.63 12.574-12.574V24.37c0-6.944-5.63-12.574-12.574-12.574z" fill="#605f5e" fill-opacity=".3"/><path d="M85.63 10H12.574C5.63 10 0 15.63 0 22.574v53.889c0 6.945 5.63 12.574 12.574 12.574H85.63c6.945 0 12.574-5.63 12.574-12.574V22.574C98.204 15.63 92.574 10 85.63 10z" fill="#f5f1ee"/><g clip-path="url(#B)"><g clip-path="url(#C)"><path d="M10.778 20.778h76.648v28.741H10.778V20.778z" fill="#0038a8"/><path d="M10.778 49.519h76.648v28.741H10.778V49.519z" fill="#ce1126"/><path d="M60.559 49.519L10.778 78.259V20.778" fill="#fff"/><g fill="#fcd116"><path d="M14.087 26.431a.2.2 0 0 1 .329-.188l1.272 1.121 1.481-.821a.2.2 0 0 1 .281.253l-.66 1.562 1.252 1.162a.2.2 0 0 1-.153.346l-1.698-.143-.725 1.539a.2.2 0 0 1-.376-.04l-.385-1.655-1.688-.215a.2.2 0 0 1-.079-.369l1.468-.901-.32-1.652zm38.317 20.517a.2.2 0 0 1 .359.116l.036 1.7 1.612.564a.2.2 0 0 1-.001.378l-1.611.555-.036 1.703a.2.2 0 0 1-.359.117l-1.03-1.353-1.631.493a.2.2 0 0 1-.222-.305l.967-1.397-.967-1.397a.2.2 0 0 1 .222-.305l1.631.493 1.03-1.361zM15.102 67.819a.2.2 0 0 1 .376-.039l.713 1.534 1.701-.143a.2.2 0 0 1 .153.345l-1.244 1.163.662 1.566a.2.2 0 0 1-.28.253l-1.484-.813-1.289 1.11a.2.2 0 0 1-.327-.189l.322-1.675-1.458-.876a.2.2 0 0 1 .078-.37l1.691-.215.384-1.65z"/><path fill-rule="evenodd" d="M24.867 42.133C24.52 40.542 25.569 39 27 39s2.48 1.542 2.133 3.133l-.448 2.055a6.02 6.02 0 0 1 1.233.511l1.136-1.77c.88-1.371 2.712-1.719 3.724-.707s.664 2.844-.707 3.724l-1.77 1.136a6.02 6.02 0 0 1 .511 1.233l2.055-.448C36.458 47.52 38 48.569 38 50s-1.542 2.48-3.133 2.133l-2.055-.448a6.01 6.01 0 0 1-.511 1.233l1.77 1.136c1.371.88 1.719 2.712.707 3.724s-2.844.664-3.724-.707l-1.136-1.77a6.02 6.02 0 0 1-1.233.511l.448 2.055C29.48 59.458 28.431 61 27 61s-2.48-1.542-2.133-3.133l.448-2.055a6.01 6.01 0 0 1-1.233-.511l-1.137 1.77c-.88 1.371-2.712 1.718-3.724.707s-.664-2.844.707-3.724l1.77-1.136a6.01 6.01 0 0 1-.511-1.233l-2.055.448C17.542 52.48 16 51.431 16 50s1.542-2.48 3.133-2.133l2.055.448a6.01 6.01 0 0 1 .511-1.233l-1.77-1.136c-1.371-.88-1.718-2.712-.707-3.724s2.844-.664 3.724.707l1.137 1.77a6.02 6.02 0 0 1 1.233-.511l-.448-2.055z"/></g></g><g style="mix-blend-mode:screen"><path fill="#414141" d="M10.778 20.778h76.648v57.482H10.778z"/></g></g></g><defs><clipPath id="A"><path fill="#fff" d="M0 0h100v100H0z"/></clipPath><clipPath id="B"><rect x="10.778" y="20.778" width="76.642" height="57.482" rx="4" fill="#fff"/></clipPath><clipPath id="C"><rect x="10.778" y="20.778" width="76.642" height="57.482" rx="1.796" fill="#fff"/></clipPath></defs></svg>