<svg xmlns="http://www.w3.org/2000/svg" width="100" height="100" fill="none" xmlns:v="https://vecta.io/nano"><g clip-path="url(#B)"><path d="M87.426 11.796H14.37c-6.944 0-12.574 5.63-12.574 12.574v53.889c0 6.945 5.63 12.574 12.574 12.574h73.056c6.945 0 12.574-5.63 12.574-12.574V24.37c0-6.944-5.63-12.574-12.574-12.574z" fill="#605f5e" fill-opacity=".3"/><path d="M85.63 10H12.574C5.63 10 0 15.63 0 22.574v53.889c0 6.945 5.63 12.574 12.574 12.574H85.63c6.945 0 12.574-5.63 12.574-12.574V22.574C98.204 15.63 92.574 10 85.63 10z" fill="#f5f1ee"/><g clip-path="url(#C)"><g clip-path="url(#D)"><mask id="A" maskUnits="userSpaceOnUse" x="9" y="20" width="80" height="60"><path d="M9 20H89V80H9V20Z" fill="#fff"/></mask><g mask="url(#A)"><path fill-rule="evenodd" d="M6.5 20h90v60h-90V20z" fill="#fff"/><path fill-rule="evenodd" d="M6.5 20h90v30h-90V20z" fill="#df0000"/><path fill-rule="evenodd" d="M27.25 25.025a10.55 10.55 0 0 0 .1 20.65A10.75 10.75 0 0 1 14.025 38.3 10.75 10.75 0 0 1 21.4 25.05a10.28 10.28 0 0 1 5.863-.025h-.012zm-1.625 8.725l.613 1.875-1.625-1.15-1.6 1.175.588-1.9-1.6-1.163 1.988-.025.625-1.875.625 1.875h1.975l-1.587 1.188zm2.188 6.5l.625 1.888-1.625-1.15L25.2 42.15l.6-1.887-1.6-1.175 1.988-.012.613-1.888.625 1.875h2l-1.613 1.188zm7.313-.05l.612 1.9-1.625-1.163-1.6 1.163.587-1.888-1.6-1.163 1.987-.025.625-1.875.625 1.875h1.975L35.125 40.2zm2.175-6.45l.613 1.888-1.625-1.15-1.6 1.163.6-1.887-1.613-1.175 2-.012.6-1.888.625 1.875h2l-1.6 1.188zm-5.787-4.288l.625 1.9-1.625-1.163-1.613 1.175.6-1.9-1.6-1.175 1.975-.012.625-1.888.625 1.875h2l-1.613 1.188z" fill="#fff"/></g></g><g style="mix-blend-mode:screen"><path fill="#414141" d="M10.778 20.778h76.648v57.482H10.778z"/></g></g></g><defs><clipPath id="B"><path fill="#fff" d="M0 0h100v100H0z"/></clipPath><clipPath id="C"><rect x="10.778" y="20.778" width="76.642" height="57.482" rx="4" fill="#fff"/></clipPath><clipPath id="D"><path fill="#fff" transform="translate(9 20)" d="M0 0h80v60H0z"/></clipPath></defs></svg>