<svg width="84" height="70" viewBox="0 0 84 70" fill="none" xmlns="http://www.w3.org/2000/svg">
<g id="sps6">
<g id="SPS-ESL" clip-path="url(#clip0_747_7)">
<path id="Subtract" d="M25.2 15.4C25.2 15.4 23.1 11.2 25.4257 5.88674C14.2429 12.3597 5.23041 27.2588 18.83 37.21C20.5446 38.4647 22.1591 39.517 23.6498 40.4886C30.9638 45.2559 34.3504 47.757 32.9 63C34.2459 48.8558 16.7311 51.3377 9.79999 43.938C13.6864 58.2137 26.7109 68.7077 42.1797 68.7077C60.7152 68.7077 75.6 53.5865 75.6 35C75.6 16.4135 60.9 1.4 43.4 1.4C32.2 1.4 25.2 11.2 25.2 15.4Z" fill="#212121"/>
<path id="Subtract (Stroke)" fill-rule="evenodd" clip-rule="evenodd" d="M28.421 2.53542L26.7083 6.44813C26.1772 7.66147 25.9051 8.80514 25.7934 9.83474C26.6521 8.47958 27.7764 7.09381 29.1387 5.80718C32.4919 2.64025 37.3715 0 43.4 0C61.7201 0 77 15.6881 77 35C77 54.3454 61.5026 70.1077 42.1797 70.1077C26.061 70.1077 12.4966 59.173 8.44915 44.3058L6.9686 38.8673L10.8218 42.9809C12.3384 44.6001 14.4966 45.7401 17.0386 46.7477C18.2453 47.226 19.5006 47.6607 20.7865 48.106L20.968 48.1688C22.3052 48.632 23.6736 49.1091 24.983 49.6437C27.4885 50.6665 29.9394 51.9603 31.7117 53.9692C31.5025 51.595 31.0195 49.8477 30.312 48.4472C28.9283 45.7084 26.5915 44.0771 22.8853 41.6615L22.8749 41.6547C21.3892 40.6863 19.7484 39.6168 18.0032 38.3399C14.4036 35.7059 12.2089 32.6729 11.2127 29.4401C10.2181 26.2122 10.4567 22.9096 11.508 19.7961C13.5945 13.6173 18.92 8.03483 24.7244 4.67508L28.421 2.53542ZM33.2241 56.2104C33.2551 58.1498 33.1486 60.3878 32.9 63C33.1556 60.3139 32.731 58.2274 31.8278 56.559C29.7304 52.6846 25.0524 51.0647 20.3191 49.4257C17.274 48.3713 14.2061 47.309 11.7878 45.6333C11.0603 45.1292 10.3916 44.5696 9.79999 43.938C10.0379 44.8119 10.31 45.6715 10.6148 46.5155C15.29 59.4591 27.6578 68.7077 42.1797 68.7077C60.7152 68.7077 75.6 53.5865 75.6 35C75.6 16.4135 60.9 1.4 43.4 1.4C34.2138 1.4 27.853 7.99274 25.8626 12.6809C25.4263 13.7086 25.2 14.6448 25.2 15.4C25.2 15.4 24.648 14.296 24.4235 12.5041C24.2693 11.2737 24.2694 9.71908 24.7086 7.97473C24.8774 7.30421 25.1111 6.60567 25.4258 5.88674C24.7735 6.26425 24.1287 6.67044 23.4953 7.10262C13.2685 14.0807 6.02357 27.8392 18.83 37.21C20.5446 38.4647 22.1591 39.517 23.6498 40.4886C29.7104 44.4389 33.0743 46.8332 33.2241 56.2104Z" fill="url(#paint0_linear_747_7)"/>
<path id="Vector 224" d="M53.9259 63.2041C53.9105 63.2172 53.8961 63.2282 53.8827 63.2372C53.8971 63.2261 53.9115 63.2151 53.9259 63.2041C55.066 62.2328 61.5259 49.9643 55.8964 39.0064C50.1909 27.9006 25.1053 23.2932 35.318 10.3585C48.2901 -6.07119 96.4732 30.5681 53.9259 63.2041Z" fill="url(#paint1_linear_747_7)"/>
<g id="Group 156">
<g id="SPS" filter="url(#filter0_f_747_7)">
<path d="M18.0214 43.5734C22.4641 43.8166 25.4719 43.9382 27.0446 43.9382C27.4176 43.9382 27.7094 43.8328 27.9202 43.622C28.1472 43.395 28.2607 43.0951 28.2607 42.7221V40.5332H22.6668C20.9643 40.5332 19.7239 40.1522 18.9456 39.3901C18.1835 38.6118 17.8025 37.3714 17.8025 35.6689V34.9392C17.8025 33.2367 18.1835 32.0045 18.9456 31.2424C19.7239 30.4641 20.9643 30.0749 22.6668 30.0749H31.2036V33.48H23.6396C22.6668 33.48 22.1803 33.9664 22.1803 34.9392V35.4257C22.1803 36.3985 22.6668 36.885 23.6396 36.885H28.0175C29.6065 36.885 30.7739 37.2579 31.5198 38.0038C32.2657 38.7496 32.6386 39.917 32.6386 41.5061V42.7221C32.6386 44.3111 32.2657 45.4786 31.5198 46.2244C30.7739 46.9703 29.6065 47.3432 28.0175 47.3432C27.1906 47.3432 26.315 47.327 25.3908 47.2946L23.1532 47.1973C21.4993 47.1162 19.7887 47.0027 18.0214 46.8568V43.5734ZM34.8256 30.0749H45.0407C46.7432 30.0749 47.9755 30.4641 48.7375 31.2424C49.5158 32.0045 49.905 33.2367 49.905 34.9392V37.3714C49.905 39.0739 49.5158 40.3143 48.7375 41.0926C47.9755 41.8547 46.7432 42.2357 45.0407 42.2357H39.2035V47.1H34.8256V30.0749ZM45.5271 34.9392C45.5271 33.9664 45.0407 33.48 44.0678 33.48H39.2035V38.8307H44.0678C45.0407 38.8307 45.5271 38.3443 45.5271 37.3714V34.9392ZM51.5822 43.5734C56.0249 43.8166 59.0327 43.9382 60.6055 43.9382C60.9784 43.9382 61.2703 43.8328 61.4811 43.622C61.7081 43.395 61.8216 43.0951 61.8216 42.7221V40.5332H56.2276C54.5251 40.5332 53.2847 40.1522 52.5064 39.3901C51.7443 38.6118 51.3633 37.3714 51.3633 35.6689V34.9392C51.3633 33.2367 51.7443 32.0045 52.5064 31.2424C53.2847 30.4641 54.5251 30.0749 56.2276 30.0749H64.7645V33.48H57.2005C56.2276 33.48 55.7412 33.9664 55.7412 34.9392V35.4257C55.7412 36.3985 56.2276 36.885 57.2005 36.885H61.5783C63.1673 36.885 64.3348 37.2579 65.0806 38.0038C65.8265 38.7496 66.1994 39.917 66.1994 41.5061V42.7221C66.1994 44.3111 65.8265 45.4786 65.0806 46.2244C64.3348 46.9703 63.1673 47.3432 61.5783 47.3432C60.7514 47.3432 59.8758 47.327 58.9516 47.2946L56.714 47.1973C55.0602 47.1162 53.3496 47.0027 51.5822 46.8568V43.5734Z" fill="url(#paint2_linear_747_7)"/>
</g>
<path id="SPS_2" d="M18.0214 43.5734C22.4641 43.8166 25.4719 43.9382 27.0446 43.9382C27.4176 43.9382 27.7094 43.8328 27.9202 43.622C28.1472 43.395 28.2607 43.0951 28.2607 42.7221V40.5332H22.6668C20.9643 40.5332 19.7239 40.1522 18.9456 39.3901C18.1835 38.6118 17.8025 37.3714 17.8025 35.6689V34.9392C17.8025 33.2367 18.1835 32.0045 18.9456 31.2424C19.7239 30.4641 20.9643 30.0749 22.6668 30.0749H31.2036V33.48H23.6396C22.6668 33.48 22.1803 33.9664 22.1803 34.9392V35.4257C22.1803 36.3985 22.6668 36.885 23.6396 36.885H28.0175C29.6065 36.885 30.7739 37.2579 31.5198 38.0038C32.2657 38.7496 32.6386 39.917 32.6386 41.5061V42.7221C32.6386 44.3111 32.2657 45.4786 31.5198 46.2244C30.7739 46.9703 29.6065 47.3432 28.0175 47.3432C27.1906 47.3432 26.315 47.327 25.3908 47.2946L23.1532 47.1973C21.4993 47.1162 19.7887 47.0027 18.0214 46.8568V43.5734ZM34.8256 30.0749H45.0407C46.7432 30.0749 47.9755 30.4641 48.7375 31.2424C49.5158 32.0045 49.905 33.2367 49.905 34.9392V37.3714C49.905 39.0739 49.5158 40.3143 48.7375 41.0926C47.9755 41.8547 46.7432 42.2357 45.0407 42.2357H39.2035V47.1H34.8256V30.0749ZM45.5271 34.9392C45.5271 33.9664 45.0407 33.48 44.0678 33.48H39.2035V38.8307H44.0678C45.0407 38.8307 45.5271 38.3443 45.5271 37.3714V34.9392ZM51.5822 43.5734C56.0249 43.8166 59.0327 43.9382 60.6055 43.9382C60.9784 43.9382 61.2703 43.8328 61.4811 43.622C61.7081 43.395 61.8216 43.0951 61.8216 42.7221V40.5332H56.2276C54.5251 40.5332 53.2847 40.1522 52.5064 39.3901C51.7443 38.6118 51.3633 37.3714 51.3633 35.6689V34.9392C51.3633 33.2367 51.7443 32.0045 52.5064 31.2424C53.2847 30.4641 54.5251 30.0749 56.2276 30.0749H64.7645V33.48H57.2005C56.2276 33.48 55.7412 33.9664 55.7412 34.9392V35.4257C55.7412 36.3985 56.2276 36.885 57.2005 36.885H61.5783C63.1673 36.885 64.3348 37.2579 65.0806 38.0038C65.8265 38.7496 66.1994 39.917 66.1994 41.5061V42.7221C66.1994 44.3111 65.8265 45.4786 65.0806 46.2244C64.3348 46.9703 63.1673 47.3432 61.5783 47.3432C60.7514 47.3432 59.8758 47.327 58.9516 47.2946L56.714 47.1973C55.0602 47.1162 53.3496 47.0027 51.5822 46.8568V43.5734Z" fill="#F5F1EE"/>
</g>
<g id="Group 159">
<g id="SEASON 6" filter="url(#filter1_f_747_7)">
<path d="M16.7807 25.8655C18.5879 25.9645 19.8113 26.0139 20.4511 26.0139C20.6028 26.0139 20.7215 25.9711 20.8072 25.8853C20.8996 25.793 20.9457 25.671 20.9457 25.5193V24.6289H18.6703C17.9778 24.6289 17.4732 24.4739 17.1566 24.1639C16.8466 23.8473 16.6916 23.3427 16.6916 22.6502V22.3534C16.6916 21.6609 16.8466 21.1596 17.1566 20.8496C17.4732 20.533 17.9778 20.3748 18.6703 20.3748H22.1428V21.7598H19.066C18.6703 21.7598 18.4724 21.9577 18.4724 22.3534V22.5513C18.4724 22.947 18.6703 23.1449 19.066 23.1449H20.8468C21.4932 23.1449 21.9681 23.2966 22.2714 23.6C22.5748 23.9034 22.7265 24.3782 22.7265 25.0246V25.5193C22.7265 26.1656 22.5748 26.6405 22.2714 26.9439C21.9681 27.2473 21.4932 27.399 20.8468 27.399C20.5104 27.399 20.1543 27.3924 19.7783 27.3792L18.8682 27.3396C18.1954 27.3066 17.4996 27.2605 16.7807 27.2011V25.8655ZM29.1069 27.3H23.6162V20.3748H29.1069V21.7598H25.397V23.0954H28.3155V24.4805H25.397V25.915H29.1069V27.3ZM31.1327 27.3H29.2035L31.8253 20.3748H33.8039L36.4256 27.3H34.4964L34.0513 26.0634H31.5779L31.1327 27.3ZM32.0231 24.7773H33.6061L32.8146 22.4523L32.0231 24.7773ZM36.7122 25.8655C38.5193 25.9645 39.7428 26.0139 40.3826 26.0139C40.5343 26.0139 40.653 25.9711 40.7387 25.8853C40.8311 25.793 40.8772 25.671 40.8772 25.5193V24.6289H38.6018C37.9092 24.6289 37.4047 24.4739 37.0881 24.1639C36.7781 23.8473 36.6231 23.3427 36.6231 22.6502V22.3534C36.6231 21.6609 36.7781 21.1596 37.0881 20.8496C37.4047 20.533 37.9092 20.3748 38.6018 20.3748H42.0743V21.7598H38.9975C38.6018 21.7598 38.4039 21.9577 38.4039 22.3534V22.5513C38.4039 22.947 38.6018 23.1449 38.9975 23.1449H40.7783C41.4247 23.1449 41.8995 23.2966 42.2029 23.6C42.5063 23.9034 42.658 24.3782 42.658 25.0246V25.5193C42.658 26.1656 42.5063 26.6405 42.2029 26.9439C41.8995 27.2473 41.4247 27.399 40.7783 27.399C40.4419 27.399 40.0858 27.3924 39.7098 27.3792L38.7996 27.3396C38.1269 27.3066 37.4311 27.2605 36.7122 27.2011V25.8655ZM47.9996 22.2545C47.9996 21.8587 47.8017 21.6609 47.406 21.6609H45.7242C45.3284 21.6609 45.1306 21.8587 45.1306 22.2545V25.4203C45.1306 25.8161 45.3284 26.0139 45.7242 26.0139H47.406C47.8017 26.0139 47.9996 25.8161 47.9996 25.4203V22.2545ZM49.7804 25.4203C49.7804 26.1129 49.6221 26.6174 49.3055 26.934C48.9955 27.244 48.4943 27.399 47.8017 27.399H45.3284C44.6359 27.399 44.1313 27.244 43.8148 26.934C43.5048 26.6174 43.3498 26.1129 43.3498 25.4203V22.2545C43.3498 21.5619 43.5048 21.0607 43.8148 20.7507C44.1313 20.4341 44.6359 20.2758 45.3284 20.2758H47.8017C48.4943 20.2758 48.9955 20.4341 49.3055 20.7507C49.6221 21.0607 49.7804 21.5619 49.7804 22.2545V25.4203ZM56.8093 27.3H54.9295L52.5552 23.1449V27.3H50.7744V20.3748H52.6541L55.0285 24.5299V20.3748H56.8093V27.3ZM62.649 20.2758C63.5526 20.2758 64.6409 20.3418 65.9138 20.4737V21.8093C65.551 21.7895 65.241 21.773 64.9838 21.7598C64.7332 21.74 64.5254 21.7268 64.3605 21.7202C64.2023 21.707 64.044 21.6939 63.8857 21.6807C63.6218 21.6675 63.3778 21.6609 63.1536 21.6609C62.7512 21.6609 62.5501 21.8258 62.5501 22.1555V23.0459C63.1898 22.914 63.7505 22.8481 64.2319 22.8481H64.9245C65.373 22.8481 65.7324 22.9833 66.0028 23.2537C66.2732 23.5241 66.4085 23.8836 66.4085 24.3321V25.6182C66.4085 26.2184 66.2568 26.6669 65.9534 26.9637C65.65 27.2539 65.1751 27.399 64.5287 27.399H62.649C62.0026 27.399 61.5278 27.2539 61.2244 26.9637C60.921 26.6669 60.7693 26.2184 60.7693 25.6182V22.1555C60.7693 21.5092 60.921 21.0343 61.2244 20.7309C61.5278 20.4275 62.0026 20.2758 62.649 20.2758ZM63.7373 24.2331C63.4866 24.2331 63.2558 24.2463 63.0447 24.2727C62.8403 24.2991 62.6754 24.3189 62.5501 24.3321V25.4203C62.5501 25.8161 62.7479 26.0139 63.1437 26.0139H64.0341C64.4298 26.0139 64.6277 25.8161 64.6277 25.4203V24.5794C64.6277 24.4805 64.5947 24.398 64.5287 24.3321C64.4628 24.2661 64.3803 24.2331 64.2814 24.2331H63.7373Z" fill="url(#paint3_linear_747_7)"/>
</g>
<path id="SEASON 6_2" d="M16.7807 25.8655C18.5879 25.9645 19.8113 26.0139 20.4511 26.0139C20.6028 26.0139 20.7215 25.9711 20.8072 25.8853C20.8996 25.793 20.9457 25.671 20.9457 25.5193V24.6289H18.6703C17.9778 24.6289 17.4732 24.4739 17.1566 24.1639C16.8466 23.8473 16.6916 23.3427 16.6916 22.6502V22.3534C16.6916 21.6609 16.8466 21.1596 17.1566 20.8496C17.4732 20.533 17.9778 20.3748 18.6703 20.3748H22.1428V21.7598H19.066C18.6703 21.7598 18.4724 21.9577 18.4724 22.3534V22.5513C18.4724 22.947 18.6703 23.1449 19.066 23.1449H20.8468C21.4932 23.1449 21.9681 23.2966 22.2714 23.6C22.5748 23.9034 22.7265 24.3782 22.7265 25.0246V25.5193C22.7265 26.1656 22.5748 26.6405 22.2714 26.9439C21.9681 27.2473 21.4932 27.399 20.8468 27.399C20.5104 27.399 20.1543 27.3924 19.7783 27.3792L18.8682 27.3396C18.1954 27.3066 17.4996 27.2605 16.7807 27.2011V25.8655ZM29.1069 27.3H23.6162V20.3748H29.1069V21.7598H25.397V23.0954H28.3155V24.4805H25.397V25.915H29.1069V27.3ZM31.1327 27.3H29.2035L31.8253 20.3748H33.8039L36.4256 27.3H34.4964L34.0513 26.0634H31.5779L31.1327 27.3ZM32.0231 24.7773H33.6061L32.8146 22.4523L32.0231 24.7773ZM36.7122 25.8655C38.5193 25.9645 39.7428 26.0139 40.3826 26.0139C40.5343 26.0139 40.653 25.9711 40.7387 25.8853C40.8311 25.793 40.8772 25.671 40.8772 25.5193V24.6289H38.6018C37.9092 24.6289 37.4047 24.4739 37.0881 24.1639C36.7781 23.8473 36.6231 23.3427 36.6231 22.6502V22.3534C36.6231 21.6609 36.7781 21.1596 37.0881 20.8496C37.4047 20.533 37.9092 20.3748 38.6018 20.3748H42.0743V21.7598H38.9975C38.6018 21.7598 38.4039 21.9577 38.4039 22.3534V22.5513C38.4039 22.947 38.6018 23.1449 38.9975 23.1449H40.7783C41.4247 23.1449 41.8995 23.2966 42.2029 23.6C42.5063 23.9034 42.658 24.3782 42.658 25.0246V25.5193C42.658 26.1656 42.5063 26.6405 42.2029 26.9439C41.8995 27.2473 41.4247 27.399 40.7783 27.399C40.4419 27.399 40.0858 27.3924 39.7098 27.3792L38.7996 27.3396C38.1269 27.3066 37.4311 27.2605 36.7122 27.2011V25.8655ZM47.9996 22.2545C47.9996 21.8587 47.8017 21.6609 47.406 21.6609H45.7242C45.3284 21.6609 45.1306 21.8587 45.1306 22.2545V25.4203C45.1306 25.8161 45.3284 26.0139 45.7242 26.0139H47.406C47.8017 26.0139 47.9996 25.8161 47.9996 25.4203V22.2545ZM49.7804 25.4203C49.7804 26.1129 49.6221 26.6174 49.3055 26.934C48.9955 27.244 48.4943 27.399 47.8017 27.399H45.3284C44.6359 27.399 44.1313 27.244 43.8148 26.934C43.5048 26.6174 43.3498 26.1129 43.3498 25.4203V22.2545C43.3498 21.5619 43.5048 21.0607 43.8148 20.7507C44.1313 20.4341 44.6359 20.2758 45.3284 20.2758H47.8017C48.4943 20.2758 48.9955 20.4341 49.3055 20.7507C49.6221 21.0607 49.7804 21.5619 49.7804 22.2545V25.4203ZM56.8093 27.3H54.9295L52.5552 23.1449V27.3H50.7744V20.3748H52.6541L55.0285 24.5299V20.3748H56.8093V27.3ZM62.649 20.2758C63.5526 20.2758 64.6409 20.3418 65.9138 20.4737V21.8093C65.551 21.7895 65.241 21.773 64.9838 21.7598C64.7332 21.74 64.5254 21.7268 64.3605 21.7202C64.2023 21.707 64.044 21.6939 63.8857 21.6807C63.6218 21.6675 63.3778 21.6609 63.1536 21.6609C62.7512 21.6609 62.5501 21.8258 62.5501 22.1555V23.0459C63.1898 22.914 63.7505 22.8481 64.2319 22.8481H64.9245C65.373 22.8481 65.7324 22.9833 66.0028 23.2537C66.2732 23.5241 66.4085 23.8836 66.4085 24.3321V25.6182C66.4085 26.2184 66.2568 26.6669 65.9534 26.9637C65.65 27.2539 65.1751 27.399 64.5287 27.399H62.649C62.0026 27.399 61.5278 27.2539 61.2244 26.9637C60.921 26.6669 60.7693 26.2184 60.7693 25.6182V22.1555C60.7693 21.5092 60.921 21.0343 61.2244 20.7309C61.5278 20.4275 62.0026 20.2758 62.649 20.2758ZM63.7373 24.2331C63.4866 24.2331 63.2558 24.2463 63.0447 24.2727C62.8403 24.2991 62.6754 24.3189 62.5501 24.3321V25.4203C62.5501 25.8161 62.7479 26.0139 63.1437 26.0139H64.0341C64.4298 26.0139 64.6277 25.8161 64.6277 25.4203V24.5794C64.6277 24.4805 64.5947 24.398 64.5287 24.3321C64.4628 24.2661 64.3803 24.2331 64.2814 24.2331H63.7373Z" fill="#F5F1EE"/>
</g>
<g id="Group 160">
<g id="ESL" filter="url(#filter2_f_747_7)">
<path d="M38.8884 55H33.8821V48.6858H38.8884V49.9486H35.5058V51.1664H38.1668V52.4292H35.5058V53.7372H38.8884V55ZM39.4185 53.6921C41.0662 53.7823 42.1817 53.8274 42.765 53.8274C42.9033 53.8274 43.0116 53.7883 43.0898 53.7101C43.174 53.6259 43.216 53.5147 43.216 53.3763V52.5645H41.1414C40.5099 52.5645 40.0499 52.4232 39.7613 52.1406C39.4786 51.8519 39.3373 51.3919 39.3373 50.7604V50.4898C39.3373 49.8584 39.4786 49.4014 39.7613 49.1187C40.0499 48.8301 40.5099 48.6858 41.1414 48.6858H44.3075V49.9486H41.5022C41.1414 49.9486 40.961 50.129 40.961 50.4898V50.6702C40.961 51.0311 41.1414 51.2115 41.5022 51.2115H43.1258C43.7152 51.2115 44.1481 51.3498 44.4248 51.6264C44.7014 51.903 44.8397 52.336 44.8397 52.9253V53.3763C44.8397 53.9657 44.7014 54.3986 44.4248 54.6753C44.1481 54.9519 43.7152 55.0902 43.1258 55.0902C42.8192 55.0902 42.4944 55.0842 42.1516 55.0722L41.3218 55.0361C40.7084 55.006 40.074 54.9639 39.4185 54.9098V53.6921ZM47.2745 53.7372H50.5669V55H45.6508V48.6858H47.2745V53.7372Z" fill="url(#paint4_linear_747_7)"/>
</g>
<path id="ESL_2" d="M38.8884 55H33.8821V48.6858H38.8884V49.9486H35.5058V51.1664H38.1668V52.4292H35.5058V53.7372H38.8884V55ZM39.4185 53.6921C41.0662 53.7823 42.1817 53.8274 42.765 53.8274C42.9033 53.8274 43.0116 53.7883 43.0898 53.7101C43.174 53.6259 43.216 53.5147 43.216 53.3763V52.5645H41.1414C40.5099 52.5645 40.0499 52.4232 39.7613 52.1406C39.4786 51.8519 39.3373 51.3919 39.3373 50.7604V50.4898C39.3373 49.8584 39.4786 49.4014 39.7613 49.1187C40.0499 48.8301 40.5099 48.6858 41.1414 48.6858H44.3075V49.9486H41.5022C41.1414 49.9486 40.961 50.129 40.961 50.4898V50.6702C40.961 51.0311 41.1414 51.2115 41.5022 51.2115H43.1258C43.7152 51.2115 44.1481 51.3498 44.4248 51.6264C44.7014 51.903 44.8397 52.336 44.8397 52.9253V53.3763C44.8397 53.9657 44.7014 54.3986 44.4248 54.6753C44.1481 54.9519 43.7152 55.0902 43.1258 55.0902C42.8192 55.0902 42.4944 55.0842 42.1516 55.0722L41.3218 55.0361C40.7084 55.006 40.074 54.9639 39.4185 54.9098V53.6921ZM47.2745 53.7372H50.5669V55H45.6508V48.6858H47.2745V53.7372Z" fill="#F5F1EE"/>
</g>
</g>
</g>
<defs>
<filter id="filter0_f_747_7" x="14.2532" y="26.5256" width="55.4955" height="24.3669" filterUnits="userSpaceOnUse" color-interpolation-filters="sRGB">
<feFlood flood-opacity="0" result="BackgroundImageFix"/>
<feBlend mode="normal" in="SourceGraphic" in2="BackgroundImageFix" result="shape"/>
<feGaussianBlur stdDeviation="1.77465" result="effect1_foregroundBlur_747_7"/>
</filter>
<filter id="filter1_f_747_7" x="15.2479" y="18.8321" width="52.6043" height="10.0107" filterUnits="userSpaceOnUse" color-interpolation-filters="sRGB">
<feFlood flood-opacity="0" result="BackgroundImageFix"/>
<feBlend mode="normal" in="SourceGraphic" in2="BackgroundImageFix" result="shape"/>
<feGaussianBlur stdDeviation="0.721875" result="effect1_foregroundBlur_747_7"/>
</filter>
<filter id="filter2_f_747_7" x="28.8821" y="43.6858" width="26.6848" height="16.4044" filterUnits="userSpaceOnUse" color-interpolation-filters="sRGB">
<feFlood flood-opacity="0" result="BackgroundImageFix"/>
<feBlend mode="normal" in="SourceGraphic" in2="BackgroundImageFix" result="shape"/>
<feGaussianBlur stdDeviation="2.5" result="effect1_foregroundBlur_747_7"/>
</filter>
<linearGradient id="paint0_linear_747_7" x1="3.69477" y1="35.0541" x2="78.2811" y2="35.0541" gradientUnits="userSpaceOnUse">
<stop stop-color="#AB750F"/>
<stop offset="0.516" stop-color="#D8A956"/>
<stop offset="1" stop-color="#AB750F"/>
</linearGradient>
<linearGradient id="paint1_linear_747_7" x1="52.013" y1="6.3" x2="52.013" y2="63.2372" gradientUnits="userSpaceOnUse">
<stop stop-color="#AB750F"/>
<stop offset="0.516" stop-color="#D8A956"/>
<stop offset="1" stop-color="#AB750F"/>
</linearGradient>
<linearGradient id="paint2_linear_747_7" x1="14.6626" y1="38.6001" x2="67.9146" y2="38.6001" gradientUnits="userSpaceOnUse">
<stop stop-color="#AB750F"/>
<stop offset="0.516" stop-color="#D8A956"/>
<stop offset="1" stop-color="#AB750F"/>
</linearGradient>
<linearGradient id="paint3_linear_747_7" x1="13.6159" y1="23.8001" x2="67.9329" y2="23.8001" gradientUnits="userSpaceOnUse">
<stop stop-color="#AB750F"/>
<stop offset="0.516" stop-color="#D8A956"/>
<stop offset="1" stop-color="#AB750F"/>
</linearGradient>
<linearGradient id="paint4_linear_747_7" x1="32.1586" y1="52" x2="51.3293" y2="52" gradientUnits="userSpaceOnUse">
<stop stop-color="#AB750F"/>
<stop offset="0.516" stop-color="#D8A956"/>
<stop offset="1" stop-color="#AB750F"/>
</linearGradient>
<clipPath id="clip0_747_7">
<rect width="70" height="70" fill="white" transform="translate(7)"/>
</clipPath>
</defs>
</svg>
