<svg width="84" height="70" viewBox="0 0 84 70" fill="none" xmlns="http://www.w3.org/2000/svg">
<g id="icon-sticker-s6-sps">
<g id="SPS-ESL" clip-path="url(#clip0_722_847)">
<g id="Subtract">
<mask id="path-1-outside-1_722_847" maskUnits="userSpaceOnUse" x="6.79999" y="-0.6" width="71" height="71" fill="black">
<rect fill="white" x="6.79999" y="-0.6" width="71" height="71"/>
<path d="M25.2 15.4C25.2 15.4 23.1 11.2 25.4257 5.88674C14.2429 12.3597 5.23041 27.2588 18.83 37.21C20.5446 38.4647 22.1591 39.517 23.6498 40.4886C30.9638 45.2559 34.3504 47.757 32.9 63C34.2459 48.8558 16.7311 51.3377 9.79999 43.938C13.6864 58.2137 26.7109 68.7077 42.1797 68.7077C60.7152 68.7077 75.6 53.5865 75.6 35C75.6 16.4135 60.9 1.4 43.4 1.4C32.2 1.4 25.2 11.2 25.2 15.4Z"/>
</mask>
<path d="M25.2 15.4C25.2 15.4 23.1 11.2 25.4257 5.88674C14.2429 12.3597 5.23041 27.2588 18.83 37.21C20.5446 38.4647 22.1591 39.517 23.6498 40.4886C30.9638 45.2559 34.3504 47.757 32.9 63C34.2459 48.8558 16.7311 51.3377 9.79999 43.938C13.6864 58.2137 26.7109 68.7077 42.1797 68.7077C60.7152 68.7077 75.6 53.5865 75.6 35C75.6 16.4135 60.9 1.4 43.4 1.4C32.2 1.4 25.2 11.2 25.2 15.4Z" fill="#212121"/>
<path d="M25.2 15.4C25.2 15.4 23.1 11.2 25.4257 5.88674C14.2429 12.3597 5.23041 27.2588 18.83 37.21C20.5446 38.4647 22.1591 39.517 23.6498 40.4886C30.9638 45.2559 34.3504 47.757 32.9 63C34.2459 48.8558 16.7311 51.3377 9.79999 43.938C13.6864 58.2137 26.7109 68.7077 42.1797 68.7077C60.7152 68.7077 75.6 53.5865 75.6 35C75.6 16.4135 60.9 1.4 43.4 1.4C32.2 1.4 25.2 11.2 25.2 15.4Z" stroke="url(#paint0_linear_722_847)" stroke-width="2.8" stroke-miterlimit="16" mask="url(#path-1-outside-1_722_847)"/>
</g>
<path id="Vector 224" d="M53.9259 63.2041C53.9105 63.2172 53.8961 63.2282 53.8827 63.2372C53.8971 63.2261 53.9115 63.2151 53.9259 63.2041C55.066 62.2328 61.5259 49.9643 55.8964 39.0064C50.1909 27.9006 25.1053 23.2932 35.318 10.3585C48.2901 -6.07119 96.4732 30.5681 53.9259 63.2041Z" fill="url(#paint1_linear_722_847)"/>
<g id="Group 156">
<g id="SPS" filter="url(#filter0_f_722_847)">
<path d="M18.5214 43.5734C22.9641 43.8166 25.9719 43.9382 27.5446 43.9382C27.9176 43.9382 28.2094 43.8328 28.4202 43.622C28.6472 43.395 28.7607 43.0951 28.7607 42.7221V40.5332H23.1668C21.4643 40.5332 20.2239 40.1522 19.4456 39.3901C18.6835 38.6118 18.3025 37.3714 18.3025 35.6689V34.9392C18.3025 33.2367 18.6835 32.0045 19.4456 31.2424C20.2239 30.4641 21.4643 30.0749 23.1668 30.0749H31.7036V33.48H24.1396C23.1668 33.48 22.6803 33.9664 22.6803 34.9392V35.4257C22.6803 36.3985 23.1668 36.885 24.1396 36.885H28.5175C30.1065 36.885 31.2739 37.2579 32.0198 38.0038C32.7657 38.7496 33.1386 39.917 33.1386 41.5061V42.7221C33.1386 44.3111 32.7657 45.4786 32.0198 46.2244C31.2739 46.9703 30.1065 47.3432 28.5175 47.3432C27.6906 47.3432 26.815 47.327 25.8908 47.2946L23.6532 47.1973C21.9993 47.1162 20.2887 47.0027 18.5214 46.8568V43.5734ZM35.3256 30.0749H45.5407C47.2432 30.0749 48.4755 30.4641 49.2375 31.2424C50.0158 32.0045 50.405 33.2367 50.405 34.9392V37.3714C50.405 39.0739 50.0158 40.3143 49.2375 41.0926C48.4755 41.8547 47.2432 42.2357 45.5407 42.2357H39.7035V47.1H35.3256V30.0749ZM46.0271 34.9392C46.0271 33.9664 45.5407 33.48 44.5678 33.48H39.7035V38.8307H44.5678C45.5407 38.8307 46.0271 38.3443 46.0271 37.3714V34.9392ZM52.0822 43.5734C56.5249 43.8166 59.5327 43.9382 61.1055 43.9382C61.4784 43.9382 61.7703 43.8328 61.9811 43.622C62.2081 43.395 62.3216 43.0951 62.3216 42.7221V40.5332H56.7276C55.0251 40.5332 53.7847 40.1522 53.0064 39.3901C52.2443 38.6118 51.8633 37.3714 51.8633 35.6689V34.9392C51.8633 33.2367 52.2443 32.0045 53.0064 31.2424C53.7847 30.4641 55.0251 30.0749 56.7276 30.0749H65.2645V33.48H57.7005C56.7276 33.48 56.2412 33.9664 56.2412 34.9392V35.4257C56.2412 36.3985 56.7276 36.885 57.7005 36.885H62.0783C63.6673 36.885 64.8348 37.2579 65.5806 38.0038C66.3265 38.7496 66.6994 39.917 66.6994 41.5061V42.7221C66.6994 44.3111 66.3265 45.4786 65.5806 46.2244C64.8348 46.9703 63.6673 47.3432 62.0783 47.3432C61.2514 47.3432 60.3758 47.327 59.4516 47.2946L57.214 47.1973C55.5602 47.1162 53.8496 47.0027 52.0822 46.8568V43.5734Z" fill="url(#paint2_linear_722_847)"/>
</g>
<path id="SPS_2" d="M18.5214 43.5734C22.9641 43.8166 25.9719 43.9382 27.5446 43.9382C27.9176 43.9382 28.2094 43.8328 28.4202 43.622C28.6472 43.395 28.7607 43.0951 28.7607 42.7221V40.5332H23.1668C21.4643 40.5332 20.2239 40.1522 19.4456 39.3901C18.6835 38.6118 18.3025 37.3714 18.3025 35.6689V34.9392C18.3025 33.2367 18.6835 32.0045 19.4456 31.2424C20.2239 30.4641 21.4643 30.0749 23.1668 30.0749H31.7036V33.48H24.1396C23.1668 33.48 22.6803 33.9664 22.6803 34.9392V35.4257C22.6803 36.3985 23.1668 36.885 24.1396 36.885H28.5175C30.1065 36.885 31.2739 37.2579 32.0198 38.0038C32.7657 38.7496 33.1386 39.917 33.1386 41.5061V42.7221C33.1386 44.3111 32.7657 45.4786 32.0198 46.2244C31.2739 46.9703 30.1065 47.3432 28.5175 47.3432C27.6906 47.3432 26.815 47.327 25.8908 47.2946L23.6532 47.1973C21.9993 47.1162 20.2887 47.0027 18.5214 46.8568V43.5734ZM35.3256 30.0749H45.5407C47.2432 30.0749 48.4755 30.4641 49.2375 31.2424C50.0158 32.0045 50.405 33.2367 50.405 34.9392V37.3714C50.405 39.0739 50.0158 40.3143 49.2375 41.0926C48.4755 41.8547 47.2432 42.2357 45.5407 42.2357H39.7035V47.1H35.3256V30.0749ZM46.0271 34.9392C46.0271 33.9664 45.5407 33.48 44.5678 33.48H39.7035V38.8307H44.5678C45.5407 38.8307 46.0271 38.3443 46.0271 37.3714V34.9392ZM52.0822 43.5734C56.5249 43.8166 59.5327 43.9382 61.1055 43.9382C61.4784 43.9382 61.7703 43.8328 61.9811 43.622C62.2081 43.395 62.3216 43.0951 62.3216 42.7221V40.5332H56.7276C55.0251 40.5332 53.7847 40.1522 53.0064 39.3901C52.2443 38.6118 51.8633 37.3714 51.8633 35.6689V34.9392C51.8633 33.2367 52.2443 32.0045 53.0064 31.2424C53.7847 30.4641 55.0251 30.0749 56.7276 30.0749H65.2645V33.48H57.7005C56.7276 33.48 56.2412 33.9664 56.2412 34.9392V35.4257C56.2412 36.3985 56.7276 36.885 57.7005 36.885H62.0783C63.6673 36.885 64.8348 37.2579 65.5806 38.0038C66.3265 38.7496 66.6994 39.917 66.6994 41.5061V42.7221C66.6994 44.3111 66.3265 45.4786 65.5806 46.2244C64.8348 46.9703 63.6673 47.3432 62.0783 47.3432C61.2514 47.3432 60.3758 47.327 59.4516 47.2946L57.214 47.1973C55.5602 47.1162 53.8496 47.0027 52.0822 46.8568V43.5734Z" fill="#F5F1EE"/>
</g>
<g id="Group 159">
<g id="SEASON 6" filter="url(#filter1_f_722_847)">
<path d="M18.2807 25.8655C20.0879 25.9644 21.3113 26.0139 21.9511 26.0139C22.1028 26.0139 22.2215 25.971 22.3072 25.8853C22.3996 25.7929 22.4457 25.6709 22.4457 25.5192V24.6288H20.1703C19.4778 24.6288 18.9732 24.4738 18.6566 24.1638C18.3466 23.8472 18.1916 23.3427 18.1916 22.6502V22.3534C18.1916 21.6608 18.3466 21.1596 18.6566 20.8496C18.9732 20.533 19.4778 20.3747 20.1703 20.3747H23.6428V21.7598H20.566C20.1703 21.7598 19.9724 21.9576 19.9724 22.3534V22.5512C19.9724 22.947 20.1703 23.1448 20.566 23.1448H22.3468C22.9932 23.1448 23.4681 23.2965 23.7714 23.5999C24.0748 23.9033 24.2265 24.3782 24.2265 25.0245V25.5192C24.2265 26.1656 24.0748 26.6404 23.7714 26.9438C23.4681 27.2472 22.9932 27.3989 22.3468 27.3989C22.0104 27.3989 21.6543 27.3923 21.2783 27.3791L20.3682 27.3396C19.6954 27.3066 18.9996 27.2604 18.2807 27.2011V25.8655ZM30.6069 27.3H25.1162V20.3747H30.6069V21.7598H26.897V23.0954H29.8155V24.4804H26.897V25.9149H30.6069V27.3ZM32.6327 27.3H30.7035L33.3253 20.3747H35.3039L37.9256 27.3H35.9964L35.5513 26.0633H33.0779L32.6327 27.3ZM33.5231 24.7772H35.1061L34.3146 22.4523L33.5231 24.7772ZM38.2122 25.8655C40.0193 25.9644 41.2428 26.0139 41.8826 26.0139C42.0343 26.0139 42.153 25.971 42.2387 25.8853C42.3311 25.7929 42.3772 25.6709 42.3772 25.5192V24.6288H40.1018C39.4092 24.6288 38.9047 24.4738 38.5881 24.1638C38.2781 23.8472 38.1231 23.3427 38.1231 22.6502V22.3534C38.1231 21.6608 38.2781 21.1596 38.5881 20.8496C38.9047 20.533 39.4092 20.3747 40.1018 20.3747H43.5743V21.7598H40.4975C40.1018 21.7598 39.9039 21.9576 39.9039 22.3534V22.5512C39.9039 22.947 40.1018 23.1448 40.4975 23.1448H42.2783C42.9247 23.1448 43.3995 23.2965 43.7029 23.5999C44.0063 23.9033 44.158 24.3782 44.158 25.0245V25.5192C44.158 26.1656 44.0063 26.6404 43.7029 26.9438C43.3995 27.2472 42.9247 27.3989 42.2783 27.3989C41.9419 27.3989 41.5858 27.3923 41.2098 27.3791L40.2996 27.3396C39.6269 27.3066 38.9311 27.2604 38.2122 27.2011V25.8655ZM49.4996 22.2544C49.4996 21.8587 49.3017 21.6608 48.906 21.6608H47.2242C46.8284 21.6608 46.6306 21.8587 46.6306 22.2544V25.4203C46.6306 25.816 46.8284 26.0139 47.2242 26.0139H48.906C49.3017 26.0139 49.4996 25.816 49.4996 25.4203V22.2544ZM51.2804 25.4203C51.2804 26.1128 51.1221 26.6174 50.8055 26.9339C50.4955 27.2439 49.9943 27.3989 49.3017 27.3989H46.8284C46.1359 27.3989 45.6313 27.2439 45.3148 26.9339C45.0048 26.6174 44.8498 26.1128 44.8498 25.4203V22.2544C44.8498 21.5619 45.0048 21.0606 45.3148 20.7506C45.6313 20.4341 46.1359 20.2758 46.8284 20.2758H49.3017C49.9943 20.2758 50.4955 20.4341 50.8055 20.7506C51.1221 21.0606 51.2804 21.5619 51.2804 22.2544V25.4203ZM58.3093 27.3H56.4295L54.0552 23.1448V27.3H52.2744V20.3747H54.1541L56.5285 24.5299V20.3747H58.3093V27.3ZM64.149 20.2758C65.0526 20.2758 66.1409 20.3417 67.4138 20.4736V21.8092C67.051 21.7894 66.741 21.773 66.4838 21.7598C66.2332 21.74 66.0254 21.7268 65.8605 21.7202C65.7023 21.707 65.544 21.6938 65.3857 21.6806C65.1218 21.6674 64.8778 21.6608 64.6536 21.6608C64.2512 21.6608 64.0501 21.8257 64.0501 22.1555V23.0459C64.6898 22.914 65.2505 22.848 65.7319 22.848H66.4245C66.873 22.848 67.2324 22.9832 67.5028 23.2536C67.7732 23.5241 67.9085 23.8835 67.9085 24.332V25.6181C67.9085 26.2183 67.7568 26.6668 67.4534 26.9636C67.15 27.2538 66.6751 27.3989 66.0287 27.3989H64.149C63.5026 27.3989 63.0278 27.2538 62.7244 26.9636C62.421 26.6668 62.2693 26.2183 62.2693 25.6181V22.1555C62.2693 21.5091 62.421 21.0343 62.7244 20.7309C63.0278 20.4275 63.5026 20.2758 64.149 20.2758ZM65.2373 24.2331C64.9866 24.2331 64.7558 24.2463 64.5447 24.2727C64.3403 24.299 64.1754 24.3188 64.0501 24.332V25.4203C64.0501 25.816 64.2479 26.0139 64.6437 26.0139H65.5341C65.9298 26.0139 66.1277 25.816 66.1277 25.4203V24.5793C66.1277 24.4804 66.0947 24.398 66.0287 24.332C65.9628 24.2661 65.8803 24.2331 65.7814 24.2331H65.2373Z" fill="url(#paint3_linear_722_847)"/>
</g>
<path id="SEASON 6_2" d="M18.2807 25.8655C20.0879 25.9644 21.3113 26.0139 21.9511 26.0139C22.1028 26.0139 22.2215 25.971 22.3072 25.8853C22.3996 25.7929 22.4457 25.6709 22.4457 25.5192V24.6288H20.1703C19.4778 24.6288 18.9732 24.4738 18.6566 24.1638C18.3466 23.8472 18.1916 23.3427 18.1916 22.6502V22.3534C18.1916 21.6608 18.3466 21.1596 18.6566 20.8496C18.9732 20.533 19.4778 20.3747 20.1703 20.3747H23.6428V21.7598H20.566C20.1703 21.7598 19.9724 21.9576 19.9724 22.3534V22.5512C19.9724 22.947 20.1703 23.1448 20.566 23.1448H22.3468C22.9932 23.1448 23.4681 23.2965 23.7714 23.5999C24.0748 23.9033 24.2265 24.3782 24.2265 25.0245V25.5192C24.2265 26.1656 24.0748 26.6404 23.7714 26.9438C23.4681 27.2472 22.9932 27.3989 22.3468 27.3989C22.0104 27.3989 21.6543 27.3923 21.2783 27.3791L20.3682 27.3396C19.6954 27.3066 18.9996 27.2604 18.2807 27.2011V25.8655ZM30.6069 27.3H25.1162V20.3747H30.6069V21.7598H26.897V23.0954H29.8155V24.4804H26.897V25.9149H30.6069V27.3ZM32.6327 27.3H30.7035L33.3253 20.3747H35.3039L37.9256 27.3H35.9964L35.5513 26.0633H33.0779L32.6327 27.3ZM33.5231 24.7772H35.1061L34.3146 22.4523L33.5231 24.7772ZM38.2122 25.8655C40.0193 25.9644 41.2428 26.0139 41.8826 26.0139C42.0343 26.0139 42.153 25.971 42.2387 25.8853C42.3311 25.7929 42.3772 25.6709 42.3772 25.5192V24.6288H40.1018C39.4092 24.6288 38.9047 24.4738 38.5881 24.1638C38.2781 23.8472 38.1231 23.3427 38.1231 22.6502V22.3534C38.1231 21.6608 38.2781 21.1596 38.5881 20.8496C38.9047 20.533 39.4092 20.3747 40.1018 20.3747H43.5743V21.7598H40.4975C40.1018 21.7598 39.9039 21.9576 39.9039 22.3534V22.5512C39.9039 22.947 40.1018 23.1448 40.4975 23.1448H42.2783C42.9247 23.1448 43.3995 23.2965 43.7029 23.5999C44.0063 23.9033 44.158 24.3782 44.158 25.0245V25.5192C44.158 26.1656 44.0063 26.6404 43.7029 26.9438C43.3995 27.2472 42.9247 27.3989 42.2783 27.3989C41.9419 27.3989 41.5858 27.3923 41.2098 27.3791L40.2996 27.3396C39.6269 27.3066 38.9311 27.2604 38.2122 27.2011V25.8655ZM49.4996 22.2544C49.4996 21.8587 49.3017 21.6608 48.906 21.6608H47.2242C46.8284 21.6608 46.6306 21.8587 46.6306 22.2544V25.4203C46.6306 25.816 46.8284 26.0139 47.2242 26.0139H48.906C49.3017 26.0139 49.4996 25.816 49.4996 25.4203V22.2544ZM51.2804 25.4203C51.2804 26.1128 51.1221 26.6174 50.8055 26.9339C50.4955 27.2439 49.9943 27.3989 49.3017 27.3989H46.8284C46.1359 27.3989 45.6313 27.2439 45.3148 26.9339C45.0048 26.6174 44.8498 26.1128 44.8498 25.4203V22.2544C44.8498 21.5619 45.0048 21.0606 45.3148 20.7506C45.6313 20.4341 46.1359 20.2758 46.8284 20.2758H49.3017C49.9943 20.2758 50.4955 20.4341 50.8055 20.7506C51.1221 21.0606 51.2804 21.5619 51.2804 22.2544V25.4203ZM58.3093 27.3H56.4295L54.0552 23.1448V27.3H52.2744V20.3747H54.1541L56.5285 24.5299V20.3747H58.3093V27.3ZM64.149 20.2758C65.0526 20.2758 66.1409 20.3417 67.4138 20.4736V21.8092C67.051 21.7894 66.741 21.773 66.4838 21.7598C66.2332 21.74 66.0254 21.7268 65.8605 21.7202C65.7023 21.707 65.544 21.6938 65.3857 21.6806C65.1218 21.6674 64.8778 21.6608 64.6536 21.6608C64.2512 21.6608 64.0501 21.8257 64.0501 22.1555V23.0459C64.6898 22.914 65.2505 22.848 65.7319 22.848H66.4245C66.873 22.848 67.2324 22.9832 67.5028 23.2536C67.7732 23.5241 67.9085 23.8835 67.9085 24.332V25.6181C67.9085 26.2183 67.7568 26.6668 67.4534 26.9636C67.15 27.2538 66.6751 27.3989 66.0287 27.3989H64.149C63.5026 27.3989 63.0278 27.2538 62.7244 26.9636C62.421 26.6668 62.2693 26.2183 62.2693 25.6181V22.1555C62.2693 21.5091 62.421 21.0343 62.7244 20.7309C63.0278 20.4275 63.5026 20.2758 64.149 20.2758ZM65.2373 24.2331C64.9866 24.2331 64.7558 24.2463 64.5447 24.2727C64.3403 24.299 64.1754 24.3188 64.0501 24.332V25.4203C64.0501 25.816 64.2479 26.0139 64.6437 26.0139H65.5341C65.9298 26.0139 66.1277 25.816 66.1277 25.4203V24.5793C66.1277 24.4804 66.0947 24.398 66.0287 24.332C65.9628 24.2661 65.8803 24.2331 65.7814 24.2331H65.2373Z" fill="#F5F1EE"/>
</g>
<g id="Group 160">
<path id="ESL" d="M41.5883 55H36.5821V48.6858H41.5883V49.9486H38.2057V51.1664H40.8667V52.4292H38.2057V53.7372H41.5883V55ZM42.1184 53.6921C43.7661 53.7823 44.8817 53.8274 45.465 53.8274C45.6033 53.8274 45.7115 53.7883 45.7897 53.7101C45.8739 53.6259 45.916 53.5147 45.916 53.3763V52.5645H43.8413C43.2099 52.5645 42.7499 52.4232 42.4612 52.1406C42.1786 51.8519 42.0373 51.3919 42.0373 50.7604V50.4898C42.0373 49.8584 42.1786 49.4014 42.4612 49.1187C42.7499 48.8301 43.2099 48.6858 43.8413 48.6858H47.0075V49.9486H44.2021C43.8413 49.9486 43.6609 50.129 43.6609 50.4898V50.6702C43.6609 51.0311 43.8413 51.2115 44.2021 51.2115H45.8258C46.4151 51.2115 46.8481 51.3498 47.1247 51.6264C47.4013 51.903 47.5397 52.336 47.5397 52.9253V53.3763C47.5397 53.9657 47.4013 54.3986 47.1247 54.6753C46.8481 54.9519 46.4151 55.0902 45.8258 55.0902C45.5191 55.0902 45.1944 55.0842 44.8516 55.0722L44.0217 55.0361C43.4083 55.006 42.7739 54.9639 42.1184 54.9098V53.6921ZM49.9744 53.7372H53.2669V55H48.3508V48.6858H49.9744V53.7372Z" fill="#F5F1EE"/>
</g>
</g>
</g>
<defs>
<filter id="filter0_f_722_847" x="14.7532" y="26.5256" width="55.4955" height="24.3669" filterUnits="userSpaceOnUse" color-interpolation-filters="sRGB">
<feFlood flood-opacity="0" result="BackgroundImageFix"/>
<feBlend mode="normal" in="SourceGraphic" in2="BackgroundImageFix" result="shape"/>
<feGaussianBlur stdDeviation="1.77465" result="effect1_foregroundBlur_722_847"/>
</filter>
<filter id="filter1_f_722_847" x="16.7479" y="18.832" width="52.6043" height="10.0107" filterUnits="userSpaceOnUse" color-interpolation-filters="sRGB">
<feFlood flood-opacity="0" result="BackgroundImageFix"/>
<feBlend mode="normal" in="SourceGraphic" in2="BackgroundImageFix" result="shape"/>
<feGaussianBlur stdDeviation="0.721875" result="effect1_foregroundBlur_722_847"/>
</filter>
<linearGradient id="paint0_linear_722_847" x1="6.72397" y1="35.0541" x2="76.8036" y2="35.0541" gradientUnits="userSpaceOnUse">
<stop stop-color="#AB750F"/>
<stop offset="0.516" stop-color="#D8A956"/>
<stop offset="1" stop-color="#AB750F"/>
</linearGradient>
<linearGradient id="paint1_linear_722_847" x1="52.013" y1="6.3" x2="52.013" y2="63.2372" gradientUnits="userSpaceOnUse">
<stop stop-color="#AB750F"/>
<stop offset="0.516" stop-color="#D8A956"/>
<stop offset="1" stop-color="#AB750F"/>
</linearGradient>
<linearGradient id="paint2_linear_722_847" x1="15.1626" y1="38.6001" x2="68.4146" y2="38.6001" gradientUnits="userSpaceOnUse">
<stop stop-color="#AB750F"/>
<stop offset="0.516" stop-color="#D8A956"/>
<stop offset="1" stop-color="#AB750F"/>
</linearGradient>
<linearGradient id="paint3_linear_722_847" x1="15.1159" y1="23.8" x2="69.4329" y2="23.8" gradientUnits="userSpaceOnUse">
<stop stop-color="#AB750F"/>
<stop offset="0.516" stop-color="#D8A956"/>
<stop offset="1" stop-color="#AB750F"/>
</linearGradient>
<clipPath id="clip0_722_847">
<rect width="70" height="70" fill="white" transform="translate(7)"/>
</clipPath>
</defs>
</svg>
