<svg width="84" height="70" viewBox="0 0 84 70" fill="none" xmlns="http://www.w3.org/2000/svg">
<g id="sps6">
<g id="SPS-ESL" clip-path="url(#clip0_114_4594)">
<g id="Subtract">
<mask id="path-1-outside-1_114_4594" maskUnits="userSpaceOnUse" x="6.80005" y="-0.600098" width="71" height="71" fill="black">
<rect fill="white" x="6.80005" y="-0.600098" width="71" height="71"/>
<path d="M25.2001 15.3999C25.2001 15.3999 23.1 11.1999 25.4258 5.88664C14.2429 12.3596 5.23047 27.2587 18.83 37.2099C20.5447 38.4646 22.1592 39.5169 23.6499 40.4885C30.9638 45.2558 34.3505 47.7569 32.9001 62.9999C34.246 48.8557 16.7312 51.3376 9.80005 43.9379C13.6864 58.2136 26.711 68.7076 42.1797 68.7076C60.7152 68.7076 75.6001 53.5864 75.6001 34.9999C75.6001 16.4134 60.9001 1.3999 43.4001 1.3999C32.2001 1.3999 25.2001 11.1999 25.2001 15.3999Z"/>
</mask>
<path d="M25.2001 15.3999C25.2001 15.3999 23.1 11.1999 25.4258 5.88664C14.2429 12.3596 5.23047 27.2587 18.83 37.2099C20.5447 38.4646 22.1592 39.5169 23.6499 40.4885C30.9638 45.2558 34.3505 47.7569 32.9001 62.9999C34.246 48.8557 16.7312 51.3376 9.80005 43.9379C13.6864 58.2136 26.711 68.7076 42.1797 68.7076C60.7152 68.7076 75.6001 53.5864 75.6001 34.9999C75.6001 16.4134 60.9001 1.3999 43.4001 1.3999C32.2001 1.3999 25.2001 11.1999 25.2001 15.3999Z" fill="#212121"/>
<path d="M25.2001 15.3999C25.2001 15.3999 23.1 11.1999 25.4258 5.88664C14.2429 12.3596 5.23047 27.2587 18.83 37.2099C20.5447 38.4646 22.1592 39.5169 23.6499 40.4885C30.9638 45.2558 34.3505 47.7569 32.9001 62.9999C34.246 48.8557 16.7312 51.3376 9.80005 43.9379C13.6864 58.2136 26.711 68.7076 42.1797 68.7076C60.7152 68.7076 75.6001 53.5864 75.6001 34.9999C75.6001 16.4134 60.9001 1.3999 43.4001 1.3999C32.2001 1.3999 25.2001 11.1999 25.2001 15.3999Z" stroke="url(#paint0_linear_114_4594)" stroke-width="2.8" stroke-miterlimit="16" mask="url(#path-1-outside-1_114_4594)"/>
</g>
<path id="Vector 224" d="M53.9258 63.2041C53.9104 63.2172 53.896 63.2283 53.8826 63.2372C53.897 63.2262 53.9114 63.2151 53.9258 63.2041C55.0659 62.2328 61.5258 49.9644 55.8963 39.0064C50.1908 27.9007 25.1052 23.2933 35.3179 10.3585C48.29 -6.07114 96.4731 30.5682 53.9258 63.2041Z" fill="url(#paint1_linear_114_4594)"/>
<g id="Group 156">
<g id="SPS" filter="url(#filter0_f_114_4594)">
<path d="M18.0214 43.5735C22.4641 43.8167 25.4719 43.9383 27.0446 43.9383C27.4176 43.9383 27.7094 43.8329 27.9202 43.6221C28.1472 43.3951 28.2607 43.0952 28.2607 42.7222V40.5333H22.6668C20.9643 40.5333 19.7239 40.1523 18.9456 39.3902C18.1835 38.6119 17.8025 37.3715 17.8025 35.669V34.9393C17.8025 33.2368 18.1835 32.0046 18.9456 31.2425C19.7239 30.4642 20.9643 30.075 22.6668 30.075H31.2036V33.4801H23.6396C22.6668 33.4801 22.1803 33.9665 22.1803 34.9393V35.4258C22.1803 36.3986 22.6668 36.8851 23.6396 36.8851H28.0175C29.6065 36.8851 30.7739 37.258 31.5198 38.0039C32.2657 38.7497 32.6386 39.9171 32.6386 41.5062V42.7222C32.6386 44.3112 32.2657 45.4787 31.5198 46.2245C30.7739 46.9704 29.6065 47.3433 28.0175 47.3433C27.1906 47.3433 26.315 47.3271 25.3908 47.2947L23.1532 47.1974C21.4993 47.1163 19.7887 47.0028 18.0214 46.8569V43.5735ZM34.8256 30.075H45.0407C46.7432 30.075 47.9755 30.4642 48.7375 31.2425C49.5158 32.0046 49.905 33.2368 49.905 34.9393V37.3715C49.905 39.074 49.5158 40.3144 48.7375 41.0927C47.9755 41.8548 46.7432 42.2358 45.0407 42.2358H39.2035V47.1001H34.8256V30.075ZM45.5271 34.9393C45.5271 33.9665 45.0407 33.4801 44.0678 33.4801H39.2035V38.8308H44.0678C45.0407 38.8308 45.5271 38.3444 45.5271 37.3715V34.9393ZM51.5822 43.5735C56.0249 43.8167 59.0327 43.9383 60.6055 43.9383C60.9784 43.9383 61.2703 43.8329 61.4811 43.6221C61.7081 43.3951 61.8216 43.0952 61.8216 42.7222V40.5333H56.2276C54.5251 40.5333 53.2847 40.1523 52.5064 39.3902C51.7443 38.6119 51.3633 37.3715 51.3633 35.669V34.9393C51.3633 33.2368 51.7443 32.0046 52.5064 31.2425C53.2847 30.4642 54.5251 30.075 56.2276 30.075H64.7645V33.4801H57.2005C56.2276 33.4801 55.7412 33.9665 55.7412 34.9393V35.4258C55.7412 36.3986 56.2276 36.8851 57.2005 36.8851H61.5783C63.1673 36.8851 64.3348 37.258 65.0806 38.0039C65.8265 38.7497 66.1994 39.9171 66.1994 41.5062V42.7222C66.1994 44.3112 65.8265 45.4787 65.0806 46.2245C64.3348 46.9704 63.1673 47.3433 61.5783 47.3433C60.7514 47.3433 59.8758 47.3271 58.9516 47.2947L56.714 47.1974C55.0602 47.1163 53.3496 47.0028 51.5822 46.8569V43.5735Z" fill="url(#paint2_linear_114_4594)"/>
</g>
<path id="SPS_2" d="M18.0214 43.5735C22.4641 43.8167 25.4719 43.9383 27.0446 43.9383C27.4176 43.9383 27.7094 43.8329 27.9202 43.6221C28.1472 43.3951 28.2607 43.0952 28.2607 42.7222V40.5333H22.6668C20.9643 40.5333 19.7239 40.1523 18.9456 39.3902C18.1835 38.6119 17.8025 37.3715 17.8025 35.669V34.9393C17.8025 33.2368 18.1835 32.0046 18.9456 31.2425C19.7239 30.4642 20.9643 30.075 22.6668 30.075H31.2036V33.4801H23.6396C22.6668 33.4801 22.1803 33.9665 22.1803 34.9393V35.4258C22.1803 36.3986 22.6668 36.8851 23.6396 36.8851H28.0175C29.6065 36.8851 30.7739 37.258 31.5198 38.0039C32.2657 38.7497 32.6386 39.9171 32.6386 41.5062V42.7222C32.6386 44.3112 32.2657 45.4787 31.5198 46.2245C30.7739 46.9704 29.6065 47.3433 28.0175 47.3433C27.1906 47.3433 26.315 47.3271 25.3908 47.2947L23.1532 47.1974C21.4993 47.1163 19.7887 47.0028 18.0214 46.8569V43.5735ZM34.8256 30.075H45.0407C46.7432 30.075 47.9755 30.4642 48.7375 31.2425C49.5158 32.0046 49.905 33.2368 49.905 34.9393V37.3715C49.905 39.074 49.5158 40.3144 48.7375 41.0927C47.9755 41.8548 46.7432 42.2358 45.0407 42.2358H39.2035V47.1001H34.8256V30.075ZM45.5271 34.9393C45.5271 33.9665 45.0407 33.4801 44.0678 33.4801H39.2035V38.8308H44.0678C45.0407 38.8308 45.5271 38.3444 45.5271 37.3715V34.9393ZM51.5822 43.5735C56.0249 43.8167 59.0327 43.9383 60.6055 43.9383C60.9784 43.9383 61.2703 43.8329 61.4811 43.6221C61.7081 43.3951 61.8216 43.0952 61.8216 42.7222V40.5333H56.2276C54.5251 40.5333 53.2847 40.1523 52.5064 39.3902C51.7443 38.6119 51.3633 37.3715 51.3633 35.669V34.9393C51.3633 33.2368 51.7443 32.0046 52.5064 31.2425C53.2847 30.4642 54.5251 30.075 56.2276 30.075H64.7645V33.4801H57.2005C56.2276 33.4801 55.7412 33.9665 55.7412 34.9393V35.4258C55.7412 36.3986 56.2276 36.8851 57.2005 36.8851H61.5783C63.1673 36.8851 64.3348 37.258 65.0806 38.0039C65.8265 38.7497 66.1994 39.9171 66.1994 41.5062V42.7222C66.1994 44.3112 65.8265 45.4787 65.0806 46.2245C64.3348 46.9704 63.1673 47.3433 61.5783 47.3433C60.7514 47.3433 59.8758 47.3271 58.9516 47.2947L56.714 47.1974C55.0602 47.1163 53.3496 47.0028 51.5822 46.8569V43.5735Z" fill="#F5F1EE"/>
</g>
<g id="Group 159">
<g id="SEASON 6" filter="url(#filter1_f_114_4594)">
<path d="M16.7807 25.8655C18.5879 25.9645 19.8113 26.0139 20.4511 26.0139C20.6028 26.0139 20.7215 25.9711 20.8072 25.8853C20.8996 25.793 20.9457 25.671 20.9457 25.5193V24.6289H18.6703C17.9778 24.6289 17.4732 24.4739 17.1566 24.1639C16.8466 23.8473 16.6916 23.3427 16.6916 22.6502V22.3534C16.6916 21.6609 16.8466 21.1596 17.1566 20.8496C17.4732 20.533 17.9778 20.3748 18.6703 20.3748H22.1428V21.7598H19.066C18.6703 21.7598 18.4724 21.9577 18.4724 22.3534V22.5513C18.4724 22.947 18.6703 23.1449 19.066 23.1449H20.8468C21.4932 23.1449 21.9681 23.2966 22.2714 23.6C22.5748 23.9034 22.7265 24.3782 22.7265 25.0246V25.5193C22.7265 26.1656 22.5748 26.6405 22.2714 26.9439C21.9681 27.2473 21.4932 27.399 20.8468 27.399C20.5104 27.399 20.1543 27.3924 19.7783 27.3792L18.8682 27.3396C18.1954 27.3066 17.4996 27.2605 16.7807 27.2011V25.8655ZM29.1069 27.3H23.6162V20.3748H29.1069V21.7598H25.397V23.0954H28.3155V24.4805H25.397V25.915H29.1069V27.3ZM31.1327 27.3H29.2035L31.8253 20.3748H33.8039L36.4256 27.3H34.4964L34.0513 26.0634H31.5779L31.1327 27.3ZM32.0231 24.7773H33.6061L32.8146 22.4523L32.0231 24.7773ZM36.7122 25.8655C38.5193 25.9645 39.7428 26.0139 40.3826 26.0139C40.5343 26.0139 40.653 25.9711 40.7387 25.8853C40.8311 25.793 40.8772 25.671 40.8772 25.5193V24.6289H38.6018C37.9092 24.6289 37.4047 24.4739 37.0881 24.1639C36.7781 23.8473 36.6231 23.3427 36.6231 22.6502V22.3534C36.6231 21.6609 36.7781 21.1596 37.0881 20.8496C37.4047 20.533 37.9092 20.3748 38.6018 20.3748H42.0743V21.7598H38.9975C38.6018 21.7598 38.4039 21.9577 38.4039 22.3534V22.5513C38.4039 22.947 38.6018 23.1449 38.9975 23.1449H40.7783C41.4247 23.1449 41.8995 23.2966 42.2029 23.6C42.5063 23.9034 42.658 24.3782 42.658 25.0246V25.5193C42.658 26.1656 42.5063 26.6405 42.2029 26.9439C41.8995 27.2473 41.4247 27.399 40.7783 27.399C40.4419 27.399 40.0858 27.3924 39.7098 27.3792L38.7996 27.3396C38.1269 27.3066 37.4311 27.2605 36.7122 27.2011V25.8655ZM47.9996 22.2545C47.9996 21.8587 47.8017 21.6609 47.406 21.6609H45.7242C45.3284 21.6609 45.1306 21.8587 45.1306 22.2545V25.4203C45.1306 25.8161 45.3284 26.0139 45.7242 26.0139H47.406C47.8017 26.0139 47.9996 25.8161 47.9996 25.4203V22.2545ZM49.7804 25.4203C49.7804 26.1129 49.6221 26.6174 49.3055 26.934C48.9955 27.244 48.4943 27.399 47.8017 27.399H45.3284C44.6359 27.399 44.1313 27.244 43.8148 26.934C43.5048 26.6174 43.3498 26.1129 43.3498 25.4203V22.2545C43.3498 21.5619 43.5048 21.0607 43.8148 20.7507C44.1313 20.4341 44.6359 20.2758 45.3284 20.2758H47.8017C48.4943 20.2758 48.9955 20.4341 49.3055 20.7507C49.6221 21.0607 49.7804 21.5619 49.7804 22.2545V25.4203ZM56.8093 27.3H54.9295L52.5552 23.1449V27.3H50.7744V20.3748H52.6541L55.0285 24.5299V20.3748H56.8093V27.3ZM62.649 20.2758C63.5526 20.2758 64.6409 20.3418 65.9138 20.4737V21.8093C65.551 21.7895 65.241 21.773 64.9838 21.7598C64.7332 21.74 64.5254 21.7268 64.3605 21.7202C64.2023 21.707 64.044 21.6939 63.8857 21.6807C63.6218 21.6675 63.3778 21.6609 63.1536 21.6609C62.7512 21.6609 62.5501 21.8258 62.5501 22.1555V23.0459C63.1898 22.914 63.7505 22.8481 64.2319 22.8481H64.9245C65.373 22.8481 65.7324 22.9833 66.0028 23.2537C66.2732 23.5241 66.4085 23.8836 66.4085 24.3321V25.6182C66.4085 26.2184 66.2568 26.6669 65.9534 26.9637C65.65 27.2539 65.1751 27.399 64.5287 27.399H62.649C62.0026 27.399 61.5278 27.2539 61.2244 26.9637C60.921 26.6669 60.7693 26.2184 60.7693 25.6182V22.1555C60.7693 21.5092 60.921 21.0343 61.2244 20.7309C61.5278 20.4275 62.0026 20.2758 62.649 20.2758ZM63.7373 24.2331C63.4866 24.2331 63.2558 24.2463 63.0447 24.2727C62.8403 24.2991 62.6754 24.3189 62.5501 24.3321V25.4203C62.5501 25.8161 62.7479 26.0139 63.1437 26.0139H64.0341C64.4298 26.0139 64.6277 25.8161 64.6277 25.4203V24.5794C64.6277 24.4805 64.5947 24.398 64.5287 24.3321C64.4628 24.2661 64.3803 24.2331 64.2814 24.2331H63.7373Z" fill="url(#paint3_linear_114_4594)"/>
</g>
<path id="SEASON 6_2" d="M16.7807 25.8655C18.5879 25.9645 19.8113 26.0139 20.4511 26.0139C20.6028 26.0139 20.7215 25.9711 20.8072 25.8853C20.8996 25.793 20.9457 25.671 20.9457 25.5193V24.6289H18.6703C17.9778 24.6289 17.4732 24.4739 17.1566 24.1639C16.8466 23.8473 16.6916 23.3427 16.6916 22.6502V22.3534C16.6916 21.6609 16.8466 21.1596 17.1566 20.8496C17.4732 20.533 17.9778 20.3748 18.6703 20.3748H22.1428V21.7598H19.066C18.6703 21.7598 18.4724 21.9577 18.4724 22.3534V22.5513C18.4724 22.947 18.6703 23.1449 19.066 23.1449H20.8468C21.4932 23.1449 21.9681 23.2966 22.2714 23.6C22.5748 23.9034 22.7265 24.3782 22.7265 25.0246V25.5193C22.7265 26.1656 22.5748 26.6405 22.2714 26.9439C21.9681 27.2473 21.4932 27.399 20.8468 27.399C20.5104 27.399 20.1543 27.3924 19.7783 27.3792L18.8682 27.3396C18.1954 27.3066 17.4996 27.2605 16.7807 27.2011V25.8655ZM29.1069 27.3H23.6162V20.3748H29.1069V21.7598H25.397V23.0954H28.3155V24.4805H25.397V25.915H29.1069V27.3ZM31.1327 27.3H29.2035L31.8253 20.3748H33.8039L36.4256 27.3H34.4964L34.0513 26.0634H31.5779L31.1327 27.3ZM32.0231 24.7773H33.6061L32.8146 22.4523L32.0231 24.7773ZM36.7122 25.8655C38.5193 25.9645 39.7428 26.0139 40.3826 26.0139C40.5343 26.0139 40.653 25.9711 40.7387 25.8853C40.8311 25.793 40.8772 25.671 40.8772 25.5193V24.6289H38.6018C37.9092 24.6289 37.4047 24.4739 37.0881 24.1639C36.7781 23.8473 36.6231 23.3427 36.6231 22.6502V22.3534C36.6231 21.6609 36.7781 21.1596 37.0881 20.8496C37.4047 20.533 37.9092 20.3748 38.6018 20.3748H42.0743V21.7598H38.9975C38.6018 21.7598 38.4039 21.9577 38.4039 22.3534V22.5513C38.4039 22.947 38.6018 23.1449 38.9975 23.1449H40.7783C41.4247 23.1449 41.8995 23.2966 42.2029 23.6C42.5063 23.9034 42.658 24.3782 42.658 25.0246V25.5193C42.658 26.1656 42.5063 26.6405 42.2029 26.9439C41.8995 27.2473 41.4247 27.399 40.7783 27.399C40.4419 27.399 40.0858 27.3924 39.7098 27.3792L38.7996 27.3396C38.1269 27.3066 37.4311 27.2605 36.7122 27.2011V25.8655ZM47.9996 22.2545C47.9996 21.8587 47.8017 21.6609 47.406 21.6609H45.7242C45.3284 21.6609 45.1306 21.8587 45.1306 22.2545V25.4203C45.1306 25.8161 45.3284 26.0139 45.7242 26.0139H47.406C47.8017 26.0139 47.9996 25.8161 47.9996 25.4203V22.2545ZM49.7804 25.4203C49.7804 26.1129 49.6221 26.6174 49.3055 26.934C48.9955 27.244 48.4943 27.399 47.8017 27.399H45.3284C44.6359 27.399 44.1313 27.244 43.8148 26.934C43.5048 26.6174 43.3498 26.1129 43.3498 25.4203V22.2545C43.3498 21.5619 43.5048 21.0607 43.8148 20.7507C44.1313 20.4341 44.6359 20.2758 45.3284 20.2758H47.8017C48.4943 20.2758 48.9955 20.4341 49.3055 20.7507C49.6221 21.0607 49.7804 21.5619 49.7804 22.2545V25.4203ZM56.8093 27.3H54.9295L52.5552 23.1449V27.3H50.7744V20.3748H52.6541L55.0285 24.5299V20.3748H56.8093V27.3ZM62.649 20.2758C63.5526 20.2758 64.6409 20.3418 65.9138 20.4737V21.8093C65.551 21.7895 65.241 21.773 64.9838 21.7598C64.7332 21.74 64.5254 21.7268 64.3605 21.7202C64.2023 21.707 64.044 21.6939 63.8857 21.6807C63.6218 21.6675 63.3778 21.6609 63.1536 21.6609C62.7512 21.6609 62.5501 21.8258 62.5501 22.1555V23.0459C63.1898 22.914 63.7505 22.8481 64.2319 22.8481H64.9245C65.373 22.8481 65.7324 22.9833 66.0028 23.2537C66.2732 23.5241 66.4085 23.8836 66.4085 24.3321V25.6182C66.4085 26.2184 66.2568 26.6669 65.9534 26.9637C65.65 27.2539 65.1751 27.399 64.5287 27.399H62.649C62.0026 27.399 61.5278 27.2539 61.2244 26.9637C60.921 26.6669 60.7693 26.2184 60.7693 25.6182V22.1555C60.7693 21.5092 60.921 21.0343 61.2244 20.7309C61.5278 20.4275 62.0026 20.2758 62.649 20.2758ZM63.7373 24.2331C63.4866 24.2331 63.2558 24.2463 63.0447 24.2727C62.8403 24.2991 62.6754 24.3189 62.5501 24.3321V25.4203C62.5501 25.8161 62.7479 26.0139 63.1437 26.0139H64.0341C64.4298 26.0139 64.6277 25.8161 64.6277 25.4203V24.5794C64.6277 24.4805 64.5947 24.398 64.5287 24.3321C64.4628 24.2661 64.3803 24.2331 64.2814 24.2331H63.7373Z" fill="#F5F1EE"/>
</g>
<g id="Group 160">
<g id="ESL" filter="url(#filter2_f_114_4594)">
<path d="M38.8883 55H33.882V48.6858H38.8883V49.9486H35.5057V51.1664H38.1667V52.4292H35.5057V53.7372H38.8883V55ZM39.4184 53.6921C41.0661 53.7823 42.1817 53.8274 42.765 53.8274C42.9033 53.8274 43.0115 53.7883 43.0897 53.7101C43.1739 53.6259 43.216 53.5147 43.216 53.3763V52.5645H41.1413C40.5099 52.5645 40.0498 52.4232 39.7612 52.1406C39.4786 51.8519 39.3372 51.3919 39.3372 50.7604V50.4898C39.3372 49.8584 39.4786 49.4014 39.7612 49.1187C40.0498 48.8301 40.5099 48.6858 41.1413 48.6858H44.3074V49.9486H41.5021C41.1413 49.9486 40.9609 50.129 40.9609 50.4898V50.6702C40.9609 51.0311 41.1413 51.2115 41.5021 51.2115H43.1258C43.7151 51.2115 44.1481 51.3498 44.4247 51.6264C44.7013 51.903 44.8396 52.336 44.8396 52.9253V53.3763C44.8396 53.9657 44.7013 54.3986 44.4247 54.6753C44.1481 54.9519 43.7151 55.0902 43.1258 55.0902C42.8191 55.0902 42.4944 55.0842 42.1516 55.0722L41.3217 55.0361C40.7083 55.006 40.0739 54.9639 39.4184 54.9098V53.6921ZM47.2744 53.7372H50.5669V55H45.6508V48.6858H47.2744V53.7372Z" fill="url(#paint4_linear_114_4594)"/>
</g>
<path id="ESL_2" d="M38.8883 55H33.882V48.6858H38.8883V49.9486H35.5057V51.1664H38.1667V52.4292H35.5057V53.7372H38.8883V55ZM39.4184 53.6921C41.0661 53.7823 42.1817 53.8274 42.765 53.8274C42.9033 53.8274 43.0115 53.7883 43.0897 53.7101C43.1739 53.6259 43.216 53.5147 43.216 53.3763V52.5645H41.1413C40.5099 52.5645 40.0498 52.4232 39.7612 52.1406C39.4786 51.8519 39.3372 51.3919 39.3372 50.7604V50.4898C39.3372 49.8584 39.4786 49.4014 39.7612 49.1187C40.0498 48.8301 40.5099 48.6858 41.1413 48.6858H44.3074V49.9486H41.5021C41.1413 49.9486 40.9609 50.129 40.9609 50.4898V50.6702C40.9609 51.0311 41.1413 51.2115 41.5021 51.2115H43.1258C43.7151 51.2115 44.1481 51.3498 44.4247 51.6264C44.7013 51.903 44.8396 52.336 44.8396 52.9253V53.3763C44.8396 53.9657 44.7013 54.3986 44.4247 54.6753C44.1481 54.9519 43.7151 55.0902 43.1258 55.0902C42.8191 55.0902 42.4944 55.0842 42.1516 55.0722L41.3217 55.0361C40.7083 55.006 40.0739 54.9639 39.4184 54.9098V53.6921ZM47.2744 53.7372H50.5669V55H45.6508V48.6858H47.2744V53.7372Z" fill="#F5F1EE"/>
</g>
</g>
</g>
<defs>
<filter id="filter0_f_114_4594" x="14.2532" y="26.5257" width="55.4956" height="24.3669" filterUnits="userSpaceOnUse" color-interpolation-filters="sRGB">
<feFlood flood-opacity="0" result="BackgroundImageFix"/>
<feBlend mode="normal" in="SourceGraphic" in2="BackgroundImageFix" result="shape"/>
<feGaussianBlur stdDeviation="1.77465" result="effect1_foregroundBlur_114_4594"/>
</filter>
<filter id="filter1_f_114_4594" x="15.2479" y="18.8321" width="52.6043" height="10.0105" filterUnits="userSpaceOnUse" color-interpolation-filters="sRGB">
<feFlood flood-opacity="0" result="BackgroundImageFix"/>
<feBlend mode="normal" in="SourceGraphic" in2="BackgroundImageFix" result="shape"/>
<feGaussianBlur stdDeviation="0.721875" result="effect1_foregroundBlur_114_4594"/>
</filter>
<filter id="filter2_f_114_4594" x="28.8821" y="43.6858" width="26.6848" height="16.4043" filterUnits="userSpaceOnUse" color-interpolation-filters="sRGB">
<feFlood flood-opacity="0" result="BackgroundImageFix"/>
<feBlend mode="normal" in="SourceGraphic" in2="BackgroundImageFix" result="shape"/>
<feGaussianBlur stdDeviation="2.5" result="effect1_foregroundBlur_114_4594"/>
</filter>
<linearGradient id="paint0_linear_114_4594" x1="6.72403" y1="35.054" x2="76.8037" y2="35.054" gradientUnits="userSpaceOnUse">
<stop stop-color="#AB750F"/>
<stop offset="0.516" stop-color="#D8A956"/>
<stop offset="1" stop-color="#AB750F"/>
</linearGradient>
<linearGradient id="paint1_linear_114_4594" x1="52.0129" y1="6.30005" x2="52.0129" y2="63.2372" gradientUnits="userSpaceOnUse">
<stop stop-color="#AB750F"/>
<stop offset="0.516" stop-color="#D8A956"/>
<stop offset="1" stop-color="#AB750F"/>
</linearGradient>
<linearGradient id="paint2_linear_114_4594" x1="14.6626" y1="38.6002" x2="67.9146" y2="38.6002" gradientUnits="userSpaceOnUse">
<stop stop-color="#AB750F"/>
<stop offset="0.516" stop-color="#D8A956"/>
<stop offset="1" stop-color="#AB750F"/>
</linearGradient>
<linearGradient id="paint3_linear_114_4594" x1="13.6159" y1="23.8001" x2="67.9329" y2="23.8001" gradientUnits="userSpaceOnUse">
<stop stop-color="#AB750F"/>
<stop offset="0.516" stop-color="#D8A956"/>
<stop offset="1" stop-color="#AB750F"/>
</linearGradient>
<linearGradient id="paint4_linear_114_4594" x1="32.1585" y1="52" x2="51.3293" y2="52" gradientUnits="userSpaceOnUse">
<stop stop-color="#AB750F"/>
<stop offset="0.516" stop-color="#D8A956"/>
<stop offset="1" stop-color="#AB750F"/>
</linearGradient>
<clipPath id="clip0_114_4594">
<rect width="70" height="70" fill="white" transform="translate(7)"/>
</clipPath>
</defs>
</svg>
