<svg xmlns="http://www.w3.org/2000/svg" width="84" height="70" fill="none" xmlns:v="https://vecta.io/nano"><style><![CDATA[.B{fill:#f5f1ee}.C{color-interpolation-filters:sRGB}.D{flood-opacity:0}]]></style><g clip-path="url(#I)"><path d="M25.2 15.4s-2.1-4.2.226-9.513C14.243 12.36 5.23 27.259 18.83 37.21c1.715 1.255 3.329 2.307 4.82 3.279C30.964 45.256 34.35 47.757 32.9 63c1.346-14.144-16.169-11.662-23.1-19.062 3.886 14.276 16.911 24.77 32.38 24.77C60.715 68.708 75.6 53.587 75.6 35S60.9 1.4 43.4 1.4c-11.2 0-18.2 9.8-18.2 14z" fill="#212121"/><path fill-rule="evenodd" d="M28.421 2.535l-1.713 3.913c-.531 1.213-.803 2.357-.915 3.387.859-1.355 1.983-2.741 3.345-4.028C32.492 2.64 37.372 0 43.4 0 61.72 0 77 15.688 77 35c0 19.345-15.497 35.108-34.82 35.108-16.119 0-29.683-10.935-33.731-25.802l-1.481-5.438 3.853 4.114c1.517 1.619 3.675 2.759 6.217 3.767 1.207.478 2.462.913 3.748 1.358l.181.063c1.337.463 2.706.94 4.015 1.475 2.505 1.023 4.956 2.317 6.729 4.325-.209-2.374-.692-4.121-1.4-5.522-1.384-2.739-3.721-4.37-7.427-6.786l-.01-.007c-1.486-.968-3.126-2.038-4.872-3.315-3.6-2.634-5.794-5.667-6.79-8.9s-.756-6.53.295-9.644c2.087-6.179 7.412-11.761 13.216-15.121l3.697-2.14zm4.803 53.675c.031 1.939-.075 4.177-.324 6.79.256-2.686-.169-4.773-1.072-6.441-2.097-3.874-6.775-5.494-11.509-7.133-3.045-1.054-6.113-2.117-8.531-3.792A12.32 12.32 0 0 1 9.8 43.938c.238.874.51 1.733.815 2.578C15.29 59.459 27.658 68.708 42.18 68.708 60.715 68.708 75.6 53.587 75.6 35S60.9 1.4 43.4 1.4c-9.186 0-15.547 6.593-17.537 11.281-.436 1.028-.663 1.964-.663 2.719 0 0-.552-1.104-.776-2.896-.154-1.23-.154-2.785.285-4.529a13.3 13.3 0 0 1 .717-2.088 30.81 30.81 0 0 0-1.93 1.216C13.269 14.081 6.024 27.839 18.83 37.21c1.715 1.255 3.329 2.307 4.82 3.279 6.061 3.95 9.425 6.345 9.574 15.722z" fill="url(#D)"/><path d="M53.926 63.204c-.015.013-.03.024-.043.033l.043-.033c1.14-.971 7.6-13.24 1.971-24.198-5.706-11.106-30.791-15.713-20.578-28.648 12.972-16.43 61.155 20.21 18.608 52.846z" fill="url(#E)"/><g filter="url(#A)"><use href="#J" fill="url(#F)"/></g><use href="#J" class="B"/><g filter="url(#B)"><use href="#K" fill="url(#G)"/></g><use href="#K" class="B"/><g filter="url(#C)"><use href="#L" fill="url(#H)"/></g><use href="#L" class="B"/></g><defs><filter id="A" x="14.253" y="26.526" width="55.496" height="24.367" filterUnits="userSpaceOnUse" class="C"><feFlood class="D"/><feBlend in="SourceGraphic"/><feGaussianBlur stdDeviation="1.775"/></filter><filter id="B" x="15.248" y="18.832" width="52.604" height="10.011" filterUnits="userSpaceOnUse" class="C"><feFlood class="D"/><feBlend in="SourceGraphic"/><feGaussianBlur stdDeviation=".722"/></filter><filter id="C" x="28.882" y="43.686" width="26.685" height="16.404" filterUnits="userSpaceOnUse" class="C"><feFlood class="D"/><feBlend in="SourceGraphic"/><feGaussianBlur stdDeviation="2.5"/></filter><linearGradient id="D" x1="3.695" y1="35.054" x2="78.281" y2="35.054" href="#M"><stop stop-color="#ab750f"/><stop offset=".516" stop-color="#d8a956"/><stop offset="1" stop-color="#ab750f"/></linearGradient><linearGradient id="E" x1="52.013" y1="6.3" x2="52.013" y2="63.237" href="#M"><stop stop-color="#ab750f"/><stop offset=".516" stop-color="#d8a956"/><stop offset="1" stop-color="#ab750f"/></linearGradient><linearGradient id="F" x1="14.663" y1="38.6" x2="67.915" y2="38.6" href="#M"><stop stop-color="#ab750f"/><stop offset=".516" stop-color="#d8a956"/><stop offset="1" stop-color="#ab750f"/></linearGradient><linearGradient id="G" x1="13.616" y1="23.8" x2="67.933" y2="23.8" href="#M"><stop stop-color="#ab750f"/><stop offset=".516" stop-color="#d8a956"/><stop offset="1" stop-color="#ab750f"/></linearGradient><linearGradient id="H" x1="32.159" y1="52" x2="51.329" y2="52" href="#M"><stop stop-color="#ab750f"/><stop offset=".516" stop-color="#d8a956"/><stop offset="1" stop-color="#ab750f"/></linearGradient><clipPath id="I"><path fill="#fff" transform="translate(7)" d="M0 0h70v70H0z"/></clipPath><path id="J" d="M18.021 43.573l9.023.365c.373 0 .665-.105.876-.316.227-.227.34-.527.34-.9v-2.189h-5.594c-1.702 0-2.943-.381-3.721-1.143-.762-.778-1.143-2.019-1.143-3.721v-.73c0-1.703.381-2.935 1.143-3.697.778-.778 2.019-1.168 3.721-1.168h8.537v3.405H23.64c-.973 0-1.459.486-1.459 1.459v.486c0 .973.486 1.459 1.459 1.459h4.378c1.589 0 2.756.373 3.502 1.119s1.119 1.913 1.119 3.502v1.216c0 1.589-.373 2.757-1.119 3.502s-1.913 1.119-3.502 1.119c-.827 0-1.702-.016-2.627-.049l-2.238-.097-5.132-.34v-3.283zm16.804-13.498h10.215c1.703 0 2.935.389 3.697 1.168.778.762 1.168 1.994 1.168 3.697v2.432c0 1.703-.389 2.943-1.168 3.721-.762.762-1.994 1.143-3.697 1.143h-5.837V47.1h-4.378V30.075zm10.701 4.864c0-.973-.486-1.459-1.459-1.459h-4.864v5.351h4.864c.973 0 1.459-.486 1.459-1.459v-2.432zm6.055 8.634l9.023.365c.373 0 .665-.105.876-.316.227-.227.34-.527.34-.9v-2.189h-5.594c-1.703 0-2.943-.381-3.721-1.143-.762-.778-1.143-2.019-1.143-3.721v-.73c0-1.703.381-2.935 1.143-3.697.778-.778 2.019-1.168 3.721-1.168h8.537v3.405h-7.564c-.973 0-1.459.486-1.459 1.459v.486c0 .973.486 1.459 1.459 1.459h4.378c1.589 0 2.757.373 3.502 1.119s1.119 1.913 1.119 3.502v1.216c0 1.589-.373 2.757-1.119 3.502s-1.913 1.119-3.502 1.119c-.827 0-1.703-.016-2.627-.049l-2.238-.097-5.132-.34v-3.283z"/><path id="K" d="M16.781 25.866l3.67.148c.152 0 .27-.043.356-.129.092-.092.138-.214.138-.366v-.89H18.67c-.693 0-1.197-.155-1.514-.465-.31-.317-.465-.821-.465-1.514v-.297c0-.692.155-1.194.465-1.504.317-.317.821-.475 1.514-.475h3.473v1.385h-3.077c-.396 0-.594.198-.594.594v.198c0 .396.198.594.594.594h1.781c.646 0 1.121.152 1.425.455s.455.778.455 1.425v.495c0 .646-.152 1.121-.455 1.425s-.778.455-1.425.455a30.52 30.52 0 0 1-1.069-.02l-.91-.04-2.088-.139v-1.336zM29.107 27.3h-5.491v-6.925h5.491v1.385h-3.71v1.336h2.919v1.385h-2.919v1.435h3.71V27.3zm2.026 0h-1.929l2.622-6.925h1.979l2.622 6.925h-1.929l-.445-1.237h-2.473l-.445 1.237zm.89-2.523h1.583l-.791-2.325-.791 2.325zm4.689 1.088l3.67.148c.152 0 .27-.043.356-.129.092-.092.139-.214.139-.366v-.89h-2.275c-.693 0-1.197-.155-1.514-.465-.31-.317-.465-.821-.465-1.514v-.297c0-.692.155-1.194.465-1.504.317-.317.821-.475 1.514-.475h3.473v1.385h-3.077c-.396 0-.594.198-.594.594v.198c0 .396.198.594.594.594h1.781c.646 0 1.121.152 1.425.455s.455.778.455 1.425v.495c0 .646-.152 1.121-.455 1.425s-.778.455-1.425.455a30.52 30.52 0 0 1-1.069-.02l-.91-.04-2.087-.139v-1.336zM48 22.255c0-.396-.198-.594-.594-.594h-1.682c-.396 0-.594.198-.594.594v3.166c0 .396.198.594.594.594h1.682c.396 0 .594-.198.594-.594v-3.166zm1.781 3.166c0 .693-.158 1.197-.475 1.514-.31.31-.811.465-1.504.465h-2.473c-.693 0-1.197-.155-1.514-.465-.31-.317-.465-.821-.465-1.514v-3.166c0-.693.155-1.194.465-1.504.317-.317.821-.475 1.514-.475h2.473c.693 0 1.194.158 1.504.475.317.31.475.811.475 1.504v3.166zm7.029 1.88h-1.88l-2.374-4.155V27.3h-1.781v-6.925h1.88l2.374 4.155v-4.155h1.781V27.3zm5.84-7.024c.904 0 1.992.066 3.265.198v1.336l-.93-.05-.623-.04-.475-.039-.732-.02c-.402 0-.603.165-.603.495v.89c.64-.132 1.2-.198 1.682-.198h.693c.449 0 .808.135 1.078.406s.406.63.406 1.078v1.286c0 .6-.152 1.049-.455 1.345-.303.29-.778.435-1.425.435h-1.88c-.646 0-1.121-.145-1.425-.435-.303-.297-.455-.745-.455-1.345v-3.463c0-.646.152-1.121.455-1.425s.778-.455 1.425-.455zm1.088 3.957a5.6 5.6 0 0 0-.693.04l-.495.059v1.088c0 .396.198.594.594.594h.89c.396 0 .594-.198.594-.594v-.841c0-.099-.033-.181-.099-.247s-.148-.099-.247-.099h-.544z"/><path id="L" d="M38.888 55h-5.006v-6.314h5.006v1.263h-3.383v1.218h2.661v1.263h-2.661v1.308h3.383V55zm.53-1.308l3.346.135c.138 0 .247-.039.325-.117a.45.45 0 0 0 .126-.334v-.812h-2.075c-.631 0-1.091-.141-1.38-.424-.283-.289-.424-.749-.424-1.38v-.271c0-.631.141-1.088.424-1.371.289-.289.749-.433 1.38-.433h3.166v1.263h-2.805c-.361 0-.541.18-.541.541v.18c0 .361.18.541.541.541h1.624c.589 0 1.022.138 1.299.415s.415.71.415 1.299v.451c0 .589-.138 1.022-.415 1.299s-.71.415-1.299.415c-.307 0-.631-.006-.974-.018l-.83-.036-1.903-.126v-1.218zm7.856.045h3.292V55h-4.916v-6.314h1.624v5.051z"/><linearGradient id="M" gradientUnits="userSpaceOnUse"/></defs></svg>