<svg xmlns="http://www.w3.org/2000/svg" width="100" height="100" fill="none" xmlns:v="https://vecta.io/nano"><g fill-rule="evenodd"><path d="M32.301 26.003C31.639 15.073 30.733.115 50 0c19.266.115 18.361 15.073 17.699 26.003-.111 1.841-.216 3.568-.216 5.09C67.483 41.651 50 46.5 50 46.5s-17.483-4.849-17.483-15.407c0-1.522-.105-3.249-.216-5.09h0zM18.7 47.575V22c-10.597.063-10.098 8.29-9.735 14.301.061 1.013.119 1.962.119 2.8 0 5.807 9.616 8.474 9.616 8.474zM18.7 22c10.597.063 10.099 8.29 9.735 14.301h0c-.061 1.013-.119 1.962-.119 2.8 0 5.807-9.616 8.474-9.616 8.474V22zm.364 37.325a18.68 18.68 0 0 0-.75.549C12.816 64.112 13 69 13 69v6.657C8.517 74.441 2.607 72.444 0 69.85V61.6s-.125-3.32 4.054-5.781c1.053-.62 2.217-1.117 3.353-1.603h0c3.371-1.441 6.501-2.778 5.794-6.917 0 0 .53 1.106 2.45 2.13 1.285.685 3.037 1.166 3.05 1.17.013-.004 1.765-.484 3.05-1.17 1.92-1.024 2.45-2.13 2.45-2.13-.691 4.043 2.28 5.413 5.561 6.817-1.057.502-2.168.977-3.295 1.458-2.066.883-4.181 1.787-6.096 2.914a20.66 20.66 0 0 0-1.306.835zm10.403-.75c-2.066.883-4.181 1.787-6.096 2.914C15.773 65.963 16 72 16 72v15c8.119 8.079 33.866 12.975 34 13h0 0 0 0c.064-.012 5.886-1.119 12.857-3.141C55.188 92.589 50 84.4 50 75c0-9.044 4.803-16.967 11.997-21.357C60.286 51.826 59.411 49.448 60 46c0 0-.964 2.011-4.455 3.873C53.208 51.12 50.022 51.994 50 52c-.023-.006-3.208-.881-5.545-2.127C40.964 48.011 40 46 40 46c1.286 7.524-4.404 9.956-10.534 12.576zm70.085 11.687c-2.175-11.34-12.012-19.957-23.914-20.255.271-.748.346-1.634.162-2.708 0 0 .53 1.106 2.45 2.13 1.285.685 3.037 1.166 3.05 1.17.013-.004 1.764-.484 3.05-1.17 1.92-1.024 2.45-2.13 2.45-2.13-.707 4.138 2.422 5.476 5.794 6.917h0c1.136.485 2.299.983 3.353 1.603C100.125 58.28 100 61.6 100 61.6v8.25c-.14.139-.29.277-.448.413zM81.3 47.575s9.616-2.667 9.616-8.474c0-.837.058-1.787.119-2.8.364-6.011.862-14.238-9.735-14.301v25.575zm0 0s-9.616-2.667-9.616-8.474c0-.837-.057-1.787-.119-2.8C71.201 30.29 70.703 22.063 81.3 22v25.575z" fill="url(#A)"/><path d="M75 95c11.046 0 20-8.954 20-20s-8.954-20-20-20-20 8.954-20 20 8.954 20 20 20zm3.6-28.4a3.6 3.6 0 0 0-7.2 0v4.8h-4.8a3.6 3.6 0 0 0 0 7.2h4.8v4.8a3.6 3.6 0 0 0 7.2 0v-4.8h4.8a3.6 3.6 0 0 0 0-7.2h-4.8v-4.8z" fill="url(#B)"/></g><defs><linearGradient id="A" x1="50" y1="0" x2="50" y2="100" gradientUnits="userSpaceOnUse"><stop stop-color="#ab750f"/><stop offset=".516" stop-color="#d8a956"/><stop offset="1" stop-color="#ab750f"/></linearGradient><linearGradient id="B" x1="75" y1="55" x2="75" y2="95" gradientUnits="userSpaceOnUse"><stop stop-color="#ab750f"/><stop offset=".516" stop-color="#d8a956"/><stop offset="1" stop-color="#ab750f"/></linearGradient></defs></svg>