<svg xmlns="http://www.w3.org/2000/svg" width="100" height="100" fill="none" xmlns:v="https://vecta.io/nano"><g clip-path="url(#C)"><rect x="7" y="93" width="86" height="86" rx="43" transform="rotate(270 7 93)" fill="url(#A)"/><g fill-rule="evenodd"><path d="M50 97.5c26.234 0 47.5-21.266 47.5-47.5S76.234 2.5 50 2.5 2.5 23.767 2.5 50 23.767 97.5 50 97.5zM0 50c0 27.614 22.386 50 50 50s50-22.386 50-50S77.614 0 50 0 0 22.386 0 50z" fill="url(#B)"/><path d="M50 27.5a6.75 6.75 0 0 1 6.75 6.75v9h9a6.75 6.75 0 1 1 0 13.5h-9v9a6.75 6.75 0 1 1-13.5 0v-9h-9a6.75 6.75 0 1 1 0-13.5h9v-9A6.75 6.75 0 0 1 50 27.5z" fill="#f5f1ee"/></g></g><defs><linearGradient id="A" x1="111.856" y1="126.36" x2="4.127" y2="127.459" gradientUnits="userSpaceOnUse"><stop stop-color="#ab750f"/><stop offset=".238" stop-color="#d8a956"/><stop offset="1" stop-color="#ab750f"/></linearGradient><linearGradient id="B" x1="50" y1="104.675" x2="50" y2="-1.829" gradientUnits="userSpaceOnUse"><stop stop-color="#ab750f"/><stop offset=".516" stop-color="#d8a956"/><stop offset="1" stop-color="#ab750f"/></linearGradient><clipPath id="C"><path fill="#fff" d="M0 0h100v100H0z"/></clipPath></defs></svg>