<svg xmlns="http://www.w3.org/2000/svg" width="100" height="100" fill="none" xmlns:v="https://vecta.io/nano"><path d="M50.37 40c19.567 0 39.37-6.87 39.37-20S69.937 0 50.37 0 11 6.87 11 20s19.803 20 39.37 20z" fill="url(#A)"/><path d="M11 40c0 13.13 19.803 20 39.37 20s39.37-6.87 39.37-20V30c0 13.13-19.803 20-39.37 20S11 43.13 11 30v10z" fill="url(#B)"/><path d="M11 60c0 13.13 19.803 20 39.37 20s39.37-6.87 39.37-20V50c0 13.13-19.803 20-39.37 20S11 63.13 11 50v10z" fill="url(#C)"/><path d="M11 80c0 13.13 19.803 20 39.37 20s39.37-6.87 39.37-20V70c0 13.13-19.803 20-39.37 20S11 83.13 11 70v10z" fill="url(#D)"/><g fill-rule="evenodd"><path d="M81.513 15.018c-1.12-1.454-2.482-2.731-3.742-3.689l.49-.703c1.315.999 2.739 2.333 3.917 3.863s2.127 3.275 2.456 5.096a6.9 6.9 0 0 1-1.271 5.496c-1.288 1.755-3.534 3.364-7.036 4.712l-.335-.831c3.421-1.317 5.512-2.852 6.675-4.436 1.153-1.57 1.412-3.213 1.121-4.821-.293-1.623-1.153-3.232-2.275-4.688z" fill="url(#E)"/><path d="M17.602 16.629c1.009-3.228 3.616-5.69 5.728-6.961l-.461-.769c-2.216 1.334-4.997 3.935-6.088 7.424-.548 1.754-.668 3.729-.073 5.865s1.892 4.4 4.14 6.75l.599-.605c-2.165-2.264-3.369-4.398-3.913-6.351s-.435-3.748.067-5.353z" fill="url(#F)"/></g><path d="M50.628 5.196l13.628 13.846-13.628 13.846L37 19.042 50.628 5.196z" fill="url(#G)"/><defs><linearGradient id="A" x1="50.37" y1="0" x2="50.37" y2="40" href="#H"><stop stop-color="#ab750f"/><stop offset=".516" stop-color="#d8a956"/><stop offset="1" stop-color="#ab750f"/></linearGradient><linearGradient id="B" x1="50.37" y1="30" x2="50.37" y2="60" href="#H"><stop stop-color="#ab750f"/><stop offset=".516" stop-color="#d8a956"/><stop offset="1" stop-color="#ab750f"/></linearGradient><linearGradient id="C" x1="50.37" y1="50" x2="50.37" y2="80" href="#H"><stop stop-color="#ab750f"/><stop offset=".516" stop-color="#d8a956"/><stop offset="1" stop-color="#ab750f"/></linearGradient><linearGradient id="D" x1="50.37" y1="70" x2="50.37" y2="100" href="#H"><stop stop-color="#ab750f"/><stop offset=".516" stop-color="#d8a956"/><stop offset="1" stop-color="#ab750f"/></linearGradient><linearGradient id="E" x1="77.501" y1="9.37" x2="91.963" y2="17.268" href="#H"><stop stop-color="#fff" stop-opacity="0"/><stop offset=".5" stop-color="#fff" stop-opacity=".5"/><stop offset="1" stop-color="#fff"/></linearGradient><linearGradient id="F" x1="23.868" y1="7.863" x2="11.507" y2="10.207" href="#H"><stop stop-color="#fff" stop-opacity="0"/><stop offset=".5" stop-color="#fff" stop-opacity=".5"/><stop offset="1" stop-color="#fff"/></linearGradient><linearGradient id="G" x1="35.406" y1="3.576" x2="65.863" y2="33.554" href="#H"><stop stop-color="#fff" stop-opacity="0"/><stop offset=".5" stop-color="#fff" stop-opacity=".5"/><stop offset="1" stop-color="#fff"/></linearGradient><linearGradient id="H" gradientUnits="userSpaceOnUse"/></defs></svg>