<svg width="100" height="100" viewBox="0 0 100 100" fill="none" xmlns="http://www.w3.org/2000/svg">
<g id="icon-battlepoints">
<g id="Group 43">
<path id="Vector" d="M49.9998 39.9998C69.8798 39.9998 89.9997 33.1299 89.9997 19.9999C89.9997 6.86997 69.8798 0 49.9998 0C30.1199 0 10 6.86997 10 19.9999C10 33.1299 30.1199 39.9998 49.9998 39.9998Z" fill="url(#paint0_linear_237_72154)"/>
<path id="Vector 4 (Stroke)" fill-rule="evenodd" clip-rule="evenodd" d="M81.6406 15.0181C80.5029 13.5643 79.119 12.2868 77.8384 11.3293L78.3358 10.6261C79.6716 11.6247 81.1186 12.959 82.3159 14.489C83.511 16.0162 84.4768 17.7636 84.8115 19.5851C85.1492 21.4229 84.839 23.3131 83.5201 25.0816C82.2114 26.8364 79.9296 28.4455 76.3719 29.7939L76.0317 28.963C79.5074 27.6457 81.6321 26.1109 82.8132 24.5271C83.9843 22.9569 84.2474 21.3136 83.9521 19.7067C83.6538 18.0835 82.7805 16.4748 81.6406 15.0181Z" fill="url(#paint1_linear_237_72154)"/>
<path id="Vector 5 (Stroke)" fill-rule="evenodd" clip-rule="evenodd" d="M16.7074 16.6294C17.7329 13.401 20.3815 10.9396 22.5272 9.66796L22.0592 8.89853C19.8081 10.2326 16.9821 12.8332 15.8738 16.3225C15.3167 18.0763 15.1952 20.0519 15.7993 22.188C16.4027 24.3213 17.7221 26.5878 20.006 28.9384L20.6148 28.3331C18.4155 26.0695 17.1916 23.9355 16.6391 21.9822C16.0874 20.0317 16.1976 18.2345 16.7074 16.6294Z" fill="url(#paint2_linear_237_72154)"/>
<rect id="Rectangle 141" x="51.5383" y="5.19601" width="19.5813" height="19.5813" transform="rotate(45 51.5383 5.19601)" fill="url(#paint3_linear_237_72154)"/>
<path id="Vector_2" d="M10 40.0001C10 53.1301 30.1199 60.0001 49.9998 60.0001C69.8798 60.0001 89.9997 53.1301 89.9997 40.0001V30.0002C89.9997 43.1301 69.8798 50.0001 49.9998 50.0001C30.1199 50.0001 10 43.1301 10 30.0002V40.0001Z" fill="url(#paint4_linear_237_72154)"/>
<path id="Vector_3" d="M10 59.9996C10 73.1296 30.1199 79.9995 49.9998 79.9995C69.8798 79.9995 89.9997 73.1296 89.9997 59.9996V49.9997C89.9997 63.1296 69.8798 69.9996 49.9998 69.9996C30.1199 69.9996 10 63.1296 10 49.9997V59.9996Z" fill="url(#paint5_linear_237_72154)"/>
<path id="Vector_4" d="M10 80.0001C10 93.13 30.1199 100 49.9998 100C69.8798 100 89.9997 93.13 89.9997 80.0001V70.0001C89.9997 83.13 69.8798 90 49.9998 90C30.1199 90 10 83.13 10 70.0001V80.0001Z" fill="url(#paint6_linear_237_72154)"/>
</g>
</g>
<defs>
<linearGradient id="paint0_linear_237_72154" x1="49.9998" y1="0" x2="49.9998" y2="39.9998" gradientUnits="userSpaceOnUse">
<stop stop-color="#AB750F"/>
<stop offset="0.516" stop-color="#D8A956"/>
<stop offset="1" stop-color="#AB750F"/>
</linearGradient>
<linearGradient id="paint1_linear_237_72154" x1="81.7624" y1="11.5379" x2="78.9789" y2="29.8017" gradientUnits="userSpaceOnUse">
<stop stop-color="white" stop-opacity="0.2"/>
<stop offset="0.505" stop-color="white"/>
<stop offset="1" stop-color="white" stop-opacity="0.2"/>
</linearGradient>
<linearGradient id="paint2_linear_237_72154" x1="19.5989" y1="8.87261" x2="16.6714" y2="28.0811" gradientUnits="userSpaceOnUse">
<stop stop-color="white" stop-opacity="0.2"/>
<stop offset="0.5" stop-color="white"/>
<stop offset="1" stop-color="white" stop-opacity="0.2"/>
</linearGradient>
<linearGradient id="paint3_linear_237_72154" x1="50.393" y1="4.05069" x2="71.9325" y2="25.5902" gradientUnits="userSpaceOnUse">
<stop stop-color="white" stop-opacity="0"/>
<stop offset="0.5" stop-color="white" stop-opacity="0.5"/>
<stop offset="1" stop-color="white"/>
</linearGradient>
<linearGradient id="paint4_linear_237_72154" x1="49.9998" y1="30.0002" x2="49.9998" y2="60.0001" gradientUnits="userSpaceOnUse">
<stop stop-color="#AB750F"/>
<stop offset="0.516" stop-color="#D8A956"/>
<stop offset="1" stop-color="#AB750F"/>
</linearGradient>
<linearGradient id="paint5_linear_237_72154" x1="49.9998" y1="49.9997" x2="49.9998" y2="79.9995" gradientUnits="userSpaceOnUse">
<stop stop-color="#AB750F"/>
<stop offset="0.516" stop-color="#D8A956"/>
<stop offset="1" stop-color="#AB750F"/>
</linearGradient>
<linearGradient id="paint6_linear_237_72154" x1="49.9998" y1="70.0001" x2="49.9998" y2="100" gradientUnits="userSpaceOnUse">
<stop stop-color="#AB750F"/>
<stop offset="0.516" stop-color="#D8A956"/>
<stop offset="1" stop-color="#AB750F"/>
</linearGradient>
</defs>
</svg>
