<svg xmlns="http://www.w3.org/2000/svg" width="100" height="100" fill="#f5f1ee" xmlns:v="https://vecta.io/nano"><path fill-rule="evenodd" d="M89.74 20c0 13.13-19.803 20-39.37 20S11 33.13 11 20 30.803 0 50.37 0s39.37 6.87 39.37 20zm-11.97-8.671c1.261.957 2.623 2.235 3.742 3.689s1.982 3.065 2.275 4.689c.291 1.607.032 3.25-1.121 4.82-1.163 1.584-3.254 3.119-6.675 4.436l.335.831c3.502-1.348 5.748-2.957 7.036-4.712a6.9 6.9 0 0 0 1.271-5.496c-.329-1.822-1.28-3.569-2.456-5.096s-2.603-2.864-3.917-3.863l-.49.703zm-60.168 5.3c1.009-3.228 3.616-5.69 5.728-6.961l-.461-.769c-2.216 1.334-4.997 3.935-6.088 7.424-.548 1.754-.668 3.729-.073 5.865s1.892 4.4 4.14 6.75l.599-.605c-2.165-2.264-3.369-4.398-3.913-6.351s-.435-3.748.067-5.353zm46.654 2.413L50.628 5.196 37 19.042l13.628 13.846 13.628-13.846z"/><path d="M11 40c0 13.13 19.803 20 39.37 20s39.37-6.87 39.37-20V30c0 13.13-19.803 20-39.37 20S11 43.13 11 30v10zm0 20c0 13.13 19.803 20 39.37 20s39.37-6.87 39.37-20V50c0 13.13-19.803 20-39.37 20S11 63.13 11 50v10zm0 20c0 13.13 19.803 20 39.37 20s39.37-6.87 39.37-20V70c0 13.13-19.803 20-39.37 20S11 83.13 11 70v10z"/></svg>