<svg xmlns="http://www.w3.org/2000/svg" width="100" height="100" fill="none" xmlns:v="https://vecta.io/nano"><circle cx="50" cy="50" r="50" fill="#f5f1ee"/><mask id="A" maskUnits="userSpaceOnUse" x="7" y="7" width="86" height="86" mask-type="alpha"><path fill="#d9d9d9" d="M7.143 7.143h85.714v85.714H7.143z"/></mask><g mask="url(#A)"><path d="M25.357 64.464c-1.309-2.262-2.292-4.583-2.946-6.964s-.982-4.821-.982-7.321c0-7.976 2.768-14.762 8.304-20.357S42.024 21.429 50 21.429h.625l-5.714-5.714 5-5L64.196 25 49.911 39.286l-5-5 5.714-5.714H50c-5.952 0-11.012 2.098-15.179 6.295s-6.25 9.301-6.25 15.313c0 1.548.179 3.066.536 4.554s.893 2.946 1.607 4.375l-5.357 5.357zm24.732 24.821L35.804 75l14.286-14.286 5 5-5.714 5.714H50c5.952 0 11.012-2.098 15.179-6.295s6.25-9.301 6.25-15.312c0-1.548-.179-3.065-.536-4.553a20.42 20.42 0 0 0-1.607-4.375l5.357-5.357c1.31 2.262 2.292 4.583 2.946 6.964a27.49 27.49 0 0 1 .982 7.321c0 7.976-2.768 14.762-8.303 20.357S57.976 78.571 50 78.571h-.625l5.714 5.714-5 5z" fill="#212121"/></g></svg>