<svg xmlns="http://www.w3.org/2000/svg" width="100" height="100" fill="none" xmlns:v="https://vecta.io/nano"><path fill-rule="evenodd" d="M100 50c0 27.614-22.386 50-50 50S0 77.614 0 50 22.386 0 50 0s50 22.386 50 50zm-10 0c0 22.091-17.909 40-40 40S10 72.091 10 50s17.909-40 40-40a39.83 39.83 0 0 1 24.986 8.762 105.3 105.3 0 0 0-9.561 9.185C58.034 36.01 47 59 47 59L35.81 39.146 19 53.125 47.448 76s12.314-17.774 21.404-26.459c5.316-5.079 13.014-10.38 18.491-13.907C89.059 40.093 90 44.937 90 50z" fill="url(#A)" fill-opacity=".3"/><defs><linearGradient id="A" x1="50" y1="0" x2="50" y2="100" gradientUnits="userSpaceOnUse"><stop stop-color="#ab750f"/><stop offset=".516" stop-color="#d8a956"/><stop offset="1" stop-color="#ab750f"/></linearGradient></defs></svg>