<svg xmlns="http://www.w3.org/2000/svg" width="100" height="100" fill="none" xmlns:v="https://vecta.io/nano"><g clip-path="url(#C)"><rect x="7" y="93" width="86" height="86" rx="43" transform="rotate(270 7 93)" fill="url(#A)"/><path fill-rule="evenodd" d="M50 97.5c26.234 0 47.5-21.266 47.5-47.5S76.234 2.5 50 2.5 2.5 23.767 2.5 50 23.767 97.5 50 97.5zM0 50c0 27.614 22.386 50 50 50s50-22.386 50-50S77.614 0 50 0 0 22.386 0 50z" fill="url(#B)"/><g fill="#f5f1ee"><path d="M43.5 48v-9.5H29c-1.655 0-3 1.345-3 3V48h17.5zm-.005 27V52h-14.5L29 71.5a3.5 3.5 0 0 0 3.5 3.5h10.995z"/><path fill-rule="evenodd" d="M46.5 38.5h7V75h-7V38.5z"/><path d="M56.5 48v-9.5H71c1.655 0 3 1.345 3 3V48H56.5zm.005 27V52h14.5L71 71.5a3.5 3.5 0 0 1-3.5 3.5H56.505z"/><path fill-rule="evenodd" d="M41.5 26.01c3 1.925 4.5 3.49 4.5 3.49s1.5-1.75 4-1.75 4 1.75 4 1.75 1.5-1.565 4.5-3.49c3-1.93 6.5-.45 6.5-.45s3.925 1.695 2.055 5.8S62 36.25 62 36.25H38s-3.185-.785-5.055-4.89S35 25.51 35 25.51s3.5-1.43 6.5.5zm-3 6.49h5s-.5-1-3-2.75-3.75-1.25-3.75-1.25-.848.397 0 2 1.75 2 1.75 2zm17.999 0h5s.903-.397 1.75-2 0-2 0-2-1.25-.5-3.75 1.25-3 2.75-3 2.75z"/><circle cx="88" cy="14" r="12"/></g><circle cx="88" cy="14" r="10" fill="#ff5c5c"/></g><defs><linearGradient id="A" x1="111.856" y1="126.36" x2="4.127" y2="127.459" gradientUnits="userSpaceOnUse"><stop stop-color="#ab750f"/><stop offset=".238" stop-color="#d8a956"/><stop offset="1" stop-color="#ab750f"/></linearGradient><linearGradient id="B" x1="50" y1="104.675" x2="50" y2="-1.829" gradientUnits="userSpaceOnUse"><stop stop-color="#ab750f"/><stop offset=".516" stop-color="#d8a956"/><stop offset="1" stop-color="#ab750f"/></linearGradient><clipPath id="C"><path fill="#fff" d="M0 0h100v100H0z"/></clipPath></defs></svg>