<svg xmlns="http://www.w3.org/2000/svg" width="100" height="100" fill="none" xmlns:v="https://vecta.io/nano"><path d="M32.585 18.033L39 10H16L0 31l6 11 18-23.967h8.585z" fill="url(#A)"/><path d="M67.415 18.033L61 10h23l16 21-6 11-18-23.967h-8.585z" fill="url(#B)"/><g fill-rule="evenodd"><path d="M50 11.25L45 18h-9L50 0l14 18h-9l-5-6.75z" fill="url(#C)"/><path d="M50 52L35 41l-9 12 24 24 24-24-9-12-15 11z" fill="url(#D)"/><path d="M50 27l-5-5H26L3 53.007 50 100l47-46.993L74 22H55l-5 5zm0 17L34 32 18 53.007 50 85l32-31.993L66 32 50 44z" fill="url(#E)"/></g><defs><linearGradient id="A" x1="19.5" y1="10" x2="19.5" y2="42" href="#F"><stop stop-color="#ab750f"/><stop offset=".516" stop-color="#d8a956"/><stop offset="1" stop-color="#ab750f"/></linearGradient><linearGradient id="B" x1="80.5" y1="10" x2="80.5" y2="42" href="#F"><stop stop-color="#ab750f"/><stop offset=".516" stop-color="#d8a956"/><stop offset="1" stop-color="#ab750f"/></linearGradient><linearGradient id="C" x1="50" y1="0" x2="50" y2="18" href="#F"><stop stop-color="#ab750f"/><stop offset=".516" stop-color="#d8a956"/><stop offset="1" stop-color="#ab750f"/></linearGradient><linearGradient id="D" x1="50" y1="41" x2="50" y2="77" href="#F"><stop stop-color="#ab750f"/><stop offset=".516" stop-color="#d8a956"/><stop offset="1" stop-color="#ab750f"/></linearGradient><linearGradient id="E" x1="50" y1="22" x2="50" y2="100" href="#F"><stop stop-color="#ab750f"/><stop offset=".516" stop-color="#d8a956"/><stop offset="1" stop-color="#ab750f"/></linearGradient><linearGradient id="F" gradientUnits="userSpaceOnUse"/></defs></svg>