<svg width="100" height="100" viewBox="0 0 100 100" fill="none" xmlns="http://www.w3.org/2000/svg">
<g id="collection">
<g id="Group 312">
<path id="Vector 428" d="M32.5846 18.0328L39 10H16L0 31L6 42L24 18.0328H32.5846Z" fill="url(#paint0_linear_3030_69683)"/>
<path id="Vector 429" d="M67.4154 18.0328L61 10H84L100 31L94 42L76 18.0328H67.4154Z" fill="url(#paint1_linear_3030_69683)"/>
<path id="Union" fill-rule="evenodd" clip-rule="evenodd" d="M50 11.25L45 18H36L50 0L64 18H55L50 11.25Z" fill="url(#paint2_linear_3030_69683)"/>
<path id="Union_2" fill-rule="evenodd" clip-rule="evenodd" d="M50 52L35 41L26 53L50 77L74 53L65 41L50 52Z" fill="url(#paint3_linear_3030_69683)"/>
<path id="Union_3" fill-rule="evenodd" clip-rule="evenodd" d="M50 27L45 22H26L3 53.0074L50 100L97 53.0074L74 22H55L50 27ZM50 44L34 32L18 53.0074L50 85L82 53.0074L66 32L50 44Z" fill="url(#paint4_linear_3030_69683)"/>
</g>
</g>
<defs>
<linearGradient id="paint0_linear_3030_69683" x1="19.5" y1="10" x2="19.5" y2="42" gradientUnits="userSpaceOnUse">
<stop stop-color="#AB750F"/>
<stop offset="0.516" stop-color="#D8A956"/>
<stop offset="1" stop-color="#AB750F"/>
</linearGradient>
<linearGradient id="paint1_linear_3030_69683" x1="80.5" y1="10" x2="80.5" y2="42" gradientUnits="userSpaceOnUse">
<stop stop-color="#AB750F"/>
<stop offset="0.516" stop-color="#D8A956"/>
<stop offset="1" stop-color="#AB750F"/>
</linearGradient>
<linearGradient id="paint2_linear_3030_69683" x1="50" y1="0" x2="50" y2="18" gradientUnits="userSpaceOnUse">
<stop stop-color="#AB750F"/>
<stop offset="0.516" stop-color="#D8A956"/>
<stop offset="1" stop-color="#AB750F"/>
</linearGradient>
<linearGradient id="paint3_linear_3030_69683" x1="50" y1="41" x2="50" y2="77" gradientUnits="userSpaceOnUse">
<stop stop-color="#AB750F"/>
<stop offset="0.516" stop-color="#D8A956"/>
<stop offset="1" stop-color="#AB750F"/>
</linearGradient>
<linearGradient id="paint4_linear_3030_69683" x1="50" y1="22" x2="50" y2="100" gradientUnits="userSpaceOnUse">
<stop stop-color="#AB750F"/>
<stop offset="0.516" stop-color="#D8A956"/>
<stop offset="1" stop-color="#AB750F"/>
</linearGradient>
</defs>
</svg>
