<svg xmlns="http://www.w3.org/2000/svg" width="100" height="100" fill="none" xmlns:v="https://vecta.io/nano"><g fill-rule="evenodd"><path d="M31 0a5 5 0 0 0-5 5v76a5 5 0 0 0 5 5h52a5 5 0 0 0 5-5V5a5 5 0 0 0-5-5H31zm47 10H36v66h42V10z" fill="url(#A)"/><path d="M12 20v75a5 5 0 0 0 5 5h58v-8H20V20h-8z" fill="url(#B)"/></g><defs><linearGradient id="A" x1="57" y1="0" x2="57" y2="86" gradientUnits="userSpaceOnUse"><stop stop-color="#ab750f"/><stop offset=".516" stop-color="#d8a956"/><stop offset="1" stop-color="#ab750f"/></linearGradient><linearGradient id="B" x1="43.5" y1="20" x2="43.5" y2="100" gradientUnits="userSpaceOnUse"><stop stop-color="#ab750f"/><stop offset=".516" stop-color="#d8a956"/><stop offset="1" stop-color="#ab750f"/></linearGradient></defs></svg>