<svg width="100" height="100" viewBox="0 0 100 100" fill="none" xmlns="http://www.w3.org/2000/svg">
<g id="download" clip-path="url(#clip0_3464_32100)">
<g id="Group 332">
<rect id="Rectangle 414" x="7" y="93" width="86" height="86" rx="43" transform="rotate(-90 7 93)" fill="url(#paint0_linear_3464_32100)"/>
<path id="Rectangle 416 (Stroke)" fill-rule="evenodd" clip-rule="evenodd" d="M50 97.5C76.2335 97.5 97.5 76.2335 97.5 50C97.5 23.7665 76.2335 2.5 50 2.5C23.7665 2.5 2.5 23.7665 2.5 50C2.5 76.2335 23.7665 97.5 50 97.5ZM-1.09278e-06 50C-4.89256e-07 77.6142 22.3858 100 50 100C77.6142 100 100 77.6142 100 50C100 22.3858 77.6142 -1.69631e-06 50 -1.09278e-06C22.3858 -4.89256e-07 -1.69631e-06 22.3858 -1.09278e-06 50Z" fill="url(#paint1_linear_3464_32100)"/>
</g>
<g id="si:file-download-fill">
<path id="Vector" d="M46.167 22.8333V47.5795L41.3829 42.7954C41.0306 42.4324 40.61 42.1427 40.1452 41.9431C39.6775 41.7422 39.1745 41.6364 38.6655 41.632C38.1565 41.6276 37.6517 41.7246 37.1806 41.9173C36.7095 42.11 36.2815 42.3947 35.9216 42.7546C35.5617 43.1145 35.277 43.5425 35.0843 44.0136L36.0098 44.3923L35.0843 44.0136C34.8915 44.4847 34.7945 44.9895 34.799 45.4985C34.8034 46.0075 34.9091 46.5105 35.11 46.9782C35.3097 47.443 35.5994 47.8636 35.9624 48.2159L47.29 59.5436L47.2901 59.5437C48.009 60.2624 48.9838 60.6661 50.0003 60.6661C51.0168 60.6661 51.9916 60.2624 52.7105 59.5437L52.7106 59.5436L64.0439 48.2103L64.0501 48.2041L64.0561 48.1979C64.7544 47.4749 65.1408 46.5066 65.132 45.5015C65.1233 44.4964 64.7201 43.535 64.0094 42.8242C63.2987 42.1135 62.3372 41.7104 61.3321 41.7016C60.327 41.6929 59.3587 42.0793 58.6358 42.7775L58.6295 42.7836L58.6234 42.7897L53.8336 47.5795V22.8333C53.8336 21.8167 53.4298 20.8416 52.7109 20.1228C51.992 19.4039 51.017 19 50.0003 19C48.9836 19 48.0086 19.4039 47.2897 20.1228C46.5708 20.8416 46.167 21.8167 46.167 22.8333Z" fill="#F5F1EE" stroke="#F5F1EE" stroke-width="2"/>
<path id="Vector_2" d="M33.4999 66.8333C33.4999 65.9493 33.1487 65.1014 32.5236 64.4763C31.8985 63.8512 31.0506 63.5 30.1666 63.5C29.2825 63.5 28.4347 63.8512 27.8096 64.4763C27.1844 65.1014 26.8333 65.9493 26.8333 66.8333V68.5333C26.8333 74.1418 31.3581 78.6667 36.9666 78.6667H63.0333C68.6417 78.6667 73.1666 74.1418 73.1666 68.5333V66.8333C73.1666 65.9493 72.8154 65.1014 72.1903 64.4763C71.5652 63.8512 70.7173 63.5 69.8333 63.5C68.9492 63.5 68.1013 63.8512 67.4762 64.4763C66.8511 65.1014 66.4999 65.9493 66.4999 66.8333V68.5333C66.4999 70.4615 64.9614 72 63.0333 72H36.9666C35.0384 72 33.4999 70.4615 33.4999 68.5333V66.8333Z" fill="#F5F1EE" stroke="#F5F1EE"/>
</g>
</g>
<defs>
<linearGradient id="paint0_linear_3464_32100" x1="111.856" y1="126.36" x2="4.12655" y2="127.459" gradientUnits="userSpaceOnUse">
<stop stop-color="#AB750F"/>
<stop offset="0.237787" stop-color="#D8A956"/>
<stop offset="1" stop-color="#AB750F"/>
</linearGradient>
<linearGradient id="paint1_linear_3464_32100" x1="50.0004" y1="104.675" x2="50.0004" y2="-1.82926" gradientUnits="userSpaceOnUse">
<stop stop-color="#AB750F"/>
<stop offset="0.516" stop-color="#D8A956"/>
<stop offset="1" stop-color="#AB750F"/>
</linearGradient>
<clipPath id="clip0_3464_32100">
<rect width="100" height="100" fill="white"/>
</clipPath>
</defs>
</svg>
