<svg xmlns="http://www.w3.org/2000/svg" width="100" height="100" fill="none" xmlns:v="https://vecta.io/nano"><g fill-rule="evenodd"><path d="M50 19L19 50l31 31 31-31-31-31zm0 10L37 42l13 13 13-13-13-13zm0 33L34 46l-4.5 4.5L50 71l20.5-20.5L66 46 50 62z" fill="url(#A)"/><path d="M50 88L37 75h-6v-6L15 54v-8H9s-1.895.105-3-1-1-3-1-3V32l7-12V0L6 4v12l-6 9v26l4 6h3l5 9v15h21l7 19h10 10l7-19h21V66l5-9h3l4-6V25l-6-9V4l-6-4v20l7 12v10s.105 1.895-1 3-3 1-3 1h-6v8L69 69v6h-6L50 88z" fill="url(#B)"/></g><path d="M35 100L30 85H12L6 100H35Z" fill="url(#C)"/><path d="M65 100l5-15h18l6 15H65z" fill="url(#D)"/><path fill-rule="evenodd" d="M14 22l4-8h32 32l4 8H57l-7-7-7 7H14z" fill="url(#E)"/><path d="M8 33l4.5-7H38L24 40H8v-7z" fill="url(#F)"/><path d="M92 33l-4.5-7H62l14 14h16v-7z" fill="url(#G)"/><defs><linearGradient id="A" x1="50" y1="19" x2="50" y2="81" href="#H"><stop stop-color="#ab750f"/><stop offset=".516" stop-color="#d8a956"/><stop offset="1" stop-color="#ab750f"/></linearGradient><linearGradient id="B" x1="50" y1="0" x2="50" y2="100" href="#H"><stop stop-color="#ab750f"/><stop offset=".516" stop-color="#d8a956"/><stop offset="1" stop-color="#ab750f"/></linearGradient><linearGradient id="C" x1="20.5" y1="85" x2="20.5" y2="100" href="#H"><stop stop-color="#ab750f"/><stop offset=".516" stop-color="#d8a956"/><stop offset="1" stop-color="#ab750f"/></linearGradient><linearGradient id="D" x1="79.5" y1="85" x2="79.5" y2="100" href="#H"><stop stop-color="#ab750f"/><stop offset=".516" stop-color="#d8a956"/><stop offset="1" stop-color="#ab750f"/></linearGradient><linearGradient id="E" x1="50" y1="14" x2="50" y2="22" href="#H"><stop stop-color="#ab750f"/><stop offset=".516" stop-color="#d8a956"/><stop offset="1" stop-color="#ab750f"/></linearGradient><linearGradient id="F" x1="23" y1="26" x2="23" y2="40" href="#H"><stop stop-color="#ab750f"/><stop offset=".516" stop-color="#d8a956"/><stop offset="1" stop-color="#ab750f"/></linearGradient><linearGradient id="G" x1="77" y1="26" x2="77" y2="40" href="#H"><stop stop-color="#ab750f"/><stop offset=".516" stop-color="#d8a956"/><stop offset="1" stop-color="#ab750f"/></linearGradient><linearGradient id="H" gradientUnits="userSpaceOnUse"/></defs></svg>