<svg width="104" height="101" viewBox="0 0 104 101" fill="none" xmlns="http://www.w3.org/2000/svg">
<g id="exchange">
<path id="Rectangle 597" d="M14 84.9219H33L39 96.9219H52V100.922H7.5L14 84.9219Z" fill="#BF8F38"/>
<path id="Rectangle 598" d="M90 84.9219H71L65 96.9219H52V100.922H96.5L90 84.9219Z" fill="#AB750F"/>
<path id="Union (Stroke)" fill-rule="evenodd" clip-rule="evenodd" d="M14 84.9219H33L39 96.9219H65L71 84.9219H90L96.5 100.922H7.5L14 84.9219ZM65 96.9219H39L31.7639 86.9219H15.3462L7.5 100.922H96.5L88.6538 86.9219H72.236L65 96.9219Z" fill="#CB9A40"/>
<path id="Vector 534" d="M39 24.9219L52 12.9219L66 24.9219H73V32.9219L80 38.9219H89V54.9219L73 70.9219V77.9219H66L52 91.9219L38 77.9219H31V70.9219L15.5 56.4219V38.9219H25L31 31.9219V24.9219H39Z" fill="#F5F1EE"/>
<g id="Subtract" opacity="0.3" filter="url(#filter0_f_3697_5731)">
<path fill-rule="evenodd" clip-rule="evenodd" d="M4.5 40.9219V51.3719L8.3 57.0719H11.15L15.9 65.6219V79.8719H35.85L42.5 90.9219H61.5L68.15 79.8719H88.1V65.6219L92.85 57.0719H95.7L99.5 51.3719V40.9219H85.25V54.2219L70.05 68.4719V74.1719H64.35L52 86.5219L39.65 74.1719H33.95V68.4719L18.75 54.2219V40.9219H4.5Z" fill="#212121"/>
</g>
<path id="Vector 229" d="M20 14.9219L16 22.9219H26L34 15.9219V14.9219H20Z" fill="#CA9B49"/>
<path id="Vector 527" d="M84 14.9219L88 22.9219H78L70 15.9219V14.9219H84Z" fill="#BE8821"/>
<path id="Rectangle 581" d="M52 0.921875V6.92188H43L52 0.921875Z" fill="#D3A350"/>
<path id="Rectangle 582" d="M52 0.921875V6.92188H61L52 0.921875Z" fill="#CA9B49"/>
<path id="Rectangle 583" d="M52 3.92188V6.92188H56.5L52 3.92188Z" fill="#CA9B49"/>
<g id="Group 477">
<path id="Intersect" fill-rule="evenodd" clip-rule="evenodd" d="M52 78.9219L80 50.9219H70.0651L70.5167 51.3735L52 69.8902V78.9219ZM62.839 50.9219H56.5162L52 55.4381V61.7609L62.839 50.9219Z" fill="#BE8821"/>
<path id="Intersect_2" fill-rule="evenodd" clip-rule="evenodd" d="M79.9997 50.9226L51.9999 22.9229V31.9532L63.7422 43.6955L56.5148 50.9229H62.8376L66.4519 47.3085L70.0663 50.9229H79.9994L79.9997 50.9226Z" fill="#C69848"/>
<path id="Intersect_3" fill-rule="evenodd" clip-rule="evenodd" d="M51.9994 78.9223L23.999 50.9219H33.9348L33.4832 51.3735L51.9994 69.8897V78.9223ZM51.9994 55.4377V61.7605L41.1609 50.9219H47.4836L51.9994 55.4377Z" fill="#CA9B49"/>
<path id="Intersect_4" fill-rule="evenodd" clip-rule="evenodd" d="M23.9992 50.9214L23.999 50.9212L51.9993 22.9209V31.9532L40.2575 43.695L47.4839 50.9214H41.1611L37.5477 47.308L33.9344 50.9214H23.9992Z" fill="#E6B96A"/>
</g>
<path id="Vector 230" d="M39 75.9219L52 88.9219V93.9219H42L35 81.9219H14V66.9219L9 57.9219H6L2 51.9219V25.9219L8 16.9219V10.9219V7.92188L11 4.92188H14L18 14.9219L14 22.9219V26.9219L7 32.9219V42.9219C7 42.9219 7.12676 45.0486 8 45.9219C8.61747 46.5393 10 46.9219 10 46.9219H17V54.9219L33 69.9219V75.9219H39Z" fill="#BF8F38"/>
<path id="Subtract_2" fill-rule="evenodd" clip-rule="evenodd" d="M43 10.9219L25 26.9219H14L7 32.9219V46.9219L12 51.9219H17V46.9219L33 32.3764V26.9219H39L52 14.9219V8.92188H43V10.9219Z" fill="#D3A350"/>
<path id="Vector 531" d="M65 75.9219L52 88.9219V93.9219H62L69 81.9219H90V66.9219L95 57.9219H98L102 51.9219V25.9219L96 16.9219V10.9219V7.92188L93 4.92188H90L86 14.9219L90 22.9219V26.9219L97 32.9219V42.9219C97 42.9219 96.8732 45.0486 96 45.9219C95.3825 46.5393 94 46.9219 94 46.9219H87V54.9219L71 69.9219V75.9219H65Z" fill="#AB750F"/>
<path id="Subtract_3" fill-rule="evenodd" clip-rule="evenodd" d="M61 10.9219L79 26.9219H90L97 32.9219V46.9219L92 51.9219H87V46.9219L71 32.3764V26.9219H65L52 14.9219V8.92188H61V10.9219Z" fill="#BE8821"/>
<path id="Union (Stroke)_2" fill-rule="evenodd" clip-rule="evenodd" d="M39 75.9219H33V69.9219L17 54.9219V46.9219L33 32.3764V26.9219H39L52 14.9219L65 26.9219H71V32.3764L87 46.9219V54.9219L71 69.9219V75.9219H65L52 88.9219L39 75.9219ZM65 75.9219L52 91.7503L39 75.9219H33V69.9219L15 55.7883V46.0371L33 32.3764V26.9219H39L52 14.9219L65 26.9219H71V32.3764L89 46.0371V55.7883L71 69.9219V75.9219H65ZM92 28.9219H78.2396L59 11.82V10.9219H45V11.82L25.7604 28.9219H12V22.4497L15.8095 14.8308L12.6459 6.92188H11.8284L10 8.7503V17.5274L4 26.5274V51.3163L7.07037 55.9219H10.1768L16 66.4036V79.9219H36.1487L43.1487 91.9219H60.8513L67.8513 79.9219H88V66.4036L93.8232 55.9219H96.9296L100 51.3163V26.5274L94 17.5274V8.7503L92.1716 6.92188H91.3541L88.1905 14.8308L92 22.4497V28.9219ZM86 14.9219L90 4.92188H93L96 7.92188V16.9219L102 25.9219V51.9219L98 57.9219H95L90 66.9219V81.9219H69L62 93.9219H42L35 81.9219H14V66.9219L9 57.9219H6L2 51.9219V25.9219L8 16.9219V7.92188L11 4.92188H14L18 14.9219L14 22.9219V26.9219H25L43 10.9219V8.92188H61V10.9219L79 26.9219H90V22.9219L86 14.9219Z" fill="#6D4225"/>
<path id="Union (Stroke)_3" fill-rule="evenodd" clip-rule="evenodd" d="M39 75.9219H33V69.9219L17 54.9219V46.9219L33 32.3764V26.9219H39L52 14.9219L65 26.9219H71V32.3764L87 46.9219V54.9219L71 69.9219V75.9219H65L52 88.9219L39 75.9219ZM65 75.9219L52 88.9219L39 75.9219H33V69.9219L17 54.9219V46.9219L33 32.3764V26.9219H39L52 14.9219L65 26.9219H71V32.3764L87 46.9219V54.9219L71 69.9219V75.9219H65ZM92 28.9219H78.2396L59 11.82V10.9219H45V11.82L25.7604 28.9219H12V22.4497L15.8095 14.8308L12.6459 6.92188H11.8284L10 8.7503V17.5274L4 26.5274V51.3163L7.07037 55.9219H10.1768L16 66.4036V79.9219H36.1487L43.1487 91.9219H60.8513L67.8513 79.9219H88V66.4036L93.8232 55.9219H96.9296L100 51.3163V26.5274L94 17.5274V8.7503L92.1716 6.92188H91.3541L88.1905 14.8308L92 22.4497V28.9219ZM86 14.9219L90 4.92188H93L96 7.92188V16.9219L102 25.9219V51.9219L98 57.9219H95L90 66.9219V81.9219H69L62 93.9219H42L35 81.9219H14V66.9219L9 57.9219H6L2 51.9219V25.9219L8 16.9219V7.92188L11 4.92188H14L18 14.9219L14 22.9219V26.9219H25L43 10.9219V8.92188H61V10.9219L79 26.9219H90V22.9219L86 14.9219Z" fill="#CB9A40"/>
<path id="Subtract_4" d="M87.9834 66.4398L93.7582 55.958L86 65.9215V77.958L67.7582 79.958H87.9834V66.4398Z" fill="#6D4225"/>
<path id="Subtract_5" d="M16 66.4398L10.2252 55.958L17.9834 65.9215V77.958L36.2252 79.958H16V66.4398Z" fill="#6D4225"/>
</g>
<defs>
<filter id="filter0_f_3697_5731" x="0.7" y="37.1219" width="102.6" height="57.6" filterUnits="userSpaceOnUse" color-interpolation-filters="sRGB">
<feFlood flood-opacity="0" result="BackgroundImageFix"/>
<feBlend mode="normal" in="SourceGraphic" in2="BackgroundImageFix" result="shape"/>
<feGaussianBlur stdDeviation="1.9" result="effect1_foregroundBlur_3697_5731"/>
</filter>
</defs>
</svg>
