<svg width="104" height="102" viewBox="0 0 104 102" fill="none" xmlns="http://www.w3.org/2000/svg">
<g id="exchange">
<path id="Vector 529" d="M67 100.922L72 85.9219H90L96 100.922H67Z" fill="url(#paint0_linear_3674_5117)"/>
<path id="Vector 529 (Stroke)" fill-rule="evenodd" clip-rule="evenodd" d="M72 85.9219H90L93.0459 98.9219H69.7749L72 85.9219ZM72 85.9219H90L96 100.922H67L72 85.9219Z" fill="#CB9A40"/>
<path id="Vector 529 (Stroke) (Stroke)" fill-rule="evenodd" clip-rule="evenodd" d="M90 85.9219L96 100.922H67L72 85.9219L69.7748 98.9219H93.0459L90 85.9219ZM91.7845 97.9219L90 85.9219H72L70.9605 97.9219H91.7845ZM72 85.9219H90L96 100.922H67L72 85.9219Z" fill="#6D4225"/>
<path id="Vector 529_2" d="M37 100.922L32 85.9219H14L8 100.922H37Z" fill="url(#paint1_linear_3674_5117)"/>
<path id="Vector 529 (Stroke)_2" fill-rule="evenodd" clip-rule="evenodd" d="M32 85.9219H14L10.9541 98.9219H34.2251L32 85.9219ZM32 85.9219H14L8 100.922H37L32 85.9219Z" fill="#CB9A40"/>
<path id="Vector 529 (Stroke) (Stroke)_2" fill-rule="evenodd" clip-rule="evenodd" d="M14 85.9219L8.00005 100.922H37L32 85.9219L34.2252 98.9219H10.9541L14 85.9219ZM12.2155 97.9219L14 85.9219H32L33.0395 97.9219H12.2155ZM32 85.9219H14L8.00005 100.922H37L32 85.9219Z" fill="#6D4225"/>
<path id="Vector 534" d="M39 24.9219L52 12.9219L66 24.9219H73V32.9219L80 38.9219H89V54.9219L73 70.9219V77.9219H66L52 91.9219L38 77.9219H31V70.9219L15.5 56.4219V38.9219H25L31 31.9219V24.9219H39Z" fill="#F5F1EE"/>
<g id="Subtract" opacity="0.3" filter="url(#filter0_f_3674_5117)">
<path fill-rule="evenodd" clip-rule="evenodd" d="M4.5 40.9219V51.3719L8.3 57.0719H11.15L15.9 65.6219V79.8719H35.85L42.5 97.9219H61.5L68.15 79.8719H88.1V65.6219L92.85 57.0719H95.7L99.5 51.3719V40.9219H85.25V54.2219L70.05 68.4719V74.1719H64.35L52 86.5219L39.65 74.1719H33.95V68.4719L18.75 54.2219V40.9219H4.5Z" fill="#212121"/>
</g>
<path id="Vector 229" d="M20 14.9219L16 22.9219H26L34 15.9219V14.9219H20Z" fill="#CA9B49"/>
<path id="Vector 527" d="M84 14.9219L88 22.9219H78L70 15.9219V14.9219H84Z" fill="#CA9B49"/>
<path id="Rectangle 581" d="M52 0.921875V6.92188H43L52 0.921875Z" fill="#D3A350"/>
<path id="Rectangle 582" d="M52 0.921875V6.92188H61L52 0.921875Z" fill="#CA9B49"/>
<path id="Rectangle 583" d="M52 3.92188V6.92188H56.5L52 3.92188Z" fill="#CA9B49"/>
<path id="Vector 230" d="M39 75.9219L52 88.9219V100.922H42L35 81.9219H14V66.9219L9 57.9219H6L2 51.9219V25.9219L8 16.9219V4.92188L14 0.921875L18 14.9219L14 22.9219V26.9219L7 32.9219V42.9219C7 42.9219 7.12676 45.0486 8 45.9219C8.61747 46.5393 10 46.9219 10 46.9219H17V54.9219L33 69.9219V75.9219H39Z" fill="#BF8F38"/>
<path id="Vector 531" d="M65 75.9219L52 88.9219V100.922H62L69 81.9219H90V66.9219L95 57.9219H98L102 51.9219V25.9219L96 16.9219V4.92188L90 0.921875L86 14.9219L90 22.9219V26.9219L97 32.9219V42.9219C97 42.9219 96.8732 45.0486 96 45.9219C95.3825 46.5393 94 46.9219 94 46.9219H87V54.9219L71 69.9219V75.9219H65Z" fill="#AB750F"/>
<path id="Subtract_2" fill-rule="evenodd" clip-rule="evenodd" d="M43 10.9219L25 26.9219H14L7 32.9219V46.9219L12 51.9219L17 46.9219V40.9219H25L33 32.9219V26.9219H39L52 14.9219V8.92188H43V10.9219Z" fill="#D3A350"/>
<path id="Subtract_3" fill-rule="evenodd" clip-rule="evenodd" d="M61 10.9219L79 26.9219H90L97 32.9219V46.9219L92 51.9219L87 46.9219V40.9219H79L71 32.9219V26.9219H65L52 14.9219V8.92188H61V10.9219Z" fill="#BE8821"/>
<path id="Union (Stroke)" fill-rule="evenodd" clip-rule="evenodd" d="M39 75.9219H33V69.9219L17 54.9219V40.9219H25L33 32.9219V26.9219H39L52 14.9219L65 26.9219H71V32.9219L79 40.9219H87V54.9219L71 69.9219V75.9219H65L52 88.9219L39 75.9219ZM65 75.9219L52 88.9219L39 75.9219H33V69.9219L17 54.9219V40.9219H25L33 32.9219V26.9219H39L52 14.9219L65 26.9219H71V32.9219L79 40.9219H87V54.9219L71 69.9219V75.9219H65ZM92 28.9219H78.2396L59 11.82V10.9219H45V11.82L25.7604 28.9219H12V22.4497L15.8632 14.7233L12.8297 4.1058L10 5.99224V17.5274L4 26.5274V51.3163L7.07037 55.9219H10.1768L16 66.4036V79.9219H36.3946L43.3946 98.9219H60.6054L67.6054 79.9219H88V66.4036L93.8232 55.9219H96.9296L100 51.3163V26.5274L94 17.5274V5.99224L91.1703 4.1058L88.1368 14.7233L92 22.4497V28.9219ZM86 14.9219L90 0.921875L96 4.92188V16.9219L102 25.9219V51.9219L98 57.9219H95L90 66.9219V81.9219H69L62 100.922H42L35 81.9219H14V66.9219L9 57.9219H6L2 51.9219V25.9219L8 16.9219V4.92188L14 0.921875L18 14.9219L14 22.9219V26.9219H25L43 10.9219V8.92188H61V10.9219L79 26.9219H90V22.9219L86 14.9219Z" fill="#CB9A40"/>
<g id="Union" opacity="0.1" filter="url(#filter1_f_3674_5117)">
<path d="M24 50.9219H33.9347L37.5482 47.3085L41.1616 50.9219H47.4843L40.2579 43.6955L51.9997 31.9538V22.9219L24 50.9219Z" fill="#212121"/>
<path d="M66.4522 47.3098L52.0003 61.7612V55.4385L63.7425 43.6968L52.0003 31.9547V22.9236L79.9991 50.9223H80V50.9232H79.9991L52.0003 78.9219V69.8903L70.5168 51.3739L66.4522 47.3098Z" fill="#212121"/>
<path d="M24 50.9219L52.0003 78.9219V69.8903L33.4838 51.3739L33.9347 50.9219H24Z" fill="#212121"/>
<path d="M41.1616 50.9219L52.0003 61.7612V55.4385L47.4843 50.9219H41.1616Z" fill="#212121"/>
</g>
<g id="Group 477">
<path id="Intersect" fill-rule="evenodd" clip-rule="evenodd" d="M52 81.9209L82.9991 50.9219H72L72.5 51.4219L52 71.9219V81.9209ZM64 50.9219H57L52 55.9219V62.9219L64 50.9219Z" fill="#BE8821"/>
<path id="Intersect_2" fill-rule="evenodd" clip-rule="evenodd" d="M72.0005 50.9229H82.9991L52 19.9238V29.9224L65 42.9224L56.9995 50.9229H63.9995L68 46.9224L72.0005 50.9229Z" fill="#C69848"/>
<path id="Intersect_3" fill-rule="evenodd" clip-rule="evenodd" d="M21 50.9219L51.9996 81.9214V71.9214L31.5 51.4219L32 50.9219H21ZM40 50.9219L51.9996 62.9214V55.9214L47 50.9219H40Z" fill="#CA9B49"/>
<path id="Intersect_4" fill-rule="evenodd" clip-rule="evenodd" d="M21.0003 50.9214L21 50.9212L51.9993 19.9219V29.9213L38.9997 42.9209L47.0003 50.9214H40.0003L35.9997 46.9209L31.9992 50.9214H21.0003Z" fill="#E6B96A"/>
</g>
<g id="Subtract_4">
<path fill-rule="evenodd" clip-rule="evenodd" d="M33 75.9219V69.9219L16 55.3551V39.9219H24.5858L33 32.9219V26.9219L39 26.9215L52 14.9219L65 26.9215H71V32.9219L79.4142 39.9219H88V55.3551L71 69.9219V75.9219H65L52 90.9219L39 75.9219H33ZM39 75.9219L52 88.9219L65 75.9219H71V69.9219L86 54.4886V41.9219H78.5858L71 32.9219V26.9215H65L52 14.9219L39 26.9215L33 26.9219V32.9219L25.4142 41.9219H18V54.4886L33 69.9219V75.9219H39Z" fill="#6D4225"/>
<path fill-rule="evenodd" clip-rule="evenodd" d="M45 11.82V10.9219H59V11.82L78.2396 28.9219H92V22.4497L88.1368 14.7233L91.1703 4.1058L94 5.99224V17.5274L100 26.5274V51.3163L96.9296 55.9219H93.8232L88 66.4036V79.9219H67.6054L60.6054 98.9219H43.3946L36.3946 79.9219H16V66.4036L10.1768 55.9219H7.07037L4 51.3163V26.5274L10 17.5274V5.99224L12.8297 4.1058L15.8632 14.7233L12 22.4497V28.9219H25.7604L45 11.82ZM78.2396 28.9219H92V22.4497L88.1368 14.7233L91.1703 4.1058L94 5.99224V17.5274L98 27.133L100 51.3163L96.9296 55.9219H93.8232L86 65.8854V77.9219L67.6054 79.9219L59.2108 96.9219H44.7892L36.3946 79.9219L18 77.9219V65.8854L10.1768 55.9219H7.07037L4 51.3163L6 27.133L10 17.5274V5.99224L12.8297 4.1058L15.8632 14.7233L12 22.4497V28.9219H25.7604L45 11.82V10.9219H59V11.82L78.2396 28.9219Z" fill="#6D4225"/>
<path fill-rule="evenodd" clip-rule="evenodd" d="M25 26.9219L43 10.9219V8.92188H61V10.9219L79 26.9219H90V22.9219L86 14.9219L90 0.921875L96 4.92187V16.9219L102 25.9219V51.9219L98 57.9219H95L90 66.9219V81.9219H69L62 100.922L41.9787 100.864L35 81.9219H14V66.9219L9 57.9219H6L2 51.9219V25.9219L8 16.9219V4.92187L14 0.921875L18 14.9219L14 22.9219V26.9219H25ZM25 26.9219L43 10.9219V8.92188H61V10.9219L79 26.9219H90V22.9219L86 14.9219L90 0.921875L96 4.92187V16.9219L102 25.9219V51.9219L98 57.9219H95L90 66.9219V81.9219H69L62 100.922L41.9787 100.864L35 81.9219H14V66.9219L9 57.9219H6L2 51.9219V25.9219L8 16.9219V4.92187L14 0.921875L18 14.9219L14 22.9219V26.9219H25Z" fill="#6D4225"/>
</g>
</g>
<defs>
<filter id="filter0_f_3674_5117" x="0.7" y="37.1219" width="102.6" height="64.6" filterUnits="userSpaceOnUse" color-interpolation-filters="sRGB">
<feFlood flood-opacity="0" result="BackgroundImageFix"/>
<feBlend mode="normal" in="SourceGraphic" in2="BackgroundImageFix" result="shape"/>
<feGaussianBlur stdDeviation="1.9" result="effect1_foregroundBlur_3674_5117"/>
</filter>
<filter id="filter1_f_3674_5117" x="20" y="18.9219" width="64" height="64" filterUnits="userSpaceOnUse" color-interpolation-filters="sRGB">
<feFlood flood-opacity="0" result="BackgroundImageFix"/>
<feBlend mode="normal" in="SourceGraphic" in2="BackgroundImageFix" result="shape"/>
<feGaussianBlur stdDeviation="2" result="effect1_foregroundBlur_3674_5117"/>
</filter>
<linearGradient id="paint0_linear_3674_5117" x1="81.5" y1="85.9219" x2="81.5" y2="100.922" gradientUnits="userSpaceOnUse">
<stop stop-color="#AB750F"/>
<stop offset="0.516" stop-color="#D8A956"/>
<stop offset="1" stop-color="#AB750F"/>
</linearGradient>
<linearGradient id="paint1_linear_3674_5117" x1="22.5" y1="85.9219" x2="22.5" y2="100.922" gradientUnits="userSpaceOnUse">
<stop stop-color="#AB750F"/>
<stop offset="0.516" stop-color="#D8A956"/>
<stop offset="1" stop-color="#AB750F"/>
</linearGradient>
</defs>
</svg>
