<svg xmlns="http://www.w3.org/2000/svg" width="100" height="100" fill="none" xmlns:v="https://vecta.io/nano"><path d="M30.445 90.184h8.352v2.568h-8.352v-2.568zm.24 7.2h9.48V100h-12.6V83.2h12.264v2.616h-9.144v11.568zM41.415 100l7.08-9.744v2.352L41.751 83.2h3.528l5.016 6.96-1.44.024 4.968-6.984h3.384l-6.696 9.24v-2.256L57.639 100h-3.6l-5.28-7.392h1.416L44.967 100h-3.552zm18.118 0V83.2h6.912c1.488 0 2.76.24 3.816.72 1.072.48 1.896 1.168 2.472 2.064s.864 1.96.864 3.192-.288 2.296-.864 3.192-1.4 1.584-2.472 2.064c-1.056.48-2.328.72-3.816.72h-5.184l1.392-1.464V100h-3.12zm3.12-5.976l-1.392-1.512h5.04c1.376 0 2.408-.288 3.096-.864.704-.592 1.056-1.416 1.056-2.472 0-1.072-.352-1.896-1.056-2.472-.688-.576-1.72-.864-3.096-.864h-5.04l1.392-1.536v9.72z" fill="url(#A)"/><path d="M81.329 0v13.923H51.937s-9.282 0-16.63 6.188C22.916 30.545 21.384 51.05 21.384 51.05s-7.756-18.691 2.707-35.967C33.227 0 50.777 0 50.777 0h30.553z" fill="url(#B)"/><path d="M81.329 43.315V28.619H36.08s-8.585 5.047-8.585 17.9C27.495 68.84 41.108 70 41.108 70h40.221V57.238h-33.26s-5.973.027-10.295-3.827-4.401-10.095-4.401-10.095h47.956z" fill="url(#C)"/><defs><linearGradient id="A" x1="22.663" y1="91.5" x2="75.915" y2="91.5" gradientUnits="userSpaceOnUse"><stop stop-color="#ab750f"/><stop offset=".516" stop-color="#d8a956"/><stop offset="1" stop-color="#ab750f"/></linearGradient><linearGradient id="B" x1="15.687" y1="25.525" x2="82.476" y2="25.525" gradientUnits="userSpaceOnUse"><stop stop-color="#ab750f"/><stop offset=".516" stop-color="#d8a956"/><stop offset="1" stop-color="#ab750f"/></linearGradient><linearGradient id="C" x1="24.978" y1="49.31" x2="82.314" y2="49.31" gradientUnits="userSpaceOnUse"><stop stop-color="#ab750f"/><stop offset=".516" stop-color="#d8a956"/><stop offset="1" stop-color="#ab750f"/></linearGradient></defs></svg>