<svg xmlns="http://www.w3.org/2000/svg" width="100" height="100" fill="none" xmlns:v="https://vecta.io/nano"><g fill-rule="evenodd"><path d="M18.7 47.575V22c-10.597.063-10.098 8.29-9.735 14.301.061 1.013.119 1.962.119 2.8 0 5.807 9.616 8.474 9.616 8.474zm0 0V22c10.597.063 10.099 8.29 9.735 14.301-.061 1.013-.119 1.962-.119 2.8 0 5.807-9.616 8.474-9.616 8.474zm.364 11.75l-.75.549C12.816 64.112 13 69 13 69v6.657C8.517 74.441 2.607 72.444 0 69.85V61.6s-.125-3.321 4.053-5.781c1.053-.62 2.217-1.117 3.353-1.603 3.371-1.441 6.501-2.778 5.794-6.917 0 0 .53 1.106 2.45 2.13 1.29.688 3.05 1.17 3.05 1.17s1.76-.482 3.05-1.17c1.92-1.024 2.45-2.13 2.45-2.13-.691 4.043 2.28 5.413 5.561 6.817-1.057.502-2.169.977-3.295 1.459h-.001c-2.065.883-4.18 1.786-6.095 2.914a20.57 20.57 0 0 0-1.306.835z" fill="#bc851e"/><path d="M50 0C30.733.115 31.639 15.073 32.301 26.003c.111 1.841.216 3.568.216 5.09C32.517 41.651 50 46.5 50 46.5s17.483-4.849 17.483-15.407c0-1.522.105-3.249.216-5.09C68.361 15.073 69.267.115 50 0z" fill="url(#A)"/><path d="M29.466 58.576L23.37 61.49C15.773 65.963 16 72 16 72v15c8.14 8.1 34 13 34 13s25.86-4.9 34-13V72s.227-6.037-7.37-10.51c-1.915-1.128-4.031-2.032-6.096-2.914C64.404 55.956 58.713 53.524 60 46c0 0-.964 2.011-4.455 3.873C53.2 51.124 50 52 50 52s-3.2-.876-5.545-2.127C40.964 48.011 40 46 40 46c1.286 7.524-4.404 9.956-10.534 12.576z" fill="url(#B)"/><path d="M81.3 47.575V22c10.597.063 10.099 8.29 9.734 14.301-.061 1.013-.119 1.962-.119 2.8 0 5.807-9.616 8.474-9.616 8.474zm0 0V22c-10.597.063-10.099 8.29-9.735 14.301.061 1.013.119 1.962.119 2.8 0 5.807 9.616 8.474 9.616 8.474zm-.364 11.75l.75.549C87.184 64.112 87 69 87 69v6.657c4.483-1.216 10.393-3.213 13-5.807V61.6s.125-3.32-4.053-5.781c-1.053-.62-2.217-1.117-3.353-1.603-3.371-1.441-6.501-2.778-5.794-6.917 0 0-.53 1.106-2.45 2.13-1.285.685-3.037 1.166-3.05 1.17-.013-.004-1.765-.484-3.05-1.17-1.92-1.024-2.45-2.13-2.45-2.13.691 4.043-2.28 5.413-5.561 6.817 1.056.502 2.168.977 3.295 1.458 2.066.883 4.181 1.787 6.096 2.914a20.66 20.66 0 0 1 1.306.835z" fill="#bc851e"/></g><defs><linearGradient id="A" x1="50" y1="0" x2="50" y2="46.5" gradientUnits="userSpaceOnUse"><stop stop-color="#ab750f"/><stop offset=".516" stop-color="#d8a956"/><stop offset="1" stop-color="#ab750f"/></linearGradient><linearGradient id="B" x1="50" y1="46" x2="50" y2="100" gradientUnits="userSpaceOnUse"><stop stop-color="#ab750f"/><stop offset=".516" stop-color="#d8a956"/><stop offset="1" stop-color="#ab750f"/></linearGradient></defs></svg>