<svg xmlns="http://www.w3.org/2000/svg" width="100" height="100" fill="none" xmlns:v="https://vecta.io/nano"><path d="M37 46V27H8c-3.31 0-6 2.69-6 6v13h35z" fill="url(#A)"/><path d="M36.989 100V54h-29L8 93c0 3.87 3.14 7 7 7h21.989z" fill="url(#B)"/><path fill-rule="evenodd" d="M43 27h14v73H43V27z" fill="url(#C)"/><path d="M63 46V27h29c3.31 0 6 2.69 6 6v13H63z" fill="url(#D)"/><path d="M63.011 100V54h29L92 93c0 3.87-3.14 7-7 7H63.011z" fill="url(#E)"/><path fill-rule="evenodd" d="M33 2.02C39 5.87 42 9 42 9s3-3.5 8-3.5S58 9 58 9s3-3.13 9-6.98c6-3.86 13-.9 13-.9s7.85 3.39 4.11 11.6S74 22.5 74 22.5H26s-6.37-1.57-10.11-9.78C12.14 4.51 20 1.02 20 1.02s7-2.86 13 1zM27 15h10s-1-2-6-5.5S23.5 7 23.5 7s-1.695.793 0 4 3.5 4 3.5 4zm35.999 0h10s1.805-.793 3.5-4 0-4 0-4-2.5-1-7.5 2.5-6 5.5-6 5.5z" fill="url(#F)"/><defs><linearGradient id="A" x1="19.5" y1="27" x2="19.5" y2="46" href="#G"><stop stop-color="#ab750f"/><stop offset=".516" stop-color="#d8a956"/><stop offset="1" stop-color="#ab750f"/></linearGradient><linearGradient id="B" x1="22.489" y1="54" x2="22.489" y2="100" href="#G"><stop stop-color="#ab750f"/><stop offset=".516" stop-color="#d8a956"/><stop offset="1" stop-color="#ab750f"/></linearGradient><linearGradient id="C" x1="50" y1="27" x2="50" y2="100" href="#G"><stop stop-color="#ab750f"/><stop offset=".516" stop-color="#d8a956"/><stop offset="1" stop-color="#ab750f"/></linearGradient><linearGradient id="D" x1="80.5" y1="27" x2="80.5" y2="46" href="#G"><stop stop-color="#ab750f"/><stop offset=".516" stop-color="#d8a956"/><stop offset="1" stop-color="#ab750f"/></linearGradient><linearGradient id="E" x1="77.511" y1="54" x2="77.511" y2="100" href="#G"><stop stop-color="#ab750f"/><stop offset=".516" stop-color="#d8a956"/><stop offset="1" stop-color="#ab750f"/></linearGradient><linearGradient id="F" x1="49.998" y1="0" x2="49.998" y2="22.5" href="#G"><stop stop-color="#ab750f"/><stop offset=".516" stop-color="#d8a956"/><stop offset="1" stop-color="#ab750f"/></linearGradient><linearGradient id="G" gradientUnits="userSpaceOnUse"/></defs></svg>