<svg xmlns="http://www.w3.org/2000/svg" width="100" height="100" fill="none" xmlns:v="https://vecta.io/nano"><g clip-path="url(#C)"><path d="M24.135 100.24c-1.312 0-2.52-.208-3.624-.624-1.088-.432-2.04-1.032-2.856-1.8-.816-.784-1.448-1.704-1.896-2.76s-.672-2.208-.672-3.456.224-2.4.672-3.456 1.08-1.968 1.896-2.736c.832-.784 1.8-1.384 2.904-1.8 1.104-.432 2.312-.648 3.624-.648 1.424 0 2.704.232 3.84.696 1.152.464 2.12 1.144 2.904 2.04l-1.968 1.92c-.656-.656-1.368-1.136-2.136-1.44-.752-.32-1.584-.48-2.496-.48-.88 0-1.696.144-2.448.432a5.66 5.66 0 0 0-1.944 1.224 5.63 5.63 0 0 0-1.272 1.872c-.288.72-.432 1.512-.432 2.376 0 .848.144 1.632.432 2.352a5.9 5.9 0 0 0 1.272 1.896c.544.528 1.184.936 1.92 1.224s1.552.432 2.448.432c.832 0 1.632-.128 2.4-.384.784-.272 1.528-.72 2.232-1.344l1.776 2.328c-.88.704-1.904 1.24-3.072 1.608a11.93 11.93 0 0 1-3.504.528zm3.624-2.544v-6.288h2.952v6.696l-2.952-.408zm14.939 2.544c-1.312 0-2.52-.216-3.624-.648s-2.064-1.032-2.88-1.8c-.816-.784-1.448-1.696-1.896-2.736-.448-1.056-.672-2.208-.672-3.456s.224-2.392.672-3.432c.448-1.056 1.08-1.968 1.896-2.736.816-.784 1.776-1.392 2.88-1.824s2.304-.648 3.6-.648c1.312 0 2.512.216 3.6.648 1.104.432 2.064 1.04 2.88 1.824.816.768 1.448 1.68 1.896 2.736.448 1.04.672 2.184.672 3.432s-.224 2.4-.672 3.456-1.08 1.968-1.896 2.736-1.776 1.368-2.88 1.8c-1.088.432-2.28.648-3.576.648zm-.024-2.736c.848 0 1.632-.144 2.352-.432s1.344-.696 1.872-1.224c.528-.544.936-1.168 1.224-1.872.304-.72.456-1.512.456-2.376s-.152-1.648-.456-2.352c-.288-.72-.696-1.344-1.224-1.872a5.34 5.34 0 0 0-1.872-1.248c-.72-.288-1.504-.432-2.352-.432s-1.632.144-2.352.432a5.65 5.65 0 0 0-1.872 1.248c-.528.528-.944 1.152-1.248 1.872-.288.704-.432 1.488-.432 2.352 0 .848.144 1.632.432 2.352.304.72.72 1.352 1.248 1.896.528.528 1.152.936 1.872 1.224s1.504.432 2.352.432zM55.029 100V83.2h3.12v14.16h8.784V100H55.029zm14.367 0V83.2h7.344c1.824 0 3.424.352 4.8 1.056s2.448 1.68 3.216 2.928 1.152 2.72 1.152 4.416c0 1.68-.384 3.152-1.152 4.416-.768 1.248-1.84 2.224-3.216 2.928S78.565 100 76.741 100h-7.344zm3.12-2.64h4.08c1.264 0 2.352-.24 3.264-.72.928-.48 1.64-1.152 2.136-2.016.512-.864.768-1.872.768-3.024 0-1.168-.256-2.176-.768-3.024-.496-.864-1.208-1.536-2.136-2.016-.912-.48-2-.72-3.264-.72h-4.08v11.52z" fill="url(#A)"/><path fill-rule="evenodd" d="M75.404 12.962l-12.152 8.709S51.911 6.683 36.519 19.038l-6.987-6.987S36.612 3.905 43.7 3.5V0h11.2v3.5c.319.014 8.876.395 20.504 9.462zM24.54 57.038l12.152-8.709s11.342 14.987 26.734 2.633l6.987 6.987S63.389 66.095 56.3 66.5V70H45.1v-3.5s-8.611-.145-20.56-9.462zm25.531-26.861c-22.278-.608-22.108-16.304-22.108-16.304C23.4 17.5 17.8 40.506 45.192 40.506c25.108 0 27.561 15.392 27.561 15.392 10.126-13.164-.405-25.113-22.683-25.721z" fill="url(#B)"/></g><defs><linearGradient id="A" x1="10.587" y1="91.5" x2="88.335" y2="91.5" gradientUnits="userSpaceOnUse"><stop stop-color="#ab750f"/><stop offset=".516" stop-color="#d8a956"/><stop offset="1" stop-color="#ab750f"/></linearGradient><linearGradient id="B" x1="21.715" y1="35" x2="77.579" y2="35" gradientUnits="userSpaceOnUse"><stop stop-color="#ab750f"/><stop offset=".516" stop-color="#d8a956"/><stop offset="1" stop-color="#ab750f"/></linearGradient><clipPath id="C"><path fill="#fff" d="M0 0h100v100H0z"/></clipPath></defs></svg>