<svg xmlns="http://www.w3.org/2000/svg" width="100" height="100" fill="none" xmlns:v="https://vecta.io/nano"><g clip-path="url(#B)"><path fill-rule="evenodd" d="M24.281.856C22.999.937 22 2.001 22 3.286V10h-5.424c-3.53 0-6.312 3.036-5.796 6.529a115.15 115.15 0 0 0 5.397 21.695c1.784 5.04 5.857 8.869 10.838 10.812l.985.384v-6.266h15V55.27L50 58l7-2.73V43.154h15v6.266l.985-.384c4.981-1.943 9.055-5.772 10.838-10.812 2.525-7.136 4.308-14.323 5.397-21.695.516-3.492-2.265-6.529-5.796-6.529H78V4.146c0-1.227-.912-2.262-2.129-2.416L64.914.346c-1.454-.184-2.74.95-2.74 2.416V10H50 37.826V2.593c0-1.405-1.186-2.519-2.588-2.43L24.281.856zM33 83a6 6 0 0 0-6 6v11.48h23 23V89a6 6 0 0 0-6-6H50 33zm7-36h-9v17.5l4.5 2.5 4.5-2.5V47zM8.725 22.49c1.214 6.138 2.859 12.183 4.957 18.199.876 2.512 2.309 4.736 4.137 6.584C10.78 57.964 4.689 71.092.627 81.469.002 73.207-.335 63.638.487 56c1.128-10.477 5.175-24.196 8.238-33.51zM5.864 99.107c1.099.572 2.349.893 3.667.893H22V88c0-5.523 4.477-10 10-10h18 18c5.523 0 10 4.477 10 10v12h12.469c1.317 0 2.568-.32 3.667-.893.221-12.361-2.44-32.454-12.994-50.86-1.632 1.417-3.516 2.564-5.56 3.392L72 53.09v14.295l-7.5 3.462-7.5-3.462v-8.22L50 62h0 0l-7-2.835v8.22l-7.5 3.462-7.5-3.462V53.09l-3.582-1.451c-2.044-.828-3.928-1.976-5.56-3.393C8.304 66.653 5.643 86.746 5.864 99.107zm76.317-51.833c7.039 10.69 13.13 23.818 17.192 34.195.626-8.262.962-17.831.14-25.469-1.127-10.476-5.175-24.195-8.238-33.509a134.15 134.15 0 0 1-4.956 18.198c-.876 2.512-2.309 4.736-4.138 6.585zM69 47h-9v17.5l4.5 2.5 4.5-2.5V47z" fill="url(#A)"/></g><defs><linearGradient id="A" x1="50" y1=".159" x2="50" y2="100.48" gradientUnits="userSpaceOnUse"><stop stop-color="#ab750f"/><stop offset=".516" stop-color="#d8a956"/><stop offset="1" stop-color="#ab750f"/></linearGradient><clipPath id="B"><path fill="#fff" d="M0 0h100v100H0z"/></clipPath></defs></svg>