<svg xmlns="http://www.w3.org/2000/svg" width="100" height="100" fill="none" xmlns:v="https://vecta.io/nano"><g clip-path="url(#C)"><path d="M5.368 100.24c-1.072 0-2.064-.208-2.976-.624a5.64 5.64 0 0 1-2.208-1.8L1.96 95.68c.464.64.968 1.12 1.512 1.44.56.32 1.168.48 1.824.48 1.744 0 2.616-1.032 2.616-3.096v-8.688H1.936V83.2h9.096v11.136c0 1.984-.488 3.464-1.464 4.44-.96.976-2.36 1.464-4.2 1.464zm17.264 0c-2.304 0-4.112-.648-5.424-1.944-1.296-1.296-1.944-3.168-1.944-5.616V83.2h3.12v9.36c0 1.728.368 2.984 1.104 3.768.752.784 1.808 1.176 3.168 1.176s2.408-.392 3.144-1.176 1.104-2.04 1.104-3.768V83.2h3.072v9.48c0 2.448-.656 4.32-1.968 5.616-1.296 1.296-3.088 1.944-5.376 1.944zm11.713-.24V83.2h2.568L47.45 96.136h-1.272V83.2h3.096V100h-2.568L36.17 87.064h1.272V100h-3.096zm27.278.24c-1.312 0-2.52-.208-3.624-.624-1.088-.432-2.04-1.032-2.856-1.8-.816-.784-1.448-1.704-1.896-2.76s-.672-2.208-.672-3.456.224-2.4.672-3.456 1.08-1.968 1.896-2.736c.832-.784 1.8-1.384 2.904-1.8 1.104-.432 2.312-.648 3.624-.648 1.424 0 2.704.232 3.84.696 1.152.464 2.12 1.144 2.904 2.04l-1.968 1.92c-.656-.656-1.368-1.136-2.136-1.44-.752-.32-1.584-.48-2.496-.48-.88 0-1.696.144-2.448.432a5.66 5.66 0 0 0-1.944 1.224 5.63 5.63 0 0 0-1.272 1.872c-.288.72-.432 1.512-.432 2.376 0 .848.144 1.632.432 2.352a5.9 5.9 0 0 0 1.272 1.896c.544.528 1.184.936 1.92 1.224s1.552.432 2.448.432a7.54 7.54 0 0 0 2.4-.384c.784-.272 1.528-.72 2.232-1.344l1.776 2.328c-.88.704-1.904 1.24-3.072 1.608a11.93 11.93 0 0 1-3.504.528zm3.624-2.544v-6.288H68.2v6.696l-2.952-.408zM72.315 100V83.2h3.12v14.16h8.784V100H72.315zm17.247-9.816h8.352v2.568h-8.352v-2.568zm.24 7.2h9.48V100h-12.6V83.2h12.264v2.616h-9.144v11.568z" fill="url(#A)"/><g clip-path="url(#D)"><path fill-rule="evenodd" d="M48.794 0H85L70.378 19.613s-3.743 5.525 0 9.741l6.382 6.995-.348 12.553-7.543 6.407v6.93H52.464l-2.351-2.649s18.131-5.639 11.569-13.035-19.503-4.452-19.503-4.452l-3.133 7.061 4.526.392 2.901 4.446H32.779l-3.656 4.119 5.512 6.211h5.383l1.543-1.739v5.531L39.898 70H26.273L15 57.298l3.529-3.977c3.316-2.936 6.779-7.685 9.506-11.862a138.97 138.97 0 0 0 3.778-6.144l1.083-1.904.288-.523.051-.093.024-.044.019-.035.005-.009.001-.002h0c0 0 0 0-.273-.147l-.274-.147v.001l-.001.002-.005.008-.019.034-.038.07-.035.065-.286.518-1.077 1.894c-.923 1.591-2.229 3.769-3.761 6.116-2.701 4.137-6.081 8.763-9.289 11.64h-1.461l.58-6.995L15 42.758l4.561-3.115c1.66-.804 3.198-1.909 4.375-2.865a30.85 30.85 0 0 0 1.677-1.467l.465-.449.123-.124.032-.033.008-.009.002-.002v-.001h0c0 0 0 0-.224-.215l-.224-.215h0 0l-.002.002-.007.007-.03.03-.118.118-.453.438a30.23 30.23 0 0 1-1.643 1.437c-.9.732-2.004 1.542-3.2 2.229l-.213-6.36h2.205v-7.322h6.499v-2.615h5.802L47.457 7.783 48.794 0z" fill="url(#B)"/></g></g><defs><linearGradient id="A" x1="-4.722" y1="91.5" x2="102.848" y2="91.5" gradientUnits="userSpaceOnUse"><stop stop-color="#ab750f"/><stop offset=".516" stop-color="#d8a956"/><stop offset="1" stop-color="#ab750f"/></linearGradient><linearGradient id="B" x1="11.728" y1="35" x2="86.281" y2="35" gradientUnits="userSpaceOnUse"><stop stop-color="#ab750f"/><stop offset=".516" stop-color="#d8a956"/><stop offset="1" stop-color="#ab750f"/></linearGradient><clipPath id="C"><path fill="#fff" d="M0 0h100v100H0z"/></clipPath><clipPath id="D"><path fill="#fff" transform="translate(15)" d="M0 0h70v70H0z"/></clipPath></defs></svg>