<svg xmlns="http://www.w3.org/2000/svg" width="100" height="100" fill="none" xmlns:v="https://vecta.io/nano"><mask id="A" maskUnits="userSpaceOnUse" x="0" y="0" width="100" height="100" mask-type="alpha"><path fill="#d9d9d9" d="M0 0h100v100H0z"/></mask><g mask="url(#A)"><path d="M21.313 99.789c-2.619 0-4.861-.933-6.726-2.798s-2.798-4.107-2.798-6.726V42.646c0-2.619.933-4.861 2.798-6.726s4.107-2.798 6.726-2.798h4.762v-9.524c0-6.587 2.321-12.202 6.964-16.845S43.297-.211 49.884-.211 62.087 2.11 66.73 6.753s6.964 10.258 6.964 16.845v9.524h4.762c2.619 0 4.861.933 6.726 2.798s2.798 4.107 2.798 6.726v47.619c0 2.619-.933 4.861-2.798 6.726s-4.107 2.798-6.726 2.798H21.313zm0-9.524h57.143V42.646H21.313v47.619zM49.884 75.98c2.619 0 4.861-.933 6.726-2.798s2.798-4.107 2.798-6.726-.932-4.861-2.798-6.726-4.107-2.798-6.726-2.798-4.861.933-6.726 2.798-2.798 4.107-2.798 6.726.932 4.861 2.798 6.726 4.107 2.798 6.726 2.798zM35.599 33.122H64.17v-9.524c0-3.968-1.389-7.341-4.167-10.119s-6.151-4.167-10.119-4.167-7.341 1.389-10.119 4.167-4.167 6.151-4.167 10.119v9.524z" fill="#f5f1ee"/></g></svg>