<svg xmlns="http://www.w3.org/2000/svg" width="500" height="500" fill="none" xmlns:v="https://vecta.io/nano"><style><![CDATA[.B{fill:#fff}.C{stroke-width:12.601}.D{mask:url(#E)}.E{fill-rule:evenodd}.F{color-interpolation-filters:sRGB}.G{flood-opacity:0}.H{fill:#d8a956}.I{stroke-width:15.19}]]></style><g clip-path="url(#p)"><g clip-path="url(#q)"><path d="M472.223 250c0 122.73-99.492 222.222-222.222 222.222S27.779 372.73 27.779 250 127.271 27.778 250.001 27.778 472.223 127.27 472.223 250z" fill="url(#L)"/><mask id="A" maskUnits="userSpaceOnUse" x="27" y="27" width="446" height="446" mask-type="alpha"><path d="M472.223 250c0 122.73-99.492 222.222-222.222 222.222S27.779 372.73 27.779 250 127.271 27.778 250.001 27.778 472.223 127.27 472.223 250z" fill="#d9d9d9"/></mask><g mask="url(#A)"><g opacity=".5"><g opacity=".25"><path d="M467.556-105.511c-18.322 5.788-34.13 15.735-49.119 27.487-19.71 15.454-38.02 32.226-52.861 52.532-2.885 3.944-5.56 8.064-8.079 12.255-11.112 18.547-25.927 33.946-41.146 49.052-8.069 8.023-15.931 16.264-23.725 24.546-6.206 6.595-11.504 13.897-14.654 22.462-6.701 18.221-16.823 34.525-27.626 50.483l-40.564 60.326c-16.723 25.977-30.882 53.374-43.031 81.795-9.273 21.685-20.348 42.43-31.858 63.021-11.478 20.534-21.523 41.886-31.856 63.041-10.103 20.667-20.636 41.076-32.555 60.774-9.88 16.331-17.44 33.549-23.183 51.456 11.389 4.087 20.329 10.555 27.303 17.813 6.445-20.356 14.949-39.913 26.589-58.174 9.025-14.161 15.875-29.414 21.627-45.181 3.277-8.975 6.452-18.009 10.281-26.744 7.569-17.291 15.056-34.653 23.514-51.524 10.845-21.623 19.538-44.103 27.77-66.766 12.15-33.437 28.455-64.526 50.658-92.38 12.743-15.99 22.778-33.761 34.162-50.641 13.873-20.559 27.797-41.198 43.36-60.45 10.277-12.717 23.53-23.029 35.386-34.484 12.276-11.847 24.839-23.425 36.539-35.819 5.716-6.049 10.342-13.347 14.46-20.654 11.835-20.989 28.776-37.068 47.588-51.575 13.144-10.131 27.672-17.337 43.425-22.362 26.069-8.303 50.841-19.646 75.201-32.047 2.564-1.301 5.177-2.547 7.809-3.733l-3.905-27.066c-2.446.973-4.875 1.986-7.277 3.046l-57.923 26.627c-11.763 5.08-24.053 9.015-36.301 12.882l-.01.002z" fill="url(#M)"/><path d="M593.672 143.945c-14.192-1.935-22.919-10.44-25.45-24.609-2.205-12.343.05-24.243 3.644-35.965 2.336-7.609 5.192-15.055 7.475-22.677 1.035-3.439 1.591-7.108 1.764-10.712.302-6.509-2.826-10.484-9.247-12.041-8.072-1.959-16.093-.843-23.993 1.042-18.79 4.48-35.972 12.577-50.471 25.292-22.689 19.897-47.704 36.365-73.283 52.149-12.471 7.695-24.812 15.724-36.452 24.593-14.622 11.14-25.375 26.015-35.931 40.893-10.47 14.751-20.314 29.971-31.273 44.348-6.515 8.543-14.393 16.104-22.096 23.65-15.695 15.391-30.847 31.253-44.681 48.351-14.299 17.684-23.304 38.151-31.394 59.148l-37.779 97.328c-5.844 15.057-14.093 28.784-23.231 42.019-11.081 16.04-19.519 33.332-24.877 52.115-2.754 9.665-6.188 19.057-10.093 28.268l42.42 2.785.722-1.594c5.47-12.126 10.045-24.651 15.47-36.802 6.527-14.628 15.894-27.565 25.001-40.651 13.857-19.884 23.985-41.817 34.739-63.416l21.708-42.181c10.785-19.452 26.527-34.592 44.048-47.94 27.567-21.005 57.075-38.948 87.618-55.241 2.593-1.388 5.396-2.393 8.134-3.491 8.451-3.371 16.725-2.952 25.239.351 12.603 4.905 25.442 9.217 38.19 13.76 19.117 6.82 38.324 6.944 57.585.638 21.967-7.194 43.551-15.253 63.571-27.049 13.024-7.672 24.555-17.218 35.58-27.415l-15.185-105.223c-5.707.875-11.512 1.082-17.474.267l.002.01z" fill="url(#N)"/><path d="M-34.395-86.835c-7.141 14.095-13.365 28.668-20.45 42.797L-58.2-37.4-42.074 74.493l25.228-52.982L38.949-87.955c8.634-16.224 19.486-31.268 29.387-46.817 8.493-13.328 14.873-27.468 19.608-42.179-42.463 42.581-83.571 63.005-112.642 72.797-3.448 5.638-6.705 11.384-9.708 17.31l.012.009z" fill="url(#O)"/><path d="M597.968 502.661c-4.203-69.268 52.666-85.419 52.666-85.419l-6.29-43.593c-3.404 3.295-6.744 6.673-10.043 10.118l-86.838 89.326c-13.671 13.931-29.056 25.668-47.852 31.825-9.472 3.104-19.299 5.184-29.055 7.327l-51.733 10.806c-17.178 3.255-33.942 8.084-49.827 15.135-18.149 8.06-36.057 16.861-53.354 26.598-10.609 5.979-18.826 13.837-24.836 23.155l64.819 4.249 242.345-89.517-.002-.01z" fill="url(#P)"/><path d="M508.018-68.193c-27.143 8.313-50.061 23.04-68.629 44.474-3.193 3.678-6.139 7.703-8.45 11.977-10.601 19.653-25.377 35.677-41.985 50.332-16.729 14.755-33.135 29.877-49.47 45.061-20.549 19.102-37.553 41.262-53.395 64.236-15.379 22.318-30.676 44.624-48.018 65.519-18.075 21.765-31.207 46.459-40.533 73.086-11.37 32.456-24.428 64.183-38.886 95.388-8.172 17.637-15.309 35.776-22.159 53.967-7.261 19.285-17.439 36.994-27.157 55.029-9.439 17.52-17.558 35.522-24.302 54.018 9.884 15.59 12.732 30.385 12.732 30.385l14.902.973c4.976-11.393 9.462-23.026 13.39-34.806 6.5-19.464 14.958-37.846 26.595-54.762 10.594-15.4 17.915-32.407 24.585-49.765l41.867-108.573c9.42-25.037 23.667-46.809 41.925-66.16 14.525-15.399 29.756-30.206 43.293-46.435 10.822-12.96 19.711-27.556 29.185-41.616 10.692-15.869 20.715-32.356 35.389-44.932 11.378-9.751 23.572-18.586 35.626-27.525 12.323-9.154 24.85-18.037 37.405-26.873 19.082-13.429 35.547-29.79 52.386-45.781 11.954-11.355 23.871-22.892 38.607-30.738 17.204-9.165 35.366-15.913 54.376-20.094l-10.434-72.3c-.192.1-.396.192-.588.292C554.5-82.71 531.3-75.308 508.04-68.186l-.022-.007z" fill="url(#Q)"/><path d="M591.071 298.841l-52.861 29.806c-24.042 12.955-49.786 15.987-76.478 11.367-16.816-2.911-33.777-3.463-50.645-2.219-8.639.637-17.51 3.458-25.46 7.077-22.623 10.32-44.907 21.407-67.183 32.484-12.644 6.282-23.145 15.38-31.041 27.112-5.834 8.672-11.229 17.664-16.449 26.724l-32.427 56.927c-4.917 8.292-10.926 15.966-16.813 23.632-12.747 16.611-22.242 34.894-28.618 54.796-1.59 4.967-3.403 9.821-5.348 14.622l55.975 3.674.302-1.275c4.062-17.085 12.331-32.036 24.009-45.017 15.788-17.546 32.77-33.837 52.107-47.5 12.681-8.967 26.607-14.969 41.815-18.467 18.333-4.208 37.052-6.03 55.464-9.473 23.751-4.441 47.828-7.978 70.358-17.508 18.826-7.961 35.978-18.918 53.346-29.524 24.545-14.993 45.646-33.854 63.953-55.881 9.862-11.871 20.88-22.181 32.795-31.296l-8.299-57.506c-12.136 10.089-24.792 19.518-38.514 27.436l.012.009z" fill="url(#R)"/><path d="M428.87-164.952c-27.703 8.808-53.133 22.046-75.17 41.228l-47.821 42.289c-17.383 14.59-28.775 32.919-34.901 54.337-6.451 22.54-15.851 43.561-28.24 63.368-7.759 12.395-13.95 25.546-18.609 39.428-1.591 4.74-3.452 9.405-5.405 14.01-9.256 21.807-22.267 41.528-34.978 61.33-19.165 29.836-36.667 60.519-52.107 92.445-8.812 18.215-17.528 36.665-28.411 53.648-18.372 28.667-36.885 57.219-53.592 86.887-12.631 22.429-25.486 44.744-36.718 67.912l6.151 42.051c7.327-20.908 16.407-40.993 27.668-60.306 16.394-28.113 31.354-57.052 47.464-85.341 9.458-16.602 20.627-32.251 29.794-49.007 10.698-19.553 20.139-39.793 29.963-59.81 19.681-40.099 45.079-76.711 69.652-113.803 10.82-16.343 19.839-33.337 25.569-52.193 2.473-8.167 6.589-15.991 10.964-23.377 4.798-8.109 10.448-15.762 16.254-23.199 13.486-17.297 23.976-36.21 31.925-56.607 3.76-9.645 8.878-18.545 16.313-25.804l49.047-46.986c20.781-19.001 44.698-32.683 71.996-40.284 13.793-3.842 27.769-7.42 41.045-12.688 21.536-8.538 42.611-18.262 63.791-27.68l3.77-1.62c-21.832 1.682-42.527.489-61.708-2.546-20.957 8.176-42.221 15.516-63.703 22.34l-.003-.02z" fill="url(#S)"/><path d="M26.563-1.74c4.61-9.985 8.079-20.499 11.916-30.828.692-1.869.653-4.004.951-6.023l-1.356-.58c-1.973 2.674-4.183 5.207-5.895 8.04C21.979-14.153 11.307 2.572 1.903 19.983-12.048 45.809-25.458 71.949-38.637 98.18l4.764 32.797c4.435-12.205 9.458-24.205 14.95-36.035L26.563-1.74z" fill="url(#T)"/><path d="M77.421 309.689c15.81-24.49 29.589-49.856 41.817-76.23 8.228-17.748 17.097-35.206 26.204-52.523l33.228-61.201c12.805-24.378 17.729-51.549 26.715-77.299.336-.969.213-2.11.309-3.169l-1.047-.511c-1.753 2.26-3.877 4.314-5.192 6.811-5.035 9.55-10.634 18.923-14.548 28.932-12.669 32.488-29.636 62.721-47.281 92.627-10.406 17.639-21.488 34.889-31.389 52.796-14.776 26.71-29.464 53.376-48.892 77.168L6.077 361.444a205.63 205.63 0 0 1-5.457 6.487l8.347 57.126 10.635-19.058c18.752-32.414 37.498-64.869 57.796-96.317l.022.007z" fill="url(#U)"/><path d="M162.026-246.354l-10.5 44.795c-1.775 8.2-2.854 16.569-4.116 24.882-2.64 17.262-9.584 33.15-15.508 49.376-9.587 26.251-23.975 50.05-38.138 73.909L41.807 32.422c-15.254 26.903-28.942 54.77-38.794 84.203-4.209 12.555-6.993 25.659-9.477 38.7-2.425 12.732-5.398 25.17-11.901 36.453-2.051 3.564-3.72 7.198-5.08 10.891l10.766 73.886c1.984.055 4.117-.211 6.387-.829 9.22-2.489 16.982-7.55 24.23-13.52 12.907-10.624 22.541-23.93 31.604-37.827 12.377-18.957 25.233-37.611 37.986-56.323 11.789-17.3 24.901-33.819 33.712-52.903 5.802-12.547 10.31-25.755 14.703-38.895 13.501-40.418 30.467-79.185 53.178-115.346 3.624-5.778 6.726-11.884 9.998-17.88 5.188-9.5 11.987-17.649 20.124-24.772 15.235-13.349 30.706-26.278 48.036-37.002 13.011-8.043 23.774-19.05 33.853-30.56 14.98-17.119 31.598-32.354 50.202-45.507 8.721-6.162 17.202-12.764 25.213-19.827 3.964-3.499 8.052-6.779 12.242-9.856a290.7 290.7 0 0 1-10.162-6.126c-29.768 23.174-59.16 46.8-82.928 76.639-13.391 16.807-30.468 29.357-48.659 40.785-17.109 10.754-33.717 22.616-47.758 37.283-6.84 7.152-11.84 16.087-17.533 24.304l-52.228 75.55c-3.893 5.568-8.501 10.692-13.139 15.685-2.024 2.175-4.81 3.797-7.528 5.11-2.65 1.272-5.322.178-5.954-2.699-.823-3.698-1.402-7.639-1.063-11.38 1.33-14.725 6.658-28.342 13.173-41.395l31.339-60.671 19.381-39.529c2.183-4.37 4.774-8.561 7.443-12.649 8.542-13.056 11.035-27.536 9.987-42.756-1.882-27.306-1.07-54.514 1.894-81.713.625-5.707 1.901-11.125 3.734-16.344-9.39 3.744-17.803 8.093-25.266 12.645a110.28 110.28 0 0 0-1.496 5.409l-.001-.01z" fill="url(#V)"/><path d="M241.971-72.813c9.364-9.296 17.965-19.371 29.218-26.549 15.998-10.212 30.251-22.551 43.897-35.65 15.064-14.463 31.089-27.637 49.499-37.762 11.156-6.13 22.305-12.311 33.079-19.079 8.622-5.413 17.383-10.505 26.337-15.19a308.6 308.6 0 0 1-11.451-5.092c-7.639 4.485-15.088 9.346-22.373 14.566-11.062 7.927-22.938 14.73-34.575 21.83-17.131 10.457-31.986 23.638-46.061 37.782-13.535 13.591-28.533 25.282-44.382 36.093-9.22 6.285-17.224 14.402-25.499 21.999-5.353 4.91-10.906 9.87-15.078 15.727-5.505 7.725-10.244 16.105-14.422 24.642l-33.254 70.339c-6.63 15.056-11.809 30.781-17.174 46.358-10.016 29.085-23.745 56.378-39.319 82.789l-34.038 56.374c-9.588 15.99-18.271 32.594-28.768 47.949-9.473 13.852-20.473 26.725-31.534 39.39-9.542 10.935-19.677 21.417-30.215 31.399l2.565 17.557c1.888-1.969 3.727-3.993 5.519-6.051 12.362-14.259 24.062-29.095 36.234-43.523 17.597-20.849 33.123-43.074 46.181-67.064 10.009-18.378 20.033-36.799 31.051-54.567 17.729-28.605 33.589-58.12 46.318-89.262 6.714-16.413 12.106-33.379 19.064-49.682l33.925-76.436c6.195-14.559 13.959-27.709 25.251-38.917l.005.03z" fill="url(#W)"/><path d="M47.695-14.657C28.817 17.817 10.437 50.519-5.715 84.461c-9.969 20.948-19.058 42.193-25.58 64.381l2.825 19.432c.988-3.69 1.876-7.429 2.707-11.2 6.179-28.293 18.005-54.505 30.391-80.571C20.727 42.61 40.438 10.823 59.398-21.435c17.532-29.828 34.622-59.996 47.924-91.975 12.235-29.405 22.243-59.617 26.288-91.512 1.189-9.399 2.894-18.727 4.631-28.049-6.07 5.458-10.611 10.334-13.605 13.817-3.387 29.856-11.446 58.669-21.854 86.828-15.051 40.714-33.26 80.115-55.089 117.66l.001.01z" fill="url(#X)"/><path d="M312.014-151.234c-16.022 17.074-33.092 32.757-53.206 45.052-15.152 9.262-27.133 22.431-40.054 34.392-3.294 3.051-6.147 6.793-8.432 10.671-5.777 9.792-10.954 19.931-16.662 29.765-16.97 29.209-31.387 59.55-42.107 91.643-5.042 15.096-10.341 30.125-16.138 44.936-8.553 21.871-22.074 41.004-34.462 60.749l-39.757 64.047c-13.078 21.841-28.445 41.727-47.355 58.782-6.874 6.195-14.115 11.864-22.446 15.776l2.567 17.577c4.192-2.922 8.104-6.279 11.853-9.831 25.258-23.888 47.67-50.148 64.252-80.895 11.947-22.153 25.258-43.459 38.931-64.548 21.471-33.138 38.156-68.481 49.913-106.217 9.577-30.759 23.623-59.588 38.965-87.818 3.147-5.792 6.278-11.622 9.023-17.615 6.462-14.142 16.368-25.419 27.592-36.028 12.368-11.705 25.786-21.803 39.673-31.586 11.643-8.207 22.539-17.786 32.519-27.977 18.041-18.42 37.894-34.246 59.962-47.547 10.298-6.203 19.959-13.514 29.617-20.711 3.157-2.348 6.374-4.571 9.646-6.698l-6.768-3.461c-2.126 1.465-4.225 2.978-6.295 4.549-12.129 9.209-24.205 18.565-36.897 26.954-15.929 10.543-30.89 22.136-43.943 36.05l.009-.012z" fill="url(#Y)"/><path d="M94.848-75.445C75.558-40.595 54.424-6.844 34.554 27.646 15.477 60.748-2.088 94.791-13.691 131.439c-3.488 11.024-6.039 22.377-8.525 33.68-1.177 5.321-2.588 10.521-4.436 15.567l1.434 9.868c4.894-9.954 8.249-20.399 10.175-31.425 3.272-18.76 8.474-37.044 16.004-54.537C17.635 65.878 37.123 28.672 59.9-6.889c19.822-30.945 38.575-62.635 54.447-95.793 13.918-29.069 24.456-59.408 29.083-91.646 2.337-16.278 6.223-32.355 9.927-48.406l.652-2.793a169.31 169.31 0 0 0-7.443 5.553l-2.11 10.607c-3.748 18.829-6.188 37.977-10.982 56.512-8.788 34.008-21.555 66.531-38.637 97.401l.012.009z" fill="url(#Z)"/><path d="M300.544 537.119c15.205-10.615 30.436-21.191 47.522-28.664 14.129-6.176 29.053-9.85 44.045-13.048 14.23-3.036 28.636-5.208 42.935-7.913 13.504-2.549 27.079-4.89 40.442-8.05 17.947-4.234 34.154-12.49 48.592-23.904 19.992-15.794 40.349-31.207 59.364-48.112 14.136-12.57 26.808-26.905 39.408-41.095 5.633-6.337 11.625-12.125 17.92-17.461l-1.396-9.677c-8.462 6.807-16.408 14.326-23.756 22.689-11.247 12.805-22.823 25.42-35.254 37.051-18.809 17.61-40.694 31.319-61.817 45.942-14.304 9.905-29.713 17.746-46.704 21.791-15.131 3.6-30.414 6.654-45.694 9.583l-50.01 8.985c-12.713 2.507-25.24 5.877-36.888 11.82-22.506 11.492-41.971 27.138-60.091 44.503-12.905 12.362-21.57 27.08-26.242 43.881l9.065.595c7.017-19.901 20.112-36.034 38.569-48.918l-.01.002z" fill="url(#a)"/><path d="M331.77 539.428c15.935-9.137 32.462-16.973 50.321-21.526 12.87-3.285 25.843-6.14 38.844-8.874l49.472-9.85c18.732-3.592 36.672-9.305 52.053-20.927 8.963-6.776 17.358-14.329 25.751-21.829 29.111-26.006 57.618-52.608 83.462-81.971a185.31 185.31 0 0 1 11.125-11.577l-1.078-7.468c-5.469 4.896-10.677 10.168-15.555 15.858-25.298 29.49-54.267 55.042-84.045 79.789-12.524 10.414-24.832 21.034-39.689 28.112-10.104 4.82-20.664 8.268-31.662 10.331l-70.41 13.14c-38.65 7.284-72.932 24.189-104.093 47.739-12.974 9.806-21.771 22.03-27.355 36.097l8.418.555c6.783-14.065 17.27-25.767 31.943-34.763 7.355-4.517 15.007-8.548 22.507-12.847l-.009.011z" fill="url(#b)"/></g></g></g><g class="E"><path d="M250.001 433.16c101.156 0 183.16-82.004 183.16-183.16S351.157 66.84 250.001 66.84 66.841 148.844 66.841 250s82.003 183.16 183.16 183.16zm0 39.062c122.73 0 222.222-99.492 222.222-222.222S372.731 27.778 250.001 27.778 27.779 127.27 27.779 250s99.492 222.222 222.222 222.222z" fill="url(#c)"/><path d="M250.001 456.597c114.1 0 206.597-92.497 206.597-206.597S364.101 43.403 250.001 43.403 43.404 135.899 43.404 250 135.9 456.597 250.001 456.597zm0 15.625c122.73 0 222.222-99.492 222.222-222.222S372.731 27.778 250.001 27.778 27.779 127.27 27.779 250s99.492 222.222 222.222 222.222z" fill="url(#d)"/><path d="M500 250c0 138.071-111.929 250-250 250S0 388.071 0 250 111.929 0 250 0s250 111.929 250 250zM250 472.222c122.73 0 222.222-99.492 222.222-222.222S372.73 27.778 250 27.778 27.778 127.27 27.778 250 127.27 472.222 250 472.222z" fill="#212121" fill-opacity=".8"/></g><mask id="B" class="B"><path d="M91.581 50.64l110.686 15.214 16.54-38.487 25.36 33.343L347.884 19.17l-2.465 14.424 44.389-15.744-13.755 43.775 14.614-5.62s-13.92 11.274-10.912 35.774l36.098 293.995-1.667.964 3.056 10.342-124.054 80.274-2.314-18.846-17.883 9.832-.037.022-.055-.016-19.716-5.21 2.314 18.846-139.789-47.878.464-10.774-1.852-.532-36.098-293.995C75.214 104.302 58.98 96.73 58.98 96.73l15.539 1.918-23.937-39.147 46.88 4.538-5.882-13.399z"/></mask><path d="M91.581 50.64l110.686 15.214 16.54-38.487 25.36 33.343L347.884 19.17l-2.465 14.424 44.389-15.744-13.755 43.775 14.614-5.62s-13.92 11.274-10.912 35.774l36.098 293.995-1.667.964 3.056 10.342-124.054 80.274-2.314-18.846-17.883 9.832-.037.022-.055-.016-19.716-5.21 2.314 18.846-139.789-47.878.464-10.774-1.852-.532-36.098-293.995C75.214 104.302 58.98 96.73 58.98 96.73l15.539 1.918-23.937-39.147 46.88 4.538-5.882-13.399z" stroke="#3b2500" mask="url(#B)" class="I"/><g class="E"><path d="M223.898 68.828L91.581 50.641l15.935 36.303 39.338 320.379-30.153 3.702-.993 23.078 139.789 47.878-2.314-18.846 19.771 5.225 17.92-9.853 2.314 18.846 124.054-80.273-6.546-22.153-30.154 3.703-39.337-320.38 6.679-39.08-123.986 49.658z" fill="url(#e)"/><path d="M197.976 75.837l30.55 30.683 22.219-37.162-31.938-41.99-20.831 48.47z" fill="url(#f)"/></g><path d="M197.976 75.837l20.831-48.47 31.938 41.99-31.012-34.452-21.757 40.931z" fill-opacity=".3" class="B"/><g class="E"><path d="M114.32 422.797l158.634 45.564 142.899-82.588-36.098-293.995c-3.008-24.5 10.912-35.774 10.912-35.774l-14.614 5.62 13.755-43.775-164.522 62.287L50.583 59.502l23.937 39.147-15.539-1.918s16.234 7.572 19.242 32.071l36.098 293.995z" fill="#333"/><path opacity=".15" d="M131.188 72.96c-7.384 12.699-15.167 25.149-22.949 37.597h0l-15.795 25.546c-3.781 6.251-7.473 12.559-10.998 18.957l-.447-3.641c6.662-11.916 13.871-23.499 21.082-35.088h0 0l6.415-10.341c7.508-12.176 14.897-24.449 21.556-37.102l3.23.382-2.101 3.685.007.005zm-48.504 92.186l-.643-5.238c8.019-15.417 16.848-30.39 26.574-44.89 9.898-14.755 19.399-29.8 27.976-45.358l3.769.445c-2.937 4.962-5.988 9.86-9.038 14.755l-.001.001h0 0 0l-1.097 1.761-13.82 21.587h-.001l-19.526 30.95c-5.048 8.48-9.842 17.124-14.192 25.986zm124.135-87.191l-5.198-.614c-2.256 2.601-4.267 5.406-6.011 8.445l-1.553 2.738v.001c-1.567 2.779-3.134 5.559-4.882 8.219-14.559 22.128-25.589 45.947-34.492 70.836-2.897 8.092-5.866 16.224-9.629 23.929-4.373 8.969-10.288 16.973-16.203 24.976l-5.397 7.391-4.174 5.847-20.123 28.585c-1.401 2.052-2.823 4.083-4.288 6.074l1.466 11.941c3.544-4.597 6.857-9.395 9.977-14.364 6.629-10.563 13.494-20.979 20.359-31.395l.001-.001 5.137-7.803 4.454-6.678c6.578-9.789 13.157-19.581 17.715-30.544 3.789-9.11 7.272-18.361 10.597-27.657 7.069-19.762 16.408-38.39 27.315-56.282 1.722-2.827 3.373-5.698 5.023-8.568l5.701-9.672c1.187-1.922 2.604-3.783 4.205-5.403zM97.322 284.359c5.319-6.734 10.183-13.842 14.474-21.41 7.699-13.582 16.234-26.621 24.99-39.52 13.75-20.27 24.561-41.97 32.347-65.218 6.343-18.95 15.432-36.645 25.317-53.951 2.027-3.55 4.045-7.125 5.826-10.805 2.73-5.655 6.35-10.537 10.503-15.031l3.134.37c-.857.923-1.669 1.88-2.415 2.881-3.515 4.719-6.564 9.853-9.267 15.093l-21.545 43.186c-3.775 8.103-6.866 16.54-9.949 24.954l-.001.003-.001.004-.001.003-.002.004-.001.004-.001.003-1.303 3.55c-6.593 17.906-15.465 34.653-25.47 50.828l-13.011 20.603-8.838 13.912-6.009 9.838h0-.001 0v.001h0 0 0 0c-3.989 6.626-7.977 13.251-12.46 19.52-1.781 2.49-3.642 4.925-5.562 7.319l-.754-6.14zm3.827-174.318c-7.139 11.704-14.173 23.46-20.884 35.4l-1.204-9.807 8.814-17.86c2.255-4.623 4.111-9.441 5.965-14.257h0v-.001h0v-.001-.001h0v-.001-.001h0v-.001h0l1.826-4.699c.311-.787.41-1.657.51-2.527.046-.401.092-.802.159-1.196l-.833-.378c-.405.525-.825 1.041-1.245 1.557h0 0 0 0 0 0 0 0 0 0 0c-.885 1.087-1.77 2.175-2.515 3.351l-5.356 8.41h0 0l-9.248 14.683c-1.221-5.158-3.048-9.396-5.08-12.843l24.376-44.954 27.289 3.223c-6.79 14.335-14.296 28.323-22.575 41.894l.001.007zm-2.032 188.935c8.442-10.362 16.055-21.31 22.722-32.965l.132-.231c6.405-11.189 12.823-22.402 19.84-33.203 11.371-17.507 21.594-35.603 29.896-54.749 2.003-4.616 3.836-9.307 5.669-13.998l.001-.001c2.174-5.564 4.347-11.127 6.804-16.563 3.537-7.834 7.249-15.589 10.961-23.346l11.081-23.612c3.465-7.687 7.634-14.714 13.274-20.855l5.789.684 49.608-18.781-12.749 10.657c-10.971 8.82-18.277 20.038-22.357 33.241-4.296 13.893-10.401 26.807-18.344 38.928-4.975 7.585-8.987 15.66-12.058 24.208-1.049 2.918-2.264 5.787-3.536 8.618-5.635 12.534-13.284 23.893-20.912 35.221l-1.584 2.355c-12.277 18.252-23.534 37.051-33.528 56.648l-1.159 2.275h0l-.001.001v.001c-5.316 10.436-10.664 20.936-17.163 30.621l-2.762 4.114-23.997 36.567-1.768-14.402 12.342-18.834.013.005c10.126-14.981 19.004-30.531 26.933-46.727 5.336-10.899 11.065-21.61 16.94-32.229l10.625-18.615v-.001h0 0l.001-.001h0 0v-.001h0 0 .001l10.783-18.902c5.453-9.869 8.792-20.537 12.132-31.209v-.001h0 .001v-.001c1.719-5.494 3.439-10.989 5.448-16.377.15-.404.17-.86.19-1.315v-.001c.01-.217.019-.433.043-.645l-.236-.122-.406-.208a37.4 37.4 0 0 1-1.099 1.275h0-.001 0 0v.001h0-.001 0v.001h-.001 0c-.813.915-1.627 1.83-2.208 2.879l-2.427 4.287v.001h-.001v.001l-.001.001v.001l-.001.001v.001l-.001.001v.001h-.001c-2.517 4.401-5.038 8.81-6.969 13.457-8.283 19.982-19.202 38.509-30.537 56.824l-7.453 11.798-12.706 20.533-.28.482c-9.42 16.209-18.814 32.376-31.053 46.734l-2.947 3.475-.983-8.002zm77.822-222.332c.04-.741.079-1.483.257-2.187l-12.451-1.471-1.672 3.154-8.821 16.17-11.41 21.045c-4.212 8.01-7.695 16.384-8.713 25.499-.259 2.316.048 4.767.51 7.072.355 1.792 1.997 2.506 3.658 1.752 1.702-.779 3.451-1.749 4.735-3.071 2.942-3.036 5.867-6.153 8.354-9.555l21.203-29.289v-.001l12.178-16.878c1.015-1.4 1.997-2.836 2.979-4.272 1.925-2.815 3.853-5.633 6.033-8.196l-12.222-1.444-.305.273c-.794.707-1.643 1.347-2.492 1.988h-.001l-1.189.908-.352-.21-.352-.21a23.9 23.9 0 0 0 .073-1.078h0zm-69.531 289.86l4.304-7.492 13.521-23.247c2.806-4.691 5.835-9.252 8.863-13.812v-.001c3.538-5.327 7.076-10.654 10.257-16.189 5.263-9.152 10.075-18.563 14.886-27.97h0l.002-.004 4.479-8.725c11.144-21.543 24.97-41.37 38.792-61.192l5.896-8.471c6.925-9.994 12.741-20.415 16.542-32.034 1.641-5.032 4.296-9.831 7.106-14.354 3.082-4.966 6.686-9.638 10.384-14.174 8.591-10.55 15.345-22.142 20.542-34.687 2.458-5.933 5.749-11.385 10.455-15.789l3.96-3.704h0l27.074-24.791c13.136-11.511 28.148-19.683 45.177-24.039l3.694-.937c7.392-1.868 14.811-3.743 21.928-6.393 4.275-1.591 8.522-3.257 12.753-4.967l-9.681 30.809c-5.144 1.784-10.383 3.333-15.61 4.863l-.006.001c-11.439 3.35-21.373 9.311-30.823 16.402-12.426 9.326-24.001 19.487-33.471 31.885-1.842 2.408-3.554 4.928-5.172 7.494-7.134 11.357-16.524 20.713-26.16 29.881-5.11 4.87-10.094 9.878-15.036 14.912-3.935 4.009-7.316 8.468-9.382 13.738-4.395 11.212-10.886 21.191-17.795 30.946l-7.055 9.909h0l-18.893 26.971c-10.711 15.891-19.852 32.696-27.759 50.162-6.036 13.327-13.176 26.047-20.584 38.666-6.11 10.408-11.619 21.175-17.124 31.934h0l-3.458 6.745c-5.755 11.167-11.714 22.205-18.277 32.915l-4.329-35.259zM53.594 59.857l-1.344 2.369-1.666-2.725 3.011.356zM152.42 433.74l7.623 2.19a118.4 118.4 0 0 1 4.839-7.239c5.841-8.088 11.137-16.493 14.959-25.754l8.408-20.343 16.298-39.521c5.292-12.916 11.145-25.491 20.244-36.27 8.804-10.423 18.409-20.061 28.344-29.4l.483-.454.437-.409c4.58-4.294 9.202-8.629 13.094-13.514 4.478-5.625 8.677-11.47 12.876-17.316l7.1-9.777c6.742-9.089 13.605-18.173 22.82-24.89 7.335-5.347 15.093-10.165 22.928-14.774 16.071-9.453 31.8-19.337 46.132-31.379 2.836-2.383 5.826-4.488 8.949-6.334l-2.753-22.424c-2.335 2.016-4.619 4.097-6.899 6.175h-.001v.001h0 0-.001v.001h0 0-.001v.001h0 0-.001l-.742.677-3.768 3.442c-9.37 8.574-18.73 17.139-29.321 24.263l-23.55 16.175-2.733 1.935h-.001c-6.693 4.734-13.398 9.477-19.721 14.668-8.065 6.622-13.984 15.127-19.893 23.619h0l-2.643 3.782-4.279 6.165h-.001c-4.557 6.617-9.119 13.241-14.366 19.262-6.077 6.98-12.669 13.51-19.261 20.04l-8.197 8.189c-11.576 11.761-20.697 25.077-26.868 40.48l-17.095 41.794-.004.008-.001.003-10.288 24.98c-4.365 10.677-9.128 21.129-15.9 30.54a118.83 118.83 0 0 0-7.246 11.408zm-21.462-6.164l-9.827-2.823a135.52 135.52 0 0 1 6.796-11.359c5.782-8.663 10.23-18.033 14.004-27.736l.89-2.293v-.001l.001-.001c1.845-4.764 3.692-9.532 5.836-14.156l1.291-2.788c4.487-9.7 8.979-19.411 13.968-28.857 7.009-13.267 12.695-27.095 18.097-41.042 7.974-20.577 18.493-39.644 32.628-56.627 5.413-6.505 10.088-13.517 14.763-20.529l7.087-10.429.034-.047c8.863-12.553 17.758-25.153 27.649-36.873 4.442-5.265 9.721-9.823 15.001-14.383h0 0l.001-.001h0 0 0 0 0l.001-.001h0 0 0 0 0 .001v-.001h0 0l7.394-6.536 5.817-5.34c5.87-5.367 11.74-10.735 17.313-16.395 3.625-3.676 6.589-8.141 9.239-12.619 7.615-12.862 18.332-22.611 30.189-31.361 8.284-6.11 17.388-10.389 27.224-13.299l5.266-1.629c-1.387 4.104-2.349 9.112-2.289 15.063-13.523 5.121-25.253 13.099-35.148 24.044-2.028 2.239-3.908 4.697-5.397 7.318-6.832 12.049-16.206 21.793-26.698 30.663-10.568 8.931-20.941 18.094-31.271 27.296-12.994 11.577-23.83 25.097-33.956 39.137l-.697.967c-9.596 13.316-19.173 26.606-29.941 39.036-11.495 13.261-19.963 28.403-26.096 44.794-7.477 19.979-15.992 39.484-25.367 58.647-5.299 10.831-9.963 21.986-14.45 33.178-4.068 10.147-9.444 19.552-14.833 28.98h0l-2.73 4.791-1.79 3.212zm139.187 39.978c6.664-3.283 13.435-6.368 20.263-9.281l30.535-17.647c-6.488 1.253-12.96 2.579-19.394 4.077-11.136 2.589-21.488 7.232-31.49 12.69l.005-.007-4.987 2.666-7.3 3.949 12.368 3.553zm-19.691-5.656l-5.972-1.715a76.09 76.09 0 0 1 6.249-4.633l-.006.001c9.569-6.384 19.153-12.743 29.847-17.153 8.843-3.645 18.147-5.728 27.487-7.515 5.485-1.049 11.007-1.893 16.529-2.736h.001v-.001l10.2-1.607 5.16-.85 9.629-1.612-13.019 7.524-23.481 3.874c-23.024 3.837-43.685 13.188-62.624 26.423zm-13.153-3.778l-6.882-1.976.123-.132c10.021-10.674 20.766-20.555 32.938-28.774 7.982-5.395 16.697-8.935 26.174-10.905 6.792-1.408 13.656-2.292 20.515-3.175h.001l14.006-1.972 5.915-.956c12.846-2.053 25.728-4.112 37.948-8.979 10.514-4.187 20.233-9.871 29.958-15.559l3.513-2.052c4.521-2.632 8.863-5.474 13.036-8.515l.867 7.064c-6.637 4.942-13.595 9.456-20.55 13.968v.001h0l-.002.001-.002.001-7.725 5.044c-9.001 5.955-18.66 10.616-29.25 12.901-9.431 2.035-18.949 3.728-28.463 5.344l-14.489 2.273-16.644 2.644c-7.917 1.388-15.73 3.314-23.032 6.846-14.108 6.832-26.385 16.28-37.85 26.812l-.105.096zm163.548-128.741l7.595-3.945-1.94-15.8c-4.022 1.385-8.083 2.674-12.163 3.916-12.028 3.658-23.938 3.329-35.704-1.151l-6.564-2.471-.008-.003-.008-.003-.007-.003-.008-.003h-.001l-.001-.001h-.001-.001v-.001h-.001-.001l-.001-.001h-.001-.001l-.001-.001h-.001v-.001h-.001-.001l-.001-.001h-.001l-16.894-6.546c-5.237-2.159-10.363-2.528-15.648-.548l-1.04.386-.013.004h0c-1.37.505-2.743 1.01-4.037 1.668-19.155 9.704-37.691 20.445-55.063 33.11-11.04 8.048-21.002 17.231-27.945 29.153-4.517 7.756-8.687 15.711-12.855 23.662l-.005.01-.006.009-.005.01-.005.01-.93 1.774-.21.4-2.97 5.701c-5.91 11.382-11.819 22.761-19.406 33.172l-1.449 1.987-6.903 9.698 9.918 2.849c1.75-2.61 3.618-5.154 5.606-7.635l.643-.8.054-.068.051-.063.037-.046h0c3.496-4.354 7.014-8.734 9.952-13.458 4.267-6.858 8.37-13.818 12.474-20.778v-.001l.001-.001 8.382-14.099c3.356-5.55 6.819-11.056 10.551-16.358 5.051-7.172 11.682-12.676 19.606-16.407l.318-.15.007-.003 41.767-19.111c4.977-2.14 10.516-3.774 15.882-4.055 10.477-.551 20.988.014 31.379 2.04 16.493 3.215 32.498 1.672 47.578-6.047z" fill="url(#g)"/></g><g opacity=".35" class="B"><path d="M194.181 154.411c-.598.508-.214 1.188-.449 1.765-.341.833-.57.857-1.57.092l-.02-.041c.302-.224.36-.514.321-.835.154-.067.205-.173.148-.319.339-.207.43-.514.458-.844l-.017.024 1.138.078-.005.079-.004.001zm1.031 47.972l.241.518.147 1.035-.058.612c-.395.197-.802.29-1.24.174l-.309-1.667c.062-.178.056-.351-.01-.526.134-.116.161-.25.089-.398l.544-.262.596.518v-.004zm-50.878 13.852c-.329-.634.156-1.142.384-1.692l.009-.001.609-.062a3.72 3.72 0 0 1 .146.509l.164.572.493.444.039.482-.544.219-.625.212a.16.16 0 0 1-.019-.276c-.103-.279-.355-.366-.651-.403l-.005-.004zm140.482-42.248c.792-.332 1.348-.261 1.394.638l.024 1.32.013-.015c-.582.159-.782-.391-1.22-.502.077-.175.027-.308-.156-.395l-.043-1.065-.012.019zm-34.447 73.293c-.836-.268-.722-.66-.151-1.109.314-.091.46-.304.525-.578.396-.031.931-.127 1.051.25.197.598-.453.686-.906.846-.319.096-.46.313-.52.586l.001.005zm2.438 52.525l-.003-.026c.7.689 1.008 1.386-.023 2.104l.022.015c-.341-.45-.866-.829-.675-1.483l-.068.086.748-.692-.001-.004zM133.51 173.785c-.111.14-.243.269-.328.419-.251.44-.645.684-1.126.421-.502-.278-.313-.701-.029-1.076l.307-.433-.018.011c.559-.017.789.447 1.207.639l-.012.023-.001-.004zm52.727-.23l-.637.108c-.13-.414-.149-.891-.721-1.06-.018-.345-.058-.789.367-.898.674-.169.698.428.9.786l.086 1.064h.005zm128.912 20.017l-.787.097-.339-.994 1.137-.657-.021-.011.646.965.068-.047-.705.643.001.004zm-211.046-.552l.005.165c-.495.422-1.077.459-1.691.351l.08.051c-.262-.485-.314-.997-.173-1.532l-.062.095c.85-.096 1.384.322 1.836.871l.005-.001zm61.902 84.684c-.258-1.013-.549-2.021-.196-3.083l.155-.019c.289 1.026 1.19 2.025.041 3.102zm106.337 109.601l.091.664c-.51.341-1.073.41-1.669.287l.071.057-.082-.947-.056.067a2.13 2.13 0 0 1 1.64-.127l.005-.001zm-46.875-12.974c-.258-.133-.537-.238-.764-.402-.319-.23-.601-.561-.192-.886.368-.293.726-.067.979.233l-.023 1.051v.004zm31.71-186.1c1.691.123 1.926.355 1.443 1.437l-.706-.453h.005l-.68-.443-.011-.008-.051-.537v.004zm111.614 75.012l-.141 1.457.032-.021-1.149-.364-.054-.724c.173-.073.324-.174.45-.308l.867-.041-.005.001zM218.173 100.036l.228 2.021c-.317.109-.561.082-.637-.257-.085-.446.017-.985-.693-1.107l-.046-.538-.026.029 1.179-.149-.005.001zm129.323 205.999c.785.016.608.621.77 1.019l.22.547-.175.1-.157-.116a.57.57 0 0 1-.391.066c-.698-.028-.655-.52-.722-.943.26-.171.478-.359.449-.677l.006.004zm-208.94 27.143l-.027-.219.47-.753c1.053-.047 1.472.236.726 1.137l-1.169-.165zm218.922-78.983l-.195.024-.443-.964c.114-.114.153-.241.12-.389l1.127-.408.106 1.105-.716.628.001.004zm-70.912 3.807l-.053-.428.501-.662.009-.001.808-.569.076-.018.421.979-.017.02c-.313.099-.497.291-.544.588l-1.201.091zm-76.405 50.724c-.155.345-.397.623-.839.473-.318-.105-.29-.4-.189-.66l.315-.726.598-.104.12 1.016-.005.001zm-54.698-65.454c-.146.101-.296.284-.429.279-.343-.019-.481-.259-.321-.526.065-.108.363-.21.482-.168.134.049.181.269.268.415zm40.545 9.964c-.334.015-.562-.118-.55-.42.014-.289.244-.465.56-.421a.57.57 0 0 1 .384.283c.115.291-.085.472-.394.558zm45.324-168.575a.47.47 0 0 1 .116.499.44.44 0 0 1 .005.361c.117.073.149.173.1.292-.39-.244-.786-.06-1.181.014l-.193-1.047 1.147-.128.006.008zm15.229 173.806c-.458.008-.99.043-.962-.526.02-.359.457-.452.819-.518l.143 1.044zM209.31 92.396l-.607.07c-.033-.383-.329-.473-.687-.494a4.48 4.48 0 0 1-.027-.506l1.173-.192c.803.276.179.735.148 1.122zm-1.839 4.738c.126.102.354.191.368.307.039.313-.212.479-.533.396a.46.46 0 0 1-.237-.406c.021-.111.262-.197.408-.294l-.006-.004zm-56.577 14.53c-.141.096-.292.275-.425.27-.333-.02-.47-.251-.315-.514.061-.103.355-.2.474-.158.129.049.179.261.266.402zm72.381-.328l-.165-1.064c.472-.01 1.075-.114 1.045.521-.017.38-.499.474-.88.543zm-88.63 181.797c-.135.108-.264.302-.396.31-.348.012-.514-.211-.381-.497.055-.116.349-.243.481-.212s.2.259.296.399zm76.787-161.774c-.135.108-.265.298-.397.301-.34.003-.505-.22-.386-.496.05-.111.346-.225.479-.194s.203.254.304.389zm-71.28 10.811c-.014-.355-.035-.801.402-.898.714-.162.718.39.8.815l-1.207.088.005-.005zm193.592-21.904c.138.035.374.032.45.128.174.213.096.462-.187.566-.122.046-.391-.017-.462-.113-.154-.207-.113-.438.199-.581zM160.318 296.502c-.621-.154-.71-.604-.73-1.089.943-.025 1.489.174.73 1.089zm144.264-16.168c-.048-.351-.078-.795.332-.911.661-.19.773.318.87.75l-1.207.162.005-.001zm-193.06-116.137l-.177-.005-.173.043-.282-1.018.008-.01.673-.578a.62.62 0 0 0 .326-.04l.272 1.015-.651.593h.004zm264.695-28.202c.11.452.118.878-.381 1.191l-.745-.53-.128-.92c.189-.071.385-.121.584-.146l.021.011.649.39v.004zm-240.422 35.584c-.492.413-.982.834-1.733.744l-.06-.489.549-.633-.013.015 1.19-.099a2.95 2.95 0 0 0 .072.466l-.005-.004zm-6.407 142.226l-.111-1.07c.386-.025.88-.056.988.305.187.599-.422.652-.877.765zm-14.159-135.407c-.007-.342-.057-.789.379-.886.681-.153.723.386.814.805l-1.197.086.004-.005zm156.817 121.69l1.287-.154.091 1.068-1.023.095-.356-1.014.001.005zM184.95 173.14c.062.462.036.896-.471 1.185-1.074-.76-.297-.973.471-1.185zm20.545 139.417l-.748.092-.287-.974-.035.039 1.173-.166-.027-.018-.076 1.027zm89.401-145.83c-.454-.005-1.145.066-1.031-.487.128-.608.642-.396.99-.043l.036.53h.005zm-62.903 145.767c-.144-.082-.372-.137-.42-.249-.122-.307.089-.52.421-.539.343-.02.51.216.43.491-.034.122-.281.2-.431.297zm63.031-7.1c.118-.119.227-.319.358-.335.354-.044.525.179.427.465-.041.11-.321.24-.461.222-.125-.015-.215-.23-.319-.352h-.005zM262 177.676c-.314-.036-.484-.211-.412-.472.031-.108.26-.249.402-.258.318-.013.468.204.406.459-.026.108-.259.18-.396.271zM234.955 318.17c-.051.146-.05.359-.159.433-.251.161-.534.105-.64-.156a.44.44 0 0 1 .144-.431c.251-.162.498-.079.66.158l-.005-.004zm73.724-138.898l.169 1.054-1.198-.084c.011-.153-.054-.276-.184-.373l.023-.534 1.19-.063zM196.272 325.187l-1.204.109-.123-1.008 1.189-.146.142 1.04-.004.005zm63.165-138.403c.535-.014 1.077-.058 1.363.468l-.062.059-.558.548-.283.026-.282.034-.691-.494.513-.641zm-82.941 141.448l1.146-.224c.047.343.133.802-.255.932-.639.218-.779-.278-.896-.708h.005zm62.925-5.476c.131.101.359.191.373.306.039.318-.212.483-.537.401-.128-.032-.262-.281-.243-.414.016-.11.261-.197.407-.293zm-93.876 18.422c-.382.017-.894.106-.995-.278-.155-.581.445-.668.914-.786l.086 1.064h-.005zm-7.749 1.699l.105.731-1.141.297-.124-1.046 1.16.014v.004zm193.743-21.798c.01-.441-.29-.992.54-1.141l-.011-.008.636.688.014.111-.995.645c.036-.148-.03-.245-.184-.295zm-104.168 12.867l1.151-.216c.042.343.128.803-.26.933-.639.213-.774-.288-.891-.713v-.004zm11.802 1.749c-.459-.009-1.158.081-1.045-.49.122-.611.649-.41 1.025-.074l.025.563-.005.001zm146.162 4.924l.684.477c.252.2.267.485.077.7-.398.458-.704.013-.964-.143-.388-.23-.191-.633-.174-.975a.65.65 0 0 0 .382-.06l-.005.001zm-280.568-64.107c-.534-.896-.18-1.227.895-1.093l-.017-.02c.026.171.067.344.126.507l.002.008-.633.587-.184-.056-.185.062-.004.005zm267.921-129.678l-.158-1.043c.464-.078.887-.043 1.21.296l-.526.695-.264.015-.263.032.001.005zm-254.376 32.489c-.027.3.307.694-.185.863-.189.062-.487-.154-.734-.241l-.077.01.713-.688c.076.095.167.114.283.056zm4.412.356c-.079-.404.029-.765.367-1.068l.77.415c-.015.154-.006.309.027.458l-1.164.195zm-1.67 105.76c-.047-.303-.174-.696.295-.771.396-.062.612.251.68.599l-.975.172zm193.543-112.928l-.19-.577a.91.91 0 0 0 .112-.454l.488-.125.709.557a.35.35 0 0 0 .024.28l-1.143.319zm-2.432 99.787l.7.489-.559.617-.011-.008-.662-.449-.016-.011-.056-.542.594-.094.01-.002zm47.534-86.309c.192-.437.52-.782.992-.387.286.243.019.598-.298.824l-.699-.436.005-.001zM284.772 288.71c-.503.083-1.079.363-1.258-.368l.008-.014.604-.583.481-.059.147 1.039.023-.016-.005.001zm-163.705 20.718c.284-.174.434-.641.901-.407.11.052.166.35.103.475-.225.419-.65.25-1.012.229.086-.098.089-.198.008-.297zm245.391-28.515c-.124-.446-.018-.829.392-1.141l.743.475c-.002.139.01.277.041.412l-1.171.253-.005.001zm-99.863 13.865c-.279-.026-.741.026-.805-.096-.276-.519.256-.724.64-.967l.165 1.063zm-79.531 104.96c-.407-.142-.735-.402-.411-.772s.686-.158.946.158l-.535.614zm-64.218-83.079c-.686-.334-.562-.849-.353-1.388l.056-.029c.518.406.526.91.277 1.454l.02-.041v.004zm46.224-203.037l-.076-.539.56-.582c.582.129.672.544.717.991l-1.201.13zm-34.357 7.554l.25-.048.799.45c-.013.137-.001.274.035.405l-1.167.248h-.005l.092-1.055h-.004zm122.126 5.071c-.421.064-.807.012-1.137-.226l.618-.746.264-.02.25.992h.005zm64.281 101.706c-.146.088-.299.25-.433.245-.326-.012-.467-.234-.342-.502.039-.083.335-.158.444-.115.145.06.227.242.336.372h-.005zm-92.665 105.224l-.719-.438-.02-.568 1.205-.096c.038.431.029.841-.466 1.102zm-17.723 64.789l-1.192.007c.026-.107.013-.215-.043-.312l.556-.725a2.92 2.92 0 0 0 .428-.049l.276 1.041-.025.038zm32.188-66.57c.197-.046.396-.07.598-.069.042.339.265.472.639.431l.247.2c-.07.117-.108.244-.122.372l-1.064.087-.307-1.015.014-.011-.005.005zm-99.271-75.96l-.07-.488.577-.601-.017.024.279-.021.275-.043-.004-.03.149 1.052-1.199.108.01-.001zm171.904 69.275c.353-.256.559-.704 1.111-.71.178.761-.167 1.133-1.036 1.115a.57.57 0 0 0-.075-.405zm-27.632-84.265c-.065.156-.077.379-.202.447-.115.062-.339-.037-.52-.067.079-.158.12-.341.244-.461.175-.178.363-.131.478.081zm-10.794-98.719l.577-.675.597-.035.069.558-.518.598-.017.02-.708-.47v.004zM104.88 163.974l1.232.445c-.049.115-.041.222.031.327l-1.142.292-.102-1.071-.014.011-.005-.004zm249.485 73.23c.253-.388.59-.777 1.032-.301.256.273-.022.616-.396.788l-.636-.487zM200.658 391.073a1.25 1.25 0 0 0 .074.443l-.784.601-.478-.437.004-.536-.005.001 1.189-.072zm10.218-131.36c.172-.361.473-.641.869-.381.402.264.162.598-.162.847l-.707-.466zm-1.542 101.979l-1.214.067c.382-.626.784-.762 1.214-.067zm127.09-16.243c-.325.04-.664.008-.61-.36.059-.442.363-.292.624-.133-.02.163-.024.329-.014.493zM205.903 94.425l-.144-1.048c.197-.042.396-.07.597-.078l.07.57a1.12 1.12 0 0 1 .001.492l-.262.032-.262.032zm-1.918 4.59l1.202-.126.047.464-1.183.197a4.84 4.84 0 0 1-.066-.536zm-55.917 7.98l1.196-.169.068.557-1.203.07-.067-.462.006.004zm-1.017 256.331l.213 1.057-.651.071-.053-1.068c.166-.011.327-.031.491-.06zm47.572-257.805l-.39-.966c1.393-.219.493.561.501.948l-.111.013v.005zm44.604-3.724l1.116.059.041.06-1.097.335a3.71 3.71 0 0 1-.056-.459l-.004.005zm.106 7.527c-.344-.358-.743-.718.058-1.051l-.058 1.051zm-116.865 18.178c-.088-.433-.139-.853.422-1.096.052.42.068.831-.422 1.096zm51.097-2.375l1.17-.226.07.574-1.205.057a2.79 2.79 0 0 0-.035-.405zm30.505-.54l1.198-.156.067.54-1.203.118-.061-.498-.001-.004zm62.242-1.128c-.694-.311-.879-.658-.063-1.076l.063 1.076zm-100.943 14.647c.44-.027.708.153.672.544-.022.26-.276.396-.568.427l-.104-.971zm209.719-20.988c-.541-.034-.9-.233-.513-.729.145-.183.444.046.582.242a1.25 1.25 0 0 0-.069.487zm-152.981 19.478l1.151-.216.079.561-1.204.026a1.93 1.93 0 0 0-.026-.371zm-50.503 12.642l1.166-.052a2.32 2.32 0 0 0 .069.357l-1.171.257-.069-.566.005.004zm-5.212 2.298l1.19-.181a4.89 4.89 0 0 1 .06.532l-1.191.094-.054-.446-.005.001zm20.203.211l-.126-1.068.568-.07.15 1.061-.296.036-.296.037v.004zm92.781-11.941l.614-.097.119 1.095a1.58 1.58 0 0 1-.589.016l-.145-1.018.001.004zm3.547 3.916l-.145-1.066c.737.262.771.624.145 1.066zm-119.259 15.705l1.173.004c-.002.1.015.198.061.292l-1.154.316-.08-.612zm-22.109 9.277l-.111-1.066c.695.285.758.638.111 1.066zm197.632-25.333c.853-.039.739.479.68.965-.365-.003-.567-.204-.74-.453.033-.174.055-.35.068-.53l-.013.014.005.004zm-192.565 213.03l.361.935c-.929.018-.532-.518-.463-.918l.102-.012v-.005zm86.023-193.496l.077 1.104c-.69-.315-.72-.681-.077-1.104zm138.242-16.186c.438-.127.956-.561 1.164.21l-.004.001-1.172-.07.012-.141zM123.265 183.42l-.244-1.027.013-.015.613-.097.048.029-.016 1.073a2.62 2.62 0 0 0-.415.033l.001.004zm213.266 147.897l-1.19.176-.069-.561 1.202-.083.057.468zM95.192 190.182l.008-1.063a1.52 1.52 0 0 0 .415-.068l.251 1.044-.679.092.004-.005zm275.651-33.324l-.078-1.039.473-.08.257 1.056-.657.063h.005zM171.4 182.439l1.205-.139.057.502-1.191.172-.066-.536-.005.001zm-27.793 12.653l-.128-1.05c.751.265.794.612.128 1.05zm4.883.427l-.539.184c-.321.113-.528-.044-.732-.219.214-.144.414-.325.649-.419.159-.063.373-.007.561 0a1.48 1.48 0 0 0 .057.459l.004-.005zm-40.356 5.022l1.199-.104-.509.632c-.338-.067-.58-.229-.69-.528zm110.649-5.96l1.199-.148.062.506-1.197.16-.065-.523.001.005zm99.665-10.609l-.082-1.065.453-.047.235 1.033-.606.083v-.004zM306.57 331.205l.078 1.074c-.722-.298-.848-.648-.078-1.074zm-7.305 1.262l-1.083.285c-.029-.153-.053-.311-.058-.467l1.153.037-.012.14v.005zM140.498 207.905l-.289-.426c-.197-.276-.009-.551.224-.58s.477.19.343.506c-.069.161-.118.324-.177.483l-.102.013.001.004zm78.997-9.176l-.307-.937c.197-.042.393-.049.594-.017.058.35-.021.673-.287.954zm-62.215 8.302l1.191-.129.05.442-1.172.17a3.24 3.24 0 0 1-.064-.479l-.005-.004zm181.003-21.145c-.619-.102-.658-.545-.712-.983l-.009.01.518-.076.203 1.049zm21.038-3.103l1.192-.159c.032.174.053.35.065.527l-1.203.113-.059-.476.005-.005zm-117.901 16.62l-.15-1.061c.809.249.848.606.15 1.061zm.725 1.448c-.66-.033-.73-.442-.708-.906.71.005.666.484.708.906zm-93.252 12.641c-.801-.259-.826-.621-.142-1.071l.142 1.071zm-51.9 5.843c.623.093.67.522.681.969-.531-.148-.633-.54-.681-.969zm158.086-9.131c-.052-.303-.428-.796-.023-.863.763-.129.3.515.401.816l-.189.024-.189.023zm-76.963 11.649l-.168-1.046c.875.223.792.595.168 1.046zm49.881-2.254l1.185-.189.066.54-1.199.108-.052-.459zm-123.426 21.639l1.201-.13.054.48-1.188.198-.067-.548zm58.606-6.11l-.126-1.068.573-.071.165 1.068-.612.075v-.004zm89.553-9.167l1.071-.309.046.459-1.146-.024.029-.126zm-147.532 20.633c-.808-.241-.745-.609-.164-1.051l.164 1.051zm189.934-23.305l1.198-.16.066.54-1.205.135-.063-.514.004-.001zm1.442 1.995l-.069-1.001c.689.277.852.601.069 1.001zm-193.167 25.869l-.217-1.048.617-.067.036 1.057-.219.018-.222.036.005.004zm194.812-22.812c-.905-.189-.746-.583-.227-1.051l.227 1.051zm-42.206 5.209c.36-.083.899-.184.924.178.022.298-.559.347-.932.354.022-.177.025-.356.013-.533l-.005.001zm4.475 1.601c-.768-.236-.73-.606-.179-1.052l.179 1.052zm31.208-4.924l1.2-.134.049.477-1.186.215-.068-.557.005-.001zm-151.335 21.217l-.362-.944-.014.011.294-.058.301-.037c.169.375-.027.708-.168 1.047l-.051-.019zm4.721 6.056l.175 1.067c-.702-.258-.775-.61-.175-1.067zm147.788-18.071c.742.261.812.587.082.982l-.082-.982zM127.759 260.7c.037.174.058.345.065.523l-1.2.104.536-.61.595-.012.004-.005zm94.714-8.459c-.178-.37-.763-.794.207-1.005l-.016-.011-.145 1.032-.046-.016zm-84.097 9.924l1.17-.187a1.85 1.85 0 0 1 .063.518l-1.194.069-.049-.399.01-.001zm112.286-12.825l-.176-.992.635-.091c.205.471.247.892-.454 1.082l-.005.001zm66.731-9.203l1.195-.138.06.493-1.199.186-.061-.536.005-.005zm-130.712 16.655l1.165-.221.067.544-1.191.051c-.001-.126-.016-.251-.042-.378l.001.004zm-78.899 10.679l1.195-.059a2.63 2.63 0 0 0 .047.385l-1.167.248-.011-.007-.086-.542.017-.024.005-.001zm4.852-.573l.095 1.058c-.655-.076-.726-.498-.701-.975l.606-.083zm239.943-28.922l1.24-.1.052.424-1.174.192-.118-.516zm-185.875 26.089c-.68-.287-.758-.638-.111-1.066l.111 1.066zm76.464-10.472l.063 1.115c-.157.002-.308.021-.461.057l-.208-1.097.606-.075zm-86.553 12.808l-.086-1.065.495-.06.207 1.049-.616.076zm138.666-17.032l-.12-1.064.534-.065.153 1.051-.281.035-.282.034-.004.009zm68.184-7.827l1.205-.135.063.51-1.198.156-.065-.532-.005.001zm-187.682 26.33l1.16-.06c.016.129.042.256.082.382l-1.186.258-.056-.58zm16.254 67.607l-.002 1.032c-.518-.332-.742-.67.002-1.032zm31.174-60.993l-.257-1.008.005-.001.607-.078.004-.001-.022 1.064-.167-.001-.17.021v.004zm-48.275 6.534l1.198-.156.063.519-1.196.129-.061-.497-.004.005zm182.514-19.195c.149-.505.567-.639 1.083-.646l.087.59-1.216.049.046.007zm-137.285 68.576l-1.185.068c0-.127-.015-.247-.05-.369l1.171-.261.016.016.053.546h-.005zm-69.374-41.535c-.691-.289-.774-.64-.107-1.07l.107 1.07zm1.16 49.331l-1.189.194c.281-.722.691-.715 1.189-.194zm-5.548.478c-.271.081-.548.232-.811.221-.293-.016-.32-.278-.033-.353.253-.066.556.032.834.054l.009.073.001.005zm18.292-47.213l-.248-1.014.014-.01.609-.053c.08.412.059.798-.376 1.073l.001.004zm-3.765-.002l1.181-.132.054.442-1.181.175a3.28 3.28 0 0 1-.059-.484l.005-.001zm124.76-15.36l1.135-.066c-.158.481-.575.619-1.068.653l-.067-.587zm-127.831 20.126c.358-.092.934-.219.968.099.035.326-.547.323-.918.312l-.051-.415.001.004zm30.641-.059l-.245-1.028c.822.187.769.559.245 1.028zm100.726-11.232l-.076-1.061c.663.301.745.648.076 1.061zm-85.894 13.786c-.569-.339-.888-.691-.004-1.074l.004 1.074zm46.827-3.916c.441-.219.93-.61 1.113.198l.022-.02-1.139-.047.004-.127v-.004zm97.613-6.704l1.191-.168c-.306.673-.706.709-1.191.168zm-99.178 13.969l.531-.209c.351-.152.511-.015.489.284-.017.224-.204.269-.44.193-.175-.057-.372-.063-.563-.092l-.021-.171.004-.005z"/><path d="M210.043 307.712l.609-.096.224.538-.713.575-.12-1.017zm129.183-3.878c.099.332.214.866-.135.909s-.363-.504-.346-.85l.481-.059zm-2.083 2.418c.307.011.757-.254.8.255.008.064-.477.171-.737.26a2.97 2.97 0 0 1-.063-.515zm-53.288 9.81l-.037-1.066c.641.321.851.666.037 1.066zm35.638-4.405l-.158-1.042c.188-.036.377-.06.573-.071l.13 1.055-.272.033-.272.034-.001-.009zm-86.348 13.265l-.301-.968c.931-.036.538.53.508.933l-.202.034-.005.001zm65.899 69.769l.092 1.068-.5.061-.188-1.047c.197-.038.396-.062.597-.074l-.001-.008zm-67.058 7.146l.045 1.047-.435.066-.227-1.042.617-.076v.005zm-7.662-12.654l.05 1.047-.426.065-.236-1.037.009-.009.608-.062-.005-.004zm-11.456-3.455c-.357.579-.751.705-1.2.099l1.2-.099zm14.838-4.04l-.025 1.043-.174.021-.168.043-.288-1.027.655-.08zm21.401-3.637l.272.976-.525.055.012-1.028.241-.003zm-51.176 5.692c-.343.616-.739.686-1.197.121l1.197-.121zm60.254-7.947c.888-.065.715.491.689.96l.018-.015a2.45 2.45 0 0 1-.561.008l-.146-.953zm-111.373 10.977l.269 1.024-.652.071.008-1.058c.124.006.246-.004.371-.033l.004-.004zm-21.947-.091l-1.188.159c-.03-.166-.05-.333-.056-.497l1.177-.132.067.47zm148.828-23.667l-.04.992-.205.056-.345-1.002.013-.01a5.15 5.15 0 0 1 .594-.025l-.021-.011h.004zm-120.745 14.324l.264.982-.282.035-.281.034-.021-1.05c.102.031.211.03.315 0l.005-.001zm2.63-4.156l.229 1.025c-.817-.192-.749-.565-.229-1.025zm62.721-8.257c.875-.06.795.45.705.966-.654-.072-.662-.532-.705-.966zM201.441 83.063c.151.034.411.032.44.103.114.291-.145.34-.392.366-.024-.154-.039-.313-.048-.468zm55.008-.285c.408-.046.64.113.689.477-.369.002-.6-.157-.689-.477zm-27.87 7.234c-.261.045-.534.066-.495-.261.01-.08.273-.147.422-.217l.073.478zm45.067-1.712c.064.362-.103.565-.518.599-.01-.325.163-.525.518-.599zm-115.515 15.858c.179-.065.367-.101.559-.103.031.335-.126.542-.521.577-.024-.158-.039-.317-.043-.473l.005-.001zm101.22-2.721c-.24.016-.529.065-.485-.258.01-.08.278-.139.428-.205a2.57 2.57 0 0 1 .057.463zm-9.299 3.878c.443-.084.666.084.684.478-.382.016-.609-.147-.684-.478zM162.1 116.676c-.032.304-.21.5-.532.6.037-.296.22-.497.532-.6zm18.688-2.291c.276-.043.582-.08.542.277-.009.084-.307.151-.47.223l-.072-.5zm51.448.238c.171.031.461.021.49.096.123.32-.173.356-.435.393a4.03 4.03 0 0 1-.06-.489h.005zM98.904 135.32c.333.024.554.175.662.458-.329-.029-.549-.181-.662-.458zm-2.914 6.305c-.538-.099-.547-.259-.059-.48l.059.48zm100.146-1.931l-.066-.532.602-.074.052.499a3.01 3.01 0 0 1-.581.088l.003.022-.01-.003zm-101.863 22.81l-.459-.183.401-.288c.029.153.048.311.057.467l.001.004zm186.315-22.824l-.636.079c-.062-.384.131-.578.557-.604l.084.521-.005.004zm-96.39 12.37c.193-.032.384-.047.576-.045l.064.476c-.34.002-.551-.146-.645-.435l.005.004zm-43.548 9.173c.176.03.475.02.504.094.13.332-.182.362-.444.399a4 4 0 0 1-.06-.493zm-32.325 5.587l.561-.086c.061.371-.122.572-.541.61a1.88 1.88 0 0 1-.02-.524zm70.23-5.896c.331.012.541.156.635.44-.318-.026-.529-.174-.635-.44zm-64.89 14.987c-.233.024-.496.044-.454-.257.01-.076.258-.137.392-.201.033.148.052.303.061.454l.001.004zm13.58 5.984c.032.34-.129.551-.521.608.005-.314.177-.518.521-.608zm143.162-15.409l-.498-.165.416-.303.082.468zM168.222 186.61c-.227.028-.476.037-.442-.245.01-.076.244-.135.373-.203a2.84 2.84 0 0 1 .065.449l.004-.001zm51.872-6.339l-.066-.536.602-.074.057.507a3.11 3.11 0 0 1-.589.098l-.004.005zm45.844-5.138c-.151-.033-.407-.033-.435-.107-.109-.287.139-.344.392-.362l.043.474v-.005zm-58.309 13.191c-.07-.365.102-.573.526-.608.022.18.024.354-.014.528l-.518.077.006.003zm56.72-6.407c.346.01.572.161.667.458-.329-.034-.554-.18-.667-.458zm-153.287 22.597l-.494-.175.427-.292a3.71 3.71 0 0 1 .062.467h.005zm134.396-17.011c.385-.039.601.113.657.45a2.7 2.7 0 0 1-.59.012l-.072-.466.005.004zm35.097-2.668c-.038.131-.04.357-.116.379-.313.104-.332-.133-.37-.324.163-.033.323-.053.49-.06l-.004.005zm57.324-7.057c.027.344-.143.561-.535.622.015-.315.191-.528.535-.622zm-190.899 25.08l.693.185c-.129.233-.337.346-.625.325l-.063-.511-.005.001zm137.855-13.68c-.042-.347.102-.574.527-.608l.035.491a1.27 1.27 0 0 1-.573.106l.011.011zm-75.156 10.897c.242-.029.488-.025.44.264-.01.08-.249.135-.378.203a2.48 2.48 0 0 1-.056-.463l-.006-.004zm32.895-1.291c.151.034.411.032.44.107.11.291-.161.324-.398.358l-.041-.461-.001-.004zm-48.113 6.96c.172.031.471.025.501.104.129.328-.171.373-.443.407l-.058-.511zm62.962-5.547c.252-.031.544-.067.501.265-.01.079-.289.14-.443.206a2.57 2.57 0 0 1-.058-.471zm43.21 8.219c-.156-.029-.426-.022-.455-.093-.115-.299.167-.325.399-.362a2.4 2.4 0 0 1 .056.455zm-185.255 26.007a2.81 2.81 0 0 1-.074-.482c.421-.069.664.066.678.46a3.04 3.04 0 0 1-.604.022zm54.522-4.461a2.34 2.34 0 0 1 .578-.032 2.4 2.4 0 0 1 .056.455c-.347.02-.562-.119-.638-.418l.004-.005zm36.707.391c.017.216.064.475-.304.451-.085-.007-.144-.248-.215-.383a3.64 3.64 0 0 1 .52-.064l-.001-.004zm106.349-11.433c.027.34-.15.545-.532.605.016-.311.193-.516.532-.605zm2.074 1.924c.193-.037.388-.048.582-.037l.08.495c-.394.039-.602-.127-.663-.463l.001.005zm-183.82 28.01c.341.006.548.163.642.447l.014-.001a3.87 3.87 0 0 1-.59.05l-.066-.496zm87.213-7.429c.244-.017.534-.066.495.261-.01.079-.278.139-.432.21l-.068-.471h.005zm17.541 3.294c.191-.05.38-.077.575-.093a.62.62 0 0 1-.52.582l-.055-.489zm-56.689 11.825l-.066-.536.602-.074.066.536-.301.037-.301.037zm158.239-17.2c.162.032.432.025.456.1.111.304-.165.338-.413.364a5.1 5.1 0 0 1-.048-.464h.005zm-223.396 39.854c-.229.015-.508.058-.468-.251.01-.08.263-.137.408-.203.033.153.051.303.056.459l.004-.005zm273.23-27.531c.402-.063.595.109.628.454-.354.008-.561-.149-.628-.454zm-231.945 29.615c.287-.031.566-.008.488.327-.019.085-.299.133-.458.196l-.035-.522.005-.001zm194.871-22.875l.504.212-.46.305c-.036-.17-.052-.342-.044-.517zm-194.395 26.562c.131-.534.322-.501.559-.06l-.559.06zm86.753-10.668c.397-.019.606.156.676.491-.357-.021-.571-.195-.676-.491zm20.076-.857c-.268.024-.541.005-.468-.317.02-.085.285-.131.44-.193l.033.509-.005.001zm-120.079 23.507a2.42 2.42 0 0 1 .582-.036c.034.161.059.323.074.482-.406.068-.622-.084-.657-.45l.001.004zm-30.495 5.911c.412-.059.638.096.673.466-.189.027-.38.038-.573.027l.011.007c-.06-.162-.095-.328-.111-.5zm31.69-1.157l.454.18-.381.294-.073-.474zm-11.317 2.503a2.41 2.41 0 0 1 .575-.097c-.012.306-.175.5-.517.564-.029-.153-.048-.307-.058-.467zm64.429 86.156c.026-.304.199-.503.527-.6-.043.288-.215.492-.527.6zm-45.284 5.03c.39-.034.638.1.697.459-.351-.009-.595-.149-.697-.459zm139.427-40.553l-.476-.198.425-.296.051.494zm-57.214 27.23c.156.029.422.022.45.093.115.295-.162.329-.399.362a2.94 2.94 0 0 1-.056-.458l.005.003zm57.948-11.475c.151.029.395.021.429.095.126.267-.137.321-.355.387a2.33 2.33 0 0 1-.079-.482h.005zm59.853 18.74l.509.212-.479.276a2.05 2.05 0 0 1-.03-.488zm-58.149-19.57c-.162-.032-.433-.029-.462-.104-.116-.304.176-.335.417-.378l.05.482h-.005zm-78-27.375c.333.024.549.176.648.46-.328-.025-.54-.186-.648-.46zm-64.588 42.195c.404-.04.643.104.698.472-.365-.003-.605-.152-.698-.472zm59.584-57.912c-.336-.01-.552-.162-.656-.445h-.005l.596-.047.06.493.005-.001zm-16.181 12.839l-.282.074-.291.035c-.016-.328.151-.532.528-.591l.045.482zm-51.487 43.931l.638.222-.597.317-.041-.539zm191.468-75.229l-.29.045-.291-.004c-.035-.161-.06-.328-.076-.491.411-.068.614.103.657.45zm-39.897 3.846c.252-.031.539-.067.495.261-.01.079-.284.139-.433.205a2.93 2.93 0 0 1-.062-.466zm6.337 66.658c.398-.049.631.088.676.452-.364.006-.594-.14-.676-.452zm-178.934-51.461a2.1 2.1 0 0 1 .102.51c-.355 0-.58-.146-.657-.455l.555-.055zm154.334-19.522c-.026-.206-.034-.436.294-.411.085.007.146.222.219.339l-.256.044-.257.032v-.004zm-130.05 72.511c-.184.062-.377.099-.573.11-.015-.329.158-.524.525-.583.025.158.039.313.048.473zM130.24 320.75c.17.027.449.01.488.088.147.309-.114.397-.401.428l-.083-.516h-.004zm151.014-21.214l.44.185-.383.286c-.029-.157-.048-.311-.057-.471zm103.865 43.75c-.398.084-.568-.091-.612-.416.38-.069.559.105.612.416zm-43.711-37.026c.066.335.043.669-.251.922-.107.092-.356.153-.489.113-.435-.134-.119-.369-.024-.559.07-.152.181-.292.277-.434l.247-.03.246-.009-.006-.003z"/><path d="M341.168 304.116c.002.339-.001.678-.564.587-.086-.016-.228-.094-.223-.134.062-.412.378-.495.777-.457l.01.004zm-.661 4.414c.002-.224.097-.333.278-.3.005-.001.012.138-.028.172-.067.055-.172.08-.261.116l.011.012zm-1.392-.883l.295-.445c.412.38-.015.394-.277.474l-.018-.029zm2.296-1.387l-.246.004-.247.031c-.066-.253-.006-.452.34-.403.075.008.103.239.153.368zm-218.575 4.504c.123.32.185.821-.134.874-.363.057-.445-.416-.413-.759a2.68 2.68 0 0 0 .548-.111l-.001-.004z"/><path d="M122.839 310.766a2.62 2.62 0 0 1-.549.11c-.114-.412.094-.598.546-.61.045.164.046.329.007.499l-.004.001zm-11.937-127.451c-.354.052-.835.424-1.023-.022-.182-.439.2-.9.733-.852.514.05.213.574.281.888l.009-.014zM322.05 312.984c-.604.018-.879-.214-.666-.762.087-.22.25-.253.42-.152.408.233.184.608.236.919h.005l.005-.005zM194.679 157.8l-.496-.144.231-.245.251.399.013-.014.001.004zm-55.807 8.483c.037-.461-.302-1.055.553-1.234.336-.071.543.129.594.38.076.378.397.865-.161 1.099-.239.103-.666-.167-1.003-.264l.017.019zm3.505 118.238l1.036-.07c.087.389.473.921-.239 1.069-.908.19-.798-.485-.797-.999zm165.24-54.112c.282-.118.529-.109.684.146.025.045-.064.208-.121.224-.325.079-.488-.084-.574-.339l.011-.031zm-43.397-5.428a2.74 2.74 0 0 0 .423-.048c.125.655.536 1.279.248 2.185-.99-.645-.649-1.439-.671-2.137zm103.709 38.303l.018-.498c.312-.108.484-.316.522-.608.967.129.783.561.328 1.069l-.867.041-.001-.004zm2.194-2.424c.333.025.55.185.667.458a.75.75 0 0 1-.667-.458zm-266.341-85.887c.815-.1 1.358.108 1.361.934-1.273.304-1.332.264-1.361-.934zm.931 2.617c-.408.054-.902.485-1.151-.142-.115-.29.173-.513.421-.582.743-.213.622.367.739.718l-.009.01v-.004zm14.116 40.886l-.181.362c-.07-.048-.204-.105-.195-.15.019-.124.093-.242.147-.362l.229.146v.004zm154.41.963l-.512-.154.247-.274.265.433v-.005zm-167.972-36.781c-.106.104-.235.338-.339.329-.254-.021-.496-.148-.743-.231.225-.132.435-.306.678-.379.09-.028.263.181.398.277l.006.004zm14.686-29.729c0 .157.038.305.114.443-.319.248-.399.845-1.004.65-.165-.054-.306-.445-.252-.643.15-.545.696-.434 1.142-.454v.004zm91.062-61.324l-.293-.187c.055.006.132-.008.165.022.054.044.083.116.12.175l.008-.01zm-17.209 153.921c.051.333.272.693-.169.948-.065.038-.359-.108-.402-.221-.173-.448.166-.616.587-.72l-.016-.011v.004zm.871 2.042l-.286.044-.287.027c.022-.303.196-.494.519-.591.035.17.057.342.063.515l-.009.005zm-21.471 4.266a1.79 1.79 0 0 1-.067-.509c.252-.027.519-.021.468.286-.014.084-.262.15-.401.223zm-5.627-80.339c-.082-.264-.03-.488.287-.597.056-.02.236.076.236.119.001.292-.225.419-.513.481l-.014.002.004-.005zm27.54-80.101l.249-.288c-.008.056.006.13-.029.164-.057.053-.152.082-.23.121l.01.007v-.004zm-88.983 92.998a.59.59 0 0 1-.048-.473c.748-.005.598.457.549.864l-.222.04-.224.014c-.033-.148-.052-.298-.056-.45l.001.005zm86.818 153.697c.009.238-.07.439-.369.493-.053.007-.185-.107-.176-.152.052-.263.268-.346.545-.341zm46.917-1.994l-.176-1.031c.354-.044.718-.088.763.359.036.37-.205.577-.582.672h-.005zm-128.89-107.579c.41.01.753.107.679.556-.02.111-.262.31-.319.287-.439-.164-.304-.55-.348-.867l-.012.019v.005zm113.003-11.747l.43-1.149c.432.064.773.275.72.682-.085.676-.706.43-1.154.472l.004-.005zm-8.237 164.12l-.406-.137c.056-.064.12-.189.174-.187.139.009.275.071.413.111l-.182.209.001.004zm-1.533-63.118l-.077.17-.283-.143.17-.178.195.15-.005.001zm89.703 33.822l-.391-.139c.056-.063.125-.181.175-.178.14.013.271.076.404.116l-.188.201zm-102.142-34.24l-.373-.146c.057-.059.122-.176.171-.173.135.014.256.077.385.122l-.183.197zm-64.785-8.836c.071.105.163.207.206.319.015.041-.104.117-.16.18-.071-.104-.162-.206-.206-.318-.015-.042.104-.117.16-.181zm.497 67.531l.131.819c-.516.094-1.255.498-1.258-.372-.005-.6.681-.427 1.132-.448l-.005.001zM301.901 356.4c.063-.008.138-.034.181-.009.167.084.143.209-.074.318-.028.012-.147-.078-.185-.143-.019-.037.046-.11.073-.165l.005-.001zm1.739 32.732l-.401-.142c.056-.063.12-.184.169-.182.139.009.27.072.403.112l-.176.209.005.003zm83.836-105.651c-.062.059-.123.159-.187.162s-.133-.089-.198-.14c.061-.058.122-.158.186-.162s.134.089.199.14zm-178.453-67.896l-.083.202-.319-.161.18-.214.217.173h.005zm31.34 2.396l-.205-.075.181-.287c.07.056.194.106.197.167s-.112.131-.173.195zm113.236 64.963l-.225-.068.196-.289.23.159-.201.198zm-231.471-92.837l-1.122.094c-.073-.396-.393-.913.314-1.057.899-.184.85.427.808.963zm126.646 128.667l1.064-.091c.052.385.372.903-.315 1.048-.937.193-.744-.479-.749-.957zm138.078-15.717l-.163.351c-.07-.048-.199-.106-.19-.151.014-.123.088-.241.137-.364l.216.16v.004zm-110.693 29.744l.448.133-.212.23-.223-.377-.013.014zM160.737 150.575l.082.547c-.591-.097-.633-.279-.082-.547z"/><path d="M161.465 151.553l-.284.048-.287.035-.091-.542c.355.005.567.161.658.459h.004zm218.734 91.746l.607-.075.116 1.065-1.193.16.475-1.151-.005.001zM210.027 392.538l-.489-.127.225-.254.251.396.013-.015zm105.666-86.369l-.258.293c.008-.055-.007-.134.033-.168.062-.054.157-.079.241-.118l-.011-.007h-.005zm-195.035-28.854a1.21 1.21 0 0 1-.065-.492l.505.186-.435.306h-.005zm133.824 38.535c.4-.04.599.136.674.466-.421.069-.616-.12-.674-.466zm-31.694 15.882l.503.165c-.384.404-.4.032-.49-.179l-.013.014zm113.554-107.009c.007-.306.164-.508.51-.581-.002.309-.17.504-.51.581zm-138.883 45.359l.158-.484.302.215-.46.269zm-41.639 99.787l-.127.451-.282-.183.43-.253-.021-.01v-.005zm38.773-168.945c.122.028.239.018.355-.035.033.387.586.92-.38 1.039l.029-1.009-.004.005zm37.737 113.853l.489.171c-.404.437-.379-.001-.485-.176l-.008.01.004-.005zM105.854 188.188c-.33.084-.509.271-.526.577-1.478-.479-.092-.911.069-1.365.435.129.316.522.457.788zm204.261 167.055l-.112-1.039c.36.008.727.024.778.44s-.322.505-.661.599h-.005zm-163.527-95.77c-.033.291-.2.494-.518.59.027-.299.195-.498.518-.59zm57.941-121.34l-.572.592c-.444.037-.892.088-1.155-.332l.426-.662c.534-.105 1.197-.53 1.301.402zM377.736 293.12a2.14 2.14 0 0 1 .061.498c-.162-.033-.428-.031-.462-.109-.125-.298.149-.349.401-.389zm-247.379 78.239c.602-.152 1.228-.434 1.672.212-.613.224-1.28.728-1.672-.212zM94.712 185.88l-1.123.042-.061-.858c.887-.283 1.401-.15 1.18.821l.004-.005zm82.557-10.166l-.273.064-.278.021c-.017-.216-.037-.461.311-.438.094.005.161.228.24.353zm169.295 127.76c.035.165.056.332.063.505l-.442-.198.38-.303-.001-.004zm-12.18-39.341l-.284.052-.288.023c-.003-.226-.057-.502.326-.475.094.005.16.258.241.396l.005.004zM217.77 101.799a2.14 2.14 0 0 1-.597-.04l-.096-1.067c.71.121.608.66.693 1.107zm64.41 235.142c.183-.035.368-.053.55-.054-.047.136-.06.355-.149.388-.318.104-.37-.12-.401-.334zM207.452 92.636c.126-.133.172-.287.136-.456.188.003.332-.067.428-.209.362.021.659.111.686.494l-1.255.176.005-.005z"/><path d="M206.863 92.666l.649-.088c.14.453-.049.68-.587.677l-.062-.589z"/><path d="M207.032 93.772l-.614.097-.07-.57.618-.102.066.575zm34.427-8.248a.46.46 0 0 0-.005-.361c.269-.059.598.009.584.22-.017.224-.332.263-.579.141zm-30.848 222.143l-.051-.577.657.211-.606.366zm-11.307-147.138a4.58 4.58 0 0 1 .582-.071c-.137.487-.331.515-.582.071zm44.07 95.17l-.254.057-.259.019-.09-1.011c.153-.037.303-.059.461-.057l.142.992zm-91.199-139.963c.074.365.037.701-.337.947-.11-.374-.551-.833.337-.947zm129.44 47.174c.109.444.32.918-.44 1.108-.094-.441-.535-.983.44-1.108zm-175.488 21.482c.004.151.022.301.055.45-.448.281-.543-.008-.639-.305.181-.092.378-.137.584-.145zm8.368 13.215c.146.465-.297.754-.453 1.126-.436-.016-.945.168-1.18-.342.438-.446.858-.919 1.634-.78l-.001-.004zm96.279 200.847c.044.439.067.867-.462 1.132-.064-.445-.108-.879.462-1.132zm-.528-133.749l-.292.035-.291.036c-.036-.174-.057-.345-.069-.522.333.02.553.171.657.454l-.005-.003zm10.089 32.457l-.269.059-.277.026c-.042-.343.114-.554.519-.591.03.166.041.335.027.506zm34.836-209.87c-.376.025-.583-.137-.656-.45.376-.029.583.137.656.45zm-6.762 224.458l.039.922-1.588.23-.167-.959c.546-.289 1.12-.355 1.716-.193zm22.412 42.362l1.197-.169.085 1.056-1.11.106-.172-.993zm-125.473-99.904a1.7 1.7 0 0 1 .549-.067l-.046.906-.258.032-.244-.867-.001-.004zm92.312-55.422l-.301.037-.301.037-.066-.536.602-.074.066.536z"/></g><g class="B"><path d="M97.265 252.719c11.466 15.358 15.291 20.907 19.704 35.841 11.263 38.114 5.201 64.059 19.109 93.303s47.94 47.678 47.94 47.678l5.157 10.845 16.002 5.687-7.008-25.922s-18.257-15.297-39.476-41.065-16.608-63.15-32.212-98.489c-7.022-15.904-10.16-22.298-19.458-32.432-7.445-8.113-11.609-10.522-11.609-10.522l.821 6.688 1.03 8.388zm293.994-36.097c-7.41 17.675-9.78 23.984-10.449 39.542-1.707 39.707 10.452 63.415 4.032 95.155s-34.982 57.859-34.982 57.859l-2.381 11.771-14.151 9.389.53-26.847s14.014-19.26 28.369-49.395.837-65.292 7.428-103.357c2.966-17.13 4.463-24.093 11.034-36.175 5.26-9.674 8.719-13.019 8.719-13.019l.821 6.688 1.03 8.389z"/></g><g class="E H"><path d="M128.739 290.94c-5.996-17.319-10.545-28.382-20.344-38.817l-17.214-17.787s13.49 6.579 20.697 12.763c8.464 6.613 17.39 16.995 23.011 31.608 6.682 15.135 9.583 31.513 12.381 47.317 3.736 21.098 7.291 41.174 19.423 55.906 13.621 17.458 34.318 30.22 34.318 30.22v.001l70.553 44.9.926 7.538-67.316-18.516v-.007l-10.85-25.357s-33.957-18.528-47.865-47.772c-7.224-15.189-8.217-26.588-9.324-39.298-1.025-11.762-2.147-24.647-8.396-42.699z"/><path d="M369.965 261.321c1.627-18.255 3.365-30.091 10.348-42.586l12.4-21.423s-11.498 9.647-16.994 17.391c-6.613 8.463-12.763 20.697-14.681 36.236-2.823 16.302-1.675 32.895-.567 48.907 1.479 21.375 2.887 41.715-5.321 58.944-8.964 20.168-25.876 37.511-25.987 37.624m4.164 33.923l-60.835 34.251-.926-7.538 57.596-60.635m4.166 33.92v.002h-.001m.001-.002l4.393-27.233s28.467-26.194 34.887-57.934c3.334-16.484 1.54-27.785-.46-40.385-1.852-11.661-3.88-24.435-2.183-43.462"/></g><g class="B"><path d="M206.237 174.297l.463 3.769-8.464-6.613s-25.657-6.415-43.775-13.755-27.855-11.966-36.328-24.044-12.428-28.854-17.299-38.298c-2.4-4.654-5.651-5.278-9.513-7.816s-7.348-5.359-7.348-5.359 14.118 5.919 18.919 11.183c2.902 4.041 10.438 26.053 20.593 38.846 9.503 11.974 18.291 15.915 32.277 21.822 16.931 7.152 42.011 13.652 42.011 13.652l8.464 6.613zm60.308-7.406l.462 3.769 6.613-8.463s23.343-12.432 39.147-23.937 24.133-18.349 29.432-32.118 5.078-31.004 7.52-41.345c1.203-5.097 4.206-6.488 7.34-9.885s5.833-6.978 5.833-6.978-12.266 9.158-15.651 15.427c-1.839 4.624-3.826 27.804-10.584 42.675-6.324 13.917-13.898 19.867-26.039 28.982-14.698 11.035-37.461 23.409-37.461 23.409l-6.612 8.464z"/></g><g class="H"><path d="M197.773 167.684l8.464 6.613-2.314-18.846c-17.424-1.687-52.082-8.909-72.53-24.708-14.432-11.15-25.714-36.221-27.159-37.991s-2.586-2.797-5.011-4.051-15.25-6.52-15.25-6.52c3.493 2.396 10.342 5.873 11.821 6.768s3.726 1.727 6.387 5.221 11.551 28.994 19.539 38.672c8.148 9.871 15.372 12.876 30.953 20.476 19.294 7.435 33.161 11.374 45.1 14.366zm75.384-9.257l-6.612 8.464-2.314-18.846c16.498-5.851 48.379-21.244 64.398-41.52 11.306-14.31 16.188-41.366 17.161-43.433s1.832-3.339 3.883-5.143 13.219-10.016 13.219-10.016c-2.809 3.17-8.613 8.2-9.833 9.427s-3.197 2.578-4.934 6.611-4.194 30.927-9.603 42.25c-5.517 11.55-11.8 16.212-25.08 27.357-16.922 11.881-29.424 19.058-40.285 24.849z"/></g><path opacity=".5" d="M272.951 468.359l142.899-82.587-36.098-293.995c-3.008-24.499 10.911-35.774 10.911-35.774l-14.614 5.62 13.756-43.775-164.522 62.287 47.668 388.224z" fill="#000" class="E"/><g fill="#f5f1ee"><path d="M222.741 145.49l18.987-2.331 18.788 37.157-13.237 8.05-4.177-11.327h0l-3.391-9.197h0l-3.44-9.329-2.821 12.847 4.653-2.614 3.39 9.196-25.407 14.254 7.217-33.128 8.606-8.05-7.455 2.765 1.353-6.21-3.066-2.083zm34.226 23.771l-4.376-8.655 5.15-2.893-.774 11.548z"/></g><g class="H"><path d="M225.284 80.134L59.276 67.996 227.135 95.21l-1.851-15.077z"/><path d="M225.284 80.134l158.14-51.938L227.135 95.21l-1.851-15.077zm33.325 270.73l8.842 10.392-6.15 12.233-8.927-10.382 6.235-12.243z"/></g><path d="M268.786 434.437l18.317 24.533-14.151 9.389-16.003-5.687 11.837-28.235z" fill="url(#h)"/><path d="M270.64 449.513l9.389 14.151-7.075 4.695-8.001-2.844 5.687-16.002z" fill="#ab750f"/><mask id="C" class="B"><path d="M114.32 422.797l158.634 45.564 142.899-82.588-36.098-293.995c-3.008-24.5 10.912-35.774 10.912-35.774l-14.614 5.62 13.755-43.775-164.985 58.518-174.24-16.866 23.937 39.147-15.539-1.918s16.234 7.572 19.242 32.071l36.098 293.995z" class="E"/></mask><path d="M114.32 422.797L272.954 468.361L415.853 385.773L379.755 91.7781C376.747 67.2785 390.667 56.0044 390.667 56.0044L376.053 61.6248L389.808 17.85L224.823 76.3675L50.5828 59.5016L74.5193 98.6484L58.9799 96.7305C58.9799 96.7305 75.2135 104.302 78.2217 128.802L114.32 422.797Z" stroke="url(#i)" mask="url(#C)" class="I"/><g class="E"><path d="M221.124 46.211l-11.606 30.12L227.14 95.21l-6.016-48.999z" class="H"/><path d="M221.122 46.212l18.547 26.418-12.531 22.582-6.016-48.999z" fill="#ab750f"/></g><path d="M209.518 76.331l11.606-30.12 18.547 26.418-17.622-18.879-12.531 22.582z" fill-opacity=".3" class="B"/><g filter="url(#F)"><mask id="D" maskUnits="userSpaceOnUse" x="7.46" y="165.421" width="483" height="278" fill="#000"><path d="M7.46 165.421h483v278h-483z" class="B"/><path d="M54.715 308.137l50.262-6.171 2.367 19.278-75.048 9.215-11.835-96.392 24.787-3.044 9.468 77.114zm112.431-92.081l24.787-3.043 8.623 70.228c1.183 9.64-.158 16.933-4.023 21.88-3.785 4.845-10.497 7.859-20.136 9.042l-31.672 3.889c-9.639 1.184-16.927-.111-21.863-3.885-4.856-3.877-7.876-10.635-9.059-20.274l-8.623-70.228 24.786-3.044 8.623 70.229c.677 5.508 3.769 7.924 9.277 7.248l20.656-2.537c5.508-.676 7.924-3.768 7.247-9.276l-8.623-70.229zm127.337 80.813c-20.246 4.349-37.117 7.353-50.612 9.01-8.996 1.104-15.865-.196-20.607-3.9s-7.664-10.055-8.769-19.051l-5.41-44.065c-1.184-9.64.117-16.882 3.902-21.726 3.865-4.948 10.618-8.013 20.257-9.197l49.573-6.086 2.367 19.278-44.065 5.41c-5.508.677-7.924 3.769-7.248 9.277l5.411 44.065c.259 2.112 1.064 3.737 2.416 4.875 1.431 1.036 3.111 1.435 5.039 1.199l6.334-.778 7.127-1.155 7.402-1.188c2.559-.407 5.796-.991 9.71-1.751l14.891-2.807 2.282 18.59zm35.988-3.021l-24.786 3.043-11.836-96.392 24.787-3.043 4.65 37.868 12.393-1.522 16.832-40.506 26.163-3.212-21.156 50.821 32.854 45.588-26.163 3.212-26.163-36.624-12.393 1.521 4.818 39.246zm45.419-103.422l26.164-3.213 28.47 44.029 16.972-49.608 26.164-3.213-27.784 75.398 3.128 25.475-24.787 3.043-3.128-25.475-45.199-66.436zM96.008 334.065l57.835-7.101c9.639-1.184 16.887.163 21.742 4.039 4.937 3.774 7.997 10.48 9.18 20.12l1.691 13.77c1.183 9.639-.158 16.933-4.023 21.88-3.785 4.845-10.497 7.859-20.136 9.042l-33.049 4.058 3.382 27.541-24.787 3.043-11.835-96.392zm63.971 20.101c-.677-5.508-3.769-7.924-9.277-7.248l-27.541 3.382 3.72 30.295 27.541-3.382c5.508-.676 7.924-3.768 7.247-9.277l-1.69-13.77zm91.07 58.708l-49.573 6.086-2.367-19.278 12.393-1.522-7.101-57.835-12.394 1.522-2.367-19.279 49.573-6.087 2.368 19.279-12.394 1.522 7.102 57.835 12.393-1.522 2.367 19.279zm86.573-12.028c-20.246 4.35-37.117 7.353-50.612 9.01-8.997 1.105-15.866-.195-20.607-3.9s-7.664-10.055-8.769-19.051l-5.41-44.065c-1.184-9.639.117-16.881 3.902-21.726 3.865-4.947 10.617-8.013 20.257-9.196l49.573-6.087 2.367 19.278-44.065 5.411c-5.508.676-7.924 3.768-7.248 9.276l5.411 44.065c.259 2.112 1.064 3.737 2.415 4.876 1.432 1.035 3.112 1.435 5.04 1.198l6.334-.778 7.127-1.154 7.402-1.189c2.559-.407 5.796-.991 9.709-1.751l14.892-2.807 2.282 18.59zm35.988-3.021l-24.786 3.043-11.836-96.392 24.787-3.043 4.649 37.868 12.394-1.522 16.832-40.506 26.163-3.212-21.156 50.822 32.854 45.587-26.164 3.213-26.162-36.625-12.394 1.522 4.819 39.245z"/></mask><path d="M54.715 308.137l50.262-6.171 2.367 19.278-75.048 9.215-11.835-96.392 24.787-3.044 9.468 77.114zm112.431-92.081l24.787-3.043 8.623 70.228c1.183 9.64-.158 16.933-4.023 21.88-3.785 4.845-10.497 7.859-20.136 9.042l-31.672 3.889c-9.639 1.184-16.927-.111-21.863-3.885-4.856-3.877-7.876-10.635-9.059-20.274l-8.623-70.228 24.786-3.044 8.623 70.229c.677 5.508 3.769 7.924 9.277 7.248l20.656-2.537c5.508-.676 7.924-3.768 7.247-9.276l-8.623-70.229zm127.337 80.813c-20.246 4.349-37.117 7.353-50.612 9.01-8.996 1.104-15.865-.196-20.607-3.9s-7.664-10.055-8.769-19.051l-5.41-44.065c-1.184-9.64.117-16.882 3.902-21.726 3.865-4.948 10.618-8.013 20.257-9.197l49.573-6.086 2.367 19.278-44.065 5.41c-5.508.677-7.924 3.769-7.248 9.277l5.411 44.065c.259 2.112 1.064 3.737 2.416 4.875 1.431 1.036 3.111 1.435 5.039 1.199l6.334-.778 7.127-1.155 7.402-1.188c2.559-.407 5.796-.991 9.71-1.751l14.891-2.807 2.282 18.59zm35.988-3.021l-24.786 3.043-11.836-96.392 24.787-3.043 4.65 37.868 12.393-1.522 16.832-40.506 26.163-3.212-21.156 50.821 32.854 45.588-26.163 3.212-26.163-36.624-12.393 1.521 4.818 39.246zm45.419-103.422l26.164-3.213 28.47 44.029 16.972-49.608 26.164-3.213-27.784 75.398 3.128 25.475-24.787 3.043-3.128-25.475-45.199-66.436zM96.008 334.065l57.835-7.101c9.639-1.184 16.887.163 21.742 4.039 4.937 3.774 7.997 10.48 9.18 20.12l1.691 13.77c1.183 9.639-.158 16.933-4.023 21.88-3.785 4.845-10.497 7.859-20.136 9.042l-33.049 4.058 3.382 27.541-24.787 3.043-11.835-96.392zm63.971 20.101c-.677-5.508-3.769-7.924-9.277-7.248l-27.541 3.382 3.72 30.295 27.541-3.382c5.508-.676 7.924-3.768 7.247-9.277l-1.69-13.77zm91.07 58.708l-49.573 6.086-2.367-19.278 12.393-1.522-7.101-57.835-12.394 1.522-2.367-19.279 49.573-6.087 2.368 19.279-12.394 1.522 7.102 57.835 12.393-1.522 2.367 19.279zm86.573-12.028c-20.246 4.35-37.117 7.353-50.612 9.01-8.997 1.105-15.866-.195-20.607-3.9s-7.664-10.055-8.769-19.051l-5.41-44.065c-1.184-9.639.117-16.881 3.902-21.726 3.865-4.947 10.617-8.013 20.257-9.196l49.573-6.087 2.367 19.278-44.065 5.411c-5.508.676-7.924 3.768-7.248 9.276l5.411 44.065c.259 2.112 1.064 3.737 2.415 4.876 1.432 1.035 3.112 1.435 5.04 1.198l6.334-.778 7.127-1.154 7.402-1.189c2.559-.407 5.796-.991 9.709-1.751l14.892-2.807 2.282 18.59zm35.988-3.021l-24.786 3.043-11.836-96.392 24.787-3.043 4.649 37.868 12.394-1.522 16.832-40.506 26.163-3.212-21.156 50.822 32.854 45.587-26.164 3.213-26.162-36.625-12.394 1.522 4.819 39.245z" stroke="#212121" stroke-width="21.692" mask="url(#D)"/></g><g filter="url(#G)"><use href="#r" fill="url(#j)"/><use href="#s" fill="url(#j)"/><use href="#t" fill="url(#j)"/><use href="#u" fill="url(#j)"/><use href="#v" fill="url(#j)"/><use href="#w" fill="url(#j)"/><use href="#x" fill="url(#j)"/><use href="#y" fill="url(#j)"/><use href="#z" fill="url(#j)"/></g><mask id="E" maskUnits="userSpaceOnUse" x="12.46" y="170.421" width="471" height="268" fill="#000"><path d="M12.46 170.421h471v268h-471z" class="B"/><path d="M54.715 308.137l50.262-6.171 2.367 19.278-75.048 9.215-11.835-96.392 24.787-3.044 9.468 77.114zm112.431-92.081l24.787-3.043 8.623 70.228c1.183 9.64-.158 16.933-4.023 21.88-3.785 4.845-10.497 7.859-20.136 9.042l-31.672 3.889c-9.639 1.184-16.927-.111-21.863-3.885-4.856-3.877-7.876-10.635-9.059-20.274l-8.623-70.228 24.786-3.044 8.623 70.229c.677 5.508 3.769 7.924 9.277 7.248l20.656-2.537c5.508-.676 7.924-3.768 7.247-9.276l-8.623-70.229zm127.337 80.813c-20.246 4.349-37.117 7.353-50.612 9.01-8.996 1.104-15.865-.196-20.607-3.9s-7.664-10.055-8.769-19.051l-5.41-44.065c-1.184-9.64.117-16.882 3.902-21.726 3.865-4.948 10.618-8.013 20.257-9.197l49.573-6.086 2.367 19.278-44.065 5.41c-5.508.677-7.924 3.769-7.248 9.277l5.411 44.065c.259 2.112 1.064 3.737 2.416 4.875 1.431 1.036 3.111 1.435 5.039 1.199l6.334-.778 7.127-1.155 7.402-1.188c2.559-.407 5.796-.991 9.71-1.751l14.891-2.807 2.282 18.59zm35.988-3.021l-24.786 3.043-11.836-96.392 24.787-3.043 4.65 37.868 12.393-1.522 16.832-40.506 26.163-3.212-21.156 50.821 32.854 45.588-26.163 3.212-26.163-36.624-12.393 1.521 4.818 39.246z"/><path d="M375.89 190.426l26.164-3.213 28.47 44.029 16.972-49.608 26.164-3.213-27.784 75.398 3.128 25.475-24.787 3.043-3.128-25.475-45.199-66.436zM96.008 334.065l57.835-7.101c9.639-1.184 16.887.163 21.742 4.039 4.937 3.774 7.997 10.48 9.18 20.12l1.691 13.77c1.183 9.639-.158 16.933-4.023 21.88-3.785 4.845-10.497 7.859-20.136 9.042l-33.049 4.058 3.382 27.541-24.787 3.043-11.835-96.392zm63.971 20.101c-.677-5.508-3.769-7.924-9.277-7.248l-27.541 3.382 3.72 30.295 27.541-3.382c5.508-.676 7.924-3.768 7.247-9.277l-1.69-13.77zm91.07 58.708l-49.573 6.086-2.367-19.278 12.393-1.522-7.101-57.835-12.394 1.522-2.367-19.279 49.573-6.087 2.368 19.279-12.394 1.522 7.102 57.835 12.393-1.522 2.367 19.279zm86.573-12.028c-20.246 4.35-37.117 7.353-50.612 9.01-8.997 1.105-15.866-.195-20.607-3.9s-7.664-10.055-8.769-19.051l-5.41-44.065c-1.184-9.639.117-16.881 3.902-21.726 3.865-4.947 10.617-8.013 20.257-9.196l49.573-6.087 2.367 19.278-44.065 5.411c-5.508.676-7.924 3.768-7.248 9.276l5.411 44.065c.259 2.112 1.064 3.737 2.415 4.876 1.432 1.035 3.112 1.435 5.04 1.198l6.334-.778 7.127-1.154 7.402-1.189c2.559-.407 5.796-.991 9.709-1.751l14.892-2.807 2.282 18.59zm35.988-3.021l-24.786 3.043-11.836-96.392 24.787-3.043 4.649 37.868 12.394-1.522 16.832-40.506 26.163-3.212-21.156 50.822 32.854 45.587-26.164 3.213-26.162-36.625-12.394 1.522 4.819 39.245z"/></mask><g fill="#ffc502"><use href="#r"/><use href="#s"/><use href="#t"/><use href="#u"/><use href="#v"/><use href="#w"/><use href="#x"/><use href="#y"/><use href="#z"/></g><path d="M54.7151 308.137L104.977 301.966L107.344 321.244L32.2957 330.459L20.4602 234.067L45.2468 231.023L54.7151 308.137Z" stroke="url(#k)" class="C D"/><path d="M167.146 216.056L191.933 213.013L200.556 283.241C201.739 292.881 200.398 300.174 196.533 305.121C192.748 309.966 186.036 312.98 176.397 314.163L144.725 318.052C135.086 319.236 127.798 317.941 122.862 314.167C118.006 310.29 114.986 303.532 113.803 293.893L105.18 223.665L129.966 220.621L138.589 290.85C139.266 296.358 142.358 298.774 147.866 298.098L168.522 295.561C174.03 294.885 176.446 291.793 175.769 286.285L167.146 216.056Z" stroke="url(#k)" class="C D"/><path d="M294.483 296.869C274.237 301.218 257.366 304.222 243.871 305.879C234.875 306.983 228.006 305.683 223.264 301.979C218.523 298.275 215.6 291.924 214.495 282.928L209.085 238.863C207.901 229.223 209.202 221.981 212.987 217.137C216.852 212.189 223.605 209.124 233.244 207.94L282.817 201.854L285.184 221.132L241.119 226.542C235.611 227.219 233.195 230.311 233.871 235.819L239.282 279.884C239.541 281.996 240.346 283.621 241.698 284.759C243.129 285.795 244.809 286.194 246.737 285.958C248.665 285.721 250.776 285.462 253.071 285.18C255.355 284.806 257.731 284.422 260.198 284.025C262.665 283.629 265.133 283.233 267.6 282.837C270.159 282.43 273.396 281.846 277.31 281.086C281.315 280.314 286.279 279.379 292.201 278.279L294.483 296.869Z" stroke="url(#k)" class="C D"/><path d="M330.471 293.848L305.685 296.891L293.849 200.499L318.636 197.456L323.286 235.324L335.679 233.802L352.511 193.296L378.674 190.084L357.518 240.905L390.372 286.493L364.209 289.705L338.046 253.081L325.653 254.602L330.471 293.848Z" stroke="url(#k)" class="C D"/><path d="M375.89 190.426L402.054 187.213L430.524 231.242L447.496 181.634L473.66 178.421L445.876 253.819L449.004 279.294L424.217 282.337L421.089 256.862L375.89 190.426Z" stroke="url(#k)" class="C D"/><path d="M96.0076 334.065L153.843 326.964C163.482 325.78 170.73 327.127 175.585 331.003C180.522 334.777 183.582 341.483 184.765 351.123L186.456 364.893C187.639 374.532 186.298 381.826 182.433 386.773C178.648 391.618 171.936 394.632 162.297 395.815L129.248 399.873L132.63 427.414L107.843 430.457L96.0076 334.065ZM159.979 354.166C159.302 348.658 156.21 346.242 150.702 346.918L123.161 350.3L126.881 380.595L154.422 377.213C159.93 376.537 162.346 373.445 161.669 367.936L159.979 354.166Z" stroke="url(#k)" class="C D"/><path d="M251.049 412.874L201.476 418.96L199.109 399.682L211.502 398.16L204.401 340.325L192.007 341.847L189.64 322.568L239.213 316.481L241.581 335.76L229.187 337.282L236.289 395.117L248.682 393.595L251.049 412.874Z" stroke="url(#k)" class="C D"/><path d="M337.622 400.846C317.376 405.196 300.505 408.199 287.01 409.856C278.013 410.961 271.144 409.661 266.403 405.956C261.662 402.252 258.739 395.901 257.634 386.905L252.224 342.84C251.04 333.201 252.341 325.959 256.126 321.114C259.991 316.167 266.743 313.101 276.383 311.918L325.956 305.831L328.323 325.109L284.258 330.52C278.75 331.196 276.334 334.288 277.01 339.796L282.421 383.861C282.68 385.973 283.485 387.598 284.836 388.737C286.268 389.772 287.948 390.172 289.876 389.935C291.804 389.698 293.915 389.439 296.21 389.157C298.494 388.784 300.869 388.399 303.337 388.003C305.804 387.607 308.272 387.21 310.739 386.814C313.298 386.407 316.535 385.823 320.448 385.063C324.454 384.292 329.418 383.356 335.34 382.256L337.622 400.846Z" stroke="url(#k)" class="C D"/><path d="M373.61 397.825L348.824 400.868L336.988 304.476L361.775 301.433L366.424 339.301L378.818 337.779L395.65 297.273L421.813 294.061L400.657 344.883L433.511 390.47L407.347 393.683L381.185 357.058L368.791 358.58L373.61 397.825Z" stroke="url(#k)" class="C D"/><g class="B"><use href="#r"/><use href="#s"/><use href="#t"/><use href="#u"/><use href="#v"/><use href="#w"/><use href="#x"/><use href="#y"/><use href="#z"/></g><g filter="url(#H)"><path d="M403.036 148.374c16.628-3.798 19.892-21.684 19.446-30.152 1.108 12.84 14.461 25.416 25.898 24.679-16.015 2.61-19.733 22.556-19.626 28.329.04.261.049.464.029.601a9.94 9.94 0 0 1-.029-.601c-.657-4.358-9.602-24.835-25.718-22.856z" fill="url(#l)"/></g><g filter="url(#I)"><use href="#AA" fill="url(#m)"/></g><use href="#AA" fill="url(#m)"/><g filter="url(#J)"><use href="#AB" fill="url(#n)"/></g><use href="#AB" fill="url(#n)"/><g filter="url(#K)"><use href="#AC" fill="url(#o)"/></g><use href="#AC" fill="url(#o)"/></g></g><defs><filter id="F" x="-13.319" y="143.797" width="524.994" height="320.439" filterUnits="userSpaceOnUse" class="F"><feFlood class="G"/><feBlend in="SourceGraphic"/><feGaussianBlur stdDeviation="10.846"/></filter><filter id="G" x="-3.166" y="154.795" width="500.451" height="299.288" filterUnits="userSpaceOnUse" class="F"><feFlood class="G"/><feBlend in="SourceGraphic"/><feGaussianBlur stdDeviation="11.813"/></filter><filter id="H" x="376.047" y="91.234" width="99.321" height="107.586" filterUnits="userSpaceOnUse" class="F"><feFlood class="G"/><feBlend in="SourceGraphic"/><feGaussianBlur stdDeviation="13.494"/></filter><filter id="I" x="323.455" y="57.274" width="172.917" height="187.33" filterUnits="userSpaceOnUse" class="F"><feFlood class="G"/><feBlend in="SourceGraphic"/><feGaussianBlur stdDeviation="23.438"/></filter><filter id="J" x="24.529" y="110.466" width="82.51" height="89.386" filterUnits="userSpaceOnUse" class="F"><feFlood class="G"/><feBlend in="SourceGraphic"/><feGaussianBlur stdDeviation="11.173"/></filter><filter id="K" x="97.656" y="402.344" width="72.116" height="78.125" filterUnits="userSpaceOnUse" class="F"><feFlood class="G"/><feBlend in="SourceGraphic"/><feGaussianBlur stdDeviation="9.766"/></filter><linearGradient id="L" x1="-77.667" y1="-76.887" x2="433.594" y2="542.969" href="#AD"><stop offset=".099" stop-color="#fff3dd"/><stop offset=".504" stop-color="#cfa04c"/><stop offset=".739" stop-color="#895b04"/><stop offset="1" stop-color="#f8dca9"/></linearGradient><linearGradient id="M" x1="435.541" y1="359.426" x2="335.837" y2="52.513" href="#AD"><stop stop-color="#ab750f" stop-opacity="0"/><stop offset=".504" stop-color="#ab750f"/></linearGradient><linearGradient id="N" x1="470.601" y1="440.337" x2="394.674" y2="192.849" href="#AD"><stop stop-color="#ab750f" stop-opacity="0"/><stop offset=".504" stop-color="#ab750f"/></linearGradient><linearGradient id="O" x1="59.773" y1="13.883" x2="14.25" y2="-98.956" href="#AD"><stop stop-color="#ab750f" stop-opacity="0"/><stop offset=".504" stop-color="#ab750f"/></linearGradient><linearGradient id="P" x1="538.261" y1="530.931" x2="517.208" y2="438.377" href="#AD"><stop stop-color="#ab750f" stop-opacity="0"/><stop offset=".504" stop-color="#ab750f"/></linearGradient><linearGradient id="Q" x1="453.687" y1="407.981" x2="352.464" y2="104.771" href="#AD"><stop stop-color="#ab750f" stop-opacity="0"/><stop offset=".504" stop-color="#ab750f"/></linearGradient><linearGradient id="R" x1="499.179" y1="497.116" x2="466.899" y2="362.757" href="#AD"><stop stop-color="#ab750f" stop-opacity="0"/><stop offset=".504" stop-color="#ab750f"/></linearGradient><linearGradient id="S" x1="414.429" y1="315.984" x2="314.828" y2="6.257" href="#AD"><stop stop-color="#ab750f" stop-opacity="0"/><stop offset=".504" stop-color="#ab750f"/></linearGradient><linearGradient id="T" x1="25.357" y1="90.904" x2="-8.501" y2="15.452" href="#AD"><stop stop-color="#ab750f" stop-opacity="0"/><stop offset=".504" stop-color="#ab750f"/></linearGradient><linearGradient id="U" x1="163.376" y1="332.121" x2="92.833" y2="158.833" href="#AD"><stop stop-color="#ab750f" stop-opacity="0"/><stop offset=".504" stop-color="#ab750f"/></linearGradient><linearGradient id="V" x1="281.692" y1="133.299" x2="193.827" y2="-122.991" href="#AD"><stop stop-color="#ab750f" stop-opacity="0"/><stop offset=".504" stop-color="#ab750f"/></linearGradient><linearGradient id="W" x1="314.196" y1="207.436" x2="230.923" y2="-47.138" href="#AD"><stop stop-color="#ab750f" stop-opacity="0"/><stop offset=".504" stop-color="#ab750f"/></linearGradient><linearGradient id="X" x1="107.332" y1="74.249" x2="26.261" y2="-102.913" href="#AD"><stop stop-color="#ab750f" stop-opacity="0"/><stop offset=".504" stop-color="#ab750f"/></linearGradient><linearGradient id="Y" x1="299.394" y1="182.88" x2="220.303" y2="-60.561" href="#AD"><stop stop-color="#ab750f" stop-opacity="0"/><stop offset=".504" stop-color="#ab750f"/></linearGradient><linearGradient id="Z" x1="121.094" y1="88.495" x2="32.528" y2="-103.834" href="#AD"><stop stop-color="#ab750f" stop-opacity="0"/><stop offset=".504" stop-color="#ab750f"/></linearGradient><linearGradient id="a" x1="522.738" y1="510.446" x2="499.911" y2="409.756" href="#AD"><stop stop-color="#ab750f" stop-opacity="0"/><stop offset=".504" stop-color="#ab750f"/></linearGradient><linearGradient id="b" x1="528.765" y1="515.415" x2="507.763" y2="421.634" href="#AD"><stop stop-color="#ab750f" stop-opacity="0"/><stop offset=".504" stop-color="#ab750f"/></linearGradient><linearGradient id="c" x1="7.002" y1="250.002" x2="480.353" y2="250.002" href="#AD"><stop stop-color="#ab750f"/><stop offset=".516" stop-color="#d8a956"/><stop offset="1" stop-color="#ab750f"/></linearGradient><linearGradient id="d" x1="250.001" y1="27.778" x2="250.001" y2="472.222" href="#AD"><stop stop-color="#ab750f"/><stop offset=".516" stop-color="#ffd486"/><stop offset="1" stop-color="#ab750f"/></linearGradient><linearGradient id="e" x1="131.45" y1="271.479" x2="362.625" y2="243.094" href="#AD"><stop stop-color="#d8a956"/><stop offset="1" stop-color="#ab750f"/></linearGradient><linearGradient id="f" x1="197.586" y1="72.657" x2="250.354" y2="66.178" href="#AD"><stop stop-color="#d8a956"/><stop offset="1" stop-color="#ab750f"/></linearGradient><linearGradient id="g" x1="106.038" y1="511.147" x2="287.213" y2="277.486" href="#AD"><stop stop-color="#fff" stop-opacity="0"/><stop offset="1"/></linearGradient><linearGradient id="h" x1="257.074" y1="463.687" x2="287.227" y2="459.984" href="#AD"><stop stop-color="#d8a956"/><stop offset="1" stop-color="#ab750f"/></linearGradient><linearGradient id="i" x1="77.12" y1="275.631" x2="416.345" y2="233.979" href="#AD"><stop stop-color="#d8a956"/><stop offset="1" stop-color="#ab750f"/></linearGradient><linearGradient id="j" x1="-.726" y1="304.44" x2="481.95" y2="304.44" href="#AD"><stop stop-color="#ab750f"/><stop offset=".516" stop-color="#d8a956"/><stop offset="1" stop-color="#ab750f"/></linearGradient><linearGradient id="k" x1="235.457" y1="198.035" x2="261.408" y2="409.39" href="#AD"><stop offset=".4" stop-color="#d8a956"/><stop offset=".902" stop-color="#ab750f"/></linearGradient><linearGradient id="l" x1="422.344" y1="118.239" x2="428.922" y2="171.814" href="#AD"><stop stop-color="#faff00"/><stop offset="1" stop-color="#ffa361"/></linearGradient><linearGradient id="m" x1="406.767" y1="104.165" x2="412.919" y2="197.713" href="#AD"><stop stop-color="#faff00"/><stop offset="1" stop-color="#ffa361"/></linearGradient><linearGradient id="n" x1="65.784" y1="132.812" x2="65.784" y2="177.505" href="#AD"><stop stop-color="#faff00"/><stop offset="1" stop-color="#ffa361"/></linearGradient><linearGradient id="o" x1="133.714" y1="421.875" x2="133.714" y2="460.938" href="#AD"><stop stop-color="#faff00"/><stop offset="1" stop-color="#ffa361"/></linearGradient><clipPath id="p"><path d="M0 0h500v500H0z" class="B"/></clipPath><clipPath id="q"><path d="M0 0h500v500H0z" class="B"/></clipPath><path id="r" d="M54.715 308.137l50.262-6.171 2.367 19.278-75.048 9.215-11.835-96.392 24.787-3.044 9.468 77.114z"/><path id="s" d="M167.146 216.056l24.787-3.043 8.623 70.228c1.183 9.64-.158 16.933-4.023 21.88-3.785 4.845-10.497 7.859-20.136 9.042l-31.672 3.889c-9.639 1.184-16.927-.111-21.863-3.885-4.856-3.877-7.876-10.635-9.059-20.274l-8.623-70.228 24.786-3.044 8.623 70.229c.677 5.508 3.769 7.924 9.277 7.248l20.656-2.537c5.508-.676 7.924-3.768 7.247-9.276l-8.623-70.229z"/><path id="t" d="M294.483 296.869c-20.246 4.349-37.117 7.353-50.612 9.01-8.996 1.104-15.865-.196-20.607-3.9s-7.664-10.055-8.769-19.051l-5.41-44.065c-1.184-9.64.117-16.882 3.902-21.726 3.865-4.948 10.618-8.013 20.257-9.197l49.573-6.086 2.367 19.278-44.065 5.41c-5.508.677-7.924 3.769-7.248 9.277l5.411 44.065c.259 2.112 1.064 3.737 2.416 4.875 1.431 1.036 3.111 1.435 5.039 1.199l6.334-.778 7.127-1.155 7.402-1.188c2.559-.407 5.796-.991 9.71-1.751l14.891-2.807 2.282 18.59z"/><path id="u" d="M330.471 293.848l-24.786 3.043-11.836-96.392 24.787-3.043 4.65 37.868 12.393-1.522 16.832-40.506 26.163-3.212-21.156 50.821 32.854 45.588-26.163 3.212-26.163-36.624-12.393 1.521 4.818 39.246z"/><path id="v" d="M375.89 190.426l26.164-3.213 28.47 44.029 16.972-49.608 26.164-3.213-27.784 75.398 3.128 25.475-24.787 3.043-3.128-25.475-45.199-66.436z"/><path id="w" d="M96.008 334.065l57.835-7.101c9.639-1.184 16.887.163 21.742 4.039 4.937 3.774 7.997 10.48 9.18 20.12l1.691 13.77c1.183 9.639-.158 16.933-4.023 21.88-3.785 4.845-10.497 7.859-20.136 9.042l-33.049 4.058 3.382 27.541-24.787 3.043-11.835-96.392zm63.971 20.101c-.677-5.508-3.769-7.924-9.277-7.248l-27.541 3.382 3.72 30.295 27.541-3.382c5.508-.676 7.924-3.768 7.247-9.277l-1.69-13.77z"/><path id="x" d="M251.049 412.874l-49.573 6.086-2.367-19.278 12.393-1.522-7.101-57.835-12.394 1.522-2.367-19.279 49.573-6.087 2.368 19.279-12.394 1.522 7.102 57.835 12.393-1.522 2.367 19.279z"/><path id="y" d="M337.622 400.846c-20.246 4.35-37.117 7.353-50.612 9.01-8.997 1.105-15.866-.195-20.607-3.9s-7.664-10.055-8.769-19.051l-5.41-44.065c-1.184-9.639.117-16.881 3.902-21.726 3.865-4.947 10.617-8.013 20.257-9.196l49.573-6.087 2.367 19.278-44.065 5.411c-5.508.676-7.924 3.768-7.248 9.276l5.411 44.065c.259 2.112 1.064 3.737 2.415 4.876 1.432 1.035 3.112 1.435 5.04 1.198l6.334-.778 7.127-1.154 7.402-1.189c2.559-.407 5.796-.991 9.709-1.751l14.892-2.807 2.282 18.59z"/><path id="z" d="M373.61 397.825l-24.786 3.043-11.836-96.392 24.787-3.043 4.649 37.868 12.394-1.522 16.832-40.506 26.163-3.212-21.156 50.822 32.854 45.587-26.164 3.213-26.162-36.625-12.394 1.522 4.819 39.245z"/><path id="AA" d="M370.33 154.526c29.207-4.953 36.622-35.648 36.679-50.377.662 22.373 22.583 45.491 42.488 45.336-28.028 2.954-36.431 37.177-36.811 47.199.043.456.04.809-.009 1.045-.008-.311-.005-.66.009-1.045-.713-7.622-14.215-44.008-42.356-42.158z"/><path id="AB" d="M46.875 155.629c14.048-1.442 18.536-15.812 19.024-22.817-.385 10.664 9.319 22.347 18.793 22.896-13.425.528-18.493 16.545-18.987 21.301.006.218-.006.386-.037.496.006-.148.018-.314.037-.496-.101-3.649-5.385-21.38-18.83-21.38z"/><path id="AC" d="M117.187 441.817c12.279-1.261 16.202-13.82 16.628-19.942-.337 9.32 8.145 19.531 16.425 20.011-11.733.462-16.163 14.461-16.595 18.617.006.191-.005.338-.032.435.005-.13.016-.275.032-.435-.088-3.188-4.707-18.686-16.458-18.686z"/><linearGradient id="AD" gradientUnits="userSpaceOnUse"/></defs></svg>