<svg width="100" height="100" viewBox="0 0 100 100" fill="none" xmlns="http://www.w3.org/2000/svg">
<g id="messenger">
<g id="Group 401">
<rect id="Rectangle 414" x="10.4651" y="91.2791" width="82.5581" height="82.5581" rx="41.2791" transform="rotate(-90 10.4651 91.2791)" fill="#F5F1EE"/>
<path id="Vector" d="M50.0018 0C78.1728 0 100.004 20.6357 100.004 48.5018C100.004 76.3678 78.1678 97.0035 50.0018 97.0035C45.1128 97.0097 40.2447 96.364 35.5263 95.0835C34.6403 94.8399 33.6974 94.9087 32.8562 95.2785L22.9308 99.6586C22.3315 99.9235 21.6762 100.037 21.0226 99.9894C20.3691 99.9417 19.7372 99.7341 19.1827 99.385C18.6281 99.0359 18.1679 98.5559 17.8423 97.9872C17.5167 97.4184 17.3359 96.7785 17.3156 96.1235L17.0456 87.2232C17.0261 86.6818 16.8968 86.15 16.6656 85.6601C16.4344 85.1701 16.1061 84.7323 15.7006 84.3731C5.97522 75.6728 0 63.0823 0 48.5018C0 20.6357 21.8308 0 50.0018 0ZM19.9757 62.6873C18.5657 64.9224 21.3158 67.4425 23.4209 65.8424L39.1964 53.872C39.7171 53.4789 40.3517 53.2663 41.004 53.2663C41.6563 53.2663 42.2909 53.4789 42.8116 53.872L54.492 62.6223C55.321 63.2449 56.2701 63.6888 57.2793 63.9261C58.2886 64.1634 59.3361 64.1889 60.3557 64.001C61.3753 63.813 62.3448 63.4157 63.2031 62.8342C64.0614 62.2526 64.7898 61.4995 65.3424 60.6222L80.0279 37.3214C81.438 35.0813 78.6879 32.5612 76.5828 34.1562L60.8072 46.1367C60.2866 46.5297 59.652 46.7423 58.9996 46.7423C58.3473 46.7423 57.7127 46.5297 57.1921 46.1367L45.5067 37.3864C44.6778 36.7646 43.7291 36.3213 42.7203 36.0845C41.7116 35.8477 40.6647 35.8224 39.6458 36.0103C38.6268 36.1982 37.6578 36.5952 36.7999 37.1763C35.942 37.7574 35.2138 38.5099 34.6613 39.3864L19.9757 62.6873Z" fill="#0766FE"/>
</g>
</g>
</svg>
