<svg xmlns="http://www.w3.org/2000/svg" width="100" height="100" fill="none" xmlns:v="https://vecta.io/nano"><g clip-path="url(#C)"><path fill-rule="evenodd" d="M45.1 0H20.6L15 5.6v23.8l8.4-8.4V8.4h13.3L45.1 0zm9.8 70h24.5l5.6-5.6V40.6L76.6 49v12.6H63.3L54.9 70zM85 15.4V0H70.3L15 54.6V70h14.7L85 15.4z" fill="url(#A)"/></g><path d="M26.549 100V83.2h2.568l7.344 12.264h-1.344L42.341 83.2h2.568l.024 16.8h-2.952l-.024-12.168h.624L36.437 98.08h-1.392l-6.24-10.248h.72V100h-2.976zm22.922 0V83.2h3.12V100h-3.12zm7.664 0V83.2h7.344c1.824 0 3.424.352 4.8 1.056s2.448 1.68 3.216 2.928 1.152 2.72 1.152 4.416c0 1.68-.384 3.152-1.152 4.416-.768 1.248-1.84 2.224-3.216 2.928S66.303 100 64.479 100h-7.344zm3.12-2.64h4.08c1.264 0 2.352-.24 3.264-.72.928-.48 1.64-1.152 2.136-2.016.512-.864.768-1.872.768-3.024 0-1.168-.256-2.176-.768-3.024-.496-.864-1.208-1.536-2.136-2.016-.912-.48-2-.72-3.264-.72h-4.08v11.52z" fill="url(#B)"/><defs><linearGradient id="A" x1="11.728" y1="35" x2="86.281" y2="35" gradientUnits="userSpaceOnUse"><stop stop-color="#ab750f"/><stop offset=".516" stop-color="#d8a956"/><stop offset="1" stop-color="#ab750f"/></linearGradient><linearGradient id="B" x1="21.616" y1="91.5" x2="75.933" y2="91.5" gradientUnits="userSpaceOnUse"><stop stop-color="#ab750f"/><stop offset=".516" stop-color="#d8a956"/><stop offset="1" stop-color="#ab750f"/></linearGradient><clipPath id="C"><path fill="#fff" transform="translate(15)" d="M0 0h70v70H0z"/></clipPath></defs></svg>