<svg width="100" height="100" viewBox="0 0 100 100" fill="none" xmlns="http://www.w3.org/2000/svg">
<g id="Group 270">
<g id="Group 268">
<path id="Ellipse 52 (Stroke)" fill-rule="evenodd" clip-rule="evenodd" d="M50 92C73.196 92 92 73.196 92 50C92 26.804 73.196 8 50 8C26.804 8 8 26.804 8 50C8 73.196 26.804 92 50 92ZM50 100C77.6142 100 100 77.6142 100 50C100 22.3858 77.6142 0 50 0C22.3858 0 0 22.3858 0 50C0 77.6142 22.3858 100 50 100Z" fill="url(#paint0_linear_2371_33316)"/>
<path id="Union" fill-rule="evenodd" clip-rule="evenodd" d="M71 41H29C24.0295 41 20 45.0294 20 50C20 54.9706 24.0295 59 29 59H71C75.9705 59 80 54.9706 80 50C80 45.0294 75.9705 41 71 41Z" fill="url(#paint1_linear_2371_33316)"/>
</g>
</g>
<defs>
<linearGradient id="paint0_linear_2371_33316" x1="50" y1="0" x2="50" y2="100" gradientUnits="userSpaceOnUse">
<stop stop-color="#AB750F"/>
<stop offset="0.516" stop-color="#D8A956"/>
<stop offset="1" stop-color="#AB750F"/>
</linearGradient>
<linearGradient id="paint1_linear_2371_33316" x1="17.1951" y1="50.0001" x2="81.0976" y2="50.0001" gradientUnits="userSpaceOnUse">
<stop stop-color="#AB750F"/>
<stop offset="0.516" stop-color="#D8A956"/>
<stop offset="1" stop-color="#AB750F"/>
</linearGradient>
</defs>
</svg>
