<svg xmlns="http://www.w3.org/2000/svg" width="100" height="100" fill="none" xmlns:v="https://vecta.io/nano"><g clip-path="url(#B)"><path fill-rule="evenodd" d="M8 81h42 0 42s.818-4.391 0-7c-.634-2.022-1.887-3.065-3.23-4.183-.939-.782-1.923-1.601-2.77-2.817-4.807-6.903-5.411-15.206-6.018-23.564C79.224 33.002 78.459 22.483 69.5 14.5 64.479 10.026 54 5 54 5c.113-1.948-1.535-5-4-5s-4.113 3.052-4 5c0 0-10.479 5.026-15.5 9.5-8.959 7.983-9.724 18.502-10.482 28.936C19.411 51.794 18.808 60.097 14 67c-.847 1.216-1.83 2.035-2.77 2.817C9.887 70.935 8.634 71.978 8 74c-.818 2.609 0 7 0 7zm28.142 9.74A15 15 0 0 1 35 85h30a15 15 0 0 1-4.393 10.607A15 15 0 0 1 50 100a15 15 0 0 1-10.607-4.393 15 15 0 0 1-3.252-4.866z" fill="url(#A)"/><path d="M39 13c-5.5 1-12.5 9-13 17 4-7 5.5-11 13-17z" fill="#fff"/></g><defs><linearGradient id="A" x1="50" y1="0" x2="50" y2="100" gradientUnits="userSpaceOnUse"><stop stop-color="#ab750f"/><stop offset=".516" stop-color="#d8a956"/><stop offset="1" stop-color="#ab750f"/></linearGradient><clipPath id="B"><path fill="#fff" d="M0 0h100v100H0z"/></clipPath></defs></svg>