<svg xmlns="http://www.w3.org/2000/svg" width="100" height="100" fill="none" xmlns:v="https://vecta.io/nano"><path d="M36 21l9-8.5L44 1 31 16l1 5h4z" fill="url(#A)"/><path d="M30 95h7l-1-4 5.5-6.5L41 81 30 91v4z" fill="url(#B)"/><path d="M23 51l9 11 1 4.5L11 47l-4-9 4-11 12 24z" fill="url(#C)"/><path d="M10 48l22 19-8-1L3 54 0 41.5 8.5 45l1.5 3z" fill="url(#D)"/><path d="M36 73l-4-4-17-2 7 8 14-2z" fill="url(#E)"/><path fill-rule="evenodd" d="M50 11L37 23h-7L25 0l-7 15 8 28 6-9h8v-9l10-10 10 10v9h8l6 9 8-28-7-15-5 23h-7L50 11z" fill="url(#F)"/><path d="M64 21l-9-8.5L56 1l13 15-1 5h-4z" fill="url(#G)"/><g fill-rule="evenodd"><path d="M40 35l10 6 10-6h6L50 45 34 35h6z" fill="url(#H)"/><path d="M50 19l-7.5 7.5V34l7.5 3.803L57.5 34v-7.5L50 19z" fill="#bc851e"/><path d="M26 97h24 24v3H50 26v-3z" fill="url(#I)"/><path d="M50 95H39l-1-3 5-6 7 5 7-5 5 6-1 3H50z" fill="url(#J)"/></g><path d="M70 95h-7l1-4-5.5-6.5.5-3.5 11 10v4z" fill="url(#K)"/><path fill-rule="evenodd" d="M50 88.5L44 84s-1.973-10.166-5-17-10.5-18-10.5-18v-6l4-5.5L50 48l17.5-10.5 4 5.5v6S64.027 60.166 61 67s-5 17-5 17l-6 4.5z" fill="url(#L)"/><path d="M77 51l-9 11-1 4.5L89 47l4-9-4-11-12 24z" fill="url(#M)"/><path d="M90 48L68 67l8-1 21-12 3-12.5-8.5 3.5-1.5 3z" fill="url(#N)"/><path d="M64 73l4-4 17-2-7 8-14-2z" fill="url(#O)"/><defs><linearGradient id="A" x1="38" y1="1" x2="38" y2="21" href="#P"><stop stop-color="#ab750f"/><stop offset=".5" stop-color="#d8a956"/><stop offset="1" stop-color="#ab750f"/></linearGradient><linearGradient id="B" x1="35.75" y1="81" x2="35.75" y2="95" href="#P"><stop stop-color="#ab750f"/><stop offset=".5" stop-color="#d8a956"/><stop offset="1" stop-color="#ab750f"/></linearGradient><linearGradient id="C" x1="27.993" y1="16.821" x2="5.492" y2="68.013" href="#P"><stop stop-color="#d8a956"/><stop offset="1" stop-color="#ab750f"/></linearGradient><linearGradient id="D" x1="26.831" y1="46.061" x2="22.355" y2="71.003" href="#P"><stop stop-color="#d8a956"/><stop offset="1" stop-color="#ab750f"/></linearGradient><linearGradient id="E" x1="32.608" y1="68.431" x2="31.92" y2="76.449" href="#P"><stop stop-color="#d8a956"/><stop offset="1" stop-color="#ab750f"/></linearGradient><linearGradient id="F" x1="71.662" y1="7.691" x2="65.24" y2="50.132" href="#P"><stop stop-color="#d8a956"/><stop offset="1" stop-color="#ab750f"/></linearGradient><linearGradient id="G" x1="62" y1="1" x2="62" y2="21" href="#P"><stop stop-color="#ab750f"/><stop offset=".5" stop-color="#d8a956"/><stop offset="1" stop-color="#ab750f"/></linearGradient><linearGradient id="H" x1="50" y1="35" x2="50" y2="45" href="#P"><stop stop-color="#ab750f"/><stop offset=".5" stop-color="#d8a956"/><stop offset="1" stop-color="#ab750f"/></linearGradient><linearGradient id="I" x1="50" y1="97" x2="50" y2="100" href="#P"><stop stop-color="#ab750f"/><stop offset=".516" stop-color="#d8a956"/><stop offset="1" stop-color="#ab750f"/></linearGradient><linearGradient id="J" x1="50" y1="86" x2="50" y2="95" href="#P"><stop stop-color="#ab750f"/><stop offset=".5" stop-color="#d8a956"/><stop offset="1" stop-color="#ab750f"/></linearGradient><linearGradient id="K" x1="64.25" y1="81" x2="64.25" y2="95" href="#P"><stop stop-color="#ab750f"/><stop offset=".5" stop-color="#d8a956"/><stop offset="1" stop-color="#ab750f"/></linearGradient><linearGradient id="L" x1="50" y1="37.5" x2="50" y2="88.5" href="#P"><stop stop-color="#ab750f"/><stop offset=".516" stop-color="#d8a956"/><stop offset="1" stop-color="#ab750f"/></linearGradient><linearGradient id="M" x1="72.008" y1="16.821" x2="94.508" y2="68.013" href="#P"><stop stop-color="#d8a956"/><stop offset="1" stop-color="#ab750f"/></linearGradient><linearGradient id="N" x1="73.169" y1="46.061" x2="77.645" y2="71.003" href="#P"><stop stop-color="#d8a956"/><stop offset="1" stop-color="#ab750f"/></linearGradient><linearGradient id="O" x1="67.392" y1="68.431" x2="68.08" y2="76.449" href="#P"><stop stop-color="#d8a956"/><stop offset="1" stop-color="#ab750f"/></linearGradient><linearGradient id="P" gradientUnits="userSpaceOnUse"/></defs></svg>