<svg width="103" height="102" viewBox="0 0 103 102" fill="none" xmlns="http://www.w3.org/2000/svg">
<g id="play">
<g id="play_2">
<path id="1 back" fill-rule="evenodd" clip-rule="evenodd" d="M22.7493 28.2386L6.3161 23.8887L7.76609 28.722L7.76609 69.8048H3.89947L3.41614 72.7048L20.3326 80.9214V78.5047L22.7493 79.4714L25.1659 78.5047V80.9214L42.0824 72.7048L41.599 69.8048H37.7324V28.722L39.1824 23.8887L22.7493 28.2386Z" fill="url(#paint0_linear_3674_4817)"/>
<path id="1 back (Stroke)" fill-rule="evenodd" clip-rule="evenodd" d="M22.7492 28.2386L6.3161 23.8887L7.76609 28.722L7.76609 69.8048H3.89947L3.41614 72.7048L20.3326 80.9214V78.5047L22.7492 79.4714L25.1659 78.5047V80.9214L42.0824 72.7048L41.599 69.8048H37.7324V28.722L39.1824 23.8887L22.7492 28.2386ZM39.1824 23.8887L22.7492 29.4386L6.3161 23.8887L8.92609 28.5517L8.92609 70.9648H4.88213L4.7029 72.0402L20.3326 80.9214V78.5047L22.7498 79.4718L25.1659 78.5047V80.9214L40.7956 72.0402L40.6164 70.9648H36.5724V28.5517L39.1824 23.8887Z" fill="#6D4225"/>
<path id="1 back (Stroke)_2" fill-rule="evenodd" clip-rule="evenodd" d="M22.7493 28.2386L6.3161 23.8887L7.76609 28.722L7.76609 69.8048H3.89947L3.41614 72.7048L20.3326 80.9214V78.5047L22.7493 79.4714L25.1659 78.5047V80.9214L42.0824 72.7048L41.599 69.8048H37.7324V28.722L39.1824 23.8887L22.7493 28.2386ZM38.326 24.7176L22.7493 28.8408L7.17253 24.7176L8.34822 28.6365L8.34822 70.387H4.39261L4.06189 72.3713L20.3326 80.9214V78.5047L22.7493 79.4714L25.1659 78.5047V80.9214L41.4366 72.3713L41.1059 70.387H37.1503V28.6365L38.326 24.7176Z" fill="#BF8F38"/>
<g id="2 big diamond">
<path id="Union" fill-rule="evenodd" clip-rule="evenodd" d="M19.365 28.7218L22.7483 33.0718L26.1316 28.7218L22.7483 22.9219L19.365 28.7218Z" fill="url(#paint1_linear_3674_4817)"/>
<path id="Union (Stroke)" fill-rule="evenodd" clip-rule="evenodd" d="M22.7484 33.8593L18.783 28.7608L22.7484 21.9629L26.7139 28.7608L22.7484 33.8593ZM22.7484 33.072L26.1317 28.7221L22.7484 22.9221L19.3651 28.7221L22.7484 33.072Z" fill="#CB9A40"/>
<path id="Vector 119" d="M19.365 28.7218L22.7483 22.9219L26.1316 28.7218L22.7483 23.8885L19.365 28.7218Z" fill="#6D4225"/>
</g>
<path id="Union (Stroke)_2" fill-rule="evenodd" clip-rule="evenodd" d="M4.16722 40.3466L12.725 43.4629V57.9627L22.7497 62.5543L32.7745 57.9627V43.4629L41.485 40.2911L40.9043 40.5025L39.7429 40.9254L37.42 41.7712L32.7745 43.4629V57.9627L22.7497 62.5543L12.725 57.9627V43.4629L8.07932 41.7712L5.7565 40.9254L4.59509 40.5025L4.16722 40.3466ZM4.16722 40.3466L12.725 43.4629V57.9627L22.7497 62.5543L32.7745 57.9627V43.4629L41.485 40.2911L41.4814 43.3786L40.32 43.8015L35.6744 45.4931V59.8241L23.3823 65.4543L22.7497 65.696L22.1171 65.4543L9.82499 59.8241V45.4931L5.17935 43.8015L4.01794 43.3786L4.16722 40.3466Z" fill="white"/>
<g id="Union_2" opacity="0.3" filter="url(#filter0_f_3674_4817)">
<path fill-rule="evenodd" clip-rule="evenodd" d="M22.7496 77.5382L4.434 69.754V34.0386C4.434 31.0624 2.60245 29.9176 2.60245 29.9176L4.434 30.3755L2.14455 25.3387L22.7496 30.3755L22.7496 61.5118L13.2525 57.1619V43.4252L8.85144 41.8226L6.65088 41.0213L5.5506 40.6206L5.00045 40.4204L5.00382 43.3453L6.1041 43.746L10.5052 45.3486V58.9253L22.1504 64.2592L22.7496 64.4882L22.7496 77.5382ZM22.7496 77.5382L41.0652 69.754V34.0386C41.0652 31.0624 42.8968 29.9176 42.8968 29.9176L41.0652 30.3755L43.3547 25.3387L22.7497 30.3755L22.7497 61.5118L32.2467 57.1619V43.4252L36.6478 41.8226L38.8484 41.0213L39.9486 40.6206L40.4988 40.4204L40.4954 43.3453L39.3951 43.746L34.994 45.3486V58.9253L23.3488 64.2592L22.7497 64.4882L22.7496 77.5382Z" fill="#212121"/>
</g>
<path id="Subtract" fill-rule="evenodd" clip-rule="evenodd" d="M42.0828 71.2539L22.7497 79.4705L22.7497 65.6957L23.3822 65.454L35.6743 59.8238V45.4928L40.3199 43.8012L41.4813 43.3783L41.4849 40.2908L40.9042 40.5022L39.7427 40.9251L37.4199 41.7709L32.7744 43.4626V57.9624L22.7497 62.5539L22.7497 29.6877L44.4995 24.3711L42.0828 29.6877L44.0162 29.2044C44.0162 29.2044 42.0828 30.4127 42.0828 33.5543V71.2539Z" fill="#AB750F"/>
<path id="Subtract_2" fill-rule="evenodd" clip-rule="evenodd" d="M3.41655 71.2539L22.7497 79.4705L22.7497 65.6957L22.1172 65.454L9.82506 59.8238V45.4928L5.17942 43.8012L4.01802 43.3783L4.01446 40.2908L4.59517 40.5022L5.75658 40.9251L8.07939 41.7709L12.725 43.4626V57.9624L22.7497 62.554L22.7497 29.6877L0.999908 24.3711L3.41655 29.6877L1.48324 29.2044C1.48324 29.2044 3.41655 30.4127 3.41655 33.5543V71.2539Z" fill="#BF8F38"/>
<path id="Rectangle 576" d="M3.43359 30.4128L4.16712 30.6545L1.96655 25.3379L22.7497 31.1378V62.5541L12.7249 57.9625V43.4627L3.43359 40.0794V30.4128Z" fill="#CA9B49"/>
<path id="Rectangle 577" d="M42.0657 30.4128L41.3322 30.6545L43.5327 25.3379L22.7496 31.1378V62.5541L32.7744 57.9625V43.4627L42.0657 40.0794V30.4128Z" fill="#BE8821"/>
<path id="Rectangle 578" d="M0.999878 24.3721L21.2996 29.447L4.62484 27.0304L7.76647 34.522L2.44986 29.9303H3.89985L0.999878 24.3721Z" fill="#DBB060"/>
<path id="Rectangle 578_2" d="M44.4994 24.3721L24.1996 29.447L40.8744 27.0304L37.7328 34.522L43.0494 29.9303H41.5994L44.4994 24.3721Z" fill="#DBB060"/>
<g id="Group 474">
<path id="Polygon 101" d="M22.7496 37.4226V31.0256L14.4452 28.7227L16.8179 34.6079L22.7496 37.4226Z" fill="#E6B96A"/>
<path id="Polygon 102" d="M22.7496 37.4226V31.0256L31.0541 28.7227L28.6814 34.6079L22.7496 37.4226Z" fill="#C69848"/>
</g>
<g id="11 top line">
<path id="top line left" d="M22.751 29.6884L1.96788 25.5801L22.751 31.6217V29.6884Z" fill="#6D4225"/>
<path id="top line right " d="M22.751 29.6884L43.5341 25.5801L22.751 31.6217V29.6884Z" fill="#6D4225"/>
</g>
<path id="16 Ouline (Stroke) (Stroke)" fill-rule="evenodd" clip-rule="evenodd" d="M3.41649 29.6888L0.999878 24.3722L22.7496 29.2055L44.4994 24.3721L42.0827 29.6888L44.016 29.2055C44.016 29.2055 42.9397 29.6436 42.3911 30.7808C42.0004 31.5908 42.0827 33.0775 42.0827 33.5554V71.255L22.7496 79.4716L3.41649 71.255L3.65812 33.5553L3.09721 30.7809L2.20814 29.6887L1.48318 29.2055L3.41649 29.6888ZM43.2497 29.9351C43.6578 29.4294 44.016 29.2055 44.016 29.2055L42.0827 29.6888L44.4994 24.3721L22.7496 29.2055L0.999878 24.3722L3.41649 29.6888L1.48318 29.2055C1.48318 29.2055 1.84145 29.4294 2.24953 29.9351C2.25132 29.9373 2.25312 29.9395 2.25491 29.9417C2.30611 30.0054 2.35807 30.0736 2.41019 30.1462C2.48547 30.2512 2.56107 30.3656 2.63516 30.4899C2.68007 30.5652 2.72442 30.6441 2.76781 30.7267C2.83937 30.863 2.90831 31.0092 2.97281 31.1659C3.22997 31.7903 3.65812 33.5553 3.65812 33.5553L3.41649 71.255L22.7496 79.4716L42.0827 71.255V33.5554C42.0827 32.5796 42.2692 31.7903 42.5264 31.1658C42.5909 31.0092 42.6598 30.863 42.7314 30.7267C42.7748 30.6441 42.8191 30.5652 42.864 30.4899C42.9381 30.3656 43.0137 30.2512 43.089 30.1462C43.1411 30.0735 43.1931 30.0054 43.2443 29.9417C43.2461 29.9395 43.2479 29.9373 43.2497 29.9351ZM41.6326 30.7977C41.6024 30.8712 41.573 30.9464 41.5447 31.0234C41.4814 31.1952 41.4232 31.376 41.3714 31.5659C41.3255 31.7346 41.2845 31.9104 41.2497 32.0936C41.1652 32.5372 41.1161 33.0238 41.1161 33.5554V70.6155L22.7496 78.4212L4.38314 70.6155L4.38314 33.5554C4.38314 33.0238 4.33403 32.5372 4.24955 32.0936C4.21467 31.9104 4.17375 31.7346 4.12777 31.5659C4.07599 31.376 4.01779 31.1952 3.95455 31.0234C3.92621 30.9464 3.89685 30.8712 3.8666 30.7977L5.12543 31.1124L2.68167 25.7362L22.7496 30.1957L42.8175 25.7362L40.3738 31.1124L41.6326 30.7977ZM41.6326 30.7977L40.3738 31.1124L42.8175 25.7362L22.7496 30.1957L2.68167 25.7362L5.12543 31.1124L3.8666 30.7977C3.9127 31.1625 4.38314 33.15 4.38314 33.5554L5.54741 69.8453L22.7496 77.1562L39.9518 69.8453L41.1161 33.5554C41.1161 33.15 41.5865 31.1625 41.6326 30.7977Z" fill="#6D4225"/>
<path id="16 Ouline (Stroke)" fill-rule="evenodd" clip-rule="evenodd" d="M2.63519 30.4898C2.09875 29.5901 1.48321 29.2053 1.48321 29.2053L3.41652 29.6887L0.999878 24.3721L22.7496 29.2053L44.4994 24.3721L42.0828 29.6887L44.0161 29.2053C44.0161 29.2053 43.4005 29.5901 42.8641 30.4898C42.4498 31.1845 42.0828 32.1864 42.0828 33.5553V71.2549L22.7496 79.4714L3.41652 71.2549L3.41652 33.5553C3.41652 32.1864 3.04944 31.1845 2.63519 30.4898ZM3.86663 30.7976C4.1694 31.5327 4.38317 32.4462 4.38317 33.5553L4.38317 70.6154L22.7496 78.4211L41.1161 70.6154V33.5553C41.1161 32.4462 41.3299 31.5327 41.6326 30.7976L40.3738 31.1123L42.8176 25.736L22.7496 30.1956L2.6817 25.736L5.12546 31.1123L3.86663 30.7976Z" fill="#CB9A40"/>
<g id="19 small diamond-top">
<path id="Union_3" fill-rule="evenodd" clip-rule="evenodd" d="M22.7486 25.3389L20.8153 28.9638L22.7486 31.6221V25.3389Z" fill="#CA9B49"/>
<path id="Union_4" fill-rule="evenodd" clip-rule="evenodd" d="M22.7489 25.3389L24.6823 28.9638L22.7489 31.6221V25.3389Z" fill="#AB750F"/>
<path id="Vector 122" d="M20.8153 28.9638L22.7486 25.3389L24.6819 28.9638L22.7486 26.3055L20.8153 28.9638Z" fill="#6D4225"/>
</g>
</g>
<g id="play_3">
<path id="1 back_2" fill-rule="evenodd" clip-rule="evenodd" d="M79.7493 28.2386L63.3161 23.8887L64.7661 28.722V69.8048H60.8995L60.4161 72.7048L77.3326 80.9214V78.5047L79.7493 79.4714L82.1659 78.5047V80.9214L99.0824 72.7048L98.599 69.8048H94.7324V28.722L96.1824 23.8887L79.7493 28.2386Z" fill="url(#paint2_linear_3674_4817)"/>
<path id="1 back (Stroke)_3" fill-rule="evenodd" clip-rule="evenodd" d="M79.7493 28.2386L63.3161 23.8887L64.7661 28.722V69.8048H60.8995L60.4161 72.7048L77.3326 80.9214V78.5047L79.7493 79.4714L82.1659 78.5047V80.9214L99.0824 72.7048L98.599 69.8048H94.7324V28.722L96.1824 23.8887L79.7493 28.2386ZM96.1824 23.8887L79.7493 29.4386L63.3161 23.8887L65.9261 28.5517V70.9648H61.8821L61.7029 72.0402L77.3326 80.9214V78.5047L79.7498 79.4718L82.1659 78.5047V80.9214L97.7956 72.0402L97.6164 70.9648H93.5724V28.5517L96.1824 23.8887Z" fill="#6D4225"/>
<path id="1 back (Stroke)_4" fill-rule="evenodd" clip-rule="evenodd" d="M79.7493 28.2386L63.3161 23.8887L64.7661 28.722V69.8048H60.8995L60.4161 72.7048L77.3326 80.9214V78.5047L79.7493 79.4714L82.1659 78.5047V80.9214L99.0824 72.7048L98.599 69.8048H94.7324V28.722L96.1824 23.8887L79.7493 28.2386ZM95.326 24.7176L79.7493 28.8408L64.1725 24.7176L65.3482 28.6365V70.387H61.3926L61.0619 72.3713L77.3326 80.9214V78.5047L79.7493 79.4714L82.1659 78.5047V80.9214L98.4366 72.3713L98.1059 70.387H94.1503V28.6365L95.326 24.7176Z" fill="#BF8F38"/>
<g id="2 big diamond_2">
<path id="Union_5" fill-rule="evenodd" clip-rule="evenodd" d="M76.365 28.7218L79.7483 33.0718L83.1316 28.7218L79.7483 22.9219L76.365 28.7218Z" fill="url(#paint3_linear_3674_4817)"/>
<path id="Union (Stroke)_3" fill-rule="evenodd" clip-rule="evenodd" d="M79.7484 33.8593L75.783 28.7608L79.7484 21.9629L83.7139 28.7608L79.7484 33.8593ZM79.7484 33.072L83.1317 28.7221L79.7484 22.9221L76.3651 28.7221L79.7484 33.072Z" fill="#CB9A40"/>
<path id="Vector 119_2" d="M76.365 28.7218L79.7483 22.9219L83.1316 28.7218L79.7483 23.8885L76.365 28.7218Z" fill="#6D4225"/>
</g>
<path id="Union (Stroke)_4" fill-rule="evenodd" clip-rule="evenodd" d="M61.1672 40.3466L69.725 43.4629V57.9627L79.7497 62.5543L89.7745 57.9627V43.4629L98.485 40.2911L97.9043 40.5025L96.7429 40.9254L94.42 41.7712L89.7745 43.4629V57.9627L79.7497 62.5543L69.725 57.9627V43.4629L65.0793 41.7712L62.7565 40.9254L61.5951 40.5025L61.1672 40.3466ZM61.1672 40.3466L69.725 43.4629V57.9627L79.7497 62.5543L89.7745 57.9627V43.4629L98.485 40.2911L98.4814 43.3786L97.32 43.8015L92.6744 45.4931V59.8241L80.3823 65.4543L79.7497 65.696L79.1171 65.4543L66.825 59.8241V45.4931L62.1794 43.8015L61.0179 43.3786L61.1672 40.3466Z" fill="white"/>
<g id="Union_6" opacity="0.3" filter="url(#filter1_f_3674_4817)">
<path fill-rule="evenodd" clip-rule="evenodd" d="M79.7495 77.5383L61.434 69.7542V34.0388C61.434 31.0625 59.6024 29.9178 59.6024 29.9178L61.434 30.3757L59.1445 25.3389L79.7495 30.3757H79.7496L100.355 25.3389L98.0651 30.3757L99.8967 29.9178C99.8967 29.9178 98.0651 31.0625 98.0651 34.0388V69.7542L79.7496 77.5383H79.7495ZM79.7496 64.4883L80.3487 64.2593L91.9939 58.9255V45.3487L96.395 43.7461L97.4953 43.3455L97.4986 40.4205L96.9485 40.6208L95.8482 41.0214L93.6477 41.8227L89.2466 43.4253V57.162L79.7496 61.5119L79.7495 61.5119L70.2525 57.162V43.4253L65.8514 41.8227L63.6509 41.0214L62.5506 40.6208L62.0004 40.4205L62.0038 43.3455L63.1041 43.7461L67.5052 45.3487V58.9255L79.1504 64.2593L79.7495 64.4883L79.7496 64.4883Z" fill="#212121"/>
</g>
<path id="Subtract_3" fill-rule="evenodd" clip-rule="evenodd" d="M99.0828 71.2539L79.7496 79.4705L79.7496 65.6957L80.3821 65.454L92.6742 59.8238V45.4928L97.3198 43.8012L98.4812 43.3783L98.4848 40.2908L97.9041 40.5022L96.7427 40.9251L94.4198 41.7709L89.7743 43.4626V57.9624L79.7496 62.5539L79.7496 29.6877L101.499 24.3711L99.0828 29.6877L101.016 29.2044C101.016 29.2044 99.0828 30.4127 99.0828 33.5543V71.2539Z" fill="#AB750F"/>
<path id="Subtract_4" fill-rule="evenodd" clip-rule="evenodd" d="M60.4166 71.2539L79.7498 79.4705L79.7498 65.6957L79.1172 65.454L66.8251 59.8238V45.4928L62.1795 43.8012L61.0181 43.3783L61.0145 40.2908L61.5953 40.5022L62.7567 40.9251L65.0795 41.7709L69.7251 43.4626V57.9624L79.7498 62.554L79.7497 29.6877L58 24.3711L60.4166 29.6877L58.4833 29.2044C58.4833 29.2044 60.4166 30.4127 60.4166 33.5543V71.2539Z" fill="#BF8F38"/>
<path id="Rectangle 576_2" d="M60.4336 30.4128L61.1671 30.6545L58.9666 25.3379L79.7497 31.1378V62.5541L69.7249 57.9625V43.4627L60.4336 40.0794V30.4128Z" fill="#CA9B49"/>
<path id="Rectangle 577_2" d="M99.0657 30.4128L98.3322 30.6545L100.533 25.3379L79.7496 31.1378V62.5541L89.7744 57.9625V43.4627L99.0657 40.0794V30.4128Z" fill="#BE8821"/>
<path id="Rectangle 578_3" d="M57.9999 24.3721L78.2996 29.447L61.6248 27.0304L64.7665 34.522L59.4499 29.9303H60.8998L57.9999 24.3721Z" fill="#DBB060"/>
<path id="Rectangle 578_4" d="M101.499 24.3721L81.1996 29.447L97.8744 27.0304L94.7328 34.522L100.049 29.9303H98.5994L101.499 24.3721Z" fill="#DBB060"/>
<g id="Group 474_2">
<path id="Polygon 101_2" d="M79.7496 37.4226V31.0256L71.4452 28.7227L73.8179 34.6079L79.7496 37.4226Z" fill="#E6B96A"/>
<path id="Polygon 102_2" d="M79.7496 37.4226V31.0256L88.0541 28.7227L85.6814 34.6079L79.7496 37.4226Z" fill="#C69848"/>
</g>
<g id="11 top line_2">
<path id="top line left_2" d="M79.751 29.6884L58.9679 25.5801L79.751 31.6217V29.6884Z" fill="#6D4225"/>
<path id="top line right _2" d="M79.751 29.6884L100.534 25.5801L79.751 31.6217V29.6884Z" fill="#6D4225"/>
</g>
<path id="16 Ouline (Stroke) (Stroke)_2" fill-rule="evenodd" clip-rule="evenodd" d="M60.4165 29.6888L57.9999 24.3722L79.7496 29.2055L101.499 24.3721L99.0827 29.6888L101.016 29.2055C101.016 29.2055 99.9397 29.6436 99.3911 30.7808C99.0004 31.5908 99.0827 33.0775 99.0827 33.5554V71.255L79.7496 79.4716L60.4165 71.255L60.6581 33.5553L60.0972 30.7809L59.2081 29.6887L58.4832 29.2055L60.4165 29.6888ZM100.25 29.9351C100.658 29.4294 101.016 29.2055 101.016 29.2055L99.0827 29.6888L101.499 24.3721L79.7496 29.2055L57.9999 24.3722L60.4165 29.6888L58.4832 29.2055C58.4832 29.2055 58.8414 29.4294 59.2495 29.9351C59.2513 29.9373 59.2531 29.9395 59.2549 29.9418C59.3061 30.0054 59.3581 30.0736 59.4102 30.1462C59.4855 30.2512 59.5611 30.3656 59.6352 30.4899C59.6801 30.5652 59.7244 30.6441 59.7678 30.7267C59.8394 30.863 59.9083 31.0092 59.9728 31.1659C60.23 31.7903 60.6581 33.5553 60.6581 33.5553L60.4165 71.255L79.7496 79.4716L99.0827 71.255V33.5554C99.0827 32.5796 99.2692 31.7903 99.5264 31.1658C99.5909 31.0092 99.6598 30.863 99.7314 30.7267C99.7748 30.6441 99.8191 30.5652 99.864 30.4899C99.9381 30.3656 100.014 30.2512 100.089 30.1462C100.141 30.0735 100.193 30.0054 100.244 29.9417C100.246 29.9395 100.248 29.9373 100.25 29.9351ZM98.6326 30.7977C98.6024 30.8712 98.573 30.9464 98.5447 31.0234C98.4814 31.1952 98.4232 31.376 98.3714 31.5659C98.3255 31.7346 98.2845 31.9104 98.2497 32.0936C98.1652 32.5372 98.1161 33.0238 98.1161 33.5554V70.6155L79.7496 78.4212L61.3831 70.6155V33.5554C61.3831 33.0238 61.334 32.5372 61.2495 32.0936C61.2147 31.9104 61.1738 31.7346 61.1278 31.5659C61.076 31.376 61.0178 31.1952 60.9546 31.0234C60.9262 30.9464 60.8968 30.8712 60.8666 30.7977L62.1254 31.1124L59.6817 25.7362L79.7496 30.1957L99.8175 25.7362L97.3738 31.1124L98.6326 30.7977ZM98.6326 30.7977L97.3738 31.1124L99.8175 25.7362L79.7496 30.1957L59.6817 25.7362L62.1254 31.1124L60.8666 30.7977C60.9127 31.1625 61.3831 33.15 61.3831 33.5554L62.5474 69.8453L79.7496 77.1562L96.9518 69.8453L98.1161 33.5554C98.1161 33.15 98.5865 31.1625 98.6326 30.7977Z" fill="#6D4225"/>
<path id="16 Ouline (Stroke)_2" fill-rule="evenodd" clip-rule="evenodd" d="M59.6352 30.4898C59.0988 29.5901 58.4832 29.2053 58.4832 29.2053L60.4165 29.6887L57.9999 24.3721L79.7496 29.2053L101.499 24.3721L99.0827 29.6887L101.016 29.2053C101.016 29.2053 100.401 29.5901 99.8641 30.4898C99.4498 31.1845 99.0827 32.1864 99.0827 33.5553V71.2549L79.7496 79.4714L60.4165 71.2549V33.5553C60.4165 32.1864 60.0494 31.1845 59.6352 30.4898ZM60.8666 30.7976C61.1694 31.5327 61.3832 32.4462 61.3832 33.5553V70.6154L79.7496 78.4211L98.1161 70.6154V33.5553C98.1161 32.4462 98.3299 31.5327 98.6326 30.7976L97.3738 31.1123L99.8176 25.736L79.7496 30.1956L59.6817 25.736L62.1255 31.1123L60.8666 30.7976Z" fill="#CB9A40"/>
<g id="19 small diamond-top_2">
<path id="Union_7" fill-rule="evenodd" clip-rule="evenodd" d="M79.7486 25.3389L77.8153 28.9638L79.7486 31.6221V25.3389Z" fill="#CA9B49"/>
<path id="Union_8" fill-rule="evenodd" clip-rule="evenodd" d="M79.7489 25.3389L81.6823 28.9638L79.7489 31.6221V25.3389Z" fill="#AB750F"/>
<path id="Vector 122_2" d="M77.8153 28.9638L79.7486 25.3389L81.6819 28.9638L79.7486 26.3055L77.8153 28.9638Z" fill="#6D4225"/>
</g>
</g>
<g id="play_4">
<path id="1 back_3" fill-rule="evenodd" clip-rule="evenodd" d="M51.4988 11.0888L23.1658 3.58887L25.6658 11.9221L25.6658 82.7546H18.9992L18.1659 87.7546L47.3322 101.921V97.7545L51.4988 99.4211L55.6655 97.7545V101.921L84.8318 87.7546L83.9985 82.7546H77.3319V11.9221L79.8319 3.58887L51.4988 11.0888Z" fill="url(#paint4_linear_3674_4817)"/>
<path id="1 back (Stroke)_5" fill-rule="evenodd" clip-rule="evenodd" d="M51.4988 11.0888L23.1658 3.58887L25.6658 11.9221L25.6658 82.7546H18.9992L18.1659 87.7546L47.3322 101.921V97.7545L51.4988 99.4211L55.6655 97.7545V101.921L84.8318 87.7546L83.9985 82.7546H77.3319V11.9221L79.8319 3.58887L51.4988 11.0888ZM79.8319 3.58887L51.4988 13.1577L23.1658 3.58887L27.6658 11.6286V84.7546H20.6935L20.3845 86.6087L47.3322 101.921V97.7545L51.4999 99.4219L55.6655 97.7545V101.921L82.6132 86.6087L82.3042 84.7546H75.3319V11.6286L79.8319 3.58887Z" fill="#6D4225"/>
<path id="1 back (Stroke)_6" fill-rule="evenodd" clip-rule="evenodd" d="M51.4988 11.0888L23.1658 3.58887L25.6658 11.9221L25.6658 82.7546H18.9992L18.1659 87.7546L47.3322 101.921V97.7545L51.4988 99.4211L55.6655 97.7545V101.921L84.8318 87.7546L83.9985 82.7546H77.3319V11.9221L79.8319 3.58887L51.4988 11.0888ZM78.3553 5.01798L51.4988 12.127L24.6424 5.01798L26.6695 11.7748V83.7583H19.8495L19.2793 87.1796L47.3322 101.921V97.7545L51.4988 99.4211L55.6655 97.7545V101.921L83.7184 87.1796L83.1482 83.7583H76.3282V11.7748L78.3553 5.01798Z" fill="#BF8F38"/>
<g id="2 big diamond_3">
<path id="Union_9" fill-rule="evenodd" clip-rule="evenodd" d="M45.6639 11.9218L51.4972 19.4217L57.3305 11.9218L51.4972 1.92188L45.6639 11.9218Z" fill="url(#paint5_linear_3674_4817)"/>
<path id="Union (Stroke)_5" fill-rule="evenodd" clip-rule="evenodd" d="M51.4973 20.7795L44.6603 11.9891L51.4973 0.268555L58.3343 11.9891L51.4973 20.7795ZM51.4973 19.4222L57.3305 11.9223L51.4973 1.9224L45.664 11.9223L51.4973 19.4222Z" fill="#CB9A40"/>
<path id="Vector 119_3" d="M45.6639 11.9218L51.4972 1.92188L57.3305 11.9218L51.4972 3.58852L45.6639 11.9218Z" fill="#6D4225"/>
</g>
<path id="Union (Stroke)_6" fill-rule="evenodd" clip-rule="evenodd" d="M19.4607 31.9649L34.2155 37.3378V62.3375L51.4995 70.2541L68.7836 62.3375V37.3378L83.8017 31.8693L82.8005 32.2337L80.7981 32.9629L76.7932 34.4212L68.7836 37.3378V62.3375L51.4995 70.2541L34.2155 62.3375V37.3378L26.2057 34.4212L22.2009 32.9629L20.1985 32.2337L19.4607 31.9649ZM19.4607 31.9649L34.2155 37.3378V62.3375L51.4995 70.2541L68.7836 62.3375V37.3378L83.8017 31.8693L83.7956 37.1925L81.7931 37.9216L73.7834 40.8383V65.5469L52.5901 75.2541L51.4995 75.6709L50.4089 75.2541L29.2155 65.5469V40.8383L21.2058 37.9216L19.2034 37.1925L19.4607 31.9649Z" fill="white"/>
<g id="Union_10" opacity="0.3" filter="url(#filter2_f_3674_4817)">
<path fill-rule="evenodd" clip-rule="evenodd" d="M51.4995 96.0879L19.9208 82.667V21.0887C19.9208 15.9572 16.763 13.9835 16.763 13.9835L19.9208 14.773L15.9735 6.08887L51.4994 14.773L87.0254 6.08887L83.0781 14.773L86.2359 13.9835C86.2359 13.9835 83.0781 15.9572 83.0781 21.0887V82.667L51.4995 96.0879ZM51.4995 73.5884L50.4662 73.1935L30.3884 63.9972V40.5891L22.8002 37.8259L20.9032 37.1352L20.8974 32.0922L21.8459 32.4374L23.7429 33.1282L27.537 34.5097L35.1251 37.2729V60.9568L51.4994 68.4567H51.4995L67.8738 60.9568V37.2729L75.4619 34.5097L79.256 33.1282L81.153 32.4374L82.1015 32.0922L82.0957 37.1352L80.1987 37.8259L72.6105 40.5891V63.9972L52.5327 73.1935L51.4995 73.5884Z" fill="#212121"/>
</g>
<path id="Subtract_5" fill-rule="evenodd" clip-rule="evenodd" d="M84.8324 85.2533L51.4995 99.4198L51.4995 75.6702L52.5901 75.2534L73.7833 65.5462V40.8376L81.7931 37.921L83.7955 37.1918L83.8016 31.8687L82.8004 32.2331L80.798 32.9622L76.7931 34.4206L68.7835 37.3372V62.3369L51.4994 70.2535L51.4995 13.5875L88.9991 4.4209L84.8324 13.5875L88.1657 12.7541C88.1657 12.7541 84.8324 14.8374 84.8324 20.2541V85.2533Z" fill="#AB750F"/>
<path id="Subtract_6" fill-rule="evenodd" clip-rule="evenodd" d="M18.1666 85.2533L51.4995 99.4198L51.4995 75.6702L50.409 75.2534L29.2157 65.5462V40.8376L21.206 37.921L19.2035 37.1918L19.1974 31.8687L20.1986 32.2331L22.201 32.9622L26.2059 34.4206L34.2155 37.3372V62.3369L51.4996 70.2535L51.4995 13.5875L14 4.4209L18.1666 13.5875L14.8333 12.7541C14.8333 12.7541 18.1666 14.8374 18.1666 20.2541V85.2533Z" fill="#BF8F38"/>
<path id="Rectangle 576_3" d="M18.196 14.8378L19.4607 15.2545L15.6666 6.08789L51.4996 16.0878V70.2538L34.2154 62.3373V37.3375L18.196 31.5043V14.8378Z" fill="#CA9B49"/>
<path id="Rectangle 577_3" d="M84.803 14.8378L83.5383 15.2545L87.3324 6.08789L51.4995 16.0878V70.2538L68.7836 62.3373V37.3375L84.803 31.5043V14.8378Z" fill="#BE8821"/>
<path id="Rectangle 578_5" d="M13.9999 4.42188L48.9995 13.1718L20.2498 9.00516L25.6664 21.9217L16.4998 14.0051H18.9998L13.9999 4.42188Z" fill="#DBB060"/>
<path id="Rectangle 578_6" d="M88.999 4.42188L53.9994 13.1718L82.7491 9.00516L77.3325 21.9217L86.4991 14.0051H83.9991L88.999 4.42188Z" fill="#DBB060"/>
<g id="Group 474_3">
<path id="Polygon 101_3" d="M51.4995 26.9227V15.8934L37.1815 11.9229L41.2724 22.0698L51.4995 26.9227Z" fill="#E6B96A"/>
<path id="Polygon 102_3" d="M51.4995 26.9227V15.8934L65.8175 11.9229L61.7266 22.0698L51.4995 26.9227Z" fill="#C69848"/>
</g>
<g id="11 top line_3">
<path id="top line left_3" d="M51.5018 13.5891L15.6689 6.50586L51.5018 16.9224V13.5891Z" fill="#6D4225"/>
<path id="top line right _3" d="M51.5018 13.5891L87.3348 6.50586L51.5018 16.9224V13.5891Z" fill="#6D4225"/>
</g>
<path id="16 Ouline (Stroke) (Stroke)_3" fill-rule="evenodd" clip-rule="evenodd" d="M18.1664 13.5887L13.9999 4.42209L51.4994 12.7553L88.999 4.42188L84.8324 13.5887L88.1657 12.7553C88.1657 12.7553 86.31 13.5107 85.3641 15.4713C84.6904 16.8679 84.8324 19.4312 84.8324 20.2552V85.2545L51.4994 99.421L18.1664 85.2545L18.5831 20.255L17.616 15.4716L16.0831 13.5884L14.8331 12.7553L18.1664 13.5887ZM86.8444 14.0133C87.548 13.1414 88.1657 12.7553 88.1657 12.7553L84.8324 13.5887L88.999 4.42188L51.4994 12.7553L13.9999 4.42209L18.1664 13.5887L14.8331 12.7553C14.8331 12.7553 15.4509 13.1414 16.1545 14.0133C16.1575 14.0171 16.1606 14.0209 16.1637 14.0248C16.252 14.1346 16.3416 14.252 16.4314 14.3773C16.5612 14.5583 16.6916 14.7556 16.8193 14.9698C16.8968 15.0997 16.9732 15.2358 17.048 15.3782C17.1714 15.6131 17.2903 15.8652 17.4015 16.1353C17.8449 17.212 18.5831 20.255 18.5831 20.255L18.1664 85.2545L51.4994 99.421L84.8324 85.2545V20.2552C84.8324 18.5728 85.1539 17.212 85.5973 16.1353C85.7085 15.8652 85.8274 15.6131 85.9508 15.3782C86.0256 15.2358 86.1021 15.0997 86.1795 14.9698C86.3072 14.7556 86.4376 14.5583 86.5674 14.3773C86.6572 14.252 86.7468 14.1346 86.8351 14.0248C86.8382 14.0209 86.8413 14.0171 86.8444 14.0133ZM84.0563 15.5006C84.0042 15.6272 83.9535 15.7569 83.9047 15.8897C83.7956 16.186 83.6953 16.4976 83.606 16.8251C83.5267 17.1158 83.4562 17.419 83.396 17.7348C83.2504 18.4997 83.1657 19.3387 83.1657 20.2552V84.1519L51.4994 97.6101L19.8331 84.1519L19.8331 20.2552C19.8331 19.3387 19.7484 18.4997 19.6028 17.7348C19.5426 17.419 19.4721 17.1158 19.3928 16.8251C19.3035 16.4976 19.2032 16.186 19.0941 15.8897C19.0453 15.7569 18.9947 15.6272 18.9425 15.5006L21.1129 16.0432L16.8995 6.77377L51.4994 14.4626L86.0993 6.77377L81.8859 16.0432L84.0563 15.5006ZM84.0563 15.5006L81.8859 16.0432L86.0993 6.77377L51.4994 14.4626L16.8995 6.77377L21.1129 16.0432L18.9425 15.5006C19.022 16.1295 19.8331 19.5562 19.8331 20.2552L21.8404 82.8239L51.4994 95.429L81.1584 82.8239L83.1657 20.2552C83.1657 19.5562 83.9768 16.1295 84.0563 15.5006Z" fill="#6D4225"/>
<path id="16 Ouline (Stroke)_3" fill-rule="evenodd" clip-rule="evenodd" d="M16.8194 14.9696C15.8945 13.4184 14.8332 12.7551 14.8332 12.7551L18.1665 13.5884L13.9999 4.42188L51.4995 12.7551L88.999 4.42188L84.8324 13.5884L88.1657 12.7551C88.1657 12.7551 87.1044 13.4184 86.1795 14.9696C85.4653 16.1675 84.8324 17.8948 84.8324 20.255V85.2543L51.4994 99.4208L18.1665 85.2543L18.1665 20.255C18.1665 17.8948 17.5336 16.1675 16.8194 14.9696ZM18.9426 15.5004C19.4646 16.7679 19.8331 18.3428 19.8331 20.255L19.8331 84.1517L51.4994 97.6099L83.1658 84.1517V20.255C83.1658 18.3428 83.5343 16.7679 84.0564 15.5004L81.886 16.043L86.0993 6.77355L51.4995 14.4624L16.8996 6.77355L21.1129 16.043L18.9426 15.5004Z" fill="#CB9A40"/>
<g id="19 small diamond-top_3">
<path id="Union_11" fill-rule="evenodd" clip-rule="evenodd" d="M51.4977 6.08887L48.1644 12.3388L51.4977 16.9221V6.08887Z" fill="#CA9B49"/>
<path id="Union_12" fill-rule="evenodd" clip-rule="evenodd" d="M51.4982 6.08887L54.8315 12.3388L51.4982 16.9221V6.08887Z" fill="#AB750F"/>
<path id="Vector 122_3" d="M48.1644 12.3388L51.4977 6.08887L54.831 12.3388L51.4977 7.75551L48.1644 12.3388Z" fill="#6D4225"/>
</g>
</g>
</g>
<defs>
<filter id="filter0_f_3674_4817" x="0.312972" y="23.5073" width="44.8733" height="55.8623" filterUnits="userSpaceOnUse" color-interpolation-filters="sRGB">
<feFlood flood-opacity="0" result="BackgroundImageFix"/>
<feBlend mode="normal" in="SourceGraphic" in2="BackgroundImageFix" result="shape"/>
<feGaussianBlur stdDeviation="0.915779" result="effect1_foregroundBlur_3674_4817"/>
</filter>
<filter id="filter1_f_3674_4817" x="57.313" y="23.5073" width="44.8732" height="55.8623" filterUnits="userSpaceOnUse" color-interpolation-filters="sRGB">
<feFlood flood-opacity="0" result="BackgroundImageFix"/>
<feBlend mode="normal" in="SourceGraphic" in2="BackgroundImageFix" result="shape"/>
<feGaussianBlur stdDeviation="0.915779" result="effect1_foregroundBlur_3674_4817"/>
</filter>
<filter id="filter2_f_3674_4817" x="12.8157" y="2.93101" width="77.3676" height="96.3147" filterUnits="userSpaceOnUse" color-interpolation-filters="sRGB">
<feFlood flood-opacity="0" result="BackgroundImageFix"/>
<feBlend mode="normal" in="SourceGraphic" in2="BackgroundImageFix" result="shape"/>
<feGaussianBlur stdDeviation="1.57893" result="effect1_foregroundBlur_3674_4817"/>
</filter>
<linearGradient id="paint0_linear_3674_4817" x1="22.7493" y1="43.8501" x2="22.7493" y2="73.7923" gradientUnits="userSpaceOnUse">
<stop stop-color="#D8A956"/>
<stop offset="1" stop-color="#AB750F"/>
</linearGradient>
<linearGradient id="paint1_linear_3674_4817" x1="22.7483" y1="26.4743" x2="22.7483" y2="31.803" gradientUnits="userSpaceOnUse">
<stop stop-color="#D8A956"/>
<stop offset="1" stop-color="#AB750F"/>
</linearGradient>
<linearGradient id="paint2_linear_3674_4817" x1="79.7493" y1="43.8501" x2="79.7493" y2="73.7923" gradientUnits="userSpaceOnUse">
<stop stop-color="#D8A956"/>
<stop offset="1" stop-color="#AB750F"/>
</linearGradient>
<linearGradient id="paint3_linear_3674_4817" x1="79.7483" y1="26.4743" x2="79.7483" y2="31.803" gradientUnits="userSpaceOnUse">
<stop stop-color="#D8A956"/>
<stop offset="1" stop-color="#AB750F"/>
</linearGradient>
<linearGradient id="paint4_linear_3674_4817" x1="51.4988" y1="38.0051" x2="51.499" y2="89.6296" gradientUnits="userSpaceOnUse">
<stop stop-color="#D8A956"/>
<stop offset="1" stop-color="#AB750F"/>
</linearGradient>
<linearGradient id="paint5_linear_3674_4817" x1="51.4972" y1="8.04681" x2="51.4972" y2="17.2342" gradientUnits="userSpaceOnUse">
<stop stop-color="#D8A956"/>
<stop offset="1" stop-color="#AB750F"/>
</linearGradient>
</defs>
</svg>
