<svg width="100" height="101" viewBox="0 0 100 101" fill="none" xmlns="http://www.w3.org/2000/svg">
<g id="play">
<g id="card-outer">
<g id="card-inner" clip-path="url(#clip0_3697_4735)">
<path id="1 back" fill-rule="evenodd" clip-rule="evenodd" d="M21.9996 27.3004L5.37742 22.9004L6.84409 27.7893L6.84409 69.3448H2.93298L2.44409 72.2782L19.5552 80.5893V78.1448L21.9996 79.1226L24.4441 78.1448V80.5893L41.5552 72.2782L41.0663 69.3448H37.1552V27.7893L38.6219 22.9004L21.9996 27.3004Z" fill="url(#paint0_linear_3697_4735)"/>
<path id="3 base" fill-rule="evenodd" clip-rule="evenodd" d="M2.44444 70.8109L22 79.122L41.5556 70.8109V32.6776C41.5556 29.4998 43.5111 28.2776 43.5111 28.2776L41.5556 28.7664L44 23.3887L22 28.7664L0 23.3887L2.44444 28.7664L0.488889 28.2776C0.488889 28.2776 2.44444 29.4998 2.44444 32.6776L2.44444 70.8109Z" fill="#BF8F38"/>
<path id="Rectangle 576" d="M2.4617 29.4995L3.20367 29.744L0.977783 24.3662L22 30.2329V62.0107L11.8599 57.3662V42.6995L2.4617 39.2773V29.4995Z" fill="#CA9B49"/>
<path id="Rectangle 578" d="M0 23.3887L20.5333 28.522L3.66667 26.0776L6.84444 33.6553L1.46667 29.0109H2.93333L0 23.3887Z" fill="#DBB060"/>
<g id="Group 474">
<path id="Polygon 101" d="M22 36.5891V30.1185L13.6 27.7891L16 33.742L22 36.5891Z" fill="#E6B96A"/>
</g>
<g id="11 top line">
<path id="top line left" d="M22.0012 28.7669L0.978996 24.6113L22.0012 30.7224V28.7669Z" fill="#6D4225"/>
</g>
<path id="16 Ouline (Stroke) (Stroke)" fill-rule="evenodd" clip-rule="evenodd" d="M2.44441 28.7666L0 23.3888L22 28.2777L44 23.3887L41.5555 28.7666L43.5111 28.2777C43.5111 28.2777 42.4224 28.7208 41.8675 29.8711C41.4722 30.6904 41.5555 32.1943 41.5555 32.6777V70.811L22 79.1221L2.44441 70.811L2.68883 32.6776L2.12147 29.8712L1.22216 28.7664L0.488858 28.2777L2.44441 28.7666ZM42.7359 29.0157C43.1487 28.5042 43.5111 28.2777 43.5111 28.2777L41.5555 28.7666L44 23.3887L22 28.2777L0 23.3888L2.44441 28.7666L0.488858 28.2777C0.488858 28.2777 0.851252 28.5042 1.26403 29.0157C1.26584 29.0179 1.26766 29.0202 1.26947 29.0224C1.32126 29.0869 1.37382 29.1558 1.42653 29.2293C1.50268 29.3354 1.57915 29.4512 1.6541 29.5769C1.69952 29.6531 1.74439 29.7329 1.78828 29.8164C1.86066 29.9543 1.93039 30.1022 1.99563 30.2606C2.25575 30.8923 2.68883 32.6776 2.68883 32.6776L2.44441 70.811L22 79.1221L41.5555 70.811V32.6777C41.5555 31.6907 41.7442 30.8923 42.0043 30.2606C42.0695 30.1022 42.1393 29.9543 42.2117 29.8164C42.2556 29.7329 42.3004 29.6531 42.3458 29.5769C42.4208 29.4512 42.4973 29.3354 42.5734 29.2293C42.6261 29.1558 42.6787 29.0868 42.7305 29.0224C42.7323 29.0202 42.7341 29.0179 42.7359 29.0157ZM41.1002 29.8883C41.0696 29.9626 41.0399 30.0386 41.0113 30.1165C40.9473 30.2903 40.8884 30.4732 40.8361 30.6653C40.7896 30.8359 40.7482 31.0137 40.7129 31.199C40.6274 31.6477 40.5777 32.14 40.5777 32.6777V70.1642L22 78.0597L3.42219 70.1642L3.42219 32.6777C3.42219 32.14 3.37252 31.6477 3.28706 31.199C3.25178 31.0137 3.21039 30.8359 3.16388 30.6653C3.11151 30.4732 3.05264 30.2903 2.98867 30.1165C2.96 30.0386 2.9303 29.9626 2.89971 29.8883L4.17302 30.2066L1.70114 24.7685L22 29.2793L42.2988 24.7685L39.8269 30.2066L41.1002 29.8883ZM41.1002 29.8883L39.8269 30.2066L42.2988 24.7685L22 29.2793L1.70114 24.7685L4.17302 30.2066L2.89971 29.8883C2.94634 30.2572 3.42219 32.2676 3.42219 32.6777L4.59985 69.3851L22 76.7801L39.4001 69.3851L40.5777 32.6777C40.5777 32.2676 41.0536 30.2572 41.1002 29.8883Z" fill="#6D4225"/>
<path id="16 Ouline (Stroke)" fill-rule="evenodd" clip-rule="evenodd" d="M1.65413 29.5767C1.11152 28.6667 0.488889 28.2776 0.488889 28.2776L2.44444 28.7664L0 23.3887L22 28.2776L44 23.3887L41.5556 28.7664L43.5111 28.2776C43.5111 28.2776 42.8885 28.6667 42.3459 29.5767C41.9269 30.2795 41.5556 31.2929 41.5556 32.6776V70.8109L22 79.122L2.44444 70.8109L2.44444 32.6776C2.44444 31.2929 2.07315 30.2795 1.65413 29.5767ZM2.89974 29.8881C3.20599 30.6317 3.42222 31.5557 3.42222 32.6776L3.42222 70.164L22 78.0596L40.5778 70.164V32.6776C40.5778 31.5557 40.794 30.6317 41.1003 29.8881L39.827 30.2065L42.2988 24.7683L22 29.2792L1.70117 24.7683L4.17305 30.2065L2.89974 29.8881Z" fill="#CB9A40"/>
</g>
</g>
<g id="card-outer_2">
<g id="card-inner_2" clip-path="url(#clip1_3697_4735)">
<path id="1 back_2" fill-rule="evenodd" clip-rule="evenodd" d="M77.9996 27.3004L61.3774 22.9004L62.8441 27.7893V69.3448H58.933L58.4441 72.2782L75.5552 80.5893V78.1448L77.9996 79.1226L80.4441 78.1448V80.5893L97.5552 72.2782L97.0663 69.3448H93.1552V27.7893L94.6219 22.9004L77.9996 27.3004Z" fill="url(#paint1_linear_3697_4735)"/>
<path id="3 base_2" fill-rule="evenodd" clip-rule="evenodd" d="M58.4444 70.8109L78 79.122L97.5556 70.8109V32.6776C97.5556 29.4998 99.5111 28.2776 99.5111 28.2776L97.5556 28.7664L100 23.3887L78 28.7664L56 23.3887L58.4444 28.7664L56.4889 28.2776C56.4889 28.2776 58.4444 29.4998 58.4444 32.6776V70.8109Z" fill="#BF8F38"/>
<path id="3 base_3" fill-rule="evenodd" clip-rule="evenodd" d="M78 79.122L97.5556 70.8109V32.6776C97.5556 29.4998 99.5111 28.2776 99.5111 28.2776L97.5556 28.7664L100 23.3887L78 28.7664L78 79.122Z" fill="#AB750F"/>
<path id="Rectangle 577" d="M97.5383 29.4995L96.7963 29.744L99.0222 24.3662L78 30.2329V62.0107L88.1401 57.3662V42.6995L97.5383 39.2773V29.4995Z" fill="#BE8821"/>
<path id="Rectangle 578_2" d="M100 23.3887L79.4667 28.522L96.3333 26.0776L93.1556 33.6553L98.5333 29.0109H97.0667L100 23.3887Z" fill="#DBB060"/>
<g id="11 top line_2">
<path id="top line right " d="M78.0012 28.7669L99.0234 24.6113L78.0012 30.7224V28.7669Z" fill="#6D4225"/>
</g>
<path id="16 Ouline (Stroke) (Stroke)_2" fill-rule="evenodd" clip-rule="evenodd" d="M58.4444 28.7666L56 23.3888L78 28.2777L100 23.3887L97.5555 28.7666L99.5111 28.2777C99.5111 28.2777 98.4224 28.7208 97.8675 29.8711C97.4722 30.6904 97.5555 32.1943 97.5555 32.6777V70.811L78 79.1221L58.4444 70.811L58.6888 32.6776L58.1215 29.8712L57.2222 28.7664L56.4889 28.2777L58.4444 28.7666ZM98.7359 29.0157C99.1487 28.5042 99.5111 28.2777 99.5111 28.2777L97.5555 28.7666L100 23.3887L78 28.2777L56 23.3888L58.4444 28.7666L56.4889 28.2777C56.4889 28.2777 56.8513 28.5042 57.264 29.0157C57.2658 29.0179 57.2677 29.0202 57.2695 29.0224C57.3213 29.0869 57.3738 29.1558 57.4265 29.2293C57.5027 29.3354 57.5792 29.4512 57.6541 29.5769C57.6995 29.6531 57.7444 29.7329 57.7883 29.8164C57.8607 29.9543 57.9304 30.1022 57.9956 30.2606C58.2558 30.8923 58.6888 32.6776 58.6888 32.6776L58.4444 70.811L78 79.1221L97.5555 70.811V32.6777C97.5555 31.6907 97.7442 30.8923 98.0043 30.2606C98.0695 30.1022 98.1393 29.9543 98.2117 29.8164C98.2556 29.7329 98.3004 29.6531 98.3458 29.5769C98.4208 29.4512 98.4973 29.3354 98.5734 29.2293C98.6261 29.1558 98.6787 29.0868 98.7305 29.0224C98.7323 29.0202 98.7341 29.0179 98.7359 29.0157ZM97.1002 29.8883C97.0696 29.9626 97.0399 30.0386 97.0113 30.1165C96.9473 30.2903 96.8884 30.4732 96.8361 30.6653C96.7896 30.8359 96.7482 31.0137 96.7129 31.199C96.6274 31.6477 96.5777 32.14 96.5777 32.6777V70.1642L78 78.0597L59.4222 70.1642V32.6777C59.4222 32.14 59.3725 31.6477 59.2871 31.199C59.2518 31.0137 59.2104 30.8359 59.1639 30.6653C59.1115 30.4732 59.0526 30.2903 58.9887 30.1165C58.96 30.0386 58.9303 29.9626 58.8997 29.8883L60.173 30.2066L57.7011 24.7685L78 29.2793L98.2988 24.7685L95.8269 30.2066L97.1002 29.8883ZM97.1002 29.8883L95.8269 30.2066L98.2988 24.7685L78 29.2793L57.7011 24.7685L60.173 30.2066L58.8997 29.8883C58.9463 30.2572 59.4222 32.2676 59.4222 32.6777L60.5999 69.3851L78 76.7801L95.4001 69.3851L96.5777 32.6777C96.5777 32.2676 97.0536 30.2572 97.1002 29.8883Z" fill="#6D4225"/>
<path id="16 Ouline (Stroke)_2" fill-rule="evenodd" clip-rule="evenodd" d="M57.6541 29.5767C57.1115 28.6667 56.4889 28.2776 56.4889 28.2776L58.4444 28.7664L56 23.3887L78 28.2776L100 23.3887L97.5556 28.7664L99.5111 28.2776C99.5111 28.2776 98.8885 28.6667 98.3459 29.5767C97.9268 30.2795 97.5556 31.2929 97.5556 32.6776V70.8109L78 79.122L58.4444 70.8109V32.6776C58.4444 31.2929 58.0731 30.2795 57.6541 29.5767ZM58.8997 29.8881C59.206 30.6317 59.4222 31.5557 59.4222 32.6776V70.164L78 78.0596L96.5778 70.164V32.6776C96.5778 31.5557 96.794 30.6317 97.1003 29.8881L95.827 30.2065L98.2988 24.7683L78 29.2792L57.7012 24.7683L60.173 30.2065L58.8997 29.8881Z" fill="#CB9A40"/>
</g>
</g>
<g id="play_2">
<path id="1 back_3" fill-rule="evenodd" clip-rule="evenodd" d="M50.499 10.0888L22.166 2.58887L24.6659 10.9221L24.6659 81.7546H17.9993L17.166 86.7546L46.3324 100.921V96.7545L50.499 98.4211L54.6656 96.7545V100.921L83.8319 86.7546L82.9986 81.7546H76.332V10.9221L78.832 2.58887L50.499 10.0888Z" fill="url(#paint2_linear_3697_4735)"/>
<g id="2 big diamond">
<path id="Union" fill-rule="evenodd" clip-rule="evenodd" d="M44.6641 12.5741L50.4973 20.074L56.3306 12.5741L50.4973 2.57422L44.6641 12.5741Z" fill="url(#paint3_linear_3697_4735)"/>
<path id="Union (Stroke)" fill-rule="evenodd" clip-rule="evenodd" d="M50.4974 21.4319L43.6604 12.6415L50.4974 0.920898L57.3344 12.6415L50.4974 21.4319ZM50.4974 20.0745L56.3307 12.5746L50.4974 2.57474L44.6641 12.5746L50.4974 20.0745Z" fill="#CB9A40"/>
</g>
<rect id="Rectangle 595" x="21.3333" y="23.4209" width="58.3327" height="58.3327" fill="#F5F1EE"/>
<g id="shadow">
<g id="Vector 537" opacity="0.3" filter="url(#filter0_f_3697_4735)">
<path d="M72.166 66.7539L56.3329 73.8372L57.1662 77.5871L72.166 71.7538V66.7539Z" fill="#212121"/>
</g>
<g id="Vector 538" opacity="0.3" filter="url(#filter1_f_3697_4735)">
<path d="M59.6662 75.9209L51.7496 47.5879L56.3329 75.9209H59.6662Z" fill="#212121"/>
</g>
<g id="Vector 539" opacity="0.3" filter="url(#filter2_f_3697_4735)">
<path d="M72.1661 59.2538L65.9161 49.2539L68.8328 60.0871L72.1661 59.2538Z" fill="#212121"/>
</g>
<g id="Vector 540" opacity="0.3" filter="url(#filter3_f_3697_4735)">
<path d="M39.6664 40.5042L47.9996 39.6709L41.333 43.4209L39.6664 40.5042Z" fill="#212121"/>
</g>
<g id="Vector 536" opacity="0.3" filter="url(#filter4_f_3697_4735)">
<path d="M30.9165 75.9209L40.9164 45.0879H39.2498L27.5833 75.9209H30.9165Z" fill="#212121"/>
</g>
<g id="Vector 535" opacity="0.3" filter="url(#filter5_f_3697_4735)">
<path d="M54.6663 63.4209L28.8333 74.2541V77.5874L54.6663 68.4208V63.4209Z" fill="#212121"/>
</g>
</g>
<path id="Subtract" fill-rule="evenodd" clip-rule="evenodd" d="M50.4997 98.4198L17.1667 84.2533V19.2541C17.1667 13.8374 13.8334 11.7541 13.8334 11.7541L17.1667 12.5875L13.0001 3.4209L50.4997 12.5875L87.9993 3.4209L83.8327 12.5875L87.1659 11.7541C87.1659 11.7541 83.8327 13.8374 83.8327 19.2541V84.2533L50.4997 98.4198ZM44.2499 33.4209H40.9166L43.4685 35.6535L41.5475 41.1422L48.6248 39.4628L39.913 45.8121L29.6667 75.087L29.6667 75.0873L29.8228 75.023L54.3253 64.977L52.2717 56.2494L47.7564 58.1039L51.7497 46.7543L53.833 55.6081L55.8868 64.3368L58.4163 75.0873L71.3328 69.2541L67.7996 59.4525L67.7997 59.4525L64.7916 51.1073L64.7915 51.1073L58.4163 33.4212H44.2499V33.4209ZM66.3347 50.4735L69.3432 58.8196L71.3328 48.4207L66.3347 50.4735Z" fill="#BF8F38"/>
<path id="Subtract_2" fill-rule="evenodd" clip-rule="evenodd" d="M83.8327 84.2533L50.4998 98.4198L50.4998 66.5455L54.3252 64.977L52.2717 56.2494L50.4998 56.9771L50.4998 50.3067L51.7497 46.7543L53.833 55.6081L55.8867 64.3368L58.4162 75.0873L71.3327 69.2541L67.7996 59.4525L67.7997 59.4525L64.7915 51.1073L64.7915 51.1073L58.4162 33.4212H50.4998L50.4998 12.5875L87.9993 3.4209L83.8327 12.5875L87.166 11.7541C87.166 11.7541 83.8327 13.8374 83.8327 19.2541V84.2533ZM66.3347 50.4735L69.3432 58.8196L71.3328 48.4207L66.3347 50.4735Z" fill="#AB750F"/>
<path id="Rectangle 578_3" d="M13 3.42188L47.9996 12.1718L19.2499 8.00516L24.6665 20.9217L15.5 13.0051H17.9999L13 3.42188Z" fill="#DBB060"/>
<path id="Rectangle 578_4" d="M87.9993 3.42188L52.9997 12.1718L81.7493 8.00516L76.3327 20.9217L85.4993 13.0051H82.9993L87.9993 3.42188Z" fill="#DBB060"/>
<path id="Polygon 101_2" d="M50.4997 25.9217V14.8924L36.1816 10.9219L40.2725 21.0688L50.4997 25.9217Z" fill="#E6B96A"/>
<path id="Polygon 102" d="M50.4996 25.9217V14.8924L64.8176 10.9219L60.7268 21.0688L50.4996 25.9217Z" fill="#C69848"/>
<g id="11 top line_3">
<path id="top line left_2" d="M50.5018 12.5891L14.6689 5.50586L50.5018 15.9224V12.5891Z" fill="#6D4225"/>
<path id="top line right _2" d="M50.5018 12.5891L86.3348 5.50586L50.5018 15.9224V12.5891Z" fill="#6D4225"/>
</g>
<path id="16 Ouline (Stroke) (Stroke)_3" fill-rule="evenodd" clip-rule="evenodd" d="M17.1667 12.5887L13.0001 3.42209L50.4996 11.7553L87.9992 3.42188L83.8326 12.5887L87.1659 11.7553C87.1659 11.7553 85.3102 12.5107 84.3644 14.4713C83.6907 15.8679 83.8326 18.4312 83.8326 19.2552V84.2545L50.4997 98.421L17.1667 84.2545L17.5833 19.255L16.6162 14.4716L15.0833 12.5884L13.8334 11.7553L17.1667 12.5887ZM85.8446 13.0133C86.5482 12.1414 87.1659 11.7553 87.1659 11.7553L83.8326 12.5887L87.9992 3.42188L50.4996 11.7553L13.0001 3.42209L17.1667 12.5887L13.8334 11.7553C13.8334 11.7553 14.4511 12.1414 15.1547 13.0133C15.1578 13.0171 15.1609 13.0209 15.164 13.0248C15.2522 13.1346 15.3418 13.252 15.4317 13.3773C15.5615 13.5583 15.6918 13.7556 15.8196 13.9698C15.897 14.0997 15.9735 14.2358 16.0483 14.3782C16.1717 14.6131 16.2905 14.8652 16.4017 15.1353C16.8451 16.212 17.5833 19.255 17.5833 19.255L17.1667 84.2545L50.4997 98.421L83.8326 84.2545V19.2552C83.8326 17.5728 84.1542 16.212 84.5976 15.1353C84.7088 14.8652 84.8276 14.6131 84.951 14.3782C85.0258 14.2358 85.1023 14.0997 85.1797 13.9698C85.3075 13.7556 85.4378 13.5583 85.5676 13.3773C85.6575 13.252 85.7471 13.1346 85.8353 13.0248C85.8384 13.0209 85.8415 13.0171 85.8446 13.0133ZM83.0566 14.5006C83.0044 14.6272 82.9538 14.7569 82.9049 14.8897C82.7959 15.186 82.6955 15.4976 82.6063 15.8251C82.527 16.1158 82.4564 16.419 82.3963 16.7348C82.2506 17.4997 82.166 18.3387 82.166 19.2552V83.1519L50.4996 96.6101L18.8333 83.1519L18.8333 19.2552C18.8333 18.3387 18.7487 17.4997 18.603 16.7348C18.5429 16.419 18.4723 16.1158 18.393 15.8251C18.3038 15.4976 18.2034 15.186 18.0944 14.8897C18.0455 14.7569 17.9949 14.6272 17.9427 14.5006L20.1131 15.0432L15.8998 5.77377L50.4996 13.4626L85.0995 5.77377L80.8862 15.0432L83.0566 14.5006ZM83.0566 14.5006L80.8862 15.0432L85.0995 5.77377L50.4996 13.4626L15.8998 5.77377L20.1131 15.0432L17.9427 14.5006C18.0222 15.1295 18.8333 18.5562 18.8333 19.2552L20.8407 81.8239L50.4996 94.429L80.1586 81.8239L82.166 19.2552C82.166 18.5562 82.9771 15.1295 83.0566 14.5006Z" fill="#6D4225"/>
<path id="16 Ouline (Stroke)_3" fill-rule="evenodd" clip-rule="evenodd" d="M15.8196 13.9696C14.8947 12.4184 13.8334 11.7551 13.8334 11.7551L17.1667 12.5884L13.0001 3.42188L50.4997 11.7551L87.9993 3.42188L83.8327 12.5884L87.166 11.7551C87.166 11.7551 86.1047 12.4184 85.1798 13.9696C84.4655 15.1675 83.8327 16.8948 83.8327 19.255V84.2543L50.4997 98.4208L17.1667 84.2543L17.1667 19.255C17.1667 16.8948 16.5339 15.1675 15.8196 13.9696ZM17.9428 14.5004C18.4648 15.7679 18.8334 17.3428 18.8334 19.255L18.8334 83.1517L50.4997 96.6099L82.166 83.1517V19.255C82.166 17.3428 82.5346 15.7679 83.0566 14.5004L80.8862 15.043L85.0996 5.77355L50.4997 13.4624L15.8998 5.77355L20.1132 15.043L17.9428 14.5004Z" fill="#CB9A40"/>
<g id="19 small diamond-top">
<path id="Union_2" fill-rule="evenodd" clip-rule="evenodd" d="M50.4977 5.08887L47.1644 11.3388L50.4977 15.9221V5.08887Z" fill="#CA9B49"/>
<path id="Union_3" fill-rule="evenodd" clip-rule="evenodd" d="M50.498 5.08887L53.8313 11.3388L50.498 15.9221V5.08887Z" fill="#AB750F"/>
<path id="Vector 122" d="M47.1644 11.3388L50.4977 5.08887L53.831 11.3388L50.4977 6.75551L47.1644 11.3388Z" fill="#6D4225"/>
</g>
</g>
</g>
<defs>
<filter id="filter0_f_3697_4735" x="52.9996" y="63.4206" width="22.4997" height="17.4996" filterUnits="userSpaceOnUse" color-interpolation-filters="sRGB">
<feFlood flood-opacity="0" result="BackgroundImageFix"/>
<feBlend mode="normal" in="SourceGraphic" in2="BackgroundImageFix" result="shape"/>
<feGaussianBlur stdDeviation="1.66665" result="effect1_foregroundBlur_3697_4735"/>
</filter>
<filter id="filter1_f_3697_4735" x="48.4163" y="44.2546" width="14.5832" height="34.9996" filterUnits="userSpaceOnUse" color-interpolation-filters="sRGB">
<feFlood flood-opacity="0" result="BackgroundImageFix"/>
<feBlend mode="normal" in="SourceGraphic" in2="BackgroundImageFix" result="shape"/>
<feGaussianBlur stdDeviation="1.66665" result="effect1_foregroundBlur_3697_4735"/>
</filter>
<filter id="filter2_f_3697_4735" x="62.5828" y="45.9206" width="12.9165" height="17.4996" filterUnits="userSpaceOnUse" color-interpolation-filters="sRGB">
<feFlood flood-opacity="0" result="BackgroundImageFix"/>
<feBlend mode="normal" in="SourceGraphic" in2="BackgroundImageFix" result="shape"/>
<feGaussianBlur stdDeviation="1.66665" result="effect1_foregroundBlur_3697_4735"/>
</filter>
<filter id="filter3_f_3697_4735" x="36.3331" y="36.3376" width="14.9998" height="10.4166" filterUnits="userSpaceOnUse" color-interpolation-filters="sRGB">
<feFlood flood-opacity="0" result="BackgroundImageFix"/>
<feBlend mode="normal" in="SourceGraphic" in2="BackgroundImageFix" result="shape"/>
<feGaussianBlur stdDeviation="1.66665" result="effect1_foregroundBlur_3697_4735"/>
</filter>
<filter id="filter4_f_3697_4735" x="24.25" y="41.7546" width="19.9997" height="37.4996" filterUnits="userSpaceOnUse" color-interpolation-filters="sRGB">
<feFlood flood-opacity="0" result="BackgroundImageFix"/>
<feBlend mode="normal" in="SourceGraphic" in2="BackgroundImageFix" result="shape"/>
<feGaussianBlur stdDeviation="1.66665" result="effect1_foregroundBlur_3697_4735"/>
</filter>
<filter id="filter5_f_3697_4735" x="25.5" y="60.0876" width="32.4996" height="20.8336" filterUnits="userSpaceOnUse" color-interpolation-filters="sRGB">
<feFlood flood-opacity="0" result="BackgroundImageFix"/>
<feBlend mode="normal" in="SourceGraphic" in2="BackgroundImageFix" result="shape"/>
<feGaussianBlur stdDeviation="1.66665" result="effect1_foregroundBlur_3697_4735"/>
</filter>
<linearGradient id="paint0_linear_3697_4735" x1="21.9996" y1="43.0915" x2="21.9997" y2="73.3782" gradientUnits="userSpaceOnUse">
<stop stop-color="#D8A956"/>
<stop offset="1" stop-color="#AB750F"/>
</linearGradient>
<linearGradient id="paint1_linear_3697_4735" x1="77.9996" y1="43.0915" x2="77.9997" y2="73.3782" gradientUnits="userSpaceOnUse">
<stop stop-color="#D8A956"/>
<stop offset="1" stop-color="#AB750F"/>
</linearGradient>
<linearGradient id="paint2_linear_3697_4735" x1="50.499" y1="37.0051" x2="50.4991" y2="88.6296" gradientUnits="userSpaceOnUse">
<stop stop-color="#D8A956"/>
<stop offset="1" stop-color="#AB750F"/>
</linearGradient>
<linearGradient id="paint3_linear_3697_4735" x1="50.4973" y1="8.69915" x2="50.4974" y2="17.8865" gradientUnits="userSpaceOnUse">
<stop stop-color="#D8A956"/>
<stop offset="1" stop-color="#AB750F"/>
</linearGradient>
<clipPath id="clip0_3697_4735">
<rect width="14" height="59" fill="white" transform="translate(0 21.9219)"/>
</clipPath>
<clipPath id="clip1_3697_4735">
<rect width="13" height="59" fill="white" transform="translate(87 21.9219)"/>
</clipPath>
</defs>
</svg>
