<svg width="100" height="100" viewBox="0 0 100 100" fill="none" xmlns="http://www.w3.org/2000/svg">
<g id="play">
<g id="Group 202">
<path id="Vector 255" d="M36 21L45 12.5L44 1L31 16L32 21H36Z" fill="url(#paint0_linear_2158_30559)"/>
<path id="Vector 260" d="M30 95H37L36 91L41.5 84.5L41 81L30 91V95Z" fill="url(#paint1_linear_2158_30559)"/>
<path id="Vector 263" d="M23 51L32 62L33 66.5L11 47L7 38L11 27L23 51Z" fill="url(#paint2_linear_2158_30559)"/>
<path id="Vector 264" d="M10 48L32 67L24 66L3 54L0 41.5L8.5 45L10 48Z" fill="url(#paint3_linear_2158_30559)"/>
<path id="Vector 265" d="M36 73L32 69L15 67L22 75L36 73Z" fill="url(#paint4_linear_2158_30559)"/>
<path id="Union" fill-rule="evenodd" clip-rule="evenodd" d="M50 11L37 23H30L25 0L18 15L26 43L32 34H40V25L50 15L60 25V34H68L74 43L82 15L75 0L70 23H63L50 11Z" fill="url(#paint5_linear_2158_30559)"/>
<path id="Vector 267" d="M64 21L55 12.5L56 1L69 16L68 21H64Z" fill="url(#paint6_linear_2158_30559)"/>
<path id="Union_2" fill-rule="evenodd" clip-rule="evenodd" d="M40 35L50 41L60 35H66L50 45L34 35H40Z" fill="url(#paint7_linear_2158_30559)"/>
<path id="Union_3" fill-rule="evenodd" clip-rule="evenodd" d="M50 19L42.5 26.5V34L50 37.8035L57.5 34V26.5L50 19Z" fill="#BC851E"/>
<path id="Union_4" fill-rule="evenodd" clip-rule="evenodd" d="M26 97H50H74V100H50H26V97Z" fill="url(#paint8_linear_2158_30559)"/>
<path id="Union_5" fill-rule="evenodd" clip-rule="evenodd" d="M50 95H39L38 92L43 86L50 91L57 86L62 92L61 95H50Z" fill="url(#paint9_linear_2158_30559)"/>
<path id="Vector 272" d="M70 95H63L64 91L58.5 84.5L59 81L70 91V95Z" fill="url(#paint10_linear_2158_30559)"/>
<path id="Union_6" fill-rule="evenodd" clip-rule="evenodd" d="M50 88.5L44 84C44 84 42.0266 73.8342 39 67C35.9734 60.1658 28.5 49 28.5 49V43L32.5 37.5L50 48L67.5 37.5L71.5 43V49C71.5 49 64.0266 60.1658 61 67C57.9734 73.8342 56 84 56 84L50 88.5Z" fill="url(#paint11_linear_2158_30559)"/>
<path id="Vector 274" d="M77 51L68 62L67 66.5L89 47L93 38L89 27L77 51Z" fill="url(#paint12_linear_2158_30559)"/>
<path id="Vector 275" d="M90 48L68 67L76 66L97 54L100 41.5L91.5 45L90 48Z" fill="url(#paint13_linear_2158_30559)"/>
<path id="Vector 276" d="M64 73L68 69L85 67L78 75L64 73Z" fill="url(#paint14_linear_2158_30559)"/>
</g>
</g>
<defs>
<linearGradient id="paint0_linear_2158_30559" x1="38" y1="1" x2="38" y2="21" gradientUnits="userSpaceOnUse">
<stop stop-color="#AB750F"/>
<stop offset="0.5" stop-color="#D8A956"/>
<stop offset="1" stop-color="#AB750F"/>
</linearGradient>
<linearGradient id="paint1_linear_2158_30559" x1="35.75" y1="81" x2="35.75" y2="95" gradientUnits="userSpaceOnUse">
<stop stop-color="#AB750F"/>
<stop offset="0.5" stop-color="#D8A956"/>
<stop offset="1" stop-color="#AB750F"/>
</linearGradient>
<linearGradient id="paint2_linear_2158_30559" x1="27.9925" y1="16.8214" x2="5.49206" y2="68.0125" gradientUnits="userSpaceOnUse">
<stop stop-color="#D8A956"/>
<stop offset="1" stop-color="#AB750F"/>
</linearGradient>
<linearGradient id="paint3_linear_2158_30559" x1="26.831" y1="46.0611" x2="22.3547" y2="71.0026" gradientUnits="userSpaceOnUse">
<stop stop-color="#D8A956"/>
<stop offset="1" stop-color="#AB750F"/>
</linearGradient>
<linearGradient id="paint4_linear_2158_30559" x1="32.6078" y1="68.4309" x2="31.9199" y2="76.4487" gradientUnits="userSpaceOnUse">
<stop stop-color="#D8A956"/>
<stop offset="1" stop-color="#AB750F"/>
</linearGradient>
<linearGradient id="paint5_linear_2158_30559" x1="71.662" y1="7.69122" x2="65.2399" y2="50.1324" gradientUnits="userSpaceOnUse">
<stop stop-color="#D8A956"/>
<stop offset="1" stop-color="#AB750F"/>
</linearGradient>
<linearGradient id="paint6_linear_2158_30559" x1="62" y1="1" x2="62" y2="21" gradientUnits="userSpaceOnUse">
<stop stop-color="#AB750F"/>
<stop offset="0.5" stop-color="#D8A956"/>
<stop offset="1" stop-color="#AB750F"/>
</linearGradient>
<linearGradient id="paint7_linear_2158_30559" x1="50" y1="35" x2="50" y2="45" gradientUnits="userSpaceOnUse">
<stop stop-color="#AB750F"/>
<stop offset="0.5" stop-color="#D8A956"/>
<stop offset="1" stop-color="#AB750F"/>
</linearGradient>
<linearGradient id="paint8_linear_2158_30559" x1="50" y1="97" x2="50" y2="100" gradientUnits="userSpaceOnUse">
<stop stop-color="#AB750F"/>
<stop offset="0.516" stop-color="#D8A956"/>
<stop offset="1" stop-color="#AB750F"/>
</linearGradient>
<linearGradient id="paint9_linear_2158_30559" x1="50" y1="86" x2="50" y2="95" gradientUnits="userSpaceOnUse">
<stop stop-color="#AB750F"/>
<stop offset="0.5" stop-color="#D8A956"/>
<stop offset="1" stop-color="#AB750F"/>
</linearGradient>
<linearGradient id="paint10_linear_2158_30559" x1="64.25" y1="81" x2="64.25" y2="95" gradientUnits="userSpaceOnUse">
<stop stop-color="#AB750F"/>
<stop offset="0.5" stop-color="#D8A956"/>
<stop offset="1" stop-color="#AB750F"/>
</linearGradient>
<linearGradient id="paint11_linear_2158_30559" x1="50" y1="37.5" x2="50" y2="88.5" gradientUnits="userSpaceOnUse">
<stop stop-color="#AB750F"/>
<stop offset="0.516" stop-color="#D8A956"/>
<stop offset="1" stop-color="#AB750F"/>
</linearGradient>
<linearGradient id="paint12_linear_2158_30559" x1="72.0075" y1="16.8214" x2="94.5079" y2="68.0125" gradientUnits="userSpaceOnUse">
<stop stop-color="#D8A956"/>
<stop offset="1" stop-color="#AB750F"/>
</linearGradient>
<linearGradient id="paint13_linear_2158_30559" x1="73.169" y1="46.0611" x2="77.6453" y2="71.0026" gradientUnits="userSpaceOnUse">
<stop stop-color="#D8A956"/>
<stop offset="1" stop-color="#AB750F"/>
</linearGradient>
<linearGradient id="paint14_linear_2158_30559" x1="67.3922" y1="68.4309" x2="68.0801" y2="76.4487" gradientUnits="userSpaceOnUse">
<stop stop-color="#D8A956"/>
<stop offset="1" stop-color="#AB750F"/>
</linearGradient>
</defs>
</svg>
