<svg width="100" height="100" viewBox="0 0 100 100" fill="none" xmlns="http://www.w3.org/2000/svg">
<g id="profile" clip-path="url(#clip0_3476_32312)">
<g id="Group 424">
<mask id="mask0_3476_32312" style="mask-type:alpha" maskUnits="userSpaceOnUse" x="0" y="0" width="100" height="100">
<circle id="Ellipse 44" cx="50" cy="50" r="50" fill="#D9D9D9"/>
</mask>
<g mask="url(#mask0_3476_32312)">
<g id="Union">
<path d="M36.0182 37.5419C35.4955 28.908 34.78 17.0906 50.0006 17C65.2212 17.0906 64.5057 28.908 63.983 37.5419C63.8949 38.9965 63.8123 40.3608 63.8123 41.5634C63.8123 49.9041 50.0006 53.735 50.0006 53.735C50.0006 53.735 36.1888 49.9041 36.1888 41.5634C36.1888 40.3608 36.1062 38.9965 36.0182 37.5419Z" fill="url(#paint0_linear_3476_32312)"/>
<path d="M28.963 65.5771C30.4759 64.6864 32.1471 63.9722 33.779 63.2748C38.6212 61.2054 43.117 59.2841 42.1007 53.34C42.1007 53.34 42.862 54.9288 45.6199 56.3997C47.466 57.3843 49.9822 58.0749 50.0006 58.08C50.0178 58.0753 52.5347 57.3845 54.3813 56.3997C57.1392 54.9288 57.9005 53.34 57.9005 53.34C56.8842 59.2841 61.38 61.2054 66.2222 63.2748C67.8541 63.9722 69.5254 64.6864 71.0382 65.5771C77.0401 69.1107 76.8605 73.88 76.8605 73.88V85.73C70.4468 92.1123 50.1068 95.9798 50.0009 95.9999C49.9295 95.9864 29.5599 92.1178 23.1407 85.73V73.88C23.1407 73.88 22.9612 69.1107 28.963 65.5771Z" fill="url(#paint1_linear_3476_32312)"/>
</g>
<g id="Group 409">
<g id="Glow" opacity="0.5" filter="url(#filter0_f_3476_32312)">
<path d="M15.1891 71C-2.32922 49.0572 28.781 15 28.781 15C28.781 15 10.59 26.9115 13.4272 20.5374C14.6303 17.8345 18.2095 15 18.2095 15L1.59729 24.4286V99H85.917C93.468 87.3945 74.771 85.8919 67.0395 88.1429C67.0395 88.1429 86.4204 91.0136 72.8286 93.3945C59.2368 95.7755 32.7075 92.9429 15.1891 71Z" fill="#5C5C5C"/>
</g>
<path id="Vector 390" d="M15.1891 71C-2.32924 49.0571 28.781 15 28.781 15C28.781 15 10.59 26.9115 13.4272 20.5374C14.6303 17.8345 18.2095 15 18.2095 15C7.8847 19.7405 5.32361 26.9006 1.49998 37C-7.07555 59.6506 -1.7643e-05 99 -1.7643e-05 99H85.917C93.468 87.3945 74.771 85.8919 67.0395 88.1429C67.0395 88.1429 86.4204 91.0136 72.8286 93.3945C59.2367 95.7755 32.7075 92.9429 15.1891 71Z" fill="#CB9A40"/>
<path id="Intersect" d="M28.7803 15.0006C28.6084 15.1891 -2.28049 49.118 15.1892 70.9998C23.5985 81.533 34.0842 87.6627 44.2185 90.926C-12.0387 76.7838 7.64571 34.5094 28.7807 15L28.7803 15.0006Z" fill="#AB750F"/>
<path id="Intersect_2" d="M18.2094 15.0001C15.5246 16.7144 10.5579 20.7143 12.1688 23C13.7796 25.2857 23.9147 18.6191 28.781 15C28.781 15 10.59 26.9115 13.4272 20.5374C14.6265 17.843 18.1871 15.0178 18.2094 15.0001Z" fill="#AB750F"/>
<path id="Vector 392" d="M15.189 82.714C7.94838 75.69 6.37952 62.1426 6.37952 62.1426C6.37952 62.1426 9.73479 72.7072 16.1958 78.9997C26.9684 89.4913 53.7676 94.9481 53.7676 94.9481C53.7676 94.9481 25.7915 92.9992 15.189 82.714Z" fill="#D8A956"/>
</g>
<g id="Group 410">
<g id="Vector 393" opacity="0.3" filter="url(#filter1_f_3476_32312)">
<path d="M84.4893 31.6667C102.008 56.483 70.8975 95 70.8975 95C70.8975 95 89.0884 81.5286 86.2512 88.7375C85.0482 91.7943 81.4689 95 81.4689 95L99.6785 84.3367V0C99.6785 0 58.0542 -8.95828 35.5 2C44 2 48.5 2 24.5 8.5C46 5 66.971 6.85033 84.4893 31.6667Z" fill="#212121"/>
</g>
<path id="Vector 390_2" d="M84.4893 31.6667C102.008 56.483 70.8975 95 70.8975 95C70.8975 95 89.0884 81.5286 86.2512 88.7375C85.0482 91.7943 81.4689 95 81.4689 95L103.5 84.3367V0C103.5 0 58.5542 -8.95828 36 2C44.5 2 48.5 2 24.5 8.5C46 5 66.971 6.85033 84.4893 31.6667Z" fill="#CB9A40"/>
<path id="Intersect_3" d="M70.8982 94.9993C71.07 94.7862 101.959 56.4142 84.4893 31.6669C76.08 19.7543 65.5943 12.8219 55.46 9.13132C111.717 25.1255 92.0328 72.9359 70.8978 95L70.8982 94.9993Z" fill="#AB750F"/>
<path id="Intersect_4" d="M81.469 94.9999C84.1539 93.0611 89.1206 88.5374 87.5097 85.9524C85.8988 83.3674 75.7637 90.907 70.8975 95C70.8975 95 89.0884 81.5286 86.2512 88.7375C85.0519 91.7848 81.4914 94.9799 81.469 94.9999Z" fill="#AB750F"/>
<path id="Vector 392_2" d="M84.4894 18.4188C91.7301 26.3626 93.299 41.6841 93.299 41.6841C93.299 41.6841 89.9437 29.736 83.4826 22.6195C72.71 10.754 45.9108 4.58254 45.9108 4.58254C45.9108 4.58254 73.887 6.7867 84.4894 18.4188Z" fill="#D8A956"/>
</g>
<g id="Group 281">
<g id="Vector 391" opacity="0.3" filter="url(#filter2_f_3476_32312)">
<path d="M65.3333 79.1709C55.3778 88.0313 45.1111 93.2766 35 97.4719H105C104.481 84.3825 105 47.1282 105 47.1282C105 47.1282 92.037 37.3951 84.7778 38.0664C96.6 48.9406 92.2963 76.1597 82.4444 85.3894C72.5926 94.619 80.8889 72.1228 80.8889 72.1228C73.8889 79.8421 57.2444 92.0588 65.3333 79.1709Z" fill="#212121"/>
</g>
<path id="Vector 489" d="M97 41.5L91 34.0005C102.5 67.5005 70.7777 103.95 80.8888 72.2669L76.2222 80.3218L77.7777 90.894L97.2222 77.3012L97 41.5Z" fill="#AB750F"/>
<path id="Vector 392_3" d="M65.3333 79.1949C55.3778 88.0554 39.6111 95.8047 29.5 100H99.5C98.9815 86.9107 101.5 52.5 101.5 52.5C101.5 52.5 101.522 45 91 34C101 46.5 92.2963 76.1838 82.4445 85.4134C72.5926 94.6431 80.8889 72.2908 80.8889 72.2908C73.8889 80.0101 57.2445 92.0829 65.3333 79.1949Z" fill="#CB9A40"/>
<path id="Vector 391_2" d="M64.2555 87.0449C56.623 93.8379 48.7518 97.8592 41 101.076H94.6666C94.2691 91.0405 101.556 62.5 101.556 62.5C101.556 62.5 101.611 45.5309 95 41C99.5 56 94.4593 85.9789 80.6667 90.7464C66.8741 95.514 76.1815 81.6413 76.1815 81.6413C70.8148 87.5595 58.0541 96.9257 64.2555 87.0449Z" fill="#D8A956"/>
</g>
</g>
</g>
<path id="Vector 402" d="M3.5 61.5C2.49018 47.0062 16.8513 25 16.8513 25C16.8513 25 5.32118 36.0048 2.37161 45.856C-0.489091 55.4104 -1.07827 62.4339 2.37157 71.728C6.39652 82.5716 22.5 98 22.5 98C22.5 98 4.54659 76.5216 3.5 61.5Z" fill="#D8A956"/>
<g id="Group 427">
<path id="Vector 391 (Stroke)" fill-rule="evenodd" clip-rule="evenodd" d="M73.188 100C72.5355 100.525 73.844 99.476 73.188 100C76.2453 97.3649 83.4594 89.1712 86.7311 80.9051C89.9865 72.6799 91.5548 61.4826 84.188 49C92.4048 56.3784 98.1958 65.1088 93.688 76.8485C89.9481 86.5882 81.6722 93 73.188 100C73.188 100 73.9572 99.4563 75.1673 98.4142C77.5674 96.4829 79.9361 94.5379 82.1697 92.5624C95.2879 80.9599 103.748 68.3075 86.5606 51.2373C85.8182 50.4999 85.0279 49.7542 84.188 49C84.7514 49.9547 85.2688 50.8996 85.7424 51.8344C94.714 69.5399 88.001 83.6149 81.4418 91.8711C79.0858 94.8367 76.7497 97.0515 75.1673 98.4142C74.5092 98.9437 73.8487 99.4722 73.188 100Z" fill="#AB750F"/>
<path id="Vector 391_3" d="M75.1673 98.4141C73.9572 99.4562 73.188 100 73.188 100C73.8487 99.4722 74.5092 98.9436 75.1673 98.4141C81.3875 93.0573 99.2564 74.5326 84.188 49C107.78 70.1849 92.2725 84.6504 75.1673 98.4141Z" fill="#D8A956"/>
<path id="Vector 403" d="M90.9508 74.8243C90.8006 75.2749 90.688 75.5 90.688 75.5C90.7776 75.2696 90.8652 75.0445 90.9508 74.8243C91.647 72.7361 93.1521 65.8056 88.0091 54C94.517 65.2056 94.2089 66.4419 90.9508 74.8243Z" fill="white" fill-opacity="0.3"/>
</g>
<path id="Vector 393_2" d="M23.2272 4.75C19.577 4.22613 16.5805 4.84358 12.9858 6.91998C8.56046 9.47613 5.18673 17.4283 5.18673 17.4283C5.18673 17.4283 12.616 6.12917 23.2272 4.75Z" fill="#D8A956"/>
</g>
<defs>
<filter id="filter0_f_3476_32312" x="-5.75237" y="7.65034" width="100.781" height="98.6993" filterUnits="userSpaceOnUse" color-interpolation-filters="sRGB">
<feFlood flood-opacity="0" result="BackgroundImageFix"/>
<feBlend mode="normal" in="SourceGraphic" in2="BackgroundImageFix" result="shape"/>
<feGaussianBlur stdDeviation="3.67483" result="effect1_foregroundBlur_3476_32312"/>
</filter>
<filter id="filter1_f_3476_32312" x="20" y="-7.94922" width="84.1785" height="107.449" filterUnits="userSpaceOnUse" color-interpolation-filters="sRGB">
<feFlood flood-opacity="0" result="BackgroundImageFix"/>
<feBlend mode="normal" in="SourceGraphic" in2="BackgroundImageFix" result="shape"/>
<feGaussianBlur stdDeviation="2.25" result="effect1_foregroundBlur_3476_32312"/>
</filter>
<filter id="filter2_f_3476_32312" x="21.4344" y="24.4676" width="97.1312" height="86.5697" filterUnits="userSpaceOnUse" color-interpolation-filters="sRGB">
<feFlood flood-opacity="0" result="BackgroundImageFix"/>
<feBlend mode="normal" in="SourceGraphic" in2="BackgroundImageFix" result="shape"/>
<feGaussianBlur stdDeviation="6.7828" result="effect1_foregroundBlur_3476_32312"/>
</filter>
<linearGradient id="paint0_linear_3476_32312" x1="50.0006" y1="17" x2="50.0006" y2="96" gradientUnits="userSpaceOnUse">
<stop stop-color="#AB750F"/>
<stop offset="0.516" stop-color="#D8A956"/>
<stop offset="1" stop-color="#AB750F"/>
</linearGradient>
<linearGradient id="paint1_linear_3476_32312" x1="50.0006" y1="17" x2="50.0006" y2="96" gradientUnits="userSpaceOnUse">
<stop stop-color="#AB750F"/>
<stop offset="0.516" stop-color="#D8A956"/>
<stop offset="1" stop-color="#AB750F"/>
</linearGradient>
<clipPath id="clip0_3476_32312">
<rect width="100" height="100" fill="white"/>
</clipPath>
</defs>
</svg>
