<svg xmlns="http://www.w3.org/2000/svg" width="100" height="100" fill="#605f5e" xmlns:v="https://vecta.io/nano"><path fill-rule="evenodd" d="M34.001 0C14.734.115 15.64 15.073 16.301 26.003c.111 1.841.216 3.568.216 5.09 0 10.558 17.483 15.407 17.483 15.407s17.483-4.849 17.483-15.407c0-1.522.105-3.249.216-5.09C52.361 15.073 53.267.115 34.001 0z"/><path d="M75.776 85L70 79.039 88.449 60 70 40.961 75.776 35 100 60 75.776 85zM62.587 46.665l12.587 13.111-12.587 13.111L50 59.776z"/><path fill-rule="evenodd" d="M48.455 55.614c-3.215-2.032-5.283-4.766-4.454-9.614 0 0-.964 2.011-4.455 3.873-2.337 1.247-5.523 2.121-5.545 2.127-.023-.006-3.208-.881-5.545-2.127C24.964 48.011 24.001 46 24.001 46c1.287 7.524-4.404 9.956-10.534 12.576-2.066.883-4.181 1.787-6.096 2.914C-.227 65.963.001 72 .001 72v15c8.126 8.086 33.909 12.983 34 13h0 0 0c.09-.017 25.874-4.914 34-13V73.02l-5.413 5.638L44.46 59.776l3.995-4.162z"/></svg>