<svg xmlns="http://www.w3.org/2000/svg" width="100" height="100" fill="none" xmlns:v="https://vecta.io/nano"><g clip-path="url(#C)"><path d="M13.545 100V83.2h6.912c1.488 0 2.76.24 3.816.72 1.072.48 1.896 1.168 2.472 2.064s.864 1.96.864 3.192-.288 2.296-.864 3.192c-.576.88-1.4 1.56-2.472 2.04-1.056.464-2.328.696-3.816.696h-5.184l1.392-1.416V100h-3.12zm10.992 0l-4.248-6.096h3.336L27.897 100h-3.36zm-7.872-5.976l-1.392-1.488h5.04c1.376 0 2.408-.296 3.096-.888.704-.592 1.056-1.416 1.056-2.472 0-1.072-.352-1.896-1.056-2.472-.688-.576-1.72-.864-3.096-.864h-5.04l1.392-1.536v9.72zm22.307 6.216c-1.312 0-2.52-.216-3.624-.648s-2.064-1.032-2.88-1.8c-.816-.784-1.448-1.696-1.896-2.736C30.124 94 29.9 92.848 29.9 91.6s.224-2.392.672-3.432c.448-1.056 1.08-1.968 1.896-2.736.816-.784 1.776-1.392 2.88-1.824s2.304-.648 3.6-.648c1.312 0 2.512.216 3.6.648 1.104.432 2.064 1.04 2.88 1.824.816.768 1.448 1.68 1.896 2.736.448 1.04.672 2.184.672 3.432s-.224 2.4-.672 3.456-1.08 1.968-1.896 2.736-1.776 1.368-2.88 1.8c-1.088.432-2.28.648-3.576.648zm-.024-2.736c.848 0 1.632-.144 2.352-.432s1.344-.696 1.872-1.224c.528-.544.936-1.168 1.224-1.872.304-.72.456-1.512.456-2.376s-.152-1.648-.456-2.352c-.288-.72-.696-1.344-1.224-1.872a5.34 5.34 0 0 0-1.872-1.248c-.72-.288-1.504-.432-2.352-.432s-1.632.144-2.352.432a5.65 5.65 0 0 0-1.872 1.248c-.528.528-.944 1.152-1.248 1.872-.288.704-.432 1.488-.432 2.352 0 .848.144 1.632.432 2.352.304.72.72 1.352 1.248 1.896.528.528 1.152.936 1.872 1.224s1.504.432 2.352.432zM48.693 100l7.56-16.8h3.072l7.584 16.8h-3.264l-6.504-15.144h1.248L51.909 100h-3.216zm3.48-3.888l.84-2.448h9.072l.84 2.448H52.173zM69.045 100V83.2h2.568l7.344 12.264h-1.344L84.837 83.2h2.568l.024 16.8h-2.952l-.024-12.168h.624L78.933 98.08h-1.392l-6.24-10.248h.72V100h-2.976z" fill="url(#A)"/><g clip-path="url(#D)"><path fill-rule="evenodd" d="M15 59.643V7l7.716-7H37.4L26.9 9.8v20.3h18.2L15 59.643zM31.8 13.3L45.1 0h35L66.8 13.3h-35zM85 63V10.357L54.9 39.9h18.2v20.3L62.6 70h14.684L85 63zm-16.8-6.3L54.9 70h-35l13.3-13.3h35z" fill="url(#B)"/></g></g><defs><linearGradient id="A" x1="7.307" y1="91.5" x2="91.445" y2="91.5" gradientUnits="userSpaceOnUse"><stop stop-color="#ab750f"/><stop offset=".516" stop-color="#d8a956"/><stop offset="1" stop-color="#ab750f"/></linearGradient><linearGradient id="B" x1="11.728" y1="35" x2="86.281" y2="35" gradientUnits="userSpaceOnUse"><stop stop-color="#ab750f"/><stop offset=".516" stop-color="#d8a956"/><stop offset="1" stop-color="#ab750f"/></linearGradient><clipPath id="C"><path fill="#fff" d="M0 0h100v100H0z"/></clipPath><clipPath id="D"><path fill="#fff" transform="translate(15)" d="M0 0h70v70H0z"/></clipPath></defs></svg>