<svg width="100" height="100" viewBox="0 0 100 100" fill="none" xmlns="http://www.w3.org/2000/svg">
<g id="share" clip-path="url(#clip0_3464_32092)">
<g id="Group 332">
<rect id="Rectangle 414" x="7" y="93" width="86" height="86" rx="43" transform="rotate(-90 7 93)" fill="url(#paint0_linear_3464_32092)"/>
<path id="Rectangle 416 (Stroke)" fill-rule="evenodd" clip-rule="evenodd" d="M50 97.5C76.2335 97.5 97.5 76.2335 97.5 50C97.5 23.7665 76.2335 2.5 50 2.5C23.7665 2.5 2.5 23.7665 2.5 50C2.5 76.2335 23.7665 97.5 50 97.5ZM-1.09278e-06 50C-4.89256e-07 77.6142 22.3858 100 50 100C77.6142 100 100 77.6142 100 50C100 22.3858 77.6142 -1.69631e-06 50 -1.09278e-06C22.3858 -4.89256e-07 -1.69631e-06 22.3858 -1.09278e-06 50Z" fill="url(#paint1_linear_3464_32092)"/>
</g>
<g id="share_2">
<mask id="mask0_3464_32092" style="mask-type:alpha" maskUnits="userSpaceOnUse" x="16" y="16" width="68" height="68">
<rect id="Bounding box" x="16" y="16" width="68" height="68" fill="#D9D9D9"/>
</mask>
<g mask="url(#mask0_3464_32092)">
<path id="share_3" d="M64.1665 78.3333C61.8054 78.3333 59.7984 77.5069 58.1457 75.8541C56.4929 74.2014 55.6665 72.1944 55.6665 69.8333C55.6665 69.55 55.7373 68.8889 55.879 67.85L35.9748 56.2333C35.2193 56.9416 34.3457 57.4965 33.354 57.8979C32.3623 58.2993 31.2998 58.5 30.1665 58.5C27.8054 58.5 25.7984 57.6736 24.1457 56.0208C22.4929 54.368 21.6665 52.3611 21.6665 50C21.6665 47.6388 22.4929 45.6319 24.1457 43.9791C25.7984 42.3263 27.8054 41.5 30.1665 41.5C31.2998 41.5 32.3623 41.7007 33.354 42.102C34.3457 42.5034 35.2193 43.0583 35.9748 43.7666L55.879 32.15C55.7846 31.8194 55.7255 31.5007 55.7019 31.1937C55.6783 30.8868 55.6665 30.5444 55.6665 30.1666C55.6665 27.8055 56.4929 25.7986 58.1457 24.1458C59.7984 22.493 61.8054 21.6666 64.1665 21.6666C66.5276 21.6666 68.5346 22.493 70.1873 24.1458C71.8401 25.7986 72.6665 27.8055 72.6665 30.1666C72.6665 32.5277 71.8401 34.5347 70.1873 36.1875C68.5346 37.8402 66.5276 38.6666 64.1665 38.6666C63.0332 38.6666 61.9707 38.4659 60.979 38.0645C59.9873 37.6632 59.1137 37.1083 58.3582 36.4L38.454 48.0166C38.5484 48.3472 38.6075 48.6659 38.6311 48.9729C38.6547 49.2798 38.6665 49.6222 38.6665 50C38.6665 50.3777 38.6547 50.7201 38.6311 51.027C38.6075 51.334 38.5484 51.6527 38.454 51.9833L58.3582 63.6C59.1137 62.8916 59.9873 62.3368 60.979 61.9354C61.9707 61.534 63.0332 61.3333 64.1665 61.3333C66.5276 61.3333 68.5346 62.1597 70.1873 63.8125C71.8401 65.4652 72.6665 67.4722 72.6665 69.8333C72.6665 72.1944 71.8401 74.2014 70.1873 75.8541C68.5346 77.5069 66.5276 78.3333 64.1665 78.3333Z" fill="white"/>
</g>
</g>
</g>
<defs>
<linearGradient id="paint0_linear_3464_32092" x1="111.856" y1="126.36" x2="4.12655" y2="127.459" gradientUnits="userSpaceOnUse">
<stop stop-color="#AB750F"/>
<stop offset="0.237787" stop-color="#D8A956"/>
<stop offset="1" stop-color="#AB750F"/>
</linearGradient>
<linearGradient id="paint1_linear_3464_32092" x1="50.0004" y1="104.675" x2="50.0004" y2="-1.82926" gradientUnits="userSpaceOnUse">
<stop stop-color="#AB750F"/>
<stop offset="0.516" stop-color="#D8A956"/>
<stop offset="1" stop-color="#AB750F"/>
</linearGradient>
<clipPath id="clip0_3464_32092">
<rect width="100" height="100" fill="white"/>
</clipPath>
</defs>
</svg>
