<svg xmlns="http://www.w3.org/2000/svg" width="100" height="100" fill="none" xmlns:v="https://vecta.io/nano"><path d="M47.28 52.658l-25.196 2.37c-3.011.284-5.657-.558-7.962-2.512L1.223 41.627c-2.043-1.699-1.303-4.517.578-5.258.348-.137.73-.223 1.104-.257l29.458-2.666c1.717-.149 2.758-.895 3.425-2.501L46.81 4.733l.367-.835c.545-1.239 1.485-1.912 2.847-1.898s2.292.708 2.818 1.949l2.659 6.305 8.783 20.884c.592 1.419 1.566 2.139 3.099 2.275l29.533 2.675c1.427.129 2.462.745 2.924 2.141.426 1.286-.012 2.473-1.211 3.486L76.269 60.612c-1.206 1.016-1.573 2.179-1.209 3.71l6.752 28.558c.271 1.143.443 2.25-.335 3.27-1.009 1.323-2.648 1.635-4.136.723l-10.278-6.366-15.181-9.425c-1.282-.802-2.479-.806-3.766-.004L23.248 96.525l-.65.394c-1.167.693-2.331.678-3.421-.124s-1.466-1.896-1.154-3.222l3.873-16.506c.713-3.024 2.449-5.276 5.12-6.866l21.658-12.968c1.608-.965 1.942-2.662.778-3.886-.659-.693-1.491-.8-2.173-.691z" fill="url(#A)"/><defs><linearGradient id="A" x1="50" y1="2" x2="50" y2="97.42" gradientUnits="userSpaceOnUse"><stop stop-color="#ab750f"/><stop offset=".516" stop-color="#d8a956"/><stop offset="1" stop-color="#ab750f"/></linearGradient></defs></svg>