<svg width="82" height="28" viewBox="0 0 82 28" fill="none" xmlns="http://www.w3.org/2000/svg">
<g id="close">
<path id="Subtract" fill-rule="evenodd" clip-rule="evenodd" d="M12.3127 0.0268555L0 4.95055L2.17228e-05 23.9999L17.9515 6.05249L12.3127 0.0268555Z" fill="#6F0000"/>
<path id="SHAPE" d="M81.0001 5L0 5V24.0002H81.0001L77.8071 14.5079L81.0001 5Z" fill="url(#paint0_linear_3083_6152)"/>
<path id="Intersect" fill-rule="evenodd" clip-rule="evenodd" d="M80.9998 5.00049L75.8071 14.5078L81 23.9997L77.8071 14.5076L80.9998 5.00049Z" fill="#AB7510"/>
<g id="CLOSED" filter="url(#filter0_f_3083_6152)">
<path d="M19.1359 19.0701C17.1362 19.2494 15.4772 19.3391 14.159 19.3391C13.2802 19.3391 12.6345 19.1328 12.222 18.7203C11.8095 18.3078 11.6033 17.6622 11.6033 16.7834V12.479C11.6033 11.5374 11.814 10.8559 12.2355 10.4344C12.6659 10.004 13.3519 9.78878 14.2935 9.78878H19.1359V11.6719H14.8315C14.2935 11.6719 14.0245 11.941 14.0245 12.479V16.7834C14.0245 16.9896 14.0828 17.1555 14.1993 17.2811C14.3249 17.3977 14.4818 17.4559 14.6701 17.4559C14.8584 17.4559 15.0647 17.4559 15.2889 17.4559C15.5131 17.447 15.7462 17.438 15.9883 17.429C16.2305 17.4201 16.4726 17.4111 16.7147 17.4021C16.9658 17.3932 17.2841 17.3752 17.6697 17.3483C18.0643 17.3214 18.553 17.29 19.1359 17.2542V19.0701ZM22.6348 17.3214H27.5445V19.2046H20.2136V9.78878H22.6348V17.3214ZM34.5422 12.3445C34.5422 11.8065 34.2732 11.5374 33.7351 11.5374H31.4485C30.9104 11.5374 30.6414 11.8065 30.6414 12.3445V16.6489C30.6414 17.1869 30.9104 17.4559 31.4485 17.4559H33.7351C34.2732 17.4559 34.5422 17.1869 34.5422 16.6489V12.3445ZM36.9634 16.6489C36.9634 17.5905 36.7482 18.2765 36.3178 18.7069C35.8963 19.1284 35.2148 19.3391 34.2732 19.3391H30.9104C29.9688 19.3391 29.2828 19.1284 28.8524 18.7069C28.4309 18.2765 28.2202 17.5905 28.2202 16.6489V12.3445C28.2202 11.4029 28.4309 10.7214 28.8524 10.2999C29.2828 9.86949 29.9688 9.65427 30.9104 9.65427H34.2732C35.2148 9.65427 35.8963 9.86949 36.3178 10.2999C36.7482 10.7214 36.9634 11.4029 36.9634 12.3445V16.6489ZM38.0324 17.2542C40.4894 17.3887 42.1529 17.4559 43.0228 17.4559C43.229 17.4559 43.3904 17.3977 43.507 17.2811C43.6325 17.1555 43.6953 16.9896 43.6953 16.7834V15.5728H40.6015C39.66 15.5728 38.974 15.362 38.5435 14.9406C38.122 14.5101 37.9113 13.8241 37.9113 12.8825V12.479C37.9113 11.5374 38.122 10.8559 38.5435 10.4344C38.974 10.004 39.66 9.78878 40.6015 9.78878H45.3229V11.6719H41.1396C40.6015 11.6719 40.3325 11.941 40.3325 12.479V12.748C40.3325 13.2861 40.6015 13.5551 41.1396 13.5551H43.5608C44.4396 13.5551 45.0853 13.7614 45.4978 14.1739C45.9103 14.5864 46.1165 15.232 46.1165 16.1108V16.7834C46.1165 17.6622 45.9103 18.3078 45.4978 18.7203C45.0853 19.1328 44.4396 19.3391 43.5608 19.3391C43.1035 19.3391 42.6192 19.3301 42.1081 19.3122L40.8706 19.2584C39.9559 19.2136 39.0098 19.1508 38.0324 19.0701V17.2542ZM54.7915 19.2046H47.3261V9.78878H54.7915V11.6719H49.7473V13.4878H53.7154V15.371H49.7473V17.3214H54.7915V19.2046ZM61.1104 9.78878C62.1237 9.78878 62.8904 10.0533 63.4105 10.5824C63.9396 11.1025 64.2041 11.8692 64.2041 12.8825V16.1108C64.2041 17.1241 63.9396 17.8953 63.4105 18.4244C62.8904 18.9445 62.1237 19.2046 61.1104 19.2046H55.8644V9.78878H61.1104ZM61.7829 12.8825C61.7829 12.0755 61.3794 11.6719 60.5723 11.6719H58.2856V17.3214H60.5723C61.3794 17.3214 61.7829 16.9179 61.7829 16.1108V12.8825Z" fill="#212121"/>
</g>
<g id="CLOSED_2">
<mask id="path-5-outside-1_3083_6152" maskUnits="userSpaceOnUse" x="11" y="8" width="55" height="12" fill="black">
<rect fill="white" x="11" y="8" width="55" height="12"/>
<path d="M19.2341 18.8655C17.2343 19.0448 15.5753 19.1345 14.2571 19.1345C13.3783 19.1345 12.7327 18.9283 12.3202 18.5158C11.9077 18.1033 11.7014 17.4576 11.7014 16.5788V12.2744C11.7014 11.3328 11.9121 10.6513 12.3336 10.2298C12.7641 9.79941 13.4501 9.58419 14.3916 9.58419H19.2341V11.4674H14.9297C14.3916 11.4674 14.1226 11.7364 14.1226 12.2744V16.5788C14.1226 16.785 14.1809 16.9509 14.2975 17.0765C14.423 17.1931 14.58 17.2513 14.7683 17.2513C14.9566 17.2513 15.1628 17.2513 15.387 17.2513C15.6112 17.2424 15.8444 17.2334 16.0865 17.2244C16.3286 17.2155 16.5707 17.2065 16.8129 17.1975C17.0639 17.1886 17.3823 17.1706 17.7679 17.1437C18.1625 17.1168 18.6512 17.0855 19.2341 17.0496V18.8655ZM22.7329 17.1168H27.6426V19H20.3117V9.58419H22.7329V17.1168ZM34.6404 12.1399C34.6404 11.6019 34.3713 11.3328 33.8333 11.3328H31.5466C31.0085 11.3328 30.7395 11.6019 30.7395 12.1399V16.4443C30.7395 16.9823 31.0085 17.2513 31.5466 17.2513H33.8333C34.3713 17.2513 34.6404 16.9823 34.6404 16.4443V12.1399ZM37.0616 16.4443C37.0616 17.3859 36.8464 18.0719 36.4159 18.5023C35.9944 18.9238 35.3129 19.1345 34.3713 19.1345H31.0085C30.067 19.1345 29.381 18.9238 28.9505 18.5023C28.5291 18.0719 28.3183 17.3859 28.3183 16.4443V12.1399C28.3183 11.1983 28.5291 10.5168 28.9505 10.0953C29.381 9.6649 30.067 9.44968 31.0085 9.44968H34.3713C35.3129 9.44968 35.9944 9.6649 36.4159 10.0953C36.8464 10.5168 37.0616 11.1983 37.0616 12.1399V16.4443ZM38.1305 17.0496C40.5876 17.1841 42.2511 17.2513 43.1209 17.2513C43.3271 17.2513 43.4886 17.1931 43.6051 17.0765C43.7307 16.9509 43.7935 16.785 43.7935 16.5788V15.3682H40.6997C39.7581 15.3682 39.0721 15.1575 38.6417 14.736C38.2202 14.3055 38.0095 13.6195 38.0095 12.678V12.2744C38.0095 11.3328 38.2202 10.6513 38.6417 10.2298C39.0721 9.79941 39.7581 9.58419 40.6997 9.58419H45.421V11.4674H41.2377C40.6997 11.4674 40.4307 11.7364 40.4307 12.2744V12.5434C40.4307 13.0815 40.6997 13.3505 41.2377 13.3505H43.6589C44.5378 13.3505 45.1834 13.5568 45.5959 13.9693C46.0084 14.3818 46.2147 15.0274 46.2147 15.9062V16.5788C46.2147 17.4576 46.0084 18.1033 45.5959 18.5158C45.1834 18.9283 44.5378 19.1345 43.6589 19.1345C43.2016 19.1345 42.7174 19.1255 42.2062 19.1076L40.9687 19.0538C40.054 19.009 39.108 18.9462 38.1305 18.8655V17.0496ZM54.8896 19H47.4242V9.58419H54.8896V11.4674H49.8454V13.2833H53.8135V15.1664H49.8454V17.1168H54.8896V19ZM61.2085 9.58419C62.2218 9.58419 62.9885 9.84873 63.5086 10.3778C64.0377 10.8979 64.3023 11.6646 64.3023 12.678V15.9062C64.3023 16.9196 64.0377 17.6908 63.5086 18.2198C62.9885 18.7399 62.2218 19 61.2085 19H55.9625V9.58419H61.2085ZM61.8811 12.678C61.8811 11.8709 61.4775 11.4674 60.6705 11.4674H58.3838V17.1168H60.6705C61.4775 17.1168 61.8811 16.7133 61.8811 15.9062V12.678Z"/>
</mask>
<path d="M19.2341 18.8655C17.2343 19.0448 15.5753 19.1345 14.2571 19.1345C13.3783 19.1345 12.7327 18.9283 12.3202 18.5158C11.9077 18.1033 11.7014 17.4576 11.7014 16.5788V12.2744C11.7014 11.3328 11.9121 10.6513 12.3336 10.2298C12.7641 9.79941 13.4501 9.58419 14.3916 9.58419H19.2341V11.4674H14.9297C14.3916 11.4674 14.1226 11.7364 14.1226 12.2744V16.5788C14.1226 16.785 14.1809 16.9509 14.2975 17.0765C14.423 17.1931 14.58 17.2513 14.7683 17.2513C14.9566 17.2513 15.1628 17.2513 15.387 17.2513C15.6112 17.2424 15.8444 17.2334 16.0865 17.2244C16.3286 17.2155 16.5707 17.2065 16.8129 17.1975C17.0639 17.1886 17.3823 17.1706 17.7679 17.1437C18.1625 17.1168 18.6512 17.0855 19.2341 17.0496V18.8655ZM22.7329 17.1168H27.6426V19H20.3117V9.58419H22.7329V17.1168ZM34.6404 12.1399C34.6404 11.6019 34.3713 11.3328 33.8333 11.3328H31.5466C31.0085 11.3328 30.7395 11.6019 30.7395 12.1399V16.4443C30.7395 16.9823 31.0085 17.2513 31.5466 17.2513H33.8333C34.3713 17.2513 34.6404 16.9823 34.6404 16.4443V12.1399ZM37.0616 16.4443C37.0616 17.3859 36.8464 18.0719 36.4159 18.5023C35.9944 18.9238 35.3129 19.1345 34.3713 19.1345H31.0085C30.067 19.1345 29.381 18.9238 28.9505 18.5023C28.5291 18.0719 28.3183 17.3859 28.3183 16.4443V12.1399C28.3183 11.1983 28.5291 10.5168 28.9505 10.0953C29.381 9.6649 30.067 9.44968 31.0085 9.44968H34.3713C35.3129 9.44968 35.9944 9.6649 36.4159 10.0953C36.8464 10.5168 37.0616 11.1983 37.0616 12.1399V16.4443ZM38.1305 17.0496C40.5876 17.1841 42.2511 17.2513 43.1209 17.2513C43.3271 17.2513 43.4886 17.1931 43.6051 17.0765C43.7307 16.9509 43.7935 16.785 43.7935 16.5788V15.3682H40.6997C39.7581 15.3682 39.0721 15.1575 38.6417 14.736C38.2202 14.3055 38.0095 13.6195 38.0095 12.678V12.2744C38.0095 11.3328 38.2202 10.6513 38.6417 10.2298C39.0721 9.79941 39.7581 9.58419 40.6997 9.58419H45.421V11.4674H41.2377C40.6997 11.4674 40.4307 11.7364 40.4307 12.2744V12.5434C40.4307 13.0815 40.6997 13.3505 41.2377 13.3505H43.6589C44.5378 13.3505 45.1834 13.5568 45.5959 13.9693C46.0084 14.3818 46.2147 15.0274 46.2147 15.9062V16.5788C46.2147 17.4576 46.0084 18.1033 45.5959 18.5158C45.1834 18.9283 44.5378 19.1345 43.6589 19.1345C43.2016 19.1345 42.7174 19.1255 42.2062 19.1076L40.9687 19.0538C40.054 19.009 39.108 18.9462 38.1305 18.8655V17.0496ZM54.8896 19H47.4242V9.58419H54.8896V11.4674H49.8454V13.2833H53.8135V15.1664H49.8454V17.1168H54.8896V19ZM61.2085 9.58419C62.2218 9.58419 62.9885 9.84873 63.5086 10.3778C64.0377 10.8979 64.3023 11.6646 64.3023 12.678V15.9062C64.3023 16.9196 64.0377 17.6908 63.5086 18.2198C62.9885 18.7399 62.2218 19 61.2085 19H55.9625V9.58419H61.2085ZM61.8811 12.678C61.8811 11.8709 61.4775 11.4674 60.6705 11.4674H58.3838V17.1168H60.6705C61.4775 17.1168 61.8811 16.7133 61.8811 15.9062V12.678Z" fill="#F5F1EE"/>
<path d="M19.2341 18.8655L19.2966 19.5627L19.9341 19.5055V18.8655H19.2341ZM12.3202 18.5158L12.8151 18.0208L12.3202 18.5158ZM12.3336 10.2298L12.8286 10.7248L12.8286 10.7248L12.3336 10.2298ZM19.2341 9.58419H19.9341V8.88419H19.2341V9.58419ZM19.2341 11.4674V12.1674H19.9341V11.4674H19.2341ZM14.2975 17.0765L13.7845 17.5528L13.8022 17.5718L13.8212 17.5894L14.2975 17.0765ZM15.387 17.2513V17.9513H15.401L15.415 17.9508L15.387 17.2513ZM16.0865 17.2244L16.1124 17.924H16.1124L16.0865 17.2244ZM16.8129 17.1975L16.7879 16.498L16.7869 16.498L16.8129 17.1975ZM17.7679 17.1437L17.7203 16.4454L17.7192 16.4454L17.7679 17.1437ZM19.2341 17.0496H19.9341V16.3052L19.1911 16.3509L19.2341 17.0496ZM19.1715 18.1683C17.1831 18.3466 15.5467 18.4345 14.2571 18.4345V19.8345C15.604 19.8345 17.2856 19.743 19.2966 19.5627L19.1715 18.1683ZM14.2571 18.4345C13.4712 18.4345 13.0428 18.2484 12.8151 18.0208L11.8252 19.0107C12.4225 19.6081 13.2854 19.8345 14.2571 19.8345V18.4345ZM12.8151 18.0208C12.5875 17.7931 12.4014 17.3647 12.4014 16.5788H11.0014C11.0014 17.5505 11.2278 18.4134 11.8252 19.0107L12.8151 18.0208ZM12.4014 16.5788V12.2744H11.0014V16.5788H12.4014ZM12.4014 12.2744C12.4014 11.4144 12.5972 10.9562 12.8286 10.7248L11.8386 9.73487C11.2271 10.3464 11.0014 11.2513 11.0014 12.2744H12.4014ZM12.8286 10.7248C13.0713 10.4822 13.5366 10.2842 14.3916 10.2842V8.88419C13.3635 8.88419 12.4569 9.11666 11.8386 9.73487L12.8286 10.7248ZM14.3916 10.2842H19.2341V8.88419H14.3916V10.2842ZM18.5341 9.58419V11.4674H19.9341V9.58419H18.5341ZM19.2341 10.7674H14.9297V12.1674H19.2341V10.7674ZM14.9297 10.7674C14.5528 10.7674 14.1415 10.8621 13.8294 11.1741C13.5173 11.4862 13.4226 11.8975 13.4226 12.2744H14.8226C14.8226 12.1962 14.8326 12.1562 14.8371 12.1427C14.8405 12.1326 14.8376 12.1458 14.8194 12.1641C14.8011 12.1824 14.7879 12.1852 14.798 12.1819C14.8114 12.1774 14.8514 12.1674 14.9297 12.1674V10.7674ZM13.4226 12.2744V16.5788H14.8226V12.2744H13.4226ZM13.4226 16.5788C13.4226 16.9236 13.5241 17.2723 13.7845 17.5528L14.8104 16.6002C14.8141 16.6041 14.8179 16.6091 14.8212 16.6146C14.8245 16.6201 14.8262 16.6243 14.8268 16.6259C14.8279 16.6291 14.8226 16.6163 14.8226 16.5788H13.4226ZM13.8212 17.5894C14.0895 17.8386 14.4223 17.9513 14.7683 17.9513V16.5513C14.7573 16.5513 14.7513 16.5505 14.7495 16.5502C14.7477 16.5499 14.7492 16.55 14.7531 16.5514C14.757 16.5529 14.7615 16.555 14.766 16.5578C14.7704 16.5605 14.773 16.5628 14.7738 16.5635L13.8212 17.5894ZM14.7683 17.9513C14.7686 17.9513 14.769 17.9513 14.7694 17.9513C14.7697 17.9513 14.7701 17.9513 14.7705 17.9513C14.7709 17.9513 14.7712 17.9513 14.7716 17.9513C14.772 17.9513 14.7723 17.9513 14.7727 17.9513C14.7731 17.9513 14.7734 17.9513 14.7738 17.9513C14.7742 17.9513 14.7745 17.9513 14.7749 17.9513C14.7753 17.9513 14.7756 17.9513 14.776 17.9513C14.7764 17.9513 14.7767 17.9513 14.7771 17.9513C14.7775 17.9513 14.7779 17.9513 14.7782 17.9513C14.7786 17.9513 14.779 17.9513 14.7793 17.9513C14.7797 17.9513 14.7801 17.9513 14.7804 17.9513C14.7808 17.9513 14.7812 17.9513 14.7815 17.9513C14.7819 17.9513 14.7823 17.9513 14.7827 17.9513C14.783 17.9513 14.7834 17.9513 14.7838 17.9513C14.7841 17.9513 14.7845 17.9513 14.7849 17.9513C14.7852 17.9513 14.7856 17.9513 14.786 17.9513C14.7864 17.9513 14.7867 17.9513 14.7871 17.9513C14.7875 17.9513 14.7878 17.9513 14.7882 17.9513C14.7886 17.9513 14.7889 17.9513 14.7893 17.9513C14.7897 17.9513 14.7901 17.9513 14.7904 17.9513C14.7908 17.9513 14.7912 17.9513 14.7915 17.9513C14.7919 17.9513 14.7923 17.9513 14.7927 17.9513C14.793 17.9513 14.7934 17.9513 14.7938 17.9513C14.7941 17.9513 14.7945 17.9513 14.7949 17.9513C14.7952 17.9513 14.7956 17.9513 14.796 17.9513C14.7964 17.9513 14.7967 17.9513 14.7971 17.9513C14.7975 17.9513 14.7978 17.9513 14.7982 17.9513C14.7986 17.9513 14.799 17.9513 14.7993 17.9513C14.7997 17.9513 14.8001 17.9513 14.8004 17.9513C14.8008 17.9513 14.8012 17.9513 14.8016 17.9513C14.8019 17.9513 14.8023 17.9513 14.8027 17.9513C14.8031 17.9513 14.8034 17.9513 14.8038 17.9513C14.8042 17.9513 14.8045 17.9513 14.8049 17.9513C14.8053 17.9513 14.8057 17.9513 14.806 17.9513C14.8064 17.9513 14.8068 17.9513 14.8071 17.9513C14.8075 17.9513 14.8079 17.9513 14.8083 17.9513C14.8086 17.9513 14.809 17.9513 14.8094 17.9513C14.8098 17.9513 14.8101 17.9513 14.8105 17.9513C14.8109 17.9513 14.8112 17.9513 14.8116 17.9513C14.812 17.9513 14.8124 17.9513 14.8127 17.9513C14.8131 17.9513 14.8135 17.9513 14.8139 17.9513C14.8142 17.9513 14.8146 17.9513 14.815 17.9513C14.8154 17.9513 14.8157 17.9513 14.8161 17.9513C14.8165 17.9513 14.8168 17.9513 14.8172 17.9513C14.8176 17.9513 14.818 17.9513 14.8183 17.9513C14.8187 17.9513 14.8191 17.9513 14.8195 17.9513C14.8198 17.9513 14.8202 17.9513 14.8206 17.9513C14.821 17.9513 14.8213 17.9513 14.8217 17.9513C14.8221 17.9513 14.8225 17.9513 14.8228 17.9513C14.8232 17.9513 14.8236 17.9513 14.824 17.9513C14.8243 17.9513 14.8247 17.9513 14.8251 17.9513C14.8255 17.9513 14.8258 17.9513 14.8262 17.9513C14.8266 17.9513 14.827 17.9513 14.8273 17.9513C14.8277 17.9513 14.8281 17.9513 14.8285 17.9513C14.8288 17.9513 14.8292 17.9513 14.8296 17.9513C14.83 17.9513 14.8303 17.9513 14.8307 17.9513C14.8311 17.9513 14.8315 17.9513 14.8318 17.9513C14.8322 17.9513 14.8326 17.9513 14.833 17.9513C14.8333 17.9513 14.8337 17.9513 14.8341 17.9513C14.8345 17.9513 14.8348 17.9513 14.8352 17.9513C14.8356 17.9513 14.836 17.9513 14.8363 17.9513C14.8367 17.9513 14.8371 17.9513 14.8375 17.9513C14.8379 17.9513 14.8382 17.9513 14.8386 17.9513C14.839 17.9513 14.8394 17.9513 14.8397 17.9513C14.8401 17.9513 14.8405 17.9513 14.8409 17.9513C14.8412 17.9513 14.8416 17.9513 14.842 17.9513C14.8424 17.9513 14.8427 17.9513 14.8431 17.9513C14.8435 17.9513 14.8439 17.9513 14.8443 17.9513C14.8446 17.9513 14.845 17.9513 14.8454 17.9513C14.8458 17.9513 14.8461 17.9513 14.8465 17.9513C14.8469 17.9513 14.8473 17.9513 14.8477 17.9513C14.848 17.9513 14.8484 17.9513 14.8488 17.9513C14.8492 17.9513 14.8495 17.9513 14.8499 17.9513C14.8503 17.9513 14.8507 17.9513 14.8511 17.9513C14.8514 17.9513 14.8518 17.9513 14.8522 17.9513C14.8526 17.9513 14.8529 17.9513 14.8533 17.9513C14.8537 17.9513 14.8541 17.9513 14.8545 17.9513C14.8548 17.9513 14.8552 17.9513 14.8556 17.9513C14.856 17.9513 14.8563 17.9513 14.8567 17.9513C14.8571 17.9513 14.8575 17.9513 14.8579 17.9513C14.8582 17.9513 14.8586 17.9513 14.859 17.9513C14.8594 17.9513 14.8598 17.9513 14.8601 17.9513C14.8605 17.9513 14.8609 17.9513 14.8613 17.9513C14.8617 17.9513 14.862 17.9513 14.8624 17.9513C14.8628 17.9513 14.8632 17.9513 14.8635 17.9513C14.8639 17.9513 14.8643 17.9513 14.8647 17.9513C14.8651 17.9513 14.8654 17.9513 14.8658 17.9513C14.8662 17.9513 14.8666 17.9513 14.867 17.9513C14.8673 17.9513 14.8677 17.9513 14.8681 17.9513C14.8685 17.9513 14.8689 17.9513 14.8692 17.9513C14.8696 17.9513 14.87 17.9513 14.8704 17.9513C14.8708 17.9513 14.8711 17.9513 14.8715 17.9513C14.8719 17.9513 14.8723 17.9513 14.8727 17.9513C14.873 17.9513 14.8734 17.9513 14.8738 17.9513C14.8742 17.9513 14.8746 17.9513 14.875 17.9513C14.8753 17.9513 14.8757 17.9513 14.8761 17.9513C14.8765 17.9513 14.8769 17.9513 14.8772 17.9513C14.8776 17.9513 14.878 17.9513 14.8784 17.9513C14.8788 17.9513 14.8791 17.9513 14.8795 17.9513C14.8799 17.9513 14.8803 17.9513 14.8807 17.9513C14.8811 17.9513 14.8814 17.9513 14.8818 17.9513C14.8822 17.9513 14.8826 17.9513 14.883 17.9513C14.8833 17.9513 14.8837 17.9513 14.8841 17.9513C14.8845 17.9513 14.8849 17.9513 14.8853 17.9513C14.8856 17.9513 14.886 17.9513 14.8864 17.9513C14.8868 17.9513 14.8872 17.9513 14.8875 17.9513C14.8879 17.9513 14.8883 17.9513 14.8887 17.9513C14.8891 17.9513 14.8895 17.9513 14.8898 17.9513C14.8902 17.9513 14.8906 17.9513 14.891 17.9513C14.8914 17.9513 14.8918 17.9513 14.8921 17.9513C14.8925 17.9513 14.8929 17.9513 14.8933 17.9513C14.8937 17.9513 14.8941 17.9513 14.8944 17.9513C14.8948 17.9513 14.8952 17.9513 14.8956 17.9513C14.896 17.9513 14.8963 17.9513 14.8967 17.9513C14.8971 17.9513 14.8975 17.9513 14.8979 17.9513C14.8983 17.9513 14.8987 17.9513 14.899 17.9513C14.8994 17.9513 14.8998 17.9513 14.9002 17.9513C14.9006 17.9513 14.901 17.9513 14.9013 17.9513C14.9017 17.9513 14.9021 17.9513 14.9025 17.9513C14.9029 17.9513 14.9033 17.9513 14.9036 17.9513C14.904 17.9513 14.9044 17.9513 14.9048 17.9513C14.9052 17.9513 14.9056 17.9513 14.9059 17.9513C14.9063 17.9513 14.9067 17.9513 14.9071 17.9513C14.9075 17.9513 14.9079 17.9513 14.9083 17.9513C14.9086 17.9513 14.909 17.9513 14.9094 17.9513C14.9098 17.9513 14.9102 17.9513 14.9106 17.9513C14.9109 17.9513 14.9113 17.9513 14.9117 17.9513C14.9121 17.9513 14.9125 17.9513 14.9129 17.9513C14.9133 17.9513 14.9136 17.9513 14.914 17.9513C14.9144 17.9513 14.9148 17.9513 14.9152 17.9513C14.9156 17.9513 14.916 17.9513 14.9163 17.9513C14.9167 17.9513 14.9171 17.9513 14.9175 17.9513C14.9179 17.9513 14.9183 17.9513 14.9187 17.9513C14.919 17.9513 14.9194 17.9513 14.9198 17.9513C14.9202 17.9513 14.9206 17.9513 14.921 17.9513C14.9214 17.9513 14.9218 17.9513 14.9221 17.9513C14.9225 17.9513 14.9229 17.9513 14.9233 17.9513C14.9237 17.9513 14.9241 17.9513 14.9245 17.9513C14.9248 17.9513 14.9252 17.9513 14.9256 17.9513C14.926 17.9513 14.9264 17.9513 14.9268 17.9513C14.9272 17.9513 14.9276 17.9513 14.9279 17.9513C14.9283 17.9513 14.9287 17.9513 14.9291 17.9513C14.9295 17.9513 14.9299 17.9513 14.9303 17.9513C14.9306 17.9513 14.931 17.9513 14.9314 17.9513C14.9318 17.9513 14.9322 17.9513 14.9326 17.9513C14.933 17.9513 14.9334 17.9513 14.9337 17.9513C14.9341 17.9513 14.9345 17.9513 14.9349 17.9513C14.9353 17.9513 14.9357 17.9513 14.9361 17.9513C14.9365 17.9513 14.9369 17.9513 14.9372 17.9513C14.9376 17.9513 14.938 17.9513 14.9384 17.9513C14.9388 17.9513 14.9392 17.9513 14.9396 17.9513C14.94 17.9513 14.9403 17.9513 14.9407 17.9513C14.9411 17.9513 14.9415 17.9513 14.9419 17.9513C14.9423 17.9513 14.9427 17.9513 14.9431 17.9513C14.9435 17.9513 14.9438 17.9513 14.9442 17.9513C14.9446 17.9513 14.945 17.9513 14.9454 17.9513C14.9458 17.9513 14.9462 17.9513 14.9466 17.9513C14.947 17.9513 14.9474 17.9513 14.9477 17.9513C14.9481 17.9513 14.9485 17.9513 14.9489 17.9513C14.9493 17.9513 14.9497 17.9513 14.9501 17.9513C14.9505 17.9513 14.9509 17.9513 14.9512 17.9513C14.9516 17.9513 14.952 17.9513 14.9524 17.9513C14.9528 17.9513 14.9532 17.9513 14.9536 17.9513C14.954 17.9513 14.9544 17.9513 14.9548 17.9513C14.9551 17.9513 14.9555 17.9513 14.9559 17.9513C14.9563 17.9513 14.9567 17.9513 14.9571 17.9513C14.9575 17.9513 14.9579 17.9513 14.9583 17.9513C14.9587 17.9513 14.9591 17.9513 14.9594 17.9513C14.9598 17.9513 14.9602 17.9513 14.9606 17.9513C14.961 17.9513 14.9614 17.9513 14.9618 17.9513C14.9622 17.9513 14.9626 17.9513 14.963 17.9513C14.9634 17.9513 14.9637 17.9513 14.9641 17.9513C14.9645 17.9513 14.9649 17.9513 14.9653 17.9513C14.9657 17.9513 14.9661 17.9513 14.9665 17.9513C14.9669 17.9513 14.9673 17.9513 14.9677 17.9513C14.9681 17.9513 14.9684 17.9513 14.9688 17.9513C14.9692 17.9513 14.9696 17.9513 14.97 17.9513C14.9704 17.9513 14.9708 17.9513 14.9712 17.9513C14.9716 17.9513 14.972 17.9513 14.9724 17.9513C14.9728 17.9513 14.9731 17.9513 14.9735 17.9513C14.9739 17.9513 14.9743 17.9513 14.9747 17.9513C14.9751 17.9513 14.9755 17.9513 14.9759 17.9513C14.9763 17.9513 14.9767 17.9513 14.9771 17.9513C14.9775 17.9513 14.9779 17.9513 14.9783 17.9513C14.9786 17.9513 14.979 17.9513 14.9794 17.9513C14.9798 17.9513 14.9802 17.9513 14.9806 17.9513C14.981 17.9513 14.9814 17.9513 14.9818 17.9513C14.9822 17.9513 14.9826 17.9513 14.983 17.9513C14.9834 17.9513 14.9838 17.9513 14.9842 17.9513C14.9845 17.9513 14.9849 17.9513 14.9853 17.9513C14.9857 17.9513 14.9861 17.9513 14.9865 17.9513C14.9869 17.9513 14.9873 17.9513 14.9877 17.9513C14.9881 17.9513 14.9885 17.9513 14.9889 17.9513C14.9893 17.9513 14.9897 17.9513 14.9901 17.9513C14.9905 17.9513 14.9909 17.9513 14.9912 17.9513C14.9916 17.9513 14.992 17.9513 14.9924 17.9513C14.9928 17.9513 14.9932 17.9513 14.9936 17.9513C14.994 17.9513 14.9944 17.9513 14.9948 17.9513C14.9952 17.9513 14.9956 17.9513 14.996 17.9513C14.9964 17.9513 14.9968 17.9513 14.9972 17.9513C14.9976 17.9513 14.998 17.9513 14.9984 17.9513C14.9988 17.9513 14.9991 17.9513 14.9995 17.9513C14.9999 17.9513 15.0003 17.9513 15.0007 17.9513C15.0011 17.9513 15.0015 17.9513 15.0019 17.9513C15.0023 17.9513 15.0027 17.9513 15.0031 17.9513C15.0035 17.9513 15.0039 17.9513 15.0043 17.9513C15.0047 17.9513 15.0051 17.9513 15.0055 17.9513C15.0059 17.9513 15.0063 17.9513 15.0067 17.9513C15.0071 17.9513 15.0075 17.9513 15.0079 17.9513C15.0083 17.9513 15.0086 17.9513 15.009 17.9513C15.0094 17.9513 15.0098 17.9513 15.0102 17.9513C15.0106 17.9513 15.011 17.9513 15.0114 17.9513C15.0118 17.9513 15.0122 17.9513 15.0126 17.9513C15.013 17.9513 15.0134 17.9513 15.0138 17.9513C15.0142 17.9513 15.0146 17.9513 15.015 17.9513C15.0154 17.9513 15.0158 17.9513 15.0162 17.9513C15.0166 17.9513 15.017 17.9513 15.0174 17.9513C15.0178 17.9513 15.0182 17.9513 15.0186 17.9513C15.019 17.9513 15.0194 17.9513 15.0198 17.9513C15.0202 17.9513 15.0206 17.9513 15.021 17.9513C15.0214 17.9513 15.0218 17.9513 15.0222 17.9513C15.0226 17.9513 15.023 17.9513 15.0233 17.9513C15.0237 17.9513 15.0241 17.9513 15.0245 17.9513C15.0249 17.9513 15.0253 17.9513 15.0257 17.9513C15.0261 17.9513 15.0265 17.9513 15.0269 17.9513C15.0273 17.9513 15.0277 17.9513 15.0281 17.9513C15.0285 17.9513 15.0289 17.9513 15.0293 17.9513C15.0297 17.9513 15.0301 17.9513 15.0305 17.9513C15.0309 17.9513 15.0313 17.9513 15.0317 17.9513C15.0321 17.9513 15.0325 17.9513 15.0329 17.9513C15.0333 17.9513 15.0337 17.9513 15.0341 17.9513C15.0345 17.9513 15.0349 17.9513 15.0353 17.9513C15.0357 17.9513 15.0361 17.9513 15.0365 17.9513C15.0369 17.9513 15.0373 17.9513 15.0377 17.9513C15.0381 17.9513 15.0385 17.9513 15.0389 17.9513C15.0393 17.9513 15.0397 17.9513 15.0401 17.9513C15.0405 17.9513 15.0409 17.9513 15.0413 17.9513C15.0417 17.9513 15.0421 17.9513 15.0425 17.9513C15.0429 17.9513 15.0433 17.9513 15.0437 17.9513C15.0441 17.9513 15.0445 17.9513 15.0449 17.9513C15.0453 17.9513 15.0457 17.9513 15.0461 17.9513C15.0465 17.9513 15.0469 17.9513 15.0473 17.9513C15.0477 17.9513 15.0481 17.9513 15.0485 17.9513C15.0489 17.9513 15.0493 17.9513 15.0497 17.9513C15.0501 17.9513 15.0505 17.9513 15.0509 17.9513C15.0513 17.9513 15.0517 17.9513 15.0521 17.9513C15.0525 17.9513 15.0529 17.9513 15.0533 17.9513C15.0537 17.9513 15.0541 17.9513 15.0545 17.9513C15.0549 17.9513 15.0554 17.9513 15.0558 17.9513C15.0562 17.9513 15.0566 17.9513 15.057 17.9513C15.0574 17.9513 15.0578 17.9513 15.0582 17.9513C15.0586 17.9513 15.059 17.9513 15.0594 17.9513C15.0598 17.9513 15.0602 17.9513 15.0606 17.9513C15.061 17.9513 15.0614 17.9513 15.0618 17.9513C15.0622 17.9513 15.0626 17.9513 15.063 17.9513C15.0634 17.9513 15.0638 17.9513 15.0642 17.9513C15.0646 17.9513 15.065 17.9513 15.0654 17.9513C15.0658 17.9513 15.0662 17.9513 15.0666 17.9513C15.067 17.9513 15.0674 17.9513 15.0678 17.9513C15.0682 17.9513 15.0686 17.9513 15.069 17.9513C15.0694 17.9513 15.0698 17.9513 15.0702 17.9513C15.0707 17.9513 15.0711 17.9513 15.0715 17.9513C15.0719 17.9513 15.0723 17.9513 15.0727 17.9513C15.0731 17.9513 15.0735 17.9513 15.0739 17.9513C15.0743 17.9513 15.0747 17.9513 15.0751 17.9513C15.0755 17.9513 15.0759 17.9513 15.0763 17.9513C15.0767 17.9513 15.0771 17.9513 15.0775 17.9513C15.0779 17.9513 15.0783 17.9513 15.0787 17.9513C15.0791 17.9513 15.0795 17.9513 15.0799 17.9513C15.0804 17.9513 15.0808 17.9513 15.0812 17.9513C15.0816 17.9513 15.082 17.9513 15.0824 17.9513C15.0828 17.9513 15.0832 17.9513 15.0836 17.9513C15.084 17.9513 15.0844 17.9513 15.0848 17.9513C15.0852 17.9513 15.0856 17.9513 15.086 17.9513C15.0864 17.9513 15.0868 17.9513 15.0872 17.9513C15.0876 17.9513 15.088 17.9513 15.0885 17.9513C15.0889 17.9513 15.0893 17.9513 15.0897 17.9513C15.0901 17.9513 15.0905 17.9513 15.0909 17.9513C15.0913 17.9513 15.0917 17.9513 15.0921 17.9513C15.0925 17.9513 15.0929 17.9513 15.0933 17.9513C15.0937 17.9513 15.0941 17.9513 15.0945 17.9513C15.0949 17.9513 15.0954 17.9513 15.0958 17.9513C15.0962 17.9513 15.0966 17.9513 15.097 17.9513C15.0974 17.9513 15.0978 17.9513 15.0982 17.9513C15.0986 17.9513 15.099 17.9513 15.0994 17.9513C15.0998 17.9513 15.1002 17.9513 15.1006 17.9513C15.101 17.9513 15.1015 17.9513 15.1019 17.9513C15.1023 17.9513 15.1027 17.9513 15.1031 17.9513C15.1035 17.9513 15.1039 17.9513 15.1043 17.9513C15.1047 17.9513 15.1051 17.9513 15.1055 17.9513C15.1059 17.9513 15.1063 17.9513 15.1068 17.9513C15.1072 17.9513 15.1076 17.9513 15.108 17.9513C15.1084 17.9513 15.1088 17.9513 15.1092 17.9513C15.1096 17.9513 15.11 17.9513 15.1104 17.9513C15.1108 17.9513 15.1112 17.9513 15.1116 17.9513C15.1121 17.9513 15.1125 17.9513 15.1129 17.9513C15.1133 17.9513 15.1137 17.9513 15.1141 17.9513C15.1145 17.9513 15.1149 17.9513 15.1153 17.9513C15.1157 17.9513 15.1161 17.9513 15.1165 17.9513C15.117 17.9513 15.1174 17.9513 15.1178 17.9513C15.1182 17.9513 15.1186 17.9513 15.119 17.9513C15.1194 17.9513 15.1198 17.9513 15.1202 17.9513C15.1206 17.9513 15.121 17.9513 15.1215 17.9513C15.1219 17.9513 15.1223 17.9513 15.1227 17.9513C15.1231 17.9513 15.1235 17.9513 15.1239 17.9513C15.1243 17.9513 15.1247 17.9513 15.1251 17.9513C15.1255 17.9513 15.126 17.9513 15.1264 17.9513C15.1268 17.9513 15.1272 17.9513 15.1276 17.9513C15.128 17.9513 15.1284 17.9513 15.1288 17.9513C15.1292 17.9513 15.1296 17.9513 15.1301 17.9513C15.1305 17.9513 15.1309 17.9513 15.1313 17.9513C15.1317 17.9513 15.1321 17.9513 15.1325 17.9513C15.1329 17.9513 15.1333 17.9513 15.1338 17.9513C15.1342 17.9513 15.1346 17.9513 15.135 17.9513C15.1354 17.9513 15.1358 17.9513 15.1362 17.9513C15.1366 17.9513 15.137 17.9513 15.1375 17.9513C15.1379 17.9513 15.1383 17.9513 15.1387 17.9513C15.1391 17.9513 15.1395 17.9513 15.1399 17.9513C15.1403 17.9513 15.1407 17.9513 15.1412 17.9513C15.1416 17.9513 15.142 17.9513 15.1424 17.9513C15.1428 17.9513 15.1432 17.9513 15.1436 17.9513C15.144 17.9513 15.1444 17.9513 15.1449 17.9513C15.1453 17.9513 15.1457 17.9513 15.1461 17.9513C15.1465 17.9513 15.1469 17.9513 15.1473 17.9513C15.1477 17.9513 15.1482 17.9513 15.1486 17.9513C15.149 17.9513 15.1494 17.9513 15.1498 17.9513C15.1502 17.9513 15.1506 17.9513 15.151 17.9513C15.1515 17.9513 15.1519 17.9513 15.1523 17.9513C15.1527 17.9513 15.1531 17.9513 15.1535 17.9513C15.1539 17.9513 15.1543 17.9513 15.1548 17.9513C15.1552 17.9513 15.1556 17.9513 15.156 17.9513C15.1564 17.9513 15.1568 17.9513 15.1572 17.9513C15.1576 17.9513 15.1581 17.9513 15.1585 17.9513C15.1589 17.9513 15.1593 17.9513 15.1597 17.9513C15.1601 17.9513 15.1605 17.9513 15.161 17.9513C15.1614 17.9513 15.1618 17.9513 15.1622 17.9513C15.1626 17.9513 15.163 17.9513 15.1634 17.9513C15.1639 17.9513 15.1643 17.9513 15.1647 17.9513C15.1651 17.9513 15.1655 17.9513 15.1659 17.9513C15.1663 17.9513 15.1667 17.9513 15.1672 17.9513C15.1676 17.9513 15.168 17.9513 15.1684 17.9513C15.1688 17.9513 15.1692 17.9513 15.1697 17.9513C15.1701 17.9513 15.1705 17.9513 15.1709 17.9513C15.1713 17.9513 15.1717 17.9513 15.1721 17.9513C15.1726 17.9513 15.173 17.9513 15.1734 17.9513C15.1738 17.9513 15.1742 17.9513 15.1746 17.9513C15.175 17.9513 15.1755 17.9513 15.1759 17.9513C15.1763 17.9513 15.1767 17.9513 15.1771 17.9513C15.1775 17.9513 15.178 17.9513 15.1784 17.9513C15.1788 17.9513 15.1792 17.9513 15.1796 17.9513C15.18 17.9513 15.1804 17.9513 15.1809 17.9513C15.1813 17.9513 15.1817 17.9513 15.1821 17.9513C15.1825 17.9513 15.1829 17.9513 15.1834 17.9513C15.1838 17.9513 15.1842 17.9513 15.1846 17.9513C15.185 17.9513 15.1854 17.9513 15.1859 17.9513C15.1863 17.9513 15.1867 17.9513 15.1871 17.9513C15.1875 17.9513 15.1879 17.9513 15.1884 17.9513C15.1888 17.9513 15.1892 17.9513 15.1896 17.9513C15.19 17.9513 15.1904 17.9513 15.1909 17.9513C15.1913 17.9513 15.1917 17.9513 15.1921 17.9513C15.1925 17.9513 15.1929 17.9513 15.1934 17.9513C15.1938 17.9513 15.1942 17.9513 15.1946 17.9513C15.195 17.9513 15.1954 17.9513 15.1959 17.9513C15.1963 17.9513 15.1967 17.9513 15.1971 17.9513C15.1975 17.9513 15.1979 17.9513 15.1984 17.9513C15.1988 17.9513 15.1992 17.9513 15.1996 17.9513C15.2 17.9513 15.2005 17.9513 15.2009 17.9513C15.2013 17.9513 15.2017 17.9513 15.2021 17.9513C15.2025 17.9513 15.203 17.9513 15.2034 17.9513C15.2038 17.9513 15.2042 17.9513 15.2046 17.9513C15.2051 17.9513 15.2055 17.9513 15.2059 17.9513C15.2063 17.9513 15.2067 17.9513 15.2071 17.9513C15.2076 17.9513 15.208 17.9513 15.2084 17.9513C15.2088 17.9513 15.2092 17.9513 15.2097 17.9513C15.2101 17.9513 15.2105 17.9513 15.2109 17.9513C15.2113 17.9513 15.2118 17.9513 15.2122 17.9513C15.2126 17.9513 15.213 17.9513 15.2134 17.9513C15.2139 17.9513 15.2143 17.9513 15.2147 17.9513C15.2151 17.9513 15.2155 17.9513 15.216 17.9513C15.2164 17.9513 15.2168 17.9513 15.2172 17.9513C15.2176 17.9513 15.2181 17.9513 15.2185 17.9513C15.2189 17.9513 15.2193 17.9513 15.2197 17.9513C15.2202 17.9513 15.2206 17.9513 15.221 17.9513C15.2214 17.9513 15.2218 17.9513 15.2223 17.9513C15.2227 17.9513 15.2231 17.9513 15.2235 17.9513C15.2239 17.9513 15.2244 17.9513 15.2248 17.9513C15.2252 17.9513 15.2256 17.9513 15.226 17.9513C15.2265 17.9513 15.2269 17.9513 15.2273 17.9513C15.2277 17.9513 15.2281 17.9513 15.2286 17.9513C15.229 17.9513 15.2294 17.9513 15.2298 17.9513C15.2302 17.9513 15.2307 17.9513 15.2311 17.9513C15.2315 17.9513 15.2319 17.9513 15.2324 17.9513C15.2328 17.9513 15.2332 17.9513 15.2336 17.9513C15.234 17.9513 15.2345 17.9513 15.2349 17.9513C15.2353 17.9513 15.2357 17.9513 15.2361 17.9513C15.2366 17.9513 15.237 17.9513 15.2374 17.9513C15.2378 17.9513 15.2383 17.9513 15.2387 17.9513C15.2391 17.9513 15.2395 17.9513 15.2399 17.9513C15.2404 17.9513 15.2408 17.9513 15.2412 17.9513C15.2416 17.9513 15.2421 17.9513 15.2425 17.9513C15.2429 17.9513 15.2433 17.9513 15.2437 17.9513C15.2442 17.9513 15.2446 17.9513 15.245 17.9513C15.2454 17.9513 15.2459 17.9513 15.2463 17.9513C15.2467 17.9513 15.2471 17.9513 15.2476 17.9513C15.248 17.9513 15.2484 17.9513 15.2488 17.9513C15.2492 17.9513 15.2497 17.9513 15.2501 17.9513C15.2505 17.9513 15.2509 17.9513 15.2514 17.9513C15.2518 17.9513 15.2522 17.9513 15.2526 17.9513C15.2531 17.9513 15.2535 17.9513 15.2539 17.9513C15.2543 17.9513 15.2548 17.9513 15.2552 17.9513C15.2556 17.9513 15.256 17.9513 15.2565 17.9513C15.2569 17.9513 15.2573 17.9513 15.2577 17.9513C15.2581 17.9513 15.2586 17.9513 15.259 17.9513C15.2594 17.9513 15.2598 17.9513 15.2603 17.9513C15.2607 17.9513 15.2611 17.9513 15.2615 17.9513C15.262 17.9513 15.2624 17.9513 15.2628 17.9513C15.2632 17.9513 15.2637 17.9513 15.2641 17.9513C15.2645 17.9513 15.2649 17.9513 15.2654 17.9513C15.2658 17.9513 15.2662 17.9513 15.2666 17.9513C15.2671 17.9513 15.2675 17.9513 15.2679 17.9513C15.2683 17.9513 15.2688 17.9513 15.2692 17.9513C15.2696 17.9513 15.27 17.9513 15.2705 17.9513C15.2709 17.9513 15.2713 17.9513 15.2717 17.9513C15.2722 17.9513 15.2726 17.9513 15.273 17.9513C15.2734 17.9513 15.2739 17.9513 15.2743 17.9513C15.2747 17.9513 15.2752 17.9513 15.2756 17.9513C15.276 17.9513 15.2764 17.9513 15.2769 17.9513C15.2773 17.9513 15.2777 17.9513 15.2781 17.9513C15.2786 17.9513 15.279 17.9513 15.2794 17.9513C15.2798 17.9513 15.2803 17.9513 15.2807 17.9513C15.2811 17.9513 15.2815 17.9513 15.282 17.9513C15.2824 17.9513 15.2828 17.9513 15.2833 17.9513C15.2837 17.9513 15.2841 17.9513 15.2845 17.9513C15.285 17.9513 15.2854 17.9513 15.2858 17.9513C15.2862 17.9513 15.2867 17.9513 15.2871 17.9513C15.2875 17.9513 15.288 17.9513 15.2884 17.9513C15.2888 17.9513 15.2892 17.9513 15.2897 17.9513C15.2901 17.9513 15.2905 17.9513 15.2909 17.9513C15.2914 17.9513 15.2918 17.9513 15.2922 17.9513C15.2927 17.9513 15.2931 17.9513 15.2935 17.9513C15.2939 17.9513 15.2944 17.9513 15.2948 17.9513C15.2952 17.9513 15.2957 17.9513 15.2961 17.9513C15.2965 17.9513 15.2969 17.9513 15.2974 17.9513C15.2978 17.9513 15.2982 17.9513 15.2987 17.9513C15.2991 17.9513 15.2995 17.9513 15.2999 17.9513C15.3004 17.9513 15.3008 17.9513 15.3012 17.9513C15.3017 17.9513 15.3021 17.9513 15.3025 17.9513C15.3029 17.9513 15.3034 17.9513 15.3038 17.9513C15.3042 17.9513 15.3047 17.9513 15.3051 17.9513C15.3055 17.9513 15.3059 17.9513 15.3064 17.9513C15.3068 17.9513 15.3072 17.9513 15.3077 17.9513C15.3081 17.9513 15.3085 17.9513 15.309 17.9513C15.3094 17.9513 15.3098 17.9513 15.3102 17.9513C15.3107 17.9513 15.3111 17.9513 15.3115 17.9513C15.312 17.9513 15.3124 17.9513 15.3128 17.9513C15.3133 17.9513 15.3137 17.9513 15.3141 17.9513C15.3145 17.9513 15.315 17.9513 15.3154 17.9513C15.3158 17.9513 15.3163 17.9513 15.3167 17.9513C15.3171 17.9513 15.3176 17.9513 15.318 17.9513C15.3184 17.9513 15.3188 17.9513 15.3193 17.9513C15.3197 17.9513 15.3201 17.9513 15.3206 17.9513C15.321 17.9513 15.3214 17.9513 15.3219 17.9513C15.3223 17.9513 15.3227 17.9513 15.3232 17.9513C15.3236 17.9513 15.324 17.9513 15.3244 17.9513C15.3249 17.9513 15.3253 17.9513 15.3257 17.9513C15.3262 17.9513 15.3266 17.9513 15.327 17.9513C15.3275 17.9513 15.3279 17.9513 15.3283 17.9513C15.3288 17.9513 15.3292 17.9513 15.3296 17.9513C15.3301 17.9513 15.3305 17.9513 15.3309 17.9513C15.3314 17.9513 15.3318 17.9513 15.3322 17.9513C15.3327 17.9513 15.3331 17.9513 15.3335 17.9513C15.3339 17.9513 15.3344 17.9513 15.3348 17.9513C15.3352 17.9513 15.3357 17.9513 15.3361 17.9513C15.3365 17.9513 15.337 17.9513 15.3374 17.9513C15.3378 17.9513 15.3383 17.9513 15.3387 17.9513C15.3391 17.9513 15.3396 17.9513 15.34 17.9513C15.3404 17.9513 15.3409 17.9513 15.3413 17.9513C15.3417 17.9513 15.3422 17.9513 15.3426 17.9513C15.343 17.9513 15.3435 17.9513 15.3439 17.9513C15.3443 17.9513 15.3448 17.9513 15.3452 17.9513C15.3456 17.9513 15.3461 17.9513 15.3465 17.9513C15.3469 17.9513 15.3474 17.9513 15.3478 17.9513C15.3482 17.9513 15.3487 17.9513 15.3491 17.9513C15.3495 17.9513 15.35 17.9513 15.3504 17.9513C15.3508 17.9513 15.3513 17.9513 15.3517 17.9513C15.3521 17.9513 15.3526 17.9513 15.353 17.9513C15.3534 17.9513 15.3539 17.9513 15.3543 17.9513C15.3548 17.9513 15.3552 17.9513 15.3556 17.9513C15.3561 17.9513 15.3565 17.9513 15.3569 17.9513C15.3574 17.9513 15.3578 17.9513 15.3582 17.9513C15.3587 17.9513 15.3591 17.9513 15.3595 17.9513C15.36 17.9513 15.3604 17.9513 15.3608 17.9513C15.3613 17.9513 15.3617 17.9513 15.3621 17.9513C15.3626 17.9513 15.363 17.9513 15.3635 17.9513C15.3639 17.9513 15.3643 17.9513 15.3648 17.9513C15.3652 17.9513 15.3656 17.9513 15.3661 17.9513C15.3665 17.9513 15.3669 17.9513 15.3674 17.9513C15.3678 17.9513 15.3682 17.9513 15.3687 17.9513C15.3691 17.9513 15.3696 17.9513 15.37 17.9513C15.3704 17.9513 15.3709 17.9513 15.3713 17.9513C15.3717 17.9513 15.3722 17.9513 15.3726 17.9513C15.373 17.9513 15.3735 17.9513 15.3739 17.9513C15.3744 17.9513 15.3748 17.9513 15.3752 17.9513C15.3757 17.9513 15.3761 17.9513 15.3765 17.9513C15.377 17.9513 15.3774 17.9513 15.3778 17.9513C15.3783 17.9513 15.3787 17.9513 15.3792 17.9513C15.3796 17.9513 15.38 17.9513 15.3805 17.9513C15.3809 17.9513 15.3813 17.9513 15.3818 17.9513C15.3822 17.9513 15.3827 17.9513 15.3831 17.9513C15.3835 17.9513 15.384 17.9513 15.3844 17.9513C15.3848 17.9513 15.3853 17.9513 15.3857 17.9513C15.3862 17.9513 15.3866 17.9513 15.387 17.9513V16.5513C15.3866 16.5513 15.3862 16.5513 15.3857 16.5513C15.3853 16.5513 15.3848 16.5513 15.3844 16.5513C15.384 16.5513 15.3835 16.5513 15.3831 16.5513C15.3827 16.5513 15.3822 16.5513 15.3818 16.5513C15.3813 16.5513 15.3809 16.5513 15.3805 16.5513C15.38 16.5513 15.3796 16.5513 15.3792 16.5513C15.3787 16.5513 15.3783 16.5513 15.3778 16.5513C15.3774 16.5513 15.377 16.5513 15.3765 16.5513C15.3761 16.5513 15.3757 16.5513 15.3752 16.5513C15.3748 16.5513 15.3744 16.5513 15.3739 16.5513C15.3735 16.5513 15.373 16.5513 15.3726 16.5513C15.3722 16.5513 15.3717 16.5513 15.3713 16.5513C15.3709 16.5513 15.3704 16.5513 15.37 16.5513C15.3696 16.5513 15.3691 16.5513 15.3687 16.5513C15.3682 16.5513 15.3678 16.5513 15.3674 16.5513C15.3669 16.5513 15.3665 16.5513 15.3661 16.5513C15.3656 16.5513 15.3652 16.5513 15.3648 16.5513C15.3643 16.5513 15.3639 16.5513 15.3635 16.5513C15.363 16.5513 15.3626 16.5513 15.3621 16.5513C15.3617 16.5513 15.3613 16.5513 15.3608 16.5513C15.3604 16.5513 15.36 16.5513 15.3595 16.5513C15.3591 16.5513 15.3587 16.5513 15.3582 16.5513C15.3578 16.5513 15.3574 16.5513 15.3569 16.5513C15.3565 16.5513 15.3561 16.5513 15.3556 16.5513C15.3552 16.5513 15.3548 16.5513 15.3543 16.5513C15.3539 16.5513 15.3534 16.5513 15.353 16.5513C15.3526 16.5513 15.3521 16.5513 15.3517 16.5513C15.3513 16.5513 15.3508 16.5513 15.3504 16.5513C15.35 16.5513 15.3495 16.5513 15.3491 16.5513C15.3487 16.5513 15.3482 16.5513 15.3478 16.5513C15.3474 16.5513 15.3469 16.5513 15.3465 16.5513C15.3461 16.5513 15.3456 16.5513 15.3452 16.5513C15.3448 16.5513 15.3443 16.5513 15.3439 16.5513C15.3435 16.5513 15.343 16.5513 15.3426 16.5513C15.3422 16.5513 15.3417 16.5513 15.3413 16.5513C15.3409 16.5513 15.3404 16.5513 15.34 16.5513C15.3396 16.5513 15.3391 16.5513 15.3387 16.5513C15.3383 16.5513 15.3378 16.5513 15.3374 16.5513C15.337 16.5513 15.3365 16.5513 15.3361 16.5513C15.3357 16.5513 15.3352 16.5513 15.3348 16.5513C15.3344 16.5513 15.3339 16.5513 15.3335 16.5513C15.3331 16.5513 15.3327 16.5513 15.3322 16.5513C15.3318 16.5513 15.3314 16.5513 15.3309 16.5513C15.3305 16.5513 15.3301 16.5513 15.3296 16.5513C15.3292 16.5513 15.3288 16.5513 15.3283 16.5513C15.3279 16.5513 15.3275 16.5513 15.327 16.5513C15.3266 16.5513 15.3262 16.5513 15.3257 16.5513C15.3253 16.5513 15.3249 16.5513 15.3244 16.5513C15.324 16.5513 15.3236 16.5513 15.3232 16.5513C15.3227 16.5513 15.3223 16.5513 15.3219 16.5513C15.3214 16.5513 15.321 16.5513 15.3206 16.5513C15.3201 16.5513 15.3197 16.5513 15.3193 16.5513C15.3188 16.5513 15.3184 16.5513 15.318 16.5513C15.3176 16.5513 15.3171 16.5513 15.3167 16.5513C15.3163 16.5513 15.3158 16.5513 15.3154 16.5513C15.315 16.5513 15.3145 16.5513 15.3141 16.5513C15.3137 16.5513 15.3133 16.5513 15.3128 16.5513C15.3124 16.5513 15.312 16.5513 15.3115 16.5513C15.3111 16.5513 15.3107 16.5513 15.3102 16.5513C15.3098 16.5513 15.3094 16.5513 15.309 16.5513C15.3085 16.5513 15.3081 16.5513 15.3077 16.5513C15.3072 16.5513 15.3068 16.5513 15.3064 16.5513C15.3059 16.5513 15.3055 16.5513 15.3051 16.5513C15.3047 16.5513 15.3042 16.5513 15.3038 16.5513C15.3034 16.5513 15.3029 16.5513 15.3025 16.5513C15.3021 16.5513 15.3017 16.5513 15.3012 16.5513C15.3008 16.5513 15.3004 16.5513 15.2999 16.5513C15.2995 16.5513 15.2991 16.5513 15.2987 16.5513C15.2982 16.5513 15.2978 16.5513 15.2974 16.5513C15.2969 16.5513 15.2965 16.5513 15.2961 16.5513C15.2957 16.5513 15.2952 16.5513 15.2948 16.5513C15.2944 16.5513 15.2939 16.5513 15.2935 16.5513C15.2931 16.5513 15.2927 16.5513 15.2922 16.5513C15.2918 16.5513 15.2914 16.5513 15.2909 16.5513C15.2905 16.5513 15.2901 16.5513 15.2897 16.5513C15.2892 16.5513 15.2888 16.5513 15.2884 16.5513C15.288 16.5513 15.2875 16.5513 15.2871 16.5513C15.2867 16.5513 15.2862 16.5513 15.2858 16.5513C15.2854 16.5513 15.285 16.5513 15.2845 16.5513C15.2841 16.5513 15.2837 16.5513 15.2833 16.5513C15.2828 16.5513 15.2824 16.5513 15.282 16.5513C15.2815 16.5513 15.2811 16.5513 15.2807 16.5513C15.2803 16.5513 15.2798 16.5513 15.2794 16.5513C15.279 16.5513 15.2786 16.5513 15.2781 16.5513C15.2777 16.5513 15.2773 16.5513 15.2769 16.5513C15.2764 16.5513 15.276 16.5513 15.2756 16.5513C15.2752 16.5513 15.2747 16.5513 15.2743 16.5513C15.2739 16.5513 15.2734 16.5513 15.273 16.5513C15.2726 16.5513 15.2722 16.5513 15.2717 16.5513C15.2713 16.5513 15.2709 16.5513 15.2705 16.5513C15.27 16.5513 15.2696 16.5513 15.2692 16.5513C15.2688 16.5513 15.2683 16.5513 15.2679 16.5513C15.2675 16.5513 15.2671 16.5513 15.2666 16.5513C15.2662 16.5513 15.2658 16.5513 15.2654 16.5513C15.2649 16.5513 15.2645 16.5513 15.2641 16.5513C15.2637 16.5513 15.2632 16.5513 15.2628 16.5513C15.2624 16.5513 15.262 16.5513 15.2615 16.5513C15.2611 16.5513 15.2607 16.5513 15.2603 16.5513C15.2598 16.5513 15.2594 16.5513 15.259 16.5513C15.2586 16.5513 15.2581 16.5513 15.2577 16.5513C15.2573 16.5513 15.2569 16.5513 15.2565 16.5513C15.256 16.5513 15.2556 16.5513 15.2552 16.5513C15.2548 16.5513 15.2543 16.5513 15.2539 16.5513C15.2535 16.5513 15.2531 16.5513 15.2526 16.5513C15.2522 16.5513 15.2518 16.5513 15.2514 16.5513C15.2509 16.5513 15.2505 16.5513 15.2501 16.5513C15.2497 16.5513 15.2492 16.5513 15.2488 16.5513C15.2484 16.5513 15.248 16.5513 15.2476 16.5513C15.2471 16.5513 15.2467 16.5513 15.2463 16.5513C15.2459 16.5513 15.2454 16.5513 15.245 16.5513C15.2446 16.5513 15.2442 16.5513 15.2437 16.5513C15.2433 16.5513 15.2429 16.5513 15.2425 16.5513C15.2421 16.5513 15.2416 16.5513 15.2412 16.5513C15.2408 16.5513 15.2404 16.5513 15.2399 16.5513C15.2395 16.5513 15.2391 16.5513 15.2387 16.5513C15.2383 16.5513 15.2378 16.5513 15.2374 16.5513C15.237 16.5513 15.2366 16.5513 15.2361 16.5513C15.2357 16.5513 15.2353 16.5513 15.2349 16.5513C15.2345 16.5513 15.234 16.5513 15.2336 16.5513C15.2332 16.5513 15.2328 16.5513 15.2324 16.5513C15.2319 16.5513 15.2315 16.5513 15.2311 16.5513C15.2307 16.5513 15.2302 16.5513 15.2298 16.5513C15.2294 16.5513 15.229 16.5513 15.2286 16.5513C15.2281 16.5513 15.2277 16.5513 15.2273 16.5513C15.2269 16.5513 15.2265 16.5513 15.226 16.5513C15.2256 16.5513 15.2252 16.5513 15.2248 16.5513C15.2244 16.5513 15.2239 16.5513 15.2235 16.5513C15.2231 16.5513 15.2227 16.5513 15.2223 16.5513C15.2218 16.5513 15.2214 16.5513 15.221 16.5513C15.2206 16.5513 15.2202 16.5513 15.2197 16.5513C15.2193 16.5513 15.2189 16.5513 15.2185 16.5513C15.2181 16.5513 15.2176 16.5513 15.2172 16.5513C15.2168 16.5513 15.2164 16.5513 15.216 16.5513C15.2155 16.5513 15.2151 16.5513 15.2147 16.5513C15.2143 16.5513 15.2139 16.5513 15.2134 16.5513C15.213 16.5513 15.2126 16.5513 15.2122 16.5513C15.2118 16.5513 15.2113 16.5513 15.2109 16.5513C15.2105 16.5513 15.2101 16.5513 15.2097 16.5513C15.2092 16.5513 15.2088 16.5513 15.2084 16.5513C15.208 16.5513 15.2076 16.5513 15.2071 16.5513C15.2067 16.5513 15.2063 16.5513 15.2059 16.5513C15.2055 16.5513 15.2051 16.5513 15.2046 16.5513C15.2042 16.5513 15.2038 16.5513 15.2034 16.5513C15.203 16.5513 15.2025 16.5513 15.2021 16.5513C15.2017 16.5513 15.2013 16.5513 15.2009 16.5513C15.2005 16.5513 15.2 16.5513 15.1996 16.5513C15.1992 16.5513 15.1988 16.5513 15.1984 16.5513C15.1979 16.5513 15.1975 16.5513 15.1971 16.5513C15.1967 16.5513 15.1963 16.5513 15.1959 16.5513C15.1954 16.5513 15.195 16.5513 15.1946 16.5513C15.1942 16.5513 15.1938 16.5513 15.1934 16.5513C15.1929 16.5513 15.1925 16.5513 15.1921 16.5513C15.1917 16.5513 15.1913 16.5513 15.1909 16.5513C15.1904 16.5513 15.19 16.5513 15.1896 16.5513C15.1892 16.5513 15.1888 16.5513 15.1884 16.5513C15.1879 16.5513 15.1875 16.5513 15.1871 16.5513C15.1867 16.5513 15.1863 16.5513 15.1859 16.5513C15.1854 16.5513 15.185 16.5513 15.1846 16.5513C15.1842 16.5513 15.1838 16.5513 15.1834 16.5513C15.1829 16.5513 15.1825 16.5513 15.1821 16.5513C15.1817 16.5513 15.1813 16.5513 15.1809 16.5513C15.1804 16.5513 15.18 16.5513 15.1796 16.5513C15.1792 16.5513 15.1788 16.5513 15.1784 16.5513C15.178 16.5513 15.1775 16.5513 15.1771 16.5513C15.1767 16.5513 15.1763 16.5513 15.1759 16.5513C15.1755 16.5513 15.175 16.5513 15.1746 16.5513C15.1742 16.5513 15.1738 16.5513 15.1734 16.5513C15.173 16.5513 15.1726 16.5513 15.1721 16.5513C15.1717 16.5513 15.1713 16.5513 15.1709 16.5513C15.1705 16.5513 15.1701 16.5513 15.1697 16.5513C15.1692 16.5513 15.1688 16.5513 15.1684 16.5513C15.168 16.5513 15.1676 16.5513 15.1672 16.5513C15.1667 16.5513 15.1663 16.5513 15.1659 16.5513C15.1655 16.5513 15.1651 16.5513 15.1647 16.5513C15.1643 16.5513 15.1639 16.5513 15.1634 16.5513C15.163 16.5513 15.1626 16.5513 15.1622 16.5513C15.1618 16.5513 15.1614 16.5513 15.161 16.5513C15.1605 16.5513 15.1601 16.5513 15.1597 16.5513C15.1593 16.5513 15.1589 16.5513 15.1585 16.5513C15.1581 16.5513 15.1576 16.5513 15.1572 16.5513C15.1568 16.5513 15.1564 16.5513 15.156 16.5513C15.1556 16.5513 15.1552 16.5513 15.1548 16.5513C15.1543 16.5513 15.1539 16.5513 15.1535 16.5513C15.1531 16.5513 15.1527 16.5513 15.1523 16.5513C15.1519 16.5513 15.1515 16.5513 15.151 16.5513C15.1506 16.5513 15.1502 16.5513 15.1498 16.5513C15.1494 16.5513 15.149 16.5513 15.1486 16.5513C15.1482 16.5513 15.1477 16.5513 15.1473 16.5513C15.1469 16.5513 15.1465 16.5513 15.1461 16.5513C15.1457 16.5513 15.1453 16.5513 15.1449 16.5513C15.1444 16.5513 15.144 16.5513 15.1436 16.5513C15.1432 16.5513 15.1428 16.5513 15.1424 16.5513C15.142 16.5513 15.1416 16.5513 15.1412 16.5513C15.1407 16.5513 15.1403 16.5513 15.1399 16.5513C15.1395 16.5513 15.1391 16.5513 15.1387 16.5513C15.1383 16.5513 15.1379 16.5513 15.1375 16.5513C15.137 16.5513 15.1366 16.5513 15.1362 16.5513C15.1358 16.5513 15.1354 16.5513 15.135 16.5513C15.1346 16.5513 15.1342 16.5513 15.1338 16.5513C15.1333 16.5513 15.1329 16.5513 15.1325 16.5513C15.1321 16.5513 15.1317 16.5513 15.1313 16.5513C15.1309 16.5513 15.1305 16.5513 15.1301 16.5513C15.1296 16.5513 15.1292 16.5513 15.1288 16.5513C15.1284 16.5513 15.128 16.5513 15.1276 16.5513C15.1272 16.5513 15.1268 16.5513 15.1264 16.5513C15.126 16.5513 15.1255 16.5513 15.1251 16.5513C15.1247 16.5513 15.1243 16.5513 15.1239 16.5513C15.1235 16.5513 15.1231 16.5513 15.1227 16.5513C15.1223 16.5513 15.1219 16.5513 15.1215 16.5513C15.121 16.5513 15.1206 16.5513 15.1202 16.5513C15.1198 16.5513 15.1194 16.5513 15.119 16.5513C15.1186 16.5513 15.1182 16.5513 15.1178 16.5513C15.1174 16.5513 15.117 16.5513 15.1165 16.5513C15.1161 16.5513 15.1157 16.5513 15.1153 16.5513C15.1149 16.5513 15.1145 16.5513 15.1141 16.5513C15.1137 16.5513 15.1133 16.5513 15.1129 16.5513C15.1125 16.5513 15.1121 16.5513 15.1116 16.5513C15.1112 16.5513 15.1108 16.5513 15.1104 16.5513C15.11 16.5513 15.1096 16.5513 15.1092 16.5513C15.1088 16.5513 15.1084 16.5513 15.108 16.5513C15.1076 16.5513 15.1072 16.5513 15.1068 16.5513C15.1063 16.5513 15.1059 16.5513 15.1055 16.5513C15.1051 16.5513 15.1047 16.5513 15.1043 16.5513C15.1039 16.5513 15.1035 16.5513 15.1031 16.5513C15.1027 16.5513 15.1023 16.5513 15.1019 16.5513C15.1015 16.5513 15.101 16.5513 15.1006 16.5513C15.1002 16.5513 15.0998 16.5513 15.0994 16.5513C15.099 16.5513 15.0986 16.5513 15.0982 16.5513C15.0978 16.5513 15.0974 16.5513 15.097 16.5513C15.0966 16.5513 15.0962 16.5513 15.0958 16.5513C15.0954 16.5513 15.0949 16.5513 15.0945 16.5513C15.0941 16.5513 15.0937 16.5513 15.0933 16.5513C15.0929 16.5513 15.0925 16.5513 15.0921 16.5513C15.0917 16.5513 15.0913 16.5513 15.0909 16.5513C15.0905 16.5513 15.0901 16.5513 15.0897 16.5513C15.0893 16.5513 15.0889 16.5513 15.0885 16.5513C15.088 16.5513 15.0876 16.5513 15.0872 16.5513C15.0868 16.5513 15.0864 16.5513 15.086 16.5513C15.0856 16.5513 15.0852 16.5513 15.0848 16.5513C15.0844 16.5513 15.084 16.5513 15.0836 16.5513C15.0832 16.5513 15.0828 16.5513 15.0824 16.5513C15.082 16.5513 15.0816 16.5513 15.0812 16.5513C15.0808 16.5513 15.0804 16.5513 15.0799 16.5513C15.0795 16.5513 15.0791 16.5513 15.0787 16.5513C15.0783 16.5513 15.0779 16.5513 15.0775 16.5513C15.0771 16.5513 15.0767 16.5513 15.0763 16.5513C15.0759 16.5513 15.0755 16.5513 15.0751 16.5513C15.0747 16.5513 15.0743 16.5513 15.0739 16.5513C15.0735 16.5513 15.0731 16.5513 15.0727 16.5513C15.0723 16.5513 15.0719 16.5513 15.0715 16.5513C15.0711 16.5513 15.0707 16.5513 15.0702 16.5513C15.0698 16.5513 15.0694 16.5513 15.069 16.5513C15.0686 16.5513 15.0682 16.5513 15.0678 16.5513C15.0674 16.5513 15.067 16.5513 15.0666 16.5513C15.0662 16.5513 15.0658 16.5513 15.0654 16.5513C15.065 16.5513 15.0646 16.5513 15.0642 16.5513C15.0638 16.5513 15.0634 16.5513 15.063 16.5513C15.0626 16.5513 15.0622 16.5513 15.0618 16.5513C15.0614 16.5513 15.061 16.5513 15.0606 16.5513C15.0602 16.5513 15.0598 16.5513 15.0594 16.5513C15.059 16.5513 15.0586 16.5513 15.0582 16.5513C15.0578 16.5513 15.0574 16.5513 15.057 16.5513C15.0566 16.5513 15.0562 16.5513 15.0558 16.5513C15.0554 16.5513 15.0549 16.5513 15.0545 16.5513C15.0541 16.5513 15.0537 16.5513 15.0533 16.5513C15.0529 16.5513 15.0525 16.5513 15.0521 16.5513C15.0517 16.5513 15.0513 16.5513 15.0509 16.5513C15.0505 16.5513 15.0501 16.5513 15.0497 16.5513C15.0493 16.5513 15.0489 16.5513 15.0485 16.5513C15.0481 16.5513 15.0477 16.5513 15.0473 16.5513C15.0469 16.5513 15.0465 16.5513 15.0461 16.5513C15.0457 16.5513 15.0453 16.5513 15.0449 16.5513C15.0445 16.5513 15.0441 16.5513 15.0437 16.5513C15.0433 16.5513 15.0429 16.5513 15.0425 16.5513C15.0421 16.5513 15.0417 16.5513 15.0413 16.5513C15.0409 16.5513 15.0405 16.5513 15.0401 16.5513C15.0397 16.5513 15.0393 16.5513 15.0389 16.5513C15.0385 16.5513 15.0381 16.5513 15.0377 16.5513C15.0373 16.5513 15.0369 16.5513 15.0365 16.5513C15.0361 16.5513 15.0357 16.5513 15.0353 16.5513C15.0349 16.5513 15.0345 16.5513 15.0341 16.5513C15.0337 16.5513 15.0333 16.5513 15.0329 16.5513C15.0325 16.5513 15.0321 16.5513 15.0317 16.5513C15.0313 16.5513 15.0309 16.5513 15.0305 16.5513C15.0301 16.5513 15.0297 16.5513 15.0293 16.5513C15.0289 16.5513 15.0285 16.5513 15.0281 16.5513C15.0277 16.5513 15.0273 16.5513 15.0269 16.5513C15.0265 16.5513 15.0261 16.5513 15.0257 16.5513C15.0253 16.5513 15.0249 16.5513 15.0245 16.5513C15.0241 16.5513 15.0237 16.5513 15.0233 16.5513C15.023 16.5513 15.0226 16.5513 15.0222 16.5513C15.0218 16.5513 15.0214 16.5513 15.021 16.5513C15.0206 16.5513 15.0202 16.5513 15.0198 16.5513C15.0194 16.5513 15.019 16.5513 15.0186 16.5513C15.0182 16.5513 15.0178 16.5513 15.0174 16.5513C15.017 16.5513 15.0166 16.5513 15.0162 16.5513C15.0158 16.5513 15.0154 16.5513 15.015 16.5513C15.0146 16.5513 15.0142 16.5513 15.0138 16.5513C15.0134 16.5513 15.013 16.5513 15.0126 16.5513C15.0122 16.5513 15.0118 16.5513 15.0114 16.5513C15.011 16.5513 15.0106 16.5513 15.0102 16.5513C15.0098 16.5513 15.0094 16.5513 15.009 16.5513C15.0086 16.5513 15.0083 16.5513 15.0079 16.5513C15.0075 16.5513 15.0071 16.5513 15.0067 16.5513C15.0063 16.5513 15.0059 16.5513 15.0055 16.5513C15.0051 16.5513 15.0047 16.5513 15.0043 16.5513C15.0039 16.5513 15.0035 16.5513 15.0031 16.5513C15.0027 16.5513 15.0023 16.5513 15.0019 16.5513C15.0015 16.5513 15.0011 16.5513 15.0007 16.5513C15.0003 16.5513 14.9999 16.5513 14.9995 16.5513C14.9991 16.5513 14.9988 16.5513 14.9984 16.5513C14.998 16.5513 14.9976 16.5513 14.9972 16.5513C14.9968 16.5513 14.9964 16.5513 14.996 16.5513C14.9956 16.5513 14.9952 16.5513 14.9948 16.5513C14.9944 16.5513 14.994 16.5513 14.9936 16.5513C14.9932 16.5513 14.9928 16.5513 14.9924 16.5513C14.992 16.5513 14.9916 16.5513 14.9912 16.5513C14.9909 16.5513 14.9905 16.5513 14.9901 16.5513C14.9897 16.5513 14.9893 16.5513 14.9889 16.5513C14.9885 16.5513 14.9881 16.5513 14.9877 16.5513C14.9873 16.5513 14.9869 16.5513 14.9865 16.5513C14.9861 16.5513 14.9857 16.5513 14.9853 16.5513C14.9849 16.5513 14.9845 16.5513 14.9842 16.5513C14.9838 16.5513 14.9834 16.5513 14.983 16.5513C14.9826 16.5513 14.9822 16.5513 14.9818 16.5513C14.9814 16.5513 14.981 16.5513 14.9806 16.5513C14.9802 16.5513 14.9798 16.5513 14.9794 16.5513C14.979 16.5513 14.9786 16.5513 14.9783 16.5513C14.9779 16.5513 14.9775 16.5513 14.9771 16.5513C14.9767 16.5513 14.9763 16.5513 14.9759 16.5513C14.9755 16.5513 14.9751 16.5513 14.9747 16.5513C14.9743 16.5513 14.9739 16.5513 14.9735 16.5513C14.9731 16.5513 14.9728 16.5513 14.9724 16.5513C14.972 16.5513 14.9716 16.5513 14.9712 16.5513C14.9708 16.5513 14.9704 16.5513 14.97 16.5513C14.9696 16.5513 14.9692 16.5513 14.9688 16.5513C14.9684 16.5513 14.9681 16.5513 14.9677 16.5513C14.9673 16.5513 14.9669 16.5513 14.9665 16.5513C14.9661 16.5513 14.9657 16.5513 14.9653 16.5513C14.9649 16.5513 14.9645 16.5513 14.9641 16.5513C14.9637 16.5513 14.9634 16.5513 14.963 16.5513C14.9626 16.5513 14.9622 16.5513 14.9618 16.5513C14.9614 16.5513 14.961 16.5513 14.9606 16.5513C14.9602 16.5513 14.9598 16.5513 14.9594 16.5513C14.9591 16.5513 14.9587 16.5513 14.9583 16.5513C14.9579 16.5513 14.9575 16.5513 14.9571 16.5513C14.9567 16.5513 14.9563 16.5513 14.9559 16.5513C14.9555 16.5513 14.9551 16.5513 14.9548 16.5513C14.9544 16.5513 14.954 16.5513 14.9536 16.5513C14.9532 16.5513 14.9528 16.5513 14.9524 16.5513C14.952 16.5513 14.9516 16.5513 14.9512 16.5513C14.9509 16.5513 14.9505 16.5513 14.9501 16.5513C14.9497 16.5513 14.9493 16.5513 14.9489 16.5513C14.9485 16.5513 14.9481 16.5513 14.9477 16.5513C14.9474 16.5513 14.947 16.5513 14.9466 16.5513C14.9462 16.5513 14.9458 16.5513 14.9454 16.5513C14.945 16.5513 14.9446 16.5513 14.9442 16.5513C14.9438 16.5513 14.9435 16.5513 14.9431 16.5513C14.9427 16.5513 14.9423 16.5513 14.9419 16.5513C14.9415 16.5513 14.9411 16.5513 14.9407 16.5513C14.9403 16.5513 14.94 16.5513 14.9396 16.5513C14.9392 16.5513 14.9388 16.5513 14.9384 16.5513C14.938 16.5513 14.9376 16.5513 14.9372 16.5513C14.9369 16.5513 14.9365 16.5513 14.9361 16.5513C14.9357 16.5513 14.9353 16.5513 14.9349 16.5513C14.9345 16.5513 14.9341 16.5513 14.9337 16.5513C14.9334 16.5513 14.933 16.5513 14.9326 16.5513C14.9322 16.5513 14.9318 16.5513 14.9314 16.5513C14.931 16.5513 14.9306 16.5513 14.9303 16.5513C14.9299 16.5513 14.9295 16.5513 14.9291 16.5513C14.9287 16.5513 14.9283 16.5513 14.9279 16.5513C14.9276 16.5513 14.9272 16.5513 14.9268 16.5513C14.9264 16.5513 14.926 16.5513 14.9256 16.5513C14.9252 16.5513 14.9248 16.5513 14.9245 16.5513C14.9241 16.5513 14.9237 16.5513 14.9233 16.5513C14.9229 16.5513 14.9225 16.5513 14.9221 16.5513C14.9218 16.5513 14.9214 16.5513 14.921 16.5513C14.9206 16.5513 14.9202 16.5513 14.9198 16.5513C14.9194 16.5513 14.919 16.5513 14.9187 16.5513C14.9183 16.5513 14.9179 16.5513 14.9175 16.5513C14.9171 16.5513 14.9167 16.5513 14.9163 16.5513C14.916 16.5513 14.9156 16.5513 14.9152 16.5513C14.9148 16.5513 14.9144 16.5513 14.914 16.5513C14.9136 16.5513 14.9133 16.5513 14.9129 16.5513C14.9125 16.5513 14.9121 16.5513 14.9117 16.5513C14.9113 16.5513 14.9109 16.5513 14.9106 16.5513C14.9102 16.5513 14.9098 16.5513 14.9094 16.5513C14.909 16.5513 14.9086 16.5513 14.9083 16.5513C14.9079 16.5513 14.9075 16.5513 14.9071 16.5513C14.9067 16.5513 14.9063 16.5513 14.9059 16.5513C14.9056 16.5513 14.9052 16.5513 14.9048 16.5513C14.9044 16.5513 14.904 16.5513 14.9036 16.5513C14.9033 16.5513 14.9029 16.5513 14.9025 16.5513C14.9021 16.5513 14.9017 16.5513 14.9013 16.5513C14.901 16.5513 14.9006 16.5513 14.9002 16.5513C14.8998 16.5513 14.8994 16.5513 14.899 16.5513C14.8987 16.5513 14.8983 16.5513 14.8979 16.5513C14.8975 16.5513 14.8971 16.5513 14.8967 16.5513C14.8963 16.5513 14.896 16.5513 14.8956 16.5513C14.8952 16.5513 14.8948 16.5513 14.8944 16.5513C14.8941 16.5513 14.8937 16.5513 14.8933 16.5513C14.8929 16.5513 14.8925 16.5513 14.8921 16.5513C14.8918 16.5513 14.8914 16.5513 14.891 16.5513C14.8906 16.5513 14.8902 16.5513 14.8898 16.5513C14.8895 16.5513 14.8891 16.5513 14.8887 16.5513C14.8883 16.5513 14.8879 16.5513 14.8875 16.5513C14.8872 16.5513 14.8868 16.5513 14.8864 16.5513C14.886 16.5513 14.8856 16.5513 14.8853 16.5513C14.8849 16.5513 14.8845 16.5513 14.8841 16.5513C14.8837 16.5513 14.8833 16.5513 14.883 16.5513C14.8826 16.5513 14.8822 16.5513 14.8818 16.5513C14.8814 16.5513 14.8811 16.5513 14.8807 16.5513C14.8803 16.5513 14.8799 16.5513 14.8795 16.5513C14.8791 16.5513 14.8788 16.5513 14.8784 16.5513C14.878 16.5513 14.8776 16.5513 14.8772 16.5513C14.8769 16.5513 14.8765 16.5513 14.8761 16.5513C14.8757 16.5513 14.8753 16.5513 14.875 16.5513C14.8746 16.5513 14.8742 16.5513 14.8738 16.5513C14.8734 16.5513 14.873 16.5513 14.8727 16.5513C14.8723 16.5513 14.8719 16.5513 14.8715 16.5513C14.8711 16.5513 14.8708 16.5513 14.8704 16.5513C14.87 16.5513 14.8696 16.5513 14.8692 16.5513C14.8689 16.5513 14.8685 16.5513 14.8681 16.5513C14.8677 16.5513 14.8673 16.5513 14.867 16.5513C14.8666 16.5513 14.8662 16.5513 14.8658 16.5513C14.8654 16.5513 14.8651 16.5513 14.8647 16.5513C14.8643 16.5513 14.8639 16.5513 14.8635 16.5513C14.8632 16.5513 14.8628 16.5513 14.8624 16.5513C14.862 16.5513 14.8617 16.5513 14.8613 16.5513C14.8609 16.5513 14.8605 16.5513 14.8601 16.5513C14.8598 16.5513 14.8594 16.5513 14.859 16.5513C14.8586 16.5513 14.8582 16.5513 14.8579 16.5513C14.8575 16.5513 14.8571 16.5513 14.8567 16.5513C14.8563 16.5513 14.856 16.5513 14.8556 16.5513C14.8552 16.5513 14.8548 16.5513 14.8545 16.5513C14.8541 16.5513 14.8537 16.5513 14.8533 16.5513C14.8529 16.5513 14.8526 16.5513 14.8522 16.5513C14.8518 16.5513 14.8514 16.5513 14.8511 16.5513C14.8507 16.5513 14.8503 16.5513 14.8499 16.5513C14.8495 16.5513 14.8492 16.5513 14.8488 16.5513C14.8484 16.5513 14.848 16.5513 14.8477 16.5513C14.8473 16.5513 14.8469 16.5513 14.8465 16.5513C14.8461 16.5513 14.8458 16.5513 14.8454 16.5513C14.845 16.5513 14.8446 16.5513 14.8443 16.5513C14.8439 16.5513 14.8435 16.5513 14.8431 16.5513C14.8427 16.5513 14.8424 16.5513 14.842 16.5513C14.8416 16.5513 14.8412 16.5513 14.8409 16.5513C14.8405 16.5513 14.8401 16.5513 14.8397 16.5513C14.8394 16.5513 14.839 16.5513 14.8386 16.5513C14.8382 16.5513 14.8379 16.5513 14.8375 16.5513C14.8371 16.5513 14.8367 16.5513 14.8363 16.5513C14.836 16.5513 14.8356 16.5513 14.8352 16.5513C14.8348 16.5513 14.8345 16.5513 14.8341 16.5513C14.8337 16.5513 14.8333 16.5513 14.833 16.5513C14.8326 16.5513 14.8322 16.5513 14.8318 16.5513C14.8315 16.5513 14.8311 16.5513 14.8307 16.5513C14.8303 16.5513 14.83 16.5513 14.8296 16.5513C14.8292 16.5513 14.8288 16.5513 14.8285 16.5513C14.8281 16.5513 14.8277 16.5513 14.8273 16.5513C14.827 16.5513 14.8266 16.5513 14.8262 16.5513C14.8258 16.5513 14.8255 16.5513 14.8251 16.5513C14.8247 16.5513 14.8243 16.5513 14.824 16.5513C14.8236 16.5513 14.8232 16.5513 14.8228 16.5513C14.8225 16.5513 14.8221 16.5513 14.8217 16.5513C14.8213 16.5513 14.821 16.5513 14.8206 16.5513C14.8202 16.5513 14.8198 16.5513 14.8195 16.5513C14.8191 16.5513 14.8187 16.5513 14.8183 16.5513C14.818 16.5513 14.8176 16.5513 14.8172 16.5513C14.8168 16.5513 14.8165 16.5513 14.8161 16.5513C14.8157 16.5513 14.8154 16.5513 14.815 16.5513C14.8146 16.5513 14.8142 16.5513 14.8139 16.5513C14.8135 16.5513 14.8131 16.5513 14.8127 16.5513C14.8124 16.5513 14.812 16.5513 14.8116 16.5513C14.8112 16.5513 14.8109 16.5513 14.8105 16.5513C14.8101 16.5513 14.8098 16.5513 14.8094 16.5513C14.809 16.5513 14.8086 16.5513 14.8083 16.5513C14.8079 16.5513 14.8075 16.5513 14.8071 16.5513C14.8068 16.5513 14.8064 16.5513 14.806 16.5513C14.8057 16.5513 14.8053 16.5513 14.8049 16.5513C14.8045 16.5513 14.8042 16.5513 14.8038 16.5513C14.8034 16.5513 14.8031 16.5513 14.8027 16.5513C14.8023 16.5513 14.8019 16.5513 14.8016 16.5513C14.8012 16.5513 14.8008 16.5513 14.8004 16.5513C14.8001 16.5513 14.7997 16.5513 14.7993 16.5513C14.799 16.5513 14.7986 16.5513 14.7982 16.5513C14.7978 16.5513 14.7975 16.5513 14.7971 16.5513C14.7967 16.5513 14.7964 16.5513 14.796 16.5513C14.7956 16.5513 14.7952 16.5513 14.7949 16.5513C14.7945 16.5513 14.7941 16.5513 14.7938 16.5513C14.7934 16.5513 14.793 16.5513 14.7927 16.5513C14.7923 16.5513 14.7919 16.5513 14.7915 16.5513C14.7912 16.5513 14.7908 16.5513 14.7904 16.5513C14.7901 16.5513 14.7897 16.5513 14.7893 16.5513C14.7889 16.5513 14.7886 16.5513 14.7882 16.5513C14.7878 16.5513 14.7875 16.5513 14.7871 16.5513C14.7867 16.5513 14.7864 16.5513 14.786 16.5513C14.7856 16.5513 14.7852 16.5513 14.7849 16.5513C14.7845 16.5513 14.7841 16.5513 14.7838 16.5513C14.7834 16.5513 14.783 16.5513 14.7827 16.5513C14.7823 16.5513 14.7819 16.5513 14.7815 16.5513C14.7812 16.5513 14.7808 16.5513 14.7804 16.5513C14.7801 16.5513 14.7797 16.5513 14.7793 16.5513C14.779 16.5513 14.7786 16.5513 14.7782 16.5513C14.7779 16.5513 14.7775 16.5513 14.7771 16.5513C14.7767 16.5513 14.7764 16.5513 14.776 16.5513C14.7756 16.5513 14.7753 16.5513 14.7749 16.5513C14.7745 16.5513 14.7742 16.5513 14.7738 16.5513C14.7734 16.5513 14.7731 16.5513 14.7727 16.5513C14.7723 16.5513 14.772 16.5513 14.7716 16.5513C14.7712 16.5513 14.7709 16.5513 14.7705 16.5513C14.7701 16.5513 14.7697 16.5513 14.7694 16.5513C14.769 16.5513 14.7686 16.5513 14.7683 16.5513V17.9513ZM15.415 17.9508C15.6385 17.9419 15.8709 17.9329 16.1124 17.924L16.0606 16.5249C15.8178 16.5339 15.584 16.5429 15.3591 16.5519L15.415 17.9508ZM16.1124 17.924C16.3545 17.915 16.5966 17.906 16.8388 17.8971L16.7869 16.498C16.5448 16.507 16.3027 16.516 16.0606 16.5249L16.1124 17.924ZM16.8378 17.8971C17.0998 17.8877 17.4268 17.8692 17.8166 17.842L17.7192 16.4454C17.3378 16.472 17.028 16.4894 16.7879 16.498L16.8378 17.8971ZM17.8155 17.8421C18.208 17.8154 18.6951 17.7841 19.2771 17.7483L19.1911 16.3509C18.6073 16.3868 18.1169 16.4183 17.7203 16.4454L17.8155 17.8421ZM18.5341 17.0496V18.8655H19.9341V17.0496H18.5341ZM22.7329 17.1168H22.0329V17.8168H22.7329V17.1168ZM27.6426 17.1168H28.3426V16.4168H27.6426V17.1168ZM27.6426 19V19.7H28.3426V19H27.6426ZM20.3117 19H19.6117V19.7H20.3117V19ZM20.3117 9.58419V8.88419H19.6117V9.58419H20.3117ZM22.7329 9.58419H23.4329V8.88419H22.7329V9.58419ZM22.7329 17.8168H27.6426V16.4168H22.7329V17.8168ZM26.9426 17.1168V19H28.3426V17.1168H26.9426ZM27.6426 18.3H20.3117V19.7H27.6426V18.3ZM21.0117 19V9.58419H19.6117V19H21.0117ZM20.3117 10.2842H22.7329V8.88419H20.3117V10.2842ZM22.0329 9.58419V17.1168H23.4329V9.58419H22.0329ZM36.4159 18.5023L35.9209 18.0073V18.0073L36.4159 18.5023ZM28.9505 18.5023L28.4504 18.992L28.4555 18.9973L28.4608 19.0025L28.9505 18.5023ZM28.9505 10.0953L28.4555 9.60036V9.60036L28.9505 10.0953ZM36.4159 10.0953L35.9158 10.5851L35.9209 10.5903L35.9262 10.5955L36.4159 10.0953ZM35.3404 12.1399C35.3404 11.763 35.2457 11.3517 34.9336 11.0396C34.6215 10.7275 34.2102 10.6328 33.8333 10.6328V12.0328C33.9116 12.0328 33.9515 12.0429 33.965 12.0474C33.9751 12.0507 33.9619 12.0478 33.9436 12.0296C33.9254 12.0113 33.9225 11.9981 33.9258 12.0082C33.9303 12.0217 33.9404 12.0616 33.9404 12.1399H35.3404ZM33.8333 10.6328H31.5466V12.0328H33.8333V10.6328ZM31.5466 10.6328C31.1697 10.6328 30.7584 10.7275 30.4463 11.0396C30.1342 11.3517 30.0395 11.763 30.0395 12.1399H31.4395C31.4395 12.0616 31.4496 12.0217 31.454 12.0082C31.4574 11.9981 31.4545 12.0113 31.4363 12.0296C31.418 12.0478 31.4048 12.0507 31.4149 12.0474C31.4283 12.0429 31.4683 12.0328 31.5466 12.0328V10.6328ZM30.0395 12.1399V16.4443H31.4395V12.1399H30.0395ZM30.0395 16.4443C30.0395 16.8212 30.1342 17.2325 30.4463 17.5446C30.7584 17.8566 31.1697 17.9513 31.5466 17.9513V16.5513C31.4683 16.5513 31.4283 16.5413 31.4149 16.5368C31.4048 16.5335 31.418 16.5363 31.4363 16.5546C31.4545 16.5729 31.4574 16.5861 31.454 16.576C31.4496 16.5625 31.4395 16.5225 31.4395 16.4443H30.0395ZM31.5466 17.9513H33.8333V16.5513H31.5466V17.9513ZM33.8333 17.9513C34.2102 17.9513 34.6215 17.8566 34.9336 17.5446C35.2457 17.2325 35.3404 16.8212 35.3404 16.4443H33.9404C33.9404 16.5225 33.9303 16.5625 33.9258 16.576C33.9225 16.5861 33.9254 16.5729 33.9436 16.5546C33.9619 16.5363 33.9751 16.5335 33.965 16.5368C33.9515 16.5413 33.9116 16.5513 33.8333 16.5513V17.9513ZM35.3404 16.4443V12.1399H33.9404V16.4443H35.3404ZM36.3616 16.4443C36.3616 17.2993 36.1636 17.7647 35.9209 18.0073L36.9109 18.9973C37.5291 18.3791 37.7616 17.4724 37.7616 16.4443H36.3616ZM35.9209 18.0073C35.6895 18.2387 35.2314 18.4345 34.3713 18.4345V19.8345C35.3944 19.8345 36.2994 19.6088 36.9109 18.9973L35.9209 18.0073ZM34.3713 18.4345H31.0085V19.8345H34.3713V18.4345ZM31.0085 18.4345C30.1502 18.4345 29.6826 18.2395 29.4403 18.0021L28.4608 19.0025C29.0793 19.6081 29.9837 19.8345 31.0085 19.8345V18.4345ZM29.4507 18.0126C29.2134 17.7702 29.0183 17.3026 29.0183 16.4443H27.6183C27.6183 17.4691 27.8447 18.3735 28.4504 18.992L29.4507 18.0126ZM29.0183 16.4443V12.1399H27.6183V16.4443H29.0183ZM29.0183 12.1399C29.0183 11.2799 29.2141 10.8217 29.4455 10.5903L28.4555 9.60036C27.844 10.2119 27.6183 11.1168 27.6183 12.1399H29.0183ZM29.4455 10.5903C29.6882 10.3476 30.1535 10.1497 31.0085 10.1497V8.74968C29.9804 8.74968 29.0738 8.98215 28.4555 9.60036L29.4455 10.5903ZM31.0085 10.1497H34.3713V8.74968H31.0085V10.1497ZM34.3713 10.1497C35.228 10.1497 35.684 10.3483 35.9158 10.5851L36.9161 9.6056C36.3049 8.98145 35.3978 8.74968 34.3713 8.74968V10.1497ZM35.9262 10.5955C36.1629 10.8273 36.3616 11.2832 36.3616 12.1399H37.7616C37.7616 11.1134 37.5298 10.2063 36.9057 9.59518L35.9262 10.5955ZM36.3616 12.1399V16.4443H37.7616V12.1399H36.3616ZM38.1305 17.0496L38.1688 16.3506L37.4305 16.3102V17.0496H38.1305ZM43.6051 17.0765L43.1102 16.5815V16.5815L43.6051 17.0765ZM43.7935 15.3682H44.4935V14.6682H43.7935V15.3682ZM38.6417 14.736L38.1415 15.2257L38.1467 15.231L38.1519 15.2361L38.6417 14.736ZM38.6417 10.2298L39.1366 10.7248V10.7248L38.6417 10.2298ZM45.421 9.58419H46.121V8.88419H45.421V9.58419ZM45.421 11.4674V12.1674H46.121V11.4674H45.421ZM45.5959 13.9693L46.0909 13.4743L45.5959 13.9693ZM45.5959 18.5158L45.1009 18.0208L45.5959 18.5158ZM42.2062 19.1076L42.1758 19.807L42.1817 19.8072L42.2062 19.1076ZM40.9687 19.0538L40.9344 19.753L40.9383 19.7531L40.9687 19.0538ZM38.1305 18.8655H37.4305V19.5101L38.0729 19.5631L38.1305 18.8655ZM38.0923 17.7485C40.547 17.8829 42.229 17.9513 43.1209 17.9513V16.5513C42.2731 16.5513 40.6282 16.4853 38.1688 16.3506L38.0923 17.7485ZM43.1209 17.9513C43.4636 17.9513 43.8211 17.8504 44.1001 17.5715L43.1102 16.5815C43.1178 16.5738 43.1269 16.5666 43.1366 16.5605C43.1462 16.5544 43.1541 16.551 43.1589 16.5492C43.1681 16.5459 43.1589 16.5513 43.1209 16.5513V17.9513ZM44.1001 17.5715C44.3782 17.2933 44.4935 16.9382 44.4935 16.5788H43.0935C43.0935 16.6108 43.0887 16.6181 43.0917 16.6102C43.0931 16.6064 43.0957 16.6009 43.0996 16.5949C43.1035 16.5888 43.1074 16.5843 43.1102 16.5815L44.1001 17.5715ZM44.4935 16.5788V15.3682H43.0935V16.5788H44.4935ZM43.7935 14.6682H40.6997V16.0682H43.7935V14.6682ZM40.6997 14.6682C39.8413 14.6682 39.3738 14.4731 39.1314 14.2358L38.1519 15.2361C38.7704 15.8418 39.6749 16.0682 40.6997 16.0682V14.6682ZM39.1418 14.2462C38.9045 14.0039 38.7095 13.5363 38.7095 12.678H37.3095C37.3095 13.7028 37.5359 14.6072 38.1415 15.2257L39.1418 14.2462ZM38.7095 12.678V12.2744H37.3095V12.678H38.7095ZM38.7095 12.2744C38.7095 11.4144 38.9052 10.9562 39.1366 10.7248L38.1467 9.73487C37.5352 10.3464 37.3095 11.2513 37.3095 12.2744H38.7095ZM39.1366 10.7248C39.3793 10.4822 39.8447 10.2842 40.6997 10.2842V8.88419C39.6715 8.88419 38.7649 9.11666 38.1467 9.73487L39.1366 10.7248ZM40.6997 10.2842H45.421V8.88419H40.6997V10.2842ZM44.721 9.58419V11.4674H46.121V9.58419H44.721ZM45.421 10.7674H41.2377V12.1674H45.421V10.7674ZM41.2377 10.7674C40.8608 10.7674 40.4495 10.8621 40.1375 11.1741C39.8254 11.4862 39.7307 11.8975 39.7307 12.2744H41.1307C41.1307 12.1962 41.1407 12.1562 41.1452 12.1427C41.1485 12.1326 41.1457 12.1458 41.1274 12.1641C41.1091 12.1824 41.0959 12.1852 41.106 12.1819C41.1195 12.1774 41.1595 12.1674 41.2377 12.1674V10.7674ZM39.7307 12.2744V12.5434H41.1307V12.2744H39.7307ZM39.7307 12.5434C39.7307 12.9204 39.8254 13.3316 40.1375 13.6437C40.4495 13.9558 40.8608 14.0505 41.2377 14.0505V12.6505C41.1595 12.6505 41.1195 12.6405 41.106 12.636C41.0959 12.6326 41.1091 12.6355 41.1274 12.6538C41.1457 12.672 41.1485 12.6853 41.1452 12.6752C41.1407 12.6617 41.1307 12.6217 41.1307 12.5434H39.7307ZM41.2377 14.0505H43.6589V12.6505H41.2377V14.0505ZM43.6589 14.0505C44.4449 14.0505 44.8733 14.2366 45.1009 14.4642L46.0909 13.4743C45.4935 12.8769 44.6306 12.6505 43.6589 12.6505V14.0505ZM45.1009 14.4642C45.3286 14.6919 45.5147 15.1203 45.5147 15.9062H46.9147C46.9147 14.9345 46.6882 14.0716 46.0909 13.4743L45.1009 14.4642ZM45.5147 15.9062V16.5788H46.9147V15.9062H45.5147ZM45.5147 16.5788C45.5147 17.3647 45.3286 17.7931 45.1009 18.0208L46.0909 19.0107C46.6882 18.4134 46.9147 17.5505 46.9147 16.5788H45.5147ZM45.1009 18.0208C44.8733 18.2484 44.4449 18.4345 43.6589 18.4345V19.8345C44.6306 19.8345 45.4935 19.6081 46.0909 19.0107L45.1009 18.0208ZM43.6589 18.4345C43.2107 18.4345 42.7347 18.4257 42.2308 18.408L42.1817 19.8072C42.7001 19.8254 43.1925 19.8345 43.6589 19.8345V18.4345ZM42.2366 18.4083L40.9991 18.3545L40.9383 19.7531L42.1758 19.8069L42.2366 18.4083ZM41.003 18.3546C40.0966 18.3102 39.1583 18.248 38.1881 18.1679L38.0729 19.5631C39.0576 19.6444 40.0114 19.7077 40.9344 19.753L41.003 18.3546ZM38.8305 18.8655V17.0496H37.4305V18.8655H38.8305ZM54.8896 19V19.7H55.5896V19H54.8896ZM47.4242 19H46.7242V19.7H47.4242V19ZM47.4242 9.58419V8.88419H46.7242V9.58419H47.4242ZM54.8896 9.58419H55.5896V8.88419H54.8896V9.58419ZM54.8896 11.4674V12.1674H55.5896V11.4674H54.8896ZM49.8454 11.4674V10.7674H49.1454V11.4674H49.8454ZM49.8454 13.2833H49.1454V13.9833H49.8454V13.2833ZM53.8135 13.2833H54.5135V12.5833H53.8135V13.2833ZM53.8135 15.1664V15.8664H54.5135V15.1664H53.8135ZM49.8454 15.1664V14.4664H49.1454V15.1664H49.8454ZM49.8454 17.1168H49.1454V17.8168H49.8454V17.1168ZM54.8896 17.1168H55.5896V16.4168H54.8896V17.1168ZM54.8896 18.3H47.4242V19.7H54.8896V18.3ZM48.1242 19V9.58419H46.7242V19H48.1242ZM47.4242 10.2842H54.8896V8.88419H47.4242V10.2842ZM54.1896 9.58419V11.4674H55.5896V9.58419H54.1896ZM54.8896 10.7674H49.8454V12.1674H54.8896V10.7674ZM49.1454 11.4674V13.2833H50.5454V11.4674H49.1454ZM49.8454 13.9833H53.8135V12.5833H49.8454V13.9833ZM53.1135 13.2833V15.1664H54.5135V13.2833H53.1135ZM53.8135 14.4664H49.8454V15.8664H53.8135V14.4664ZM49.1454 15.1664V17.1168H50.5454V15.1664H49.1454ZM49.8454 17.8168H54.8896V16.4168H49.8454V17.8168ZM54.1896 17.1168V19H55.5896V17.1168H54.1896ZM63.5086 10.3778L63.0094 10.8686L63.0179 10.877L63.5086 10.3778ZM63.5086 18.2198L64.0036 18.7148L63.5086 18.2198ZM55.9625 19H55.2625V19.7H55.9625V19ZM55.9625 9.58419V8.88419H55.2625V9.58419H55.9625ZM58.3838 11.4674V10.7674H57.6838V11.4674H58.3838ZM58.3838 17.1168H57.6838V17.8168H58.3838V17.1168ZM61.2085 10.2842C62.1046 10.2842 62.6633 10.5164 63.0095 10.8685L64.0078 9.88708C63.3138 9.18105 62.339 8.88419 61.2085 8.88419V10.2842ZM63.0179 10.877C63.37 11.2232 63.6023 11.7818 63.6023 12.678H65.0023C65.0023 11.5474 64.7054 10.5727 63.9994 9.87862L63.0179 10.877ZM63.6023 12.678V15.9062H65.0023V12.678H63.6023ZM63.6023 15.9062C63.6023 16.8015 63.3704 17.3682 63.0137 17.7249L64.0036 18.7148C64.7051 18.0134 65.0023 17.0376 65.0023 15.9062H63.6023ZM63.0137 17.7249C62.668 18.0705 62.1077 18.3 61.2085 18.3V19.7C62.3359 19.7 63.3091 19.4094 64.0036 18.7148L63.0137 17.7249ZM61.2085 18.3H55.9625V19.7H61.2085V18.3ZM56.6625 19V9.58419H55.2625V19H56.6625ZM55.9625 10.2842H61.2085V8.88419H55.9625V10.2842ZM62.5811 12.678C62.5811 12.1665 62.4527 11.6544 62.0734 11.275C61.694 10.8957 61.1819 10.7674 60.6704 10.7674V12.1674C60.9661 12.1674 61.0592 12.2408 61.0834 12.265C61.1076 12.2892 61.1811 12.3823 61.1811 12.678H62.5811ZM60.6704 10.7674H58.3838V12.1674H60.6704V10.7674ZM57.6838 11.4674V17.1168H59.0838V11.4674H57.6838ZM58.3838 17.8168H60.6704V16.4168H58.3838V17.8168ZM60.6704 17.8168C61.1819 17.8168 61.694 17.6885 62.0734 17.3092C62.4527 16.9298 62.5811 16.4177 62.5811 15.9062H61.1811C61.1811 16.2019 61.1076 16.295 61.0834 16.3192C61.0592 16.3434 60.9661 16.4168 60.6704 16.4168V17.8168ZM62.5811 15.9062V12.678H61.1811V15.9062H62.5811Z" fill="url(#paint1_linear_3083_6152)" mask="url(#path-5-outside-1_3083_6152)"/>
</g>
<path id="Rectangle 461" d="M6.48499e-05 26L1 28L51 27L6.48499e-05 26Z" fill="url(#paint2_linear_3083_6152)"/>
<path id="Rectangle 462" d="M82 2L80.9999 4L30 3L82 2Z" fill="url(#paint3_linear_3083_6152)"/>
</g>
<defs>
<filter id="filter0_f_3083_6152" x="6.60303" y="4.6543" width="62.6011" height="19.6848" filterUnits="userSpaceOnUse" color-interpolation-filters="sRGB">
<feFlood flood-opacity="0" result="BackgroundImageFix"/>
<feBlend mode="normal" in="SourceGraphic" in2="BackgroundImageFix" result="shape"/>
<feGaussianBlur stdDeviation="2.5" result="effect1_foregroundBlur_3083_6152"/>
</filter>
<linearGradient id="paint0_linear_3083_6152" x1="0" y1="16.6924" x2="81.0001" y2="16.6924" gradientUnits="userSpaceOnUse">
<stop stop-color="#4A0000"/>
<stop offset="0.584" stop-color="#990800"/>
<stop offset="1" stop-color="#4A0000"/>
</linearGradient>
<linearGradient id="paint1_linear_3083_6152" x1="38" y1="10" x2="38" y2="19" gradientUnits="userSpaceOnUse">
<stop stop-color="#AB750F"/>
<stop offset="0.516" stop-color="#D8A956"/>
<stop offset="1" stop-color="#AB750F"/>
</linearGradient>
<linearGradient id="paint2_linear_3083_6152" x1="53.3841" y1="27" x2="-0.932858" y2="27" gradientUnits="userSpaceOnUse">
<stop stop-color="#AB750F"/>
<stop offset="0.516" stop-color="#D8A956"/>
<stop offset="1" stop-color="#AB750F"/>
</linearGradient>
<linearGradient id="paint3_linear_3083_6152" x1="27.5691" y1="3.00001" x2="82.9512" y2="3.00002" gradientUnits="userSpaceOnUse">
<stop stop-color="#AB750F"/>
<stop offset="0.516" stop-color="#D8A956"/>
<stop offset="1" stop-color="#AB750F"/>
</linearGradient>
</defs>
</svg>
