<svg xmlns="http://www.w3.org/2000/svg" width="82" height="28" fill="none" xmlns:v="https://vecta.io/nano"><path fill-rule="evenodd" d="M12.313.027L0 4.951V24L17.952 6.052 12.313.027z" fill="#6f0000"/><path d="M81 5H0v19h81l-3.193-9.492L81 5z" fill="url(#C)"/><path fill-rule="evenodd" d="M80.999 5l-5.193 9.507L81 24l-3.193-9.492L80.999 5z" fill="#ab7510"/><g filter="url(#B)"><path d="M19.136 19.07l-4.977.269c-.879 0-1.524-.206-1.937-.619s-.619-1.058-.619-1.937v-4.304c0-.942.211-1.623.632-2.045.43-.43 1.116-.646 2.058-.646h4.842v1.883h-4.304c-.538 0-.807.269-.807.807v4.304c0 .206.058.372.175.498.126.117.283.175.471.175h.619l.699-.027.726-.027.955-.054 1.466-.094v1.816zm3.499-1.749h4.91v1.883h-7.331V9.789h2.421v7.533zm11.907-4.977c0-.538-.269-.807-.807-.807h-2.287c-.538 0-.807.269-.807.807v4.304c0 .538.269.807.807.807h2.287c.538 0 .807-.269.807-.807v-4.304zm2.421 4.304c0 .942-.215 1.628-.646 2.058-.422.421-1.103.632-2.045.632h-3.363c-.942 0-1.628-.211-2.058-.632-.422-.43-.632-1.116-.632-2.058v-4.304c0-.942.211-1.623.632-2.045.43-.43 1.116-.646 2.058-.646h3.363c.942 0 1.623.215 2.045.646.43.422.646 1.103.646 2.045v4.304zm1.069.605l4.99.202c.206 0 .368-.058.484-.175.126-.126.188-.291.188-.498v-1.211h-3.094c-.942 0-1.628-.211-2.058-.632-.421-.431-.632-1.117-.632-2.058v-.404c0-.942.211-1.623.632-2.045.43-.43 1.116-.646 2.058-.646h4.721v1.883H41.14c-.538 0-.807.269-.807.807v.269c0 .538.269.807.807.807h2.421c.879 0 1.524.206 1.937.619s.619 1.058.619 1.937v.673c0 .879-.206 1.524-.619 1.937s-1.058.619-1.937.619c-.457 0-.942-.009-1.453-.027l-1.238-.054-2.838-.188v-1.816zm16.759 1.95h-7.465V9.789h7.465v1.883h-5.044v1.816h3.968v1.883h-3.968v1.95h5.044v1.883zm6.319-9.416c1.013 0 1.78.265 2.3.794.529.52.794 1.287.794 2.3v3.228c0 1.013-.264 1.784-.794 2.314-.52.52-1.287.78-2.3.78h-5.246V9.789h5.246zm.673 3.094c0-.807-.404-1.211-1.211-1.211h-2.287v5.65h2.287c.807 0 1.211-.404 1.211-1.211v-3.228z" fill="#212121"/></g><mask id="A" maskUnits="userSpaceOnUse" x="11" y="8" width="55" height="12" fill="#000"><path fill="#fff" d="M11 8h55v12H11z"/><path d="M19.234 18.866l-4.977.269c-.879 0-1.524-.206-1.937-.619s-.619-1.058-.619-1.937v-4.304c0-.942.211-1.623.632-2.045.43-.43 1.117-.646 2.058-.646h4.843v1.883H14.93c-.538 0-.807.269-.807.807v4.304c0 .206.058.372.175.498.126.117.283.175.471.175h.619l.7-.027.726-.027.955-.054 1.466-.094v1.816zm3.499-1.749h4.91V19h-7.331V9.584h2.421v7.533zM34.64 12.14c0-.538-.269-.807-.807-.807h-2.287c-.538 0-.807.269-.807.807v4.304c0 .538.269.807.807.807h2.287c.538 0 .807-.269.807-.807V12.14zm2.421 4.304c0 .942-.215 1.628-.646 2.058-.422.421-1.103.632-2.045.632h-3.363c-.942 0-1.628-.211-2.058-.632-.421-.43-.632-1.116-.632-2.058V12.14c0-.942.211-1.623.632-2.045.43-.43 1.116-.646 2.058-.646h3.363c.942 0 1.623.215 2.045.646.431.422.646 1.103.646 2.045v4.304zm1.069.605l4.99.202c.206 0 .368-.058.484-.175.126-.126.188-.291.188-.498v-1.211H40.7c-.942 0-1.628-.211-2.058-.632-.422-.431-.632-1.117-.632-2.058v-.404c0-.942.211-1.623.632-2.045.43-.43 1.116-.646 2.058-.646h4.721v1.883h-4.183c-.538 0-.807.269-.807.807v.269c0 .538.269.807.807.807h2.421c.879 0 1.524.206 1.937.619s.619 1.058.619 1.937v.673c0 .879-.206 1.524-.619 1.937s-1.058.619-1.937.619a41.61 41.61 0 0 1-1.453-.027l-1.238-.054-2.838-.188V17.05zM54.89 19h-7.465V9.584h7.465v1.883h-5.044v1.816h3.968v1.883h-3.968v1.95h5.044V19zm6.319-9.416c1.013 0 1.78.265 2.3.794.529.52.794 1.287.794 2.3v3.228c0 1.013-.265 1.785-.794 2.314-.52.52-1.287.78-2.3.78h-5.246V9.584h5.246zm.673 3.094c0-.807-.404-1.211-1.211-1.211h-2.287v5.649h2.287c.807 0 1.211-.404 1.211-1.211v-3.228z"/></mask><path d="M19.234 18.866l-4.977.269c-.879 0-1.524-.206-1.937-.619s-.619-1.058-.619-1.937v-4.304c0-.942.211-1.623.632-2.045.43-.43 1.117-.646 2.058-.646h4.843v1.883H14.93c-.538 0-.807.269-.807.807v4.304c0 .206.058.372.175.498.126.117.283.175.471.175h.619l.7-.027.726-.027.955-.054 1.466-.094v1.816zm3.499-1.749h4.91V19h-7.331V9.584h2.421v7.533zM34.64 12.14c0-.538-.269-.807-.807-.807h-2.287c-.538 0-.807.269-.807.807v4.304c0 .538.269.807.807.807h2.287c.538 0 .807-.269.807-.807V12.14zm2.421 4.304c0 .942-.215 1.628-.646 2.058-.422.421-1.103.632-2.045.632h-3.363c-.942 0-1.628-.211-2.058-.632-.421-.43-.632-1.116-.632-2.058V12.14c0-.942.211-1.623.632-2.045.43-.43 1.116-.646 2.058-.646h3.363c.942 0 1.623.215 2.045.646.431.422.646 1.103.646 2.045v4.304zm1.069.605l4.99.202c.206 0 .368-.058.484-.175.126-.126.188-.291.188-.498v-1.211H40.7c-.942 0-1.628-.211-2.058-.632-.422-.431-.632-1.117-.632-2.058v-.404c0-.942.211-1.623.632-2.045.43-.43 1.116-.646 2.058-.646h4.721v1.883h-4.183c-.538 0-.807.269-.807.807v.269c0 .538.269.807.807.807h2.421c.879 0 1.524.206 1.937.619s.619 1.058.619 1.937v.673c0 .879-.206 1.524-.619 1.937s-1.058.619-1.937.619a41.61 41.61 0 0 1-1.453-.027l-1.238-.054-2.838-.188V17.05zM54.89 19h-7.465V9.584h7.465v1.883h-5.044v1.816h3.968v1.883h-3.968v1.95h5.044V19zm6.319-9.416c1.013 0 1.78.265 2.3.794.529.52.794 1.287.794 2.3v3.228c0 1.013-.265 1.785-.794 2.314-.52.52-1.287.78-2.3.78h-5.246V9.584h5.246zm.673 3.094c0-.807-.404-1.211-1.211-1.211h-2.287v5.649h2.287c.807 0 1.211-.404 1.211-1.211v-3.228z" fill="#f5f1ee"/><path d="M19.234 18.866l.063.697.637-.057v-.64h-.7zm-6.914-.35l.495-.495h0l-.495.495zm.013-8.286l.495.495h0l-.495-.495zm6.901-.646h.7v-.7h-.7v.7zm0 1.883v.7h.7v-.7h-.7zm-4.937 5.609l-.513.476.018.019.019.018.476-.513zm1.09.175v.7h.014.014l-.028-.7zm.7-.027l.026.7h0l-.026-.7zm.726-.027l-.025-.7h-.001l.026.7zm.955-.054l-.048-.698h-.001l.049.698zm1.466-.094h.7v-.744l-.743.046.043.699zm-.063 1.119l-4.914.266v1.4c1.347 0 3.028-.091 5.04-.272l-.125-1.394zm-4.914.266c-.786 0-1.214-.186-1.442-.414l-.99.99c.597.597 1.46.824 2.432.824v-1.4zm-1.442-.414c-.228-.228-.414-.656-.414-1.442h-1.4c0 .972.226 1.835.824 2.432l.99-.99zm-.414-1.442v-4.304h-1.4v4.304h1.4zm0-4.304c0-.86.196-1.318.427-1.55l-.99-.99c-.611.612-.837 1.516-.837 2.54h1.4zm.427-1.55c.243-.243.708-.441 1.563-.441v-1.4c-1.028 0-1.935.232-2.553.851l.99.99zm1.563-.441h4.843v-1.4h-4.843v1.4zm4.142-.7v1.883h1.4V9.584h-1.4zm.7 1.183H14.93v1.4h4.304v-1.4zm-4.304 0c-.377 0-.788.095-1.1.407s-.407.723-.407 1.1h1.4c0-.078.01-.118.014-.132s.001.003-.018.021-.031.021-.021.018.053-.014.132-.014v-1.4zm-1.507 1.507v4.304h1.4v-4.304h-1.4zm0 4.304a1.4 1.4 0 0 0 .362.974l1.026-.953.016.026c.001.003-.004-.01-.004-.047h-1.4zm.399 1.011c.268.249.601.362.947.362v-1.4c-.021-.001-.019-.001-.015 0l.021.012-.953 1.026zm.947.362h.021.02.02.02.021.021.021.021.021.021.02.02.02.021.021.021.021.021.021.021.02.02.02.02.021.021.021.021.021.021l.001-1.4h-.021-.021-.021-.021-.021-.021-.02-.02-.02-.021-.021-.021-.021-.021-.021-.021-.021-.02-.02-.02-.021-.021-.021-.021-.021-.021-.02-.02-.02-.021v1.4zm.647 0l.697-.027-.052-1.399-.702.027.056 1.399zm.697-.027l.726-.027-.052-1.399-.726.027.052 1.399zm.725-.027l.979-.055-.097-1.397-.931.053.05 1.399zm.978-.055l1.462-.094-.086-1.397-1.471.095.095 1.397zm.719-.792v1.816h1.4V17.05h-1.4zm4.199.067h-.7v.7h.7v-.7zm4.91 0h.7v-.7h-.7v.7zm0 1.883v.7h.7V19h-.7zm-7.331 0h-.7v.7h.7V19zm0-9.416v-.7h-.7v.7h.7zm2.421 0h.7v-.7h-.7v.7zm0 8.233h4.91v-1.4h-4.91v1.4zm4.21-.7V19h1.4v-1.883h-1.4zm.7 1.183h-7.331v1.4h7.331v-1.4zm-6.631.7V9.584h-1.4V19h1.4zm-.7-8.716h2.421v-1.4h-2.421v1.4zm1.721-.7v7.533h1.4V9.584h-1.4zm14.383 8.918l-.495-.495h0l.495.495zm-7.465 0l-.5.49.005.005.005.005.49-.5zm0-8.407l-.495-.495h0l.495.495zm7.465 0l-.5.49.005.005.005.005.49-.5zM35.34 12.14c0-.377-.095-.788-.407-1.1s-.723-.407-1.1-.407v1.4a.44.44 0 0 1 .132.015c.01.003-.003 0-.021-.018s-.021-.031-.018-.021a.44.44 0 0 1 .015.132h1.4zm-1.507-1.507h-2.287v1.4h2.287v-1.4zm-2.287 0c-.377 0-.788.095-1.1.407s-.407.723-.407 1.1h1.4c0-.078.01-.118.015-.132s0 .003-.018.021-.031.021-.021.018a.44.44 0 0 1 .132-.015v-1.4zM30.04 12.14v4.304h1.4V12.14h-1.4zm0 4.304c0 .377.095.788.407 1.1s.723.407 1.1.407v-1.4c-.078 0-.118-.01-.132-.015s.003 0 .021.018.021.031.018.021-.015-.053-.015-.132h-1.4zm1.507 1.507h2.287v-1.4h-2.287v1.4zm2.287 0c.377 0 .788-.095 1.1-.407s.407-.723.407-1.1h-1.4a.44.44 0 0 1-.015.132c-.003.01 0-.003.018-.021s.031-.021.021-.018-.053.015-.132.015v1.4zm1.507-1.507V12.14h-1.4v4.304h1.4zm1.021 0c0 .855-.198 1.32-.441 1.563l.99.99c.618-.618.851-1.525.851-2.553h-1.4zm-.441 1.563c-.231.231-.69.427-1.55.427v1.4c1.023 0 1.928-.226 2.54-.837l-.99-.99zm-1.55.427h-3.363v1.4h3.363v-1.4zm-3.363 0c-.858 0-1.326-.195-1.568-.432l-.98 1c.619.606 1.523.832 2.548.832v-1.4zm-1.558-.422c-.237-.242-.432-.71-.432-1.568h-1.4c0 1.025.226 1.929.832 2.548l1-.979zm-.432-1.568V12.14h-1.4v4.304h1.4zm0-4.304c0-.86.196-1.318.427-1.55l-.99-.99c-.611.612-.837 1.516-.837 2.54h1.4zm.427-1.55c.243-.243.708-.441 1.563-.441v-1.4c-1.028 0-1.935.232-2.553.851l.99.99zm1.563-.441h3.363v-1.4h-3.363v1.4zm3.363 0c.857 0 1.313.199 1.544.435l1-.979c-.611-.624-1.518-.856-2.545-.856v1.4zm1.555.446c.237.232.435.688.435 1.544h1.4c0-1.027-.232-1.934-.856-2.545l-.98 1zm.435 1.544v4.304h1.4V12.14h-1.4zm1.769 4.91l.038-.699-.738-.04v.739h.7zm5.475.027l-.495-.495h0l.495.495zm.188-1.708h.7v-.7h-.7v.7zm-5.152-.632l-.5.49.005.005.005.005.49-.5zm0-4.506l.495.495h0l-.495-.495zm6.779-.646h.7v-.7h-.7v.7zm0 1.883v.7h.7v-.7h-.7zm.175 2.502l.495-.495-.495.495zm0 4.546l-.495-.495h0l.495.495zm-3.39.592l-.03.699h.006l.025-.7zm-1.238-.054l-.034.699h.004l.03-.699zm-2.838-.188h-.7v.645l.642.053.058-.698zm-.038-1.117l5.029.203v-1.4c-.848 0-2.493-.066-4.952-.201l-.076 1.398zm5.029.203c.343 0 .7-.101.979-.38l-.99-.99c.008-.008.017-.015.026-.021s.018-.01.022-.011 0 .002-.038.002v1.4zm.979-.38c.278-.278.393-.633.393-.993h-1.4c0 .032-.005.039-.002.031.012-.021.016-.026.018-.029l.99.99zm.393-.993v-1.211h-1.4v1.211h1.4zm-.7-1.911H40.7v1.4h3.094v-1.4zm-3.094 0c-.858 0-1.326-.195-1.568-.432l-.98 1c.619.606 1.523.832 2.548.832v-1.4zm-1.558-.422c-.237-.242-.432-.71-.432-1.568h-1.4c0 1.025.226 1.929.832 2.548l1-.979zm-.432-1.568v-.404h-1.4v.404h1.4zm0-.404c0-.86.196-1.318.427-1.55l-.99-.99c-.611.612-.837 1.516-.837 2.54h1.4zm.427-1.55c.243-.243.708-.441 1.563-.441v-1.4c-1.028 0-1.935.232-2.553.851l.99.99zm1.563-.441h4.721v-1.4H40.7v1.4zm4.021-.7v1.883h1.4V9.584h-1.4zm.7 1.183h-4.183v1.4h4.183v-1.4zm-4.183 0c-.377 0-.788.095-1.1.407s-.407.723-.407 1.1h1.4c0-.078.01-.118.015-.132s0 .003-.018.021-.032.021-.021.018.053-.014.132-.014v-1.4zm-1.507 1.507v.269h1.4v-.269h-1.4zm0 .269c0 .377.095.788.407 1.1s.723.407 1.1.407v-1.4c-.078 0-.118-.01-.132-.014s.003 0 .021.018.021.031.018.021-.015-.053-.015-.132h-1.4zm1.507 1.507h2.421v-1.4h-2.421v1.4zm2.421 0c.786 0 1.214.186 1.442.414l.99-.99c-.597-.597-1.46-.824-2.432-.824v1.4zm1.442.414c.228.228.414.656.414 1.442h1.4c0-.972-.227-1.835-.824-2.432l-.99.99zm.414 1.442v.673h1.4v-.673h-1.4zm0 .673c0 .786-.186 1.214-.414 1.442l.99.99c.597-.597.824-1.46.824-2.432h-1.4zm-.414 1.442c-.228.228-.656.414-1.442.414v1.4c.972 0 1.835-.226 2.432-.824l-.99-.99zm-1.442.414a40.78 40.78 0 0 1-1.428-.026l-.049 1.399 1.477.027v-1.4zm-1.422-.026l-1.238-.054-.061 1.399 1.238.054.061-1.399zm-1.234-.054l-2.815-.187-.115 1.395 2.861.19.069-1.398zm-2.172.511V17.05h-1.4v1.816h1.4zM54.89 19v.7h.7V19h-.7zm-7.465 0h-.7v.7h.7V19zm0-9.416v-.7h-.7v.7h.7zm7.465 0h.7v-.7h-.7v.7zm0 1.883v.7h.7v-.7h-.7zm-5.044 0v-.7h-.7v.7h.7zm0 1.816h-.7v.7h.7v-.7zm3.968 0h.7v-.7h-.7v.7zm0 1.883v.7h.7v-.7h-.7zm-3.968 0v-.7h-.7v.7h.7zm0 1.95h-.7v.7h.7v-.7zm5.044 0h.7v-.7h-.7v.7zm0 1.183h-7.465v1.4h7.465v-1.4zm-6.765.7V9.584h-1.4V19h1.4zm-.7-8.716h7.465v-1.4h-7.465v1.4zm6.765-.7v1.883h1.4V9.584h-1.4zm.7 1.183h-5.044v1.4h5.044v-1.4zm-5.744.7v1.816h1.4v-1.816h-1.4zm.7 2.516h3.968v-1.4h-3.968v1.4zm3.268-.7v1.883h1.4v-1.883h-1.4zm.7 1.183h-3.968v1.4h3.968v-1.4zm-4.668.7v1.95h1.4v-1.95h-1.4zm.7 2.65h5.044v-1.4h-5.044v1.4zm4.344-.7V19h1.4v-1.883h-1.4zm9.319-6.739l-.499.491.008.008.491-.499zm0 7.842l.495.495h0l-.495-.495zm-7.546.78h-.7v.7h.7V19zm0-9.416v-.7h-.7v.7h.7zm2.421 1.883v-.7h-.7v.7h.7zm0 5.649h-.7v.7h.7v-.7zm2.825-6.833c.896 0 1.455.232 1.801.584l.998-.981c-.694-.706-1.669-1.003-2.799-1.003v1.4zm1.809.593c.352.346.584.905.584 1.801h1.4c0-1.131-.297-2.105-1.003-2.799l-.982.998zm.584 1.801v3.228h1.4v-3.228h-1.4zm0 3.228c0 .895-.232 1.462-.589 1.819l.99.99c.701-.701.999-1.677.999-2.809h-1.4zm-.589 1.819c-.346.346-.906.575-1.805.575v1.4c1.127 0 2.101-.291 2.795-.985l-.99-.99zm-1.805.575h-5.246v1.4h5.246v-1.4zm-4.546.7V9.584h-1.4V19h1.4zm-.7-8.716h5.246v-1.4h-5.246v1.4zm6.619 2.394c0-.512-.128-1.024-.508-1.403s-.892-.508-1.403-.508v1.4c.296 0 .389.073.413.098s.098.117.098.413h1.4zm-1.911-1.911h-2.287v1.4h2.287v-1.4zm-2.987.7v5.649h1.4v-5.649h-1.4zm.7 6.349h2.287v-1.4h-2.287v1.4zm2.287 0c.511 0 1.024-.128 1.403-.508s.508-.892.508-1.403h-1.4c0 .296-.074.389-.098.413s-.117.098-.413.098v1.4zm1.911-1.911v-3.228h-1.4v3.228h1.4z" fill="url(#D)" mask="url(#A)"/><path d="M0 26l1 2 50-1-51-1z" fill="url(#E)"/><path d="M82 2l-1 2-51-1 52-1z" fill="url(#F)"/><defs><filter id="B" x="6.604" y="4.654" width="62.602" height="19.685" filterUnits="userSpaceOnUse" color-interpolation-filters="sRGB"><feFlood flood-opacity="0"/><feBlend in="SourceGraphic"/><feGaussianBlur stdDeviation="2.5"/></filter><linearGradient id="C" x1="0" y1="16.692" x2="81" y2="16.692" href="#G"><stop stop-color="#4a0000"/><stop offset=".584" stop-color="#990800"/><stop offset="1" stop-color="#4a0000"/></linearGradient><linearGradient id="D" x1="38" y1="10" x2="38" y2="19" href="#G"><stop stop-color="#ab750f"/><stop offset=".516" stop-color="#d8a956"/><stop offset="1" stop-color="#ab750f"/></linearGradient><linearGradient id="E" x1="53.384" y1="27" x2="-.933" y2="27" href="#G"><stop stop-color="#ab750f"/><stop offset=".516" stop-color="#d8a956"/><stop offset="1" stop-color="#ab750f"/></linearGradient><linearGradient id="F" x1="27.569" y1="3" x2="82.951" y2="3" href="#G"><stop stop-color="#ab750f"/><stop offset=".516" stop-color="#d8a956"/><stop offset="1" stop-color="#ab750f"/></linearGradient><linearGradient id="G" gradientUnits="userSpaceOnUse"/></defs></svg>