<svg xmlns="http://www.w3.org/2000/svg" width="400" height="750" fill="#ffc502" opacity=".35" xmlns:v="https://vecta.io/nano"><path d="M144.657 162.485c-.908 1.003-.495 2.679-.915 3.943-.61 1.827-.929 1.817-2.176-.23l-.02-.101c.454-.431.583-1.083.583-1.836.223-.11.311-.341.257-.692.502-.382.678-1.064.773-1.817l-.027.051 1.552.501-.02.181h-.007zm-6.671 110.928l.244 1.264.027 2.428-.183 1.395c-.576.341-1.152.442-1.735.05l-.143-3.933c.116-.391.136-.793.075-1.214.203-.231.264-.532.19-.893l.793-.452.732 1.365v-.01zm-72.324 17.539c-.346-1.555.407-2.588.813-3.793h.014l.847.031.115 1.214.129 1.364.603 1.164-.027 1.124a6.28 6.28 0 0 0-.786.351l-.895.311c-.136-.22-.129-.441.02-.642-.095-.672-.427-.943-.827-1.114l-.007-.01zm200.374-57.655c1.145-.542 1.898-.221 1.809 1.866l-.189 3.05.02-.03c-.827.201-1.01-1.123-1.593-1.505.136-.381.088-.702-.149-.953l.122-2.468-.02.04zM206.271 392.57c-1.105-.853-.881-1.726-.02-2.599.447-.12.685-.572.82-1.184.549.04 1.302-.03 1.403.873.17 1.435-.738 1.455-1.389 1.696-.454.13-.685.592-.814 1.204v.01zm-5.524 121.825v-.06c.847 1.786 1.152 3.482-.387 4.846l.027.041c-.393-1.134-1.05-2.158-.678-3.613l-.108.181 1.146-1.385v-.01zM57.933 189.987c-.176.291-.38.552-.522.873-.42.943-1.003 1.395-1.62.652-.644-.782-.312-1.705.142-2.488l.495-.913-.027.02c.773.12 1.01 1.254 1.552 1.816l-.02.05v-.01zm72.577 14.4l-.895.07c-.109-.993-.054-2.097-.814-2.649.034-.803.055-1.836.658-1.967.956-.201.888 1.184 1.105 2.067l-.061 2.479h.007zm173.934 82.663h-1.098l-.299-2.388 1.675-1.194-.027-.03.725 2.408.102-.09-1.078 1.284v.01zM14.23 226.021l-.02.381c-.752.833-1.559.753-2.386.331l.102.141c-.278-1.194-.264-2.388.02-3.582l-.102.2c1.186.02 1.851 1.134 2.379 2.529h.007zm70.853 212.826c-.183-2.408-.413-4.816.251-7.164h.217c.224 2.448 1.295 5.007-.468 7.164zM212.86 721.724l.013 1.555c-.759.642-1.545.642-2.345.191l.088.15.047-2.207-.088.14c.773-.452 1.539-.401 2.278.171h.007zm-62.312-43.198c-.332-.381-.698-.702-.983-1.143-.4-.623-.732-1.466-.115-2.098.556-.572 1.01.05 1.308.813l-.21 2.418v.01zm75.056-420.204c2.305.762 2.59 1.364 1.743 3.723l-.895-1.245h.006l-.86-1.214-.014-.02.02-1.254v.01zM366.485 462.92l-.441 3.321.048-.04-1.519-1.164.048-1.686c.25-.12.474-.311.671-.582l1.2.151h-.007zM186.863 43.88l-.027 4.726c-.454.161-.787.03-.834-.773-.041-1.054.19-2.268-.766-2.749l.027-1.254-.041.06 1.648-.01h-.007zm143.098 511.696c1.078.261.732 1.606.888 2.569l.21 1.324-.257.181-.197-.311c-.176.12-.359.14-.549.04-.956-.261-.813-1.385-.834-2.378.387-.321.719-.692.732-1.435l.007.01zM37.95 559.008v-.512l.773-1.605c1.457.19 1.986.963.807 2.829l-1.58-.712zm314.497-120.159h-.271l-.447-2.348c.176-.231.25-.512.23-.863l1.62-.622-.041 2.579-1.091 1.244v.01zm-98.201-11.3v-1.003l.8-1.385h.013l1.207-1.084.108-.02.414 2.378-.027.04c-.448.141-.732.532-.848 1.204l-1.667-.13zm-113.663 95.346c-.271.752-.651 1.324-1.234.853-.42-.332-.332-1.004-.149-1.576l.556-1.585.841-.07-.007 2.378h-.007zm-64.19-166.439c-.217.191-.454.572-.637.522-.468-.141-.617-.733-.353-1.305.109-.231.535-.381.692-.251.176.151.203.673.298 1.034zm54.103 34.458c-.461-.06-.753-.432-.685-1.124.068-.662.414-1.004.841-.813.196.09.433.462.481.763.108.702-.197 1.063-.637 1.174zM221.32 14.981c.163.371.19.773.075 1.184.054.291.034.572-.054.833.149.201.176.442.088.702-.495-.672-1.071-.361-1.627-.301l-.088-2.469 1.599.03.007.02zm-8.426 405.143c-.631-.111-1.37-.181-1.234-1.485.088-.823.705-.913 1.213-.964l.021 2.449zM175.942 23.75c-.284 0-.562 0-.847-.01.02-.893-.373-1.184-.861-1.335l.048-1.174 1.647-.11c1.057.863.122 1.746.013 2.629zm-3.322 10.406c.156.271.454.542.454.813 0 .733-.372 1.044-.799.763-.163-.11-.312-.712-.258-1.003.047-.251.393-.381.61-.562l-.007-.01zm-80.27 17.49c-.21.181-.447.552-.63.502-.454-.14-.603-.712-.346-1.274.102-.221.522-.361.678-.231.169.151.203.652.298 1.003zm99.611 19.738l-.047-2.499c.65.11 1.498.04 1.349 1.495-.089.873-.766.953-1.302 1.004zM39.34 465.549c-.203.21-.414.622-.597.602-.481-.07-.671-.632-.441-1.254.095-.251.522-.462.698-.352s.23.653.339 1.004zM172.288 114.21c-.204.21-.414.612-.597.582-.467-.091-.657-.653-.447-1.255.088-.24.515-.421.691-.311.177.121.238.642.353.984zm-99.881 4.746c.041-.823.088-1.857.705-1.957 1.01-.171.922 1.104.963 2.107l-1.674-.14.007-.01zm270.013 4.304c.183.121.508.181.596.422.204.542.055 1.093-.352 1.254-.176.07-.536-.151-.617-.391-.176-.522-.081-1.044.373-1.285zM74.081 480.591c-.827-.532-.874-1.596-.82-2.719 1.301.21 2.02.822.82 2.719zm201.187 3.561c-.007-.822.027-1.856.61-2.006.942-.251 1.01.953 1.071 1.976l-1.688.03h.007zM29.306 161.651l-.244-.06-.244.05-.217-2.428.014-.02 1.024-1.144c.149.07.298.07.454 0l.203 2.418-.997 1.184h.007zm368.892 9.914c.075 1.073.014 2.057-.725 2.639l-.936-1.435-.02-2.158c.271-.11.549-.17.827-.17l.027.03.827 1.083v.011zM61.445 185.544c-.746.812-1.491 1.645-2.508 1.224v-1.144l.861-1.305-.02.031 1.654.11c-.014.361 0 .732.02 1.094l-.007-.01zM28.608 511.736l.027-2.499c.535.051 1.22.121 1.308.984.156 1.435-.691 1.385-1.335 1.515zm3.396-316.288c.047-.793.054-1.836.671-1.937.963-.16.929 1.094.983 2.087l-1.661-.14.007-.01zm195.167 325.049l1.797.01-.054 2.488-1.424-.07-.319-2.438v.01zm-98.377-317.433c.007 1.083-.102 2.077-.847 2.599-1.349-2.057-.244-2.328.847-2.599zm4.725 327.347h-1.044l-.23-2.328-.054.08 1.64-.05-.034-.05-.278 2.348zm147.613-311.003c-.624-.14-1.586-.17-1.335-1.415.278-1.364.949-.732 1.369.181l-.041 1.234h.007zM169.983 537.766c-.183-.231-.488-.422-.535-.693-.116-.742.21-1.174.671-1.123.474.05.664.642.508 1.254-.068.271-.42.381-.644.562zm87.904 1.475c.183-.241.366-.672.549-.672.495 0 .691.562.508 1.194-.074.241-.481.461-.671.381-.169-.07-.257-.592-.379-.903h-.007zm-23.862-303.898c-.427-.17-.63-.622-.488-1.204.061-.241.4-.502.597-.482.44.061.61.602.481 1.174-.054.241-.387.342-.59.512zm-60.936 316.351c-.095.321-.129.813-.292.953-.373.301-.752.09-.854-.542-.047-.281.102-.823.271-.953.373-.301.698-.04.881.552l-.006-.01zM297.964 252.24l.054 2.479-1.633-.532c.04-.351-.027-.652-.19-.913l.122-1.224 1.647.19zm-179.27 304.682l-1.674-.09v-2.358h1.661l.02 2.438-.007.01zm110.267-301.3c.739.121 1.491.171 1.796 1.465l-.095.121-.86 1.104-.394-.021h-.393l-.868-1.334.814-1.335zM90.974 558.346l1.613-.191c.007.803.047 1.886-.508 2.077-.915.321-1.024-.863-1.112-1.886h.007zm87.491 5.188c.162.271.461.542.461.813 0 .742-.373 1.053-.807.772-.17-.11-.312-.722-.265-1.023.041-.251.394-.381.611-.562zM46.219 579.438c-.529-.07-1.247-.01-1.322-.923-.115-1.384.725-1.415 1.39-1.555l-.061 2.478h-.007zm-10.947 1.726l.02 1.715-1.62.362.007-2.449 1.593.362v.01zm270.197 4.586c.088-1.013-.231-2.368.935-2.478l-.014-.02.76 1.766v.261l-1.478 1.204c.074-.331 0-.572-.203-.733zm-145.471.18l1.62-.171c0 .803.04 1.887-.515 2.077-.916.311-1.017-.883-1.105-1.896v-.01zm15.944 7.376c-.63-.151-1.606-.141-1.356-1.425.272-1.375.963-.763 1.424.12l-.061 1.305h-.007zm200.217 52.739l.861 1.294c.312.532.285 1.194-.014 1.636-.623.943-.969-.171-1.301-.602-.495-.642-.156-1.515-.075-2.298.177.08.36.07.536-.03h-.007zM1.044 418.76c-.583-2.218-.041-2.88 1.417-2.268l-.02-.05a10.12 10.12 0 0 0 .088 1.204v.02l-.969 1.174-.244-.18-.264.09-.007.01zm390.462-223.203l-.04-2.449c.651-.05 1.227.151 1.613 1.024l-.84 1.455-.366-.04h-.367v.01zm-355.421 2.9c-.088.682.305 1.685-.4 1.936-.271.091-.644-.491-.969-.762h-.109l1.098-1.385c.088.241.21.311.38.211zm6.012 2.067c-.041-.953.169-1.756.685-2.358l.99 1.174a5.59 5.59 0 0 0-.041 1.063l-1.634.121zM21.938 443.955c-.014-.712-.122-1.655.535-1.696.556-.03.8.753.834 1.576l-1.369.12zM307.25 238.322l-.162-1.385a3.11 3.11 0 0 0 .23-1.013l.692-.151.881 1.485c-.061.211-.061.432-.014.653l-1.627.411zm-20.2 229.446l.881 1.324-.875 1.265-.013-.02-.834-1.225-.02-.03.013-1.264.834-.05h.014zm79.972-185.586c.339-.953.848-1.655 1.431-.612.352.643-.075 1.385-.549 1.817l-.888-1.205h.006zM246.606 497.859c-.705.051-1.546.532-1.668-1.204l.014-.03.929-1.174h.671l.027 2.439.034-.031h-.007zm-228.709 1.426c.42-.321.705-1.355 1.308-.682.142.15.17.853.061 1.124-.38.903-.936.391-1.43.24a.71.71 0 0 0 .061-.682zm342.392 3.723c-.095-1.064.116-1.917.732-2.519l.943 1.305a6.59 6.59 0 0 0-.014.963l-1.654.251h-.007zm-139.714 3.701c-.38-.141-1.024-.151-1.092-.452-.291-1.274.475-1.595 1.044-2.047l.048 2.499zM93.436 726.248c-.536-.441-.942-1.134-.434-1.896s.969-.171 1.275.632l-.841 1.264zM19.124 516.462c-.888-.963-.63-2.117-.251-3.301l.081-.05c.644 1.083.569 2.247.136 3.431l.034-.09v.01zm97.889-455.153l-.014-1.264.868-1.184c.779.462.834 1.445.82 2.489l-1.674-.04zm-48.538 7.696l.353-.04 1.024 1.264a4.39 4.39 0 0 0-.02.943l-1.647.241h-.007l.305-2.408h-.007zm167.136 46.269c-.59.03-1.112-.2-1.526-.843l.977-1.545.366.03.176 2.358h.007zm71.253 252.762c-.217.16-.454.492-.637.441-.447-.12-.603-.672-.386-1.254.067-.181.488-.271.63-.14.19.18.271.622.4.953h-.007zm-145.24 216.429l-.915-1.214.068-1.314 1.674.12c-.02 1.004-.101 1.947-.827 2.408zm-35.338 144.393l-1.641-.321c.054-.241.054-.492-.007-.732l.888-1.516a2.34 2.34 0 0 0 .597.011l.203 2.478-.04.08zm55.534-144.404a2.13 2.13 0 0 1 .834.01c0 .793.284 1.164.806 1.174l.305.532c-.115.251-.19.532-.23.823l-1.478-.1-.251-2.429.02-.02-.006.01zM58.09 381.162l-.014-1.144.895-1.224-.027.05.386.03.386-.02v-.07l.027 2.468-1.668-.09h.014zm224.777 208.44c.529-.491.888-1.465 1.647-1.324.118 1.806-.42 2.565-1.613 2.277.061-.321.047-.642-.034-.953zm-23.782-202.16c-.115.341-.169.853-.352.973-.17.111-.461-.18-.705-.301.135-.341.224-.752.413-.993.271-.361.522-.201.644.321zm1.825-230.718l.909-1.395.827.091v1.304l-.814 1.234-.027.041-.895-1.285v.01zm-240.701 2.53l1.62 1.375c-.088.251-.095.502-.014.762l-1.62.352.041-2.499-.02.02-.007-.01zM351.036 398.78c.413-.823.942-1.626 1.471-.401.305.702-.136 1.414-.678 1.705l-.793-1.304zM113.603 710.115a4.8 4.8 0 0 0 .027 1.044l-1.18 1.164-.583-1.144.095-1.235h-.007l1.648.171zm36.24-300.055c.299-.783.759-1.345 1.261-.632.509.722.122 1.425-.366 1.906l-.895-1.274zm-19.341 234.751l-1.681-.19c.63-1.335 1.207-1.535 1.681.19zm177.569-1.474c-.454 0-.915-.171-.779-1.003.156-1.004.549-.572.881-.131-.054.371-.088.753-.102 1.134zM170.92 27.463l-.021-2.458c.278-.04.556-.05.834-.01v1.334c.021.381 0 .763-.081 1.134h-.366-.366zm-3.411 10.045l1.675.05-.014 1.084-1.661.12v-1.254zM89.24 40.077l1.674-.05v1.304l-1.668-.181-.014-1.084.007.01zM44.545 630.944l.115 2.499c-.305 0-.603-.01-.908-.02l.108-2.479a3.92 3.92 0 0 0 .685 0zM153.537 49.86l-.373-2.338c1.952-.11.583 1.435.529 2.328h-.156v.01zm61.981 4.043l1.525.451.047.151-1.566.462v-1.074l-.006.01zm-1.125 17.39c-.414-.923-.902-1.866.258-2.408l-.258 2.408zM50.565 80.124c-.047-1.023-.047-2.007.766-2.408 0 .983-.047 1.937-.766 2.408zm70.69 8.99l1.648-.191v1.344l-1.668-.211.02-.943zm42.058 7.395l1.675-.02v1.264l-1.675-.07V96.52v-.01zm85.801 15.022c-.902-.913-1.098-1.766.095-2.499l-.095 2.499zm-141.328 5.197c.611.06.95.552.834 1.445-.074.592-.447.833-.854.823l.02-2.268zm292.038 10.978c-.739-.231-1.2-.793-.583-1.826.23-.382.603.231.759.722-.102.351-.163.723-.176 1.104zm-213.735 1.604l1.621-.17.013 1.314-1.661-.281a7.25 7.25 0 0 0 .027-.863zm-71.606 14.852l1.613.211.034.843-1.654.26v-1.324l.007.01zm-7.558 3.823l1.668-.08-.007 1.244-1.654-.12v-1.044h-.007zm27.761 6.21l.006-2.498h.793l.028 2.488h-.414-.413v.01zm129.641-1.264l.861-.05-.021 2.559c-.278.04-.549 0-.813-.131l-.027-2.388v.01zm4.223 10.035l-.02-2.499c.969.813.956 1.656.02 2.499zm-166.709 2.449l1.613.341c-.02.231-.013.461.034.692l-1.64.401-.007-1.434zm-31.984 15.131l.027-2.489c.908.853.935 1.686-.027 2.489zm276.15-2.458c1.179.151.935 1.315.772 2.419-.501-.111-.745-.633-.942-1.255l.183-1.204-.02.03.007.01zM45.114 614.849l.339 2.258c-1.281-.221-.644-1.345-.481-2.248h.142v-.01zm151.036-421.88l-.081 2.568c-.895-.923-.874-1.776.081-2.568zm192.896 1.816c.623-.171 1.41-1.024 1.565.813h-.006l-1.6-.492.041-.321zM42.213 209.306l-.163-2.439.02-.03.861-.05.061.08-.203 2.469a2.24 2.24 0 0 0-.576-.04v.01zm268.393 401.469l-1.668.07v-1.315l1.668.151v1.094zM2.454 216.949l.19-2.448a1.28 1.28 0 0 0 .583-.04l.169 2.478-.949.02.007-.01zm384.823 1.206l.068-2.418c.224 0 .441-.02.664-.05l.177 2.508-.915-.04h.006zm-278.69 2.518l1.681.02-.006 1.174-1.668.061v-1.255h-.007zm-40.371 21.313v-2.458c.99.823.99 1.635 0 2.458zm6.659 2.367l-.773.271c-.461.171-.719-.251-.969-.712.319-.271.624-.632.963-.783.23-.1.515.09.773.161-.034.361-.034.712 0 1.073l.007-.01zm-56.374.152l1.668.1-.807 1.315c-.454-.251-.759-.693-.861-1.415zm153.224 17.589h1.675v1.184l-1.675.03v-1.224.01zm138.888 3.753l.068-2.478a4.43 4.43 0 0 0 .631.02l.149 2.448-.848.02v-.01zm-41.208 336.188l-.075 2.499c-.942-.893-1.057-1.736.075-2.499zm-10.258.842l-1.539.351v-1.093l1.58.411-.041.321v.01zM61.791 270.654l-.325-1.063c-.224-.693.081-1.275.407-1.275.319 0 .624.572.386 1.264l-.325 1.064h-.142v.01zm110.2 1.205l-.265-2.247c.278-.041.549 0 .821.13.02.823-.143 1.545-.556 2.117zm-86.969 1.534l1.661.041-.007 1.033-1.641.06-.007-1.124-.007-.01zm252.558 2.488c-.833-.411-.813-1.445-.813-2.468l-.014.02.726-.03.101 2.478zm29.461-1.204l1.668-.03v1.234l-1.675-.08v-1.114l.007-.01zm-164.986 4.948l-.027-2.489c1.071.803 1.064 1.636.027 2.489zm.752 3.542c-.901-.261-.928-1.224-.82-2.288.976.211.834 1.305.82 2.288zm-130.414 2.748c-1.058-.823-1.03-1.665-.014-2.508l.014 2.508zM0 284.692c.841.391.834 1.394.773 2.428-.705-.492-.78-1.425-.773-2.428zm219.015 23.711c-.02-.713-.454-1.957.116-1.997 1.071-.081.325 1.274.413 1.997h-.264-.265zm-107.84 5.067l-.054-2.458c1.166.762.989 1.595.054 2.458zm68.997 8.931l1.661-.101v1.265l-1.668-.091.007-1.073zM6.725 337.351l1.674.041-.007 1.123-1.668.121v-1.285zm81.66 2.509l.007-2.499h.8l.047 2.509h-.854v-.01zm124.74 4.215l1.525-.411-.013 1.073-1.573-.381.061-.281zm-206.433 5.81c-1.071-.783-.922-1.616-.047-2.468l.047 2.468zm265.219.039l1.675-.031v1.265l-1.681-.03v-1.204h.006zm1.649 5.006l.074-2.328c.902.833 1.071 1.626-.074 2.328zM3.445 359.888l-.122-2.479.861.02-.129 2.449-.305-.02-.312.02.007.01zm271.857 2.559c-1.213-.693-.928-1.556-.135-2.489l.135 2.489zm-58.943.061c.508-.09 1.267-.171 1.24.672-.02.693-.827.642-1.342.552.061-.401.095-.813.108-1.224h-.006zm5.87 4.957c-1.017-.763-.902-1.606-.068-2.479l.068 2.479zm43.778-2.519l1.675.03-.014 1.114-1.668.16v-1.304h.007zm-211.768 6.079l-.339-2.277-.02.02.414-.05h.42c.169.913-.156 1.625-.407 2.368l-.068-.061zm5.47 15.303l.061 2.509c-.922-.793-.963-1.626-.061-2.509zm206.353.172c.976.813 1.016 1.586-.055 2.288l.055-2.288zm-230.715 2.307a12.27 12.27 0 0 1 0 1.225l-1.668-.101.841-1.254.82.14.007-.01zm131.701 7.305c-.183-.904-.915-2.047.455-2.258l-.021-.03-.373 2.338-.061-.05zm-117.351-.923l1.641-.1a7.26 7.26 0 0 1 0 1.214l-1.654-.181v-.933h.014zm156.635 2.217l-.074-2.338.888-.03c.203 1.144.189 2.127-.807 2.368h-.007zm93.354-2.327l1.668.02v1.154l-1.681.091.007-1.255.006-.01zm-182.633 1.395l1.641-.181v1.275l-1.647-.221c.02-.291.02-.582.006-.883v.01zM6.711 398.76l1.654.201v.903l-1.647.241-.014-.021-.027-1.274.027-.05h.007zm6.772.051l-.047 2.468c-.888-.361-.915-1.354-.8-2.448l.847-.02zm334.956 1.245l1.722.12v.994l-1.647.11-.075-1.224zm-260.094 7.535c-.888-.853-.936-1.686.027-2.489l-.027 2.489zm106.951-2.498l-.102 2.589c-.217-.04-.427-.04-.644 0l-.102-2.589h.848zm-121.228 5.028l.061-2.479h.691l.108 2.479h-.861zm193.634-.011l.014-2.488h.745l.034 2.468h-.393-.393l-.007.02zm95.116 1.254l1.681.03v1.194l-1.674.02v-1.244h-.007zm-262.637 7.575l1.606.191c0 .301.014.602.048.903l-1.675.261.021-1.355zm10.947 160.52l-.176 2.378c-.658-.913-.909-1.756.176-2.378zm53.194-131.83l-.183-2.399h.007l.848-.01H165l-.21 2.449-.23-.051h-.238v.011zm-67.517 1.393l1.674-.02v1.214l-1.668-.04v-1.164l-.007.01zm254.319 7.416c.291-1.124.888-1.314 1.599-1.184l.021 1.385-1.682-.231.062.03zM150.683 575.715l-1.64-.18a5.29 5.29 0 0 0-.007-.863l1.654-.271.021.04-.021 1.274h-.007zM62.258 460.281c-.902-.863-.956-1.696.034-2.499l-.034 2.499zM55.527 574.38l-1.668.11c.508-1.585 1.071-1.455 1.668-.11zm-7.714-.471c-.386.11-.793.381-1.152.28-.4-.12-.393-.732.014-.822.359-.081.759.23 1.139.361v.17.011zm33.136-103.704l-.169-2.409.02-.02.847.05c.041.974-.054 1.857-.698 2.368v.011zm-5.18-1.074l1.647.03v1.034l-1.654.07c-.02-.381-.013-.753 0-1.134h.007zm174.233-.091l1.573.171c-.298 1.063-.895 1.264-1.579 1.204l.006-1.375zM70.746 479.256c.508-.11 1.322-.241 1.315.502-.007.763-.807.592-1.315.461v-.973.01zm42.158 8.539l-.162-2.438c1.098.662.962 1.505.162 2.438zm140.461 2.619l.075-2.468c.861.883.915 1.705-.075 2.468zm-120.483 7.475c-.726-.943-1.105-1.847.176-2.479l-.176 2.479zm65.064 4.225c.644-.382 1.383-1.144 1.498.772l.034-.04-1.559-.431.027-.291v-.01zm135.424 12.181l1.668-.05c-.536 1.465-1.092 1.435-1.668.05zm-138.793 4.134l.766-.331c.509-.251.705.111.624.793-.061.512-.325.562-.637.321-.231-.181-.502-.251-.759-.371v-.402l.006-.01z"/><path d="M140.589 520.526l.854-.05.217 1.304-1.077 1.124.006-2.378zm178.37 27.635c.081.793.149 2.057-.339 2.057-.482 0-.414-1.264-.332-2.057h.671zm-3.275 4.988c.42.11 1.084-.371 1.057.813 0 .15-.684.261-1.057.391-.021-.401-.021-.803 0-1.204zm-74.975 7.527l.129-2.469c.827.923 1.057 1.776-.129 2.469zm49.785-.062l-.041-2.449c.264-.03.529-.03.8 0v2.469h-.38-.379v-.02zm-121.032 6.141l-.251-2.318c1.288.18.65 1.374.542 2.298l-.285.02h-.006zm78.873 179.562l-.055 2.489h-.698l-.081-2.469c.278-.03.556-.03.834 0v-.02zm-93.448-2.508l-.115 2.428-.611.03-.135-2.468h.861v.01zm-8.42-31.358l-.108 2.429c-.197 0-.4 0-.597.03l-.149-2.459.014-.02.847.031-.007-.011zm-15.165-11.208c-.59 1.234-1.153 1.415-1.668-.11l1.668.11zm21.09-5.118l-.21 2.398h-.244l-.237.051-.224-2.449h.915zm30.051-2.327l.211 2.328c-.245 0-.489-.01-.733-.02l.19-2.368.332.06zm-71.348-1.365c-.577 1.325-1.132 1.375-1.668-.06l1.668.06zm84.214-1.263c1.234.1.902 1.334.786 2.408l.028-.03a2.04 2.04 0 0 1-.773-.141l-.041-2.237zm-155.054-6.222l.197 2.439c-.305 0-.603-.011-.908-.021l.19-2.438a1.12 1.12 0 0 0 .515.03l.007-.01zm-30.174-6.422l-1.661.03.007-1.164 1.64.03.014 1.104zm208.73-12.441l-.223 2.278-.292.07-.305-2.408.021-.02a4.54 4.54 0 0 1 .82.11l-.027-.03h.006zm-168.524-1.156l.197 2.338h-.393-.393l.149-2.428c.135.1.285.13.434.09h.007zm4.319-8.84l.142 2.429c-1.091-.673-.936-1.515-.142-2.429zm87.672-1.284c1.214.11 1.017 1.264.807 2.428-.888-.351-.82-1.415-.807-2.428zM166.702 0c.203.12.561.191.588.361.108.702-.257.743-.601.732L166.702 0zm75.728 14.921c.569.01.861.441.867 1.294-.508-.1-.8-.532-.867-1.294zm-39.562 8.789c-.366.03-.745 0-.637-.742.027-.181.4-.261.617-.381l.02 1.124zm62.278 8.811c.027.853-.237 1.274-.813 1.234.04-.753.311-1.164.813-1.234zm-161.584 3.864a1.42 1.42 0 0 1 .787-.08c-.014.783-.265 1.214-.814 1.184l.021-1.104h.006zM243.258 58.77c-.332-.03-.739 0-.624-.733.028-.181.407-.241.624-.351a9.8 9.8 0 0 1 0 1.084zM229.8 65.082c.624-.07.902.381.861 1.294-.529-.07-.813-.512-.861-1.294zm-122.896 1.294c-.095.692-.373 1.094-.834 1.234.102-.672.387-1.084.834-1.234zm26.1.01c.386-.02.813-.02.698.793-.027.191-.448.261-.685.381l-.013-1.174zm70.725 15.113c.23.12.63.181.657.361.116.773-.298.773-.664.783v-1.144h.007zM16.833 91.482c.454.15.732.562.834 1.244-.447-.161-.725-.572-.834-1.244zm-5.073 13.716c-.723-.381-.709-.753 0-1.124v1.124zM149.842 129.1v-1.244h.841l-.014 1.164c-.271.06-.542.07-.813.04v.05l-.014-.01zM5.862 152.862l-.601-.552.601-.552v1.094.01zm260.152.121h-.888c-.021-.903.278-1.295.867-1.234l.028 1.224-.007.01zm-134.677 1.233a2.69 2.69 0 0 1 .8.06l.006 1.114c-.467-.091-.732-.492-.813-1.184l.007.01zm-61.458 8.82c.237.121.651.181.678.362.122.802-.312.782-.678.792v-1.154zm-45.413 3.733c.258-.03.522-.05.786-.04.02.873-.264 1.284-.847 1.254a7.23 7.23 0 0 1 .061-1.214zm97.603 6.291c.454.12.719.512.8 1.194-.434-.15-.698-.552-.8-1.194zm-91.788 16.187c-.324-.011-.689-.041-.581-.723.027-.171.378-.241.574-.351a11.44 11.44 0 0 1 .007 1.064v.01zm17.673 17.648c-.014.793-.271 1.234-.82 1.254.061-.722.332-1.143.82-1.254zm199.532 4.999l-.657-.522.624-.582.033 1.104zm-143.965 17.499c-.318 0-.662-.05-.568-.692.027-.171.358-.241.547-.362l.014 1.054h.007zm72.415.069v-1.254h.84l-.006 1.184a2.57 2.57 0 0 1-.827.06l-.007.01zm63.943 1.136c-.202-.12-.554-.191-.581-.371-.101-.693.25-.753.602-.723l-.021 1.104v-.01zm-82.444 13.908c-.034-.863.237-1.295.827-1.255a5.95 5.95 0 0 1-.108 1.214c-.244.031-.482.041-.726.031l.007.01zm79.111 1.283c.475.12.76.532.841 1.244-.447-.17-.732-.572-.841-1.244zm-214.683 8.71l-.651-.542.637-.552.007 1.094h.007zm187.75-1.175c.536.02.807.432.827 1.225a2.32 2.32 0 0 1-.813-.141l-.021-1.094.007.01zm48.734 3.785c-.075.291-.115.812-.224.843-.447.15-.434-.402-.454-.853a2.62 2.62 0 0 1 .685 0l-.007.01zm80.046-.043c-.02.803-.291 1.255-.841 1.285.075-.723.353-1.164.841-1.285zm-266.84 3.784l.922.622c-.217.502-.522.702-.915.572v-1.194h-.007zm191.952 7.486c0-.813.238-1.294.827-1.254l-.034 1.144c-.264.13-.528.16-.806.08l.013.03zm-105.235 3.852c.337 0 .675.08.56.732-.027.181-.364.241-.554.362a9.8 9.8 0 0 1 0-1.084l-.006-.01zm45.473 6.334c.203.12.561.19.588.371.101.702-.277.702-.608.712l.02-1.073v-.01zm-67.364 2.428c.231.12.644.19.671.381.122.793-.298.813-.678.813l.007-1.194zm87.552 5.036c.352 0 .759 0 .644.753-.028.181-.421.241-.644.351a9.68 9.68 0 0 1 0-1.104zm58.049 31.187c-.211-.111-.583-.171-.611-.341-.108-.723.285-.703.611-.723a9.44 9.44 0 0 1 0 1.064zm-259.229 7.525c-.027-.381-.034-.753-.02-1.134.59-.04.902.341.854 1.254-.278 0-.556-.03-.834-.12zm75.748 5.149c.271-.02.536 0 .8.09a9.44 9.44 0 0 1 0 1.064c-.481-.051-.752-.432-.807-1.144l.007-.01zm50.442 11.297c-.014.502.006 1.114-.495.953-.115-.04-.156-.612-.231-.943a2.94 2.94 0 0 1 .726 0v-.01zm148.21 3.742c-.02.793-.298 1.215-.834 1.245.075-.713.353-1.134.834-1.245zm2.541 5.028c.271-.03.542 0 .806.08l.027 1.164c-.549-.02-.806-.461-.833-1.254v.01zM42.085 362.458c.468.111.725.532.807 1.214h.02a3.19 3.19 0 0 1-.82-.05l-.007-1.164zm121.235 7.565c.339.03.746 0 .637.743-.027.18-.407.24-.63.361l-.014-1.104h.007zm23.577 12.563c.271-.06.535-.07.807-.05-.089.672-.346 1.094-.814 1.194l.007-1.144zm-79.993 11.217v-1.254h.841v1.254h-.42-.421zm220.582 5.138c.217.121.59.181.61.362.102.732-.285.732-.63.722l.013-1.084h.007zM13.44 427.599c-.317-.031-.709-.01-.601-.713.027-.18.385-.241.594-.351a9.62 9.62 0 0 1 0 1.074l.007-.01zm380.529 13.878c.562-.03.8.421.786 1.224-.488-.08-.746-.502-.786-1.224zm-324.078 2.619c.4.01.779.14.617.893-.041.19-.434.22-.664.321l.041-1.214h.007zm271.933 2.428l.658.632-.685.572c-.02-.402-.014-.803.027-1.204zm-271.906 6.21c.271-1.194.529-1.063.779.021-.258 0-.515 0-.779-.021zm121.148-.038c.549.07.807.532.847 1.324-.488-.15-.752-.612-.847-1.324zm27.766 3.712c-.373-.02-.746-.14-.59-.863.041-.19.414-.22.637-.321l-.04 1.184h-.007zM49.67 476.617c.271-.03.542 0 .807.081l.02 1.134c-.569.04-.841-.372-.827-1.225v.01zm-42.945 4.996c.576-.02.861.402.847 1.264-.264.011-.529-.02-.793-.1l.014.02a7.63 7.63 0 0 1-.068-1.184zm43.785 6.303l.594.542-.574.572-.02-1.114zm-15.985 2.568c.271-.07.535-.1.807-.06-.068.702-.325 1.104-.807 1.154v-1.094zm74.081 216.941c.088-.692.359-1.104.827-1.234-.108.652-.38 1.074-.827 1.234zm-63.152-1.224c.542.03.861.411.881 1.254-.481-.12-.793-.511-.881-1.254zm198.649-54.045l-.622-.592.635-.562-.013 1.154zm-83.298 46.599c.21.11.576.17.603.341.108.712-.278.712-.61.722-.021-.361-.014-.712 0-1.073l.007.01zm81.653-10.055c.202.111.54.161.574.342.128.652-.243.702-.554.792-.034-.381-.04-.752-.027-1.134h.007zm79.17 60.166l.665.632-.705.502a7.91 7.91 0 0 1 .04-1.134zm-76.69-61.599c-.217-.12-.59-.191-.617-.371-.108-.733.298-.723.637-.753l-.013 1.124h-.007zm-102.681-85.222c.455.151.726.562.814 1.245-.448-.151-.712-.582-.814-1.245zm-95.963 79.029c.563.02.868.421.881 1.284-.502-.11-.807-.521-.881-1.284zm91.747-116.687c-.461-.12-.732-.531-.827-1.214h-.007c.278 0 .556.01.827.06v1.154h.007zm-24.431 25.025l-.4.091h-.407c.034-.763.299-1.184.828-1.215l-.021 1.124zm-78.244 86.735l.841.692-.875.562.034-1.254zm276.088-119.276l-.407.02-.4-.09-.02-1.154c.576-.04.827.411.827 1.224zm-55.533-2.429c.353 0 .753 0 .637.742-.027.181-.413.241-.63.352l-.007-1.094zm-2.537 155.522c.556 0 .854.381.854 1.234-.501-.09-.793-.491-.854-1.234zM15.924 540.616a7.95 7.95 0 0 1 .054 1.204c-.488-.101-.773-.502-.827-1.235l.773.031zm215.612-1.316c0-.481.027-1.013.474-.863.116.04.163.552.244.843l-.359.03h-.359v-.01zM40.376 669.697c-.264.09-.536.12-.807.09.034-.762.305-1.164.82-1.194l-.014 1.104zM28.608 527.992c.23.11.617.15.657.341.149.753-.224.883-.624.873l-.027-1.214h-.007zm211.321-6.16l.574.551-.574.552v-1.103zm135.479 130.305c-.563.08-.766-.371-.773-1.134.536-.05.753.401.773 1.134zm-53.854-97.764c.034.793-.054 1.555-.501 2.057-.163.181-.516.251-.692.12-.576-.431-.102-.883.061-1.294.122-.331.298-.622.454-.923h.346l.339.05-.007-.01zm.028-5.018c-.055.783-.116 1.565-.875 1.194-.115-.06-.298-.281-.285-.371.156-.933.604-1.034 1.146-.833l.014.01zm-1.661 10.014c.041-.532.189-.762.432-.632.007 0-.006.331-.067.402-.101.11-.25.14-.378.2l.013.03zm-1.77-2.448l.482-.944c.501.994-.088.903-.461 1.014l-.021-.07z"/><path d="M321.554 554.372l-.339-.06h-.345c-.048-.602.067-1.044.535-.833.102.04.102.582.149.893zM20.108 502.867c.115.772.115 1.946-.332 1.976-.508.03-.542-1.083-.441-1.866.258.01.515-.02.773-.1v-.01z"/><path d="M20.108 502.867c-.258.08-.508.11-.773.1-.088-.983.23-1.355.854-1.254a3.88 3.88 0 0 1-.075 1.154h-.007zm5.111-297.307c-.495.021-1.22.743-1.403-.341-.176-1.063.427-2.017 1.152-1.756.698.261.197 1.385.237 2.128l.014-.031zm268.562 358.836c-.834-.13-1.173-.742-.787-1.946.156-.482.387-.512.604-.231.522.652.149 1.455.169 2.187h.007l.007-.01zM144.766 170.441l-.658-.471.359-.502.278.994.021-.031v.01zm-78.196 3.763c.129-1.054-.237-2.519.969-2.69.475-.07.725.452.752 1.044.041.893.4 2.107-.407 2.488-.346.171-.888-.571-1.335-.893l.02.051zM51.427 447.88l1.437.131c.054.923.495 2.257-.508 2.398-1.281.18-1.017-1.345-.929-2.529zm236.443-78.007c.407-.191.746-.1.915.532.027.11-.122.461-.203.482-.461.09-.658-.332-.732-.944l.02-.07zm-58.78-24.806a2.33 2.33 0 0 0 .59.01c.061 1.545.522 3.101-.027 5.108-1.254-1.766-.651-3.502-.563-5.118zM365.287 462.77l.109-1.144c.447-.161.718-.592.82-1.255 1.308.572.983 1.516.271 2.559l-1.2-.15v-.01zm3.436-4.968c.454.151.725.582.841 1.244-.448-.16-.719-.592-.841-1.244zM16.833 184.31c1.139 0 1.851.632 1.715 2.538-1.803.342-1.878.231-1.715-2.538zm.846 6.3c-.569.01-1.322.863-1.559-.652-.108-.703.325-1.134.678-1.225 1.058-.281.793 1.024.895 1.867l-.014.02v-.01zm12.505 98.286l-.311.783c-.088-.131-.263-.301-.243-.402.047-.281.169-.532.263-.793l.29.402v.01zm212.253 45.947l-.678-.502.386-.562.292 1.074v-.01zM17.585 202.451c-.163.211-.38.713-.522.663-.346-.121-.658-.482-.983-.743.332-.241.651-.582.996-.682.129-.04.332.491.502.752l.007.01zM42.81 138.05a3.43 3.43 0 0 0 .081 1.054c-.481.482-.692 1.836-1.491 1.214-.217-.17-.346-1.114-.237-1.555.298-1.214 1.03-.803 1.647-.723v.01zM178.436 22.426l-.371-.532c.074.03.182.02.223.1.067.12.094.301.135.452l.013-.02zM128.754 372.51c.013.783.258 1.676-.393 2.138-.095.07-.475-.352-.515-.622-.163-1.084.332-1.375.928-1.496l-.02-.03v.01zm.861 4.959l-.4.02-.4-.02c.082-.693.353-1.084.814-1.214a12.09 12.09 0 0 1 0 1.204l-.014.01zm-30.261 3.752a7.02 7.02 0 0 1-.007-1.194c.353.01.718.101.597.793-.034.191-.386.271-.59.401zm5.835-186.868c-.067-.633.041-1.134.495-1.295.082-.03.312.241.305.341-.047.673-.379.903-.786.964h-.02l.006-.01zm51.406-176.914l.392-.612c-.021.131-.014.311-.068.381-.088.11-.223.151-.338.221l.014.02v-.01zM18.48 206.695c-.088-.371-.081-.733.014-1.104 1.03.201.746 1.224.61 2.147l-.312.031-.312-.031a9.11 9.11 0 0 1 0-1.053v.01zm93.475 379.045c-.027.552-.17.994-.59 1.034-.074 0-.237-.301-.217-.402.115-.592.427-.722.807-.632zm64.883 8.689l-.068-2.428c.495 0 1.003 0 .99 1.043-.014.863-.38 1.275-.916 1.385h-.006zM17.693 309.827c.563.14 1.017.461.841 1.475-.047.251-.413.642-.488.572-.576-.502-.325-1.355-.332-2.098l-.02.041v.01zm157.429 4.908l.786-2.529c.583.271 1.017.853.874 1.776-.23 1.535-1.044.793-1.667.763l.007-.01zm-39.04 376.164l-.536-.432c.088-.13.197-.401.271-.381.19.06.366.241.549.371l-.284.432v.01zm8.553-146l-.135.372-.365-.412.263-.361.244.401h-.007zM262.32 648.304l-.515-.431c.088-.131.203-.382.271-.362.19.071.359.251.536.382l-.292.411zM127.595 540.415l-.489-.442c.089-.12.197-.371.265-.351.183.07.339.251.508.391l-.284.402zm-87.634-38.722c.081.261.189.522.23.793.014.101-.162.241-.25.371-.081-.26-.189-.521-.23-.792-.014-.101.162-.241.25-.372zM29.239 657.574l.041 1.927c-.725.07-1.81.793-1.668-1.214.095-1.385 1.01-.793 1.634-.713h-.007zm229.494 1.246c.088 0 .196-.04.25.03.216.241.162.522-.155.712-.041.02-.189-.221-.23-.381-.02-.09.081-.241.128-.361h.007zm-3.137 75.979l-.529-.442c.088-.13.196-.391.264-.371.19.06.36.241.536.371l-.278.432.007.01zm133.17-219.902c-.095.121-.196.341-.284.331s-.169-.251-.25-.391c.095-.121.196-.341.284-.331.088 0 .169.251.25.391zM154.755 307.77l-.148.441-.412-.462.283-.441.271.462h.006zm42.703 14.399l-.27-.23.297-.612c.087.15.25.301.243.441 0 .141-.176.271-.27.401zM342.243 504.05l-.297-.22.317-.612.291.431-.311.401zM39.528 224.407l-1.559-.101c-.034-.933-.386-2.217.61-2.348 1.268-.17 1.098 1.225.949 2.449zm152.473 332.594l1.478.09c.007.904.359 2.188-.61 2.328-1.322.181-.942-1.314-.868-2.418zm192.596 2.849l-.283.763c-.088-.13-.257-.301-.237-.401.041-.281.162-.532.25-.803l.27.431v.01zm-157.285 37.258l.595.431-.331.472-.243-.933-.021.03zM99.317 144.172l.02 1.284c-.797-.391-.824-.823-.02-1.284z"/><path d="M100.139 146.63l-.4.03h-.4l-.034-1.275c.488.111.753.532.827 1.245h.007zm285.41 273.525h.847l-.02 2.488-1.668.03.847-2.518h-.006zm-259.311 295.99l-.65-.432.352-.521.278.983.02-.03zm159.941-169.268l-.405.622c.02-.13.014-.321.074-.391.095-.111.23-.141.352-.211l-.014-.02h-.007zM22.758 425.111a4.69 4.69 0 0 1-.007-1.154l.664.572-.651.582h-.007zm177.589 126.763c.556.02.8.482.848 1.264-.59.04-.827-.451-.848-1.264zm-46.281 27.655l.664.521c-.597.823-.556-.04-.644-.551l-.02.03zm174.275-214.633c.061-.703.311-1.124.799-1.194-.054.712-.318 1.113-.799 1.194zm-198.7 65.282l.298-1.074.38.582-.678.492zM55.498 648.514l-.25 1.003-.358-.502.635-.461-.027-.03v-.01zm81.879-378.643a.46.46 0 0 0 .495.02c-.021.904.65 2.288-.699 2.288l.21-2.318-.006.01zm32.674 273.253l.644.532c-.63.893-.522-.111-.637-.542l-.013.02.006-.01zM17.457 215.374c-.468.1-.746.481-.82 1.184-1.952-1.526.027-2.128.325-3.131.576.421.346 1.294.495 1.947zm252.775 443.104l.02-2.428c.495.121.997.261.997 1.234 0 .984-.529 1.074-1.011 1.194h-.006zM61.445 391.304c-.095.663-.359 1.084-.813 1.214.088-.682.352-1.093.813-1.214zm100.213-263.428l-.888 1.204c-.617-.04-1.24-.05-1.532-1.094l.699-1.405c.752-.09 1.735-.883 1.721 1.295zm212.073 406.478c.028.391.028.772 0 1.164-.217-.121-.583-.191-.616-.382-.122-.722.264-.762.616-.782zM20.222 644.74c.854-.181 1.762-.652 2.264.963-.881.342-1.884 1.315-2.264-.963zM2.528 206.896l-1.552-.221.061-1.997c1.268-.401 1.952.05 1.485 2.228l.007-.01zm115.272-.071l-.387.071-.386-.03c.013-.502.027-1.074.502-.924.128.041.183.572.271.883zm211.317 342.582a11.69 11.69 0 0 1 0 1.184l-.574-.582.574-.592v-.01zm-10.105-94.174l-.4.04-.4-.03c.034-.522.007-1.174.529-1.003.129.04.176.642.264.983l.007.01zm-133.01-407.4c-.278-.02-.549-.11-.814-.261l.048-2.489c.956.482.725 1.696.766 2.749zm48.883 560.524c.258-.03.516-.02.767.03-.089.301-.143.803-.272.853-.454.15-.488-.382-.495-.883zM173.346 23.78c.197-.271.285-.612.265-1.013.257.06.468-.06.623-.361.495.15.888.441.861 1.335l-1.755.05.006-.01z"/><path d="M172.538 23.682l.908-.02c.116 1.084-.183 1.555-.922 1.395l.014-1.375z"/><path d="M172.586 26.28l-.861.05v-1.334l.868-.06-.007 1.345zm48.755-9.272a1.73 1.73 0 0 0 .054-.833c.38-.06.82.191.766.672-.061.512-.502.512-.82.16zm-79.965 503.569l.027-1.345.868.673-.895.672zm9.314-342.529c.271-.031.542-.031.814 0-.272 1.083-.543 1.093-.814 0zm44.538 231.961l-.359.06-.359-.03.047-2.358c.217-.04.427-.05.644 0l.027 2.328zM93.409 61.399c.041.863-.068 1.626-.624 2.087-.088-.893-.617-2.077.624-2.087zm170.097 145.448c.074 1.053.284 2.207-.794 2.428-.054-1.044-.569-2.418.794-2.428zm-245.026-.15a9.25 9.25 0 0 0 0 1.053c-.664.522-.746-.17-.827-.883a1.22 1.22 0 0 1 .827-.17zm9.267 32.84c.122 1.114-.535 1.656-.813 2.469-.597-.161-1.329.12-1.566-1.124.678-.903 1.335-1.876 2.379-1.335v-.01zm98.525 490.464c-.013 1.024-.054 2.017-.827 2.478-.013-1.043 0-2.057.827-2.478zm21.87-308.604h-.406-.407l-.007-1.224c.454.141.732.552.827 1.234l-.007-.01zm8.378 77.707l-.379.06-.387-.02c0-.803.251-1.245.814-1.214.013.391 0 .782-.048 1.174zm83.382-474.139c-.522-.05-.78-.482-.827-1.224.522.04.78.482.827 1.224zm-47.216 515.73l-.101 2.138-2.224.08-.068-2.258c.8-.512 1.6-.502 2.393.04zm23.679 104.046l1.674-.051-.061 2.459-1.545-.07-.068-2.338zM60.645 378.813c.258-.07.508-.07.766 0l-.217 2.078h-.359l-.19-2.068v-.01zm136.333-101.677h-.421-.42v-1.255h.841v1.255z"/></svg>