<svg xmlns="http://www.w3.org/2000/svg" width="3902" height="1000" fill="none" xmlns:v="https://vecta.io/nano"><g clip-path="url(#C)"><use href="#D" fill="#fff"/><use href="#D" fill="url(#A)"/><use href="#E" fill="#fff"/><use href="#E" fill="url(#A)"/></g><use href="#F" fill="#fff"/><use href="#F" fill="url(#B)"/><defs><linearGradient id="A" x1="264.298" y1="217.504" x2="930.676" y2="910.745" gradientUnits="userSpaceOnUse"><stop stop-color="#ab750f"/><stop offset=".484" stop-color="#d8a956"/><stop offset="1" stop-color="#ab750f"/></linearGradient><linearGradient id="B" x1="1935.04" y1="342.367" x2="2078.61" y2="1057.82" gradientUnits="userSpaceOnUse"><stop stop-color="#ab750f"/><stop offset=".484" stop-color="#d8a956"/><stop offset="1" stop-color="#ab750f"/></linearGradient><clipPath id="C"><path fill="#fff" d="M0 0h1000v1000H0z"/></clipPath><path id="D" d="M270 0h420l310 860-310 140-160-680-95.845 272.4 108.372-44.509 49.286 209.465L0 1000l245.916-702.617L455 145l-169.857 40.305 46.101-131.716L270 0z"/><path id="E" d="M952.249 609.578L880.044 409.267L1000 360L952.249 609.578Z"/><path id="F" d="M1534.29 779l-21.43-89.048h-135.24L1359.52 779h-140l145.24-519.524-11.43-38.571H1550L1709.05 779h-174.76zm-95.24-394.286l-41.91 208.096h92.38l-50.47-208.096zM2065.45 779h-337.62V220.905h330.48l-9.53 112.381-163.33-4.762v107.619h128.57v111.428l-128.57-9.523v126.666l180-4.762V779zm199.91-185.714V779h-158.1V220.905h62.86c15.24 0 37.94-.635 68.09-1.905 30.16-1.587 55.08-2.381 74.77-2.381 68.57 0 119.68 15.079 153.33 45.238 33.97 30.159 50.95 76.349 50.95 138.572 0 36.825-8.09 69.523-24.28 98.095-15.88 28.571-36.99 51.27-63.34 68.095 14.29 3.492 26.51 11.587 36.67 24.286 10.48 12.698 18.57 27.778 24.29 45.238 5.71 17.143 10.63 34.603 14.76 52.381a961.15 961.15 0 0 0 14.76 51.905c5.71 17.142 11.9 30 18.57 38.571h-175.71c-3.5-4.444-6.19-16.825-8.1-37.143-1.9-20.635-4.6-45.238-8.09-73.809-3.18-28.889-7.78-53.016-13.81-72.381h-2.38-19.53l-17.62-.953-16.19-.952c-5.4-.318-9.36-.476-11.9-.476zm0-88.572h15.24c7.93 0 14.6-.317 20-.952 5.39-.635 11.26-1.746 17.61-3.333 6.67-1.905 12.07-4.762 16.19-8.572 4.45-3.809 8.58-8.73 12.39-14.762s6.66-13.809 8.57-23.333c1.9-9.524 2.85-20.635 2.85-33.333V382.81c0-27.62-7.3-46.826-21.9-57.619-14.29-11.112-34.92-16.667-61.91-16.667h-9.04v196.19zM2906.69 779h-337.62V220.905h330.48l-9.53 112.381-163.33-4.762v107.619h128.57v111.428l-128.57-9.523v126.666l180-4.762V779zm194.67 0h-151.43V265.667l-23.33-44.762h175.23l87.62 180.952 83.81 180.476-23.33-211.904V220.905h151.9V779H3256.6l-113.34-220.476-70-138.095 28.1 182.857V779zm638.56 0l-21.43-89.048h-135.23L3565.16 779h-140l145.24-519.524-11.43-38.571h196.67L3914.68 779h-174.76zm-95.24-394.286l-41.9 208.096h92.38l-50.48-208.096z"/></defs></svg>