<svg xmlns="http://www.w3.org/2000/svg" width="394" height="757" fill="none" xmlns:v="https://vecta.io/nano"><path d="M259 25h-21l-8 10h23l6-10z" fill="url(#C)"/><path d="M135 25h21l8 10h-23l-6-10z" fill="url(#D)"/><path d="M49 20L0 0v25h136.5l-3.5-5H49z" fill="url(#E)"/><path d="M344.5 20l49-20v25H257l3.5-5h84z" fill="url(#F)"/><path d="M394 754H275l-9-5.958h-69V740h197v14z" fill="url(#G)"/><path d="M0 754h119l9-5.958h69V740H0v14z" fill="url(#H)"/><path d="M0 21h133l9 13h109l9-13h134v720H0V21z" fill="#f5f1ee"/><g fill-rule="evenodd"><path d="M142 36h54v-3h-54v3z" fill="url(#I)"/><path d="M251 36h-53v-3h53v3z" fill="url(#J)"/></g><path d="M206 34l-9-17-9 17 9 14 9-14z" fill="#ab750f"/><path d="M188 34l9-17v31l-9-14z" fill="#ffc502"/><path d="M197 17l-9 17 9-14 9 14-9-17z" fill="#fff" fill-opacity=".3"/><mask id="A" maskUnits="userSpaceOnUse" x="0" y="21" width="394" height="720" mask-type="alpha"><path d="M133 21H0v720h394V21H260l-9 13H142l-9-13z" fill="#f5f1ee"/></mask><g mask="url(#A)"><path fill-rule="evenodd" d="M179.266 646.283l3.111-59.627-14.124-44.827-30.703-29.475-23.948 25.177-11.053 80.442-15.352-9.825-22.106-55.88-14.737 19.65v-59.564l-12.281-51.581-20.878-23.948L0 512.354l-5.527-9.825-13.509 87.811-11.667 8.597c-3.275 20.469-10.439 61.652-12.895 62.635s-8.392-14.329-11.053-22.107c-5.936 14.943-18.299 45.318-20.264 47.283l-21.492 76.144c4.097 10.716 46.001-10.356 66.413-20.621 6.1-3.067 10.281-5.17 10.959-5.17 2.947 0 27.837-4.093 39.914-6.14L0 753.067h259.749l-4.16-6.141h223.994l-12.896-19.036-43.598-68.775-9.825 21.493-14.738-29.475 3.685-70.618-14.124-44.826-30.703-29.475-23.948 25.176-11.053 80.443-15.352-9.825-22.106-55.88-14.738 19.65v-59.564l-12.281-51.581-20.878-23.949-17.194 75.53-5.526-9.825-13.51 87.811-11.667 8.597c-2.346 14.663-6.688 39.957-9.865 53.486z" fill="url(#K)" fill-opacity=".3"/></g><mask id="B" maskUnits="userSpaceOnUse" x="0" y="21" width="394" height="720" mask-type="alpha"><path d="M133 21H0v720h394V21H260l-9 13H142l-9-13z" fill="#f5f1ee"/></mask><g mask="url(#B)"><path fill-rule="evenodd" d="M-46.669 724.206c8.801-18.422 27.387-55.634 31.317-57.108s14.328-18.626 19.036-27.018l11.667 31.931c2.866-3.275 8.72-8.843 9.211-4.913s8.392 26.2 12.281 36.844l31.317-69.389 22.72 25.791 27.019-54.038 36.843 65.705 15.966-20.878 17.973 37.243c6.042-11.369 11.431-20.56 13.344-21.278 3.93-1.473 14.328-18.626 19.036-27.018l11.667 31.931c2.866-3.275 8.72-8.843 9.211-4.913s8.393 26.2 12.282 36.844l31.317-69.389 22.72 25.791 27.019-54.038 36.844 65.705 15.965-20.878c8.188 17.603 25.054 52.809 27.019 52.809s20.878 31.522 30.089 47.283l-291.68 3.684 1.549-2.765-218.927 2.765 17.194-30.703z" fill="url(#L)" fill-opacity=".6"/></g><path d="M206 743l-9-17-9 17 9 14 9-14z" fill="#ab750f"/><path d="M188 743l9-17v31l-9-14z" fill="#ffc502"/><path d="M197 726l-9 17 9-14 9 14-9-17z" fill="#fff" fill-opacity=".3"/><g opacity=".35" fill="#ab750f"><path d="M142.974 277.487c-.868.668-.473 1.782-.875 2.623-.583 1.214-.887 1.208-2.08-.154l-.019-.066c.434-.287.557-.721.557-1.222.214-.073.298-.227.246-.46.48-.254.648-.707.739-1.208l-.026.033 1.484.334-.019.12h-.007zm-6.369 81.517l.356.938.039 1.8-.266 1.034c-.839.253-1.678.327-2.527.037l-.207-2.916c.168-.29.197-.588.109-.9.296-.171.384-.394.276-.662l1.154-.335 1.066 1.012v-.008zm-71.537 12.725c-.265-1.119.312-1.863.623-2.729h.01l.649.022.088.873.099.982.462.838-.021.808a5.12 5.12 0 0 0-.603.253l-.686.224c-.104-.159-.099-.318.016-.462a.92.92 0 0 0-.634-.802l-.005-.007zm197.038-42.548c1.194-.421 1.979-.172 1.887 1.449l-.198 2.37.021-.023c-.862.156-1.053-.873-1.661-1.17.142-.296.092-.545-.155-.74l.127-1.918-.021.032zM202.756 447c-1.115-.676-.889-1.369-.02-2.061.451-.096.69-.454.827-.939.554.032 1.314-.024 1.416.692.171 1.138-.745 1.154-1.402 1.345-.458.104-.691.47-.821.955V447zm-5.135 90.049V537c.458 1.462.623 2.85-.209 3.967l.014.033c-.212-.928-.568-1.766-.366-2.957l-.059.148.62-1.133v-.009zM56.984 297.492c-.14.232-.301.439-.414.694-.333.75-.796 1.109-1.285.519-.511-.622-.247-1.357.113-1.979l.393-.726-.022.016c.613.096.801.997 1.231 1.444l-.016.04v-.008zm71.954 10.463l-1.015.045c-.123-.643-.061-1.357-.923-1.714.038-.52.062-1.189.746-1.273 1.085-.13 1.008.766 1.254 1.337l-.069 1.605h.007zM299.693 369h-1.331l-.362-1.322 2.03-.661-.033-.017.88 1.333.123-.05-1.307.711V369zM14 324.183l-.016.305c-.601.666-1.244.601-1.905.264l.081.113c-.222-.955-.211-1.91.016-2.865l-.081.161c.947.016 1.477.906 1.899 2.022H14zM84.162 481c-.154-1.681-.348-3.361.211-5h.183c.188 1.709 1.091 3.494-.394 5zm124.826 209.373l.012 1.226c-.647.506-1.318.506-2 .15l.075.119.041-1.74-.076.111c.659-.356 1.313-.317 1.943.134h.005zM148.745 659c-.403-.33-.846-.608-1.192-.991-.485-.538-.887-1.268-.139-1.816.674-.495 1.224.043 1.586.704l-.255 2.094V659zm73.273-310.992c2.096.613 2.355 1.097 1.585 2.992l-.814-1h.006l-.783-.976-.012-.016.018-1.008v.008zM360.993 499.13l-.459 2.87.049-.035L359 500.96l.049-1.457a1.81 1.81 0 0 0 .7-.503l1.251.13h-.007zM184.992 189.041l-.033 3.909c-.552.133-.955.025-1.012-.639-.05-.871.23-1.875-.931-2.274l.033-1.037-.049.05 2-.009h-.008zm139.812 378.966c1.174.192.797 1.18.967 1.887l.229.973-.28.133-.214-.228c-.192.088-.392.103-.598.029-1.041-.192-.886-1.017-.908-1.747.421-.236.782-.509.797-1.054l.007.007zM37 570.496v-.361L38.041 569c1.963.135 2.676.681 1.087 2L37 570.496zM346.777 481h-.293l-.484-1.225c.19-.121.271-.267.249-.45L348 479l-.044 1.346-1.179.649V481zM250 472.892v-.831l.944-1.147h.016l1.424-.897.128-.017.488 1.97-.032.033c-.528.116-.864.44-1 .997l-1.968-.108zm-111.017 70.506c-.351.442-.841.778-1.594.501-.543-.194-.429-.59-.192-.926l.717-.932L139 542l-.009 1.398h-.008zM75 420.673c-.194.118-.406.355-.569.324-.418-.087-.551-.455-.315-.811.097-.143.478-.237.617-.156.157.094.182.418.266.643zM129.026 446c-.681-.061-1.112-.434-1.012-1.13.101-.666.611-1.009 1.242-.817a1.25 1.25 0 0 1 .711.767c.161.706-.29 1.069-.941 1.18zm88.794-277.964c.185.268.215.558.085.855a.78.78 0 0 1-.062.602c.169.145.2.319.1.507-.561-.486-1.213-.261-1.843-.217L216 168l1.813.022.007.014zM209 468c-.504-.09-1.095-.148-.987-1.213.071-.672.564-.746.971-.787l.016 2zm-35.443-293c-.259 0-.512 0-.772-.008.018-.679-.34-.9-.785-1.015l.043-.893 1.502-.084c.964.656.111 1.328.012 2zm-2.982 7c.146.161.425.323.425.484 0 .437-.349.622-.748.455-.153-.066-.292-.425-.241-.598.044-.15.367-.227.57-.335l-.006-.006zM91 195.351c-.191.231-.406.707-.572.643-.412-.18-.547-.913-.314-1.634.092-.283.474-.463.615-.296.154.193.185.837.271 1.287zM190.035 210l-.035-2c.476.088 1.097.032.987 1.197-.064.699-.56.763-.952.803zM39 501.263c-.179.258-.364.761-.526.736-.424-.086-.591-.773-.388-1.533.084-.307.46-.564.615-.429s.203.797.299 1.226zm131-259.628c-.18.132-.366.383-.528.364-.415-.056-.583-.408-.397-.784.078-.15.457-.263.613-.194.156.075.21.401.312.614zm-98.992 3.223c.049-.775.105-1.749.842-1.843 1.207-.161 1.101 1.04 1.15 1.985l-2-.132.008-.01zM337.399 248c.16.071.445.107.522.25.178.32.047.647-.309.742-.154.042-.468-.089-.539-.232-.154-.308-.071-.617.326-.76zM73.154 512c-1.142-.391-1.208-1.173-1.133-2 1.798.155 2.79.605 1.133 2zm197.85 3c-.004-.807.016-1.82.361-1.967.559-.246.599.934.635 1.937l-1 .03h.004zM28.832 276l-.288-.033-.288.027-.256-1.348.016-.011 1.208-.635a1.24 1.24 0 0 0 .536 0l.24 1.343-1.176.657h.008zm363.154 7.896c.044.856.008 1.64-.426 2.104l-.548-1.144-.012-1.72a1 1 0 0 1 .485-.136l.016.024.485.864v.008zm-330.994 10.06c-.888.634-1.775 1.285-2.986.956v-.893L59.031 293l-.024.024 1.969.086c-.016.282 0 .572.024.854l-.008-.008zM28 535l.04-2c.791.04 1.802.096 1.932.787.23 1.149-1.021 1.109-1.972 1.213zm4.004-233.143c.029-.755.033-1.748.404-1.844.58-.153.559 1.041.592 1.987l-1-.134.004-.009zM223 542.008l2 .008-.06 1.984-1.585-.056L223 542v.008zM127 307c.004.834-.069 1.598-.577 2-.917-1.583-.166-1.792.577-2zm4.81 242h-.636l-.141-1.983-.033.068 1-.042-.021-.043-.169 2zm145.142-230c-.885-.064-2.25-.077-1.894-.642.394-.619 1.346-.332 1.942.082l-.058.56h.01zM167.89 555c-.292-.254-.777-.463-.853-.761-.183-.816.335-1.29 1.069-1.235.755.055 1.057.706.809 1.379-.108.297-.669.419-1.025.617zm86.11.422c.163-.151.325-.422.488-.422.44 0 .615.353.452.75-.066.151-.428.29-.596.239-.151-.044-.229-.371-.338-.567H254zM230.458 331c-.367-.101-.541-.369-.419-.714.052-.143.343-.297.512-.285.378.035.524.357.413.696-.047.142-.332.202-.506.303zm-59.464 233.76c-.082.366-.111.926-.251 1.086-.321.343-.648.103-.735-.617-.041-.32.087-.937.233-1.086.321-.343.601-.045.759.629l-.006-.012zm121.947-221.617L293 345l-1.792-.398c.045-.264-.03-.489-.208-.685l.134-.917 1.807.143zM116.996 569l-.996-.074V567h.988l.012 1.992-.004.008z"/><path d="M224.935 346c.849.09 1.714.127 2.065 1.09l-.109.089-.99.821-.452-.015h-.452l-.997-.992.935-.993zM90.004 570.089l.994-.089c.004.377.029.885-.313.975-.564.151-.63-.405-.685-.886h.004zM176.573 574c.151.161.427.321.427.482 0 .44-.345.624-.747.457-.157-.065-.288-.428-.244-.606.037-.149.363-.226.564-.333zm-130.67 11c-.755-.057-1.781-.008-1.888-.745-.165-1.117 1.036-1.142 1.985-1.255l-.087 2h-.01zm-10.928 1.303l.025 1.402-2 .295.008-2 1.966.295v.008zM301 590.32c.052-.941-.137-2.199.556-2.301l-.008-.019.452 1.64v.242l-.879 1.118c.044-.307 0-.531-.121-.68zm-143-.16l1.999-.16c0 .755.05 1.774-.636 1.953-1.129.292-1.254-.83-1.363-1.783v-.01zm15.907 5.84c-.861-.135-2.195-.126-1.852-1.276.371-1.232 1.315-.683 1.945.108l-.083 1.168h-.01zm196.89 39l.956.785c.346.322.316.724-.015.991-.693.572-1.076-.103-1.445-.365-.55-.389-.174-.918-.083-1.393.196.049.399.043.595-.018h-.008zM1.134 466.937c-.34-1.729-.024-2.245.826-1.768l-.012-.039.051.939v.016l-.565.915-.142-.141-.154.071-.004.007zm384.891-164.961l-.025-1.97c.403-.041.761.121 1 .823l-.521 1.171-.227-.032h-.227v.008zm-350.067 2.122c-.117.316.404.781-.53.898-.359.042-.853-.228-1.285-.354H34l1.455-.642c.117.112.279.144.503.098zm6.045.902c-.024-.809.101-1.489.408-2l.589.996a6.73 6.73 0 0 0-.024.902l-.973.102zM22.011 485c-.01-.42-.088-.976.387-1 .402-.017.578.444.602.929l-.989.071zM302.18 333l-.18-1.087a1.86 1.86 0 0 0 .256-.795l.767-.118.977 1.165c-.068.166-.068.339-.015.512l-1.805.323zm-19.686 170l.506 1.023-.502.977-.008-.016-.478-.945-.012-.024.008-.976c.159-.024.319-.031.478-.039h.008zm78.515-137.516c.432-.408 1.081-.709 1.825-.262.45.275-.095.593-.7.778l-1.134-.516h.009zM242.992 524.921c-.842.04-1.846.424-1.992-.96l.016-.024 1.109-.937h.802l.032 1.945.041-.024h-.008zm-224.951 1.048c.281-.344.471-1.45.874-.731.095.162.113.914.041 1.204-.254.966-.625.419-.956.257.091-.214.104-.462.041-.73zM355.013 529c-.056-.845.068-1.522.431-2l.556 1.036c-.016.255-.02.51-.008.765l-.975.199h-.004zM217 532c-.329-.112-.886-.12-.945-.361-.252-1.021.411-1.278.904-1.639l.041 2zM92.442 694c-.355-.392-.625-1.008-.288-1.686s.643-.151.846.562L92.442 694zM18.665 538.93c-.983-.842-.698-1.851-.278-2.886l.09-.044c.713.947.63 1.965.15 3l.037-.079v.009zm97.343-336.946l-.008-.508.514-.476c.461.185.493.581.485 1l-.991-.016zm-48.652 6.049l.421-.033L69 209.033a2.46 2.46 0 0 0-.024.77l-1.968.197H67l.364-1.967h-.008zM232 241.998c-.773.025-1.458-.168-2-.705l1.28-1.293.48.025.231 1.973H232zm69.994 186.696c-.192.11-.403.337-.565.302-.397-.082-.536-.459-.343-.858.06-.123.433-.185.559-.096.169.124.241.426.355.652h-.006zM159.525 589l-.525-.96.039-1.04.961.095c-.012.794-.058 1.54-.475 1.905zm-34.573 107l-1.944-.25a.82.82 0 0 0-.008-.57l1.052-1.18c.233.023.474.023.707.008l.241 1.929-.048.063zm55.055-106.972a.72.72 0 0 1 .426.008c0 .616.145.904.411.912l.156.413a3.28 3.28 0 0 0-.118.639l-.754-.078-.128-1.886.01-.015-.003.007zM57.016 438.927L57 438l1.073-.992-.032.041.463.024.463-.016V437l.032 2-2-.073h.016zM278 593.139c.636-.419 1.068-1.247 1.981-1.127.141 1.536-.505 2.182-1.94 1.938.073-.274.057-.547-.041-.811zm-23-149.798c-.109.225-.16.563-.333.643-.161.073-.436-.12-.667-.199.128-.225.212-.497.391-.656.256-.239.494-.133.609.212zm2-170.296l.523-1.045.477.068v.977l-.469.925-.015.03-.516-.962v.007zm-236.983 1.963l1.983 1.1a.64.64 0 0 0-.017.611L20 277l.05-2-.025.016-.008-.008zM346 451.882c.263-.705.6-1.393.936-.344.195.602-.086 1.213-.431 1.462l-.505-1.118zM111.969 682.143c-.031.296-.023.583.031.878l-1.338.979-.662-.962.108-1.038h-.008l1.869.143zM148 459.859c.199-.701.506-1.204.84-.566.339.647.082 1.276-.244 1.707l-.596-1.141zM129 634l-2-.153c.75-1.074 1.435-1.235 2 .153zm173.888-1c-.502 0-1.011-.211-.861-1.242.172-1.241.606-.707.973-.161-.06.459-.097.931-.112 1.403zM169.024 177l-.024-1.971a5.05 5.05 0 0 1 .991-.009v1.071c.024.305 0 .611-.096.909h-.436-.435zm-4.012 8l1.988.04-.016.864-1.972.096v-1zm-77.004 2.038L90 187v1l-1.984-.138-.016-.831.008.007zM43.873 623l.127 2c-.336 0-.664-.008-1-.016l.119-1.984a5.93 5.93 0 0 0 .754 0zm107.483-429l-.356-1.995c1.867-.094.557 1.224.506 1.986h-.15V194zm60.646 3.009l.968.421.03.14-.994.43v-1l-.004.009zM210.643 210c-.573-.767-1.249-1.55.357-2l-.357 2zm-160.622 6c-.061-.85-.061-1.667.979-2 0 .817-.061 1.608-.979 2zm69.991 7.142L121 223v1l-1-.157.012-.701zM161 228.016l2-.016v1l-2-.056v-.92-.008zM244.886 239c-1.082-.365-1.318-.707.114-1l-.114 1zm-138.863 4c.696.053 1.083.487.952 1.274-.086.522-.511.735-.975.726l.023-2zm287.809 8c-.706-.119-1.147-.407-.557-.939.22-.196.576.119.725.372-.097.18-.155.371-.168.567zm-209.816 1.13l.976-.13.008 1-1-.214c.016-.213.02-.435.016-.656zm-71.008 11.878l1.951.159c0 .212.008.424.041.636l-2 .197v-1l.008.008zM106 266.065l.996-.065-.004 1-.988-.097v-.838H106zM133 271l.008-2h.959l.033 1.992h-.5-.5V271zm127-.961l1-.039-.024 1.988a2.27 2.27 0 0 1-.944-.101l-.032-1.856v.008zm4.028 6.961l-.028-1c1.338.325 1.319.663.028 1zM101 279l.979.238a1.9 1.9 0 0 0 .021.482l-.996.28-.004-1zm-32 11l.038-1c1.27.343 1.308.677-.038 1zm272.157-.984c1.092.062.866.535.715.984-.464-.045-.69-.257-.872-.51.069-.159.125-.323.169-.49l-.018.012.006.004zM44.568 611l.432 2c-1.635-.196-.822-1.191-.614-1.991h.182V611zM194 300l-.111 2c-1.217-.719-1.189-1.383.111-2zm189.051 1.299c.776-.147 1.755-.883 1.949.701h-.008l-1.992-.424.051-.277zM306 608.947l-2 .053v-1l2 .114v.833zM2.007 316.996l.2-.98c.207.012.414.008.614-.016l.179.992L2 317l.007-.004zm379 .972l.074-1.928a7.34 7.34 0 0 0 .726-.04l.193 2-1-.032h.007zM107 320l2 .016-.008.936-1.984.048v-1H107zm-40 16v-2c1.333.669 1.333 1.331 0 2zm7 1.802l-.887.173c-.529.109-.825-.16-1.113-.456.366-.173.716-.404 1.105-.501.265-.064.591.058.887.103a2.03 2.03 0 0 0 0 .687l.008-.006z"/><path d="M18 338l2 .071-.968.929c-.545-.177-.91-.489-1.032-1zm152 13.008h1v.967l-1 .025v-1 .008zm136 2.984l.08-1.992.744.016.176 1.968-1 .016v-.008zM265 602l-.091 2c-1.156-.715-1.298-1.39.091-2zm-10.051.679l-1.933.321c-.017-.33-.025-.67 0-1l1.984.376-.051.294v.009zM61.421 357l-.341-.91c-.234-.592.085-1.09.426-1.09.334 0 .653.489.405 1.082l-.341.909h-.149V357zm22.582 2l1.997.035-.008.912-1.972.053a8.05 8.05 0 0 1-.008-.991l-.008-.009zm277.005 1.024l1.98-.024v1l-1.988-.065v-.902l.008-.009zM198.983 366c-1.025-.114-1.056-.535-.932-1 1.109.092.948.57.932 1zM0 367c1.055.322 1.046 1.149.969 2-.884-.405-.978-1.174-.969-2zm215.202 18c-.023-.712-.518-1.956.131-1.997 1.222-.08.371 1.275.472 1.997h-.302-.301zm-105.136 4l-.066-2c1.429.62 1.213 1.298.066 2zm67.942 6.079L180 395v1l-2-.071.008-.85zM7 406l1 .031-.004.875L7 407v-1zm80 1.992l.008-1.992h.936l.056 2h-1v-.008zm122.077 3.391L211 411l-.017 1-1.983-.355.077-.262zM7 416c-1.421-.634-1.223-1.309-.063-2L7 416zm261.004.024L269 416v1l-1-.024v-.952h.004zM269 419l.093-1c1.119.358 1.329.698-.093 1zM3.142 423L3 421l1 .016-.15 1.976-.354-.016-.362.016.008.008zM271 425c-1.477-.556-1.131-1.25-.165-2l.165 2zm-57.924.041c.378-.068.944-.129.923.505-.015.521-.615.483-.999.415a8.02 8.02 0 0 0 .081-.92h-.005zM262.004 427l.996.023-.008.854L262 428v-1h.004zm-208.596 3.975l-.385-.962-.023.008.469-.021h.477c.193.386-.177.686-.462 1l-.077-.025zM58.915 443l.085 1c-1.29-.316-1.347-.648-.085-1zm-23.933 1.096a5.66 5.66 0 0 1 0 .904L33 444.926l.999-.926.975.104.008-.008zm14.034 4.987L50.97 449a4.14 4.14 0 0 1 0 1l-1.97-.149v-.768h.016zM203.075 451l-.075-1.975.895-.025c.205.966.192 1.797-.813 2h-.007zm91.941-2l1.98.016v.913L295 450l.008-.992.008-.008zm-179.012 1.142L117 450v1l-1-.173.004-.693v.008zM7.02 452l.98.149v.672l-.976.179-.008-.015-.016-.948.016-.037h.004zm5.98 0l-.053 2c-.991-.293-1.021-1.098-.893-1.984L13 452zm330 1l2 .098v.812l-1.913.09-.087-1zm-150 3l-.12 2c-.256-.031-.504-.031-.76 0l-.12-2h1zm-120 4l.071-2h.803l.126 2h-1zm190 0l.017-2h.94l.043 1.984h-.496-.495L263 460zm94 1l2 .024v.96l-1.992.016v-1H357zm-257.976 6l1.919.141c0 .222.017.444.057.666L99 468l.024-1zM110 585l-.238 2c-.886-.768-1.224-1.477.238-2zm52.213-97.033l-.213-1.959h.008l.984-.008H163l-.244 2-.268-.041h-.275v.008zM96 489.017l1-.017v1l-.996-.033v-.959l-.004.009zm250.036 5.7c.174-1.582.529-1.85.952-1.667L347 495l-1-.325.036.042zM148.968 583l-1.96-.137a2.58 2.58 0 0 0-.008-.657l1.976-.206.024.031-.024.969h-.008zm-87.015-86c-1.242-.691-1.316-1.357.047-2l-.047 2zM55 581.904L53 582c.61-1.374 1.285-1.261 2-.096zM80.194 505L80 503.017l.023-.017.968.041c.046.802-.062 1.529-.797 1.951V505zm-5.182-1l.985.027v.911l-.989.062v-1h.004zm170.992 0l.996.123c-.189.769-.567.914-1 .87l.004-.993zM70 511.074c.387-.095 1.005-.208 1 .431-.005.656-.613.509-1 .397v-.837.009zM111.205 518l-.205-2c1.385.543 1.214 1.235.205 2zM249 520l.102-2c1.177.715 1.251 1.382-.102 2zm-53.965 8.381c.826-.306 1.774-.917 1.922.619l.043-.032-2-.346.035-.233v-.008zM328 537.046l2-.046c-.642 1.339-1.309 1.312-2 .046zm-135.99 3.262l1.083-.248c.719-.188.997.083.882.595-.086.384-.46.421-.901.241-.326-.136-.71-.189-1.074-.279v-.301l.01-.008zm-53.004 1.733l.793-.041.201 1.074-1 .926.006-1.959zm174.921 19.966c.104.768.19 1.993-.431 1.993-.612 0-.526-1.225-.423-1.993h.854zm-2.913 3.999c.392.091 1.011-.307.985.671 0 .124-.638.215-.985.323-.019-.331-.019-.663 0-.994zM237 571l.157-1c1.009.374 1.29.72-.157 1zm49.051-.008l-.051-.983h1V571h-.475-.474v-.008zM167.315 576l-.315-2c1.619.156.818 1.186.682 1.983l-.358.017h-.009zM244 709.002l-.065 1.998h-.837l-.098-1.982c.333-.024.667-.024 1 0v-.016zm-91-1.994l-.134 1.968-.709.024-.157-2h1v.008zm-8.008-23l-.126.98-.693.012-.173-.992.016-.008.984.012-.008-.004zM130 675.101c-.707 1.132-1.382 1.298-2-.101l2 .101zm-20-6.044c-.691 1.243-1.358 1.29-2-.057l2 .057zM193 668c1.349.083.986 1.108.86 2l.029-.025c-.289 0-.57-.033-.845-.117L193 668zm-153.216-4.984L40 665c-.336 0-.664-.008-1-.016l.209-1.984a1.66 1.66 0 0 0 .567.025l.008-.009zM10 658.974L8.011 659a8.21 8.21 0 0 1 .008-1l1.964.026.016.948zm204.976-9.908l-.266 1.876-.347.058-.363-1.983.024-.017c.331.008.653.041.976.091l-.032-.025h.008zm-165.226-.992L50 650h-.5-.5l.19-2c.172.083.362.107.552.074h.009zM53.817 642l.183 2c-1.403-.554-1.203-1.248-.183-2zm86.19-1c1.25.091 1.048 1.041.831 2-.915-.289-.845-1.165-.831-2zM238 168c.656.008.992.341 1 1-.586-.078-.922-.411-1-1zm22.998 13c.033.69-.291 1.03-.998.998.05-.609.382-.941.998-.998zm-158.962 3.086a2.51 2.51 0 0 1 .964-.066c-.017.647-.324 1.004-.997.979a8.38 8.38 0 0 1 .025-.913h.008zM226 205.005c.721-.054 1.043.293.996.995-.612-.054-.941-.393-.996-.995zM106 206c-.114.561-.447.886-1 1 .122-.545.463-.878 1-1zm25 .004c.539-.017 1.134-.017.973.673-.037.161-.623.221-.954.323l-.019-.996zM200.024 217c.332.105.909.158.948.316.166.675-.43.675-.957.684a8.34 8.34 0 0 1 0-1h.009zM11.991 235c-1.333-.339-1.308-.67 0-1v1zm-6.008 35L5 269.5l.983-.5a7.42 7.42 0 0 1 0 .991V270zm256.009 0h-.991c-.023-.728.31-1.044.969-.995l.03.987-.008.008zM24.076 280.034l.922-.032c.024.694-.31 1.021-.994.997a3.9 3.9 0 0 1 .072-.965zM29.985 297c-.532-.009-1.13-.037-.953-.673.044-.159.62-.224.942-.327a5.93 5.93 0 0 1 .011.991V297zM174 327v-1h1l-.008.944c-.331.056-.653.064-.984.048L174 327zm-18.992 11c-.041-.687.285-1.03.992-.998 0 .335-.033.655-.13.966a7.9 7.9 0 0 1-.87.024l.008.008zm-133.009 7l-.999-.495.978-.505c.021.33.031.67.01 1h.01zm184.009-.992c.642.016.968.35.992.992a4.02 4.02 0 0 1-.976-.114L206 344l.008.008zm47.982 3.028c-.109.323-.168.903-.327.936-.653.167-.633-.446-.663-.947.337-.033.663-.033 1 0l-.01.011zM333 347c-.024.625-.347.977-1 1 .089-.563.419-.906 1-1zm-262 3l1 .505c-.235.407-.566.569-.993.464V350H71zm188.016 4.989c0-.64.282-1.019.984-.987l-.04.9a1.88 1.88 0 0 1-.96.063l.016.024zM156.014 358c.571 0 1.141.073.947.67-.045.165-.616.22-.935.33a4.69 4.69 0 0 1 0-.991l-.012-.009zm44.018 5c.325.111.898.176.941.343.162.648-.443.648-.973.657l.032-.991V363zm19.99 5c.519 0 1.118 0 .949.682-.04.163-.619.218-.949.318a5.76 5.76 0 0 1 0-1zM22.031 396.904c-.031-.303-.039-.598-.024-.902.681-.032 1.042.272.987.998a4.37 4.37 0 0 1-.963-.096zm74.977 4.102a3.35 3.35 0 0 1 .973.078 5.65 5.65 0 0 1 0 .916c-.585-.043-.915-.372-.981-.985l.008-.009zM147 409.013c-.019.505.009 1.123-.682.961-.159-.041-.215-.617-.318-.951a5.39 5.39 0 0 1 1 0v-.01zm148 6.996a3.56 3.56 0 0 1 .967.064L296 417c-.659-.016-.967-.368-1-.999v.008zM322.035 452c.334.111.908.166.94.333.156.674-.439.674-.971.665-.01-.333 0-.665.021-.998h.01zM388 483.001c.715-.024 1.017.344.999.999-.62-.065-.947-.409-.999-.999zM69.068 485c.569.008 1.109.116.878.736-.058.157-.617.181-.945.264l.058-1h.01zM69 491.977c.348-1.38.678-1.23 1 .023-.33 0-.661 0-1-.023zM189 492c.648.053.952.402 1 1-.576-.114-.888-.462-1-1zm25.93 2c-.554-.017-1.107-.119-.876-.729.06-.161.614-.186.946-.271l-.06 1h-.01zM49.001 509.009a3.52 3.52 0 0 1 .972.066c.024.31.033.621.024.923-.686.032-1.013-.302-.996-.997v.008zM107 680c.107-.561.434-.894 1-1a1.27 1.27 0 0 1-1 1zm-62-1c.615.024.977.328 1 1-.546-.096-.9-.408-1-1zm194.979-40l-.979-.513 1-.487-.021 1zm-1.957 27c.33.097.88.142.936.301.209.575-.397.619-.903.699-.055-.336-.066-.664-.044-1h.011zm2.947-1c-.331-.107-.9-.17-.942-.33-.165-.652.456-.643.973-.67l-.021 1h-.01z"/><path d="M140 602c.558.121.892.452 1 1-.55-.121-.875-.468-1-1zm-94 58c.639.016.985.328 1 1-.569-.086-.915-.406-1-1zm90-86c-.553-.099-.878-.438-.992-1H135c.333 0 .667.008.992.05v.95H136zm-24.025 18.926l-.483.074H111c.041-.628.361-.975 1-1l-.025.926zM35.039 657l.961.552-1 .448.039-1zM307 568.984l-.49.016-.482-.072c-.025-.306-.033-.62-.025-.926.695-.032.997.33.997.982zM249 682c.651 0 1 .309 1 1-.587-.073-.929-.398-1-1zM15.93 557.024c.057.326.082.651.065.976-.587-.081-.93-.406-.995-1l.93.024zm24.05 94.892a3.23 3.23 0 0 1-.98.075c.041-.633.371-.966.997-.991l-.017.916zM28 547c.334.091.893.124.951.281.216.619-.324.727-.902.719l-.039-1H28zm342 91.992c-.728.07-.991-.324-1-.989.693-.043.974.35 1 .989zm-53.009-71.974c.046.347-.074.68-.679.9a2.17 2.17 0 0 1-.936.053c-.781-.189-.138-.387.082-.567.165-.145.404-.272.615-.404h.468l.459.022-.009-.004z"/><path d="M317 563.07c-.094.564-.199 1.129-1.508.861-.199-.043-.514-.202-.491-.268.269-.673 1.041-.746 1.976-.601l.023.008zm-4 5.861l.713-.931c.744.98-.13.891-.683 1l-.03-.069zm4-1.931l-.488-.064h-.498c-.068-.636.098-1.102.771-.88.147.043.147.615.215.944zM19.927 529c.13.391.13.984-.376 1-.575.015-.614-.548-.499-.944.292.005.583-.01.875-.051V529z"/><path d="M19.892 528.92a3.67 3.67 0 0 1-.875.079c-.1-.774.261-1.065.967-.987.038.308.008.608-.084.908h-.008zm4.95-220.132c-.636.016-1.567.62-1.802-.285-.226-.889.549-1.685 1.48-1.467.897.218.253 1.157.305 1.777l.017-.025zm264.065 265.204c-.8-.111-1.125-.628-.754-1.646.149-.407.37-.432.579-.195.501.552.143 1.23.162 1.849h.007l.006-.008zM143 282.98l-1-.475.546-.505.423 1 .031-.03v.01zm-76.978 2.533c.139-.591-.256-1.414 1.044-1.509.511-.04.781.253.81.585.044.501.431 1.183-.438 1.397-.372.096-.957-.321-1.438-.501l.022.028zM51.05 488l.864.103c.033.726.297 1.775-.306 1.885-.77.143-.611-1.057-.558-1.988zm231.972-57.92c.433-.172.794-.09.975.477.028.099-.13.414-.217.432-.491.081-.701-.297-.78-.846l.022-.063zM225.211 412a2.64 2.64 0 0 0 .562.008c.058 1.208.496 2.423-.026 3.992-1.194-1.38-.619-2.737-.536-4zM360 498.875l.119-.895c.491-.125.789-.462.9-.98 1.437.447 1.079 1.184.298 2l-1.317-.118v-.007zm3-3.875c.54.121.863.468 1 1-.532-.129-.855-.476-1-1zM17.032 293c.637 0 1.035.473.959 1.898-1.008.255-1.05.172-.959-1.898zm-.04 4.771c-.358.009-.832.797-.981-.603-.068-.65.205-1.049.426-1.132.665-.26.499.946.563 1.725l-.009.019v-.009zM30 370.345l-.559.655c-.158-.109-.474-.252-.438-.336.085-.235.304-.446.474-.664l.523.336v.009zm-13-63.81c-.108.147-.252.498-.347.463-.23-.085-.437-.337-.653-.52.221-.168.432-.406.662-.476.085-.029.221.343.333.526l.005.007zm24.954-47.425a3.65 3.65 0 0 0 .046.82c-.272.375-.391 1.429-.844.945-.123-.133-.196-.867-.134-1.21.169-.945.583-.625.932-.563v.008zm84.99 172.899c.013.727.259 1.555-.395 1.984-.095.065-.477-.326-.518-.578-.163-1.005.334-1.275.933-1.387l-.02-.028v.009zm1.021 3.975l-.482.016-.483-.016c.098-.561.425-.878.982-.984.024.325.024.65 0 .976l-.017.008zM98.045 439a3.18 3.18 0 0 1-.01-1c.548.008 1.118.084.928.664-.053.16-.601.227-.918.336zm5.978-138.008c-.083-.483.049-.867.604-.99.1-.023.381.184.373.261-.058.514-.464.691-.961.737h-.025l.009-.008zm-85.948 9.022a1.59 1.59 0 0 1 .016-1.014c1.246.184.902 1.124.738 1.972l-.377.028-.377-.028c-.025-.322-.025-.645 0-.967v.009zM111 590.024c-.034.521-.21.938-.73.976-.092 0-.293-.284-.268-.379.143-.559.528-.682.998-.597zM175.068 596l-.068-1c.5 0 1.013 0 1 .43-.014.355-.384.525-.925.57h-.007zM17.031 386.048c.62.133 1.121.438.926 1.401-.052.238-.456.61-.538.543-.635-.476-.359-1.287-.366-1.992l-.023.038v.01zm155.977 3.795l.928-1.843c.688.197 1.2.622 1.032 1.294-.272 1.119-1.232.578-1.968.556l.008-.007zM134.653 668l-.653-.53c.107-.16.24-.493.331-.469.231.074.446.296.669.456l-.347.531V668zm8.334-108.481l-.267.481-.72-.532.52-.468.48.519h-.013zM39.521 528c.169.224.393.448.477.681.028.086-.337.207-.52.319-.169-.224-.393-.448-.477-.681-.028-.086.337-.207.52-.319zM28.952 643.168l.048 1.673c-.863.061-2.154.688-1.985-1.054.113-1.202 1.202-.688 1.945-.619h-.008zm225.314.847c.17 0 .378-.053.483.04.417.319.313.691-.3.943-.079.027-.366-.292-.444-.505-.039-.119.157-.318.248-.478h.013zM383 537.542c-.177.166-.367.471-.532.458s-.316-.347-.468-.542c.177-.166.367-.471.532-.458.164 0 .316.347.468.542zM153 384.511l-.265.489-.735-.511.506-.489.482.511H153zM38.883 323l-1.783-.081c-.039-.758-.442-1.801.698-1.907 1.45-.139 1.256.994 1.085 1.988zM189.13 569l1.788.074c.008.743.434 1.798-.738 1.914-1.599.148-1.14-1.081-1.05-1.988zM223 598.032l1 .463-.557.505-.409-1-.034.032zM97.967 264l.033 1c-1.305-.305-1.35-.641-.033-1z"/><path d="M99 264.976l-.48.024h-.48l-.04-1c.585.087.902.417.992.976H99zM379.996 468H381l-.024.988L379 469l1.004-1h-.008zm-98.044 93l-.952 1c.048-.21.032-.516.175-.629.222-.177.539-.226.825-.339l-.032-.032h-.016zM22.056 471c-.068-.33-.078-.67-.01-1l.953.496-.934.504h-.01zM197 565c.656.016.944.38 1 .998-.696.032-.976-.356-1-.998zm-45 20.034l1 .585c-.898.922-.837-.045-.969-.619l-.031.034zM323 427c.076-.588.39-.941 1-1-.068.597-.398.933-1 1zm-195 48l.44-1 .56.542-1 .458zM54.958 636l-.394 1-.564-.5 1-.46-.042-.03V636zm80.282-279.991c.192.086.384.095.584.017-.024.779.768 1.974-.824 1.974l.248-2-.008.009zm32.77 202.002l.99.591c-.969.991-.802-.123-.979-.602l-.021.022.01-.011zM17 316.244c-.28.064-.446.307-.491.756-1.169-.974.016-1.359.195-2 .345.269.207.827.296 1.244zM266 644l.02-2c.487.099.98.215.98 1.017 0 .809-.52.884-.993.983H266zM61 446c-.117.545-.442.893-1 1a1.14 1.14 0 0 1 1-1zm99-194.888l-1.101.888c-.765-.03-1.538-.037-1.899-.806l.865-1.036c.933-.067 2.152-.651 2.135.954zM367.969 552a4.08 4.08 0 0 1 0 1c-.328-.103-.883-.164-.934-.328-.185-.62.4-.655.934-.672zM20 633.246c.755-.216 1.557-.781 2 1.154-.778.409-1.665 1.575-2-1.154zM2.834 309.991L1 309.804l.072-1.692c1.497-.34 2.306.042 1.754 1.888l.008-.009zM323.974 563c.035.331.035.661 0 1l-.974-.491.974-.501V563zM314 493.962l-.5.038-.5-.028c.042-.492.008-1.107.661-.946.161.038.22.605.331.927l.008.009zM184 192c-.342-.015-.675-.08-1-.19l.058-1.81c1.175.35.892 1.234.942 2zm-12.992-17.007a.84.84 0 0 0 .301-.732c.293.043.532-.044.71-.261.563.109 1.01.319.979.964L171 175l.008-.007z"/><path d="M170.014 174.028l.961-.028c.121 1.521-.194 2.182-.975 1.957l.014-1.929zM193 459.95l-.5.05-.5-.025.066-1.947a3.63 3.63 0 0 1 .896 0l.038 1.922zM91.991 202c.05.827-.083 1.558-.762 2-.108-.856-.754-1.99.762-2zm166.942 108c.074.868.284 1.818-.793 2-.054-.859-.569-1.992.793-2zM18 310.011c-.025.281-.025.562 0 .843-.803.418-.902-.137-1-.707.32-.128.656-.169 1-.136zm8.988 24.101c.102.852-.447 1.266-.68 1.888-.498-.123-1.11.092-1.308-.86.566-.691 1.116-1.435 1.988-1.021v-.007zM125 697c-.016.413-.065.814-.997 1-.016-.421 0-.83.997-1zm29.936-171.049l-.464.049-.472-.016c0-.65.306-1.007.994-.983a4.1 4.1 0 0 1-.058.95zM190 556.316l-.085 1.623-1.858.061-.057-1.715c.669-.389 1.337-.381 2 .031zm23 77.704l1-.02-.036 1-.924-.029-.04-.951zM60 437.049a2.59 2.59 0 0 1 1 0L60.717 439h-.469L60 437.059v-.01zM195 362h-.5-.5v-1h1v1z"/></g><g clip-path="url(#M)"><path fill-rule="evenodd" d="M217.999 296h105l24 24v105l-36-36v-57h-57l-36-36zM176 596H71l-24-24v-99-6l36 36v57h57l36 36zm9-300H47v171-33l39 39h56.999v-54H101v-69h69v69h-.001v54H170v84l39 39h138V458l-39-39h-57v54h41.999v69h-69v-69H224v-54-33-51l-39-39z" fill="#ab750f" fill-opacity=".1"/></g><defs><linearGradient id="C" x1="255.096" y1="29.091" x2="236.143" y2="29.775" href="#N"><stop stop-color="#a9860f"/><stop offset="1" stop-color="#ffc502"/></linearGradient><linearGradient id="D" x1="138.904" y1="29.091" x2="157.857" y2="29.775" href="#N"><stop stop-color="#a9860f"/><stop offset="1" stop-color="#ffc502"/></linearGradient><linearGradient id="E" x1="45.441" y1="17.194" x2="1.842" y2="20.878" href="#N"><stop stop-color="#d8a956"/><stop offset="1" stop-color="#ab750f"/></linearGradient><linearGradient id="F" x1="348.059" y1="17.194" x2="391.658" y2="20.878" href="#N"><stop stop-color="#d8a956"/><stop offset="1" stop-color="#ab750f"/></linearGradient><linearGradient id="G" x1="224.519" y1="747.78" x2="379.262" y2="747.78" href="#N"><stop stop-color="#d8a956"/><stop offset=".711" stop-color="#ab750f"/></linearGradient><linearGradient id="H" x1="169.481" y1="747.78" x2="14.738" y2="747.78" href="#N"><stop stop-color="#d8a956"/><stop offset=".711" stop-color="#ab750f"/></linearGradient><linearGradient id="I" x1="196" y1="35.111" x2="142" y2="35.111" href="#N"><stop stop-color="#ffc502"/><stop offset="1" stop-color="#ffc502" stop-opacity="0"/></linearGradient><linearGradient id="J" x1="198" y1="35.111" x2="251" y2="35.111" href="#N"><stop stop-color="#ab750f"/><stop offset="1" stop-color="#ab750f" stop-opacity="0"/></linearGradient><linearGradient id="K" x1="313.54" y1="341.826" x2="313.54" y2="749.482" href="#N"><stop stop-color="#d9d9d9" stop-opacity="0"/><stop offset="1" stop-color="#d8a956"/></linearGradient><linearGradient id="L" x1="303.871" y1="587.561" x2="303.871" y2="789.221" href="#N"><stop stop-color="#d9d9d9" stop-opacity="0"/><stop offset="1" stop-color="#d8a956"/></linearGradient><clipPath id="M"><path fill="#fff" transform="translate(47 296)" d="M0 0h300v300H0z"/></clipPath><linearGradient id="N" gradientUnits="userSpaceOnUse"/></defs></svg>