<svg width="393" height="180" viewBox="0 0 393 180" fill="none" xmlns="http://www.w3.org/2000/svg">
<g id="header" clip-path="url(#clip0_768_13721)">
<rect width="393" height="180" fill="#212121"/>
<g id="Dust">
<g id="Group" opacity="0.35">
<path id="Vector" d="M307.858 65.0956C307.332 64.6868 306.454 64.8729 305.791 64.6838C304.835 64.4092 304.84 64.2658 305.912 63.7045L305.965 63.6954C306.191 63.8998 306.533 63.9577 306.927 63.9577C306.985 64.0584 307.106 64.0981 307.29 64.0736C307.49 64.2994 307.847 64.3787 308.242 64.4214L308.215 64.4092C308.126 64.641 308.042 64.8759 307.953 65.1078L307.858 65.0986V65.0956Z" fill="white"/>
<path id="Vector_2" d="M249.732 62.0938C249.511 62.1304 249.29 62.167 249.07 62.2036C248.644 62.2066 248.223 62.2097 247.797 62.2158C247.555 62.1883 247.308 62.1609 247.066 62.1334C246.888 61.8741 246.835 61.6148 247.04 61.3525C247.729 61.3311 248.418 61.3098 249.101 61.2884C249.306 61.3403 249.516 61.3494 249.737 61.322C249.858 61.4135 250.016 61.4409 250.205 61.4074C250.284 61.5264 250.363 61.6453 250.442 61.7643C250.205 61.8741 249.963 61.9839 249.727 62.0938H249.732Z" fill="white"/>
<path id="Vector_3" d="M240.541 29.5477C241.356 29.3921 241.897 29.7307 242.528 29.9137V29.9198C242.528 30.048 242.523 30.173 242.513 30.3012C242.307 30.3256 242.092 30.3439 241.876 30.353C241.64 30.3744 241.398 30.3927 241.161 30.411C240.956 30.5025 240.756 30.591 240.551 30.6825C240.357 30.6764 240.157 30.6703 239.962 30.6703C239.91 30.5513 239.852 30.4323 239.778 30.3164C239.726 30.1822 239.668 30.048 239.615 29.9137C239.731 29.8527 239.847 29.8558 239.952 29.9229C240.304 29.8802 240.446 29.7307 240.536 29.5507L240.541 29.5477Z" fill="white"/>
<path id="Vector_4" d="M270.753 119.715C271.037 120.231 270.868 120.569 269.775 120.53C269.238 120.511 268.707 120.475 268.176 120.444L268.192 120.453C268.087 120.081 268.781 119.999 268.981 119.737C269.181 119.798 269.349 119.776 269.48 119.669C269.911 119.688 270.343 119.706 270.774 119.724L270.753 119.715Z" fill="white"/>
<path id="Vector_5" d="M187.293 92.8218C187.74 92.3246 188.198 92.4252 188.655 92.8126C188.718 93.014 188.955 93.1207 189.275 93.1818C189.254 93.4288 189.291 93.7675 188.818 93.8132C188.066 93.8895 188.056 93.4807 187.929 93.1879C187.861 92.9835 187.619 92.8798 187.298 92.8218H187.293Z" fill="white"/>
<path id="Vector_6" d="M123.456 90.3355H123.488C122.552 90.7168 121.663 90.8541 120.948 90.1616L120.927 90.1738C121.521 89.9969 122.058 89.701 122.82 89.8688L122.725 89.82C122.967 89.9908 123.209 90.1647 123.451 90.3355H123.456Z" fill="white"/>
<path id="Vector_7" d="M293.446 26.07C293.293 25.9907 293.157 25.8992 292.989 25.8351C292.494 25.646 292.258 25.3837 292.647 25.1061C293.057 24.8163 293.541 24.9657 293.951 25.1701C294.108 25.2464 294.271 25.3165 294.429 25.3928L294.419 25.3806C294.356 25.7284 293.761 25.8351 293.467 26.0792L293.441 26.07H293.446Z" fill="white"/>
<path id="Vector_8" d="M285.901 58.729C285.891 58.5948 285.875 58.4606 285.865 58.3264C286.385 58.2775 286.963 58.302 287.253 57.9603C287.673 57.9755 288.215 57.9847 288.283 58.2562C288.388 58.6863 287.663 58.6558 287.2 58.7534C286.769 58.7443 286.338 58.7351 285.901 58.726V58.729Z" fill="white"/>
<path id="Vector_9" d="M242.586 137C242.586 136.835 242.586 136.67 242.586 136.505C243.002 136.46 243.422 136.414 243.838 136.371C244.048 136.621 244.253 136.875 244.463 137.125L244.479 137.112C244.058 137.222 243.638 137.329 243.217 137.439L243.264 137.485C243.038 137.323 242.812 137.161 242.591 137H242.586Z" fill="white"/>
<path id="Vector_10" d="M274.565 6.40324L274.365 6.39409C273.929 6.05548 273.971 5.69247 274.192 5.3203L274.118 5.36606C274.744 5.24099 275.369 5.24709 275.995 5.37521L275.89 5.32946C275.879 5.8633 275.296 6.16225 274.565 6.40019V6.40324Z" fill="white"/>
<path id="Vector_11" d="M163.044 38.2874C164.306 38.2051 165.567 38.1013 166.798 38.4003V38.4979C165.515 38.5986 164.174 39.0806 163.044 38.2874Z" fill="white"/>
<path id="Vector_12" d="M14.8168 95.787C14.5434 95.787 14.27 95.79 14.0018 95.7931C13.6653 95.4514 13.6653 95.0976 13.9019 94.7376L13.823 94.7773C14.2069 94.7834 14.5959 94.7925 14.9798 94.7986L14.9062 94.759C15.1428 95.1067 15.1165 95.4514 14.8168 95.7839V95.787Z" fill="white"/>
<path id="Vector_13" d="M37.4525 67.7464C37.6523 67.5969 37.8205 67.4322 38.0519 67.304C38.3779 67.124 38.8195 66.9746 39.1508 67.2522C39.4505 67.5023 39.1245 67.7067 38.7249 67.8409C38.3043 67.8074 37.8783 67.7769 37.4577 67.7464H37.4525Z" fill="white"/>
<path id="Vector_14" d="M257.639 101.522C257.24 102.559 256.924 102.687 255.689 102.306C255.904 102.172 256.125 102.038 256.341 101.903V101.906C256.546 101.778 256.761 101.647 256.977 101.519L256.987 101.513C257.208 101.513 257.424 101.513 257.645 101.522H257.639Z" fill="white"/>
<path id="Vector_15" d="M150.43 164.918C149.852 164.851 149.268 164.787 148.69 164.72L148.711 164.741L149.32 164.058C149.615 164.064 149.909 164.073 150.204 164.079C150.267 164.192 150.367 164.293 150.509 164.381C150.482 164.561 150.456 164.741 150.43 164.921V164.918Z" fill="white"/>
<path id="Vector_16" d="M370.007 84.0883C369.181 84.0852 368.356 84.0791 367.53 84.0761C367.446 83.8717 367.515 83.7222 367.935 83.7009C368.487 83.6826 369.124 83.7863 369.376 83.3561C369.597 83.3592 369.812 83.3653 370.033 83.3683L370.002 83.35C370.002 83.5971 370.007 83.8442 370.007 84.0913V84.0883Z" fill="white"/>
<path id="Vector_17" d="M101.879 148.482C101.742 148.967 101.037 148.811 100.532 148.881C100.301 148.912 100.07 148.945 99.8384 148.976L99.7438 148.86L99.9068 148.772C99.8437 148.692 99.8332 148.61 99.8858 148.524C100.022 148.094 100.611 148.158 101.132 148.149C101.3 148.323 101.495 148.473 101.884 148.479L101.879 148.482Z" fill="white"/>
<path id="Vector_18" d="M100.08 17.0771H100.348C100.626 17.193 100.91 17.3089 101.189 17.4248C101.089 18.0807 100.684 18.3186 99.7062 17.7878C99.8324 17.5499 99.9534 17.315 100.08 17.0771Z" fill="white"/>
<path id="Vector_19" d="M163.043 158.601V158.478C163.453 158.411 163.863 158.344 164.274 158.277C164.394 158.356 164.542 158.39 164.726 158.381C164.831 158.625 164.941 158.866 165.052 159.11C164.6 159.104 164.153 159.098 163.7 159.092C163.485 158.927 163.264 158.765 163.048 158.601H163.043Z" fill="white"/>
<path id="Vector_20" d="M168.964 114.41C169.138 114.41 169.316 114.41 169.49 114.41C169.732 114.529 169.974 114.651 170.216 114.77V114.777C170.41 114.957 170.599 115.137 170.783 115.32L170.794 115.368C170.379 115.429 169.963 115.493 169.548 115.554L169.527 115.542C169.453 115.341 169.248 115.213 168.896 115.161C168.917 114.911 168.943 114.661 168.964 114.41Z" fill="white"/>
<path id="Vector_21" d="M119.003 63.2622C118.609 63.1402 118.309 62.9693 118.556 62.707C118.729 62.5178 119.082 62.5575 119.381 62.6399C119.66 62.7161 119.934 62.8046 120.212 62.89C120.223 63.0151 120.239 63.1432 120.249 63.2683C119.834 63.2683 119.418 63.2683 119.003 63.2652V63.2622Z" fill="white"/>
<path id="Vector_22" d="M206.217 34.3766C206.117 34.279 205.917 34.1723 205.943 34.0899C206.017 33.8794 206.327 33.8123 206.627 33.9313C206.748 33.9801 206.827 34.1723 206.758 34.2424C206.68 34.3217 206.406 34.3339 206.217 34.3766Z" fill="white"/>
<path id="Vector_23" d="M188.162 58.7229C188.193 58.5155 188.388 58.3843 188.751 58.4148C189.098 58.4453 189.276 58.6009 189.177 58.7931C189.129 58.8816 188.935 58.9883 188.777 59.0097C188.409 59.0585 188.22 58.9212 188.162 58.7229Z" fill="white"/>
<path id="Vector_24" d="M385.149 99.594C384.955 99.6672 384.745 99.6794 384.529 99.6275C384.377 99.6519 384.229 99.6428 384.093 99.6031C383.987 99.6702 383.861 99.6824 383.725 99.6428C384.077 99.4201 383.914 99.1608 383.882 98.9107C384.313 98.8985 384.745 98.8832 385.176 98.871C385.171 99.112 385.165 99.3499 385.16 99.5909L385.149 99.594Z" fill="white"/>
<path id="Vector_25" d="M172.855 95.8022C172.913 95.5185 172.949 95.186 173.633 95.247C174.064 95.2867 174.111 95.5643 174.138 95.793C173.712 95.7961 173.286 95.7991 172.855 95.8022Z" fill="white"/>
<path id="Vector_26" d="M380.555 79.1738C380.555 79.0456 380.555 78.9206 380.56 78.7925C381.028 78.8016 381.18 78.6247 381.259 78.405C381.464 78.405 381.669 78.4142 381.874 78.4264C381.895 78.6735 381.911 78.9206 381.932 79.1677C381.48 79.6435 381.017 79.2226 380.555 79.1738Z" fill="white"/>
<path id="Vector_27" d="M375.102 77.679C374.96 77.7491 374.818 77.8834 374.676 77.8834C374.292 77.8834 374.129 77.7156 374.277 77.5234C374.334 77.4502 374.65 77.3831 374.802 77.4075C374.934 77.4288 375.002 77.5844 375.097 77.682L375.102 77.679Z" fill="white"/>
<path id="Vector_28" d="M365.938 41.5576C365.843 41.463 365.648 41.3563 365.675 41.2739C365.748 41.0695 366.048 41.0024 366.343 41.1183C366.458 41.1641 366.532 41.3532 366.463 41.4234C366.385 41.4996 366.122 41.5149 365.938 41.5576Z" fill="white"/>
<path id="Vector_29" d="M355.595 86.3821C356.031 86.376 356.467 86.3699 356.904 86.3608C356.846 86.6536 356.883 87.0349 356.12 86.9678C355.663 86.9282 355.621 86.6231 355.595 86.3821Z" fill="white"/>
<path id="Vector_30" d="M149.053 17.7024C148.942 17.6109 148.727 17.5163 148.737 17.4339C148.774 17.2173 149.068 17.1319 149.394 17.2356C149.526 17.2784 149.636 17.4705 149.578 17.5499C149.521 17.6292 149.237 17.6536 149.053 17.7024Z" fill="white"/>
<path id="Vector_31" d="M333.154 77.5294C333.044 77.4379 332.834 77.3433 332.849 77.2609C332.897 77.0504 333.191 76.965 333.507 77.0596C333.633 77.0993 333.727 77.2914 333.67 77.3708C333.607 77.4501 333.333 77.4775 333.154 77.5294Z" fill="white"/>
<path id="Vector_32" d="M330.667 32.5829C331.098 32.6012 331.64 32.6225 331.693 32.9001C331.782 33.3547 331.114 33.315 330.588 33.3333C330.615 33.0832 330.641 32.833 330.662 32.5798L330.667 32.5829Z" fill="white"/>
<path id="Vector_33" d="M328.411 154.089C328.348 154.171 328.316 154.317 328.19 154.357C327.906 154.449 327.617 154.382 327.533 154.199C327.496 154.119 327.612 153.958 327.738 153.921C328.012 153.842 328.285 153.884 328.411 154.089Z" fill="white"/>
<path id="Vector_34" d="M141.171 33.3364C141.449 32.9642 142.007 32.9429 142.596 32.9673C142.485 33.553 142.165 33.8763 141.171 33.3364Z" fill="white"/>
<path id="Vector_35" d="M139.304 123.87C139.735 123.867 140.277 123.882 140.355 124.145C140.487 124.569 139.856 124.599 139.32 124.627L139.304 123.867V123.87Z" fill="white"/>
<path id="Vector_36" d="M308.295 13.1876L308.326 13.0778L308.3 12.968C308.726 12.9345 309.152 12.9039 309.572 12.8704L309.583 12.8765C309.783 13.029 309.982 13.1846 310.182 13.3371C310.145 13.4042 310.145 13.4713 310.182 13.5415C309.761 13.572 309.336 13.6025 308.915 13.633C308.71 13.4835 308.5 13.3341 308.295 13.1846V13.1876Z" fill="white"/>
<path id="Vector_37" d="M303.1 179.188C302.537 179.222 302.022 179.195 301.717 178.862C301.969 178.722 302.216 178.581 302.469 178.441C302.847 178.438 303.221 178.435 303.599 178.432C303.657 178.554 303.688 178.679 303.688 178.804L303.673 178.816C303.483 178.941 303.294 179.063 303.105 179.188H303.1Z" fill="white"/>
<path id="Vector_38" d="M295.775 27.6501C295.349 27.3145 294.913 26.9789 295.134 26.5214C295.333 26.5183 295.533 26.5183 295.733 26.5214C295.959 26.6495 296.19 26.7776 296.417 26.9088L296.401 26.8996C296.38 27.1467 296.364 27.3938 296.343 27.644C296.154 27.6379 295.959 27.644 295.77 27.6531L295.775 27.6501Z" fill="white"/>
<path id="Vector_39" d="M124.85 12.8734C125.286 12.8765 125.723 12.8826 126.159 12.8856C126.133 13.1266 126.096 13.4347 125.644 13.4744C124.892 13.5446 124.918 13.1632 124.85 12.8734Z" fill="white"/>
<path id="Vector_40" d="M290.585 14.4018C291.001 14.4231 291.548 14.4262 291.6 14.7038C291.684 15.137 291.027 15.1217 290.506 15.1461C290.533 14.896 290.559 14.6489 290.58 14.3987L290.585 14.4018Z" fill="white"/>
<path id="Vector_41" d="M120.26 102.227C120.26 102.495 120.26 102.764 120.255 103.035C119.818 103.026 119.382 103.02 118.951 103.011L118.987 102.37C119.413 102.321 119.839 102.275 120.265 102.227H120.26Z" fill="white"/>
<path id="Vector_42" d="M286.595 57.9572C286.027 57.9603 285.506 57.9115 285.233 57.5759C286.311 56.9688 286.453 57.4661 286.595 57.9572Z" fill="white"/>
<path id="Vector_43" d="M115.065 60.0834C115.065 59.9279 115.065 59.7692 115.065 59.6137C115.469 59.5801 115.88 59.5465 116.284 59.5099L116.242 59.4855C116.253 59.7326 116.263 59.9767 116.269 60.2238L116.295 60.2085C115.885 60.1689 115.475 60.1261 115.065 60.0834Z" fill="white"/>
<path id="Vector_44" d="M278.03 126.509C278.103 126.228 278.119 125.795 278.771 125.908C279.486 126.033 279.155 126.335 278.676 126.524C278.461 126.521 278.245 126.515 278.03 126.506V126.509Z" fill="white"/>
<path id="Vector_45" d="M111.211 76.4923C111.332 76.4099 111.432 76.2726 111.574 76.2513C111.963 76.1994 112.189 76.3458 112.162 76.5533C112.136 76.7668 111.826 76.8522 111.505 76.7821C111.363 76.7516 111.305 76.5929 111.211 76.4923Z" fill="white"/>
<path id="Vector_46" d="M110.438 116.049C110.564 116.131 110.79 116.213 110.79 116.296C110.79 116.518 110.496 116.607 110.164 116.524C110.038 116.491 109.922 116.308 109.965 116.222C110.001 116.146 110.275 116.106 110.438 116.052V116.049Z" fill="white"/>
<path id="Vector_47" d="M269.68 105.311C269.769 105.118 270.006 105.027 270.311 105.091C270.437 105.118 270.574 105.271 270.563 105.359C270.532 105.558 270.248 105.634 269.948 105.576C269.822 105.552 269.769 105.402 269.68 105.311Z" fill="white"/>
<path id="Vector_48" d="M103.913 77.8894C103.745 77.8467 103.487 77.8314 103.413 77.7582C103.256 77.5905 103.366 77.4196 103.697 77.3739C103.844 77.3525 104.128 77.4196 104.197 77.4959C104.355 77.6637 104.218 77.8101 103.908 77.8925L103.913 77.8894Z" fill="white"/>
<path id="Vector_49" d="M260.826 134.083C260.395 134.092 259.964 134.099 259.528 134.108C259.622 133.864 259.712 133.62 259.806 133.373C259.99 133.391 260.148 133.36 260.285 133.287C260.5 133.308 260.716 133.327 260.926 133.342C260.889 133.589 260.858 133.836 260.826 134.083Z" fill="white"/>
<path id="Vector_50" d="M101.173 53.412C101.189 53.1619 101.205 52.9087 101.22 52.6585C101.636 52.6585 102.046 52.6585 102.456 52.6585C102.456 52.9087 102.456 53.1558 102.456 53.4059C102.03 53.4059 101.604 53.412 101.178 53.4151L101.173 53.412Z" fill="white"/>
<path id="Vector_51" d="M259.054 103.032C258.991 103.365 258.965 103.703 258.287 103.84L258.223 103.798C258.029 103.67 257.84 103.538 257.645 103.41L257.656 103.233V103.056C257.887 102.925 258.124 102.797 258.355 102.666C258.586 102.788 258.823 102.91 259.054 103.032Z" fill="white"/>
<path id="Vector_52" d="M100.426 40.9384C100.458 41.1824 100.495 41.4234 100.526 41.6644C100.106 41.6675 99.5379 41.6858 99.438 41.4356C99.2697 41.0238 99.8902 40.975 100.426 40.9353V40.9384Z" fill="white"/>
<path id="Vector_53" d="M97.7085 80.3085C97.5665 80.3817 97.4246 80.516 97.2826 80.516C96.8935 80.516 96.7305 80.3482 96.8777 80.153C96.9356 80.0767 97.2563 80.0126 97.4141 80.034C97.5455 80.0523 97.6139 80.2109 97.7085 80.3085Z" fill="white"/>
<path id="Vector_54" d="M89.3742 20.7986C89.411 20.5607 89.3794 20.2373 89.8579 20.2038C90.5835 20.1519 90.5992 20.5302 90.6729 20.8291C90.2417 20.82 89.8053 20.8108 89.3742 20.8017V20.7986Z" fill="white"/>
<path id="Vector_55" d="M88.47 15.8721C88.1703 15.8721 87.8706 15.8782 87.5709 15.8812C87.5078 15.6372 87.4447 15.3932 87.3816 15.1522C87.8075 15.1522 88.2334 15.1522 88.6646 15.1552C88.6015 15.3962 88.5384 15.6341 88.4753 15.8721H88.47Z" fill="white"/>
<path id="Vector_56" d="M86.0668 137.46C86.5978 137.5 87.3076 137.357 87.3655 137.881L87.376 137.875C87.0658 137.988 86.7608 138.104 86.4506 138.217H86.3139C86.1036 137.994 85.8932 137.774 85.6829 137.552C85.8564 137.585 85.9826 137.552 86.0668 137.46Z" fill="white"/>
<path id="Vector_57" d="M85.9726 71.9988C86.0042 72.2428 86.0357 72.4838 86.062 72.7279C85.6414 72.7279 85.0735 72.7462 84.9736 72.496C84.8106 72.0842 85.4363 72.0384 85.9674 71.9988H85.9726Z" fill="white"/>
<path id="Vector_58" d="M82.1074 79.1737C82.1863 78.89 82.181 78.4507 82.854 78.5636C83.5744 78.6856 83.2536 78.9968 82.7909 79.2042C82.5648 79.195 82.3335 79.1859 82.1074 79.1767V79.1737Z" fill="white"/>
<path id="Vector_59" d="M54.4722 169.271C54.2461 169.399 54.0305 169.54 53.7939 169.659C53.5152 169.799 53.1682 169.787 52.9368 169.653C52.4426 169.372 53.0262 169.216 53.2523 169.067C53.5888 168.844 54.0463 168.997 54.4564 169.033C54.4143 169.113 54.4196 169.195 54.4722 169.274V169.271Z" fill="white"/>
<path id="Vector_60" d="M173.57 0.469944C174.732 0.207598 175.079 0.451642 174.758 1.10751L174.785 1.09835C174.574 1.1014 174.359 1.11361 174.154 1.13801H174.143C173.938 0.991586 173.733 0.845161 173.528 0.701786L173.623 0.591966L173.575 0.472995L173.57 0.469944Z" fill="white"/>
<path id="Vector_61" d="M290.528 176.178C290.954 176.171 291.385 176.165 291.811 176.159C291.837 176.452 291.732 176.711 291.275 176.885C291.023 176.76 290.77 176.635 290.512 176.507L290.534 176.342V176.178H290.528Z" fill="white"/>
<path id="Vector_62" d="M289.008 16.2382C288.651 16.1985 288.125 16.3755 287.993 16.0582C287.946 15.9362 288.251 15.7684 288.393 15.622V15.5732C288.635 15.7379 288.877 15.9026 289.119 16.0674C288.992 16.107 288.956 16.1619 289.008 16.2382Z" fill="white"/>
<path id="Vector_63" d="M287.926 18.9439C288.425 18.9256 288.846 19.0202 289.161 19.252C288.956 19.4015 288.751 19.5479 288.546 19.6974C288.362 19.6761 288.173 19.67 287.989 19.6791L287.926 18.9439Z" fill="white"/>
<path id="Vector_64" d="M160.367 9.87172C160.741 9.86562 161.235 9.81681 161.256 10.1127C161.272 10.3629 160.862 10.4727 160.43 10.4879C160.409 10.2835 160.388 10.0761 160.367 9.87172Z" fill="white"/>
<path id="Vector_65" d="M268.119 138.262L268.844 138.189C269.007 138.247 269.186 138.284 269.375 138.293C269.407 138.397 269.433 138.5 269.454 138.604C269.196 138.735 268.939 138.87 268.676 139.001C268.566 138.973 268.45 138.973 268.334 138.995C268.261 138.751 268.187 138.507 268.119 138.262Z" fill="white"/>
<path id="Vector_66" d="M147.89 129.172C147.659 129.303 147.427 129.437 147.196 129.568L146.534 129.175L146.544 129.169C146.76 129.044 146.975 128.919 147.186 128.794L147.201 128.784C147.422 128.784 147.643 128.791 147.864 128.791C147.88 128.916 147.885 129.041 147.89 129.166V129.172Z" fill="white"/>
<path id="Vector_67" d="M245.136 165.159C245.636 165.312 246.004 165.54 245.457 165.803C245.12 165.961 244.731 165.769 244.505 165.556C244.716 165.422 244.926 165.29 245.136 165.156V165.159Z" fill="white"/>
<path id="Vector_68" d="M132.122 110.973C132.096 110.655 131.843 110.277 132.753 110.222L132.769 110.228C132.974 110.369 133.179 110.506 133.384 110.646C133.384 110.747 133.384 110.847 133.384 110.948C132.958 110.951 132.532 110.957 132.106 110.96L132.122 110.976V110.973Z" fill="white"/>
<path id="Vector_69" d="M131.375 8.05355C131.543 8.24268 132.085 8.3708 131.732 8.6423C131.654 8.70636 131.285 8.71856 131.144 8.66975C130.67 8.49892 130.938 8.24878 131.017 8.02609C131.122 8.0871 131.243 8.09625 131.375 8.05355Z" fill="white"/>
<path id="Vector_70" d="M129.425 162.13C129.982 162.087 130.429 162.182 130.745 162.459C130.519 162.6 130.287 162.743 130.061 162.883C129.893 162.871 129.725 162.868 129.556 162.877C129.514 162.63 129.467 162.38 129.425 162.133V162.13Z" fill="white"/>
<path id="Vector_71" d="M127.485 99.2584C127.558 99.0876 127.564 98.7978 127.721 98.7673C128.389 98.6361 128.557 98.9808 128.794 99.2371C128.358 99.2462 127.921 99.2523 127.485 99.2584Z" fill="white"/>
<path id="Vector_72" d="M12.446 42.0457C12.6774 41.8047 13.0401 41.6216 13.4397 41.8504C13.8393 42.0792 13.5291 42.2867 13.1085 42.4239C12.8876 42.2989 12.6668 42.1707 12.446 42.0457Z" fill="white"/>
<path id="Vector_73" d="M122.373 8.60559C122.878 8.20597 123.483 8.32189 124.103 8.49272L124.129 8.52933C123.562 8.81913 122.952 8.78557 122.331 8.59034L122.378 8.60559H122.373Z" fill="white"/>
<path id="Vector_74" d="M360.874 52.6555C361.095 52.6555 361.316 52.6524 361.537 52.6494C361.747 52.7805 361.952 52.9117 362.157 53.0398C361.915 53.3906 361.4 53.415 360.853 53.4089C360.859 53.1588 360.869 52.9056 360.874 52.6555Z" fill="white"/>
<path id="Vector_75" d="M356.842 30.8136L356.863 30.9722C356.642 31.1247 356.421 31.2803 356.2 31.4328C356.037 31.4145 355.869 31.4115 355.706 31.4237C355.664 31.1766 355.622 30.9295 355.58 30.6824V30.6794C356.006 30.7251 356.426 30.7709 356.842 30.8166V30.8136Z" fill="white"/>
<path id="Vector_76" d="M332.596 106.025C332.58 105.759 332.701 105.524 333.038 105.338C333.306 105.485 333.574 105.631 333.848 105.777L333.832 105.942C333.417 105.97 333.006 105.994 332.596 106.021V106.025Z" fill="white"/>
<path id="Vector_77" d="M200.149 138.089C200.065 137.991 199.891 137.884 199.917 137.802C199.981 137.601 200.27 137.53 200.575 137.628C200.669 137.659 200.717 137.848 200.648 137.912C200.554 137.997 200.322 138.034 200.149 138.092V138.089Z" fill="white"/>
<path id="Vector_78" d="M86.7404 72.7311C86.9508 72.5938 87.1663 72.4565 87.3766 72.3192C87.608 72.3284 87.8341 72.3375 88.0654 72.3497C88.0444 72.5999 88.0234 72.85 88.0023 73.1032C87.4765 73.0941 86.9823 73.0575 86.7404 72.7311Z" fill="white"/>
<path id="Vector_79" d="M11.0783 56.8286C11.1361 56.5815 11.194 56.3375 11.2465 56.0904C11.3727 56.1148 11.5042 56.1148 11.6304 56.0873C11.8933 56.2216 12.1614 56.3527 12.4243 56.487C12.4085 56.5754 12.4085 56.6669 12.4191 56.7554C11.9879 56.7859 11.5515 56.8164 11.1204 56.8469L11.0783 56.8286Z" fill="white"/>
<path id="Vector_80" d="M86.7455 81.8186C86.7718 81.9437 86.7718 82.0687 86.7403 82.1938C86.3249 82.1938 86.1304 82.3219 86.1251 82.5568C86.0357 82.6026 85.9411 82.6483 85.8464 82.6941C85.715 82.6422 85.5677 82.6087 85.4153 82.5904C85.431 82.3677 85.4521 82.1481 85.4679 81.9254C85.8938 81.8888 86.3144 81.8491 86.7403 81.8125L86.7508 81.8217L86.7455 81.8186Z" fill="white"/>
<path id="Vector_81" d="M193.271 26.1402C193.471 26.1341 193.671 26.1341 193.87 26.1341C194.086 26.2683 194.296 26.4025 194.512 26.5368L194.486 26.5246L194.47 26.6984L194.48 26.8723H194.517C194.086 26.8784 193.655 26.8815 193.224 26.8845C193.245 26.6344 193.26 26.3842 193.271 26.1341V26.1402Z" fill="white"/>
<path id="Vector_82" d="M84.0488 127.29C84.3064 127.528 84.8164 127.689 84.7428 128.031C83.7964 128.084 83.3985 127.842 83.5492 127.305C83.7175 127.333 83.8858 127.326 84.0488 127.29Z" fill="white"/>
<path id="Vector_83" d="M189.98 116.588C189.801 116.537 189.533 116.512 189.47 116.43C189.412 116.354 189.565 116.222 189.628 116.113C189.807 116.174 190.022 116.213 190.148 116.299C190.338 116.421 190.254 116.534 189.98 116.588Z" fill="white"/>
<path id="Vector_84" d="M310.877 117.409C311.118 117.546 311.366 117.681 311.607 117.818C311.586 117.943 311.571 118.065 311.56 118.19H310.877C310.661 118.068 310.445 117.946 310.23 117.824L310.209 117.812C310.435 117.678 310.656 117.543 310.882 117.409H310.877Z" fill="white"/>
<path id="Vector_85" d="M309.551 9.09387C309.309 9.33791 309.072 9.58196 308.831 9.82295C308.699 9.78329 308.568 9.78024 308.431 9.81685C308.368 9.5728 308.31 9.33181 308.247 9.08777C308.683 9.09387 309.12 9.09997 309.556 9.10607L309.546 9.09692L309.551 9.09387Z" fill="white"/>
<path id="Vector_86" d="M184.039 157.966C184.47 158.152 184.891 158.39 184.25 158.628C183.881 158.765 183.508 158.567 183.356 158.323C183.582 158.204 183.813 158.085 184.039 157.966Z" fill="white"/>
<path id="Vector_87" d="M20.8998 51.121C20.7158 51.1088 20.5371 51.1119 20.353 51.1332C20.148 50.9563 19.9482 50.7794 19.7431 50.6024C19.9429 50.514 20.1427 50.4286 20.3425 50.3401C20.5581 50.3523 20.7737 50.3645 20.9893 50.3828V50.3797C20.9577 50.6268 20.9261 50.8739 20.8998 51.121Z" fill="white"/>
<path id="Vector_88" d="M178.129 67.4293C178.539 67.5635 178.833 67.7709 178.46 67.9967C178.081 68.2254 177.713 68.0516 177.461 67.8319C177.682 67.6977 177.908 67.5635 178.129 67.4293Z" fill="white"/>
<path id="Vector_89" d="M55.1187 58.726L55.2186 57.9695C55.9179 58.2532 56.0231 58.5124 55.1187 58.726Z" fill="white"/>
<path id="Vector_90" d="M55.8919 138.632C55.8919 138.427 55.9813 138.22 56.4177 138.281C56.9435 138.351 56.7174 138.528 56.486 138.678C56.2915 138.653 56.0917 138.638 55.8919 138.632Z" fill="white"/>
<path id="Vector_91" d="M378.609 76.9133C379.04 76.9133 379.466 76.9072 379.897 76.9042C379.918 77.0292 379.924 77.1543 379.903 77.2794C379.671 77.2794 379.44 77.2794 379.203 77.2794C379.004 77.2885 378.804 77.2794 378.609 77.2428V77.078V76.9133Z" fill="white"/>
<path id="Vector_92" d="M373.346 75.3789C373.335 75.629 373.33 75.8822 373.319 76.1324C373.13 76.1324 372.941 76.1324 372.752 76.1262C372.731 75.8761 372.709 75.629 372.688 75.3789C372.909 75.3728 373.125 75.3728 373.346 75.3789Z" fill="white"/>
<path id="Vector_93" d="M371.999 40.1574C372.004 40.4075 372.015 40.6577 372.025 40.9109C371.799 40.9109 371.568 40.9109 371.342 40.9109C371.373 40.6607 371.405 40.4106 371.437 40.1604C371.626 40.1604 371.815 40.1574 372.004 40.1543L371.999 40.1574Z" fill="white"/>
<path id="Vector_94" d="M62.3848 20.0453C61.9484 20.0636 61.512 20.0788 61.0755 20.0971C61.0755 19.9599 61.0808 19.8256 61.086 19.6884C61.5224 19.7036 61.9536 19.7219 62.3848 19.7372C62.3742 19.8409 62.3742 19.9415 62.3848 20.0453Z" fill="white"/>
<path id="Vector_95" d="M366.873 69.0918C367.283 69.0369 367.688 68.9789 368.098 68.924C368.156 69.8026 367.346 69.1864 366.878 69.162V69.0918H366.873Z" fill="white"/>
<path id="Vector_96" d="M364.755 96.9826C364.676 97.2114 364.597 97.4402 364.518 97.669L364.439 97.6904C364.355 97.4555 364.276 97.2206 364.197 96.9857C364.386 96.9796 364.57 96.9796 364.76 96.9857L364.755 96.9826Z" fill="white"/>
<path id="Vector_97" d="M355.642 96.4764C356.126 96.2903 356.62 96.0707 356.904 96.5923C356.483 96.5527 356.063 96.513 355.642 96.4764Z" fill="white"/>
<path id="Vector_98" d="M351.015 22.7541C351.552 22.7328 352.067 22.7328 352.277 23.0988C351.762 23.0988 351.263 23.0775 351.015 22.7541Z" fill="white"/>
<path id="Vector_99" d="M346.304 54.5651C346.336 54.8122 346.373 55.0593 346.404 55.3064H345.7C345.737 55.0563 345.773 54.8061 345.81 54.556C345.973 54.5651 346.136 54.5682 346.304 54.5651Z" fill="white"/>
<path id="Vector_100" d="M342.429 73.4905C342.429 73.7437 342.44 73.9938 342.44 74.244H341.777C341.793 73.9938 341.804 73.7406 341.814 73.4905C342.019 73.4905 342.224 73.4905 342.424 73.4905H342.429Z" fill="white"/>
<path id="Vector_101" d="M334.558 112.101C335.036 111.695 335.483 111.607 335.867 112.144C335.431 112.129 334.994 112.116 334.558 112.101Z" fill="white"/>
<path id="Vector_102" d="M331.834 48.5037C331.803 48.7782 331.545 48.9307 331.077 48.8789C330.767 48.8453 330.641 48.6775 330.646 48.4945C331.041 48.4945 331.435 48.5006 331.834 48.5037Z" fill="white"/>
<path id="Vector_103" d="M326.082 179.921C326.203 179.588 326.497 179.381 327.039 179.658C327.239 179.762 326.918 179.93 326.66 180C326.476 179.954 326.282 179.927 326.082 179.921Z" fill="white"/>
<path id="Vector_104" d="M325.241 83.7404L325.331 84.4695C325.099 84.4695 324.873 84.4756 324.642 84.4756C324.689 84.2254 324.736 83.9784 324.789 83.7282C324.936 83.7404 325.089 83.7435 325.241 83.7404Z" fill="white"/>
<path id="Vector_105" d="M317.459 51.5175C317.422 51.7585 317.385 52.0026 317.349 52.2435C317.201 52.2435 317.054 52.2466 316.907 52.2588L316.77 51.5145C317.002 51.5145 317.233 51.5145 317.464 51.5145L317.459 51.5175Z" fill="white"/>
<path id="Vector_106" d="M315.455 48.1163C315.471 48.3664 315.482 48.6166 315.498 48.8667C315.282 48.8728 315.066 48.8698 314.846 48.8637C314.867 48.6166 314.888 48.3664 314.909 48.1194C315.093 48.1194 315.271 48.1194 315.455 48.1194V48.1163Z" fill="white"/>
<path id="Vector_107" d="M312.201 60.6082C312.637 60.6082 313.074 60.6082 313.51 60.6113C313.51 60.7303 313.51 60.8492 313.51 60.9682C313.074 60.9713 312.637 60.9743 312.206 60.9804V60.7943V60.6082H312.201Z" fill="white"/>
<path id="Vector_108" d="M312.864 118.947C312.869 119.075 312.88 119.203 312.89 119.334C312.443 119.331 311.996 119.328 311.549 119.325C311.528 119.2 311.549 119.078 311.618 118.959C312.033 118.956 312.448 118.95 312.869 118.947H312.864Z" fill="white"/>
<path id="Vector_109" d="M307.606 120.847C308.042 120.847 308.479 120.841 308.915 120.838C308.489 121.274 308.047 121.268 307.606 120.847Z" fill="white"/>
<path id="Vector_110" d="M306.323 45.8283C306.265 46.0693 306.202 46.3103 306.144 46.5543C306.023 46.5452 305.902 46.5482 305.781 46.5696L305.571 45.8314C305.823 45.8314 306.07 45.8314 306.323 45.8283Z" fill="white"/>
<path id="Vector_111" d="M298.394 31.4359C298.831 31.439 299.267 31.4451 299.698 31.4481C299.251 31.8569 298.815 31.8691 298.394 31.4359Z" fill="white"/>
<path id="Vector_112" d="M299.682 155.702C299.603 156.233 298.993 156.123 298.414 156.05C298.472 155.825 298.746 155.715 299.072 155.626C299.277 155.66 299.487 155.687 299.703 155.709L299.687 155.699L299.682 155.702Z" fill="white"/>
<path id="Vector_113" d="M70.8188 20.3015C70.4245 20.3533 70.0302 20.4021 69.6358 20.454C69.7515 19.8774 70.3404 20.1642 70.8136 20.2374V20.3015H70.8188Z" fill="white"/>
<path id="Vector_114" d="M291.884 88.2674C291.437 88.2552 290.99 88.243 290.538 88.2308C291.022 87.8281 291.469 87.8373 291.884 88.2674Z" fill="white"/>
<path id="Vector_115" d="M290.932 175.07C291.022 175.351 291.469 175.705 290.506 175.775V175.772C290.591 175.531 290.675 175.293 290.764 175.052L290.932 175.07Z" fill="white"/>
<path id="Vector_116" d="M283.324 18.9959C283.75 18.9714 284.176 18.947 284.602 18.9226L284.618 18.9318C284.628 19.0599 284.634 19.1911 284.644 19.3192L284.602 19.3467C284.171 19.3162 283.74 19.2857 283.309 19.2551C283.33 19.1697 283.335 19.0813 283.33 18.9959H283.324Z" fill="white"/>
<path id="Vector_117" d="M72.954 139.773C72.9435 139.523 72.9277 139.272 72.9172 139.022H73.606C73.5797 139.272 73.5534 139.523 73.5271 139.773C73.3378 139.773 73.1433 139.773 72.954 139.773Z" fill="white"/>
<path id="Vector_118" d="M279.319 1.10437C279.744 1.13182 280.176 1.16233 280.602 1.18978C280.586 1.27825 280.591 1.36672 280.623 1.45213C280.191 1.47653 279.76 1.50399 279.324 1.52839L279.313 1.10132L279.319 1.10437Z" fill="white"/>
<path id="Vector_119" d="M278.687 174.274C279.108 174.283 279.534 174.295 279.954 174.305C279.954 174.405 279.965 174.503 279.98 174.604C279.544 174.631 279.102 174.658 278.666 174.683C278.671 174.546 278.682 174.408 278.687 174.271V174.274Z" fill="white"/>
<path id="Vector_120" d="M277.367 48.8636C277.367 49.1168 277.361 49.37 277.356 49.6201C277.151 49.6201 276.946 49.6201 276.741 49.6171L276.709 48.8667C276.93 48.8667 277.146 48.8667 277.367 48.8667V48.8636Z" fill="white"/>
<path id="Vector_121" d="M266.2 30.6977H267.488C267.057 31.1431 266.631 31.1431 266.2 30.6977Z" fill="white"/>
<path id="Vector_122" d="M264.958 33.6934C264.911 33.5775 264.869 33.4615 264.816 33.3456C264.727 33.1382 264.948 33.0223 265.19 32.9094C265.332 33.0528 265.521 33.19 265.6 33.3426C265.652 33.4463 265.552 33.5744 265.516 33.6903C265.326 33.6751 265.142 33.6751 264.953 33.6903L264.958 33.6934Z" fill="white"/>
<path id="Vector_123" d="M264.879 8.32507C264.864 8.57522 264.843 8.82536 264.827 9.0755C264.595 8.95348 264.364 8.83451 264.138 8.71249C264.269 8.50811 264.501 8.37083 264.879 8.32507Z" fill="white"/>
<path id="Vector_124" d="M255.662 77.2763C255.662 77.5295 255.662 77.7797 255.662 78.0298C255.452 78.0298 255.247 78.0298 255.042 78.0298C255.037 77.7797 255.031 77.5265 255.026 77.2763C255.242 77.2763 255.457 77.2763 255.667 77.2763H255.662Z" fill="white"/>
<path id="Vector_125" d="M253.695 139.776C254.127 139.785 254.563 139.797 254.994 139.806C254.984 139.901 254.978 139.995 254.984 140.09C254.558 140.111 254.127 140.136 253.701 140.157C253.701 140.029 253.701 139.904 253.69 139.776H253.695Z" fill="white"/>
<path id="Vector_126" d="M77.5332 121.231C77.0968 121.219 76.6604 121.21 76.224 121.198C76.6919 120.774 77.1336 120.722 77.5332 121.231Z" fill="white"/>
<path id="Vector_127" d="M77.0923 116.616C77.0292 116.384 76.9662 116.155 76.9083 115.923C77.0976 115.917 77.2922 115.914 77.4814 115.923C77.4078 116.161 77.3395 116.396 77.2659 116.634L77.0976 116.616H77.0923Z" fill="white"/>
<path id="Vector_128" d="M251.177 27.8058C251.361 27.757 251.551 27.7082 251.735 27.6593C252.097 27.5587 252.402 27.6959 252.402 27.8424C252.402 27.9857 252.103 28.123 251.74 28.0163C251.556 27.9613 251.367 27.9186 251.183 27.8698V27.8058H251.177Z" fill="white"/>
<path id="Vector_129" d="M250.546 77.3954C250.94 77.3557 251.329 77.3161 251.724 77.2764C251.745 77.4015 251.724 77.5235 251.655 77.6455C251.224 77.6547 250.846 77.5815 250.546 77.3954Z" fill="white"/>
<path id="Vector_130" d="M249.742 38.2601C249.736 38.5102 249.726 38.7573 249.721 39.0074C249.542 39.0074 249.358 39.0044 249.179 39.0044C249.169 38.7573 249.158 38.5102 249.148 38.2662C249.342 38.257 249.542 38.257 249.736 38.2631L249.742 38.2601Z" fill="white"/>
<path id="Vector_131" d="M248.438 151.911C248.653 151.535 249.195 151.545 249.731 151.545L249.721 151.539C249.721 151.648 249.726 151.755 249.736 151.865C249.305 151.88 248.869 151.895 248.438 151.911Z" fill="white"/>
<path id="Vector_132" d="M249.069 165.168C249.074 165.418 249.08 165.669 249.085 165.919C248.869 165.925 248.654 165.925 248.438 165.919C248.454 165.669 248.47 165.418 248.48 165.165C248.675 165.165 248.869 165.165 249.064 165.165L249.069 165.168Z" fill="white"/>
<path id="Vector_133" d="M246.477 90.9244C246.913 90.9214 247.344 90.9153 247.781 90.9122C247.36 91.3942 246.924 91.3911 246.477 90.9244Z" fill="white"/>
<path id="Vector_134" d="M244.621 91.263C244.757 90.8573 245.262 90.8451 245.819 90.8939C245.709 91.3332 245.136 91.2691 244.621 91.263Z" fill="white"/>
<path id="Vector_135" d="M243.181 32.5767C243.612 32.1009 244.053 32.1131 244.495 32.5706C244.059 32.5706 243.617 32.5737 243.181 32.5767Z" fill="white"/>
<path id="Vector_136" d="M243.821 0.000175752C243.616 0.378442 243.09 0.375391 242.549 0.347936C242.806 0.0306809 243.295 -0.00287478 243.821 0.000175752Z" fill="white"/>
<path id="Vector_137" d="M231.397 98.5568C231.771 98.5477 232.422 98.3524 232.444 98.6087C232.486 99.0907 231.776 98.7551 231.397 98.7948V98.6758V98.5568Z" fill="white"/>
<path id="Vector_138" d="M228.741 50.0289C229.172 50.0197 229.603 50.0136 230.029 50.0045C229.63 50.5291 229.193 50.4498 228.741 50.0289Z" fill="white"/>
<path id="Vector_139" d="M224.062 81.0773C224.078 81.3274 224.099 81.5745 224.115 81.8247C223.894 81.8247 223.673 81.8247 223.452 81.8247C223.468 81.5745 223.479 81.3244 223.5 81.0742C223.689 81.0742 223.878 81.0743 224.062 81.0773Z" fill="white"/>
<path id="Vector_140" d="M216.228 3.02628C216.222 3.27642 216.217 3.52961 216.207 3.77976C216.007 3.77976 215.812 3.77976 215.618 3.77671C215.597 3.52657 215.576 3.27642 215.555 3.02628C215.781 3.02628 216.007 3.02628 216.228 3.02628Z" fill="white"/>
<path id="Vector_141" d="M214.914 39.7731C215.35 39.7731 215.787 39.7731 216.223 39.7761C216.223 39.8951 216.223 40.0171 216.223 40.1361C215.787 40.1422 215.35 40.1513 214.909 40.1574C214.909 40.0293 214.909 39.9012 214.909 39.7731H214.914Z" fill="white"/>
<path id="Vector_142" d="M212.705 95.9059C212.779 96.1347 212.853 96.3635 212.921 96.5923C212.732 96.5923 212.548 96.5892 212.358 96.5862C212.427 96.3513 212.49 96.1133 212.558 95.8784L212.705 95.9059Z" fill="white"/>
<path id="Vector_143" d="M209.66 3.01112C210.07 2.52914 210.507 2.59625 210.954 2.98977C210.522 2.99587 210.091 3.00502 209.66 3.01112Z" fill="white"/>
<path id="Vector_144" d="M209.64 122.36L209.656 123.114C209.435 123.114 209.214 123.114 208.993 123.114C208.999 122.86 209.004 122.61 209.009 122.357C209.219 122.357 209.43 122.357 209.64 122.357V122.36Z" fill="white"/>
<path id="Vector_145" d="M207.016 123.101C207.421 123.114 207.831 123.123 208.236 123.135C207.8 123.541 207.385 123.617 207.016 123.101Z" fill="white"/>
<path id="Vector_146" d="M204.419 1.54994C204.85 1.53163 205.286 1.51333 205.717 1.49503L205.707 1.88244C205.281 1.86414 204.85 1.84279 204.424 1.82448L204.434 1.68721L204.424 1.54688L204.419 1.54994Z" fill="white"/>
<path id="Vector_147" d="M203.078 123.885C203.441 123.339 203.893 123.467 204.382 123.824C203.946 123.846 203.515 123.864 203.078 123.885Z" fill="white"/>
<path id="Vector_148" d="M203.045 97.361C203.093 97.5898 203.135 97.9315 202.693 97.9193C202.33 97.9101 202.357 97.5471 202.404 97.3153C202.614 97.3427 202.83 97.358 203.045 97.3641V97.361Z" fill="white"/>
<path id="Vector_149" d="M200.448 100.003C200.848 99.5452 201.29 99.5971 201.747 99.9723C201.316 99.9814 200.88 99.9936 200.448 100.003Z" fill="white"/>
<path id="Vector_150" d="M201.768 119.703C201.763 119.953 201.758 120.206 201.752 120.457C201.558 120.457 201.363 120.457 201.169 120.45C201.142 120.2 201.111 119.95 201.085 119.7C201.311 119.7 201.542 119.7 201.768 119.7V119.703Z" fill="white"/>
<path id="Vector_151" d="M198.582 24.4075C198.982 24.3557 199.381 24.3038 199.776 24.255L199.765 24.2458L199.792 24.4319V24.6211C199.313 24.6973 198.94 24.5509 198.551 24.438L198.582 24.4075Z" fill="white"/>
<path id="Vector_152" d="M190.564 26.8693C190.128 26.8785 189.686 26.8876 189.249 26.8968C189.665 26.4819 190.101 26.4636 190.564 26.8693Z" fill="white"/>
<path id="Vector_153" d="M190.474 119.728C190.048 120.167 189.643 120.185 189.275 119.703C189.675 119.712 190.075 119.721 190.474 119.728Z" fill="white"/>
<path id="Vector_154" d="M189.265 15.9058C189.05 15.9149 188.839 15.9149 188.624 15.9058C188.639 15.6556 188.66 15.4055 188.676 15.1553C188.897 15.2804 189.113 15.4085 189.333 15.5336C189.307 15.6556 189.286 15.7807 189.26 15.9027L189.265 15.9058Z" fill="white"/>
<path id="Vector_155" d="M185.437 75.1714C185.911 75.0891 186.51 74.7596 186.62 75.3758L186.636 75.3667C186.226 75.3118 185.821 75.2538 185.411 75.1989L185.437 75.1714Z" fill="white"/>
<path id="Vector_156" d="M185.921 22.3636L185.973 23.1018C185.763 23.1171 185.547 23.1171 185.337 23.1018C185.368 22.8547 185.4 22.6076 185.432 22.3575C185.595 22.3605 185.758 22.3605 185.921 22.3575V22.3636Z" fill="white"/>
<path id="Vector_157" d="M184.759 92.8493C185.169 92.8371 185.574 92.8249 185.984 92.8157C185.989 92.9499 185.994 93.0811 186 93.2153C185.4 93.3068 184.885 93.3007 184.759 92.8523V92.8493Z" fill="white"/>
<path id="Vector_158" d="M185.979 134.858C185.979 135.108 185.973 135.359 185.968 135.609C185.768 135.609 185.568 135.612 185.363 135.609C185.348 135.359 185.332 135.105 185.316 134.852C185.537 134.852 185.758 134.852 185.973 134.855L185.979 134.858Z" fill="white"/>
<path id="Vector_159" d="M185.248 52.6737C185.279 52.9208 185.311 53.1679 185.342 53.4119C185.121 53.4119 184.895 53.4119 184.675 53.4119C184.711 53.1648 184.753 52.9177 184.79 52.6706C184.943 52.6798 185.095 52.6798 185.253 52.6737H185.248Z" fill="white"/>
<path id="Vector_160" d="M184.05 3.02023C184.013 3.27037 183.981 3.51747 183.945 3.76456C183.787 3.75846 183.629 3.75846 183.471 3.76456C183.429 3.51747 183.387 3.27037 183.345 3.02328L183.356 3.01718C183.577 3.01413 183.803 3.00802 184.024 3.00497L184.05 3.01718V3.02023Z" fill="white"/>
<path id="Vector_161" d="M184.023 6.06767C183.592 6.06157 183.161 6.05242 182.729 6.04631C182.919 5.64669 183.439 5.63449 184.012 5.68635C184.012 5.81447 184.018 5.9426 184.023 6.06767Z" fill="white"/>
<path id="Vector_162" d="M183.371 156.798C183.35 157.057 183.329 157.313 183.307 157.572C183.134 157.569 182.96 157.569 182.787 157.572C182.766 157.325 182.75 157.078 182.729 156.831C182.939 156.822 183.155 156.813 183.371 156.798Z" fill="white"/>
<path id="Vector_163" d="M179.422 39.7547C179.869 39.3551 180.305 39.3338 180.726 39.7669C180.29 39.7639 179.853 39.7578 179.422 39.7547Z" fill="white"/>
<path id="Vector_164" d="M180.731 87.883C180.279 87.8678 179.827 87.8525 179.374 87.8373C179.395 87.7397 179.395 87.6451 179.374 87.5475C179.827 87.5322 180.279 87.517 180.731 87.5017C180.731 87.6298 180.731 87.7549 180.731 87.883Z" fill="white"/>
<path id="Vector_165" d="M178.097 33.3303C178.528 33.3394 178.964 33.3455 179.396 33.3577C179.396 33.4614 179.396 33.5652 179.396 33.6689C178.964 33.6841 178.533 33.7024 178.097 33.7177C178.097 33.5896 178.097 33.4584 178.097 33.3303Z" fill="white"/>
<path id="Vector_166" d="M178.102 120.466C178.538 120.466 178.969 120.469 179.406 120.472C179.406 120.585 179.406 120.694 179.406 120.807L178.112 120.823V120.646V120.469L178.102 120.466Z" fill="white"/>
<path id="Vector_167" d="M177.445 163.268C177.445 163.521 177.435 163.771 177.43 164.024C177.219 164.024 177.014 164.024 176.804 164.024C176.804 163.774 176.793 163.521 176.793 163.271C177.009 163.268 177.23 163.268 177.445 163.271V163.268Z" fill="white"/>
<path id="Vector_168" d="M173.475 45.081C173.444 45.322 173.412 45.563 173.375 45.804C173.217 45.804 173.06 45.8101 172.902 45.8253C172.855 45.5721 172.807 45.322 172.765 45.0718C173.002 45.0718 173.238 45.0779 173.475 45.081Z" fill="white"/>
<path id="Vector_169" d="M89.3638 50.0076C88.9484 49.9802 88.533 49.9558 88.1176 49.9283C88.5961 49.6324 89.0378 49.5196 89.3638 50.0076Z" fill="white"/>
<path id="Vector_170" d="M158.442 73.9452C158.863 73.9177 159.278 73.8903 159.699 73.8628V73.8659C159.699 73.994 159.699 74.1221 159.704 74.2472V74.2502C159.273 74.2197 158.847 74.1862 158.421 74.1557L158.447 74.052V73.9452H158.442Z" fill="white"/>
<path id="Vector_171" d="M157.712 43.5618C157.712 43.815 157.717 44.0652 157.723 44.3153C157.512 44.3153 157.297 44.3153 157.086 44.3153C157.092 44.0652 157.102 43.815 157.107 43.5649C157.307 43.5649 157.512 43.5618 157.717 43.5649L157.712 43.5618Z" fill="white"/>
<path id="Vector_172" d="M153.826 158.006C154.415 158.137 154.515 158.405 154.447 158.726C154.205 158.726 153.963 158.732 153.721 158.735C153.763 158.481 153.8 158.231 153.842 157.978L153.826 158.006Z" fill="white"/>
<path id="Vector_173" d="M91.3254 67.8073C91.3569 67.5603 91.3885 67.3162 91.42 67.0691C91.5725 67.0783 91.7197 67.0783 91.8722 67.0661C91.9195 67.3132 91.9668 67.5633 92.0142 67.8104L91.9931 67.8196C91.7723 67.8196 91.5462 67.8135 91.3254 67.8104V67.8073Z" fill="white"/>
<path id="Vector_174" d="M151.812 28.0162C152.265 27.6105 152.701 27.5861 153.122 28.0315C152.685 28.0254 152.249 28.0223 151.812 28.0162Z" fill="white"/>
<path id="Vector_175" d="M92.0245 24.9872C92.0034 24.737 91.9877 24.4869 91.9666 24.2367C92.7974 24.4655 92.729 24.7187 92.0245 24.9872Z" fill="white"/>
<path id="Vector_176" d="M92.2712 21.5155C92.2134 21.3416 92.0714 21.1586 92.124 20.9969C92.1871 20.8169 92.5079 20.82 92.5552 21.003C92.5972 21.1647 92.4342 21.3447 92.3659 21.5155H92.2765H92.2712Z" fill="white"/>
<path id="Vector_177" d="M146.612 36.4266C147.033 36.4022 147.454 36.3747 147.874 36.3503L147.885 36.3595C147.874 36.4876 147.869 36.6127 147.858 36.7408C147.348 36.7591 146.886 36.7164 146.618 36.4266H146.612Z" fill="white"/>
<path id="Vector_178" d="M147.175 34.0961C147.17 34.3432 147.165 34.5903 147.16 34.8374C146.981 34.8404 146.797 34.8404 146.618 34.8374C146.607 34.5903 146.597 34.3401 146.581 34.093C146.781 34.0839 146.975 34.0869 147.175 34.093V34.0961Z" fill="white"/>
<path id="Vector_179" d="M147.223 112.501C147.191 112.736 147.165 112.974 147.133 113.209C146.576 113.074 146.471 112.806 146.502 112.498C146.744 112.498 146.986 112.498 147.223 112.501Z" fill="white"/>
<path id="Vector_180" d="M141.87 31.8355C141.928 32.0643 141.996 32.4304 141.607 32.4273C141.208 32.4243 141.297 32.0643 141.365 31.8355C141.534 31.8355 141.707 31.8355 141.875 31.8355H141.87Z" fill="white"/>
<path id="Vector_181" d="M137.395 50.8069C137.821 50.7824 138.247 50.758 138.673 50.7336C138.326 51.2278 137.884 51.1668 137.395 50.8069Z" fill="white"/>
<path id="Vector_182" d="M136.023 114.014C136.454 114.026 136.885 114.035 137.316 114.047C136.854 114.435 136.423 114.459 136.023 114.014Z" fill="white"/>
<path id="Vector_183" d="M132.106 59.7968C132.6 59.4704 133.074 59.2996 133.405 59.8761C132.974 59.8487 132.537 59.8243 132.106 59.7968Z" fill="white"/>
<path id="Vector_184" d="M129.892 89.0757C130.092 89.3655 130.491 89.698 129.487 89.7498L129.508 89.7651C129.582 89.5302 129.661 89.2984 129.734 89.0635L129.887 89.0757H129.892Z" fill="white"/>
<path id="Vector_185" d="M123.509 150.016C123.52 150.266 123.53 150.516 123.536 150.767C122.768 150.526 122.784 150.276 123.509 150.016Z" fill="white"/>
<path id="Vector_186" d="M121.343 87.5597C121.401 87.6756 121.448 87.7915 121.517 87.9044C121.648 88.1332 121.459 88.2217 121.101 88.185C120.833 88.1576 120.807 88.0386 120.933 87.8983C121.028 87.7946 121.065 87.6726 121.128 87.5566H121.338L121.343 87.5597Z" fill="white"/>
<path id="Vector_187" d="M120.244 63.2652C120.255 63.3933 120.26 63.5214 120.271 63.6495C120.044 63.6831 119.813 63.7136 119.587 63.7471C119.392 63.5855 119.193 63.4238 118.998 63.2621C119.413 63.2621 119.829 63.2621 120.244 63.2652Z" fill="white"/>
<path id="Vector_188" d="M105.764 143.531C105.349 143.567 104.686 143.598 104.686 143.378C104.686 143.162 105.349 143.192 105.764 143.229C105.769 143.329 105.769 143.43 105.764 143.531Z" fill="white"/>
<path id="Vector_189" d="M103.15 142.057C103.092 142.247 103.345 142.546 102.724 142.533C102.645 142.533 102.587 142.225 102.519 142.057C102.729 142.048 102.94 142.048 103.15 142.057Z" fill="white"/>
<path id="Vector_190" d="M99.2065 108.319C99.6377 108.337 100.069 108.358 100.5 108.377C100.016 108.749 99.5693 108.852 99.2065 108.319Z" fill="white"/>
<path id="Vector_191" d="M99.2384 130.722C99.6643 130.716 100.095 130.709 100.521 130.703C100.537 130.822 100.537 130.941 100.521 131.063C100.09 131.063 99.6591 131.063 99.2279 131.063V130.892V130.722H99.2384Z" fill="white"/>
<path id="Vector_192" d="M96.0203 76.2574C96.4251 76.2177 96.83 76.1811 97.2349 76.1445C97.1402 76.7241 96.5145 76.4374 96.0308 76.3886L96.0203 76.2605V76.2574Z" fill="white"/>
<path id="Vector_193" d="M1.92936 111.75C1.49295 111.741 1.06178 111.735 0.625366 111.726C0.625366 111.622 0.625366 111.515 0.625366 111.412C1.05652 111.399 1.48768 111.387 1.91883 111.375C1.93461 111.5 1.93461 111.625 1.91883 111.75H1.92936Z" fill="white"/>
<path id="Vector_194" d="M3.24428 69.6988C2.81839 69.6805 2.39247 69.6653 1.97183 69.647C1.97183 69.5554 1.97185 69.4639 1.95608 69.3724C2.38723 69.3511 2.81836 69.3328 3.24951 69.3114C3.24951 69.4395 3.24951 69.5676 3.24951 69.6988H3.24428Z" fill="white"/>
<path id="Vector_195" d="M19.6755 65.91C19.2496 65.8947 18.8237 65.8764 18.4031 65.8612C18.4031 65.7727 18.4031 65.6812 18.3873 65.5927L19.6755 65.5256L19.686 65.5317C19.6808 65.6598 19.6755 65.7849 19.6703 65.913L19.6755 65.91Z" fill="white"/>
<path id="Vector_196" d="M25.5486 59.0859C24.9019 58.8205 24.8072 58.5673 25.6064 58.3355C25.5907 58.5856 25.5696 58.8358 25.5486 59.0859Z" fill="white"/>
<path id="Vector_197" d="M28.2295 68.5762C27.8089 68.5457 27.3935 68.5152 26.9729 68.4817V68.3718L26.9466 68.2651C27.3724 68.2315 27.7983 68.198 28.2295 68.1644C28.2295 68.3017 28.2295 68.4389 28.2295 68.5762Z" fill="white"/>
<path id="Vector_198" d="M29.4499 82.0992C29.045 82.1297 28.6349 82.1602 28.2301 82.1938C28.2301 82.084 28.2353 81.9741 28.2406 81.8643C28.656 81.8918 29.0661 81.9223 29.4814 81.9497L29.4499 82.0992Z" fill="white"/>
<path id="Vector_199" d="M30.1647 49.9923C29.4707 49.733 29.4444 49.4829 30.1963 49.2419C30.1858 49.492 30.1753 49.7422 30.1647 49.9923Z" fill="white"/>
<path id="Vector_200" d="M30.8267 87.8891C30.7741 88.4443 30.1274 88.2948 29.5648 88.243L29.5805 88.2552C29.5805 88.1362 29.6016 88.0203 29.6541 87.9074C30.0432 87.9013 30.4376 87.8952 30.8267 87.8891Z" fill="white"/>
<path id="Vector_201" d="M34.0866 18.1142C33.6607 18.1447 33.2349 18.1722 32.809 18.2027C32.809 18.0654 32.8142 17.9312 32.8195 17.7939C33.2454 17.8244 33.6713 17.8519 34.0972 17.8793C34.0709 17.9556 34.0656 18.0319 34.0814 18.1112L34.0866 18.1142Z" fill="white"/>
<path id="Vector_202" d="M37.4522 4.53627C37.4522 4.28613 37.4417 4.03598 37.4364 3.78889C37.6415 3.78279 37.8466 3.78279 38.0464 3.79194C38.0411 4.03903 38.0359 4.28613 38.0306 4.53017C37.8361 4.53627 37.6468 4.53627 37.4522 4.53627Z" fill="white"/>
<path id="Vector_203" d="M43.9721 98.4652C43.5725 98.4317 43.1782 98.3981 42.7786 98.3645L42.7417 98.2334C43.1624 98.1876 43.583 98.1419 44.0036 98.0961L44.0142 98.1053C44.0089 98.2303 43.9879 98.3523 43.9563 98.4744L43.9721 98.4622V98.4652Z" fill="white"/>
<path id="Vector_204" d="M44.5767 22.629C44.1666 22.6595 43.7565 22.687 43.3516 22.7175V22.5406V22.3636C43.7775 22.385 44.1981 22.4094 44.624 22.4308C44.5714 22.4918 44.5557 22.5589 44.5767 22.626V22.629Z" fill="white"/>
<path id="Vector_205" d="M49.209 24.5722C48.7831 24.5936 48.3572 24.615 47.9366 24.6363C48.2889 24.1452 48.7305 24.2153 49.209 24.5722Z" fill="white"/>
<path id="Vector_206" d="M49.8823 64.0249C49.8245 64.5709 49.2198 64.4824 48.6099 64.3879C48.7939 63.9883 49.3513 64.0188 49.8823 64.0249Z" fill="white"/>
<path id="Vector_207" d="M393 75.0159C392.937 75.1071 392.9 75.2681 392.811 75.2803C392.443 75.3289 392.422 75.1648 392.427 75.0098C392.616 75.0068 392.811 75.0098 393 75.0159Z" fill="white"/>
<path id="Vector_208" d="M385.181 109.093C385.176 109.35 384.95 109.481 384.503 109.484C384.555 109.255 384.782 109.124 385.181 109.093Z" fill="white"/>
<path id="Vector_209" d="M380.576 91.2903C380.56 91.1256 380.576 90.9548 380.965 91.0036C381.059 91.0158 381.101 91.1835 381.165 91.2812C380.97 91.2873 380.77 91.2903 380.576 91.2903Z" fill="white"/>
<path id="Vector_210" d="M375.959 119.316C375.512 119.328 375.291 119.209 375.312 118.95C375.707 118.968 375.922 119.09 375.959 119.316Z" fill="white"/>
<path id="Vector_211" d="M373.934 46.6032C373.987 46.7191 374.003 46.8381 373.976 46.9571C373.566 46.9509 373.34 46.8381 373.356 46.591C373.55 46.5879 373.745 46.591 373.934 46.6001V46.6032Z" fill="white"/>
<path id="Vector_212" d="M362.205 109.465C362.221 109.316 362.205 109.133 362.589 109.185C362.684 109.197 362.715 109.368 362.773 109.465C362.584 109.475 362.394 109.475 362.205 109.465Z" fill="white"/>
<path id="Vector_213" d="M358.897 103.41C358.934 103.691 358.697 103.816 358.219 103.798C358.256 103.56 358.487 103.431 358.897 103.41Z" fill="white"/>
<path id="Vector_214" d="M358.219 48.1071C357.856 48.0643 357.646 47.9393 357.573 47.7318C357.925 47.7776 358.14 47.9057 358.219 48.1071Z" fill="white"/>
<path id="Vector_215" d="M358.214 59.8517C358.224 60.0255 358.224 60.2177 357.798 60.1659C357.698 60.1537 357.662 59.9645 357.598 59.8578C357.804 59.8547 358.009 59.8517 358.214 59.8517Z" fill="white"/>
<path id="Vector_216" d="M350.295 91.6779C350.232 91.7816 350.2 91.9616 350.106 91.9738C349.701 92.0256 349.701 91.8396 349.696 91.6748C349.895 91.6687 350.095 91.6687 350.295 91.6748V91.6779Z" fill="white"/>
<path id="Vector_217" d="M345.063 7.57468C344.985 7.77906 344.769 7.90414 344.411 7.94989C344.496 7.74856 344.711 7.62349 345.063 7.57468Z" fill="white"/>
<path id="Vector_218" d="M337.876 5.2919C338.076 4.96673 338.27 4.9728 338.465 5.2919C338.27 5.29494 338.07 5.29494 337.876 5.2919Z" fill="white"/>
<path id="Vector_219" d="M325.351 67.4291C325.567 67.4291 325.788 67.426 326.003 67.4291C326.009 67.5541 326.009 67.6823 326.003 67.8073C325.798 67.8073 325.599 67.8073 325.393 67.8012C325.362 67.6792 325.357 67.5572 325.372 67.4352H325.346L325.351 67.4291Z" fill="white"/>
<path id="Vector_220" d="M312.9 2.6379C312.995 2.54673 313.089 2.4586 313.189 2.36743C313.284 2.4586 313.379 2.54673 313.479 2.6379C313.289 2.64398 313.095 2.64398 312.905 2.6379H312.9Z" fill="white"/>
<path id="Vector_221" d="M312.837 119.706C312.837 119.572 312.837 119.438 312.837 119.307C313.31 119.297 313.515 119.432 313.484 119.697C313.268 119.697 313.058 119.703 312.842 119.709L312.837 119.706Z" fill="white"/>
<path id="Vector_222" d="M312.191 59.1012C312.202 59.2232 312.191 59.3422 312.159 59.4612C311.965 59.4673 311.77 59.4703 311.576 59.4642C311.623 59.2537 311.833 59.1348 312.196 59.0981L312.191 59.1012Z" fill="white"/>
<path id="Vector_223" d="M307.569 31.4451C307.506 31.5519 307.474 31.738 307.38 31.7502C306.959 31.8051 306.969 31.6099 306.964 31.4451C307.164 31.439 307.364 31.439 307.569 31.4451Z" fill="white"/>
<path id="Vector_224" d="M305.612 11.0095C305.628 11.1254 305.639 11.2444 305.633 11.3634C305.176 11.3725 304.96 11.2444 304.976 10.9821C305.192 10.976 305.402 10.9851 305.612 11.0095Z" fill="white"/>
<path id="Vector_225" d="M302.317 54.9311C302.254 55.1355 302.049 55.2545 301.691 55.2911C301.77 55.0958 301.98 54.9768 302.317 54.9311Z" fill="white"/>
<path id="Vector_226" d="M293.835 13.626C293.84 13.4801 293.856 13.316 294.213 13.3646C294.303 13.3768 294.34 13.5348 294.397 13.6229C294.213 13.632 294.024 13.632 293.84 13.626H293.835Z" fill="white"/>
<path id="Vector_227" d="M284.587 21.5797C284.172 21.5736 283.94 21.4576 283.93 21.2105C284.308 21.238 284.529 21.36 284.587 21.5797Z" fill="white"/>
<path id="Vector_228" d="M281.968 111.369L282.241 111.073L282.546 111.354C282.352 111.363 282.157 111.366 281.968 111.369Z" fill="white"/>
<path id="Vector_229" d="M272.799 46.5838C272.799 46.441 272.825 46.286 273.161 46.3286C273.251 46.3407 273.287 46.4896 273.351 46.5747C273.167 46.5838 272.983 46.5869 272.799 46.5808V46.5838Z" fill="white"/>
<path id="Vector_230" d="M272.762 79.1707C272.983 79.1707 273.198 79.1707 273.419 79.1707C273.419 79.2957 273.419 79.4238 273.419 79.5489C273.209 79.5489 273.004 79.5489 272.799 79.5459C272.762 79.4208 272.756 79.2988 272.767 79.1737L272.762 79.1707Z" fill="white"/>
<path id="Vector_231" d="M272.167 107.945C272.23 107.854 272.267 107.696 272.361 107.684C272.724 107.638 272.756 107.796 272.74 107.954C272.545 107.954 272.356 107.954 272.162 107.945H272.167Z" fill="white"/>
<path id="Vector_232" d="M264.879 70.8456C265.332 70.8304 265.558 70.9524 265.537 71.2178C265.316 71.2178 265.106 71.2056 264.901 71.169C264.885 71.0592 264.88 70.9524 264.885 70.8426L264.879 70.8456Z" fill="white"/>
<path id="Vector_233" d="M264.207 106.446C264.143 106.659 263.928 106.787 263.555 106.824C263.644 106.622 263.854 106.494 264.207 106.446Z" fill="white"/>
<path id="Vector_234" d="M259.643 9.83811C259.737 9.74049 259.832 9.64287 259.927 9.54526C260.021 9.64287 260.121 9.73744 260.216 9.83201C260.027 9.83811 259.832 9.84116 259.643 9.83506V9.83811Z" fill="white"/>
<path id="Vector_235" d="M260.258 94.3257C260.248 94.5666 260.032 94.6887 259.617 94.6978C259.617 94.5758 259.638 94.4538 259.691 94.3318C259.88 94.3257 260.069 94.3226 260.264 94.3226L260.258 94.3257Z" fill="white"/>
<path id="Vector_236" d="M258.275 116.256C258.123 116.222 257.849 116.204 257.834 116.155C257.755 115.954 258.044 115.96 258.281 115.951C258.296 116.055 258.296 116.155 258.281 116.259L258.275 116.256Z" fill="white"/>
<path id="Vector_237" d="M258.297 152.277C257.877 152.268 257.64 152.146 257.624 151.898C258.003 151.932 258.234 152.057 258.297 152.277Z" fill="white"/>
<path id="Vector_238" d="M256.314 32.1984C256.204 32.3357 256.099 32.473 255.988 32.6133C255.726 32.5157 255.62 32.3784 255.689 32.2015C255.899 32.2015 256.104 32.1984 256.314 32.2015V32.1984Z" fill="white"/>
<path id="Vector_239" d="M252.392 118.577C252.818 118.577 253.071 118.684 253.05 118.95C252.85 118.947 252.65 118.94 252.45 118.934C252.382 118.815 252.366 118.696 252.408 118.571L252.392 118.577Z" fill="white"/>
<path id="Vector_240" d="M250.373 71.2209C250.373 71.3729 250.331 71.5248 249.989 71.4731C249.895 71.461 249.863 71.309 249.8 71.2239C249.989 71.2148 250.178 71.2148 250.368 71.2239L250.373 71.2209Z" fill="white"/>
<path id="Vector_241" d="M247.055 91.684C246.992 91.7751 246.955 91.9362 246.86 91.9483C246.492 91.9939 246.492 91.8237 246.487 91.6748C246.676 91.6748 246.865 91.6748 247.049 91.684H247.055Z" fill="white"/>
<path id="Vector_242" d="M245.782 61.3708C245.719 61.4745 245.682 61.6606 245.582 61.6728C245.167 61.7277 245.157 61.5386 245.157 61.3677C245.367 61.3677 245.572 61.3677 245.782 61.3708Z" fill="white"/>
<path id="Vector_243" d="M243.143 100.768C243.143 100.927 243.143 101.11 242.749 101.058C242.654 101.046 242.623 100.869 242.565 100.768C242.759 100.759 242.949 100.759 243.143 100.768Z" fill="white"/>
<path id="Vector_244" d="M226.801 126.89C226.859 126.796 226.89 126.628 226.98 126.616C227.358 126.567 227.348 126.744 227.358 126.89C227.174 126.899 226.985 126.899 226.801 126.89Z" fill="white"/>
<path id="Vector_245" d="M222.858 10.2378C223.058 10.2256 223.252 10.2225 223.452 10.2286C223.473 10.494 223.273 10.6343 222.795 10.613C222.795 10.4879 222.811 10.3628 222.858 10.2378Z" fill="white"/>
<path id="Vector_246" d="M220.16 44.3244C220.171 44.4465 220.16 44.5654 220.113 44.6844C219.929 44.6935 219.74 44.6935 219.556 44.6844C219.582 44.4678 219.782 44.3458 220.155 44.3214L220.16 44.3244Z" fill="white"/>
<path id="Vector_247" d="M214.241 67.0234C213.978 67.0173 213.657 67.0264 213.741 66.8007C213.762 66.7488 214.062 66.7305 214.235 66.697C214.251 66.8068 214.251 66.9136 214.235 67.0234H214.241Z" fill="white"/>
<path id="Vector_248" d="M212.279 133.717C211.864 133.708 211.643 133.583 211.627 133.342C212.001 133.376 212.221 133.501 212.279 133.717Z" fill="white"/>
<path id="Vector_249" d="M209.645 134.861C209.661 134.983 209.645 135.105 209.603 135.224C209.398 135.23 209.193 135.236 208.993 135.236C209.004 134.989 209.235 134.873 209.651 134.861H209.645Z" fill="white"/>
<path id="Vector_250" d="M203.073 18.9379C203.015 19.1484 202.794 19.2643 202.437 19.3009V19.31C202.426 19.188 202.437 19.0629 202.463 18.9409C202.668 18.9409 202.868 18.9379 203.073 18.9379Z" fill="white"/>
<path id="Vector_251" d="M199.108 73.4937C199.092 73.6462 199.108 73.8293 198.719 73.7805C198.624 73.7683 198.593 73.5974 198.53 73.4968C198.724 73.4907 198.913 73.4876 199.108 73.4907V73.4937Z" fill="white"/>
<path id="Vector_252" d="M192.525 84.1034C192.556 84.2254 192.562 84.3443 192.551 84.4664C192.199 84.4267 191.978 84.3108 191.926 84.1003C192.125 84.1003 192.325 84.1003 192.525 84.1034Z" fill="white"/>
<path id="Vector_253" d="M186.647 48.1071C186.868 48.1071 187.083 48.1071 187.304 48.1071C187.304 48.2321 187.304 48.3602 187.304 48.4853H186.647V48.2962V48.1071Z" fill="white"/>
<path id="Vector_254" d="M183.954 147.368C183.891 147.466 183.859 147.634 183.765 147.643C183.381 147.689 183.381 147.515 183.386 147.359C183.576 147.356 183.765 147.359 183.954 147.365V147.368Z" fill="white"/>
<path id="Vector_255" d="M168.938 6.04834C168.954 5.90551 168.944 5.72924 169.312 5.77787C169.406 5.79003 169.438 5.95109 169.496 6.0453C169.306 6.05442 169.122 6.05442 168.933 6.0453L168.938 6.04834Z" fill="white"/>
<path id="Vector_256" d="M161.667 177.285C161.683 177.538 161.446 177.645 161.025 177.639C161.067 177.419 161.288 177.303 161.667 177.285Z" fill="white"/>
<path id="Vector_257" d="M160.293 31.4511C160.288 31.6311 160.22 31.8019 159.825 31.7287C159.726 31.7104 159.71 31.5335 159.657 31.4298C159.868 31.4389 160.083 31.445 160.293 31.4481V31.4511Z" fill="white"/>
<path id="Vector_258" d="M159.021 153.82C158.911 153.918 158.801 154.019 158.69 154.116C158.59 154.012 158.49 153.912 158.391 153.808C158.601 153.799 158.811 153.802 159.021 153.82Z" fill="white"/>
<path id="Vector_259" d="M155.768 31.4633C156.393 31.5854 156.325 31.7013 155.757 31.8142C155.757 31.6982 155.757 31.5823 155.768 31.4633Z" fill="white"/>
<path id="Vector_260" d="M155.788 85.9795C155.751 86.2266 155.509 86.3425 155.094 86.3608C155.172 86.1412 155.414 86.0222 155.788 85.9795Z" fill="white"/>
<path id="Vector_261" d="M153.842 98.4745C153.853 98.3067 153.916 98.1389 154.295 98.2091C154.395 98.2274 154.41 98.3951 154.463 98.4958C154.258 98.4867 154.048 98.4806 153.842 98.4775V98.4745Z" fill="white"/>
<path id="Vector_262" d="M143.252 22.3514C143.268 22.4734 143.252 22.5954 143.21 22.7144C143.01 22.7235 142.811 22.7266 142.616 22.7235C142.595 22.4673 142.811 22.3453 143.258 22.3514H143.252Z" fill="white"/>
<path id="Vector_263" d="M140.634 3.02623C140.645 3.28553 140.424 3.41365 139.972 3.40755C139.967 3.28858 139.982 3.16961 140.024 3.05064L140.014 3.05674C140.219 3.03233 140.424 3.02318 140.634 3.02623Z" fill="white"/>
<path id="Vector_264" d="M137.332 22.7297C137.237 22.8178 137.143 22.909 137.048 22.9971C136.948 22.912 136.848 22.8239 136.748 22.7388C136.943 22.7327 137.137 22.7297 137.332 22.7297Z" fill="white"/>
<path id="Vector_265" d="M135.986 15.5366C136.023 15.6586 136.038 15.7776 136.017 15.8996C135.649 15.8691 135.439 15.7532 135.413 15.5366C135.602 15.5305 135.791 15.5305 135.986 15.5366Z" fill="white"/>
<path id="Vector_266" d="M22.3098 48.8727C22.6726 48.9124 22.8882 49.0344 22.9565 49.2449C22.6148 49.1961 22.3939 49.074 22.3098 48.8727Z" fill="white"/>
<path id="Vector_267" d="M22.9502 20.4541C22.9344 20.6981 22.7346 20.8415 22.293 20.8506C22.356 20.6341 22.5611 20.4937 22.9502 20.4541Z" fill="white"/>
<path id="Vector_268" d="M51.2708 109.846C51.376 109.751 51.4759 109.66 51.581 109.566C51.6809 109.66 51.7808 109.758 51.8755 109.852C51.6757 109.852 51.4706 109.852 51.2708 109.846Z" fill="white"/>
<path id="Vector_269" d="M26.8526 72.3618C26.7948 72.4564 26.7633 72.6211 26.6739 72.6333C26.3006 72.6821 26.3006 72.5082 26.2953 72.3588C26.4846 72.3496 26.6686 72.3527 26.8579 72.3588L26.8526 72.3618Z" fill="white"/>
<path id="Vector_270" d="M32.1206 109.106C32.0628 109.197 32.0365 109.349 31.9418 109.364C31.6001 109.422 31.5738 109.255 31.5265 109.115C31.7263 109.1 31.9208 109.096 32.1206 109.103V109.106Z" fill="white"/>
<path id="Vector_271" d="M0.594238 144.733C0.483821 144.83 0.373402 144.931 0.262985 145.032C0.1736 144.925 0.0894723 144.821 8.71138e-05 144.714C0.199889 144.708 0.399694 144.714 0.594238 144.733Z" fill="white"/>
<path id="Vector_272" d="M32.872 110.222C32.9351 110.124 32.9719 109.957 33.0666 109.944C33.4504 109.896 33.4452 110.079 33.4609 110.231C33.2664 110.231 33.0666 110.231 32.872 110.225V110.222Z" fill="white"/>
<path id="Vector_273" d="M77.5278 64.0156C77.449 64.2199 77.2334 64.342 76.8759 64.3816C76.9547 64.1803 77.1808 64.0613 77.5278 64.0156Z" fill="white"/>
<path id="Vector_274" d="M36.1172 20.8322C36.1067 21.0854 35.8964 21.2227 35.4442 21.2288C35.502 21.003 35.7176 20.8657 36.1172 20.8322Z" fill="white"/>
<path id="Vector_275" d="M97.2613 62.1182C97.3244 61.9108 97.5399 61.7887 97.8975 61.746V61.743C97.8975 61.8681 97.8922 61.9931 97.8659 62.1151C97.6661 62.1151 97.4611 62.1151 97.2613 62.1151V62.1182Z" fill="white"/>
<path id="Vector_276" d="M84.1479 51.124L84.1006 50.9441V50.761C84.5002 50.7763 84.721 50.8952 84.7368 51.1332C84.5423 51.1332 84.3425 51.1332 84.1479 51.124Z" fill="white"/>
<path id="Vector_277" d="M38.6982 15.9148C38.5773 16.0398 38.4564 16.168 38.3354 16.293C38.2355 16.1619 38.1409 16.0307 38.041 15.8995C38.2618 15.9087 38.4774 15.9148 38.6982 15.9148Z" fill="white"/>
<path id="Vector_278" d="M101.199 140.154L101.189 139.971L101.236 139.791C101.436 139.782 101.641 139.779 101.841 139.782C101.862 140.041 101.625 140.154 101.199 140.154Z" fill="white"/>
<path id="Vector_279" d="M102.473 115.164C102.473 115.322 102.473 115.502 102.084 115.451C101.989 115.438 101.957 115.265 101.9 115.167C102.089 115.158 102.283 115.158 102.473 115.164Z" fill="white"/>
<path id="Vector_280" d="M20.9785 114.023C20.9785 114.273 20.7787 114.407 20.3318 114.407C20.3791 114.182 20.5894 114.05 20.9785 114.023Z" fill="white"/>
<path id="Vector_281" d="M109.717 7.16597C109.507 7.18732 109.297 7.19647 109.086 7.19037C109.139 6.97073 109.349 6.84261 109.733 6.81821C109.733 6.93413 109.728 7.05005 109.717 7.16597Z" fill="white"/>
<path id="Vector_282" d="M110.406 104.191C110.659 104.191 110.937 104.203 110.858 104.405C110.837 104.457 110.569 104.478 110.417 104.515L110.401 104.353V104.191H110.406Z" fill="white"/>
<path id="Vector_283" d="M42.0784 18.1692C42.0311 18.0503 42.0153 17.9282 42.031 17.8062C42.4306 17.8215 42.641 17.9435 42.6567 18.1753C42.4622 18.1784 42.2729 18.1753 42.0784 18.1692Z" fill="white"/>
<path id="Vector_284" d="M116.332 12.8734C116.274 12.9771 116.253 13.1509 116.153 13.1693C115.759 13.2364 115.691 13.0686 115.696 12.8886C115.906 12.8886 116.122 12.8825 116.332 12.8764V12.8734Z" fill="white"/>
<path id="Vector_285" d="M119.56 107.968C119.465 108.053 119.371 108.141 119.271 108.226C119.176 108.141 119.076 108.056 118.982 107.968C119.176 107.962 119.366 107.962 119.56 107.968Z" fill="white"/>
<path id="Vector_286" d="M51.2803 168.933C51.2383 168.679 51.4749 168.588 51.8745 168.585C51.9008 168.826 51.6642 168.924 51.2803 168.933Z" fill="white"/>
<path id="Vector_287" d="M102.508 144.699C102.093 144.715 101.693 144.675 101.43 144.474C101.336 144.4 101.299 144.242 101.367 144.162C101.593 143.903 101.83 144.117 102.046 144.19C102.219 144.245 102.372 144.324 102.529 144.394V144.55L102.503 144.702L102.508 144.699Z" fill="white"/>
<path id="Vector_288" d="M105.138 144.711C104.728 144.687 104.318 144.659 104.512 144.318C104.544 144.266 104.66 144.184 104.707 144.19C105.196 144.26 105.248 144.461 105.143 144.705L105.138 144.711Z" fill="white"/>
<path id="Vector_289" d="M99.8908 143.964C100.169 143.982 100.29 144.049 100.222 144.158C100.222 144.162 100.048 144.155 100.012 144.128C99.9539 144.083 99.9381 144.016 99.9065 143.958L99.8908 143.964Z" fill="white"/>
<path id="Vector_290" d="M101.174 143.168C101.337 143.241 101.505 143.311 101.668 143.384C101.147 143.61 101.195 143.345 101.137 143.177L101.174 143.168Z" fill="white"/>
<path id="Vector_291" d="M102.509 144.699L102.541 144.547V144.391C102.856 144.37 103.087 144.422 102.977 144.632C102.956 144.678 102.672 144.678 102.509 144.699Z" fill="white"/>
<path id="Vector_292" d="M129.498 9.04807C129.093 9.09993 128.478 9.09992 128.462 8.89859C128.446 8.6698 129.03 8.65455 129.44 8.70031C129.435 8.81623 129.451 8.93215 129.493 9.04807H129.498Z" fill="white"/>
<path id="Vector_293" d="M129.498 9.04811C129.456 8.93219 129.44 8.81932 129.445 8.70035C129.961 8.66069 130.155 8.80407 130.103 9.08472C129.897 9.09997 129.698 9.08777 129.498 9.05116V9.04811Z" fill="white"/>
<path id="Vector_294" d="M285.286 11.3481C285.276 11.1254 284.897 10.799 285.465 10.7166C286.023 10.6373 286.522 10.9088 286.385 11.2352C286.249 11.5494 285.66 11.3237 285.271 11.342L285.286 11.3481Z" fill="white"/>
<path id="Vector_295" d="M97.2564 132.201C97.3248 131.826 97.6455 131.673 98.2765 131.847C98.5288 131.917 98.5446 132.021 98.3974 132.119C98.0556 132.354 97.635 132.186 97.2512 132.195V132.198L97.2564 132.201Z" fill="white"/>
<path id="Vector_296" d="M303.689 65.1444C303.773 65.0468 303.852 64.9461 303.936 64.8485C304.025 64.9034 304.109 64.9553 304.199 65.0102C304.025 65.0529 303.852 65.0956 303.678 65.1353L303.694 65.1444H303.689Z" fill="white"/>
<path id="Vector_297" d="M301.717 29.9564C302.269 30.0143 303.037 29.8496 303.126 30.3926C303.163 30.6061 302.889 30.719 302.579 30.7312C302.111 30.7495 301.475 30.9112 301.275 30.5482C301.186 30.3926 301.575 30.1485 301.743 29.9472L301.717 29.9564Z" fill="white"/>
<path id="Vector_298" d="M158.311 23.1416C158.29 23.3582 158.269 23.5718 158.243 23.7883C157.759 23.8127 157.06 24.011 156.986 23.5596C156.891 22.983 157.691 23.102 158.311 23.1416Z" fill="white"/>
<path id="Vector_299" d="M199.187 129.541C199.287 129.724 199.24 129.877 198.908 129.953C198.85 129.965 198.666 129.898 198.656 129.861C198.609 129.654 198.829 129.565 199.15 129.532L199.187 129.541Z" fill="white"/>
<path id="Vector_300" d="M212.185 103.09C212.169 103.178 212.169 103.267 212.179 103.355C211.37 103.383 210.555 103.59 209.503 103.343C210.428 102.779 211.338 103.05 212.185 103.09Z" fill="white"/>
<path id="Vector_301" d="M150.508 164.378C150.708 164.39 150.908 164.409 151.108 164.427C151.192 164.628 151.418 164.75 151.765 164.796C151.465 165.385 150.971 165.239 150.424 164.918C150.451 164.738 150.477 164.558 150.503 164.378H150.508Z" fill="white"/>
<path id="Vector_302" d="M153.112 165.925C153.033 166.129 152.807 166.251 152.46 166.303C152.544 166.102 152.77 165.98 153.112 165.925Z" fill="white"/>
<path id="Vector_303" d="M296.422 7.57465C296.422 8.08714 296.091 8.40744 295.092 8.34643C294.913 7.53499 294.971 7.50143 296.422 7.57465Z" fill="white"/>
<path id="Vector_304" d="M293.12 7.95599C293.115 7.69974 292.668 7.36113 293.462 7.25436C293.83 7.20556 294.056 7.40079 294.103 7.55942C294.25 8.0353 293.567 7.91633 293.125 7.96209L293.115 7.95599H293.12Z" fill="white"/>
<path id="Vector_305" d="M241.618 13.5832C241.476 13.5346 241.34 13.489 241.208 13.4434C241.277 13.4039 241.366 13.3249 241.419 13.334C241.566 13.3553 241.697 13.41 241.834 13.4525C241.766 13.4951 241.697 13.5346 241.624 13.5832H241.618Z" fill="white"/>
<path id="Vector_306" d="M217.542 109.096C217.631 108.993 217.721 108.892 217.805 108.791C217.905 108.849 218.004 108.907 218.099 108.965C217.91 109.008 217.726 109.054 217.537 109.096H217.542Z" fill="white"/>
<path id="Vector_307" d="M286.916 7.91333C286.805 7.84012 286.542 7.7425 286.569 7.67844C286.632 7.52286 286.821 7.38254 286.958 7.23611C287.084 7.38559 287.263 7.52897 287.315 7.68454C287.336 7.7425 287.058 7.83402 286.921 7.91028L286.916 7.91333Z" fill="white"/>
<path id="Vector_308" d="M320.662 19.2643C320.472 19.2521 320.288 19.2643 320.109 19.301C319.857 19.0844 319.147 18.9898 319.473 18.6298C319.563 18.5322 320.057 18.4743 320.288 18.5231C320.924 18.6573 320.709 18.9868 320.667 19.2643H320.662Z" fill="white"/>
<path id="Vector_309" d="M381.249 80.2957C381.343 80.241 381.433 80.1833 381.527 80.1286C381.512 80.162 381.517 80.2106 381.475 80.2289C381.412 80.2593 381.317 80.2714 381.238 80.2896L381.249 80.2957Z" fill="white"/>
<path id="Vector_310" d="M197.805 57.939C197.395 57.9451 196.927 58.0549 196.685 57.7621C196.648 57.7193 196.869 57.5485 197.011 57.5302C197.579 57.457 197.731 57.6797 197.794 57.9481L197.81 57.939H197.805Z" fill="white"/>
<path id="Vector_311" d="M195.207 58.3264L195.196 58.1464L195.207 57.9664C195.569 58.003 195.774 58.1251 195.843 58.3325C195.632 58.3417 195.422 58.3417 195.212 58.3325L195.207 58.3264Z" fill="white"/>
<path id="Vector_312" d="M193.241 44.7087C193.451 44.6934 193.656 44.6904 193.866 44.7056C193.861 44.8642 193.814 45.029 193.451 44.9741C193.351 44.9588 193.309 44.8002 193.241 44.7087Z" fill="white"/>
<path id="Vector_313" d="M291.159 47.3352C291.491 47.3047 291.754 47.3535 291.838 47.5579C291.853 47.5945 291.711 47.6982 291.659 47.6952C291.307 47.6738 291.186 47.5244 291.154 47.3413V47.3322L291.159 47.3352Z" fill="white"/>
<path id="Vector_314" d="M383.862 70.4676C383.968 70.5253 384.078 70.5861 384.183 70.6439C384.115 70.6347 384.02 70.6378 383.983 70.6135C383.925 70.574 383.904 70.5132 383.868 70.4615L383.857 70.4676H383.862Z" fill="white"/>
<path id="Vector_315" d="M284.692 8.3159C284.886 8.27624 285.075 8.27929 285.27 8.322C285.165 8.78568 284.629 8.65755 284.145 8.59654L284.129 8.45622L284.145 8.3159C284.329 8.30674 284.513 8.30674 284.697 8.3159H284.692Z" fill="white"/>
<path id="Vector_316" d="M86.0723 50.3797C85.7832 50.3675 85.5518 50.3035 85.5308 50.1143C85.5308 50.0808 85.6885 50.0076 85.7411 50.0167C86.0513 50.0686 86.1197 50.2089 86.0723 50.3797Z" fill="white"/>
<path id="Vector_317" d="M81.5196 79.5763C81.9455 79.5672 82.3661 79.555 82.792 79.5458C82.792 79.7685 82.792 79.9973 82.2452 79.9912C81.793 79.9851 81.5774 79.8204 81.5196 79.5794V79.5763Z" fill="white"/>
<path id="Vector_318" d="M230.65 7.96196C230.577 8.21516 230.409 8.41955 229.878 8.34023C229.746 8.31888 229.541 8.15415 229.578 8.12059C229.841 7.8613 230.288 7.97417 230.677 7.97112L230.656 7.96196H230.65Z" fill="white"/>
<path id="Vector_319" d="M228.079 78.8046C228.52 78.9236 228.962 79.0425 229.404 79.1585C229.262 79.4208 228.957 79.616 228.473 79.552C227.669 79.4483 228.058 79.0822 228.074 78.8015L228.079 78.8046Z" fill="white"/>
<path id="Vector_320" d="M30.9691 61.2366C31.0427 61.1573 31.1163 61.078 31.1951 60.9956C31.2635 61.0353 31.4055 61.0841 31.395 61.1177C31.3634 61.2031 31.2688 61.2824 31.2004 61.3648C31.1321 61.3251 31.0585 61.2854 30.9743 61.2366H30.9691Z" fill="white"/>
<path id="Vector_321" d="M107.473 65.0855C107.41 65.0642 107.341 65.043 107.278 65.0247C107.347 64.97 107.42 64.9153 107.494 64.8606C107.557 64.9001 107.62 64.9396 107.683 64.9791C107.615 65.0156 107.546 65.0521 107.473 65.0886V65.0855Z" fill="white"/>
<path id="Vector_322" d="M53.2891 118.044C53.3627 117.967 53.4416 117.891 53.5152 117.812C53.5836 117.851 53.715 117.903 53.7045 117.934C53.6677 118.019 53.573 118.095 53.5047 118.175C53.4363 118.132 53.368 118.092 53.2891 118.044Z" fill="white"/>
<path id="Vector_323" d="M109.822 57.4173C109.896 57.3441 109.975 57.2708 110.054 57.1976C110.117 57.2373 110.248 57.2861 110.238 57.3166C110.201 57.399 110.106 57.4691 110.033 57.5454C109.97 57.5057 109.901 57.4661 109.822 57.4173Z" fill="white"/>
<path id="Vector_324" d="M130.113 17.9826C129.976 18.0191 129.839 18.0677 129.697 18.0859C129.645 18.092 129.571 18.013 129.503 17.9735C129.64 17.937 129.776 17.8884 129.918 17.8702C129.971 17.8641 130.044 17.9431 130.113 17.9826Z" fill="white"/>
<path id="Vector_325" d="M48.431 13.1572C48.0945 13.1633 47.758 13.1694 47.4215 13.1755C47.3847 12.8491 47.0061 12.361 48.0577 12.425C48.7833 12.4677 48.4731 12.8796 48.431 13.1602V13.1572Z" fill="white"/>
<path id="Vector_326" d="M47.7787 116.43C47.7787 116.469 47.7997 116.518 47.7629 116.542C47.6367 116.639 47.4895 116.615 47.3896 116.472C47.3791 116.454 47.5053 116.387 47.5894 116.369C47.6367 116.36 47.7156 116.405 47.7787 116.427V116.43Z" fill="white"/>
<path id="Vector_327" d="M7.96514 115.018C8.044 114.938 8.11762 114.859 8.19649 114.78C8.26484 114.819 8.40154 114.868 8.39103 114.899C8.35948 114.984 8.26484 115.06 8.19649 115.14C8.12287 115.1 8.05453 115.06 7.9704 115.015L7.96514 115.018Z" fill="white"/>
<path id="Vector_328" d="M123.194 174.944C123.131 174.902 123.015 174.856 123.02 174.817C123.025 174.777 123.152 174.741 123.225 174.704C123.288 174.747 123.404 174.792 123.399 174.832C123.399 174.871 123.267 174.908 123.194 174.944Z" fill="white"/>
<path id="Vector_329" d="M231.728 69.6397C231.649 69.6185 231.571 69.5972 231.497 69.5729C231.576 69.5121 231.66 69.4483 231.739 69.3875C231.818 69.43 231.891 69.4726 231.97 69.5151C231.891 69.5546 231.807 69.5972 231.728 69.6367V69.6397Z" fill="white"/>
<path id="Vector_330" d="M224.184 88.8557C224.221 88.8162 224.263 88.7737 224.305 88.7342C224.41 88.7797 224.52 88.8223 224.625 88.8679C224.547 88.9074 224.468 88.9803 224.394 88.9773C224.321 88.9773 224.252 88.8983 224.184 88.8557Z" fill="white"/>
<path id="Vector_331" d="M128.878 154.009C128.915 153.963 128.957 153.921 128.994 153.875C129.099 153.924 129.204 153.969 129.314 154.018C129.241 154.061 129.162 154.106 129.088 154.149L128.878 154.009Z" fill="white"/>
<path id="Vector_332" d="M275.411 17.7879C275.427 17.553 275.448 17.3211 275.463 17.0862C275.952 17.071 276.625 16.9124 276.694 17.3608C276.783 17.9312 276.052 17.855 275.411 17.7879Z" fill="white"/>
<path id="Vector_333" d="M101.131 86.4004C101.115 86.6231 101.099 86.8427 101.084 87.0654C100.61 87.0685 99.9373 87.2271 99.8637 86.7909C99.769 86.196 100.552 86.3668 101.131 86.4004Z" fill="white"/>
<path id="Vector_334" d="M99.6383 173.068C99.5068 173.026 99.3754 172.983 99.2387 172.941C99.307 172.901 99.3964 172.825 99.449 172.834C99.5962 172.853 99.7277 172.907 99.8696 172.947C99.8013 172.986 99.7277 173.023 99.6435 173.068H99.6383Z" fill="white"/>
<path id="Vector_335" d="M80.1156 102.291C80.0419 102.379 79.9683 102.467 79.8895 102.558C79.8053 102.509 79.7265 102.461 79.6424 102.409C79.8054 102.373 79.9684 102.336 80.1313 102.3L80.1156 102.291Z" fill="white"/>
<path id="Vector_336" d="M317.454 44.6925C317.228 44.6955 317.007 44.6986 316.781 44.7016C316.986 44.343 317.212 44.3308 317.454 44.6925Z" fill="white"/>
<path id="Vector_337" d="M316.166 45.0627L316.15 44.8828V44.7028C316.376 44.6997 316.597 44.6936 316.818 44.6875C316.76 44.9072 316.539 45.0261 316.166 45.0597V45.0627Z" fill="white"/>
<path id="Vector_338" d="M172.839 173.496C172.839 173.624 172.839 173.749 172.839 173.877C172.402 173.874 171.971 173.871 171.535 173.868L171.519 173.118C171.956 173.246 172.397 173.371 172.839 173.499V173.496Z" fill="white"/>
<path id="Vector_339" d="M17.7397 56.8073C17.8134 56.7097 17.887 56.6121 17.9659 56.5144L18.2393 56.6731C18.071 56.7158 17.8975 56.7585 17.724 56.7981L17.7397 56.8073Z" fill="white"/>
<path id="Vector_340" d="M106.437 128.781C106.326 128.72 106.221 128.659 106.111 128.599C106.179 128.608 106.279 128.605 106.316 128.632C106.373 128.675 106.389 128.735 106.426 128.79L106.437 128.784V128.781Z" fill="white"/>
<path id="Vector_341" d="M170.242 10.2408C170.441 10.2195 170.646 10.2164 170.846 10.2378C170.746 10.3384 170.646 10.4361 170.546 10.5367C170.447 10.4391 170.341 10.3415 170.242 10.2439V10.2408Z" fill="white"/>
<path id="Vector_342" d="M103.818 90.1557C103.807 90.4059 103.565 90.5157 103.155 90.537C103.134 90.2717 103.392 90.1649 103.818 90.1557Z" fill="white"/>
<path id="Vector_343" d="M89.327 69.3296C89.2376 69.4302 89.1429 69.5278 89.0536 69.6285C88.6224 69.3601 89.0746 69.3784 89.3428 69.3387L89.327 69.3296Z" fill="white"/>
<path id="Vector_344" d="M201.795 147.753C202.163 147.78 202.384 147.893 202.42 148.113C202.047 148.088 201.837 147.969 201.795 147.753Z" fill="white"/>
<path id="Vector_345" d="M167.586 58.3384C167.776 58.3842 167.96 58.4269 168.149 58.4726C168.049 58.5275 167.944 58.5855 167.844 58.6435C167.76 58.5428 167.676 58.4391 167.586 58.3384Z" fill="white"/>
<path id="Vector_346" d="M53.1787 24.9738C53.0052 24.9343 52.8264 24.8979 52.6529 24.8614C52.7423 24.8067 52.8317 24.755 52.9158 24.7003C52.9947 24.7945 53.0788 24.8918 53.1577 24.986L53.1734 24.9738H53.1787Z" fill="white"/>
<path id="Vector_347" d="M251.588 61.8192C251.535 61.8924 251.53 61.9656 251.577 62.0419C251.104 62.0327 250.378 62.3347 250.378 61.7277C250.783 61.7582 251.188 61.7887 251.593 61.8223L251.588 61.8192Z" fill="white"/>
<path id="Vector_348" d="M108.403 76.5229C108.308 76.6205 108.219 76.7151 108.124 76.8127C107.656 76.529 108.182 76.5778 108.408 76.5259L108.398 76.5198L108.403 76.5229Z" fill="white"/>
<path id="Vector_349" d="M280.144 7.85523C280.091 7.64475 279.891 7.51967 279.523 7.48612C280.322 6.60757 280.638 7.49832 281.164 7.63255C280.943 7.89184 280.485 7.78812 280.144 7.85523Z" fill="white"/>
<path id="Vector_350" d="M47.9571 121.604C48.383 121.604 48.8036 121.61 49.2295 121.613C49.1664 121.835 49.0928 122.061 48.5828 122.061C48.0675 122.061 48.0202 121.823 47.9571 121.607V121.604Z" fill="white"/>
<path id="Vector_351" d="M187.957 27.6502C187.61 27.6075 187.389 27.4885 187.32 27.2841C187.678 27.3238 187.893 27.4428 187.957 27.6502Z" fill="white"/>
<path id="Vector_352" d="M325.994 72.7462C325.783 72.612 325.573 72.4808 325.363 72.3466C325.384 72.069 325.389 71.7883 325.936 71.6571C326.183 71.7609 326.425 71.8676 326.672 71.9713C326.719 72.3099 327.135 72.7523 325.994 72.7462Z" fill="white"/>
<path id="Vector_353" d="M112.998 168.179C112.793 168.191 112.593 168.191 112.388 168.179C112.451 168.081 112.488 167.917 112.588 167.901C112.966 167.846 112.988 168.02 112.998 168.179Z" fill="white"/>
<path id="Vector_354" d="M55.156 9.10001C55.2507 9.48437 55.4978 9.89314 54.6513 10.1189C54.4725 9.72231 53.9625 9.27084 55.156 9.10001Z" fill="white"/>
<path id="Vector_355" d="M284.587 1.13809C284.624 0.906246 284.666 0.674405 284.702 0.439514C285.049 0.448666 285.402 0.457816 285.749 0.466968C285.959 1.03742 285.722 1.34552 284.581 1.13504L284.587 1.13809Z" fill="white"/>
<path id="Vector_356" d="M284.624 53.0093L284.587 52.8354L284.603 52.6616C284.865 52.6677 285.165 52.6738 285.086 52.8873C285.065 52.9453 284.787 52.9697 284.624 53.0093Z" fill="white"/>
<path id="Vector_357" d="M105.111 148.103C104.906 148.112 104.701 148.112 104.49 148.103C104.596 148.018 104.695 147.929 104.795 147.844C104.901 147.929 105.006 148.015 105.106 148.103H105.111Z" fill="white"/>
<path id="Vector_358" d="M154.458 143.555L154.437 143.375L154.453 143.195C154.726 143.211 155.068 143.198 154.979 143.433C154.958 143.491 154.642 143.513 154.463 143.552L154.458 143.555Z" fill="white"/>
<path id="Vector_359" d="M367.936 83.7008C367.946 83.5757 367.994 83.4537 368.072 83.3347C368.509 83.3408 368.94 83.3499 369.376 83.356C369.124 83.7862 368.488 83.6825 367.936 83.7008Z" fill="white"/>
<path id="Vector_360" d="M74.2206 105.698C74.2364 105.814 74.2311 105.93 74.2048 106.043C74.0471 106.003 73.7842 105.979 73.7579 105.921C73.6791 105.716 73.9577 105.701 74.2206 105.698Z" fill="white"/>
<path id="Vector_361" d="M380.539 78.0053C380.681 78.0937 380.86 78.1334 381.07 78.1242C381.039 78.2401 381.102 78.3347 381.26 78.4049C381.181 78.6276 381.028 78.8045 380.56 78.7923C380.555 78.5299 380.545 78.2645 380.534 78.0022L380.539 78.0053Z" fill="white"/>
<path id="Vector_362" d="M380.591 77.6423C380.591 77.7796 380.596 77.9138 380.601 78.0511C380.033 78.103 379.786 77.9687 379.87 77.6362C380.112 77.6362 380.349 77.6393 380.591 77.6423Z" fill="white"/>
<path id="Vector_363" d="M379.23 77.6638C379.224 77.5356 379.214 77.4045 379.203 77.2763C379.435 77.2763 379.666 77.2763 379.903 77.2763C379.913 77.4075 379.924 77.5356 379.934 77.6668C379.697 77.6668 379.461 77.6638 379.23 77.6638Z" fill="white"/>
<path id="Vector_364" d="M384.088 99.6032C384.23 99.6429 384.377 99.649 384.524 99.6277C384.556 99.7985 384.424 99.9968 384.172 99.9724C383.904 99.9449 383.904 99.7466 384.088 99.6032Z" fill="white"/>
<path id="Vector_365" d="M120.218 63.619C120.455 63.6251 120.686 63.6281 120.923 63.6312C120.807 63.7593 120.686 63.8905 120.571 64.0216C120.455 63.8874 120.334 63.7532 120.218 63.619Z" fill="white"/>
<path id="Vector_366" d="M299.703 67.8104C299.718 67.9324 299.718 68.0545 299.703 68.1765C299.135 68.0545 299.129 67.9324 299.703 67.8104Z" fill="white"/>
<path id="Vector_367" d="M178.155 87.8525L178.123 87.6908C178.123 87.6908 178.139 87.5261 178.139 87.5292C178.549 87.5353 178.965 87.5444 179.375 87.5505C179.396 87.6481 179.401 87.7427 179.375 87.8403C178.97 87.8434 178.56 87.8495 178.155 87.8525Z" fill="white"/>
<path id="Vector_368" d="M360.827 42.0335C360.374 42.0518 359.975 42.003 359.733 41.7529C360.201 41.7132 360.821 41.4753 360.827 42.0335Z" fill="white"/>
<path id="Vector_369" d="M284.613 118.578C284.061 118.611 283.456 118.706 283.34 118.221C283.887 118.196 284.608 117.964 284.613 118.578Z" fill="white"/>
<path id="Vector_370" d="M284.691 8.31601C284.507 8.30686 284.323 8.30686 284.139 8.31601C283.866 8.01706 284.229 7.98045 284.602 7.94385C284.686 8.06282 284.712 8.18789 284.691 8.31601Z" fill="white"/>
<path id="Vector_371" d="M267.483 12.486C266.899 12.5409 266.615 12.245 266.189 12.12C266.273 11.8515 266.126 11.5221 266.778 11.4153C267.251 11.7203 267.761 12.0162 267.477 12.486H267.483Z" fill="white"/>
<path id="Vector_372" d="M10.4795 56.8224C9.94318 56.8163 9.42266 56.798 9.18079 56.4502C9.72762 56.4441 10.2587 56.4502 10.4795 56.8224Z" fill="white"/>
<path id="Vector_373" d="M172.188 66.6634V66.4804V66.2974C172.404 66.2882 172.614 66.2882 172.83 66.2943C172.756 66.4987 172.54 66.6238 172.183 66.6665L172.188 66.6634Z" fill="white"/>
<path id="Vector_374" d="M131.47 70.4341L131.438 70.2633L131.449 70.0894C131.87 70.0894 132.101 70.2023 132.085 70.4555C131.88 70.4616 131.675 70.4555 131.47 70.4341Z" fill="white"/>
<path id="Vector_375" d="M379.919 107.956C379.945 107.721 380.171 107.605 380.56 107.583C380.539 107.818 380.308 107.934 379.919 107.956Z" fill="white"/>
<path id="Vector_376" d="M109.675 86.7086C109.302 86.6933 108.929 86.678 108.555 86.6628C108.54 86.3272 108.529 85.9947 108.513 85.6622C108.908 85.6531 109.302 85.6439 109.696 85.6317C109.965 85.9917 109.959 86.3516 109.675 86.7086Z" fill="white"/>
<path id="Vector_377" d="M55.1558 97.364C55.1664 97.6142 55.1716 97.8674 55.1821 98.1175C54.751 98.1084 54.3251 98.0992 53.8939 98.0901C53.9044 97.8582 53.9202 97.6264 53.9307 97.3946C54.3409 97.3854 54.7457 97.3732 55.1558 97.364Z" fill="white"/>
<path id="Vector_378" d="M194.502 27.2903C194.538 27.4062 194.538 27.519 194.502 27.635C194.139 27.6014 193.776 27.5709 193.413 27.5373V27.3757C193.771 27.3482 194.134 27.3208 194.496 27.2903H194.502Z" fill="white"/>
<path id="Vector_379" d="M247.781 88.6395V88.4504V88.2613C248.002 88.2613 248.217 88.2613 248.438 88.2613C248.438 88.3863 248.438 88.5145 248.438 88.6395C248.217 88.6395 248.002 88.6395 247.781 88.6395Z" fill="white"/>
</g>
</g>
<rect id="glow" width="393" height="180" fill="url(#paint0_linear_768_13721)" fill-opacity="0.3"/>
<path id="Polygon 49" d="M377 5.00004L388.031 5.00004L388 15L377 5.00004Z" fill="url(#paint1_linear_768_13721)"/>
<path id="Polygon 50" d="M16.0312 175L5 175L5.03125 165L16.0312 175Z" fill="url(#paint2_linear_768_13721)"/>
</g>
<defs>
<linearGradient id="paint0_linear_768_13721" x1="200.594" y1="55.6579" x2="200.594" y2="180" gradientUnits="userSpaceOnUse">
<stop stop-color="#AB750F" stop-opacity="0"/>
<stop offset="1" stop-color="#AB750F"/>
</linearGradient>
<linearGradient id="paint1_linear_768_13721" x1="382.516" y1="15.4675" x2="382.516" y2="4.81712" gradientUnits="userSpaceOnUse">
<stop stop-color="#AB750F"/>
<stop offset="0.516" stop-color="#D8A956"/>
<stop offset="1" stop-color="#AB750F"/>
</linearGradient>
<linearGradient id="paint2_linear_768_13721" x1="4.48431" y1="170" x2="16.233" y2="170" gradientUnits="userSpaceOnUse">
<stop stop-color="#AB750F"/>
<stop offset="0.516" stop-color="#D8A956"/>
<stop offset="1" stop-color="#AB750F"/>
</linearGradient>
<clipPath id="clip0_768_13721">
<rect width="393" height="180" fill="white"/>
</clipPath>
</defs>
</svg>
