<svg xmlns="http://www.w3.org/2000/svg" width="393" height="180" fill="none" xmlns:v="https://vecta.io/nano"><g clip-path="url(#B)"><path fill="#212121" d="M0 0h393v180H0z"/><g opacity=".35" fill="#fff"><path d="M307.858 65.096c-.526-.409-1.404-.223-2.066-.412-.957-.275-.952-.418.12-.979l.053-.009c.226.204.568.262.962.262.058.101.179.14.363.116.2.226.557.305.952.348l-.027-.012-.262.699-.095-.009v-.003zm-58.126-3.002l-.663.11-1.272.012-.731-.082c-.179-.259-.231-.519-.026-.781l2.061-.064a1.71 1.71 0 0 0 .636.034c.121.092.279.119.468.085l.237.357-.715.329h.005zm-9.191-32.546c.815-.156 1.356.183 1.987.366v.006l-.015.381-.637.052-.715.058-.61.271-.588-.012a2.77 2.77 0 0 0-.184-.354l-.163-.403c.115-.061.231-.058.336.009.352-.043.494-.192.584-.372l.005-.003zm30.212 90.167c.284.516.115.854-.978.815l-1.599-.086.016.009c-.105-.372.589-.454.789-.716.199.061.368.039.499-.068l1.294.055-.021-.009zm-83.46-26.893c.447-.497.904-.397 1.362-.009.063.201.3.308.62.369-.021.247.016.586-.457.631-.752.076-.763-.332-.889-.625-.068-.204-.31-.308-.631-.366h-.005zm-63.837-2.486h.032c-.936.381-1.825.519-2.54-.174l-.021.012c.594-.177 1.131-.473 1.893-.305l-.095-.049.726.516h.005zm169.99-64.266c-.153-.079-.289-.171-.458-.235-.494-.189-.73-.451-.341-.729.41-.29.894-.14 1.304.064l.478.223-.01-.012c-.063.348-.658.455-.952.699l-.026-.009h.005zm-7.545 32.659l-.037-.403c.521-.049 1.099-.024 1.388-.366.421.015.963.024 1.031.296.105.43-.62.4-1.083.497l-1.299-.027v.003zM242.586 137v-.495l1.252-.134.625.754.016-.013-1.262.327.048.046-.673-.485h-.006zM274.565 6.403l-.2-.009c-.436-.339-.394-.702-.174-1.074l-.073.046a4.69 4.69 0 0 1 1.877.009l-.105-.046c-.011.534-.594.833-1.325 1.071v.003zM163.044 38.288c1.262-.082 2.524-.186 3.754.113v.098c-1.283.101-2.624.583-3.754-.21zM14.817 95.787l-.815.006c-.336-.342-.336-.696-.1-1.056l-.079.04 1.157.021-.074-.04c.237.348.21.693-.089 1.025v.003zm22.635-28.041c.2-.15.368-.314.599-.442.326-.18.768-.329 1.099-.052.3.25-.026.455-.426.589l-1.267-.095h-.005zm220.187 33.776c-.399 1.037-.715 1.165-1.95.784l.652-.403v.003l.636-.387.01-.006.658.009h-.006zM150.43 164.918l-1.74-.198.021.021.61-.683.883.021c.063.113.163.214.305.302l-.079.54v-.003zm219.577-80.83l-2.477-.012c-.084-.204-.015-.354.405-.375.552-.018 1.189.085 1.441-.345l.657.012-.031-.018.005.741v-.003zm-268.128 64.394c-.137.485-.842.329-1.346.399l-.695.095-.095-.116.163-.089c-.063-.079-.074-.161-.021-.247.137-.43.725-.366 1.246-.375.168.174.363.324.752.33l-.005.003zM100.08 17.077h.268l.841.348c-.1.656-.505.894-1.483.363l.374-.711zM163.043 158.6v-.122l1.231-.201c.12.079.268.113.452.104l.326.729-1.352-.018-.652-.492h-.005zm5.921-44.19h.526l.726.36v.006l.568.543.01.049-1.246.186-.021-.012c-.074-.201-.279-.329-.631-.381l.068-.751zm-49.961-51.148c-.394-.122-.694-.293-.447-.555.174-.189.526-.149.826-.067l.83.25.037.378c-.415 0-.831 0-1.246-.003v-.003zm87.214-28.885c-.1-.098-.3-.204-.274-.287.074-.211.384-.278.684-.159.121.049.2.241.131.311-.079.079-.352.092-.541.134zm-18.055 24.346c.031-.207.226-.339.589-.308.347.031.525.186.425.378-.047.088-.241.195-.399.216-.368.049-.558-.088-.615-.287zM385.15 99.594c-.195.073-.405.085-.621.034a.99.99 0 0 1-.436-.024.44.44 0 0 1-.368.04c.352-.223.189-.482.157-.732l1.294-.04-.016.72-.01.003zm-212.295-3.792c.058-.284.095-.616.778-.555.431.04.479.317.505.546l-1.283.009zm207.699-16.628l.006-.381c.468.009.62-.168.699-.388l.615.021.058.741c-.452.476-.915.055-1.378.006zm-5.452-1.495c-.142.07-.284.204-.426.204-.384 0-.547-.168-.399-.36.057-.073.373-.14.525-.116.132.021.2.177.295.275l.005-.003zm-9.164-36.121c-.095-.095-.29-.201-.263-.284.073-.204.373-.272.667-.156.116.046.19.235.121.305-.079.076-.341.091-.525.134zm-10.343 44.824l1.309-.021c-.058.293-.021.674-.783.607-.458-.04-.5-.345-.526-.586zm-206.542-68.68c-.111-.091-.326-.186-.316-.268.037-.217.331-.302.657-.198.132.043.242.235.184.314s-.341.104-.525.152zm184.101 59.827c-.11-.092-.32-.186-.304-.268.047-.211.341-.296.657-.201.126.04.221.232.163.311s-.337.107-.516.159zm-2.487-44.946c.431.018.973.04 1.026.317.089.455-.579.415-1.105.433l.074-.754.005.003zm-2.256 121.506c-.063.082-.095.229-.221.268-.284.092-.573.025-.657-.158-.037-.08.079-.241.205-.278.274-.079.547-.037.673.168zM141.171 33.336c.278-.372.836-.394 1.424-.369-.11.586-.431.909-1.424.369zm-1.867 90.534c.431-.003.973.012 1.051.275.132.424-.499.454-1.035.482l-.016-.76v.003zm168.99-110.682l.032-.11-.026-.11 1.272-.098.01.006.6.461c-.037.067-.037.134 0 .204l-1.267.091-.621-.448v.003zm-5.194 166c-.563.034-1.078.007-1.383-.326l.752-.421 1.13-.009c.058.122.09.247.09.372l-.016.012-.568.372h-.005zM295.775 27.65c-.426-.335-.862-.671-.642-1.129h.6l.683.387-.015-.009-.058.744c-.19-.006-.384 0-.573.009l.005-.003zM124.85 12.874l1.309.012c-.026.241-.063.549-.515.589-.752.07-.726-.311-.794-.601zm165.735 1.528c.416.021.962.024 1.015.302.084.433-.573.418-1.094.442l.074-.747.005.003zM120.26 102.227l-.005.808-1.304-.024.036-.641 1.278-.143h-.005z"/><path d="M286.595 57.957c-.568.003-1.089-.046-1.362-.381 1.078-.607 1.22-.11 1.362.381zm-171.531 2.127v-.47l1.22-.104-.042-.024.027.738.026-.015-1.231-.125zm162.966 66.425c.074-.281.089-.714.741-.601.715.125.384.427-.094.616l-.647-.018v.003zM111.211 76.492c.121-.082.221-.22.363-.241.389-.052.615.095.589.302-.027.214-.337.299-.658.229-.142-.031-.199-.189-.294-.29zm-.773 39.557c.126.082.352.164.352.247 0 .222-.295.311-.626.228-.126-.033-.242-.216-.2-.302.037-.076.311-.115.474-.17v-.003zm159.242-10.738c.09-.192.326-.284.631-.22.126.028.263.18.252.269-.031.198-.315.274-.615.216-.126-.024-.178-.174-.268-.265zM103.913 77.889c-.169-.043-.426-.058-.5-.131-.158-.168-.047-.339.284-.384.147-.021.431.046.5.122.157.168.021.314-.29.397l.006-.003zm156.913 56.194l-1.298.025.278-.735c.184.018.342-.013.479-.086l.641.055-.1.741zM101.173 53.412l.047-.754h1.236v.747l-1.278.009-.005-.003zm157.881 49.62c-.063.333-.089.671-.767.808l-.063-.042-.579-.388.011-.177v-.177l.699-.39.699.366zM100.426 40.938l.1.726c-.42.003-.988.021-1.088-.229-.168-.412.452-.461.988-.5v.003zm-2.717 39.371c-.142.073-.284.207-.426.207-.389 0-.552-.168-.405-.363.058-.076.379-.14.536-.119.131.018.2.177.294.275zm-8.335-59.51c.037-.238.005-.561.484-.595.726-.052.741.326.815.625l-1.299-.027v-.003zm-.904-4.927l-.899.009-.189-.729 1.283.003-.189.717h-.005zM86.067 137.46c.531.04 1.241-.104 1.299.421l.011-.006-.925.342h-.137l-.631-.665c.173.033.3 0 .384-.092zm-.094-65.461l.089.729c-.421 0-.989.018-1.088-.232-.163-.412.463-.458.994-.497h.005zm-3.865 7.175c.079-.284.074-.723.747-.61.72.122.4.433-.063.641l-.683-.028v-.003zm-27.636 90.097l-.678.388a.94.94 0 0 1-.857-.007c-.494-.28.089-.436.316-.585.337-.223.794-.07 1.204-.034-.042.08-.037.162.016.241v-.003zM173.57.47c1.162-.262 1.509-.018 1.189.638l.026-.009-.631.04h-.011l-.615-.436.095-.11-.047-.119-.006-.003zm116.958 175.707l1.283-.018c.027.293-.079.552-.536.726l-.762-.378.021-.165v-.165h-.006zm-1.52-159.939c-.357-.04-.883.137-1.014-.18-.048-.122.257-.29.399-.436v-.049l.726.494c-.126.04-.163.095-.111.171zm-1.082 2.706c.499-.018.92.076 1.235.308l-.615.445a3.46 3.46 0 0 0-.557-.018l-.063-.735zM160.367 9.872c.373-.006.868-.055.889.241.015.25-.395.36-.826.375l-.063-.616zm107.752 128.39l.725-.073c.163.058.342.095.531.104a3.22 3.22 0 0 1 .079.311l-.778.397c-.11-.028-.226-.028-.342-.006l-.215-.733zm-120.229-9.09l-.694.396-.662-.393.01-.006.642-.375.015-.01.663.007c.016.125.021.25.026.375v.006zm97.246 35.987c.5.153.868.382.321.644-.336.159-.725-.034-.952-.247l.631-.4v.003zm-113.014-54.186c-.026-.318-.279-.696.631-.751l.016.006.615.418v.302l-1.278.012.016.016v-.003zm-.747-102.919c.168.189.71.317.357.589-.079.064-.447.076-.589.027-.473-.171-.205-.421-.126-.644.105.061.226.07.358.027zm-1.95 154.076c.557-.043 1.004.052 1.319.329l-.683.424c-.168-.012-.337-.015-.505-.006l-.131-.744v-.003zm-1.941-62.871c.074-.171.079-.461.237-.491.668-.131.836.214 1.073.47l-1.31.021zM12.446 42.046c.231-.241.594-.424.994-.195s.089.436-.331.574l-.662-.378zm109.927-33.44c.505-.4 1.11-.284 1.73-.113l.027.037c-.568.29-1.178.256-1.799.061l.048.015h-.006zm238.502 44.05l.662-.006.62.391c-.241.351-.757.375-1.304.369l.022-.753zm-4.033-21.842l.021.159-.663.461a2.72 2.72 0 0 0-.494-.009l-.126-.741v-.003l1.262.137v-.003zm-24.246 75.211c-.015-.266.106-.501.442-.687l.81.439-.016.165-1.236.079v.004zm-132.447 32.064c-.084-.098-.258-.205-.231-.287.063-.201.352-.272.657-.174.094.031.142.22.073.284-.094.085-.326.122-.499.18v-.003zM86.74 72.731l.636-.412.689.031-.063.754c-.526-.009-1.02-.046-1.262-.372zM11.078 56.829l.168-.738c.126.024.258.024.384-.003l.794.4a.92.92 0 0 0-.005.268l-1.299.092-.042-.018zm75.668 24.99c.026.125.026.25-.005.375-.415 0-.61.128-.615.363l-.279.137a1.75 1.75 0 0 0-.431-.104l.053-.665 1.272-.113.011.009-.005-.003zM193.271 26.14l.599-.006.642.403-.027-.012-.015.174.01.174h.037l-1.294.012.048-.75v.006zM84.049 127.29c.258.238.768.399.694.741-.947.053-1.344-.189-1.194-.726a1.31 1.31 0 0 0 .499-.015zm105.931-10.702c-.179-.051-.447-.076-.51-.158-.058-.076.095-.208.158-.317.179.061.394.1.52.186.19.122.105.235-.168.289zm120.896.821l.731.409-.047.372h-.684l-.646-.366-.021-.012.673-.403h-.006zM309.551 9.094l-.72.729c-.132-.04-.263-.043-.4-.006l-.184-.729 1.309.018-.01-.009.005-.003zM184.039 157.966c.432.186.852.424.211.662a.77.77 0 0 1-.894-.305l.683-.357zM20.9 51.121a3.03 3.03 0 0 0-.547.012l-.61-.531.599-.262.647.043v-.003l-.089.741zm157.229 16.308c.41.134.704.342.331.567-.379.229-.747.055-.999-.165l.668-.403zm-123.01-8.703l.1-.757c.699.284.804.543-.1.757zm.773 79.906c0-.205.089-.412.526-.351.526.07.3.247.068.396l-.594-.045zm322.717-61.719l1.288-.009c.021.125.026.25.005.375h-.699a2.57 2.57 0 0 1-.594-.037v-.165-.165zm-5.263-1.534l-.026.754c-.19 0-.379 0-.568-.006l-.063-.747h.657zm-1.347-35.222l.027.753h-.684l.095-.75.568-.006-.006.003zM62.385 20.045l-1.309.052.01-.409 1.299.049a1.51 1.51 0 0 0 0 .308zm304.488 49.047l1.225-.168c.058.879-.752.262-1.22.238v-.07h-.005zm-2.119 27.891l-.236.686-.079.021-.242-.705h.563l-.006-.003zm-9.112-.507c.484-.186.978-.406 1.262.116l-1.262-.116zm-4.626-73.722c.536-.021 1.051-.021 1.262.345-.516 0-1.015-.021-1.262-.345zm-4.712 31.811l.1.741h-.704l.11-.75.494.009zm-3.875 18.926l.011.754h-.663l.037-.754h.61.005zm-7.871 38.61c.479-.406.926-.494 1.309.043l-1.309-.043zm-2.724-63.597c-.031.275-.289.427-.757.375-.31-.034-.436-.201-.431-.384l1.188.009zm-5.752 131.417c.121-.333.415-.54.957-.263.2.104-.121.272-.379.342a2.72 2.72 0 0 0-.578-.079zm-.841-96.18l.09.729-.689.006.147-.747a4.45 4.45 0 0 0 .452.012zm-7.782-32.223l-.11.726-.442.015-.137-.744h.694l-.005.003zm-2.003-3.402l.042.75a11.83 11.83 0 0 1-.652-.003l.063-.744h.547v-.003zm-3.255 12.492l1.309.003v.357l-1.304.012v-.186-.186h-.005zm.663 58.339l.026.387-1.341-.009c-.021-.125 0-.247.069-.366l1.251-.012h-.005zm-5.258 1.9l1.309-.009c-.426.436-.867.43-1.309.009zm-1.283-75.019l-.179.726a1.45 1.45 0 0 0-.363.015l-.21-.738.752-.003zm-7.929-14.392l1.304.012c-.447.409-.883.421-1.304-.012zm1.288 124.266c-.079.531-.689.421-1.268.348.058-.225.332-.335.658-.424l.631.083-.016-.01-.005.003zM70.819 20.301l-1.183.153c.116-.577.705-.29 1.178-.217v.064h.005zm221.066 67.966l-1.347-.037c.484-.403.931-.394 1.347.037z"/><path d="M290.932 175.07c.09.281.537.635-.425.705v-.003l.257-.72.168.018zm-7.608-156.074l1.278-.073.016.009.026.387-.042.027-1.294-.091a.84.84 0 0 0 .021-.259h-.005zM72.954 139.773l-.037-.751h.689l-.079.751h-.573zM279.319 1.104l1.283.085a.49.49 0 0 0 .021.262l-1.299.076-.011-.427.006.003zm-.632 173.17l1.267.031a2 2 0 0 0 .026.298l-1.314.08.021-.412v.003zm-1.32-125.41l-.011.757c-.205 0-.41 0-.615-.003l-.031-.75h.657v-.003zm-11.168-18.166h1.289c-.432.445-.857.445-1.289 0zm-1.241 2.995l-.142-.348c-.089-.208.132-.323.374-.436.142.143.331.281.41.433.052.104-.047.232-.084.348a3.46 3.46 0 0 0-.563 0l.005.003zm-.079-25.368l-.052.75-.689-.363c.131-.204.363-.342.741-.387zm-9.217 68.951v.753h-.62l-.016-.753h.641-.005zm-1.967 62.5l1.299.03a1.8 1.8 0 0 0-.011.284l-1.282.067-.011-.381h.005zM77.533 121.231l-1.309-.033c.468-.424.91-.476 1.309.033zm-.441-4.615l-.184-.692h.573l-.215.71-.168-.018h-.005zm174.085-88.81l.558-.146c.362-.101.667.037.667.183s-.299.281-.662.174l-.557-.146v-.064h-.006zm-.631 49.589l1.178-.119a.55.55 0 0 1-.068.369c-.432.009-.81-.064-1.11-.25zm-.804-39.135l-.021.747c-.179 0-.363-.003-.542-.003l-.031-.738.589-.003.005-.003zm-1.304 113.651c.215-.375.757-.366 1.293-.366l-.01-.006.016.326-1.299.046zm.631 13.257l.016.751h-.647l.042-.754h.584l.005.003zm-2.592-74.244l1.304-.012c-.421.482-.857.479-1.304.012zm-1.857.339c.137-.406.642-.418 1.199-.369-.11.439-.683.375-1.199.369zm-1.439-58.686c.431-.476.872-.464 1.314-.006l-1.314.006zM243.822 0c-.206.378-.731.375-1.273.348.258-.317.747-.351 1.273-.348zm-12.425 98.557c.374-.009 1.026-.204 1.047.052.042.482-.668.146-1.047.186v-.119-.119zm-2.656-48.528l1.289-.024c-.4.525-.836.445-1.289.024zm-4.679 31.048l.053.747h-.663l.047-.75.563.003zm-7.834-78.051l-.021.753c-.2 0-.395 0-.589-.003l-.063-.75h.673zm-1.314 36.747l1.309.003v.36l-1.315.021v-.384h.006zm-2.209 56.133l.216.686a34.21 34.21 0 0 1-.563-.006l.2-.708.147.028zM209.66 3.011c.41-.482.847-.415 1.294-.021l-1.294.021zm-.02 119.349l.016.753h-.663l.016-.756h.631v.003zm-2.624.741l1.22.034c-.436.406-.852.482-1.22-.034zM204.419 1.55l1.298-.055-.01.387-1.283-.058.01-.137-.01-.14-.005.003zm-1.341 122.335c.363-.546.815-.417 1.304-.061l-1.304.061zm-.032-26.524c.047.229.089.57-.353.558-.362-.009-.336-.372-.289-.604.211.027.426.043.642.049v-.003zm-2.598 2.642c.4-.458.842-.406 1.299-.031l-1.299.031zm1.32 19.7l-.016.753c-.194 0-.389 0-.583-.006l-.084-.75h.683v.003zm-3.186-95.295l1.194-.152-.011-.009.027.186v.189c-.479.076-.852-.07-1.241-.183l.031-.03zm-8.018 2.461l-1.314.027c.415-.415.851-.433 1.314-.027zm-.09 92.859c-.426.439-.831.457-1.199-.025l1.199.025zm-1.209-103.822h-.641l.052-.75.658.378-.074.369.005.003zm-3.828 59.266c.473-.082 1.073-.412 1.183.204l.016-.009-1.225-.168.026-.028zm.484-52.808l.052.738a4.44 4.44 0 0 1-.636 0l.095-.744h.489v.006zm-1.162 70.485l1.225-.033.016.4c-.6.091-1.115.085-1.241-.363v-.003zm1.219 42.009l-.01.751h-.605l-.047-.757.657.003.005.003zm-.731-82.184l.095.738h-.668l.116-.741c.153.009.305.009.463.003h-.006zM184.05 3.02l-.106.744c-.157-.006-.315-.006-.473 0l-.126-.741.011-.006.667-.012.027.012v.003zm-.027 3.048l-1.293-.021c.189-.4.709-.412 1.283-.36l.01.381zm-.652 150.73l-.063.774a15.08 15.08 0 0 0-.521 0l-.058-.741.642-.033zm-3.949-117.043c.447-.4.884-.421 1.304.012l-1.304-.012zm1.309 48.128l-1.357-.046c.021-.098.021-.192 0-.29l1.357-.046v.381zm-2.634-54.553l1.298.027v.311l-1.298.049v-.387zm.005 87.136l1.304.006v.335l-1.294.015v-.176-.177l-.01-.003zm-.657 42.802l-.015.756h-.626l-.011-.753h.652v-.003zm-3.97-118.187l-.1.723-.473.021-.137-.753.71.009zm-84.111 4.927l-1.246-.079c.479-.296.92-.409 1.246.079zm69.078 23.937l1.257-.082v.003l.005.381v.003l-1.283-.095.027-.104v-.107h-.006zm-.73-30.383l.01.753h-.636l.021-.75h.61l-.005-.003zm-3.886 114.443c.589.132.689.4.621.72l-.726.01.121-.757-.016.027zM91.325 67.807l.095-.738a3.19 3.19 0 0 0 .452-.003l.142.744-.021.009c-.221 0-.447-.006-.668-.009v-.003zm60.487-39.791c.453-.406.889-.43 1.31.015l-1.31-.015zm-59.788-3.029l-.058-.75c.831.229.762.482.058.75zm.247-3.471c-.058-.174-.2-.357-.147-.519.063-.18.384-.177.431.006.042.162-.121.342-.189.512h-.089-.005zm54.341 14.911l1.262-.076.011.009-.027.381c-.51.018-.972-.024-1.24-.314h-.006zm.563-2.331l-.016.741h-.541l-.037-.744h.594v.003zm.048 78.405l-.09.708c-.557-.135-.662-.403-.631-.711l.721.003zm-5.353-80.666c.058.229.126.595-.263.592-.399-.003-.31-.363-.242-.592h.51-.005zm-4.475 18.972l1.278-.073c-.347.494-.789.433-1.278.073zm-1.372 63.207l1.293.033c-.463.388-.894.412-1.293-.033zm-3.917-54.217c.494-.326.968-.497 1.299.079l-1.299-.079zm-2.214 29.279c.2.29.599.622-.405.674l.021.015.226-.702.153.012h.005zm-6.383 60.94l.026.751c-.767-.241-.751-.492-.026-.751zm-2.166-62.456l.174.345c.131.229-.058.317-.416.281-.268-.027-.294-.146-.168-.287.095-.104.131-.226.194-.342h.211l.005.003zm-1.099-24.295l.026.384-.683.098-.589-.485 1.246.003zm-14.48 80.266c-.415.036-1.078.067-1.078-.153s.663-.186 1.078-.149a3.04 3.04 0 0 1 0 .302zm-2.614-1.474c-.058.19.195.488-.426.476-.079 0-.137-.308-.205-.476h.631zm-3.944-33.738l1.294.058c-.484.372-.931.475-1.294-.058zm.032 22.403l1.283-.019c.016.119.016.238 0 .36h-1.293v-.17-.171h.011zM96.02 76.257l1.215-.113c-.095.58-.72.293-1.204.244l-.01-.128v-.003zM1.929 111.75l-1.304-.024v-.314l1.293-.037a1.49 1.49 0 0 1 0 .375h.011zm1.315-42.051l-1.272-.052c0-.091 0-.183-.016-.275l1.293-.061v.387h-.005zm16.432-3.789l-1.273-.049c0-.088 0-.18-.016-.269l1.288-.067.011.006-.016.381.005-.003zm5.873-6.824c-.647-.265-.741-.519.058-.751l-.058.751zm2.681 9.49l-1.257-.094v-.11l-.026-.107 1.283-.101v.412zm1.22 13.523l-1.22.095.011-.329 1.241.085-.032.149zm.715-32.107c-.694-.259-.72-.51.032-.751l-.032.751zm.662 37.897c-.053.555-.699.406-1.262.354l.016.012a.81.81 0 0 1 .074-.348l1.172-.018zm3.26-69.775l-1.278.088.011-.409 1.278.085c-.026.076-.032.152-.016.232l.005.003zm3.365-13.578l-.016-.747.61.003-.016.738-.578.006zm6.52 93.929l-1.194-.101-.037-.131 1.262-.137.011.009a1.72 1.72 0 0 1-.058.369l.016-.012v.003zm.605-75.836l-1.225.088v-.177-.177l1.272.067c-.053.061-.068.128-.047.195v.003zm4.632 1.943l-1.272.064c.352-.491.794-.421 1.272-.064zm.673 39.453c-.058.546-.662.458-1.272.363.184-.4.741-.369 1.272-.363zM393 75.016c-.063.091-.1.252-.189.264-.368.049-.389-.115-.384-.27l.573.006zm-7.819 34.077c-.005.257-.231.388-.678.391.053-.229.279-.36.678-.391zm-4.605-17.803c-.016-.165 0-.335.389-.287.095.012.137.18.2.278l-.589.009zm-4.617 28.026c-.447.012-.668-.107-.647-.366.394.018.61.14.647.366zm-2.025-72.713c.053.116.069.235.042.354-.41-.006-.636-.119-.62-.366l.578.009v.003zm-11.729 62.862c.016-.149 0-.332.384-.28.094.012.126.183.184.28a5.38 5.38 0 0 1-.568 0zm-3.308-6.055c.037.281-.199.406-.678.388.037-.238.268-.366.678-.388zm-.678-55.303c-.363-.043-.573-.168-.647-.375.353.046.568.174.647.375zm-.005 11.745c.01.174.01.366-.416.314-.1-.012-.136-.201-.199-.308l.615-.006zm-7.919 31.826c-.063.104-.095.284-.189.296-.405.052-.405-.134-.41-.299h.599v.003zm-5.232-84.103c-.079.204-.294.329-.652.375.084-.201.3-.326.652-.375zm-7.187-2.283c.2-.325.394-.319.589 0h-.589zm-12.525 62.137h.652v.378c-.205 0-.405 0-.61-.006-.031-.122-.036-.244-.021-.366h-.026l.005-.006zM312.9 2.638l.289-.27.29.27h-.573-.006zm-.063 117.068v-.399c.473-.01.678.125.646.39l-.641.012-.005-.003zm-.646-60.605a1.04 1.04 0 0 1-.032.36l-.583.003c.047-.21.257-.329.62-.366l-.005.003zm-4.622-27.656c-.063.107-.095.293-.189.305-.421.055-.41-.14-.416-.305h.605zm-1.957-20.435c.016.116.027.235.021.354-.457.009-.673-.119-.657-.381a4.4 4.4 0 0 1 .636.027zm-3.295 43.921c-.063.204-.268.323-.626.36.079-.195.289-.314.626-.36zm-8.482-41.305c.005-.146.021-.31.379-.261.089.012.126.17.184.258l-.558.003h-.005zm-9.248 7.954c-.415-.006-.647-.122-.657-.369.378.027.599.149.657.369zm-2.619 89.789l.273-.296.305.281-.578.015zm-9.17-64.785c0-.143.027-.298.363-.255.089.012.126.161.189.246l-.552.006v.003zm-.036 32.587h.657v.378c-.21 0-.415 0-.62-.003a1 1 0 0 1-.032-.372l-.005-.003zm-.595 28.774c.063-.091.1-.249.194-.261.363-.046.395.112.379.27-.195 0-.384 0-.579-.009h.006zm-7.287-37.099c.452-.015.678.107.657.372-.221 0-.431-.012-.636-.049a1.7 1.7 0 0 1-.016-.326l-.005.003zm-.673 35.6c-.064.213-.279.341-.652.378.089-.202.299-.33.652-.378zm-4.564-96.608l.284-.293.289.287-.573.003v.003zm.615 84.488c-.01.241-.226.363-.641.372a.92.92 0 0 1 .073-.366l.573-.009-.005.003zm-1.983 21.93c-.152-.034-.426-.052-.441-.101-.079-.201.21-.195.446-.204.016.104.016.204 0 .308l-.005-.003zm.023 36.021c-.421-.009-.658-.131-.674-.379.379.034.61.159.674.379zm-1.984-120.078l-.326.415c-.263-.098-.368-.235-.299-.412h.625v-.003zm-3.922 86.378c.426 0 .678.107.657.373l-.599-.016c-.068-.119-.084-.238-.042-.363l-.016.006zm-2.019-47.356c0 .152-.042.304-.384.252-.095-.012-.126-.164-.189-.249h.568l.005-.003z"/><path d="M247.055 91.684c-.063.091-.1.252-.195.264-.368.046-.368-.125-.373-.273l.563.009h.005zm-1.273-30.313c-.063.104-.1.29-.2.302-.415.055-.426-.134-.426-.305l.626.003zm-2.639 39.397c0 .159 0 .342-.394.29-.095-.012-.127-.189-.184-.29h.578zm-16.342 26.122c.058-.094.09-.262.179-.274.378-.049.368.128.378.274h-.557zm-3.943-116.652l.594-.009c.021.265-.179.406-.657.384a1.05 1.05 0 0 1 .063-.375zm-2.698 34.086a.77.77 0 0 1-.047.36h-.557c.026-.217.226-.339.599-.363l.005.003zm-5.919 22.699c-.263-.006-.584.003-.5-.223.021-.052.321-.07.494-.104.016.11.016.217 0 .326h.006zm-1.962 66.694c-.415-.009-.636-.134-.652-.375.374.034.594.159.652.375zm-2.634 1.144c.016.122 0 .244-.042.363l-.61.012c.011-.247.242-.363.657-.375h-.005zm-6.572-115.923c-.058.21-.279.326-.637.363v.009c-.01-.122 0-.247.027-.369l.61-.003zm-3.965 54.556c-.016.153 0 .336-.389.287-.095-.012-.127-.183-.19-.284l.579-.006v.003zm-6.583 10.609c.032.122.037.241.026.363-.352-.04-.573-.156-.625-.366l.599.003zm-5.878-35.996h.657v.378h-.657v-.189-.189zm-2.693 99.262c-.063.097-.094.265-.189.274-.384.046-.384-.128-.379-.284l.568.006v.004zM168.938 6.048c.016-.143.005-.319.373-.27.095.012.127.173.185.267h-.563l.005.003zm-7.271 171.237c.016.253-.221.36-.642.354.042-.22.263-.336.642-.354zm-1.373-145.834c-.006.18-.074.351-.468.278-.1-.018-.116-.195-.169-.299l.637.018v.003zm-1.272 122.369l-.332.296-.299-.308c.21-.009.42-.006.631.012zm-3.255-122.357c.626.122.558.238-.01.351l.01-.351zm.021 54.517c-.037.247-.279.363-.694.381.078-.22.32-.339.694-.381zm-1.946 12.494c.011-.168.074-.336.452-.265.1.018.116.186.169.287l-.621-.018v-.003zm-10.59-76.123a.78.78 0 0 1-.042.363l-.594.009c-.021-.256.195-.378.642-.372h-.006zm-2.617-19.325c.01.259-.211.387-.663.381a.94.94 0 0 1 .053-.357l-.011.006a4.73 4.73 0 0 1 .621-.031zm-3.303 19.704l-.284.267-.299-.258.583-.009zm-1.346-7.193c.037.122.053.241.032.363-.368-.03-.579-.146-.605-.363h.573zM22.31 48.873c.363.04.578.162.647.372-.342-.049-.563-.171-.647-.372zm.64-28.419c-.016.244-.215.387-.657.397.063-.217.268-.357.657-.397zm28.321 89.392l.31-.28.294.286c-.2 0-.405 0-.605-.006zM26.853 72.362c-.058.094-.089.259-.179.271-.373.049-.373-.125-.379-.275h.563l-.005.003zm5.268 36.744c-.058.091-.084.243-.179.258-.342.058-.368-.11-.415-.249.2-.015.394-.019.594-.012v.003zM.594 144.733l-.331.299-.263-.318a4.68 4.68 0 0 1 .594.019zm32.278-34.511c.063-.098.1-.265.194-.278.384-.048.379.135.394.287-.194 0-.394 0-.589-.006v-.003zm44.656-46.206c-.079.204-.294.326-.652.366.079-.201.305-.32.652-.366zM36.117 20.832c-.011.253-.221.39-.673.396.058-.226.273-.363.673-.396zm61.144 41.286c.063-.207.279-.329.636-.372v-.003a1.78 1.78 0 0 1-.031.372h-.605v.003zM84.148 51.124l-.047-.18v-.183c.4.015.621.134.636.372-.194 0-.394 0-.589-.009zM38.699 15.915l-.363.378-.294-.393.657.015zm62.5 124.239l-.01-.183.047-.18.605-.009c.021.259-.216.372-.642.372zm1.273-24.99c0 .159 0 .339-.389.287-.094-.013-.126-.186-.184-.284l.573-.003zm-81.493-1.141c0 .25-.2.384-.647.384.047-.225.258-.357.647-.384zM109.717 7.166a4.85 4.85 0 0 1-.631.024c.053-.22.263-.348.647-.372l-.016.348zm.689 97.025c.252 0 .531.012.452.214-.021.052-.289.073-.441.11l-.016-.162v-.162h.005zM42.079 18.169a.72.72 0 0 1-.047-.363c.4.015.61.137.626.369-.194.003-.384 0-.578-.006zm74.253-5.296c-.058.104-.079.278-.179.296-.394.067-.462-.101-.457-.281l.636-.012v-.003zm3.228 95.095l-.289.258-.289-.258h.578zm-68.279 60.965c-.042-.253.195-.345.594-.348.026.241-.21.339-.594.348zm51.227-24.234c-.415.016-.815-.024-1.078-.225-.094-.074-.131-.232-.063-.312.226-.259.463-.045.679.028.173.055.326.134.483.204v.156l-.026.152.005-.003zm2.63.012c-.41-.024-.82-.051-.626-.393.032-.052.148-.134.195-.128.489.07.542.271.436.515l-.005.006zm-5.247-.747c.278.018.399.085.331.195 0 .003-.174-.003-.21-.031-.058-.045-.074-.112-.106-.17l-.016.006zm1.283-.796l.494.216c-.52.226-.473-.039-.531-.207l.037-.009z"/><path d="M102.509 144.699l.031-.152v-.156c.316-.021.547.031.437.241-.021.046-.305.046-.468.067zM129.498 9.048c-.405.052-1.02.052-1.036-.149-.016-.229.568-.244.978-.198-.005.116.011.232.053.348h.005z"/><path d="M129.498 9.048a.89.89 0 0 1-.053-.348c.515-.04.71.104.657.384a2.35 2.35 0 0 1-.604-.034v-.003zm155.788 2.3c-.01-.223-.389-.549.179-.632.557-.079 1.057.192.92.519-.136.314-.725.089-1.114.107l.015.006zM97.256 132.201c.068-.375.389-.527 1.02-.354.252.071.268.174.121.272-.342.235-.762.067-1.146.076v.003l.005.003zm206.433-67.057l.247-.296.263.162-.521.125.016.009h-.005zm-1.972-35.188c.552.058 1.319-.107 1.409.436.037.214-.237.326-.547.339-.468.018-1.104.18-1.304-.183-.089-.156.3-.4.468-.601l-.026.009zm-143.406-6.814l-.068.647c-.484.024-1.183.223-1.257-.229-.095-.577.705-.458 1.325-.418zm40.876 106.399c.1.183.052.335-.279.412-.058.012-.242-.055-.252-.092-.047-.207.173-.296.494-.329l.037.009zm12.998-26.451c-.016.088-.016.177-.006.265-.809.028-1.624.235-2.676-.012.925-.564 1.835-.293 2.682-.253zm-61.677 61.288l.6.049c.084.201.31.323.657.369-.3.589-.794.442-1.341.122l.079-.54h.005zm2.604 1.547c-.079.204-.305.326-.652.378.084-.201.31-.323.652-.378zm143.31-158.35c0 .512-.332.833-1.331.772-.178-.811-.121-.845 1.331-.772zm-3.302.381c-.005-.256-.452-.595.342-.702.368-.049.594.146.641.305.147.476-.536.357-.978.403l-.01-.006h.005zm-51.502 5.627l-.41-.14c.068-.04.158-.119.21-.109.148.021.279.076.416.119l-.211.131h-.005zm-24.076 95.513l.263-.305.294.174-.563.131h.006zM286.916 7.913c-.111-.073-.374-.171-.348-.235.064-.156.253-.296.39-.442.126.149.305.293.357.448.021.058-.258.149-.394.226l-.005.003zm33.746 11.351a2.07 2.07 0 0 0-.552.037c-.253-.217-.963-.311-.637-.671.09-.098.584-.156.815-.107.637.134.421.464.379.741h-.005zm60.587 61.032l.278-.167c-.016.033-.01.082-.052.1-.063.03-.158.043-.237.061l.011.006zM197.805 57.939c-.411.006-.878.116-1.12-.177-.037-.043.184-.214.326-.232.568-.073.72.149.783.418l.016-.009h-.005zm-2.599.387l-.01-.18.01-.18c.363.037.568.159.637.366h-.631l-.006-.006zm-1.966-13.617a4.29 4.29 0 0 1 .626-.003c-.005.159-.053.323-.415.268-.1-.015-.142-.174-.211-.265zm97.919 2.626c.332-.031.595.018.679.223.015.037-.127.14-.179.137-.352-.021-.473-.171-.505-.354v-.009l.005.003zm92.703 23.133l.321.176c-.068-.009-.163-.006-.2-.03-.058-.04-.079-.1-.115-.152l-.011.006h.005zm-99.17-62.152c.194-.04.384-.037.578.006-.105.464-.641.336-1.125.275l-.016-.14.016-.14h.552-.005zM86.072 50.38c-.289-.012-.52-.076-.541-.265 0-.034.158-.107.21-.098.31.052.379.192.331.363zM81.52 79.576l1.273-.031c0 .223 0 .451-.547.445-.452-.006-.668-.171-.726-.412v-.003zM230.65 7.962c-.073.253-.242.458-.773.378-.131-.021-.336-.186-.299-.22.262-.259.709-.146 1.099-.149l-.022-.009h-.005zm-2.571 70.843l1.325.354c-.142.262-.447.458-.931.394-.804-.104-.415-.47-.399-.75l.005.003zM30.969 61.237l.226-.241c.068.04.21.088.2.122-.031.085-.126.165-.194.247l-.226-.128h-.005zm76.504 3.848l-.195-.061.216-.164.189.118-.21.109v-.003zm-54.184 52.959l.226-.232c.068.039.2.091.189.122-.037.085-.132.161-.2.241l-.216-.131zm56.533-60.627l.232-.22c.063.04.194.088.184.119-.037.082-.132.153-.205.229l-.211-.128zm20.291-39.434c-.137.037-.274.085-.416.103-.052.006-.126-.073-.194-.112.136-.036.273-.085.415-.103.053-.006.126.073.195.112zm-81.682-4.826l-1.009.018c-.037-.326-.415-.814.636-.75.726.043.415.454.373.735v-.003zm-.652 103.273c0 .039.021.088-.016.112-.126.097-.273.073-.373-.07-.011-.018.116-.085.2-.103.047-.009.126.036.189.058v.003zm-39.814-1.413l.231-.237c.068.039.205.088.195.119-.032.085-.126.161-.195.241l-.226-.126-.005.003zm115.229 59.927c-.063-.042-.179-.088-.174-.127s.132-.076.205-.113c.064.043.179.088.174.128s-.131.076-.205.112zM231.728 69.64l-.231-.067.242-.185.231.128-.242.122v.003zm-7.544 19.216l.121-.122.32.134c-.079.04-.157.112-.231.109s-.142-.079-.21-.121zm-95.306 65.153l.116-.134.32.143-.226.131-.21-.14zM275.411 17.788l.053-.702c.489-.015 1.162-.174 1.23.274.089.57-.642.494-1.283.427zM101.131 86.4l-.047.665c-.474.003-1.147.162-1.22-.275-.095-.595.689-.424 1.267-.39zm-1.493 86.668l-.4-.127c.068-.04.158-.116.21-.107.147.018.279.073.421.113l-.226.121h-.005zm-19.522-70.777l-.226.267-.247-.149.489-.109-.016-.009zm237.338-57.599l-.673.009c.205-.359.431-.371.673-.009z"/><path d="M316.166 45.063l-.016-.18v-.18l.668-.015c-.058.22-.279.339-.652.372v.003zM172.839 173.496v.382l-1.304-.01-.016-.75 1.32.381v-.003zM17.74 56.807l.226-.293.273.159-.515.125.016.009zm88.697 71.974l-.326-.182c.068.009.168.006.205.033.058.043.073.103.11.158l.011-.006v-.003zm63.805-118.54c.2-.021.405-.024.604-.003l-.299.299-.305-.293v-.003zm-66.424 79.915c-.011.25-.253.36-.663.381-.021-.265.237-.372.663-.381zM89.327 69.33l-.274.299c-.431-.268.021-.25.289-.29l-.016-.009zm112.468 78.423c.368.027.588.14.625.36-.373-.025-.583-.143-.625-.36zm-34.209-89.415l.563.134-.305.171-.258-.305zM53.179 24.974l-.526-.112.263-.161.242.286.016-.012h.005zm198.408 36.845c-.052.073-.057.146-.01.223-.473-.009-1.199.293-1.199-.314l1.215.094-.006-.003zM108.403 76.523l-.279.29c-.468-.284.058-.235.284-.287l-.01-.006.005.003zM280.144 7.855c-.053-.21-.253-.336-.621-.369.8-.879 1.115.012 1.641.146-.221.259-.678.156-1.02.223zM47.957 121.604l1.272.009c-.063.222-.137.448-.647.448-.515 0-.563-.238-.626-.454v-.003zM187.956 27.65c-.347-.043-.567-.162-.636-.366.358.04.573.159.636.366zm138.037 45.096l-.631-.4c.021-.278.027-.558.574-.689l.736.314c.047.339.462.781-.679.775zm-212.995 95.433c-.205.012-.405.012-.61 0 .063-.098.1-.262.2-.278.378-.054.399.119.41.278zM55.156 9.1c.095.384.342.793-.505 1.019-.179-.397-.689-.848.505-1.019zm229.431-7.962l.116-.699 1.046.027c.21.57-.026.879-1.167.668l.005.003zm.036 51.871l-.036-.174.015-.174c.263.006.563.012.484.226-.021.058-.3.082-.463.122zm-179.512 95.094h-.62l.305-.259.31.259h.005zm49.347-4.548l-.021-.18.016-.18c.273.016.615.003.526.238-.021.058-.337.08-.516.119l-.005.003zm213.478-59.854c.01-.125.057-.247.136-.366l1.304.021c-.252.43-.888.326-1.44.345zM74.221 105.698a.95.95 0 0 1-.016.345c-.158-.04-.421-.064-.447-.122-.079-.204.2-.22.463-.223zM380.54 78.005a.91.91 0 0 0 .531.119c-.032.116.031.21.189.281-.079.223-.231.4-.699.387l-.027-.79.006.003z"/><path d="M380.591 77.642l.01.409c-.568.052-.815-.082-.731-.415l.721.006z"/><path d="M379.23 77.664l-.027-.387h.7l.031.39c-.236 0-.473-.003-.704-.003zm4.858 21.939a1.05 1.05 0 0 0 .436.024c.032.171-.1.369-.352.345-.268-.027-.268-.226-.084-.369zm-263.87-35.984l.705.012-.353.391-.352-.403zm179.485 4.192c.015.122.015.244 0 .366-.568-.122-.573-.244 0-.366zM178.155 87.853l-.031-.162.015-.162 1.236.021c.021.098.026.192 0 .29l-1.22.012zm182.672-45.819c-.453.018-.852-.03-1.094-.281.468-.04 1.088-.278 1.094.281zm-76.214 76.543c-.552.034-1.157.129-1.273-.356.547-.025 1.267-.257 1.273.356zm.078-110.261c-.184-.009-.368-.009-.552 0-.273-.299.089-.336.463-.372.084.119.11.244.089.372zm-17.208 4.17c-.584.055-.868-.241-1.294-.366.084-.268-.063-.598.589-.705.473.305.983.601.699 1.071h.006zM10.479 56.823c-.536-.006-1.057-.024-1.299-.372.547-.006 1.078 0 1.299.372zm161.709 9.84v-.183-.183l.641-.003c-.073.204-.289.329-.646.372l.005-.003zm-40.718 3.771l-.032-.171.011-.174c.421 0 .652.113.636.366-.205.006-.41 0-.615-.021zm248.449 37.522c.026-.235.252-.351.641-.373-.021.235-.252.351-.641.373zM109.675 86.709l-1.12-.046-.042-1.001 1.183-.031a.8.8 0 0 1-.021 1.077zM55.156 97.364l.026.754-1.288-.028.037-.696 1.225-.03zM194.502 27.29a.55.55 0 0 1 0 .345l-1.089-.098v-.162l1.084-.085h.005zm53.279 61.35v-.189-.189h.657v.378h-.657z"/></g><path fill="url(#A)" fill-opacity=".3" d="M0 0h393v180H0z"/></g><defs><linearGradient id="A" x1="200.594" y1="55.658" x2="200.594" y2="180" gradientUnits="userSpaceOnUse"><stop stop-color="#ab750f" stop-opacity="0"/><stop offset="1" stop-color="#ab750f"/></linearGradient><clipPath id="B"><path fill="#fff" d="M0 0h393v180H0z"/></clipPath></defs></svg>