<svg xmlns="http://www.w3.org/2000/svg" width="361" height="60" fill="none" xmlns:v="https://vecta.io/nano"><path d="M0 0h349.93L361 10.97V60H10.97L0 49.031V0z" fill="#212121"/><mask id="A" maskUnits="userSpaceOnUse" x="0" y="0" width="361" height="60" mask-type="alpha"><path d="M0 0h349.93L361 10.97V60H10.97L0 49.031V0z" fill="#212121"/></mask><g mask="url(#A)"><g opacity=".2"><path d="M347.262 49.31c-1.739-1.868-5.977-3.55-11.279-5.178-6.972-2.14-14.784-4.162-24.827-5.895a222.41 222.41 0 0 0-6.131-.96c-9.368-1.345-16.7-3.006-23.838-4.703l-11.678-2.659c-3.152-.698-6.766-1.318-11.25-1.745-9.54-.91-17.747-2.127-25.708-3.405l-30.118-4.805c-13.028-1.996-27.046-3.763-41.79-5.348l-32.302-3.994-32.314-3.994-31.004-4.03C56.782 1.399 47.865.42 38.423-.393 35.254.661 30.965 1.442 26.395 2.02c10.741.915 20.875 2.02 30.043 3.412 7.109 1.079 14.996 1.962 23.254 2.745l13.966 1.379 26.612 3.018c11.089 1.362 22.825 2.526 34.698 3.648 17.518 1.656 33.406 3.683 47.035 6.241 7.824 1.468 16.849 2.697 25.274 4.045l29.963 5.08c6.211 1.181 10.855 2.619 16.242 3.937l16.889 4.068c2.889.643 6.555 1.197 10.266 1.701 10.661 1.45 18.199 3.328 24.719 5.367 4.552 1.425 7.378 2.943 8.899 4.55 2.511 2.659 6.806 5.235 11.719 7.785a24.09 24.09 0 0 1 1.441.814h15.276c-.343-.252-.709-.503-1.104-.753-3.203-2.017-7-4.003-10.1-6.024-1.87-1.219-3.065-2.473-4.226-3.722v-.001zm-165.378 8.972c1.717-1.365 5.926-2.101 12.191-2.148 5.458-.042 10.448.348 15.277.867l9.311 1.054a75 75 0 0 0 4.508.325c2.787.122 4.696-.129 5.766-.737 1.346-.764 1.364-1.567 1.043-2.369-.762-1.907-3.184-3.707-7.763-5.31-7.166-2.508-12.709-5.195-17.921-7.928-2.542-1.333-5.235-2.657-8.334-3.924-3.893-1.592-9.637-2.858-15.393-4.104l-17.172-3.696c-3.278-.76-6.047-1.64-8.82-2.503-5.659-1.758-11.554-3.469-18.064-5.068-6.734-1.653-14.996-2.826-23.544-3.917L73.363 13.74c-6.127-.787-11.531-1.79-16.668-2.874C50.47 9.55 43.54 8.478 35.777 7.686c-3.995-.407-7.83-.877-11.558-1.39l-3.839 4.122.642.093 14.902 2.039c5.899.847 10.894 1.95 15.968 3.028 7.71 1.641 16.534 2.945 25.176 4.306l16.833 2.727c7.715 1.334 13.262 3.092 17.926 5 7.34 3.002 13.239 6.151 18.363 9.378.437.274.695.563.999.847.927.877.231 1.683-1.722 2.471-2.898 1.167-5.556 2.366-8.307 3.552-4.129 1.779-5.378 3.662-3.857 5.641 1.734 2.257 3.866 4.489 7.705 6.62 2.497 1.386 5.895 2.653 9.605 3.879h46.304c-.023-.572.249-1.145.972-1.718h-.005zM376.979.092l-22.03-2.597-3.403-.421-63.152-.002L315.675.279l56.071 6.982c8.282 1.07 15.734 2.341 23.541 3.525 6.691 1.016 14 1.837 21.756 2.506-20.155-4.741-28.168-9.037-31.262-12.011l-8.796-1.19-.006.001zM.598 53.47c38.633.565 43.026 6.339 43.026 6.339h24.604l-4.793-1.122-42.46-9.727c-6.611-1.529-11.873-3.195-13.778-5.115-.961-.968-1.327-1.955-1.733-2.937-.721-1.731-1.413-3.463-1.847-5.198-.429-1.721-1.762-3.424-4.392-5.073-3.008-1.884-6.446-3.754-10.449-5.578-2.459-1.119-6.148-2.031-10.821-2.748l-7.521 6.262L.592 53.47h.006z" fill="#444"/><path d="M323.4 52.731c-2.431-2.764-8.745-5.207-19.114-7.319a85.21 85.21 0 0 0-5.948-.993c-10.02-1.31-17.701-2.977-24.478-4.803l-20.967-5.459c-8.922-2.273-19.817-4.243-31.255-6.112l-32.394-5.605c-10.592-2.069-23.197-3.697-37.175-4.982l-49.638-5.135-28.069-2.921C64.279 8.422 55.3 7.18 46.103 5.979c-8.933-1.167-18.239-2.212-27.927-3.13C8.768 3.593.36 3.663.36 3.663l-1.727 1.44 18.176 1.796c10.243.908 19.731 1.991 28.156 3.365 7.669 1.25 16.489 2.203 25.554 3.098l56.689 5.611c13.092 1.271 23.992 2.967 33.235 5.02l22.219 4.876c6.303 1.238 13.663 2.31 20.681 3.432 7.921 1.266 16.237 2.476 22.019 4.084 4.484 1.247 8.396 2.56 12.376 3.862l11.873 4.026c5.903 2.05 13.635 3.886 21.133 5.754 5.324 1.326 10.752 2.65 13.915 4.198 3.694 1.807 5.976 3.673 6.771 5.586h40.807c-.04-.02-.074-.041-.114-.062-4.404-2.28-6.646-4.647-8.728-7.016l.006-.002zm-209.561 2.935l-12.263-5.575c-5.244-2.527-4.867-5.081-.183-7.619 2.952-1.599 4.61-3.245 5.268-4.908.337-.852-.515-1.756-1.882-2.583-3.9-2.352-8.253-4.681-12.599-7.01-2.465-1.322-6.657-2.474-12.514-3.409l-13.463-1.98-28.888-3.964c-4.192-.596-7.956-1.29-11.724-1.972-8.167-1.477-17.518-2.66-28.013-3.562l-7.658-.727-6.497 5.407.681.048c9.122.636 16.729 1.653 22.974 2.975 8.442 1.787 16.094 3.672 22.105 5.751 3.946 1.363 6.154 2.806 6.874 4.338.864 1.847.377 3.699.812 5.543.56 2.379.595 4.777 4.066 7.108 2.9 1.948 7.589 3.775 12.068 5.618 6.331 2.605 15.076 4.928 25.794 7.024 5.776 1.129 10.598 2.349 14.687 3.639h32.456c-4.609-1.326-8.813-2.693-12.096-4.142l-.005.001zm269.367-9.292c-2.659-2.826-7.95-5.492-16.797-7.912l-19.566-5.259c-6.68-1.901-15.905-3.27-27.258-4.169-11.947-.946-22.819-2.159-32.782-3.646-6.234-.931-13.012-1.72-20.315-2.37l-7.315-.724c-11.318-1.21-21.184-2.756-31.118-4.274-14.967-2.289-30.535-4.428-46.955-6.383l-27.395-3.526-43.764-6.45-34.618-4.537-23.741.008C62.557-1.859 72.938-.69 82.718.68l43.397 5.83 24.719 3.596 30.678 3.764c20.6 2.484 38.816 5.476 57.364 8.395a360.94 360.94 0 0 0 26.817 3.228c4.318.356 8.316.868 12.05 1.398 4.101.582 7.882 1.241 11.53 1.912 8.488 1.559 18.108 2.848 28.751 3.91 5.033.502 9.545 1.127 12.966 1.954l22.064 5.445c8.848 2.294 14.504 4.819 16.529 7.589 1.024 1.399 1.887 2.813 3.74 4.182 3.003 2.221 6.698 4.413 10.215 6.611a18.1 18.1 0 0 1 .595.39c.812-2.153 3.122-4.154 6.331-5.983-2.848-2.159-5.21-4.336-7.269-6.527h.011zM325.07 4.84c5.153.59 10.69 1.076 16.094 1.596.978.094 2.162.12 3.254.178l.429-.124c-1.321-.23-2.545-.481-3.974-.688L315.027 2.13l-40-5.054-18.513.003 18.73 1.965L325.07 4.84zm-176.246.577c12.28 1.887 25.205 3.588 38.811 5.151l26.949 3.295 31.187 4.102c12.457 1.592 27.087 2.455 40.607 3.694.509.046 1.149.05 1.727.075l.366-.095c-1.11-.203-2.076-.439-3.351-.602l-14.836-1.826c-16.952-1.693-32.314-3.773-47.441-5.915L196.157 9.49c-13.589-1.817-27.161-3.625-38.765-5.854l-31.49-5.906-3.152-.623-32.25.01 9.688 1.305 48.642 6.992-.006.002zM449.51 21.494l-23.929-1.654-13.429-.752c-9.334-.5-17.564-1.401-26.063-2.207-13.749-1.305-25.759-3.043-37.821-4.76l-43.3-6.275C291.31 3.979 276.995 2.252 261.507.877c-6.605-.587-13.629-1.043-20.64-1.469-6.846-.416-13.486-.881-19.206-1.674a133.81 133.81 0 0 0-5.616-.649l-41.71.01c-.189.193-.212.405-.052.635.641.934 2.82 1.762 5.542 2.553 4.844 1.408 11.433 2.535 18.393 3.615l28.11 4.498c8.625 1.393 16.712 2.904 26.56 4.032 6.475.743 13.418 1.368 20.332 1.982 21.27 1.886 41.35 4.086 59.532 6.81l9.088 1.227c4.838.64 8.802 1.417 12.09 2.311 6.166 1.674 12.079 3.364 16.626 5.206 3.409 1.382 8.636 2.587 14.195 3.732 8.27 1.702 15.368 3.537 21.156 5.537 2.711.937 5.685 1.857 8.95 2.738a82.9 82.9 0 0 1 4.473 1.333l4.198-.905c-10.438-3.229-21.156-6.428-35.757-9.166-8.224-1.543-13.801-3.385-18.668-5.32-4.581-1.82-9.814-3.607-16.803-5.183-3.408-.768-7.949-1.381-12.039-2.052l-37.604-6.157c-2.768-.458-5.233-.98-7.623-1.502-1.041-.228-1.716-.523-2.225-.806-.492-.276.326-.521 1.967-.543 2.111-.028 4.335-.029 6.377.056 8.036.337 15.139 1.048 21.836 1.867l31.044 3.91 20.309 2.447a198.16 198.16 0 0 1 6.4.904c6.537 1.017 14.344 1.464 22.843 1.576 15.247.201 30.226.663 45.027 1.335 3.106.141 6 .342 8.739.594-1.321-.969-3.054-1.85-4.976-2.642l-2.871-.222h.006zm9.633 4.565l-8.745-.656c-14.087-.551-28.299-.828-42.757-.582-10.043.171-19.451-.151-27.401-1.314-3.454-.505-6.514-1.098-9.66-1.668a151.7 151.7 0 0 0-16.5-2.071c-.932-.068-1.984-.083-2.979-.122l-.452.103c.726.213 1.384.433 2.184.637 2.957.755 6.417 1.462 8.854 2.266 4.85 1.598 9.482 3.223 13.594 4.885 4.707 1.9 11.084 3.576 19.4 5.026 12.668 2.209 23.832 4.608 32.857 7.34 1.173.355 2.294.714 3.363 1.075l1.905-.324c3.517-.578 6.577-1.198 9.248-1.841a80.02 80.02 0 0 0-9.237-3.732c-2.842-.948-6.474-1.822-9.671-2.737-1.933-.552-4.027-1.095-5.514-1.684-2.373-.939-1.155-1.708 3.289-2.378 4.146-.626 9.088-.933 14.424-1.046l11.387-.174c4.987-.052 9.265.206 13.171.63-.103-.564-.36-1.109-.755-1.632h-.005zm-111.968.789c4.393 1.044 9.277 2.025 12.348 3.223 4.37 1.704 10.055 3.268 16.209 4.783 6.794 1.673 12.799 3.421 16.929 5.359 2.499 1.174 5.027 2.349 7.909 3.495 2.305.917 4.421 1.843 6.297 2.782l3.729-1.045c-1.87-.808-3.963-1.603-6.268-2.387-3.5-1.19-6.314-2.444-9.311-3.679-4.415-1.818-10.518-3.452-17.215-5.024-6.434-1.511-11.702-3.139-16.414-4.837-2.74-.988-6.589-1.883-10.129-2.797-2.288-.591-4.587-1.203-7.492-1.692-3.832-.646-8.087-1.226-12.474-1.753l-36.237-4.233-24.261-2.328c-15.282-1.386-29.277-3.109-42.637-5l-28.453-4.113-24.215-3.481c-6.903-1.119-13.143-2.373-19.263-3.63-5.284-1.085-10.271-2.221-14.95-3.389l-9.911.003 2.905.623 21.173 4.146c10.123 2.01 21.172 3.837 33.394 5.448l27.693 3.796c14.401 2.132 29.454 4.094 45.657 5.774l25.948 2.558 39.554 4.385c7.555.809 14.207 1.751 19.503 3.01h-.018zm-16.65-19.765L279.984.479c-10.787-1.267-21.808-2.453-33.555-3.401l-10.969.002 5.976.422C256.587-1.497 270.135.025 283.558 1.6c17.456 2.047 33.458 4.417 49.781 6.72l47.029 5.968c15.282 1.607 31.187 3.008 48.499 3.852l15.139.846c-2.534-.669-4.867-1.18-6.554-1.521-16.237-.751-31.525-1.942-46.263-3.353-21.31-2.041-41.642-4.371-60.659-7.029h-.005zm54.425 27.701c-8.161-1.803-15.47-3.688-20.663-5.823-3.912-1.608-10.238-2.962-15.82-4.39-1.424-.364-3.266-.695-5.227-.973l-15.128-2.044a940.79 940.79 0 0 0-47.309-5.396l-23.558-2.206c-11.41-1.142-20.909-2.73-30.838-4.216l-32.239-4.779c-11.033-1.583-20.801-3.362-28.722-5.446-2.877-.758-5.433-1.544-6.932-2.411l-9.923.003c1.281.45 2.826.879 4.49 1.294 11.192 2.8 23.923 5.355 39.6 7.405l32.582 4.705c16.609 2.56 34.819 4.685 54.745 6.363 16.243 1.367 31.061 3.143 45.445 5.036l9.019 1.128c7.304.829 12.748 1.954 17.718 3.198 5.485 1.371 9.998 2.822 14.298 4.314 3.609 1.251 8.036 2.449 12.874 3.565 8.745 2.019 15.911 4.178 21.505 6.517 2.608 1.092 5.879 2.137 9.088 3.18a62.95 62.95 0 0 1 2.934 1.035l2.453-.611c-.64-.228-1.31-.454-2.013-.678-4.124-1.312-8.333-2.622-11.959-3.978-4.558-1.702-9.774-3.324-16.426-4.793l.006.001z" fill="#444"/><path d="M360.371 12.537l-52.188-7.331C291.403 2.88 273.982.687 254.645-.96l-17.941-1.305-8.253-.652-5.57.001c5.113.617 10.62 1.092 16.563 1.435 10.111.583 19.805 1.348 28.876 2.328 20.075 2.171 39.091 4.595 56.935 7.317l48.619 6.658c14.962 1.767 30.896 3.221 48.351 4.126l25.971 1.649 1.493.103c-.818-.284-1.648-.552-2.477-.804l-5.696-.355-30.369-1.866c-18.102-1.336-35.065-3.039-50.77-5.139l-.006.001zM5.278 23.978c4.655 1.632 9.288 3.267 12.056 5.038 2.288 1.465 3.128 2.972 3.7 4.479.543 1.431.595 2.866.949 4.299.332 1.353.543 2.71 1.224 4.058.909 1.81 4.181 3.507 9.339 5.076l21.865 6.467c5.822 1.556 12.737 2.993 19.577 4.422 3.054.639 5.776 1.304 8.224 1.993h5.462c-3.088-.921-6.611-1.802-10.649-2.636-6.183-1.277-12.234-2.584-17.672-3.96-8.236-2.082-14.069-4.41-20.469-6.676-4.335-1.534-7.441-3.148-8.321-4.862-.784-1.526-1.253-3.06-1.653-4.591-.435-1.667-.486-3.337-.978-5.004-.372-1.275-1.235-2.544-3.592-3.764-4.558-2.357-11.656-4.475-19.811-6.487-5.805-1.432-13.251-2.485-22.168-3.177l-1.052.876c10.443.964 18.319 2.469 23.969 4.45v-.001zm-3.773 3.013c3.78 1.683 6.794 3.405 7.887 5.211.789 1.301 1.333 2.607 1.807 3.913.601 1.654 1.064 3.308 1.498 4.964.492 1.877 2.219 3.708 7.418 5.371 3.031.97 6.537 1.895 10.014 2.819 12.056 3.205 24.49 6.36 38.662 9.294 1.945.404 3.786.819 5.513 1.248h4.215c-2.27-.602-4.77-1.184-7.526-1.74-14.287-2.882-26.103-6.067-37.41-9.32-4.758-1.368-9.648-2.718-12.376-4.266-1.859-1.053-2.923-2.132-3.186-3.233L16.374 34.2c-.944-3.872-7.555-7.454-18.09-10.824-4.387-1.403-10.443-2.433-17.775-3.176l-.978.813c7.235.86 12.868 2.047 16.672 3.605 1.91.781 3.529 1.584 5.307 2.376l-.006-.001z" fill="#444"/></g></g><path d="M354 0h7v7l-7-7z" fill="url(#B)"/><path d="M7 60H0v-7l7 7z" fill="url(#C)"/><defs><linearGradient id="B" x1="357.5" y1="7.327" x2="357.5" y2="-.128" gradientUnits="userSpaceOnUse"><stop stop-color="#ab750f"/><stop offset=".516" stop-color="#d8a956"/><stop offset="1" stop-color="#ab750f"/></linearGradient><linearGradient id="C" x1="3.5" y1="52.673" x2="3.5" y2="60.128" gradientUnits="userSpaceOnUse"><stop stop-color="#ab750f"/><stop offset=".516" stop-color="#d8a956"/><stop offset="1" stop-color="#ab750f"/></linearGradient></defs></svg>