<svg width="361" height="43" viewBox="0 0 361 43" fill="none" xmlns="http://www.w3.org/2000/svg">
<g id="info">
<path id="Rectangle 231" d="M0 0H349.93L361 10.9695V42.0499H10.9695L0 31.0803V0Z" fill="#212121"/>
<g id="Mask group">
<mask id="mask0_782_17888" style="mask-type:alpha" maskUnits="userSpaceOnUse" x="0" y="0" width="361" height="43">
<path id="Rectangle 232" d="M0 0H308.954L361 10.9695V42.0499H51.5714L0 31.0803V0Z" fill="#212121"/>
</mask>
<g mask="url(#mask0_782_17888)">
<g id="Waves">
<g id="Group" opacity="0.2">
<path id="Vector" d="M347.261 37.3159C345.523 35.8764 341.285 34.5808 335.983 33.3272C329.011 31.6787 321.199 30.1211 311.156 28.7859C309.206 28.5263 307.141 28.2807 305.025 28.046C295.657 27.0099 288.325 25.7298 281.187 24.4225C277.395 23.7293 273.466 23.0492 269.508 22.3738C266.357 21.836 262.743 21.3587 258.259 21.0292C248.719 20.3282 240.512 19.3908 232.551 18.4061C222.542 17.168 212.648 15.9104 202.433 14.7042C189.405 13.1661 175.387 11.8052 160.643 10.5841C149.393 9.65226 138.807 8.59524 128.34 7.50713C117.903 6.42213 106.899 5.43584 96.0268 4.43012C85.4061 3.44694 74.9628 2.43422 65.0228 1.32512C56.7813 0.405673 47.8651 -0.349008 38.4226 -0.97467C35.2542 -0.163252 30.9647 0.438316 26.3951 0.883663C37.1358 1.5886 47.2703 2.43966 56.4382 3.51222C63.5472 4.34385 71.434 5.02391 79.6926 5.62704C84.3938 5.97057 89.1351 6.3071 93.659 6.6895C102.615 7.44573 111.617 8.19653 120.271 9.01494C131.36 10.0642 143.096 10.9611 154.969 11.8254C172.487 13.1008 188.375 14.663 202.004 16.6332C209.828 17.7641 218.853 18.7108 227.278 19.7491C237.538 21.0144 247.838 22.2844 257.241 23.6624C263.452 24.5726 268.096 25.6801 273.483 26.6951C279.054 27.7459 284.453 28.8154 290.372 29.8289C293.26 30.324 296.926 30.7507 300.638 31.1393C311.299 32.2562 318.837 33.7033 325.357 35.2741C329.909 36.3715 332.735 37.5412 334.256 38.7794C336.767 40.8281 341.062 42.8124 345.975 44.7772C346.489 44.9839 346.97 45.1938 347.416 45.4044L362.692 45.4044C362.349 45.2101 361.983 45.0166 361.588 44.8246C358.385 43.2709 354.588 41.7406 351.488 40.1838C349.618 39.2449 348.422 38.2788 347.261 37.3166L347.261 37.3159Z" fill="#444444"/>
<path id="Vector_2" d="M181.884 44.2275C183.601 43.1759 187.81 42.6091 194.075 42.5723C199.533 42.5403 204.523 42.8405 209.352 43.24C212.487 43.4996 215.519 43.7967 218.663 44.0523C220.081 44.1681 221.628 44.2501 223.171 44.3025C225.958 44.3964 227.867 44.2032 228.937 43.7349C230.283 43.1462 230.301 42.5278 229.98 41.9101C229.218 40.441 226.796 39.0541 222.217 37.8195C215.051 35.8876 209.508 33.8173 204.296 31.7118C201.754 30.6853 199.061 29.665 195.962 28.6885C192.069 27.4618 186.325 26.4868 180.569 25.5267C174.861 24.5744 168.913 23.6644 163.397 22.6793C160.119 22.0937 157.35 21.4158 154.576 20.7513C148.918 19.3971 143.023 18.0789 136.513 16.8468C129.779 15.5732 121.517 14.6694 112.968 13.8289C99.7472 12.5287 86.566 11.2175 73.3626 9.91188C67.2358 9.30595 61.8313 8.53272 56.6944 7.69772C50.4695 6.68524 43.54 5.85884 35.7767 5.249C31.7813 4.93549 27.9465 4.5735 24.2186 4.17789L20.3794 7.35371C20.5934 7.37794 20.8074 7.40218 21.0215 7.42564C25.9087 7.97136 31.0233 8.45375 35.9238 8.99635C41.8233 9.64918 46.8175 10.4983 51.8919 11.3293C59.6018 12.5936 68.4264 13.5982 77.0681 14.6467C82.7312 15.3339 88.4166 16.0172 93.9013 16.7475C101.616 17.7748 107.163 19.1297 111.827 20.5996C119.167 22.9123 125.066 25.3383 130.19 27.8245C130.627 28.0356 130.885 28.2585 131.188 28.4774C132.116 29.1529 131.42 29.7737 129.467 30.3811C126.569 31.2803 123.911 32.2036 121.16 33.1176C117.031 34.4881 115.782 35.9384 117.303 37.463C119.037 39.2018 121.169 40.9211 125.008 42.5629C127.505 43.6309 130.903 44.6067 134.613 45.5511L180.917 45.5511C180.894 45.1102 181.166 44.6692 181.889 44.2275L181.884 44.2275Z" fill="#444444"/>
<path id="Vector_3" d="M376.979 -0.601378C369.756 -1.29077 362.195 -1.91643 354.949 -2.60194C353.811 -2.7092 352.678 -2.81801 351.546 -2.92604C334.869 -2.92915 312.924 -2.92915 288.394 -2.9276C297.533 -2.11385 306.673 -1.29932 315.675 -0.457593C334.525 1.30436 353.29 3.08497 371.746 4.92155C380.028 5.74618 387.48 6.7247 395.287 7.63715C401.978 8.41981 409.287 9.05247 417.042 9.56777C396.888 5.91561 388.875 2.60543 385.781 0.314964C382.939 -0.00525068 380.022 -0.312253 376.985 -0.602156L376.979 -0.601378Z" fill="#444444"/>
<path id="Vector_4" d="M0.598106 40.5205C39.2315 40.9557 43.6239 45.4037 43.6239 45.4037L68.2281 45.4037C66.6781 45.1123 65.0768 44.8247 63.4353 44.5395C49.1258 42.0586 35.0393 39.5536 20.9757 37.0463C14.3643 35.868 9.10259 34.5848 7.19808 33.1058C6.23725 32.3604 5.87124 31.5995 5.46517 30.8433C4.74455 29.5096 4.05249 28.1751 3.61783 26.839C3.18889 25.5131 1.85631 24.2012 -0.774542 22.9312C-3.78286 21.4801 -7.22013 20.0391 -11.2236 18.6339C-13.6829 17.772 -17.3718 17.0694 -22.0444 16.5168L-29.5652 21.341L0.592381 40.5205L0.598106 40.5205Z" fill="#444444"/>
<path id="Vector_5" d="M323.4 39.951C320.969 37.8214 314.655 35.9398 304.286 34.3123C302.508 34.0325 300.517 33.7674 298.338 33.5475C288.318 32.5379 280.637 31.2539 273.86 29.8471C267.037 28.4303 259.985 27.0336 252.893 25.6416C243.971 23.8905 233.076 22.3726 221.638 20.9332C210.525 19.5358 199.413 18.1445 189.244 16.615C178.652 15.0209 166.047 13.7664 152.069 12.777C135.031 11.5708 118.531 10.2456 102.432 8.821C93.3324 8.0158 83.8728 7.28288 74.3617 6.57095C64.2787 5.81627 55.2995 4.85951 46.103 3.93384C37.1695 3.0346 27.8643 2.2294 18.1759 1.52213C8.7678 2.09571 0.360512 2.14934 0.360512 2.14934L-1.36667 3.25843C4.53558 3.75586 10.6094 4.21908 16.809 4.64189C27.0522 5.34138 36.5404 6.17612 44.9649 7.23391C52.6344 8.19689 61.4534 8.93136 70.5184 9.62076C89.4262 11.0586 108.225 12.5245 127.207 13.9437C140.299 14.923 151.2 16.2295 160.442 17.8111C167.797 19.0694 174.769 20.3744 182.661 21.5674C188.964 22.5211 196.324 23.3472 203.342 24.2115C211.263 25.1869 219.579 26.1188 225.361 27.3577C229.845 28.3183 233.757 29.3303 237.737 30.3329C241.815 31.358 245.727 32.3956 249.611 33.4348C255.513 35.0141 263.245 36.4286 270.743 37.8673C276.068 38.8885 281.495 39.909 284.658 41.1013C288.353 42.4933 290.635 43.9311 291.43 45.4047L332.236 45.4047C332.196 45.3892 332.162 45.3729 332.122 45.3573C327.718 43.6008 325.476 41.7775 323.394 39.9525L323.4 39.951Z" fill="#444444"/>
<path id="Vector_6" d="M113.839 42.2126C109.646 40.7864 105.46 39.3594 101.577 37.9177C96.332 35.9707 96.7095 34.0036 101.394 32.0481C104.345 30.8162 106.003 29.5478 106.661 28.2669C106.998 27.611 106.146 26.9138 104.779 26.2773C100.879 24.4656 96.5264 22.671 92.1798 20.8771C89.7148 19.859 85.5226 18.9714 79.6661 18.2509C75.3367 17.7185 70.7956 17.2156 66.203 16.7252C56.6061 15.7008 46.8091 14.7122 37.3151 13.6715C33.1229 13.2122 29.3597 12.6775 25.5907 12.1521C17.4236 11.0142 8.0727 10.1025 -2.42209 9.4077C-5.0415 9.23438 -7.58085 9.04551 -10.0802 8.84732L-16.5772 13.0132C-16.3484 13.0257 -16.1254 13.0373 -15.8966 13.0497C-6.77443 13.5402 0.832148 14.3236 7.07755 15.3418C15.5191 16.7182 23.1715 18.1709 29.1824 19.7719C33.1287 20.8219 35.3363 21.9334 36.057 23.114C36.9206 24.5371 36.4344 25.9633 36.8691 27.384C37.4296 29.2167 37.4639 31.0642 40.9355 32.8603C43.8351 34.3611 48.5249 35.7687 53.0031 37.1886C59.3343 39.1954 68.079 40.9854 78.7968 42.5997C84.5732 43.4694 89.3946 44.409 93.4838 45.4031L125.94 45.4031C121.331 44.3818 117.127 43.3287 113.844 42.2118L113.839 42.2126Z" fill="#444444"/>
<path id="Vector_7" d="M383.206 35.0539C380.547 32.8769 375.256 30.8227 366.409 28.9589C359.969 27.6011 353.106 26.2799 346.843 24.9073C340.163 23.443 330.938 22.3883 319.585 21.6958C307.638 20.9668 296.766 20.0326 286.803 18.8869C280.569 18.1696 273.791 17.5618 266.488 17.0612C263.994 16.8903 261.564 16.6998 259.173 16.5032C247.855 15.5713 237.989 14.3798 228.055 13.2101C213.088 11.4466 197.52 9.7989 181.1 8.29265C171.732 7.43304 162.226 6.5781 153.705 5.57626C139.321 3.88503 125.011 2.18447 109.941 0.607495C98.5484 -0.584761 87.2357 -1.79256 75.3225 -2.88766C65.2853 -2.88533 57.1697 -2.883 51.582 -2.88145C62.5572 -2.10423 72.9376 -1.20421 82.7175 -0.14874C96.9527 1.38782 111.76 2.82568 126.115 4.34281C134.54 5.23351 142.301 6.24234 150.834 7.11283C160.791 8.12865 171.228 9.05743 181.512 10.0126C202.112 11.9262 220.328 14.2314 238.876 16.4799C247.048 17.4701 255.724 18.332 265.693 18.967C270.011 19.2413 274.009 19.6354 277.743 20.0442C281.844 20.4927 285.625 21.0002 289.273 21.517C297.761 22.7179 307.381 23.7111 318.024 24.5296C323.057 24.9166 327.569 25.3977 330.99 26.035C338.436 27.4247 345.94 28.8089 353.054 30.2297C361.902 31.9971 367.558 33.9425 369.583 36.0759C370.607 37.1539 371.47 38.2428 373.323 39.2975C376.326 41.0082 380.021 42.6971 383.538 44.3906C383.744 44.4909 383.944 44.5912 384.133 44.6914C384.945 43.0328 387.255 41.4908 390.464 40.0825C387.616 38.4193 385.254 36.742 383.195 35.0539L383.206 35.0539Z" fill="#444444"/>
<path id="Vector_8" d="M325.071 3.05636C330.224 3.51103 335.76 3.88565 341.164 4.28592C342.142 4.3582 343.326 4.37841 344.419 4.42271C344.562 4.39085 344.705 4.35898 344.848 4.32712C343.527 4.14991 342.303 3.95638 340.873 3.79705C332.3 2.84651 323.904 1.86333 315.028 0.96797C301.862 -0.3603 288.479 -1.65126 275.027 -2.9259C268.965 -2.9259 262.782 -2.92435 256.514 -2.92357C262.908 -2.45802 269.142 -1.95049 275.245 -1.40955C291.899 0.0687264 308.388 1.58353 325.071 3.05636Z" fill="#444444"/>
<path id="Vector_9" d="M148.825 3.50062C161.104 4.95403 174.029 6.26442 187.635 7.46911C196.792 8.27975 205.737 9.13547 214.584 10.0075C225.079 11.042 235.271 12.134 245.771 13.1677C258.228 14.3941 272.858 15.0587 286.378 16.0131C286.887 16.0488 287.528 16.052 288.105 16.0706C288.225 16.0465 288.351 16.0224 288.471 15.9975C287.362 15.8413 286.395 15.6595 285.12 15.5335C280.241 15.0517 275.506 14.5294 270.284 14.1268C253.332 12.8226 237.97 11.22 222.843 9.56994C213.921 8.59686 205.268 7.57714 196.157 6.63904C182.568 5.23927 168.996 3.84649 157.392 2.12883C147.034 0.595376 136.305 -0.892223 125.902 -2.42101C124.827 -2.57879 123.774 -2.73812 122.751 -2.90134C111.089 -2.899 100.223 -2.8959 90.4999 -2.89356C93.7598 -2.56402 96.9969 -2.22982 100.188 -1.88784C116.614 -0.127438 133.062 1.63296 148.83 3.49907L148.825 3.50062Z" fill="#444444"/>
<path id="Vector_10" d="M449.51 15.8864C441.56 15.4519 433.605 15.0182 425.581 14.6117C421.188 14.3894 416.647 14.2177 412.152 14.0327C402.818 13.6472 394.588 12.9531 386.089 12.3321C372.34 11.3272 360.33 9.98804 348.268 8.66522C333.73 7.07114 319.729 5.38457 304.968 3.83091C291.31 2.39305 276.995 1.06245 261.507 0.00309892C254.902 -0.449243 247.878 -0.800547 240.867 -1.12853C234.021 -1.44875 227.381 -1.80705 221.661 -2.41794C219.854 -2.61069 217.978 -2.77546 216.045 -2.91769C202.039 -2.91536 188.009 -2.91303 174.335 -2.90992C174.146 -2.76147 174.123 -2.59826 174.283 -2.42105C174.924 -1.70134 177.103 -1.06325 179.825 -0.453907C184.669 0.631092 191.258 1.49925 198.218 2.33087C207.712 3.46639 217 4.63455 226.328 5.79572C234.953 6.86906 243.04 8.03333 252.888 8.90227C259.363 9.4743 266.306 9.95618 273.22 10.4287C294.49 11.8814 314.57 13.5765 332.752 15.675C335.657 16.0099 338.786 16.3092 341.84 16.6201C346.678 17.1128 350.642 17.7121 353.93 18.4007C360.095 19.6901 366.009 20.9927 370.556 22.4111C373.965 23.4759 379.192 24.4039 384.751 25.2861C393.021 26.5972 400.119 28.011 405.907 29.5514C408.618 30.2735 411.592 30.9823 414.857 31.6608C416.476 31.9966 417.963 32.3393 419.33 32.6875C420.805 32.4326 422.212 32.1994 423.528 31.9904C413.09 29.5025 402.372 27.0379 387.771 24.9285C379.547 23.7402 373.97 22.321 369.103 20.8303C364.522 19.4282 359.289 18.0517 352.3 16.8377C348.892 16.2462 344.35 15.7737 340.261 15.2568C327.73 13.6744 315.131 12.1036 302.657 10.5134C299.889 10.1606 297.424 9.75876 295.033 9.35617C293.993 9.18051 293.318 8.95356 292.809 8.73516C292.317 8.52221 293.135 8.33334 294.776 8.31702C296.886 8.29526 299.111 8.29448 301.153 8.36054C309.189 8.62014 316.292 9.16808 322.989 9.79918C333.438 10.7839 343.641 11.8161 354.033 12.8117C360.73 13.4537 367.611 14.0607 374.342 14.6964C376.584 14.9078 378.694 15.148 380.742 15.3928C387.279 16.1763 395.086 16.5206 403.585 16.6068C418.832 16.7615 433.811 17.1175 448.612 17.6351C451.718 17.7439 454.612 17.8986 457.351 18.0929C456.03 17.3468 454.297 16.6675 452.375 16.0574C451.432 15.9975 450.477 15.94 449.504 15.8864L449.51 15.8864Z" fill="#444444"/>
<path id="Vector_11" d="M459.143 19.4036C456.483 19.1743 453.612 18.9955 450.398 18.8984C436.311 18.474 422.099 18.2603 407.641 18.4499C397.598 18.5813 388.19 18.3333 380.24 17.438C376.786 17.0486 373.726 16.5924 370.58 16.1532C365.788 15.484 360.492 14.9136 354.08 14.5576C353.148 14.5055 352.096 14.4939 351.101 14.4636C350.952 14.49 350.797 14.5164 350.649 14.5428C351.375 14.7068 352.033 14.8763 352.834 15.0333C355.79 15.6146 359.25 16.1594 361.687 16.7789C366.537 18.01 371.169 19.2621 375.282 20.5422C379.988 22.0057 386.365 23.2974 394.681 24.4143C407.349 26.1164 418.513 27.9646 427.538 30.0694C428.711 30.3429 429.832 30.6196 430.901 30.8971C432.114 30.7331 432.806 30.6476 432.806 30.6476C436.323 30.2023 439.383 29.7243 442.054 29.2292C439.377 28.2483 436.426 27.2822 432.817 26.3542C429.975 25.6237 426.343 24.9506 423.146 24.2456C421.213 23.8205 419.119 23.4024 417.632 22.9485C415.259 22.2249 416.477 21.6326 420.921 21.1166C425.067 20.6347 430.009 20.3976 435.345 20.3106C439.125 20.2484 442.929 20.2064 446.732 20.1761C451.719 20.1357 455.997 20.3347 459.903 20.6611C459.8 20.2266 459.543 19.8069 459.148 19.4036L459.143 19.4036Z" fill="#444444"/>
<path id="Vector_12" d="M347.176 20.0114C351.568 20.8158 356.452 21.5713 359.523 22.4946C363.893 23.8073 369.578 25.012 375.732 26.1794C382.526 27.468 388.531 28.815 392.661 30.308C395.16 31.2127 397.688 32.1174 400.57 33.0003C402.875 33.7068 404.991 34.4203 406.867 35.1439C408.108 34.8633 409.355 34.5952 410.596 34.3387C408.726 33.7161 406.633 33.1037 404.328 32.4998C400.828 31.5827 398.014 30.6166 395.017 29.6652C390.602 28.2647 384.499 27.0056 377.802 25.7947C371.368 24.6304 366.101 23.3768 361.388 22.0687C358.648 21.3078 354.799 20.6184 351.259 19.9142C348.971 19.4588 346.672 18.9878 343.767 18.6108C339.935 18.1134 335.68 17.6665 331.293 17.26C319.323 16.1509 307.341 15.0411 295.056 13.9988C287.261 13.3374 278.979 12.7778 270.795 12.2058C255.513 11.1379 241.518 9.81038 228.158 8.35387C218.59 7.31162 209.21 6.2375 199.705 5.18515C191.63 4.29135 183.142 3.45894 175.49 2.50374C168.587 1.6418 162.347 0.675717 156.227 -0.292699C150.943 -1.12821 145.956 -2.00336 141.277 -2.90338C137.926 -2.90338 134.62 -2.90183 131.366 -2.90105C132.304 -2.73783 133.276 -2.57773 134.271 -2.42073C141.169 -1.33728 148.438 -0.297362 155.444 0.773647C165.567 2.32187 176.617 3.72941 188.839 4.97064C198.201 5.92195 207.586 6.87482 216.531 7.89531C230.932 9.53758 245.985 11.0493 262.188 12.3433C270.727 13.0257 279.677 13.6149 288.136 14.3144C301.439 15.4134 314.382 16.594 327.69 17.6922C335.245 18.3155 341.897 19.0414 347.193 20.0114L347.176 20.0114Z" fill="#444444"/>
<path id="Vector_13" d="M330.525 4.78453C314.076 3.01403 297.462 1.27849 279.984 -0.303148C269.197 -1.27934 258.176 -2.19257 246.429 -2.92316C242.792 -2.92316 239.131 -2.92238 235.46 -2.9216C237.421 -2.80735 239.417 -2.70009 241.436 -2.59672C256.587 -1.82572 270.135 -0.652897 283.558 0.560344C301.014 2.13732 317.016 3.96301 333.339 5.73741C348.432 7.37812 363.748 8.98929 380.368 10.3354C395.65 11.5736 411.555 12.6531 428.867 13.3029C433.969 13.4941 438.99 13.7233 444.006 13.955C441.472 13.4397 439.139 13.0456 437.452 12.7829C421.215 12.2047 405.927 11.2868 391.189 10.1994C369.879 8.62711 349.547 6.83173 330.531 4.78453L330.525 4.78453Z" fill="#444444"/>
<path id="Vector_14" d="M384.95 26.1251C376.789 24.7362 369.48 23.2836 364.287 21.639C360.375 20.4001 354.049 19.3571 348.467 18.2566C347.043 17.976 345.202 17.7211 343.24 17.5073C338.287 16.9672 333.094 16.4682 328.113 15.9327C313.317 14.3409 297.692 12.9287 280.803 11.7753C272.859 11.2328 264.972 10.6717 257.245 10.0755C245.836 9.19573 236.336 7.97239 226.407 6.82754C215.701 5.59332 205.057 4.34899 194.168 3.14585C183.136 1.9264 173.367 0.556157 165.446 -1.04958C162.569 -1.63327 160.013 -2.23873 158.514 -2.90713C155.174 -2.90713 151.863 -2.90558 148.591 -2.9048C149.873 -2.55816 151.417 -2.22784 153.081 -1.90763C164.274 0.249155 177.005 2.21785 192.681 3.79716C203.976 4.93501 214.694 6.16613 225.263 7.42212C241.872 9.3947 260.082 11.0315 280.008 12.324C296.251 13.3772 311.069 14.7451 325.453 16.2039C328.404 16.5032 331.378 16.8016 334.472 17.0729C341.776 17.7117 347.22 18.5783 352.191 19.5366C357.675 20.5929 362.188 21.7105 366.489 22.86C370.097 23.8238 374.524 24.7463 379.363 25.6067C388.107 27.1619 395.274 28.8252 400.867 30.6276C403.475 31.4685 406.746 32.2737 409.955 33.0774C411.001 33.3401 411.974 33.6059 412.889 33.8748C413.712 33.7124 414.536 33.5554 415.342 33.4038C414.702 33.2282 414.033 33.0541 413.329 32.8815C409.206 31.8703 404.996 30.8615 401.37 29.8169C396.812 28.5058 391.596 27.256 384.945 26.1244L384.95 26.1251Z" fill="#444444"/>
<path id="Vector_15" d="M360.371 8.98579C342.642 7.15855 325.667 5.20462 308.183 3.33774C291.403 1.54547 273.982 -0.143433 254.645 -1.41263C248.829 -1.79425 242.755 -2.10902 236.704 -2.41836C233.856 -2.56447 231.094 -2.72691 228.451 -2.92044C226.598 -2.92044 224.739 -2.92044 222.881 -2.91966C227.994 -2.444 233.501 -2.07871 239.444 -1.81446C249.555 -1.36522 259.249 -0.776091 268.32 -0.0206327C288.395 1.65194 307.411 3.5196 325.255 5.61654C340.783 7.44146 356.808 9.19409 373.874 10.7462C388.836 12.1071 404.77 13.2279 422.225 13.925C431.038 14.2771 439.617 14.7434 448.196 15.1958C448.693 15.2222 449.191 15.2486 449.688 15.2751C448.871 15.0567 448.041 14.8499 447.212 14.6556C445.313 14.5631 443.414 14.473 441.516 14.382C431.404 13.8963 421.012 13.5053 411.147 12.9442C393.045 11.9151 376.082 10.6032 360.377 8.98502L360.371 8.98579Z" fill="#444444"/>
<path id="Vector_16" d="M5.27779 17.7998C9.93325 19.0573 14.5658 20.3164 17.3339 21.6812C19.6216 22.8097 20.4624 23.9709 21.0343 25.1321C21.5776 26.2342 21.6291 27.3401 21.9837 28.4438C22.3154 29.486 22.527 30.5314 23.2076 31.5698C24.1169 32.9641 27.3884 34.2714 32.5471 35.48C39.6847 37.1533 46.5821 38.85 54.4117 40.4619C60.2339 41.6604 67.1485 42.768 73.9887 43.8685C77.0428 44.3605 79.7651 44.8734 82.2129 45.4043L87.6748 45.4043C84.5864 44.6947 81.0634 44.0162 77.0256 43.3734C70.8431 42.3895 64.7922 41.383 59.3532 40.3228C51.1175 38.7186 45.2839 36.9256 38.884 35.18C34.5489 33.9978 31.4433 32.755 30.5625 31.4345C29.779 30.2586 29.31 29.0772 28.9097 27.8974C28.475 26.6134 28.4235 25.3264 27.9317 24.0424C27.5599 23.06 26.6963 22.0823 24.34 21.1426C19.7818 19.327 12.6842 17.6948 4.52857 16.1451C-1.27646 15.0414 -8.72291 14.2308 -17.6392 13.6976L-18.6915 14.3722C-8.24823 15.1153 -0.372819 16.2741 5.27779 17.8005L5.27779 17.7998Z" fill="#444444"/>
<path id="Vector_17" d="M1.50527 20.121C5.28568 21.4174 8.29974 22.7441 9.39212 24.1354C10.1814 25.138 10.7247 26.1437 11.1994 27.1502C11.7999 28.4241 12.2632 29.6987 12.6978 30.9741C13.1897 32.4205 14.9169 33.8304 20.1157 35.112C23.1469 35.859 26.6528 36.5717 30.1301 37.2836C42.1862 39.7528 54.6198 42.1832 68.7921 44.4433C70.7367 44.7542 72.5783 45.0745 74.3055 45.4048L78.5205 45.4048C76.25 44.9408 73.7507 44.4923 70.994 44.0641C56.7074 41.8435 44.8914 39.3899 33.5845 36.8841C28.8261 35.8302 23.9361 34.7903 21.2081 33.5972C19.3493 32.7858 18.2855 31.955 18.0224 31.1063C17.4619 29.2953 16.9472 27.4844 16.3753 25.6735C15.4316 22.6905 8.82017 19.9314 -1.71467 17.3347C-6.10132 16.2536 -12.158 15.46 -19.49 14.888L-20.468 15.5144C-13.2332 16.1766 -7.59973 17.0914 -3.79644 18.2914C-1.88622 18.893 -0.26769 19.5117 1.51099 20.1218L1.50527 20.121Z" fill="#444444"/>
</g>
</g>
</g>
</g>
<path id="Polygon 48" d="M354 -3.33786e-06L361 -7.82817e-07L361 7L354 -3.33786e-06Z" fill="url(#paint0_linear_782_17888)"/>
<path id="Polygon 49" d="M7 42.0498L-3.17794e-05 42.0498L-4.76837e-07 35L7 42.0498Z" fill="url(#paint1_linear_782_17888)"/>
</g>
<defs>
<linearGradient id="paint0_linear_782_17888" x1="357.5" y1="7.32724" x2="357.5" y2="-0.128052" gradientUnits="userSpaceOnUse">
<stop stop-color="#AB750F"/>
<stop offset="0.516" stop-color="#D8A956"/>
<stop offset="1" stop-color="#AB750F"/>
</linearGradient>
<linearGradient id="paint1_linear_782_17888" x1="3.49995" y1="34.6704" x2="3.49995" y2="42.1788" gradientUnits="userSpaceOnUse">
<stop stop-color="#AB750F"/>
<stop offset="0.516" stop-color="#D8A956"/>
<stop offset="1" stop-color="#AB750F"/>
</linearGradient>
</defs>
</svg>
