<svg xmlns="http://www.w3.org/2000/svg" width="393" height="194" fill="none" xmlns:v="https://vecta.io/nano"><mask id="A" fill="#fff"><path fill-rule="evenodd" d="M393 50v46 45 53h-98.25-98.25H0V96 51 28.5 17L12 6h12.563 24.563H98.25h98.25 49.125 26.486l24.445 44H393z"/></mask><g fill="#ab750f"><path d="M393 50h.5v-.5h-.5v.5zm0 144v.5h.5v-.5h-.5zM0 194h-.5v.5H0v-.5zM0 17l-.338-.369-.162.149V17H0zM12 6v-.5h-.194l-.143.131L12 6zm260.111 0l.437-.243-.143-.257h-.294V6zm24.445 44l-.438.243.143.257h.295V50zM393 49.5h-3.014v1H393v-1zm-9.042 0h-6.027v1h6.027v-1zm-12.055 0h-6.028v1h6.028v-1zm-12.056 0h-6.028v1h6.028v-1zm-12.055 0h-6.028v1h6.028v-1zm-12.056 0h-6.028v1h6.028v-1zm-12.055 0h-6.028v1h6.028v-1zm-12.056 0h-6.028v1h6.028v-1zm-12.056 0h-3.013v1h3.013v-1zm-2.576.257l-1.528-2.75-.874.486 1.527 2.75.875-.486zm-4.584-8.25l-3.055-5.5-.874.486 3.055 5.5.874-.486zm-6.111-11l-3.055-5.5-.875.486 3.056 5.5.874-.486zm-6.111-11l-3.055-5.5-.875.486 3.056 5.5.874-.486zm-6.111-11l-1.528-2.75-.874.486 1.528 2.75.874-.486zM272.111 5.5H268.8v1h3.311v-1zm-9.932 0h-6.622v1h6.622v-1zm-13.243 0h-3.311v1h3.311v-1zm-3.311 0h-3.07v1h3.07v-1zm-9.211 0h-6.141v1h6.141v-1zm-12.281 0h-6.141v1h6.141v-1zm-12.281 0h-6.141v1h6.141v-1zm-12.282 0h-3.07v1h3.07v-1zm-3.07 0h-3.07v1h3.07v-1zm-9.211 0h-6.141v1h6.141v-1zm-12.281 0h-6.141v1h6.141v-1zm-12.281 0h-6.141v1h6.141v-1zm-12.282 0h-6.14v1h6.14v-1zm-12.281 0h-6.141v1h6.141v-1zm-12.281 0h-6.141v1h6.141v-1zm-12.281 0h-6.141v1h6.141v-1zm-12.282 0h-3.07v1h3.07v-1zm-3.07 0h-3.07v1h3.07v-1zm-9.211 0h-6.141v1h6.141v-1zm-12.281 0h-6.141v1h6.141v-1zm-12.281 0h-6.141v1h6.141v-1zm-12.281 0h-3.07v1h3.07v-1zm-3.07 0h-3.07v1h3.07v-1zm-9.211 0h-6.141v1h6.141v-1zm-12.281 0h-3.07v1h3.07v-1zm-3.07 0h-3.141v1h3.141v-1zm-9.422 0H12v1h3.141v-1zm-3.478.131l-3 2.75.676.737 3-2.75-.676-.737zm-9 8.25l-3 2.75.676.737 3-2.75-.676-.737zM-.5 17v2.875h1V17h-1zm0 8.625V28.5h1v-2.875h-1zm0 2.875v2.813h1V28.5h-1zm0 8.438v5.625h1v-5.625h-1zm0 11.25V51h1v-2.812h-1zM-.5 51v2.813h1V51h-1zm0 8.438v5.625h1v-5.625h-1zm0 11.25v5.625h1v-5.625h-1zm0 11.25v5.625h1v-5.625h-1zm0 11.25V96h1v-2.812h-1zM-.5 96v3.063h1V96h-1zm0 9.188v6.124h1v-6.124h-1zm0 12.25v6.124h1v-6.124h-1zm0 12.25v6.124h1v-6.124h-1zm0 12.25v6.124h1v-6.124h-1zm0 12.25v6.124h1v-6.124h-1zm0 12.25v6.124h1v-6.124h-1zm0 12.25v6.124h1v-6.124h-1zm0 12.25V194h1v-3.062h-1zM0 194.5h3.07v-1H0v1zm9.211 0h6.141v-1H9.211v1zm12.281 0h6.141v-1h-6.141v1zm12.281 0h6.141v-1h-6.141v1zm12.281 0h6.141v-1h-6.141v1zm12.281 0h6.141v-1h-6.141v1zm12.281 0h6.141v-1h-6.141v1zm12.281 0h6.141v-1h-6.141v1zm12.281 0h6.14v-1h-6.14v1zm12.281 0h6.141v-1h-6.141v1zm12.281 0h6.141v-1h-6.141v1zm12.281 0h6.141v-1h-6.141v1zm12.282 0h6.14v-1h-6.14v1zm12.281 0h6.141v-1h-6.141v1zm12.281 0h6.141v-1h-6.141v1zm12.281 0h6.141v-1h-6.141v1zm12.282 0h3.07v-1h-3.07v1zm3.07 0h3.07v-1h-3.07v1zm9.211 0h6.141v-1h-6.141v1zm12.281 0h6.141v-1h-6.141v1zm12.281 0h6.141v-1h-6.141v1zm12.282 0h6.14v-1h-6.14v1zm12.281 0h6.141v-1h-6.141v1zm12.281 0h6.141v-1h-6.141v1zm12.281 0h6.141v-1h-6.141v1zm12.282 0h3.07v-1h-3.07v1zm3.07 0h3.07v-1h-3.07v1zm9.211 0h6.141v-1h-6.141v1zm12.281 0h6.141v-1h-6.141v1zm12.281 0h6.141v-1h-6.141v1zm12.282 0h6.14v-1h-6.14v1zm12.281 0h6.141v-1h-6.141v1zm12.281 0h6.141v-1h-6.141v1zm12.281 0h6.141v-1h-6.141v1zm12.282 0H393v-1h-3.07v1zm3.57-.5v-3.312h-1V194h1zm0-9.938v-6.624h-1v6.624h1zm0-13.25v-6.624h-1v6.624h1zm0-13.25v-6.624h-1v6.624h1zm0-13.25V141h-1v3.312h1zm0-3.312v-2.812h-1V141h1zm0-8.438v-5.624h-1v5.624h1zm0-11.25v-5.624h-1v5.624h1zm0-11.25v-5.624h-1v5.624h1zm0-11.249V96h-1v2.813h1zm0-2.812v-2.875h-1V96h1zm0-8.625v-5.75h-1v5.75h1zm0-11.5v-5.75h-1v5.75h1zm0-11.5v-5.75h-1v5.75h1zm0-11.5V50h-1v2.875h1zM393 50h1v-1h-1v1zm0 144v1h1v-1h-1zM0 194h-1v1h1v-1zM0 17l-.676-.737-.324.297V17h1zM12 6V5h-.389l-.287.263L12 6zm260.111 0l.874-.486L272.7 5h-.589v1zm24.445 44l-.875.486.286.514h.589v-1zM393 49h-3.014v2H393v-2zm-9.042 0h-6.027v2h6.027v-2zm-12.055 0h-6.028v2h6.028v-2zm-12.056 0h-6.028v2h6.028v-2zm-12.055 0h-6.028v2h6.028v-2zm-12.056 0h-6.028v2h6.028v-2zm-12.055 0h-6.028v2h6.028v-2zm-12.056 0h-6.028v2h6.028v-2zm-12.056 0h-3.013v2h3.013v-2zm-2.139.514l-1.528-2.75-1.748.971 1.527 2.75 1.749-.971zm-4.584-8.25l-3.055-5.5-1.748.971 3.055 5.5 1.748-.971zm-6.111-11l-3.055-5.5-1.749.971 3.056 5.5 1.748-.971zm-6.111-11l-3.055-5.5-1.749.971 3.056 5.5 1.748-.971zm-6.111-11l-1.528-2.75-1.748.971 1.528 2.75 1.748-.971zM272.111 5H268.8v2h3.311V5zm-9.932 0h-6.622v2h6.622V5zm-13.243 0h-3.311v2h3.311V5zm-3.311 0h-3.07v2h3.07V5zm-9.211 0h-6.141v2h6.141V5zm-12.281 0h-6.141v2h6.141V5zm-12.281 0h-6.141v2h6.141V5zM199.57 5h-3.07v2h3.07V5zm-3.07 0h-3.07v2h3.07V5zm-9.211 0h-6.141v2h6.141V5zm-12.281 0h-6.141v2h6.141V5zm-12.281 0h-6.141v2h6.141V5zm-12.282 0h-6.14v2h6.14V5zm-12.281 0h-6.141v2h6.141V5zm-12.281 0h-6.141v2h6.141V5zm-12.281 0h-6.141v2h6.141V5zM101.32 5h-3.07v2h3.07V5zm-3.07 0h-3.07v2h3.07V5zm-9.211 0h-6.141v2h6.141V5zM76.758 5h-6.141v2h6.141V5zM64.477 5h-6.141v2h6.141V5zM52.195 5h-3.07v2h3.07V5zm-3.07 0h-3.07v2h3.07V5zm-9.211 0h-6.141v2h6.141V5zM27.633 5h-3.07v2h3.07V5zm-3.07 0h-3.141v2h3.141V5zm-9.422 0H12v2h3.141V5zm-3.816.263l-3 2.75 1.351 1.474 3-2.75-1.351-1.474zm-9 8.25l-3 2.75 1.351 1.474 3-2.75-1.351-1.474zM-1 17v2.875h2V17h-2zm0 8.625V28.5h2v-2.875h-2zm0 2.875v2.813h2V28.5h-2zm0 8.438v5.625h2v-5.625h-2zm0 11.25V51h2v-2.812h-2zM-1 51v2.813h2V51h-2zm0 8.438v5.625h2v-5.625h-2zm0 11.25v5.625h2v-5.625h-2zm0 11.25v5.625h2v-5.625h-2zm0 11.25V96h2v-2.812h-2zM-1 96v3.063h2V96h-2zm0 9.188v6.124h2v-6.124h-2zm0 12.25v6.124h2v-6.124h-2zm0 12.25v6.124h2v-6.124h-2zm0 12.25v6.124h2v-6.124h-2zm0 12.25v6.124h2v-6.124h-2zm0 12.25v6.124h2v-6.124h-2zm0 12.25v6.124h2v-6.124h-2zm0 12.25V194h2v-3.062h-2zM0 195h3.07v-2H0v2zm9.211 0h6.141v-2H9.211v2zm12.281 0h6.141v-2h-6.141v2zm12.281 0h6.141v-2h-6.141v2zm12.281 0h6.141v-2h-6.141v2zm12.281 0h6.141v-2h-6.141v2zm12.281 0h6.141v-2h-6.141v2zm12.281 0h6.141v-2h-6.141v2zm12.281 0h6.14v-2h-6.14v2zm12.281 0h6.141v-2h-6.141v2zm12.281 0h6.141v-2h-6.141v2zm12.281 0h6.141v-2h-6.141v2zm12.282 0h6.14v-2h-6.14v2zm12.281 0h6.141v-2h-6.141v2zm12.281 0h6.141v-2h-6.141v2zm12.281 0h6.141v-2h-6.141v2zm12.282 0h3.07v-2h-3.07v2zm3.07 0h3.07v-2h-3.07v2zm9.211 0h6.141v-2h-6.141v2zm12.281 0h6.141v-2h-6.141v2zm12.281 0h6.141v-2h-6.141v2zm12.282 0h6.14v-2h-6.14v2zm12.281 0h6.141v-2h-6.141v2zm12.281 0h6.141v-2h-6.141v2zm12.281 0h6.141v-2h-6.141v2zm12.282 0h3.07v-2h-3.07v2zm3.07 0h3.07v-2h-3.07v2zm9.211 0h6.141v-2h-6.141v2zm12.281 0h6.141v-2h-6.141v2zm12.281 0h6.141v-2h-6.141v2zm12.282 0h6.14v-2h-6.14v2zm12.281 0h6.141v-2h-6.141v2zm12.281 0h6.141v-2h-6.141v2zm12.281 0h6.141v-2h-6.141v2zm12.282 0H393v-2h-3.07v2zm4.07-1v-3.312h-2V194h2zm0-9.938v-6.624h-2v6.624h2zm0-13.25v-6.624h-2v6.624h2zm0-13.25v-6.624h-2v6.624h2zm0-13.25V141h-2v3.312h2zm0-3.312v-2.812h-2V141h2zm0-8.438v-5.624h-2v5.624h2zm0-11.25v-5.624h-2v5.624h2zm0-11.25v-5.624h-2v5.624h2zm0-11.249V96h-2v2.813h2zM394 96v-2.875h-2V96h2zm0-8.625v-5.75h-2v5.75h2zm0-11.5v-5.75h-2v5.75h2zm0-11.5v-5.75h-2v5.75h2zm0-11.5V50h-2v2.875h2z" mask="url(#A)"/><path d="M393 45L367.788 0H274l25.212 45H393z"/></g><g fill-rule="evenodd"><path d="M114.329 6.042H17l9.482 22.592h87.847v-.058h.251l9.482-22.535h-9.733z" fill="#6c4b0e"/><path d="M27.974 4h94.571l-9.213 22.535h-.244v.058H27.73L18.517 4h9.457 0z" fill="#2d2d2d"/></g><g clip-path="url(#B)"><path fill-rule="evenodd" d="M50.24 10h.96 4.08L59 20.32 55.28 22l-.729-3.096h0l-.591-2.514h0l-.6-2.55-1.15 3.269 1.3-.534.591 2.514-7.027 2.881L47 22h0 0l.001-.001 2.951-8.43 2.508-1.828-2.038.483.553-1.58L50.24 10zm8.187 7.315l-.867-2.404L59 14.32l-.573 2.995z" fill="#f5f1ee"/></g><path d="M65.411 19.5l-.257-1.069h-1.623l-.217 1.069h-1.68l1.743-6.234-.137-.463h2.36l1.909 6.697h-2.097zm-1.143-4.731l-.503 2.497h1.109l-.606-2.497zm7.517 4.731h-4.051v-6.697H71.7l-.114 1.349-1.96-.057v1.291h1.543v1.337l-1.543-.114v1.52l2.16-.057V19.5zm2.399-2.229V19.5h-1.897v-6.697h.754l.817-.023.897-.029c.823 0 1.436.181 1.84.543s.611.916.611 1.663c0 .442-.097.834-.291 1.177a2.24 2.24 0 0 1-.76.817.8.8 0 0 1 .44.291 1.65 1.65 0 0 1 .291.543l.177.629.177.623c.069.206.143.36.223.463h-2.109c-.042-.053-.074-.202-.097-.446l-.097-.886c-.038-.347-.093-.636-.166-.869h-.029-.234l-.212-.011-.194-.011-.143-.006zm0-1.063h.183l.24-.012a1.68 1.68 0 0 0 .211-.04c.08-.023.145-.057.194-.103a.78.78 0 0 0 .148-.177c.046-.072.08-.166.103-.28s.034-.248.034-.4v-.451c0-.331-.088-.562-.263-.691s-.419-.2-.743-.2h-.109v2.354zM81.88 19.5h-4.051v-6.697h3.966l-.114 1.349-1.96-.057v1.291h1.543v1.337l-1.543-.114v1.52l2.16-.057V19.5zm2.336 0h-1.817v-6.16l-.28-.537h2.103l1.052 2.171 1.006 2.166-.28-2.543v-1.794h1.823V19.5h-1.743l-1.36-2.646-.84-1.657.337 2.194V19.5zm7.663 0l-.257-1.069h-1.623l-.217 1.069h-1.68l1.743-6.234-.137-.463h2.36l1.909 6.697h-2.097zm-1.143-4.731l-.503 2.497h1.109l-.606-2.497z" fill="#f5f1ee"/><path d="M9 6H0v8.25L9 6z" fill="#ab750f"/><defs><clipPath id="B"><path fill="#fff" transform="translate(47 10)" d="M0 0h12v12H0z"/></clipPath></defs></svg>