<svg width="1080" height="1080" viewBox="0 0 1080 1080" fill="none" xmlns="http://www.w3.org/2000/svg">
<g id="dream-team" clip-path="url(#clip0_3464_31671)">
<rect width="1080" height="1080" fill="#F5F1EE"/>
<g id="Waves" opacity="0.15">
<g id="Group" opacity="0.25">
<path id="Vector" d="M898.769 180.377C893.132 212.554 879.391 241.517 862.201 269.541C839.597 306.392 814.266 341.21 781.704 371.059C775.381 376.862 768.687 382.352 761.826 387.599C731.452 410.759 707.679 439.374 684.537 468.597C672.243 484.095 659.503 499.298 646.671 514.396C636.454 526.419 624.734 537.086 610.196 544.453C579.266 560.124 552.656 581.078 526.844 603.091C494.393 630.768 462.313 658.879 429.194 685.844C386.952 720.228 341.502 750.65 293.697 777.945C257.223 798.776 222.899 822.405 188.964 846.729C155.123 870.983 119.445 893.031 84.1942 915.513C49.759 937.492 15.8987 960.13 -16.3296 984.923C-43.0507 1005.48 -71.9598 1022.35 -102.575 1036.33C-112.848 1018.19 -126.756 1004.75 -141.572 994.792C-106.747 979.033 -73.8883 960.009 -44.1632 936.032C-21.1138 917.442 4.45753 902.24 31.2342 888.757C46.4769 881.078 61.8493 873.555 76.5172 865.007C105.556 848.102 134.743 831.318 162.8 813.023C198.755 789.568 236.806 769.518 275.302 750.198C332.101 721.687 383.615 686.765 427.803 642.721C453.171 617.442 482.432 596.28 509.747 573.068C543.014 544.783 576.41 516.394 606.896 485.589C627.034 465.244 642.091 440.486 659.559 417.795C677.62 394.305 695.125 370.398 714.318 347.742C723.682 336.675 735.568 327.137 747.603 318.45C782.168 293.483 806.608 261.132 827.748 226.019C842.508 201.487 851.669 175.339 856.601 147.661C864.742 101.863 878.668 57.5069 894.596 13.585C896.265 8.96338 897.823 4.27234 899.269 -0.436037L948.799 -0.436035C947.686 3.90747 946.499 8.23364 945.22 12.525C934.836 47.256 922.523 81.4658 912.472 116.266C906.409 137.254 902.533 158.85 898.769 180.36L898.769 180.377Z" fill="url(#paint0_linear_3464_31671)"/>
<path id="Vector_2" d="M418.96 28.9958C426.099 52.3641 443.604 64.9604 469.657 65.777C492.354 66.4893 513.104 59.8177 533.187 50.9394C546.223 45.1713 558.832 38.569 571.906 32.8877C577.802 30.3163 584.237 28.4921 590.653 27.3279C602.243 25.243 610.179 29.5344 614.63 39.9416C620.23 53.0244 620.304 66.7673 618.969 80.4929C615.798 113.139 605.729 143.961 586.685 171.395C556.885 214.326 533.836 260.333 512.159 307.122C501.589 329.934 490.389 352.607 477.501 374.308C461.313 401.568 437.429 423.233 413.489 444.569C389.754 465.731 365.017 485.954 342.079 507.846C328.449 520.859 316.934 535.922 305.4 550.69C281.868 580.782 257.354 610.075 230.28 637.457C202.28 665.76 167.919 685.844 132.371 704.521C77.39 733.415 22.5758 762.551 -32.3313 791.566C-57.8099 805.031 -80.2845 822.214 -101.647 840.77C-127.533 863.269 -156.35 881.634 -188.634 895.186C-205.249 902.153 -221.196 910.197 -236.698 918.988L-252.664 848.414C-251.774 847.876 -250.884 847.337 -249.994 846.816C-229.67 834.689 -208.401 823.969 -188.022 811.911C-163.489 797.404 -142.72 778.535 -121.618 760.067C-89.5563 731.973 -52.8588 709.647 -16.9217 686.348C6.62843 671.076 30.2713 655.891 53.0797 639.664C85.1597 616.834 108.228 586.724 127.624 554.061C158.147 502.668 182.679 448.756 203.986 393.506C205.803 388.815 206.879 383.864 208.14 378.999C211.997 363.987 209.104 350.192 200.982 336.693C188.929 316.712 177.877 296.193 166.435 275.883C149.264 245.426 144.072 213.197 150.395 179.317C157.609 140.677 166.473 102.471 182.438 65.9855C192.823 42.2523 206.953 20.5693 222.381 -0.41878L414.936 -0.418771C414.843 9.38024 415.974 19.1794 418.978 28.9958L418.96 28.9958Z" fill="url(#paint1_linear_3464_31671)"/>
<path id="Vector_3" d="M995.139 1027.98C971.718 1043.39 947.204 1057.37 923.709 1072.7C920.019 1075.1 916.348 1077.53 912.676 1079.94C858.604 1080.01 787.453 1080.01 707.92 1079.98C737.552 1061.79 767.185 1043.58 796.372 1024.76C857.491 985.375 918.332 945.571 978.171 904.515C1005.02 886.081 1029.18 864.207 1054.5 843.81C1076.19 826.314 1099.89 812.172 1125.04 800.652C1059.69 882.294 1033.71 956.29 1023.68 1007.49C1014.46 1014.65 1005 1021.51 995.157 1027.99L995.139 1027.98Z" fill="url(#paint2_linear_3464_31671)"/>
<path id="Vector_4" d="M821.406 121.461C813.525 169.066 793.053 211.129 759.434 247.51C753.667 253.765 747.214 259.69 740.149 264.607C707.661 287.176 682.757 315.878 660.783 347.325C638.661 378.998 615.797 410.22 592.803 441.337C563.875 480.481 528.55 514.413 491.463 546.59C455.434 577.828 419.404 608.928 386.434 643.12C352.091 678.755 311.221 706.797 265.901 728.914C210.661 755.879 157.163 785.502 104.963 817.349C75.4607 835.348 44.7899 851.732 13.9522 867.647C-18.7398 884.517 -47.8529 905.905 -77.6707 926.598C-106.635 946.7 -136.806 964.699 -168.218 980.51C-198.722 967.688 -225.981 966.489 -225.981 966.489L-231.581 941.696C-212.444 930.576 -192.751 920.221 -172.65 910.77C-139.439 895.133 -108.675 876.473 -81.3608 852.827C-56.4941 831.3 -27.9002 814.882 1.4911 799.471C62.7956 767.329 123.748 734.561 185.293 702.836C227.739 680.944 263.083 651.738 293.049 616.382C316.896 588.253 339.5 559.082 365.09 532.412C385.525 511.094 409.39 492.625 432.143 473.305C457.826 451.501 484.788 430.669 503.535 402.975C518.073 381.5 530.757 358.879 543.663 336.466C556.884 313.55 569.568 290.355 582.159 267.126C601.296 231.821 626.367 200.2 650.677 168.041C667.941 145.211 685.539 122.399 695.793 95.7469C707.772 64.6297 715.171 32.4875 717.749 -0.453985L850.056 -0.453979C849.926 -0.106445 849.815 0.258362 849.685 0.605835C835.406 39.8715 828.137 80.6313 821.388 121.426L821.406 121.461Z" fill="url(#paint3_linear_3464_31671)"/>
<path id="Vector_5" d="M141.957 70.9015C128.364 102.783 114.79 134.682 102.2 166.911C85.1952 210.434 86.4191 254.408 101.606 298.121C111.175 325.659 116.552 354.014 118.685 382.647C119.779 397.31 117.016 412.895 112.584 427.124C99.9372 467.624 85.8257 507.741 71.7327 547.84C63.7405 570.6 50.1482 590.442 31.1597 606.548C17.1224 618.449 2.39884 629.69 -12.4915 640.653C-43.6073 663.552 -75.3722 685.652 -106.154 708.916C-119.747 719.184 -131.948 731.138 -144.168 742.883C-170.648 768.319 -200.967 788.699 -234.994 804.231C-243.487 808.105 -251.72 812.327 -259.823 816.758L-280.889 723.632C-280.147 723.354 -279.424 723.094 -278.682 722.816C-249.105 711.852 -224.443 694.339 -204.193 671.579C-176.823 640.809 -152.012 608.337 -132.523 572.546C-119.728 549.074 -112.57 524.229 -110.234 497.837C-107.434 466.025 -109.01 434.144 -107.601 402.384C-105.783 361.415 -105.672 320.117 -94.4162 279.965C-85.0147 246.416 -69.8091 214.951 -55.2896 183.208C-34.762 138.348 -6.40921 98.3353 28.3411 62.2491C47.07 42.8074 62.702 21.802 75.9606 -0.41956L181.194 -0.419556C166.248 22.4101 152.619 45.9523 141.975 70.9189L141.957 70.9015Z" fill="url(#paint4_linear_3464_31671)"/>
<path id="Vector_6" d="M1015.33 230.935C1006.71 279.6 989.557 325.52 960.871 367.183C939.991 397.536 917.739 427.072 897.434 457.755C875.775 490.488 845.864 514.065 809.056 529.545C770.319 545.842 735.068 566.726 702.765 592.335C682.553 608.372 660.579 621.958 636.899 633.147C628.814 636.97 620.933 641.226 613.182 645.622C576.484 666.454 544.497 693.088 512.287 719.236C463.759 758.658 413.284 795.492 360.046 829.163C329.672 848.379 298.853 867.49 271.223 889.885C224.586 927.692 178.191 965.706 129.329 1000.96C92.3903 1027.61 55.7114 1054.61 17.0855 1079.09C-15.4581 1079.04 -41.7712 1078.99 -59.8882 1078.95C-24.3035 1061.58 9.35291 1041.46 41.0621 1017.86C87.2166 983.515 135.226 951.373 181.769 917.458C209.084 897.547 234.247 874.996 261.914 855.537C294.198 832.829 328.04 812.067 361.381 790.714C428.174 747.938 487.235 696.407 547.371 646.143C573.87 624.008 602 604.74 634.321 590.546C648.322 584.413 661.283 575.604 673.392 566.465C686.688 556.44 698.945 545.095 710.776 533.541C738.294 506.698 769.484 484.494 803.994 466.199C820.312 457.546 834.942 446.792 846.031 432.545C870.175 401.48 894.504 370.537 917.572 338.777C946.259 299.268 964.598 255.78 971.162 208.088C974.482 183.99 977.282 159.649 983.29 136.072C993.025 97.8314 1005 60.0773 1016.41 22.219C1017.08 19.9777 1017.72 17.7364 1018.34 15.4951C1020.97 52.5717 1028.46 87.042 1038.86 118.524C1029.63 155.705 1021.97 193.198 1015.3 230.935L1015.33 230.935Z" fill="url(#paint5_linear_3464_31671)"/>
<path id="Vector_7" d="M826.82 946.212C843.528 936.048 861.478 927.674 879.001 918.726C882.172 917.111 886.011 916.659 889.553 915.669C890.016 916.381 890.48 917.093 890.943 917.806C886.66 921.767 882.692 926.093 878.056 929.655C850.259 950.903 823.037 972.882 794.258 992.897C751.571 1022.59 708.18 1051.45 664.566 1079.94C644.91 1079.94 624.864 1079.91 604.541 1079.89C625.272 1069.48 645.484 1058.14 665.27 1046.04C719.269 1013 772.729 979.136 826.82 946.212Z" fill="url(#paint6_linear_3464_31671)"/>
<path id="Vector_8" d="M255.387 936.275C295.2 903.785 337.108 874.492 381.222 847.562C410.91 829.441 439.912 810.312 468.599 790.818C502.626 767.693 535.67 743.283 569.716 720.175C610.104 692.759 657.538 677.904 701.374 656.568C703.025 655.769 705.102 655.699 706.974 655.282C707.364 655.821 707.772 656.36 708.161 656.916C704.564 660.408 701.43 664.473 697.295 667.288C681.477 678.06 666.123 689.735 649.193 698.735C594.231 727.889 544.423 763.715 495.376 800.6C466.448 822.353 438.392 845.147 408.852 866.118C364.793 897.409 320.789 928.544 283.165 966.94C249.583 1001.22 214.795 1034.47 181.065 1068.65C177.579 1072.18 174.167 1075.74 170.848 1079.39C133.038 1079.33 97.8052 1079.26 66.2814 1079.21C76.8511 1071.85 87.3467 1064.37 97.6939 1056.73C150.951 1017.38 204.281 978.025 255.406 936.31L255.387 936.275Z" fill="url(#paint7_linear_3464_31671)"/>
<path id="Vector_9" d="M1230.29 659.401C1204.51 669.113 1178.72 678.808 1152.7 687.894C1138.46 692.863 1123.74 696.703 1109.16 700.838C1078.9 709.456 1052.22 724.971 1024.66 738.853C980.082 761.317 941.141 791.253 902.033 820.824C854.895 856.458 809.501 894.16 761.641 928.891C717.359 961.034 670.945 990.778 620.729 1014.46C599.312 1024.57 576.54 1032.42 553.806 1039.76C531.61 1046.91 510.081 1054.92 491.537 1068.58C485.678 1072.89 479.595 1076.57 473.328 1079.75C427.915 1079.7 382.428 1079.65 338.091 1079.58C337.479 1076.26 337.405 1072.61 337.924 1068.65C340.001 1052.56 347.066 1038.3 355.892 1024.68C371.599 1000.42 392.961 981.014 415.528 962.424C446.31 937.04 476.425 910.927 506.669 884.969C534.632 860.976 560.853 834.949 592.784 815.525C613.776 802.738 636.287 791.965 658.706 781.402C727.669 748.93 792.775 711.037 851.724 664.126C861.144 656.638 871.288 649.949 881.19 642.999C896.878 631.984 909.728 618.589 920.391 603.195C940.38 574.371 959.554 545.252 974.296 513.544C985.348 489.742 1002.3 468.997 1020.32 449.277C1047.13 419.967 1070.15 388.363 1088.91 353.928C1097.7 337.787 1107.35 321.942 1117.93 306.774C1123.18 299.268 1128 291.607 1132.43 283.823C1137.22 289.522 1141.78 294.734 1146.05 299.407C1112.2 355.022 1077.45 410.116 1030.11 457.269C1003.45 483.834 985.367 515.56 969.586 548.883C954.733 580.226 937.766 610.996 915.106 638.135C904.054 651.356 889.33 661.92 876.072 673.474C835.443 708.847 794.592 743.961 754.149 779.508C745.174 787.396 737.182 796.379 729.431 805.378C726.056 809.305 723.868 814.378 722.217 819.26C720.623 824.021 723.274 828.243 728.596 828.608C735.439 829.094 742.652 829.112 749.272 827.635C775.326 821.832 798.356 809.583 820.071 795.475C853.95 773.462 887.031 750.389 920.724 728.133C942.439 713.782 964.746 700.212 986.572 686C993.841 681.275 1000.68 675.906 1007.32 670.433C1028.52 652.92 1053.83 645.223 1081.38 643.295C1130.82 639.837 1179.39 631.88 1227.38 620.309C1237.45 617.876 1246.83 614.419 1255.71 610.075C1251.43 626.754 1245.81 641.939 1239.58 655.578C1236.52 656.916 1233.42 658.202 1230.27 659.401L1230.29 659.401Z" fill="url(#paint8_linear_3464_31671)"/>
<path id="Vector_10" d="M1261.53 580.782C1252.91 585.908 1243.6 589.904 1233.18 592.075C1187.51 601.562 1141.43 606.34 1094.55 602.1C1061.99 599.164 1031.48 604.706 1005.71 624.721C994.509 633.426 984.588 643.625 974.389 653.441C958.85 668.4 941.679 681.153 920.891 689.11C917.869 690.274 914.457 690.535 911.23 691.212C910.748 690.622 910.247 690.031 909.765 689.44C912.12 685.774 914.253 681.987 916.849 678.477C926.436 665.481 937.655 653.302 945.554 639.455C961.279 611.934 976.299 583.944 989.632 555.329C1004.89 522.613 1025.57 493.737 1052.53 468.771C1093.6 430.721 1129.8 389.406 1159.06 342.356C1162.86 336.241 1166.5 330.055 1169.97 323.853C1173.9 327.519 1176.14 329.43 1176.14 329.43C1187.55 339.385 1197.47 350.07 1206.13 361.138C1197.45 383.064 1187.88 404.66 1176.18 425.405C1166.96 441.737 1155.19 456.783 1144.82 472.541C1138.55 482.045 1131.77 491.392 1126.95 501.538C1119.25 517.714 1123.2 530.953 1137.61 542.489C1151.05 553.261 1167.07 558.561 1184.37 560.506C1196.63 561.896 1208.96 562.835 1221.29 563.512C1237.46 564.416 1251.33 559.968 1264 552.671C1263.67 562.383 1262.83 571.765 1261.55 580.782L1261.53 580.782Z" fill="url(#paint9_linear_3464_31671)"/>
<path id="Vector_11" d="M898.51 567.195C912.751 549.212 928.587 532.325 938.545 511.684C952.712 482.339 971.144 455.409 991.097 429.313C1013.13 400.507 1032.6 370.397 1045.99 337.021C1054.09 316.798 1062.29 296.574 1071.63 276.837C1079.1 261.044 1085.97 245.094 1092.05 228.919C1096.07 235.191 1100.11 241.185 1104.14 246.919C1098.07 260.836 1091.29 274.526 1083.81 288.026C1072.47 308.528 1063.34 330.124 1053.63 351.39C1039.31 382.698 1019.52 410.844 997.81 437.913C976.949 463.94 959.87 491.964 944.59 521.205C935.708 538.214 923.228 553.625 911.75 569.366C904.333 579.548 896.878 590.076 887.458 598.503C875.034 609.622 861.238 619.612 847.015 628.699C808.204 653.492 769.355 678.302 729.524 701.601C704.249 716.387 677.398 728.896 650.863 741.683C601.315 765.556 555.939 795.231 512.622 827.79C481.599 851.089 451.188 875.1 420.368 898.624C394.185 918.605 366.667 937.212 341.856 958.565C319.474 977.833 299.243 999.429 279.401 1021.08C262.267 1039.75 246.097 1059.32 230.929 1079.44C220.063 1079.44 209.344 1079.4 198.793 1079.39C201.834 1075.74 204.987 1072.16 208.213 1068.65C230.577 1044.43 254.145 1021.18 276.861 997.24C309.683 962.631 345.509 931.166 385.136 903.42C415.491 882.154 445.921 860.853 474.923 838.041C521.615 801.329 570.422 767.536 622.955 738.608C650.64 723.354 679.661 710.184 707.086 694.547C750.218 669.98 792.182 643.589 835.333 619.039C859.828 605.105 881.394 588.877 898.566 567.195L898.51 567.195Z" fill="url(#paint10_linear_3464_31671)"/>
<path id="Vector_12" d="M844.511 907.572C791.18 947.151 737.312 985.947 680.643 1021.3C645.67 1043.13 609.937 1063.54 571.849 1079.87C560.055 1079.87 548.188 1079.85 536.283 1079.84C542.643 1077.28 549.115 1074.89 555.661 1072.57C604.782 1055.34 648.711 1029.12 692.233 1002C748.827 966.749 800.712 925.937 853.634 886.272C902.57 849.595 952.23 813.578 1006.12 783.486C1055.66 755.809 1107.23 731.676 1163.36 717.151C1179.91 712.877 1196.19 707.752 1212.45 702.574C1204.23 714.093 1196.67 722.902 1191.2 728.775C1138.55 741.701 1088.99 762.22 1041.2 786.526C972.108 821.674 906.186 861.809 844.53 907.572L844.511 907.572Z" fill="url(#paint11_linear_3464_31671)"/>
<path id="Vector_13" d="M1020.97 430.53C994.509 461.577 970.81 494.05 953.973 530.814C941.289 558.508 920.78 581.824 902.682 606.426C898.064 612.698 892.093 618.397 885.733 623.175C869.675 635.25 852.837 646.404 836.686 658.375C788.714 693.957 738.053 725.526 683.295 751.309C657.538 763.436 631.967 775.981 606.915 789.307C569.92 808.974 539.12 836.321 506.928 861.913C472.215 889.503 437.706 917.32 402.399 944.215C366.629 971.475 334.957 1002.11 309.274 1038C299.947 1051.05 291.658 1064.58 286.8 1079.52C275.97 1079.52 265.234 1079.49 254.627 1079.47C258.781 1071.72 263.787 1064.34 269.184 1057.18C305.473 1008.97 346.751 964.96 397.578 929.655C434.201 904.219 468.952 876.699 503.22 848.622C557.07 804.526 616.112 767.936 680.717 739.043C733.381 715.501 781.426 684.922 828.063 652.311C837.632 645.622 847.274 638.95 857.306 632.887C880.986 618.605 898.639 599.233 914.754 577.811C932.537 554.199 947.167 529.215 961.112 503.519C972.813 481.975 987.166 461.351 1002.85 442.118C1031.21 407.353 1054.44 370.172 1072.58 329.881C1081.03 311.082 1091.64 293.083 1102.04 275.118C1105.44 269.245 1108.59 263.303 1111.55 257.292C1114.22 260.923 1116.9 264.433 1119.51 267.82C1117.43 271.747 1115.26 275.639 1112.98 279.496C1099.61 302.1 1085.96 324.651 1074.21 348.002C1059.43 377.313 1042.52 405.25 1020.95 430.547L1020.97 430.53Z" fill="url(#paint12_linear_3464_31671)"/>
<path id="Vector_14" d="M941.289 813.666C883.804 854.512 828.767 898.191 772.08 939.924C717.674 979.989 661.19 1017.74 598.495 1046.11C579.637 1054.65 559.943 1061.68 540.325 1068.6C531.09 1071.86 522.133 1075.49 513.566 1079.82C507.558 1079.82 501.532 1079.82 495.505 1079.8C512.083 1069.17 529.94 1061 549.207 1055.1C581.992 1045.06 613.423 1031.89 642.832 1015C707.92 977.608 769.577 935.858 827.432 888.983C877.777 848.188 929.736 809.009 985.07 774.313C1033.58 743.891 1085.24 718.837 1141.84 703.253C1170.41 695.382 1198.23 684.958 1226.04 674.846C1227.65 674.255 1229.27 673.665 1230.88 673.074C1228.23 677.956 1225.54 682.577 1222.85 686.921C1216.7 688.989 1210.54 691.004 1204.38 693.037C1171.6 703.896 1137.9 712.635 1105.92 725.179C1047.23 748.182 992.227 777.51 941.307 813.683L941.289 813.666Z" fill="url(#paint13_linear_3464_31671)"/>
<path id="Vector_15" d="M-210.034 616.642C-194.939 588.53 -179.919 560.384 -170.944 529.875C-163.527 504.648 -160.801 478.691 -158.947 452.734C-157.185 428.097 -157.018 403.374 -155.869 378.702C-154.793 355.404 -154.107 332.035 -151.9 308.823C-148.952 277.654 -138.345 248.431 -121.619 221.414C-98.4766 184.007 -76.1133 146.08 -50.7274 110.046C-31.8502 83.2545 -9.43112 58.4963 12.7468 33.8945C22.649 22.8966 31.4755 11.4297 39.4121 -0.436829L57.1211 -0.436829C47.1077 15.4258 35.685 30.5934 22.5933 44.9619C2.54791 66.9576 -17.0711 89.4572 -34.7058 113.156C-61.4083 149.016 -80.3226 189.098 -101.073 228.12C-115.129 254.547 -125.198 282.328 -128.053 311.847C-130.594 338.134 -132.114 364.542 -133.412 390.916C-134.822 419.619 -134.989 448.39 -136.583 477.092C-137.789 499.053 -140.589 520.91 -148.229 541.915C-163.008 582.502 -186.02 618.987 -212.463 653.631C-231.284 678.303 -255.428 696.424 -284.337 708.343L-287.749 693.262C-253.889 676.652 -228.355 650.747 -210.034 616.624L-210.034 616.642Z" fill="url(#paint14_linear_3464_31671)"/>
<path id="Vector_16" d="M964.526 1065.35C983.57 1054.56 1002.19 1043.11 1019.93 1030.58C1019.02 1037.85 1018.45 1044.4 1018.1 1050.16C1001.5 1060.73 984.163 1070.34 966.788 1079.82C958.536 1079.86 949.413 1079.87 939.455 1079.89C947.763 1074.97 956.107 1070.11 964.526 1065.35Z" fill="url(#paint15_linear_3464_31671)"/>
<path id="Vector_17" d="M-222.253 564.746C-209.996 535.766 -200.224 506.108 -196.682 475.008C-194.123 452.595 -192.361 430.113 -190.822 407.614C-188.875 379.137 -187.373 350.644 -185.964 322.133C-184.369 289.799 -178.769 258.282 -161.913 229.632C-152.085 212.936 -140.718 197.004 -129.444 181.089C-90.3541 125.891 -50.0407 71.5621 -4.09014 21.038C2.21462 14.0884 8.18562 6.93024 13.7857 -0.453797L27.4522 -0.453796C20.0905 9.91858 11.9869 19.9435 3.04902 29.5167C-43.2724 79.1547 -81.583 134.005 -118.243 190.019C-133.671 213.579 -149.526 236.825 -158.371 263.495C-164.398 281.633 -167.847 300.206 -168.7 319.179C-170.517 359.661 -172.186 400.143 -174.041 440.625C-177.1 507.307 -198.536 568.985 -232.693 627.032C-246.916 651.2 -266.553 668.939 -290.326 681.726L-293.497 667.722C-270.04 652.92 -251.774 632.47 -239.443 605.645C-233.25 592.197 -228.002 578.367 -222.235 564.728L-222.253 564.746Z" fill="url(#paint16_linear_3464_31671)"/>
</g>
</g>
<path id="Vector 155" d="M1080 825C1080 1032.6 794.5 1080 782 1080H1080V825Z" fill="#212121"/>
<g id="Frame 35919">
<g id="logos:telegram" clip-path="url(#clip1_3464_31671)">
<path id="Vector_18" d="M33.5 1041C30.981 1041 28.563 1042 26.7832 1043.78C25.0016 1045.56 24.0005 1047.98 24 1050.5C24 1053.02 25.002 1055.44 26.7832 1057.22C28.563 1059 30.981 1060 33.5 1060C36.019 1060 38.437 1059 40.2168 1057.22C41.998 1055.44 43 1053.02 43 1050.5C43 1047.98 41.998 1045.56 40.2168 1043.78C38.437 1042 36.019 1041 33.5 1041Z" fill="#212121"/>
<path id="Vector_19" d="M28.7091 1050.68C31.4789 1049.47 33.3255 1048.68 34.2488 1048.29C36.888 1047.2 37.4357 1047.01 37.7935 1047C37.8722 1047 38.0473 1047.02 38.1616 1047.11C38.2566 1047.19 38.2833 1047.29 38.2967 1047.37C38.3086 1047.44 38.3249 1047.61 38.3115 1047.74C38.169 1049.24 37.55 1052.89 37.2354 1054.57C37.1032 1055.28 36.8405 1055.52 36.5867 1055.55C36.0345 1055.6 35.6159 1055.18 35.0815 1054.83C34.2458 1054.28 33.7738 1053.94 32.9618 1053.41C32.0237 1052.79 32.6323 1052.45 33.1667 1051.89C33.3062 1051.75 35.7376 1049.54 35.7836 1049.34C35.7896 1049.31 35.7955 1049.22 35.7391 1049.17C35.6842 1049.12 35.6025 1049.14 35.5432 1049.15C35.4586 1049.17 34.1241 1050.05 31.5354 1051.8C31.1568 1052.06 30.8139 1052.19 30.5052 1052.18C30.1668 1052.17 29.5136 1051.99 29.0282 1051.83C28.4345 1051.64 27.961 1051.53 28.0025 1051.21C28.0233 1051.03 28.2593 1050.86 28.7091 1050.68Z" fill="#F5F1EE"/>
</g>
<path id="t.me/aerena_bot" d="M56.5589 1057.6C55.5736 1057.6 54.8146 1057.33 54.2819 1056.8C53.7493 1056.27 53.483 1055.52 53.483 1054.54V1044.7H54.9011V1054.46C54.9011 1055.08 55.0543 1055.55 55.3605 1055.88C55.6801 1056.22 56.1328 1056.38 56.7187 1056.38C57.3446 1056.38 57.8639 1056.2 58.2767 1055.84L58.776 1056.86C58.4964 1057.11 58.1568 1057.3 57.7574 1057.42C57.3712 1057.54 56.9717 1057.6 56.5589 1057.6ZM51.6055 1048.19V1047.01H58.0969V1048.19H51.6055ZM61.6925 1057.6C61.3995 1057.6 61.1465 1057.49 60.9335 1057.28C60.7337 1057.07 60.6339 1056.81 60.6339 1056.5C60.6339 1056.18 60.7337 1055.92 60.9335 1055.72C61.1465 1055.52 61.3995 1055.42 61.6925 1055.42C61.9854 1055.42 62.2318 1055.52 62.4315 1055.72C62.6446 1055.92 62.7511 1056.18 62.7511 1056.5C62.7511 1056.81 62.6446 1057.07 62.4315 1057.28C62.2318 1057.49 61.9854 1057.6 61.6925 1057.6ZM78.8881 1046.91C79.7403 1046.91 80.4793 1047.08 81.1052 1047.41C81.7443 1047.73 82.237 1048.23 82.5832 1048.89C82.9427 1049.56 83.1225 1050.4 83.1225 1051.41V1057.5H81.7044V1051.55C81.7044 1050.44 81.4381 1049.61 80.9054 1049.05C80.3861 1048.48 79.6471 1048.19 78.6884 1048.19C77.9693 1048.19 77.3435 1048.35 76.8108 1048.65C76.2915 1048.94 75.8854 1049.38 75.5924 1049.95C75.3128 1050.51 75.173 1051.19 75.173 1051.99V1057.5H73.7549V1051.55C73.7549 1050.44 73.4885 1049.61 72.9559 1049.05C72.4233 1048.48 71.6776 1048.19 70.7189 1048.19C70.0131 1048.19 69.3939 1048.35 68.8613 1048.65C68.3287 1048.94 67.9159 1049.38 67.6229 1049.95C67.3433 1050.51 67.2035 1051.19 67.2035 1051.99V1057.5H65.7854V1047.01H67.1436V1049.85L66.9239 1049.35C67.2434 1048.59 67.7561 1048 68.4618 1047.57C69.1809 1047.13 70.0264 1046.91 70.9985 1046.91C72.0238 1046.91 72.896 1047.17 73.615 1047.69C74.3341 1048.2 74.8001 1048.96 75.0132 1049.99L74.4539 1049.77C74.7602 1048.92 75.2995 1048.23 76.0718 1047.71C76.8574 1047.18 77.7962 1046.91 78.8881 1046.91ZM91.4225 1057.6C90.3306 1057.6 89.3719 1057.37 88.5463 1056.92C87.7207 1056.45 87.0749 1055.82 86.6088 1055.02C86.1428 1054.21 85.9098 1053.29 85.9098 1052.25C85.9098 1051.21 86.1295 1050.29 86.5689 1049.49C87.0216 1048.69 87.6342 1048.07 88.4065 1047.61C89.1921 1047.15 90.071 1046.91 91.043 1046.91C92.0284 1046.91 92.9006 1047.14 93.6596 1047.59C94.4319 1048.03 95.0377 1048.66 95.4772 1049.47C95.9166 1050.27 96.1363 1051.19 96.1363 1052.25C96.1363 1052.31 96.1296 1052.39 96.1163 1052.47C96.1163 1052.53 96.1163 1052.61 96.1163 1052.69H86.9883V1051.63H95.3573L94.7981 1052.05C94.7981 1051.29 94.6316 1050.62 94.2987 1050.03C93.9791 1049.43 93.5397 1048.96 92.9804 1048.63C92.4212 1048.3 91.7754 1048.13 91.043 1048.13C90.3239 1048.13 89.6781 1048.3 89.1056 1048.63C88.533 1048.96 88.0869 1049.43 87.7673 1050.03C87.4477 1050.63 87.288 1051.31 87.288 1052.09V1052.31C87.288 1053.11 87.4611 1053.81 87.8073 1054.42C88.1668 1055.02 88.6595 1055.5 89.2853 1055.84C89.9245 1056.18 90.6502 1056.34 91.4624 1056.34C92.1016 1056.34 92.6942 1056.23 93.2401 1056C93.7994 1055.78 94.2787 1055.43 94.6782 1054.96L95.4772 1055.88C95.0111 1056.44 94.4252 1056.87 93.7195 1057.16C93.0271 1057.45 92.2614 1057.6 91.4225 1057.6ZM98.3237 1057.5L101.819 1043.14H103.237L99.7418 1057.5H98.3237ZM113.065 1057.5V1055.18L113.005 1054.8V1050.93C113.005 1050.04 112.752 1049.35 112.246 1048.87C111.753 1048.39 111.014 1048.15 110.029 1048.15C109.35 1048.15 108.704 1048.27 108.091 1048.49C107.479 1048.72 106.959 1049.02 106.533 1049.39L105.894 1048.33C106.427 1047.88 107.066 1047.53 107.812 1047.29C108.557 1047.04 109.343 1046.91 110.169 1046.91C111.527 1046.91 112.572 1047.25 113.304 1047.93C114.05 1048.6 114.423 1049.62 114.423 1050.99V1057.5H113.065ZM109.45 1057.6C108.664 1057.6 107.978 1057.47 107.392 1057.22C106.82 1056.95 106.38 1056.59 106.074 1056.14C105.768 1055.68 105.615 1055.14 105.615 1054.54C105.615 1054 105.741 1053.51 105.994 1053.07C106.26 1052.61 106.686 1052.25 107.272 1051.99C107.872 1051.71 108.671 1051.57 109.669 1051.57H113.284V1052.63H109.709C108.697 1052.63 107.991 1052.81 107.592 1053.17C107.206 1053.53 107.013 1053.97 107.013 1054.5C107.013 1055.1 107.246 1055.58 107.712 1055.94C108.178 1056.3 108.83 1056.48 109.669 1056.48C110.468 1056.48 111.154 1056.3 111.727 1055.94C112.312 1055.57 112.739 1055.04 113.005 1054.34L113.324 1055.32C113.058 1056.02 112.592 1056.57 111.926 1056.98C111.274 1057.39 110.448 1057.6 109.45 1057.6ZM122.729 1057.6C121.637 1057.6 120.678 1057.37 119.853 1056.92C119.027 1056.45 118.381 1055.82 117.915 1055.02C117.449 1054.21 117.216 1053.29 117.216 1052.25C117.216 1051.21 117.436 1050.29 117.875 1049.49C118.328 1048.69 118.941 1048.07 119.713 1047.61C120.498 1047.15 121.377 1046.91 122.349 1046.91C123.335 1046.91 124.207 1047.14 124.966 1047.59C125.738 1048.03 126.344 1048.66 126.784 1049.47C127.223 1050.27 127.443 1051.19 127.443 1052.25C127.443 1052.31 127.436 1052.39 127.423 1052.47C127.423 1052.53 127.423 1052.61 127.423 1052.69H118.295V1051.63H126.664L126.104 1052.05C126.104 1051.29 125.938 1050.62 125.605 1050.03C125.286 1049.43 124.846 1048.96 124.287 1048.63C123.728 1048.3 123.082 1048.13 122.349 1048.13C121.63 1048.13 120.985 1048.3 120.412 1048.63C119.839 1048.96 119.393 1049.43 119.074 1050.03C118.754 1050.63 118.594 1051.31 118.594 1052.09V1052.31C118.594 1053.11 118.767 1053.81 119.114 1054.42C119.473 1055.02 119.966 1055.5 120.592 1055.84C121.231 1056.18 121.957 1056.34 122.769 1056.34C123.408 1056.34 124.001 1056.23 124.546 1056C125.106 1055.78 125.585 1055.43 125.985 1054.96L126.784 1055.88C126.317 1056.44 125.732 1056.87 125.026 1057.16C124.333 1057.45 123.568 1057.6 122.729 1057.6ZM130.329 1057.5V1047.01H131.687V1049.87L131.548 1049.37C131.841 1048.57 132.333 1047.97 133.026 1047.55C133.718 1047.13 134.577 1046.91 135.602 1046.91V1048.29C135.549 1048.29 135.496 1048.29 135.442 1048.29C135.389 1048.28 135.336 1048.27 135.283 1048.27C134.177 1048.27 133.312 1048.61 132.686 1049.29C132.06 1049.96 131.747 1050.91 131.747 1052.15V1057.5H130.329ZM142.546 1057.6C141.455 1057.6 140.496 1057.37 139.67 1056.92C138.845 1056.45 138.199 1055.82 137.733 1055.02C137.267 1054.21 137.034 1053.29 137.034 1052.25C137.034 1051.21 137.253 1050.29 137.693 1049.49C138.146 1048.69 138.758 1048.07 139.53 1047.61C140.316 1047.15 141.195 1046.91 142.167 1046.91C143.152 1046.91 144.025 1047.14 144.784 1047.59C145.556 1048.03 146.162 1048.66 146.601 1049.47C147.041 1050.27 147.26 1051.19 147.26 1052.25C147.26 1052.31 147.254 1052.39 147.24 1052.47C147.24 1052.53 147.24 1052.61 147.24 1052.69H138.112V1051.63H146.481L145.922 1052.05C145.922 1051.29 145.756 1050.62 145.423 1050.03C145.103 1049.43 144.664 1048.96 144.104 1048.63C143.545 1048.3 142.899 1048.13 142.167 1048.13C141.448 1048.13 140.802 1048.3 140.23 1048.63C139.657 1048.96 139.211 1049.43 138.891 1050.03C138.572 1050.63 138.412 1051.31 138.412 1052.09V1052.31C138.412 1053.11 138.585 1053.81 138.931 1054.42C139.291 1055.02 139.783 1055.5 140.409 1055.84C141.048 1056.18 141.774 1056.34 142.586 1056.34C143.226 1056.34 143.818 1056.23 144.364 1056C144.923 1055.78 145.403 1055.43 145.802 1054.96L146.601 1055.88C146.135 1056.44 145.549 1056.87 144.843 1057.16C144.151 1057.45 143.385 1057.6 142.546 1057.6ZM155.5 1046.91C156.352 1046.91 157.098 1047.08 157.737 1047.41C158.389 1047.73 158.895 1048.23 159.255 1048.89C159.628 1049.56 159.814 1050.4 159.814 1051.41V1057.5H158.396V1051.55C158.396 1050.44 158.116 1049.61 157.557 1049.05C157.011 1048.48 156.239 1048.19 155.24 1048.19C154.494 1048.19 153.842 1048.35 153.283 1048.65C152.737 1048.94 152.311 1049.38 152.004 1049.95C151.711 1050.51 151.565 1051.19 151.565 1051.99V1057.5H150.147V1047.01H151.505V1049.89L151.285 1049.35C151.618 1048.59 152.151 1048 152.883 1047.57C153.616 1047.13 154.488 1046.91 155.5 1046.91ZM170.216 1057.5V1055.18L170.156 1054.8V1050.93C170.156 1050.04 169.903 1049.35 169.397 1048.87C168.904 1048.39 168.165 1048.15 167.18 1048.15C166.501 1048.15 165.855 1048.27 165.242 1048.49C164.63 1048.72 164.111 1049.02 163.685 1049.39L163.045 1048.33C163.578 1047.88 164.217 1047.53 164.963 1047.29C165.709 1047.04 166.494 1046.91 167.32 1046.91C168.678 1046.91 169.723 1047.25 170.456 1047.93C171.201 1048.6 171.574 1049.62 171.574 1050.99V1057.5H170.216ZM166.601 1057.6C165.815 1057.6 165.129 1057.47 164.543 1057.22C163.971 1056.95 163.531 1056.59 163.225 1056.14C162.919 1055.68 162.766 1055.14 162.766 1054.54C162.766 1054 162.892 1053.51 163.145 1053.07C163.412 1052.61 163.838 1052.25 164.424 1051.99C165.023 1051.71 165.822 1051.57 166.82 1051.57H170.436V1052.63H166.86C165.848 1052.63 165.143 1052.81 164.743 1053.17C164.357 1053.53 164.164 1053.97 164.164 1054.5C164.164 1055.1 164.397 1055.58 164.863 1055.94C165.329 1056.3 165.982 1056.48 166.82 1056.48C167.619 1056.48 168.305 1056.3 168.878 1055.94C169.464 1055.57 169.89 1055.04 170.156 1054.34L170.476 1055.32C170.209 1056.02 169.743 1056.57 169.077 1056.98C168.425 1057.39 167.599 1057.6 166.601 1057.6ZM173.449 1058.46V1057.5H183.435V1058.46H173.449ZM190.826 1057.6C189.907 1057.6 189.081 1057.39 188.349 1056.98C187.617 1056.55 187.037 1055.94 186.611 1055.14C186.185 1054.34 185.972 1053.38 185.972 1052.25C185.972 1051.1 186.185 1050.14 186.611 1049.35C187.051 1048.55 187.637 1047.95 188.369 1047.53C189.101 1047.12 189.92 1046.91 190.826 1046.91C191.824 1046.91 192.716 1047.14 193.502 1047.59C194.301 1048.03 194.927 1048.65 195.38 1049.45C195.832 1050.25 196.059 1051.18 196.059 1052.25C196.059 1053.3 195.832 1054.23 195.38 1055.04C194.927 1055.84 194.301 1056.47 193.502 1056.92C192.716 1057.37 191.824 1057.6 190.826 1057.6ZM185.413 1057.5V1042.68H186.831V1050.11L186.631 1052.23L186.771 1054.34V1057.5H185.413ZM190.726 1056.34C191.471 1056.34 192.137 1056.18 192.723 1055.84C193.309 1055.5 193.775 1055.02 194.121 1054.4C194.468 1053.78 194.641 1053.06 194.641 1052.25C194.641 1051.42 194.468 1050.7 194.121 1050.09C193.775 1049.48 193.309 1049 192.723 1048.67C192.137 1048.33 191.471 1048.15 190.726 1048.15C189.98 1048.15 189.308 1048.33 188.708 1048.67C188.123 1049 187.656 1049.48 187.31 1050.09C186.977 1050.7 186.811 1051.42 186.811 1052.25C186.811 1053.06 186.977 1053.78 187.31 1054.4C187.656 1055.02 188.123 1055.5 188.708 1055.84C189.308 1056.18 189.98 1056.34 190.726 1056.34ZM203.224 1057.6C202.212 1057.6 201.3 1057.37 200.488 1056.92C199.689 1056.45 199.056 1055.82 198.59 1055.02C198.124 1054.21 197.891 1053.29 197.891 1052.25C197.891 1051.19 198.124 1050.27 198.59 1049.47C199.056 1048.67 199.689 1048.05 200.488 1047.59C201.287 1047.14 202.199 1046.91 203.224 1046.91C204.263 1046.91 205.181 1047.14 205.98 1047.59C206.793 1048.05 207.425 1048.67 207.878 1049.47C208.344 1050.27 208.577 1051.19 208.577 1052.25C208.577 1053.29 208.344 1054.21 207.878 1055.02C207.425 1055.82 206.793 1056.45 205.98 1056.92C205.168 1057.37 204.249 1057.6 203.224 1057.6ZM203.224 1056.34C203.983 1056.34 204.655 1056.18 205.241 1055.84C205.827 1055.5 206.287 1055.02 206.62 1054.4C206.966 1053.78 207.139 1053.06 207.139 1052.25C207.139 1051.42 206.966 1050.7 206.62 1050.09C206.287 1049.48 205.827 1049 205.241 1048.67C204.655 1048.33 203.99 1048.15 203.244 1048.15C202.498 1048.15 201.832 1048.33 201.247 1048.67C200.661 1049 200.195 1049.48 199.848 1050.09C199.502 1050.7 199.329 1051.42 199.329 1052.25C199.329 1053.06 199.502 1053.78 199.848 1054.4C200.195 1055.02 200.661 1055.5 201.247 1055.84C201.832 1056.18 202.492 1056.34 203.224 1056.34ZM214.788 1057.6C213.802 1057.6 213.043 1057.33 212.511 1056.8C211.978 1056.27 211.712 1055.52 211.712 1054.54V1044.7H213.13V1054.46C213.13 1055.08 213.283 1055.55 213.589 1055.88C213.909 1056.22 214.362 1056.38 214.948 1056.38C215.573 1056.38 216.093 1056.2 216.506 1055.84L217.005 1056.86C216.725 1057.11 216.386 1057.3 215.986 1057.42C215.6 1057.54 215.201 1057.6 214.788 1057.6ZM209.834 1048.19V1047.01H216.326V1048.19H209.834Z" fill="#212121"/>
</g>
<g id="logo">
<g id="AERENA">
<path d="M1003.01 1060.43L1002.66 1058.97H1000.44L1000.15 1060.43H997.852L1000.23 1051.92L1000.04 1051.29H1003.27L1005.87 1060.43H1003.01ZM1001.45 1053.97L1000.76 1057.38H1002.28L1001.45 1053.97ZM1011.71 1060.43H1006.18V1051.29H1011.59L1011.44 1053.13L1008.76 1053.05V1054.81H1010.87V1056.64L1008.76 1056.48V1058.56L1011.71 1058.48V1060.43ZM1014.99 1057.39V1060.43H1012.4V1051.29H1013.43C1013.68 1051.29 1014.05 1051.28 1014.54 1051.25C1015.04 1051.23 1015.44 1051.22 1015.77 1051.22C1016.89 1051.22 1017.73 1051.46 1018.28 1051.96C1018.83 1052.45 1019.11 1053.21 1019.11 1054.23C1019.11 1054.83 1018.98 1055.37 1018.71 1055.83C1018.45 1056.3 1018.11 1056.67 1017.68 1056.95C1017.91 1057.01 1018.11 1057.14 1018.28 1057.35C1018.45 1057.56 1018.58 1057.8 1018.68 1058.09C1018.77 1058.37 1018.85 1058.66 1018.92 1058.95C1018.99 1059.23 1019.07 1059.52 1019.16 1059.8C1019.25 1060.08 1019.35 1060.29 1019.46 1060.43H1016.58C1016.53 1060.36 1016.48 1060.15 1016.45 1059.82C1016.42 1059.48 1016.38 1059.08 1016.32 1058.61C1016.27 1058.14 1016.19 1057.74 1016.09 1057.43C1016.08 1057.43 1016.07 1057.43 1016.05 1057.43C1015.96 1057.43 1015.85 1057.43 1015.73 1057.43C1015.63 1057.42 1015.53 1057.41 1015.45 1057.41C1015.36 1057.4 1015.27 1057.4 1015.18 1057.39C1015.09 1057.39 1015.03 1057.39 1014.99 1057.39ZM1014.99 1055.94H1015.24C1015.37 1055.94 1015.47 1055.93 1015.56 1055.92C1015.65 1055.91 1015.75 1055.89 1015.85 1055.86C1015.96 1055.83 1016.05 1055.79 1016.12 1055.72C1016.19 1055.66 1016.26 1055.58 1016.32 1055.48C1016.38 1055.38 1016.43 1055.26 1016.46 1055.1C1016.49 1054.94 1016.51 1054.76 1016.51 1054.55V1053.94C1016.51 1053.49 1016.39 1053.17 1016.15 1052.99C1015.91 1052.81 1015.58 1052.72 1015.13 1052.72H1014.99V1055.94ZM1025.49 1060.43H1019.96V1051.29H1025.38L1025.22 1053.13L1022.54 1053.05V1054.81H1024.65V1056.64L1022.54 1056.48V1058.56L1025.49 1058.48V1060.43ZM1028.68 1060.43H1026.2V1052.02L1025.82 1051.29H1028.69L1030.13 1054.25L1031.5 1057.21L1031.12 1053.74V1051.29H1033.6V1060.43H1031.23L1029.37 1056.82L1028.22 1054.55L1028.68 1057.55V1060.43ZM1039.14 1060.43L1038.79 1058.97H1036.58L1036.28 1060.43H1033.99L1036.37 1051.92L1036.18 1051.29H1039.4L1042.01 1060.43H1039.14ZM1037.58 1053.97L1036.9 1057.38H1038.41L1037.58 1053.97Z" fill="url(#paint17_linear_3464_31671)"/>
<path d="M1003.01 1060.43L1002.66 1058.97H1000.44L1000.15 1060.43H997.852L1000.23 1051.92L1000.04 1051.29H1003.27L1005.87 1060.43H1003.01ZM1001.45 1053.97L1000.76 1057.38H1002.28L1001.45 1053.97ZM1011.71 1060.43H1006.18V1051.29H1011.59L1011.44 1053.13L1008.76 1053.05V1054.81H1010.87V1056.64L1008.76 1056.48V1058.56L1011.71 1058.48V1060.43ZM1014.99 1057.39V1060.43H1012.4V1051.29H1013.43C1013.68 1051.29 1014.05 1051.28 1014.54 1051.25C1015.04 1051.23 1015.44 1051.22 1015.77 1051.22C1016.89 1051.22 1017.73 1051.46 1018.28 1051.96C1018.83 1052.45 1019.11 1053.21 1019.11 1054.23C1019.11 1054.83 1018.98 1055.37 1018.71 1055.83C1018.45 1056.3 1018.11 1056.67 1017.68 1056.95C1017.91 1057.01 1018.11 1057.14 1018.28 1057.35C1018.45 1057.56 1018.58 1057.8 1018.68 1058.09C1018.77 1058.37 1018.85 1058.66 1018.92 1058.95C1018.99 1059.23 1019.07 1059.52 1019.16 1059.8C1019.25 1060.08 1019.35 1060.29 1019.46 1060.43H1016.58C1016.53 1060.36 1016.48 1060.15 1016.45 1059.82C1016.42 1059.48 1016.38 1059.08 1016.32 1058.61C1016.27 1058.14 1016.19 1057.74 1016.09 1057.43C1016.08 1057.43 1016.07 1057.43 1016.05 1057.43C1015.96 1057.43 1015.85 1057.43 1015.73 1057.43C1015.63 1057.42 1015.53 1057.41 1015.45 1057.41C1015.36 1057.4 1015.27 1057.4 1015.18 1057.39C1015.09 1057.39 1015.03 1057.39 1014.99 1057.39ZM1014.99 1055.94H1015.24C1015.37 1055.94 1015.47 1055.93 1015.56 1055.92C1015.65 1055.91 1015.75 1055.89 1015.85 1055.86C1015.96 1055.83 1016.05 1055.79 1016.12 1055.72C1016.19 1055.66 1016.26 1055.58 1016.32 1055.48C1016.38 1055.38 1016.43 1055.26 1016.46 1055.1C1016.49 1054.94 1016.51 1054.76 1016.51 1054.55V1053.94C1016.51 1053.49 1016.39 1053.17 1016.15 1052.99C1015.91 1052.81 1015.58 1052.72 1015.13 1052.72H1014.99V1055.94ZM1025.49 1060.43H1019.96V1051.29H1025.38L1025.22 1053.13L1022.54 1053.05V1054.81H1024.65V1056.64L1022.54 1056.48V1058.56L1025.49 1058.48V1060.43ZM1028.68 1060.43H1026.2V1052.02L1025.82 1051.29H1028.69L1030.13 1054.25L1031.5 1057.21L1031.12 1053.74V1051.29H1033.6V1060.43H1031.23L1029.37 1056.82L1028.22 1054.55L1028.68 1057.55V1060.43ZM1039.14 1060.43L1038.79 1058.97H1036.58L1036.28 1060.43H1033.99L1036.37 1051.92L1036.18 1051.29H1039.4L1042.01 1060.43H1039.14ZM1037.58 1053.97L1036.9 1057.38H1038.41L1037.58 1053.97Z" fill="url(#paint18_linear_3464_31671)"/>
</g>
<g id="Union">
<path d="M1011.54 1012H1025.94L1036.57 1041.49L1025.94 1046.29L1020.46 1022.97L1017.17 1032.31L1020.89 1030.78L1022.58 1037.97L1002.29 1046.29L1010.72 1022.2L1017.89 1016.97L1012.06 1018.35L1013.64 1013.84L1011.54 1012Z" fill="url(#paint19_linear_3464_31671)"/>
<path d="M1011.54 1012H1025.94L1036.57 1041.49L1025.94 1046.29L1020.46 1022.97L1017.17 1032.31L1020.89 1030.78L1022.58 1037.97L1002.29 1046.29L1010.72 1022.2L1017.89 1016.97L1012.06 1018.35L1013.64 1013.84L1011.54 1012Z" fill="url(#paint20_linear_3464_31671)"/>
<path d="M1034.93 1032.9L1032.46 1026.03L1036.57 1024.34L1034.93 1032.9Z" fill="url(#paint21_linear_3464_31671)"/>
<path d="M1034.93 1032.9L1032.46 1026.03L1036.57 1024.34L1034.93 1032.9Z" fill="url(#paint22_linear_3464_31671)"/>
</g>
</g>
</g>
<defs>
<linearGradient id="paint0_linear_3464_31671" x1="-3174.58" y1="3469.75" x2="2491.46" y2="1010.58" gradientUnits="userSpaceOnUse">
<stop stop-color="#FFC502"/>
<stop offset="1" stop-color="#AB750F"/>
</linearGradient>
<linearGradient id="paint1_linear_3464_31671" x1="-2679.21" y1="3076.94" x2="1991.66" y2="1248.01" gradientUnits="userSpaceOnUse">
<stop stop-color="#FFC502"/>
<stop offset="1" stop-color="#AB750F"/>
</linearGradient>
<linearGradient id="paint2_linear_3464_31671" x1="-452.341" y1="1735.66" x2="1414.58" y2="585.247" gradientUnits="userSpaceOnUse">
<stop stop-color="#FFC502"/>
<stop offset="1" stop-color="#AB750F"/>
</linearGradient>
<linearGradient id="paint3_linear_3464_31671" x1="-3240.29" y1="3282.95" x2="2293.36" y2="764.932" gradientUnits="userSpaceOnUse">
<stop stop-color="#FFC502"/>
<stop offset="1" stop-color="#AB750F"/>
</linearGradient>
<linearGradient id="paint4_linear_3464_31671" x1="-1566.23" y1="2734.77" x2="1139.91" y2="2103.27" gradientUnits="userSpaceOnUse">
<stop stop-color="#FFC502"/>
<stop offset="1" stop-color="#AB750F"/>
</linearGradient>
<linearGradient id="paint5_linear_3464_31671" x1="-3116.21" y1="3575.47" x2="2625.37" y2="1127.69" gradientUnits="userSpaceOnUse">
<stop stop-color="#FFC502"/>
<stop offset="1" stop-color="#AB750F"/>
</linearGradient>
<linearGradient id="paint6_linear_3464_31671" x1="-192.126" y1="1465.51" x2="973.225" y2="627.042" gradientUnits="userSpaceOnUse">
<stop stop-color="#FFC502"/>
<stop offset="1" stop-color="#AB750F"/>
</linearGradient>
<linearGradient id="paint7_linear_3464_31671" x1="-1719.19" y1="2074.81" x2="1132.22" y2="293.826" gradientUnits="userSpaceOnUse">
<stop stop-color="#FFC502"/>
<stop offset="1" stop-color="#AB750F"/>
</linearGradient>
<linearGradient id="paint8_linear_3464_31671" x1="-2216.33" y1="2947.89" x2="2405.93" y2="747.481" gradientUnits="userSpaceOnUse">
<stop stop-color="#FFC502"/>
<stop offset="1" stop-color="#AB750F"/>
</linearGradient>
<linearGradient id="paint9_linear_3464_31671" x1="-75.5847" y1="1553.45" x2="1812.87" y2="801.955" gradientUnits="userSpaceOnUse">
<stop stop-color="#FFC502"/>
<stop offset="1" stop-color="#AB750F"/>
</linearGradient>
<linearGradient id="paint10_linear_3464_31671" x1="-2319.54" y1="3075.7" x2="2366.89" y2="1017.02" gradientUnits="userSpaceOnUse">
<stop stop-color="#FFC502"/>
<stop offset="1" stop-color="#AB750F"/>
</linearGradient>
<linearGradient id="paint11_linear_3464_31671" x1="-1344.56" y1="1965.43" x2="1354.58" y2="-30.8113" gradientUnits="userSpaceOnUse">
<stop stop-color="#FFC502"/>
<stop offset="1" stop-color="#AB750F"/>
</linearGradient>
<linearGradient id="paint12_linear_3464_31671" x1="-2151.16" y1="3009.4" x2="2342.92" y2="1058.57" gradientUnits="userSpaceOnUse">
<stop stop-color="#FFC502"/>
<stop offset="1" stop-color="#AB750F"/>
</linearGradient>
<linearGradient id="paint13_linear_3464_31671" x1="-1550.04" y1="2034.5" x2="1367.18" y2="-142.061" gradientUnits="userSpaceOnUse">
<stop stop-color="#FFC502"/>
<stop offset="1" stop-color="#AB750F"/>
</linearGradient>
<linearGradient id="paint14_linear_3464_31671" x1="-1247.05" y1="2371.93" x2="800.088" y2="1960.87" gradientUnits="userSpaceOnUse">
<stop stop-color="#FFC502"/>
<stop offset="1" stop-color="#AB750F"/>
</linearGradient>
<linearGradient id="paint15_linear_3464_31671" x1="715.594" y1="1195.62" x2="1057.47" y2="965.348" gradientUnits="userSpaceOnUse">
<stop stop-color="#FFC502"/>
<stop offset="1" stop-color="#AB750F"/>
</linearGradient>
<linearGradient id="paint16_linear_3464_31671" x1="-1186.26" y1="2282.88" x2="723.701" y2="1912.05" gradientUnits="userSpaceOnUse">
<stop stop-color="#FFC502"/>
<stop offset="1" stop-color="#AB750F"/>
</linearGradient>
<linearGradient id="paint17_linear_3464_31671" x1="1020" y1="1054.58" x2="1020" y2="1059.3" gradientUnits="userSpaceOnUse">
<stop stop-color="#D8A956"/>
<stop offset="1" stop-color="#AB750F"/>
</linearGradient>
<linearGradient id="paint18_linear_3464_31671" x1="998" y1="1051.96" x2="1001.56" y2="1069.22" gradientUnits="userSpaceOnUse">
<stop stop-color="#AB750F"/>
<stop offset="0.484" stop-color="#D8A956"/>
<stop offset="1" stop-color="#AB750F"/>
</linearGradient>
<linearGradient id="paint19_linear_3464_31671" x1="1019.43" y1="1024" x2="1019.43" y2="1042" gradientUnits="userSpaceOnUse">
<stop stop-color="#D8A956"/>
<stop offset="1" stop-color="#AB750F"/>
</linearGradient>
<linearGradient id="paint20_linear_3464_31671" x1="1002.29" y1="1014.01" x2="1036.57" y2="1048.06" gradientUnits="userSpaceOnUse">
<stop stop-color="#AB750F"/>
<stop offset="0.484" stop-color="#D8A956"/>
<stop offset="1" stop-color="#AB750F"/>
</linearGradient>
<linearGradient id="paint21_linear_3464_31671" x1="1019.43" y1="1024" x2="1019.43" y2="1042" gradientUnits="userSpaceOnUse">
<stop stop-color="#D8A956"/>
<stop offset="1" stop-color="#AB750F"/>
</linearGradient>
<linearGradient id="paint22_linear_3464_31671" x1="1002.29" y1="1014.01" x2="1036.57" y2="1048.06" gradientUnits="userSpaceOnUse">
<stop stop-color="#AB750F"/>
<stop offset="0.484" stop-color="#D8A956"/>
<stop offset="1" stop-color="#AB750F"/>
</linearGradient>
<clipPath id="clip0_3464_31671">
<rect width="1080" height="1080" fill="white"/>
</clipPath>
<clipPath id="clip1_3464_31671">
<rect width="19" height="19" fill="white" transform="translate(24 1041)"/>
</clipPath>
</defs>
</svg>
