<svg width="1080" height="1080" viewBox="0 0 1080 1080" fill="none" xmlns="http://www.w3.org/2000/svg">
<g id="dream-team" clip-path="url(#clip0_2559_55955)">
<rect width="1080" height="1080" fill="#F5F1EE"/>
<g id="Waves" opacity="0.15">
<g id="Group" opacity="0.25">
<path id="Vector" d="M1416.5 191.802C1409.96 225.931 1394.03 256.651 1374.1 286.375C1347.9 325.462 1318.53 362.392 1280.78 394.051C1273.45 400.206 1265.68 406.03 1257.73 411.595C1222.51 436.16 1194.95 466.511 1168.12 497.507C1153.87 513.945 1139.1 530.07 1124.22 546.084C1112.38 558.836 1098.79 570.151 1081.93 577.964C1046.07 594.587 1015.22 616.811 985.295 640.16C947.672 669.516 910.479 699.332 872.082 727.933C823.107 764.402 770.413 796.67 714.989 825.621C672.701 847.716 632.906 872.778 593.563 898.578C554.327 924.304 512.963 947.689 472.094 971.535C432.17 994.847 392.913 1018.86 355.548 1045.16C324.568 1066.96 291.051 1084.85 255.557 1099.68C243.646 1080.45 227.522 1066.18 210.344 1055.62C250.719 1038.91 288.815 1018.73 323.278 993.299C350.001 973.581 379.648 957.456 410.693 943.156C428.365 935.01 446.188 927.031 463.193 917.964C496.861 900.034 530.7 882.232 563.228 862.827C604.914 837.949 649.03 816.683 693.662 796.191C759.513 765.95 819.237 728.91 870.469 682.194C899.88 655.381 933.805 632.936 965.473 608.316C1004.04 578.315 1042.76 548.203 1078.11 515.53C1101.45 493.95 1118.91 467.69 1139.16 443.623C1160.1 418.708 1180.4 393.351 1202.65 369.321C1213.51 357.582 1227.29 347.465 1241.24 338.251C1281.31 311.769 1309.65 277.456 1334.16 240.213C1351.27 214.192 1361.89 186.458 1367.61 157.102C1377.05 108.525 1393.19 61.478 1411.66 14.8916C1413.6 9.98968 1415.4 5.01405 1417.08 0.0200191L1474.5 0.0200216C1473.21 4.62707 1471.84 9.21561 1470.35 13.7674C1458.32 50.6053 1444.04 86.8904 1432.39 123.802C1425.36 146.063 1420.86 168.97 1416.5 191.784L1416.5 191.802Z" fill="url(#paint0_linear_2559_55955)"/>
<path id="Vector_2" d="M860.216 31.2374C868.493 56.0233 888.788 69.3838 918.994 70.2499C945.309 71.0054 969.366 63.9291 992.65 54.5123C1007.76 48.3941 1022.38 41.3914 1037.54 35.3654C1044.38 32.638 1051.84 30.7031 1059.28 29.4684C1072.71 27.257 1081.91 31.8087 1087.07 42.8472C1093.57 56.7236 1093.65 71.3002 1092.1 85.8585C1088.43 120.485 1076.75 153.177 1054.67 182.275C1020.13 227.811 993.402 276.609 968.27 326.236C956.016 350.432 943.03 374.481 928.088 397.497C909.32 426.411 881.629 449.391 853.874 472.021C826.355 494.466 797.676 515.917 771.082 539.136C755.28 552.939 741.929 568.916 728.557 584.58C701.274 616.498 672.853 647.568 641.464 676.611C609.001 706.63 569.163 727.933 527.95 747.743C464.205 778.389 400.655 809.293 336.996 840.068C307.457 854.35 281.4 872.576 256.633 892.257C226.621 916.122 193.211 935.6 155.782 949.974C136.518 957.364 118.029 965.896 100.056 975.221L81.5457 900.365C82.5777 899.794 83.6096 899.223 84.6416 898.67C108.204 885.807 132.864 874.437 156.491 861.648C184.934 846.26 209.013 826.247 233.479 806.658C270.65 776.86 313.197 753.18 354.862 728.467C382.166 712.269 409.577 696.163 436.02 678.951C473.214 654.736 499.958 622.8 522.446 588.155C557.833 533.645 586.277 476.462 610.979 417.861C613.086 412.885 614.333 407.633 615.795 402.473C620.266 386.551 616.913 371.919 607.496 357.6C593.522 336.408 580.708 314.644 567.443 293.102C547.535 260.797 541.516 226.613 548.847 190.678C557.21 149.694 567.486 109.17 585.997 70.471C598.036 45.2981 614.419 22.2996 632.306 0.0383956L855.551 0.0384053C855.444 10.4319 856.755 20.8255 860.238 31.2374L860.216 31.2374Z" fill="url(#paint1_linear_2559_55955)"/>
<path id="Vector_3" d="M113.385 115.805C258.611 105.485 275.122 0.0204602 275.122 0.0204602L367.61 0.0204643C361.784 6.93103 355.764 13.7494 349.594 20.5126C295.804 79.3353 242.852 138.729 189.986 198.179C165.133 226.116 145.354 256.541 138.195 291.609C134.583 309.282 133.207 327.323 131.681 345.254C128.972 376.877 126.371 408.518 124.737 440.196C123.124 471.634 118.115 502.741 108.225 532.853C96.917 567.258 83.9961 601.424 68.9469 634.742C59.7023 655.179 45.8355 671.838 28.2709 684.94L-0.000160417 570.557L113.364 115.805L113.385 115.805Z" fill="url(#paint2_linear_2559_55955)"/>
<path id="Vector_4" d="M1326.81 129.311C1317.67 179.804 1293.94 224.419 1254.96 263.007C1248.27 269.641 1240.79 275.925 1232.6 281.141C1194.93 305.079 1166.06 335.522 1140.58 368.877C1114.94 402.472 1088.43 435.587 1061.77 468.592C1028.23 510.111 987.275 546.101 944.277 580.23C902.504 613.364 860.732 646.35 822.507 682.617C782.691 720.413 735.307 750.156 682.763 773.615C618.718 802.216 556.694 833.636 496.174 867.415C461.969 886.506 426.41 903.884 390.657 920.764C352.755 938.658 319.001 961.343 284.431 983.291C250.85 1004.61 215.871 1023.7 179.452 1040.47C144.086 1026.87 112.482 1025.6 112.482 1025.6L105.99 999.305C128.177 987.511 151.008 976.528 174.313 966.503C212.818 949.918 248.485 930.126 280.153 905.045C308.983 882.212 342.134 864.798 376.21 848.452C447.286 814.36 517.953 779.604 589.308 745.954C638.519 722.735 679.496 691.757 714.238 654.256C741.886 624.421 768.093 593.48 797.761 565.192C821.453 542.581 849.122 522.992 875.502 502.5C905.278 479.373 936.537 457.277 958.273 427.903C975.128 405.125 989.833 381.132 1004.8 357.36C1020.13 333.053 1034.83 308.451 1049.43 283.813C1071.62 246.367 1100.68 212.827 1128.87 178.717C1148.88 154.502 1169.28 130.306 1181.17 102.037C1195.06 69.0323 1203.64 34.9402 1206.63 0.000371748L1360.02 0.000378453C1359.87 0.368942 1359.74 0.755907 1359.59 1.12447C1343.04 42.7721 1334.61 86.0046 1326.79 129.274L1326.81 129.311Z" fill="url(#paint3_linear_2559_55955)"/>
<path id="Vector_5" d="M539.063 75.6849C523.304 109.501 507.567 143.335 492.969 177.519C473.255 223.682 474.674 270.323 492.281 316.689C503.375 345.897 509.609 375.972 512.082 406.342C513.35 421.895 510.147 438.425 505.009 453.518C490.346 496.474 473.986 539.025 457.646 581.557C448.38 605.698 432.622 626.743 410.607 643.826C394.332 656.449 377.262 668.372 359.998 680C323.923 704.288 287.095 727.729 251.407 752.404C235.648 763.295 221.502 775.974 207.334 788.431C176.634 815.41 141.483 837.027 102.032 853.501C92.1857 857.611 82.6401 862.089 73.2451 866.788L48.8223 768.013C49.6823 767.718 50.5207 767.442 51.3807 767.147C85.6715 755.519 114.265 736.943 137.742 712.802C169.474 680.166 198.24 645.724 220.835 607.762C235.67 582.865 243.968 556.513 246.677 528.52C249.924 494.778 248.096 460.963 249.73 427.276C251.837 383.822 251.966 340.019 265.016 297.431C275.916 261.846 293.545 228.473 310.379 194.805C334.178 147.223 367.05 104.783 407.339 66.5076C429.053 45.8865 447.176 23.6068 462.548 0.037171L584.555 0.0371763C567.227 24.2518 551.425 49.2221 539.085 75.7034L539.063 75.6849Z" fill="url(#paint4_linear_2559_55955)"/>
<path id="Vector_6" d="M1551.64 245.427C1541.65 297.044 1521.76 345.75 1488.5 389.941C1464.29 422.135 1438.49 453.463 1414.95 486.007C1389.84 520.725 1355.16 545.732 1312.49 562.152C1267.58 579.438 1226.71 601.588 1189.26 628.751C1165.82 645.761 1140.35 660.171 1112.89 672.039C1103.52 676.093 1094.38 680.608 1085.4 685.271C1042.85 707.366 1005.76 735.616 968.42 763.351C912.157 805.164 853.637 844.232 791.914 879.946C756.698 900.327 720.967 920.598 688.934 944.352C634.864 984.452 581.073 1024.77 524.424 1062.16C481.598 1090.43 439.073 1119.07 394.29 1145.04C356.56 1144.98 326.053 1144.92 305.048 1144.89C346.305 1126.46 385.325 1105.12 422.088 1080.09C475.599 1043.66 531.26 1009.57 585.223 973.598C616.891 952.479 646.065 928.559 678.141 907.92C715.571 883.834 754.806 861.812 793.461 839.164C870.901 793.794 939.375 739.136 1009.1 685.823C1039.82 662.346 1072.43 641.909 1109.9 626.853C1126.14 620.348 1141.16 611.005 1155.2 601.312C1170.62 590.679 1184.83 578.645 1198.54 566.39C1230.45 537.919 1266.61 514.368 1306.62 494.963C1325.54 485.786 1342.5 474.379 1355.36 459.268C1383.35 426.318 1411.56 393.497 1438.3 359.811C1471.56 317.905 1492.82 271.779 1500.43 221.194C1504.28 195.634 1507.53 169.816 1514.49 144.809C1525.78 104.249 1539.67 64.2043 1552.89 24.0493C1553.66 21.672 1554.42 19.2948 1555.13 16.9176C1558.18 56.2433 1566.86 92.8048 1578.93 126.197C1568.22 165.633 1559.34 205.401 1551.6 245.427L1551.64 245.427Z" fill="url(#paint5_linear_2559_55955)"/>
<path id="Vector_7" d="M1333.08 1004.1C1352.45 993.316 1373.27 984.434 1393.58 974.943C1397.26 973.23 1401.71 972.75 1405.82 971.7C1406.35 972.456 1406.89 973.211 1407.43 973.967C1402.46 978.168 1397.86 982.757 1392.49 986.535C1360.26 1009.07 1328.7 1032.38 1295.33 1053.61C1245.84 1085.11 1195.53 1115.72 1144.97 1145.94C1122.18 1145.94 1098.94 1145.9 1075.38 1145.88C1099.41 1134.84 1122.85 1122.81 1145.79 1109.99C1208.39 1074.93 1270.37 1039.02 1333.08 1004.1Z" fill="url(#paint6_linear_2559_55955)"/>
<path id="Vector_8" d="M670.573 993.556C716.731 959.095 765.319 928.025 816.465 899.461C850.885 880.241 884.509 859.951 917.768 839.275C957.218 814.747 995.53 788.856 1035 764.346C1081.83 735.266 1136.82 719.51 1187.64 696.88C1189.56 696.033 1191.97 695.959 1194.14 695.517C1194.59 696.088 1195.06 696.659 1195.51 697.249C1191.34 700.953 1187.71 705.265 1182.91 708.251C1164.58 719.676 1146.77 732.06 1127.15 741.606C1063.42 772.528 1005.68 810.527 948.812 849.65C915.274 872.722 882.746 896.9 848.498 919.143C797.417 952.332 746.4 985.355 702.778 1026.08C663.844 1062.44 623.512 1097.71 584.405 1133.96C580.363 1137.7 576.407 1141.48 572.559 1145.35C528.723 1145.29 487.875 1145.22 451.327 1145.16C463.581 1137.35 475.749 1129.43 487.746 1121.32C549.491 1079.58 611.322 1037.84 670.594 993.593L670.573 993.556Z" fill="url(#paint7_linear_2559_55955)"/>
<path id="Vector_9" d="M1800.86 699.885C1770.98 710.186 1741.07 720.469 1710.91 730.107C1694.4 735.378 1677.33 739.45 1660.43 743.836C1625.34 752.977 1594.4 769.433 1562.46 784.157C1510.77 807.985 1465.63 839.736 1420.28 871.101C1365.63 908.897 1313 948.887 1257.52 985.724C1206.18 1019.82 1152.36 1051.37 1094.15 1076.48C1069.31 1087.21 1042.91 1095.54 1016.56 1103.31C990.821 1110.91 965.861 1119.4 944.362 1133.89C937.569 1138.46 930.517 1142.36 923.25 1145.74C870.599 1145.68 817.862 1145.63 766.458 1145.55C765.749 1142.03 765.663 1138.16 766.265 1133.96C768.673 1116.9 776.864 1101.77 787.097 1087.32C805.307 1061.59 830.074 1041.01 856.238 1021.29C891.926 994.367 926.841 966.67 961.905 939.138C994.326 913.689 1024.73 886.083 1061.75 865.481C1086.08 851.918 1112.18 840.492 1138.18 829.288C1218.13 794.845 1293.61 754.654 1361.96 704.898C1372.88 696.955 1384.64 689.86 1396.12 682.489C1414.31 670.805 1429.21 656.597 1441.57 640.27C1464.74 609.698 1486.97 578.812 1504.07 545.181C1516.88 519.934 1536.53 497.931 1557.43 477.015C1588.51 445.926 1615.19 412.406 1636.95 375.881C1647.14 358.761 1658.32 341.955 1670.6 325.867C1676.68 317.906 1682.27 309.779 1687.41 301.523C1692.96 307.568 1698.24 313.096 1703.19 318.053C1663.95 377.042 1623.66 435.478 1568.78 485.492C1537.86 513.668 1516.9 547.318 1498.61 582.663C1481.38 615.908 1461.71 648.544 1435.44 677.329C1422.63 691.353 1405.56 702.557 1390.19 714.812C1343.08 752.332 1295.72 789.575 1248.83 827.279C1238.42 835.645 1229.16 845.173 1220.17 854.719C1216.26 858.883 1213.72 864.264 1211.81 869.443C1209.96 874.492 1213.03 878.97 1219.2 879.357C1227.14 879.873 1235.5 879.891 1243.18 878.325C1273.38 872.17 1300.08 859.178 1325.26 844.215C1364.54 820.866 1402.89 796.393 1441.96 772.787C1467.13 757.565 1492.99 743.173 1518.3 728.099C1526.73 723.086 1534.66 717.392 1542.36 711.587C1566.93 693.011 1596.27 684.848 1628.22 682.802C1685.54 679.135 1741.84 670.695 1797.48 658.422C1809.16 655.842 1820.04 652.175 1830.33 647.568C1825.37 665.259 1818.85 681.365 1811.63 695.831C1808.08 697.25 1804.49 698.614 1800.84 699.885L1800.86 699.885Z" fill="url(#paint8_linear_2559_55955)"/>
<path id="Vector_10" d="M1416.2 602.085C1432.71 583.012 1451.07 565.1 1462.62 543.207C1479.04 512.082 1500.41 483.518 1523.54 455.839C1549.08 425.285 1571.66 393.349 1587.18 357.949C1596.58 336.498 1606.08 315.048 1616.91 294.114C1625.58 277.362 1633.53 260.445 1640.58 243.289C1645.25 249.941 1649.94 256.299 1654.6 262.38C1647.57 277.141 1639.7 291.663 1631.04 305.981C1617.88 327.727 1607.3 350.633 1596.04 373.189C1579.44 406.397 1556.5 436.25 1531.33 464.961C1507.14 492.567 1487.34 522.291 1469.62 553.306C1459.33 571.347 1444.86 587.693 1431.55 604.389C1422.95 615.188 1414.31 626.355 1403.39 635.293C1388.98 647.087 1372.99 657.683 1356.5 667.321C1311.5 693.618 1266.46 719.934 1220.28 744.646C1190.98 760.328 1159.85 773.596 1129.08 787.16C1071.64 812.48 1019.03 843.955 968.807 878.49C932.839 903.202 897.581 928.669 861.849 953.621C831.493 974.814 799.588 994.55 770.823 1017.2C744.874 1037.64 721.418 1060.54 698.414 1083.5C678.549 1103.31 659.802 1124.06 642.216 1145.4C629.618 1145.4 617.191 1145.37 604.958 1145.35C608.484 1141.48 612.139 1137.68 615.88 1133.96C641.808 1108.27 669.133 1083.61 695.469 1058.22C733.522 1021.51 775.058 988.137 821.001 958.707C856.195 936.151 891.475 913.558 925.099 889.362C979.234 850.423 1035.82 814.581 1096.73 783.898C1128.82 767.718 1162.47 753.749 1194.27 737.164C1244.27 711.106 1292.92 683.114 1342.95 657.075C1371.35 642.296 1396.36 625.084 1416.26 602.085L1416.2 602.085Z" fill="url(#paint9_linear_2559_55955)"/>
<path id="Vector_11" d="M1353.59 963.112C1291.76 1005.09 1229.31 1046.24 1163.61 1083.74C1123.06 1106.89 1081.63 1128.54 1037.47 1145.86C1023.8 1145.86 1010.04 1145.85 996.239 1145.83C1003.61 1143.12 1011.12 1140.58 1018.71 1138.12C1075.66 1119.84 1126.59 1092.04 1177.05 1063.27C1242.66 1025.88 1302.81 982.591 1364.17 940.519C1420.91 901.617 1478.48 863.416 1540.96 831.498C1598.4 802.142 1658.19 776.545 1723.27 761.139C1742.45 756.606 1761.32 751.17 1780.18 745.678C1770.65 757.896 1761.88 767.239 1755.54 773.468C1694.5 787.178 1637.04 808.942 1581.63 834.723C1501.53 872.003 1425.1 914.572 1353.62 963.112L1353.59 963.112Z" fill="url(#paint10_linear_2559_55955)"/>
<path id="Vector_12" d="M1558.18 457.13C1527.5 490.061 1500.02 524.503 1480.5 563.497C1465.8 592.872 1442.02 617.603 1421.04 643.697C1415.68 650.349 1408.76 656.394 1401.39 661.462C1382.77 674.269 1363.25 686.1 1344.52 698.797C1288.91 736.538 1230.17 770.022 1166.68 797.369C1136.82 810.232 1107.17 823.537 1078.13 837.672C1035.24 858.533 999.529 887.538 962.207 914.683C921.961 943.947 881.951 973.451 841.017 1001.98C799.546 1030.89 762.826 1063.38 733.05 1101.45C722.236 1115.29 712.626 1129.65 706.993 1145.5C694.438 1145.5 681.99 1145.46 669.692 1145.44C674.508 1137.22 680.313 1129.39 686.569 1121.8C728.642 1070.66 776.499 1023.98 835.428 986.535C877.888 959.556 918.177 930.366 957.907 900.586C1020.34 853.815 1088.79 815.005 1163.7 784.359C1224.75 759.389 1280.46 726.955 1334.53 692.366C1345.62 685.271 1356.8 678.194 1368.43 671.763C1395.88 656.615 1416.35 636.068 1435.03 613.346C1455.65 588.302 1472.61 561.802 1488.78 534.547C1502.35 511.696 1518.99 489.822 1537.17 469.422C1570.05 432.547 1596.99 393.111 1618.01 350.376C1627.81 330.436 1640.11 311.345 1652.17 292.29C1656.11 286.061 1659.76 279.759 1663.2 273.383C1666.3 277.234 1669.39 280.957 1672.42 284.55C1670.02 288.715 1667.5 292.843 1664.86 296.934C1649.36 320.909 1633.53 344.829 1619.9 369.596C1602.77 400.685 1583.16 430.317 1558.16 457.148L1558.18 457.13Z" fill="url(#paint11_linear_2559_55955)"/>
<path id="Vector_13" d="M1465.8 863.508C1399.15 906.833 1335.34 953.161 1269.62 997.426C1206.54 1039.92 1141.06 1079.97 1068.37 1110.06C1046.5 1119.11 1023.67 1126.57 1000.93 1133.9C990.219 1137.37 979.835 1141.22 969.903 1145.81C962.937 1145.81 955.95 1145.81 948.963 1145.79C968.183 1134.51 988.887 1125.85 1011.22 1119.59C1049.23 1108.93 1085.67 1094.97 1119.77 1077.05C1195.23 1037.4 1266.72 993.114 1333.79 943.394C1392.16 900.125 1452.4 858.57 1516.56 821.769C1572.8 789.501 1632.69 762.927 1698.31 746.397C1731.44 738.049 1763.69 726.992 1795.94 716.267C1797.81 715.641 1799.68 715.014 1801.55 714.388C1798.47 719.566 1795.36 724.468 1792.24 729.075C1785.1 731.268 1777.96 733.405 1770.82 735.562C1732.81 747.079 1693.75 756.349 1656.67 769.654C1588.62 794.053 1524.86 825.159 1465.82 863.527L1465.8 863.508Z" fill="url(#paint12_linear_2559_55955)"/>
<path id="Vector_14" d="M130.971 654.532C148.471 624.715 165.885 594.862 176.29 562.502C184.89 535.744 188.05 508.212 190.2 480.681C192.243 454.549 192.436 428.326 193.769 402.158C195.016 377.446 195.811 352.66 198.37 328.04C201.788 294.98 214.086 263.984 233.478 235.328C260.308 195.652 286.236 155.423 315.668 117.203C337.554 88.787 363.546 62.5268 389.259 36.4325C400.74 24.7675 410.973 12.605 420.174 0.0185625L440.706 0.0185634C429.097 16.8435 415.853 32.9313 400.675 48.1714C377.435 71.5015 354.689 95.3659 334.243 120.502C303.285 158.538 281.356 201.051 257.299 242.441C241.002 270.47 229.328 299.937 226.017 331.247C223.072 359.128 221.309 387.139 219.804 415.113C218.17 445.556 217.977 476.074 216.128 506.517C214.731 529.81 211.484 552.993 202.627 575.272C185.492 618.321 158.812 657.02 128.154 693.766C106.333 719.934 78.3412 739.154 44.8243 751.796L40.8685 735.8C80.1255 718.183 109.73 690.706 130.971 654.514L130.971 654.532Z" fill="url(#paint13_linear_2559_55955)"/>
<path id="Vector_15" d="M116.804 599.489C131.014 568.75 142.344 537.293 146.451 504.307C149.418 480.535 151.46 456.689 153.244 432.824C155.502 402.62 157.243 372.398 158.877 342.157C160.726 307.863 167.219 274.434 186.761 244.046C198.156 226.336 211.335 209.438 224.406 192.558C269.726 134.011 316.464 76.3863 369.739 22.7972C377.049 15.4259 383.971 7.83351 390.464 0.00153059L406.309 0.00153128C397.774 11.0032 388.378 21.6362 378.016 31.7901C324.312 84.4394 279.895 142.617 237.391 202.03C219.504 227.018 201.123 251.675 190.868 279.962C183.88 299.201 179.882 318.901 178.893 339.025C176.786 381.962 174.851 424.9 172.701 467.838C169.154 538.565 144.301 603.985 104.7 665.553C88.21 691.187 65.4427 710.002 37.8811 723.565L34.2047 708.712C61.4009 693.012 82.5774 671.322 96.8742 642.868C104.055 628.605 110.139 613.936 116.825 599.47L116.804 599.489Z" fill="url(#paint14_linear_2559_55955)"/>
</g>
</g>
<path id="Vector 155" d="M1080 825C1080 1032.6 794.5 1080 782 1080H1080V825Z" fill="#212121"/>
<g id="Frame 35919">
<g id="logos:telegram" clip-path="url(#clip1_2559_55955)">
<path id="Vector_16" d="M33.5 1041C30.981 1041 28.563 1042 26.7832 1043.78C25.0016 1045.56 24.0005 1047.98 24 1050.5C24 1053.02 25.002 1055.44 26.7832 1057.22C28.563 1059 30.981 1060 33.5 1060C36.019 1060 38.437 1059 40.2168 1057.22C41.998 1055.44 43 1053.02 43 1050.5C43 1047.98 41.998 1045.56 40.2168 1043.78C38.437 1042 36.019 1041 33.5 1041Z" fill="#212121"/>
<path id="Vector_17" d="M28.7091 1050.68C31.4789 1049.47 33.3255 1048.68 34.2488 1048.29C36.888 1047.2 37.4357 1047.01 37.7935 1047C37.8722 1047 38.0473 1047.02 38.1616 1047.11C38.2566 1047.19 38.2833 1047.29 38.2967 1047.37C38.3086 1047.44 38.3249 1047.61 38.3115 1047.74C38.169 1049.24 37.55 1052.89 37.2354 1054.57C37.1032 1055.28 36.8405 1055.52 36.5867 1055.55C36.0345 1055.6 35.6159 1055.18 35.0815 1054.83C34.2458 1054.28 33.7738 1053.94 32.9618 1053.41C32.0237 1052.79 32.6323 1052.45 33.1667 1051.89C33.3062 1051.75 35.7376 1049.54 35.7836 1049.34C35.7896 1049.31 35.7955 1049.22 35.7391 1049.17C35.6842 1049.12 35.6025 1049.14 35.5432 1049.15C35.4586 1049.17 34.1241 1050.05 31.5354 1051.8C31.1568 1052.06 30.8139 1052.19 30.5052 1052.18C30.1668 1052.17 29.5136 1051.99 29.0282 1051.83C28.4345 1051.64 27.961 1051.53 28.0025 1051.21C28.0233 1051.03 28.2593 1050.86 28.7091 1050.68Z" fill="#F5F1EE"/>
</g>
<g id="t.me/aerena_bot" filter="url(#filter0_d_2559_55955)">
<path d="M56.5589 1057.6C55.5736 1057.6 54.8146 1057.33 54.2819 1056.8C53.7493 1056.27 53.483 1055.52 53.483 1054.54V1044.7H54.9011V1054.46C54.9011 1055.08 55.0543 1055.55 55.3605 1055.88C55.6801 1056.22 56.1328 1056.38 56.7187 1056.38C57.3446 1056.38 57.8639 1056.2 58.2767 1055.84L58.776 1056.86C58.4964 1057.11 58.1568 1057.3 57.7574 1057.42C57.3712 1057.54 56.9717 1057.6 56.5589 1057.6ZM51.6055 1048.19V1047.01H58.0969V1048.19H51.6055ZM61.6925 1057.6C61.3995 1057.6 61.1465 1057.49 60.9335 1057.28C60.7337 1057.07 60.6339 1056.81 60.6339 1056.5C60.6339 1056.18 60.7337 1055.92 60.9335 1055.72C61.1465 1055.52 61.3995 1055.42 61.6925 1055.42C61.9854 1055.42 62.2318 1055.52 62.4315 1055.72C62.6446 1055.92 62.7511 1056.18 62.7511 1056.5C62.7511 1056.81 62.6446 1057.07 62.4315 1057.28C62.2318 1057.49 61.9854 1057.6 61.6925 1057.6ZM78.8881 1046.91C79.7403 1046.91 80.4793 1047.08 81.1052 1047.41C81.7443 1047.73 82.237 1048.23 82.5832 1048.89C82.9427 1049.56 83.1225 1050.4 83.1225 1051.41V1057.5H81.7044V1051.55C81.7044 1050.44 81.4381 1049.61 80.9054 1049.05C80.3861 1048.48 79.6471 1048.19 78.6884 1048.19C77.9693 1048.19 77.3435 1048.35 76.8108 1048.65C76.2915 1048.94 75.8854 1049.38 75.5924 1049.95C75.3128 1050.51 75.173 1051.19 75.173 1051.99V1057.5H73.7549V1051.55C73.7549 1050.44 73.4885 1049.61 72.9559 1049.05C72.4233 1048.48 71.6776 1048.19 70.7189 1048.19C70.0131 1048.19 69.3939 1048.35 68.8613 1048.65C68.3287 1048.94 67.9159 1049.38 67.6229 1049.95C67.3433 1050.51 67.2035 1051.19 67.2035 1051.99V1057.5H65.7854V1047.01H67.1436V1049.85L66.9239 1049.35C67.2434 1048.59 67.7561 1048 68.4618 1047.57C69.1809 1047.13 70.0264 1046.91 70.9985 1046.91C72.0238 1046.91 72.896 1047.17 73.615 1047.69C74.3341 1048.2 74.8001 1048.96 75.0132 1049.99L74.4539 1049.77C74.7602 1048.92 75.2995 1048.23 76.0718 1047.71C76.8574 1047.18 77.7962 1046.91 78.8881 1046.91ZM91.4225 1057.6C90.3306 1057.6 89.3719 1057.37 88.5463 1056.92C87.7207 1056.45 87.0749 1055.82 86.6088 1055.02C86.1428 1054.21 85.9098 1053.29 85.9098 1052.25C85.9098 1051.21 86.1295 1050.29 86.5689 1049.49C87.0216 1048.69 87.6342 1048.07 88.4065 1047.61C89.1921 1047.15 90.071 1046.91 91.043 1046.91C92.0284 1046.91 92.9006 1047.14 93.6596 1047.59C94.4319 1048.03 95.0377 1048.66 95.4772 1049.47C95.9166 1050.27 96.1363 1051.19 96.1363 1052.25C96.1363 1052.31 96.1296 1052.39 96.1163 1052.47C96.1163 1052.53 96.1163 1052.61 96.1163 1052.69H86.9883V1051.63H95.3573L94.7981 1052.05C94.7981 1051.29 94.6316 1050.62 94.2987 1050.03C93.9791 1049.43 93.5397 1048.96 92.9804 1048.63C92.4212 1048.3 91.7754 1048.13 91.043 1048.13C90.3239 1048.13 89.6781 1048.3 89.1056 1048.63C88.533 1048.96 88.0869 1049.43 87.7673 1050.03C87.4477 1050.63 87.288 1051.31 87.288 1052.09V1052.31C87.288 1053.11 87.4611 1053.81 87.8073 1054.42C88.1668 1055.02 88.6595 1055.5 89.2853 1055.84C89.9245 1056.18 90.6502 1056.34 91.4624 1056.34C92.1016 1056.34 92.6942 1056.23 93.2401 1056C93.7994 1055.78 94.2787 1055.43 94.6782 1054.96L95.4772 1055.88C95.0111 1056.44 94.4252 1056.87 93.7195 1057.16C93.0271 1057.45 92.2614 1057.6 91.4225 1057.6ZM98.3237 1057.5L101.819 1043.14H103.237L99.7418 1057.5H98.3237ZM113.065 1057.5V1055.18L113.005 1054.8V1050.93C113.005 1050.04 112.752 1049.35 112.246 1048.87C111.753 1048.39 111.014 1048.15 110.029 1048.15C109.35 1048.15 108.704 1048.27 108.091 1048.49C107.479 1048.72 106.959 1049.02 106.533 1049.39L105.894 1048.33C106.427 1047.88 107.066 1047.53 107.812 1047.29C108.557 1047.04 109.343 1046.91 110.169 1046.91C111.527 1046.91 112.572 1047.25 113.304 1047.93C114.05 1048.6 114.423 1049.62 114.423 1050.99V1057.5H113.065ZM109.45 1057.6C108.664 1057.6 107.978 1057.47 107.392 1057.22C106.82 1056.95 106.38 1056.59 106.074 1056.14C105.768 1055.68 105.615 1055.14 105.615 1054.54C105.615 1054 105.741 1053.51 105.994 1053.07C106.26 1052.61 106.686 1052.25 107.272 1051.99C107.872 1051.71 108.671 1051.57 109.669 1051.57H113.284V1052.63H109.709C108.697 1052.63 107.991 1052.81 107.592 1053.17C107.206 1053.53 107.013 1053.97 107.013 1054.5C107.013 1055.1 107.246 1055.58 107.712 1055.94C108.178 1056.3 108.83 1056.48 109.669 1056.48C110.468 1056.48 111.154 1056.3 111.727 1055.94C112.312 1055.57 112.739 1055.04 113.005 1054.34L113.324 1055.32C113.058 1056.02 112.592 1056.57 111.926 1056.98C111.274 1057.39 110.448 1057.6 109.45 1057.6ZM122.729 1057.6C121.637 1057.6 120.678 1057.37 119.853 1056.92C119.027 1056.45 118.381 1055.82 117.915 1055.02C117.449 1054.21 117.216 1053.29 117.216 1052.25C117.216 1051.21 117.436 1050.29 117.875 1049.49C118.328 1048.69 118.941 1048.07 119.713 1047.61C120.498 1047.15 121.377 1046.91 122.349 1046.91C123.335 1046.91 124.207 1047.14 124.966 1047.59C125.738 1048.03 126.344 1048.66 126.784 1049.47C127.223 1050.27 127.443 1051.19 127.443 1052.25C127.443 1052.31 127.436 1052.39 127.423 1052.47C127.423 1052.53 127.423 1052.61 127.423 1052.69H118.295V1051.63H126.664L126.104 1052.05C126.104 1051.29 125.938 1050.62 125.605 1050.03C125.286 1049.43 124.846 1048.96 124.287 1048.63C123.728 1048.3 123.082 1048.13 122.349 1048.13C121.63 1048.13 120.985 1048.3 120.412 1048.63C119.839 1048.96 119.393 1049.43 119.074 1050.03C118.754 1050.63 118.594 1051.31 118.594 1052.09V1052.31C118.594 1053.11 118.767 1053.81 119.114 1054.42C119.473 1055.02 119.966 1055.5 120.592 1055.84C121.231 1056.18 121.957 1056.34 122.769 1056.34C123.408 1056.34 124.001 1056.23 124.546 1056C125.106 1055.78 125.585 1055.43 125.985 1054.96L126.784 1055.88C126.317 1056.44 125.732 1056.87 125.026 1057.16C124.333 1057.45 123.568 1057.6 122.729 1057.6ZM130.329 1057.5V1047.01H131.687V1049.87L131.548 1049.37C131.841 1048.57 132.333 1047.97 133.026 1047.55C133.718 1047.13 134.577 1046.91 135.602 1046.91V1048.29C135.549 1048.29 135.496 1048.29 135.442 1048.29C135.389 1048.28 135.336 1048.27 135.283 1048.27C134.177 1048.27 133.312 1048.61 132.686 1049.29C132.06 1049.96 131.747 1050.91 131.747 1052.15V1057.5H130.329ZM142.546 1057.6C141.455 1057.6 140.496 1057.37 139.67 1056.92C138.845 1056.45 138.199 1055.82 137.733 1055.02C137.267 1054.21 137.034 1053.29 137.034 1052.25C137.034 1051.21 137.253 1050.29 137.693 1049.49C138.146 1048.69 138.758 1048.07 139.53 1047.61C140.316 1047.15 141.195 1046.91 142.167 1046.91C143.152 1046.91 144.025 1047.14 144.784 1047.59C145.556 1048.03 146.162 1048.66 146.601 1049.47C147.041 1050.27 147.26 1051.19 147.26 1052.25C147.26 1052.31 147.254 1052.39 147.24 1052.47C147.24 1052.53 147.24 1052.61 147.24 1052.69H138.112V1051.63H146.481L145.922 1052.05C145.922 1051.29 145.756 1050.62 145.423 1050.03C145.103 1049.43 144.664 1048.96 144.104 1048.63C143.545 1048.3 142.899 1048.13 142.167 1048.13C141.448 1048.13 140.802 1048.3 140.23 1048.63C139.657 1048.96 139.211 1049.43 138.891 1050.03C138.572 1050.63 138.412 1051.31 138.412 1052.09V1052.31C138.412 1053.11 138.585 1053.81 138.931 1054.42C139.291 1055.02 139.783 1055.5 140.409 1055.84C141.048 1056.18 141.774 1056.34 142.586 1056.34C143.226 1056.34 143.818 1056.23 144.364 1056C144.923 1055.78 145.403 1055.43 145.802 1054.96L146.601 1055.88C146.135 1056.44 145.549 1056.87 144.843 1057.16C144.151 1057.45 143.385 1057.6 142.546 1057.6ZM155.5 1046.91C156.352 1046.91 157.098 1047.08 157.737 1047.41C158.389 1047.73 158.895 1048.23 159.255 1048.89C159.628 1049.56 159.814 1050.4 159.814 1051.41V1057.5H158.396V1051.55C158.396 1050.44 158.116 1049.61 157.557 1049.05C157.011 1048.48 156.239 1048.19 155.24 1048.19C154.494 1048.19 153.842 1048.35 153.283 1048.65C152.737 1048.94 152.311 1049.38 152.004 1049.95C151.711 1050.51 151.565 1051.19 151.565 1051.99V1057.5H150.147V1047.01H151.505V1049.89L151.285 1049.35C151.618 1048.59 152.151 1048 152.883 1047.57C153.616 1047.13 154.488 1046.91 155.5 1046.91ZM170.216 1057.5V1055.18L170.156 1054.8V1050.93C170.156 1050.04 169.903 1049.35 169.397 1048.87C168.904 1048.39 168.165 1048.15 167.18 1048.15C166.501 1048.15 165.855 1048.27 165.242 1048.49C164.63 1048.72 164.111 1049.02 163.685 1049.39L163.045 1048.33C163.578 1047.88 164.217 1047.53 164.963 1047.29C165.709 1047.04 166.494 1046.91 167.32 1046.91C168.678 1046.91 169.723 1047.25 170.456 1047.93C171.201 1048.6 171.574 1049.62 171.574 1050.99V1057.5H170.216ZM166.601 1057.6C165.815 1057.6 165.129 1057.47 164.543 1057.22C163.971 1056.95 163.531 1056.59 163.225 1056.14C162.919 1055.68 162.766 1055.14 162.766 1054.54C162.766 1054 162.892 1053.51 163.145 1053.07C163.412 1052.61 163.838 1052.25 164.424 1051.99C165.023 1051.71 165.822 1051.57 166.82 1051.57H170.436V1052.63H166.86C165.848 1052.63 165.143 1052.81 164.743 1053.17C164.357 1053.53 164.164 1053.97 164.164 1054.5C164.164 1055.1 164.397 1055.58 164.863 1055.94C165.329 1056.3 165.982 1056.48 166.82 1056.48C167.619 1056.48 168.305 1056.3 168.878 1055.94C169.464 1055.57 169.89 1055.04 170.156 1054.34L170.476 1055.32C170.209 1056.02 169.743 1056.57 169.077 1056.98C168.425 1057.39 167.599 1057.6 166.601 1057.6ZM173.449 1058.46V1057.5H183.435V1058.46H173.449ZM190.826 1057.6C189.907 1057.6 189.081 1057.39 188.349 1056.98C187.617 1056.55 187.037 1055.94 186.611 1055.14C186.185 1054.34 185.972 1053.38 185.972 1052.25C185.972 1051.1 186.185 1050.14 186.611 1049.35C187.051 1048.55 187.637 1047.95 188.369 1047.53C189.101 1047.12 189.92 1046.91 190.826 1046.91C191.824 1046.91 192.716 1047.14 193.502 1047.59C194.301 1048.03 194.927 1048.65 195.38 1049.45C195.832 1050.25 196.059 1051.18 196.059 1052.25C196.059 1053.3 195.832 1054.23 195.38 1055.04C194.927 1055.84 194.301 1056.47 193.502 1056.92C192.716 1057.37 191.824 1057.6 190.826 1057.6ZM185.413 1057.5V1042.68H186.831V1050.11L186.631 1052.23L186.771 1054.34V1057.5H185.413ZM190.726 1056.34C191.471 1056.34 192.137 1056.18 192.723 1055.84C193.309 1055.5 193.775 1055.02 194.121 1054.4C194.468 1053.78 194.641 1053.06 194.641 1052.25C194.641 1051.42 194.468 1050.7 194.121 1050.09C193.775 1049.48 193.309 1049 192.723 1048.67C192.137 1048.33 191.471 1048.15 190.726 1048.15C189.98 1048.15 189.308 1048.33 188.708 1048.67C188.123 1049 187.656 1049.48 187.31 1050.09C186.977 1050.7 186.811 1051.42 186.811 1052.25C186.811 1053.06 186.977 1053.78 187.31 1054.4C187.656 1055.02 188.123 1055.5 188.708 1055.84C189.308 1056.18 189.98 1056.34 190.726 1056.34ZM203.224 1057.6C202.212 1057.6 201.3 1057.37 200.488 1056.92C199.689 1056.45 199.056 1055.82 198.59 1055.02C198.124 1054.21 197.891 1053.29 197.891 1052.25C197.891 1051.19 198.124 1050.27 198.59 1049.47C199.056 1048.67 199.689 1048.05 200.488 1047.59C201.287 1047.14 202.199 1046.91 203.224 1046.91C204.263 1046.91 205.181 1047.14 205.98 1047.59C206.793 1048.05 207.425 1048.67 207.878 1049.47C208.344 1050.27 208.577 1051.19 208.577 1052.25C208.577 1053.29 208.344 1054.21 207.878 1055.02C207.425 1055.82 206.793 1056.45 205.98 1056.92C205.168 1057.37 204.249 1057.6 203.224 1057.6ZM203.224 1056.34C203.983 1056.34 204.655 1056.18 205.241 1055.84C205.827 1055.5 206.287 1055.02 206.62 1054.4C206.966 1053.78 207.139 1053.06 207.139 1052.25C207.139 1051.42 206.966 1050.7 206.62 1050.09C206.287 1049.48 205.827 1049 205.241 1048.67C204.655 1048.33 203.99 1048.15 203.244 1048.15C202.498 1048.15 201.832 1048.33 201.247 1048.67C200.661 1049 200.195 1049.48 199.848 1050.09C199.502 1050.7 199.329 1051.42 199.329 1052.25C199.329 1053.06 199.502 1053.78 199.848 1054.4C200.195 1055.02 200.661 1055.5 201.247 1055.84C201.832 1056.18 202.492 1056.34 203.224 1056.34ZM214.788 1057.6C213.802 1057.6 213.043 1057.33 212.511 1056.8C211.978 1056.27 211.712 1055.52 211.712 1054.54V1044.7H213.13V1054.46C213.13 1055.08 213.283 1055.55 213.589 1055.88C213.909 1056.22 214.362 1056.38 214.948 1056.38C215.573 1056.38 216.093 1056.2 216.506 1055.84L217.005 1056.86C216.725 1057.11 216.386 1057.3 215.986 1057.42C215.6 1057.54 215.201 1057.6 214.788 1057.6ZM209.834 1048.19V1047.01H216.326V1048.19H209.834Z" fill="#212121"/>
</g>
</g>
<g id="logo">
<g id="AERENA">
<path d="M1003.01 1060.43L1002.66 1058.97H1000.44L1000.15 1060.43H997.852L1000.23 1051.92L1000.04 1051.29H1003.27L1005.87 1060.43H1003.01ZM1001.45 1053.97L1000.76 1057.38H1002.28L1001.45 1053.97ZM1011.71 1060.43H1006.18V1051.29H1011.59L1011.44 1053.13L1008.76 1053.05V1054.81H1010.87V1056.64L1008.76 1056.48V1058.56L1011.71 1058.48V1060.43ZM1014.99 1057.39V1060.43H1012.4V1051.29H1013.43C1013.68 1051.29 1014.05 1051.28 1014.54 1051.25C1015.04 1051.23 1015.44 1051.22 1015.77 1051.22C1016.89 1051.22 1017.73 1051.46 1018.28 1051.96C1018.83 1052.45 1019.11 1053.21 1019.11 1054.23C1019.11 1054.83 1018.98 1055.37 1018.71 1055.83C1018.45 1056.3 1018.11 1056.67 1017.68 1056.95C1017.91 1057.01 1018.11 1057.14 1018.28 1057.35C1018.45 1057.56 1018.58 1057.8 1018.68 1058.09C1018.77 1058.37 1018.85 1058.66 1018.92 1058.95C1018.99 1059.23 1019.07 1059.52 1019.16 1059.8C1019.25 1060.08 1019.35 1060.29 1019.46 1060.43H1016.58C1016.53 1060.36 1016.48 1060.15 1016.45 1059.82C1016.42 1059.48 1016.38 1059.08 1016.32 1058.61C1016.27 1058.14 1016.19 1057.74 1016.09 1057.43C1016.08 1057.43 1016.07 1057.43 1016.05 1057.43C1015.96 1057.43 1015.85 1057.43 1015.73 1057.43C1015.63 1057.42 1015.53 1057.41 1015.45 1057.41C1015.36 1057.4 1015.27 1057.4 1015.18 1057.39C1015.09 1057.39 1015.03 1057.39 1014.99 1057.39ZM1014.99 1055.94H1015.24C1015.37 1055.94 1015.47 1055.93 1015.56 1055.92C1015.65 1055.91 1015.75 1055.89 1015.85 1055.86C1015.96 1055.83 1016.05 1055.79 1016.12 1055.72C1016.19 1055.66 1016.26 1055.58 1016.32 1055.48C1016.38 1055.38 1016.43 1055.26 1016.46 1055.1C1016.49 1054.94 1016.51 1054.76 1016.51 1054.55V1053.94C1016.51 1053.49 1016.39 1053.17 1016.15 1052.99C1015.91 1052.81 1015.58 1052.72 1015.13 1052.72H1014.99V1055.94ZM1025.49 1060.43H1019.96V1051.29H1025.38L1025.22 1053.13L1022.54 1053.05V1054.81H1024.65V1056.64L1022.54 1056.48V1058.56L1025.49 1058.48V1060.43ZM1028.68 1060.43H1026.2V1052.02L1025.82 1051.29H1028.69L1030.13 1054.25L1031.5 1057.21L1031.12 1053.74V1051.29H1033.6V1060.43H1031.23L1029.37 1056.82L1028.22 1054.55L1028.68 1057.55V1060.43ZM1039.14 1060.43L1038.79 1058.97H1036.58L1036.28 1060.43H1033.99L1036.37 1051.92L1036.18 1051.29H1039.4L1042.01 1060.43H1039.14ZM1037.58 1053.97L1036.9 1057.38H1038.41L1037.58 1053.97Z" fill="url(#paint15_linear_2559_55955)"/>
<path d="M1003.01 1060.43L1002.66 1058.97H1000.44L1000.15 1060.43H997.852L1000.23 1051.92L1000.04 1051.29H1003.27L1005.87 1060.43H1003.01ZM1001.45 1053.97L1000.76 1057.38H1002.28L1001.45 1053.97ZM1011.71 1060.43H1006.18V1051.29H1011.59L1011.44 1053.13L1008.76 1053.05V1054.81H1010.87V1056.64L1008.76 1056.48V1058.56L1011.71 1058.48V1060.43ZM1014.99 1057.39V1060.43H1012.4V1051.29H1013.43C1013.68 1051.29 1014.05 1051.28 1014.54 1051.25C1015.04 1051.23 1015.44 1051.22 1015.77 1051.22C1016.89 1051.22 1017.73 1051.46 1018.28 1051.96C1018.83 1052.45 1019.11 1053.21 1019.11 1054.23C1019.11 1054.83 1018.98 1055.37 1018.71 1055.83C1018.45 1056.3 1018.11 1056.67 1017.68 1056.95C1017.91 1057.01 1018.11 1057.14 1018.28 1057.35C1018.45 1057.56 1018.58 1057.8 1018.68 1058.09C1018.77 1058.37 1018.85 1058.66 1018.92 1058.95C1018.99 1059.23 1019.07 1059.52 1019.16 1059.8C1019.25 1060.08 1019.35 1060.29 1019.46 1060.43H1016.58C1016.53 1060.36 1016.48 1060.15 1016.45 1059.82C1016.42 1059.48 1016.38 1059.08 1016.32 1058.61C1016.27 1058.14 1016.19 1057.74 1016.09 1057.43C1016.08 1057.43 1016.07 1057.43 1016.05 1057.43C1015.96 1057.43 1015.85 1057.43 1015.73 1057.43C1015.63 1057.42 1015.53 1057.41 1015.45 1057.41C1015.36 1057.4 1015.27 1057.4 1015.18 1057.39C1015.09 1057.39 1015.03 1057.39 1014.99 1057.39ZM1014.99 1055.94H1015.24C1015.37 1055.94 1015.47 1055.93 1015.56 1055.92C1015.65 1055.91 1015.75 1055.89 1015.85 1055.86C1015.96 1055.83 1016.05 1055.79 1016.12 1055.72C1016.19 1055.66 1016.26 1055.58 1016.32 1055.48C1016.38 1055.38 1016.43 1055.26 1016.46 1055.1C1016.49 1054.94 1016.51 1054.76 1016.51 1054.55V1053.94C1016.51 1053.49 1016.39 1053.17 1016.15 1052.99C1015.91 1052.81 1015.58 1052.72 1015.13 1052.72H1014.99V1055.94ZM1025.49 1060.43H1019.96V1051.29H1025.38L1025.22 1053.13L1022.54 1053.05V1054.81H1024.65V1056.64L1022.54 1056.48V1058.56L1025.49 1058.48V1060.43ZM1028.68 1060.43H1026.2V1052.02L1025.82 1051.29H1028.69L1030.13 1054.25L1031.5 1057.21L1031.12 1053.74V1051.29H1033.6V1060.43H1031.23L1029.37 1056.82L1028.22 1054.55L1028.68 1057.55V1060.43ZM1039.14 1060.43L1038.79 1058.97H1036.58L1036.28 1060.43H1033.99L1036.37 1051.92L1036.18 1051.29H1039.4L1042.01 1060.43H1039.14ZM1037.58 1053.97L1036.9 1057.38H1038.41L1037.58 1053.97Z" fill="url(#paint16_linear_2559_55955)"/>
</g>
<g id="Union">
<path d="M1011.54 1012H1025.94L1036.57 1041.49L1025.94 1046.29L1020.46 1022.97L1017.17 1032.31L1020.89 1030.78L1022.58 1037.97L1002.29 1046.29L1010.72 1022.2L1017.89 1016.97L1012.06 1018.35L1013.64 1013.84L1011.54 1012Z" fill="url(#paint17_linear_2559_55955)"/>
<path d="M1011.54 1012H1025.94L1036.57 1041.49L1025.94 1046.29L1020.46 1022.97L1017.17 1032.31L1020.89 1030.78L1022.58 1037.97L1002.29 1046.29L1010.72 1022.2L1017.89 1016.97L1012.06 1018.35L1013.64 1013.84L1011.54 1012Z" fill="url(#paint18_linear_2559_55955)"/>
<path d="M1034.93 1032.9L1032.46 1026.03L1036.57 1024.34L1034.93 1032.9Z" fill="url(#paint19_linear_2559_55955)"/>
<path d="M1034.93 1032.9L1032.46 1026.03L1036.57 1024.34L1034.93 1032.9Z" fill="url(#paint20_linear_2559_55955)"/>
</g>
</g>
</g>
<defs>
<filter id="filter0_d_2559_55955" x="42.4055" y="1033.48" width="183.799" height="34.1793" filterUnits="userSpaceOnUse" color-interpolation-filters="sRGB">
<feFlood flood-opacity="0" result="BackgroundImageFix"/>
<feColorMatrix in="SourceAlpha" type="matrix" values="0 0 0 0 0 0 0 0 0 0 0 0 0 0 0 0 0 0 127 0" result="hardAlpha"/>
<feOffset/>
<feGaussianBlur stdDeviation="4.6"/>
<feComposite in2="hardAlpha" operator="out"/>
<feColorMatrix type="matrix" values="0 0 0 0 0 0 0 0 0 0 0 0 0 0 0 0 0 0 0.25 0"/>
<feBlend mode="normal" in2="BackgroundImageFix" result="effect1_dropShadow_2559_55955"/>
<feBlend mode="normal" in="SourceGraphic" in2="effect1_dropShadow_2559_55955" result="shape"/>
</filter>
<linearGradient id="paint0_linear_2559_55955" x1="-3306.08" y1="3680.73" x2="3066.27" y2="657.58" gradientUnits="userSpaceOnUse">
<stop stop-color="#FFC502"/>
<stop offset="1" stop-color="#AB750F"/>
</linearGradient>
<linearGradient id="paint1_linear_2559_55955" x1="-2731.76" y1="3264.09" x2="2546.88" y2="1004.8" gradientUnits="userSpaceOnUse">
<stop stop-color="#FFC502"/>
<stop offset="1" stop-color="#AB750F"/>
</linearGradient>
<linearGradient id="paint2_linear_2559_55955" x1="-1022.56" y1="2292.53" x2="1141.39" y2="1813.22" gradientUnits="userSpaceOnUse">
<stop stop-color="#FFC502"/>
<stop offset="1" stop-color="#AB750F"/>
</linearGradient>
<linearGradient id="paint3_linear_2559_55955" x1="-3382.27" y1="3482.59" x2="2825.9" y2="394.711" gradientUnits="userSpaceOnUse">
<stop stop-color="#FFC502"/>
<stop offset="1" stop-color="#AB750F"/>
</linearGradient>
<linearGradient id="paint4_linear_2559_55955" x1="-1441.39" y1="2901.15" x2="1664.82" y2="2108.83" gradientUnits="userSpaceOnUse">
<stop stop-color="#FFC502"/>
<stop offset="1" stop-color="#AB750F"/>
</linearGradient>
<linearGradient id="paint5_linear_2559_55955" x1="-3238.41" y1="3792.86" x2="3224.65" y2="781.036" gradientUnits="userSpaceOnUse">
<stop stop-color="#FFC502"/>
<stop offset="1" stop-color="#AB750F"/>
</linearGradient>
<linearGradient id="paint6_linear_2559_55955" x1="151.732" y1="1554.9" x2="1418.64" y2="558.52" gradientUnits="userSpaceOnUse">
<stop stop-color="#FFC502"/>
<stop offset="1" stop-color="#AB750F"/>
</linearGradient>
<linearGradient id="paint7_linear_2559_55955" x1="-1618.72" y1="2201.16" x2="1515.79" y2="61.127" gradientUnits="userSpaceOnUse">
<stop stop-color="#FFC502"/>
<stop offset="1" stop-color="#AB750F"/>
</linearGradient>
<linearGradient id="paint8_linear_2559_55955" x1="-2195.1" y1="3127.2" x2="2977.7" y2="435.516" gradientUnits="userSpaceOnUse">
<stop stop-color="#FFC502"/>
<stop offset="1" stop-color="#AB750F"/>
</linearGradient>
<linearGradient id="paint9_linear_2559_55955" x1="-2314.76" y1="3262.77" x2="2952.63" y2="733.513" gradientUnits="userSpaceOnUse">
<stop stop-color="#FFC502"/>
<stop offset="1" stop-color="#AB750F"/>
</linearGradient>
<linearGradient id="paint10_linear_2559_55955" x1="-1184.39" y1="2085.15" x2="1743.3" y2="-281.653" gradientUnits="userSpaceOnUse">
<stop stop-color="#FFC502"/>
<stop offset="1" stop-color="#AB750F"/>
</linearGradient>
<linearGradient id="paint11_linear_2559_55955" x1="-2119.54" y1="3192.45" x2="2934.71" y2="794.241" gradientUnits="userSpaceOnUse">
<stop stop-color="#FFC502"/>
<stop offset="1" stop-color="#AB750F"/>
</linearGradient>
<linearGradient id="paint12_linear_2559_55955" x1="-1422.61" y1="2158.41" x2="1739.29" y2="-420.293" gradientUnits="userSpaceOnUse">
<stop stop-color="#FFC502"/>
<stop offset="1" stop-color="#AB750F"/>
</linearGradient>
<linearGradient id="paint13_linear_2559_55955" x1="-1071.33" y1="2516.31" x2="1284.31" y2="1999.27" gradientUnits="userSpaceOnUse">
<stop stop-color="#FFC502"/>
<stop offset="1" stop-color="#AB750F"/>
</linearGradient>
<linearGradient id="paint14_linear_2559_55955" x1="-1000.85" y1="2421.85" x2="1197.97" y2="1955.2" gradientUnits="userSpaceOnUse">
<stop stop-color="#FFC502"/>
<stop offset="1" stop-color="#AB750F"/>
</linearGradient>
<linearGradient id="paint15_linear_2559_55955" x1="1020" y1="1054.58" x2="1020" y2="1059.3" gradientUnits="userSpaceOnUse">
<stop stop-color="#D8A956"/>
<stop offset="1" stop-color="#AB750F"/>
</linearGradient>
<linearGradient id="paint16_linear_2559_55955" x1="998" y1="1051.96" x2="1001.56" y2="1069.22" gradientUnits="userSpaceOnUse">
<stop stop-color="#AB750F"/>
<stop offset="0.484" stop-color="#D8A956"/>
<stop offset="1" stop-color="#AB750F"/>
</linearGradient>
<linearGradient id="paint17_linear_2559_55955" x1="1019.43" y1="1024" x2="1019.43" y2="1042" gradientUnits="userSpaceOnUse">
<stop stop-color="#D8A956"/>
<stop offset="1" stop-color="#AB750F"/>
</linearGradient>
<linearGradient id="paint18_linear_2559_55955" x1="1002.29" y1="1014.01" x2="1036.57" y2="1048.06" gradientUnits="userSpaceOnUse">
<stop stop-color="#AB750F"/>
<stop offset="0.484" stop-color="#D8A956"/>
<stop offset="1" stop-color="#AB750F"/>
</linearGradient>
<linearGradient id="paint19_linear_2559_55955" x1="1019.43" y1="1024" x2="1019.43" y2="1042" gradientUnits="userSpaceOnUse">
<stop stop-color="#D8A956"/>
<stop offset="1" stop-color="#AB750F"/>
</linearGradient>
<linearGradient id="paint20_linear_2559_55955" x1="1002.29" y1="1014.01" x2="1036.57" y2="1048.06" gradientUnits="userSpaceOnUse">
<stop stop-color="#AB750F"/>
<stop offset="0.484" stop-color="#D8A956"/>
<stop offset="1" stop-color="#AB750F"/>
</linearGradient>
<clipPath id="clip0_2559_55955">
<rect width="1080" height="1080" fill="white"/>
</clipPath>
<clipPath id="clip1_2559_55955">
<rect width="19" height="19" fill="white" transform="translate(24 1041)"/>
</clipPath>
</defs>
</svg>
