<svg xmlns="http://www.w3.org/2000/svg" width="394" height="757" fill="none" xmlns:v="https://vecta.io/nano"><path d="M259 25h-21l-8 10h23l6-10z" fill="url(#C)"/><path d="M135 25h21l8 10h-23l-6-10z" fill="url(#D)"/><path d="M49.001 20L0 0v25h136.5l-3.5-5H49.001z" fill="url(#E)"/><path d="M344.5 20l49.001-20v25H257l3.5-5h84z" fill="url(#F)"/><path d="M394 754H275l-9-5.958h-69V740h197v14z" fill="url(#G)"/><path d="M0 754h119l9-5.958h69V740H0v14z" fill="url(#H)"/><path d="M0 21h133l9 13h109l9-13h134v720H0V21z" fill="#f5f1ee"/><g fill-rule="evenodd"><path d="M142 36h54v-3h-54v3z" fill="url(#I)"/><path d="M251 36h-53v-3h53v3z" fill="url(#J)"/></g><path d="M206 34l-9-17-9 17 9 14 9-14z" fill="#ab750f"/><path d="M188 34l9-17v31l-9-14z" fill="#ffc502"/><path d="M197 17l-9 17 9-14 9 14-9-17z" fill="#fff" fill-opacity=".3"/><mask id="A" maskUnits="userSpaceOnUse" x="0" y="21" width="395" height="720" mask-type="alpha"><path d="M133.001 21H0v720h394V21h-134l-9 13h-109l-9-13z" fill="#f5f1ee"/></mask><g mask="url(#A)"><path fill-rule="evenodd" d="M179.266 646.283l3.111-59.627-14.123-44.827-30.703-29.475-23.949 25.177-11.053 80.442-15.352-9.825-22.106-55.88-14.737 19.65v-59.564l-12.281-51.581-20.878-23.948L.001 512.354l-5.527-9.825-13.509 87.811-11.667 8.597c-3.275 20.469-10.439 61.652-12.895 62.635s-8.392-14.329-11.053-22.107c-5.936 14.943-18.299 45.318-20.264 47.283l-21.492 76.144c4.097 10.716 46.001-10.356 66.413-20.621 6.1-3.067 10.281-5.17 10.959-5.17 2.947 0 27.838-4.093 39.914-6.14L.001 753.067h259.748l-4.16-6.141h223.994l-12.895-19.036-43.599-68.775-9.825 21.493-14.737-29.475 3.684-70.618-14.123-44.826-30.703-29.475-23.949 25.176-11.053 80.443-15.351-9.825-22.107-55.88-14.737 19.65v-59.564l-12.281-51.581-20.879-23.949-17.193 75.53-5.527-9.825-13.509 87.811-11.667 8.597c-2.347 14.663-6.689 39.957-9.866 53.486z" fill="url(#K)" fill-opacity=".3"/></g><mask id="B" maskUnits="userSpaceOnUse" x="0" y="21" width="395" height="720" mask-type="alpha"><path d="M133 21H0v720h394V21H260l-9 13H142l-9-13z" fill="#f5f1ee"/></mask><g mask="url(#B)"><path fill-rule="evenodd" d="M-46.669 724.206c8.802-18.422 27.387-55.634 31.317-57.108s14.328-18.626 19.036-27.018l11.667 31.931c2.866-3.275 8.72-8.843 9.211-4.913s8.392 26.2 12.281 36.844l31.317-69.389 22.72 25.791 27.019-54.038 36.844 65.705 15.966-20.878 17.973 37.243c6.042-11.369 11.43-20.56 13.344-21.278 3.93-1.473 14.328-18.626 19.036-27.018l11.667 31.931c2.866-3.275 8.72-8.843 9.211-4.913s8.392 26.2 12.281 36.844l31.317-69.389 22.721 25.791 27.018-54.038 36.844 65.705 15.966-20.878c8.187 17.603 25.053 52.809 27.018 52.809s20.879 31.522 30.09 47.283l-291.68 3.684 1.548-2.765-218.926 2.765 17.194-30.703z" fill="url(#L)" fill-opacity=".6"/></g><path d="M206 743l-9-17-9 17 9 14 9-14z" fill="#ab750f"/><path d="M188 743l9-17v31l-9-14z" fill="#ffc502"/><path d="M197 726l-9 17 9-14 9 14-9-17z" fill="#fff" fill-opacity=".3"/><g opacity=".35" fill="#ab750f"><path d="M142.975 277.487c-.869.668-.473 1.782-.875 2.623-.583 1.214-.888 1.208-2.08-.154l-.02-.066c.435-.287.558-.721.558-1.222.214-.073.298-.227.246-.46.479-.254.648-.707.739-1.208l-.026.033 1.483.334-.019.12h-.006zm-6.369 81.517l.355.938.039 1.8-.266 1.034c-.839.253-1.678.327-2.526.037l-.208-2.916a1.11 1.11 0 0 0 .109-.9c.296-.171.385-.394.276-.662l1.155-.335 1.066 1.012v-.008zm-71.538 12.725c-.265-1.119.312-1.863.623-2.729h.01l.649.022.088.873.099.982.462.838-.021.808a5.12 5.12 0 0 0-.602.253l-.686.224c-.104-.159-.099-.318.016-.462a.92.92 0 0 0-.634-.802l-.005-.007zm197.038-42.548c1.195-.421 1.979-.172 1.887 1.449l-.198 2.37.022-.023c-.863.156-1.053-.873-1.661-1.17.141-.296.092-.545-.156-.74l.128-1.918-.022.032zM202.757 447c-1.115-.676-.89-1.369-.021-2.061.452-.096.691-.454.828-.939.554.032 1.313-.024 1.416.692.171 1.138-.746 1.154-1.403 1.345-.458.104-.69.47-.82.955V447zm-5.136 90.049V537c.458 1.462.623 2.85-.209 3.967l.015.033c-.213-.928-.568-1.766-.367-2.957l-.058.148.619-1.133v-.009zM56.984 297.492c-.14.232-.301.439-.414.694-.333.75-.796 1.109-1.285.519-.511-.622-.247-1.357.113-1.979l.392-.726-.021.016c.613.096.801.997 1.231 1.444l-.016.04v-.008zm71.955 10.463l-1.015.045c-.124-.643-.062-1.357-.924-1.714.039-.52.062-1.189.747-1.273 1.084-.13 1.007.766 1.253 1.337l-.069 1.605h.008zM299.694 369h-1.332l-.362-1.322 2.031-.661-.033-.017.879 1.333.123-.05-1.306.711V369zM14.001 324.183l-.016.305c-.601.666-1.244.601-1.904.264l.081.113c-.222-.955-.211-1.91.016-2.865l-.081.161c.947.016 1.477.906 1.899 2.022h.005zM84.163 481c-.154-1.681-.348-3.361.211-5h.183c.188 1.709 1.091 3.494-.394 5zm124.826 209.373l.011 1.226c-.647.506-1.317.506-2 .15l.076.119.04-1.74-.075.111c.659-.356 1.312-.317 1.942.134h.006zM148.746 659c-.403-.33-.847-.608-1.192-.991-.485-.538-.888-1.268-.14-1.816.674-.495 1.225.043 1.586.704l-.254 2.094V659zm73.273-310.992c2.096.613 2.354 1.097 1.584 2.992l-.814-1h.007l-.783-.976-.013-.016.019-1.008v.008zM360.993 499.13l-.459 2.87.05-.035L359 500.96l.05-1.457c.261-.104.495-.269.7-.503l1.25.13h-.007zM184.992 189.041l-.033 3.909c-.551.133-.954.025-1.012-.639-.049-.871.23-1.875-.93-2.274l.033-1.037-.05.05 2-.009h-.008zm139.813 378.966c1.173.192.797 1.18.967 1.887l.228.973-.28.133-.214-.228c-.192.088-.391.103-.598.029-1.04-.192-.885-1.017-.908-1.747.421-.236.783-.509.798-1.054l.007.007zm-287.804 2.489v-.361L38.042 569c1.963.135 2.676.681 1.087 2l-2.128-.504zM346.777 481h-.293l-.484-1.225c.191-.121.272-.267.25-.45L348 479l-.043 1.346-1.18.649V481zM250 472.892v-.831l.944-1.147h.016l1.424-.897.129-.017.487 1.97-.032.033c-.528.116-.864.44-1 .997l-1.968-.108zm-111.017 70.506c-.35.442-.84.778-1.593.501-.543-.194-.429-.59-.193-.926l.718-.932L139 542l-.008 1.398h-.009zM75.001 420.673c-.194.118-.406.355-.569.324-.418-.087-.551-.455-.315-.811.097-.143.478-.237.617-.156.157.094.182.418.266.643zM129.026 446c-.681-.061-1.111-.434-1.011-1.13.1-.666.611-1.009 1.242-.817.29.091.641.464.711.767.16.706-.29 1.069-.942 1.18zm88.795-277.964c.184.268.215.558.084.855a.78.78 0 0 1-.061.602c.169.145.199.319.1.507-.561-.486-1.214-.261-1.844-.217L216 168l1.813.022.008.014zM209 468c-.504-.09-1.095-.148-.987-1.213.071-.672.564-.746.971-.787l.016 2zm-35.442-293c-.26 0-.513 0-.773-.008.019-.679-.34-.9-.785-1.015l.044-.893 1.502-.084c.964.656.111 1.328.012 2zm-2.982 7c.145.161.424.323.424.484 0 .437-.348.622-.748.455-.152-.066-.292-.425-.241-.598.044-.15.368-.227.571-.335l-.006-.006zm-79.575 13.351c-.191.231-.406.707-.572.643-.412-.18-.547-.913-.314-1.634.092-.283.474-.463.615-.296.154.193.185.837.271 1.287zM190.035 210l-.035-2c.477.088 1.097.032.988 1.197-.065.699-.561.763-.953.803zM39.001 501.263c-.179.258-.364.761-.526.736-.424-.086-.591-.773-.388-1.533.084-.307.46-.564.615-.429s.203.797.299 1.226zM170 241.635c-.18.132-.366.383-.528.364-.414-.056-.582-.408-.396-.784.078-.15.456-.263.612-.194.156.075.21.401.312.614zm-98.991 3.223c.049-.775.105-1.749.842-1.843 1.206-.161 1.101 1.04 1.15 1.985l-2-.132.008-.01zM337.399 248c.161.071.445.107.522.25.178.32.048.647-.308.742a.61.61 0 0 1-.54-.232c-.154-.308-.071-.617.326-.76zM73.155 512c-1.142-.391-1.208-1.173-1.133-2 1.798.155 2.79.605 1.133 2zm197.85 3c-.005-.807.016-1.82.361-1.967.558-.246.598.934.634 1.937l-1 .03h.005zM28.833 276l-.288-.033-.288.027-.256-1.348.016-.011 1.208-.635a1.24 1.24 0 0 0 .536 0l.24 1.343-1.176.657h.008zm363.153 7.896c.044.856.008 1.64-.425 2.104l-.549-1.144-.012-1.72a1 1 0 0 1 .485-.136l.016.024.485.864v.008zm-330.994 10.06c-.888.634-1.775 1.285-2.986.956v-.893L59.031 293l-.024.024 1.969.086c-.016.282 0 .572.024.854l-.008-.008zM28.001 535l.04-2c.791.04 1.802.096 1.932.787.23 1.149-1.021 1.109-1.972 1.213zm4.004-233.143c.028-.755.033-1.748.404-1.844.579-.153.559 1.041.592 1.987l-1-.134.004-.009zM223 542.008l2 .008-.06 1.984-1.585-.056L223 542v.008zM127 307c.005.834-.069 1.598-.576 2-.918-1.583-.166-1.792.576-2zm4.81 242h-.636l-.14-1.983-.034.068 1-.042-.02-.043-.17 2zm145.142-230c-.884-.064-2.249-.077-1.894-.642.395-.619 1.346-.332 1.942.082a5.31 5.31 0 0 1-.057.56h.009zM167.89 555c-.291-.254-.777-.463-.852-.761-.184-.816.334-1.29 1.068-1.235.755.055 1.058.706.809 1.379-.108.297-.669.419-1.025.617zm86.11.422c.163-.151.326-.422.489-.422.44 0 .614.353.452.75-.067.151-.428.29-.597.239-.151-.044-.229-.371-.337-.567H254zM230.458 331c-.366-.101-.541-.369-.419-.714.053-.143.344-.297.512-.285.379.035.524.357.413.696-.046.142-.331.202-.506.303zm-59.463 233.76c-.082.366-.111.926-.251 1.086-.321.343-.648.103-.736-.617-.041-.32.088-.937.234-1.086.321-.343.601-.045.758.629l-.005-.012zm121.946-221.617L293 345l-1.791-.398c.044-.264-.03-.489-.209-.685l.134-.917 1.807.143zM116.996 569l-.996-.074V567h.988l.012 1.992-.004.008z"/><path d="M224.936 346c.849.09 1.714.127 2.064 1.09l-.109.089-.989.821-.452-.015h-.452l-.998-.992.936-.993zM90.005 570.089l.994-.089c.004.377.029.885-.313.975-.564.151-.63-.405-.685-.886h.004zM176.574 574c.15.161.426.321.426.482 0 .44-.345.624-.746.457-.157-.065-.289-.428-.245-.606.038-.149.364-.226.565-.333zm-130.67 11c-.755-.057-1.782-.008-1.888-.745-.165-1.117 1.036-1.142 1.985-1.255l-.087 2h-.01zm-10.929 1.303l.025 1.402-2 .295.008-2 1.967.295v.008zM301 590.32c.053-.941-.137-2.199.557-2.301l-.008-.019.451 1.64v.242l-.879 1.118c.045-.307 0-.531-.121-.68zm-143-.16l2-.16c0 .755.05 1.774-.636 1.953-1.129.292-1.255-.83-1.364-1.783v-.01zm15.908 5.84c-.861-.135-2.195-.126-1.852-1.276.37-1.232 1.315-.683 1.944.108l-.083 1.168h-.009zm196.889 39l.957.785c.346.322.316.724-.015.991-.693.572-1.077-.103-1.446-.365-.55-.389-.173-.918-.083-1.393.196.049.399.043.595-.018h-.008zM1.135 466.937c-.34-1.729-.024-2.245.826-1.768l-.012-.039.051.939v.016l-.565.915-.142-.141-.154.071-.004.007zm384.891-164.961l-.026-1.97c.404-.041.761.121 1 .823l-.521 1.171-.226-.032h-.227v.008zm-350.067 2.122c-.117.316.404.781-.53.898-.359.042-.853-.228-1.285-.354H34l1.455-.642c.117.112.278.144.503.098zm6.044.902c-.024-.809.101-1.489.408-2l.589.996a6.73 6.73 0 0 0-.024.902l-.973.102zM22.011 485c-.01-.42-.088-.976.387-1 .402-.017.578.444.602.929l-.989.071zm280.17-152l-.181-1.087a1.85 1.85 0 0 0 .256-.795l.767-.118.977 1.165c-.067.166-.067.339-.015.512l-1.804.323zm-19.686 170l.505 1.023-.501.977-.008-.016-.479-.945-.012-.024.008-.976c.16-.024.319-.031.479-.039h.008zm78.514-137.516c.433-.408 1.082-.709 1.826-.262.45.275-.095.593-.701.778l-1.134-.516h.009zM242.992 524.921c-.842.04-1.846.424-1.992-.96l.017-.024 1.109-.937h.802l.032 1.945.04-.024h-.008zm-224.951 1.048c.281-.344.471-1.45.874-.731.095.162.113.914.041 1.204-.254.966-.625.419-.956.257.091-.214.104-.462.041-.73zM355.013 529c-.056-.845.068-1.522.432-2l.555 1.036-.007.765-.976.199h-.004zM217 532c-.328-.112-.885-.12-.944-.361-.252-1.021.411-1.278.903-1.639l.041 2zM92.443 694c-.355-.392-.625-1.008-.288-1.686s.643-.151.846.562L92.443 694zM18.665 538.93c-.983-.842-.698-1.851-.278-2.886l.09-.044c.713.947.63 1.965.15 3l.038-.079v.009zm97.344-336.946l-.009-.508.514-.476c.461.185.494.581.486 1l-.991-.016zm-48.652 6.049l.421-.033 1.223 1.033a2.46 2.46 0 0 0-.024.77l-1.968.197h-.008l.364-1.967h-.008zM232 241.998c-.773.025-1.457-.168-2-.705l1.28-1.293.48.025.232 1.973H232zm69.994 186.696c-.192.11-.402.337-.565.302-.397-.082-.535-.459-.343-.858.06-.123.433-.185.56-.096.168.124.24.426.354.652h-.006z"/><path d="M159.526 589l-.526-.96.039-1.04.961.095c-.011.794-.058 1.54-.474 1.905zm-34.574 107l-1.943-.25c.064-.188.064-.383-.009-.57l1.053-1.18c.233.023.474.023.707.008l.24 1.929-.048.063zm55.055-106.972a.72.72 0 0 1 .426.008c0 .616.145.904.412.912l.155.413c-.058.195-.096.413-.117.639l-.754-.078-.129-1.886.011-.015-.004.007zM57.017 438.927l-.016-.927 1.073-.992-.033.041.464.024.463-.016V437l.032 2-2-.073h.016zM278 593.139c.636-.419 1.068-1.247 1.981-1.127.142 1.536-.505 2.182-1.94 1.938.074-.274.057-.547-.041-.811zm-23-149.798c-.108.225-.16.563-.333.643-.16.073-.436-.12-.667-.199.129-.225.212-.497.392-.656.256-.239.493-.133.608.212zm2-170.296l.524-1.045.476.068v.977l-.468.925-.016.03-.516-.962v.007zm-236.983 1.963l1.983 1.1a.64.64 0 0 0-.017.611L20 277l.05-2-.025.016-.008-.008zM346 451.882c.264-.705.6-1.393.937-.344.194.602-.086 1.213-.432 1.462l-.505-1.118zM111.97 682.143a3.08 3.08 0 0 0 .03.878l-1.338.979-.662-.962.108-1.038h-.008l1.87.143zM148 459.859c.199-.701.507-1.204.841-.566.339.647.081 1.276-.244 1.707l-.597-1.141zM129 634l-2-.153c.75-1.074 1.436-1.235 2 .153zm173.888-1c-.502 0-1.011-.211-.861-1.242.172-1.241.607-.707.973-.161l-.112 1.403zM169.025 177l-.025-1.971a5.06 5.06 0 0 1 .992-.009v1.071c.024.305 0 .611-.097.909h-.435-.435zm-4.012 8l1.987.04-.016.864-1.971.096a9.81 9.81 0 0 1 0-1zm-77.004 2.038l1.992-.038v1l-1.984-.138-.016-.831.008.007zM43.874 623l.127 2c-.336 0-.664-.008-1-.016L43.12 623a5.93 5.93 0 0 0 .754 0zm107.483-429l-.357-1.995c1.867-.094.558 1.224.506 1.986h-.149V194zm60.646 3.009l.967.421.03.14-.993.43v-1l-.004.009zM210.644 210c-.573-.767-1.25-1.55.356-2l-.356 2zm-160.622 6c-.061-.85-.061-1.667.979-2 0 .817-.061 1.608-.979 2zm69.991 7.142L121 223v1l-1-.157.013-.701zM161 228.016l2-.016v1l-2-.056v-.92-.008zM244.887 239c-1.082-.365-1.318-.707.113-1l-.113 1zm-138.863 4c.696.053 1.083.487.951 1.274-.085.522-.51.735-.975.726l.024-2zm287.808 8c-.706-.119-1.146-.407-.557-.939.22-.196.577.119.725.372-.097.18-.155.371-.168.567zm-209.815 1.13l.975-.13.008 1-1-.214c.017-.213.021-.435.017-.656zm-71.008 11.878l1.951.159c0 .212.008.424.04.636l-2 .197v-1l.009.008zM106 266.065l.996-.065-.004 1-.987-.097v-.838H106zM133 271l.009-2h.959l.032 1.992h-.499H133V271zm127-.961l1-.039-.023 1.988c-.323.032-.638 0-.945-.101l-.032-1.856v.008zm4.029 6.961l-.029-1c1.338.325 1.32.663.029 1zM101 279l.98.238a1.95 1.95 0 0 0 .02.482l-.995.28-.005-1zm-31.999 11l.038-1c1.27.343 1.308.677-.038 1zm272.156-.984c1.092.062.866.535.716.984-.465-.045-.691-.257-.873-.51.07-.159.126-.323.17-.49l-.019.012.006.004zM44.568 611l.433 2c-1.635-.196-.822-1.191-.614-1.991h.182V611zM194 300l-.11 2c-1.217-.719-1.19-1.383.11-2zm189.051 1.299c.776-.147 1.755-.883 1.949.701h-.008l-1.992-.424.051-.277zM306 608.947l-2 .053v-1l2 .114v.833zM2.008 316.996l.2-.98c.207.012.414.008.614-.016l.179.992L2 317l.007-.004zm379 .972l.074-1.928c.244 0 .481-.016.726-.04l.192 2-1-.032h.008zM107 320l2 .016-.008.936-1.983.048v-1H107zm-39.999 16v-2c1.333.669 1.333 1.331 0 2zm7 1.802l-.887.173c-.529.109-.825-.16-1.113-.456.366-.173.716-.404 1.105-.501.265-.064.591.058.887.103a2.03 2.03 0 0 0 0 .687l.008-.006zm-56 .198l2 .071-.967.929c-.545-.177-.911-.489-1.033-1zM170 351.008h1v.967l-1 .025v-1 .008zm136 2.984l.081-1.992.744.016.175 1.968-1 .016v-.008zM265 602l-.091 2c-1.156-.715-1.297-1.39.091-2zm-10.051.679l-1.932.321a7.76 7.76 0 0 1 0-1l1.983.376-.051.294v.009zM61.422 357l-.341-.91c-.234-.592.085-1.09.426-1.09.334 0 .653.489.405 1.082l-.341.909h-.149V357zm22.582 2l1.997.035-.008.912-1.972.053a8.03 8.03 0 0 1-.008-.991l-.008-.009zm277.004 1.024l1.98-.024a9.81 9.81 0 0 1 0 1l-1.988-.065v-.902l.008-.009zM198.984 366c-1.025-.114-1.056-.535-.933-1 1.11.092.948.57.933 1zM.001 367c1.055.322 1.046 1.149.969 2-.884-.405-.978-1.174-.969-2zm215.202 18c-.024-.712-.518-1.956.131-1.997 1.221-.08.371 1.275.471 1.997h-.301-.301zm-105.136 4l-.067-2c1.43.62 1.214 1.298.067 2zm67.942 6.079L180 395v1l-2-.071.009-.85zM7 406l1 .031-.004.875L7 407v-1zm80.001 1.992l.008-1.992h.937l.056 2h-1v-.008zm122.076 3.391L211 411l-.017 1-1.983-.355.077-.262zM7 416c-1.421-.634-1.223-1.309-.063-2L7 416zm261.005.024L269 416v1l-1-.024v-.952h.005zM269 419l.093-1c1.119.358 1.33.698-.093 1zM3.142 423L3 421l1 .016-.15 1.976-.354-.016-.362.016.008.008zM271 425c-1.477-.556-1.13-1.25-.165-2l.165 2zm-57.924.041c.379-.068.944-.129.924.505-.015.521-.616.483-1 .415a7.8 7.8 0 0 0 .081-.92h-.005zM262.005 427l.995.023-.008.854L262 428v-1h.005zm-208.597 3.975l-.385-.962-.023.008.469-.021h.477c.192.386-.177.686-.462 1l-.077-.025zM58.915 443l.085 1c-1.29-.316-1.347-.648-.085-1zm-23.933 1.096a5.66 5.66 0 0 1 0 .904L33 444.926l1-.926.975.104.008-.008zm14.035 4.987L50.97 449a4.14 4.14 0 0 1 0 1l-1.97-.149v-.768h.016zM203.076 451l-.076-1.975.896-.025c.205.966.191 1.797-.813 2h-.007zm91.941-2l1.98.016v.913L295 450l.009-.992.008-.008zm-179.012 1.142L117 450v1l-1-.173a7.61 7.61 0 0 0 .005-.693v.008zM7.021 452l.98.149v.672l-.976.179-.008-.015-.016-.948.016-.037h.004zm5.98 0l-.053 2c-.991-.293-1.021-1.098-.893-1.984l.946-.016zM343 453l2 .098v.812l-1.913.09-.087-1zm-150 3l-.12 2c-.256-.031-.504-.031-.76 0l-.12-2h1zm-119.999 4l.071-2h.803l.126 2h-1zM263 460l.018-2h.94l.042 1.984h-.495-.496L263 460zm94 1l2 .024v.96l-1.991.016v-1H357zm-257.975 6l1.919.141c0 .222.016.444.056.666l-1.999.193.024-1zM110 585l-.237 2c-.887-.768-1.225-1.477.237-2zm52.213-97.033l-.213-1.959h.008l.985-.008H163l-.244 2-.267-.041h-.276v.008zm-66.212 1.05l1-.017v1l-.996-.033v-.959l-.004.009zm250.036 5.7c.173-1.582.528-1.85.951-1.667L347 495l-1-.325.037.042zM148.968 583l-1.959-.137c.024-.222.024-.436-.009-.657l1.976-.206.024.031-.024.969h-.008zm-87.014-86c-1.242-.691-1.316-1.357.047-2l-.047 2zm-6.953 84.904l-2 .096c.61-1.374 1.284-1.261 2-.096zM80.194 505L80 503.017l.023-.017.968.041c.046.802-.062 1.529-.797 1.951V505zm-5.182-1l.985.027v.911l-.989.062v-1h.004zm170.993 0l.995.123c-.188.769-.566.914-1 .87l.005-.993zm-176.004 7.074c.387-.095 1.005-.208 1 .431-.005.656-.613.509-1 .397v-.837.009zM111.206 518l-.206-2c1.385.543 1.214 1.235.206 2zM249 520l.102-2c1.178.715 1.252 1.382-.102 2zm-53.965 8.381c.826-.306 1.774-.917 1.922.619l.043-.032-2-.346.035-.233v-.008zM328 537.046l2-.046c-.642 1.339-1.308 1.312-2 .046zm-135.99 3.262l1.083-.248c.719-.188.997.083.882.595-.086.384-.46.421-.901.241-.326-.136-.709-.189-1.074-.279v-.301l.01-.008zm-53.003 1.733l.792-.041.201 1.074-1 .926.007-1.959zm174.921 19.966c.103.768.189 1.993-.432 1.993-.612 0-.526-1.225-.422-1.993h.854zm-2.913 3.999c.391.091 1.01-.307.985.671 0 .124-.638.215-.985.323-.019-.331-.019-.663 0-.994zM237 571l.158-1c1.008.374 1.289.72-.158 1zm49.051-.008l-.051-.983h1V571h-.474-.475v-.008zM167.316 576l-.316-2c1.62.156.819 1.186.682 1.983l-.358.017h-.008zM244 709.002l-.065 1.998h-.837l-.098-1.982c.334-.024.667-.024 1 0v-.016zm-91-1.994l-.133 1.968-.709.024-.158-2h1v.008zm-8.007-23l-.126.98-.693.012-.174-.992.016-.008.984.012-.007-.004zM130 675.101c-.707 1.132-1.382 1.298-2-.101l2 .101zm-20-6.044c-.691 1.243-1.357 1.29-2-.057l2 .057zM193 668c1.349.083.986 1.108.86 2l.03-.025a2.86 2.86 0 0 1-.845-.117L193 668zm-153.216-4.984L40 665c-.336 0-.664-.008-1-.016l.209-1.984a1.66 1.66 0 0 0 .567.025l.008-.009zm-29.783-4.042L8.012 659a8.21 8.21 0 0 1 .008-1l1.964.026.016.948zm204.975-9.908l-.266 1.876-.347.058-.363-1.983.025-.017c.33.008.653.041.975.091l-.032-.025h.008zm-165.225-.992l.25 1.926h-.5-.5l.19-2c.172.083.362.107.552.074h.009zM53.818 642l.183 2c-1.403-.554-1.203-1.248-.183-2zm86.189-1c1.251.091 1.048 1.041.832 2-.915-.289-.846-1.165-.832-2zM238 168c.657.008.993.341 1 1-.585-.078-.921-.411-1-1zm22.998 13c.033.69-.291 1.03-.998.998.05-.609.383-.941.998-.998zm-158.961 3.086c.316-.083.64-.108.963-.066-.016.647-.323 1.004-.996.979-.009-.307 0-.614.025-.913h.008zM226 205.005c.722-.054 1.043.293.996.995-.611-.054-.941-.393-.996-.995zM106 206c-.113.561-.447.886-1 1 .122-.545.464-.878 1-1zm25 .004c.539-.017 1.134-.017.974.673-.038.161-.624.221-.955.323l-.019-.996zM200.025 217c.332.105.908.158.947.316.166.675-.43.675-.957.684a8.78 8.78 0 0 1 0-1h.01zM11.991 235c-1.333-.339-1.308-.67 0-1v1zm-6.007 35L5 269.5l.983-.5a7.45 7.45 0 0 1 0 .991V270z"/><path d="M261.993 270h-.991c-.023-.728.31-1.044.968-.995l.03.987-.007.008zM24.077 280.034l.923-.032c.024.694-.31 1.021-.994.997a3.9 3.9 0 0 1 .072-.965zM29.985 297c-.532-.009-1.13-.037-.953-.673.044-.159.62-.224.942-.327a5.92 5.92 0 0 1 .011.991V297zM174 327v-1h1l-.008.944c-.33.056-.653.064-.983.048L174 327zm-18.991 11c-.041-.687.284-1.03.991-.998 0 .335-.032.655-.13.966-.292.024-.577.032-.87.024l.009.008zM22 345l-.999-.495.978-.505c.021.33.031.67.01 1H22zm184.009-.992c.642.016.967.35.991.992-.325 0-.65-.033-.975-.114L206 344l.009.008zm47.982 3.028c-.109.323-.169.903-.327.936-.654.167-.634-.446-.664-.947.337-.033.664-.033 1 0l-.009.011zM333 347c-.024.625-.346.977-1 1 .089-.563.42-.906 1-1zm-261.999 3l1 .505c-.235.407-.566.569-.993.464V350h-.007zm188.016 4.989c0-.64.282-1.019.983-.987l-.04.9a1.88 1.88 0 0 1-.96.063l.017.024zM156.015 358c.57 0 1.141.073.947.67-.046.165-.616.22-.936.33-.034-.33-.034-.661 0-.991l-.011-.009zm44.018 5c.324.111.897.176.941.343.162.648-.444.648-.974.657l.033-.991V363zm19.99 5c.519 0 1.118 0 .948.682-.04.163-.619.218-.948.318-.03-.336-.03-.664 0-1zM22.032 396.904c-.031-.303-.039-.598-.024-.902.681-.032 1.042.272.987.998a4.37 4.37 0 0 1-.963-.096zm74.977 4.102a3.35 3.35 0 0 1 .973.078 5.65 5.65 0 0 1 0 .916c-.585-.043-.915-.372-.981-.985l.008-.009zM147 409.013c-.018.505.01 1.123-.682.961-.159-.041-.215-.617-.318-.951a5.39 5.39 0 0 1 1 0v-.01zm148 6.996c.326-.024.651 0 .968.064L296 417c-.658-.016-.967-.368-1-.999v.008zM322.036 452c.334.111.908.166.939.333.157.674-.438.674-.97.665-.011-.333 0-.665.02-.998h.011zM388 483.001c.716-.024 1.017.344 1 .999-.62-.065-.948-.409-1-.999zM69.068 485c.569.008 1.109.116.878.736-.058.157-.617.181-.945.264l.058-1h.01zm-.067 6.977c.348-1.38.678-1.23 1 .023-.33 0-.661 0-1-.023zM189 492c.648.053.952.402 1 1-.576-.114-.888-.462-1-1zm25.93 2c-.553-.017-1.107-.119-.875-.729.06-.161.613-.186.945-.271l-.06 1h-.01zM49.001 509.009a3.52 3.52 0 0 1 .972.066c.024.31.033.621.024.923-.686.032-1.013-.302-.996-.997v.008zM107 680a1.15 1.15 0 0 1 1-1 1.27 1.27 0 0 1-1 1zm-61.999-1c.615.024.977.328 1 1-.546-.096-.9-.408-1-1zm194.978-40l-.979-.513 1-.487-.021 1zm-1.957 27c.33.097.881.142.936.301.209.575-.396.619-.903.699-.055-.336-.066-.664-.044-1h.011zm2.947-1c-.331-.107-.9-.17-.941-.33-.166-.652.455-.643.972-.67l-.02 1h-.011zM140 602c.559.121.892.452 1 1-.55-.121-.875-.468-1-1zm-93.999 58c.638.016.985.328 1 1-.569-.086-.915-.406-1-1zM136 574c-.552-.099-.878-.438-.991-1H135c.334 0 .667.008.992.05v.95H136zm-24.024 18.926l-.484.074H111c.041-.628.361-.975 1-1l-.024.926zM35.039 657l.961.552-1 .448.039-1zM307 568.984l-.49.016-.482-.072c-.024-.306-.033-.62-.024-.926.694-.032.996.33.996.982zM249 682c.651 0 1 .309 1 1-.587-.073-.928-.398-1-1zM15.93 557.024c.057.326.082.651.065.976-.587-.081-.93-.406-.995-1l.93.024zm24.051 94.892a3.23 3.23 0 0 1-.98.075c.041-.633.371-.966.997-.991l-.017.916zM28.001 547c.334.091.893.124.951.281.216.619-.324.727-.902.719l-.039-1h-.01zM370 638.992c-.728.07-.991-.324-1-.989.693-.043.974.35 1 .989zm-53.009-71.974c.046.347-.073.68-.679.9a2.17 2.17 0 0 1-.936.053c-.78-.189-.138-.387.083-.567.165-.145.403-.272.615-.404h.468l.458.022-.009-.004z"/><path d="M317 563.07c-.093.564-.198 1.129-1.507.861-.199-.043-.515-.202-.491-.268.269-.673 1.04-.746 1.975-.601l.023.008zm-4 5.861l.714-.931c.743.98-.131.891-.683 1l-.031-.069zm4-1.931l-.488-.064h-.497c-.069-.636.097-1.102.771-.88.146.043.146.615.214.944zM19.927 529c.131.391.131.984-.376 1-.576.015-.614-.548-.499-.944a5.58 5.58 0 0 0 .875-.051V529z"/><path d="M19.892 528.92a3.67 3.67 0 0 1-.875.079c-.1-.774.261-1.065.967-.987.038.308.008.608-.084.908h-.008zm4.95-220.132c-.636.016-1.567.62-1.802-.285-.226-.889.549-1.685 1.48-1.467.897.218.253 1.157.305 1.777l.017-.025zm264.066 265.204c-.8-.111-1.126-.628-.755-1.646.15-.407.371-.432.579-.195.501.552.143 1.23.163 1.849h.006l.007-.008zM143 282.98l-1-.475.547-.505.423 1 .03-.03v.01zm-76.978 2.533c.139-.591-.256-1.414 1.044-1.509.511-.04.781.253.81.585.044.501.431 1.183-.438 1.397-.372.096-.957-.321-1.438-.501l.022.028zM51.051 488l.864.103c.033.726.297 1.775-.306 1.885-.77.143-.611-1.057-.558-1.988zm231.971-57.92c.433-.172.794-.09.975.477.029.099-.13.414-.217.432-.491.081-.7-.297-.78-.846l.022-.063zM225.212 412a2.63 2.63 0 0 0 .561.008c.058 1.208.497 2.423-.026 3.992-1.193-1.38-.619-2.737-.535-4zM360 498.875l.12-.895c.491-.125.788-.462.9-.98 1.436.447 1.079 1.184.298 2l-1.318-.118v-.007zm3-3.875c.541.121.863.468 1 1-.532-.129-.854-.476-1-1zM17.033 293c.637 0 1.035.473.959 1.898-1.008.255-1.05.172-.959-1.898zm-.041 4.771c-.358.009-.832.797-.981-.603-.068-.65.205-1.049.426-1.132.665-.26.499.946.563 1.725l-.008.019v-.009zm13.009 72.574l-.559.655c-.158-.109-.474-.252-.438-.336.085-.235.304-.446.474-.664l.523.336v.009zm-13-63.81c-.108.147-.252.498-.347.463-.23-.085-.437-.337-.653-.52.221-.168.432-.406.662-.476.085-.029.221.343.333.526l.005.007zm24.954-47.425a3.65 3.65 0 0 0 .046.82c-.272.375-.391 1.429-.844.945-.123-.133-.196-.867-.134-1.21.169-.945.583-.625.932-.563v.008zm84.989 172.899c.014.727.259 1.555-.395 1.984-.095.065-.476-.326-.517-.578-.163-1.005.334-1.275.933-1.387l-.021-.028v.009zm1.022 3.975l-.483.016-.483-.016c.099-.561.426-.878.982-.984a6.36 6.36 0 0 1 0 .976l-.016.008zM98.046 439a3.18 3.18 0 0 1-.01-1c.548.008 1.118.084.928.664-.053.16-.601.227-.918.336zm5.977-138.008c-.083-.483.05-.867.605-.99.099-.023.381.184.372.261-.058.514-.463.691-.96.737h-.025l.008-.008zm-85.947 9.022a1.59 1.59 0 0 1 .016-1.014c1.246.184.902 1.124.738 1.972l-.377.028-.377-.028a6.37 6.37 0 0 1 0-.967v.009zM111 590.024c-.033.521-.209.938-.729.976-.092 0-.294-.284-.268-.379.142-.559.528-.682.997-.597zM175.069 596l-.069-1c.5 0 1.014 0 1 .43-.013.355-.383.525-.924.57h-.007zM17.032 386.048c.62.133 1.121.438.926 1.401-.052.238-.456.61-.538.543-.635-.476-.359-1.287-.366-1.992l-.022.038v.01zm155.976 3.795l.928-1.843c.688.197 1.2.622 1.032 1.294-.272 1.119-1.232.578-1.968.556l.008-.007zM134.653 668l-.653-.53c.108-.16.24-.493.331-.469.231.074.446.296.669.456l-.347.531V668zm8.334-108.481l-.267.481-.72-.532.52-.468.48.519h-.013zM39.522 528c.169.224.393.448.477.681.028.086-.337.207-.52.319-.169-.224-.393-.448-.477-.681-.028-.086.337-.207.52-.319zm-10.57 115.168l.048 1.673c-.863.061-2.154.688-1.985-1.054.113-1.202 1.202-.688 1.945-.619h-.008zm225.314.847c.17 0 .379-.053.483.04.418.319.313.691-.3.943-.078.027-.365-.292-.443-.505-.04-.119.156-.318.247-.478h.013zM383 537.542c-.177.166-.367.471-.531.458s-.317-.347-.469-.542c.178-.166.368-.471.532-.458.165 0 .317.347.468.542zM153 384.511l-.265.489-.735-.511.507-.489.481.511H153zM38.884 323l-1.783-.081c-.039-.758-.442-1.801.698-1.907 1.45-.139 1.256.994 1.085 1.988zm150.247 246l1.787.074c.008.743.435 1.798-.738 1.914-1.599.148-1.14-1.081-1.049-1.988zM223 598.032l1 .463-.556.505-.409-1-.035.032zM97.967 264l.033 1c-1.305-.305-1.35-.641-.033-1z"/><path d="M99.001 264.976l-.48.024h-.48L98 264c.585.087.902.417.992.976H99zM379.996 468H381l-.024.988L379 469l1.004-1h-.008zm-98.043 93l-.953 1c.048-.21.032-.516.175-.629.222-.177.54-.226.825-.339l-.031-.032h-.016zM22.057 471c-.068-.33-.078-.67-.01-1l.953.496-.934.504h-.01zM197 565c.656.016.944.38 1 .998-.696.032-.976-.356-1-.998zm-45 20.034l1 .585c-.897.922-.836-.045-.969-.619l-.031.034zM323 427c.077-.588.39-.941 1-1-.067.597-.398.933-1 1zm-195 48l.44-1 .56.542-1 .458zM54.958 636l-.394 1-.564-.5 1-.46-.043-.03V636zm80.282-279.991c.192.086.384.095.584.017-.024.779.768 1.974-.824 1.974l.248-2-.008.009zm32.771 202.002l.989.591c-.968.991-.802-.123-.979-.602l-.021.022.011-.011zM17.001 316.244c-.28.064-.446.307-.491.756-1.169-.974.016-1.359.195-2 .345.269.207.827.296 1.244zM266 644l.02-2c.487.099.98.215.98 1.017 0 .809-.52.884-.993.983H266zM61.001 446c-.117.545-.442.893-1 1a1.14 1.14 0 0 1 1-1zM160 251.112l-1.1.888c-.765-.03-1.538-.037-1.9-.806l.866-1.036c.933-.067 2.151-.651 2.134.954zM367.97 552a4.08 4.08 0 0 1 0 1c-.329-.103-.883-.164-.935-.328-.184-.62.401-.655.935-.672zM20.001 633.246c.755-.216 1.557-.781 2 1.154-.778.409-1.665 1.575-2-1.154zM2.834 309.991L1 309.804l.072-1.692c1.497-.34 2.306.042 1.754 1.888l.008-.009zM323.975 563c.034.331.034.661 0 1l-.975-.491.975-.501V563zM314 493.962l-.5.038-.5-.028c.043-.492.009-1.107.661-.946.162.038.221.605.331.927l.008.009zM184 192c-.341-.015-.675-.08-1-.19l.059-1.81c1.175.35.891 1.234.941 2zm-12.992-17.007a.84.84 0 0 0 .301-.732c.293.043.533-.044.71-.261.563.109 1.011.319.98.964L171 175l.008-.007z"/><path d="M170.015 174.028l.96-.028c.122 1.521-.193 2.182-.975 1.957l.015-1.929zM193 459.95l-.499.05-.5-.025.066-1.947a3.63 3.63 0 0 1 .896 0l.037 1.922zM91.991 202c.05.827-.083 1.558-.762 2-.108-.856-.754-1.99.762-2zm166.942 108c.075.868.285 1.818-.792 2-.055-.859-.57-1.992.792-2zm-240.932.011c-.025.281-.025.562 0 .843-.803.418-.902-.137-1-.707.32-.128.656-.169 1-.136zm8.987 24.101c.102.852-.447 1.266-.68 1.888-.498-.123-1.11.092-1.308-.86.566-.691 1.116-1.435 1.988-1.021v-.007zM125 697c-.016.413-.065.814-.997 1-.016-.421 0-.83.997-1zm29.936-171.049l-.463.049-.473-.016c0-.65.307-1.007.994-.983.017.317 0 .634-.058.95zM190 556.316l-.084 1.623-1.859.061-.057-1.715c.669-.389 1.338-.381 2 .031zm23 77.704l1-.02-.036 1-.923-.029-.041-.951zM60.001 437.049a2.59 2.59 0 0 1 1 0L60.717 439h-.469L60 437.059v-.01zM195 362h-.5-.5v-1h1v1z"/></g><path d="M331.267 296v59.669H205.3s-39.779 0-71.271 26.519C80.923 426.909 74.36 514.785 74.36 514.785s-33.241-80.102 11.602-154.144C125.113 295.999 200.327 296 200.327 296h130.94zm-.001 185.635v-62.984H137.343s-36.794 21.63-36.794 76.715C100.548 591.028 158.89 596 158.89 596h172.376v-54.696H188.724s-25.6.116-44.122-16.404-18.861-43.265-18.861-43.265h205.525z" fill-opacity=".1" fill="#ab750f"/><defs><linearGradient id="C" x1="255.097" y1="29.091" x2="236.143" y2="29.775" href="#M"><stop stop-color="#a9860f"/><stop offset="1" stop-color="#ffc502"/></linearGradient><linearGradient id="D" x1="138.904" y1="29.091" x2="157.858" y2="29.775" href="#M"><stop stop-color="#a9860f"/><stop offset="1" stop-color="#ffc502"/></linearGradient><linearGradient id="E" x1="45.441" y1="17.194" x2="1.843" y2="20.878" href="#M"><stop stop-color="#d8a956"/><stop offset="1" stop-color="#ab750f"/></linearGradient><linearGradient id="F" x1="348.06" y1="17.194" x2="391.658" y2="20.878" href="#M"><stop stop-color="#d8a956"/><stop offset="1" stop-color="#ab750f"/></linearGradient><linearGradient id="G" x1="224.519" y1="747.78" x2="379.263" y2="747.78" href="#M"><stop stop-color="#d8a956"/><stop offset=".711" stop-color="#ab750f"/></linearGradient><linearGradient id="H" x1="169.482" y1="747.78" x2="14.738" y2="747.78" href="#M"><stop stop-color="#d8a956"/><stop offset=".711" stop-color="#ab750f"/></linearGradient><linearGradient id="I" x1="196" y1="35.111" x2="142" y2="35.111" href="#M"><stop stop-color="#ffc502"/><stop offset="1" stop-color="#ffc502" stop-opacity="0"/></linearGradient><linearGradient id="J" x1="198" y1="35.111" x2="251" y2="35.111" href="#M"><stop stop-color="#ab750f"/><stop offset="1" stop-color="#ab750f" stop-opacity="0"/></linearGradient><linearGradient id="K" x1="313.54" y1="341.826" x2="313.54" y2="749.482" href="#M"><stop stop-color="#d9d9d9" stop-opacity="0"/><stop offset="1" stop-color="#d8a956"/></linearGradient><linearGradient id="L" x1="303.871" y1="587.561" x2="303.871" y2="789.221" href="#M"><stop stop-color="#d9d9d9" stop-opacity="0"/><stop offset="1" stop-color="#d8a956"/></linearGradient><linearGradient id="M" gradientUnits="userSpaceOnUse"/></defs></svg>