<svg width="394" height="757" viewBox="0 0 394 757" fill="none" xmlns="http://www.w3.org/2000/svg">
<g id="exp">
<g id="background-roam">
<path id="Rectangle 291" d="M259 8H238L230 18H253L259 8Z" fill="url(#paint0_linear_3464_25804)"/>
<path id="Rectangle 290" d="M135 8H156L164 18H141L135 8Z" fill="url(#paint1_linear_3464_25804)"/>
<path id="Rectangle 289" d="M0.000244141 4H134L143 17H251L260 4H394V745H0.000244141V4Z" fill="#F5F1EE"/>
<path id="Vector 133 (Stroke)" fill-rule="evenodd" clip-rule="evenodd" d="M142 19L196 19L196 16L142 16L142 19Z" fill="url(#paint2_linear_3464_25804)"/>
<path id="Vector 132 (Stroke)" fill-rule="evenodd" clip-rule="evenodd" d="M251 19L198 19L198 16L251 16L251 19Z" fill="url(#paint3_linear_3464_25804)"/>
<g id="Group 214">
<path id="Vector 304" d="M206 16.9999L197 0L188 16.9999L197 31L206 16.9999Z" fill="#AB750F"/>
<path id="Vector 301" d="M188 16.9999L197 0V31L188 16.9999Z" fill="#D8A956"/>
<path id="Vector 305" d="M197 0L188 17L197 3L206 17L197 0Z" fill="white" fill-opacity="0.5"/>
</g>
<g id="Mask group">
<mask id="mask0_3464_25804" style="mask-type:alpha" maskUnits="userSpaceOnUse" x="0" y="4" width="395" height="741">
<path id="Rectangle 292" d="M0.000244141 4H134L143 17H251L260 4H394V745H0.000244141V4Z" fill="#F5F1EE"/>
</mask>
<g mask="url(#mask0_3464_25804)">
<path id="Union" fill-rule="evenodd" clip-rule="evenodd" d="M179.266 654.599L182.377 594.972L168.253 550.145L137.55 520.67L113.602 545.847L102.549 626.289L87.1972 616.464L65.091 560.584L50.3535 580.234V520.67L38.0722 469.089L17.1941 445.141L0.000343323 520.67L-5.52622 510.845L-19.0356 598.656L-30.7028 607.253C-33.9778 627.722 -41.1418 668.905 -43.5981 669.888C-46.0543 670.87 -51.9903 655.559 -54.6512 647.781C-60.5872 662.723 -72.9503 693.099 -74.9153 695.064L-96.4075 771.208C-92.3101 781.924 -50.4065 760.852 -29.9947 750.587C-23.8945 747.52 -19.7138 745.417 -19.0356 745.417C-16.0881 745.417 8.8019 741.323 20.8785 739.277L0.000343323 761.383H259.749L255.589 755.242H479.583L466.688 736.206L423.089 667.431L413.264 688.923L398.527 659.448L402.211 588.831L388.088 544.005L357.384 514.53L333.436 539.706L322.383 620.148L307.031 610.323L284.925 554.444L270.188 574.094V514.53L257.906 462.948L237.028 439L219.834 514.53L214.308 504.705L200.799 592.516L189.131 601.113C186.785 615.776 182.443 641.07 179.266 654.599Z" fill="url(#paint4_linear_3464_25804)" fill-opacity="0.3"/>
</g>
</g>
<g id="Mask group_2">
<mask id="mask1_3464_25804" style="mask-type:alpha" maskUnits="userSpaceOnUse" x="0" y="4" width="395" height="741">
<path id="Rectangle 292_2" d="M0.000244141 4H134L143 17H251L260 4H394V745H0.000244141V4Z" fill="#F5F1EE"/>
</mask>
<g mask="url(#mask1_3464_25804)">
<path id="Union_2" fill-rule="evenodd" clip-rule="evenodd" d="M-46.6686 713.9C-37.867 695.478 -19.2814 658.266 -15.3514 656.792C-11.4214 655.318 -1.02324 638.166 3.68457 629.773L15.3518 661.705C18.2174 658.43 24.0714 652.862 24.5627 656.792C25.0539 660.722 32.9549 682.992 36.8439 693.636L68.1611 624.247L90.8814 650.038L117.9 596L154.744 661.705L170.71 640.827C175.345 650.793 182.763 666.403 188.683 678.07C194.725 666.701 200.113 657.51 202.027 656.792C205.957 655.318 216.355 638.166 221.063 629.773L232.73 661.705C235.596 658.43 241.45 652.862 241.941 656.792C242.432 660.722 250.333 682.992 254.222 693.636L285.539 624.247L308.26 650.038L335.278 596L372.122 661.705L388.088 640.827C396.275 658.43 413.141 693.636 415.106 693.636C417.072 693.636 435.985 725.158 445.196 740.919L153.516 744.603L155.064 741.838L-63.8623 744.603L-46.6686 713.9Z" fill="url(#paint5_linear_3464_25804)" fill-opacity="0.6"/>
</g>
</g>
<g id="Group" opacity="0.35">
<path id="Vector" d="M142.975 260.487C142.106 261.155 142.502 262.269 142.1 263.11C141.517 264.324 141.212 264.318 140.02 262.956L140 262.89C140.435 262.603 140.558 262.169 140.558 261.668C140.772 261.595 140.856 261.441 140.804 261.208C141.283 260.954 141.452 260.501 141.543 260L141.517 260.033C142.009 260.147 142.508 260.254 143 260.367L142.981 260.487H142.975Z" fill="#AB750F"/>
<path id="Vector_2" d="M136.606 342.004C136.724 342.317 136.843 342.629 136.961 342.942C136.971 343.544 136.981 344.139 137 344.742C136.912 345.084 136.823 345.433 136.734 345.776C135.895 346.029 135.056 346.103 134.208 345.813C134.139 344.838 134.07 343.864 134 342.897C134.168 342.607 134.198 342.309 134.109 341.997C134.405 341.826 134.494 341.603 134.385 341.335C134.77 341.223 135.155 341.112 135.54 341C135.895 341.335 136.25 341.677 136.606 342.012V342.004Z" fill="#AB750F"/>
<path id="Vector_3" d="M65.0682 354.729C64.8033 353.61 65.3799 352.866 65.6915 352H65.7019C65.9201 352 66.133 352.007 66.3512 352.022C66.3928 352.303 66.4239 352.599 66.4395 352.895C66.4759 353.22 66.507 353.552 66.5382 353.877C66.694 354.159 66.8447 354.433 67.0005 354.715C66.9901 354.982 66.9797 355.256 66.9797 355.523C66.7771 355.596 66.5746 355.675 66.3772 355.776C66.1486 355.848 65.9201 355.928 65.6915 356C65.5876 355.841 65.5928 355.682 65.7071 355.538C65.6344 355.054 65.3799 354.859 65.0734 354.736L65.0682 354.729Z" fill="#AB750F"/>
<path id="Vector_4" d="M262.106 312.181C263.301 311.76 264.085 312.009 263.993 313.63C263.951 314.425 263.866 315.213 263.795 316L263.817 315.977C262.954 316.133 262.764 315.104 262.156 314.807C262.297 314.511 262.248 314.262 262 314.067C262.043 313.428 262.085 312.789 262.128 312.149L262.106 312.181Z" fill="#AB750F"/>
<path id="Vector_5" d="M202.757 430C201.642 429.324 201.867 428.631 202.736 427.939C203.188 427.843 203.427 427.485 203.564 427C204.118 427.032 204.877 426.976 204.98 427.692C205.151 428.83 204.234 428.846 203.577 429.037C203.119 429.141 202.887 429.507 202.757 429.992V430Z" fill="#AB750F"/>
<path id="Vector_6" d="M197.621 520.049V520C198.079 521.462 198.244 522.85 197.412 523.967L197.427 524C197.214 523.072 196.859 522.234 197.06 521.043L197.002 521.191C197.207 520.813 197.416 520.435 197.621 520.058V520.049Z" fill="#AB750F"/>
<path id="Vector_7" d="M56.9844 280.492C56.8446 280.724 56.6832 280.931 56.5703 281.186C56.2369 281.936 55.7745 282.295 55.2852 281.705C54.7743 281.083 55.0378 280.348 55.3981 279.726C55.5325 279.487 55.6562 279.239 55.7906 279L55.7691 279.016C56.3821 279.112 56.5703 280.013 57.0005 280.46L56.9844 280.5V280.492Z" fill="#AB750F"/>
<path id="Vector_8" d="M128.939 290.955C128.6 290.968 128.262 290.987 127.924 291C127.8 290.357 127.862 289.643 127 289.286C127.039 288.766 127.062 288.097 127.747 288.013C128.831 287.883 128.754 288.779 129 289.35C128.977 289.883 128.954 290.416 128.931 290.955H128.939Z" fill="#AB750F"/>
<path id="Vector_9" d="M299.694 352C299.25 352 298.806 352 298.362 352C298.239 351.561 298.116 351.117 298 350.678C298.674 350.456 299.357 350.239 300.031 350.017L299.998 350C300.294 350.444 300.581 350.889 300.877 351.333L301 351.283C300.565 351.522 300.129 351.761 299.694 351.994V352Z" fill="#AB750F"/>
<path id="Vector_10" d="M14.0005 307.183L13.9843 307.488C13.3837 308.154 12.7398 308.089 12.0798 307.752L12.1609 307.865C11.9391 306.91 11.9499 305.955 12.1772 305L12.096 305.161C13.0428 305.177 13.5731 306.067 13.9951 307.183H14.0005Z" fill="#AB750F"/>
<path id="Vector_11" d="M84.1626 464C84.0084 462.319 83.8142 460.639 84.3739 459H84.5567C84.7451 460.709 85.6475 462.494 84.1626 464Z" fill="#AB750F"/>
<path id="Vector_12" d="M208.989 673.373C208.989 673.785 208.995 674.196 209 674.599C208.353 675.105 207.683 675.105 207 674.749L207.076 674.868C207.087 674.291 207.105 673.705 207.116 673.128L207.041 673.239C207.7 672.883 208.353 672.922 208.983 673.373H208.989Z" fill="#AB750F"/>
<path id="Vector_13" d="M148.746 642C148.343 641.67 147.899 641.392 147.554 641.009C147.069 640.471 146.666 639.741 147.414 639.193C148.088 638.698 148.639 639.236 149 639.897C148.91 640.592 148.828 641.296 148.746 641.991V642Z" fill="#AB750F"/>
<path id="Vector_14" d="M222.019 331.008C224.115 331.621 224.373 332.105 223.603 334C223.332 333.669 223.061 333.331 222.789 333H222.796C222.537 332.685 222.272 332.355 222.013 332.024L222 332.008C222 331.669 222 331.339 222.019 331V331.008Z" fill="#AB750F"/>
<path id="Vector_15" d="M360.993 482.13C360.838 483.084 360.69 484.046 360.534 485L360.584 484.965L359 483.96C359.015 483.474 359.036 482.988 359.05 482.503C359.311 482.399 359.545 482.234 359.75 482C360.167 482.043 360.584 482.087 361 482.13H360.993Z" fill="#AB750F"/>
<path id="Vector_16" d="M184.992 172.041C184.984 173.344 184.968 174.647 184.959 175.95C184.408 176.083 184.005 175.975 183.947 175.311C183.898 174.44 184.177 173.436 183.017 173.037C183.025 172.689 183.042 172.349 183.05 172L183 172.05C183.667 172.05 184.334 172.041 185 172.041H184.992Z" fill="#AB750F"/>
<path id="Vector_17" d="M324.805 551.007C325.978 551.199 325.602 552.187 325.772 552.894C325.846 553.219 325.927 553.543 326 553.867L325.72 554L325.506 553.772C325.314 553.86 325.115 553.875 324.908 553.801C323.868 553.609 324.023 552.784 324 552.054C324.421 551.818 324.783 551.545 324.798 551L324.805 551.007Z" fill="#AB750F"/>
<path id="Vector_18" d="M37.0005 553.496V553.135C37.3475 552.759 37.6945 552.376 38.0416 552C40.005 552.135 40.7173 552.681 39.1283 554C38.416 553.83 37.7128 553.667 37.0005 553.496Z" fill="#AB750F"/>
<path id="Vector_19" d="M346.777 464H346.484C346.323 463.592 346.162 463.183 346 462.775C346.191 462.654 346.272 462.508 346.25 462.325C346.836 462.22 347.414 462.11 348 462C347.986 462.45 347.971 462.895 347.957 463.346C347.561 463.56 347.173 463.78 346.777 463.995V464Z" fill="#AB750F"/>
<path id="Vector_20" d="M250 455.892C250 455.618 250 455.335 250 455.061C250.312 454.679 250.632 454.296 250.944 453.914H250.96C251.432 453.607 251.904 453.307 252.384 453.017L252.513 453C252.673 453.657 252.84 454.313 253 454.97L252.968 455.003C252.44 455.119 252.104 455.443 251.968 456C251.312 455.967 250.656 455.925 250 455.892Z" fill="#AB750F"/>
<path id="Vector_21" d="M138.983 526.398C138.633 526.84 138.143 527.176 137.39 526.899C136.847 526.705 136.961 526.309 137.197 525.973C137.416 525.661 137.67 525.354 137.915 525.041C138.274 525.029 138.642 525.012 139 525C139 525.466 139 525.932 138.992 526.398H138.983Z" fill="#AB750F"/>
<path id="Vector_22" d="M75.0005 403.673C74.8068 403.791 74.5949 404.028 74.4314 403.997C74.0137 403.91 73.8805 403.542 74.1166 403.186C74.2135 403.043 74.5949 402.949 74.7341 403.03C74.8915 403.124 74.9157 403.448 75.0005 403.673Z" fill="#AB750F"/>
<path id="Vector_23" d="M129.026 429C128.345 428.939 127.915 428.566 128.015 427.87C128.115 427.204 128.626 426.861 129.257 427.053C129.547 427.144 129.898 427.517 129.968 427.82C130.128 428.526 129.678 428.889 129.026 429Z" fill="#AB750F"/>
<path id="Vector_24" d="M217.821 151.036C218.005 151.304 218.036 151.594 217.905 151.891C217.967 152.101 217.944 152.304 217.844 152.493C218.013 152.638 218.043 152.812 217.944 153C217.383 152.514 216.73 152.739 216.1 152.783C216.07 152.188 216.031 151.594 216 151C216.607 151.007 217.206 151.014 217.813 151.022L217.821 151.036Z" fill="#AB750F"/>
<path id="Vector_25" d="M209 451C208.496 450.91 207.905 450.852 208.013 449.787C208.084 449.115 208.577 449.041 208.984 449C208.99 449.664 208.995 450.328 209 451Z" fill="#AB750F"/>
<path id="Vector_26" d="M173.558 158C173.298 158 173.045 158 172.785 157.992C172.804 157.313 172.445 157.092 172 156.977C172 156.679 172.019 156.382 172.044 156.084C172.544 156.053 173.045 156.031 173.546 156C174.51 156.656 173.657 157.328 173.558 158Z" fill="#AB750F"/>
<path id="Vector_27" d="M170.576 165C170.721 165.161 171 165.323 171 165.484C171 165.921 170.652 166.106 170.252 165.939C170.1 165.873 169.96 165.514 170.011 165.341C170.055 165.191 170.379 165.114 170.582 165.006L170.576 165Z" fill="#AB750F"/>
<path id="Vector_28" d="M91.0005 178.351C90.8098 178.582 90.5945 179.058 90.4284 178.994C90.0162 178.814 89.8809 178.081 90.1146 177.36C90.2069 177.077 90.5883 176.897 90.7298 177.064C90.8836 177.257 90.9144 177.901 91.0005 178.351Z" fill="#AB750F"/>
<path id="Vector_29" d="M190.035 193C190.025 192.333 190.015 191.667 190 191C190.477 191.088 191.097 191.032 190.988 192.197C190.923 192.896 190.427 192.96 190.035 193Z" fill="#AB750F"/>
<path id="Vector_30" d="M39.0005 484.263C38.8213 484.521 38.6361 485.024 38.4748 484.999C38.0507 484.913 37.8834 484.226 38.0865 483.466C38.1702 483.159 38.5465 482.902 38.7018 483.037C38.8571 483.172 38.9049 483.834 39.0005 484.263Z" fill="#AB750F"/>
<path id="Vector_31" d="M170 224.635C169.82 224.767 169.634 225.018 169.472 224.999C169.058 224.943 168.89 224.591 169.076 224.215C169.154 224.065 169.532 223.952 169.688 224.021C169.844 224.096 169.898 224.422 170 224.635Z" fill="#AB750F"/>
<path id="Vector_32" d="M71.0086 227.858C71.0572 227.083 71.1139 226.109 71.8507 226.015C73.0572 225.854 72.9519 227.055 73.0005 228C72.3365 227.953 71.6726 227.905 71.0005 227.868L71.0086 227.858Z" fill="#AB750F"/>
<path id="Vector_33" d="M337.399 231C337.56 231.071 337.844 231.107 337.921 231.25C338.099 231.57 337.969 231.897 337.613 231.992C337.459 232.034 337.144 231.903 337.073 231.76C336.919 231.452 337.002 231.143 337.399 231Z" fill="#AB750F"/>
<path id="Vector_34" d="M73.1548 495C72.0126 494.609 71.947 493.827 72.0219 493C73.8195 493.155 74.812 493.605 73.1548 495Z" fill="#AB750F"/>
<path id="Vector_35" d="M271.005 498C271 497.193 271.021 496.18 271.366 496.033C271.924 495.787 271.964 496.967 272 497.97L271 498H271.005Z" fill="#AB750F"/>
<path id="Vector_36" d="M28.8325 259L28.5445 258.967L28.2565 258.994C28.1685 258.543 28.0885 258.092 28.0005 257.646L28.0165 257.635C28.4165 257.423 28.8245 257.212 29.2245 257C29.4005 257.039 29.5765 257.039 29.7605 257C29.8405 257.446 29.9205 257.897 30.0005 258.343C29.6085 258.56 29.2165 258.783 28.8245 259H28.8325Z" fill="#AB750F"/>
<path id="Vector_37" d="M391.986 266.896C392.03 267.752 391.994 268.536 391.561 269C391.378 268.616 391.195 268.24 391.012 267.856C391.008 267.28 391.004 266.712 391 266.136C391.159 266.048 391.322 266 391.485 266L391.501 266.024C391.664 266.312 391.823 266.6 391.986 266.888V266.896Z" fill="#AB750F"/>
<path id="Vector_38" d="M60.9924 276.956C60.1047 277.59 59.217 278.241 58.0065 277.912C57.9985 277.614 57.9985 277.316 58.0065 277.019C58.3455 276.682 58.6844 276.337 59.0314 276L59.0072 276.024C59.6609 276.055 60.3145 276.078 60.9763 276.11C60.9601 276.392 60.9763 276.682 61.0005 276.964L60.9924 276.956Z" fill="#AB750F"/>
<path id="Vector_39" d="M28.0005 518C28.0105 517.333 28.0305 516.667 28.0405 516C28.8314 516.04 29.8426 516.096 29.9727 516.787C30.203 517.936 28.9516 517.896 28.0005 518Z" fill="#AB750F"/>
<path id="Vector_40" d="M32.0046 284.857C32.0331 284.102 32.0372 283.109 32.4087 283.013C32.9882 282.86 32.9678 284.054 33.0005 285C32.6658 284.952 32.3352 284.904 32.0005 284.866L32.0046 284.857Z" fill="#AB750F"/>
<path id="Vector_41" d="M223 525.008C223.665 525.008 224.329 525.008 225 525.016C224.978 525.68 224.963 526.344 224.94 527L223.355 526.944C223.234 526.296 223.121 525.648 223 525V525.008Z" fill="#AB750F"/>
<path id="Vector_42" d="M127 290C127.005 290.834 126.931 291.598 126.424 292C125.506 290.417 126.258 290.208 127 290Z" fill="#AB750F"/>
<path id="Vector_43" d="M131.81 532C131.6 532 131.385 532 131.174 532C131.129 531.342 131.083 530.675 131.034 530.017L131 530.085C131.335 530.068 131.666 530.051 132 530.043L131.98 530C131.926 530.667 131.868 531.333 131.81 532Z" fill="#AB750F"/>
<path id="Vector_44" d="M276.952 302C276.068 301.936 274.703 301.923 275.058 301.358C275.453 300.739 276.404 301.026 277 301.44C276.991 301.627 276.972 301.813 276.943 302H276.952Z" fill="#AB750F"/>
<path id="Vector_45" d="M167.89 538C167.599 537.746 167.113 537.537 167.038 537.239C166.854 536.423 167.372 535.949 168.106 536.004C168.861 536.059 169.164 536.71 168.915 537.383C168.807 537.68 168.246 537.802 167.89 538Z" fill="#AB750F"/>
<path id="Vector_46" d="M254 538.422C254.163 538.271 254.326 538 254.489 538C254.929 538 255.103 538.353 254.941 538.75C254.874 538.901 254.513 539.04 254.344 538.989C254.193 538.945 254.115 538.618 254.007 538.422H254Z" fill="#AB750F"/>
<path id="Vector_47" d="M230.458 314C230.092 313.899 229.917 313.631 230.039 313.286C230.092 313.143 230.383 312.989 230.551 313.001C230.93 313.036 231.075 313.358 230.964 313.697C230.918 313.839 230.633 313.899 230.458 314Z" fill="#AB750F"/>
<path id="Vector_48" d="M170.995 547.76C170.913 548.126 170.884 548.686 170.744 548.846C170.423 549.189 170.096 548.949 170.008 548.229C169.967 547.909 170.096 547.292 170.242 547.143C170.563 546.8 170.843 547.098 171 547.772L170.995 547.76Z" fill="#AB750F"/>
<path id="Vector_49" d="M292.941 326.143C292.963 326.759 292.978 327.376 293 328C292.406 327.865 291.811 327.737 291.209 327.602C291.253 327.338 291.179 327.113 291 326.917C291.053 326.609 291.097 326.301 291.134 326C291.737 326.053 292.339 326.098 292.941 326.143Z" fill="#AB750F"/>
<path id="Vector_50" d="M116.996 552C116.666 551.975 116.331 551.951 116 551.926C116 551.279 116 550.639 116 550C116.331 550 116.658 550 116.988 550C116.988 550.664 116.996 551.328 117 551.992L116.996 552Z" fill="#AB750F"/>
<path id="Vector_51" d="M224.936 329C225.785 329.09 226.65 329.127 227 330.09L226.891 330.179C226.564 330.455 226.229 330.724 225.902 331L225.45 330.985H224.998C224.663 330.657 224.336 330.321 224 329.993C224.312 329.664 224.624 329.328 224.936 329Z" fill="#AB750F"/>
<path id="Vector_52" d="M90.0047 553.089C90.3387 553.061 90.6686 553.028 90.9985 553C91.0026 553.377 91.0277 553.885 90.6853 553.975C90.1216 554.126 90.0548 553.57 90.0005 553.089H90.0047Z" fill="#AB750F"/>
<path id="Vector_53" d="M176.574 557C176.724 557.161 177 557.321 177 557.482C177 557.922 176.655 558.106 176.254 557.939C176.097 557.874 175.965 557.511 176.009 557.333C176.047 557.184 176.373 557.107 176.574 557Z" fill="#AB750F"/>
<path id="Vector_54" d="M45.9037 568C45.1485 567.943 44.1222 567.992 44.0157 567.255C43.8512 566.138 45.0517 566.113 46.0005 566C45.9714 566.664 45.9424 567.336 45.9133 568H45.9037Z" fill="#AB750F"/>
<path id="Vector_55" d="M34.9754 569.303C34.9754 569.77 34.9921 570.238 35.0005 570.705C34.331 570.803 33.6616 570.902 33.0005 571C33.0005 570.336 33.0005 569.672 33.0089 569C33.6699 569.098 34.3227 569.197 34.9754 569.295V569.303Z" fill="#AB750F"/>
<path id="Vector_56" d="M301 573.32C301.053 572.379 300.863 571.121 301.557 571.019L301.549 571C301.698 571.55 301.851 572.09 302 572.64V572.882C301.706 573.255 301.416 573.627 301.121 574C301.166 573.693 301.121 573.469 301 573.32Z" fill="#AB750F"/>
<path id="Vector_57" d="M158 573.16C158.67 573.104 159.33 573.047 160 573C160 573.755 160.05 574.774 159.364 574.953C158.235 575.245 158.109 574.123 158 573.17V573.16Z" fill="#AB750F"/>
<path id="Vector_58" d="M173.908 579C173.047 578.865 171.713 578.874 172.056 577.724C172.426 576.492 173.371 577.041 174 577.832C173.973 578.218 173.945 578.614 173.917 579H173.908Z" fill="#AB750F"/>
<path id="Vector_59" d="M370.797 618C371.114 618.262 371.46 618.511 371.754 618.785C372.1 619.107 372.07 619.509 371.739 619.776C371.046 620.348 370.662 619.673 370.293 619.411C369.743 619.022 370.12 618.493 370.21 618.018C370.406 618.067 370.609 618.061 370.805 618H370.797Z" fill="#AB750F"/>
<path id="Vector_60" d="M1.13479 449.937C0.794836 448.208 1.11107 447.692 1.96096 448.169L1.9491 448.13C1.95305 448.443 1.96886 448.764 2.00049 449.069V449.085C1.81075 449.39 1.621 449.695 1.43522 450L1.29291 449.859L1.13874 449.93L1.13479 449.937Z" fill="#AB750F"/>
<path id="Vector_61" d="M386.026 284.976C386.017 284.322 386.009 283.66 386 283.006C386.404 282.965 386.761 283.127 387 283.829C386.828 284.217 386.656 284.604 386.479 285L386.253 284.968H386.026V284.976Z" fill="#AB750F"/>
<path id="Vector_62" d="M35.9589 287.098C35.8421 287.414 36.3632 287.879 35.4289 287.996C35.0695 288.038 34.5754 287.768 34.1442 287.642H34.0005C34.4856 287.428 34.9707 287.214 35.4558 287C35.5726 287.112 35.7343 287.144 35.9589 287.098Z" fill="#AB750F"/>
<path id="Vector_63" d="M42.0034 288C41.9792 287.191 42.1043 286.511 42.4111 286C42.6089 286.332 42.8027 286.664 43.0005 286.996C42.9722 287.294 42.9642 287.6 42.9763 287.898L42.0034 288Z" fill="#AB750F"/>
<path id="Vector_64" d="M22.0112 468C22.0014 467.58 21.923 467.024 22.3981 467C22.7997 466.983 22.976 467.444 23.0005 467.929C22.6724 467.953 22.3393 467.976 22.0112 468Z" fill="#AB750F"/>
<path id="Vector_65" d="M302.181 316L302 314.913C302.143 314.669 302.234 314.402 302.256 314.118C302.512 314.071 302.767 314.031 303.023 314C303.346 314.386 303.677 314.772 304 315.165C303.933 315.331 303.933 315.504 303.985 315.677C303.384 315.787 302.782 315.898 302.181 316Z" fill="#AB750F"/>
<path id="Vector_66" d="M282.495 486C282.662 486.341 282.833 486.682 283 487.023L282.499 488L282.491 487.984C282.331 487.667 282.172 487.349 282.012 487.039L282 487.015C282 486.69 282.008 486.364 282.008 486.039C282.168 486.015 282.327 486.008 282.487 486H282.495Z" fill="#AB750F"/>
<path id="Vector_67" d="M361.009 348.484C361.442 348.076 362.091 347.775 362.835 348.222C363.285 348.497 362.74 348.815 362.134 349C361.753 348.828 361.381 348.656 361 348.484H361.009Z" fill="#AB750F"/>
<path id="Vector_68" d="M242.992 507.921C242.15 507.961 241.146 508.345 241 506.961L241.017 506.937C241.389 506.624 241.754 506.312 242.126 506C242.393 506 242.66 506 242.928 506C242.936 506.648 242.952 507.297 242.96 507.945L243 507.921H242.992Z" fill="#AB750F"/>
<path id="Vector_69" d="M18.0412 508.969C18.322 508.625 18.5123 507.519 18.9153 508.238C19.0104 508.4 19.0286 509.152 18.9561 509.442C18.7025 510.408 18.3311 509.861 18.0005 509.699C18.0911 509.485 18.1047 509.237 18.0412 508.969Z" fill="#AB750F"/>
<path id="Vector_70" d="M355.013 512C354.957 511.155 355.081 510.478 355.445 510C355.629 510.343 355.817 510.693 356 511.036C355.985 511.291 355.981 511.546 355.993 511.801C355.669 511.865 355.341 511.936 355.017 512H355.013Z" fill="#AB750F"/>
<path id="Vector_71" d="M217 515C216.672 514.888 216.115 514.88 216.056 514.639C215.804 513.618 216.467 513.361 216.959 513C216.977 513.667 216.989 514.333 217 515Z" fill="#AB750F"/>
<path id="Vector_72" d="M92.4428 677C92.0874 676.608 91.8176 675.992 92.1549 675.314C92.4922 674.636 92.7981 675.163 93.0005 675.876C92.8161 676.251 92.6272 676.625 92.4428 677Z" fill="#AB750F"/>
<path id="Vector_73" d="M18.6654 521.93C17.6826 521.088 17.9677 520.079 18.3878 519.044L18.4778 519C19.1905 519.947 19.108 520.965 18.6278 522L18.6654 521.921V521.93Z" fill="#AB750F"/>
<path id="Vector_74" d="M116.009 184.984C116.009 184.815 116.005 184.645 116 184.476C116.173 184.315 116.346 184.157 116.514 184C116.975 184.185 117.008 184.581 117 185C116.671 184.996 116.338 184.988 116.009 184.984Z" fill="#AB750F"/>
<path id="Vector_75" d="M67.3568 191.033L67.7778 191C68.1827 191.344 68.5956 191.689 69.0005 192.033C68.9519 192.287 68.9438 192.549 68.9762 192.803C68.3203 192.869 67.6645 192.934 67.0086 193H67.0005C67.1219 192.336 67.2434 191.68 67.3649 191.033H67.3568Z" fill="#AB750F"/>
<path id="Vector_76" d="M232 224.998C231.227 225.023 230.543 224.83 230 224.293C230.427 223.865 230.854 223.437 231.28 223L231.76 223.025C231.84 223.688 231.912 224.343 231.992 224.998H232Z" fill="#AB750F"/>
<path id="Vector_77" d="M301.994 411.694C301.802 411.804 301.592 412.031 301.429 411.996C301.032 411.914 300.894 411.537 301.086 411.138C301.146 411.015 301.519 410.953 301.646 411.042C301.814 411.166 301.886 411.468 302 411.694H301.994Z" fill="#AB750F"/>
<path id="Vector_78" d="M159.526 572C159.351 571.683 159.176 571.357 159 571.04C159.012 570.69 159.024 570.349 159.039 570C159.358 570.032 159.678 570.063 160 570.095C159.989 570.889 159.942 571.635 159.526 572Z" fill="#AB750F"/>
<path id="Vector_79" d="M124.952 679C124.302 678.914 123.659 678.828 123.009 678.75C123.073 678.562 123.073 678.367 123 678.18C123.354 677.789 123.699 677.391 124.053 677C124.286 677.023 124.527 677.023 124.76 677.008C124.84 677.648 124.92 678.297 125 678.937L124.952 679Z" fill="#AB750F"/>
<path id="Vector_80" d="M180.007 572.028C180.149 571.989 180.291 571.989 180.433 572.036C180.433 572.652 180.578 572.94 180.845 572.948C180.897 573.08 180.949 573.221 181 573.361C180.942 573.556 180.904 573.774 180.883 574C180.63 573.977 180.381 573.945 180.129 573.922C180.087 573.291 180.042 572.667 180 572.036L180.011 572.021L180.007 572.028Z" fill="#AB750F"/>
<path id="Vector_81" d="M57.0167 421.927C57.0005 421.618 57.0005 421.309 57.0005 421C57.3582 420.667 57.7159 420.341 58.0737 420.008L58.0411 420.049L58.5046 420.073L58.968 420.057V420C58.9842 420.667 58.9924 421.333 59.0005 422C58.3338 421.967 57.6672 421.943 57.0005 421.927H57.0167Z" fill="#AB750F"/>
<path id="Vector_82" d="M278 576.139C278.636 575.72 279.068 574.892 279.981 575.012C280.123 576.548 279.476 577.194 278.041 576.95C278.115 576.676 278.098 576.403 278 576.139Z" fill="#AB750F"/>
<path id="Vector_83" d="M255 426.341C254.892 426.566 254.84 426.904 254.667 426.984C254.507 427.057 254.231 426.864 254 426.785C254.129 426.56 254.212 426.288 254.392 426.129C254.648 425.89 254.885 425.996 255 426.341Z" fill="#AB750F"/>
<path id="Vector_84" d="M257 256.045C257.176 255.699 257.348 255.346 257.524 255C257.684 255.03 257.84 255.053 258 255.068V256.045C257.844 256.353 257.688 256.662 257.532 256.97L257.516 257C257.344 256.677 257.172 256.361 257 256.038V256.045Z" fill="#AB750F"/>
<path id="Vector_85" d="M20.0171 258.008C20.681 258.378 21.3449 258.739 22.0005 259.108C21.8926 259.309 21.8843 259.51 21.9839 259.719C21.32 259.815 20.6644 259.904 20.0005 260C20.0171 259.333 20.0337 258.667 20.0503 258L20.0254 258.016L20.0171 258.008Z" fill="#AB750F"/>
<path id="Vector_86" d="M346 434.882C346.264 434.177 346.6 433.489 346.937 434.538C347.131 435.14 346.851 435.751 346.505 436C346.337 435.63 346.169 435.252 346 434.882Z" fill="#AB750F"/>
<path id="Vector_87" d="M111.97 665.143C111.939 665.439 111.947 665.726 112 666.021C111.554 666.35 111.108 666.671 110.662 667C110.439 666.679 110.224 666.359 110 666.038C110.031 665.692 110.062 665.346 110.108 665H110.1C110.724 665.051 111.347 665.101 111.97 665.143Z" fill="#AB750F"/>
<path id="Vector_88" d="M148 442.859C148.199 442.158 148.507 441.655 148.841 442.293C149.18 442.94 148.922 443.569 148.597 444C148.398 443.623 148.199 443.236 148 442.859Z" fill="#AB750F"/>
<path id="Vector_89" d="M129 617L127 616.847C127.75 615.773 128.436 615.612 129 617Z" fill="#AB750F"/>
<path id="Vector_90" d="M302.888 616C302.386 616 301.877 615.789 302.027 614.758C302.199 613.517 302.634 614.051 303 614.597C302.941 615.056 302.903 615.528 302.888 616Z" fill="#AB750F"/>
<path id="Vector_91" d="M169.025 160C169.025 159.34 169.009 158.688 169 158.029C169.331 157.996 169.661 157.988 169.992 158.02C169.992 158.375 169.992 158.729 169.992 159.091C170.016 159.396 169.992 159.702 169.895 160H169.46H169.025Z" fill="#AB750F"/>
<path id="Vector_92" d="M165.013 168C165.673 168.016 166.341 168.024 167 168.04C167 168.328 167 168.616 166.984 168.904C166.324 168.936 165.673 168.968 165.013 169C164.996 168.664 164.996 168.336 165.013 168Z" fill="#AB750F"/>
<path id="Vector_93" d="M88.0086 170.038C88.6698 170.031 89.3311 170.015 90.0005 170C90.0005 170.331 90.0005 170.669 90.0005 171C89.3392 170.954 88.6779 170.908 88.0166 170.862C88.0166 170.585 88.0086 170.308 88.0005 170.031L88.0086 170.038Z" fill="#AB750F"/>
<path id="Vector_94" d="M43.8736 606C43.9184 606.667 43.9557 607.333 44.0005 608C43.6647 608 43.3363 607.992 43.0005 607.984C43.0378 607.317 43.0826 606.659 43.1199 606C43.3736 606.016 43.6199 606.016 43.8736 606Z" fill="#AB750F"/>
<path id="Vector_95" d="M151.357 177C151.24 176.332 151.117 175.673 151 175.005C152.867 174.911 151.558 176.229 151.506 176.991H151.357V177Z" fill="#AB750F"/>
<path id="Vector_96" d="M212.003 180.009C212.325 180.15 212.648 180.29 212.97 180.43L213 180.57C212.669 180.72 212.338 180.86 212.007 181C211.998 180.664 211.998 180.336 212.007 180L212.003 180.009Z" fill="#AB750F"/>
<path id="Vector_97" d="M210.644 193C210.071 192.233 209.394 191.45 211 191C210.878 191.667 210.756 192.333 210.644 193Z" fill="#AB750F"/>
<path id="Vector_98" d="M50.0218 199C49.9612 198.15 49.9612 197.333 51.0005 197C51.0005 197.817 50.9399 198.608 50.0218 199Z" fill="#AB750F"/>
<path id="Vector_99" d="M120.013 206.142C120.342 206.097 120.671 206.045 121 206V207C120.667 206.948 120.334 206.896 120 206.843C120.013 206.612 120.017 206.381 120.013 206.142Z" fill="#AB750F"/>
<path id="Vector_100" d="M161 211.016C161.673 211.016 162.337 211 163 211V212C162.337 211.976 161.664 211.96 161 211.944C161 211.635 161 211.325 161 211.024V211.016Z" fill="#AB750F"/>
<path id="Vector_101" d="M244.887 222C243.805 221.635 243.569 221.293 245 221C244.96 221.333 244.927 221.667 244.887 222Z" fill="#AB750F"/>
<path id="Vector_102" d="M106.024 226C106.72 226.053 107.107 226.487 106.975 227.274C106.89 227.796 106.465 228.009 106 228C106 227.336 106.016 226.672 106.024 226Z" fill="#AB750F"/>
<path id="Vector_103" d="M393.832 234C393.126 233.881 392.686 233.593 393.275 233.061C393.495 232.865 393.852 233.18 394 233.433C393.903 233.613 393.845 233.804 393.832 234Z" fill="#AB750F"/>
<path id="Vector_104" d="M184.017 235.13L184.992 235C184.992 235.336 185 235.664 185 236C184.666 235.931 184.335 235.863 184 235.786C184.017 235.573 184.021 235.351 184.017 235.13Z" fill="#AB750F"/>
<path id="Vector_105" d="M113.009 247.008C113.656 247.061 114.312 247.114 114.96 247.167C114.96 247.379 114.968 247.591 115 247.803L113 248C113 247.667 113 247.333 113 247L113.009 247.008Z" fill="#AB750F"/>
<path id="Vector_106" d="M106 249.065C106.332 249.04 106.664 249.024 106.996 249C107.004 249.331 107 249.661 106.992 250C106.664 249.968 106.332 249.935 106.005 249.903C106.005 249.621 106.005 249.347 106.005 249.065H106Z" fill="#AB750F"/>
<path id="Vector_107" d="M133 254C133 253.333 133 252.667 133.009 252C133.328 252 133.648 252 133.968 252C133.976 252.667 133.984 253.333 134 253.992H133.501H133V254Z" fill="#AB750F"/>
<path id="Vector_108" d="M260 253.039C260.331 253.031 260.662 253.016 261 253C260.993 253.663 260.985 254.326 260.977 254.988C260.654 255.02 260.339 254.988 260.032 254.887C260.024 254.271 260.008 253.655 260 253.031V253.039Z" fill="#AB750F"/>
<path id="Vector_109" d="M264.029 260C264.029 259.667 264.01 259.333 264 259C265.338 259.325 265.32 259.663 264.029 260Z" fill="#AB750F"/>
<path id="Vector_110" d="M101 262C101.326 262.077 101.651 262.161 101.98 262.238C101.968 262.399 101.972 262.559 102 262.72L101.005 263C101.005 262.664 101.005 262.336 101 262Z" fill="#AB750F"/>
<path id="Vector_111" d="M69.0005 273C69.01 272.665 69.0289 272.331 69.0384 272C70.3085 272.343 70.3465 272.677 69.0005 273Z" fill="#AB750F"/>
<path id="Vector_112" d="M341.157 272.016C342.249 272.078 342.023 272.551 341.873 273C341.408 272.955 341.182 272.743 341 272.49C341.07 272.331 341.126 272.167 341.17 272L341.151 272.012L341.157 272.016Z" fill="#AB750F"/>
<path id="Vector_113" d="M44.568 594C44.715 594.667 44.8534 595.333 45.0005 596C43.3656 595.804 44.1787 594.809 44.3863 594.009H44.568V594Z" fill="#AB750F"/>
<path id="Vector_114" d="M194 283C193.964 283.664 193.927 284.328 193.89 285C192.673 284.281 192.7 283.617 194 283Z" fill="#AB750F"/>
<path id="Vector_115" d="M383.051 284.299C383.827 284.152 384.806 283.416 385 285H384.992C384.325 284.861 383.667 284.723 383 284.576L383.051 284.299Z" fill="#AB750F"/>
<path id="Vector_116" d="M306 591.947C305.334 591.962 304.667 591.985 304 592V591C304.667 591.038 305.334 591.076 306 591.114C306 591.389 306 591.672 306 591.947Z" fill="#AB750F"/>
<path id="Vector_117" d="M2.00763 299.996C2.07192 299.671 2.14335 299.341 2.20763 299.016C2.41477 299.028 2.62192 299.024 2.82192 299C2.87906 299.329 2.94335 299.659 3.00049 299.992L2.00049 300L2.00763 299.996Z" fill="#AB750F"/>
<path id="Vector_118" d="M381.008 300.968C381.03 300.328 381.06 299.68 381.082 299.04C381.326 299.04 381.563 299.024 381.808 299C381.875 299.664 381.941 300.336 382 301C381.667 300.992 381.334 300.976 381 300.968H381.008Z" fill="#AB750F"/>
<path id="Vector_119" d="M107 303C107.67 303 108.339 303.008 109 303.016C109 303.328 109 303.64 108.992 303.952L107.009 304C107.009 303.664 107.009 303.336 107.009 303H107Z" fill="#AB750F"/>
<path id="Vector_120" d="M67.0005 319V317C68.3338 317.669 68.3338 318.331 67.0005 319Z" fill="#AB750F"/>
<path id="Vector_121" d="M74.0005 320.802C73.7048 320.86 73.4091 320.911 73.1133 320.975C72.5842 321.084 72.2884 320.815 72.0005 320.519C72.3662 320.346 72.7164 320.115 73.1055 320.018C73.3701 319.954 73.697 320.076 73.9927 320.121C73.9538 320.352 73.9538 320.577 73.9927 320.808L74.0005 320.802Z" fill="#AB750F"/>
<path id="Vector_122" d="M18.0005 321C18.6672 321.021 19.3338 321.05 20.0005 321.071C19.6753 321.383 19.3582 321.695 19.033 322C18.4883 321.823 18.1224 321.511 18.0005 321Z" fill="#AB750F"/>
<path id="Vector_123" d="M170 334.008C170.337 334.008 170.669 334.008 171 334.008C171 334.336 171 334.656 171 334.975C170.669 334.984 170.332 334.992 170 335C170 334.664 170 334.328 170 334V334.008Z" fill="#AB750F"/>
<path id="Vector_124" d="M306 336.992C306.024 336.331 306.057 335.661 306.081 335C306.329 335.016 306.577 335.024 306.825 335.016C306.881 335.669 306.944 336.331 307 336.984C306.664 336.984 306.336 336.984 306 337V336.992Z" fill="#AB750F"/>
<path id="Vector_125" d="M265 585C264.967 585.667 264.942 586.333 264.909 587C263.753 586.285 263.612 585.61 265 585Z" fill="#AB750F"/>
<path id="Vector_126" d="M254.949 585.679C254.302 585.789 253.664 585.899 253.017 586C253 585.67 252.991 585.33 253.017 585C253.681 585.128 254.336 585.248 255 585.376L254.949 585.67V585.679Z" fill="#AB750F"/>
<path id="Vector_127" d="M61.4218 340C61.3082 339.7 61.1945 339.391 61.0809 339.09C60.8465 338.498 61.1661 338 61.5071 338C61.8409 338 62.1605 338.489 61.9119 339.082C61.7841 339.382 61.6846 339.691 61.571 339.991H61.4218V340Z" fill="#AB750F"/>
<path id="Vector_128" d="M84.0037 342C84.672 342.009 85.3322 342.027 86.0005 342.035C86.0005 342.336 85.9923 342.646 85.9923 342.947C85.3322 342.965 84.672 342.982 84.02 343C83.9955 342.673 83.9956 342.336 84.0119 342.009L84.0037 342Z" fill="#AB750F"/>
<path id="Vector_129" d="M361.008 343.024C361.668 343.016 362.328 343.008 362.988 343C363.005 343.333 363.005 343.667 362.988 344C362.328 343.976 361.669 343.951 361 343.935C361 343.634 361 343.333 361 343.033L361.008 343.024Z" fill="#AB750F"/>
<path id="Vector_130" d="M198.984 349C197.959 348.886 197.928 348.465 198.051 348C199.161 348.092 198.999 348.57 198.984 349Z" fill="#AB750F"/>
<path id="Vector_131" d="M0.000978229 350C1.05548 350.322 1.04698 351.149 0.970441 352C0.0860183 351.595 -0.00752583 350.826 0.000978229 350Z" fill="#AB750F"/>
<path id="Vector_132" d="M215.203 368C215.179 367.288 214.685 366.044 215.334 366.003C216.555 365.923 215.705 367.278 215.805 368H215.504H215.203Z" fill="#AB750F"/>
<path id="Vector_133" d="M110.067 372C110.042 371.331 110.025 370.661 110 370C111.43 370.62 111.214 371.298 110.067 372Z" fill="#AB750F"/>
<path id="Vector_134" d="M178.009 378.079C178.675 378.056 179.334 378.024 180 378C180 378.333 180 378.667 180 379C179.334 378.976 178.667 378.96 178 378.929C178 378.643 178 378.357 178.009 378.079Z" fill="#AB750F"/>
<path id="Vector_135" d="M7.00049 389C7.33247 389.008 7.6685 389.016 8.00049 389.031C8.00049 389.328 8.00049 389.617 7.99644 389.906C7.66446 389.938 7.33247 389.969 7.00049 390C7.00049 389.664 7.00049 389.328 7.00049 389Z" fill="#AB750F"/>
<path id="Vector_136" d="M87.0005 390.992C87.0005 390.328 87.0005 389.664 87.0084 389C87.318 389 87.6354 389 87.9449 389C87.9608 389.664 87.9846 390.328 88.0005 391C87.6672 391 87.3338 391 87.0005 391V390.992Z" fill="#AB750F"/>
<path id="Vector_137" d="M209.077 394.383C209.718 394.252 210.359 394.121 211 394C211 394.336 210.992 394.664 210.983 395C210.325 394.879 209.659 394.766 209 394.645L209.077 394.383Z" fill="#AB750F"/>
<path id="Vector_138" d="M7.00049 399C5.5796 398.366 5.77745 397.691 6.93754 397C6.95552 397.667 6.9825 398.333 7.00049 399Z" fill="#AB750F"/>
<path id="Vector_139" d="M268.005 399.024L269 399C269 399.333 269 399.667 269 400C268.666 399.992 268.335 399.984 268 399.976C268 399.659 268 399.341 268 399.024H268.005Z" fill="#AB750F"/>
<path id="Vector_140" d="M269 402C269.034 401.668 269.059 401.332 269.093 401C270.212 401.358 270.423 401.698 269 402Z" fill="#AB750F"/>
<path id="Vector_141" d="M3.14222 406C3.09498 405.336 3.04773 404.664 3.00049 404L4.00049 404.016C3.95324 404.672 3.89813 405.336 3.85089 405.992L3.49655 405.976L3.13435 405.992L3.14222 406Z" fill="#AB750F"/>
<path id="Vector_142" d="M271 408C269.523 407.444 269.87 406.75 270.835 406C270.893 406.669 270.943 407.331 271 408Z" fill="#AB750F"/>
<path id="Vector_143" d="M213.076 408.041C213.455 407.973 214.02 407.912 214 408.546C213.985 409.067 213.384 409.029 213 408.961C213.046 408.659 213.071 408.35 213.081 408.041H213.076Z" fill="#AB750F"/>
<path id="Vector_144" d="M262.005 410C262.335 410.008 262.67 410.015 263 410.023C263 410.308 263 410.592 262.992 410.877C262.662 410.915 262.331 410.962 262 411C262 410.669 262 410.331 262 410H262.005Z" fill="#AB750F"/>
<path id="Vector_145" d="M53.4084 413.975C53.2776 413.653 53.1467 413.331 53.0236 413.013L53.0005 413.021L53.47 413H53.9472C54.1396 413.386 53.7702 413.686 53.4854 414L53.4084 413.975Z" fill="#AB750F"/>
<path id="Vector_146" d="M58.9151 426C58.9436 426.332 58.972 426.668 59.0005 427C57.7108 426.684 57.6539 426.352 58.9151 426Z" fill="#AB750F"/>
<path id="Vector_147" d="M34.9824 427.096C35.0065 427.4 35.0065 427.696 34.9824 428C34.3217 427.978 33.6611 427.948 33.0005 427.926C33.3308 427.615 33.6692 427.311 33.9995 427C34.3217 427.037 34.6521 427.067 34.9743 427.104L34.9824 427.096Z" fill="#AB750F"/>
<path id="Vector_148" d="M49.0166 432.083L50.9702 432C51.0106 432.331 51.0106 432.669 50.9702 433C50.3163 432.95 49.6624 432.901 49.0005 432.851C49.0086 432.595 49.0086 432.339 49.0005 432.083H49.0166Z" fill="#AB750F"/>
<path id="Vector_149" d="M203.076 434C203.048 433.339 203.021 432.686 203 432.025C203.301 432.017 203.595 432.008 203.896 432C204.101 432.966 204.087 433.797 203.083 434H203.076Z" fill="#AB750F"/>
<path id="Vector_150" d="M295.017 432C295.677 432 296.337 432.008 296.997 432.016C296.997 432.317 297.005 432.619 296.997 432.929C296.337 432.952 295.669 432.976 295 433C295 432.667 295 432.333 295.009 432.008L295.017 432Z" fill="#AB750F"/>
<path id="Vector_151" d="M116.005 433.142C116.338 433.095 116.671 433.047 117 433C117 433.331 117 433.669 117 434C116.667 433.945 116.334 433.882 116 433.827C116.013 433.598 116.013 433.37 116.005 433.134V433.142Z" fill="#AB750F"/>
<path id="Vector_152" d="M7.02057 435C7.34989 435.052 7.67519 435.097 8.00049 435.149C7.99246 435.373 7.99246 435.597 8.00049 435.821C7.67519 435.881 7.34989 435.94 7.02459 436L7.01655 435.985C7.01254 435.672 7.0045 435.351 7.00049 435.037L7.01655 435H7.02057Z" fill="#AB750F"/>
<path id="Vector_153" d="M13.0005 435C12.9854 435.667 12.9627 436.333 12.9475 437C11.9563 436.707 11.926 435.902 12.0546 435.016C12.3724 435.016 12.6903 435.008 13.0005 435Z" fill="#AB750F"/>
<path id="Vector_154" d="M343 436C343.67 436.033 344.331 436.066 345 436.098C344.993 436.369 344.993 436.639 345 436.91C344.363 436.943 343.725 436.967 343.087 437C343.064 436.672 343.04 436.336 343 436Z" fill="#AB750F"/>
<path id="Vector_155" d="M193 439C192.96 439.667 192.92 440.333 192.88 441C192.624 440.969 192.376 440.969 192.12 441C192.08 440.333 192.04 439.667 192 439C192.336 439 192.664 439 193 439Z" fill="#AB750F"/>
<path id="Vector_156" d="M73.0005 443C73.0241 442.336 73.0399 441.664 73.0714 441C73.3391 441 73.6068 441 73.8745 441C73.9139 441.664 73.9611 442.328 74.0005 443C73.6698 443 73.3312 443 73.0005 443Z" fill="#AB750F"/>
<path id="Vector_157" d="M263 443C263 442.331 263.009 441.669 263.018 441C263.334 441 263.642 441 263.958 441L264 442.984H263.505H263.009L263 443Z" fill="#AB750F"/>
<path id="Vector_158" d="M357 444C357.67 444 358.331 444.016 359 444.024C359 444.347 359 444.661 359 444.984C358.339 444.984 357.67 445 357.009 445C357 444.669 357 444.331 357.009 444H357Z" fill="#AB750F"/>
<path id="Vector_159" d="M99.0248 450C99.6645 450.044 100.304 450.089 100.944 450.141C100.944 450.363 100.96 450.585 101 450.807C100.328 450.874 99.6645 450.941 99.0005 451C99.0005 450.667 99.0167 450.333 99.0248 450Z" fill="#AB750F"/>
<path id="Vector_160" d="M110 568C109.918 568.667 109.845 569.333 109.763 570C108.876 569.232 108.538 568.523 110 568Z" fill="#AB750F"/>
<path id="Vector_161" d="M162.213 470.967C162.142 470.311 162.071 469.664 162 469.008H162.008C162.339 469.008 162.67 469.008 162.993 469H163C162.922 469.672 162.835 470.336 162.756 471L162.489 470.959H162.213V470.967Z" fill="#AB750F"/>
<path id="Vector_162" d="M96.0005 472.017C96.3365 472.017 96.6685 472.008 97.0005 472C97.0005 472.331 97.0005 472.669 97.0005 473C96.6685 472.992 96.3365 472.975 96.0045 472.967C96.0045 472.653 96.0005 472.331 96.0045 472.008L96.0005 472.017Z" fill="#AB750F"/>
<path id="Vector_163" d="M346.037 477.717C346.21 476.135 346.565 475.867 346.988 476.05C346.988 476.7 346.996 477.35 347 478C346.666 477.887 346.335 477.788 346 477.675L346.037 477.717Z" fill="#AB750F"/>
<path id="Vector_164" d="M148.968 566C148.312 565.954 147.664 565.908 147.009 565.863C147.033 565.641 147.033 565.427 147 565.206C147.656 565.137 148.32 565.069 148.976 565L149 565.031C149 565.351 148.984 565.679 148.976 566H148.968Z" fill="#AB750F"/>
<path id="Vector_165" d="M61.9538 480C60.7123 479.309 60.6376 478.643 62.0005 478C61.9818 478.667 61.9725 479.333 61.9538 480Z" fill="#AB750F"/>
<path id="Vector_166" d="M55.0005 564.904C54.3338 564.939 53.6672 564.965 53.0005 565C53.6102 563.626 54.285 563.739 55.0005 564.904Z" fill="#AB750F"/>
<path id="Vector_167" d="M80.194 488C80.1321 487.339 80.0624 486.678 80.0005 486.017L80.0237 486C80.3488 486.017 80.6662 486.025 80.9913 486.041C81.0377 486.843 80.9293 487.57 80.194 487.992V488Z" fill="#AB750F"/>
<path id="Vector_168" d="M75.0122 487C75.3406 487.009 75.669 487.018 75.9974 487.027C76.0015 487.327 76.0015 487.637 75.9974 487.938C75.669 487.956 75.3366 487.973 75.0082 488C74.996 487.664 75.0001 487.336 75.0082 487H75.0122Z" fill="#AB750F"/>
<path id="Vector_169" d="M246.005 487C246.335 487.043 246.67 487.08 247 487.123C246.812 487.892 246.434 488.037 246 487.993C246 487.66 246 487.326 246.005 487Z" fill="#AB750F"/>
<path id="Vector_170" d="M70.0005 494.074C70.3871 493.979 71.0056 493.866 71.0005 494.505C70.9953 495.161 70.3871 495.014 70.0005 494.902C70.0005 494.626 70.0005 494.341 70.0005 494.065V494.074Z" fill="#AB750F"/>
<path id="Vector_171" d="M111.206 501C111.137 500.333 111.069 499.667 111 499C112.385 499.543 112.214 500.235 111.206 501Z" fill="#AB750F"/>
<path id="Vector_172" d="M249 503C249.038 502.333 249.065 501.667 249.102 501C250.28 501.715 250.354 502.382 249 503Z" fill="#AB750F"/>
<path id="Vector_173" d="M195.035 511.381C195.861 511.075 196.809 510.464 196.957 512L197 511.968C196.331 511.855 195.67 511.735 195 511.622L195.035 511.389V511.381Z" fill="#AB750F"/>
<path id="Vector_174" d="M328 520.046C328.667 520.028 329.334 520.009 330 520C329.358 521.339 328.692 521.312 328 520.046Z" fill="#AB750F"/>
<path id="Vector_175" d="M192.01 523.308C192.374 523.226 192.739 523.158 193.093 523.06C193.812 522.872 194.09 523.143 193.975 523.655C193.889 524.039 193.515 524.076 193.074 523.896C192.748 523.76 192.365 523.707 192 523.617V523.316L192.01 523.308Z" fill="#AB750F"/>
<path id="Vector_176" d="M139.007 525.041C139.271 525.025 139.535 525.017 139.799 525C139.868 525.355 139.931 525.719 140 526.074C139.667 526.38 139.334 526.694 139 527C139 526.347 139 525.694 139.007 525.041Z" fill="#AB750F"/>
<path id="Vector_177" d="M313.928 545.007C314.031 545.775 314.117 547 313.496 547C312.884 547 312.97 545.775 313.074 545.007C313.358 544.998 313.643 544.998 313.928 545.007Z" fill="#AB750F"/>
<path id="Vector_178" d="M311.015 549.006C311.406 549.097 312.025 548.699 312 549.677C312 549.801 311.362 549.892 311.015 550C310.996 549.669 310.996 549.337 311.015 549.006Z" fill="#AB750F"/>
<path id="Vector_179" d="M237 554C237.05 553.667 237.108 553.333 237.158 553C238.166 553.374 238.447 553.72 237 554Z" fill="#AB750F"/>
<path id="Vector_180" d="M286.051 553.992C286.034 553.666 286.017 553.335 286 553.009C286.331 552.997 286.662 552.997 287 553.009C287 553.339 287 553.67 287 554H286.526H286.051V553.992Z" fill="#AB750F"/>
<path id="Vector_181" d="M167.316 559C167.205 558.333 167.103 557.667 167 557C168.62 557.156 167.819 558.186 167.682 558.983L167.324 559H167.316Z" fill="#AB750F"/>
<path id="Vector_182" d="M244 692.002C243.976 692.671 243.96 693.331 243.935 694C243.659 694 243.374 694 243.098 694C243.066 693.339 243.033 692.679 243 692.018C243.334 691.994 243.667 691.994 244 692.018V692.002Z" fill="#AB750F"/>
<path id="Vector_183" d="M153 690.008C152.953 690.667 152.914 691.325 152.867 691.976C152.63 691.976 152.394 691.976 152.158 692C152.103 691.333 152.056 690.667 152 690C152.331 690 152.662 690 153 690V690.008Z" fill="#AB750F"/>
<path id="Vector_184" d="M144.993 667.008C144.953 667.336 144.906 667.664 144.867 667.988C144.638 667.988 144.402 667.988 144.174 668L144 667.008L144.016 667C144.347 667.004 144.67 667.008 145 667.012L144.993 667.008Z" fill="#AB750F"/>
<path id="Vector_185" d="M130 658.101C129.293 659.233 128.618 659.399 128 658C128.667 658.028 129.334 658.064 130 658.101Z" fill="#AB750F"/>
<path id="Vector_186" d="M110 652.057C109.309 653.3 108.643 653.347 108 652C108.667 652.019 109.334 652.038 110 652.057Z" fill="#AB750F"/>
<path id="Vector_187" d="M193 651C194.349 651.083 193.986 652.108 193.86 653L193.89 652.975C193.601 652.975 193.319 652.942 193.045 652.858C193.03 652.242 193.015 651.617 193 651Z" fill="#AB750F"/>
<path id="Vector_188" d="M39.7841 646.016C39.8587 646.678 39.9259 647.339 40.0005 648C39.6647 648 39.3363 647.992 39.0005 647.984C39.0751 647.322 39.1423 646.661 39.2094 646C39.396 646.041 39.5826 646.049 39.7766 646.025L39.7841 646.016Z" fill="#AB750F"/>
<path id="Vector_189" d="M10.0005 641.974C9.33489 641.974 8.66928 641.991 8.0118 642C7.99557 641.664 7.99557 641.328 8.01992 641C8.6774 641.009 9.33488 641.017 9.98425 641.026C10.0005 641.345 10.0005 641.655 10.0005 641.974Z" fill="#AB750F"/>
<path id="Vector_190" d="M214.976 632.066C214.888 632.694 214.799 633.314 214.71 633.942L214.363 634C214.242 633.339 214.121 632.678 214 632.017L214.025 632C214.355 632.008 214.678 632.041 215 632.091L214.968 632.066H214.976Z" fill="#AB750F"/>
<path id="Vector_191" d="M49.7505 631.074C49.8367 631.719 49.9143 632.364 50.0005 633H49.5005H49.0005C49.0608 632.331 49.1298 631.669 49.1901 631C49.3626 631.083 49.5522 631.107 49.7419 631.074H49.7505Z" fill="#AB750F"/>
<path id="Vector_192" d="M53.8175 625C53.8785 625.669 53.9395 626.339 54.0005 627C52.5975 626.446 52.7979 625.752 53.8175 625Z" fill="#AB750F"/>
<path id="Vector_193" d="M140.007 624C141.258 624.091 141.055 625.041 140.839 626C139.924 625.711 139.993 624.835 140.007 624Z" fill="#AB750F"/>
<path id="Vector_194" d="M238 151C238.657 151.008 238.993 151.341 239 152C238.415 151.922 238.079 151.589 238 151Z" fill="#AB750F"/>
<path id="Vector_195" d="M260.998 164C261.031 164.69 260.707 165.03 260 164.998C260.05 164.389 260.383 164.057 260.998 164Z" fill="#AB750F"/>
<path id="Vector_196" d="M102.037 167.086C102.353 167.003 102.677 166.978 103 167.02C102.984 167.667 102.677 168.024 102.004 167.999C101.995 167.692 102.004 167.385 102.029 167.086H102.037Z" fill="#AB750F"/>
<path id="Vector_197" d="M226 188.005C226.722 187.951 227.043 188.298 226.996 189C226.385 188.946 226.055 188.607 226 188.005Z" fill="#AB750F"/>
<path id="Vector_198" d="M106 189C105.887 189.561 105.553 189.886 105 190C105.122 189.455 105.464 189.122 106 189Z" fill="#AB750F"/>
<path id="Vector_199" d="M131 189.004C131.539 188.987 132.134 188.987 131.974 189.677C131.936 189.838 131.35 189.898 131.019 190C131.01 189.668 131 189.336 131 189.004Z" fill="#AB750F"/>
<path id="Vector_200" d="M200.025 200C200.357 200.105 200.933 200.158 200.972 200.316C201.138 200.991 200.542 200.991 200.015 201C199.996 200.667 199.996 200.333 200.015 200H200.025Z" fill="#AB750F"/>
<path id="Vector_201" d="M11.9911 218C10.6578 217.661 10.6828 217.33 11.9911 217C12.0036 217.33 12.0036 217.67 11.9911 218Z" fill="#AB750F"/>
<path id="Vector_202" d="M5.98391 253C5.65242 252.836 5.33198 252.673 5.00049 252.5C5.33198 252.336 5.65242 252.173 5.98391 252C6.00601 252.327 6.00601 252.664 5.98391 252.991V253Z" fill="#AB750F"/>
<path id="Vector_203" d="M261.993 253C261.66 253 261.327 253 261.002 253C260.979 252.272 261.312 251.956 261.97 252.005C261.97 252.337 261.985 252.66 262 252.992L261.993 253Z" fill="#AB750F"/>
<path id="Vector_204" d="M24.0768 263.034C24.379 263.01 24.6892 262.994 24.9993 263.002C25.0232 263.696 24.6892 264.023 24.0053 263.999C23.9894 263.672 24.0132 263.353 24.0768 263.034Z" fill="#AB750F"/>
<path id="Vector_205" d="M29.985 280C29.4533 279.991 28.855 279.963 29.0323 279.327C29.0766 279.168 29.6527 279.103 29.974 279C30.0072 279.327 30.0072 279.664 29.985 279.991V280Z" fill="#AB750F"/>
<path id="Vector_206" d="M174 310C174 309.664 174 309.336 174 309C174.331 309 174.67 309 175 309C175 309.32 175 309.632 174.992 309.944C174.662 310 174.339 310.008 174.009 309.992L174 310Z" fill="#AB750F"/>
<path id="Vector_207" d="M155.009 321C154.968 320.313 155.293 319.97 156 320.002C156 320.337 155.968 320.657 155.87 320.968C155.578 320.992 155.293 321 155 320.992L155.009 321Z" fill="#AB750F"/>
<path id="Vector_208" d="M21.9996 328C21.6665 327.835 21.3335 327.67 21.0005 327.505C21.3335 327.339 21.6561 327.165 21.9787 327C21.9996 327.33 22.01 327.67 21.9891 328H21.9996Z" fill="#AB750F"/>
<path id="Vector_209" d="M206.009 327.008C206.651 327.024 206.976 327.358 207 328C206.675 328 206.35 327.967 206.025 327.886C206.009 327.593 206 327.301 206 327L206.009 327.008Z" fill="#AB750F"/>
<path id="Vector_210" d="M253.991 330.036C253.882 330.359 253.822 330.939 253.664 330.972C253.01 331.139 253.03 330.526 253 330.025C253.337 329.992 253.664 329.992 254 330.025L253.991 330.036Z" fill="#AB750F"/>
<path id="Vector_211" d="M333 330C332.976 330.625 332.654 330.977 332 331C332.089 330.437 332.42 330.094 333 330Z" fill="#AB750F"/>
<path id="Vector_212" d="M71.0005 333C71.3314 333.171 71.6623 333.334 72.0005 333.505C71.7652 333.912 71.4343 334.074 71.0078 333.969C71.0078 333.643 71.0005 333.326 71.0078 333H71.0005Z" fill="#AB750F"/>
<path id="Vector_213" d="M259.017 337.989C259.017 337.349 259.299 336.97 260 337.002C259.992 337.302 259.976 337.602 259.96 337.902C259.646 338.005 259.331 338.028 259 337.965L259.017 337.989Z" fill="#AB750F"/>
<path id="Vector_214" d="M156.015 341C156.585 341 157.156 341.073 156.962 341.67C156.916 341.835 156.346 341.89 156.026 342C155.992 341.67 155.992 341.339 156.026 341.009L156.015 341Z" fill="#AB750F"/>
<path id="Vector_215" d="M200.033 346C200.357 346.111 200.93 346.176 200.974 346.343C201.136 346.991 200.53 346.991 200 347C200 346.667 200 346.333 200.033 346.009V346Z" fill="#AB750F"/>
<path id="Vector_216" d="M220.023 351C220.542 351 221.141 351 220.971 351.682C220.931 351.845 220.352 351.9 220.023 352C219.993 351.664 219.993 351.336 220.023 351Z" fill="#AB750F"/>
<path id="Vector_217" d="M22.0318 379.904C22.0005 379.601 21.9927 379.306 22.0083 379.002C22.6896 378.97 23.0498 379.274 22.995 380C22.674 380 22.3529 379.976 22.0318 379.904Z" fill="#AB750F"/>
<path id="Vector_218" d="M97.0087 384.006C97.3386 383.989 97.6603 384.006 97.9819 384.084C98.0067 384.386 98.0067 384.698 97.9819 385C97.3964 384.957 97.0665 384.628 97.0005 384.015L97.0087 384.006Z" fill="#AB750F"/>
<path id="Vector_219" d="M147 392.013C146.982 392.518 147.01 393.136 146.318 392.974C146.159 392.933 146.103 392.357 146 392.023C146.337 391.992 146.664 391.992 147 392.023V392.013Z" fill="#AB750F"/>
<path id="Vector_220" d="M295 399.009C295.326 398.985 295.651 399.009 295.968 399.073C295.984 399.385 296 399.696 296 400C295.342 399.984 295.033 399.632 295 399.001V399.009Z" fill="#AB750F"/>
<path id="Vector_221" d="M322.036 435C322.37 435.111 322.944 435.166 322.975 435.333C323.132 436.007 322.537 436.007 322.005 435.998C321.994 435.665 322.005 435.333 322.025 435H322.036Z" fill="#AB750F"/>
<path id="Vector_222" d="M388 466.001C388.716 465.977 389.017 466.345 389 467C388.38 466.935 388.052 466.591 388 466.001Z" fill="#AB750F"/>
<path id="Vector_223" d="M69.068 468C69.637 468.008 70.177 468.116 69.9456 468.736C69.8877 468.893 69.3284 468.917 69.0005 469C69.0294 468.669 69.0487 468.331 69.0583 468H69.068Z" fill="#AB750F"/>
<path id="Vector_224" d="M69.0005 474.977C69.3483 473.597 69.6787 473.747 70.0005 475C69.6701 475 69.3396 475 69.0005 474.977Z" fill="#AB750F"/>
<path id="Vector_225" d="M189 475C189.648 475.053 189.952 475.402 190 476C189.424 475.886 189.112 475.538 189 475Z" fill="#AB750F"/>
<path id="Vector_226" d="M214.93 477C214.377 476.983 213.823 476.881 214.055 476.271C214.115 476.11 214.668 476.085 215 476C214.97 476.331 214.95 476.669 214.94 477H214.93Z" fill="#AB750F"/>
<path id="Vector_227" d="M49.0011 492.009C49.3277 491.985 49.6544 492.009 49.9729 492.075C49.9974 492.385 50.0056 492.696 49.9974 492.998C49.3114 493.03 48.9847 492.696 49.0011 492.001V492.009Z" fill="#AB750F"/>
<path id="Vector_228" d="M107 663C107.107 662.439 107.435 662.106 108 662C107.869 662.528 107.541 662.87 107 663Z" fill="#AB750F"/>
<path id="Vector_229" d="M45.0005 662C45.6159 662.024 45.9774 662.328 46.0005 663C45.4543 662.904 45.1005 662.592 45.0005 662Z" fill="#AB750F"/>
<path id="Vector_230" d="M239.979 622C239.649 621.826 239.33 621.661 239 621.487C239.33 621.322 239.671 621.157 240 621C240 621.33 240 621.67 239.979 622Z" fill="#AB750F"/>
<path id="Vector_231" d="M238.022 649C238.352 649.097 238.903 649.142 238.958 649.301C239.167 649.876 238.562 649.92 238.055 650C238 649.664 237.989 649.336 238.011 649H238.022Z" fill="#AB750F"/>
<path id="Vector_232" d="M240.969 648C240.638 647.893 240.069 647.83 240.028 647.67C239.862 647.018 240.483 647.027 241 647C241 647.33 241 647.67 240.98 648H240.969Z" fill="#AB750F"/>
<path id="Vector_233" d="M140 585C140.559 585.121 140.892 585.452 141 586C140.45 585.879 140.125 585.532 140 585Z" fill="#AB750F"/>
<path id="Vector_234" d="M46.0005 643C46.6389 643.016 46.9851 643.328 47.0005 644C46.4313 643.914 46.0851 643.594 46.0005 643Z" fill="#AB750F"/>
<path id="Vector_235" d="M136 557C135.448 556.901 135.122 556.562 135.009 556H135C135.334 556 135.667 556.008 135.992 556.05C135.992 556.364 135.992 556.686 135.992 557H136Z" fill="#AB750F"/>
<path id="Vector_236" d="M111.976 575.926L111.492 576H111C111.041 575.372 111.361 575.025 112 575C112 575.306 112 575.62 111.976 575.926Z" fill="#AB750F"/>
<path id="Vector_237" d="M35.0392 640C35.3571 640.184 35.6827 640.368 36.0005 640.552C35.6672 640.704 35.3338 640.848 35.0005 641C35.0237 640.664 35.0392 640.336 35.0392 640Z" fill="#AB750F"/>
<path id="Vector_238" d="M307 551.984L306.51 552L306.028 551.928C306.004 551.622 305.995 551.308 306.004 551.002C306.698 550.97 307 551.332 307 551.984Z" fill="#AB750F"/>
<path id="Vector_239" d="M249 665C249.651 665 250 665.309 250 666C249.413 665.927 249.072 665.602 249 665Z" fill="#AB750F"/>
<path id="Vector_240" d="M15.9303 540.024C15.9874 540.35 16.0118 540.675 15.9955 541C15.4083 540.919 15.0657 540.594 15.0005 540C15.3104 540 15.6203 540.008 15.9303 540.024Z" fill="#AB750F"/>
<path id="Vector_241" d="M39.9808 634.916C39.6595 634.991 39.33 635.016 39.0005 634.991C39.0417 634.358 39.3712 634.025 39.9973 634C40.0055 634.308 39.9973 634.608 39.9808 634.916Z" fill="#AB750F"/>
<path id="Vector_242" d="M28.0005 530C28.334 530.091 28.8931 530.124 28.9519 530.281C29.1677 530.9 28.6282 531.008 28.0495 531C28.0495 530.669 28.0299 530.33 28.0103 530H28.0005Z" fill="#AB750F"/>
<path id="Vector_243" d="M370 621.992C369.272 622.062 369.009 621.668 369 621.003C369.693 620.96 369.974 621.353 370 621.992Z" fill="#AB750F"/>
<path id="Vector_244" d="M316.991 550.018C317.037 550.365 316.918 550.698 316.312 550.918C316.092 550.997 315.615 551.028 315.376 550.971C314.596 550.782 315.238 550.584 315.459 550.404C315.624 550.259 315.862 550.132 316.074 550H316.542L317 550.022L316.991 550.018Z" fill="#AB750F"/>
<path id="Vector_245" d="M317 546.07C316.907 546.634 316.802 547.199 315.493 546.931C315.294 546.888 314.978 546.729 315.002 546.663C315.271 545.99 316.042 545.917 316.977 546.062L317 546.07Z" fill="#AB750F"/>
<path id="Vector_246" d="M313 551.931C313.242 551.624 313.473 551.307 313.714 551C314.457 551.98 313.583 551.891 313.031 552L313 551.931Z" fill="#AB750F"/>
<path id="Vector_247" d="M317 550L316.512 549.936H316.015C315.946 549.3 316.112 548.834 316.786 549.056C316.932 549.099 316.932 549.671 317 550Z" fill="#AB750F"/>
<path id="Vector_248" d="M19.9274 512C20.0579 512.391 20.0579 512.984 19.5514 513C18.9759 513.015 18.9376 512.452 19.0527 512.056C19.3443 512.061 19.6358 512.046 19.9274 512.005V512Z" fill="#AB750F"/>
<path id="Vector_249" d="M19.8922 511.92C19.6004 511.983 19.3163 512.006 19.0169 511.999C18.917 511.225 19.2779 510.934 19.9843 511.012C20.0227 511.32 19.992 511.62 19.8999 511.92H19.8922Z" fill="#AB750F"/>
<path id="Vector_250" d="M24.8424 291.788C24.2069 291.804 23.2753 292.408 23.0402 291.503C22.8138 290.614 23.5887 289.818 24.5203 290.036C25.4171 290.254 24.7728 291.193 24.825 291.813L24.8424 291.788Z" fill="#AB750F"/>
<path id="Vector_251" d="M288.908 556.992C288.108 556.881 287.782 556.364 288.153 555.346C288.303 554.939 288.524 554.914 288.732 555.151C289.233 555.703 288.875 556.381 288.895 557H288.901L288.908 556.992Z" fill="#AB750F"/>
<path id="Vector_252" d="M143 265.98C142.671 265.818 142.33 265.667 142 265.505C142.186 265.333 142.361 265.172 142.547 265C142.691 265.333 142.836 265.667 142.97 266L143 265.97V265.98Z" fill="#AB750F"/>
<path id="Vector_253" d="M66.0224 268.513C66.1611 267.922 65.7668 267.099 67.0665 267.004C67.5776 266.964 67.8478 267.257 67.877 267.589C67.9208 268.09 68.3078 268.772 67.4389 268.986C67.0665 269.082 66.4824 268.665 66.0005 268.485L66.0224 268.513Z" fill="#AB750F"/>
<path id="Vector_254" d="M51.0507 471C51.34 471.032 51.6253 471.063 51.9147 471.103C51.9473 471.829 52.2122 472.878 51.609 472.988C50.8388 473.131 50.9977 471.931 51.0507 471Z" fill="#AB750F"/>
<path id="Vector_255" d="M283.022 413.08C283.455 412.908 283.816 412.99 283.997 413.557C284.026 413.656 283.867 413.971 283.78 413.989C283.289 414.07 283.08 413.692 283 413.143L283.022 413.08Z" fill="#AB750F"/>
<path id="Vector_256" d="M225.212 395C225.399 395.024 225.586 395.024 225.773 395.008C225.831 396.216 226.27 397.431 225.747 399C224.554 397.62 225.128 396.263 225.212 395Z" fill="#AB750F"/>
<path id="Vector_257" d="M360 481.875C360.03 481.576 360.075 481.278 360.12 480.98C360.611 480.855 360.908 480.518 361.02 480C362.456 480.447 362.099 481.184 361.318 482C360.879 481.961 360.44 481.922 360 481.882V481.875Z" fill="#AB750F"/>
<path id="Vector_258" d="M363 478C363.541 478.121 363.863 478.468 364 479C363.468 478.871 363.146 478.524 363 478Z" fill="#AB750F"/>
<path id="Vector_259" d="M17.0325 276C17.6692 276 18.0671 276.473 17.9913 277.898C16.9833 278.153 16.9416 278.07 17.0325 276Z" fill="#AB750F"/>
<path id="Vector_260" d="M16.992 280.771C16.6338 280.78 16.1604 281.568 16.0112 280.168C15.9429 279.518 16.2158 279.119 16.4376 279.036C17.1028 278.776 16.9365 279.982 17.0005 280.761L16.992 280.78V280.771Z" fill="#AB750F"/>
<path id="Vector_261" d="M30.0005 353.345C29.8059 353.571 29.6235 353.79 29.4411 354C29.2831 353.891 28.9669 353.748 29.0034 353.664C29.0885 353.429 29.3074 353.218 29.4776 353C29.6479 353.109 29.8059 353.219 30.0005 353.336V353.345Z" fill="#AB750F"/>
<path id="Vector_262" d="M17.0005 289.535C16.8924 289.682 16.7482 290.033 16.6536 289.998C16.4239 289.913 16.2167 289.661 16.0005 289.478C16.2212 289.31 16.4329 289.072 16.6627 289.002C16.7482 288.973 16.8834 289.345 16.996 289.528L17.0005 289.535Z" fill="#AB750F"/>
<path id="Vector_263" d="M41.9545 242.11C41.9391 242.391 41.9545 242.665 42.0005 242.93C41.7282 243.305 41.6094 244.359 41.1569 243.875C41.0342 243.742 40.9613 243.008 41.0227 242.665C41.1914 241.72 41.6055 242.04 41.9545 242.102V242.11Z" fill="#AB750F"/>
<path id="Vector_264" d="M126.944 415.009C126.958 415.736 127.203 416.564 126.549 416.993C126.454 417.058 126.073 416.667 126.032 416.415C125.869 415.41 126.366 415.14 126.965 415.028L126.944 415V415.009Z" fill="#AB750F"/>
<path id="Vector_265" d="M127.966 418.984L127.483 419L127 418.984C127.099 418.423 127.426 418.106 127.982 418C128.007 418.325 128.007 418.65 127.982 418.976L127.966 418.984Z" fill="#AB750F"/>
<path id="Vector_266" d="M98.0457 422C97.993 421.664 97.9824 421.336 98.0352 421C98.5835 421.008 99.153 421.084 98.9632 421.664C98.9105 421.824 98.3621 421.891 98.0457 422Z" fill="#AB750F"/>
<path id="Vector_267" d="M104.023 283.992C103.94 283.509 104.073 283.125 104.628 283.002C104.727 282.979 105.009 283.186 105 283.263C104.942 283.777 104.537 283.954 104.04 284H104.015L104.023 283.992Z" fill="#AB750F"/>
<path id="Vector_268" d="M18.0755 293.014C17.969 292.673 17.9772 292.341 18.0919 292C19.3379 292.184 18.9936 293.124 18.8297 293.972L18.4526 294L18.0755 293.972C18.051 293.65 18.051 293.327 18.0755 293.005V293.014Z" fill="#AB750F"/>
<path id="Vector_269" d="M111 573.024C110.967 573.545 110.791 573.962 110.271 574C110.179 574 109.977 573.716 110.003 573.621C110.145 573.062 110.531 572.939 111 573.024Z" fill="#AB750F"/>
<path id="Vector_270" d="M175.069 579C175.048 578.665 175.021 578.335 175 578C175.5 578 176.014 578 176 578.43C175.987 578.785 175.617 578.955 175.076 579H175.069Z" fill="#AB750F"/>
<path id="Vector_271" d="M17.0316 369.048C17.6517 369.181 18.1523 369.486 17.958 370.449C17.9057 370.687 17.5023 371.059 17.4201 370.992C16.7851 370.516 17.0615 369.705 17.054 369L17.0316 369.038V369.048Z" fill="#AB750F"/>
<path id="Vector_272" d="M173.008 372.843C173.32 372.229 173.632 371.614 173.936 371C174.624 371.197 175.136 371.622 174.968 372.294C174.696 373.413 173.736 372.872 173 372.85L173.008 372.843Z" fill="#AB750F"/>
<path id="Vector_273" d="M134.653 651C134.439 650.827 134.224 650.655 134 650.47C134.108 650.31 134.24 649.977 134.331 650.001C134.562 650.075 134.777 650.297 135 650.457C134.893 650.618 134.786 650.79 134.653 650.988V651Z" fill="#AB750F"/>
<path id="Vector_274" d="M142.987 542.519C142.894 542.675 142.8 542.844 142.72 543C142.48 542.831 142.24 542.649 142 542.468C142.174 542.312 142.347 542.156 142.52 542C142.68 542.169 142.84 542.338 143 542.519H142.987Z" fill="#AB750F"/>
<path id="Vector_275" d="M39.5216 511C39.6901 511.224 39.9147 511.448 39.999 511.681C40.027 511.767 39.662 511.888 39.4794 512C39.3109 511.776 39.0863 511.552 39.002 511.319C38.9739 511.233 39.339 511.112 39.5216 511Z" fill="#AB750F"/>
<path id="Vector_276" d="M28.9521 626.168C28.9682 626.726 28.9844 627.283 29.0005 627.841C28.1372 627.902 26.8462 628.529 27.0156 626.787C27.1286 625.585 28.2178 626.099 28.9601 626.168H28.9521Z" fill="#AB750F"/>
<path id="Vector_277" d="M254.266 627.015C254.436 627.015 254.645 626.962 254.749 627.055C255.167 627.374 255.062 627.746 254.449 627.998C254.371 628.025 254.084 627.706 254.006 627.493C253.966 627.374 254.162 627.175 254.253 627.015H254.266Z" fill="#AB750F"/>
<path id="Vector_278" d="M383 520.542C382.823 520.708 382.633 521.013 382.469 521C382.304 520.986 382.152 520.653 382 520.458C382.178 520.292 382.368 519.987 382.532 520C382.697 520 382.849 520.347 383 520.542Z" fill="#AB750F"/>
<path id="Vector_279" d="M153 367.511C152.916 367.678 152.832 367.844 152.735 368C152.494 367.833 152.241 367.656 152 367.489C152.169 367.322 152.338 367.167 152.507 367C152.663 367.167 152.832 367.344 152.988 367.511H153Z" fill="#AB750F"/>
<path id="Vector_280" d="M38.8839 306C38.287 305.976 37.6979 305.943 37.101 305.919C37.0622 305.161 36.6591 304.118 37.7986 304.012C39.2483 303.873 39.0545 305.006 38.8839 306Z" fill="#AB750F"/>
<path id="Vector_281" d="M189.131 552C189.729 552.025 190.32 552.05 190.918 552.074C190.926 552.817 191.353 553.872 190.18 553.988C188.581 554.136 189.04 552.907 189.131 552Z" fill="#AB750F"/>
<path id="Vector_282" d="M223 581.032C223.33 581.183 223.66 581.333 224 581.495C223.819 581.667 223.637 581.828 223.444 582C223.307 581.667 223.171 581.333 223.035 581L223 581.032Z" fill="#AB750F"/>
<path id="Vector_283" d="M97.9673 247C97.9784 247.336 97.9894 247.664 98.0005 248C96.6951 247.695 96.6508 247.359 97.9673 247Z" fill="#AB750F"/>
<path id="Vector_284" d="M99.0005 247.976L98.5208 248H98.0411C98.033 247.661 98.0167 247.331 98.0005 247C98.5858 247.087 98.9029 247.417 98.9924 247.976H99.0005Z" fill="#AB750F"/>
<path id="Vector_285" d="M379.996 451C380.334 451 380.663 451 381 451C380.992 451.331 380.984 451.657 380.976 451.988L379 452C379.338 451.669 379.667 451.335 380.004 451H379.996Z" fill="#AB750F"/>
<path id="Vector_286" d="M281.953 544C281.635 544.339 281.318 544.661 281 545C281.048 544.79 281.032 544.484 281.175 544.371C281.397 544.194 281.715 544.145 282 544.032L281.969 544H281.953Z" fill="#AB750F"/>
<path id="Vector_287" d="M22.0567 454C21.9886 453.67 21.9789 453.33 22.047 453C22.3681 453.165 22.6794 453.33 23.0005 453.496C22.6891 453.661 22.3778 453.835 22.0664 454H22.0567Z" fill="#AB750F"/>
<path id="Vector_288" d="M197 548C197.656 548.016 197.944 548.38 198 548.998C197.304 549.03 197.024 548.642 197 548Z" fill="#AB750F"/>
<path id="Vector_289" d="M152 568.034C152.337 568.225 152.664 568.427 153 568.619C152.103 569.541 152.164 568.574 152.031 568L152 568.034Z" fill="#AB750F"/>
<path id="Vector_290" d="M323 410C323.077 409.412 323.39 409.059 324 409C323.933 409.597 323.602 409.933 323 410Z" fill="#AB750F"/>
<path id="Vector_291" d="M128 458C128.15 457.664 128.29 457.336 128.44 457C128.62 457.178 128.81 457.364 129 457.542C128.67 457.692 128.33 457.841 128 458Z" fill="#AB750F"/>
<path id="Vector_292" d="M54.9579 619C54.8196 619.33 54.692 619.67 54.5643 620C54.3728 619.83 54.192 619.66 54.0005 619.5C54.3303 619.35 54.6707 619.19 55.0005 619.04L54.9579 619.01V619Z" fill="#AB750F"/>
<path id="Vector_293" d="M135.24 339.009C135.432 339.095 135.624 339.104 135.824 339.026C135.8 339.805 136.592 341 135 341C135.08 340.333 135.16 339.667 135.248 339L135.24 339.009Z" fill="#AB750F"/>
<path id="Vector_294" d="M168.011 541.011C168.344 541.212 168.667 541.401 169 541.602C168.032 542.593 168.198 541.479 168.021 541L168 541.022L168.011 541.011Z" fill="#AB750F"/>
<path id="Vector_295" d="M17.0005 299.244C16.7205 299.308 16.5541 299.551 16.5095 300C15.3409 299.026 16.5257 298.641 16.7043 298C17.0492 298.269 16.9112 298.827 17.0005 299.244Z" fill="#AB750F"/>
<path id="Vector_296" d="M266 627C266 626.331 266.014 625.669 266.02 625C266.507 625.099 267 625.215 267 626.017C267 626.826 266.48 626.901 266.007 627H266Z" fill="#AB750F"/>
<path id="Vector_297" d="M61.0005 429C60.8838 429.545 60.5588 429.893 60.0005 430C60.1088 429.438 60.4338 429.099 61.0005 429Z" fill="#AB750F"/>
<path id="Vector_298" d="M160 234.112C159.631 234.408 159.269 234.704 158.9 235C158.135 234.97 157.362 234.963 157 234.194C157.286 233.846 157.58 233.506 157.866 233.158C158.799 233.091 160.017 232.507 160 234.112Z" fill="#AB750F"/>
<path id="Vector_299" d="M367.97 535C368.011 535.336 368.011 535.664 367.97 536C367.641 535.897 367.087 535.836 367.035 535.672C366.851 535.052 367.436 535.017 367.97 535Z" fill="#AB750F"/>
<path id="Vector_300" d="M20.0005 616.246C20.755 616.03 21.5574 615.465 22.0005 617.4C21.222 617.809 20.3358 618.975 20.0005 616.246Z" fill="#AB750F"/>
<path id="Vector_301" d="M2.83421 292.991C2.22564 292.932 1.61707 292.864 1.00049 292.804C1.02451 292.243 1.04853 291.673 1.07255 291.112C2.56996 290.772 3.37872 291.154 2.8262 293L2.83421 292.991Z" fill="#AB750F"/>
<path id="Vector_302" d="M323.975 546C324.009 546.331 324.009 546.661 323.975 547C323.654 546.831 323.321 546.67 323 546.509C323.321 546.339 323.642 546.17 323.975 546.008V546Z" fill="#AB750F"/>
<path id="Vector_303" d="M314 476.962L313.5 477L313 476.972C313.043 476.48 313.009 475.865 313.661 476.026C313.823 476.064 313.882 476.631 313.992 476.953L314 476.962Z" fill="#AB750F"/>
<path id="Vector_304" d="M184 175C183.659 174.985 183.325 174.92 183 174.81C183.017 174.204 183.042 173.606 183.059 173C184.234 173.35 183.95 174.234 184 175Z" fill="#AB750F"/>
<path id="Vector_305" d="M171.008 157.993C171.232 157.797 171.332 157.551 171.309 157.261C171.602 157.304 171.842 157.217 172.019 157C172.582 157.109 173.03 157.319 172.999 157.964C172.335 157.971 171.664 157.986 171 158L171.008 157.993Z" fill="#AB750F"/>
<path id="Vector_306" d="M170.015 157.028C170.337 157.028 170.653 157.014 170.975 157C171.097 158.521 170.782 159.182 170 158.957C170 158.309 170.008 157.676 170.015 157.028Z" fill="#AB750F"/>
<path id="Vector_307" d="M193 442.95L192.501 443C192.501 443 191.991 442.975 192.001 442.975C192.019 442.329 192.048 441.674 192.067 441.028C192.369 440.995 192.661 440.987 192.963 441.028C192.972 441.666 192.991 442.312 193 442.95Z" fill="#AB750F"/>
<path id="Vector_308" d="M91.9911 185C92.0408 185.827 91.9083 186.558 91.2291 187C91.1214 186.144 90.4753 185.01 91.9911 185Z" fill="#AB750F"/>
<path id="Vector_309" d="M258.933 293C259.008 293.868 259.218 294.818 258.141 295C258.086 294.141 257.571 293.008 258.933 293Z" fill="#AB750F"/>
<path id="Vector_310" d="M18.0005 293.011C17.9759 293.292 17.9759 293.573 18.0005 293.854C17.1972 294.272 17.0988 293.717 17.0005 293.147C17.3202 293.019 17.6562 292.978 18.0005 293.011Z" fill="#AB750F"/>
<path id="Vector_311" d="M26.988 317.112C27.0899 317.964 26.5407 318.378 26.3085 319C25.8102 318.877 25.1987 319.092 25.0005 318.14C25.5667 317.449 26.116 316.705 26.988 317.119V317.112Z" fill="#AB750F"/>
<path id="Vector_312" d="M125 680C124.984 680.413 124.935 680.814 124.003 681C123.987 680.579 124.003 680.17 125 680Z" fill="#AB750F"/>
<path id="Vector_313" d="M154.936 508.951L154.473 509L154 508.984C154 508.334 154.307 507.977 154.994 508.001C155.011 508.318 154.994 508.635 154.936 508.951Z" fill="#AB750F"/>
<path id="Vector_314" d="M190 539.316C189.972 539.857 189.944 540.398 189.916 540.939C189.292 540.962 188.675 540.977 188.057 541C188.04 540.428 188.023 539.857 188 539.285C188.669 538.896 189.338 538.904 190 539.316Z" fill="#AB750F"/>
<path id="Vector_315" d="M213 617.02C213.332 617.012 213.669 617.008 214 617C213.988 617.335 213.976 617.665 213.964 618C213.656 617.992 213.349 617.98 213.041 617.971C213.029 617.653 213.013 617.339 213 617.02Z" fill="#AB750F"/>
<path id="Vector_316" d="M60.0005 420.049C60.3368 419.984 60.6642 419.984 61.0005 420.049C60.9031 420.7 60.8146 421.35 60.7173 422H60.2483C60.1686 421.359 60.089 420.709 60.0005 420.059V420.049Z" fill="#AB750F"/>
<path id="Vector_317" d="M195 345H194.5H194C194 344.664 194 344.336 194 344C194.331 344 194.67 344 195 344C195 344.336 195 344.664 195 345Z" fill="#AB750F"/>
</g>
<g id="Group 420">
<path id="Vector 305_2" d="M10.0002 9L0.000244141 20V4H134L143 17L134 9H10.0002Z" fill="#CB9A40"/>
<path id="Vector 305 (Stroke)" fill-rule="evenodd" clip-rule="evenodd" d="M0.000335693 19.9999L0.000244141 4H134L143 17L133.24 11H10.8851L0.000335693 19.9999ZM10.0003 9H134L143 17L134 4H0.000244141L0.000335693 19.9999L10.0003 9Z" fill="#AB750F"/>
</g>
<g id="Group 421">
<path id="Vector 305_3" d="M384 9L394 20V4H260L251 17L260 9H384Z" fill="#CB9A40"/>
<path id="Vector 305 (Stroke)_2" fill-rule="evenodd" clip-rule="evenodd" d="M394 19.9999L394 4H260L251 17L260.761 11H383.115L394 19.9999ZM384 9H260L251 17L260 4H394L394 19.9999L384 9Z" fill="#AB750F"/>
</g>
</g>
<g id="Group 419">
<path id="Rectangle 293" d="M394 732H275L266 737.958H197V746H394V732Z" fill="url(#paint6_linear_3464_25804)"/>
<g id="Group 422">
<path id="Rectangle 292_3" d="M0.000244141 732H119L128 737.958H197V746H0.000244141V732Z" fill="#CB9A40"/>
<path id="Rectangle 292 (Stroke)" fill-rule="evenodd" clip-rule="evenodd" d="M128 737.958L119 732H0.000244141V746H197V737.958H128ZM195 739.958H127.398L118.398 734L0.000244141 732V746H197L195 739.958Z" fill="#AB750F"/>
</g>
<g id="Group 423">
<path id="Rectangle 292_4" d="M394 732H275L266 737.958H197V746H394V732Z" fill="#CB9A40"/>
<path id="Rectangle 292 (Stroke)_2" fill-rule="evenodd" clip-rule="evenodd" d="M266 737.958L275 732H394V746H197V737.958H266ZM199 739.958H266.602L275.602 734L394 732V746H197L199 739.958Z" fill="#AB750F"/>
</g>
<g id="Group 215">
<path id="Vector 304_2" d="M206 743L197 726L188 743L197 757L206 743Z" fill="#AB750F"/>
<path id="Vector 301_2" d="M188 743L197 726V757L188 743Z" fill="#D8A956"/>
<path id="Vector 305_4" d="M197 726L188 743L197 729L206 743L197 726Z" fill="white" fill-opacity="0.5"/>
</g>
</g>
<g id="EXP">
<path id="Vector 388" d="M331.267 296V355.669H205.3C205.3 355.669 165.521 355.669 134.029 382.188C80.9228 426.909 74.3603 514.785 74.3603 514.785C74.3603 514.785 41.119 434.683 85.9626 360.641C125.113 295.999 200.327 296 200.327 296H331.267Z" fill="#AB750F" fill-opacity="0.1"/>
<path id="Vector 389" d="M331.266 481.635V418.651H137.343C137.343 418.651 100.549 440.281 100.549 495.366C100.548 591.028 158.89 596 158.89 596H331.266V541.304H188.724C188.724 541.304 163.124 541.42 144.602 524.9C126.08 508.381 125.741 481.635 125.741 481.635H331.266Z" fill="#AB750F" fill-opacity="0.1"/>
</g>
</g>
<defs>
<linearGradient id="paint0_linear_3464_25804" x1="255.097" y1="12.0909" x2="236.143" y2="12.7749" gradientUnits="userSpaceOnUse">
<stop stop-color="#AB750F"/>
<stop offset="1" stop-color="#CB9A40"/>
</linearGradient>
<linearGradient id="paint1_linear_3464_25804" x1="138.904" y1="12.0909" x2="157.857" y2="12.7749" gradientUnits="userSpaceOnUse">
<stop stop-color="#AB750F"/>
<stop offset="1" stop-color="#CB9A40"/>
</linearGradient>
<linearGradient id="paint2_linear_3464_25804" x1="196" y1="18.1106" x2="142" y2="18.1106" gradientUnits="userSpaceOnUse">
<stop stop-color="#AB750F"/>
<stop offset="1" stop-color="#AB750F" stop-opacity="0"/>
</linearGradient>
<linearGradient id="paint3_linear_3464_25804" x1="198" y1="18.1106" x2="251" y2="18.1106" gradientUnits="userSpaceOnUse">
<stop stop-color="#AB750F"/>
<stop offset="1" stop-color="#AB750F" stop-opacity="0"/>
</linearGradient>
<linearGradient id="paint4_linear_3464_25804" x1="313.54" y1="350.142" x2="313.54" y2="757.798" gradientUnits="userSpaceOnUse">
<stop stop-color="#D9D9D9" stop-opacity="0"/>
<stop offset="1" stop-color="#D8A956"/>
</linearGradient>
<linearGradient id="paint5_linear_3464_25804" x1="303.871" y1="577.254" x2="303.871" y2="778.915" gradientUnits="userSpaceOnUse">
<stop stop-color="#D9D9D9" stop-opacity="0"/>
<stop offset="1" stop-color="#D8A956"/>
</linearGradient>
<linearGradient id="paint6_linear_3464_25804" x1="224.519" y1="738.22" x2="379.263" y2="738.22" gradientUnits="userSpaceOnUse">
<stop stop-color="#D8A956"/>
<stop offset="0.711424" stop-color="#AB750F"/>
</linearGradient>
</defs>
</svg>
