<svg width="393" height="54" viewBox="0 0 393 54" fill="none" xmlns="http://www.w3.org/2000/svg">
<g id="filter" clip-path="url(#clip0_3463_3925)">
<rect width="393" height="54" fill="#F5F1EE"/>
<rect id="Rectangle 143" y="22" width="393" height="32" fill="url(#paint0_linear_3463_3925)" fill-opacity="0.05"/>
<path id="Vector 485" opacity="0.2" d="M350.829 53.5L363.608 -0.5H322.756L310 53.5H350.829Z" fill="url(#paint1_linear_3463_3925)"/>
<path id="Vector 487" opacity="0.2" d="M13.8293 53.5L26.6079 -0.5H-14.2442L-27 53.5H13.8293Z" fill="url(#paint2_linear_3463_3925)"/>
<path id="Vector 486" opacity="0.2" d="M382.831 53.5L395.61 -0.5H375.439L362.683 53.5H382.831Z" fill="url(#paint3_linear_3463_3925)"/>
<g id="Dust">
<g id="Group" opacity="0.35">
<path id="Vector" d="M307.655 13.3643C307.128 12.8847 306.248 13.103 305.584 12.8812C304.625 12.5591 304.63 12.3909 305.705 11.7324L305.758 11.7217C305.984 11.9614 306.327 12.0294 306.722 12.0294C306.78 12.1475 306.901 12.1941 307.086 12.1654C307.286 12.4303 307.645 12.5233 308.04 12.5734L308.013 12.5591C307.924 12.831 307.84 13.1066 307.75 13.3786L307.655 13.3678V13.3643Z" fill="#AB750F"/>
<path id="Vector_2" d="M249.391 9.8427C249.169 9.88564 248.948 9.92859 248.726 9.97153C248.3 9.97511 247.878 9.97868 247.451 9.98584C247.209 9.95363 246.961 9.92143 246.718 9.88922C246.539 9.58504 246.487 9.28086 246.692 8.9731C247.382 8.94805 248.073 8.923 248.758 8.89795C248.964 8.95879 249.174 8.96952 249.396 8.93731C249.517 9.04467 249.675 9.07687 249.865 9.03751C249.944 9.17708 250.023 9.31665 250.102 9.45621C249.865 9.58504 249.622 9.71387 249.385 9.8427H249.391Z" fill="#AB750F"/>
<path id="Vector_3" d="M186.803 45.8902C187.251 45.3069 187.71 45.425 188.168 45.8795C188.231 46.1157 188.469 46.2409 188.79 46.3125C188.769 46.6023 188.806 46.9996 188.332 47.0533C187.578 47.1427 187.567 46.6632 187.441 46.3196C187.372 46.0799 187.13 45.9582 186.808 45.8902H186.803Z" fill="#AB750F"/>
<path id="Vector_4" d="M122.814 42.9736H122.846C121.908 43.4209 121.017 43.5819 120.3 42.7696L120.279 42.7839C120.875 42.5763 121.412 42.2292 122.177 42.426L122.082 42.3688C122.324 42.5692 122.567 42.7732 122.809 42.9736H122.814Z" fill="#AB750F"/>
<path id="Vector_5" d="M285.646 5.89546C285.635 5.738 285.62 5.58054 285.609 5.42308C286.131 5.36582 286.71 5.39446 287 4.99365C287.422 5.01155 287.965 5.02228 288.033 5.34078C288.139 5.84536 287.411 5.80958 286.948 5.92409C286.516 5.91336 286.083 5.90261 285.646 5.89188V5.89546Z" fill="#AB750F"/>
<path id="Vector_6" d="M13.9158 49.3687C13.6417 49.3687 13.3677 49.3723 13.0989 49.3759C12.7616 48.9751 12.7616 48.56 12.9987 48.1377L12.9197 48.1842C13.3044 48.1914 13.6944 48.2021 14.0792 48.2093L14.0054 48.1627C14.2426 48.5707 14.2162 48.9751 13.9158 49.3652V49.3687Z" fill="#AB750F"/>
<path id="Vector_7" d="M36.6051 16.4737C36.8054 16.2983 36.974 16.1051 37.2059 15.9548C37.5327 15.7436 37.9754 15.5683 38.3075 15.8939C38.6079 16.1874 38.2811 16.4272 37.8806 16.5846C37.4589 16.5452 37.032 16.5095 36.6104 16.4737H36.6051Z" fill="#AB750F"/>
<path id="Vector_8" d="M369.952 35.6448C369.124 35.6413 368.297 35.6341 367.47 35.6305C367.385 35.3908 367.454 35.2154 367.875 35.1904C368.429 35.1689 369.066 35.2906 369.319 34.786C369.541 34.7896 369.757 34.7967 369.978 34.8003L369.947 34.7788C369.947 35.0687 369.952 35.3586 369.952 35.6484V35.6448Z" fill="#AB750F"/>
<path id="Vector_9" d="M118.351 11.2133C117.955 11.0701 117.655 10.8697 117.903 10.5619C118.076 10.3401 118.43 10.3866 118.73 10.4832C119.009 10.5727 119.283 10.6765 119.563 10.7767C119.573 10.9234 119.589 11.0737 119.6 11.2204C119.183 11.2204 118.767 11.2204 118.351 11.2168V11.2133Z" fill="#AB750F"/>
<path id="Vector_10" d="M187.674 5.88857C187.705 5.64522 187.9 5.49134 188.264 5.52712C188.612 5.56291 188.791 5.74542 188.691 5.97087C188.643 6.07465 188.448 6.19991 188.29 6.22496C187.921 6.28222 187.732 6.12118 187.674 5.88857Z" fill="#AB750F"/>
<path id="Vector_11" d="M385.131 53.8345C384.936 53.9203 384.725 53.9347 384.509 53.8738C384.356 53.9025 384.209 53.8917 384.072 53.8452C383.966 53.9239 383.84 53.9382 383.703 53.8917C384.056 53.6305 383.892 53.3263 383.861 53.0329C384.293 53.0185 384.725 53.0006 385.157 52.9863C385.152 53.269 385.147 53.5482 385.141 53.8309L385.131 53.8345Z" fill="#AB750F"/>
<path id="Vector_12" d="M172.33 49.3865C172.388 49.0536 172.425 48.6636 173.11 48.7351C173.543 48.7817 173.59 49.1073 173.616 49.3757C173.19 49.3793 172.763 49.3829 172.33 49.3865Z" fill="#AB750F"/>
<path id="Vector_13" d="M380.525 29.8794C380.525 29.7291 380.525 29.5823 380.53 29.432C380.999 29.4428 381.152 29.2352 381.231 28.9775C381.437 28.9775 381.642 28.9883 381.848 29.0026C381.869 29.2925 381.885 29.5823 381.906 29.8722C381.453 30.4305 380.989 29.9366 380.525 29.8794Z" fill="#AB750F"/>
<path id="Vector_14" d="M375.06 28.1257C374.917 28.2081 374.775 28.3655 374.633 28.3655C374.248 28.3655 374.085 28.1687 374.232 27.9432C374.29 27.8574 374.606 27.7786 374.759 27.8073C374.891 27.8323 374.959 28.0148 375.054 28.1293L375.06 28.1257Z" fill="#AB750F"/>
<path id="Vector_15" d="M355.506 38.3356C355.943 38.3284 356.381 38.3213 356.818 38.3105C356.76 38.6541 356.797 39.1014 356.033 39.0227C355.574 38.9762 355.532 38.6183 355.506 38.3356Z" fill="#AB750F"/>
<path id="Vector_16" d="M333.012 27.9506C332.901 27.8432 332.69 27.7323 332.706 27.6356C332.754 27.3887 333.049 27.2885 333.365 27.3995C333.492 27.446 333.586 27.6714 333.528 27.7645C333.465 27.8575 333.191 27.8897 333.012 27.9506Z" fill="#AB750F"/>
<path id="Vector_17" d="M286.341 4.99029C285.772 4.99387 285.25 4.93661 284.976 4.54296C286.056 3.83082 286.199 4.41413 286.341 4.99029Z" fill="#AB750F"/>
<path id="Vector_18" d="M114.402 7.48461C114.402 7.3021 114.402 7.11601 114.402 6.9335C114.808 6.89413 115.219 6.85477 115.625 6.81183L115.583 6.7832C115.594 7.07307 115.604 7.35935 115.609 7.64922L115.636 7.63133C115.225 7.58481 114.814 7.53471 114.402 7.48461Z" fill="#AB750F"/>
<path id="Vector_19" d="M110.54 26.7335C110.661 26.6369 110.761 26.4758 110.903 26.4508C111.293 26.39 111.52 26.5617 111.494 26.8051C111.467 27.0556 111.156 27.1558 110.835 27.0735C110.692 27.0377 110.634 26.8516 110.54 26.7335Z" fill="#AB750F"/>
<path id="Vector_20" d="M103.224 28.3727C103.055 28.3226 102.797 28.3047 102.723 28.2188C102.565 28.022 102.676 27.8216 103.008 27.7679C103.155 27.7428 103.44 27.8216 103.508 27.911C103.667 28.1079 103.529 28.2796 103.218 28.3763L103.224 28.3727Z" fill="#AB750F"/>
<path id="Vector_21" d="M97.0051 31.2107C96.8628 31.2966 96.7205 31.4541 96.5782 31.4541C96.1882 31.4541 96.0248 31.2573 96.1724 31.0282C96.2304 30.9388 96.5519 30.8636 96.71 30.8887C96.8417 30.9101 96.9103 31.0962 97.0051 31.2107Z" fill="#AB750F"/>
<path id="Vector_22" d="M85.2415 21.4624C85.2731 21.7487 85.3047 22.0314 85.3311 22.3177C84.9094 22.3177 84.3402 22.3392 84.2401 22.0457C84.0767 21.5626 84.7039 21.5089 85.2362 21.4624H85.2415Z" fill="#AB750F"/>
<path id="Vector_23" d="M81.3668 29.8796C81.4459 29.5468 81.4406 29.0315 82.1152 29.1639C82.8373 29.307 82.5158 29.672 82.052 29.9154C81.8253 29.9046 81.5934 29.8939 81.3668 29.8832V29.8796Z" fill="#AB750F"/>
<path id="Vector_24" d="M126.852 53.441C126.926 53.2406 126.931 52.9006 127.089 52.8649C127.758 52.711 127.927 53.1154 128.164 53.416C127.727 53.4267 127.289 53.4339 126.852 53.441Z" fill="#AB750F"/>
<path id="Vector_25" d="M86.0107 22.3215C86.2215 22.1604 86.4376 21.9994 86.6484 21.8384C86.8803 21.8491 87.107 21.8598 87.3389 21.8742C87.3178 22.1676 87.2967 22.461 87.2756 22.7581C86.7486 22.7473 86.2532 22.7044 86.0107 22.3215Z" fill="#AB750F"/>
<path id="Vector_26" d="M10.1686 3.66599C10.2266 3.37612 10.2845 3.08983 10.3372 2.79996C10.4637 2.82859 10.5955 2.82859 10.722 2.79639C10.9855 2.95385 11.2543 3.10772 11.5178 3.26518C11.502 3.36896 11.502 3.47632 11.5125 3.5801C11.0804 3.61588 10.6429 3.65167 10.2108 3.68746L10.1686 3.66599Z" fill="#AB750F"/>
<path id="Vector_27" d="M86.016 32.9823C86.0424 33.129 86.0424 33.2757 86.0107 33.4224C85.5944 33.4224 85.3994 33.5727 85.3941 33.8483C85.3045 33.902 85.2096 33.9556 85.1147 34.0093C84.983 33.9485 84.8354 33.9091 84.6826 33.8876C84.6984 33.6264 84.7195 33.3687 84.7353 33.1075C85.1622 33.0646 85.5838 33.018 86.0107 32.9751L86.0213 32.9858L86.016 32.9823Z" fill="#AB750F"/>
<path id="Vector_28" d="M177.617 16.1021C178.028 16.2595 178.323 16.5028 177.949 16.7677C177.569 17.0361 177.2 16.8321 176.947 16.5744C177.169 16.417 177.395 16.2595 177.617 16.1021Z" fill="#AB750F"/>
<path id="Vector_29" d="M54.3139 5.89188L54.4141 5.00439C55.115 5.33721 55.2204 5.64138 54.3139 5.89188Z" fill="#AB750F"/>
<path id="Vector_30" d="M378.575 27.2275C379.007 27.2275 379.434 27.2204 379.866 27.2168C379.887 27.3635 379.892 27.5102 379.871 27.657C379.639 27.657 379.407 27.657 379.17 27.657C378.97 27.6677 378.77 27.657 378.575 27.614V27.4208V27.2275Z" fill="#AB750F"/>
<path id="Vector_31" d="M373.299 25.4277C373.289 25.7212 373.283 26.0182 373.273 26.3116C373.083 26.3116 372.893 26.3116 372.704 26.3045C372.682 26.011 372.661 25.7212 372.64 25.4277C372.862 25.4206 373.078 25.4206 373.299 25.4277Z" fill="#AB750F"/>
<path id="Vector_32" d="M366.811 18.0523C367.222 17.9879 367.628 17.9199 368.039 17.8555C368.097 18.8861 367.285 18.1632 366.816 18.1346V18.0523H366.811Z" fill="#AB750F"/>
<path id="Vector_33" d="M364.687 50.7713C364.608 51.0397 364.529 51.3081 364.45 51.5765L364.371 51.6016C364.287 51.326 364.207 51.0505 364.128 50.7749C364.318 50.7677 364.503 50.7677 364.692 50.7749L364.687 50.7713Z" fill="#AB750F"/>
<path id="Vector_34" d="M355.553 50.1776C356.038 49.9593 356.534 49.7016 356.818 50.3136C356.396 50.2671 355.975 50.2205 355.553 50.1776Z" fill="#AB750F"/>
<path id="Vector_35" d="M346.193 1.01074C346.225 1.3006 346.262 1.59047 346.293 1.88034L345.587 1.88034C345.624 1.58689 345.661 1.29345 345.698 1C345.861 1.01074 346.024 1.01431 346.193 1.01074Z" fill="#AB750F"/>
<path id="Vector_36" d="M342.309 23.2124C342.309 23.5094 342.32 23.8029 342.32 24.0963H341.656C341.671 23.8029 341.682 23.5058 341.692 23.2124C341.898 23.2124 342.103 23.2124 342.304 23.2124H342.309Z" fill="#AB750F"/>
<path id="Vector_37" d="M325.08 35.2365L325.169 36.0918C324.938 36.0918 324.711 36.0989 324.479 36.0989C324.526 35.8055 324.574 35.5156 324.627 35.2222C324.774 35.2365 324.927 35.2401 325.08 35.2365Z" fill="#AB750F"/>
<path id="Vector_38" d="M312.009 8.1001C312.446 8.1001 312.884 8.1001 313.321 8.10368C313.321 8.24325 313.321 8.38281 313.321 8.52237C312.884 8.52595 312.446 8.52953 312.014 8.53669V8.3184V8.1001H312.009Z" fill="#AB750F"/>
<path id="Vector_39" d="M291.644 40.5473C291.196 40.533 290.748 40.5187 290.294 40.5043C290.779 40.032 291.227 40.0427 291.644 40.5473Z" fill="#AB750F"/>
<path id="Vector_40" d="M255.335 27.6538C255.335 27.9508 255.335 28.2443 255.335 28.5377C255.124 28.5377 254.919 28.5377 254.713 28.5377C254.708 28.2443 254.703 27.9473 254.697 27.6538C254.913 27.6538 255.13 27.6538 255.34 27.6538H255.335Z" fill="#AB750F"/>
<path id="Vector_41" d="M250.207 27.7934C250.602 27.7468 250.992 27.7003 251.387 27.6538C251.408 27.8005 251.387 27.9437 251.319 28.0868C250.886 28.0976 250.507 28.0117 250.207 27.7934Z" fill="#AB750F"/>
<path id="Vector_42" d="M246.127 43.6642C246.565 43.6606 246.997 43.6535 247.435 43.6499C247.013 44.2153 246.575 44.2117 246.127 43.6642Z" fill="#AB750F"/>
<path id="Vector_43" d="M244.267 44.0615C244.404 43.5855 244.91 43.5712 245.469 43.6284C245.358 44.1438 244.783 44.0686 244.267 44.0615Z" fill="#AB750F"/>
<path id="Vector_44" d="M231.012 52.618C231.386 52.6072 232.04 52.3782 232.061 52.6788C232.103 53.2442 231.392 52.8506 231.012 52.8971V52.7576V52.618Z" fill="#AB750F"/>
<path id="Vector_45" d="M223.659 32.1125C223.675 32.4059 223.696 32.6958 223.712 32.9892C223.491 32.9892 223.269 32.9892 223.048 32.9892C223.064 32.6958 223.074 32.4023 223.096 32.1089C223.285 32.1089 223.475 32.1089 223.659 32.1125Z" fill="#AB750F"/>
<path id="Vector_46" d="M212.276 49.5083C212.35 49.7767 212.423 50.0451 212.492 50.3135C212.302 50.3135 212.118 50.3099 211.928 50.3063C211.997 50.0308 212.06 49.7516 212.128 49.4761L212.276 49.5083Z" fill="#AB750F"/>
<path id="Vector_47" d="M202.593 51.2153C202.641 51.4837 202.683 51.8845 202.24 51.8702C201.876 51.8595 201.903 51.4336 201.95 51.1616C202.161 51.1938 202.377 51.2117 202.593 51.2189V51.2153Z" fill="#AB750F"/>
<path id="Vector_48" d="M199.99 54.314C200.39 53.7772 200.833 53.838 201.292 54.2782C200.859 54.2889 200.422 54.3033 199.99 54.314Z" fill="#AB750F"/>
<path id="Vector_49" d="M184.943 25.1844C185.417 25.0878 186.018 24.7013 186.129 25.4242L186.145 25.4134C185.733 25.349 185.328 25.281 184.917 25.2166L184.943 25.1844Z" fill="#AB750F"/>
<path id="Vector_50" d="M184.263 45.9222C184.674 45.9079 185.079 45.8935 185.491 45.8828C185.496 46.0403 185.501 46.1942 185.506 46.3516C184.906 46.459 184.389 46.4518 184.263 45.9258V45.9222Z" fill="#AB750F"/>
<path id="Vector_51" d="M180.225 40.0963C179.772 40.0784 179.319 40.0605 178.866 40.0426C178.887 39.9281 178.887 39.8171 178.866 39.7026C179.319 39.6847 179.772 39.6668 180.225 39.6489C180.225 39.7992 180.225 39.946 180.225 40.0963Z" fill="#AB750F"/>
<path id="Vector_52" d="M157.884 23.7455C158.305 23.7133 158.722 23.6811 159.143 23.6489V23.6525C159.143 23.8028 159.143 23.9531 159.149 24.0998V24.1034C158.717 24.0676 158.29 24.0283 157.863 23.9925L157.889 23.8708V23.7455H157.884Z" fill="#AB750F"/>
<path id="Vector_53" d="M90.6069 16.5454C90.6386 16.2555 90.6702 15.9692 90.7018 15.6794C90.8546 15.6901 91.0022 15.6901 91.1551 15.6758C91.2025 15.9656 91.2499 16.2591 91.2974 16.549L91.2763 16.5597C91.0549 16.5597 90.8283 16.5525 90.6069 16.549V16.5454Z" fill="#AB750F"/>
<path id="Vector_54" d="M131.485 7.1481C131.98 6.76519 132.454 6.56479 132.786 7.24114C132.354 7.20894 131.917 7.18031 131.485 7.1481Z" fill="#AB750F"/>
<path id="Vector_55" d="M129.265 41.4953C129.465 41.8352 129.866 42.2253 128.859 42.2861L128.88 42.304C128.954 42.0285 129.033 41.7565 129.107 41.481L129.26 41.4953H129.265Z" fill="#AB750F"/>
<path id="Vector_56" d="M120.696 39.7174C120.754 39.8534 120.801 39.9894 120.87 40.1218C121.001 40.3902 120.812 40.494 120.453 40.4511C120.185 40.4189 120.158 40.2793 120.285 40.1147C120.38 39.993 120.416 39.8499 120.48 39.7139H120.69L120.696 39.7174Z" fill="#AB750F"/>
<path id="Vector_57" d="M119.594 11.217C119.605 11.3673 119.61 11.5176 119.621 11.6679C119.394 11.7072 119.162 11.743 118.935 11.7824C118.74 11.5927 118.54 11.403 118.345 11.2134C118.762 11.2134 119.178 11.2134 119.594 11.217Z" fill="#AB750F"/>
<path id="Vector_58" d="M95.3128 26.4581C95.7186 26.4116 96.1244 26.3686 96.5303 26.3257C96.4354 27.0056 95.8082 26.6692 95.3233 26.612L95.3128 26.4617V26.4581Z" fill="#AB750F"/>
<path id="Vector_59" d="M2.3158 18.7645C1.88889 18.7431 1.46196 18.7252 1.04032 18.7037C1.04032 18.5963 1.04034 18.489 1.02453 18.3816C1.45671 18.3566 1.88887 18.3351 2.32104 18.3101C2.32104 18.4604 2.32104 18.6107 2.32104 18.7645H2.3158Z" fill="#AB750F"/>
<path id="Vector_60" d="M18.7861 14.3196C18.3592 14.3017 17.9323 14.2802 17.5106 14.2623C17.5106 14.1585 17.5106 14.0512 17.4948 13.9474L18.7861 13.8687L18.7966 13.8758C18.7914 14.0261 18.7861 14.1728 18.7808 14.3231L18.7861 14.3196Z" fill="#AB750F"/>
<path id="Vector_61" d="M24.673 6.31394C24.0247 6.0026 23.9298 5.70557 24.731 5.43359C24.7151 5.72704 24.6941 6.02049 24.673 6.31394Z" fill="#AB750F"/>
<path id="Vector_62" d="M27.3608 17.4475C26.9392 17.4117 26.5229 17.3759 26.1012 17.3365V17.2077L26.0748 17.0825C26.5018 17.0431 26.9287 17.0037 27.3608 16.9644C27.3608 17.1254 27.3608 17.2864 27.3608 17.4475Z" fill="#AB750F"/>
<path id="Vector_63" d="M28.5839 33.3112C28.178 33.347 27.7669 33.3828 27.3611 33.4221C27.3611 33.2933 27.3664 33.1645 27.3717 33.0356C27.788 33.0679 28.1991 33.1036 28.6155 33.1358L28.5839 33.3112Z" fill="#AB750F"/>
<path id="Vector_64" d="M29.9641 40.1035C29.9114 40.7548 29.2632 40.5795 28.6992 40.5186L28.715 40.533C28.715 40.3934 28.7361 40.2574 28.7888 40.125C29.1788 40.1178 29.5741 40.1107 29.9641 40.1035Z" fill="#AB750F"/>
<path id="Vector_65" d="M43.1407 52.5102C42.7401 52.4708 42.3449 52.4314 41.9443 52.3921L41.9074 52.2382C42.3291 52.1845 42.7507 52.1308 43.1723 52.0771L43.1829 52.0879C43.1776 52.2346 43.1565 52.3777 43.1249 52.5209L43.1407 52.5066V52.5102Z" fill="#AB750F"/>
<path id="Vector_66" d="M49.0649 12.108C49.007 12.7486 48.4009 12.6448 47.7895 12.5339C47.974 12.0651 48.5326 12.1009 49.0649 12.108Z" fill="#AB750F"/>
<path id="Vector_67" d="M393 25.0017C392.937 25.1087 392.9 25.2976 392.81 25.3119C392.441 25.3689 392.42 25.1764 392.426 24.9946C392.615 24.991 392.81 24.9946 393 25.0017Z" fill="#AB750F"/>
<path id="Vector_68" d="M380.546 44.0934C380.53 43.9001 380.546 43.6998 380.936 43.757C381.031 43.7713 381.073 43.9681 381.136 44.0827C380.941 44.0898 380.741 44.0934 380.546 44.0934Z" fill="#AB750F"/>
<path id="Vector_69" d="M358.131 7.2124C358.141 7.41638 358.141 7.64183 357.715 7.581C357.614 7.56668 357.577 7.34482 357.514 7.21957C357.72 7.21599 357.925 7.2124 358.131 7.2124Z" fill="#AB750F"/>
<path id="Vector_70" d="M350.193 44.548C350.13 44.6697 350.098 44.8808 350.004 44.8951C349.598 44.956 349.598 44.7377 349.593 44.5444C349.793 44.5373 349.993 44.5373 350.193 44.5444V44.548Z" fill="#AB750F"/>
<path id="Vector_71" d="M325.19 16.1017C325.406 16.1017 325.628 16.0981 325.844 16.1017C325.849 16.2484 325.849 16.3987 325.844 16.5454C325.638 16.5454 325.438 16.5454 325.232 16.5383C325.201 16.3951 325.195 16.252 325.211 16.1088H325.185L325.19 16.1017Z" fill="#AB750F"/>
<path id="Vector_72" d="M311.998 6.3322C312.009 6.47534 311.998 6.6149 311.967 6.75447C311.772 6.76163 311.577 6.76521 311.382 6.75805C311.429 6.51113 311.64 6.37156 312.004 6.32861L311.998 6.3322Z" fill="#AB750F"/>
<path id="Vector_73" d="M302.101 1.43994C302.038 1.67971 301.832 1.81928 301.474 1.86222C301.553 1.63319 301.764 1.49362 302.101 1.43994Z" fill="#AB750F"/>
<path id="Vector_74" d="M272.475 29.876C272.697 29.876 272.913 29.876 273.134 29.876C273.134 30.0227 273.134 30.173 273.134 30.3197C272.923 30.3197 272.718 30.3197 272.512 30.3161C272.475 30.1694 272.47 30.0263 272.481 29.8796L272.475 29.876Z" fill="#AB750F"/>
<path id="Vector_75" d="M264.574 20.11C265.028 20.0921 265.254 20.2353 265.233 20.5466C265.012 20.5466 264.801 20.5323 264.596 20.4894C264.58 20.3605 264.574 20.2353 264.58 20.1064L264.574 20.11Z" fill="#AB750F"/>
<path id="Vector_76" d="M259.942 47.6545C259.931 47.9372 259.715 48.0803 259.299 48.0911C259.299 47.9479 259.32 47.8048 259.373 47.6616C259.563 47.6545 259.752 47.6509 259.947 47.6509L259.942 47.6545Z" fill="#AB750F"/>
<path id="Vector_77" d="M250.033 20.5499C250.033 20.7281 249.991 20.9064 249.648 20.8458C249.554 20.8315 249.522 20.6533 249.459 20.5534C249.648 20.5427 249.838 20.5427 250.028 20.5534L250.033 20.5499Z" fill="#AB750F"/>
<path id="Vector_78" d="M246.707 44.5551C246.644 44.6621 246.607 44.851 246.512 44.8653C246.143 44.9188 246.143 44.7191 246.138 44.5444C246.328 44.5444 246.518 44.5444 246.702 44.5551H246.707Z" fill="#AB750F"/>
<path id="Vector_79" d="M245.432 8.99479C245.368 9.11647 245.331 9.33476 245.231 9.34907C244.815 9.41349 244.804 9.19161 244.804 8.99121C245.015 8.99121 245.221 8.99121 245.432 8.99479Z" fill="#AB750F"/>
<path id="Vector_80" d="M213.815 15.6256C213.551 15.6184 213.23 15.6292 213.314 15.3643C213.335 15.3035 213.636 15.282 213.809 15.2427C213.825 15.3715 213.825 15.4968 213.809 15.6256H213.815Z" fill="#AB750F"/>
<path id="Vector_81" d="M198.646 23.2164C198.63 23.3953 198.646 23.61 198.256 23.5528C198.161 23.5385 198.129 23.3381 198.066 23.22C198.261 23.2128 198.451 23.2093 198.646 23.2128V23.2164Z" fill="#AB750F"/>
<path id="Vector_82" d="M192.048 35.6623C192.079 35.8054 192.084 35.945 192.074 36.0881C191.721 36.0416 191.499 35.9056 191.447 35.6587C191.647 35.6587 191.847 35.6587 192.048 35.6623Z" fill="#AB750F"/>
<path id="Vector_83" d="M155.222 37.8633C155.186 38.1531 154.943 38.2891 154.527 38.3106C154.606 38.0529 154.848 37.9134 155.222 37.8633Z" fill="#AB750F"/>
<path id="Vector_84" d="M153.273 52.5215C153.283 52.3246 153.346 52.1278 153.726 52.2101C153.826 52.2316 153.842 52.4284 153.895 52.5465C153.689 52.5358 153.478 52.5286 153.273 52.5251V52.5215Z" fill="#AB750F"/>
<path id="Vector_85" d="M25.9803 21.8883C25.9223 21.9992 25.8907 22.1925 25.8011 22.2068C25.4269 22.264 25.4269 22.0601 25.4217 21.8847C25.6114 21.874 25.7959 21.8775 25.9856 21.8847L25.9803 21.8883Z" fill="#AB750F"/>
<path id="Vector_86" d="M76.7761 12.0972C76.6971 12.3369 76.481 12.4801 76.1226 12.5266C76.2016 12.2904 76.4283 12.1508 76.7761 12.0972Z" fill="#AB750F"/>
<path id="Vector_87" d="M96.5569 9.87133C96.6201 9.62798 96.8362 9.48483 97.1946 9.43473V9.43115C97.1946 9.57788 97.1893 9.7246 97.163 9.86774C96.9627 9.86774 96.7572 9.86774 96.5569 9.86774V9.87133Z" fill="#AB750F"/>
<path id="Vector_88" d="M303.476 13.4213C303.56 13.3068 303.639 13.1887 303.724 13.0742C303.813 13.1386 303.898 13.1995 303.987 13.2639C303.813 13.314 303.639 13.3641 303.466 13.4106L303.481 13.4213H303.476Z" fill="#AB750F"/>
<path id="Vector_89" d="M381.22 31.1964C381.315 31.132 381.405 31.0639 381.5 30.9995C381.484 31.0389 381.489 31.0962 381.447 31.1176C381.384 31.1534 381.289 31.1677 381.21 31.1892L381.22 31.1964Z" fill="#AB750F"/>
<path id="Vector_90" d="M197.34 4.96873C196.929 4.97589 196.46 5.10472 196.217 4.76117C196.18 4.71107 196.402 4.51067 196.544 4.4892C197.113 4.40331 197.266 4.66455 197.329 4.97947L197.345 4.96873H197.34Z" fill="#AB750F"/>
<path id="Vector_91" d="M194.735 5.42325L194.725 5.21212L194.735 5.00098C195.099 5.04392 195.304 5.18707 195.373 5.43041C195.162 5.44115 194.951 5.44115 194.74 5.43041L194.735 5.42325Z" fill="#AB750F"/>
<path id="Vector_92" d="M383.841 19.6663C383.946 19.7341 384.057 19.8054 384.162 19.8731C384.094 19.8624 383.999 19.866 383.962 19.8374C383.904 19.7911 383.883 19.7198 383.846 19.6592L383.835 19.6663H383.841Z" fill="#AB750F"/>
<path id="Vector_93" d="M80.7775 30.3517C81.2044 30.341 81.6261 30.3267 82.053 30.3159C82.053 30.5772 82.053 30.8456 81.5049 30.8384C81.0516 30.8312 80.8355 30.638 80.7775 30.3553V30.3517Z" fill="#AB750F"/>
<path id="Vector_94" d="M227.686 29.4464C228.128 29.586 228.571 29.7256 229.014 29.8616C228.872 30.1693 228.566 30.3984 228.081 30.3232C227.275 30.2015 227.665 29.7721 227.68 29.4429L227.686 29.4464Z" fill="#AB750F"/>
<path id="Vector_95" d="M30.1067 8.8374C30.1805 8.74436 30.2543 8.65131 30.3333 8.55469C30.4019 8.60121 30.5442 8.65848 30.5336 8.69784C30.502 8.79804 30.4071 8.89108 30.3386 8.98771C30.2701 8.94119 30.1963 8.89466 30.112 8.8374H30.1067Z" fill="#AB750F"/>
<path id="Vector_96" d="M106.793 13.3522C106.729 13.3272 106.661 13.3023 106.598 13.2809C106.666 13.2167 106.74 13.1526 106.814 13.0884C106.877 13.1347 106.94 13.1811 107.003 13.2274C106.935 13.2702 106.866 13.313 106.793 13.3558V13.3522Z" fill="#AB750F"/>
<path id="Vector_97" d="M109.148 4.35678C109.221 4.27089 109.301 4.18501 109.38 4.09912C109.443 4.14564 109.575 4.2029 109.564 4.23869C109.527 4.33531 109.432 4.41762 109.359 4.50708C109.295 4.46056 109.227 4.41404 109.148 4.35678Z" fill="#AB750F"/>
<path id="Vector_98" d="M231.344 18.6953C231.265 18.6704 231.186 18.6454 231.113 18.6169C231.192 18.5456 231.276 18.4707 231.355 18.3994C231.434 18.4493 231.508 18.4992 231.587 18.5492C231.508 18.5955 231.424 18.6454 231.344 18.6918V18.6953Z" fill="#AB750F"/>
<path id="Vector_99" d="M223.781 41.2373C223.818 41.191 223.86 41.1411 223.903 41.0947C224.008 41.1482 224.119 41.1981 224.224 41.2516C224.145 41.2979 224.066 41.3835 223.992 41.3799C223.918 41.3799 223.85 41.2872 223.781 41.2373Z" fill="#AB750F"/>
<path id="Vector_100" d="M100.436 38.357C100.42 38.6183 100.404 38.8759 100.388 39.1372C99.9138 39.1408 99.2391 39.3268 99.1653 38.8151C99.0705 38.1173 99.8558 38.3177 100.436 38.357Z" fill="#AB750F"/>
<path id="Vector_101" d="M16.846 3.6414C16.9198 3.52688 16.9936 3.41237 17.0726 3.29785L17.3467 3.48394C17.178 3.53404 17.0041 3.58414 16.8302 3.63066L16.846 3.6414Z" fill="#AB750F"/>
<path id="Vector_102" d="M103.129 42.7622C103.118 43.0557 102.876 43.1845 102.465 43.2095C102.444 42.8982 102.702 42.7729 103.129 42.7622Z" fill="#AB750F"/>
<path id="Vector_103" d="M88.6033 18.3311C88.5137 18.4491 88.4188 18.5637 88.3292 18.6818C87.8971 18.3668 88.3503 18.3883 88.6191 18.3418L88.6033 18.3311Z" fill="#AB750F"/>
<path id="Vector_104" d="M167.049 5.4375C167.239 5.49118 167.423 5.54128 167.613 5.59496C167.513 5.65937 167.407 5.72737 167.307 5.79536C167.223 5.67727 167.139 5.55559 167.049 5.4375Z" fill="#AB750F"/>
<path id="Vector_105" d="M251.251 9.52093C251.198 9.60681 251.193 9.69271 251.24 9.78217C250.766 9.77143 250.038 10.1257 250.038 9.41357C250.444 9.44936 250.85 9.48515 251.256 9.52451L251.251 9.52093Z" fill="#AB750F"/>
<path id="Vector_106" d="M107.725 26.7697C107.63 26.8842 107.54 26.9951 107.445 27.1097C106.976 26.7768 107.503 26.8341 107.73 26.7733L107.719 26.7661L107.725 26.7697Z" fill="#AB750F"/>
<path id="Vector_107" d="M325.834 22.3391C325.623 22.1816 325.412 22.0278 325.201 21.8703C325.222 21.5446 325.228 21.2154 325.776 21.0615C326.023 21.1832 326.266 21.3084 326.514 21.4301C326.561 21.8273 326.977 22.3462 325.834 22.3391Z" fill="#AB750F"/>
<path id="Vector_108" d="M367.876 35.1902C367.886 35.0435 367.934 34.9003 368.013 34.7607C368.45 34.7679 368.883 34.7786 369.32 34.7858C369.067 35.2904 368.429 35.1687 367.876 35.1902Z" fill="#AB750F"/>
<path id="Vector_109" d="M380.51 28.5085C380.652 28.6122 380.831 28.6588 381.042 28.648C381.011 28.784 381.074 28.895 381.232 28.9773C381.153 29.2385 381 29.4461 380.531 29.4318C380.526 29.124 380.515 28.8126 380.505 28.5049L380.51 28.5085Z" fill="#AB750F"/>
<path id="Vector_110" d="M380.561 28.0828C380.561 28.2439 380.567 28.4013 380.572 28.5624C380.003 28.6232 379.755 28.4658 379.839 28.0757C380.082 28.0757 380.319 28.0793 380.561 28.0828Z" fill="#AB750F"/>
<path id="Vector_111" d="M379.197 28.1083C379.192 27.958 379.181 27.8041 379.171 27.6538C379.403 27.6538 379.635 27.6538 379.872 27.6538C379.882 27.8077 379.893 27.958 379.903 28.1119C379.666 28.1119 379.429 28.1083 379.197 28.1083Z" fill="#AB750F"/>
<path id="Vector_112" d="M384.067 53.8457C384.209 53.8922 384.357 53.8994 384.504 53.8743C384.536 54.0747 384.404 54.3074 384.151 54.2787C383.882 54.2465 383.882 54.0139 384.067 53.8457Z" fill="#AB750F"/>
<path id="Vector_113" d="M119.568 11.6318C119.805 11.639 120.037 11.6426 120.274 11.6462C120.158 11.7965 120.037 11.9503 119.921 12.1042C119.805 11.9468 119.684 11.7893 119.568 11.6318Z" fill="#AB750F"/>
<path id="Vector_114" d="M299.48 16.5493C299.496 16.6925 299.496 16.8356 299.48 16.9787C298.911 16.8356 298.906 16.6925 299.48 16.5493Z" fill="#AB750F"/>
<path id="Vector_115" d="M177.643 40.0605L177.612 39.8709C177.612 39.8709 177.628 39.6776 177.628 39.6812C178.039 39.6884 178.455 39.6991 178.866 39.7063C178.887 39.8208 178.893 39.9317 178.866 40.0462C178.46 40.0498 178.049 40.057 177.643 40.0605Z" fill="#AB750F"/>
<path id="Vector_116" d="M9.56836 3.65909C9.03077 3.65193 8.50901 3.63046 8.26657 3.22249C8.8147 3.21534 9.347 3.22249 9.56836 3.65909Z" fill="#AB750F"/>
<path id="Vector_117" d="M171.662 15.2036V14.9889V14.7742C171.878 14.7635 172.089 14.7635 172.305 14.7706C172.231 15.0104 172.015 15.1571 171.657 15.2072L171.662 15.2036Z" fill="#AB750F"/>
<path id="Vector_118" d="M130.847 19.627L130.815 19.4266L130.826 19.2227C131.247 19.2227 131.479 19.3551 131.463 19.6521C131.258 19.6593 131.052 19.6521 130.847 19.627Z" fill="#AB750F"/>
<path id="Vector_119" d="M109 38.7188C108.626 38.7009 108.252 38.683 107.878 38.6651C107.862 38.2715 107.851 37.8814 107.836 37.4914C108.231 37.4806 108.626 37.4699 109.021 37.4556C109.29 37.8778 109.285 38.3001 109 38.7188Z" fill="#AB750F"/>
<path id="Vector_120" d="M54.3509 51.2188C54.3614 51.5122 54.3667 51.8092 54.3772 52.1027C53.945 52.0919 53.5181 52.0812 53.0859 52.0705C53.0965 51.7985 53.1123 51.5265 53.1228 51.2545C53.5339 51.2438 53.9398 51.2295 54.3509 51.2188Z" fill="#AB750F"/>
<path id="Vector_121" d="M247.435 40.9838V40.7619V40.54C247.656 40.54 247.872 40.54 248.094 40.54C248.094 40.6868 248.094 40.8371 248.094 40.9838C247.872 40.9838 247.656 40.9838 247.435 40.9838Z" fill="#AB750F"/>
</g>
</g>
</g>
<defs>
<linearGradient id="paint0_linear_3463_3925" x1="200.594" y1="24.6667" x2="200.408" y2="51.725" gradientUnits="userSpaceOnUse">
<stop stop-color="#D8A956" stop-opacity="0"/>
<stop offset="0.0939996" stop-color="#D8A956" stop-opacity="0"/>
<stop offset="0.344" stop-color="#B88423" stop-opacity="0.714286"/>
<stop offset="0.444" stop-color="#AB750F"/>
</linearGradient>
<linearGradient id="paint1_linear_3463_3925" x1="323.809" y1="-0.5" x2="323.809" y2="53.5" gradientUnits="userSpaceOnUse">
<stop stop-color="#AB750F" stop-opacity="0"/>
<stop offset="0.516" stop-color="#D8A956"/>
<stop offset="1" stop-color="#AB750F" stop-opacity="0"/>
</linearGradient>
<linearGradient id="paint2_linear_3463_3925" x1="-13.1908" y1="-0.5" x2="-13.1908" y2="53.5" gradientUnits="userSpaceOnUse">
<stop stop-color="#AB750F" stop-opacity="0"/>
<stop offset="0.516" stop-color="#D8A956"/>
<stop offset="1" stop-color="#AB750F" stop-opacity="0"/>
</linearGradient>
<linearGradient id="paint3_linear_3463_3925" x1="376.492" y1="-0.5" x2="376.492" y2="53.5" gradientUnits="userSpaceOnUse">
<stop stop-color="#AB750F" stop-opacity="0"/>
<stop offset="0.516" stop-color="#D8A956"/>
<stop offset="1" stop-color="#AB750F" stop-opacity="0"/>
</linearGradient>
<clipPath id="clip0_3463_3925">
<rect width="393" height="54" fill="white"/>
</clipPath>
</defs>
</svg>
