<svg width="394" height="454" viewBox="0 0 394 454" fill="none" xmlns="http://www.w3.org/2000/svg">
<g id="game-summary" clip-path="url(#clip0_3544_5341)">
<path id="Rectangle 291" d="M259 8H238L230 18H253L259 8Z" fill="url(#paint0_linear_3544_5341)"/>
<path id="Rectangle 290" d="M135 8H156L164 18H141L135 8Z" fill="url(#paint1_linear_3544_5341)"/>
<path id="Vector 133 (Stroke)" fill-rule="evenodd" clip-rule="evenodd" d="M142 19L196 19L196 16L142 16L142 19Z" fill="url(#paint2_linear_3544_5341)"/>
<path id="Vector 132 (Stroke)" fill-rule="evenodd" clip-rule="evenodd" d="M251 19L198 19L198 16L251 16L251 19Z" fill="url(#paint3_linear_3544_5341)"/>
<g id="Mask group">
<mask id="mask0_3544_5341" style="mask-type:alpha" maskUnits="userSpaceOnUse" x="0" y="4" width="394" height="450">
<path id="Rectangle 292" d="M0 4H134L143 17H251L260 4H394V454H0V4Z" fill="#F5F1EE"/>
</mask>
<g mask="url(#mask0_3544_5341)">
<path id="Union" fill-rule="evenodd" clip-rule="evenodd" d="M-46.669 423.9C-37.8675 405.478 -19.2819 368.266 -15.3519 366.792C-11.4219 365.318 -1.02373 348.166 3.68408 339.773L15.3513 371.705C18.2169 368.43 24.071 362.862 24.5622 366.792C25.0535 370.722 32.9544 392.992 36.8435 403.636L68.1606 334.247L90.881 360.038L117.9 306L154.743 371.705L170.709 350.827C175.345 360.793 182.762 376.403 188.682 388.07C194.724 376.701 200.113 367.51 202.026 366.792C205.956 365.318 216.354 348.166 221.062 339.773L232.729 371.705C235.595 368.43 241.449 362.862 241.94 366.792C242.432 370.722 250.333 392.992 254.222 403.636L285.539 334.247L308.259 360.038L335.278 306L372.122 371.705L388.087 350.827C396.275 368.43 413.141 403.636 415.106 403.636C417.071 403.636 435.984 435.158 445.195 450.919L153.515 454.603L155.064 451.838L-63.8628 454.603L-46.669 423.9Z" fill="url(#paint4_linear_3544_5341)" fill-opacity="0.6"/>
</g>
</g>
<g id="Mask group_2">
<mask id="mask1_3544_5341" style="mask-type:alpha" maskUnits="userSpaceOnUse" x="0" y="4" width="394" height="450">
<path id="Rectangle 292_2" d="M0 4H134L143 17H251L260 4H394V454H0V4Z" fill="#F5F1EE"/>
</mask>
<g mask="url(#mask1_3544_5341)">
<path id="Union_2" fill-rule="evenodd" clip-rule="evenodd" d="M179.266 374.599L182.377 314.972L168.253 270.145L137.55 240.67L113.602 265.847L102.549 346.289L87.197 336.464L65.0907 280.584L50.3532 300.234V240.67L38.072 189.089L17.1938 165.141L9.91821e-05 240.67L-5.52647 230.845L-19.0358 318.656L-30.703 327.253C-33.978 347.722 -41.1421 388.905 -43.5983 389.888C-46.0546 390.87 -51.9905 375.559 -54.6515 367.781C-60.5874 382.723 -72.9505 413.099 -74.9155 415.064L-96.4077 491.208C-92.3104 501.924 -50.4067 480.852 -29.995 470.587C-23.8947 467.52 -19.714 465.417 -19.0358 465.417C-16.0883 465.417 8.80166 461.323 20.8782 459.277L9.91821e-05 481.383H259.749L255.589 475.242H479.583L466.687 456.206L423.089 387.431L413.264 408.923L398.526 379.448L402.211 308.831L388.087 264.005L357.384 234.53L333.436 259.706L322.383 340.148L307.031 330.323L284.925 274.444L270.187 294.094V234.53L257.906 182.948L237.028 159L219.834 234.53L214.308 224.705L200.798 312.516L189.131 321.113C186.785 335.776 182.443 361.07 179.266 374.599Z" fill="url(#paint5_linear_3544_5341)" fill-opacity="0.3"/>
</g>
</g>
<g id="Group" opacity="0.3">
<path id="Vector" d="M141.974 112.042C141.106 112.568 141.501 113.447 141.099 114.11C140.516 115.068 140.212 115.063 139.019 113.989L139 113.937C139.434 113.71 139.557 113.368 139.557 112.973C139.771 112.915 139.855 112.794 139.803 112.61C140.283 112.41 140.451 112.052 140.542 111.657L140.516 111.684C141.009 111.773 141.508 111.857 142 111.947L141.981 112.042H141.974Z" fill="#AB750F"/>
<path id="Vector_2" d="M135.605 176.343C135.724 176.589 135.842 176.836 135.961 177.082C135.97 177.558 135.98 178.027 136 178.502C135.911 178.772 135.822 179.048 135.734 179.318C134.895 179.517 134.056 179.576 133.207 179.347C133.138 178.579 133.069 177.81 133 177.047C133.168 176.818 133.197 176.583 133.109 176.337C133.405 176.202 133.493 176.026 133.385 175.815C133.77 175.727 134.155 175.639 134.539 175.551C134.895 175.815 135.25 176.085 135.605 176.349V176.343Z" fill="#AB750F"/>
<path id="Vector_3" d="M64.0677 186.38C63.8028 185.498 64.3794 184.911 64.691 184.228H64.7014C64.9196 184.228 65.1325 184.233 65.3507 184.245C65.3923 184.467 65.4234 184.7 65.439 184.934C65.4754 185.19 65.5065 185.452 65.5377 185.708C65.6935 185.93 65.8442 186.147 66 186.369C65.9896 186.58 65.9792 186.796 65.9792 187.007C65.7766 187.064 65.5741 187.126 65.3767 187.206C65.1481 187.263 64.9196 187.326 64.691 187.383C64.5871 187.257 64.5923 187.132 64.7066 187.018C64.6339 186.637 64.3794 186.483 64.0729 186.386L64.0677 186.38Z" fill="#AB750F"/>
<path id="Vector_4" d="M261.106 152.818C262.3 152.486 263.085 152.682 262.993 153.961C262.95 154.589 262.866 155.21 262.795 155.831L262.816 155.812C261.954 155.935 261.763 155.123 261.155 154.89C261.297 154.656 261.247 154.459 261 154.306C261.042 153.802 261.085 153.297 261.127 152.793L261.106 152.818Z" fill="#AB750F"/>
<path id="Vector_5" d="M201.756 245.755C200.641 245.221 200.867 244.675 201.736 244.129C202.187 244.054 202.426 243.771 202.563 243.388C203.117 243.413 203.877 243.369 203.979 243.934C204.15 244.832 203.234 244.844 202.577 244.995C202.119 245.077 201.886 245.365 201.756 245.748V245.755Z" fill="#AB750F"/>
<path id="Vector_6" d="M196.621 316.786V316.747C197.079 317.9 197.244 318.995 196.412 319.876L196.426 319.902C196.214 319.17 195.858 318.509 196.06 317.57L196.001 317.687C196.206 317.388 196.415 317.09 196.621 316.792V316.786Z" fill="#AB750F"/>
<path id="Vector_7" d="M55.9839 127.822C55.8441 128.004 55.6827 128.168 55.5698 128.369C55.2364 128.961 54.774 129.244 54.2847 128.778C53.7739 128.287 54.0373 127.708 54.3976 127.217C54.532 127.028 54.6557 126.833 54.7901 126.645L54.7686 126.657C55.3816 126.733 55.5698 127.444 56 127.796L55.9839 127.828V127.822Z" fill="#AB750F"/>
<path id="Vector_8" d="M127.938 136.074C127.6 136.084 127.262 136.1 126.923 136.11C126.8 135.603 126.862 135.039 126 134.758C126.038 134.348 126.062 133.82 126.746 133.754C127.831 133.651 127.754 134.358 128 134.809C127.977 135.229 127.954 135.649 127.931 136.074H127.938Z" fill="#AB750F"/>
<path id="Vector_9" d="M298.693 184.228C298.249 184.228 297.805 184.228 297.362 184.228C297.238 183.881 297.115 183.531 297 183.185C297.674 183.009 298.356 182.838 299.03 182.663L298.997 182.65C299.293 183 299.581 183.351 299.877 183.702L300 183.662C299.564 183.851 299.129 184.039 298.693 184.223V184.228Z" fill="#AB750F"/>
<path id="Vector_10" d="M13 148.875L12.9838 149.116C12.3832 149.641 11.7394 149.59 11.0793 149.324L11.1604 149.413C10.9386 148.66 10.9494 147.907 11.1767 147.153L11.0955 147.28C12.0423 147.293 12.5726 147.995 12.9946 148.875H13Z" fill="#AB750F"/>
<path id="Vector_11" d="M83.1621 272.574C83.0079 271.248 82.8137 269.922 83.3734 268.63H83.5562C83.7446 269.978 84.647 271.386 83.1621 272.574Z" fill="#AB750F"/>
<path id="Vector_12" d="M207.988 437.73C207.988 438.054 207.994 438.378 208 438.696C207.353 439.096 206.682 439.096 206 438.815L206.075 438.909C206.087 438.453 206.104 437.992 206.116 437.536L206.04 437.623C206.699 437.343 207.353 437.374 207.983 437.73H207.988Z" fill="#AB750F"/>
<path id="Vector_13" d="M147.745 412.982C147.342 412.722 146.899 412.502 146.553 412.201C146.068 411.776 145.666 411.2 146.414 410.768C147.088 410.377 147.638 410.802 148 411.323C147.91 411.872 147.827 412.427 147.745 412.975V412.982Z" fill="#AB750F"/>
<path id="Vector_14" d="M221.018 167.669C223.114 168.152 223.373 168.534 222.603 170.029C222.331 169.768 222.06 169.501 221.789 169.24H221.795C221.536 168.992 221.271 168.731 221.012 168.47L221 168.458C221 168.191 221 167.93 221.018 167.663V167.669Z" fill="#AB750F"/>
<path id="Vector_15" d="M359.993 286.875C359.837 287.627 359.689 288.387 359.534 289.139L359.583 289.112L358 288.318C358.014 287.935 358.035 287.552 358.049 287.169C358.311 287.087 358.544 286.957 358.749 286.772C359.166 286.807 359.583 286.841 360 286.875H359.993Z" fill="#AB750F"/>
<path id="Vector_16" d="M183.992 42.2744C183.984 43.3022 183.967 44.33 183.959 45.3578C183.407 45.4625 183.004 45.3774 182.947 44.8537C182.897 44.1663 183.177 43.3742 182.016 43.06C182.025 42.785 182.041 42.5166 182.049 42.2417L182 42.281C182.667 42.281 183.333 42.2744 184 42.2744H183.992Z" fill="#AB750F"/>
<path id="Vector_17" d="M323.804 341.206C324.978 341.357 324.601 342.136 324.771 342.694C324.845 342.95 324.926 343.206 325 343.462L324.72 343.567L324.506 343.386C324.314 343.456 324.114 343.468 323.908 343.41C322.867 343.258 323.022 342.607 323 342.032C323.421 341.846 323.782 341.63 323.797 341.2L323.804 341.206Z" fill="#AB750F"/>
<path id="Vector_18" d="M36 343.17V342.884C36.347 342.588 36.694 342.286 37.0411 341.989C39.0045 342.096 39.7168 342.526 38.1278 343.567C37.4155 343.433 36.7123 343.304 36 343.17Z" fill="#AB750F"/>
<path id="Vector_19" d="M345.777 272.574H345.484C345.322 272.252 345.161 271.93 345 271.608C345.19 271.513 345.271 271.397 345.249 271.253C345.835 271.17 346.414 271.083 347 270.997C346.985 271.352 346.971 271.703 346.956 272.058C346.56 272.227 346.172 272.401 345.777 272.57V272.574Z" fill="#AB750F"/>
<path id="Vector_20" d="M249 266.178C249 265.962 249 265.739 249 265.523C249.312 265.221 249.632 264.92 249.944 264.618H249.96C250.432 264.376 250.904 264.14 251.384 263.91L251.512 263.897C251.672 264.415 251.84 264.933 252 265.451L251.968 265.477C251.44 265.569 251.104 265.824 250.968 266.263C250.312 266.237 249.656 266.204 249 266.178Z" fill="#AB750F"/>
<path id="Vector_21" d="M137.983 321.794C137.632 322.143 137.142 322.408 136.389 322.189C135.846 322.036 135.96 321.724 136.197 321.459C136.415 321.212 136.669 320.971 136.914 320.724C137.273 320.715 137.641 320.701 138 320.691C138 321.059 138 321.426 137.991 321.794H137.983Z" fill="#AB750F"/>
<path id="Vector_22" d="M74 224.987C73.8063 225.081 73.5944 225.268 73.4309 225.243C73.0132 225.174 72.88 224.884 73.1161 224.603C73.213 224.49 73.5944 224.416 73.7336 224.48C73.891 224.554 73.9152 224.81 74 224.987Z" fill="#AB750F"/>
<path id="Vector_23" d="M128.026 244.966C127.345 244.918 126.914 244.624 127.014 244.074C127.115 243.549 127.625 243.279 128.256 243.43C128.547 243.501 128.897 243.796 128.967 244.035C129.128 244.592 128.677 244.878 128.026 244.966Z" fill="#AB750F"/>
<path id="Vector_24" d="M216.82 25.7053C217.005 25.9168 217.035 26.1455 216.905 26.3798C216.966 26.5456 216.943 26.7056 216.843 26.8543C217.012 26.9686 217.043 27.1058 216.943 27.2544C216.382 26.8714 215.73 27.0486 215.1 27.0829C215.069 26.6142 215.031 26.1455 215 25.6768C215.607 25.6825 216.206 25.6882 216.813 25.6939L216.82 25.7053Z" fill="#AB750F"/>
<path id="Vector_25" d="M208 262.319C207.496 262.248 206.905 262.203 207.013 261.362C207.084 260.832 207.577 260.774 207.984 260.742C207.989 261.265 207.995 261.789 208 262.319Z" fill="#AB750F"/>
<path id="Vector_26" d="M172.557 31.1987C172.298 31.1987 172.045 31.1987 171.785 31.1927C171.803 30.6568 171.445 30.4822 171 30.3918C171 30.157 171.019 29.9222 171.043 29.6873C171.544 29.6632 172.045 29.6452 172.545 29.6211C173.509 30.1389 172.656 30.6688 172.557 31.1987Z" fill="#AB750F"/>
<path id="Vector_27" d="M169.575 36.7202C169.721 36.8476 170 36.975 170 37.1023C170 37.4467 169.651 37.593 169.252 37.4609C169.099 37.409 168.96 37.1259 169.011 36.9891C169.055 36.8712 169.378 36.8098 169.581 36.7249L169.575 36.7202Z" fill="#AB750F"/>
<path id="Vector_28" d="M90 47.2516C89.8093 47.4342 89.594 47.8097 89.4279 47.759C89.0157 47.6169 88.8804 47.0385 89.1142 46.4702C89.2064 46.2469 89.5878 46.1049 89.7293 46.2368C89.8831 46.389 89.9139 46.8964 90 47.2516Z" fill="#AB750F"/>
<path id="Vector_29" d="M189.035 58.8066C189.025 58.2807 189.015 57.7549 189 57.229C189.476 57.2987 190.097 57.2544 189.987 58.173C189.923 58.7243 189.427 58.7749 189.035 58.8066Z" fill="#AB750F"/>
<path id="Vector_30" d="M38 288.558C37.8208 288.761 37.6356 289.158 37.4743 289.138C37.0502 289.071 36.8829 288.529 37.086 287.929C37.1697 287.687 37.546 287.484 37.7013 287.591C37.8566 287.697 37.9044 288.219 38 288.558Z" fill="#AB750F"/>
<path id="Vector_31" d="M169 83.7609C168.82 83.8648 168.634 84.0626 168.472 84.0478C168.057 84.0033 167.889 83.7263 168.075 83.4295C168.153 83.3107 168.532 83.2217 168.688 83.2761C168.844 83.3355 168.898 83.5927 169 83.7609Z" fill="#AB750F"/>
<path id="Vector_32" d="M70.0081 86.3032C70.0567 85.6916 70.1134 84.9235 70.8502 84.8489C72.0567 84.7221 71.9514 85.6693 72 86.415C71.336 86.3777 70.6721 86.3404 70 86.3106L70.0081 86.3032Z" fill="#AB750F"/>
<path id="Vector_33" d="M336.399 88.7817C336.559 88.838 336.844 88.8661 336.921 88.9786C337.099 89.2316 336.968 89.4894 336.612 89.5644C336.458 89.5972 336.144 89.4941 336.073 89.3816C335.919 89.1379 336.002 88.8942 336.399 88.7817Z" fill="#AB750F"/>
<path id="Vector_34" d="M72.1543 297.027C71.0121 296.718 70.9465 296.101 71.0214 295.449C72.8191 295.571 73.8115 295.927 72.1543 297.027Z" fill="#AB750F"/>
<path id="Vector_35" d="M270.004 299.394C270 298.757 270.02 297.958 270.365 297.842C270.924 297.648 270.964 298.579 271 299.37L270 299.394H270.004Z" fill="#AB750F"/>
<path id="Vector_36" d="M27.832 110.868L27.544 110.842L27.256 110.864C27.168 110.508 27.088 110.152 27 109.8L27.016 109.791C27.416 109.625 27.824 109.458 28.224 109.291C28.4 109.321 28.576 109.321 28.76 109.291C28.84 109.642 28.92 109.998 29 110.35C28.608 110.521 28.216 110.697 27.824 110.868H27.832Z" fill="#AB750F"/>
<path id="Vector_37" d="M390.986 117.096C391.03 117.772 390.994 118.39 390.56 118.756C390.378 118.453 390.195 118.157 390.012 117.854C390.008 117.399 390.004 116.951 390 116.497C390.159 116.428 390.322 116.39 390.485 116.39L390.501 116.409C390.664 116.636 390.823 116.863 390.986 117.09V117.096Z" fill="#AB750F"/>
<path id="Vector_38" d="M59.9919 125.032C59.1042 125.532 58.2165 126.045 57.0061 125.786C56.998 125.551 56.998 125.316 57.0061 125.081C57.345 124.815 57.6839 124.544 58.0309 124.278L58.0067 124.296C58.6604 124.321 59.3141 124.34 59.9758 124.364C59.9597 124.587 59.9758 124.815 60 125.038L59.9919 125.032Z" fill="#AB750F"/>
<path id="Vector_39" d="M27 315.17C27.01 314.644 27.03 314.118 27.04 313.592C27.8309 313.624 28.8421 313.668 28.9723 314.213C29.2025 315.119 27.9511 315.088 27 315.17Z" fill="#AB750F"/>
<path id="Vector_40" d="M31.0041 131.264C31.0327 130.669 31.0367 129.886 31.4082 129.81C31.9878 129.69 31.9673 130.632 32 131.377C31.6653 131.34 31.3347 131.302 31 131.272L31.0041 131.264Z" fill="#AB750F"/>
<path id="Vector_41" d="M222 320.698C222.664 320.698 223.328 320.698 224 320.704C223.977 321.228 223.962 321.752 223.94 322.269L222.355 322.225C222.234 321.714 222.121 321.203 222 320.691V320.698Z" fill="#AB750F"/>
<path id="Vector_42" d="M126 135.321C126.004 135.979 125.931 136.582 125.423 136.899C124.506 135.65 125.257 135.486 126 135.321Z" fill="#AB750F"/>
<path id="Vector_43" d="M130.81 326.213C130.599 326.213 130.384 326.213 130.174 326.213C130.128 325.694 130.083 325.168 130.033 324.649L130 324.703C130.335 324.689 130.665 324.676 131 324.669L130.979 324.635C130.926 325.161 130.868 325.687 130.81 326.213Z" fill="#AB750F"/>
<path id="Vector_44" d="M275.952 144.787C275.067 144.737 273.702 144.726 274.058 144.281C274.452 143.792 275.404 144.019 276 144.345C275.99 144.492 275.971 144.64 275.942 144.787H275.952Z" fill="#AB750F"/>
<path id="Vector_45" d="M166.89 330.946C166.598 330.746 166.113 330.58 166.037 330.346C165.854 329.702 166.372 329.328 167.106 329.372C167.861 329.415 168.163 329.928 167.915 330.459C167.807 330.694 167.246 330.789 166.89 330.946Z" fill="#AB750F"/>
<path id="Vector_46" d="M253 331.279C253.163 331.16 253.325 330.946 253.488 330.946C253.928 330.946 254.103 331.224 253.94 331.537C253.874 331.657 253.512 331.766 253.344 331.726C253.193 331.691 253.115 331.433 253.006 331.279H253Z" fill="#AB750F"/>
<path id="Vector_47" d="M229.458 154.253C229.091 154.173 228.917 153.962 229.039 153.69C229.091 153.577 229.382 153.455 229.551 153.464C229.929 153.493 230.075 153.746 229.964 154.013C229.917 154.126 229.632 154.173 229.458 154.253Z" fill="#AB750F"/>
<path id="Vector_48" d="M169.994 338.645C169.912 338.933 169.883 339.375 169.743 339.501C169.422 339.772 169.095 339.582 169.008 339.014C168.967 338.762 169.095 338.275 169.241 338.158C169.562 337.887 169.842 338.122 170 338.654L169.994 338.645Z" fill="#AB750F"/>
<path id="Vector_49" d="M291.941 163.831C291.963 164.317 291.978 164.804 292 165.296C291.405 165.189 290.81 165.088 290.208 164.982C290.253 164.774 290.178 164.596 290 164.442C290.052 164.199 290.097 163.955 290.134 163.718C290.736 163.76 291.338 163.795 291.941 163.831Z" fill="#AB750F"/>
<path id="Vector_50" d="M115.996 341.989C115.665 341.97 115.331 341.95 115 341.931C115 341.42 115 340.916 115 340.412C115.331 340.412 115.657 340.412 115.988 340.412C115.988 340.935 115.996 341.459 116 341.983L115.996 341.989Z" fill="#AB750F"/>
<path id="Vector_51" d="M223.935 166.085C224.784 166.156 225.649 166.185 226 166.944L225.891 167.015C225.564 167.233 225.229 167.445 224.901 167.663L224.449 167.651H223.997C223.662 167.392 223.335 167.127 223 166.868C223.312 166.609 223.623 166.344 223.935 166.085Z" fill="#AB750F"/>
<path id="Vector_52" d="M89.0042 342.848C89.3382 342.826 89.6681 342.8 89.998 342.778C90.0021 343.075 90.0272 343.476 89.6848 343.547C89.1211 343.666 89.0543 343.227 89 342.848H89.0042Z" fill="#AB750F"/>
<path id="Vector_53" d="M175.573 345.933C175.724 346.06 176 346.186 176 346.313C176 346.66 175.655 346.805 175.253 346.674C175.096 346.623 174.965 346.336 175.009 346.196C175.046 346.078 175.372 346.018 175.573 345.933Z" fill="#AB750F"/>
<path id="Vector_54" d="M44.9032 354.61C44.148 354.566 43.1218 354.604 43.0153 354.023C42.8507 353.141 44.0512 353.122 45 353.033C44.971 353.556 44.9419 354.087 44.9129 354.61H44.9032Z" fill="#AB750F"/>
<path id="Vector_55" d="M33.9749 355.638C33.9749 356.007 33.9916 356.375 34 356.744C33.3305 356.821 32.6611 356.899 32 356.977C32 356.453 32 355.929 32.0084 355.399C32.6695 355.477 33.3222 355.554 33.9749 355.632V355.638Z" fill="#AB750F"/>
<path id="Vector_56" d="M300 358.807C300.052 358.064 299.863 357.072 300.556 356.991L300.548 356.977C300.698 357.41 300.851 357.836 301 358.27V358.461C300.706 358.755 300.415 359.049 300.121 359.343C300.165 359.1 300.121 358.924 300 358.807Z" fill="#AB750F"/>
<path id="Vector_57" d="M157 358.681C157.669 358.636 158.33 358.591 158.999 358.554C158.999 359.15 159.049 359.953 158.363 360.095C157.234 360.325 157.109 359.44 157 358.688V358.681Z" fill="#AB750F"/>
<path id="Vector_58" d="M172.907 363.287C172.046 363.181 170.712 363.188 171.055 362.28C171.426 361.309 172.37 361.741 173 362.365C172.972 362.67 172.944 362.982 172.917 363.287H172.907Z" fill="#AB750F"/>
<path id="Vector_59" d="M369.797 394.051C370.113 394.257 370.46 394.454 370.753 394.67C371.099 394.924 371.069 395.241 370.738 395.452C370.045 395.903 369.662 395.37 369.293 395.164C368.743 394.857 369.119 394.44 369.21 394.065C369.406 394.104 369.609 394.099 369.805 394.051H369.797Z" fill="#AB750F"/>
<path id="Vector_60" d="M0.134302 261.481C-0.205653 260.117 0.110585 259.71 0.960471 260.086L0.94861 260.056C0.952563 260.302 0.968376 260.556 1 260.796V260.809C0.810258 261.049 0.620516 261.29 0.434727 261.531L0.29242 261.42L0.138255 261.475L0.134302 261.481Z" fill="#AB750F"/>
<path id="Vector_61" d="M385.025 131.358C385.017 130.842 385.008 130.32 385 129.804C385.403 129.772 385.761 129.9 386 130.454C385.828 130.76 385.655 131.065 385.479 131.377L385.252 131.352H385.025V131.358Z" fill="#AB750F"/>
<path id="Vector_62" d="M34.9584 133.032C34.8417 133.282 35.3627 133.649 34.4284 133.74C34.0691 133.773 33.575 133.561 33.1437 133.462H33C33.4851 133.293 33.9702 133.124 34.4554 132.955C34.5721 133.043 34.7339 133.069 34.9584 133.032Z" fill="#AB750F"/>
<path id="Vector_63" d="M41.0029 133.744C40.9787 133.106 41.1039 132.569 41.4106 132.166C41.6084 132.428 41.8022 132.69 42 132.951C41.9717 133.186 41.9637 133.428 41.9758 133.663L41.0029 133.744Z" fill="#AB750F"/>
<path id="Vector_64" d="M21.0107 275.729C21.0009 275.398 20.9225 274.959 21.3976 274.941C21.7992 274.927 21.9755 275.291 22 275.673C21.6719 275.692 21.3388 275.711 21.0107 275.729Z" fill="#AB750F"/>
<path id="Vector_65" d="M301.18 155.831L301 154.973C301.143 154.781 301.233 154.57 301.256 154.346C301.511 154.309 301.767 154.278 302.023 154.253C302.346 154.557 302.677 154.862 303 155.172C302.932 155.303 302.932 155.439 302.985 155.576C302.383 155.663 301.782 155.75 301.18 155.831Z" fill="#AB750F"/>
<path id="Vector_66" d="M281.494 289.928C281.661 290.197 281.833 290.466 282 290.735L281.498 291.505L281.49 291.493C281.331 291.242 281.171 290.992 281.012 290.747L281 290.729C281 290.472 281.008 290.215 281.008 289.958C281.167 289.94 281.327 289.934 281.486 289.928H281.494Z" fill="#AB750F"/>
<path id="Vector_67" d="M360.009 181.454C360.441 181.132 361.09 180.895 361.834 181.247C362.284 181.464 361.739 181.715 361.134 181.861C360.753 181.725 360.381 181.59 360 181.454H360.009Z" fill="#AB750F"/>
<path id="Vector_68" d="M241.992 307.22C241.15 307.251 240.146 307.554 240 306.462L240.016 306.443C240.389 306.197 240.753 305.95 241.125 305.704C241.393 305.704 241.66 305.704 241.927 305.704C241.935 306.216 241.951 306.727 241.959 307.239L242 307.22H241.992Z" fill="#AB750F"/>
<path id="Vector_69" d="M17.0408 308.046C17.3216 307.775 17.5118 306.902 17.9149 307.47C18.01 307.597 18.0281 308.19 17.9556 308.419C17.702 309.181 17.3306 308.749 17 308.622C17.0906 308.453 17.1042 308.258 17.0408 308.046Z" fill="#AB750F"/>
<path id="Vector_70" d="M354.013 310.437C353.957 309.771 354.081 309.236 354.444 308.859C354.628 309.13 354.816 309.406 355 309.676C354.984 309.878 354.98 310.079 354.992 310.28C354.668 310.33 354.341 310.387 354.017 310.437H354.013Z" fill="#AB750F"/>
<path id="Vector_71" d="M216 312.803C215.671 312.715 215.114 312.708 215.055 312.518C214.803 311.713 215.466 311.511 215.959 311.226C215.977 311.751 215.988 312.277 216 312.803Z" fill="#AB750F"/>
<path id="Vector_72" d="M91.4423 440.59C91.0869 440.281 90.8171 439.795 91.1544 439.261C91.4917 438.726 91.7976 439.141 92 439.704C91.8156 439.999 91.6267 440.295 91.4423 440.59Z" fill="#AB750F"/>
<path id="Vector_73" d="M17.6649 318.27C16.6821 317.605 16.9672 316.81 17.3873 315.993L17.4773 315.958C18.19 316.706 18.1075 317.508 17.6274 318.325L17.6649 318.263V318.27Z" fill="#AB750F"/>
<path id="Vector_74" d="M115.008 52.4836C115.008 52.35 115.004 52.2164 115 52.0828C115.173 51.9556 115.345 51.8316 115.514 51.7075C115.975 51.8538 116.007 52.1655 115.999 52.4963C115.67 52.4931 115.337 52.4868 115.008 52.4836Z" fill="#AB750F"/>
<path id="Vector_75" d="M66.3563 57.2549L66.7773 57.229C67.1822 57.5006 67.5951 57.7721 68 58.0437C67.9514 58.2441 67.9433 58.451 67.9757 58.6514C67.3198 58.7032 66.664 58.7549 66.0081 58.8066H66C66.1215 58.2829 66.2429 57.7657 66.3644 57.2549H66.3563Z" fill="#AB750F"/>
<path id="Vector_76" d="M231 84.0471C230.227 84.067 229.542 83.9147 229 83.4909C229.427 83.1532 229.853 82.8155 230.28 82.4712L230.76 82.4911C230.84 83.0142 230.911 83.5306 230.991 84.0471H231Z" fill="#AB750F"/>
<path id="Vector_77" d="M300.994 231.315C300.802 231.402 300.591 231.58 300.429 231.553C300.032 231.488 299.893 231.19 300.086 230.876C300.146 230.779 300.519 230.73 300.645 230.8C300.814 230.898 300.886 231.136 301 231.315H300.994Z" fill="#AB750F"/>
<path id="Vector_78" d="M158.525 357.765C158.35 357.515 158.175 357.258 158 357.008C158.012 356.732 158.023 356.463 158.039 356.188C158.358 356.213 158.677 356.238 159 356.263C158.988 356.889 158.942 357.477 158.525 357.765Z" fill="#AB750F"/>
<path id="Vector_79" d="M123.952 442.168C123.301 442.1 122.659 442.032 122.008 441.971C122.072 441.823 122.072 441.669 122 441.521C122.353 441.213 122.699 440.898 123.052 440.59C123.285 440.609 123.526 440.609 123.759 440.597C123.839 441.102 123.92 441.613 124 442.119L123.952 442.168Z" fill="#AB750F"/>
<path id="Vector_80" d="M179.007 357.787C179.149 357.757 179.291 357.757 179.433 357.794C179.433 358.279 179.578 358.507 179.844 358.513C179.896 358.617 179.948 358.728 180 358.839C179.941 358.992 179.903 359.164 179.882 359.343C179.63 359.324 179.381 359.3 179.128 359.281C179.087 358.783 179.042 358.292 179 357.794L179.01 357.781L179.007 357.787Z" fill="#AB750F"/>
<path id="Vector_81" d="M56.0163 239.386C56 239.142 56 238.899 56 238.655C56.3577 238.392 56.7154 238.136 57.0732 237.873L57.0407 237.905L57.5041 237.924L57.9675 237.911V237.866C57.9837 238.392 57.9919 238.918 58 239.444C57.3333 239.418 56.6667 239.399 56 239.386H56.0163Z" fill="#AB750F"/>
<path id="Vector_82" d="M277 361.03C277.636 360.7 278.068 360.047 278.981 360.141C279.122 361.353 278.476 361.863 277.041 361.67C277.114 361.454 277.098 361.239 277 361.03Z" fill="#AB750F"/>
<path id="Vector_83" d="M254 242.868C253.891 243.046 253.84 243.312 253.667 243.375C253.506 243.433 253.231 243.281 253 243.218C253.128 243.041 253.212 242.826 253.391 242.701C253.647 242.512 253.885 242.596 254 242.868Z" fill="#AB750F"/>
<path id="Vector_84" d="M256 108.537C256.176 108.264 256.348 107.986 256.523 107.713C256.684 107.737 256.84 107.754 257 107.766V108.537C256.844 108.78 256.687 109.024 256.531 109.267L256.516 109.291C256.344 109.035 256.172 108.786 256 108.531V108.537Z" fill="#AB750F"/>
<path id="Vector_85" d="M19.0166 110.086C19.6805 110.377 20.3444 110.662 21 110.954C20.8921 111.112 20.8838 111.271 20.9834 111.435C20.3195 111.511 19.6639 111.581 19 111.657C19.0166 111.131 19.0332 110.605 19.0498 110.08L19.0249 110.092L19.0166 110.086Z" fill="#AB750F"/>
<path id="Vector_86" d="M345 249.606C345.263 249.049 345.6 248.507 345.936 249.334C346.131 249.809 345.85 250.291 345.505 250.487C345.337 250.196 345.168 249.897 345 249.606Z" fill="#AB750F"/>
<path id="Vector_87" d="M110.969 431.238C110.938 431.471 110.946 431.697 111 431.93C110.554 432.19 110.108 432.443 109.662 432.702C109.438 432.449 109.223 432.196 109 431.943C109.031 431.67 109.062 431.397 109.108 431.125H109.1C109.723 431.164 110.346 431.204 110.969 431.238Z" fill="#AB750F"/>
<path id="Vector_88" d="M147 255.898C147.199 255.345 147.506 254.948 147.84 255.451C148.179 255.961 147.922 256.458 147.596 256.798C147.398 256.5 147.199 256.195 147 255.898Z" fill="#AB750F"/>
<path id="Vector_89" d="M128 393.262L126 393.141C126.75 392.294 127.435 392.167 128 393.262Z" fill="#AB750F"/>
<path id="Vector_90" d="M301.888 392.473C301.386 392.473 300.877 392.307 301.027 391.494C301.199 390.514 301.633 390.935 302 391.366C301.94 391.729 301.903 392.101 301.888 392.473Z" fill="#AB750F"/>
<path id="Vector_91" d="M168.024 32.7763C168.024 32.2559 168.008 31.7417 168 31.2212C168.33 31.1959 168.661 31.1895 168.991 31.2149C168.991 31.4942 168.991 31.7735 168.991 32.0591C169.015 32.3003 168.991 32.5415 168.895 32.7763H168.459H168.024Z" fill="#AB750F"/>
<path id="Vector_92" d="M164.012 39.0864C164.672 39.099 165.34 39.1054 166 39.118C166 39.3452 166 39.5723 165.984 39.7995C165.324 39.8247 164.672 39.85 164.012 39.8752C163.996 39.6102 163.996 39.3515 164.012 39.0864Z" fill="#AB750F"/>
<path id="Vector_93" d="M87.0081 40.6944C87.6694 40.6883 88.3306 40.6762 89 40.6641C89 40.925 89 41.192 89 41.4529C88.3387 41.4165 87.6774 41.3801 87.0161 41.3437C87.0161 41.1252 87.0081 40.9068 87 40.6883L87.0081 40.6944Z" fill="#AB750F"/>
<path id="Vector_94" d="M42.8731 384.585C42.9179 385.111 42.9552 385.637 43 386.163C42.6642 386.163 42.3358 386.156 42 386.15C42.0373 385.624 42.0821 385.104 42.1194 384.585C42.3731 384.598 42.6194 384.598 42.8731 384.585Z" fill="#AB750F"/>
<path id="Vector_95" d="M150.356 46.186C150.24 45.6592 150.117 45.139 150 44.6122C151.867 44.5379 150.557 45.5781 150.506 46.1793H150.356V46.186Z" fill="#AB750F"/>
<path id="Vector_96" d="M211.002 48.5596C211.325 48.6702 211.647 48.7808 211.97 48.8914L212 49.0019C211.669 49.1199 211.338 49.2305 211.006 49.3411C210.998 49.0757 210.998 48.8176 211.006 48.5522L211.002 48.5596Z" fill="#AB750F"/>
<path id="Vector_97" d="M209.643 58.8066C209.07 58.2019 208.394 57.584 210 57.229C209.878 57.7549 209.756 58.2808 209.643 58.8066Z" fill="#AB750F"/>
<path id="Vector_98" d="M49.0213 63.5395C48.9607 62.869 48.9607 62.2249 50 61.9619C50 62.6061 49.9394 63.2306 49.0213 63.5395Z" fill="#AB750F"/>
<path id="Vector_99" d="M119.012 69.1734C119.341 69.1381 119.671 69.0968 120 69.0615V69.8503C119.667 69.8091 119.333 69.7679 119 69.7267C119.012 69.5442 119.016 69.3617 119.012 69.1734Z" fill="#AB750F"/>
<path id="Vector_100" d="M160 73.0179C160.672 73.0179 161.336 73.0054 162 73.0054V73.7942C161.336 73.7754 160.664 73.7629 160 73.7504C160 73.5062 160 73.262 160 73.0242V73.0179Z" fill="#AB750F"/>
<path id="Vector_101" d="M243.886 81.6824C242.804 81.3941 242.568 81.1248 244 80.8936C243.959 81.1565 243.927 81.4194 243.886 81.6824Z" fill="#AB750F"/>
<path id="Vector_102" d="M105.023 84.8374C105.719 84.8793 106.106 85.2213 105.975 85.8425C105.889 86.2543 105.464 86.4218 105 86.4148C105 85.8913 105.015 85.3679 105.023 84.8374Z" fill="#AB750F"/>
<path id="Vector_103" d="M392.832 91.1482C392.126 91.0546 391.685 90.8268 392.275 90.4077C392.495 90.2531 392.851 90.5013 393 90.7007C392.903 90.8431 392.845 90.9936 392.832 91.1482Z" fill="#AB750F"/>
<path id="Vector_104" d="M183.016 92.0394L183.992 91.937C183.992 92.202 184 92.4609 184 92.7258C183.665 92.6716 183.335 92.6174 183 92.5572C183.016 92.3886 183.02 92.214 183.016 92.0394Z" fill="#AB750F"/>
<path id="Vector_105" d="M112.008 101.408C112.656 101.45 113.311 101.492 113.959 101.534C113.959 101.701 113.967 101.868 114 102.036L112 102.191C112 101.928 112 101.665 112 101.402L112.008 101.408Z" fill="#AB750F"/>
<path id="Vector_106" d="M105 103.031C105.332 103.012 105.664 102.999 105.996 102.98C106.004 103.241 106 103.502 105.992 103.769C105.664 103.743 105.332 103.718 105.004 103.692C105.004 103.47 105.004 103.254 105.004 103.031H105Z" fill="#AB750F"/>
<path id="Vector_107" d="M132 106.924C132 106.398 132 105.873 132.008 105.347C132.328 105.347 132.648 105.347 132.967 105.347C132.975 105.873 132.984 106.398 133 106.918H132.5H132V106.924Z" fill="#AB750F"/>
<path id="Vector_108" d="M259 106.166C259.331 106.16 259.661 106.148 260 106.135C259.992 106.658 259.984 107.181 259.976 107.704C259.654 107.728 259.339 107.704 259.032 107.624C259.024 107.138 259.008 106.652 259 106.16V106.166Z" fill="#AB750F"/>
<path id="Vector_109" d="M263.028 111.657C263.028 111.394 263.009 111.131 263 110.868C264.338 111.125 264.319 111.391 263.028 111.657Z" fill="#AB750F"/>
<path id="Vector_110" d="M100 113.235C100.325 113.296 100.65 113.362 100.979 113.422C100.967 113.549 100.971 113.676 101 113.803L100.004 114.024C100.004 113.759 100.004 113.5 100 113.235Z" fill="#AB750F"/>
<path id="Vector_111" d="M68 121.911C68.0095 121.647 68.0284 121.383 68.0379 121.123C69.3081 121.393 69.346 121.657 68 121.911Z" fill="#AB750F"/>
<path id="Vector_112" d="M340.157 121.135C341.249 121.184 341.023 121.557 340.872 121.911C340.408 121.876 340.182 121.709 340 121.509C340.069 121.383 340.125 121.255 340.169 121.123L340.151 121.132L340.157 121.135Z" fill="#AB750F"/>
<path id="Vector_113" d="M43.5675 375.119C43.7145 375.645 43.8529 376.171 44 376.697C42.3651 376.543 43.1782 375.757 43.3858 375.126H43.5675V375.119Z" fill="#AB750F"/>
<path id="Vector_114" d="M193 129.8C192.963 130.324 192.926 130.847 192.889 131.377C191.672 130.81 191.7 130.287 193 129.8Z" fill="#AB750F"/>
<path id="Vector_115" d="M382.051 130.824C382.827 130.708 383.806 130.127 384 131.377H383.992C383.325 131.268 382.667 131.159 382 131.043L382.051 130.824Z" fill="#AB750F"/>
<path id="Vector_116" d="M305 373.5C304.333 373.512 303.667 373.53 303 373.542V372.753C303.667 372.783 304.333 372.813 305 372.843C305 373.06 305 373.283 305 373.5Z" fill="#AB750F"/>
<path id="Vector_117" d="M1.00714 143.206C1.07143 142.949 1.14286 142.69 1.20714 142.433C1.41429 142.443 1.62143 142.439 1.82143 142.42C1.87857 142.68 1.94286 142.94 2 143.203L1 143.209L1.00714 143.206Z" fill="#AB750F"/>
<path id="Vector_118" d="M380.007 143.973C380.03 143.468 380.059 142.957 380.081 142.452C380.326 142.452 380.563 142.439 380.807 142.42C380.874 142.944 380.941 143.474 381 143.998C380.667 143.992 380.333 143.979 380 143.973H380.007Z" fill="#AB750F"/>
<path id="Vector_119" d="M106 145.576C106.669 145.576 107.339 145.582 108 145.588C108 145.834 108 146.081 107.992 146.327L106.008 146.364C106.008 146.099 106.008 145.841 106.008 145.576H106Z" fill="#AB750F"/>
<path id="Vector_120" d="M66 158.197V156.619C67.3333 157.147 67.3333 157.669 66 158.197Z" fill="#AB750F"/>
<path id="Vector_121" d="M73 159.618C72.7043 159.663 72.4086 159.704 72.1128 159.755C71.5837 159.841 71.2879 159.628 71 159.395C71.3658 159.258 71.7159 159.076 72.1051 159C72.3696 158.949 72.6965 159.045 72.9922 159.081C72.9533 159.263 72.9533 159.441 72.9922 159.623L73 159.618Z" fill="#AB750F"/>
<path id="Vector_122" d="M17 159.774C17.6667 159.791 18.3333 159.814 19 159.83C18.6748 160.077 18.3577 160.323 18.0325 160.563C17.4878 160.423 17.122 160.177 17 159.774Z" fill="#AB750F"/>
<path id="Vector_123" d="M169 170.035C169.336 170.035 169.668 170.035 170 170.035C170 170.294 170 170.546 170 170.798C169.668 170.805 169.332 170.811 169 170.818C169 170.553 169 170.287 169 170.029V170.035Z" fill="#AB750F"/>
<path id="Vector_124" d="M305 172.389C305.024 171.867 305.056 171.34 305.08 170.818C305.328 170.831 305.576 170.837 305.824 170.831C305.88 171.346 305.944 171.868 306 172.383C305.664 172.383 305.336 172.383 305 172.395V172.389Z" fill="#AB750F"/>
<path id="Vector_125" d="M264 368.02C263.967 368.546 263.942 369.072 263.909 369.598C262.753 369.034 262.611 368.502 264 368.02Z" fill="#AB750F"/>
<path id="Vector_126" d="M253.949 368.556C253.302 368.642 252.663 368.729 252.016 368.809C251.999 368.548 251.991 368.281 252.016 368.02C252.68 368.121 253.336 368.215 254 368.317L253.949 368.548V368.556Z" fill="#AB750F"/>
<path id="Vector_127" d="M60.4213 174.762C60.3077 174.525 60.194 174.281 60.0804 174.044C59.846 173.577 60.1656 173.184 60.5066 173.184C60.8404 173.184 61.16 173.57 60.9114 174.037C60.7836 174.274 60.6841 174.518 60.5705 174.755H60.4213V174.762Z" fill="#AB750F"/>
<path id="Vector_128" d="M83.0032 176.339C83.6715 176.346 84.3317 176.36 85 176.367C85 176.605 84.9919 176.849 84.9919 177.086C84.3317 177.1 83.6715 177.114 83.0195 177.128C82.9951 176.87 82.9951 176.605 83.0114 176.346L83.0032 176.339Z" fill="#AB750F"/>
<path id="Vector_129" d="M360.008 177.147C360.668 177.141 361.328 177.134 361.988 177.128C362.004 177.391 362.004 177.654 361.988 177.917C361.328 177.897 360.668 177.878 360 177.865C360 177.628 360 177.391 360 177.154L360.008 177.147Z" fill="#AB750F"/>
<path id="Vector_130" d="M197.983 181.861C196.958 181.771 196.927 181.439 197.051 181.072C198.16 181.145 197.999 181.522 197.983 181.861Z" fill="#AB750F"/>
<path id="Vector_131" d="M-0.99951 182.65C0.0549934 182.904 0.0464888 183.556 -0.0300477 184.228C-0.91447 183.908 -1.00801 183.302 -0.99951 182.65Z" fill="#AB750F"/>
<path id="Vector_132" d="M214.202 196.848C214.179 196.286 213.684 195.305 214.333 195.273C215.555 195.21 214.704 196.278 214.805 196.848H214.503H214.202Z" fill="#AB750F"/>
<path id="Vector_133" d="M109.066 200.003C109.042 199.475 109.025 198.947 109 198.426C110.429 198.915 110.213 199.45 109.066 200.003Z" fill="#AB750F"/>
<path id="Vector_134" d="M177.008 204.799C177.675 204.78 178.333 204.755 179 204.736C179 204.999 179 205.262 179 205.525C178.333 205.506 177.667 205.494 177 205.469C177 205.243 177 205.018 177.008 204.799Z" fill="#AB750F"/>
<path id="Vector_135" d="M6 213.414C6.33198 213.42 6.66802 213.426 7 213.438C7 213.672 7 213.9 6.99595 214.128C6.66397 214.153 6.33198 214.178 6 214.202C6 213.937 6 213.672 6 213.414Z" fill="#AB750F"/>
<path id="Vector_136" d="M86 214.985C86 214.461 86 213.937 86.0079 213.414C86.3175 213.414 86.6349 213.414 86.9444 213.414C86.9603 213.937 86.9841 214.461 87 214.991C86.6667 214.991 86.3333 214.991 86 214.991V214.985Z" fill="#AB750F"/>
<path id="Vector_137" d="M208.077 217.66C208.718 217.556 209.359 217.453 210 217.357C210 217.623 209.991 217.881 209.983 218.146C209.325 218.05 208.658 217.962 208 217.866L208.077 217.66Z" fill="#AB750F"/>
<path id="Vector_138" d="M6 221.301C4.57912 220.801 4.77696 220.269 5.93705 219.724C5.95504 220.25 5.98201 220.775 6 221.301Z" fill="#AB750F"/>
<path id="Vector_139" d="M267.004 221.32L268 221.301C268 221.564 268 221.827 268 222.09C267.665 222.084 267.335 222.078 267 222.071C267 221.821 267 221.57 267 221.32H267.004Z" fill="#AB750F"/>
<path id="Vector_140" d="M268 223.668C268.034 223.406 268.059 223.141 268.093 222.879C269.212 223.161 269.422 223.43 268 223.668Z" fill="#AB750F"/>
<path id="Vector_141" d="M2.14173 226.823C2.09449 226.299 2.04724 225.769 2 225.246L3 225.258C2.95276 225.776 2.89764 226.299 2.8504 226.817L2.49606 226.804L2.13386 226.817L2.14173 226.823Z" fill="#AB750F"/>
<path id="Vector_142" d="M270 228.401C268.523 227.962 268.869 227.415 269.835 226.823C269.893 227.351 269.942 227.873 270 228.401Z" fill="#AB750F"/>
<path id="Vector_143" d="M212.076 228.433C212.454 228.379 213.02 228.332 212.999 228.832C212.984 229.242 212.384 229.213 212 229.159C212.045 228.921 212.071 228.677 212.081 228.433H212.076Z" fill="#AB750F"/>
<path id="Vector_144" d="M261.004 229.979C261.335 229.985 261.669 229.991 262 229.997C262 230.221 262 230.446 261.992 230.67C261.661 230.701 261.331 230.737 261 230.767C261 230.506 261 230.239 261 229.979H261.004Z" fill="#AB750F"/>
<path id="Vector_145" d="M52.4079 233.113C52.2771 232.859 52.1462 232.605 52.0231 232.355L52 232.361L52.4695 232.345H52.9467C53.1392 232.649 52.7697 232.886 52.4849 233.134L52.4079 233.113Z" fill="#AB750F"/>
<path id="Vector_146" d="M57.9146 242.599C57.9431 242.861 57.9716 243.126 58 243.388C56.7103 243.139 56.6534 242.877 57.9146 242.599Z" fill="#AB750F"/>
<path id="Vector_147" d="M33.9819 243.464C34.006 243.704 34.006 243.937 33.9819 244.177C33.3212 244.159 32.6606 244.136 32 244.119C32.3303 243.873 32.6687 243.634 32.999 243.388C33.3212 243.417 33.6516 243.441 33.9738 243.47L33.9819 243.464Z" fill="#AB750F"/>
<path id="Vector_148" d="M48.0161 247.397L49.9697 247.332C50.0101 247.593 50.0101 247.86 49.9697 248.121C49.3158 248.082 48.662 248.043 48 248.004C48.0081 247.801 48.0081 247.599 48 247.397H48.0161Z" fill="#AB750F"/>
<path id="Vector_149" d="M202.075 248.91C202.048 248.388 202.021 247.873 202 247.352C202.301 247.345 202.595 247.339 202.895 247.332C203.1 248.094 203.087 248.749 202.082 248.91H202.075Z" fill="#AB750F"/>
<path id="Vector_150" d="M294.016 247.332C294.676 247.332 295.336 247.338 295.996 247.345C295.996 247.582 296.004 247.82 295.996 248.064C295.336 248.083 294.668 248.102 294 248.121C294 247.858 294 247.595 294.008 247.338L294.016 247.332Z" fill="#AB750F"/>
<path id="Vector_151" d="M115.004 248.233C115.337 248.196 115.671 248.158 116 248.121C116 248.382 116 248.649 116 248.91C115.667 248.866 115.333 248.817 115 248.773C115.012 248.593 115.012 248.413 115.004 248.227V248.233Z" fill="#AB750F"/>
<path id="Vector_152" d="M6.02008 249.699C6.3494 249.74 6.6747 249.775 7 249.816C6.99197 249.993 6.99197 250.17 7 250.346C6.6747 250.393 6.3494 250.44 6.0241 250.488L6.01606 250.476C6.01205 250.229 6.00402 249.975 6 249.728L6.01606 249.699H6.02008Z" fill="#AB750F"/>
<path id="Vector_153" d="M12 249.699C11.9849 250.225 11.9622 250.75 11.947 251.276C10.9558 251.045 10.9255 250.411 11.0542 249.712C11.372 249.712 11.6898 249.705 12 249.699Z" fill="#AB750F"/>
<path id="Vector_154" d="M342 250.487C342.669 250.513 343.331 250.539 344 250.565C343.992 250.778 343.992 250.992 344 251.205C343.362 251.231 342.724 251.25 342.087 251.276C342.063 251.017 342.039 250.752 342 250.487Z" fill="#AB750F"/>
<path id="Vector_155" d="M192 252.854C191.96 253.38 191.92 253.906 191.88 254.432C191.624 254.407 191.376 254.407 191.12 254.432C191.08 253.906 191.04 253.38 191 252.854C191.336 252.854 191.664 252.854 192 252.854Z" fill="#AB750F"/>
<path id="Vector_156" d="M72 256.009C72.0236 255.486 72.0394 254.955 72.0709 254.432C72.3386 254.432 72.6063 254.432 72.874 254.432C72.9134 254.955 72.9606 255.479 73 256.009C72.6693 256.009 72.3307 256.009 72 256.009Z" fill="#AB750F"/>
<path id="Vector_157" d="M262 256.009C262 255.481 262.009 254.96 262.017 254.432C262.333 254.432 262.641 254.432 262.957 254.432L263 255.997H262.504H262.009L262 256.009Z" fill="#AB750F"/>
<path id="Vector_158" d="M356 256.798C356.669 256.798 357.331 256.811 358 256.817C358 257.071 358 257.319 358 257.574C357.339 257.574 356.669 257.587 356.008 257.587C356 257.326 356 257.059 356.008 256.798H356Z" fill="#AB750F"/>
<path id="Vector_159" d="M98.0243 261.531C98.664 261.566 99.3036 261.601 99.9433 261.642C99.9433 261.817 99.9595 261.992 100 262.168C99.3279 262.22 98.664 262.273 98 262.32C98 262.057 98.0162 261.794 98.0243 261.531Z" fill="#AB750F"/>
<path id="Vector_160" d="M109 354.61C108.918 355.136 108.845 355.662 108.762 356.188C107.876 355.582 107.538 355.023 109 354.61Z" fill="#AB750F"/>
<path id="Vector_161" d="M161.213 278.07C161.142 277.553 161.071 277.042 161 276.524H161.008C161.339 276.524 161.669 276.525 161.992 276.518H162C161.921 277.048 161.835 277.572 161.756 278.096L161.488 278.063H161.213V278.07Z" fill="#AB750F"/>
<path id="Vector_162" d="M95 278.897C95.336 278.897 95.668 278.891 96 278.884C96 279.145 96 279.412 96 279.673C95.668 279.667 95.336 279.654 95.0041 279.647C95.0041 279.399 95 279.145 95.0041 278.891L95 278.897Z" fill="#AB750F"/>
<path id="Vector_163" d="M345.036 283.394C345.21 282.146 345.565 281.934 345.988 282.079C345.988 282.592 345.996 283.104 346 283.617C345.665 283.528 345.335 283.45 345 283.361L345.036 283.394Z" fill="#AB750F"/>
<path id="Vector_164" d="M147.968 353.032C147.312 352.996 146.664 352.96 146.008 352.924C146.032 352.749 146.032 352.581 146 352.406C146.656 352.352 147.32 352.298 147.976 352.244L148 352.268C148 352.521 147.984 352.78 147.976 353.032H147.968Z" fill="#AB750F"/>
<path id="Vector_165" d="M60.9533 285.195C59.7118 284.65 59.6371 284.124 61 283.617C60.9813 284.143 60.972 284.669 60.9533 285.195Z" fill="#AB750F"/>
<path id="Vector_166" d="M54 352.168C53.3333 352.196 52.6667 352.216 52 352.244C52.6098 351.16 53.2846 351.249 54 352.168Z" fill="#AB750F"/>
<path id="Vector_167" d="M79.1935 291.505C79.1316 290.984 79.0619 290.462 79 289.941L79.0232 289.928C79.3483 289.941 79.6657 289.947 79.9908 289.96C80.0372 290.593 79.9288 291.166 79.1935 291.499V291.505Z" fill="#AB750F"/>
<path id="Vector_168" d="M74.0117 290.717C74.3401 290.724 74.6686 290.731 74.997 290.738C75.001 290.975 75.001 291.219 74.997 291.457C74.6686 291.471 74.3361 291.485 74.0077 291.506C73.9955 291.24 73.9996 290.982 74.0077 290.717H74.0117Z" fill="#AB750F"/>
<path id="Vector_169" d="M245.004 290.717C245.335 290.751 245.67 290.78 246 290.814C245.811 291.42 245.433 291.534 245 291.5C245 291.237 245 290.974 245.004 290.717Z" fill="#AB750F"/>
<path id="Vector_170" d="M69 296.296C69.3866 296.221 70.0051 296.133 70 296.637C69.9948 297.154 69.3866 297.039 69 296.95C69 296.732 69 296.507 69 296.29V296.296Z" fill="#AB750F"/>
<path id="Vector_171" d="M110.205 301.76C110.137 301.234 110.068 300.708 110 300.182C111.385 300.611 111.214 301.156 110.205 301.76Z" fill="#AB750F"/>
<path id="Vector_172" d="M248 303.337C248.037 302.812 248.065 302.286 248.102 301.76C249.279 302.324 249.353 302.85 248 303.337Z" fill="#AB750F"/>
<path id="Vector_173" d="M194.035 309.948C194.861 309.707 195.809 309.225 195.957 310.437L196 310.411C195.33 310.323 194.67 310.227 194 310.139L194.035 309.955V309.948Z" fill="#AB750F"/>
<path id="Vector_174" d="M327 316.783C327.667 316.769 328.333 316.754 329 316.747C328.358 317.804 327.691 317.782 327 316.783Z" fill="#AB750F"/>
<path id="Vector_175" d="M191.01 319.357C191.374 319.292 191.738 319.238 192.093 319.161C192.812 319.013 193.09 319.226 192.975 319.63C192.889 319.933 192.515 319.963 192.074 319.82C191.748 319.713 191.364 319.672 191 319.6V319.363L191.01 319.357Z" fill="#AB750F"/>
<path id="Vector_176" d="M138.006 320.724C138.27 320.711 138.535 320.704 138.799 320.691C138.868 320.972 138.931 321.259 139 321.539C138.667 321.78 138.333 322.028 138 322.269C138 321.754 138 321.239 138.006 320.724Z" fill="#AB750F"/>
<path id="Vector_177" d="M312.927 336.473C313.031 337.079 313.117 338.045 312.496 338.045C311.884 338.045 311.97 337.079 312.073 336.473C312.358 336.465 312.643 336.465 312.927 336.473Z" fill="#AB750F"/>
<path id="Vector_178" d="M310.014 339.627C310.406 339.699 311.025 339.385 310.999 340.157C310.999 340.255 310.361 340.326 310.014 340.411C309.995 340.15 309.995 339.889 310.014 339.627Z" fill="#AB750F"/>
<path id="Vector_179" d="M236 343.567C236.05 343.304 236.107 343.041 236.157 342.778C237.166 343.073 237.447 343.345 236 343.567Z" fill="#AB750F"/>
<path id="Vector_180" d="M285.051 343.56C285.034 343.303 285.017 343.042 285 342.785C285.331 342.775 285.661 342.775 286 342.785C286 343.046 286 343.306 286 343.567H285.525H285.051V343.56Z" fill="#AB750F"/>
<path id="Vector_181" d="M166.315 347.511C166.205 346.985 166.102 346.459 166 345.933C167.619 346.056 166.818 346.869 166.682 347.497L166.324 347.511H166.315Z" fill="#AB750F"/>
<path id="Vector_182" d="M243 452.424C242.976 452.951 242.959 453.473 242.935 454C242.659 454 242.374 454 242.098 454C242.065 453.479 242.033 452.958 242 452.437C242.333 452.418 242.667 452.418 243 452.437V452.424Z" fill="#AB750F"/>
<path id="Vector_183" d="M152 450.851C151.953 451.371 151.913 451.89 151.866 452.403C151.63 452.403 151.394 452.403 151.157 452.422C151.102 451.896 151.055 451.371 151 450.845C151.331 450.845 151.661 450.845 152 450.845V450.851Z" fill="#AB750F"/>
<path id="Vector_184" d="M143.992 432.709C143.953 432.967 143.906 433.226 143.866 433.481C143.638 433.481 143.402 433.481 143.173 433.491L143 432.709L143.016 432.702C143.346 432.705 143.669 432.709 144 432.712L143.992 432.709Z" fill="#AB750F"/>
<path id="Vector_185" d="M129 425.683C128.293 426.576 127.618 426.707 127 425.603C127.667 425.625 128.333 425.654 129 425.683Z" fill="#AB750F"/>
<path id="Vector_186" d="M109 420.915C108.309 421.896 107.642 421.933 107 420.87C107.667 420.885 108.333 420.9 109 420.915Z" fill="#AB750F"/>
<path id="Vector_187" d="M192 420.081C193.349 420.147 192.986 420.955 192.86 421.659L192.889 421.639C192.6 421.639 192.319 421.613 192.044 421.547C192.03 421.06 192.015 420.567 192 420.081Z" fill="#AB750F"/>
<path id="Vector_188" d="M38.7836 416.15C38.8582 416.672 38.9254 417.193 39 417.715C38.6642 417.715 38.3358 417.708 38 417.702C38.0746 417.18 38.1418 416.659 38.209 416.137C38.3955 416.169 38.5821 416.176 38.7761 416.157L38.7836 416.15Z" fill="#AB750F"/>
<path id="Vector_189" d="M9 412.962C8.3344 412.962 7.6688 412.975 7.01131 412.982C6.99508 412.717 6.99508 412.452 7.01943 412.193C7.67692 412.2 8.3344 412.207 8.98376 412.214C9 412.465 9 412.71 9 412.962Z" fill="#AB750F"/>
<path id="Vector_190" d="M213.976 405.146C213.887 405.641 213.798 406.13 213.71 406.626L213.363 406.671C213.242 406.15 213.121 405.628 213 405.107L213.024 405.094C213.355 405.1 213.677 405.126 214 405.165L213.968 405.146H213.976Z" fill="#AB750F"/>
<path id="Vector_191" d="M48.75 404.364C48.8362 404.872 48.9138 405.381 49 405.883H48.5H48C48.0603 405.355 48.1293 404.833 48.1897 404.305C48.3621 404.37 48.5517 404.39 48.7414 404.364H48.75Z" fill="#AB750F"/>
<path id="Vector_192" d="M52.817 399.572C52.878 400.1 52.939 400.628 53 401.15C51.597 400.713 51.7974 400.166 52.817 399.572Z" fill="#AB750F"/>
<path id="Vector_193" d="M139.007 398.783C140.257 398.855 140.055 399.605 139.838 400.361C138.923 400.133 138.993 399.442 139.007 398.783Z" fill="#AB750F"/>
<path id="Vector_194" d="M237 25.6768C237.656 25.6829 237.992 25.9458 238 26.4656C237.414 26.4044 237.078 26.1415 237 25.6768Z" fill="#AB750F"/>
<path id="Vector_195" d="M259.998 35.9316C260.031 36.4756 259.707 36.7444 259 36.7188C259.05 36.2388 259.382 35.9764 259.998 35.9316Z" fill="#AB750F"/>
<path id="Vector_196" d="M101.036 38.3658C101.352 38.3003 101.676 38.2807 102 38.3134C101.983 38.8239 101.676 39.1053 101.003 39.0857C100.995 38.8435 101.003 38.6014 101.028 38.3658H101.036Z" fill="#AB750F"/>
<path id="Vector_197" d="M225 54.8671C225.721 54.8245 226.043 55.0982 225.996 55.6516C225.384 55.609 225.055 55.3415 225 54.8671Z" fill="#AB750F"/>
<path id="Vector_198" d="M105 55.6519C104.886 56.0944 104.553 56.3509 104 56.4407C104.122 56.011 104.463 55.7481 105 55.6519Z" fill="#AB750F"/>
<path id="Vector_199" d="M130 55.6553C130.539 55.6418 131.134 55.6418 130.973 56.1856C130.936 56.3131 130.35 56.3601 130.019 56.4407C130.009 56.1789 130 55.9171 130 55.6553Z" fill="#AB750F"/>
<path id="Vector_200" d="M199.024 64.3286C199.356 64.4116 199.933 64.4532 199.972 64.5777C200.138 65.1105 199.542 65.1105 199.015 65.1174C198.995 64.8545 198.995 64.5915 199.015 64.3286H199.024Z" fill="#AB750F"/>
<path id="Vector_201" d="M10.9907 78.5271C9.65735 78.2595 9.68227 77.9989 10.9907 77.7383C11.0031 77.9989 11.0031 78.2665 10.9907 78.5271Z" fill="#AB750F"/>
<path id="Vector_202" d="M4.98343 106.135C4.65193 106.006 4.33149 105.877 4 105.741C4.33149 105.612 4.65193 105.483 4.98343 105.347C5.00552 105.605 5.00552 105.87 4.98343 106.128V106.135Z" fill="#AB750F"/>
<path id="Vector_203" d="M260.992 106.135C260.659 106.135 260.326 106.135 260.001 106.135C259.978 105.561 260.311 105.312 260.97 105.35C260.97 105.612 260.985 105.867 261 106.129L260.992 106.135Z" fill="#AB750F"/>
<path id="Vector_204" d="M23.0763 114.05C23.3785 114.031 23.6887 114.019 23.9988 114.025C24.0227 114.572 23.6887 114.83 23.0048 114.811C22.9889 114.553 23.0127 114.302 23.0763 114.05Z" fill="#AB750F"/>
<path id="Vector_205" d="M28.9846 127.433C28.4528 127.426 27.8545 127.404 28.0318 126.903C28.0761 126.777 28.6522 126.726 28.9735 126.645C29.0067 126.903 29.0067 127.168 28.9846 127.426V127.433Z" fill="#AB750F"/>
<path id="Vector_206" d="M173 151.097C173 150.832 173 150.574 173 150.309C173.331 150.309 173.669 150.309 174 150.309C174 150.561 174 150.807 173.992 151.053C173.661 151.097 173.339 151.104 173.008 151.091L173 151.097Z" fill="#AB750F"/>
<path id="Vector_207" d="M154.008 159.774C153.967 159.233 154.293 158.962 155 158.987C155 159.251 154.967 159.503 154.87 159.749C154.577 159.768 154.293 159.774 154 159.768L154.008 159.774Z" fill="#AB750F"/>
<path id="Vector_208" d="M20.9991 165.296C20.666 165.166 20.333 165.036 20 164.905C20.333 164.775 20.6556 164.638 20.9783 164.507C20.9991 164.768 21.0095 165.036 20.9887 165.296H20.9991Z" fill="#AB750F"/>
<path id="Vector_209" d="M205.008 164.514C205.65 164.527 205.976 164.79 206 165.296C205.675 165.296 205.35 165.27 205.024 165.206C205.008 164.975 205 164.745 205 164.507L205.008 164.514Z" fill="#AB750F"/>
<path id="Vector_210" d="M252.99 166.902C252.881 167.157 252.822 167.614 252.663 167.64C252.01 167.772 252.03 167.289 252 166.893C252.337 166.867 252.663 166.867 253 166.893L252.99 166.902Z" fill="#AB750F"/>
<path id="Vector_211" d="M332 166.874C331.976 167.367 331.653 167.644 331 167.662C331.089 167.219 331.419 166.947 332 166.874Z" fill="#AB750F"/>
<path id="Vector_212" d="M70 169.24C70.3309 169.375 70.6618 169.503 71 169.638C70.7647 169.959 70.4338 170.088 70.0074 170.004C70.0074 169.747 70 169.497 70.0074 169.24H70Z" fill="#AB750F"/>
<path id="Vector_213" d="M258.016 173.176C258.016 172.671 258.298 172.372 259 172.397C258.992 172.634 258.976 172.87 258.96 173.107C258.645 173.188 258.331 173.207 258 173.157L258.016 173.176Z" fill="#AB750F"/>
<path id="Vector_214" d="M155.014 175.551C155.585 175.551 156.155 175.609 155.961 176.079C155.916 176.209 155.345 176.253 155.026 176.34C154.991 176.079 154.991 175.819 155.026 175.558L155.014 175.551Z" fill="#AB750F"/>
<path id="Vector_215" d="M199.032 179.495C199.357 179.582 199.93 179.633 199.973 179.765C200.135 180.276 199.53 180.276 199 180.283C199 180.021 199 179.758 199.032 179.502V179.495Z" fill="#AB750F"/>
<path id="Vector_216" d="M219.022 183.438C219.541 183.438 220.14 183.438 219.971 183.976C219.931 184.105 219.352 184.148 219.022 184.227C218.993 183.962 218.993 183.704 219.022 183.438Z" fill="#AB750F"/>
<path id="Vector_217" d="M21.0313 206.239C21 205.999 20.9922 205.766 21.0078 205.527C21.6891 205.502 22.0494 205.741 21.9945 206.314C21.6735 206.314 21.3524 206.295 21.0313 206.239Z" fill="#AB750F"/>
<path id="Vector_218" d="M96.0082 209.474C96.3381 209.46 96.6598 209.474 96.9814 209.535C97.0062 209.774 97.0062 210.019 96.9814 210.258C96.3959 210.224 96.066 209.965 96 209.481L96.0082 209.474Z" fill="#AB750F"/>
<path id="Vector_219" d="M146 215.79C145.981 216.189 146.009 216.676 145.318 216.548C145.159 216.516 145.103 216.061 145 215.798C145.336 215.774 145.664 215.774 146 215.798V215.79Z" fill="#AB750F"/>
<path id="Vector_220" d="M294 221.308C294.325 221.29 294.65 221.308 294.967 221.359C294.984 221.605 295 221.851 295 222.09C294.341 222.077 294.033 221.8 294 221.302V221.308Z" fill="#AB750F"/>
<path id="Vector_221" d="M321.035 249.699C321.369 249.786 321.943 249.83 321.975 249.961C322.131 250.493 321.536 250.493 321.004 250.486C320.994 250.224 321.004 249.961 321.025 249.699H321.035Z" fill="#AB750F"/>
<path id="Vector_222" d="M387 274.152C387.715 274.133 388.017 274.424 387.999 274.94C387.379 274.889 387.052 274.617 387 274.152Z" fill="#AB750F"/>
<path id="Vector_223" d="M68.0675 275.729C68.6365 275.736 69.1766 275.821 68.9451 276.31C68.8872 276.434 68.3279 276.453 68 276.518C68.0289 276.258 68.0482 275.99 68.0579 275.729H68.0675Z" fill="#AB750F"/>
<path id="Vector_224" d="M68 281.232C68.3478 280.144 68.6783 280.263 69 281.251C68.6696 281.251 68.3391 281.251 68 281.232Z" fill="#AB750F"/>
<path id="Vector_225" d="M188 281.251C188.648 281.293 188.952 281.568 189 282.04C188.424 281.95 188.112 281.675 188 281.251Z" fill="#AB750F"/>
<path id="Vector_226" d="M213.93 282.828C213.376 282.815 212.823 282.735 213.054 282.253C213.114 282.126 213.668 282.106 214 282.04C213.97 282.3 213.95 282.568 213.94 282.828H213.93Z" fill="#AB750F"/>
<path id="Vector_227" d="M48.0006 294.668C48.3273 294.649 48.6539 294.668 48.9724 294.72C48.9969 294.964 49.0051 295.209 48.9969 295.448C48.3109 295.474 47.9842 295.209 48.0006 294.662V294.668Z" fill="#AB750F"/>
<path id="Vector_228" d="M106 429.547C106.107 429.105 106.434 428.842 107 428.758C106.869 429.175 106.541 429.445 106 429.547Z" fill="#AB750F"/>
<path id="Vector_229" d="M44 428.758C44.6154 428.777 44.9769 429.017 45 429.547C44.4538 429.471 44.1 429.225 44 428.758Z" fill="#AB750F"/>
<path id="Vector_230" d="M238.979 397.206C238.649 397.069 238.33 396.938 238 396.801C238.33 396.671 238.67 396.54 239 396.417C239 396.678 239 396.945 238.979 397.206Z" fill="#AB750F"/>
<path id="Vector_231" d="M237.022 418.503C237.352 418.58 237.902 418.615 237.958 418.741C238.167 419.195 237.561 419.229 237.055 419.292C237 419.027 236.989 418.769 237.011 418.503H237.022Z" fill="#AB750F"/>
<path id="Vector_232" d="M239.969 417.715C239.638 417.63 239.069 417.581 239.027 417.454C238.862 416.94 239.483 416.947 240 416.926C240 417.186 240 417.454 239.979 417.715H239.969Z" fill="#AB750F"/>
<path id="Vector_233" d="M139 368.02C139.558 368.115 139.892 368.376 140 368.809C139.45 368.713 139.125 368.44 139 368.02Z" fill="#AB750F"/>
<path id="Vector_234" d="M45 413.771C45.6385 413.783 45.9846 414.029 46 414.559C45.4308 414.492 45.0846 414.239 45 413.771Z" fill="#AB750F"/>
<path id="Vector_235" d="M135 345.933C134.447 345.855 134.122 345.588 134.008 345.145H134C134.333 345.145 134.667 345.151 134.992 345.184C134.992 345.431 134.992 345.686 134.992 345.933H135Z" fill="#AB750F"/>
<path id="Vector_236" d="M110.975 360.862L110.492 360.921H110C110.041 360.425 110.361 360.151 111 360.132C111 360.373 111 360.621 110.975 360.862Z" fill="#AB750F"/>
<path id="Vector_237" d="M34.0388 411.404C34.3566 411.549 34.6822 411.695 35 411.84C34.6667 411.96 34.3333 412.073 34 412.193C34.0233 411.928 34.0388 411.669 34.0388 411.404Z" fill="#AB750F"/>
<path id="Vector_238" d="M306 341.976L305.51 341.989L305.028 341.932C305.003 341.691 304.995 341.443 305.003 341.202C305.698 341.176 306 341.462 306 341.976Z" fill="#AB750F"/>
<path id="Vector_239" d="M248 431.125C248.651 431.125 249 431.368 249 431.913C248.413 431.856 248.071 431.599 248 431.125Z" fill="#AB750F"/>
<path id="Vector_240" d="M14.9298 332.543C14.9869 332.799 15.0114 333.056 14.995 333.312C14.4078 333.248 14.0652 332.992 14 332.523C14.3099 332.523 14.6199 332.53 14.9298 332.543Z" fill="#AB750F"/>
<path id="Vector_241" d="M38.9803 407.394C38.659 407.453 38.3295 407.473 38 407.453C38.0412 406.954 38.3707 406.691 38.9968 406.671C39.005 406.914 38.9968 407.151 38.9803 407.394Z" fill="#AB750F"/>
<path id="Vector_242" d="M27 324.635C27.3335 324.707 27.8926 324.733 27.9514 324.857C28.1672 325.346 27.6277 325.43 27.049 325.424C27.049 325.163 27.0294 324.896 27.0098 324.635H27Z" fill="#AB750F"/>
<path id="Vector_243" d="M369 397.199C368.272 397.255 368.009 396.944 368 396.42C368.693 396.385 368.974 396.696 369 397.199Z" fill="#AB750F"/>
<path id="Vector_244" d="M315.991 340.425C316.037 340.699 315.917 340.962 315.312 341.136C315.091 341.198 314.614 341.222 314.376 341.177C313.595 341.028 314.238 340.872 314.458 340.73C314.623 340.616 314.862 340.516 315.073 340.412H315.541L316 340.429L315.991 340.425Z" fill="#AB750F"/>
<path id="Vector_245" d="M316 337.311C315.906 337.757 315.801 338.202 314.492 337.991C314.293 337.957 313.978 337.831 314.001 337.78C314.27 337.248 315.042 337.191 315.977 337.305L316 337.311Z" fill="#AB750F"/>
<path id="Vector_246" d="M312 341.934C312.241 341.692 312.472 341.442 312.713 341.2C313.457 341.973 312.583 341.903 312.03 341.989L312 341.934Z" fill="#AB750F"/>
<path id="Vector_247" d="M316 340.411L315.512 340.361H315.014C314.946 339.859 315.112 339.491 315.785 339.667C315.932 339.7 315.932 340.152 316 340.411Z" fill="#AB750F"/>
<path id="Vector_248" d="M18.927 310.437C19.0574 310.745 19.0574 311.214 18.5509 311.226C17.9754 311.238 17.9371 310.793 18.0522 310.481C18.3438 310.485 18.6354 310.473 18.927 310.441V310.437Z" fill="#AB750F"/>
<path id="Vector_249" d="M18.8917 310.373C18.5999 310.423 18.3158 310.442 18.0164 310.436C17.9166 309.826 18.2774 309.596 18.9838 309.658C19.0222 309.9 18.9915 310.137 18.8994 310.373H18.8917Z" fill="#AB750F"/>
<path id="Vector_250" d="M23.8419 136.731C23.2064 136.745 22.2748 137.22 22.0397 136.507C21.8133 135.806 22.5882 135.178 23.5198 135.35C24.4166 135.522 23.7723 136.262 23.8245 136.751L23.8419 136.731Z" fill="#AB750F"/>
<path id="Vector_251" d="M287.907 345.926C287.107 345.839 286.782 345.431 287.153 344.629C287.302 344.308 287.523 344.288 287.732 344.475C288.233 344.91 287.875 345.445 287.894 345.933H287.901L287.907 345.926Z" fill="#AB750F"/>
<path id="Vector_252" d="M142 116.374C141.67 116.246 141.33 116.127 141 115.999C141.186 115.864 141.361 115.737 141.546 115.601C141.691 115.864 141.835 116.127 141.969 116.39L142 116.366V116.374Z" fill="#AB750F"/>
<path id="Vector_253" d="M65.0219 118.372C65.1606 117.906 64.7663 117.257 66.066 117.182C66.5771 117.15 66.8473 117.381 66.8765 117.644C66.9203 118.039 67.3073 118.576 66.4384 118.745C66.066 118.821 65.4819 118.492 65 118.35L65.0219 118.372Z" fill="#AB750F"/>
<path id="Vector_254" d="M50.0502 278.096C50.3395 278.121 50.6248 278.146 50.9142 278.177C50.9468 278.749 51.2117 279.577 50.6085 279.664C49.8383 279.776 49.9972 278.83 50.0502 278.096Z" fill="#AB750F"/>
<path id="Vector_255" d="M282.022 232.408C282.455 232.273 282.816 232.336 282.997 232.784C283.025 232.862 282.867 233.111 282.78 233.125C282.289 233.189 282.079 232.891 282 232.457L282.022 232.408Z" fill="#AB750F"/>
<path id="Vector_256" d="M224.211 218.146C224.398 218.165 224.586 218.165 224.773 218.152C224.831 219.105 225.269 220.064 224.747 221.301C223.553 220.212 224.128 219.142 224.211 218.146Z" fill="#AB750F"/>
<path id="Vector_257" d="M359 286.673C359.03 286.438 359.074 286.203 359.119 285.968C359.61 285.869 359.908 285.603 360.019 285.195C361.456 285.547 361.098 286.129 360.317 286.772C359.878 286.742 359.439 286.711 359 286.68V286.673Z" fill="#AB750F"/>
<path id="Vector_258" d="M362 283.617C362.54 283.713 362.863 283.986 363 284.406C362.468 284.304 362.145 284.031 362 283.617Z" fill="#AB750F"/>
<path id="Vector_259" d="M16.032 124.278C16.6687 124.278 17.0666 124.651 16.9908 125.775C15.9828 125.976 15.9411 125.911 16.032 124.278Z" fill="#AB750F"/>
<path id="Vector_260" d="M15.9915 128.041C15.6333 128.048 15.1599 128.67 15.0107 127.566C14.9424 127.053 15.2154 126.739 15.4371 126.673C16.1023 126.468 15.936 127.419 16 128.034L15.9915 128.048V128.041Z" fill="#AB750F"/>
<path id="Vector_261" d="M29 185.288C28.8054 185.467 28.6231 185.639 28.4407 185.805C28.2826 185.719 27.9664 185.606 28.0029 185.54C28.088 185.354 28.3069 185.188 28.4771 185.016C28.6474 185.102 28.8054 185.188 29 185.281V185.288Z" fill="#AB750F"/>
<path id="Vector_262" d="M16 134.954C15.8919 135.071 15.7477 135.347 15.6532 135.32C15.4234 135.253 15.2162 135.054 15 134.91C15.2207 134.777 15.4324 134.589 15.6622 134.534C15.7477 134.512 15.8829 134.805 15.9955 134.949L16 134.954Z" fill="#AB750F"/>
<path id="Vector_263" d="M40.954 97.5455C40.9386 97.7673 40.954 97.9829 41 98.1923C40.7277 98.488 40.6089 99.3195 40.1564 98.9376C40.0337 98.8329 39.9608 98.2539 40.0222 97.9828C40.1909 97.2375 40.605 97.4901 40.954 97.5393V97.5455Z" fill="#AB750F"/>
<path id="Vector_264" d="M125.944 233.93C125.957 234.503 126.203 235.156 125.549 235.494C125.454 235.546 125.072 235.237 125.031 235.039C124.868 234.246 125.365 234.033 125.964 233.944L125.944 233.922V233.93Z" fill="#AB750F"/>
<path id="Vector_265" d="M126.965 237.065L126.483 237.077L126 237.065C126.098 236.622 126.425 236.372 126.982 236.289C127.006 236.545 127.006 236.802 126.982 237.058L126.965 237.065Z" fill="#AB750F"/>
<path id="Vector_266" d="M97.0452 239.444C96.9925 239.179 96.9819 238.92 97.0347 238.655C97.5831 238.662 98.1525 238.722 97.9627 239.179C97.91 239.305 97.3616 239.358 97.0452 239.444Z" fill="#AB750F"/>
<path id="Vector_267" d="M103.023 130.583C102.94 130.201 103.072 129.898 103.627 129.801C103.727 129.783 104.008 129.947 104 130.007C103.942 130.413 103.536 130.552 103.039 130.589H103.014L103.023 130.583Z" fill="#AB750F"/>
<path id="Vector_268" d="M17.0751 137.699C16.9685 137.43 16.9767 137.168 17.0914 136.899C18.3374 137.044 17.9931 137.786 17.8292 138.455L17.4521 138.477L17.0751 138.455C17.0505 138.2 17.0505 137.946 17.0751 137.691V137.699Z" fill="#AB750F"/>
<path id="Vector_269" d="M110 358.574C109.966 358.984 109.79 359.313 109.27 359.343C109.178 359.343 108.977 359.119 109.002 359.044C109.145 358.603 109.53 358.506 110 358.574Z" fill="#AB750F"/>
<path id="Vector_270" d="M174.068 363.287C174.048 363.023 174.021 362.762 174 362.498C174.5 362.498 175.013 362.498 175 362.837C174.986 363.117 174.616 363.251 174.075 363.287H174.068Z" fill="#AB750F"/>
<path id="Vector_271" d="M16.0311 197.675C16.6512 197.78 17.1518 198.021 16.9575 198.78C16.9052 198.968 16.5018 199.261 16.4196 199.209C15.7846 198.833 16.061 198.194 16.0536 197.637L16.0311 197.667V197.675Z" fill="#AB750F"/>
<path id="Vector_272" d="M172.008 200.668C172.32 200.184 172.632 199.699 172.936 199.215C173.624 199.371 174.136 199.705 173.968 200.236C173.696 201.118 172.736 200.692 172 200.674L172.008 200.668Z" fill="#AB750F"/>
<path id="Vector_273" d="M133.653 420.081C133.438 419.945 133.223 419.809 133 419.663C133.107 419.537 133.24 419.274 133.331 419.294C133.562 419.352 133.777 419.527 134 419.653C133.893 419.78 133.785 419.916 133.653 420.072V420.081Z" fill="#AB750F"/>
<path id="Vector_274" d="M141.987 334.511C141.893 334.634 141.8 334.767 141.72 334.89C141.48 334.757 141.24 334.613 141 334.47C141.173 334.347 141.347 334.224 141.52 334.101C141.68 334.234 141.84 334.367 142 334.511H141.987Z" fill="#AB750F"/>
<path id="Vector_275" d="M38.5211 309.648C38.6896 309.825 38.9142 310.002 38.9985 310.185C39.0266 310.253 38.6615 310.348 38.4789 310.437C38.3104 310.26 38.0858 310.083 38.0015 309.9C37.9734 309.832 38.3385 309.736 38.5211 309.648Z" fill="#AB750F"/>
<path id="Vector_276" d="M27.9516 400.494C27.9677 400.933 27.9839 401.373 28 401.813C27.1367 401.861 25.8457 402.355 26.0151 400.982C26.1281 400.033 27.2173 400.439 27.9597 400.494H27.9516Z" fill="#AB750F"/>
<path id="Vector_277" d="M253.266 401.162C253.436 401.162 253.644 401.12 253.749 401.193C254.166 401.445 254.062 401.738 253.449 401.937C253.37 401.958 253.083 401.707 253.005 401.539C252.966 401.445 253.162 401.288 253.253 401.162H253.266Z" fill="#AB750F"/>
<path id="Vector_278" d="M382 317.174C381.823 317.306 381.633 317.546 381.468 317.536C381.304 317.525 381.152 317.262 381 317.109C381.177 316.977 381.367 316.736 381.532 316.747C381.696 316.747 381.848 317.021 382 317.174Z" fill="#AB750F"/>
<path id="Vector_279" d="M152 196.463C151.916 196.594 151.831 196.726 151.735 196.848C151.494 196.717 151.241 196.577 151 196.445C151.169 196.314 151.337 196.191 151.506 196.06C151.663 196.191 151.831 196.331 151.988 196.463H152Z" fill="#AB750F"/>
<path id="Vector_280" d="M37.8834 147.942C37.2865 147.923 36.6974 147.897 36.1005 147.878C36.0617 147.28 35.6586 146.457 36.7982 146.374C38.2478 146.265 38.054 147.158 37.8834 147.942Z" fill="#AB750F"/>
<path id="Vector_281" d="M188.13 341.989C188.729 342.009 189.319 342.028 189.918 342.048C189.926 342.633 190.352 343.466 189.18 343.557C187.581 343.674 188.04 342.705 188.13 341.989Z" fill="#AB750F"/>
<path id="Vector_282" d="M222 364.89C222.33 365.009 222.659 365.128 223 365.255C222.818 365.391 222.636 365.518 222.443 365.654C222.307 365.391 222.17 365.128 222.034 364.865L222 364.89Z" fill="#AB750F"/>
<path id="Vector_283" d="M96.9668 101.402C96.9779 101.667 96.9889 101.926 97 102.191C95.6946 101.951 95.6504 101.686 96.9668 101.402Z" fill="#AB750F"/>
<path id="Vector_284" d="M98 102.173L97.5203 102.191H97.0407C97.0325 101.924 97.0163 101.663 97 101.402C97.5854 101.471 97.9024 101.732 97.9919 102.173H98Z" fill="#AB750F"/>
<path id="Vector_285" d="M378.996 262.319C379.333 262.319 379.663 262.319 380 262.319C379.992 262.58 379.984 262.838 379.976 263.099L378 263.108C378.337 262.847 378.667 262.583 379.004 262.319H378.996Z" fill="#AB750F"/>
<path id="Vector_286" d="M280.952 335.679C280.635 335.946 280.317 336.2 280 336.468C280.048 336.302 280.032 336.06 280.175 335.971C280.397 335.831 280.714 335.793 281 335.704L280.968 335.679H280.952Z" fill="#AB750F"/>
<path id="Vector_287" d="M21.0562 264.686C20.9881 264.425 20.9784 264.158 21.0465 263.897C21.3676 264.027 21.6789 264.158 22 264.288C21.6886 264.418 21.3773 264.555 21.0659 264.686H21.0562Z" fill="#AB750F"/>
<path id="Vector_288" d="M196 338.834C196.656 338.846 196.944 339.134 197 339.621C196.304 339.646 196.024 339.34 196 338.834Z" fill="#AB750F"/>
<path id="Vector_289" d="M151 354.637C151.337 354.788 151.663 354.947 152 355.098C151.102 355.826 151.163 355.063 151.031 354.61L151 354.637Z" fill="#AB750F"/>
<path id="Vector_290" d="M322 229.978C322.076 229.514 322.39 229.236 323 229.189C322.932 229.66 322.602 229.925 322 229.978Z" fill="#AB750F"/>
<path id="Vector_291" d="M127 267.841C127.15 267.576 127.29 267.318 127.44 267.052C127.62 267.192 127.81 267.34 128 267.48C127.67 267.598 127.33 267.716 127 267.841Z" fill="#AB750F"/>
<path id="Vector_292" d="M53.9575 394.839C53.8192 395.1 53.6915 395.368 53.5638 395.628C53.3723 395.494 53.1915 395.36 53 395.234C53.3298 395.115 53.6702 394.989 54 394.871L53.9575 394.847V394.839Z" fill="#AB750F"/>
<path id="Vector_293" d="M134.24 173.98C134.432 174.048 134.624 174.055 134.824 173.994C134.8 174.608 135.592 175.551 134 175.551C134.08 175.025 134.16 174.499 134.248 173.973L134.24 173.98Z" fill="#AB750F"/>
<path id="Vector_294" d="M167.01 333.321C167.344 333.479 167.667 333.629 168 333.787C167.031 334.569 167.198 333.69 167.021 333.312L167 333.33L167.01 333.321Z" fill="#AB750F"/>
<path id="Vector_295" d="M16 142.613C15.72 142.663 15.5536 142.856 15.509 143.209C14.3404 142.441 15.5252 142.137 15.7038 141.632C16.0487 141.844 15.9107 142.284 16 142.613Z" fill="#AB750F"/>
<path id="Vector_296" d="M265 401.15C265 400.622 265.013 400.1 265.02 399.572C265.507 399.65 266 399.742 266 400.374C266 401.013 265.48 401.072 265.007 401.15H265Z" fill="#AB750F"/>
<path id="Vector_297" d="M60 244.966C59.8833 245.396 59.5583 245.67 59 245.755C59.1083 245.311 59.4333 245.044 60 244.966Z" fill="#AB750F"/>
<path id="Vector_298" d="M159 91.2368C158.63 91.4702 158.269 91.7036 157.899 91.937C157.134 91.9137 156.361 91.9078 156 91.301C156.286 91.0267 156.58 90.7583 156.865 90.484C157.798 90.4315 159.017 89.9705 159 91.2368Z" fill="#AB750F"/>
<path id="Vector_299" d="M366.969 328.58C367.01 328.845 367.01 329.103 366.969 329.368C366.641 329.287 366.086 329.239 366.035 329.11C365.85 328.62 366.435 328.593 366.969 328.58Z" fill="#AB750F"/>
<path id="Vector_300" d="M19 392.667C19.7545 392.497 20.5569 392.051 21 393.578C20.2216 393.9 19.3353 394.82 19 392.667Z" fill="#AB750F"/>
<path id="Vector_301" d="M1.83372 137.681C1.22515 137.634 0.616579 137.581 0 137.534C0.0240226 137.091 0.0480422 136.641 0.0720648 136.199C1.56947 135.93 2.37823 136.232 1.82571 137.688L1.83372 137.681Z" fill="#AB750F"/>
<path id="Vector_302" d="M322.974 337.256C323.009 337.517 323.009 337.778 322.974 338.045C322.653 337.911 322.321 337.784 322 337.657C322.321 337.524 322.642 337.39 322.974 337.263V337.256Z" fill="#AB750F"/>
<path id="Vector_303" d="M313 282.799L312.5 282.828L312 282.806C312.042 282.418 312.008 281.933 312.661 282.06C312.822 282.09 312.881 282.537 312.992 282.791L313 282.799Z" fill="#AB750F"/>
<path id="Vector_304" d="M183 44.6084C182.658 44.5969 182.325 44.545 182 44.4587C182.017 43.9808 182.042 43.5087 182.058 43.0308C183.233 43.3071 182.95 44.0038 183 44.6084Z" fill="#AB750F"/>
<path id="Vector_305" d="M170.008 31.1928C170.231 31.0384 170.332 30.8441 170.309 30.6154C170.602 30.6497 170.841 30.5811 171.019 30.4097C171.582 30.4954 172.029 30.6612 171.998 31.1699C171.335 31.1756 170.664 31.187 170 31.1985L170.008 31.1928Z" fill="#AB750F"/>
<path id="Vector_306" d="M169.014 30.4319C169.337 30.4319 169.652 30.4208 169.975 30.4097C170.096 31.6091 169.781 32.1311 169 31.9534C169 31.4425 169.007 30.9427 169.014 30.4319Z" fill="#AB750F"/>
<path id="Vector_307" d="M192 255.97L191.5 256.009C191.5 256.009 190.991 255.99 191 255.99C191.019 255.48 191.047 254.964 191.066 254.454C191.368 254.428 191.66 254.421 191.962 254.454C191.972 254.957 191.991 255.467 192 255.97Z" fill="#AB750F"/>
<path id="Vector_308" d="M90.9906 52.4966C91.0403 53.1489 90.9078 53.7253 90.2286 54.0742C90.1209 53.3992 89.4748 52.5042 90.9906 52.4966Z" fill="#AB750F"/>
<path id="Vector_309" d="M257.933 137.688C258.007 138.372 258.217 139.122 257.14 139.265C257.086 138.587 256.571 137.694 257.933 137.688Z" fill="#AB750F"/>
<path id="Vector_310" d="M17 137.696C16.9754 137.918 16.9754 138.139 17 138.361C16.1967 138.691 16.0984 138.253 16 137.804C16.3197 137.702 16.6557 137.67 17 137.696Z" fill="#AB750F"/>
<path id="Vector_311" d="M25.9875 156.707C26.0894 157.379 25.5402 157.706 25.308 158.197C24.8097 158.1 24.1982 158.269 24 157.519C24.5662 156.974 25.1155 156.386 25.9875 156.713V156.707Z" fill="#AB750F"/>
<path id="Vector_312" d="M124 442.957C123.984 443.282 123.935 443.598 123.003 443.745C122.987 443.413 123.003 443.091 124 442.957Z" fill="#AB750F"/>
<path id="Vector_313" d="M153.936 308.032L153.472 308.071L153 308.058C153 307.545 153.306 307.263 153.994 307.283C154.01 307.532 153.994 307.782 153.936 308.032Z" fill="#AB750F"/>
<path id="Vector_314" d="M189 331.984C188.972 332.411 188.943 332.837 188.915 333.264C188.292 333.282 187.674 333.294 187.057 333.312C187.04 332.862 187.023 332.411 187 331.96C187.669 331.653 188.337 331.659 189 331.984Z" fill="#AB750F"/>
<path id="Vector_315" d="M212 393.278C212.332 393.271 212.668 393.268 213 393.262C212.988 393.526 212.976 393.787 212.964 394.051C212.656 394.044 212.348 394.034 212.04 394.028C212.028 393.777 212.012 393.529 212 393.278Z" fill="#AB750F"/>
<path id="Vector_316" d="M59 237.905C59.3363 237.853 59.6637 237.853 60 237.905C59.9027 238.418 59.8142 238.931 59.7168 239.444H59.2478C59.1681 238.938 59.0885 238.426 59 237.913V237.905Z" fill="#AB750F"/>
<path id="Vector_317" d="M194 178.706H193.5H193C193 178.441 193 178.182 193 177.917C193.331 177.917 193.669 177.917 194 177.917C194 178.182 194 178.441 194 178.706Z" fill="#AB750F"/>
</g>
<g id="Group 464">
<g id="Group 412">
<path id="Vector 391" d="M161 454L150.902 444C150.902 444 146.976 446.222 132.39 446.222C117.805 446.222 115 444 115 444L125.098 454H161Z" fill="#CB9A40"/>
<path id="Vector 475" d="M157.634 452.889L150.902 444L161 454H125.097L123.975 452.889H157.634Z" fill="#AB750F"/>
<path id="Vector 477" d="M148.659 446.778C149.754 446.452 150.903 446.222 150.903 446.222C150.903 446.222 151.026 446.913 151.464 447.889C151.902 448.865 153.147 450.667 153.147 450.667C153.147 450.667 150.753 450.206 149.22 449.555C147.686 448.905 145.293 447.333 145.293 447.333C145.293 447.333 147.563 447.103 148.659 446.778Z" fill="#D8A956"/>
</g>
<g id="Group 463">
<g id="Union_3" filter="url(#filter0_f_3544_5341)">
<path fill-rule="evenodd" clip-rule="evenodd" d="M97.714 439.105C89.3184 440.655 62.9709 444.795 41.9314 440.229C24.329 436.408 13.627 424.903 8.72114 418.211C1.54061 404.032 0 389 0 389V454H127.999L107.034 435.271C107.034 435.271 103.883 437.1 97.714 439.105Z" fill="#212121"/>
</g>
<path id="Vector 472" d="M42.483 445.186C71.1726 449.593 100.414 438.576 100.414 438.576C100.414 438.576 67.3108 445.737 41.9314 440.229C16.5521 434.72 5.51758 413.237 5.51758 413.237C5.51758 413.237 13.7934 440.779 42.483 445.186Z" fill="#AB750F"/>
<path id="Vector 391_2" d="M38.6208 442.432C4.9659 437.454 0 389 0 389V454H127.999L107.034 435.271C107.034 435.271 83.3104 449.042 38.6208 442.432Z" fill="#CB9A40"/>
<path id="Vector 471" d="M124.69 452.898L107.035 435.271L128 454H0.000488281V389L1.10393 452.898H124.69Z" fill="#AB750F"/>
<path id="Vector 465" d="M105.379 447.39C110.035 448.628 116.965 448.492 116.965 448.492C116.965 448.492 112.836 445.47 110.896 443.534C108.957 441.598 107.034 438.577 107.034 438.577C107.034 438.577 104.827 440.229 101.517 441.33C98.2067 442.432 93.793 442.432 93.793 442.432C93.793 442.432 100.968 446.216 105.379 447.39Z" fill="#D8A956"/>
<path id="Vector 466" d="M47.4487 446.839L48.5521 448.492C48.5521 448.492 35.3108 446.288 26.4832 442.983C17.6557 439.678 12.6902 431.966 12.6902 431.966C12.6902 431.966 17.104 438.576 25.9315 441.881C34.7591 445.187 47.4487 446.839 47.4487 446.839Z" fill="#D8A956"/>
</g>
</g>
<g id="Group 466">
<g id="Group 412_2">
<path id="Vector 391_3" d="M233 454L243.098 444C243.098 444 247.024 446.222 261.61 446.222C276.195 446.222 279 444 279 444L268.902 454H233Z" fill="#CB9A40"/>
<path id="Vector 475_2" d="M236.366 452.889L243.098 444L233 454H268.903L270.025 452.889H236.366Z" fill="#AB750F"/>
<path id="Vector 477_2" d="M245.341 446.778C244.246 446.452 243.097 446.222 243.097 446.222C243.097 446.222 242.974 446.913 242.536 447.889C242.098 448.865 240.853 450.667 240.853 450.667C240.853 450.667 243.247 450.206 244.78 449.555C246.314 448.905 248.707 447.333 248.707 447.333C248.707 447.333 246.437 447.103 245.341 446.778Z" fill="#D8A956"/>
</g>
<g id="Group 463_2">
<g id="Union_4" filter="url(#filter1_f_3544_5341)">
<path fill-rule="evenodd" clip-rule="evenodd" d="M296.286 439.105C304.682 440.655 331.029 444.795 352.069 440.229C369.671 436.408 380.373 424.903 385.279 418.211C392.459 404.032 394 389 394 389V454H266.001L286.966 435.271C286.966 435.271 290.117 437.1 296.286 439.105Z" fill="#212121"/>
</g>
<path id="Vector 472_2" d="M351.517 445.186C322.827 449.593 293.586 438.576 293.586 438.576C293.586 438.576 326.689 445.737 352.069 440.229C377.448 434.72 388.482 413.237 388.482 413.237C388.482 413.237 380.207 440.779 351.517 445.186Z" fill="#AB750F"/>
<path id="Vector 391_4" d="M355.379 442.432C389.034 437.454 394 389 394 389V454H266.001L286.966 435.271C286.966 435.271 310.69 449.042 355.379 442.432Z" fill="#CB9A40"/>
<path id="Vector 471_2" d="M269.31 452.898L286.965 435.271L266 454H394V389L392.896 452.898H269.31Z" fill="#AB750F"/>
<path id="Vector 465_2" d="M288.621 447.39C283.965 448.628 277.035 448.492 277.035 448.492C277.035 448.492 281.164 445.47 283.104 443.534C285.043 441.598 286.966 438.577 286.966 438.577C286.966 438.577 289.173 440.229 292.483 441.33C295.793 442.432 300.207 442.432 300.207 442.432C300.207 442.432 293.032 446.216 288.621 447.39Z" fill="#D8A956"/>
<path id="Vector 466_2" d="M346.551 446.839L345.448 448.492C345.448 448.492 358.689 446.288 367.517 442.983C376.344 439.678 381.31 431.966 381.31 431.966C381.31 431.966 376.896 438.576 368.068 441.881C359.241 445.187 346.551 446.839 346.551 446.839Z" fill="#D8A956"/>
</g>
</g>
<g id="Group 214">
<path id="Vector 304" d="M206 16.9999L197 0L188 16.9999L197 31L206 16.9999Z" fill="#AB750F"/>
<path id="Vector 301" d="M188 16.9999L197 0V31L188 16.9999Z" fill="#D8A956"/>
<path id="Vector 305" d="M197 0L188 17L197 3L206 17L197 0Z" fill="white" fill-opacity="0.5"/>
</g>
<g id="Group 420">
<path id="Vector 305_2" d="M10 9L0 20V4H134L143 17L134 9H10Z" fill="#CB9A40"/>
<path id="Vector 305 (Stroke)" fill-rule="evenodd" clip-rule="evenodd" d="M9.15527e-05 19.9999L0 4H134L143 17L133.24 11H10.8848L9.15527e-05 19.9999ZM10.0001 9H134L143 17L134 4H0L9.15527e-05 19.9999L10.0001 9Z" fill="#AB750F"/>
</g>
<g id="Group 421">
<path id="Vector 305_3" d="M384 9L394 20V4H260L251 17L260 9H384Z" fill="#CB9A40"/>
<path id="Vector 305 (Stroke)_2" fill-rule="evenodd" clip-rule="evenodd" d="M394 19.9999L394 4H260L251 17L260.76 11H383.115L394 19.9999ZM384 9H260L251 17L260 4H394L394 19.9999L384 9Z" fill="#AB750F"/>
</g>
</g>
<defs>
<filter id="filter0_f_3544_5341" x="-2.18333" y="386.817" width="132.366" height="69.3662" filterUnits="userSpaceOnUse" color-interpolation-filters="sRGB">
<feFlood flood-opacity="0" result="BackgroundImageFix"/>
<feBlend mode="normal" in="SourceGraphic" in2="BackgroundImageFix" result="shape"/>
<feGaussianBlur stdDeviation="1.09167" result="effect1_foregroundBlur_3544_5341"/>
</filter>
<filter id="filter1_f_3544_5341" x="263.817" y="386.817" width="132.366" height="69.3662" filterUnits="userSpaceOnUse" color-interpolation-filters="sRGB">
<feFlood flood-opacity="0" result="BackgroundImageFix"/>
<feBlend mode="normal" in="SourceGraphic" in2="BackgroundImageFix" result="shape"/>
<feGaussianBlur stdDeviation="1.09167" result="effect1_foregroundBlur_3544_5341"/>
</filter>
<linearGradient id="paint0_linear_3544_5341" x1="255.096" y1="12.0909" x2="236.143" y2="12.7749" gradientUnits="userSpaceOnUse">
<stop stop-color="#AB750F"/>
<stop offset="1" stop-color="#CB9A40"/>
</linearGradient>
<linearGradient id="paint1_linear_3544_5341" x1="138.904" y1="12.0909" x2="157.857" y2="12.7749" gradientUnits="userSpaceOnUse">
<stop stop-color="#AB750F"/>
<stop offset="1" stop-color="#CB9A40"/>
</linearGradient>
<linearGradient id="paint2_linear_3544_5341" x1="196" y1="18.1106" x2="142" y2="18.1106" gradientUnits="userSpaceOnUse">
<stop stop-color="#AB750F"/>
<stop offset="1" stop-color="#AB750F" stop-opacity="0"/>
</linearGradient>
<linearGradient id="paint3_linear_3544_5341" x1="198" y1="18.1106" x2="251" y2="18.1106" gradientUnits="userSpaceOnUse">
<stop stop-color="#AB750F"/>
<stop offset="1" stop-color="#AB750F" stop-opacity="0"/>
</linearGradient>
<linearGradient id="paint4_linear_3544_5341" x1="303.871" y1="287.254" x2="303.871" y2="488.915" gradientUnits="userSpaceOnUse">
<stop stop-color="#D8A956" stop-opacity="0"/>
<stop offset="1" stop-color="#D8A956"/>
</linearGradient>
<linearGradient id="paint5_linear_3544_5341" x1="313.54" y1="70.1419" x2="313.54" y2="477.798" gradientUnits="userSpaceOnUse">
<stop stop-color="#D8A956" stop-opacity="0"/>
<stop offset="1" stop-color="#D8A956"/>
</linearGradient>
<clipPath id="clip0_3544_5341">
<rect width="394" height="454" fill="white"/>
</clipPath>
</defs>
</svg>
