<svg width="394" height="757" viewBox="0 0 394 757" fill="none" xmlns="http://www.w3.org/2000/svg">
<g id="gold">
<g id="background-roam">
<path id="Rectangle 291" d="M259 8H238L230 18H253L259 8Z" fill="url(#paint0_linear_3464_25385)"/>
<path id="Rectangle 290" d="M135 8H156L164 18H141L135 8Z" fill="url(#paint1_linear_3464_25385)"/>
<path id="Rectangle 289" d="M0 4H134L143 17H251L260 4H394V745H0V4Z" fill="#F5F1EE"/>
<path id="Vector 133 (Stroke)" fill-rule="evenodd" clip-rule="evenodd" d="M142 19L196 19L196 16L142 16L142 19Z" fill="url(#paint2_linear_3464_25385)"/>
<path id="Vector 132 (Stroke)" fill-rule="evenodd" clip-rule="evenodd" d="M251 19L198 19L198 16L251 16L251 19Z" fill="url(#paint3_linear_3464_25385)"/>
<g id="Group 214">
<path id="Vector 304" d="M206 16.9999L197 0L188 16.9999L197 31L206 16.9999Z" fill="#AB750F"/>
<path id="Vector 301" d="M188 16.9999L197 0V31L188 16.9999Z" fill="#D8A956"/>
<path id="Vector 305" d="M197 0L188 17L197 3L206 17L197 0Z" fill="white" fill-opacity="0.5"/>
</g>
<g id="Mask group">
<mask id="mask0_3464_25385" style="mask-type:alpha" maskUnits="userSpaceOnUse" x="0" y="4" width="394" height="741">
<path id="Rectangle 292" d="M0 4H134L143 17H251L260 4H394V745H0V4Z" fill="#F5F1EE"/>
</mask>
<g mask="url(#mask0_3464_25385)">
<path id="Union" fill-rule="evenodd" clip-rule="evenodd" d="M179.266 654.599L182.377 594.972L168.253 550.145L137.55 520.67L113.602 545.847L102.549 626.289L87.197 616.464L65.0907 560.584L50.3532 580.234V520.67L38.072 469.089L17.1938 445.141L9.91821e-05 520.67L-5.52647 510.845L-19.0358 598.656L-30.703 607.253C-33.978 627.722 -41.1421 668.905 -43.5983 669.888C-46.0546 670.87 -51.9905 655.559 -54.6515 647.781C-60.5874 662.723 -72.9505 693.099 -74.9155 695.064L-96.4077 771.208C-92.3104 781.924 -50.4067 760.852 -29.995 750.587C-23.8947 747.52 -19.714 745.417 -19.0358 745.417C-16.0883 745.417 8.80166 741.323 20.8782 739.277L9.91821e-05 761.383H259.749L255.589 755.242H479.583L466.687 736.206L423.089 667.431L413.264 688.923L398.526 659.448L402.211 588.831L388.087 544.005L357.384 514.53L333.436 539.706L322.383 620.148L307.031 610.323L284.925 554.444L270.187 574.094V514.53L257.906 462.948L237.028 439L219.834 514.53L214.308 504.705L200.798 592.516L189.131 601.113C186.785 615.776 182.443 641.07 179.266 654.599Z" fill="url(#paint4_linear_3464_25385)" fill-opacity="0.3"/>
</g>
</g>
<g id="Mask group_2">
<mask id="mask1_3464_25385" style="mask-type:alpha" maskUnits="userSpaceOnUse" x="0" y="4" width="394" height="741">
<path id="Rectangle 292_2" d="M0 4H134L143 17H251L260 4H394V745H0V4Z" fill="#F5F1EE"/>
</mask>
<g mask="url(#mask1_3464_25385)">
<path id="Union_2" fill-rule="evenodd" clip-rule="evenodd" d="M-46.669 713.9C-37.8675 695.478 -19.2819 658.266 -15.3519 656.792C-11.4219 655.318 -1.02373 638.166 3.68408 629.773L15.3513 661.705C18.2169 658.43 24.071 652.862 24.5622 656.792C25.0535 660.722 32.9544 682.992 36.8435 693.636L68.1606 624.247L90.881 650.038L117.9 596L154.743 661.705L170.709 640.827C175.345 650.793 182.762 666.403 188.682 678.07C194.724 666.701 200.113 657.51 202.026 656.792C205.956 655.318 216.354 638.166 221.062 629.773L232.729 661.705C235.595 658.43 241.449 652.862 241.94 656.792C242.432 660.722 250.333 682.992 254.222 693.636L285.539 624.247L308.259 650.038L335.278 596L372.122 661.705L388.087 640.827C396.275 658.43 413.141 693.636 415.106 693.636C417.071 693.636 435.984 725.158 445.195 740.919L153.515 744.603L155.064 741.838L-63.8628 744.603L-46.669 713.9Z" fill="url(#paint5_linear_3464_25385)" fill-opacity="0.6"/>
</g>
</g>
<g id="Group" opacity="0.35">
<path id="Vector" d="M142.974 260.487C142.106 261.155 142.501 262.269 142.099 263.11C141.516 264.324 141.212 264.318 140.019 262.956L140 262.89C140.434 262.603 140.557 262.169 140.557 261.668C140.771 261.595 140.855 261.441 140.803 261.208C141.283 260.954 141.451 260.501 141.542 260L141.516 260.033C142.009 260.147 142.508 260.254 143 260.367L142.981 260.487H142.974Z" fill="#AB750F"/>
<path id="Vector_2" d="M136.605 342.004C136.724 342.317 136.842 342.629 136.961 342.942C136.97 343.544 136.98 344.139 137 344.742C136.911 345.084 136.822 345.433 136.734 345.776C135.895 346.029 135.056 346.103 134.207 345.813C134.138 344.838 134.069 343.864 134 342.897C134.168 342.607 134.197 342.309 134.109 341.997C134.405 341.826 134.493 341.603 134.385 341.335C134.77 341.223 135.155 341.112 135.539 341C135.895 341.335 136.25 341.677 136.605 342.012V342.004Z" fill="#AB750F"/>
<path id="Vector_3" d="M65.0677 354.729C64.8028 353.61 65.3794 352.866 65.691 352H65.7014C65.9196 352 66.1325 352.007 66.3507 352.022C66.3923 352.303 66.4234 352.599 66.439 352.895C66.4754 353.22 66.5065 353.552 66.5377 353.877C66.6935 354.159 66.8442 354.433 67 354.715C66.9896 354.982 66.9792 355.256 66.9792 355.523C66.7766 355.596 66.5741 355.675 66.3767 355.776C66.1481 355.848 65.9196 355.928 65.691 356C65.5871 355.841 65.5923 355.682 65.7066 355.538C65.6339 355.054 65.3794 354.859 65.0729 354.736L65.0677 354.729Z" fill="#AB750F"/>
<path id="Vector_4" d="M262.106 312.181C263.3 311.76 264.085 312.009 263.993 313.63C263.95 314.425 263.866 315.213 263.795 316L263.816 315.977C262.954 316.133 262.763 315.104 262.155 314.807C262.297 314.511 262.247 314.262 262 314.067C262.042 313.428 262.085 312.789 262.127 312.149L262.106 312.181Z" fill="#AB750F"/>
<path id="Vector_5" d="M202.756 430C201.641 429.324 201.867 428.631 202.736 427.939C203.187 427.843 203.426 427.485 203.563 427C204.117 427.032 204.877 426.976 204.979 427.692C205.15 428.83 204.234 428.846 203.577 429.037C203.119 429.141 202.886 429.507 202.756 429.992V430Z" fill="#AB750F"/>
<path id="Vector_6" d="M197.621 520.049V520C198.079 521.462 198.244 522.85 197.412 523.967L197.426 524C197.214 523.072 196.858 522.234 197.06 521.043L197.001 521.191C197.206 520.813 197.415 520.435 197.621 520.058V520.049Z" fill="#AB750F"/>
<path id="Vector_7" d="M56.9839 280.492C56.8441 280.724 56.6827 280.931 56.5698 281.186C56.2364 281.936 55.774 282.295 55.2847 281.705C54.7739 281.083 55.0373 280.348 55.3976 279.726C55.532 279.487 55.6557 279.239 55.7901 279L55.7686 279.016C56.3816 279.112 56.5698 280.013 57 280.46L56.9839 280.5V280.492Z" fill="#AB750F"/>
<path id="Vector_8" d="M128.938 290.955C128.6 290.968 128.262 290.987 127.923 291C127.8 290.357 127.862 289.643 127 289.286C127.038 288.766 127.062 288.097 127.746 288.013C128.831 287.883 128.754 288.779 129 289.35C128.977 289.883 128.954 290.416 128.931 290.955H128.938Z" fill="#AB750F"/>
<path id="Vector_9" d="M299.693 352C299.249 352 298.805 352 298.362 352C298.238 351.561 298.115 351.117 298 350.678C298.674 350.456 299.356 350.239 300.03 350.017L299.997 350C300.293 350.444 300.581 350.889 300.877 351.333L301 351.283C300.564 351.522 300.129 351.761 299.693 351.994V352Z" fill="#AB750F"/>
<path id="Vector_10" d="M14 307.183L13.9838 307.488C13.3832 308.154 12.7394 308.089 12.0793 307.752L12.1604 307.865C11.9386 306.91 11.9494 305.955 12.1767 305L12.0955 305.161C13.0423 305.177 13.5726 306.067 13.9946 307.183H14Z" fill="#AB750F"/>
<path id="Vector_11" d="M84.1621 464C84.0079 462.319 83.8137 460.639 84.3734 459H84.5562C84.7446 460.709 85.647 462.494 84.1621 464Z" fill="#AB750F"/>
<path id="Vector_12" d="M208.988 673.373C208.988 673.785 208.994 674.196 209 674.599C208.353 675.105 207.682 675.105 207 674.749L207.075 674.868C207.087 674.291 207.104 673.705 207.116 673.128L207.04 673.239C207.699 672.883 208.353 672.922 208.983 673.373H208.988Z" fill="#AB750F"/>
<path id="Vector_13" d="M148.745 642C148.342 641.67 147.899 641.392 147.553 641.009C147.068 640.471 146.666 639.741 147.414 639.193C148.088 638.698 148.638 639.236 149 639.897C148.91 640.592 148.827 641.296 148.745 641.991V642Z" fill="#AB750F"/>
<path id="Vector_14" d="M222.018 331.008C224.114 331.621 224.373 332.105 223.603 334C223.331 333.669 223.06 333.331 222.789 333H222.795C222.536 332.685 222.271 332.355 222.012 332.024L222 332.008C222 331.669 222 331.339 222.018 331V331.008Z" fill="#AB750F"/>
<path id="Vector_15" d="M360.993 482.13C360.837 483.084 360.689 484.046 360.534 485L360.583 484.965L359 483.96C359.014 483.474 359.035 482.988 359.049 482.503C359.311 482.399 359.544 482.234 359.749 482C360.166 482.043 360.583 482.087 361 482.13H360.993Z" fill="#AB750F"/>
<path id="Vector_16" d="M184.992 172.041C184.984 173.344 184.967 174.647 184.959 175.95C184.407 176.083 184.004 175.975 183.947 175.311C183.897 174.44 184.177 173.436 183.016 173.037C183.025 172.689 183.041 172.349 183.049 172L183 172.05C183.667 172.05 184.333 172.041 185 172.041H184.992Z" fill="#AB750F"/>
<path id="Vector_17" d="M324.804 551.007C325.978 551.199 325.601 552.187 325.771 552.894C325.845 553.219 325.926 553.543 326 553.867L325.72 554L325.506 553.772C325.314 553.86 325.114 553.875 324.908 553.801C323.867 553.609 324.022 552.784 324 552.054C324.421 551.818 324.782 551.545 324.797 551L324.804 551.007Z" fill="#AB750F"/>
<path id="Vector_18" d="M37 553.496V553.135C37.347 552.759 37.694 552.376 38.0411 552C40.0045 552.135 40.7168 552.681 39.1278 554C38.4155 553.83 37.7123 553.667 37 553.496Z" fill="#AB750F"/>
<path id="Vector_19" d="M346.777 464H346.484C346.322 463.592 346.161 463.183 346 462.775C346.19 462.654 346.271 462.508 346.249 462.325C346.835 462.22 347.414 462.11 348 462C347.985 462.45 347.971 462.895 347.956 463.346C347.56 463.56 347.172 463.78 346.777 463.995V464Z" fill="#AB750F"/>
<path id="Vector_20" d="M250 455.892C250 455.618 250 455.335 250 455.061C250.312 454.679 250.632 454.296 250.944 453.914H250.96C251.432 453.607 251.904 453.307 252.384 453.017L252.512 453C252.672 453.657 252.84 454.313 253 454.97L252.968 455.003C252.44 455.119 252.104 455.443 251.968 456C251.312 455.967 250.656 455.925 250 455.892Z" fill="#AB750F"/>
<path id="Vector_21" d="M138.983 526.398C138.632 526.84 138.142 527.176 137.389 526.899C136.846 526.705 136.96 526.309 137.197 525.973C137.415 525.661 137.669 525.354 137.914 525.041C138.273 525.029 138.641 525.012 139 525C139 525.466 139 525.932 138.991 526.398H138.983Z" fill="#AB750F"/>
<path id="Vector_22" d="M75 403.673C74.8063 403.791 74.5944 404.028 74.4309 403.997C74.0132 403.91 73.88 403.542 74.1161 403.186C74.213 403.043 74.5944 402.949 74.7336 403.03C74.891 403.124 74.9152 403.448 75 403.673Z" fill="#AB750F"/>
<path id="Vector_23" d="M129.026 429C128.345 428.939 127.914 428.566 128.014 427.87C128.115 427.204 128.625 426.861 129.256 427.053C129.547 427.144 129.897 427.517 129.967 427.82C130.128 428.526 129.677 428.889 129.026 429Z" fill="#AB750F"/>
<path id="Vector_24" d="M217.82 151.036C218.005 151.304 218.035 151.594 217.905 151.891C217.966 152.101 217.943 152.304 217.843 152.493C218.012 152.638 218.043 152.812 217.943 153C217.382 152.514 216.73 152.739 216.1 152.783C216.069 152.188 216.031 151.594 216 151C216.607 151.007 217.206 151.014 217.813 151.022L217.82 151.036Z" fill="#AB750F"/>
<path id="Vector_25" d="M209 451C208.496 450.91 207.905 450.852 208.013 449.787C208.084 449.115 208.577 449.041 208.984 449C208.989 449.664 208.995 450.328 209 451Z" fill="#AB750F"/>
<path id="Vector_26" d="M173.557 158C173.298 158 173.045 158 172.785 157.992C172.803 157.313 172.445 157.092 172 156.977C172 156.679 172.019 156.382 172.043 156.084C172.544 156.053 173.045 156.031 173.545 156C174.509 156.656 173.656 157.328 173.557 158Z" fill="#AB750F"/>
<path id="Vector_27" d="M170.575 165C170.721 165.161 171 165.323 171 165.484C171 165.921 170.651 166.106 170.252 165.939C170.099 165.873 169.96 165.514 170.011 165.341C170.055 165.191 170.378 165.114 170.581 165.006L170.575 165Z" fill="#AB750F"/>
<path id="Vector_28" d="M91 178.351C90.8093 178.582 90.594 179.058 90.4279 178.994C90.0157 178.814 89.8804 178.081 90.1142 177.36C90.2064 177.077 90.5878 176.897 90.7293 177.064C90.8831 177.257 90.9139 177.901 91 178.351Z" fill="#AB750F"/>
<path id="Vector_29" d="M190.035 193C190.025 192.333 190.015 191.667 190 191C190.476 191.088 191.097 191.032 190.987 192.197C190.923 192.896 190.427 192.96 190.035 193Z" fill="#AB750F"/>
<path id="Vector_30" d="M39 484.263C38.8208 484.521 38.6356 485.024 38.4743 484.999C38.0502 484.913 37.8829 484.226 38.086 483.466C38.1697 483.159 38.546 482.902 38.7013 483.037C38.8566 483.172 38.9044 483.834 39 484.263Z" fill="#AB750F"/>
<path id="Vector_31" d="M170 224.635C169.82 224.767 169.634 225.018 169.472 224.999C169.057 224.943 168.889 224.591 169.075 224.215C169.153 224.065 169.532 223.952 169.688 224.021C169.844 224.096 169.898 224.422 170 224.635Z" fill="#AB750F"/>
<path id="Vector_32" d="M71.0081 227.858C71.0567 227.083 71.1134 226.109 71.8502 226.015C73.0567 225.854 72.9514 227.055 73 228C72.336 227.953 71.6721 227.905 71 227.868L71.0081 227.858Z" fill="#AB750F"/>
<path id="Vector_33" d="M337.399 231C337.559 231.071 337.844 231.107 337.921 231.25C338.099 231.57 337.968 231.897 337.612 231.992C337.458 232.034 337.144 231.903 337.073 231.76C336.919 231.452 337.002 231.143 337.399 231Z" fill="#AB750F"/>
<path id="Vector_34" d="M73.1543 495C72.0121 494.609 71.9465 493.827 72.0214 493C73.8191 493.155 74.8115 493.605 73.1543 495Z" fill="#AB750F"/>
<path id="Vector_35" d="M271.004 498C271 497.193 271.02 496.18 271.365 496.033C271.924 495.787 271.964 496.967 272 497.97L271 498H271.004Z" fill="#AB750F"/>
<path id="Vector_36" d="M28.832 259L28.544 258.967L28.256 258.994C28.168 258.543 28.088 258.092 28 257.646L28.016 257.635C28.416 257.423 28.824 257.212 29.224 257C29.4 257.039 29.576 257.039 29.76 257C29.84 257.446 29.92 257.897 30 258.343C29.608 258.56 29.216 258.783 28.824 259H28.832Z" fill="#AB750F"/>
<path id="Vector_37" d="M391.986 266.896C392.03 267.752 391.994 268.536 391.56 269C391.378 268.616 391.195 268.24 391.012 267.856C391.008 267.28 391.004 266.712 391 266.136C391.159 266.048 391.322 266 391.485 266L391.501 266.024C391.664 266.312 391.823 266.6 391.986 266.888V266.896Z" fill="#AB750F"/>
<path id="Vector_38" d="M60.9919 276.956C60.1042 277.59 59.2165 278.241 58.0061 277.912C57.998 277.614 57.998 277.316 58.0061 277.019C58.345 276.682 58.6839 276.337 59.0309 276L59.0067 276.024C59.6604 276.055 60.3141 276.078 60.9758 276.11C60.9597 276.392 60.9758 276.682 61 276.964L60.9919 276.956Z" fill="#AB750F"/>
<path id="Vector_39" d="M28 518C28.01 517.333 28.03 516.667 28.04 516C28.8309 516.04 29.8421 516.096 29.9723 516.787C30.2025 517.936 28.9511 517.896 28 518Z" fill="#AB750F"/>
<path id="Vector_40" d="M32.0041 284.857C32.0327 284.102 32.0367 283.109 32.4082 283.013C32.9878 282.86 32.9673 284.054 33 285C32.6653 284.952 32.3347 284.904 32 284.866L32.0041 284.857Z" fill="#AB750F"/>
<path id="Vector_41" d="M223 525.008C223.664 525.008 224.328 525.008 225 525.016C224.977 525.68 224.962 526.344 224.94 527L223.355 526.944C223.234 526.296 223.121 525.648 223 525V525.008Z" fill="#AB750F"/>
<path id="Vector_42" d="M127 290C127.004 290.834 126.931 291.598 126.423 292C125.506 290.417 126.257 290.208 127 290Z" fill="#AB750F"/>
<path id="Vector_43" d="M131.81 532C131.599 532 131.384 532 131.174 532C131.128 531.342 131.083 530.675 131.033 530.017L131 530.085C131.335 530.068 131.665 530.051 132 530.043L131.979 530C131.926 530.667 131.868 531.333 131.81 532Z" fill="#AB750F"/>
<path id="Vector_44" d="M276.952 302C276.067 301.936 274.702 301.923 275.058 301.358C275.452 300.739 276.404 301.026 277 301.44C276.99 301.627 276.971 301.813 276.942 302H276.952Z" fill="#AB750F"/>
<path id="Vector_45" d="M167.89 538C167.598 537.746 167.113 537.537 167.037 537.239C166.854 536.423 167.372 535.949 168.106 536.004C168.861 536.059 169.163 536.71 168.915 537.383C168.807 537.68 168.246 537.802 167.89 538Z" fill="#AB750F"/>
<path id="Vector_46" d="M254 538.422C254.163 538.271 254.325 538 254.488 538C254.928 538 255.103 538.353 254.94 538.75C254.874 538.901 254.512 539.04 254.344 538.989C254.193 538.945 254.115 538.618 254.006 538.422H254Z" fill="#AB750F"/>
<path id="Vector_47" d="M230.458 314C230.091 313.899 229.917 313.631 230.039 313.286C230.091 313.143 230.382 312.989 230.551 313.001C230.929 313.036 231.075 313.358 230.964 313.697C230.917 313.839 230.632 313.899 230.458 314Z" fill="#AB750F"/>
<path id="Vector_48" d="M170.994 547.76C170.912 548.126 170.883 548.686 170.743 548.846C170.422 549.189 170.095 548.949 170.008 548.229C169.967 547.909 170.095 547.292 170.241 547.143C170.562 546.8 170.842 547.098 171 547.772L170.994 547.76Z" fill="#AB750F"/>
<path id="Vector_49" d="M292.941 326.143C292.963 326.759 292.978 327.376 293 328C292.405 327.865 291.81 327.737 291.208 327.602C291.253 327.338 291.178 327.113 291 326.917C291.052 326.609 291.097 326.301 291.134 326C291.736 326.053 292.338 326.098 292.941 326.143Z" fill="#AB750F"/>
<path id="Vector_50" d="M116.996 552C116.665 551.975 116.331 551.951 116 551.926C116 551.279 116 550.639 116 550C116.331 550 116.657 550 116.988 550C116.988 550.664 116.996 551.328 117 551.992L116.996 552Z" fill="#AB750F"/>
<path id="Vector_51" d="M224.935 329C225.784 329.09 226.649 329.127 227 330.09L226.891 330.179C226.564 330.455 226.229 330.724 225.901 331L225.449 330.985H224.997C224.662 330.657 224.335 330.321 224 329.993C224.312 329.664 224.623 329.328 224.935 329Z" fill="#AB750F"/>
<path id="Vector_52" d="M90.0042 553.089C90.3382 553.061 90.6681 553.028 90.998 553C91.0021 553.377 91.0272 553.885 90.6848 553.975C90.1211 554.126 90.0543 553.57 90 553.089H90.0042Z" fill="#AB750F"/>
<path id="Vector_53" d="M176.573 557C176.724 557.161 177 557.321 177 557.482C177 557.922 176.655 558.106 176.253 557.939C176.096 557.874 175.965 557.511 176.009 557.333C176.046 557.184 176.372 557.107 176.573 557Z" fill="#AB750F"/>
<path id="Vector_54" d="M45.9032 568C45.148 567.943 44.1218 567.992 44.0153 567.255C43.8507 566.138 45.0512 566.113 46 566C45.971 566.664 45.9419 567.336 45.9129 568H45.9032Z" fill="#AB750F"/>
<path id="Vector_55" d="M34.9749 569.303C34.9749 569.77 34.9916 570.238 35 570.705C34.3305 570.803 33.6611 570.902 33 571C33 570.336 33 569.672 33.0084 569C33.6695 569.098 34.3222 569.197 34.9749 569.295V569.303Z" fill="#AB750F"/>
<path id="Vector_56" d="M301 573.32C301.052 572.379 300.863 571.121 301.556 571.019L301.548 571C301.698 571.55 301.851 572.09 302 572.64V572.882C301.706 573.255 301.415 573.627 301.121 574C301.165 573.693 301.121 573.469 301 573.32Z" fill="#AB750F"/>
<path id="Vector_57" d="M158 573.16C158.669 573.104 159.33 573.047 159.999 573C159.999 573.755 160.049 574.774 159.363 574.953C158.234 575.245 158.109 574.123 158 573.17V573.16Z" fill="#AB750F"/>
<path id="Vector_58" d="M173.907 579C173.046 578.865 171.712 578.874 172.055 577.724C172.426 576.492 173.37 577.041 174 577.832C173.972 578.218 173.944 578.614 173.917 579H173.907Z" fill="#AB750F"/>
<path id="Vector_59" d="M370.797 618C371.113 618.262 371.46 618.511 371.753 618.785C372.099 619.107 372.069 619.509 371.738 619.776C371.045 620.348 370.662 619.673 370.293 619.411C369.743 619.022 370.119 618.493 370.21 618.018C370.406 618.067 370.609 618.061 370.805 618H370.797Z" fill="#AB750F"/>
<path id="Vector_60" d="M1.1343 449.937C0.794347 448.208 1.11059 447.692 1.96047 448.169L1.94861 448.13C1.95256 448.443 1.96838 448.764 2 449.069V449.085C1.81026 449.39 1.62052 449.695 1.43473 450L1.29242 449.859L1.13826 449.93L1.1343 449.937Z" fill="#AB750F"/>
<path id="Vector_61" d="M386.025 284.976C386.017 284.322 386.008 283.66 386 283.006C386.403 282.965 386.761 283.127 387 283.829C386.828 284.217 386.655 284.604 386.479 285L386.252 284.968H386.025V284.976Z" fill="#AB750F"/>
<path id="Vector_62" d="M35.9584 287.098C35.8417 287.414 36.3627 287.879 35.4284 287.996C35.0691 288.038 34.575 287.768 34.1437 287.642H34C34.4851 287.428 34.9702 287.214 35.4554 287C35.5721 287.112 35.7339 287.144 35.9584 287.098Z" fill="#AB750F"/>
<path id="Vector_63" d="M42.0029 288C41.9787 287.191 42.1039 286.511 42.4106 286C42.6084 286.332 42.8022 286.664 43 286.996C42.9717 287.294 42.9637 287.6 42.9758 287.898L42.0029 288Z" fill="#AB750F"/>
<path id="Vector_64" d="M22.0107 468C22.0009 467.58 21.9225 467.024 22.3976 467C22.7992 466.983 22.9755 467.444 23 467.929C22.6719 467.953 22.3388 467.976 22.0107 468Z" fill="#AB750F"/>
<path id="Vector_65" d="M302.18 316L302 314.913C302.143 314.669 302.233 314.402 302.256 314.118C302.511 314.071 302.767 314.031 303.023 314C303.346 314.386 303.677 314.772 304 315.165C303.932 315.331 303.932 315.504 303.985 315.677C303.383 315.787 302.782 315.898 302.18 316Z" fill="#AB750F"/>
<path id="Vector_66" d="M282.494 486C282.661 486.341 282.833 486.682 283 487.023L282.498 488L282.49 487.984C282.331 487.667 282.171 487.349 282.012 487.039L282 487.015C282 486.69 282.008 486.364 282.008 486.039C282.167 486.015 282.327 486.008 282.486 486H282.494Z" fill="#AB750F"/>
<path id="Vector_67" d="M361.009 348.484C361.441 348.076 362.09 347.775 362.834 348.222C363.284 348.497 362.739 348.815 362.134 349C361.753 348.828 361.381 348.656 361 348.484H361.009Z" fill="#AB750F"/>
<path id="Vector_68" d="M242.992 507.921C242.15 507.961 241.146 508.345 241 506.961L241.016 506.937C241.389 506.624 241.753 506.312 242.125 506C242.393 506 242.66 506 242.927 506C242.935 506.648 242.951 507.297 242.959 507.945L243 507.921H242.992Z" fill="#AB750F"/>
<path id="Vector_69" d="M18.0408 508.969C18.3216 508.625 18.5118 507.519 18.9149 508.238C19.01 508.4 19.0281 509.152 18.9556 509.442C18.702 510.408 18.3306 509.861 18 509.699C18.0906 509.485 18.1042 509.237 18.0408 508.969Z" fill="#AB750F"/>
<path id="Vector_70" d="M355.013 512C354.957 511.155 355.081 510.478 355.444 510C355.628 510.343 355.816 510.693 356 511.036C355.984 511.291 355.98 511.546 355.992 511.801C355.668 511.865 355.341 511.936 355.017 512H355.013Z" fill="#AB750F"/>
<path id="Vector_71" d="M217 515C216.671 514.888 216.114 514.88 216.055 514.639C215.803 513.618 216.466 513.361 216.959 513C216.977 513.667 216.988 514.333 217 515Z" fill="#AB750F"/>
<path id="Vector_72" d="M92.4423 677C92.0869 676.608 91.8171 675.992 92.1544 675.314C92.4917 674.636 92.7976 675.163 93 675.876C92.8156 676.251 92.6267 676.625 92.4423 677Z" fill="#AB750F"/>
<path id="Vector_73" d="M18.6649 521.93C17.6821 521.088 17.9672 520.079 18.3873 519.044L18.4773 519C19.19 519.947 19.1075 520.965 18.6274 522L18.6649 521.921V521.93Z" fill="#AB750F"/>
<path id="Vector_74" d="M116.008 184.984C116.008 184.815 116.004 184.645 116 184.476C116.173 184.315 116.345 184.157 116.514 184C116.975 184.185 117.007 184.581 116.999 185C116.67 184.996 116.337 184.988 116.008 184.984Z" fill="#AB750F"/>
<path id="Vector_75" d="M67.3563 191.033L67.7773 191C68.1822 191.344 68.5951 191.689 69 192.033C68.9514 192.287 68.9433 192.549 68.9757 192.803C68.3198 192.869 67.664 192.934 67.0081 193H67C67.1215 192.336 67.2429 191.68 67.3644 191.033H67.3563Z" fill="#AB750F"/>
<path id="Vector_76" d="M232 224.998C231.227 225.023 230.542 224.83 230 224.293C230.427 223.865 230.853 223.437 231.28 223L231.76 223.025C231.84 223.688 231.911 224.343 231.991 224.998H232Z" fill="#AB750F"/>
<path id="Vector_77" d="M301.994 411.694C301.802 411.804 301.591 412.031 301.429 411.996C301.032 411.914 300.893 411.537 301.086 411.138C301.146 411.015 301.519 410.953 301.645 411.042C301.814 411.166 301.886 411.468 302 411.694H301.994Z" fill="#AB750F"/>
<path id="Vector_78" d="M159.525 572C159.35 571.683 159.175 571.357 159 571.04C159.012 570.69 159.023 570.349 159.039 570C159.358 570.032 159.677 570.063 160 570.095C159.988 570.889 159.942 571.635 159.525 572Z" fill="#AB750F"/>
<path id="Vector_79" d="M124.952 679C124.301 678.914 123.659 678.828 123.008 678.75C123.072 678.562 123.072 678.367 123 678.18C123.353 677.789 123.699 677.391 124.052 677C124.285 677.023 124.526 677.023 124.759 677.008C124.839 677.648 124.92 678.297 125 678.937L124.952 679Z" fill="#AB750F"/>
<path id="Vector_80" d="M180.007 572.028C180.149 571.989 180.291 571.989 180.433 572.036C180.433 572.652 180.578 572.94 180.844 572.948C180.896 573.08 180.948 573.221 181 573.361C180.941 573.556 180.903 573.774 180.882 574C180.63 573.977 180.381 573.945 180.128 573.922C180.087 573.291 180.042 572.667 180 572.036L180.01 572.021L180.007 572.028Z" fill="#AB750F"/>
<path id="Vector_81" d="M57.0163 421.927C57 421.618 57 421.309 57 421C57.3577 420.667 57.7154 420.341 58.0732 420.008L58.0407 420.049L58.5041 420.073L58.9675 420.057V420C58.9837 420.667 58.9919 421.333 59 422C58.3333 421.967 57.6667 421.943 57 421.927H57.0163Z" fill="#AB750F"/>
<path id="Vector_82" d="M278 576.139C278.636 575.72 279.068 574.892 279.981 575.012C280.122 576.548 279.476 577.194 278.041 576.95C278.114 576.676 278.098 576.403 278 576.139Z" fill="#AB750F"/>
<path id="Vector_83" d="M255 426.341C254.891 426.566 254.84 426.904 254.667 426.984C254.506 427.057 254.231 426.864 254 426.785C254.128 426.56 254.212 426.288 254.391 426.129C254.647 425.89 254.885 425.996 255 426.341Z" fill="#AB750F"/>
<path id="Vector_84" d="M257 256.045C257.176 255.699 257.348 255.346 257.523 255C257.684 255.03 257.84 255.053 258 255.068V256.045C257.844 256.353 257.687 256.662 257.531 256.97L257.516 257C257.344 256.677 257.172 256.361 257 256.038V256.045Z" fill="#AB750F"/>
<path id="Vector_85" d="M20.0166 258.008C20.6805 258.378 21.3444 258.739 22 259.108C21.8921 259.309 21.8838 259.51 21.9834 259.719C21.3195 259.815 20.6639 259.904 20 260C20.0166 259.333 20.0332 258.667 20.0498 258L20.0249 258.016L20.0166 258.008Z" fill="#AB750F"/>
<path id="Vector_86" d="M346 434.882C346.263 434.177 346.6 433.489 346.936 434.538C347.131 435.14 346.85 435.751 346.505 436C346.337 435.63 346.168 435.252 346 434.882Z" fill="#AB750F"/>
<path id="Vector_87" d="M111.969 665.143C111.938 665.439 111.946 665.726 112 666.021C111.554 666.35 111.108 666.671 110.662 667C110.438 666.679 110.223 666.359 110 666.038C110.031 665.692 110.062 665.346 110.108 665H110.1C110.723 665.051 111.346 665.101 111.969 665.143Z" fill="#AB750F"/>
<path id="Vector_88" d="M148 442.859C148.199 442.158 148.506 441.655 148.84 442.293C149.179 442.94 148.922 443.569 148.596 444C148.398 443.623 148.199 443.236 148 442.859Z" fill="#AB750F"/>
<path id="Vector_89" d="M129 617L127 616.847C127.75 615.773 128.435 615.612 129 617Z" fill="#AB750F"/>
<path id="Vector_90" d="M302.888 616C302.386 616 301.877 615.789 302.027 614.758C302.199 613.517 302.633 614.051 303 614.597C302.94 615.056 302.903 615.528 302.888 616Z" fill="#AB750F"/>
<path id="Vector_91" d="M169.024 160C169.024 159.34 169.008 158.688 169 158.029C169.33 157.996 169.661 157.988 169.991 158.02C169.991 158.375 169.991 158.729 169.991 159.091C170.015 159.396 169.991 159.702 169.895 160H169.459H169.024Z" fill="#AB750F"/>
<path id="Vector_92" d="M165.012 168C165.672 168.016 166.34 168.024 167 168.04C167 168.328 167 168.616 166.984 168.904C166.324 168.936 165.672 168.968 165.012 169C164.996 168.664 164.996 168.336 165.012 168Z" fill="#AB750F"/>
<path id="Vector_93" d="M88.0081 170.038C88.6694 170.031 89.3306 170.015 90 170C90 170.331 90 170.669 90 171C89.3387 170.954 88.6774 170.908 88.0161 170.862C88.0161 170.585 88.0081 170.308 88 170.031L88.0081 170.038Z" fill="#AB750F"/>
<path id="Vector_94" d="M43.8731 606C43.9179 606.667 43.9552 607.333 44 608C43.6642 608 43.3358 607.992 43 607.984C43.0373 607.317 43.0821 606.659 43.1194 606C43.3731 606.016 43.6194 606.016 43.8731 606Z" fill="#AB750F"/>
<path id="Vector_95" d="M151.356 177C151.24 176.332 151.117 175.673 151 175.005C152.867 174.911 151.557 176.229 151.506 176.991H151.356V177Z" fill="#AB750F"/>
<path id="Vector_96" d="M212.002 180.009C212.325 180.15 212.647 180.29 212.97 180.43L213 180.57C212.669 180.72 212.338 180.86 212.006 181C211.998 180.664 211.998 180.336 212.006 180L212.002 180.009Z" fill="#AB750F"/>
<path id="Vector_97" d="M210.643 193C210.07 192.233 209.394 191.45 211 191C210.878 191.667 210.756 192.333 210.643 193Z" fill="#AB750F"/>
<path id="Vector_98" d="M50.0213 199C49.9607 198.15 49.9607 197.333 51 197C51 197.817 50.9394 198.608 50.0213 199Z" fill="#AB750F"/>
<path id="Vector_99" d="M120.012 206.142C120.341 206.097 120.671 206.045 121 206V207C120.667 206.948 120.333 206.896 120 206.843C120.012 206.612 120.016 206.381 120.012 206.142Z" fill="#AB750F"/>
<path id="Vector_100" d="M161 211.016C161.672 211.016 162.336 211 163 211V212C162.336 211.976 161.664 211.96 161 211.944C161 211.635 161 211.325 161 211.024V211.016Z" fill="#AB750F"/>
<path id="Vector_101" d="M244.886 222C243.804 221.635 243.568 221.293 245 221C244.959 221.333 244.927 221.667 244.886 222Z" fill="#AB750F"/>
<path id="Vector_102" d="M106.023 226C106.719 226.053 107.106 226.487 106.975 227.274C106.889 227.796 106.464 228.009 106 228C106 227.336 106.015 226.672 106.023 226Z" fill="#AB750F"/>
<path id="Vector_103" d="M393.832 234C393.126 233.881 392.685 233.593 393.275 233.061C393.495 232.865 393.851 233.18 394 233.433C393.903 233.613 393.845 233.804 393.832 234Z" fill="#AB750F"/>
<path id="Vector_104" d="M184.016 235.13L184.992 235C184.992 235.336 185 235.664 185 236C184.665 235.931 184.335 235.863 184 235.786C184.016 235.573 184.02 235.351 184.016 235.13Z" fill="#AB750F"/>
<path id="Vector_105" d="M113.008 247.008C113.656 247.061 114.311 247.114 114.959 247.167C114.959 247.379 114.967 247.591 115 247.803L113 248C113 247.667 113 247.333 113 247L113.008 247.008Z" fill="#AB750F"/>
<path id="Vector_106" d="M106 249.065C106.332 249.04 106.664 249.024 106.996 249C107.004 249.331 107 249.661 106.992 250C106.664 249.968 106.332 249.935 106.004 249.903C106.004 249.621 106.004 249.347 106.004 249.065H106Z" fill="#AB750F"/>
<path id="Vector_107" d="M133 254C133 253.333 133 252.667 133.008 252C133.328 252 133.648 252 133.967 252C133.975 252.667 133.984 253.333 134 253.992H133.5H133V254Z" fill="#AB750F"/>
<path id="Vector_108" d="M260 253.039C260.331 253.031 260.661 253.016 261 253C260.992 253.663 260.984 254.326 260.976 254.988C260.654 255.02 260.339 254.988 260.032 254.887C260.024 254.271 260.008 253.655 260 253.031V253.039Z" fill="#AB750F"/>
<path id="Vector_109" d="M264.028 260C264.028 259.667 264.009 259.333 264 259C265.338 259.325 265.319 259.663 264.028 260Z" fill="#AB750F"/>
<path id="Vector_110" d="M101 262C101.325 262.077 101.65 262.161 101.979 262.238C101.967 262.399 101.971 262.559 102 262.72L101.004 263C101.004 262.664 101.004 262.336 101 262Z" fill="#AB750F"/>
<path id="Vector_111" d="M69 273C69.0095 272.665 69.0284 272.331 69.0379 272C70.3081 272.343 70.346 272.677 69 273Z" fill="#AB750F"/>
<path id="Vector_112" d="M341.157 272.016C342.249 272.078 342.023 272.551 341.872 273C341.408 272.955 341.182 272.743 341 272.49C341.069 272.331 341.125 272.167 341.169 272L341.151 272.012L341.157 272.016Z" fill="#AB750F"/>
<path id="Vector_113" d="M44.5675 594C44.7145 594.667 44.8529 595.333 45 596C43.3651 595.804 44.1782 594.809 44.3858 594.009H44.5675V594Z" fill="#AB750F"/>
<path id="Vector_114" d="M194 283C193.963 283.664 193.926 284.328 193.889 285C192.672 284.281 192.7 283.617 194 283Z" fill="#AB750F"/>
<path id="Vector_115" d="M383.051 284.299C383.827 284.152 384.806 283.416 385 285H384.992C384.325 284.861 383.667 284.723 383 284.576L383.051 284.299Z" fill="#AB750F"/>
<path id="Vector_116" d="M306 591.947C305.333 591.962 304.667 591.985 304 592V591C304.667 591.038 305.333 591.076 306 591.114C306 591.389 306 591.672 306 591.947Z" fill="#AB750F"/>
<path id="Vector_117" d="M2.00714 299.996C2.07143 299.671 2.14286 299.341 2.20714 299.016C2.41429 299.028 2.62143 299.024 2.82143 299C2.87857 299.329 2.94286 299.659 3 299.992L2 300L2.00714 299.996Z" fill="#AB750F"/>
<path id="Vector_118" d="M381.007 300.968C381.03 300.328 381.059 299.68 381.081 299.04C381.326 299.04 381.563 299.024 381.807 299C381.874 299.664 381.941 300.336 382 301C381.667 300.992 381.333 300.976 381 300.968H381.007Z" fill="#AB750F"/>
<path id="Vector_119" d="M107 303C107.669 303 108.339 303.008 109 303.016C109 303.328 109 303.64 108.992 303.952L107.008 304C107.008 303.664 107.008 303.336 107.008 303H107Z" fill="#AB750F"/>
<path id="Vector_120" d="M67 319V317C68.3333 317.669 68.3333 318.331 67 319Z" fill="#AB750F"/>
<path id="Vector_121" d="M74 320.802C73.7043 320.86 73.4086 320.911 73.1128 320.975C72.5837 321.084 72.2879 320.815 72 320.519C72.3658 320.346 72.7159 320.115 73.1051 320.018C73.3696 319.954 73.6965 320.076 73.9922 320.121C73.9533 320.352 73.9533 320.577 73.9922 320.808L74 320.802Z" fill="#AB750F"/>
<path id="Vector_122" d="M18 321C18.6667 321.021 19.3333 321.05 20 321.071C19.6748 321.383 19.3577 321.695 19.0325 322C18.4878 321.823 18.122 321.511 18 321Z" fill="#AB750F"/>
<path id="Vector_123" d="M170 334.008C170.336 334.008 170.668 334.008 171 334.008C171 334.336 171 334.656 171 334.975C170.668 334.984 170.332 334.992 170 335C170 334.664 170 334.328 170 334V334.008Z" fill="#AB750F"/>
<path id="Vector_124" d="M306 336.992C306.024 336.331 306.056 335.661 306.08 335C306.328 335.016 306.576 335.024 306.824 335.016C306.88 335.669 306.944 336.331 307 336.984C306.664 336.984 306.336 336.984 306 337V336.992Z" fill="#AB750F"/>
<path id="Vector_125" d="M265 585C264.967 585.667 264.942 586.333 264.909 587C263.753 586.285 263.611 585.61 265 585Z" fill="#AB750F"/>
<path id="Vector_126" d="M254.949 585.679C254.302 585.789 253.663 585.899 253.016 586C252.999 585.67 252.991 585.33 253.016 585C253.68 585.128 254.336 585.248 255 585.376L254.949 585.67V585.679Z" fill="#AB750F"/>
<path id="Vector_127" d="M61.4213 340C61.3077 339.7 61.194 339.391 61.0804 339.09C60.846 338.498 61.1656 338 61.5066 338C61.8404 338 62.16 338.489 61.9114 339.082C61.7836 339.382 61.6841 339.691 61.5705 339.991H61.4213V340Z" fill="#AB750F"/>
<path id="Vector_128" d="M84.0032 342C84.6715 342.009 85.3317 342.027 86 342.035C86 342.336 85.9919 342.646 85.9919 342.947C85.3317 342.965 84.6715 342.982 84.0195 343C83.9951 342.673 83.9951 342.336 84.0114 342.009L84.0032 342Z" fill="#AB750F"/>
<path id="Vector_129" d="M361.008 343.024C361.668 343.016 362.328 343.008 362.988 343C363.004 343.333 363.004 343.667 362.988 344C362.328 343.976 361.668 343.951 361 343.935C361 343.634 361 343.333 361 343.033L361.008 343.024Z" fill="#AB750F"/>
<path id="Vector_130" d="M198.983 349C197.958 348.886 197.927 348.465 198.051 348C199.16 348.092 198.999 348.57 198.983 349Z" fill="#AB750F"/>
<path id="Vector_131" d="M0.000489948 350C1.05499 350.322 1.04649 351.149 0.969952 352C0.0855301 351.595 -0.00801411 350.826 0.000489948 350Z" fill="#AB750F"/>
<path id="Vector_132" d="M215.202 368C215.179 367.288 214.684 366.044 215.333 366.003C216.555 365.923 215.704 367.278 215.805 368H215.503H215.202Z" fill="#AB750F"/>
<path id="Vector_133" d="M110.066 372C110.042 371.331 110.025 370.661 110 370C111.429 370.62 111.213 371.298 110.066 372Z" fill="#AB750F"/>
<path id="Vector_134" d="M178.008 378.079C178.675 378.056 179.333 378.024 180 378C180 378.333 180 378.667 180 379C179.333 378.976 178.667 378.96 178 378.929C178 378.643 178 378.357 178.008 378.079Z" fill="#AB750F"/>
<path id="Vector_135" d="M7 389C7.33198 389.008 7.66802 389.016 8 389.031C8 389.328 8 389.617 7.99595 389.906C7.66397 389.938 7.33198 389.969 7 390C7 389.664 7 389.328 7 389Z" fill="#AB750F"/>
<path id="Vector_136" d="M87 390.992C87 390.328 87 389.664 87.0079 389C87.3175 389 87.6349 389 87.9444 389C87.9603 389.664 87.9841 390.328 88 391C87.6667 391 87.3333 391 87 391V390.992Z" fill="#AB750F"/>
<path id="Vector_137" d="M209.077 394.383C209.718 394.252 210.359 394.121 211 394C211 394.336 210.991 394.664 210.983 395C210.325 394.879 209.658 394.766 209 394.645L209.077 394.383Z" fill="#AB750F"/>
<path id="Vector_138" d="M7 399C5.57912 398.366 5.77696 397.691 6.93705 397C6.95504 397.667 6.98201 398.333 7 399Z" fill="#AB750F"/>
<path id="Vector_139" d="M268.004 399.024L269 399C269 399.333 269 399.667 269 400C268.665 399.992 268.335 399.984 268 399.976C268 399.659 268 399.341 268 399.024H268.004Z" fill="#AB750F"/>
<path id="Vector_140" d="M269 402C269.034 401.668 269.059 401.332 269.093 401C270.212 401.358 270.422 401.698 269 402Z" fill="#AB750F"/>
<path id="Vector_141" d="M3.14173 406C3.09449 405.336 3.04724 404.664 3 404L4 404.016C3.95276 404.672 3.89764 405.336 3.8504 405.992L3.49606 405.976L3.13386 405.992L3.14173 406Z" fill="#AB750F"/>
<path id="Vector_142" d="M271 408C269.523 407.444 269.869 406.75 270.835 406C270.893 406.669 270.942 407.331 271 408Z" fill="#AB750F"/>
<path id="Vector_143" d="M213.076 408.041C213.454 407.973 214.02 407.912 213.999 408.546C213.984 409.067 213.384 409.029 213 408.961C213.045 408.659 213.071 408.35 213.081 408.041H213.076Z" fill="#AB750F"/>
<path id="Vector_144" d="M262.004 410C262.335 410.008 262.669 410.015 263 410.023C263 410.308 263 410.592 262.992 410.877C262.661 410.915 262.331 410.962 262 411C262 410.669 262 410.331 262 410H262.004Z" fill="#AB750F"/>
<path id="Vector_145" d="M53.4079 413.975C53.2771 413.653 53.1462 413.331 53.0231 413.013L53 413.021L53.4695 413H53.9467C54.1392 413.386 53.7697 413.686 53.4849 414L53.4079 413.975Z" fill="#AB750F"/>
<path id="Vector_146" d="M58.9146 426C58.9431 426.332 58.9716 426.668 59 427C57.7103 426.684 57.6534 426.352 58.9146 426Z" fill="#AB750F"/>
<path id="Vector_147" d="M34.9819 427.096C35.006 427.4 35.006 427.696 34.9819 428C34.3212 427.978 33.6606 427.948 33 427.926C33.3303 427.615 33.6687 427.311 33.999 427C34.3212 427.037 34.6516 427.067 34.9738 427.104L34.9819 427.096Z" fill="#AB750F"/>
<path id="Vector_148" d="M49.0161 432.083L50.9697 432C51.0101 432.331 51.0101 432.669 50.9697 433C50.3158 432.95 49.662 432.901 49 432.851C49.0081 432.595 49.0081 432.339 49 432.083H49.0161Z" fill="#AB750F"/>
<path id="Vector_149" d="M203.075 434C203.048 433.339 203.021 432.686 203 432.025C203.301 432.017 203.595 432.008 203.895 432C204.1 432.966 204.087 433.797 203.082 434H203.075Z" fill="#AB750F"/>
<path id="Vector_150" d="M295.016 432C295.676 432 296.336 432.008 296.996 432.016C296.996 432.317 297.004 432.619 296.996 432.929C296.336 432.952 295.668 432.976 295 433C295 432.667 295 432.333 295.008 432.008L295.016 432Z" fill="#AB750F"/>
<path id="Vector_151" d="M116.004 433.142C116.337 433.095 116.671 433.047 117 433C117 433.331 117 433.669 117 434C116.667 433.945 116.333 433.882 116 433.827C116.012 433.598 116.012 433.37 116.004 433.134V433.142Z" fill="#AB750F"/>
<path id="Vector_152" d="M7.02008 435C7.3494 435.052 7.6747 435.097 8 435.149C7.99197 435.373 7.99197 435.597 8 435.821C7.6747 435.881 7.3494 435.94 7.0241 436L7.01606 435.985C7.01205 435.672 7.00402 435.351 7 435.037L7.01606 435H7.02008Z" fill="#AB750F"/>
<path id="Vector_153" d="M13 435C12.9849 435.667 12.9622 436.333 12.947 437C11.9558 436.707 11.9255 435.902 12.0542 435.016C12.372 435.016 12.6898 435.008 13 435Z" fill="#AB750F"/>
<path id="Vector_154" d="M343 436C343.669 436.033 344.331 436.066 345 436.098C344.992 436.369 344.992 436.639 345 436.91C344.362 436.943 343.724 436.967 343.087 437C343.063 436.672 343.039 436.336 343 436Z" fill="#AB750F"/>
<path id="Vector_155" d="M193 439C192.96 439.667 192.92 440.333 192.88 441C192.624 440.969 192.376 440.969 192.12 441C192.08 440.333 192.04 439.667 192 439C192.336 439 192.664 439 193 439Z" fill="#AB750F"/>
<path id="Vector_156" d="M73 443C73.0236 442.336 73.0394 441.664 73.0709 441C73.3386 441 73.6063 441 73.874 441C73.9134 441.664 73.9606 442.328 74 443C73.6693 443 73.3307 443 73 443Z" fill="#AB750F"/>
<path id="Vector_157" d="M263 443C263 442.331 263.009 441.669 263.017 441C263.333 441 263.641 441 263.957 441L264 442.984H263.504H263.009L263 443Z" fill="#AB750F"/>
<path id="Vector_158" d="M357 444C357.669 444 358.331 444.016 359 444.024C359 444.347 359 444.661 359 444.984C358.339 444.984 357.669 445 357.008 445C357 444.669 357 444.331 357.008 444H357Z" fill="#AB750F"/>
<path id="Vector_159" d="M99.0243 450C99.664 450.044 100.304 450.089 100.943 450.141C100.943 450.363 100.96 450.585 101 450.807C100.328 450.874 99.664 450.941 99 451C99 450.667 99.0162 450.333 99.0243 450Z" fill="#AB750F"/>
<path id="Vector_160" d="M110 568C109.918 568.667 109.845 569.333 109.762 570C108.876 569.232 108.538 568.523 110 568Z" fill="#AB750F"/>
<path id="Vector_161" d="M162.213 470.967C162.142 470.311 162.071 469.664 162 469.008H162.008C162.339 469.008 162.669 469.008 162.992 469H163C162.921 469.672 162.835 470.336 162.756 471L162.488 470.959H162.213V470.967Z" fill="#AB750F"/>
<path id="Vector_162" d="M96 472.017C96.336 472.017 96.668 472.008 97 472C97 472.331 97 472.669 97 473C96.668 472.992 96.336 472.975 96.0041 472.967C96.0041 472.653 96 472.331 96.0041 472.008L96 472.017Z" fill="#AB750F"/>
<path id="Vector_163" d="M346.036 477.717C346.21 476.135 346.565 475.867 346.988 476.05C346.988 476.7 346.996 477.35 347 478C346.665 477.887 346.335 477.788 346 477.675L346.036 477.717Z" fill="#AB750F"/>
<path id="Vector_164" d="M148.968 566C148.312 565.954 147.664 565.908 147.008 565.863C147.032 565.641 147.032 565.427 147 565.206C147.656 565.137 148.32 565.069 148.976 565L149 565.031C149 565.351 148.984 565.679 148.976 566H148.968Z" fill="#AB750F"/>
<path id="Vector_165" d="M61.9533 480C60.7118 479.309 60.6371 478.643 62 478C61.9813 478.667 61.972 479.333 61.9533 480Z" fill="#AB750F"/>
<path id="Vector_166" d="M55 564.904C54.3333 564.939 53.6667 564.965 53 565C53.6098 563.626 54.2846 563.739 55 564.904Z" fill="#AB750F"/>
<path id="Vector_167" d="M80.1935 488C80.1316 487.339 80.0619 486.678 80 486.017L80.0232 486C80.3483 486.017 80.6657 486.025 80.9908 486.041C81.0372 486.843 80.9288 487.57 80.1935 487.992V488Z" fill="#AB750F"/>
<path id="Vector_168" d="M75.0117 487C75.3401 487.009 75.6686 487.018 75.997 487.027C76.001 487.327 76.001 487.637 75.997 487.938C75.6686 487.956 75.3361 487.973 75.0077 488C74.9955 487.664 74.9996 487.336 75.0077 487H75.0117Z" fill="#AB750F"/>
<path id="Vector_169" d="M246.004 487C246.335 487.043 246.67 487.08 247 487.123C246.811 487.892 246.433 488.037 246 487.993C246 487.66 246 487.326 246.004 487Z" fill="#AB750F"/>
<path id="Vector_170" d="M70 494.074C70.3866 493.979 71.0051 493.866 71 494.505C70.9948 495.161 70.3866 495.014 70 494.902C70 494.626 70 494.341 70 494.065V494.074Z" fill="#AB750F"/>
<path id="Vector_171" d="M111.205 501C111.137 500.333 111.068 499.667 111 499C112.385 499.543 112.214 500.235 111.205 501Z" fill="#AB750F"/>
<path id="Vector_172" d="M249 503C249.037 502.333 249.065 501.667 249.102 501C250.279 501.715 250.353 502.382 249 503Z" fill="#AB750F"/>
<path id="Vector_173" d="M195.035 511.381C195.861 511.075 196.809 510.464 196.957 512L197 511.968C196.33 511.855 195.67 511.735 195 511.622L195.035 511.389V511.381Z" fill="#AB750F"/>
<path id="Vector_174" d="M328 520.046C328.667 520.028 329.333 520.009 330 520C329.358 521.339 328.691 521.312 328 520.046Z" fill="#AB750F"/>
<path id="Vector_175" d="M192.01 523.308C192.374 523.226 192.738 523.158 193.093 523.06C193.812 522.872 194.09 523.143 193.975 523.655C193.889 524.039 193.515 524.076 193.074 523.896C192.748 523.76 192.364 523.707 192 523.617V523.316L192.01 523.308Z" fill="#AB750F"/>
<path id="Vector_176" d="M139.006 525.041C139.27 525.025 139.535 525.017 139.799 525C139.868 525.355 139.931 525.719 140 526.074C139.667 526.38 139.333 526.694 139 527C139 526.347 139 525.694 139.006 525.041Z" fill="#AB750F"/>
<path id="Vector_177" d="M313.927 545.007C314.031 545.775 314.117 547 313.496 547C312.884 547 312.97 545.775 313.073 545.007C313.358 544.998 313.643 544.998 313.927 545.007Z" fill="#AB750F"/>
<path id="Vector_178" d="M311.014 549.006C311.406 549.097 312.025 548.699 311.999 549.677C311.999 549.801 311.361 549.892 311.014 550C310.995 549.669 310.995 549.337 311.014 549.006Z" fill="#AB750F"/>
<path id="Vector_179" d="M237 554C237.05 553.667 237.107 553.333 237.157 553C238.166 553.374 238.447 553.72 237 554Z" fill="#AB750F"/>
<path id="Vector_180" d="M286.051 553.992C286.034 553.666 286.017 553.335 286 553.009C286.331 552.997 286.661 552.997 287 553.009C287 553.339 287 553.67 287 554H286.525H286.051V553.992Z" fill="#AB750F"/>
<path id="Vector_181" d="M167.315 559C167.205 558.333 167.102 557.667 167 557C168.619 557.156 167.818 558.186 167.682 558.983L167.324 559H167.315Z" fill="#AB750F"/>
<path id="Vector_182" d="M244 692.002C243.976 692.671 243.959 693.331 243.935 694C243.659 694 243.374 694 243.098 694C243.065 693.339 243.033 692.679 243 692.018C243.333 691.994 243.667 691.994 244 692.018V692.002Z" fill="#AB750F"/>
<path id="Vector_183" d="M153 690.008C152.953 690.667 152.913 691.325 152.866 691.976C152.63 691.976 152.394 691.976 152.157 692C152.102 691.333 152.055 690.667 152 690C152.331 690 152.661 690 153 690V690.008Z" fill="#AB750F"/>
<path id="Vector_184" d="M144.992 667.008C144.953 667.336 144.906 667.664 144.866 667.988C144.638 667.988 144.402 667.988 144.173 668L144 667.008L144.016 667C144.346 667.004 144.669 667.008 145 667.012L144.992 667.008Z" fill="#AB750F"/>
<path id="Vector_185" d="M130 658.101C129.293 659.233 128.618 659.399 128 658C128.667 658.028 129.333 658.064 130 658.101Z" fill="#AB750F"/>
<path id="Vector_186" d="M110 652.057C109.309 653.3 108.642 653.347 108 652C108.667 652.019 109.333 652.038 110 652.057Z" fill="#AB750F"/>
<path id="Vector_187" d="M193 651C194.349 651.083 193.986 652.108 193.86 653L193.889 652.975C193.6 652.975 193.319 652.942 193.044 652.858C193.03 652.242 193.015 651.617 193 651Z" fill="#AB750F"/>
<path id="Vector_188" d="M39.7836 646.016C39.8582 646.678 39.9254 647.339 40 648C39.6642 648 39.3358 647.992 39 647.984C39.0746 647.322 39.1418 646.661 39.209 646C39.3955 646.041 39.5821 646.049 39.7761 646.025L39.7836 646.016Z" fill="#AB750F"/>
<path id="Vector_189" d="M10 641.974C9.3344 641.974 8.6688 641.991 8.01131 642C7.99508 641.664 7.99508 641.328 8.01943 641C8.67692 641.009 9.3344 641.017 9.98376 641.026C10 641.345 10 641.655 10 641.974Z" fill="#AB750F"/>
<path id="Vector_190" d="M214.976 632.066C214.887 632.694 214.798 633.314 214.71 633.942L214.363 634C214.242 633.339 214.121 632.678 214 632.017L214.024 632C214.355 632.008 214.677 632.041 215 632.091L214.968 632.066H214.976Z" fill="#AB750F"/>
<path id="Vector_191" d="M49.75 631.074C49.8362 631.719 49.9138 632.364 50 633H49.5H49C49.0603 632.331 49.1293 631.669 49.1897 631C49.3621 631.083 49.5517 631.107 49.7414 631.074H49.75Z" fill="#AB750F"/>
<path id="Vector_192" d="M53.817 625C53.878 625.669 53.939 626.339 54 627C52.597 626.446 52.7974 625.752 53.817 625Z" fill="#AB750F"/>
<path id="Vector_193" d="M140.007 624C141.257 624.091 141.055 625.041 140.838 626C139.923 625.711 139.993 624.835 140.007 624Z" fill="#AB750F"/>
<path id="Vector_194" d="M238 151C238.656 151.008 238.992 151.341 239 152C238.414 151.922 238.078 151.589 238 151Z" fill="#AB750F"/>
<path id="Vector_195" d="M260.998 164C261.031 164.69 260.707 165.03 260 164.998C260.05 164.389 260.382 164.057 260.998 164Z" fill="#AB750F"/>
<path id="Vector_196" d="M102.036 167.086C102.352 167.003 102.676 166.978 103 167.02C102.983 167.667 102.676 168.024 102.003 167.999C101.995 167.692 102.003 167.385 102.028 167.086H102.036Z" fill="#AB750F"/>
<path id="Vector_197" d="M226 188.005C226.721 187.951 227.043 188.298 226.996 189C226.384 188.946 226.055 188.607 226 188.005Z" fill="#AB750F"/>
<path id="Vector_198" d="M106 189C105.886 189.561 105.553 189.886 105 190C105.122 189.455 105.463 189.122 106 189Z" fill="#AB750F"/>
<path id="Vector_199" d="M131 189.004C131.539 188.987 132.134 188.987 131.973 189.677C131.936 189.838 131.35 189.898 131.019 190C131.009 189.668 131 189.336 131 189.004Z" fill="#AB750F"/>
<path id="Vector_200" d="M200.024 200C200.356 200.105 200.933 200.158 200.972 200.316C201.138 200.991 200.542 200.991 200.015 201C199.995 200.667 199.995 200.333 200.015 200H200.024Z" fill="#AB750F"/>
<path id="Vector_201" d="M11.9907 218C10.6574 217.661 10.6823 217.33 11.9907 217C12.0031 217.33 12.0031 217.67 11.9907 218Z" fill="#AB750F"/>
<path id="Vector_202" d="M5.98343 253C5.65193 252.836 5.33149 252.673 5 252.5C5.33149 252.336 5.65193 252.173 5.98343 252C6.00552 252.327 6.00552 252.664 5.98343 252.991V253Z" fill="#AB750F"/>
<path id="Vector_203" d="M261.992 253C261.659 253 261.326 253 261.001 253C260.978 252.272 261.311 251.956 261.97 252.005C261.97 252.337 261.985 252.66 262 252.992L261.992 253Z" fill="#AB750F"/>
<path id="Vector_204" d="M24.0763 263.034C24.3785 263.01 24.6887 262.994 24.9988 263.002C25.0227 263.696 24.6887 264.023 24.0048 263.999C23.9889 263.672 24.0127 263.353 24.0763 263.034Z" fill="#AB750F"/>
<path id="Vector_205" d="M29.9846 280C29.4528 279.991 28.8545 279.963 29.0318 279.327C29.0761 279.168 29.6522 279.103 29.9735 279C30.0067 279.327 30.0067 279.664 29.9846 279.991V280Z" fill="#AB750F"/>
<path id="Vector_206" d="M174 310C174 309.664 174 309.336 174 309C174.331 309 174.669 309 175 309C175 309.32 175 309.632 174.992 309.944C174.661 310 174.339 310.008 174.008 309.992L174 310Z" fill="#AB750F"/>
<path id="Vector_207" d="M155.008 321C154.967 320.313 155.293 319.97 156 320.002C156 320.337 155.967 320.657 155.87 320.968C155.577 320.992 155.293 321 155 320.992L155.008 321Z" fill="#AB750F"/>
<path id="Vector_208" d="M21.9991 328C21.666 327.835 21.333 327.67 21 327.505C21.333 327.339 21.6556 327.165 21.9783 327C21.9991 327.33 22.0095 327.67 21.9887 328H21.9991Z" fill="#AB750F"/>
<path id="Vector_209" d="M206.008 327.008C206.65 327.024 206.976 327.358 207 328C206.675 328 206.35 327.967 206.024 327.886C206.008 327.593 206 327.301 206 327L206.008 327.008Z" fill="#AB750F"/>
<path id="Vector_210" d="M253.99 330.036C253.881 330.359 253.822 330.939 253.663 330.972C253.01 331.139 253.03 330.526 253 330.025C253.337 329.992 253.663 329.992 254 330.025L253.99 330.036Z" fill="#AB750F"/>
<path id="Vector_211" d="M333 330C332.976 330.625 332.653 330.977 332 331C332.089 330.437 332.419 330.094 333 330Z" fill="#AB750F"/>
<path id="Vector_212" d="M71 333C71.3309 333.171 71.6618 333.334 72 333.505C71.7647 333.912 71.4338 334.074 71.0074 333.969C71.0074 333.643 71 333.326 71.0074 333H71Z" fill="#AB750F"/>
<path id="Vector_213" d="M259.016 337.989C259.016 337.349 259.298 336.97 260 337.002C259.992 337.302 259.976 337.602 259.96 337.902C259.645 338.005 259.331 338.028 259 337.965L259.016 337.989Z" fill="#AB750F"/>
<path id="Vector_214" d="M156.014 341C156.585 341 157.155 341.073 156.961 341.67C156.916 341.835 156.345 341.89 156.026 342C155.991 341.67 155.991 341.339 156.026 341.009L156.014 341Z" fill="#AB750F"/>
<path id="Vector_215" d="M200.032 346C200.357 346.111 200.93 346.176 200.973 346.343C201.135 346.991 200.53 346.991 200 347C200 346.667 200 346.333 200.032 346.009V346Z" fill="#AB750F"/>
<path id="Vector_216" d="M220.022 351C220.541 351 221.14 351 220.971 351.682C220.931 351.845 220.352 351.9 220.022 352C219.993 351.664 219.993 351.336 220.022 351Z" fill="#AB750F"/>
<path id="Vector_217" d="M22.0313 379.904C22 379.601 21.9922 379.306 22.0078 379.002C22.6891 378.97 23.0494 379.274 22.9945 380C22.6735 380 22.3524 379.976 22.0313 379.904Z" fill="#AB750F"/>
<path id="Vector_218" d="M97.0082 384.006C97.3381 383.989 97.6598 384.006 97.9814 384.084C98.0062 384.386 98.0062 384.698 97.9814 385C97.3959 384.957 97.066 384.628 97 384.015L97.0082 384.006Z" fill="#AB750F"/>
<path id="Vector_219" d="M147 392.013C146.981 392.518 147.009 393.136 146.318 392.974C146.159 392.933 146.103 392.357 146 392.023C146.336 391.992 146.664 391.992 147 392.023V392.013Z" fill="#AB750F"/>
<path id="Vector_220" d="M295 399.009C295.325 398.985 295.65 399.009 295.967 399.073C295.984 399.385 296 399.696 296 400C295.341 399.984 295.033 399.632 295 399.001V399.009Z" fill="#AB750F"/>
<path id="Vector_221" d="M322.035 435C322.369 435.111 322.943 435.166 322.975 435.333C323.131 436.007 322.536 436.007 322.004 435.998C321.994 435.665 322.004 435.333 322.025 435H322.035Z" fill="#AB750F"/>
<path id="Vector_222" d="M388 466.001C388.715 465.977 389.017 466.345 388.999 467C388.379 466.935 388.052 466.591 388 466.001Z" fill="#AB750F"/>
<path id="Vector_223" d="M69.0675 468C69.6365 468.008 70.1766 468.116 69.9451 468.736C69.8872 468.893 69.3279 468.917 69 469C69.0289 468.669 69.0482 468.331 69.0579 468H69.0675Z" fill="#AB750F"/>
<path id="Vector_224" d="M69 474.977C69.3478 473.597 69.6783 473.747 70 475C69.6696 475 69.3391 475 69 474.977Z" fill="#AB750F"/>
<path id="Vector_225" d="M189 475C189.648 475.053 189.952 475.402 190 476C189.424 475.886 189.112 475.538 189 475Z" fill="#AB750F"/>
<path id="Vector_226" d="M214.93 477C214.376 476.983 213.823 476.881 214.054 476.271C214.114 476.11 214.668 476.085 215 476C214.97 476.331 214.95 476.669 214.94 477H214.93Z" fill="#AB750F"/>
<path id="Vector_227" d="M49.0006 492.009C49.3273 491.985 49.6539 492.009 49.9724 492.075C49.9969 492.385 50.0051 492.696 49.9969 492.998C49.3109 493.03 48.9842 492.696 49.0006 492.001V492.009Z" fill="#AB750F"/>
<path id="Vector_228" d="M107 663C107.107 662.439 107.434 662.106 108 662C107.869 662.528 107.541 662.87 107 663Z" fill="#AB750F"/>
<path id="Vector_229" d="M45 662C45.6154 662.024 45.9769 662.328 46 663C45.4538 662.904 45.1 662.592 45 662Z" fill="#AB750F"/>
<path id="Vector_230" d="M239.979 622C239.649 621.826 239.33 621.661 239 621.487C239.33 621.322 239.67 621.157 240 621C240 621.33 240 621.67 239.979 622Z" fill="#AB750F"/>
<path id="Vector_231" d="M238.022 649C238.352 649.097 238.902 649.142 238.958 649.301C239.167 649.876 238.561 649.92 238.055 650C238 649.664 237.989 649.336 238.011 649H238.022Z" fill="#AB750F"/>
<path id="Vector_232" d="M240.969 648C240.638 647.893 240.069 647.83 240.027 647.67C239.862 647.018 240.483 647.027 241 647C241 647.33 241 647.67 240.979 648H240.969Z" fill="#AB750F"/>
<path id="Vector_233" d="M140 585C140.558 585.121 140.892 585.452 141 586C140.45 585.879 140.125 585.532 140 585Z" fill="#AB750F"/>
<path id="Vector_234" d="M46 643C46.6385 643.016 46.9846 643.328 47 644C46.4308 643.914 46.0846 643.594 46 643Z" fill="#AB750F"/>
<path id="Vector_235" d="M136 557C135.447 556.901 135.122 556.562 135.008 556H135C135.333 556 135.667 556.008 135.992 556.05C135.992 556.364 135.992 556.686 135.992 557H136Z" fill="#AB750F"/>
<path id="Vector_236" d="M111.975 575.926L111.492 576H111C111.041 575.372 111.361 575.025 112 575C112 575.306 112 575.62 111.975 575.926Z" fill="#AB750F"/>
<path id="Vector_237" d="M35.0388 640C35.3566 640.184 35.6822 640.368 36 640.552C35.6667 640.704 35.3333 640.848 35 641C35.0233 640.664 35.0388 640.336 35.0388 640Z" fill="#AB750F"/>
<path id="Vector_238" d="M307 551.984L306.51 552L306.028 551.928C306.003 551.622 305.995 551.308 306.003 551.002C306.698 550.97 307 551.332 307 551.984Z" fill="#AB750F"/>
<path id="Vector_239" d="M249 665C249.651 665 250 665.309 250 666C249.413 665.927 249.071 665.602 249 665Z" fill="#AB750F"/>
<path id="Vector_240" d="M15.9298 540.024C15.9869 540.35 16.0114 540.675 15.995 541C15.4078 540.919 15.0652 540.594 15 540C15.3099 540 15.6199 540.008 15.9298 540.024Z" fill="#AB750F"/>
<path id="Vector_241" d="M39.9803 634.916C39.659 634.991 39.3295 635.016 39 634.991C39.0412 634.358 39.3707 634.025 39.9968 634C40.005 634.308 39.9968 634.608 39.9803 634.916Z" fill="#AB750F"/>
<path id="Vector_242" d="M28 530C28.3335 530.091 28.8926 530.124 28.9514 530.281C29.1672 530.9 28.6277 531.008 28.049 531C28.049 530.669 28.0294 530.33 28.0098 530H28Z" fill="#AB750F"/>
<path id="Vector_243" d="M370 621.992C369.272 622.062 369.009 621.668 369 621.003C369.693 620.96 369.974 621.353 370 621.992Z" fill="#AB750F"/>
<path id="Vector_244" d="M316.991 550.018C317.037 550.365 316.917 550.698 316.312 550.918C316.091 550.997 315.614 551.028 315.376 550.971C314.595 550.782 315.238 550.584 315.458 550.404C315.623 550.259 315.862 550.132 316.073 550H316.541L317 550.022L316.991 550.018Z" fill="#AB750F"/>
<path id="Vector_245" d="M317 546.07C316.906 546.634 316.801 547.199 315.492 546.931C315.293 546.888 314.978 546.729 315.001 546.663C315.27 545.99 316.042 545.917 316.977 546.062L317 546.07Z" fill="#AB750F"/>
<path id="Vector_246" d="M313 551.931C313.241 551.624 313.472 551.307 313.713 551C314.457 551.98 313.583 551.891 313.03 552L313 551.931Z" fill="#AB750F"/>
<path id="Vector_247" d="M317 550L316.512 549.936H316.014C315.946 549.3 316.112 548.834 316.785 549.056C316.932 549.099 316.932 549.671 317 550Z" fill="#AB750F"/>
<path id="Vector_248" d="M19.927 512C20.0574 512.391 20.0574 512.984 19.5509 513C18.9754 513.015 18.9371 512.452 19.0522 512.056C19.3438 512.061 19.6354 512.046 19.927 512.005V512Z" fill="#AB750F"/>
<path id="Vector_249" d="M19.8917 511.92C19.5999 511.983 19.3158 512.006 19.0164 511.999C18.9166 511.225 19.2774 510.934 19.9838 511.012C20.0222 511.32 19.9915 511.62 19.8994 511.92H19.8917Z" fill="#AB750F"/>
<path id="Vector_250" d="M24.8419 291.788C24.2064 291.804 23.2748 292.408 23.0397 291.503C22.8133 290.614 23.5882 289.818 24.5198 290.036C25.4166 290.254 24.7723 291.193 24.8245 291.813L24.8419 291.788Z" fill="#AB750F"/>
<path id="Vector_251" d="M288.907 556.992C288.107 556.881 287.782 556.364 288.153 555.346C288.302 554.939 288.523 554.914 288.732 555.151C289.233 555.703 288.875 556.381 288.894 557H288.901L288.907 556.992Z" fill="#AB750F"/>
<path id="Vector_252" d="M143 265.98C142.67 265.818 142.33 265.667 142 265.505C142.186 265.333 142.361 265.172 142.546 265C142.691 265.333 142.835 265.667 142.969 266L143 265.97V265.98Z" fill="#AB750F"/>
<path id="Vector_253" d="M66.0219 268.513C66.1606 267.922 65.7663 267.099 67.066 267.004C67.5771 266.964 67.8473 267.257 67.8765 267.589C67.9203 268.09 68.3073 268.772 67.4384 268.986C67.066 269.082 66.4819 268.665 66 268.485L66.0219 268.513Z" fill="#AB750F"/>
<path id="Vector_254" d="M51.0502 471C51.3395 471.032 51.6248 471.063 51.9142 471.103C51.9468 471.829 52.2117 472.878 51.6085 472.988C50.8383 473.131 50.9972 471.931 51.0502 471Z" fill="#AB750F"/>
<path id="Vector_255" d="M283.022 413.08C283.455 412.908 283.816 412.99 283.997 413.557C284.025 413.656 283.867 413.971 283.78 413.989C283.289 414.07 283.079 413.692 283 413.143L283.022 413.08Z" fill="#AB750F"/>
<path id="Vector_256" d="M225.211 395C225.398 395.024 225.586 395.024 225.773 395.008C225.831 396.216 226.269 397.431 225.747 399C224.553 397.62 225.128 396.263 225.211 395Z" fill="#AB750F"/>
<path id="Vector_257" d="M360 481.875C360.03 481.576 360.074 481.278 360.119 480.98C360.61 480.855 360.908 480.518 361.019 480C362.456 480.447 362.098 481.184 361.317 482C360.878 481.961 360.439 481.922 360 481.882V481.875Z" fill="#AB750F"/>
<path id="Vector_258" d="M363 478C363.54 478.121 363.863 478.468 364 479C363.468 478.871 363.145 478.524 363 478Z" fill="#AB750F"/>
<path id="Vector_259" d="M17.032 276C17.6687 276 18.0666 276.473 17.9908 277.898C16.9828 278.153 16.9411 278.07 17.032 276Z" fill="#AB750F"/>
<path id="Vector_260" d="M16.9915 280.771C16.6333 280.78 16.1599 281.568 16.0107 280.168C15.9424 279.518 16.2154 279.119 16.4371 279.036C17.1023 278.776 16.936 279.982 17 280.761L16.9915 280.78V280.771Z" fill="#AB750F"/>
<path id="Vector_261" d="M30 353.345C29.8054 353.571 29.6231 353.79 29.4407 354C29.2826 353.891 28.9664 353.748 29.0029 353.664C29.088 353.429 29.3069 353.218 29.4771 353C29.6474 353.109 29.8054 353.219 30 353.336V353.345Z" fill="#AB750F"/>
<path id="Vector_262" d="M17 289.535C16.8919 289.682 16.7477 290.033 16.6532 289.998C16.4234 289.913 16.2162 289.661 16 289.478C16.2207 289.31 16.4324 289.072 16.6622 289.002C16.7477 288.973 16.8829 289.345 16.9955 289.528L17 289.535Z" fill="#AB750F"/>
<path id="Vector_263" d="M41.954 242.11C41.9386 242.391 41.954 242.665 42 242.93C41.7277 243.305 41.6089 244.359 41.1564 243.875C41.0337 243.742 40.9608 243.008 41.0222 242.665C41.1909 241.72 41.605 242.04 41.954 242.102V242.11Z" fill="#AB750F"/>
<path id="Vector_264" d="M126.944 415.009C126.957 415.736 127.203 416.564 126.549 416.993C126.454 417.058 126.072 416.667 126.031 416.415C125.868 415.41 126.365 415.14 126.964 415.028L126.944 415V415.009Z" fill="#AB750F"/>
<path id="Vector_265" d="M127.965 418.984L127.483 419L127 418.984C127.098 418.423 127.425 418.106 127.982 418C128.006 418.325 128.006 418.65 127.982 418.976L127.965 418.984Z" fill="#AB750F"/>
<path id="Vector_266" d="M98.0452 422C97.9925 421.664 97.9819 421.336 98.0347 421C98.5831 421.008 99.1525 421.084 98.9627 421.664C98.91 421.824 98.3616 421.891 98.0452 422Z" fill="#AB750F"/>
<path id="Vector_267" d="M104.023 283.992C103.94 283.509 104.072 283.125 104.627 283.002C104.727 282.979 105.008 283.186 105 283.263C104.942 283.777 104.536 283.954 104.039 284H104.014L104.023 283.992Z" fill="#AB750F"/>
<path id="Vector_268" d="M18.0751 293.014C17.9685 292.673 17.9767 292.341 18.0914 292C19.3374 292.184 18.9931 293.124 18.8292 293.972L18.4521 294L18.0751 293.972C18.0505 293.65 18.0505 293.327 18.0751 293.005V293.014Z" fill="#AB750F"/>
<path id="Vector_269" d="M111 573.024C110.966 573.545 110.79 573.962 110.27 574C110.178 574 109.977 573.716 110.002 573.621C110.145 573.062 110.53 572.939 111 573.024Z" fill="#AB750F"/>
<path id="Vector_270" d="M175.068 579C175.048 578.665 175.021 578.335 175 578C175.5 578 176.013 578 176 578.43C175.986 578.785 175.616 578.955 175.075 579H175.068Z" fill="#AB750F"/>
<path id="Vector_271" d="M17.0311 369.048C17.6512 369.181 18.1518 369.486 17.9575 370.449C17.9052 370.687 17.5018 371.059 17.4196 370.992C16.7846 370.516 17.061 369.705 17.0536 369L17.0311 369.038V369.048Z" fill="#AB750F"/>
<path id="Vector_272" d="M173.008 372.843C173.32 372.229 173.632 371.614 173.936 371C174.624 371.197 175.136 371.622 174.968 372.294C174.696 373.413 173.736 372.872 173 372.85L173.008 372.843Z" fill="#AB750F"/>
<path id="Vector_273" d="M134.653 651C134.438 650.827 134.223 650.655 134 650.47C134.107 650.31 134.24 649.977 134.331 650.001C134.562 650.075 134.777 650.297 135 650.457C134.893 650.618 134.785 650.79 134.653 650.988V651Z" fill="#AB750F"/>
<path id="Vector_274" d="M142.987 542.519C142.893 542.675 142.8 542.844 142.72 543C142.48 542.831 142.24 542.649 142 542.468C142.173 542.312 142.347 542.156 142.52 542C142.68 542.169 142.84 542.338 143 542.519H142.987Z" fill="#AB750F"/>
<path id="Vector_275" d="M39.5211 511C39.6896 511.224 39.9142 511.448 39.9985 511.681C40.0266 511.767 39.6615 511.888 39.4789 512C39.3104 511.776 39.0858 511.552 39.0015 511.319C38.9734 511.233 39.3385 511.112 39.5211 511Z" fill="#AB750F"/>
<path id="Vector_276" d="M28.9516 626.168C28.9677 626.726 28.9839 627.283 29 627.841C28.1367 627.902 26.8457 628.529 27.0151 626.787C27.1281 625.585 28.2173 626.099 28.9597 626.168H28.9516Z" fill="#AB750F"/>
<path id="Vector_277" d="M254.266 627.015C254.436 627.015 254.644 626.962 254.749 627.055C255.166 627.374 255.062 627.746 254.449 627.998C254.37 628.025 254.083 627.706 254.005 627.493C253.966 627.374 254.162 627.175 254.253 627.015H254.266Z" fill="#AB750F"/>
<path id="Vector_278" d="M383 520.542C382.823 520.708 382.633 521.013 382.468 521C382.304 520.986 382.152 520.653 382 520.458C382.177 520.292 382.367 519.987 382.532 520C382.696 520 382.848 520.347 383 520.542Z" fill="#AB750F"/>
<path id="Vector_279" d="M153 367.511C152.916 367.678 152.831 367.844 152.735 368C152.494 367.833 152.241 367.656 152 367.489C152.169 367.322 152.337 367.167 152.506 367C152.663 367.167 152.831 367.344 152.988 367.511H153Z" fill="#AB750F"/>
<path id="Vector_280" d="M38.8834 306C38.2865 305.976 37.6974 305.943 37.1005 305.919C37.0617 305.161 36.6586 304.118 37.7982 304.012C39.2478 303.873 39.054 305.006 38.8834 306Z" fill="#AB750F"/>
<path id="Vector_281" d="M189.13 552C189.729 552.025 190.319 552.05 190.918 552.074C190.926 552.817 191.352 553.872 190.18 553.988C188.581 554.136 189.04 552.907 189.13 552Z" fill="#AB750F"/>
<path id="Vector_282" d="M223 581.032C223.33 581.183 223.659 581.333 224 581.495C223.818 581.667 223.636 581.828 223.443 582C223.307 581.667 223.17 581.333 223.034 581L223 581.032Z" fill="#AB750F"/>
<path id="Vector_283" d="M97.9668 247C97.9779 247.336 97.9889 247.664 98 248C96.6946 247.695 96.6504 247.359 97.9668 247Z" fill="#AB750F"/>
<path id="Vector_284" d="M99 247.976L98.5203 248H98.0407C98.0325 247.661 98.0163 247.331 98 247C98.5854 247.087 98.9024 247.417 98.9919 247.976H99Z" fill="#AB750F"/>
<path id="Vector_285" d="M379.996 451C380.333 451 380.663 451 381 451C380.992 451.331 380.984 451.657 380.976 451.988L379 452C379.337 451.669 379.667 451.335 380.004 451H379.996Z" fill="#AB750F"/>
<path id="Vector_286" d="M281.952 544C281.635 544.339 281.317 544.661 281 545C281.048 544.79 281.032 544.484 281.175 544.371C281.397 544.194 281.714 544.145 282 544.032L281.968 544H281.952Z" fill="#AB750F"/>
<path id="Vector_287" d="M22.0562 454C21.9881 453.67 21.9784 453.33 22.0465 453C22.3676 453.165 22.6789 453.33 23 453.496C22.6886 453.661 22.3773 453.835 22.0659 454H22.0562Z" fill="#AB750F"/>
<path id="Vector_288" d="M197 548C197.656 548.016 197.944 548.38 198 548.998C197.304 549.03 197.024 548.642 197 548Z" fill="#AB750F"/>
<path id="Vector_289" d="M152 568.034C152.337 568.225 152.663 568.427 153 568.619C152.102 569.541 152.163 568.574 152.031 568L152 568.034Z" fill="#AB750F"/>
<path id="Vector_290" d="M323 410C323.076 409.412 323.39 409.059 324 409C323.932 409.597 323.602 409.933 323 410Z" fill="#AB750F"/>
<path id="Vector_291" d="M128 458C128.15 457.664 128.29 457.336 128.44 457C128.62 457.178 128.81 457.364 129 457.542C128.67 457.692 128.33 457.841 128 458Z" fill="#AB750F"/>
<path id="Vector_292" d="M54.9575 619C54.8192 619.33 54.6915 619.67 54.5638 620C54.3723 619.83 54.1915 619.66 54 619.5C54.3298 619.35 54.6702 619.19 55 619.04L54.9575 619.01V619Z" fill="#AB750F"/>
<path id="Vector_293" d="M135.24 339.009C135.432 339.095 135.624 339.104 135.824 339.026C135.8 339.805 136.592 341 135 341C135.08 340.333 135.16 339.667 135.248 339L135.24 339.009Z" fill="#AB750F"/>
<path id="Vector_294" d="M168.01 541.011C168.344 541.212 168.667 541.401 169 541.602C168.031 542.593 168.198 541.479 168.021 541L168 541.022L168.01 541.011Z" fill="#AB750F"/>
<path id="Vector_295" d="M17 299.244C16.72 299.308 16.5536 299.551 16.509 300C15.3404 299.026 16.5252 298.641 16.7038 298C17.0487 298.269 16.9107 298.827 17 299.244Z" fill="#AB750F"/>
<path id="Vector_296" d="M266 627C266 626.331 266.013 625.669 266.02 625C266.507 625.099 267 625.215 267 626.017C267 626.826 266.48 626.901 266.007 627H266Z" fill="#AB750F"/>
<path id="Vector_297" d="M61 429C60.8833 429.545 60.5583 429.893 60 430C60.1083 429.438 60.4333 429.099 61 429Z" fill="#AB750F"/>
<path id="Vector_298" d="M160 234.112C159.63 234.408 159.269 234.704 158.899 235C158.134 234.97 157.361 234.963 157 234.194C157.286 233.846 157.58 233.506 157.865 233.158C158.798 233.091 160.017 232.507 160 234.112Z" fill="#AB750F"/>
<path id="Vector_299" d="M367.969 535C368.01 535.336 368.01 535.664 367.969 536C367.641 535.897 367.086 535.836 367.035 535.672C366.85 535.052 367.435 535.017 367.969 535Z" fill="#AB750F"/>
<path id="Vector_300" d="M20 616.246C20.7545 616.03 21.5569 615.465 22 617.4C21.2216 617.809 20.3353 618.975 20 616.246Z" fill="#AB750F"/>
<path id="Vector_301" d="M2.83372 292.991C2.22515 292.932 1.61658 292.864 1 292.804C1.02402 292.243 1.04804 291.673 1.07206 291.112C2.56947 290.772 3.37823 291.154 2.82571 293L2.83372 292.991Z" fill="#AB750F"/>
<path id="Vector_302" d="M323.974 546C324.009 546.331 324.009 546.661 323.974 547C323.653 546.831 323.321 546.67 323 546.509C323.321 546.339 323.642 546.17 323.974 546.008V546Z" fill="#AB750F"/>
<path id="Vector_303" d="M314 476.962L313.5 477L313 476.972C313.042 476.48 313.008 475.865 313.661 476.026C313.822 476.064 313.881 476.631 313.992 476.953L314 476.962Z" fill="#AB750F"/>
<path id="Vector_304" d="M184 175C183.658 174.985 183.325 174.92 183 174.81C183.017 174.204 183.042 173.606 183.058 173C184.233 173.35 183.95 174.234 184 175Z" fill="#AB750F"/>
<path id="Vector_305" d="M171.008 157.993C171.231 157.797 171.332 157.551 171.309 157.261C171.602 157.304 171.841 157.217 172.019 157C172.582 157.109 173.029 157.319 172.998 157.964C172.335 157.971 171.664 157.986 171 158L171.008 157.993Z" fill="#AB750F"/>
<path id="Vector_306" d="M170.014 157.028C170.337 157.028 170.652 157.014 170.975 157C171.096 158.521 170.781 159.182 170 158.957C170 158.309 170.007 157.676 170.014 157.028Z" fill="#AB750F"/>
<path id="Vector_307" d="M193 442.95L192.5 443C192.5 443 191.991 442.975 192 442.975C192.019 442.329 192.047 441.674 192.066 441.028C192.368 440.995 192.66 440.987 192.962 441.028C192.972 441.666 192.991 442.312 193 442.95Z" fill="#AB750F"/>
<path id="Vector_308" d="M91.9906 185C92.0403 185.827 91.9078 186.558 91.2286 187C91.1209 186.144 90.4748 185.01 91.9906 185Z" fill="#AB750F"/>
<path id="Vector_309" d="M258.933 293C259.007 293.868 259.217 294.818 258.14 295C258.086 294.141 257.571 293.008 258.933 293Z" fill="#AB750F"/>
<path id="Vector_310" d="M18 293.011C17.9754 293.292 17.9754 293.573 18 293.854C17.1967 294.272 17.0984 293.717 17 293.147C17.3197 293.019 17.6557 292.978 18 293.011Z" fill="#AB750F"/>
<path id="Vector_311" d="M26.9875 317.112C27.0894 317.964 26.5402 318.378 26.308 319C25.8097 318.877 25.1982 319.092 25 318.14C25.5662 317.449 26.1155 316.705 26.9875 317.119V317.112Z" fill="#AB750F"/>
<path id="Vector_312" d="M125 680C124.984 680.413 124.935 680.814 124.003 681C123.987 680.579 124.003 680.17 125 680Z" fill="#AB750F"/>
<path id="Vector_313" d="M154.936 508.951L154.472 509L154 508.984C154 508.334 154.306 507.977 154.994 508.001C155.01 508.318 154.994 508.635 154.936 508.951Z" fill="#AB750F"/>
<path id="Vector_314" d="M190 539.316C189.972 539.857 189.943 540.398 189.915 540.939C189.292 540.962 188.674 540.977 188.057 541C188.04 540.428 188.023 539.857 188 539.285C188.669 538.896 189.337 538.904 190 539.316Z" fill="#AB750F"/>
<path id="Vector_315" d="M213 617.02C213.332 617.012 213.668 617.008 214 617C213.988 617.335 213.976 617.665 213.964 618C213.656 617.992 213.348 617.98 213.04 617.971C213.028 617.653 213.012 617.339 213 617.02Z" fill="#AB750F"/>
<path id="Vector_316" d="M60 420.049C60.3363 419.984 60.6637 419.984 61 420.049C60.9027 420.7 60.8142 421.35 60.7168 422H60.2478C60.1681 421.359 60.0885 420.709 60 420.059V420.049Z" fill="#AB750F"/>
<path id="Vector_317" d="M195 345H194.5H194C194 344.664 194 344.336 194 344C194.331 344 194.669 344 195 344C195 344.336 195 344.664 195 345Z" fill="#AB750F"/>
</g>
<g id="Group 420">
<path id="Vector 305_2" d="M10 9L0 20V4H134L143 17L134 9H10Z" fill="#CB9A40"/>
<path id="Vector 305 (Stroke)" fill-rule="evenodd" clip-rule="evenodd" d="M9.15527e-05 19.9999L0 4H134L143 17L133.24 11H10.8848L9.15527e-05 19.9999ZM10.0001 9H134L143 17L134 4H0L9.15527e-05 19.9999L10.0001 9Z" fill="#AB750F"/>
</g>
<g id="Group 421">
<path id="Vector 305_3" d="M384 9L394 20V4H260L251 17L260 9H384Z" fill="#CB9A40"/>
<path id="Vector 305 (Stroke)_2" fill-rule="evenodd" clip-rule="evenodd" d="M394 19.9999L394 4H260L251 17L260.76 11H383.115L394 19.9999ZM384 9H260L251 17L260 4H394L394 19.9999L384 9Z" fill="#AB750F"/>
</g>
</g>
<g id="Group 419">
<path id="Rectangle 293" d="M394 732H275L266 737.958H197V746H394V732Z" fill="url(#paint6_linear_3464_25385)"/>
<g id="Group 422">
<path id="Rectangle 292_3" d="M0 732H119L128 737.958H197V746H0V732Z" fill="#CB9A40"/>
<path id="Rectangle 292 (Stroke)" fill-rule="evenodd" clip-rule="evenodd" d="M128 737.958L119 732H0V746H197V737.958H128ZM195 739.958H127.398L118.398 734L0 732V746H197L195 739.958Z" fill="#AB750F"/>
</g>
<g id="Group 423">
<path id="Rectangle 292_4" d="M394 732H275L266 737.958H197V746H394V732Z" fill="#CB9A40"/>
<path id="Rectangle 292 (Stroke)_2" fill-rule="evenodd" clip-rule="evenodd" d="M266 737.958L275 732H394V746H197V737.958H266ZM199 739.958H266.602L275.602 734L394 732V746H197L199 739.958Z" fill="#AB750F"/>
</g>
<g id="Group 215">
<path id="Vector 304_2" d="M206 743L197 726L188 743L197 757L206 743Z" fill="#AB750F"/>
<path id="Vector 301_2" d="M188 743L197 726V757L188 743Z" fill="#D8A956"/>
<path id="Vector 305_4" d="M197 726L188 743L197 729L206 743L197 726Z" fill="white" fill-opacity="0.5"/>
</g>
</g>
<g id="Gold">
<path id="Vector_318" d="M305.876 351.551L253.797 388.874C253.797 388.874 205.19 324.643 139.224 377.59L109.278 347.645C109.278 347.645 139.621 312.736 170 311V296H218V311C217.358 311 254.665 311.624 305.876 351.551Z" fill="#AB750F" fill-opacity="0.1"/>
<path id="Vector_319" d="M87.8848 540.449L139.964 503.126C139.964 503.126 188.57 567.357 254.537 514.41L284.482 544.355C284.482 544.355 254.38 579.264 224 581V596H176V581C176 581 139.096 580.376 87.8848 540.449Z" fill="#AB750F" fill-opacity="0.1"/>
<path id="Vector_320" d="M102.554 355.457C102.554 355.457 101.824 422.725 197.302 425.329C292.78 427.933 337.915 479.144 294.516 535.562C294.516 535.562 284.001 469.596 176.395 469.596C59 469.596 83.0006 371 102.554 355.457Z" fill="#AB750F" fill-opacity="0.1"/>
</g>
</g>
<defs>
<linearGradient id="paint0_linear_3464_25385" x1="255.096" y1="12.0909" x2="236.143" y2="12.7749" gradientUnits="userSpaceOnUse">
<stop stop-color="#AB750F"/>
<stop offset="1" stop-color="#CB9A40"/>
</linearGradient>
<linearGradient id="paint1_linear_3464_25385" x1="138.904" y1="12.0909" x2="157.857" y2="12.7749" gradientUnits="userSpaceOnUse">
<stop stop-color="#AB750F"/>
<stop offset="1" stop-color="#CB9A40"/>
</linearGradient>
<linearGradient id="paint2_linear_3464_25385" x1="196" y1="18.1106" x2="142" y2="18.1106" gradientUnits="userSpaceOnUse">
<stop stop-color="#AB750F"/>
<stop offset="1" stop-color="#AB750F" stop-opacity="0"/>
</linearGradient>
<linearGradient id="paint3_linear_3464_25385" x1="198" y1="18.1106" x2="251" y2="18.1106" gradientUnits="userSpaceOnUse">
<stop stop-color="#AB750F"/>
<stop offset="1" stop-color="#AB750F" stop-opacity="0"/>
</linearGradient>
<linearGradient id="paint4_linear_3464_25385" x1="313.54" y1="350.142" x2="313.54" y2="757.798" gradientUnits="userSpaceOnUse">
<stop stop-color="#D9D9D9" stop-opacity="0"/>
<stop offset="1" stop-color="#D8A956"/>
</linearGradient>
<linearGradient id="paint5_linear_3464_25385" x1="303.871" y1="577.254" x2="303.871" y2="778.915" gradientUnits="userSpaceOnUse">
<stop stop-color="#D9D9D9" stop-opacity="0"/>
<stop offset="1" stop-color="#D8A956"/>
</linearGradient>
<linearGradient id="paint6_linear_3464_25385" x1="224.519" y1="738.22" x2="379.262" y2="738.22" gradientUnits="userSpaceOnUse">
<stop stop-color="#D8A956"/>
<stop offset="0.711424" stop-color="#AB750F"/>
</linearGradient>
</defs>
</svg>
