<svg width="394" height="757" viewBox="0 0 394 757" fill="none" xmlns="http://www.w3.org/2000/svg">
<g id="jungle">
<g id="jungle">
<path id="Rectangle 291" d="M259 25H238L230 35H253L259 25Z" fill="url(#paint0_linear_2250_89410)"/>
<path id="Rectangle 290" d="M135 25H156L164 35H141L135 25Z" fill="url(#paint1_linear_2250_89410)"/>
<path id="Vector 302" d="M49.0001 20L4.57764e-05 0V25H136.5L133 20H49.0001Z" fill="url(#paint2_linear_2250_89410)"/>
<path id="Vector 304" d="M344.5 20L393.5 0V25H257L260.5 20H344.5Z" fill="url(#paint3_linear_2250_89410)"/>
<path id="Rectangle 293" d="M394 754H275L266 748.042H197V740H394V754Z" fill="url(#paint4_linear_2250_89410)"/>
<path id="Rectangle 292" d="M0.00012207 754H119L128 748.042H197V740H0.00012207V754Z" fill="url(#paint5_linear_2250_89410)"/>
<path id="Rectangle 289" d="M0.00012207 21H133L142 34H251L260 21H394V741H0.00012207V21Z" fill="#F5F1EE"/>
<path id="Vector 133 (Stroke)" fill-rule="evenodd" clip-rule="evenodd" d="M142 36L196 36L196 33L142 33L142 36Z" fill="url(#paint6_linear_2250_89410)"/>
<path id="Vector 132 (Stroke)" fill-rule="evenodd" clip-rule="evenodd" d="M251 36L198 36L198 33L251 33L251 36Z" fill="url(#paint7_linear_2250_89410)"/>
<g id="Group 214">
<path id="Vector 304_2" d="M206 33.9999L197 17L188 33.9999L197 48L206 33.9999Z" fill="#AB750F"/>
<path id="Vector 301" d="M188 33.9999L197 17V48L188 33.9999Z" fill="#FFC502"/>
<path id="Vector 305" d="M197 17L188 34L197 20L206 34L197 17Z" fill="white" fill-opacity="0.3"/>
</g>
<g id="Mask group">
<mask id="mask0_2250_89410" style="mask-type:alpha" maskUnits="userSpaceOnUse" x="0" y="21" width="395" height="720">
<path id="Union" d="M133 21H0.00012207L0.000181556 741H394V21H260L251 34H142L133 21Z" fill="#F5F1EE"/>
</mask>
<g mask="url(#mask0_2250_89410)">
<path id="Union_2" fill-rule="evenodd" clip-rule="evenodd" d="M179.266 646.283L182.377 586.656L168.253 541.829L137.55 512.354L113.602 537.531L102.549 617.973L87.1972 608.148L65.091 552.268L50.3535 571.918V512.354L38.0722 460.773L17.1941 436.825L0.000343323 512.354L-5.52622 502.529L-19.0356 590.34L-30.7028 598.937C-33.9778 619.406 -41.1418 660.589 -43.5981 661.572C-46.0543 662.554 -51.9903 647.243 -54.6512 639.465C-60.5872 654.408 -72.9503 684.783 -74.9153 686.748L-96.4075 762.892C-92.3101 773.608 -50.4065 752.536 -29.9947 742.271C-23.8945 739.204 -19.7138 737.101 -19.0356 737.101C-16.0881 737.101 8.8019 733.008 20.8785 730.961L0.000343323 753.067H259.749L255.589 746.926H479.583L466.688 727.89L423.089 659.115L413.264 680.608L398.527 651.133L402.211 580.515L388.088 535.689L357.384 506.214L333.436 531.39L322.383 611.833L307.031 602.008L284.925 546.128L270.188 565.778V506.214L257.906 454.633L237.028 430.684L219.834 506.214L214.308 496.389L200.799 584.2L189.131 592.797C186.785 607.46 182.443 632.754 179.266 646.283Z" fill="url(#paint8_linear_2250_89410)" fill-opacity="0.3"/>
</g>
</g>
<g id="Mask group_2">
<mask id="mask1_2250_89410" style="mask-type:alpha" maskUnits="userSpaceOnUse" x="0" y="21" width="394" height="720">
<path id="Union_3" d="M133 21H0.00012207V741H394V21H260L251 34H142L133 21Z" fill="#F5F1EE"/>
</mask>
<g mask="url(#mask1_2250_89410)">
<path id="Union_4" fill-rule="evenodd" clip-rule="evenodd" d="M-46.6688 724.206C-37.8672 705.784 -19.2816 668.572 -15.3516 667.098C-11.4216 665.625 -1.02349 648.472 3.68433 640.08L15.3515 672.011C18.2171 668.736 24.0712 663.168 24.5624 667.098C25.0537 671.028 32.9546 693.298 36.8437 703.942L68.1609 634.553L90.8812 660.344L117.9 606.306L154.744 672.011L170.709 651.133C175.345 661.099 182.763 676.709 188.683 688.376C194.724 677.007 200.113 667.816 202.027 667.098C205.957 665.625 216.355 648.472 221.062 640.08L232.73 672.011C235.595 668.736 241.449 663.168 241.941 667.098C242.432 671.028 250.333 693.298 254.222 703.942L285.539 634.553L308.259 660.344L335.278 606.306L372.122 672.011L388.087 651.133C396.275 668.736 413.141 703.942 415.106 703.942C417.071 703.942 435.984 735.464 445.195 751.225L153.516 754.909L155.064 752.144L-63.8625 754.909L-46.6688 724.206Z" fill="url(#paint9_linear_2250_89410)" fill-opacity="0.6"/>
</g>
</g>
<g id="Group 215">
<path id="Vector 304_3" d="M206 743L197 726L188 743L197 757L206 743Z" fill="#AB750F"/>
<path id="Vector 301_2" d="M188 743L197 726V757L188 743Z" fill="#FFC502"/>
<path id="Vector 305_2" d="M197 726L188 743L197 729L206 743L197 726Z" fill="white" fill-opacity="0.3"/>
</g>
<g id="Group" opacity="0.35">
<path id="Vector" d="M142.974 277.487C142.106 278.155 142.501 279.269 142.099 280.11C141.516 281.324 141.212 281.318 140.02 279.956L140 279.89C140.434 279.603 140.557 279.169 140.557 278.668C140.771 278.595 140.855 278.441 140.804 278.208C141.283 277.954 141.452 277.501 141.542 277L141.516 277.033C142.009 277.147 142.508 277.254 143 277.367L142.981 277.487H142.974Z" fill="#AB750F"/>
<path id="Vector_2" d="M136.605 359.004C136.724 359.317 136.842 359.629 136.961 359.942C136.971 360.544 136.98 361.139 137 361.742C136.911 362.084 136.822 362.433 136.734 362.776C135.895 363.029 135.056 363.103 134.207 362.813C134.138 361.838 134.069 360.864 134 359.897C134.168 359.607 134.197 359.309 134.109 358.997C134.405 358.826 134.494 358.603 134.385 358.335C134.77 358.223 135.155 358.112 135.54 358C135.895 358.335 136.25 358.677 136.605 359.012V359.004Z" fill="#AB750F"/>
<path id="Vector_3" d="M65.0678 371.729C64.8029 370.61 65.3795 369.866 65.6912 369H65.7015C65.9197 369 66.1327 369.007 66.3508 369.022C66.3924 369.303 66.4236 369.599 66.4391 369.895C66.4755 370.22 66.5067 370.552 66.5378 370.877C66.6937 371.159 66.8443 371.433 67.0001 371.715C66.9897 371.982 66.9793 372.256 66.9793 372.523C66.7768 372.596 66.5742 372.675 66.3768 372.776C66.1483 372.848 65.9197 372.928 65.6912 373C65.5873 372.841 65.5925 372.682 65.7067 372.538C65.634 372.054 65.3795 371.859 65.073 371.736L65.0678 371.729Z" fill="#AB750F"/>
<path id="Vector_4" d="M262.106 329.181C263.3 328.76 264.085 329.009 263.993 330.63C263.95 331.425 263.866 332.213 263.795 333L263.816 332.977C262.954 333.133 262.763 332.104 262.156 331.807C262.297 331.511 262.247 331.262 262 331.067C262.043 330.428 262.085 329.789 262.127 329.149L262.106 329.181Z" fill="#AB750F"/>
<path id="Vector_5" d="M202.756 447C201.641 446.324 201.867 445.631 202.736 444.939C203.187 444.843 203.427 444.485 203.563 444C204.117 444.032 204.877 443.976 204.979 444.692C205.15 445.83 204.234 445.846 203.577 446.037C203.119 446.141 202.886 446.507 202.756 446.992V447Z" fill="#AB750F"/>
<path id="Vector_6" d="M197.621 537.049V537C198.079 538.462 198.244 539.85 197.412 540.967L197.426 541C197.214 540.072 196.858 539.234 197.06 538.043L197.001 538.191C197.207 537.813 197.415 537.435 197.621 537.058V537.049Z" fill="#AB750F"/>
<path id="Vector_7" d="M56.984 297.492C56.8442 297.724 56.6829 297.931 56.5699 298.186C56.2366 298.936 55.7741 299.295 55.2848 298.705C54.774 298.083 55.0375 297.348 55.3977 296.726C55.5322 296.487 55.6558 296.239 55.7903 296L55.7688 296.016C56.3818 296.112 56.5699 297.013 57.0001 297.46L56.984 297.5V297.492Z" fill="#AB750F"/>
<path id="Vector_8" d="M128.939 307.955C128.6 307.968 128.262 307.987 127.923 308C127.8 307.357 127.862 306.643 127 306.286C127.039 305.766 127.062 305.097 127.746 305.013C128.831 304.883 128.754 305.779 129 306.35C128.977 306.883 128.954 307.416 128.931 307.955H128.939Z" fill="#AB750F"/>
<path id="Vector_9" d="M299.693 369C299.249 369 298.806 369 298.362 369C298.238 368.561 298.115 368.117 298 367.678C298.674 367.456 299.356 367.239 300.03 367.017L299.997 367C300.293 367.444 300.581 367.889 300.877 368.333L301 368.283C300.565 368.522 300.129 368.761 299.693 368.994V369Z" fill="#AB750F"/>
<path id="Vector_10" d="M14.0001 324.183L13.9839 324.488C13.3833 325.154 12.7395 325.089 12.0794 324.752L12.1606 324.865C11.9387 323.91 11.9496 322.955 12.1768 322L12.0956 322.161C13.0425 322.177 13.5727 323.067 13.9947 324.183H14.0001Z" fill="#AB750F"/>
<path id="Vector_11" d="M84.1622 481C84.008 479.319 83.8138 477.639 84.3735 476H84.5563C84.7448 477.709 85.6471 479.494 84.1622 481Z" fill="#AB750F"/>
<path id="Vector_12" d="M208.989 690.373C208.989 690.785 208.994 691.196 209 691.599C208.353 692.105 207.682 692.105 207 691.749L207.075 691.868C207.087 691.291 207.104 690.705 207.116 690.128L207.041 690.239C207.7 689.883 208.353 689.922 208.983 690.373H208.989Z" fill="#AB750F"/>
<path id="Vector_13" d="M148.745 659C148.343 658.67 147.899 658.392 147.553 658.009C147.069 657.471 146.666 656.741 147.414 656.193C148.088 655.698 148.638 656.236 149 656.897C148.91 657.592 148.828 658.296 148.745 658.991V659Z" fill="#AB750F"/>
<path id="Vector_14" d="M222.019 348.008C224.114 348.621 224.373 349.105 223.603 351C223.331 350.669 223.06 350.331 222.789 350H222.795C222.536 349.685 222.271 349.355 222.012 349.024L222 349.008C222 348.669 222 348.339 222.019 348V348.008Z" fill="#AB750F"/>
<path id="Vector_15" d="M360.993 499.13C360.837 500.084 360.689 501.046 360.534 502L360.583 501.965L359 500.96C359.014 500.474 359.035 499.988 359.049 499.503C359.311 499.399 359.544 499.234 359.749 499C360.166 499.043 360.583 499.087 361 499.13H360.993Z" fill="#AB750F"/>
<path id="Vector_16" d="M184.992 189.041C184.984 190.344 184.967 191.647 184.959 192.95C184.408 193.083 184.004 192.975 183.947 192.311C183.897 191.44 184.177 190.436 183.017 190.037C183.025 189.689 183.041 189.349 183.05 189L183 189.05C183.667 189.05 184.333 189.041 185 189.041H184.992Z" fill="#AB750F"/>
<path id="Vector_17" d="M324.805 568.007C325.978 568.199 325.602 569.187 325.771 569.894C325.845 570.219 325.926 570.543 326 570.867L325.72 571L325.506 570.772C325.314 570.86 325.114 570.875 324.908 570.801C323.867 570.609 324.022 569.784 324 569.054C324.421 568.818 324.782 568.545 324.797 568L324.805 568.007Z" fill="#AB750F"/>
<path id="Vector_18" d="M37.0001 570.496V570.135C37.3471 569.759 37.6942 569.376 38.0412 569C40.0046 569.135 40.7169 569.681 39.1279 571C38.4156 570.83 37.7124 570.667 37.0001 570.496Z" fill="#AB750F"/>
<path id="Vector_19" d="M346.777 481H346.484C346.322 480.592 346.161 480.183 346 479.775C346.191 479.654 346.271 479.508 346.249 479.325C346.835 479.22 347.414 479.11 348 479C347.985 479.45 347.971 479.895 347.956 480.346C347.561 480.56 347.172 480.78 346.777 480.995V481Z" fill="#AB750F"/>
<path id="Vector_20" d="M250 472.892C250 472.618 250 472.335 250 472.061C250.312 471.679 250.632 471.296 250.944 470.914H250.96C251.432 470.607 251.904 470.307 252.384 470.017L252.512 470C252.672 470.657 252.84 471.313 253 471.97L252.968 472.003C252.44 472.119 252.104 472.443 251.968 473C251.312 472.967 250.656 472.925 250 472.892Z" fill="#AB750F"/>
<path id="Vector_21" d="M138.983 543.398C138.632 543.84 138.142 544.176 137.389 543.899C136.847 543.705 136.96 543.309 137.197 542.973C137.416 542.661 137.669 542.354 137.915 542.041C138.274 542.029 138.641 542.012 139 542C139 542.466 139 542.932 138.991 543.398H138.983Z" fill="#AB750F"/>
<path id="Vector_22" d="M75.0001 420.673C74.8064 420.791 74.5945 421.028 74.4311 420.997C74.0134 420.91 73.8802 420.542 74.1163 420.186C74.2131 420.043 74.5945 419.949 74.7338 420.03C74.8912 420.124 74.9154 420.448 75.0001 420.673Z" fill="#AB750F"/>
<path id="Vector_23" d="M129.026 446C128.345 445.939 127.914 445.566 128.015 444.87C128.115 444.204 128.625 443.861 129.256 444.053C129.547 444.144 129.897 444.517 129.968 444.82C130.128 445.526 129.677 445.889 129.026 446Z" fill="#AB750F"/>
<path id="Vector_24" d="M217.82 168.036C218.005 168.304 218.035 168.594 217.905 168.891C217.966 169.101 217.943 169.304 217.843 169.493C218.012 169.638 218.043 169.812 217.943 170C217.383 169.514 216.73 169.739 216.1 169.783C216.069 169.188 216.031 168.594 216 168C216.607 168.007 217.206 168.014 217.813 168.022L217.82 168.036Z" fill="#AB750F"/>
<path id="Vector_25" d="M209 468C208.496 467.91 207.905 467.852 208.013 466.787C208.084 466.115 208.577 466.041 208.984 466C208.989 466.664 208.995 467.328 209 468Z" fill="#AB750F"/>
<path id="Vector_26" d="M173.558 175C173.298 175 173.045 175 172.785 174.992C172.804 174.313 172.445 174.092 172 173.977C172 173.679 172.019 173.382 172.043 173.084C172.544 173.053 173.045 173.031 173.545 173C174.509 173.656 173.657 174.328 173.558 175Z" fill="#AB750F"/>
<path id="Vector_27" d="M170.575 182C170.721 182.161 171 182.323 171 182.484C171 182.921 170.651 183.106 170.252 182.939C170.1 182.873 169.96 182.514 170.011 182.341C170.055 182.191 170.379 182.114 170.582 182.006L170.575 182Z" fill="#AB750F"/>
<path id="Vector_28" d="M91.0001 195.351C90.8094 195.582 90.5941 196.058 90.428 195.994C90.0158 195.814 89.8805 195.081 90.1143 194.36C90.2066 194.077 90.588 193.897 90.7294 194.064C90.8832 194.257 90.914 194.901 91.0001 195.351Z" fill="#AB750F"/>
<path id="Vector_29" d="M190.035 210C190.025 209.333 190.015 208.667 190 208C190.476 208.088 191.097 208.032 190.987 209.197C190.923 209.896 190.427 209.96 190.035 210Z" fill="#AB750F"/>
<path id="Vector_30" d="M39.0001 501.263C38.8209 501.521 38.6357 502.024 38.4744 501.999C38.0503 501.913 37.8831 501.226 38.0862 500.466C38.1698 500.159 38.5461 499.902 38.7014 500.037C38.8568 500.172 38.9045 500.834 39.0001 501.263Z" fill="#AB750F"/>
<path id="Vector_31" d="M170 241.635C169.82 241.767 169.634 242.018 169.472 241.999C169.058 241.943 168.889 241.591 169.076 241.215C169.154 241.065 169.532 240.952 169.688 241.021C169.844 241.096 169.898 241.422 170 241.635Z" fill="#AB750F"/>
<path id="Vector_32" d="M71.0082 244.858C71.0568 244.083 71.1135 243.109 71.8503 243.015C73.0568 242.854 72.9515 244.055 73.0001 245C72.3362 244.953 71.6722 244.905 71.0001 244.868L71.0082 244.858Z" fill="#AB750F"/>
<path id="Vector_33" d="M337.399 248C337.559 248.071 337.844 248.107 337.921 248.25C338.099 248.57 337.968 248.897 337.613 248.992C337.458 249.034 337.144 248.903 337.073 248.76C336.919 248.452 337.002 248.143 337.399 248Z" fill="#AB750F"/>
<path id="Vector_34" d="M73.1544 512C72.0122 511.609 71.9466 510.827 72.0215 510C73.8192 510.155 74.8116 510.605 73.1544 512Z" fill="#AB750F"/>
<path id="Vector_35" d="M271.004 515C271 514.193 271.02 513.18 271.366 513.033C271.924 512.787 271.964 513.967 272 514.97L271 515H271.004Z" fill="#AB750F"/>
<path id="Vector_36" d="M28.8321 276L28.5441 275.967L28.2561 275.994C28.1681 275.543 28.0881 275.092 28.0001 274.646L28.0161 274.635C28.4161 274.423 28.8241 274.212 29.2241 274C29.4001 274.039 29.5761 274.039 29.7601 274C29.8401 274.446 29.9201 274.897 30.0001 275.343C29.6081 275.56 29.2161 275.783 28.8241 276H28.8321Z" fill="#AB750F"/>
<path id="Vector_37" d="M391.986 283.896C392.03 284.752 391.994 285.536 391.56 286C391.378 285.616 391.195 285.24 391.012 284.856C391.008 284.28 391.004 283.712 391 283.136C391.159 283.048 391.322 283 391.485 283L391.501 283.024C391.664 283.312 391.823 283.6 391.986 283.888V283.896Z" fill="#AB750F"/>
<path id="Vector_38" d="M60.9921 293.956C60.1044 294.59 59.2167 295.241 58.0062 294.912C57.9981 294.614 57.9981 294.316 58.0062 294.019C58.3451 293.682 58.6841 293.337 59.0311 293L59.0068 293.024C59.6605 293.055 60.3142 293.078 60.9759 293.11C60.9598 293.392 60.9759 293.682 61.0001 293.964L60.9921 293.956Z" fill="#AB750F"/>
<path id="Vector_39" d="M28.0001 535C28.0101 534.333 28.0301 533.667 28.0402 533C28.8311 533.04 29.8422 533.096 29.9724 533.787C30.2026 534.936 28.9512 534.896 28.0001 535Z" fill="#AB750F"/>
<path id="Vector_40" d="M32.0042 301.857C32.0328 301.102 32.0369 300.109 32.4083 300.013C32.9879 299.86 32.9675 301.054 33.0001 302C32.6654 301.952 32.3348 301.904 32.0001 301.866L32.0042 301.857Z" fill="#AB750F"/>
<path id="Vector_41" d="M223 542.008C223.664 542.008 224.328 542.008 225 542.016C224.977 542.68 224.962 543.344 224.94 544L223.355 543.944C223.234 543.296 223.121 542.648 223 542V542.008Z" fill="#AB750F"/>
<path id="Vector_42" d="M127 307C127.005 307.834 126.931 308.598 126.424 309C125.506 307.417 126.258 307.208 127 307Z" fill="#AB750F"/>
<path id="Vector_43" d="M131.81 549C131.599 549 131.384 549 131.174 549C131.128 548.342 131.083 547.675 131.033 547.017L131 547.085C131.335 547.068 131.665 547.051 132 547.043L131.979 547C131.926 547.667 131.868 548.333 131.81 549Z" fill="#AB750F"/>
<path id="Vector_44" d="M276.952 319C276.068 318.936 274.702 318.923 275.058 318.358C275.452 317.739 276.404 318.026 277 318.44C276.991 318.627 276.971 318.813 276.942 319H276.952Z" fill="#AB750F"/>
<path id="Vector_45" d="M167.89 555C167.598 554.746 167.113 554.537 167.037 554.239C166.854 553.423 167.372 552.949 168.106 553.004C168.861 553.059 169.163 553.71 168.915 554.383C168.807 554.68 168.246 554.802 167.89 555Z" fill="#AB750F"/>
<path id="Vector_46" d="M254 555.422C254.163 555.271 254.326 555 254.488 555C254.928 555 255.103 555.353 254.94 555.75C254.874 555.901 254.512 556.04 254.344 555.989C254.193 555.945 254.115 555.618 254.006 555.422H254Z" fill="#AB750F"/>
<path id="Vector_47" d="M230.458 331C230.091 330.899 229.917 330.631 230.039 330.286C230.091 330.143 230.382 329.989 230.551 330.001C230.929 330.036 231.075 330.358 230.964 330.697C230.918 330.839 230.632 330.899 230.458 331Z" fill="#AB750F"/>
<path id="Vector_48" d="M170.994 564.76C170.913 565.126 170.883 565.686 170.743 565.846C170.422 566.189 170.095 565.949 170.008 565.229C169.967 564.909 170.095 564.292 170.241 564.143C170.562 563.8 170.843 564.098 171 564.772L170.994 564.76Z" fill="#AB750F"/>
<path id="Vector_49" d="M292.941 343.143C292.963 343.759 292.978 344.376 293 345C292.405 344.865 291.811 344.737 291.208 344.602C291.253 344.338 291.179 344.113 291 343.917C291.052 343.609 291.097 343.301 291.134 343C291.736 343.053 292.338 343.098 292.941 343.143Z" fill="#AB750F"/>
<path id="Vector_50" d="M116.996 569C116.665 568.975 116.331 568.951 116 568.926C116 568.279 116 567.639 116 567C116.331 567 116.657 567 116.988 567C116.988 567.664 116.996 568.328 117 568.992L116.996 569Z" fill="#AB750F"/>
<path id="Vector_51" d="M224.935 346C225.785 346.09 226.649 346.127 227 347.09L226.891 347.179C226.564 347.455 226.229 347.724 225.901 348L225.449 347.985H224.998C224.662 347.657 224.335 347.321 224 346.993C224.312 346.664 224.624 346.328 224.935 346Z" fill="#AB750F"/>
<path id="Vector_52" d="M90.0043 570.089C90.3383 570.061 90.6682 570.028 90.9981 570C91.0023 570.377 91.0273 570.885 90.6849 570.975C90.1212 571.126 90.0544 570.57 90.0001 570.089H90.0043Z" fill="#AB750F"/>
<path id="Vector_53" d="M176.573 574C176.724 574.161 177 574.321 177 574.482C177 574.922 176.655 575.106 176.253 574.939C176.097 574.874 175.965 574.511 176.009 574.333C176.046 574.184 176.373 574.107 176.573 574Z" fill="#AB750F"/>
<path id="Vector_54" d="M45.9033 585C45.1481 584.943 44.1219 584.992 44.0154 584.255C43.8508 583.138 45.0513 583.113 46.0001 583C45.9711 583.664 45.942 584.336 45.913 585H45.9033Z" fill="#AB750F"/>
<path id="Vector_55" d="M34.975 586.303C34.975 586.77 34.9918 587.238 35.0001 587.705C34.3307 587.803 33.6612 587.902 33.0001 588C33.0001 587.336 33.0001 586.672 33.0085 586C33.6696 586.098 34.3223 586.197 34.975 586.295V586.303Z" fill="#AB750F"/>
<path id="Vector_56" d="M301 590.32C301.053 589.379 300.863 588.121 301.557 588.019L301.549 588C301.698 588.55 301.851 589.09 302 589.64V589.882C301.706 590.255 301.415 590.627 301.121 591C301.165 590.693 301.121 590.469 301 590.32Z" fill="#AB750F"/>
<path id="Vector_57" d="M158 590.16C158.669 590.104 159.33 590.047 159.999 590C159.999 590.755 160.049 591.774 159.364 591.953C158.234 592.245 158.109 591.123 158 590.17V590.16Z" fill="#AB750F"/>
<path id="Vector_58" d="M173.908 596C173.046 595.865 171.713 595.874 172.055 594.724C172.426 593.492 173.37 594.041 174 594.832C173.972 595.218 173.945 595.614 173.917 596H173.908Z" fill="#AB750F"/>
<path id="Vector_59" d="M370.797 635C371.113 635.262 371.46 635.511 371.753 635.785C372.099 636.107 372.069 636.509 371.738 636.776C371.045 637.348 370.662 636.673 370.293 636.411C369.743 636.022 370.119 635.493 370.21 635.018C370.406 635.067 370.609 635.061 370.805 635H370.797Z" fill="#AB750F"/>
<path id="Vector_60" d="M1.13442 466.937C0.794469 465.208 1.11071 464.692 1.96059 465.169L1.94873 465.13C1.95268 465.443 1.9685 465.764 2.00012 466.069V466.085C1.81038 466.39 1.62064 466.695 1.43485 467L1.29254 466.859L1.13838 466.93L1.13442 466.937Z" fill="#AB750F"/>
<path id="Vector_61" d="M386.025 301.976C386.017 301.322 386.008 300.66 386 300.006C386.403 299.965 386.761 300.127 387 300.829C386.828 301.217 386.655 301.604 386.479 302L386.252 301.968H386.025V301.976Z" fill="#AB750F"/>
<path id="Vector_62" d="M35.9586 304.098C35.8418 304.414 36.3628 304.879 35.4285 304.996C35.0692 305.038 34.5751 304.768 34.1439 304.642H34.0001C34.4852 304.428 34.9704 304.214 35.4555 304C35.5723 304.112 35.734 304.144 35.9586 304.098Z" fill="#AB750F"/>
<path id="Vector_63" d="M42.0031 305C41.9788 304.191 42.104 303.511 42.4108 303C42.6086 303.332 42.8023 303.664 43.0001 303.996C42.9719 304.294 42.9638 304.6 42.9759 304.898L42.0031 305Z" fill="#AB750F"/>
<path id="Vector_64" d="M22.0108 485C22.001 484.58 21.9227 484.024 22.3977 484C22.7993 483.983 22.9756 484.444 23.0001 484.929C22.672 484.953 22.339 484.976 22.0108 485Z" fill="#AB750F"/>
<path id="Vector_65" d="M302.181 333L302 331.913C302.143 331.669 302.233 331.402 302.256 331.118C302.511 331.071 302.767 331.031 303.023 331C303.346 331.386 303.677 331.772 304 332.165C303.932 332.331 303.932 332.504 303.985 332.677C303.384 332.787 302.782 332.898 302.181 333Z" fill="#AB750F"/>
<path id="Vector_66" d="M282.494 503C282.662 503.341 282.833 503.682 283 504.023L282.498 505L282.49 504.984C282.331 504.667 282.171 504.349 282.012 504.039L282 504.015C282 503.69 282.008 503.364 282.008 503.039C282.167 503.015 282.327 503.008 282.487 503H282.494Z" fill="#AB750F"/>
<path id="Vector_67" d="M361.009 365.484C361.441 365.076 362.09 364.775 362.834 365.222C363.284 365.497 362.739 365.815 362.134 366C361.753 365.828 361.381 365.656 361 365.484H361.009Z" fill="#AB750F"/>
<path id="Vector_68" d="M242.992 524.921C242.15 524.961 241.146 525.345 241 523.961L241.016 523.937C241.389 523.624 241.753 523.312 242.126 523C242.393 523 242.66 523 242.927 523C242.935 523.648 242.952 524.297 242.96 524.945L243 524.921H242.992Z" fill="#AB750F"/>
<path id="Vector_69" d="M18.0409 525.969C18.3217 525.625 18.5119 524.519 18.915 525.238C19.0101 525.4 19.0282 526.152 18.9557 526.442C18.7021 527.408 18.3307 526.861 18.0001 526.699C18.0907 526.485 18.1043 526.237 18.0409 525.969Z" fill="#AB750F"/>
<path id="Vector_70" d="M355.013 529C354.957 528.155 355.081 527.478 355.444 527C355.628 527.343 355.816 527.693 356 528.036C355.984 528.291 355.98 528.546 355.992 528.801C355.668 528.865 355.341 528.936 355.017 529H355.013Z" fill="#AB750F"/>
<path id="Vector_71" d="M217 532C216.672 531.888 216.114 531.88 216.056 531.639C215.803 530.618 216.466 530.361 216.959 530C216.977 530.667 216.988 531.333 217 532Z" fill="#AB750F"/>
<path id="Vector_72" d="M92.4424 694C92.0871 693.608 91.8172 692.992 92.1545 692.314C92.4919 691.636 92.7977 692.163 93.0001 692.876C92.8157 693.251 92.6268 693.625 92.4424 694Z" fill="#AB750F"/>
<path id="Vector_73" d="M18.665 538.93C17.6822 538.088 17.9673 537.079 18.3874 536.044L18.4774 536C19.1901 536.947 19.1076 537.965 18.6275 539L18.665 538.921V538.93Z" fill="#AB750F"/>
<path id="Vector_74" d="M116.008 201.984C116.008 201.815 116.004 201.645 116 201.476C116.173 201.315 116.345 201.157 116.514 201C116.975 201.185 117.007 201.581 116.999 202C116.67 201.996 116.337 201.988 116.008 201.984Z" fill="#AB750F"/>
<path id="Vector_75" d="M67.3564 208.033L67.7775 208C68.1823 208.344 68.5953 208.689 69.0001 209.033C68.9515 209.287 68.9434 209.549 68.9758 209.803C68.32 209.869 67.6641 209.934 67.0082 210H67.0001C67.1216 209.336 67.243 208.68 67.3645 208.033H67.3564Z" fill="#AB750F"/>
<path id="Vector_76" d="M232 241.998C231.227 242.023 230.542 241.83 230 241.293C230.427 240.865 230.853 240.437 231.28 240L231.76 240.025C231.84 240.688 231.911 241.343 231.991 241.998H232Z" fill="#AB750F"/>
<path id="Vector_77" d="M301.994 428.694C301.802 428.804 301.591 429.031 301.429 428.996C301.032 428.914 300.894 428.537 301.086 428.138C301.146 428.015 301.519 427.953 301.645 428.042C301.814 428.166 301.886 428.468 302 428.694H301.994Z" fill="#AB750F"/>
<path id="Vector_78" d="M159.525 589C159.35 588.683 159.175 588.357 159 588.04C159.012 587.69 159.023 587.349 159.039 587C159.358 587.032 159.677 587.063 160 587.095C159.988 587.889 159.942 588.635 159.525 589Z" fill="#AB750F"/>
<path id="Vector_79" d="M124.952 696C124.301 695.914 123.659 695.828 123.008 695.75C123.072 695.562 123.072 695.367 123 695.18C123.354 694.789 123.699 694.391 124.052 694C124.285 694.023 124.526 694.023 124.759 694.008C124.839 694.648 124.92 695.297 125 695.937L124.952 696Z" fill="#AB750F"/>
<path id="Vector_80" d="M180.007 589.028C180.149 588.989 180.291 588.989 180.433 589.036C180.433 589.652 180.578 589.94 180.844 589.948C180.896 590.08 180.948 590.221 181 590.361C180.941 590.556 180.903 590.774 180.882 591C180.63 590.977 180.381 590.945 180.128 590.922C180.087 590.291 180.042 589.667 180 589.036L180.011 589.021L180.007 589.028Z" fill="#AB750F"/>
<path id="Vector_81" d="M57.0164 438.927C57.0001 438.618 57.0001 438.309 57.0001 438C57.3578 437.667 57.7156 437.341 58.0733 437.008L58.0408 437.049L58.5042 437.073L58.9676 437.057V437C58.9839 437.667 58.992 438.333 59.0001 439C58.3335 438.967 57.6668 438.943 57.0001 438.927H57.0164Z" fill="#AB750F"/>
<path id="Vector_82" d="M278 593.139C278.636 592.72 279.068 591.892 279.981 592.012C280.122 593.548 279.476 594.194 278.041 593.95C278.114 593.676 278.098 593.403 278 593.139Z" fill="#AB750F"/>
<path id="Vector_83" d="M255 443.341C254.891 443.566 254.84 443.904 254.667 443.984C254.507 444.057 254.231 443.864 254 443.785C254.128 443.56 254.212 443.288 254.391 443.129C254.648 442.89 254.885 442.996 255 443.341Z" fill="#AB750F"/>
<path id="Vector_84" d="M257 273.045C257.176 272.699 257.348 272.346 257.524 272C257.684 272.03 257.84 272.053 258 272.068V273.045C257.844 273.353 257.688 273.662 257.531 273.97L257.516 274C257.344 273.677 257.172 273.361 257 273.038V273.045Z" fill="#AB750F"/>
<path id="Vector_85" d="M20.0167 275.008C20.6806 275.378 21.3445 275.739 22.0001 276.108C21.8922 276.309 21.8839 276.51 21.9835 276.719C21.3196 276.815 20.664 276.904 20.0001 277C20.0167 276.333 20.0333 275.667 20.0499 275L20.025 275.016L20.0167 275.008Z" fill="#AB750F"/>
<path id="Vector_86" d="M346 451.882C346.263 451.177 346.6 450.489 346.936 451.538C347.131 452.14 346.85 452.751 346.505 453C346.337 452.63 346.168 452.252 346 451.882Z" fill="#AB750F"/>
<path id="Vector_87" d="M111.969 682.143C111.939 682.439 111.946 682.726 112 683.021C111.554 683.35 111.108 683.671 110.662 684C110.439 683.679 110.223 683.359 110 683.038C110.031 682.692 110.062 682.346 110.108 682H110.1C110.723 682.051 111.346 682.101 111.969 682.143Z" fill="#AB750F"/>
<path id="Vector_88" d="M148 459.859C148.199 459.158 148.506 458.655 148.84 459.293C149.179 459.94 148.922 460.569 148.597 461C148.398 460.623 148.199 460.236 148 459.859Z" fill="#AB750F"/>
<path id="Vector_89" d="M129 634L127 633.847C127.75 632.773 128.436 632.612 129 634Z" fill="#AB750F"/>
<path id="Vector_90" d="M302.888 633C302.386 633 301.877 632.789 302.027 631.758C302.199 630.517 302.633 631.051 303 631.597C302.94 632.056 302.903 632.528 302.888 633Z" fill="#AB750F"/>
<path id="Vector_91" d="M169.024 177C169.024 176.34 169.008 175.688 169 175.029C169.331 174.996 169.661 174.988 169.991 175.02C169.991 175.375 169.991 175.729 169.991 176.091C170.016 176.396 169.991 176.702 169.895 177H169.459H169.024Z" fill="#AB750F"/>
<path id="Vector_92" d="M165.012 185C165.672 185.016 166.34 185.024 167 185.04C167 185.328 167 185.616 166.984 185.904C166.324 185.936 165.672 185.968 165.012 186C164.996 185.664 164.996 185.336 165.012 185Z" fill="#AB750F"/>
<path id="Vector_93" d="M88.0082 187.038C88.6695 187.031 89.3308 187.015 90.0001 187C90.0001 187.331 90.0001 187.669 90.0001 188C89.3388 187.954 88.6775 187.908 88.0163 187.862C88.0163 187.585 88.0082 187.308 88.0001 187.031L88.0082 187.038Z" fill="#AB750F"/>
<path id="Vector_94" d="M43.8733 623C43.918 623.667 43.9553 624.333 44.0001 625C43.6643 625 43.3359 624.992 43.0001 624.984C43.0374 624.317 43.0822 623.659 43.1195 623C43.3733 623.016 43.6195 623.016 43.8733 623Z" fill="#AB750F"/>
<path id="Vector_95" d="M151.357 194C151.24 193.332 151.117 192.673 151 192.005C152.867 191.911 151.558 193.229 151.506 193.991H151.357V194Z" fill="#AB750F"/>
<path id="Vector_96" d="M212.002 197.009C212.325 197.15 212.647 197.29 212.97 197.43L213 197.57C212.669 197.72 212.338 197.86 212.007 198C211.998 197.664 211.998 197.336 212.007 197L212.002 197.009Z" fill="#AB750F"/>
<path id="Vector_97" d="M210.643 210C210.07 209.233 209.394 208.45 211 208C210.878 208.667 210.756 209.333 210.643 210Z" fill="#AB750F"/>
<path id="Vector_98" d="M50.0214 216C49.9608 215.15 49.9608 214.333 51.0001 214C51.0001 214.817 50.9395 215.608 50.0214 216Z" fill="#AB750F"/>
<path id="Vector_99" d="M120.012 223.142C120.342 223.097 120.671 223.045 121 223V224C120.667 223.948 120.333 223.896 120 223.843C120.012 223.612 120.016 223.381 120.012 223.142Z" fill="#AB750F"/>
<path id="Vector_100" d="M161 228.016C161.672 228.016 162.336 228 163 228V229C162.336 228.976 161.664 228.96 161 228.944C161 228.635 161 228.325 161 228.024V228.016Z" fill="#AB750F"/>
<path id="Vector_101" d="M244.886 239C243.804 238.635 243.569 238.293 245 238C244.959 238.333 244.927 238.667 244.886 239Z" fill="#AB750F"/>
<path id="Vector_102" d="M106.023 243C106.719 243.053 107.106 243.487 106.975 244.274C106.89 244.796 106.464 245.009 106 245C106 244.336 106.016 243.672 106.023 243Z" fill="#AB750F"/>
<path id="Vector_103" d="M393.832 251C393.126 250.881 392.685 250.593 393.275 250.061C393.495 249.865 393.851 250.18 394 250.433C393.903 250.613 393.845 250.804 393.832 251Z" fill="#AB750F"/>
<path id="Vector_104" d="M184.016 252.13L184.992 252C184.992 252.336 185 252.664 185 253C184.665 252.931 184.335 252.863 184 252.786C184.016 252.573 184.021 252.351 184.016 252.13Z" fill="#AB750F"/>
<path id="Vector_105" d="M113.008 264.008C113.656 264.061 114.312 264.114 114.959 264.167C114.959 264.379 114.967 264.591 115 264.803L113 265C113 264.667 113 264.333 113 264L113.008 264.008Z" fill="#AB750F"/>
<path id="Vector_106" d="M106 266.065C106.332 266.04 106.664 266.024 106.996 266C107.004 266.331 107 266.661 106.992 267C106.664 266.968 106.332 266.935 106.004 266.903C106.004 266.621 106.004 266.347 106.004 266.065H106Z" fill="#AB750F"/>
<path id="Vector_107" d="M133 271C133 270.333 133 269.667 133.008 269C133.328 269 133.648 269 133.967 269C133.976 269.667 133.984 270.333 134 270.992H133.5H133V271Z" fill="#AB750F"/>
<path id="Vector_108" d="M260 270.039C260.331 270.031 260.662 270.016 261 270C260.992 270.663 260.984 271.326 260.977 271.988C260.654 272.02 260.339 271.988 260.032 271.887C260.024 271.271 260.008 270.655 260 270.031V270.039Z" fill="#AB750F"/>
<path id="Vector_109" d="M264.028 277C264.028 276.667 264.009 276.333 264 276C265.338 276.325 265.319 276.663 264.028 277Z" fill="#AB750F"/>
<path id="Vector_110" d="M101 279C101.325 279.077 101.65 279.161 101.98 279.238C101.967 279.399 101.971 279.559 102 279.72L101.004 280C101.004 279.664 101.004 279.336 101 279Z" fill="#AB750F"/>
<path id="Vector_111" d="M69.0001 290C69.0096 289.665 69.0286 289.331 69.038 289C70.3082 289.343 70.3461 289.677 69.0001 290Z" fill="#AB750F"/>
<path id="Vector_112" d="M341.157 289.016C342.249 289.078 342.023 289.551 341.872 290C341.408 289.955 341.182 289.743 341 289.49C341.069 289.331 341.126 289.167 341.17 289L341.151 289.012L341.157 289.016Z" fill="#AB750F"/>
<path id="Vector_113" d="M44.5676 611C44.7147 611.667 44.8531 612.333 45.0001 613C43.3652 612.804 44.1783 611.809 44.3859 611.009H44.5676V611Z" fill="#AB750F"/>
<path id="Vector_114" d="M194 300C193.963 300.664 193.926 301.328 193.889 302C192.672 301.281 192.7 300.617 194 300Z" fill="#AB750F"/>
<path id="Vector_115" d="M383.051 301.299C383.827 301.152 384.806 300.416 385 302H384.992C384.325 301.861 383.667 301.723 383 301.576L383.051 301.299Z" fill="#AB750F"/>
<path id="Vector_116" d="M306 608.947C305.333 608.962 304.667 608.985 304 609V608C304.667 608.038 305.333 608.076 306 608.114C306 608.389 306 608.672 306 608.947Z" fill="#AB750F"/>
<path id="Vector_117" d="M2.00727 316.996C2.07155 316.671 2.14298 316.341 2.20727 316.016C2.41441 316.028 2.62155 316.024 2.82155 316C2.87869 316.329 2.94298 316.659 3.00012 316.992L2.00012 317L2.00727 316.996Z" fill="#AB750F"/>
<path id="Vector_118" d="M381.007 317.968C381.03 317.328 381.059 316.68 381.081 316.04C381.326 316.04 381.563 316.024 381.807 316C381.874 316.664 381.941 317.336 382 318C381.667 317.992 381.333 317.976 381 317.968H381.007Z" fill="#AB750F"/>
<path id="Vector_119" d="M107 320C107.669 320 108.339 320.008 109 320.016C109 320.328 109 320.64 108.992 320.952L107.008 321C107.008 320.664 107.008 320.336 107.008 320H107Z" fill="#AB750F"/>
<path id="Vector_120" d="M67.0001 336V334C68.3335 334.669 68.3335 335.331 67.0001 336Z" fill="#AB750F"/>
<path id="Vector_121" d="M74.0001 337.802C73.7044 337.86 73.4087 337.911 73.113 337.975C72.5838 338.084 72.2881 337.815 72.0001 337.519C72.3659 337.346 72.7161 337.115 73.1052 337.018C73.3698 336.954 73.6966 337.076 73.9923 337.121C73.9534 337.352 73.9534 337.577 73.9923 337.808L74.0001 337.802Z" fill="#AB750F"/>
<path id="Vector_122" d="M18.0001 338C18.6668 338.021 19.3335 338.05 20.0001 338.071C19.6749 338.383 19.3578 338.695 19.0326 339C18.4879 338.823 18.1221 338.511 18.0001 338Z" fill="#AB750F"/>
<path id="Vector_123" d="M170 351.008C170.336 351.008 170.668 351.008 171 351.008C171 351.336 171 351.656 171 351.975C170.668 351.984 170.332 351.992 170 352C170 351.664 170 351.328 170 351V351.008Z" fill="#AB750F"/>
<path id="Vector_124" d="M306 353.992C306.024 353.331 306.056 352.661 306.08 352C306.328 352.016 306.576 352.024 306.824 352.016C306.88 352.669 306.944 353.331 307 353.984C306.664 353.984 306.336 353.984 306 354V353.992Z" fill="#AB750F"/>
<path id="Vector_125" d="M265 602C264.967 602.667 264.942 603.333 264.909 604C263.753 603.285 263.611 602.61 265 602Z" fill="#AB750F"/>
<path id="Vector_126" d="M254.949 602.679C254.302 602.789 253.663 602.899 253.016 603C252.999 602.67 252.991 602.33 253.016 602C253.68 602.128 254.336 602.248 255 602.376L254.949 602.67V602.679Z" fill="#AB750F"/>
<path id="Vector_127" d="M61.4215 357C61.3078 356.7 61.1942 356.391 61.0805 356.09C60.8461 355.498 61.1657 355 61.5067 355C61.8405 355 62.1602 355.489 61.9116 356.082C61.7837 356.382 61.6843 356.691 61.5706 356.991H61.4215V357Z" fill="#AB750F"/>
<path id="Vector_128" d="M84.0033 359C84.6717 359.009 85.3318 359.027 86.0001 359.035C86.0001 359.336 85.992 359.646 85.992 359.947C85.3318 359.965 84.6716 359.982 84.0196 360C83.9952 359.673 83.9952 359.336 84.0115 359.009L84.0033 359Z" fill="#AB750F"/>
<path id="Vector_129" d="M361.008 360.024C361.668 360.016 362.328 360.008 362.988 360C363.004 360.333 363.004 360.667 362.988 361C362.328 360.976 361.668 360.951 361 360.935C361 360.634 361 360.333 361 360.033L361.008 360.024Z" fill="#AB750F"/>
<path id="Vector_130" d="M198.983 366C197.958 365.886 197.927 365.465 198.051 365C199.161 365.092 198.999 365.57 198.983 366Z" fill="#AB750F"/>
<path id="Vector_131" d="M0.000612018 367C1.05512 367.322 1.04661 368.149 0.970074 369C0.0856521 368.595 -0.00789204 367.826 0.000612018 367Z" fill="#AB750F"/>
<path id="Vector_132" d="M215.202 385C215.179 384.288 214.684 383.044 215.334 383.003C216.555 382.923 215.705 384.278 215.805 385H215.504H215.202Z" fill="#AB750F"/>
<path id="Vector_133" d="M110.067 389C110.042 388.331 110.025 387.661 110 387C111.429 387.62 111.213 388.298 110.067 389Z" fill="#AB750F"/>
<path id="Vector_134" d="M178.008 395.079C178.675 395.056 179.333 395.024 180 395C180 395.333 180 395.667 180 396C179.333 395.976 178.667 395.96 178 395.929C178 395.643 178 395.357 178.008 395.079Z" fill="#AB750F"/>
<path id="Vector_135" d="M7.00012 406C7.33211 406.008 7.66814 406.016 8.00012 406.031C8.00012 406.328 8.00012 406.617 7.99608 406.906C7.66409 406.938 7.33211 406.969 7.00012 407C7.00012 406.664 7.00012 406.328 7.00012 406Z" fill="#AB750F"/>
<path id="Vector_136" d="M87.0001 407.992C87.0001 407.328 87.0001 406.664 87.0081 406C87.3176 406 87.635 406 87.9446 406C87.9604 406.664 87.9842 407.328 88.0001 408C87.6668 408 87.3335 408 87.0001 408V407.992Z" fill="#AB750F"/>
<path id="Vector_137" d="M209.077 411.383C209.718 411.252 210.359 411.121 211 411C211 411.336 210.992 411.664 210.983 412C210.325 411.879 209.658 411.766 209 411.645L209.077 411.383Z" fill="#AB750F"/>
<path id="Vector_138" d="M7.00012 416C5.57924 415.366 5.77708 414.691 6.93717 414C6.95516 414.667 6.98214 415.333 7.00012 416Z" fill="#AB750F"/>
<path id="Vector_139" d="M268.004 416.024L269 416C269 416.333 269 416.667 269 417C268.665 416.992 268.335 416.984 268 416.976C268 416.659 268 416.341 268 416.024H268.004Z" fill="#AB750F"/>
<path id="Vector_140" d="M269 419C269.034 418.668 269.059 418.332 269.093 418C270.212 418.358 270.423 418.698 269 419Z" fill="#AB750F"/>
<path id="Vector_141" d="M3.14185 423C3.09461 422.336 3.04737 421.664 3.00012 421L4.00012 421.016C3.95288 421.672 3.89776 422.336 3.85052 422.992L3.49618 422.976L3.13398 422.992L3.14185 423Z" fill="#AB750F"/>
<path id="Vector_142" d="M271 425C269.523 424.444 269.869 423.75 270.835 423C270.893 423.669 270.942 424.331 271 425Z" fill="#AB750F"/>
<path id="Vector_143" d="M213.076 425.041C213.454 424.973 214.02 424.912 214 425.546C213.984 426.067 213.384 426.029 213 425.961C213.046 425.659 213.071 425.35 213.081 425.041H213.076Z" fill="#AB750F"/>
<path id="Vector_144" d="M262.004 427C262.335 427.008 262.669 427.015 263 427.023C263 427.308 263 427.592 262.992 427.877C262.661 427.915 262.331 427.962 262 428C262 427.669 262 427.331 262 427H262.004Z" fill="#AB750F"/>
<path id="Vector_145" d="M53.4081 430.975C53.2772 430.653 53.1464 430.331 53.0232 430.013L53.0001 430.021L53.4696 430H53.9468C54.1393 430.386 53.7698 430.686 53.485 431L53.4081 430.975Z" fill="#AB750F"/>
<path id="Vector_146" d="M58.9148 443C58.9432 443.332 58.9717 443.668 59.0001 444C57.7105 443.684 57.6536 443.352 58.9148 443Z" fill="#AB750F"/>
<path id="Vector_147" d="M34.982 444.096C35.0062 444.4 35.0062 444.696 34.982 445C34.3214 444.978 33.6607 444.948 33.0001 444.926C33.3304 444.615 33.6688 444.311 33.9991 444C34.3214 444.037 34.6517 444.067 34.9739 444.104L34.982 444.096Z" fill="#AB750F"/>
<path id="Vector_148" d="M49.0163 449.083L50.9698 449C51.0102 449.331 51.0102 449.669 50.9698 450C50.316 449.95 49.6621 449.901 49.0001 449.851C49.0082 449.595 49.0082 449.339 49.0001 449.083H49.0163Z" fill="#AB750F"/>
<path id="Vector_149" d="M203.075 451C203.048 450.339 203.021 449.686 203 449.025C203.301 449.017 203.595 449.008 203.895 449C204.1 449.966 204.087 450.797 203.082 451H203.075Z" fill="#AB750F"/>
<path id="Vector_150" d="M295.016 449C295.676 449 296.336 449.008 296.997 449.016C296.997 449.317 297.005 449.619 296.997 449.929C296.336 449.952 295.668 449.976 295 450C295 449.667 295 449.333 295.008 449.008L295.016 449Z" fill="#AB750F"/>
<path id="Vector_151" d="M116.004 450.142C116.338 450.095 116.671 450.047 117 450C117 450.331 117 450.669 117 451C116.667 450.945 116.333 450.882 116 450.827C116.012 450.598 116.012 450.37 116.004 450.134V450.142Z" fill="#AB750F"/>
<path id="Vector_152" d="M7.0202 452C7.34952 452.052 7.67482 452.097 8.00012 452.149C7.99209 452.373 7.99209 452.597 8.00012 452.821C7.67482 452.881 7.34952 452.94 7.02422 453L7.01619 452.985C7.01217 452.672 7.00414 452.351 7.00012 452.037L7.01619 452H7.0202Z" fill="#AB750F"/>
<path id="Vector_153" d="M13.0001 452C12.985 452.667 12.9623 453.333 12.9472 454C11.9559 453.707 11.9256 452.902 12.0543 452.016C12.3721 452.016 12.6899 452.008 13.0001 452Z" fill="#AB750F"/>
<path id="Vector_154" d="M343 453C343.669 453.033 344.331 453.066 345 453.098C344.992 453.369 344.992 453.639 345 453.91C344.362 453.943 343.725 453.967 343.087 454C343.063 453.672 343.039 453.336 343 453Z" fill="#AB750F"/>
<path id="Vector_155" d="M193 456C192.96 456.667 192.92 457.333 192.88 458C192.624 457.969 192.376 457.969 192.12 458C192.08 457.333 192.04 456.667 192 456C192.336 456 192.664 456 193 456Z" fill="#AB750F"/>
<path id="Vector_156" d="M73.0001 460C73.0237 459.336 73.0395 458.664 73.071 458C73.3387 458 73.6064 458 73.8741 458C73.9135 458.664 73.9608 459.328 74.0001 460C73.6694 460 73.3308 460 73.0001 460Z" fill="#AB750F"/>
<path id="Vector_157" d="M263 460C263 459.331 263.009 458.669 263.017 458C263.333 458 263.641 458 263.957 458L264 459.984H263.504H263.009L263 460Z" fill="#AB750F"/>
<path id="Vector_158" d="M357 461C357.669 461 358.331 461.016 359 461.024C359 461.347 359 461.661 359 461.984C358.339 461.984 357.669 462 357.008 462C357 461.669 357 461.331 357.008 461H357Z" fill="#AB750F"/>
<path id="Vector_159" d="M99.0244 467C99.6641 467.044 100.304 467.089 100.943 467.141C100.943 467.363 100.96 467.585 101 467.807C100.328 467.874 99.6641 467.941 99.0001 468C99.0001 467.667 99.0163 467.333 99.0244 467Z" fill="#AB750F"/>
<path id="Vector_160" d="M110 585C109.918 585.667 109.845 586.333 109.763 587C108.876 586.232 108.538 585.523 110 585Z" fill="#AB750F"/>
<path id="Vector_161" d="M162.213 487.967C162.142 487.311 162.071 486.664 162 486.008H162.008C162.339 486.008 162.669 486.008 162.992 486H163C162.921 486.672 162.835 487.336 162.756 488L162.488 487.959H162.213V487.967Z" fill="#AB750F"/>
<path id="Vector_162" d="M96.0001 489.017C96.3362 489.017 96.6681 489.008 97.0001 489C97.0001 489.331 97.0001 489.669 97.0001 490C96.6681 489.992 96.3362 489.975 96.0042 489.967C96.0042 489.653 96.0001 489.331 96.0042 489.008L96.0001 489.017Z" fill="#AB750F"/>
<path id="Vector_163" d="M346.036 494.717C346.21 493.135 346.565 492.867 346.988 493.05C346.988 493.7 346.996 494.35 347 495C346.665 494.887 346.335 494.788 346 494.675L346.036 494.717Z" fill="#AB750F"/>
<path id="Vector_164" d="M148.968 583C148.312 582.954 147.664 582.908 147.008 582.863C147.032 582.641 147.033 582.427 147 582.206C147.656 582.137 148.32 582.069 148.976 582L149 582.031C149 582.351 148.984 582.679 148.976 583H148.968Z" fill="#AB750F"/>
<path id="Vector_165" d="M61.9534 497C60.7119 496.309 60.6373 495.643 62.0001 495C61.9815 495.667 61.9721 496.333 61.9534 497Z" fill="#AB750F"/>
<path id="Vector_166" d="M55.0001 581.904C54.3335 581.939 53.6668 581.965 53.0001 582C53.6099 580.626 54.2847 580.739 55.0001 581.904Z" fill="#AB750F"/>
<path id="Vector_167" d="M80.1936 505C80.1317 504.339 80.062 503.678 80.0001 503.017L80.0233 503C80.3484 503.017 80.6658 503.025 80.9909 503.041C81.0373 503.843 80.929 504.57 80.1936 504.992V505Z" fill="#AB750F"/>
<path id="Vector_168" d="M75.0119 504C75.3403 504.009 75.6687 504.018 75.9971 504.027C76.0011 504.327 76.0011 504.637 75.9971 504.938C75.6687 504.956 75.3362 504.973 75.0078 505C74.9956 504.664 74.9997 504.336 75.0078 504H75.0119Z" fill="#AB750F"/>
<path id="Vector_169" d="M246.004 504C246.335 504.043 246.67 504.08 247 504.123C246.811 504.892 246.434 505.037 246 504.993C246 504.66 246 504.326 246.004 504Z" fill="#AB750F"/>
<path id="Vector_170" d="M70.0001 511.074C70.3867 510.979 71.0052 510.866 71.0001 511.505C70.9949 512.161 70.3867 512.014 70.0001 511.902C70.0001 511.626 70.0001 511.341 70.0001 511.065V511.074Z" fill="#AB750F"/>
<path id="Vector_171" d="M111.205 518C111.137 517.333 111.068 516.667 111 516C112.385 516.543 112.214 517.235 111.205 518Z" fill="#AB750F"/>
<path id="Vector_172" d="M249 520C249.037 519.333 249.065 518.667 249.102 518C250.279 518.715 250.354 519.382 249 520Z" fill="#AB750F"/>
<path id="Vector_173" d="M195.035 528.381C195.861 528.075 196.809 527.464 196.957 529L197 528.968C196.331 528.855 195.67 528.735 195 528.622L195.035 528.389V528.381Z" fill="#AB750F"/>
<path id="Vector_174" d="M328 537.046C328.667 537.028 329.333 537.009 330 537C329.358 538.339 328.691 538.312 328 537.046Z" fill="#AB750F"/>
<path id="Vector_175" d="M192.01 540.308C192.374 540.226 192.738 540.158 193.093 540.06C193.812 539.872 194.09 540.143 193.975 540.655C193.889 541.039 193.515 541.076 193.074 540.896C192.748 540.76 192.364 540.707 192 540.617V540.316L192.01 540.308Z" fill="#AB750F"/>
<path id="Vector_176" d="M139.006 542.041C139.271 542.025 139.535 542.017 139.799 542C139.868 542.355 139.931 542.719 140 543.074C139.667 543.38 139.333 543.694 139 544C139 543.347 139 542.694 139.006 542.041Z" fill="#AB750F"/>
<path id="Vector_177" d="M313.927 562.007C314.031 562.775 314.117 564 313.496 564C312.884 564 312.97 562.775 313.073 562.007C313.358 561.998 313.643 561.998 313.927 562.007Z" fill="#AB750F"/>
<path id="Vector_178" d="M311.014 566.006C311.406 566.097 312.025 565.699 311.999 566.677C311.999 566.801 311.362 566.892 311.014 567C310.995 566.669 310.995 566.337 311.014 566.006Z" fill="#AB750F"/>
<path id="Vector_179" d="M237 571C237.05 570.667 237.108 570.333 237.157 570C238.166 570.374 238.447 570.72 237 571Z" fill="#AB750F"/>
<path id="Vector_180" d="M286.051 570.992C286.034 570.666 286.017 570.335 286 570.009C286.331 569.997 286.661 569.997 287 570.009C287 570.339 287 570.67 287 571H286.526H286.051V570.992Z" fill="#AB750F"/>
<path id="Vector_181" d="M167.315 576C167.205 575.333 167.102 574.667 167 574C168.619 574.156 167.818 575.186 167.682 575.983L167.324 576H167.315Z" fill="#AB750F"/>
<path id="Vector_182" d="M244 709.002C243.976 709.671 243.959 710.331 243.935 711C243.659 711 243.374 711 243.098 711C243.065 710.339 243.033 709.679 243 709.018C243.333 708.994 243.667 708.994 244 709.018V709.002Z" fill="#AB750F"/>
<path id="Vector_183" d="M153 707.008C152.953 707.667 152.914 708.325 152.866 708.976C152.63 708.976 152.394 708.976 152.158 709C152.102 708.333 152.055 707.667 152 707C152.331 707 152.662 707 153 707V707.008Z" fill="#AB750F"/>
<path id="Vector_184" d="M144.992 684.008C144.953 684.336 144.906 684.664 144.866 684.988C144.638 684.988 144.402 684.988 144.173 685L144 684.008L144.016 684C144.347 684.004 144.669 684.008 145 684.012L144.992 684.008Z" fill="#AB750F"/>
<path id="Vector_185" d="M130 675.101C129.293 676.233 128.618 676.399 128 675C128.667 675.028 129.333 675.064 130 675.101Z" fill="#AB750F"/>
<path id="Vector_186" d="M110 669.057C109.309 670.3 108.642 670.347 108 669C108.667 669.019 109.333 669.038 110 669.057Z" fill="#AB750F"/>
<path id="Vector_187" d="M193 668C194.349 668.083 193.986 669.108 193.86 670L193.889 669.975C193.6 669.975 193.319 669.942 193.045 669.858C193.03 669.242 193.015 668.617 193 668Z" fill="#AB750F"/>
<path id="Vector_188" d="M39.7837 663.016C39.8583 663.678 39.9255 664.339 40.0001 665C39.6643 665 39.3359 664.992 39.0001 664.984C39.0747 664.322 39.1419 663.661 39.2091 663C39.3956 663.041 39.5822 663.049 39.7762 663.025L39.7837 663.016Z" fill="#AB750F"/>
<path id="Vector_189" d="M10.0001 658.974C9.33452 658.974 8.66892 658.991 8.01144 659C7.9952 658.664 7.9952 658.328 8.01955 658C8.67704 658.009 9.33452 658.017 9.98388 658.026C10.0001 658.345 10.0001 658.655 10.0001 658.974Z" fill="#AB750F"/>
<path id="Vector_190" d="M214.976 649.066C214.887 649.694 214.798 650.314 214.71 650.942L214.363 651C214.242 650.339 214.121 649.678 214 649.017L214.024 649C214.355 649.008 214.678 649.041 215 649.091L214.968 649.066H214.976Z" fill="#AB750F"/>
<path id="Vector_191" d="M49.7501 648.074C49.8363 648.719 49.9139 649.364 50.0001 650H49.5001H49.0001C49.0605 649.331 49.1294 648.669 49.1898 648C49.3622 648.083 49.5518 648.107 49.7415 648.074H49.7501Z" fill="#AB750F"/>
<path id="Vector_192" d="M53.8171 642C53.8781 642.669 53.9391 643.339 54.0001 644C52.5971 643.446 52.7975 642.752 53.8171 642Z" fill="#AB750F"/>
<path id="Vector_193" d="M140.007 641C141.257 641.091 141.055 642.041 140.838 643C139.923 642.711 139.993 641.835 140.007 641Z" fill="#AB750F"/>
<path id="Vector_194" d="M238 168C238.656 168.008 238.992 168.341 239 169C238.414 168.922 238.078 168.589 238 168Z" fill="#AB750F"/>
<path id="Vector_195" d="M260.998 181C261.031 181.69 260.707 182.03 260 181.998C260.05 181.389 260.383 181.057 260.998 181Z" fill="#AB750F"/>
<path id="Vector_196" d="M102.036 184.086C102.352 184.003 102.676 183.978 103 184.02C102.984 184.667 102.676 185.024 102.003 184.999C101.995 184.692 102.003 184.385 102.028 184.086H102.036Z" fill="#AB750F"/>
<path id="Vector_197" d="M226 205.005C226.721 204.951 227.043 205.298 226.996 206C226.384 205.946 226.055 205.607 226 205.005Z" fill="#AB750F"/>
<path id="Vector_198" d="M106 206C105.886 206.561 105.553 206.886 105 207C105.122 206.455 105.464 206.122 106 206Z" fill="#AB750F"/>
<path id="Vector_199" d="M131 206.004C131.539 205.987 132.134 205.987 131.973 206.677C131.936 206.838 131.35 206.898 131.019 207C131.01 206.668 131 206.336 131 206.004Z" fill="#AB750F"/>
<path id="Vector_200" d="M200.025 217C200.357 217.105 200.933 217.158 200.972 217.316C201.138 217.991 200.542 217.991 200.015 218C199.995 217.667 199.995 217.333 200.015 217H200.025Z" fill="#AB750F"/>
<path id="Vector_201" d="M11.9908 235C10.6575 234.661 10.6824 234.33 11.9908 234C12.0032 234.33 12.0032 234.67 11.9908 235Z" fill="#AB750F"/>
<path id="Vector_202" d="M5.98355 270C5.65206 269.836 5.33161 269.673 5.00012 269.5C5.33161 269.336 5.65206 269.173 5.98355 269C6.00565 269.327 6.00565 269.664 5.98355 269.991V270Z" fill="#AB750F"/>
<path id="Vector_203" d="M261.993 270C261.66 270 261.327 270 261.001 270C260.979 269.272 261.311 268.956 261.97 269.005C261.97 269.337 261.985 269.66 262 269.992L261.993 270Z" fill="#AB750F"/>
<path id="Vector_204" d="M24.0765 280.034C24.3787 280.01 24.6888 279.994 24.9989 280.002C25.0228 280.696 24.6888 281.023 24.0049 280.999C23.989 280.672 24.0128 280.353 24.0765 280.034Z" fill="#AB750F"/>
<path id="Vector_205" d="M29.9847 297C29.4529 296.991 28.8546 296.963 29.0319 296.327C29.0762 296.168 29.6523 296.103 29.9736 296C30.0068 296.327 30.0068 296.664 29.9847 296.991V297Z" fill="#AB750F"/>
<path id="Vector_206" d="M174 327C174 326.664 174 326.336 174 326C174.331 326 174.669 326 175 326C175 326.32 175 326.632 174.992 326.944C174.661 327 174.339 327.008 174.008 326.992L174 327Z" fill="#AB750F"/>
<path id="Vector_207" d="M155.008 338C154.968 337.313 155.293 336.97 156 337.002C156 337.337 155.968 337.657 155.87 337.968C155.577 337.992 155.293 338 155 337.992L155.008 338Z" fill="#AB750F"/>
<path id="Vector_208" d="M21.9992 345C21.6662 344.835 21.3331 344.67 21.0001 344.505C21.3331 344.339 21.6558 344.165 21.9784 344C21.9992 344.33 22.0096 344.67 21.9888 345H21.9992Z" fill="#AB750F"/>
<path id="Vector_209" d="M206.008 344.008C206.651 344.024 206.976 344.358 207 345C206.675 345 206.35 344.967 206.025 344.886C206.008 344.593 206 344.301 206 344L206.008 344.008Z" fill="#AB750F"/>
<path id="Vector_210" d="M253.99 347.036C253.881 347.359 253.822 347.939 253.663 347.972C253.01 348.139 253.03 347.526 253 347.025C253.337 346.992 253.663 346.992 254 347.025L253.99 347.036Z" fill="#AB750F"/>
<path id="Vector_211" d="M333 347C332.976 347.625 332.653 347.977 332 348C332.089 347.437 332.42 347.094 333 347Z" fill="#AB750F"/>
<path id="Vector_212" d="M71.0001 350C71.331 350.171 71.6619 350.334 72.0001 350.505C71.7648 350.912 71.434 351.074 71.0075 350.969C71.0075 350.643 71.0001 350.326 71.0075 350H71.0001Z" fill="#AB750F"/>
<path id="Vector_213" d="M259.016 354.989C259.016 354.349 259.299 353.97 260 354.002C259.992 354.302 259.976 354.602 259.96 354.902C259.645 355.005 259.331 355.028 259 354.965L259.016 354.989Z" fill="#AB750F"/>
<path id="Vector_214" d="M156.014 358C156.585 358 157.155 358.073 156.961 358.67C156.916 358.835 156.345 358.89 156.026 359C155.992 358.67 155.992 358.339 156.026 358.009L156.014 358Z" fill="#AB750F"/>
<path id="Vector_215" d="M200.033 363C200.357 363.111 200.93 363.176 200.973 363.343C201.136 363.991 200.53 363.991 200 364C200 363.667 200 363.333 200.033 363.009V363Z" fill="#AB750F"/>
<path id="Vector_216" d="M220.023 368C220.542 368 221.14 368 220.971 368.682C220.931 368.845 220.352 368.9 220.023 369C219.993 368.664 219.993 368.336 220.023 368Z" fill="#AB750F"/>
<path id="Vector_217" d="M22.0314 396.904C22.0001 396.601 21.9923 396.306 22.008 396.002C22.6893 395.97 23.0495 396.274 22.9947 397C22.6736 397 22.3525 396.976 22.0314 396.904Z" fill="#AB750F"/>
<path id="Vector_218" d="M97.0084 401.006C97.3383 400.989 97.6599 401.006 97.9816 401.084C98.0063 401.386 98.0063 401.698 97.9816 402C97.396 401.957 97.0661 401.628 97.0001 401.015L97.0084 401.006Z" fill="#AB750F"/>
<path id="Vector_219" d="M147 409.013C146.981 409.518 147.009 410.136 146.318 409.974C146.159 409.933 146.103 409.357 146 409.023C146.337 408.992 146.664 408.992 147 409.023V409.013Z" fill="#AB750F"/>
<path id="Vector_220" d="M295 416.009C295.325 415.985 295.651 416.009 295.968 416.073C295.984 416.385 296 416.696 296 417C295.342 416.984 295.033 416.632 295 416.001V416.009Z" fill="#AB750F"/>
<path id="Vector_221" d="M322.036 452C322.369 452.111 322.943 452.166 322.975 452.333C323.131 453.007 322.536 453.007 322.004 452.998C321.994 452.665 322.004 452.333 322.025 452H322.036Z" fill="#AB750F"/>
<path id="Vector_222" d="M388 483.001C388.715 482.977 389.017 483.345 388.999 484C388.379 483.935 388.052 483.591 388 483.001Z" fill="#AB750F"/>
<path id="Vector_223" d="M69.0676 485C69.6366 485.008 70.1767 485.116 69.9452 485.736C69.8874 485.893 69.328 485.917 69.0001 486C69.0291 485.669 69.0483 485.331 69.058 485H69.0676Z" fill="#AB750F"/>
<path id="Vector_224" d="M69.0001 491.977C69.348 490.597 69.6784 490.747 70.0001 492C69.6697 492 69.3393 492 69.0001 491.977Z" fill="#AB750F"/>
<path id="Vector_225" d="M189 492C189.648 492.053 189.952 492.402 190 493C189.424 492.886 189.112 492.538 189 492Z" fill="#AB750F"/>
<path id="Vector_226" d="M214.93 494C214.376 493.983 213.823 493.881 214.054 493.271C214.115 493.11 214.668 493.085 215 493C214.97 493.331 214.95 493.669 214.94 494H214.93Z" fill="#AB750F"/>
<path id="Vector_227" d="M49.0007 509.009C49.3274 508.985 49.6541 509.009 49.9726 509.075C49.9971 509.385 50.0052 509.696 49.9971 509.998C49.311 510.03 48.9844 509.696 49.0007 509.001V509.009Z" fill="#AB750F"/>
<path id="Vector_228" d="M107 680C107.107 679.439 107.435 679.106 108 679C107.869 679.528 107.541 679.87 107 680Z" fill="#AB750F"/>
<path id="Vector_229" d="M45.0001 679C45.6155 679.024 45.977 679.328 46.0001 680C45.454 679.904 45.1001 679.592 45.0001 679Z" fill="#AB750F"/>
<path id="Vector_230" d="M239.979 639C239.649 638.826 239.33 638.661 239 638.487C239.33 638.322 239.67 638.157 240 638C240 638.33 240 638.67 239.979 639Z" fill="#AB750F"/>
<path id="Vector_231" d="M238.022 666C238.352 666.097 238.903 666.142 238.958 666.301C239.167 666.876 238.561 666.92 238.055 667C238 666.664 237.989 666.336 238.011 666H238.022Z" fill="#AB750F"/>
<path id="Vector_232" d="M240.969 665C240.638 664.893 240.069 664.83 240.027 664.67C239.862 664.018 240.483 664.027 241 664C241 664.33 241 664.67 240.979 665H240.969Z" fill="#AB750F"/>
<path id="Vector_233" d="M140 602C140.558 602.121 140.892 602.452 141 603C140.45 602.879 140.125 602.532 140 602Z" fill="#AB750F"/>
<path id="Vector_234" d="M46.0001 660C46.6386 660.016 46.9847 660.328 47.0001 661C46.4309 660.914 46.0847 660.594 46.0001 660Z" fill="#AB750F"/>
<path id="Vector_235" d="M136 574C135.447 573.901 135.122 573.562 135.008 573H135C135.333 573 135.667 573.008 135.992 573.05C135.992 573.364 135.992 573.686 135.992 574H136Z" fill="#AB750F"/>
<path id="Vector_236" d="M111.976 592.926L111.492 593H111C111.041 592.372 111.361 592.025 112 592C112 592.306 112 592.62 111.976 592.926Z" fill="#AB750F"/>
<path id="Vector_237" d="M35.0389 657C35.3567 657.184 35.6823 657.368 36.0001 657.552C35.6668 657.704 35.3335 657.848 35.0001 658C35.0234 657.664 35.0389 657.336 35.0389 657Z" fill="#AB750F"/>
<path id="Vector_238" d="M307 568.984L306.51 569L306.028 568.928C306.003 568.622 305.995 568.308 306.003 568.002C306.698 567.97 307 568.332 307 568.984Z" fill="#AB750F"/>
<path id="Vector_239" d="M249 682C249.651 682 250 682.309 250 683C249.413 682.927 249.072 682.602 249 682Z" fill="#AB750F"/>
<path id="Vector_240" d="M15.9299 557.024C15.987 557.35 16.0115 557.675 15.9952 558C15.4079 557.919 15.0654 557.594 15.0001 557C15.3101 557 15.62 557.008 15.9299 557.024Z" fill="#AB750F"/>
<path id="Vector_241" d="M39.9804 651.916C39.6591 651.991 39.3296 652.016 39.0001 651.991C39.0413 651.358 39.3708 651.025 39.9969 651C40.0051 651.308 39.9969 651.608 39.9804 651.916Z" fill="#AB750F"/>
<path id="Vector_242" d="M28.0001 547C28.3336 547.091 28.8927 547.124 28.9515 547.281C29.1673 547.9 28.6279 548.008 28.0492 548C28.0492 547.669 28.0295 547.33 28.0099 547H28.0001Z" fill="#AB750F"/>
<path id="Vector_243" d="M370 638.992C369.272 639.062 369.009 638.668 369 638.003C369.693 637.96 369.974 638.353 370 638.992Z" fill="#AB750F"/>
<path id="Vector_244" d="M316.991 567.018C317.037 567.365 316.918 567.698 316.312 567.918C316.092 567.997 315.614 568.028 315.376 567.971C314.596 567.782 315.238 567.584 315.458 567.404C315.623 567.259 315.862 567.132 316.073 567H316.541L317 567.022L316.991 567.018Z" fill="#AB750F"/>
<path id="Vector_245" d="M317 563.07C316.907 563.634 316.801 564.199 315.492 563.931C315.294 563.888 314.978 563.729 315.001 563.663C315.27 562.99 316.042 562.917 316.977 563.062L317 563.07Z" fill="#AB750F"/>
<path id="Vector_246" d="M313 568.931C313.241 568.624 313.472 568.307 313.713 568C314.457 568.98 313.583 568.891 313.03 569L313 568.931Z" fill="#AB750F"/>
<path id="Vector_247" d="M317 567L316.512 566.936H316.014C315.946 566.3 316.112 565.834 316.785 566.056C316.932 566.099 316.932 566.671 317 567Z" fill="#AB750F"/>
<path id="Vector_248" d="M19.9271 529C20.0575 529.391 20.0575 529.984 19.5511 530C18.9756 530.015 18.9372 529.452 19.0523 529.056C19.3439 529.061 19.6355 529.046 19.9271 529.005V529Z" fill="#AB750F"/>
<path id="Vector_249" d="M19.8918 528.92C19.6 528.983 19.3159 529.006 19.0165 528.999C18.9167 528.225 19.2776 527.934 19.984 528.012C20.0223 528.32 19.9916 528.62 19.8995 528.92H19.8918Z" fill="#AB750F"/>
<path id="Vector_250" d="M24.8421 308.788C24.2065 308.804 23.2749 309.408 23.0398 308.503C22.8135 307.614 23.5883 306.818 24.5199 307.036C25.4167 307.254 24.7724 308.193 24.8247 308.813L24.8421 308.788Z" fill="#AB750F"/>
<path id="Vector_251" d="M288.907 573.992C288.107 573.881 287.782 573.364 288.153 572.346C288.302 571.939 288.524 571.914 288.732 572.151C289.233 572.703 288.875 573.381 288.894 574H288.901L288.907 573.992Z" fill="#AB750F"/>
<path id="Vector_252" d="M143 282.98C142.67 282.818 142.33 282.667 142 282.505C142.186 282.333 142.361 282.172 142.547 282C142.691 282.333 142.835 282.667 142.969 283L143 282.97V282.98Z" fill="#AB750F"/>
<path id="Vector_253" d="M66.022 285.513C66.1608 284.922 65.7665 284.099 67.0662 284.004C67.5773 283.964 67.8474 284.257 67.8766 284.589C67.9204 285.09 68.3074 285.772 67.4385 285.986C67.0662 286.082 66.482 285.665 66.0001 285.485L66.022 285.513Z" fill="#AB750F"/>
<path id="Vector_254" d="M51.0503 488C51.3397 488.032 51.6249 488.063 51.9143 488.103C51.9469 488.829 52.2118 489.878 51.6086 489.988C50.8384 490.131 50.9973 488.931 51.0503 488Z" fill="#AB750F"/>
<path id="Vector_255" d="M283.022 430.08C283.455 429.908 283.816 429.99 283.997 430.557C284.026 430.656 283.867 430.971 283.78 430.989C283.289 431.07 283.08 430.692 283 430.143L283.022 430.08Z" fill="#AB750F"/>
<path id="Vector_256" d="M225.211 412C225.399 412.024 225.586 412.024 225.773 412.008C225.831 413.216 226.269 414.431 225.747 416C224.554 414.62 225.128 413.263 225.211 412Z" fill="#AB750F"/>
<path id="Vector_257" d="M360 498.875C360.03 498.576 360.074 498.278 360.119 497.98C360.61 497.855 360.908 497.518 361.019 497C362.456 497.447 362.098 498.184 361.317 499C360.878 498.961 360.439 498.922 360 498.882V498.875Z" fill="#AB750F"/>
<path id="Vector_258" d="M363 495C363.54 495.121 363.863 495.468 364 496C363.468 495.871 363.145 495.524 363 495Z" fill="#AB750F"/>
<path id="Vector_259" d="M17.0322 293C17.6688 293 18.0667 293.473 17.9909 294.898C16.9829 295.153 16.9412 295.07 17.0322 293Z" fill="#AB750F"/>
<path id="Vector_260" d="M16.9916 297.771C16.6334 297.78 16.16 298.568 16.0108 297.168C15.9426 296.518 16.2155 296.119 16.4372 296.036C17.1025 295.776 16.9362 296.982 17.0001 297.761L16.9916 297.78V297.771Z" fill="#AB750F"/>
<path id="Vector_261" d="M30.0001 370.345C29.8056 370.571 29.6232 370.79 29.4408 371C29.2827 370.891 28.9665 370.748 29.003 370.664C29.0881 370.429 29.307 370.218 29.4773 370C29.6475 370.109 29.8056 370.219 30.0001 370.336V370.345Z" fill="#AB750F"/>
<path id="Vector_262" d="M17.0001 306.535C16.892 306.682 16.7479 307.033 16.6533 306.998C16.4235 306.913 16.2163 306.661 16.0001 306.478C16.2208 306.31 16.4326 306.072 16.6623 306.002C16.7479 305.973 16.883 306.345 16.9956 306.528L17.0001 306.535Z" fill="#AB750F"/>
<path id="Vector_263" d="M41.9541 259.11C41.9388 259.391 41.9541 259.665 42.0001 259.93C41.7279 260.305 41.609 261.359 41.1565 260.875C41.0338 260.742 40.9609 260.008 41.0223 259.665C41.191 258.72 41.6052 259.04 41.9541 259.102V259.11Z" fill="#AB750F"/>
<path id="Vector_264" d="M126.944 432.009C126.958 432.736 127.203 433.564 126.549 433.993C126.454 434.058 126.072 433.667 126.032 433.415C125.868 432.41 126.365 432.14 126.964 432.028L126.944 432V432.009Z" fill="#AB750F"/>
<path id="Vector_265" d="M127.965 435.984L127.483 436L127 435.984C127.098 435.423 127.425 435.106 127.982 435C128.006 435.325 128.006 435.65 127.982 435.976L127.965 435.984Z" fill="#AB750F"/>
<path id="Vector_266" d="M98.0453 439C97.9926 438.664 97.9821 438.336 98.0348 438C98.5832 438.008 99.1527 438.084 98.9628 438.664C98.9101 438.824 98.3617 438.891 98.0453 439Z" fill="#AB750F"/>
<path id="Vector_267" d="M104.023 300.992C103.94 300.509 104.072 300.125 104.627 300.002C104.727 299.979 105.008 300.186 105 300.263C104.942 300.777 104.536 300.954 104.039 301H104.014L104.023 300.992Z" fill="#AB750F"/>
<path id="Vector_268" d="M18.0752 310.014C17.9686 309.673 17.9768 309.341 18.0916 309C19.3375 309.184 18.9932 310.124 18.8293 310.972L18.4522 311L18.0752 310.972C18.0506 310.65 18.0506 310.327 18.0752 310.005V310.014Z" fill="#AB750F"/>
<path id="Vector_269" d="M111 590.024C110.967 590.545 110.79 590.962 110.271 591C110.178 591 109.977 590.716 110.002 590.621C110.145 590.062 110.531 589.939 111 590.024Z" fill="#AB750F"/>
<path id="Vector_270" d="M175.069 596C175.048 595.665 175.021 595.335 175 595C175.5 595 176.014 595 176 595.43C175.986 595.785 175.616 595.955 175.075 596H175.069Z" fill="#AB750F"/>
<path id="Vector_271" d="M17.0313 386.048C17.6514 386.181 18.1519 386.486 17.9577 387.449C17.9054 387.687 17.5019 388.059 17.4198 387.992C16.7847 387.516 17.0612 386.705 17.0537 386L17.0313 386.038V386.048Z" fill="#AB750F"/>
<path id="Vector_272" d="M173.008 389.843C173.32 389.229 173.632 388.614 173.936 388C174.624 388.197 175.136 388.622 174.968 389.294C174.696 390.413 173.736 389.872 173 389.85L173.008 389.843Z" fill="#AB750F"/>
<path id="Vector_273" d="M134.653 668C134.438 667.827 134.223 667.655 134 667.47C134.108 667.31 134.24 666.977 134.331 667.001C134.562 667.075 134.777 667.297 135 667.457C134.893 667.618 134.785 667.79 134.653 667.988V668Z" fill="#AB750F"/>
<path id="Vector_274" d="M142.987 559.519C142.893 559.675 142.8 559.844 142.72 560C142.48 559.831 142.24 559.649 142 559.468C142.173 559.312 142.347 559.156 142.52 559C142.68 559.169 142.84 559.338 143 559.519H142.987Z" fill="#AB750F"/>
<path id="Vector_275" d="M39.5212 528C39.6897 528.224 39.9143 528.448 39.9986 528.681C40.0267 528.767 39.6616 528.888 39.4791 529C39.3106 528.776 39.0859 528.552 39.0017 528.319C38.9736 528.233 39.3387 528.112 39.5212 528Z" fill="#AB750F"/>
<path id="Vector_276" d="M28.9517 643.168C28.9678 643.726 28.984 644.283 29.0001 644.841C28.1368 644.902 26.8458 645.529 27.0153 643.787C27.1282 642.585 28.2175 643.099 28.9598 643.168H28.9517Z" fill="#AB750F"/>
<path id="Vector_277" d="M254.266 644.015C254.436 644.015 254.644 643.962 254.749 644.055C255.166 644.374 255.062 644.746 254.449 644.998C254.37 645.025 254.084 644.706 254.005 644.493C253.966 644.374 254.162 644.175 254.253 644.015H254.266Z" fill="#AB750F"/>
<path id="Vector_278" d="M383 537.542C382.823 537.708 382.633 538.013 382.468 538C382.304 537.986 382.152 537.653 382 537.458C382.177 537.292 382.367 536.987 382.532 537C382.696 537 382.848 537.347 383 537.542Z" fill="#AB750F"/>
<path id="Vector_279" d="M153 384.511C152.916 384.678 152.831 384.844 152.735 385C152.494 384.833 152.241 384.656 152 384.489C152.169 384.322 152.337 384.167 152.506 384C152.663 384.167 152.831 384.344 152.988 384.511H153Z" fill="#AB750F"/>
<path id="Vector_280" d="M38.8836 323C38.2867 322.976 37.6975 322.943 37.1006 322.919C37.0618 322.161 36.6587 321.118 37.7983 321.012C39.2479 320.873 39.0541 322.006 38.8836 323Z" fill="#AB750F"/>
<path id="Vector_281" d="M189.13 569C189.729 569.025 190.319 569.05 190.918 569.074C190.926 569.817 191.353 570.872 190.18 570.988C188.581 571.136 189.04 569.907 189.13 569Z" fill="#AB750F"/>
<path id="Vector_282" d="M223 598.032C223.33 598.183 223.659 598.333 224 598.495C223.818 598.667 223.636 598.828 223.443 599C223.307 598.667 223.171 598.333 223.034 598L223 598.032Z" fill="#AB750F"/>
<path id="Vector_283" d="M97.9669 264C97.978 264.336 97.9891 264.664 98.0001 265C96.6947 264.695 96.6505 264.359 97.9669 264Z" fill="#AB750F"/>
<path id="Vector_284" d="M99.0001 264.976L98.5204 265H98.0408C98.0326 264.661 98.0164 264.331 98.0001 264C98.5855 264.087 98.9026 264.417 98.992 264.976H99.0001Z" fill="#AB750F"/>
<path id="Vector_285" d="M379.996 468C380.333 468 380.663 468 381 468C380.992 468.331 380.984 468.657 380.976 468.988L379 469C379.337 468.669 379.667 468.335 380.004 468H379.996Z" fill="#AB750F"/>
<path id="Vector_286" d="M281.953 561C281.635 561.339 281.318 561.661 281 562C281.048 561.79 281.032 561.484 281.175 561.371C281.397 561.194 281.714 561.145 282 561.032L281.968 561H281.953Z" fill="#AB750F"/>
<path id="Vector_287" d="M22.0563 471C21.9882 470.67 21.9785 470.33 22.0466 470C22.3677 470.165 22.679 470.33 23.0001 470.496C22.6888 470.661 22.3774 470.835 22.0661 471H22.0563Z" fill="#AB750F"/>
<path id="Vector_288" d="M197 565C197.656 565.016 197.944 565.38 198 565.998C197.304 566.03 197.024 565.642 197 565Z" fill="#AB750F"/>
<path id="Vector_289" d="M152 585.034C152.337 585.225 152.663 585.427 153 585.619C152.102 586.541 152.163 585.574 152.031 585L152 585.034Z" fill="#AB750F"/>
<path id="Vector_290" d="M323 427C323.076 426.412 323.39 426.059 324 426C323.932 426.597 323.602 426.933 323 427Z" fill="#AB750F"/>
<path id="Vector_291" d="M128 475C128.15 474.664 128.29 474.336 128.44 474C128.62 474.178 128.81 474.364 129 474.542C128.67 474.692 128.33 474.841 128 475Z" fill="#AB750F"/>
<path id="Vector_292" d="M54.9576 636C54.8193 636.33 54.6916 636.67 54.564 637C54.3725 636.83 54.1916 636.66 54.0001 636.5C54.3299 636.35 54.6703 636.19 55.0001 636.04L54.9576 636.01V636Z" fill="#AB750F"/>
<path id="Vector_293" d="M135.24 356.009C135.432 356.095 135.624 356.104 135.824 356.026C135.8 356.805 136.592 358 135 358C135.08 357.333 135.16 356.667 135.248 356L135.24 356.009Z" fill="#AB750F"/>
<path id="Vector_294" d="M168.011 558.011C168.344 558.212 168.667 558.401 169 558.602C168.031 559.593 168.198 558.479 168.021 558L168 558.022L168.011 558.011Z" fill="#AB750F"/>
<path id="Vector_295" d="M17.0001 316.244C16.7201 316.308 16.5538 316.551 16.5091 317C15.3405 316.026 16.5254 315.641 16.7039 315C17.0488 315.269 16.9109 315.827 17.0001 316.244Z" fill="#AB750F"/>
<path id="Vector_296" d="M266 644C266 643.331 266.013 642.669 266.02 642C266.507 642.099 267 642.215 267 643.017C267 643.826 266.48 643.901 266.007 644H266Z" fill="#AB750F"/>
<path id="Vector_297" d="M61.0001 446C60.8835 446.545 60.5584 446.893 60.0001 447C60.1085 446.438 60.4335 446.099 61.0001 446Z" fill="#AB750F"/>
<path id="Vector_298" d="M160 251.112C159.63 251.408 159.269 251.704 158.899 252C158.135 251.97 157.361 251.963 157 251.194C157.286 250.846 157.58 250.506 157.866 250.158C158.798 250.091 160.017 249.507 160 251.112Z" fill="#AB750F"/>
<path id="Vector_299" d="M367.969 552C368.01 552.336 368.01 552.664 367.969 553C367.641 552.897 367.086 552.836 367.035 552.672C366.85 552.052 367.435 552.017 367.969 552Z" fill="#AB750F"/>
<path id="Vector_300" d="M20.0001 633.246C20.7546 633.03 21.557 632.465 22.0001 634.4C21.2217 634.809 20.3355 635.975 20.0001 633.246Z" fill="#AB750F"/>
<path id="Vector_301" d="M2.83385 309.991C2.22527 309.932 1.6167 309.864 1.00012 309.804C1.02414 309.243 1.04816 308.673 1.07219 308.112C2.56959 307.772 3.37836 308.154 2.82584 310L2.83385 309.991Z" fill="#AB750F"/>
<path id="Vector_302" d="M323.974 563C324.009 563.331 324.009 563.661 323.974 564C323.653 563.831 323.321 563.67 323 563.509C323.321 563.339 323.642 563.17 323.974 563.008V563Z" fill="#AB750F"/>
<path id="Vector_303" d="M314 493.962L313.5 494L313 493.972C313.042 493.48 313.009 492.865 313.661 493.026C313.822 493.064 313.881 493.631 313.992 493.953L314 493.962Z" fill="#AB750F"/>
<path id="Vector_304" d="M184 192C183.658 191.985 183.325 191.92 183 191.81C183.017 191.204 183.042 190.606 183.058 190C184.233 190.35 183.95 191.234 184 192Z" fill="#AB750F"/>
<path id="Vector_305" d="M171.008 174.993C171.232 174.797 171.332 174.551 171.309 174.261C171.602 174.304 171.841 174.217 172.019 174C172.582 174.109 173.029 174.319 172.999 174.964C172.335 174.971 171.664 174.986 171 175L171.008 174.993Z" fill="#AB750F"/>
<path id="Vector_306" d="M170.014 174.028C170.337 174.028 170.652 174.014 170.975 174C171.097 175.521 170.781 176.182 170 175.957C170 175.309 170.007 174.676 170.014 174.028Z" fill="#AB750F"/>
<path id="Vector_307" d="M193 459.95L192.5 460C192.5 460 191.991 459.975 192 459.975C192.019 459.329 192.047 458.674 192.066 458.028C192.368 457.995 192.661 457.987 192.962 458.028C192.972 458.666 192.991 459.312 193 459.95Z" fill="#AB750F"/>
<path id="Vector_308" d="M91.9907 202C92.0404 202.827 91.9079 203.558 91.2287 204C91.121 203.144 90.4749 202.01 91.9907 202Z" fill="#AB750F"/>
<path id="Vector_309" d="M258.933 310C259.008 310.868 259.218 311.818 258.14 312C258.086 311.141 257.571 310.008 258.933 310Z" fill="#AB750F"/>
<path id="Vector_310" d="M18.0001 310.011C17.9755 310.292 17.9755 310.573 18.0001 310.854C17.1968 311.272 17.0985 310.717 17.0001 310.147C17.3198 310.019 17.6559 309.978 18.0001 310.011Z" fill="#AB750F"/>
<path id="Vector_311" d="M26.9876 334.112C27.0896 334.964 26.5403 335.378 26.3082 336C25.8099 335.877 25.1983 336.092 25.0001 335.14C25.5664 334.449 26.1156 333.705 26.9876 334.119V334.112Z" fill="#AB750F"/>
<path id="Vector_312" d="M125 697C124.984 697.413 124.935 697.814 124.003 698C123.987 697.579 124.003 697.17 125 697Z" fill="#AB750F"/>
<path id="Vector_313" d="M154.936 525.951L154.472 526L154 525.984C154 525.334 154.307 524.977 154.994 525.001C155.011 525.318 154.994 525.635 154.936 525.951Z" fill="#AB750F"/>
<path id="Vector_314" d="M190 556.316C189.972 556.857 189.943 557.398 189.915 557.939C189.292 557.962 188.674 557.977 188.057 558C188.04 557.428 188.023 556.857 188 556.285C188.669 555.896 189.337 555.904 190 556.316Z" fill="#AB750F"/>
<path id="Vector_315" d="M213 634.02C213.332 634.012 213.668 634.008 214 634C213.988 634.335 213.976 634.665 213.964 635C213.656 634.992 213.348 634.98 213.041 634.971C213.028 634.653 213.012 634.339 213 634.02Z" fill="#AB750F"/>
<path id="Vector_316" d="M60.0001 437.049C60.3364 436.984 60.6638 436.984 61.0001 437.049C60.9028 437.7 60.8143 438.35 60.7169 439H60.2479C60.1683 438.359 60.0886 437.709 60.0001 437.059V437.049Z" fill="#AB750F"/>
<path id="Vector_317" d="M195 362H194.5H194C194 361.664 194 361.336 194 361C194.331 361 194.669 361 195 361C195 361.336 195 361.664 195 362Z" fill="#AB750F"/>
</g>
</g>
<g id="Jungle">
<path id="Subtract" fill-rule="evenodd" clip-rule="evenodd" d="M191.83 314H347L284.335 387.97C284.335 387.97 268.296 408.805 284.335 424.709C300.374 440.613 311.689 451.092 311.689 451.092L310.197 498.433L277.87 522.596V548.732H207.561L197.485 538.742C197.485 538.742 275.189 517.473 247.065 489.581C218.94 461.689 163.482 472.79 163.482 472.79L150.054 499.419L169.45 500.898L181.883 517.665H123.197L107.531 533.199L131.155 556.623H154.226L160.841 550.064V570.923L153.704 578H95.3115L47 530.097L61.559 515.661C75.9277 504.616 90.9924 486.461 102.821 470.514C109.421 461.617 115.045 453.364 119.019 447.335C121.007 444.319 122.582 441.86 123.662 440.152C124.202 439.299 124.617 438.633 124.898 438.18C125.039 437.954 125.146 437.781 125.218 437.664L125.3 437.531L125.32 437.497L125.326 437.488L125.327 437.486C125.328 437.485 125.328 437.485 124.192 436.791C123.056 436.097 123.056 436.097 123.055 436.097L123.054 436.099L123.05 436.107L123.03 436.139L122.951 436.268C122.881 436.382 122.775 436.552 122.637 436.776C122.359 437.223 121.947 437.882 121.411 438.73C120.34 440.424 118.774 442.87 116.796 445.869C112.842 451.869 107.246 460.08 100.683 468.928C89.0512 484.609 74.4794 502.149 60.6712 512.98H54.5645L57.0512 486.597L47 475.26L65.7419 463.996C73.1316 460.946 80.0096 456.615 85.2289 452.881C88.2307 450.733 90.6989 448.773 92.4186 447.347C93.2787 446.634 93.9522 446.054 94.4123 445.651C94.6424 445.45 94.8192 445.293 94.9393 445.185C94.9993 445.131 95.0452 445.09 95.0765 445.061L95.1125 445.028L95.1222 445.02L95.1249 445.017L95.1258 445.016C95.1261 445.016 95.1263 445.016 94.2265 444.035C93.3267 443.054 93.3268 443.054 93.3268 443.053L93.3266 443.054L93.3252 443.055L93.3182 443.061L93.2876 443.089C93.2599 443.114 93.2177 443.152 93.1614 443.203C93.0489 443.304 92.8801 443.454 92.6583 443.648C92.2147 444.037 91.5595 444.601 90.7194 445.297C89.0387 446.691 86.6209 448.611 83.6797 450.716C79.806 453.487 75.0507 456.557 69.895 459.159L68.9874 435.311H78.4368V407.696H106.288V397.833H131.155L186.101 343.351L191.83 314Z" fill="#AB750F" fill-opacity="0.1"/>
</g>
</g>
<defs>
<linearGradient id="paint0_linear_2250_89410" x1="255.096" y1="29.0909" x2="236.143" y2="29.7749" gradientUnits="userSpaceOnUse">
<stop stop-color="#A9860F"/>
<stop offset="1" stop-color="#FFC502"/>
</linearGradient>
<linearGradient id="paint1_linear_2250_89410" x1="138.904" y1="29.0909" x2="157.857" y2="29.7749" gradientUnits="userSpaceOnUse">
<stop stop-color="#A9860F"/>
<stop offset="1" stop-color="#FFC502"/>
</linearGradient>
<linearGradient id="paint2_linear_2250_89410" x1="45.4408" y1="17.1937" x2="1.84231" y2="20.8781" gradientUnits="userSpaceOnUse">
<stop stop-color="#D8A956"/>
<stop offset="1" stop-color="#AB750F"/>
</linearGradient>
<linearGradient id="paint3_linear_2250_89410" x1="348.059" y1="17.1937" x2="391.658" y2="20.8781" gradientUnits="userSpaceOnUse">
<stop stop-color="#D8A956"/>
<stop offset="1" stop-color="#AB750F"/>
</linearGradient>
<linearGradient id="paint4_linear_2250_89410" x1="224.519" y1="747.78" x2="379.262" y2="747.78" gradientUnits="userSpaceOnUse">
<stop stop-color="#D8A956"/>
<stop offset="0.711424" stop-color="#AB750F"/>
</linearGradient>
<linearGradient id="paint5_linear_2250_89410" x1="169.482" y1="747.78" x2="14.7377" y2="747.78" gradientUnits="userSpaceOnUse">
<stop stop-color="#D8A956"/>
<stop offset="0.711424" stop-color="#AB750F"/>
</linearGradient>
<linearGradient id="paint6_linear_2250_89410" x1="196" y1="35.1106" x2="142" y2="35.1106" gradientUnits="userSpaceOnUse">
<stop stop-color="#FFC502"/>
<stop offset="1" stop-color="#FFC502" stop-opacity="0"/>
</linearGradient>
<linearGradient id="paint7_linear_2250_89410" x1="198" y1="35.1106" x2="251" y2="35.1106" gradientUnits="userSpaceOnUse">
<stop stop-color="#AB750F"/>
<stop offset="1" stop-color="#AB750F" stop-opacity="0"/>
</linearGradient>
<linearGradient id="paint8_linear_2250_89410" x1="313.54" y1="341.826" x2="313.54" y2="749.482" gradientUnits="userSpaceOnUse">
<stop stop-color="#D9D9D9" stop-opacity="0"/>
<stop offset="1" stop-color="#D8A956"/>
</linearGradient>
<linearGradient id="paint9_linear_2250_89410" x1="303.871" y1="587.561" x2="303.871" y2="789.221" gradientUnits="userSpaceOnUse">
<stop stop-color="#D9D9D9" stop-opacity="0"/>
<stop offset="1" stop-color="#D8A956"/>
</linearGradient>
</defs>
</svg>
