<svg width="393" height="492" viewBox="0 0 393 492" fill="none" xmlns="http://www.w3.org/2000/svg">
<g id="lineup">
<rect id="Rectangle 316" y="16" width="393" height="476" fill="#F5F1EE"/>
<g id="mountains" clip-path="url(#clip0_2249_37173)">
<path id="Union" fill-rule="evenodd" clip-rule="evenodd" d="M176.271 381.928C178.434 375.621 180.581 369.218 182.112 364.589C183.961 371.083 188.088 383.867 189.795 383.047C191.503 382.226 196.483 347.84 198.759 330.75L206.87 323.572L216.261 250.254L220.102 258.457L232.055 195.394L246.568 215.39L255.105 258.457V308.191L265.35 291.784L280.717 338.441L291.389 346.644L299.072 279.479L315.72 258.457L337.063 283.068L346.881 320.496L344.319 379.458L355.845 384.744L370.008 372.91L385.403 400.277L324.611 446.11L220.102 459.441L222.441 456.466L65.3724 448.836L57.2291 445.774C51.3617 446.746 44.1908 440.022 39.6016 435.719C37.5115 433.76 35.9568 432.302 35.3046 432.302C35.3046 432.302 24.6604 427.839 20.8971 418.218L8.3689 403.521C8.86694 403.034 8.78054 401.003 8.65797 398.122C8.43858 392.964 8.10331 385.083 10.7962 378.456C12.6779 383.833 16.8753 394.416 18.6122 393.737C20.349 393.058 25.4149 364.59 27.7307 350.44L35.9809 344.498L45.5337 283.797L49.4416 290.589L61.5997 238.378L76.3631 254.933L85.0475 290.589V331.763L95.4687 318.18L111.101 356.808L121.956 363.599L129.772 307.993L146.706 290.589L168.417 310.964L178.404 341.951L176.271 381.928ZM185.09 408.931L186.22 411.141L186.999 409.475L185.09 408.931ZM223.58 443.183L223.997 443.826L227.924 449.493L234.616 440.983C231.682 441.58 227.659 442.387 223.58 443.183Z" fill="url(#paint0_linear_2249_37173)" fill-opacity="0.3"/>
<path id="Union_2" fill-rule="evenodd" clip-rule="evenodd" d="M24.949 417.684C31.0501 404.915 39.565 399.216 42.2892 398.195C45.0134 397.173 52.2212 385.283 55.4845 379.466L63.572 401.6C65.5584 399.33 69.6164 395.471 69.9569 398.195C70.2974 400.919 75.7742 416.356 78.47 423.734L100.179 375.635L115.928 393.513L134.657 356.055L160.196 401.6L171.263 387.128C174.477 394.036 179.618 404.857 183.722 412.944C187.91 405.063 191.645 398.692 192.972 398.195C195.696 397.173 202.904 385.283 206.167 379.466L214.255 401.6C216.241 399.33 220.299 395.471 220.64 398.195C220.98 400.919 226.457 416.356 229.153 423.734L250.861 375.635L266.611 393.513L285.339 356.055L310.879 401.6L321.946 387.128C327.621 399.33 339.313 423.734 340.675 423.734C342.037 423.734 340.675 437.781 330.752 448.387L205.493 447.456C207.489 450.793 209.354 453.951 210.849 456.51H78.47L24.949 417.684Z" fill="url(#paint1_linear_2249_37173)" fill-opacity="0.6"/>
</g>
<g id="Dust">
<g id="Group" opacity="0.35">
<path id="Vector" d="M142.124 167.657C141.232 168.058 141.638 168.728 141.225 169.234C140.626 169.964 140.313 169.96 139.087 169.141L139.067 169.101C139.513 168.929 139.64 168.668 139.64 168.367C139.86 168.323 139.946 168.231 139.893 168.09C140.386 167.938 140.559 167.665 140.652 167.364L140.626 167.384C141.132 167.452 141.645 167.516 142.151 167.584L142.131 167.657H142.124Z" fill="#AB750F"/>
<path id="Vector_2" d="M135.57 212.019C135.65 212.188 135.73 212.356 135.81 212.525C135.816 212.85 135.823 213.171 135.836 213.496C135.776 213.68 135.716 213.869 135.656 214.054C135.09 214.19 134.524 214.23 133.951 214.074C133.905 213.548 133.858 213.022 133.812 212.501C133.925 212.344 133.945 212.184 133.885 212.015C134.085 211.923 134.145 211.802 134.071 211.658C134.331 211.598 134.591 211.537 134.851 211.477C135.09 211.658 135.33 211.842 135.57 212.023V212.019Z" fill="#AB750F"/>
<path id="Vector_3" d="M64.5111 219.033C64.1715 218.411 64.9108 217.998 65.3104 217.517H65.3237C65.6034 217.517 65.8765 217.521 66.1562 217.529C66.2095 217.685 66.2495 217.85 66.2695 218.014C66.3161 218.195 66.356 218.379 66.396 218.56C66.5958 218.716 66.789 218.869 66.9888 219.025C66.9755 219.174 66.9621 219.326 66.9621 219.475C66.7024 219.515 66.4426 219.559 66.1895 219.615C65.8965 219.655 65.6034 219.7 65.3104 219.74C65.1772 219.651 65.1838 219.563 65.3304 219.483C65.2371 219.214 64.9108 219.106 64.5178 219.037L64.5111 219.033Z" fill="#AB750F"/>
<path id="Vector_4" d="M261.377 195.976C262.503 195.759 263.242 195.887 263.156 196.722C263.116 197.131 263.036 197.537 262.969 197.942L262.989 197.93C262.177 198.01 261.997 197.48 261.424 197.328C261.557 197.175 261.511 197.047 261.278 196.947C261.318 196.618 261.358 196.289 261.397 195.959L261.377 195.976Z" fill="#AB750F"/>
<path id="Vector_5" d="M202.66 259.672C201.574 259.331 201.794 258.982 202.64 258.632C203.079 258.584 203.312 258.404 203.445 258.159C203.985 258.175 204.724 258.147 204.824 258.508C204.991 259.082 204.098 259.09 203.459 259.186C203.013 259.238 202.786 259.423 202.66 259.668V259.672Z" fill="#AB750F"/>
<path id="Vector_6" d="M197.232 308.391V308.367C198.064 309.081 198.364 309.76 196.852 310.305L196.879 310.321C196.493 309.868 195.847 309.459 196.213 308.877L196.106 308.949C196.479 308.764 196.859 308.58 197.232 308.395V308.391Z" fill="#AB750F"/>
<path id="Vector_7" d="M56.9182 178.656C56.7451 178.773 56.5452 178.877 56.4054 179.005C55.9924 179.383 55.4197 179.563 54.8136 179.266C54.1808 178.953 54.5072 178.584 54.9534 178.271C55.1199 178.151 55.2731 178.026 55.4396 177.906L55.413 177.914C56.1723 177.962 56.4054 178.415 56.9382 178.64L56.9182 178.66V178.656Z" fill="#AB750F"/>
<path id="Vector_8" d="M128.224 184.415C127.931 184.423 127.638 184.435 127.345 184.443C127.238 184.045 127.291 183.604 126.545 183.383C126.579 183.062 126.599 182.649 127.191 182.597C128.131 182.516 128.064 183.07 128.277 183.423C128.257 183.752 128.237 184.081 128.217 184.415H128.224Z" fill="#AB750F"/>
<path id="Vector_9" d="M299.114 217.472C298.755 217.472 298.395 217.472 298.035 217.472C297.936 217.155 297.836 216.834 297.742 216.517C298.289 216.357 298.841 216.2 299.388 216.04L299.361 216.028C299.601 216.349 299.834 216.67 300.074 216.991L300.173 216.955C299.82 217.127 299.467 217.3 299.114 217.468V217.472Z" fill="#AB750F"/>
<path id="Vector_10" d="M13.9793 193.066L13.9594 193.219C13.2201 193.552 12.4275 193.52 11.6149 193.351L11.7148 193.407C11.4418 192.93 11.4551 192.452 11.7348 191.975L11.6349 192.055C12.8005 192.063 13.4532 192.508 13.9727 193.066H13.9793Z" fill="#AB750F"/>
<path id="Vector_11" d="M83.5931 278.179C83.4133 277.216 83.1868 276.253 83.8395 275.314H84.0527C84.2724 276.293 85.3248 277.316 83.5931 278.179Z" fill="#AB750F"/>
<path id="Vector_12" d="M209.134 391.305C209.134 391.514 209.14 391.722 209.147 391.927C208.401 392.184 207.628 392.184 206.843 392.003L206.929 392.064C206.942 391.771 206.962 391.474 206.976 391.181L206.889 391.237C207.648 391.056 208.401 391.076 209.127 391.305H209.134Z" fill="#AB750F"/>
<path id="Vector_13" d="M147.912 374.03C147.585 373.877 147.226 373.749 146.946 373.572C146.553 373.324 146.227 372.986 146.833 372.734C147.379 372.505 147.825 372.754 148.118 373.059C148.045 373.38 147.978 373.705 147.912 374.026V374.03Z" fill="#AB750F"/>
<path id="Vector_14" d="M221.655 205.983C223.92 206.288 224.199 206.529 223.367 207.472C223.074 207.308 222.781 207.139 222.488 206.975H222.494C222.215 206.818 221.928 206.654 221.649 206.489L221.635 206.481C221.635 206.313 221.635 206.148 221.655 205.979V205.983Z" fill="#AB750F"/>
<path id="Vector_15" d="M360.07 287.806C359.924 288.247 359.784 288.693 359.637 289.134L359.684 289.118L358.192 288.653C358.205 288.428 358.225 288.203 358.239 287.978C358.485 287.93 358.705 287.854 358.898 287.746C359.291 287.766 359.684 287.786 360.077 287.806H360.07Z" fill="#AB750F"/>
<path id="Vector_16" d="M183.591 120.225C183.585 120.855 183.571 121.485 183.565 122.115C183.118 122.179 182.792 122.127 182.745 121.806C182.705 121.384 182.932 120.899 181.993 120.706C181.999 120.538 182.013 120.373 182.019 120.205L181.979 120.229C182.519 120.229 183.058 120.225 183.598 120.225H183.591Z" fill="#AB750F"/>
<path id="Vector_17" d="M324.184 324.86C325.243 324.965 324.903 325.502 325.056 325.888C325.123 326.064 325.196 326.241 325.263 326.417L325.01 326.489L324.816 326.365C324.643 326.413 324.463 326.421 324.277 326.381C323.338 326.277 323.478 325.827 323.458 325.43C323.837 325.302 324.164 325.153 324.177 324.856L324.184 324.86Z" fill="#AB750F"/>
<path id="Vector_18" d="M37.2839 326.233V326.028C37.537 325.815 37.7901 325.599 38.0432 325.386C39.4752 325.462 39.9947 325.771 38.8358 326.518C38.3163 326.421 37.8034 326.329 37.2839 326.233Z" fill="#AB750F"/>
<path id="Vector_19" d="M346.277 278.179H346.01C345.864 277.866 345.717 277.553 345.571 277.24C345.744 277.148 345.817 277.035 345.797 276.895C346.33 276.815 346.856 276.73 347.389 276.646C347.376 276.991 347.362 277.332 347.349 277.677C346.989 277.842 346.636 278.01 346.277 278.175V278.179Z" fill="#AB750F"/>
<path id="Vector_20" d="M249.795 273.66C249.795 273.528 249.795 273.392 249.795 273.259C250.055 273.075 250.321 272.89 250.581 272.705H250.594C250.987 272.557 251.38 272.412 251.78 272.272L251.887 272.264C252.02 272.581 252.16 272.898 252.293 273.215L252.266 273.231C251.827 273.287 251.547 273.444 251.434 273.713C250.887 273.696 250.341 273.676 249.795 273.66Z" fill="#AB750F"/>
<path id="Vector_21" d="M138.121 311.79C137.855 312.091 137.482 312.32 136.909 312.131C136.496 311.999 136.583 311.73 136.762 311.501C136.929 311.289 137.122 311.08 137.309 310.867C137.582 310.859 137.861 310.847 138.134 310.839C138.134 311.156 138.134 311.473 138.128 311.79H138.121Z" fill="#AB750F"/>
<path id="Vector_22" d="M75.0545 245.23C74.8414 245.306 74.6083 245.458 74.4285 245.438C73.9689 245.382 73.8224 245.145 74.0821 244.917C74.1887 244.824 74.6083 244.764 74.7615 244.816C74.9347 244.876 74.9613 245.085 75.0545 245.23Z" fill="#AB750F"/>
<path id="Vector_23" d="M128.211 259.009C127.758 258.985 127.471 258.837 127.538 258.56C127.605 258.295 127.944 258.159 128.364 258.235C128.557 258.271 128.79 258.419 128.837 258.54C128.943 258.821 128.644 258.965 128.211 259.009Z" fill="#AB750F"/>
<path id="Vector_24" d="M217.445 108.668C217.605 108.816 217.632 108.977 217.519 109.141C217.572 109.258 217.552 109.37 217.465 109.474C217.612 109.555 217.639 109.651 217.552 109.755C217.066 109.486 216.5 109.611 215.954 109.635C215.927 109.306 215.894 108.977 215.867 108.648C216.393 108.652 216.913 108.656 217.439 108.66L217.445 108.668Z" fill="#AB750F"/>
<path id="Vector_25" d="M209.167 270.691C208.547 270.647 207.821 270.619 207.955 270.097C208.041 269.768 208.647 269.732 209.147 269.712C209.154 270.037 209.16 270.362 209.167 270.691Z" fill="#AB750F"/>
<path id="Vector_26" d="M172.862 112.175C172.582 112.175 172.309 112.175 172.029 112.171C172.049 111.814 171.663 111.698 171.183 111.637C171.183 111.481 171.203 111.324 171.23 111.168C171.769 111.152 172.309 111.14 172.848 111.124C173.887 111.469 172.968 111.822 172.862 112.175Z" fill="#AB750F"/>
<path id="Vector_27" d="M169.598 116.336C169.751 116.445 170.045 116.553 170.045 116.661C170.045 116.954 169.678 117.079 169.259 116.966C169.099 116.922 168.952 116.682 169.006 116.565C169.052 116.465 169.392 116.413 169.605 116.34L169.598 116.336Z" fill="#AB750F"/>
<path id="Vector_28" d="M90.7328 123.331C90.5264 123.403 90.2932 123.552 90.1134 123.532C89.6672 123.475 89.5207 123.247 89.7737 123.022C89.8736 122.934 90.2866 122.878 90.4398 122.93C90.6063 122.99 90.6396 123.191 90.7328 123.331Z" fill="#AB750F"/>
<path id="Vector_29" d="M188.6 131.224C188.587 130.891 188.573 130.558 188.553 130.225C189.193 130.269 190.025 130.241 189.879 130.823C189.792 131.172 189.126 131.204 188.6 131.224Z" fill="#AB750F"/>
<path id="Vector_30" d="M38.6489 288.857C38.4491 288.941 38.2426 289.106 38.0628 289.098C37.5899 289.07 37.4034 288.845 37.6299 288.596C37.7231 288.496 38.1427 288.412 38.3159 288.456C38.489 288.5 38.5423 288.717 38.6489 288.857Z" fill="#AB750F"/>
<path id="Vector_31" d="M169.271 148.351C169.071 148.435 168.865 148.596 168.685 148.584C168.226 148.548 168.039 148.323 168.246 148.082C168.332 147.986 168.752 147.914 168.925 147.958C169.098 148.006 169.158 148.215 169.271 148.351Z" fill="#AB750F"/>
<path id="Vector_32" d="M71.1383 150.249C71.1782 149.92 71.2248 149.507 71.8309 149.467C72.8233 149.398 72.7367 149.908 72.7767 150.309C72.2305 150.289 71.6844 150.269 71.1316 150.253L71.1383 150.249Z" fill="#AB750F"/>
<path id="Vector_33" d="M336.426 151.97C336.606 152.019 336.926 152.043 337.012 152.139C337.212 152.356 337.065 152.576 336.666 152.641C336.493 152.669 336.14 152.58 336.06 152.484C335.887 152.275 335.98 152.067 336.426 151.97Z" fill="#AB750F"/>
<path id="Vector_34" d="M72.7833 294.872C71.9707 294.66 71.9241 294.234 71.9774 293.785C73.2562 293.869 73.9622 294.114 72.7833 294.872Z" fill="#AB750F"/>
<path id="Vector_35" d="M270.448 296.297C270.442 295.968 270.475 295.554 271.048 295.494C271.974 295.394 272.04 295.875 272.1 296.285L270.442 296.297H270.448Z" fill="#AB750F"/>
<path id="Vector_36" d="M28.792 167.324L28.5523 167.3L28.3125 167.32C28.2392 166.995 28.1726 166.67 28.0994 166.349L28.1127 166.341C28.4457 166.188 28.7854 166.036 29.1184 165.883C29.2649 165.911 29.4114 165.911 29.5646 165.883C29.6312 166.204 29.6978 166.529 29.7644 166.85C29.4381 167.007 29.1117 167.167 28.7854 167.324H28.792Z" fill="#AB750F"/>
<path id="Vector_37" d="M391.227 171.288C391.3 171.718 391.24 172.111 390.514 172.344C390.208 172.151 389.902 171.962 389.595 171.77C389.588 171.481 389.582 171.196 389.575 170.907C389.842 170.863 390.115 170.839 390.388 170.839L390.414 170.851C390.687 170.995 390.954 171.14 391.227 171.284V171.288Z" fill="#AB750F"/>
<path id="Vector_38" d="M60.3687 176.878C59.6361 177.204 58.9035 177.537 57.9044 177.368C57.8977 177.216 57.8977 177.063 57.9044 176.911C58.1841 176.738 58.4639 176.561 58.7503 176.389L58.7303 176.401C59.2698 176.417 59.8093 176.429 60.3554 176.445C60.3421 176.59 60.3554 176.738 60.3754 176.883L60.3687 176.878Z" fill="#AB750F"/>
<path id="Vector_39" d="M28.106 307.328C28.1126 306.995 28.1259 306.662 28.1326 306.329C28.6588 306.349 29.3315 306.377 29.418 306.722C29.5712 307.296 28.7387 307.276 28.106 307.328Z" fill="#AB750F"/>
<path id="Vector_40" d="M31.4424 180.839C31.4891 180.522 31.4957 180.105 32.1018 180.064C33.0476 180 33.0143 180.502 33.0676 180.899C32.5214 180.879 31.9819 180.859 31.4358 180.843L31.4424 180.839Z" fill="#AB750F"/>
<path id="Vector_41" d="M223.194 310.831C223.78 310.831 224.366 310.831 224.959 310.835C224.939 311.168 224.925 311.502 224.905 311.831L223.507 311.803C223.4 311.477 223.3 311.152 223.194 310.827V310.831Z" fill="#AB750F"/>
<path id="Vector_42" d="M126.539 183.885C126.546 184.318 126.439 184.716 125.706 184.924C124.381 184.102 125.467 183.993 126.539 183.885Z" fill="#AB750F"/>
<path id="Vector_43" d="M131.181 314.796C130.841 314.796 130.495 314.796 130.155 314.796C130.082 314.487 130.009 314.174 129.929 313.865L129.875 313.897C130.415 313.889 130.948 313.881 131.487 313.877L131.454 313.857C131.367 314.17 131.274 314.483 131.181 314.796Z" fill="#AB750F"/>
<path id="Vector_44" d="M276.21 190.422C275.597 190.366 274.651 190.354 274.898 189.856C275.171 189.31 275.83 189.563 276.243 189.928C276.236 190.093 276.223 190.257 276.203 190.422H276.21Z" fill="#AB750F"/>
<path id="Vector_45" d="M167.007 317.738C166.828 317.645 166.528 317.569 166.481 317.461C166.368 317.164 166.688 316.991 167.141 317.011C167.607 317.031 167.793 317.268 167.64 317.513C167.573 317.621 167.227 317.665 167.007 317.738Z" fill="#AB750F"/>
<path id="Vector_46" d="M253.372 318.327C253.551 318.231 253.731 318.059 253.911 318.059C254.397 318.059 254.59 318.283 254.411 318.536C254.337 318.632 253.938 318.721 253.751 318.689C253.585 318.661 253.498 318.452 253.378 318.327H253.372Z" fill="#AB750F"/>
<path id="Vector_47" d="M229.927 196.794C229.508 196.726 229.308 196.545 229.448 196.313C229.508 196.216 229.841 196.112 230.034 196.12C230.467 196.144 230.633 196.361 230.507 196.59C230.453 196.686 230.127 196.726 229.927 196.794Z" fill="#AB750F"/>
<path id="Vector_48" d="M170.057 323.307C169.964 323.436 169.931 323.632 169.771 323.689C169.405 323.809 169.032 323.725 168.932 323.472C168.885 323.359 169.032 323.143 169.198 323.091C169.564 322.97 169.884 323.075 170.064 323.311L170.057 323.307Z" fill="#AB750F"/>
<path id="Vector_49" d="M292.748 203.552C292.768 203.881 292.781 204.21 292.801 204.543C292.268 204.471 291.735 204.403 291.196 204.33C291.236 204.19 291.169 204.069 291.009 203.965C291.056 203.801 291.096 203.636 291.129 203.476C291.669 203.504 292.208 203.528 292.748 203.552Z" fill="#AB750F"/>
<path id="Vector_50" d="M116.615 325.398C116.069 325.386 115.516 325.374 114.97 325.362C114.97 325.045 114.97 324.732 114.97 324.419C115.516 324.419 116.056 324.419 116.602 324.419C116.602 324.744 116.615 325.069 116.622 325.394L116.615 325.398Z" fill="#AB750F"/>
<path id="Vector_51" d="M224.952 204.904C225.678 204.952 226.417 204.972 226.717 205.49L226.624 205.538C226.344 205.687 226.057 205.831 225.778 205.98L225.391 205.971H225.005C224.719 205.795 224.439 205.614 224.153 205.438C224.419 205.261 224.685 205.081 224.952 204.904Z" fill="#AB750F"/>
<path id="Vector_52" d="M89.3809 325.968C89.9138 325.944 90.4399 325.916 90.9661 325.892C90.9727 326.213 91.0127 326.646 90.4666 326.723C89.5674 326.851 89.4609 326.377 89.3743 325.968H89.3809Z" fill="#AB750F"/>
<path id="Vector_53" d="M175.339 328.042C175.499 328.151 175.792 328.259 175.792 328.368C175.792 328.664 175.426 328.789 175 328.677C174.833 328.632 174.693 328.388 174.74 328.267C174.78 328.167 175.126 328.115 175.339 328.042Z" fill="#AB750F"/>
<path id="Vector_54" d="M45.4096 334.403C44.8901 334.375 44.1841 334.399 44.1108 334.034C43.9976 333.48 44.8235 333.468 45.4762 333.412C45.4562 333.741 45.4362 334.074 45.4163 334.403H45.4096Z" fill="#AB750F"/>
<path id="Vector_55" d="M34.6531 335.094C34.6531 335.322 34.6665 335.551 34.6731 335.78C34.1403 335.828 33.6075 335.876 33.0813 335.924C33.0813 335.599 33.0813 335.274 33.088 334.945C33.6141 334.993 34.1336 335.041 34.6531 335.09V335.094Z" fill="#AB750F"/>
<path id="Vector_56" d="M300.121 336.927C300.207 336.522 299.894 335.98 301.04 335.936L301.026 335.928C301.273 336.164 301.526 336.397 301.772 336.634V336.738C301.286 336.899 300.807 337.059 300.32 337.22C300.394 337.087 300.32 336.991 300.121 336.927Z" fill="#AB750F"/>
<path id="Vector_57" d="M157.196 336.999C157.729 336.975 158.255 336.951 158.788 336.931C158.788 337.252 158.828 337.686 158.282 337.762C157.383 337.886 157.283 337.409 157.196 337.003V336.999Z" fill="#AB750F"/>
<path id="Vector_58" d="M172.862 339.949C172.243 339.888 171.283 339.892 171.53 339.379C171.796 338.829 172.476 339.074 172.929 339.427C172.909 339.599 172.889 339.776 172.869 339.949H172.862Z" fill="#AB750F"/>
<path id="Vector_59" d="M369.574 361.04C369.854 361.213 370.16 361.377 370.42 361.558C370.726 361.77 370.7 362.035 370.407 362.212C369.794 362.589 369.454 362.144 369.128 361.971C368.642 361.714 368.975 361.365 369.055 361.052C369.228 361.084 369.408 361.08 369.581 361.04H369.574Z" fill="#AB750F"/>
<path id="Vector_60" d="M1.02511 270.145C0.452324 269.258 0.985153 268.994 2.41712 269.238L2.39714 269.218C2.4038 269.379 2.43044 269.543 2.48373 269.7V269.708C2.16403 269.864 1.84434 270.021 1.5313 270.177L1.29153 270.105L1.03177 270.141L1.02511 270.145Z" fill="#AB750F"/>
<path id="Vector_61" d="M384.653 180.883C384.64 180.558 384.627 180.229 384.614 179.904C385.253 179.884 385.819 179.964 386.199 180.313C385.926 180.506 385.653 180.698 385.373 180.895L385.013 180.879H384.653V180.883Z" fill="#AB750F"/>
<path id="Vector_62" d="M35.452 182.043C35.3654 182.316 35.7517 182.717 35.059 182.817C34.7926 182.853 34.4263 182.621 34.1066 182.512H34C34.3597 182.328 34.7193 182.143 35.079 181.958C35.1656 182.055 35.2854 182.083 35.452 182.043Z" fill="#AB750F"/>
<path id="Vector_63" d="M41.3598 182.87C41.3199 182.488 41.5263 182.167 42.0325 181.927C42.3589 182.083 42.6786 182.24 43.0049 182.396C42.9583 182.536 42.945 182.681 42.965 182.821L41.3598 182.87Z" fill="#AB750F"/>
<path id="Vector_64" d="M21.5524 280.221C21.5391 279.937 21.4325 279.559 22.0786 279.543C22.6247 279.531 22.8645 279.844 22.8978 280.173C22.4515 280.189 21.9986 280.205 21.5524 280.221Z" fill="#AB750F"/>
<path id="Vector_65" d="M301.872 197.986L301.712 197.432C301.839 197.308 301.919 197.171 301.939 197.027C302.165 197.003 302.392 196.983 302.618 196.967C302.904 197.163 303.197 197.36 303.484 197.56C303.424 197.645 303.424 197.733 303.47 197.821C302.938 197.877 302.405 197.934 301.872 197.986Z" fill="#AB750F"/>
<path id="Vector_66" d="M282.024 289.744C282.31 289.92 282.604 290.097 282.89 290.274L282.031 290.779L282.017 290.771C281.744 290.607 281.471 290.442 281.198 290.282L281.178 290.27C281.178 290.101 281.192 289.932 281.192 289.764C281.465 289.752 281.738 289.748 282.011 289.744H282.024Z" fill="#AB750F"/>
<path id="Vector_67" d="M360.596 215.526C360.929 215.145 361.429 214.864 362.002 215.281C362.348 215.538 361.928 215.835 361.462 216.008C361.169 215.847 360.883 215.687 360.59 215.526H360.596Z" fill="#AB750F"/>
<path id="Vector_68" d="M242.289 301.779C241.596 301.799 240.77 301.991 240.65 301.297L240.663 301.285C240.97 301.128 241.27 300.972 241.576 300.815C241.796 300.815 242.015 300.815 242.235 300.815C242.242 301.14 242.255 301.466 242.262 301.791L242.295 301.779H242.289Z" fill="#AB750F"/>
<path id="Vector_69" d="M17.5824 302.349C17.9953 302.22 18.2751 301.807 18.8678 302.076C19.0077 302.136 19.0344 302.417 18.9278 302.525C18.5548 302.886 18.0087 302.682 17.5225 302.621C17.6557 302.541 17.6756 302.449 17.5824 302.349Z" fill="#AB750F"/>
<path id="Vector_70" d="M353.983 303.837C353.89 303.411 354.096 303.07 354.702 302.83C355.008 303.002 355.322 303.179 355.628 303.351C355.601 303.48 355.595 303.608 355.615 303.736C355.075 303.769 354.529 303.805 353.989 303.837H353.983Z" fill="#AB750F"/>
<path id="Vector_71" d="M216.713 305.318C216.34 305.261 215.707 305.257 215.641 305.137C215.354 304.627 216.107 304.499 216.666 304.318C216.686 304.651 216.7 304.984 216.713 305.318Z" fill="#AB750F"/>
<path id="Vector_72" d="M91.7987 393.115C91.2725 392.939 90.8729 392.662 91.3725 392.357C91.872 392.052 92.3249 392.289 92.6246 392.61C92.3515 392.778 92.0718 392.947 91.7987 393.115Z" fill="#AB750F"/>
<path id="Vector_73" d="M18.7878 309.218C17.9153 308.833 18.1684 308.372 18.5414 307.898L18.6213 307.878C19.254 308.311 19.1807 308.777 18.7545 309.25L18.7878 309.214V309.218Z" fill="#AB750F"/>
<path id="Vector_74" d="M114.963 127.195C114.963 127.026 114.956 126.858 114.95 126.689C115.236 126.529 115.522 126.372 115.802 126.216C116.568 126.4 116.621 126.794 116.608 127.211C116.062 127.207 115.509 127.199 114.963 127.195Z" fill="#AB750F"/>
<path id="Vector_75" d="M67.275 130.273L67.6213 130.257C67.9543 130.425 68.294 130.594 68.627 130.762C68.5871 130.887 68.5804 131.015 68.6071 131.14C68.0676 131.172 67.5281 131.204 66.9886 131.236H66.9819C67.0818 130.911 67.1817 130.59 67.2816 130.273H67.275Z" fill="#AB750F"/>
<path id="Vector_76" d="M231.486 148.777C230.906 148.789 230.394 148.696 229.987 148.44C230.307 148.235 230.627 148.03 230.946 147.822L231.306 147.834C231.366 148.151 231.419 148.464 231.479 148.777H231.486Z" fill="#AB750F"/>
<path id="Vector_77" d="M301.492 249.86C301.279 249.924 301.046 250.057 300.866 250.037C300.427 249.988 300.274 249.768 300.487 249.535C300.553 249.463 300.966 249.427 301.106 249.479C301.293 249.551 301.373 249.728 301.499 249.86H301.492Z" fill="#AB750F"/>
<path id="Vector_78" d="M158.795 336.414C158.495 336.253 158.195 336.089 157.896 335.928C157.915 335.751 157.935 335.579 157.962 335.402C158.508 335.418 159.054 335.434 159.607 335.45C159.587 335.852 159.507 336.229 158.795 336.414Z" fill="#AB750F"/>
<path id="Vector_79" d="M124.075 394.158C123.535 394.114 123.002 394.07 122.463 394.03C122.516 393.934 122.516 393.833 122.456 393.737C122.749 393.536 123.036 393.332 123.329 393.131C123.522 393.143 123.722 393.143 123.915 393.135C123.982 393.464 124.048 393.797 124.115 394.126L124.075 394.158Z" fill="#AB750F"/>
<path id="Vector_80" d="M178.636 336.409C178.909 336.389 179.182 336.389 179.455 336.413C179.455 336.73 179.735 336.879 180.248 336.883C180.348 336.951 180.447 337.023 180.547 337.096C180.434 337.196 180.361 337.308 180.321 337.425C179.835 337.413 179.355 337.397 178.869 337.384C178.789 337.059 178.702 336.738 178.623 336.413L178.643 336.405L178.636 336.409Z" fill="#AB750F"/>
<path id="Vector_81" d="M57.0714 255.109C57.0581 254.957 57.0581 254.804 57.0581 254.652C57.3512 254.487 57.6442 254.326 57.9373 254.162L57.9106 254.182L58.2903 254.194L58.6699 254.186V254.158C58.6832 254.487 58.6899 254.816 58.6965 255.145C58.1504 255.129 57.6043 255.117 57.0581 255.109H57.0714Z" fill="#AB750F"/>
<path id="Vector_82" d="M277.915 338.468C278.434 338.271 278.787 337.882 279.533 337.938C279.649 338.66 279.12 338.964 277.948 338.849C278.008 338.721 277.995 338.592 277.915 338.468Z" fill="#AB750F"/>
<path id="Vector_83" d="M254.55 257.621C254.437 257.757 254.384 257.962 254.204 258.01C254.037 258.054 253.751 257.938 253.511 257.89C253.644 257.753 253.731 257.589 253.918 257.492C254.184 257.348 254.43 257.412 254.55 257.621Z" fill="#AB750F"/>
<path id="Vector_84" d="M256.343 165.353C256.642 165.169 256.935 164.98 257.235 164.796C257.508 164.812 257.774 164.824 258.048 164.832V165.353C257.781 165.518 257.515 165.682 257.248 165.847L257.222 165.863C256.929 165.691 256.636 165.522 256.343 165.349V165.353Z" fill="#AB750F"/>
<path id="Vector_85" d="M19.8534 166.365C20.3862 166.549 20.9191 166.73 21.4452 166.914C21.3586 167.015 21.352 167.115 21.4319 167.219C20.8991 167.268 20.3729 167.312 19.8401 167.36C19.8534 167.027 19.8667 166.694 19.88 166.361L19.8601 166.369L19.8534 166.365Z" fill="#AB750F"/>
<path id="Vector_86" d="M344.891 262.156C345.297 261.827 345.817 261.505 346.336 261.995C346.636 262.276 346.203 262.561 345.67 262.677C345.41 262.505 345.151 262.328 344.891 262.156Z" fill="#AB750F"/>
<path id="Vector_87" d="M111.613 386.662C111.587 386.803 111.593 386.939 111.64 387.08C111.254 387.236 110.867 387.389 110.481 387.545C110.288 387.393 110.101 387.24 109.908 387.088C109.935 386.923 109.961 386.759 110.001 386.594H109.995C110.534 386.618 111.074 386.642 111.613 386.662Z" fill="#AB750F"/>
<path id="Vector_88" d="M147.219 266.666C147.512 266.353 147.965 266.129 148.458 266.413C148.957 266.702 148.578 266.983 148.098 267.176C147.805 267.007 147.512 266.835 147.219 266.666Z" fill="#AB750F"/>
<path id="Vector_89" d="M128.217 360.547L126.565 360.47C127.185 359.937 127.751 359.856 128.217 360.547Z" fill="#AB750F"/>
<path id="Vector_90" d="M302.678 359.957C302.232 359.957 301.779 359.889 301.912 359.556C302.065 359.154 302.452 359.327 302.778 359.503C302.725 359.652 302.691 359.804 302.678 359.957Z" fill="#AB750F"/>
<path id="Vector_91" d="M167.926 113.66C167.926 113.331 167.913 113.006 167.906 112.677C168.18 112.661 168.453 112.657 168.726 112.673C168.726 112.85 168.726 113.026 168.726 113.207C168.746 113.359 168.726 113.512 168.646 113.66H168.286H167.926Z" fill="#AB750F"/>
<path id="Vector_92" d="M164.576 117.676C165.123 117.684 165.675 117.688 166.221 117.696C166.221 117.841 166.221 117.985 166.208 118.13C165.662 118.146 165.123 118.162 164.576 118.178C164.563 118.009 164.563 117.845 164.576 117.676Z" fill="#AB750F"/>
<path id="Vector_93" d="M87.6761 118.704C88.2222 118.7 88.7684 118.692 89.3212 118.684C89.3212 118.856 89.3212 119.033 89.3212 119.206C88.7751 119.181 88.2289 119.157 87.6828 119.133C87.6828 118.989 87.6761 118.844 87.6694 118.7L87.6761 118.704Z" fill="#AB750F"/>
<path id="Vector_94" d="M43.7641 355.001C43.8041 355.334 43.8374 355.667 43.8773 356C43.5776 356 43.2846 355.996 42.9849 355.992C43.0182 355.659 43.0581 355.33 43.0914 355.001C43.3179 355.009 43.5377 355.009 43.7641 355.001Z" fill="#AB750F"/>
<path id="Vector_95" d="M150.849 122.617C150.729 122.304 150.602 121.995 150.482 121.682C152.401 121.638 151.055 122.256 151.002 122.613H150.849V122.617Z" fill="#AB750F"/>
<path id="Vector_96" d="M211.744 124.234C212.244 124.294 212.743 124.354 213.243 124.414L213.289 124.475C212.777 124.539 212.264 124.599 211.751 124.659C211.738 124.515 211.738 124.374 211.751 124.23L211.744 124.234Z" fill="#AB750F"/>
<path id="Vector_97" d="M210.639 131.188C210.233 130.819 209.753 130.441 210.892 130.225C210.806 130.546 210.719 130.867 210.639 131.188Z" fill="#AB750F"/>
<path id="Vector_98" d="M49.6787 134.72C49.6321 134.31 49.6321 133.917 50.4313 133.757C50.4313 134.15 50.3847 134.531 49.6787 134.72Z" fill="#AB750F"/>
<path id="Vector_99" d="M119.133 138.315C119.672 138.291 120.211 138.263 120.751 138.239V138.776C120.205 138.748 119.659 138.72 119.113 138.692C119.133 138.568 119.139 138.443 119.133 138.315Z" fill="#AB750F"/>
<path id="Vector_100" d="M160.453 141.272C161.006 141.272 161.552 141.264 162.098 141.264V141.77C161.552 141.758 160.999 141.75 160.453 141.742C160.453 141.585 160.453 141.429 160.453 141.276V141.272Z" fill="#AB750F"/>
<path id="Vector_101" d="M244.753 147.279C243.867 146.914 243.674 146.573 244.846 146.28C244.813 146.613 244.786 146.946 244.753 147.279Z" fill="#AB750F"/>
<path id="Vector_102" d="M105.898 149.358C106.498 149.382 106.831 149.579 106.718 149.936C106.644 150.173 106.278 150.269 105.878 150.265C105.878 149.964 105.892 149.663 105.898 149.358Z" fill="#AB750F"/>
<path id="Vector_103" d="M392.825 153.748C392.099 153.656 391.646 153.431 392.253 153.018C392.479 152.865 392.845 153.11 392.999 153.307C392.899 153.447 392.839 153.596 392.825 153.748Z" fill="#AB750F"/>
<path id="Vector_104" d="M182.832 154.39L184.424 154.322C184.424 154.498 184.437 154.671 184.437 154.847C183.891 154.811 183.352 154.775 182.805 154.735C182.832 154.623 182.839 154.506 182.832 154.39Z" fill="#AB750F"/>
<path id="Vector_105" d="M112.479 160.329C113.005 160.358 113.538 160.386 114.064 160.414C114.064 160.526 114.071 160.638 114.098 160.751L112.472 160.855C112.472 160.679 112.472 160.502 112.472 160.325L112.479 160.329Z" fill="#AB750F"/>
<path id="Vector_106" d="M105.053 161.858C105.599 161.846 106.145 161.838 106.691 161.826C106.704 161.99 106.698 162.155 106.685 162.324C106.145 162.307 105.599 162.291 105.059 162.275C105.059 162.135 105.059 161.998 105.059 161.858H105.053Z" fill="#AB750F"/>
<path id="Vector_107" d="M132.327 164.342C132.327 164.009 132.327 163.676 132.334 163.343C132.593 163.343 132.853 163.343 133.113 163.343C133.119 163.676 133.126 164.009 133.139 164.338H132.733H132.327V164.342Z" fill="#AB750F"/>
<path id="Vector_108" d="M259.699 163.836C259.978 163.832 260.258 163.824 260.545 163.816C260.538 164.157 260.531 164.499 260.525 164.84C260.252 164.856 259.985 164.84 259.725 164.788C259.719 164.471 259.705 164.153 259.699 163.832V163.836Z" fill="#AB750F"/>
<path id="Vector_109" d="M263.849 167.849C263.849 167.516 263.835 167.183 263.829 166.85C264.781 167.175 264.768 167.512 263.849 167.849Z" fill="#AB750F"/>
<path id="Vector_110" d="M100.057 168.829C100.584 168.873 101.11 168.921 101.643 168.965C101.623 169.057 101.629 169.15 101.676 169.242L100.064 169.402C100.064 169.21 100.064 169.021 100.057 168.829Z" fill="#AB750F"/>
<path id="Vector_111" d="M68.6335 174.88C68.6402 174.547 68.6535 174.214 68.6602 173.885C69.5527 174.226 69.5793 174.559 68.6335 174.88Z" fill="#AB750F"/>
<path id="Vector_112" d="M339.949 173.897C341.108 173.957 340.868 174.422 340.709 174.864C340.216 174.82 339.976 174.611 339.783 174.362C339.856 174.206 339.916 174.045 339.963 173.881L339.943 173.893L339.949 173.897Z" fill="#AB750F"/>
<path id="Vector_113" d="M44.3239 348.564C44.4371 348.865 44.5437 349.166 44.6569 349.467C43.3981 349.379 44.0242 348.93 44.184 348.568H44.3239V348.564Z" fill="#AB750F"/>
<path id="Vector_114" d="M192.716 179.848C192.689 180.189 192.662 180.53 192.636 180.875C191.757 180.506 191.777 180.165 192.716 179.848Z" fill="#AB750F"/>
<path id="Vector_115" d="M382.236 180.574C382.849 180.506 383.621 180.165 383.774 180.899H383.768C383.241 180.835 382.722 180.771 382.196 180.703L382.236 180.574Z" fill="#AB750F"/>
<path id="Vector_116" d="M41.4728 186.381C41.4196 186.056 41.3663 185.731 41.313 185.406L41.333 185.394C41.6127 185.386 41.8991 185.382 42.1788 185.374L42.2388 185.406C42.1722 185.735 42.1056 186.064 42.039 186.393C41.8525 186.377 41.6593 186.373 41.4728 186.377V186.381Z" fill="#AB750F"/>
<path id="Vector_117" d="M305.169 346.935C304.623 346.943 304.076 346.955 303.53 346.963V346.438C304.076 346.458 304.623 346.478 305.169 346.498C305.169 346.642 305.169 346.791 305.169 346.935Z" fill="#AB750F"/>
<path id="Vector_118" d="M2.41023 189.439C2.47017 189.114 2.53677 188.784 2.59671 188.459C2.78986 188.471 2.98301 188.467 3.1695 188.443C3.22279 188.772 3.28273 189.101 3.33601 189.435L2.40356 189.443L2.41023 189.439Z" fill="#AB750F"/>
<path id="Vector_119" d="M380.498 189.92C380.518 189.599 380.544 189.274 380.564 188.953C380.784 188.953 380.997 188.945 381.217 188.933C381.277 189.266 381.337 189.603 381.39 189.936C381.09 189.932 380.791 189.924 380.491 189.92H380.498Z" fill="#AB750F"/>
<path id="Vector_120" d="M106.684 190.927C107.237 190.927 107.79 190.931 108.336 190.935C108.336 191.092 108.336 191.248 108.329 191.405L106.691 191.429C106.691 191.26 106.691 191.096 106.691 190.927H106.684Z" fill="#AB750F"/>
<path id="Vector_121" d="M67.0222 199.451V198.468C67.9946 198.797 67.9946 199.122 67.0222 199.451Z" fill="#AB750F"/>
<path id="Vector_122" d="M73.563 200.398C73.3099 200.434 73.0568 200.466 72.8038 200.506C72.3508 200.574 72.0978 200.406 71.8513 200.221C72.1644 200.113 72.4641 199.968 72.7971 199.908C73.0235 199.868 73.3033 199.944 73.5564 199.972C73.5231 200.117 73.5231 200.257 73.5564 200.402L73.563 200.398Z" fill="#AB750F"/>
<path id="Vector_123" d="M18.1748 200.458C18.721 200.47 19.2671 200.486 19.8132 200.498C19.5468 200.675 19.2871 200.851 19.0207 201.024C18.5744 200.924 18.2747 200.747 18.1748 200.458Z" fill="#AB750F"/>
<path id="Vector_124" d="M168.719 207.492C169.271 207.492 169.817 207.492 170.364 207.492C170.364 207.653 170.364 207.809 170.364 207.966C169.817 207.97 169.265 207.974 168.719 207.978C168.719 207.813 168.719 207.649 168.719 207.488V207.492Z" fill="#AB750F"/>
<path id="Vector_125" d="M305.176 208.993C305.196 208.664 305.222 208.331 305.242 208.002C305.449 208.01 305.655 208.014 305.862 208.01C305.908 208.335 305.962 208.664 306.008 208.989C305.729 208.989 305.456 208.989 305.176 208.997V208.993Z" fill="#AB750F"/>
<path id="Vector_126" d="M264.687 343.44C264.661 343.773 264.641 344.106 264.614 344.439C263.688 344.082 263.575 343.745 264.687 343.44Z" fill="#AB750F"/>
<path id="Vector_127" d="M254.611 343.777C254.105 343.825 253.605 343.873 253.099 343.918C253.085 343.773 253.079 343.625 253.099 343.48C253.618 343.536 254.131 343.589 254.651 343.645L254.611 343.773V343.777Z" fill="#AB750F"/>
<path id="Vector_128" d="M60.7081 210.915C60.6015 210.775 60.4949 210.63 60.3884 210.49C60.1686 210.213 60.4683 209.98 60.788 209.98C61.101 209.98 61.4007 210.209 61.1676 210.486C61.0477 210.626 60.9545 210.771 60.8479 210.911H60.7081V210.915Z" fill="#AB750F"/>
<path id="Vector_129" d="M168.978 211.397C168.892 211.096 168.805 210.799 168.719 210.498C168.992 210.482 169.258 210.498 169.524 210.55C169.544 210.879 169.385 211.168 168.978 211.397Z" fill="#AB750F"/>
<path id="Vector_130" d="M83.5331 212.011C84.0793 212.015 84.6188 212.023 85.1649 212.027C85.1649 212.163 85.1583 212.304 85.1583 212.44C84.6188 212.448 84.0793 212.456 83.5465 212.464C83.5265 212.316 83.5265 212.163 83.5398 212.015L83.5331 212.011Z" fill="#AB750F"/>
<path id="Vector_131" d="M331.67 213.006C330.851 212.842 330.871 212.428 330.871 212.019L330.858 212.027C331.098 212.027 331.331 212.023 331.571 212.015C331.604 212.344 331.637 212.677 331.67 213.006Z" fill="#AB750F"/>
<path id="Vector_132" d="M360.616 212.525C361.162 212.521 361.708 212.517 362.254 212.513C362.268 212.677 362.268 212.842 362.254 213.006C361.708 212.994 361.162 212.982 360.609 212.974C360.609 212.826 360.609 212.677 360.609 212.529L360.616 212.525Z" fill="#AB750F"/>
<path id="Vector_133" d="M198.517 214.503C198.51 214.17 198.497 213.841 198.49 213.508C199.543 213.829 199.536 214.162 198.517 214.503Z" fill="#AB750F"/>
<path id="Vector_134" d="M199.257 215.92C198.371 215.815 198.344 215.43 198.451 215.005C199.41 215.089 199.27 215.526 199.257 215.92Z" fill="#AB750F"/>
<path id="Vector_135" d="M71.1249 217.019C70.0859 216.69 70.1126 216.353 71.1116 216.016C71.1116 216.349 71.1183 216.686 71.1249 217.019Z" fill="#AB750F"/>
<path id="Vector_136" d="M-0.000836979 216.529C0.825044 216.686 0.818383 217.087 0.75844 217.5C0.065766 217.304 -0.00749731 216.931 -0.000836979 216.529Z" fill="#AB750F"/>
<path id="Vector_137" d="M215.181 226.012C215.161 225.727 214.735 225.229 215.294 225.213C216.347 225.181 215.614 225.723 215.701 226.012H215.441H215.181Z" fill="#AB750F"/>
<path id="Vector_138" d="M109.229 228.038C109.209 227.709 109.195 227.38 109.175 227.055C110.321 227.36 110.148 227.693 109.229 228.038Z" fill="#AB750F"/>
<path id="Vector_139" d="M177.017 231.61C177.564 231.598 178.103 231.582 178.649 231.57C178.649 231.738 178.649 231.907 178.649 232.075C178.103 232.063 177.557 232.055 177.011 232.039C177.011 231.895 177.011 231.75 177.017 231.61Z" fill="#AB750F"/>
<path id="Vector_140" d="M6.60596 237.589C7.1521 237.593 7.70491 237.597 8.25106 237.605C8.25106 237.757 8.25106 237.906 8.2444 238.054C7.69826 238.07 7.1521 238.086 6.60596 238.103C6.60596 237.93 6.60596 237.757 6.60596 237.589Z" fill="#AB750F"/>
<path id="Vector_141" d="M86.8364 238.592C86.8364 238.259 86.8364 237.926 86.8431 237.593C87.1028 237.593 87.3693 237.593 87.629 237.593C87.6423 237.926 87.6623 238.259 87.6756 238.596C87.3959 238.596 87.1162 238.596 86.8364 238.596V238.592Z" fill="#AB750F"/>
<path id="Vector_142" d="M209.393 240.277C209.893 240.221 210.392 240.165 210.892 240.113C210.892 240.257 210.885 240.398 210.879 240.542C210.366 240.49 209.846 240.442 209.333 240.39L209.393 240.277Z" fill="#AB750F"/>
<path id="Vector_143" d="M6.57289 242.601C5.52056 242.288 5.66709 241.955 6.52627 241.614C6.53959 241.943 6.55957 242.272 6.57289 242.601Z" fill="#AB750F"/>
<path id="Vector_144" d="M267.151 242.617L268.797 242.605C268.797 242.773 268.797 242.942 268.797 243.11C268.244 243.106 267.698 243.102 267.145 243.098C267.145 242.938 267.145 242.777 267.145 242.617H267.151Z" fill="#AB750F"/>
<path id="Vector_145" d="M268.77 244.62C268.796 244.311 268.816 243.998 268.843 243.689C269.729 244.022 269.895 244.339 268.77 244.62Z" fill="#AB750F"/>
<path id="Vector_146" d="M3.38258 246.602C3.34262 246.273 3.30266 245.94 3.2627 245.611L4.10856 245.619C4.06859 245.944 4.02197 246.273 3.98201 246.598L3.68229 246.59L3.37592 246.598L3.38258 246.602Z" fill="#AB750F"/>
<path id="Vector_147" d="M270.482 247.625C269.29 247.348 269.57 247.003 270.349 246.63C270.396 246.963 270.436 247.292 270.482 247.625Z" fill="#AB750F"/>
<path id="Vector_148" d="M212.57 247.649C213.07 247.613 213.816 247.581 213.789 247.918C213.769 248.195 212.977 248.175 212.47 248.139C212.53 247.978 212.564 247.814 212.577 247.649H212.57Z" fill="#AB750F"/>
<path id="Vector_149" d="M218.338 249.631C217.339 249.326 217.452 248.989 218.271 248.64C218.291 248.969 218.318 249.302 218.338 249.631Z" fill="#AB750F"/>
<path id="Vector_150" d="M261.351 248.624C261.897 248.628 262.45 248.632 262.996 248.636C262.996 248.785 262.996 248.933 262.983 249.082C262.437 249.102 261.89 249.126 261.344 249.146C261.344 248.973 261.344 248.797 261.344 248.624H261.351Z" fill="#AB750F"/>
<path id="Vector_151" d="M53.2883 251.056C53.1751 250.751 53.0618 250.446 52.9553 250.145L52.9353 250.153L53.3416 250.133H53.7545C53.921 250.498 53.6013 250.783 53.3549 251.08L53.2883 251.056Z" fill="#AB750F"/>
<path id="Vector_152" d="M58.6634 257.176C58.6834 257.509 58.7034 257.846 58.7234 258.179C57.8175 257.862 57.7776 257.529 58.6634 257.176Z" fill="#AB750F"/>
<path id="Vector_153" d="M261.404 257.244C262.363 257.569 262.403 257.878 261.351 258.159C261.371 257.854 261.391 257.549 261.404 257.244Z" fill="#AB750F"/>
<path id="Vector_154" d="M34.7263 258.167C34.7463 258.331 34.7463 258.492 34.7263 258.656C34.1802 258.644 33.634 258.628 33.0879 258.616C33.361 258.448 33.6407 258.283 33.9138 258.115C34.1802 258.135 34.4533 258.151 34.7197 258.171L34.7263 258.167Z" fill="#AB750F"/>
<path id="Vector_155" d="M164.123 261.089C163.943 260.727 163.224 260.27 164.569 260.186L164.549 260.174C164.43 260.487 164.303 260.796 164.183 261.109L164.123 261.089Z" fill="#AB750F"/>
<path id="Vector_156" d="M48.8258 260.719L50.4376 260.679C50.4709 260.839 50.4709 261.004 50.4376 261.164C49.8981 261.14 49.3586 261.116 48.8125 261.092C48.8192 260.968 48.8192 260.843 48.8125 260.719H48.8258Z" fill="#AB750F"/>
<path id="Vector_157" d="M202.72 261.606C202.693 261.293 202.666 260.984 202.646 260.671C202.94 260.667 203.226 260.663 203.519 260.659C203.719 261.116 203.705 261.509 202.726 261.606H202.72Z" fill="#AB750F"/>
<path id="Vector_158" d="M294.44 260.675C294.986 260.675 295.532 260.679 296.078 260.683C296.078 260.835 296.085 260.988 296.078 261.144C295.532 261.156 294.979 261.168 294.426 261.18C294.426 261.012 294.426 260.843 294.433 260.679L294.44 260.675Z" fill="#AB750F"/>
<path id="Vector_159" d="M115.003 261.233C115.542 261.209 116.082 261.184 116.615 261.16C116.615 261.329 116.615 261.502 116.615 261.67C116.075 261.642 115.536 261.61 114.996 261.582C115.016 261.465 115.016 261.349 115.003 261.229V261.233Z" fill="#AB750F"/>
<path id="Vector_160" d="M6.59312 262.147C7.13927 262.176 7.67875 262.2 8.21824 262.228C8.20492 262.348 8.20492 262.468 8.21824 262.589C7.67875 262.621 7.13927 262.653 6.59978 262.685L6.58646 262.677C6.5798 262.509 6.56647 262.336 6.55981 262.168L6.58646 262.147H6.59312Z" fill="#AB750F"/>
<path id="Vector_161" d="M13.2467 262.167C13.2333 262.497 13.2134 262.826 13.2 263.155C12.3275 263.01 12.3009 262.613 12.4141 262.176C12.6939 262.176 12.9736 262.171 13.2467 262.167Z" fill="#AB750F"/>
<path id="Vector_162" d="M342.34 262.665C342.906 262.681 343.466 262.697 344.032 262.713C344.025 262.846 344.025 262.978 344.032 263.111C343.493 263.127 342.953 263.139 342.414 263.155C342.394 262.994 342.374 262.83 342.34 262.665Z" fill="#AB750F"/>
<path id="Vector_163" d="M86.7967 265.679C85.9242 265.337 85.8776 265.004 86.8234 264.683C86.8167 265.016 86.8034 265.349 86.7967 265.679Z" fill="#AB750F"/>
<path id="Vector_164" d="M191.877 264.679C191.843 265.025 191.81 265.37 191.777 265.715C191.564 265.699 191.357 265.699 191.144 265.715C191.111 265.37 191.077 265.025 191.044 264.679C191.324 264.679 191.597 264.679 191.877 264.679Z" fill="#AB750F"/>
<path id="Vector_165" d="M72.77 266.69C72.79 266.361 72.8033 266.028 72.83 265.699C73.0564 265.699 73.2829 265.699 73.5093 265.699C73.5426 266.028 73.5826 266.357 73.6159 266.69C73.3362 266.69 73.0498 266.69 72.77 266.69Z" fill="#AB750F"/>
<path id="Vector_166" d="M263.015 266.686C263.015 266.353 263.022 266.024 263.029 265.691C263.275 265.691 263.515 265.691 263.761 265.691L263.795 266.678H263.408H263.022L263.015 266.686Z" fill="#AB750F"/>
<path id="Vector_167" d="M356.467 267.188C357.02 267.188 357.566 267.196 358.119 267.2C358.119 267.36 358.119 267.517 358.119 267.677C357.572 267.677 357.02 267.685 356.473 267.685C356.467 267.521 356.467 267.352 356.473 267.188H356.467Z" fill="#AB750F"/>
<path id="Vector_168" d="M98.4253 270.217C98.9514 270.241 99.4776 270.265 100.004 270.294C100.004 270.414 100.017 270.534 100.05 270.655C99.4976 270.691 98.9514 270.727 98.4053 270.759C98.4053 270.578 98.4186 270.398 98.4253 270.217Z" fill="#AB750F"/>
<path id="Vector_169" d="M109.182 334.411C109.122 334.728 109.068 335.045 109.008 335.362C108.362 334.997 108.116 334.66 109.182 334.411Z" fill="#AB750F"/>
<path id="Vector_170" d="M161.445 281.69C161.386 281.369 161.326 281.052 161.266 280.731H161.272C161.552 280.731 161.832 280.731 162.105 280.727H162.111C162.045 281.056 161.972 281.381 161.905 281.706L161.679 281.686H161.445V281.69Z" fill="#AB750F"/>
<path id="Vector_171" d="M95.1089 282.248C95.6617 282.248 96.2078 282.244 96.754 282.24C96.754 282.401 96.754 282.565 96.754 282.726C96.2078 282.722 95.6617 282.714 95.1156 282.709C95.1156 282.557 95.1089 282.401 95.1156 282.244L95.1089 282.248Z" fill="#AB750F"/>
<path id="Vector_172" d="M344.978 285.213C345.264 284.764 345.85 284.687 346.55 284.74C346.55 284.924 346.563 285.109 346.57 285.293C346.017 285.261 345.471 285.233 344.918 285.201L344.978 285.213Z" fill="#AB750F"/>
<path id="Vector_173" d="M148.045 332.914C147.505 332.89 146.972 332.866 146.433 332.842C146.453 332.726 146.453 332.613 146.426 332.497C146.966 332.461 147.512 332.425 148.051 332.389L148.071 332.405C148.071 332.573 148.058 332.746 148.051 332.914H148.045Z" fill="#AB750F"/>
<path id="Vector_174" d="M61.1678 286.75C60.2819 286.405 60.2286 286.072 61.2011 285.751C61.1877 286.084 61.1811 286.417 61.1678 286.75Z" fill="#AB750F"/>
<path id="Vector_175" d="M54.554 332.38C54.0078 332.397 53.4617 332.409 52.9155 332.425C53.4151 331.791 53.9679 331.843 54.554 332.38Z" fill="#AB750F"/>
<path id="Vector_176" d="M46.9744 332.192C46.5947 332.236 46.1951 332.344 45.8421 332.304C45.4492 332.256 45.4558 332.011 45.8554 331.975C46.2084 331.943 46.6014 332.067 46.9744 332.12V332.188V332.192Z" fill="#AB750F"/>
<path id="Vector_177" d="M79.5305 290.719C79.4772 290.398 79.4173 290.077 79.364 289.756L79.384 289.748C79.6637 289.756 79.9368 289.76 80.2165 289.768C80.2565 290.157 80.1633 290.51 79.5305 290.715V290.719Z" fill="#AB750F"/>
<path id="Vector_178" d="M74.4419 290.29C74.9814 290.294 75.5209 290.298 76.0603 290.302C76.067 290.438 76.067 290.578 76.0603 290.715C75.5209 290.723 74.9747 290.731 74.4352 290.743C74.4152 290.591 74.4219 290.442 74.4352 290.29H74.4419Z" fill="#AB750F"/>
<path id="Vector_179" d="M245.626 290.253C246.138 290.277 246.658 290.298 247.171 290.322C246.878 290.747 246.292 290.827 245.619 290.803C245.619 290.619 245.619 290.434 245.626 290.253Z" fill="#AB750F"/>
<path id="Vector_180" d="M69.5066 294.339C70.0061 294.295 70.8053 294.242 70.7987 294.539C70.792 294.844 70.0061 294.776 69.5066 294.724C69.5066 294.595 69.5066 294.463 69.5066 294.335V294.339Z" fill="#AB750F"/>
<path id="Vector_181" d="M110.927 297.753C110.873 297.428 110.82 297.103 110.767 296.778C111.846 297.043 111.713 297.38 110.927 297.753Z" fill="#AB750F"/>
<path id="Vector_182" d="M248.929 298.801C248.956 298.472 248.976 298.143 249.002 297.814C249.848 298.167 249.902 298.496 248.929 298.801Z" fill="#AB750F"/>
<path id="Vector_183" d="M130.555 301.791C129.843 301.414 129.47 301.052 130.728 300.8C130.668 301.129 130.615 301.462 130.555 301.791Z" fill="#AB750F"/>
<path id="Vector_184" d="M194.481 303.48C195.113 303.327 195.839 303.022 195.952 303.789L195.986 303.773C195.473 303.717 194.967 303.656 194.454 303.6L194.481 303.484V303.48Z" fill="#AB750F"/>
<path id="Vector_185" d="M327.534 308.352C328.08 308.344 328.626 308.336 329.172 308.332C328.646 308.917 328.1 308.905 327.534 308.352Z" fill="#AB750F"/>
<path id="Vector_186" d="M191.171 310.005C191.424 309.961 191.677 309.924 191.923 309.872C192.423 309.772 192.616 309.916 192.536 310.189C192.476 310.394 192.216 310.414 191.91 310.318C191.684 310.245 191.417 310.217 191.164 310.169V310.009L191.171 310.005Z" fill="#AB750F"/>
<path id="Vector_187" d="M138.127 310.844C138.407 310.836 138.687 310.832 138.967 310.823C139.04 310.996 139.107 311.173 139.18 311.345C138.827 311.494 138.474 311.646 138.121 311.795C138.121 311.478 138.121 311.161 138.127 310.844Z" fill="#AB750F"/>
<path id="Vector_188" d="M313.374 321.895C313.454 322.212 313.521 322.718 313.041 322.718C312.569 322.718 312.635 322.212 312.715 321.895C312.935 321.891 313.155 321.891 313.374 321.895Z" fill="#AB750F"/>
<path id="Vector_189" d="M310.157 323.889C310.57 323.933 311.223 323.741 311.196 324.214C311.196 324.274 310.524 324.318 310.157 324.371C310.137 324.21 310.137 324.05 310.157 323.889Z" fill="#AB750F"/>
<path id="Vector_190" d="M236.494 326.899C236.534 326.57 236.581 326.241 236.621 325.912C237.433 326.281 237.66 326.622 236.494 326.899Z" fill="#AB750F"/>
<path id="Vector_191" d="M285.408 326.875C285.394 326.55 285.381 326.221 285.368 325.896C285.627 325.883 285.887 325.883 286.154 325.896C286.154 326.225 286.154 326.554 286.154 326.883H285.781H285.408V326.875Z" fill="#AB750F"/>
<path id="Vector_192" d="M166.494 329.331C166.408 329.022 166.328 328.713 166.248 328.404C167.513 328.476 166.887 328.954 166.781 329.323L166.501 329.331H166.494Z" fill="#AB750F"/>
<path id="Vector_193" d="M243.987 401.141C243.967 401.474 243.954 401.803 243.934 402.136C243.708 402.136 243.475 402.136 243.248 402.136C243.221 401.807 243.195 401.478 243.168 401.149C243.441 401.137 243.714 401.137 243.987 401.149V401.141Z" fill="#AB750F"/>
<path id="Vector_194" d="M152.175 400.137C152.135 400.462 152.101 400.787 152.061 401.108C151.862 401.108 151.662 401.108 151.462 401.12C151.415 400.791 151.375 400.462 151.329 400.133C151.609 400.133 151.888 400.133 152.175 400.133V400.137Z" fill="#AB750F"/>
<path id="Vector_195" d="M143.903 387.597C143.869 387.922 143.829 388.247 143.796 388.568C143.603 388.568 143.403 388.568 143.21 388.581L143.063 387.597L143.077 387.589C143.357 387.593 143.63 387.597 143.909 387.601L143.903 387.597Z" fill="#AB750F"/>
<path id="Vector_196" d="M129.003 383.115C128.424 383.608 127.871 383.681 127.365 383.071C127.911 383.083 128.457 383.099 129.003 383.115Z" fill="#AB750F"/>
<path id="Vector_197" d="M149.724 381.068C149.657 381.389 149.59 381.706 149.517 382.027H149.277L149.044 382.047C148.971 381.722 148.898 381.397 148.824 381.068C149.124 381.068 149.424 381.068 149.724 381.068Z" fill="#AB750F"/>
<path id="Vector_198" d="M179.249 380.137C179.315 380.446 179.382 380.759 179.455 381.068C179.215 381.068 178.976 381.064 178.736 381.06C178.796 380.743 178.862 380.43 178.922 380.113L179.249 380.137Z" fill="#AB750F"/>
<path id="Vector_199" d="M109.148 379.592C108.582 380.122 108.036 380.142 107.51 379.568C108.056 379.576 108.602 379.584 109.148 379.592Z" fill="#AB750F"/>
<path id="Vector_200" d="M191.89 379.086C193.102 379.126 192.775 379.62 192.662 380.049L192.689 380.037C192.429 380.037 192.176 380.021 191.93 379.981C191.916 379.684 191.903 379.383 191.89 379.086Z" fill="#AB750F"/>
<path id="Vector_201" d="M39.5485 376.598C39.6151 376.923 39.675 377.248 39.7416 377.573C39.4419 377.573 39.1488 377.569 38.8491 377.565C38.9157 377.24 38.9757 376.915 39.0356 376.59C39.2021 376.61 39.3686 376.614 39.5418 376.602L39.5485 376.598Z" fill="#AB750F"/>
<path id="Vector_202" d="M9.90327 374.03C9.35713 374.03 8.81098 374.038 8.27149 374.042C8.25817 373.886 8.25817 373.729 8.27815 373.577C8.81764 373.581 9.35712 373.585 9.88995 373.589C9.90327 373.737 9.90327 373.882 9.90327 374.03Z" fill="#AB750F"/>
<path id="Vector_203" d="M214.981 369.054C214.908 369.359 214.835 369.66 214.761 369.965L214.475 369.993C214.375 369.672 214.275 369.351 214.175 369.03L214.195 369.022C214.468 369.026 214.735 369.042 215.001 369.066L214.975 369.054H214.981Z" fill="#AB750F"/>
<path id="Vector_204" d="M49.4059 368.593C49.4725 368.906 49.5324 369.219 49.599 369.528H49.2127H48.8264C48.873 369.203 48.9263 368.882 48.9729 368.557C49.1062 368.597 49.2527 368.609 49.3992 368.593H49.4059Z" fill="#AB750F"/>
<path id="Vector_205" d="M53.6483 365.057C53.695 365.382 53.7416 365.707 53.7882 366.028C52.7159 365.759 52.8691 365.422 53.6483 365.057Z" fill="#AB750F"/>
<path id="Vector_206" d="M139.786 364.543C140.978 364.588 140.785 365.049 140.579 365.515C139.706 365.374 139.773 364.949 139.786 364.543Z" fill="#AB750F"/>
<path id="Vector_207" d="M163.783 102.677C163.983 102.725 164.336 102.753 164.363 102.821C164.469 103.102 164.11 103.118 163.77 103.114C163.763 102.97 163.77 102.821 163.783 102.677Z" fill="#AB750F"/>
<path id="Vector_208" d="M238.186 108.644C238.746 108.648 239.032 108.82 239.039 109.161C238.539 109.121 238.253 108.949 238.186 108.644Z" fill="#AB750F"/>
<path id="Vector_209" d="M199.316 112.159C198.957 112.171 198.584 112.159 198.69 111.862C198.717 111.79 199.083 111.758 199.296 111.71C199.31 111.858 199.316 112.011 199.316 112.159Z" fill="#AB750F"/>
<path id="Vector_210" d="M260.505 115.682C260.531 116.023 260.271 116.192 259.705 116.176C259.745 115.875 260.012 115.71 260.505 115.682Z" fill="#AB750F"/>
<path id="Vector_211" d="M101.749 117.227C102.002 117.187 102.262 117.175 102.522 117.195C102.509 117.508 102.262 117.681 101.723 117.669C101.716 117.52 101.723 117.372 101.743 117.227H101.749Z" fill="#AB750F"/>
<path id="Vector_212" d="M238.998 126.18C238.672 126.168 238.272 126.18 238.386 125.887C238.412 125.815 238.785 125.791 238.998 125.747C239.018 125.891 239.018 126.036 238.998 126.18Z" fill="#AB750F"/>
<path id="Vector_213" d="M225.778 128.704C226.39 128.676 226.663 128.857 226.623 129.222C226.104 129.194 225.824 129.017 225.778 128.704Z" fill="#AB750F"/>
<path id="Vector_214" d="M105.032 129.222C104.939 129.499 104.666 129.659 104.213 129.715C104.313 129.446 104.593 129.282 105.032 129.222Z" fill="#AB750F"/>
<path id="Vector_215" d="M130.675 129.226C131.054 129.218 131.474 129.218 131.361 129.543C131.334 129.619 130.921 129.647 130.688 129.695C130.681 129.539 130.675 129.382 130.675 129.226Z" fill="#AB750F"/>
<path id="Vector_216" d="M200.162 135.269C200.389 135.317 200.782 135.341 200.808 135.414C200.921 135.722 200.515 135.722 200.155 135.727C200.142 135.574 200.142 135.422 200.155 135.269H200.162Z" fill="#AB750F"/>
<path id="Vector_217" d="M16.5371 139.262C16.9834 139.322 17.2564 139.486 17.3563 139.759C16.9168 139.695 16.6437 139.531 16.5371 139.262Z" fill="#AB750F"/>
<path id="Vector_218" d="M11.5551 144.747C10.8425 144.595 10.8558 144.446 11.5551 144.298C11.5618 144.446 11.5618 144.599 11.5551 144.747Z" fill="#AB750F"/>
<path id="Vector_219" d="M147.219 154.306C147.219 154.141 147.212 153.973 147.219 153.808C147.492 153.804 147.772 153.804 148.045 153.808C148.045 153.965 148.045 154.117 148.032 154.274C147.765 154.298 147.499 154.302 147.232 154.29V154.31L147.219 154.306Z" fill="#AB750F"/>
<path id="Vector_220" d="M5.76074 163.808C5.56093 163.736 5.36778 163.664 5.16797 163.588C5.36778 163.515 5.56093 163.443 5.76074 163.367C5.77406 163.511 5.77406 163.66 5.76074 163.804V163.808Z" fill="#AB750F"/>
<path id="Vector_221" d="M261.357 163.857C261.064 163.857 260.771 163.857 260.485 163.857C260.465 163.496 260.758 163.339 261.337 163.363C261.337 163.528 261.35 163.689 261.364 163.853L261.357 163.857Z" fill="#AB750F"/>
<path id="Vector_222" d="M129.036 164.35C129.303 164.342 129.563 164.35 129.822 164.374C129.836 164.523 129.842 164.671 129.829 164.819C129.369 164.783 129.11 164.623 129.03 164.346L129.036 164.35Z" fill="#AB750F"/>
<path id="Vector_223" d="M68.6535 167.877C68.8867 167.926 69.2929 167.95 69.3196 168.022C69.4395 168.343 69.0132 168.335 68.6535 168.339C68.6402 168.186 68.6402 168.034 68.6535 167.877Z" fill="#AB750F"/>
<path id="Vector_224" d="M24.0364 169.37C24.2894 169.358 24.5492 169.35 24.8089 169.354C24.8289 169.703 24.5492 169.868 23.9764 169.856C23.9631 169.691 23.9831 169.531 24.0364 169.37Z" fill="#AB750F"/>
<path id="Vector_225" d="M119.932 171.886C120.378 171.934 120.638 172.091 120.718 172.364C120.291 172.304 120.032 172.143 119.932 171.886Z" fill="#AB750F"/>
<path id="Vector_226" d="M29.7508 178.359C29.4311 178.355 29.0715 178.343 29.178 178.07C29.2047 178.002 29.551 177.974 29.7442 177.93C29.7641 178.07 29.7641 178.215 29.7508 178.355V178.359Z" fill="#AB750F"/>
<path id="Vector_227" d="M47.1147 185.417C47.1014 185.734 46.8483 185.911 46.3088 185.919C46.3688 185.63 46.6352 185.462 47.1147 185.417Z" fill="#AB750F"/>
<path id="Vector_228" d="M243.155 187.416L242.509 187.208L243.121 186.975C243.141 187.123 243.148 187.272 243.155 187.416Z" fill="#AB750F"/>
<path id="Vector_229" d="M101.709 194.415C101.396 194.415 101.056 194.395 101.149 194.138C101.176 194.07 101.502 194.042 101.689 193.993C101.709 194.134 101.715 194.274 101.702 194.415H101.709Z" fill="#AB750F"/>
<path id="Vector_230" d="M172.855 194.443C172.855 194.274 172.855 194.109 172.855 193.941C173.128 193.941 173.408 193.941 173.681 193.941C173.681 194.101 173.681 194.258 173.674 194.414C173.401 194.443 173.135 194.447 172.862 194.439L172.855 194.443Z" fill="#AB750F"/>
<path id="Vector_231" d="M235.681 194.896C235.481 194.848 235.135 194.82 235.109 194.748C235.009 194.471 235.355 194.447 235.701 194.459C235.701 194.607 235.701 194.752 235.681 194.9V194.896Z" fill="#AB750F"/>
<path id="Vector_232" d="M154.679 200.458C154.645 200.113 154.912 199.94 155.491 199.956C155.491 200.125 155.464 200.285 155.385 200.442C155.145 200.454 154.912 200.458 154.672 200.454L154.679 200.458Z" fill="#AB750F"/>
<path id="Vector_233" d="M232.405 200.971C232.871 201.02 233.15 201.184 233.23 201.469C232.791 201.401 232.511 201.24 232.405 200.971Z" fill="#AB750F"/>
<path id="Vector_234" d="M21.4785 204.455C21.2654 204.383 21.0522 204.311 20.8391 204.238C21.0522 204.166 21.2587 204.09 21.4652 204.018C21.4785 204.162 21.4852 204.311 21.4718 204.455H21.4785Z" fill="#AB750F"/>
<path id="Vector_235" d="M205.943 203.985C206.469 203.993 206.736 204.158 206.756 204.475C206.489 204.475 206.223 204.459 205.957 204.419C205.943 204.274 205.937 204.13 205.937 203.981L205.943 203.985Z" fill="#AB750F"/>
<path id="Vector_236" d="M253.825 205.498C253.751 205.614 253.711 205.823 253.605 205.835C253.165 205.895 253.179 205.674 253.159 205.494C253.385 205.482 253.605 205.482 253.831 205.494L253.825 205.498Z" fill="#AB750F"/>
<path id="Vector_237" d="M332.47 205.482C332.45 205.803 332.184 205.984 331.644 205.996C331.717 205.707 331.99 205.53 332.47 205.482Z" fill="#AB750F"/>
<path id="Vector_238" d="M70.2988 206.995C70.5985 207.079 70.8983 207.159 71.2046 207.244C70.9915 207.444 70.6918 207.525 70.3055 207.472C70.3055 207.312 70.2988 207.155 70.3055 206.995H70.2988Z" fill="#AB750F"/>
<path id="Vector_239" d="M258.893 209.988C258.893 209.663 259.127 209.471 259.706 209.487C259.699 209.639 259.686 209.792 259.673 209.944C259.413 209.996 259.153 210.008 258.88 209.976L258.893 209.988Z" fill="#AB750F"/>
<path id="Vector_240" d="M155.498 211.53C155.831 211.53 156.164 211.562 156.051 211.822C156.024 211.895 155.691 211.919 155.505 211.967C155.485 211.822 155.485 211.678 155.505 211.534L155.498 211.53Z" fill="#AB750F"/>
<path id="Vector_241" d="M200.175 214.061C200.375 214.109 200.728 214.138 200.755 214.21C200.855 214.491 200.482 214.491 200.156 214.495C200.156 214.35 200.156 214.206 200.175 214.065V214.061Z" fill="#AB750F"/>
<path id="Vector_242" d="M133.992 215.032C134.218 215.081 134.624 215.109 134.651 215.185C134.771 215.502 134.358 215.51 133.985 215.51C133.985 215.349 133.985 215.193 133.992 215.032Z" fill="#AB750F"/>
<path id="Vector_243" d="M220.01 217.047C220.356 217.047 220.756 217.047 220.643 217.348C220.616 217.42 220.23 217.444 220.01 217.489C219.99 217.34 219.99 217.196 220.01 217.047Z" fill="#AB750F"/>
<path id="Vector_244" d="M277.043 229.519C276.836 229.475 276.47 229.451 276.443 229.382C276.337 229.094 276.723 229.102 277.043 229.094C277.063 229.234 277.063 229.378 277.043 229.519Z" fill="#AB750F"/>
<path id="Vector_245" d="M22.3511 232.529C22.3245 232.376 22.3178 232.228 22.3311 232.075C22.9106 232.059 23.2169 232.212 23.1703 232.577C22.8973 232.577 22.6242 232.565 22.3511 232.529Z" fill="#AB750F"/>
<path id="Vector_246" d="M96.7742 234.587C97.0406 234.579 97.3004 234.587 97.5602 234.623C97.5801 234.764 97.5801 234.908 97.5602 235.049C97.0873 235.028 96.8209 234.876 96.7676 234.591L96.7742 234.587Z" fill="#AB750F"/>
<path id="Vector_247" d="M146.333 239.106C146.32 239.306 146.34 239.551 145.847 239.487C145.734 239.471 145.694 239.242 145.62 239.11C145.86 239.098 146.093 239.098 146.333 239.11V239.106Z" fill="#AB750F"/>
<path id="Vector_248" d="M291.948 240.603C291.928 240.92 291.655 241.088 291.129 241.1C291.202 240.815 291.475 240.647 291.948 240.603Z" fill="#AB750F"/>
<path id="Vector_249" d="M294.446 242.613C294.712 242.601 294.979 242.613 295.239 242.645C295.252 242.802 295.265 242.958 295.265 243.111C294.726 243.103 294.473 242.926 294.446 242.609V242.613Z" fill="#AB750F"/>
<path id="Vector_250" d="M41.3459 247.629C41.8055 247.673 42.0586 247.842 42.1385 248.115H42.1585C41.8921 248.123 41.619 248.115 41.3526 248.095C41.3526 247.938 41.3459 247.786 41.3459 247.629Z" fill="#AB750F"/>
<path id="Vector_251" d="M160.46 250.655C160.793 250.667 161.193 250.655 161.086 250.952C161.059 251.024 160.686 251.048 160.467 251.096C160.453 250.948 160.447 250.803 160.453 250.655H160.46Z" fill="#AB750F"/>
<path id="Vector_252" d="M183.625 255.679C183.891 255.655 184.151 255.651 184.417 255.659C184.331 255.928 184.077 256.096 183.618 256.136C183.618 255.984 183.618 255.831 183.625 255.679Z" fill="#AB750F"/>
<path id="Vector_253" d="M105.033 260.165C105.033 259.997 105.033 259.832 105.033 259.664C105.306 259.664 105.586 259.664 105.859 259.664V260.165H105.446H105.033Z" fill="#AB750F"/>
<path id="Vector_254" d="M321.753 262.22C321.966 262.268 322.333 262.292 322.353 262.364C322.452 262.657 322.073 262.657 321.733 262.653C321.726 262.509 321.733 262.364 321.746 262.22H321.753Z" fill="#AB750F"/>
<path id="Vector_255" d="M13.2063 273.68C12.8933 273.668 12.507 273.676 12.6135 273.396C12.6402 273.323 12.9932 273.299 13.1996 273.255C13.2196 273.4 13.2196 273.54 13.1996 273.685L13.2063 273.68Z" fill="#AB750F"/>
<path id="Vector_256" d="M387.071 279.23C387.624 279.218 387.857 279.398 387.844 279.719C387.364 279.687 387.111 279.519 387.071 279.23Z" fill="#AB750F"/>
<path id="Vector_257" d="M68.667 280.278C69.0599 280.282 69.4329 280.334 69.2731 280.635C69.2331 280.711 68.8468 280.723 68.6204 280.763C68.6403 280.603 68.6537 280.438 68.6603 280.278H68.667Z" fill="#AB750F"/>
<path id="Vector_258" d="M335.84 281.249C336.053 281.333 336.273 281.417 336.486 281.502C336.259 281.578 336.04 281.654 335.813 281.73C335.793 281.57 335.8 281.409 335.84 281.249Z" fill="#AB750F"/>
<path id="Vector_259" d="M68.6941 283.732C68.9605 283.255 69.2136 283.307 69.46 283.741C69.2069 283.741 68.9538 283.741 68.6941 283.732Z" fill="#AB750F"/>
<path id="Vector_260" d="M187.721 283.716C188.26 283.744 188.513 283.929 188.553 284.246C188.074 284.186 187.814 284.001 187.721 283.716Z" fill="#AB750F"/>
<path id="Vector_261" d="M215.001 285.202C214.635 285.194 214.269 285.145 214.422 284.856C214.462 284.78 214.828 284.768 215.048 284.728C215.028 284.885 215.015 285.045 215.008 285.202H215.001Z" fill="#AB750F"/>
<path id="Vector_262" d="M48.7993 293.283C49.0657 293.271 49.3321 293.283 49.5919 293.315C49.6119 293.468 49.6185 293.62 49.6119 293.769C49.0524 293.785 48.786 293.62 48.7993 293.279V293.283Z" fill="#AB750F"/>
<path id="Vector_263" d="M6.60597 295.282C7.1721 295.273 7.45183 295.442 7.43851 295.787C7.17876 295.791 6.91901 295.779 6.65926 295.747L6.67258 295.755C6.6193 295.599 6.59931 295.442 6.60597 295.282Z" fill="#AB750F"/>
<path id="Vector_264" d="M49.625 297.802C49.8181 297.874 50.018 297.946 50.2111 298.018C50.0246 298.094 49.8315 298.171 49.645 298.247C49.6317 298.098 49.625 297.95 49.625 297.802Z" fill="#AB750F"/>
<path id="Vector_265" d="M33.9201 298.829C34.1866 298.801 34.4463 298.789 34.7127 298.805C34.6461 299.086 34.393 299.246 33.9201 299.267C33.9068 299.122 33.9068 298.978 33.9201 298.829Z" fill="#AB750F"/>
<path id="Vector_266" d="M106.704 385.587C106.791 385.31 107.057 385.145 107.517 385.093C107.41 385.354 107.144 385.523 106.704 385.587Z" fill="#AB750F"/>
<path id="Vector_267" d="M44.6567 385.097C45.1896 385.109 45.5026 385.262 45.5226 385.599C45.0497 385.551 44.7433 385.394 44.6567 385.097Z" fill="#AB750F"/>
<path id="Vector_268" d="M239.831 363.484C239.624 363.404 239.424 363.327 239.218 363.247C239.424 363.171 239.638 363.095 239.844 363.022C239.844 363.175 239.844 363.331 239.831 363.484Z" fill="#AB750F"/>
<path id="Vector_269" d="M157.989 382.12C158.196 382.164 158.555 382.188 158.582 382.256C158.689 382.541 158.309 382.541 157.983 382.545C157.963 382.401 157.969 382.26 157.983 382.116L157.989 382.12Z" fill="#AB750F"/>
<path id="Vector_270" d="M238.213 378.099C238.413 378.143 238.746 378.163 238.779 378.235C238.906 378.496 238.539 378.516 238.233 378.552C238.2 378.4 238.193 378.251 238.206 378.099H238.213Z" fill="#AB750F"/>
<path id="Vector_271" d="M315.999 402.16C316.212 402.244 316.432 402.329 316.651 402.413C316.418 402.481 316.192 402.545 315.959 402.614C315.945 402.461 315.959 402.309 315.999 402.16Z" fill="#AB750F"/>
<path id="Vector_272" d="M240.65 377.525C240.437 377.477 240.071 377.449 240.044 377.376C239.937 377.083 240.337 377.087 240.67 377.075C240.67 377.224 240.67 377.376 240.657 377.525H240.65Z" fill="#AB750F"/>
<path id="Vector_273" d="M139.766 343.444C140.213 343.504 140.479 343.669 140.566 343.941C140.126 343.881 139.866 343.709 139.766 343.444Z" fill="#AB750F"/>
<path id="Vector_274" d="M45.4827 375.049C46.0355 375.057 46.3352 375.218 46.3485 375.563C45.8556 375.519 45.5559 375.354 45.4827 375.049Z" fill="#AB750F"/>
<path id="Vector_275" d="M135.624 328.384C135.171 328.336 134.904 328.171 134.811 327.898H134.804C135.078 327.898 135.351 327.902 135.617 327.922C135.617 328.075 135.617 328.231 135.617 328.384H135.624Z" fill="#AB750F"/>
<path id="Vector_276" d="M111.619 338.392L111.227 338.428H110.827C110.86 338.123 111.12 337.954 111.639 337.942C111.639 338.091 111.639 338.243 111.619 338.392Z" fill="#AB750F"/>
<path id="Vector_277" d="M34.7457 373.079C35.0188 373.171 35.2985 373.263 35.5716 373.356C35.2852 373.432 34.9988 373.504 34.7124 373.58C34.7324 373.412 34.7457 373.247 34.7457 373.079Z" fill="#AB750F"/>
<path id="Vector_278" d="M306.002 325.378L305.602 325.386L305.209 325.35C305.189 325.198 305.182 325.041 305.189 324.889C305.755 324.873 306.002 325.053 306.002 325.378Z" fill="#AB750F"/>
<path id="Vector_279" d="M251.44 324.407C251.787 324.407 252.179 324.407 252.066 324.704C252.04 324.776 251.66 324.8 251.447 324.844C251.427 324.7 251.427 324.551 251.44 324.407Z" fill="#AB750F"/>
<path id="Vector_280" d="M248.949 386.602C249.495 386.602 249.788 386.755 249.788 387.096C249.295 387.06 249.009 386.899 248.949 386.602Z" fill="#AB750F"/>
<path id="Vector_281" d="M15.6443 318.877C15.6909 319.038 15.7109 319.198 15.6976 319.359C15.218 319.319 14.9383 319.158 14.885 318.865C15.1381 318.865 15.3912 318.869 15.6443 318.877Z" fill="#AB750F"/>
<path id="Vector_282" d="M227.483 318.351C227.483 318.159 227.51 317.946 227.949 318.006C228.063 318.022 228.109 318.227 228.189 318.343L227.836 318.355H227.483V318.351Z" fill="#AB750F"/>
<path id="Vector_283" d="M39.6681 370.499C39.4083 370.535 39.1419 370.547 38.8755 370.535C38.9088 370.23 39.1752 370.069 39.6814 370.057C39.688 370.206 39.6814 370.35 39.6681 370.499Z" fill="#AB750F"/>
<path id="Vector_284" d="M28.106 313.829C28.3324 313.873 28.712 313.889 28.752 313.966C28.8985 314.266 28.5322 314.319 28.1393 314.315C28.1393 314.154 28.1259 313.99 28.1126 313.829H28.106Z" fill="#AB750F"/>
<path id="Vector_285" d="M235.728 311.365C235.915 311.437 236.108 311.509 236.295 311.586C236.108 311.658 235.922 311.734 235.728 311.806C235.715 311.658 235.715 311.513 235.728 311.365Z" fill="#AB750F"/>
<path id="Vector_286" d="M368.835 363.476C368.282 363.508 368.083 363.327 368.076 363.023C368.602 363.002 368.815 363.183 368.835 363.476Z" fill="#AB750F"/>
<path id="Vector_287" d="M315.926 324.379C315.959 324.696 315.872 325.001 315.433 325.201C315.273 325.273 314.927 325.302 314.753 325.249C314.187 325.077 314.654 324.896 314.813 324.732C314.933 324.599 315.106 324.483 315.26 324.363H315.599L315.932 324.383L315.926 324.379Z" fill="#AB750F"/>
<path id="Vector_288" d="M315.952 322.372C315.899 322.685 315.839 322.999 315.093 322.85C314.98 322.826 314.8 322.738 314.813 322.702C314.966 322.328 315.406 322.288 315.939 322.368L315.952 322.372Z" fill="#AB750F"/>
<path id="Vector_289" d="M314.32 326.377C314.36 326.165 314.507 326.072 314.747 326.124C314.753 326.124 314.74 326.257 314.68 326.285C314.58 326.329 314.434 326.341 314.307 326.365L314.32 326.377Z" fill="#AB750F"/>
<path id="Vector_290" d="M312.582 325.398C312.742 325.274 312.895 325.145 313.055 325.021C313.548 325.418 312.968 325.382 312.602 325.426L312.582 325.398Z" fill="#AB750F"/>
<path id="Vector_291" d="M315.926 324.379L315.593 324.355H315.253C315.206 324.114 315.319 323.938 315.779 324.022C315.879 324.038 315.879 324.255 315.926 324.379Z" fill="#AB750F"/>
<path id="Vector_292" d="M19.7535 303.781C19.8668 304.09 19.8668 304.559 19.4272 304.571C18.9276 304.583 18.8944 304.138 18.9943 303.825C19.2473 303.829 19.5004 303.817 19.7535 303.785V303.781Z" fill="#AB750F"/>
<path id="Vector_293" d="M19.7537 303.781C19.5006 303.813 19.2542 303.825 18.9944 303.821C18.9078 303.428 19.2209 303.279 19.8336 303.319C19.8669 303.476 19.8403 303.628 19.7604 303.781H19.7537Z" fill="#AB750F"/>
<path id="Vector_294" d="M24.7758 184.884C24.2896 184.892 23.5769 185.181 23.3971 184.747C23.2239 184.322 23.8167 183.941 24.5293 184.045C25.2153 184.15 24.7225 184.599 24.7624 184.896L24.7758 184.884Z" fill="#AB750F"/>
<path id="Vector_295" d="M288.638 328.388C287.819 328.336 287.486 328.091 287.865 327.609C288.019 327.417 288.245 327.405 288.458 327.517C288.971 327.778 288.605 328.099 288.625 328.392H288.631L288.638 328.388Z" fill="#AB750F"/>
<path id="Vector_296" d="M142.231 170.839C142.017 170.775 141.798 170.715 141.584 170.65C141.704 170.582 141.818 170.518 141.937 170.45C142.031 170.582 142.124 170.715 142.211 170.847L142.231 170.835V170.839Z" fill="#AB750F"/>
<path id="Vector_297" d="M65.4038 172.344C65.5303 171.923 65.1707 171.337 66.3562 171.268C66.8224 171.24 67.0688 171.449 67.0955 171.686C67.1355 172.043 67.4885 172.528 66.6959 172.681C66.3562 172.749 65.8234 172.452 65.3838 172.324L65.4038 172.344Z" fill="#AB750F"/>
<path id="Vector_298" d="M50.5244 281.791C50.9973 281.807 51.4635 281.823 51.9364 281.843C51.9897 282.212 52.4226 282.746 51.4369 282.802C50.1781 282.874 50.4378 282.264 50.5244 281.791Z" fill="#AB750F"/>
<path id="Vector_299" d="M282.83 250.595C283.23 250.518 283.563 250.554 283.729 250.807C283.756 250.851 283.61 250.992 283.53 251C283.077 251.036 282.884 250.867 282.81 250.623L282.83 250.595Z" fill="#AB750F"/>
<path id="Vector_300" d="M225.078 240.674C225.272 240.686 225.465 240.686 225.658 240.678C225.718 241.296 226.171 241.918 225.631 242.721C224.399 242.015 224.992 241.32 225.078 240.674Z" fill="#AB750F"/>
<path id="Vector_301" d="M358.891 287.745C358.918 287.593 358.958 287.44 358.998 287.288C359.437 287.224 359.704 287.051 359.804 286.786C361.089 287.015 360.77 287.392 360.07 287.81C359.677 287.79 359.284 287.77 358.891 287.749V287.745Z" fill="#AB750F"/>
<path id="Vector_302" d="M362.268 285.759C362.715 285.819 362.981 285.992 363.094 286.257C362.655 286.192 362.388 286.02 362.268 285.759Z" fill="#AB750F"/>
<path id="Vector_303" d="M16.5365 176.385C17.6555 176.385 18.3548 176.638 18.2216 177.4C16.4499 177.536 16.3767 177.492 16.5365 176.385Z" fill="#AB750F"/>
<path id="Vector_304" d="M17.3691 178.905C16.8096 178.909 16.0703 179.25 15.8372 178.644C15.7306 178.363 16.1569 178.191 16.5032 178.154C17.5423 178.042 17.2825 178.564 17.3824 178.901L17.3691 178.909V178.905Z" fill="#AB750F"/>
<path id="Vector_305" d="M29.6576 218.211C29.551 218.319 29.4511 218.423 29.3512 218.524C29.2646 218.472 29.0915 218.403 29.1115 218.363C29.1581 218.251 29.278 218.15 29.3712 218.046C29.4645 218.098 29.551 218.15 29.6576 218.207V218.211Z" fill="#AB750F"/>
<path id="Vector_306" d="M238.192 236.586C237.966 236.518 237.746 236.449 237.526 236.385C237.653 236.309 237.779 236.233 237.906 236.16C237.999 236.305 238.099 236.445 238.192 236.59V236.586Z" fill="#AB750F"/>
<path id="Vector_307" d="M17.2762 183.64C17.1164 183.724 16.9032 183.925 16.7634 183.905C16.4237 183.857 16.1173 183.712 15.7976 183.608C16.124 183.512 16.437 183.375 16.7767 183.335C16.9032 183.319 17.103 183.532 17.2695 183.636L17.2762 183.64Z" fill="#AB750F"/>
<path id="Vector_308" d="M42.0591 157.886C42.0324 158.03 42.0591 158.17 42.139 158.307C41.6661 158.5 41.4596 159.041 40.6737 158.792C40.4606 158.724 40.334 158.347 40.4406 158.17C40.7337 157.685 41.453 157.849 42.0591 157.882V157.886Z" fill="#AB750F"/>
<path id="Vector_309" d="M175.312 111.647C175.192 111.574 175.066 111.505 174.946 111.433C175.019 111.445 175.126 111.441 175.166 111.473C175.232 111.522 175.259 111.594 175.299 111.655L175.312 111.647Z" fill="#AB750F"/>
<path id="Vector_310" d="M126.499 251.65C126.512 251.963 126.752 252.32 126.113 252.505C126.019 252.533 125.646 252.364 125.606 252.256C125.447 251.823 125.933 251.706 126.519 251.658L126.499 251.646V251.65Z" fill="#AB750F"/>
<path id="Vector_311" d="M127.345 253.632L126.952 253.64L126.559 253.632C126.639 253.355 126.906 253.199 127.359 253.147C127.379 253.307 127.379 253.468 127.359 253.628L127.345 253.632Z" fill="#AB750F"/>
<path id="Vector_312" d="M97.6128 255.133C97.5795 254.973 97.5728 254.816 97.6061 254.656C97.9525 254.66 98.3121 254.696 98.1922 254.973C98.1589 255.049 97.8126 255.081 97.6128 255.133Z" fill="#AB750F"/>
<path id="Vector_313" d="M103.347 180.402C103.281 180.149 103.387 179.948 103.833 179.884C103.913 179.872 104.14 179.98 104.133 180.02C104.087 180.289 103.76 180.382 103.361 180.406H103.341L103.347 180.402Z" fill="#AB750F"/>
<path id="Vector_314" d="M153.853 109.651C153.979 109.571 154.112 109.487 154.239 109.406C154.219 109.458 154.226 109.531 154.172 109.559C154.086 109.603 153.953 109.619 153.839 109.647L153.853 109.655V109.651Z" fill="#AB750F"/>
<path id="Vector_315" d="M18.1555 185.337C18.0689 185.189 18.0755 185.044 18.1688 184.896C19.1812 184.976 18.9014 185.385 18.7682 185.754L18.4618 185.767L18.1555 185.754C18.1355 185.614 18.1355 185.474 18.1555 185.333V185.337Z" fill="#AB750F"/>
<path id="Vector_316" d="M109.995 336.923C109.968 337.144 109.828 337.32 109.416 337.337C109.342 337.337 109.182 337.216 109.202 337.176C109.316 336.939 109.622 336.887 109.995 336.923Z" fill="#AB750F"/>
<path id="Vector_317" d="M173.741 340.398C173.721 340.073 173.694 339.752 173.674 339.427C174.16 339.427 174.66 339.427 174.646 339.845C174.633 340.19 174.274 340.354 173.747 340.398H173.741Z" fill="#AB750F"/>
<path id="Vector_318" d="M17.3827 226.582C17.9356 226.638 18.3818 226.766 18.2086 227.171C18.162 227.272 17.8023 227.428 17.7291 227.4C17.163 227.2 17.4094 226.858 17.4027 226.562L17.3827 226.578V226.582Z" fill="#AB750F"/>
<path id="Vector_319" d="M172.056 228.544C172.315 228.207 172.575 227.87 172.828 227.533C173.401 227.641 173.827 227.874 173.688 228.243C173.461 228.857 172.662 228.56 172.049 228.548L172.056 228.544Z" fill="#AB750F"/>
<path id="Vector_320" d="M133.699 378.978C133.525 378.922 133.352 378.865 133.172 378.805C133.259 378.753 133.366 378.645 133.439 378.653C133.625 378.677 133.798 378.749 133.978 378.801C133.892 378.853 133.805 378.91 133.699 378.974V378.978Z" fill="#AB750F"/>
<path id="Vector_321" d="M142.104 320.59C142.057 320.639 142.01 320.691 141.971 320.739C141.851 320.687 141.731 320.631 141.611 320.574C141.697 320.526 141.784 320.478 141.871 320.43C141.951 320.482 142.03 320.534 142.11 320.59H142.104Z" fill="#AB750F"/>
<path id="Vector_322" d="M257.728 361.943C257.561 361.887 257.395 361.827 257.221 361.77C257.308 361.718 257.421 361.618 257.488 361.626C257.674 361.654 257.841 361.726 258.014 361.778C257.921 361.831 257.834 361.883 257.728 361.943Z" fill="#AB750F"/>
<path id="Vector_323" d="M125.36 318.797C125.2 318.741 125.04 318.681 124.88 318.62C124.967 318.572 125.073 318.472 125.14 318.48C125.32 318.508 125.473 318.58 125.639 318.636C125.553 318.685 125.466 318.737 125.36 318.797Z" fill="#AB750F"/>
<path id="Vector_324" d="M39.2618 303.311C39.3417 303.416 39.4483 303.52 39.4883 303.628C39.5016 303.668 39.3284 303.725 39.2418 303.777C39.1619 303.672 39.0553 303.568 39.0154 303.46C39.0021 303.42 39.1752 303.363 39.2618 303.311Z" fill="#AB750F"/>
<path id="Vector_325" d="M28.725 365.651C28.7383 365.908 28.7516 366.165 28.7649 366.422C28.0523 366.45 26.9866 366.739 27.1265 365.936C27.2198 365.382 28.1189 365.619 28.7316 365.651H28.725Z" fill="#AB750F"/>
<path id="Vector_326" d="M254.204 366.149C254.291 366.149 254.397 366.133 254.451 366.161C254.664 366.257 254.61 366.37 254.297 366.446C254.257 366.454 254.111 366.358 254.071 366.293C254.051 366.257 254.151 366.197 254.198 366.149H254.204Z" fill="#AB750F"/>
<path id="Vector_327" d="M251.121 396.534C250.947 396.474 250.774 396.417 250.601 396.357C250.688 396.305 250.794 396.201 250.861 396.209C251.047 396.233 251.214 396.305 251.387 396.357C251.3 396.413 251.214 396.466 251.114 396.53L251.121 396.534Z" fill="#AB750F"/>
<path id="Vector_328" d="M381.963 308.592C381.869 308.64 381.77 308.729 381.683 308.725C381.596 308.721 381.516 308.624 381.437 308.568C381.53 308.52 381.63 308.432 381.716 308.436C381.803 308.436 381.883 308.536 381.963 308.592Z" fill="#AB750F"/>
<path id="Vector_329" d="M152.047 225.759C152.001 225.819 151.954 225.879 151.901 225.936C151.768 225.875 151.628 225.811 151.495 225.751C151.588 225.691 151.681 225.635 151.774 225.574C151.861 225.635 151.954 225.699 152.041 225.759H152.047Z" fill="#AB750F"/>
<path id="Vector_330" d="M194.001 231.517C193.915 231.489 193.821 231.457 193.735 231.425C193.835 231.345 193.928 231.26 194.028 231.18C194.115 231.24 194.274 231.301 194.268 231.357C194.268 231.413 194.095 231.465 194.001 231.517Z" fill="#AB750F"/>
<path id="Vector_331" d="M336.253 304.255C336.153 304.227 336.06 304.194 335.96 304.166C336.067 304.086 336.166 304.006 336.273 303.922C336.366 303.978 336.466 304.038 336.559 304.094L336.253 304.255Z" fill="#AB750F"/>
<path id="Vector_332" d="M38.8355 192.42C38.3227 192.408 37.8165 192.392 37.3036 192.38C37.2703 192.007 36.924 191.493 37.903 191.441C39.1485 191.373 38.982 191.931 38.8355 192.42Z" fill="#AB750F"/>
<path id="Vector_333" d="M188.64 325.43C189.126 325.442 189.605 325.454 190.092 325.466C190.098 325.827 190.445 326.341 189.492 326.397C188.193 326.469 188.566 325.871 188.64 325.43Z" fill="#AB750F"/>
<path id="Vector_334" d="M377.867 326.57C377.773 326.67 377.68 326.77 377.587 326.875C377.5 326.822 377.334 326.754 377.354 326.714C377.394 326.602 377.514 326.501 377.6 326.393C377.687 326.445 377.767 326.501 377.867 326.566V326.57Z" fill="#AB750F"/>
<path id="Vector_335" d="M223.333 341.47C223.527 341.526 223.72 341.582 223.92 341.642C223.813 341.707 223.706 341.767 223.593 341.831C223.513 341.707 223.433 341.582 223.353 341.458L223.333 341.47Z" fill="#AB750F"/>
<path id="Vector_336" d="M97.5799 160.333C97.5865 160.506 97.5932 160.674 97.5999 160.847C96.8139 160.69 96.7873 160.518 97.5799 160.333Z" fill="#AB750F"/>
<path id="Vector_337" d="M98.3856 161.316L97.9927 161.328H97.5997C97.593 161.156 97.5797 160.987 97.5664 160.819C98.046 160.863 98.3057 161.031 98.379 161.316H98.3856Z" fill="#AB750F"/>
<path id="Vector_338" d="M378.799 270.703C379.079 270.703 379.352 270.703 379.632 270.703C379.625 271.036 379.619 271.365 379.612 271.698L377.973 271.71C378.253 271.377 378.526 271.04 378.806 270.703H378.799Z" fill="#AB750F"/>
<path id="Vector_339" d="M124.028 389.074C123.815 389.018 123.602 388.961 123.389 388.901L123.735 388.693C123.828 388.821 123.921 388.953 124.008 389.086L124.028 389.074Z" fill="#AB750F"/>
<path id="Vector_340" d="M281.172 321.381C281.039 321.466 280.905 321.546 280.772 321.63C280.792 321.578 280.786 321.502 280.845 321.474C280.939 321.429 281.072 321.417 281.192 321.389L281.178 321.381H281.172Z" fill="#AB750F"/>
<path id="Vector_341" d="M22.3583 272.685C22.3117 272.533 22.305 272.376 22.3516 272.224C22.5714 272.3 22.7846 272.376 23.0044 272.453C22.7912 272.529 22.5781 272.609 22.365 272.685H22.3583Z" fill="#AB750F"/>
<path id="Vector_342" d="M196.839 323.38C197.385 323.388 197.625 323.573 197.671 323.886C197.092 323.902 196.859 323.705 196.839 323.38Z" fill="#AB750F"/>
<path id="Vector_343" d="M151.369 334.439C151.589 334.508 151.802 334.58 152.022 334.648C151.436 334.977 151.475 334.632 151.389 334.427L151.369 334.439Z" fill="#AB750F"/>
<path id="Vector_344" d="M322.593 248.604C322.653 248.323 322.899 248.155 323.379 248.127C323.325 248.412 323.066 248.572 322.593 248.604Z" fill="#AB750F"/>
<path id="Vector_345" d="M127.371 274.712C127.471 274.567 127.564 274.427 127.664 274.282C127.784 274.358 127.911 274.439 128.037 274.515C127.817 274.579 127.591 274.643 127.371 274.712Z" fill="#AB750F"/>
<path id="Vector_346" d="M54.5272 362.028C54.4406 362.16 54.3607 362.296 54.2807 362.429C54.1608 362.361 54.0476 362.292 53.9277 362.228C54.1342 362.168 54.3473 362.104 54.5538 362.044L54.5272 362.032V362.028Z" fill="#AB750F"/>
<path id="Vector_347" d="M134.971 210.602C135.131 210.642 135.291 210.646 135.457 210.61C135.437 210.971 136.096 211.525 134.771 211.525C134.838 211.216 134.904 210.907 134.977 210.598L134.971 210.602Z" fill="#AB750F"/>
<path id="Vector_348" d="M167.074 319.88C167.287 319.953 167.493 320.021 167.706 320.093C167.087 320.45 167.193 320.049 167.08 319.876L167.067 319.884L167.074 319.88Z" fill="#AB750F"/>
<path id="Vector_349" d="M17.1494 188.809C16.6899 188.849 16.4168 189.001 16.3435 189.282C14.4254 188.672 16.3702 188.431 16.6632 188.03C17.2294 188.199 17.0029 188.548 17.1494 188.809Z" fill="#AB750F"/>
<path id="Vector_350" d="M265.5 366.012C265.5 365.687 265.514 365.366 265.52 365.041C266.007 365.089 266.5 365.146 266.5 365.535C266.5 365.928 265.98 365.964 265.507 366.012H265.5Z" fill="#AB750F"/>
<path id="Vector_351" d="M60.3681 259.166C60.2749 259.431 60.0151 259.6 59.5688 259.652C59.6554 259.379 59.9152 259.214 60.3681 259.166Z" fill="#AB750F"/>
<path id="Vector_352" d="M158.828 153.816C158.535 153.977 158.249 154.137 157.956 154.298C157.35 154.282 156.737 154.278 156.45 153.86C156.677 153.672 156.91 153.487 157.136 153.299C157.876 153.262 158.842 152.945 158.828 153.816Z" fill="#AB750F"/>
<path id="Vector_353" d="M367.19 316.373C367.216 316.53 367.216 316.682 367.19 316.839C366.977 316.791 366.617 316.763 366.584 316.686C366.464 316.397 366.843 316.381 367.19 316.373Z" fill="#AB750F"/>
<path id="Vector_354" d="M19.8669 360.518C20.7061 360.446 21.5986 360.258 22.0915 360.904C21.2256 361.04 20.2399 361.429 19.8669 360.518Z" fill="#AB750F"/>
<path id="Vector_355" d="M2.48347 185.418C1.97728 185.39 1.4711 185.357 0.958252 185.329C0.978233 185.065 0.998212 184.796 1.01819 184.531C2.26367 184.37 2.93637 184.551 2.47681 185.422L2.48347 185.418Z" fill="#AB750F"/>
<path id="Vector_356" d="M115.736 185.39L115.356 185.418L114.977 185.406C114.99 185.205 115.003 184.976 115.469 185.036C115.596 185.052 115.649 185.265 115.736 185.39Z" fill="#AB750F"/>
<path id="Vector_357" d="M323.359 322.392C323.379 322.549 323.379 322.705 323.359 322.866C323.172 322.786 322.979 322.709 322.792 322.633C322.979 322.553 323.165 322.473 323.359 322.396V322.392Z" fill="#AB750F"/>
<path id="Vector_358" d="M313.428 284.732L313.035 284.748L312.642 284.736C312.675 284.527 312.648 284.266 313.161 284.335C313.288 284.351 313.335 284.591 313.421 284.728L313.428 284.732Z" fill="#AB750F"/>
<path id="Vector_359" d="M182.745 121.806C182.472 121.798 182.206 121.762 181.946 121.702C181.959 121.369 181.979 121.04 181.993 120.707C182.932 120.899 182.705 121.385 182.745 121.806Z" fill="#AB750F"/>
<path id="Vector_360" d="M230.773 345.968C231.026 345.956 231.279 345.96 231.526 345.98C231.439 346.1 231.386 346.301 231.259 346.321C230.813 346.381 230.78 346.169 230.773 345.968Z" fill="#AB750F"/>
<path id="Vector_361" d="M170.311 112.187C170.504 112.079 170.59 111.943 170.57 111.782C170.823 111.806 171.03 111.758 171.183 111.638C171.669 111.698 172.056 111.814 172.029 112.171C171.456 112.175 170.877 112.183 170.304 112.191L170.311 112.187Z" fill="#AB750F"/>
<path id="Vector_362" d="M169.518 112.147C169.818 112.147 170.111 112.143 170.41 112.139C170.524 112.572 170.231 112.761 169.505 112.697C169.505 112.512 169.511 112.332 169.518 112.147Z" fill="#AB750F"/>
<path id="Vector_363" d="M169.564 113.186C169.285 113.19 168.998 113.198 168.719 113.206C168.719 113.03 168.719 112.853 168.719 112.673C169.005 112.665 169.285 112.657 169.571 112.649C169.571 112.829 169.564 113.01 169.564 113.186Z" fill="#AB750F"/>
<path id="Vector_364" d="M217.466 109.478C217.552 109.37 217.565 109.258 217.519 109.145C217.892 109.121 218.325 109.222 218.271 109.414C218.212 109.619 217.779 109.619 217.466 109.478Z" fill="#AB750F"/>
<path id="Vector_365" d="M138.9 310.864C138.914 310.683 138.92 310.507 138.927 310.326C139.207 310.414 139.493 310.507 139.78 310.595C139.487 310.683 139.193 310.775 138.9 310.864Z" fill="#AB750F"/>
<path id="Vector_366" d="M148.052 173.881C148.318 173.869 148.584 173.869 148.851 173.881C148.584 174.314 148.318 174.318 148.052 173.881Z" fill="#AB750F"/>
<path id="Vector_367" d="M191.81 266.646L191.457 266.67C191.457 266.67 191.098 266.658 191.104 266.658C191.118 266.345 191.138 266.028 191.151 265.715C191.364 265.699 191.571 265.695 191.784 265.715C191.79 266.024 191.804 266.337 191.81 266.646Z" fill="#AB750F"/>
<path id="Vector_368" d="M91.7719 127.231C91.8119 127.576 91.7053 127.881 91.1591 128.066C91.0726 127.709 90.553 127.235 91.7719 127.231Z" fill="#AB750F"/>
<path id="Vector_369" d="M258.893 185.398C258.966 185.819 259.173 186.281 258.114 186.369C258.06 185.951 257.554 185.402 258.893 185.398Z" fill="#AB750F"/>
<path id="Vector_370" d="M18.1551 185.337C18.1351 185.478 18.1351 185.618 18.1551 185.759C17.5024 185.967 17.4225 185.69 17.3425 185.406C17.6023 185.341 17.8754 185.321 18.1551 185.337Z" fill="#AB750F"/>
<path id="Vector_371" d="M27.2601 198.471C27.38 198.917 26.734 199.133 26.4609 199.458C25.8748 199.394 25.1555 199.507 24.9224 199.009C25.5884 198.648 26.2345 198.259 27.2601 198.475V198.471Z" fill="#AB750F"/>
<path id="Vector_372" d="M124.061 394.616C124.048 395.025 124.008 395.422 123.249 395.607C123.235 395.19 123.249 394.784 124.061 394.616Z" fill="#AB750F"/>
<path id="Vector_373" d="M145.547 271.201H145.148H144.748C144.728 271.036 144.728 270.875 144.741 270.711C145.188 270.767 145.461 270.932 145.554 271.205L145.547 271.201Z" fill="#AB750F"/>
<path id="Vector_374" d="M153.779 302.276L153.406 302.3L153.027 302.292C153.027 301.971 153.273 301.794 153.826 301.806C153.839 301.963 153.826 302.119 153.779 302.276Z" fill="#AB750F"/>
<path id="Vector_375" d="M235.702 112.661C235.189 112.641 234.936 112.468 234.889 112.171C235.402 112.187 235.655 112.364 235.702 112.661Z" fill="#AB750F"/>
<path id="Vector_376" d="M189.313 318.91C189.279 319.194 189.246 319.479 189.213 319.764C188.48 319.776 187.754 319.784 187.028 319.796C187.008 319.495 186.988 319.194 186.962 318.893C187.748 318.689 188.534 318.693 189.313 318.91Z" fill="#AB750F"/>
<path id="Vector_377" d="M212.577 360.519C213.123 360.511 213.676 360.507 214.222 360.499C214.202 360.828 214.182 361.153 214.162 361.482C213.656 361.474 213.15 361.462 212.644 361.454C212.624 361.141 212.597 360.832 212.577 360.519Z" fill="#AB750F"/>
<path id="Vector_378" d="M59.5825 254.17C59.8356 254.142 60.082 254.142 60.3351 254.17C60.2619 254.447 60.1953 254.724 60.122 255.001H59.769C59.7091 254.728 59.6491 254.451 59.5825 254.174V254.17Z" fill="#AB750F"/>
<path id="Vector_379" d="M193.529 213.508H193.116H192.703C192.703 213.339 192.703 213.175 192.703 213.006C192.976 213.006 193.256 213.006 193.529 213.006C193.529 213.175 193.529 213.339 193.529 213.508Z" fill="#AB750F"/>
</g>
</g>
<path id="Glow" d="M-0.000488281 255.484H393L385.631 387.029C385.631 387.029 364.139 472.248 196.5 472.248C28.8604 472.248 7.36826 387.081 7.36826 387.081L-0.000488281 255.484Z" fill="url(#paint2_linear_2249_37173)" fill-opacity="0.2"/>
<g id="Design">
<path id="Vector 122" d="M393 12.3157V381.367C393 381.367 388.131 401.305 369.666 418.211C361.548 425.643 346.801 436.154 332.822 445.6C315.004 457.64 298.434 471.634 298.434 471.634L313.786 449.528C313.786 449.528 300.885 443.829 298.434 434.791C327.909 453.213 332.208 408.386 335.892 399.789C356.156 395.491 378.105 386.894 380.105 374.613C388.702 321.803 393 12.3157 393 12.3157Z" fill="#AB750F"/>
<path id="Union_3" d="M393 16V385.052C393 385.052 388.131 404.989 369.666 421.895C361.548 429.328 346.801 439.838 332.822 449.284C315.004 461.324 298.435 471.634 298.435 471.634L313.786 453.212C313.786 453.212 300.885 443.829 298.435 434.791C327.91 453.212 337.735 411.456 341.419 402.859C361.683 398.561 378.106 390.578 380.105 378.297C388.702 325.487 393 16 393 16Z" fill="#CB9A40"/>
<path id="Vector 134" d="M337.734 423.737C341.173 417.842 343.466 409.819 343.875 405.93C353.209 404.947 360.455 401.836 362.911 400.403C355.542 411.456 350.016 417.597 337.734 423.737Z" fill="#D8A956"/>
<path id="Vector 141" d="M381.947 396.719C381.947 409 352.062 427.627 339.576 436.019C338.962 437.247 337.489 440.072 336.506 441.545C346.331 435.405 382.561 409 381.947 396.719Z" fill="#EBBF72"/>
</g>
<g id="Design_2">
<path id="Vector 122_2" d="M-0.000450134 12.3154V381.367C-0.000450134 381.367 4.86884 401.304 23.3339 418.211C31.4517 425.643 46.1989 436.154 60.1777 445.6C77.9957 457.64 94.5652 471.634 94.5652 471.634L79.2136 449.528C79.2136 449.528 92.1146 443.829 94.5652 434.79C65.0902 453.212 60.7918 408.386 57.1074 399.789C36.8433 395.49 14.8941 386.894 12.8949 374.612C4.29799 321.803 -0.000450134 12.3154 -0.000450134 12.3154Z" fill="#AB750F"/>
<path id="Union_4" d="M-0.000694275 16V385.052C-0.000694275 385.052 4.8686 404.989 23.3337 421.895C31.4515 429.328 46.1987 439.838 60.1774 449.284C77.9955 461.324 94.5649 471.634 94.5649 471.634L79.2134 453.212C79.2134 453.212 92.1144 443.829 94.5649 434.791C65.0899 453.212 55.2649 411.456 51.5806 402.859C31.3165 398.561 14.8939 390.578 12.8946 378.297C4.29774 325.487 -0.000694275 16 -0.000694275 16Z" fill="#CB9A40"/>
<path id="Vector 134_2" d="M55.2649 423.737C51.8261 417.842 49.5336 409.819 49.1243 405.93C39.7905 404.947 32.5446 401.836 30.0883 400.403C37.4571 411.456 42.9836 417.597 55.2649 423.737Z" fill="#D8A956"/>
<path id="Vector 141_2" d="M11.0525 396.719C11.0525 409 40.9369 427.627 53.4229 436.019C54.0369 437.247 55.5107 440.072 56.4932 441.545C46.6682 435.405 10.4385 409 11.0525 396.719Z" fill="#EBBF72"/>
</g>
<path id="Line 12 (Stroke)" fill-rule="evenodd" clip-rule="evenodd" d="M374 18H19V16H374V18Z" fill="url(#paint3_linear_2249_37173)"/>
<g id="Group 214">
<path id="Vector 304" d="M206 16.9999L197 0L188 16.9999L197 31L206 16.9999Z" fill="#AB750F"/>
<path id="Vector 301" d="M188 16.9999L197 0V31L188 16.9999Z" fill="#FFC502"/>
<path id="Vector 305" d="M197 0L188 17L197 3L206 17L197 0Z" fill="white" fill-opacity="0.3"/>
</g>
</g>
<defs>
<linearGradient id="paint0_linear_2249_37173" x1="276.714" y1="125.391" x2="276.714" y2="446.545" gradientUnits="userSpaceOnUse">
<stop stop-color="#D9D9D9" stop-opacity="0"/>
<stop offset="1" stop-color="#D8A956"/>
</linearGradient>
<linearGradient id="paint1_linear_2249_37173" x1="253.344" y1="343.383" x2="253.344" y2="479.705" gradientUnits="userSpaceOnUse">
<stop stop-color="#D9D9D9" stop-opacity="0"/>
<stop offset="1" stop-color="#D8A956"/>
</linearGradient>
<linearGradient id="paint2_linear_2249_37173" x1="200.593" y1="270.841" x2="194.45" y2="426.423" gradientUnits="userSpaceOnUse">
<stop stop-color="#D8A956" stop-opacity="0"/>
<stop offset="1" stop-color="#AB750F"/>
</linearGradient>
<linearGradient id="paint3_linear_2249_37173" x1="19" y1="18.8933" x2="374" y2="18.8933" gradientUnits="userSpaceOnUse">
<stop stop-color="#CF9A3A" stop-opacity="0"/>
<stop offset="0.464" stop-color="#CF9A3A"/>
<stop offset="1" stop-color="#CF9A3A" stop-opacity="0"/>
</linearGradient>
<clipPath id="clip0_2249_37173">
<rect width="391.772" height="427.388" fill="white" transform="translate(1 21)"/>
</clipPath>
</defs>
</svg>
