<svg width="394" height="492" viewBox="0 0 394 492" fill="none" xmlns="http://www.w3.org/2000/svg">
<g id="lineup">
<g id="mountains" clip-path="url(#clip0_3482_5879)">
<path id="Union" fill-rule="evenodd" clip-rule="evenodd" d="M176.272 381.928C178.436 375.621 180.582 369.218 182.113 364.589C183.963 371.083 188.089 383.867 189.796 383.046C191.504 382.226 196.484 347.84 198.76 330.75L206.871 323.572L216.262 250.254L220.104 258.457L232.056 195.394L246.569 215.389L255.106 258.457V308.19L265.351 291.783L280.718 338.44L291.39 346.644L299.073 279.478L315.721 258.457L337.064 283.067L346.882 320.495L344.321 379.457L355.846 384.744L370.009 372.91L385.404 400.277L324.612 446.11L220.104 459.44L222.443 456.466L65.3737 448.835L57.2303 445.774C51.3629 446.746 44.192 440.022 39.6028 435.719C37.5127 433.759 35.9581 432.302 35.3059 432.302C35.3059 432.302 24.6616 427.839 20.8984 418.217L8.37012 403.521C8.86816 403.034 8.78176 401.003 8.65919 398.121C8.4398 392.964 8.10453 385.082 10.7975 378.456C12.6791 383.832 16.8765 394.416 18.6134 393.737C20.3503 393.058 25.4161 364.589 27.732 350.44L35.9821 344.497L45.5349 283.797L49.4428 290.589L61.6009 238.378L76.3644 254.933L85.0487 290.589V331.763L95.4699 318.18L111.102 356.807L121.957 363.599L129.773 307.992L146.708 290.589L168.419 310.964L178.406 341.951L176.272 381.928ZM185.091 408.931L186.221 411.141L187 409.475L185.091 408.931ZM223.581 443.182L223.998 443.825L227.926 449.493L234.617 440.983C231.683 441.58 227.66 442.386 223.581 443.182Z" fill="url(#paint0_linear_3482_5879)" fill-opacity="0.3"/>
<path id="Union_2" fill-rule="evenodd" clip-rule="evenodd" d="M24.9502 417.684C31.0513 404.915 39.5662 399.216 42.2904 398.195C45.0146 397.173 52.2224 385.283 55.4858 379.466L63.5732 401.6C65.5597 399.33 69.6176 395.471 69.9581 398.195C70.2986 400.919 75.7754 416.356 78.4712 423.734L100.18 375.635L115.929 393.513L134.658 356.055L160.197 401.6L171.264 387.128C174.478 394.036 179.62 404.857 183.723 412.944C187.911 405.063 191.647 398.692 192.973 398.195C195.697 397.173 202.905 385.283 206.168 379.466L214.256 401.6C216.242 399.33 220.3 395.471 220.641 398.195C220.981 400.919 226.458 416.356 229.154 423.734L250.862 375.635L266.612 393.513L285.341 356.055L310.88 401.6L321.947 387.128C327.623 399.33 339.314 423.734 340.676 423.734C342.038 423.734 340.676 437.781 330.753 448.387L205.495 447.456C207.491 450.793 209.355 453.951 210.851 456.51H78.4712L24.9502 417.684Z" fill="url(#paint1_linear_3482_5879)" fill-opacity="0.6"/>
</g>
<g id="Dust">
<g id="Group" opacity="0.35">
<path id="Vector" d="M142.125 167.657C141.233 168.058 141.639 168.729 141.226 169.234C140.627 169.965 140.314 169.961 139.088 169.142L139.068 169.102C139.515 168.929 139.641 168.668 139.641 168.367C139.861 168.323 139.948 168.231 139.894 168.091C140.387 167.938 140.56 167.665 140.654 167.364L140.627 167.384C141.133 167.453 141.646 167.517 142.152 167.585L142.132 167.657H142.125Z" fill="#AB750F"/>
<path id="Vector_2" d="M135.571 212.019C135.651 212.188 135.731 212.356 135.811 212.525C135.818 212.85 135.824 213.171 135.838 213.496C135.778 213.681 135.718 213.869 135.658 214.054C135.092 214.19 134.526 214.23 133.953 214.074C133.906 213.548 133.86 213.022 133.813 212.501C133.926 212.344 133.946 212.184 133.886 212.015C134.086 211.923 134.146 211.803 134.073 211.658C134.332 211.598 134.592 211.538 134.852 211.478C135.092 211.658 135.332 211.843 135.571 212.023V212.019Z" fill="#AB750F"/>
<path id="Vector_3" d="M64.5126 219.033C64.1729 218.411 64.9122 217.998 65.3118 217.517H65.3252C65.6049 217.517 65.878 217.521 66.1577 217.529C66.211 217.685 66.251 217.85 66.2709 218.014C66.3176 218.195 66.3575 218.379 66.3975 218.56C66.5973 218.716 66.7904 218.869 66.9902 219.025C66.9769 219.174 66.9636 219.326 66.9636 219.475C66.7039 219.515 66.4441 219.559 66.191 219.615C65.898 219.655 65.6049 219.7 65.3118 219.74C65.1786 219.651 65.1853 219.563 65.3318 219.483C65.2386 219.214 64.9122 219.106 64.5193 219.037L64.5126 219.033Z" fill="#AB750F"/>
<path id="Vector_4" d="M261.379 195.976C262.504 195.759 263.244 195.888 263.157 196.722C263.117 197.131 263.037 197.537 262.971 197.942L262.99 197.93C262.178 198.01 261.998 197.481 261.425 197.328C261.559 197.176 261.512 197.047 261.279 196.947C261.319 196.618 261.359 196.289 261.399 195.96L261.379 195.976Z" fill="#AB750F"/>
<path id="Vector_5" d="M202.661 259.672C201.575 259.331 201.795 258.982 202.641 258.633C203.081 258.585 203.314 258.404 203.447 258.159C203.986 258.175 204.726 258.147 204.826 258.508C204.992 259.082 204.1 259.09 203.46 259.186C203.014 259.239 202.788 259.423 202.661 259.668V259.672Z" fill="#AB750F"/>
<path id="Vector_6" d="M197.233 308.391V308.367C198.066 309.081 198.365 309.76 196.853 310.305L196.88 310.321C196.494 309.868 195.848 309.459 196.214 308.877L196.108 308.949C196.481 308.764 196.86 308.58 197.233 308.395V308.391Z" fill="#AB750F"/>
<path id="Vector_7" d="M56.9192 178.656C56.746 178.772 56.5462 178.876 56.4064 179.005C55.9934 179.382 55.4206 179.563 54.8145 179.266C54.1818 178.953 54.5082 178.583 54.9544 178.27C55.1209 178.15 55.2741 178.026 55.4406 177.905L55.414 177.913C56.1733 177.961 56.4064 178.415 56.9392 178.64L56.9192 178.66V178.656Z" fill="#AB750F"/>
<path id="Vector_8" d="M128.225 184.415C127.932 184.423 127.639 184.435 127.346 184.443C127.24 184.045 127.293 183.604 126.547 183.383C126.58 183.062 126.6 182.649 127.193 182.597C128.132 182.516 128.065 183.07 128.279 183.423C128.259 183.752 128.239 184.081 128.219 184.415H128.225Z" fill="#AB750F"/>
<path id="Vector_9" d="M299.116 217.472C298.756 217.472 298.396 217.472 298.037 217.472C297.937 217.155 297.837 216.834 297.744 216.517C298.29 216.356 298.843 216.2 299.389 216.039L299.362 216.027C299.602 216.348 299.835 216.669 300.075 216.99L300.175 216.954C299.822 217.127 299.469 217.299 299.116 217.468V217.472Z" fill="#AB750F"/>
<path id="Vector_10" d="M13.9806 193.066L13.9606 193.219C13.2213 193.552 12.4287 193.52 11.6161 193.351L11.7161 193.407C11.443 192.93 11.4563 192.452 11.736 191.975L11.6361 192.055C12.8017 192.063 13.4544 192.508 13.9739 193.066H13.9806Z" fill="#AB750F"/>
<path id="Vector_11" d="M83.5943 278.179C83.4145 277.216 83.188 276.252 83.8407 275.313H84.0539C84.2737 276.293 85.326 277.316 83.5943 278.179Z" fill="#AB750F"/>
<path id="Vector_12" d="M209.135 391.306C209.135 391.514 209.142 391.723 209.148 391.928C208.402 392.184 207.63 392.184 206.844 392.004L206.93 392.064C206.944 391.771 206.964 391.474 206.977 391.181L206.89 391.237C207.65 391.057 208.402 391.077 209.128 391.306H209.135Z" fill="#AB750F"/>
<path id="Vector_13" d="M147.913 374.03C147.587 373.877 147.227 373.749 146.947 373.572C146.554 373.324 146.228 372.986 146.834 372.734C147.38 372.505 147.827 372.754 148.12 373.059C148.046 373.38 147.98 373.705 147.913 374.026V374.03Z" fill="#AB750F"/>
<path id="Vector_14" d="M221.656 205.983C223.921 206.288 224.2 206.529 223.368 207.472C223.075 207.308 222.782 207.139 222.489 206.975H222.495C222.216 206.818 221.929 206.654 221.65 206.489L221.636 206.481C221.636 206.313 221.636 206.148 221.656 205.979V205.983Z" fill="#AB750F"/>
<path id="Vector_15" d="M360.072 287.805C359.925 288.247 359.785 288.692 359.639 289.134L359.685 289.118L358.193 288.652C358.207 288.427 358.227 288.203 358.24 287.978C358.486 287.93 358.706 287.853 358.899 287.745C359.292 287.765 359.685 287.785 360.078 287.805H360.072Z" fill="#AB750F"/>
<path id="Vector_16" d="M183.593 120.224C183.586 120.854 183.573 121.484 183.566 122.114C183.12 122.178 182.794 122.126 182.747 121.805C182.707 121.384 182.933 120.898 181.994 120.706C182.001 120.537 182.014 120.373 182.021 120.204L181.981 120.228C182.52 120.228 183.06 120.224 183.599 120.224H183.593Z" fill="#AB750F"/>
<path id="Vector_17" d="M324.185 324.86C325.244 324.965 324.904 325.503 325.057 325.888C325.124 326.064 325.197 326.241 325.264 326.417L325.011 326.49L324.818 326.365C324.645 326.413 324.465 326.421 324.278 326.381C323.339 326.277 323.479 325.828 323.459 325.43C323.839 325.302 324.165 325.153 324.178 324.856L324.185 324.86Z" fill="#AB750F"/>
<path id="Vector_18" d="M37.2852 326.232V326.028C37.5382 325.815 37.7913 325.598 38.0444 325.386C39.4764 325.462 39.9959 325.771 38.837 326.517C38.3175 326.421 37.8047 326.329 37.2852 326.232Z" fill="#AB750F"/>
<path id="Vector_19" d="M346.278 278.178H346.012C345.865 277.865 345.719 277.552 345.572 277.239C345.745 277.147 345.819 277.035 345.799 276.894C346.332 276.814 346.858 276.73 347.391 276.646C347.377 276.991 347.364 277.332 347.351 277.677C346.991 277.841 346.638 278.01 346.278 278.174V278.178Z" fill="#AB750F"/>
<path id="Vector_20" d="M249.796 273.66C249.796 273.528 249.796 273.391 249.796 273.259C250.056 273.074 250.323 272.89 250.582 272.705H250.596C250.989 272.557 251.382 272.412 251.781 272.272L251.888 272.264C252.021 272.581 252.161 272.898 252.294 273.215L252.267 273.231C251.828 273.287 251.548 273.443 251.435 273.712C250.889 273.696 250.343 273.676 249.796 273.66Z" fill="#AB750F"/>
<path id="Vector_21" d="M138.122 311.791C137.856 312.092 137.483 312.321 136.91 312.132C136.497 312 136.584 311.731 136.763 311.502C136.93 311.289 137.123 311.081 137.31 310.868C137.583 310.86 137.862 310.848 138.135 310.84C138.135 311.157 138.135 311.474 138.129 311.791H138.122Z" fill="#AB750F"/>
<path id="Vector_22" d="M75.0557 245.23C74.8426 245.306 74.6095 245.458 74.4297 245.438C73.9701 245.382 73.8236 245.145 74.0833 244.917C74.1899 244.824 74.6095 244.764 74.7627 244.816C74.9359 244.876 74.9625 245.085 75.0557 245.23Z" fill="#AB750F"/>
<path id="Vector_23" d="M128.212 259.009C127.759 258.985 127.472 258.837 127.539 258.56C127.605 258.295 127.945 258.159 128.365 258.235C128.558 258.271 128.791 258.419 128.838 258.54C128.944 258.821 128.645 258.965 128.212 259.009Z" fill="#AB750F"/>
<path id="Vector_24" d="M217.447 108.668C217.607 108.816 217.633 108.977 217.52 109.141C217.573 109.257 217.553 109.37 217.467 109.474C217.613 109.554 217.64 109.651 217.553 109.755C217.067 109.486 216.501 109.611 215.955 109.635C215.928 109.306 215.895 108.977 215.868 108.647C216.394 108.651 216.914 108.655 217.44 108.659L217.447 108.668Z" fill="#AB750F"/>
<path id="Vector_25" d="M209.168 270.691C208.549 270.647 207.823 270.619 207.956 270.097C208.042 269.768 208.649 269.732 209.148 269.712C209.155 270.037 209.161 270.362 209.168 270.691Z" fill="#AB750F"/>
<path id="Vector_26" d="M172.863 112.175C172.583 112.175 172.31 112.175 172.03 112.171C172.05 111.814 171.664 111.698 171.185 111.638C171.185 111.481 171.205 111.325 171.231 111.168C171.771 111.152 172.31 111.14 172.85 111.124C173.889 111.469 172.97 111.822 172.863 112.175Z" fill="#AB750F"/>
<path id="Vector_27" d="M169.6 116.336C169.753 116.444 170.046 116.553 170.046 116.661C170.046 116.954 169.679 117.078 169.26 116.966C169.1 116.922 168.953 116.681 169.007 116.565C169.053 116.464 169.393 116.412 169.606 116.34L169.6 116.336Z" fill="#AB750F"/>
<path id="Vector_28" d="M90.7341 123.331C90.5276 123.403 90.2945 123.551 90.1146 123.531C89.6684 123.475 89.5219 123.246 89.775 123.022C89.8749 122.933 90.2878 122.877 90.441 122.929C90.6075 122.989 90.6408 123.19 90.7341 123.331Z" fill="#AB750F"/>
<path id="Vector_29" d="M188.601 131.224C188.587 130.891 188.574 130.558 188.554 130.225C189.194 130.269 190.026 130.241 189.88 130.823C189.793 131.172 189.127 131.204 188.601 131.224Z" fill="#AB750F"/>
<path id="Vector_30" d="M38.6501 288.858C38.4503 288.942 38.2438 289.106 38.064 289.098C37.5911 289.07 37.4046 288.846 37.6311 288.597C37.7243 288.497 38.1439 288.412 38.3171 288.456C38.4903 288.501 38.5435 288.717 38.6501 288.858Z" fill="#AB750F"/>
<path id="Vector_31" d="M169.272 148.351C169.073 148.435 168.866 148.596 168.686 148.584C168.227 148.547 168.04 148.323 168.247 148.082C168.333 147.986 168.753 147.913 168.926 147.958C169.099 148.006 169.159 148.214 169.272 148.351Z" fill="#AB750F"/>
<path id="Vector_32" d="M71.1395 150.249C71.1794 149.92 71.2261 149.506 71.8321 149.466C72.8245 149.398 72.738 149.908 72.7779 150.309C72.2318 150.289 71.6856 150.269 71.1328 150.253L71.1395 150.249Z" fill="#AB750F"/>
<path id="Vector_33" d="M336.427 151.971C336.607 152.019 336.927 152.043 337.013 152.139C337.213 152.356 337.066 152.577 336.667 152.641C336.494 152.669 336.141 152.581 336.061 152.484C335.887 152.276 335.981 152.067 336.427 151.971Z" fill="#AB750F"/>
<path id="Vector_34" d="M72.7845 294.873C71.972 294.66 71.9253 294.235 71.9786 293.785C73.2574 293.869 73.9634 294.114 72.7845 294.873Z" fill="#AB750F"/>
<path id="Vector_35" d="M270.45 296.296C270.443 295.967 270.476 295.554 271.049 295.494C271.975 295.394 272.041 295.875 272.101 296.284L270.443 296.296H270.45Z" fill="#AB750F"/>
<path id="Vector_36" d="M28.7933 167.323L28.5535 167.299L28.3137 167.319C28.2405 166.994 28.1738 166.669 28.1006 166.348L28.1139 166.34C28.4469 166.188 28.7866 166.035 29.1196 165.883C29.2661 165.911 29.4127 165.911 29.5659 165.883C29.6325 166.204 29.6991 166.529 29.7657 166.85C29.4393 167.006 29.113 167.167 28.7866 167.323H28.7933Z" fill="#AB750F"/>
<path id="Vector_37" d="M391.228 171.288C391.302 171.718 391.242 172.111 390.516 172.344C390.209 172.151 389.903 171.962 389.597 171.77C389.59 171.481 389.583 171.196 389.577 170.907C389.843 170.863 390.116 170.839 390.389 170.839L390.416 170.851C390.689 170.995 390.955 171.14 391.228 171.284V171.288Z" fill="#AB750F"/>
<path id="Vector_38" d="M60.3697 176.878C59.6371 177.203 58.9044 177.536 57.9054 177.368C57.8987 177.215 57.8987 177.063 57.9054 176.91C58.1851 176.738 58.4649 176.561 58.7513 176.389L58.7313 176.401C59.2708 176.417 59.8102 176.429 60.3564 176.445C60.3431 176.589 60.3564 176.738 60.3764 176.882L60.3697 176.878Z" fill="#AB750F"/>
<path id="Vector_39" d="M28.1069 307.328C28.1136 306.995 28.1269 306.662 28.1336 306.329C28.6597 306.349 29.3324 306.377 29.419 306.722C29.5722 307.296 28.7397 307.276 28.1069 307.328Z" fill="#AB750F"/>
<path id="Vector_40" d="M31.4437 180.839C31.4903 180.522 31.497 180.104 32.103 180.064C33.0488 180 33.0155 180.502 33.0688 180.899C32.5226 180.879 31.9832 180.859 31.437 180.843L31.4437 180.839Z" fill="#AB750F"/>
<path id="Vector_41" d="M223.195 310.831C223.781 310.831 224.367 310.831 224.96 310.835C224.94 311.168 224.927 311.501 224.907 311.83L223.508 311.802C223.401 311.477 223.301 311.152 223.195 310.827V310.831Z" fill="#AB750F"/>
<path id="Vector_42" d="M126.54 183.885C126.547 184.318 126.44 184.715 125.708 184.924C124.382 184.101 125.468 183.993 126.54 183.885Z" fill="#AB750F"/>
<path id="Vector_43" d="M131.182 314.796C130.842 314.796 130.496 314.796 130.156 314.796C130.083 314.487 130.01 314.174 129.93 313.865L129.876 313.898C130.416 313.89 130.949 313.881 131.488 313.877L131.455 313.857C131.368 314.17 131.275 314.483 131.182 314.796Z" fill="#AB750F"/>
<path id="Vector_44" d="M276.211 190.422C275.598 190.366 274.653 190.354 274.899 189.856C275.172 189.31 275.831 189.563 276.244 189.928C276.238 190.093 276.224 190.257 276.204 190.422H276.211Z" fill="#AB750F"/>
<path id="Vector_45" d="M167.009 317.738C166.829 317.645 166.529 317.569 166.482 317.461C166.369 317.164 166.689 316.991 167.142 317.011C167.608 317.031 167.794 317.268 167.641 317.513C167.575 317.621 167.228 317.665 167.009 317.738Z" fill="#AB750F"/>
<path id="Vector_46" d="M253.373 318.327C253.552 318.231 253.732 318.059 253.912 318.059C254.398 318.059 254.591 318.283 254.412 318.536C254.338 318.632 253.939 318.721 253.752 318.689C253.586 318.661 253.499 318.452 253.379 318.327H253.373Z" fill="#AB750F"/>
<path id="Vector_47" d="M229.928 196.794C229.509 196.726 229.309 196.545 229.449 196.312C229.509 196.216 229.842 196.112 230.035 196.12C230.468 196.144 230.634 196.36 230.508 196.589C230.454 196.685 230.128 196.726 229.928 196.794Z" fill="#AB750F"/>
<path id="Vector_48" d="M170.059 323.307C169.965 323.435 169.932 323.632 169.772 323.688C169.406 323.809 169.033 323.724 168.933 323.472C168.886 323.359 169.033 323.143 169.2 323.09C169.566 322.97 169.886 323.074 170.065 323.311L170.059 323.307Z" fill="#AB750F"/>
<path id="Vector_49" d="M292.749 203.552C292.769 203.881 292.782 204.21 292.802 204.543C292.269 204.471 291.736 204.403 291.197 204.33C291.237 204.19 291.17 204.069 291.01 203.965C291.057 203.801 291.097 203.636 291.13 203.476C291.67 203.504 292.209 203.528 292.749 203.552Z" fill="#AB750F"/>
<path id="Vector_50" d="M116.616 325.398C116.07 325.386 115.517 325.374 114.971 325.362C114.971 325.045 114.971 324.732 114.971 324.419C115.517 324.419 116.057 324.419 116.603 324.419C116.603 324.744 116.616 325.069 116.623 325.394L116.616 325.398Z" fill="#AB750F"/>
<path id="Vector_51" d="M224.953 204.904C225.679 204.952 226.418 204.973 226.718 205.49L226.625 205.538C226.345 205.687 226.059 205.831 225.779 205.98L225.393 205.972H225.006C224.72 205.795 224.44 205.615 224.154 205.438C224.42 205.261 224.687 205.081 224.953 204.904Z" fill="#AB750F"/>
<path id="Vector_52" d="M89.3822 325.968C89.915 325.944 90.4411 325.916 90.9673 325.892C90.974 326.213 91.0139 326.646 90.4678 326.722C89.5686 326.851 89.4621 326.377 89.3755 325.968H89.3822Z" fill="#AB750F"/>
<path id="Vector_53" d="M175.34 328.043C175.5 328.151 175.793 328.26 175.793 328.368C175.793 328.665 175.427 328.789 175.001 328.677C174.834 328.633 174.694 328.388 174.741 328.268C174.781 328.167 175.127 328.115 175.34 328.043Z" fill="#AB750F"/>
<path id="Vector_54" d="M45.4108 334.403C44.8913 334.375 44.1853 334.399 44.1121 334.034C43.9988 333.48 44.8247 333.468 45.4774 333.412C45.4574 333.741 45.4375 334.074 45.4175 334.403H45.4108Z" fill="#AB750F"/>
<path id="Vector_55" d="M34.6544 335.094C34.6544 335.323 34.6677 335.551 34.6743 335.78C34.1415 335.828 33.6087 335.876 33.0825 335.924C33.0825 335.599 33.0825 335.274 33.0892 334.945C33.6153 334.993 34.1349 335.042 34.6544 335.09V335.094Z" fill="#AB750F"/>
<path id="Vector_56" d="M300.122 336.927C300.209 336.522 299.896 335.98 301.041 335.936L301.028 335.928C301.274 336.164 301.527 336.397 301.774 336.634V336.738C301.288 336.899 300.808 337.059 300.322 337.22C300.395 337.087 300.322 336.991 300.122 336.927Z" fill="#AB750F"/>
<path id="Vector_57" d="M157.198 336.999C157.731 336.975 158.257 336.951 158.79 336.931C158.79 337.252 158.83 337.685 158.283 337.761C157.384 337.886 157.284 337.408 157.198 337.003V336.999Z" fill="#AB750F"/>
<path id="Vector_58" d="M172.863 339.949C172.243 339.888 171.284 339.892 171.531 339.379C171.797 338.829 172.477 339.074 172.929 339.427C172.91 339.599 172.89 339.776 172.87 339.949H172.863Z" fill="#AB750F"/>
<path id="Vector_59" d="M369.576 361.04C369.855 361.213 370.162 361.377 370.422 361.558C370.728 361.77 370.701 362.035 370.408 362.212C369.795 362.589 369.456 362.144 369.129 361.971C368.643 361.714 368.976 361.365 369.056 361.052C369.229 361.084 369.409 361.08 369.582 361.04H369.576Z" fill="#AB750F"/>
<path id="Vector_60" d="M1.02609 270.145C0.453301 269.258 0.98613 268.993 2.4181 269.238L2.39812 269.218C2.40478 269.379 2.43142 269.543 2.4847 269.7V269.708C2.16501 269.864 1.84531 270.021 1.53228 270.177L1.2925 270.105L1.03275 270.141L1.02609 270.145Z" fill="#AB750F"/>
<path id="Vector_61" d="M384.655 180.882C384.641 180.557 384.628 180.228 384.615 179.903C385.254 179.883 385.82 179.963 386.2 180.313C385.927 180.505 385.654 180.698 385.374 180.894L385.014 180.878H384.655V180.882Z" fill="#AB750F"/>
<path id="Vector_62" d="M35.4534 182.043C35.3668 182.316 35.7531 182.717 35.0605 182.818C34.794 182.854 34.4277 182.621 34.108 182.513H34.0015C34.3611 182.328 34.7208 182.144 35.0804 181.959C35.167 182.055 35.2869 182.083 35.4534 182.043Z" fill="#AB750F"/>
<path id="Vector_63" d="M41.3613 182.87C41.3213 182.489 41.5278 182.168 42.034 181.927C42.3603 182.083 42.68 182.24 43.0064 182.396C42.9598 182.537 42.9464 182.681 42.9664 182.822L41.3613 182.87Z" fill="#AB750F"/>
<path id="Vector_64" d="M21.5536 280.221C21.5403 279.937 21.4337 279.559 22.0798 279.543C22.6259 279.531 22.8657 279.844 22.899 280.173C22.4528 280.189 21.9999 280.205 21.5536 280.221Z" fill="#AB750F"/>
<path id="Vector_65" d="M301.873 197.986L301.713 197.432C301.84 197.308 301.92 197.171 301.94 197.027C302.166 197.003 302.393 196.983 302.619 196.967C302.906 197.163 303.199 197.36 303.485 197.561C303.425 197.645 303.425 197.733 303.472 197.822C302.939 197.878 302.406 197.934 301.873 197.986Z" fill="#AB750F"/>
<path id="Vector_66" d="M282.026 289.744C282.312 289.921 282.605 290.097 282.891 290.274L282.032 290.779L282.019 290.771C281.746 290.607 281.473 290.442 281.2 290.282L281.18 290.27C281.18 290.101 281.193 289.933 281.193 289.764C281.466 289.752 281.739 289.748 282.012 289.744H282.026Z" fill="#AB750F"/>
<path id="Vector_67" d="M360.597 215.526C360.931 215.145 361.43 214.864 362.003 215.281C362.349 215.538 361.93 215.835 361.463 216.008C361.17 215.847 360.884 215.687 360.591 215.526H360.597Z" fill="#AB750F"/>
<path id="Vector_68" d="M242.29 301.779C241.597 301.799 240.771 301.991 240.651 301.297L240.665 301.285C240.971 301.128 241.271 300.972 241.577 300.815C241.797 300.815 242.017 300.815 242.237 300.815C242.243 301.14 242.256 301.466 242.263 301.791L242.296 301.779H242.29Z" fill="#AB750F"/>
<path id="Vector_69" d="M17.5834 302.348C17.9963 302.22 18.2761 301.807 18.8688 302.075C19.0087 302.136 19.0353 302.417 18.9288 302.525C18.5558 302.886 18.0096 302.681 17.5234 302.621C17.6566 302.541 17.6766 302.449 17.5834 302.348Z" fill="#AB750F"/>
<path id="Vector_70" d="M353.984 303.837C353.891 303.412 354.097 303.071 354.704 302.83C355.01 303.003 355.323 303.179 355.629 303.352C355.603 303.48 355.596 303.609 355.616 303.737C355.077 303.769 354.53 303.805 353.991 303.837H353.984Z" fill="#AB750F"/>
<path id="Vector_71" d="M216.714 305.318C216.341 305.261 215.709 305.257 215.642 305.137C215.356 304.627 216.108 304.499 216.668 304.318C216.688 304.651 216.701 304.984 216.714 305.318Z" fill="#AB750F"/>
<path id="Vector_72" d="M91.7999 393.115C91.2738 392.938 90.8741 392.661 91.3737 392.356C91.8732 392.051 92.3261 392.288 92.6258 392.609C92.3527 392.778 92.073 392.946 91.7999 393.115Z" fill="#AB750F"/>
<path id="Vector_73" d="M18.789 309.218C17.9165 308.833 18.1696 308.372 18.5426 307.898L18.6225 307.878C19.2552 308.311 19.182 308.777 18.7557 309.25L18.789 309.214V309.218Z" fill="#AB750F"/>
<path id="Vector_74" d="M114.964 127.195C114.964 127.026 114.957 126.858 114.951 126.689C115.237 126.529 115.523 126.372 115.803 126.216C116.569 126.4 116.622 126.794 116.609 127.211C116.063 127.207 115.51 127.199 114.964 127.195Z" fill="#AB750F"/>
<path id="Vector_75" d="M67.2765 130.273L67.6228 130.257C67.9558 130.425 68.2955 130.594 68.6285 130.762C68.5885 130.887 68.5819 131.015 68.6085 131.14C68.069 131.172 67.5295 131.204 66.9901 131.236H66.9834C67.0833 130.911 67.1832 130.59 67.2831 130.273H67.2765Z" fill="#AB750F"/>
<path id="Vector_76" d="M231.487 148.776C230.908 148.788 230.395 148.696 229.989 148.439C230.308 148.235 230.628 148.03 230.948 147.821L231.308 147.833C231.367 148.15 231.421 148.463 231.481 148.776H231.487Z" fill="#AB750F"/>
<path id="Vector_77" d="M301.494 249.86C301.281 249.924 301.048 250.057 300.868 250.037C300.428 249.988 300.275 249.768 300.488 249.535C300.555 249.463 300.968 249.427 301.108 249.479C301.294 249.551 301.374 249.728 301.501 249.86H301.494Z" fill="#AB750F"/>
<path id="Vector_78" d="M158.796 336.414C158.496 336.253 158.197 336.089 157.897 335.928C157.917 335.751 157.937 335.579 157.964 335.402C158.51 335.418 159.056 335.434 159.609 335.45C159.589 335.852 159.509 336.229 158.796 336.414Z" fill="#AB750F"/>
<path id="Vector_79" d="M124.076 394.158C123.536 394.114 123.004 394.07 122.464 394.03C122.517 393.933 122.517 393.833 122.458 393.737C122.751 393.536 123.037 393.332 123.33 393.131C123.523 393.143 123.723 393.143 123.916 393.135C123.983 393.464 124.049 393.797 124.116 394.126L124.076 394.158Z" fill="#AB750F"/>
<path id="Vector_80" d="M178.637 336.409C178.91 336.389 179.183 336.389 179.457 336.413C179.457 336.73 179.736 336.879 180.249 336.883C180.349 336.951 180.449 337.023 180.549 337.095C180.436 337.196 180.362 337.308 180.322 337.424C179.836 337.412 179.357 337.396 178.87 337.384C178.791 337.059 178.704 336.738 178.624 336.413L178.644 336.405L178.637 336.409Z" fill="#AB750F"/>
<path id="Vector_81" d="M57.0724 255.109C57.0591 254.957 57.0591 254.804 57.0591 254.652C57.3521 254.487 57.6452 254.327 57.9382 254.162L57.9116 254.182L58.2912 254.194L58.6709 254.186V254.158C58.6842 254.487 58.6909 254.816 58.6975 255.145C58.1514 255.129 57.6052 255.117 57.0591 255.109H57.0724Z" fill="#AB750F"/>
<path id="Vector_82" d="M277.916 338.468C278.436 338.271 278.789 337.882 279.534 337.938C279.65 338.66 279.122 338.964 277.949 338.849C278.009 338.721 277.996 338.592 277.916 338.468Z" fill="#AB750F"/>
<path id="Vector_83" d="M254.552 257.62C254.438 257.757 254.385 257.961 254.205 258.01C254.039 258.054 253.752 257.937 253.513 257.889C253.646 257.753 253.732 257.588 253.919 257.492C254.185 257.348 254.432 257.412 254.552 257.62Z" fill="#AB750F"/>
<path id="Vector_84" d="M256.344 165.354C256.643 165.169 256.937 164.98 257.236 164.796C257.509 164.812 257.776 164.824 258.049 164.832V165.354C257.782 165.518 257.516 165.683 257.25 165.847L257.223 165.863C256.93 165.691 256.637 165.522 256.344 165.35V165.354Z" fill="#AB750F"/>
<path id="Vector_85" d="M19.8546 166.364C20.3875 166.549 20.9203 166.73 21.4465 166.914C21.3599 167.014 21.3532 167.115 21.4331 167.219C20.9003 167.267 20.3741 167.311 19.8413 167.36C19.8546 167.026 19.8679 166.693 19.8813 166.36L19.8613 166.368L19.8546 166.364Z" fill="#AB750F"/>
<path id="Vector_86" d="M344.892 262.156C345.298 261.827 345.818 261.506 346.337 261.995C346.637 262.276 346.204 262.561 345.671 262.677C345.412 262.505 345.152 262.328 344.892 262.156Z" fill="#AB750F"/>
<path id="Vector_87" d="M111.614 386.662C111.588 386.802 111.594 386.939 111.641 387.079C111.255 387.236 110.868 387.388 110.482 387.545C110.289 387.392 110.102 387.24 109.909 387.087C109.936 386.923 109.962 386.758 110.002 386.594H109.996C110.535 386.618 111.075 386.642 111.614 386.662Z" fill="#AB750F"/>
<path id="Vector_88" d="M147.22 266.667C147.513 266.354 147.966 266.129 148.459 266.414C148.959 266.703 148.579 266.984 148.099 267.176C147.806 267.008 147.513 266.835 147.22 266.667Z" fill="#AB750F"/>
<path id="Vector_89" d="M128.218 360.547L126.566 360.471C127.186 359.937 127.752 359.857 128.218 360.547Z" fill="#AB750F"/>
<path id="Vector_90" d="M302.679 359.957C302.233 359.957 301.78 359.889 301.913 359.556C302.066 359.154 302.453 359.327 302.779 359.503C302.726 359.652 302.693 359.804 302.679 359.957Z" fill="#AB750F"/>
<path id="Vector_91" d="M167.928 113.66C167.928 113.331 167.914 113.006 167.908 112.677C168.181 112.661 168.454 112.657 168.727 112.673C168.727 112.85 168.727 113.026 168.727 113.207C168.747 113.36 168.727 113.512 168.647 113.66H168.287H167.928Z" fill="#AB750F"/>
<path id="Vector_92" d="M164.577 117.677C165.124 117.685 165.676 117.689 166.222 117.697C166.222 117.841 166.222 117.986 166.209 118.13C165.663 118.146 165.124 118.162 164.577 118.178C164.564 118.01 164.564 117.845 164.577 117.677Z" fill="#AB750F"/>
<path id="Vector_93" d="M87.6771 118.704C88.2232 118.7 88.7694 118.692 89.3222 118.684C89.3222 118.856 89.3222 119.033 89.3222 119.205C88.776 119.181 88.2299 119.157 87.6837 119.133C87.6837 118.989 87.6771 118.844 87.6704 118.7L87.6771 118.704Z" fill="#AB750F"/>
<path id="Vector_94" d="M43.7656 355.001C43.8055 355.334 43.8388 355.667 43.8788 356C43.5791 356 43.286 355.996 42.9863 355.992C43.0196 355.659 43.0596 355.33 43.0929 355.001C43.3193 355.009 43.5391 355.009 43.7656 355.001Z" fill="#AB750F"/>
<path id="Vector_95" d="M150.85 122.617C150.73 122.304 150.604 121.995 150.484 121.682C152.402 121.638 151.057 122.256 151.003 122.613H150.85V122.617Z" fill="#AB750F"/>
<path id="Vector_96" d="M211.746 124.234C212.245 124.294 212.745 124.354 213.244 124.414L213.291 124.474C212.778 124.538 212.265 124.599 211.752 124.659C211.739 124.514 211.739 124.374 211.752 124.229L211.746 124.234Z" fill="#AB750F"/>
<path id="Vector_97" d="M210.641 131.188C210.234 130.819 209.755 130.441 210.894 130.225C210.807 130.546 210.72 130.867 210.641 131.188Z" fill="#AB750F"/>
<path id="Vector_98" d="M49.6799 134.72C49.6333 134.311 49.6333 133.917 50.4326 133.757C50.4326 134.15 50.3859 134.531 49.6799 134.72Z" fill="#AB750F"/>
<path id="Vector_99" d="M119.134 138.315C119.673 138.29 120.213 138.262 120.752 138.238V138.776C120.206 138.748 119.66 138.72 119.114 138.692C119.134 138.567 119.14 138.443 119.134 138.315Z" fill="#AB750F"/>
<path id="Vector_100" d="M160.455 141.272C161.007 141.272 161.554 141.264 162.1 141.264V141.769C161.554 141.757 161.001 141.749 160.455 141.741C160.455 141.585 160.455 141.428 160.455 141.276V141.272Z" fill="#AB750F"/>
<path id="Vector_101" d="M244.754 147.279C243.869 146.914 243.675 146.573 244.848 146.28C244.814 146.613 244.788 146.946 244.754 147.279Z" fill="#AB750F"/>
<path id="Vector_102" d="M105.899 149.358C106.499 149.382 106.832 149.579 106.719 149.936C106.645 150.173 106.279 150.269 105.879 150.265C105.879 149.964 105.893 149.663 105.899 149.358Z" fill="#AB750F"/>
<path id="Vector_103" d="M392.827 153.748C392.101 153.655 391.648 153.431 392.254 153.017C392.48 152.865 392.847 153.11 393 153.306C392.9 153.447 392.84 153.595 392.827 153.748Z" fill="#AB750F"/>
<path id="Vector_104" d="M182.833 154.39L184.425 154.322C184.425 154.499 184.438 154.671 184.438 154.848C183.892 154.812 183.353 154.776 182.807 154.736C182.833 154.623 182.84 154.507 182.833 154.39Z" fill="#AB750F"/>
<path id="Vector_105" d="M112.48 160.329C113.006 160.357 113.539 160.385 114.065 160.413C114.065 160.526 114.072 160.638 114.099 160.751L112.474 160.855C112.474 160.678 112.474 160.502 112.474 160.325L112.48 160.329Z" fill="#AB750F"/>
<path id="Vector_106" d="M105.054 161.858C105.6 161.846 106.146 161.838 106.692 161.826C106.705 161.991 106.699 162.155 106.685 162.324C106.146 162.308 105.6 162.292 105.06 162.276C105.06 162.135 105.06 161.999 105.06 161.858H105.054Z" fill="#AB750F"/>
<path id="Vector_107" d="M132.328 164.342C132.328 164.009 132.328 163.676 132.335 163.343C132.595 163.343 132.854 163.343 133.114 163.343C133.121 163.676 133.127 164.009 133.141 164.338H132.734H132.328V164.342Z" fill="#AB750F"/>
<path id="Vector_108" d="M259.7 163.836C259.979 163.832 260.259 163.824 260.546 163.816C260.539 164.157 260.532 164.499 260.526 164.84C260.253 164.856 259.986 164.84 259.726 164.788C259.72 164.471 259.706 164.153 259.7 163.832V163.836Z" fill="#AB750F"/>
<path id="Vector_109" d="M263.85 167.85C263.85 167.517 263.836 167.184 263.83 166.851C264.782 167.176 264.769 167.513 263.85 167.85Z" fill="#AB750F"/>
<path id="Vector_110" d="M100.059 168.828C100.585 168.872 101.111 168.92 101.644 168.965C101.624 169.057 101.63 169.149 101.677 169.241L100.065 169.402C100.065 169.209 100.065 169.021 100.059 168.828Z" fill="#AB750F"/>
<path id="Vector_111" d="M68.6348 174.88C68.6414 174.547 68.6548 174.214 68.6614 173.885C69.5539 174.226 69.5805 174.559 68.6348 174.88Z" fill="#AB750F"/>
<path id="Vector_112" d="M339.951 173.897C341.11 173.957 340.87 174.423 340.71 174.864C340.217 174.82 339.977 174.611 339.784 174.362C339.857 174.206 339.917 174.045 339.964 173.881L339.944 173.893L339.951 173.897Z" fill="#AB750F"/>
<path id="Vector_113" d="M44.3251 348.564C44.4383 348.865 44.5449 349.166 44.6581 349.467C43.3993 349.379 44.0254 348.93 44.1852 348.568H44.3251V348.564Z" fill="#AB750F"/>
<path id="Vector_114" d="M192.717 179.848C192.69 180.189 192.664 180.53 192.637 180.875C191.758 180.506 191.778 180.165 192.717 179.848Z" fill="#AB750F"/>
<path id="Vector_115" d="M382.237 180.574C382.849 180.506 383.622 180.165 383.775 180.899H383.769C383.242 180.835 382.723 180.771 382.197 180.702L382.237 180.574Z" fill="#AB750F"/>
<path id="Vector_116" d="M41.4743 186.381C41.421 186.056 41.3677 185.731 41.3145 185.406L41.3344 185.394C41.6142 185.386 41.9006 185.382 42.1803 185.374L42.2402 185.406C42.1736 185.735 42.107 186.064 42.0404 186.393C41.8539 186.377 41.6608 186.373 41.4743 186.377V186.381Z" fill="#AB750F"/>
<path id="Vector_117" d="M305.17 346.935C304.624 346.943 304.078 346.955 303.532 346.963V346.438C304.078 346.458 304.624 346.478 305.17 346.498C305.17 346.642 305.17 346.791 305.17 346.935Z" fill="#AB750F"/>
<path id="Vector_118" d="M2.41145 189.439C2.47139 189.114 2.53799 188.784 2.59794 188.459C2.79109 188.471 2.98424 188.467 3.17072 188.443C3.22401 188.772 3.28395 189.101 3.33723 189.435L2.40479 189.443L2.41145 189.439Z" fill="#AB750F"/>
<path id="Vector_119" d="M380.499 189.92C380.519 189.599 380.545 189.274 380.565 188.953C380.785 188.953 380.998 188.945 381.218 188.933C381.278 189.266 381.338 189.603 381.391 189.936C381.092 189.932 380.792 189.924 380.492 189.92H380.499Z" fill="#AB750F"/>
<path id="Vector_120" d="M106.686 190.928C107.238 190.928 107.791 190.932 108.337 190.936C108.337 191.092 108.337 191.249 108.331 191.405L106.692 191.429C106.692 191.261 106.692 191.096 106.692 190.928H106.686Z" fill="#AB750F"/>
<path id="Vector_121" d="M67.0234 199.451V198.468C67.9958 198.797 67.9958 199.122 67.0234 199.451Z" fill="#AB750F"/>
<path id="Vector_122" d="M73.5642 200.397C73.3112 200.434 73.0581 200.466 72.805 200.506C72.3521 200.574 72.099 200.406 71.8525 200.221C72.1656 200.113 72.4653 199.968 72.7983 199.908C73.0248 199.868 73.3045 199.944 73.5576 199.972C73.5243 200.117 73.5243 200.257 73.5576 200.401L73.5642 200.397Z" fill="#AB750F"/>
<path id="Vector_123" d="M18.1758 200.458C18.7219 200.47 19.2681 200.486 19.8142 200.498C19.5478 200.675 19.2881 200.851 19.0216 201.024C18.5754 200.924 18.2757 200.747 18.1758 200.458Z" fill="#AB750F"/>
<path id="Vector_124" d="M168.72 207.492C169.273 207.492 169.819 207.492 170.365 207.492C170.365 207.653 170.365 207.809 170.365 207.966C169.819 207.97 169.266 207.974 168.72 207.978C168.72 207.813 168.72 207.649 168.72 207.488V207.492Z" fill="#AB750F"/>
<path id="Vector_125" d="M305.177 208.993C305.197 208.664 305.224 208.331 305.244 208.002C305.45 208.01 305.657 208.014 305.863 208.01C305.91 208.335 305.963 208.664 306.01 208.989C305.73 208.989 305.457 208.989 305.177 208.997V208.993Z" fill="#AB750F"/>
<path id="Vector_126" d="M264.688 343.439C264.662 343.773 264.642 344.106 264.615 344.439C263.689 344.082 263.576 343.744 264.688 343.439Z" fill="#AB750F"/>
<path id="Vector_127" d="M254.612 343.777C254.106 343.826 253.606 343.874 253.1 343.918C253.087 343.773 253.08 343.625 253.1 343.48C253.62 343.537 254.132 343.589 254.652 343.645L254.612 343.773V343.777Z" fill="#AB750F"/>
<path id="Vector_128" d="M60.7095 210.915C60.603 210.775 60.4964 210.631 60.3898 210.49C60.17 210.213 60.4698 209.98 60.7895 209.98C61.1025 209.98 61.4022 210.209 61.1691 210.486C61.0492 210.627 60.956 210.771 60.8494 210.911H60.7095V210.915Z" fill="#AB750F"/>
<path id="Vector_129" d="M168.979 211.397C168.893 211.096 168.806 210.799 168.72 210.498C168.993 210.482 169.259 210.498 169.526 210.55C169.546 210.879 169.386 211.168 168.979 211.397Z" fill="#AB750F"/>
<path id="Vector_130" d="M83.5344 212.011C84.0805 212.015 84.62 212.023 85.1661 212.027C85.1661 212.163 85.1595 212.304 85.1595 212.44C84.62 212.448 84.0805 212.456 83.5477 212.464C83.5277 212.316 83.5277 212.163 83.541 212.015L83.5344 212.011Z" fill="#AB750F"/>
<path id="Vector_131" d="M331.672 213.006C330.853 212.841 330.873 212.428 330.873 212.019L330.859 212.027C331.099 212.027 331.332 212.023 331.572 212.015C331.605 212.344 331.639 212.677 331.672 213.006Z" fill="#AB750F"/>
<path id="Vector_132" d="M360.617 212.525C361.163 212.521 361.709 212.517 362.255 212.513C362.269 212.677 362.269 212.842 362.255 213.006C361.709 212.994 361.163 212.982 360.61 212.974C360.61 212.826 360.61 212.677 360.61 212.529L360.617 212.525Z" fill="#AB750F"/>
<path id="Vector_133" d="M198.518 214.503C198.512 214.17 198.498 213.841 198.492 213.508C199.544 213.829 199.537 214.162 198.518 214.503Z" fill="#AB750F"/>
<path id="Vector_134" d="M199.258 215.92C198.372 215.815 198.345 215.43 198.452 215.005C199.411 215.089 199.271 215.527 199.258 215.92Z" fill="#AB750F"/>
<path id="Vector_135" d="M71.1259 217.019C70.0869 216.69 70.1136 216.353 71.1126 216.016C71.1126 216.349 71.1193 216.686 71.1259 217.019Z" fill="#AB750F"/>
<path id="Vector_136" d="M0.000383724 216.529C0.826265 216.686 0.819604 217.087 0.759661 217.5C0.0669867 217.304 -0.00627661 216.931 0.000383724 216.529Z" fill="#AB750F"/>
<path id="Vector_137" d="M215.182 226.012C215.162 225.727 214.736 225.229 215.296 225.213C216.348 225.181 215.615 225.723 215.702 226.012H215.442H215.182Z" fill="#AB750F"/>
<path id="Vector_138" d="M109.23 228.038C109.21 227.709 109.197 227.38 109.177 227.055C110.322 227.36 110.149 227.693 109.23 228.038Z" fill="#AB750F"/>
<path id="Vector_139" d="M177.018 231.609C177.565 231.597 178.104 231.581 178.65 231.569C178.65 231.738 178.65 231.906 178.65 232.075C178.104 232.063 177.558 232.055 177.012 232.039C177.012 231.894 177.012 231.75 177.018 231.609Z" fill="#AB750F"/>
<path id="Vector_140" d="M6.60693 237.589C7.15308 237.593 7.70589 237.597 8.25204 237.605C8.25204 237.757 8.25204 237.906 8.24538 238.054C7.69923 238.07 7.15308 238.086 6.60693 238.103C6.60693 237.93 6.60693 237.757 6.60693 237.589Z" fill="#AB750F"/>
<path id="Vector_141" d="M86.8379 238.592C86.8379 238.259 86.8379 237.926 86.8446 237.593C87.1043 237.593 87.3707 237.593 87.6305 237.593C87.6438 237.926 87.6638 238.259 87.6771 238.596C87.3974 238.596 87.1176 238.596 86.8379 238.596V238.592Z" fill="#AB750F"/>
<path id="Vector_142" d="M209.395 240.278C209.894 240.222 210.394 240.165 210.893 240.113C210.893 240.258 210.887 240.398 210.88 240.543C210.367 240.49 209.848 240.442 209.335 240.39L209.395 240.278Z" fill="#AB750F"/>
<path id="Vector_143" d="M6.57411 242.6C5.52178 242.287 5.66831 241.954 6.52749 241.613C6.54081 241.942 6.56079 242.271 6.57411 242.6Z" fill="#AB750F"/>
<path id="Vector_144" d="M267.153 242.617L268.798 242.604C268.798 242.773 268.798 242.942 268.798 243.11C268.245 243.106 267.699 243.102 267.146 243.098C267.146 242.938 267.146 242.777 267.146 242.617H267.153Z" fill="#AB750F"/>
<path id="Vector_145" d="M268.771 244.619C268.798 244.31 268.818 243.997 268.844 243.688C269.73 244.022 269.897 244.339 268.771 244.619Z" fill="#AB750F"/>
<path id="Vector_146" d="M3.38405 246.602C3.34408 246.272 3.30412 245.939 3.26416 245.61L4.11002 245.618C4.07006 245.943 4.02344 246.272 3.98348 246.598L3.68376 246.589L3.37738 246.598L3.38405 246.602Z" fill="#AB750F"/>
<path id="Vector_147" d="M270.484 247.625C269.291 247.348 269.571 247.003 270.35 246.63C270.397 246.963 270.437 247.292 270.484 247.625Z" fill="#AB750F"/>
<path id="Vector_148" d="M212.572 247.649C213.071 247.613 213.817 247.581 213.79 247.918C213.77 248.195 212.978 248.175 212.472 248.139C212.532 247.979 212.565 247.814 212.578 247.649H212.572Z" fill="#AB750F"/>
<path id="Vector_149" d="M218.339 249.632C217.34 249.327 217.453 248.99 218.273 248.641C218.293 248.97 218.319 249.303 218.339 249.632Z" fill="#AB750F"/>
<path id="Vector_150" d="M261.352 248.624C261.898 248.628 262.451 248.632 262.997 248.636C262.997 248.785 262.997 248.933 262.984 249.081C262.438 249.102 261.891 249.126 261.345 249.146C261.345 248.973 261.345 248.797 261.345 248.624H261.352Z" fill="#AB750F"/>
<path id="Vector_151" d="M53.2895 251.056C53.1763 250.751 53.0631 250.446 52.9565 250.145L52.9365 250.153L53.3428 250.133H53.7557C53.9222 250.498 53.6026 250.783 53.3561 251.08L53.2895 251.056Z" fill="#AB750F"/>
<path id="Vector_152" d="M58.6649 257.176C58.6848 257.509 58.7048 257.846 58.7248 258.179C57.819 257.862 57.779 257.529 58.6649 257.176Z" fill="#AB750F"/>
<path id="Vector_153" d="M261.405 257.243C262.364 257.568 262.404 257.877 261.352 258.158C261.372 257.853 261.392 257.548 261.405 257.243Z" fill="#AB750F"/>
<path id="Vector_154" d="M34.7278 258.166C34.7478 258.331 34.7478 258.491 34.7278 258.656C34.1816 258.644 33.6355 258.628 33.0894 258.616C33.3624 258.447 33.6422 258.283 33.9152 258.114C34.1816 258.134 34.4547 258.15 34.7211 258.17L34.7278 258.166Z" fill="#AB750F"/>
<path id="Vector_155" d="M164.124 261.089C163.944 260.728 163.225 260.27 164.57 260.186L164.55 260.174C164.431 260.487 164.304 260.796 164.184 261.109L164.124 261.089Z" fill="#AB750F"/>
<path id="Vector_156" d="M48.8273 260.719L50.4391 260.679C50.4724 260.839 50.4724 261.004 50.4391 261.164C49.8996 261.14 49.3601 261.116 48.814 261.092C48.8206 260.968 48.8206 260.843 48.814 260.719H48.8273Z" fill="#AB750F"/>
<path id="Vector_157" d="M202.721 261.606C202.695 261.293 202.668 260.984 202.648 260.671C202.941 260.667 203.227 260.663 203.52 260.659C203.72 261.117 203.707 261.51 202.728 261.606H202.721Z" fill="#AB750F"/>
<path id="Vector_158" d="M294.441 260.675C294.987 260.675 295.533 260.679 296.079 260.683C296.079 260.835 296.086 260.988 296.079 261.144C295.533 261.156 294.98 261.168 294.427 261.18C294.427 261.012 294.427 260.843 294.434 260.679L294.441 260.675Z" fill="#AB750F"/>
<path id="Vector_159" d="M115.004 261.232C115.544 261.208 116.083 261.184 116.616 261.16C116.616 261.329 116.616 261.501 116.616 261.67C116.077 261.642 115.537 261.61 114.998 261.582C115.018 261.465 115.018 261.349 115.004 261.228V261.232Z" fill="#AB750F"/>
<path id="Vector_160" d="M6.59434 262.147C7.14049 262.176 7.67997 262.2 8.21946 262.228C8.20614 262.348 8.20614 262.468 8.21946 262.589C7.67997 262.621 7.14049 262.653 6.601 262.685L6.58768 262.677C6.58102 262.509 6.5677 262.336 6.56104 262.168L6.58768 262.147H6.59434Z" fill="#AB750F"/>
<path id="Vector_161" d="M13.2479 262.168C13.2346 262.497 13.2146 262.826 13.2013 263.155C12.3288 263.011 12.3021 262.613 12.4153 262.176C12.6951 262.176 12.9748 262.172 13.2479 262.168Z" fill="#AB750F"/>
<path id="Vector_162" d="M342.342 262.665C342.908 262.681 343.467 262.697 344.034 262.713C344.027 262.846 344.027 262.978 344.034 263.11C343.494 263.127 342.955 263.139 342.415 263.155C342.395 262.994 342.375 262.83 342.342 262.665Z" fill="#AB750F"/>
<path id="Vector_163" d="M86.7979 265.679C85.9254 265.338 85.8788 265.005 86.8246 264.684C86.8179 265.017 86.8046 265.35 86.7979 265.679Z" fill="#AB750F"/>
<path id="Vector_164" d="M191.878 264.68C191.845 265.025 191.811 265.37 191.778 265.715C191.565 265.699 191.358 265.699 191.145 265.715C191.112 265.37 191.079 265.025 191.045 264.68C191.325 264.68 191.598 264.68 191.878 264.68Z" fill="#AB750F"/>
<path id="Vector_165" d="M72.771 266.69C72.791 266.361 72.8043 266.028 72.8309 265.699C73.0574 265.699 73.2838 265.699 73.5103 265.699C73.5436 266.028 73.5836 266.357 73.6169 266.69C73.3371 266.69 73.0507 266.69 72.771 266.69Z" fill="#AB750F"/>
<path id="Vector_166" d="M263.017 266.686C263.017 266.353 263.023 266.023 263.03 265.69C263.276 265.69 263.516 265.69 263.763 265.69L263.796 266.678H263.41H263.023L263.017 266.686Z" fill="#AB750F"/>
<path id="Vector_167" d="M356.468 267.188C357.021 267.188 357.567 267.196 358.12 267.2C358.12 267.36 358.12 267.517 358.12 267.677C357.574 267.677 357.021 267.685 356.475 267.685C356.468 267.521 356.468 267.352 356.475 267.188H356.468Z" fill="#AB750F"/>
<path id="Vector_168" d="M98.4267 270.217C98.9529 270.241 99.479 270.265 100.005 270.293C100.005 270.413 100.019 270.534 100.052 270.654C99.499 270.69 98.9529 270.726 98.4067 270.759C98.4067 270.578 98.4201 270.397 98.4267 270.217Z" fill="#AB750F"/>
<path id="Vector_169" d="M109.183 334.411C109.123 334.728 109.07 335.045 109.01 335.362C108.364 334.997 108.117 334.66 109.183 334.411Z" fill="#AB750F"/>
<path id="Vector_170" d="M161.447 281.69C161.387 281.369 161.327 281.052 161.267 280.731H161.274C161.553 280.731 161.833 280.731 162.106 280.727H162.113C162.046 281.056 161.973 281.381 161.906 281.706L161.68 281.686H161.447V281.69Z" fill="#AB750F"/>
<path id="Vector_171" d="M95.1104 282.248C95.6632 282.248 96.2093 282.244 96.7555 282.24C96.7555 282.401 96.7555 282.565 96.7555 282.726C96.2093 282.722 95.6632 282.714 95.117 282.71C95.117 282.557 95.1104 282.401 95.117 282.244L95.1104 282.248Z" fill="#AB750F"/>
<path id="Vector_172" d="M344.979 285.213C345.265 284.764 345.851 284.688 346.551 284.74C346.551 284.924 346.564 285.109 346.571 285.294C346.018 285.262 345.472 285.233 344.919 285.201L344.979 285.213Z" fill="#AB750F"/>
<path id="Vector_173" d="M148.046 332.914C147.507 332.89 146.974 332.866 146.434 332.842C146.454 332.726 146.454 332.613 146.428 332.497C146.967 332.461 147.513 332.425 148.053 332.389L148.073 332.405C148.073 332.573 148.06 332.746 148.053 332.914H148.046Z" fill="#AB750F"/>
<path id="Vector_174" d="M61.169 286.75C60.2832 286.405 60.2299 286.072 61.2023 285.751C61.189 286.084 61.1823 286.417 61.169 286.75Z" fill="#AB750F"/>
<path id="Vector_175" d="M54.5549 332.38C54.0088 332.396 53.4627 332.408 52.9165 332.424C53.416 331.79 53.9688 331.843 54.5549 332.38Z" fill="#AB750F"/>
<path id="Vector_176" d="M46.9756 332.192C46.596 332.236 46.1963 332.344 45.8433 332.304C45.4504 332.256 45.457 332.011 45.8567 331.975C46.2097 331.943 46.6026 332.067 46.9756 332.119V332.188V332.192Z" fill="#AB750F"/>
<path id="Vector_177" d="M79.5317 290.718C79.4785 290.397 79.4185 290.076 79.3652 289.755L79.3852 289.747C79.6649 289.755 79.938 289.759 80.2178 289.767C80.2577 290.156 80.1645 290.51 79.5317 290.714V290.718Z" fill="#AB750F"/>
<path id="Vector_178" d="M74.4431 290.29C74.9826 290.294 75.5221 290.298 76.0616 290.302C76.0682 290.439 76.0682 290.579 76.0616 290.715C75.5221 290.723 74.9759 290.731 74.4364 290.743C74.4165 290.591 74.4231 290.443 74.4364 290.29H74.4431Z" fill="#AB750F"/>
<path id="Vector_179" d="M245.627 290.253C246.14 290.277 246.659 290.297 247.172 290.321C246.879 290.747 246.293 290.827 245.62 290.803C245.62 290.618 245.62 290.434 245.627 290.253Z" fill="#AB750F"/>
<path id="Vector_180" d="M69.5078 294.339C70.0073 294.295 70.8066 294.243 70.7999 294.54C70.7932 294.845 70.0073 294.776 69.5078 294.724C69.5078 294.596 69.5078 294.463 69.5078 294.335V294.339Z" fill="#AB750F"/>
<path id="Vector_181" d="M110.928 297.753C110.875 297.428 110.821 297.103 110.768 296.778C111.847 297.043 111.714 297.38 110.928 297.753Z" fill="#AB750F"/>
<path id="Vector_182" d="M248.93 298.801C248.957 298.472 248.977 298.143 249.003 297.813C249.849 298.167 249.903 298.496 248.93 298.801Z" fill="#AB750F"/>
<path id="Vector_183" d="M130.556 301.791C129.844 301.414 129.471 301.053 130.73 300.8C130.67 301.129 130.616 301.462 130.556 301.791Z" fill="#AB750F"/>
<path id="Vector_184" d="M194.482 303.48C195.114 303.328 195.84 303.023 195.954 303.789L195.987 303.773C195.474 303.717 194.968 303.657 194.455 303.601L194.482 303.484V303.48Z" fill="#AB750F"/>
<path id="Vector_185" d="M327.535 308.352C328.081 308.344 328.627 308.336 329.174 308.332C328.647 308.918 328.101 308.906 327.535 308.352Z" fill="#AB750F"/>
<path id="Vector_186" d="M191.172 310.005C191.425 309.961 191.678 309.925 191.925 309.873C192.424 309.772 192.617 309.917 192.538 310.19C192.478 310.394 192.218 310.414 191.911 310.318C191.685 310.246 191.419 310.218 191.166 310.17V310.009L191.172 310.005Z" fill="#AB750F"/>
<path id="Vector_187" d="M138.129 310.843C138.408 310.835 138.688 310.831 138.968 310.823C139.041 310.996 139.108 311.172 139.181 311.345C138.828 311.493 138.475 311.646 138.122 311.794C138.122 311.477 138.122 311.16 138.129 310.843Z" fill="#AB750F"/>
<path id="Vector_188" d="M313.376 321.895C313.456 322.212 313.522 322.717 313.043 322.717C312.57 322.717 312.636 322.212 312.716 321.895C312.936 321.891 313.156 321.891 313.376 321.895Z" fill="#AB750F"/>
<path id="Vector_189" d="M310.159 323.889C310.571 323.933 311.224 323.74 311.198 324.214C311.198 324.274 310.525 324.318 310.159 324.37C310.139 324.21 310.139 324.049 310.159 323.889Z" fill="#AB750F"/>
<path id="Vector_190" d="M236.496 326.898C236.536 326.569 236.582 326.24 236.622 325.911C237.435 326.28 237.661 326.621 236.496 326.898Z" fill="#AB750F"/>
<path id="Vector_191" d="M285.409 326.875C285.395 326.55 285.382 326.221 285.369 325.896C285.628 325.884 285.888 325.884 286.155 325.896C286.155 326.225 286.155 326.554 286.155 326.883H285.782H285.409V326.875Z" fill="#AB750F"/>
<path id="Vector_192" d="M166.495 329.33C166.409 329.021 166.329 328.712 166.249 328.403C167.514 328.476 166.888 328.953 166.782 329.322L166.502 329.33H166.495Z" fill="#AB750F"/>
<path id="Vector_193" d="M243.989 401.141C243.969 401.474 243.955 401.803 243.935 402.136C243.709 402.136 243.476 402.136 243.249 402.136C243.223 401.807 243.196 401.478 243.169 401.149C243.443 401.137 243.716 401.137 243.989 401.149V401.141Z" fill="#AB750F"/>
<path id="Vector_194" d="M152.176 400.138C152.136 400.463 152.103 400.788 152.063 401.109C151.863 401.109 151.663 401.109 151.463 401.121C151.417 400.792 151.377 400.463 151.33 400.134C151.61 400.134 151.89 400.134 152.176 400.134V400.138Z" fill="#AB750F"/>
<path id="Vector_195" d="M143.904 387.598C143.87 387.923 143.83 388.248 143.797 388.569C143.604 388.569 143.404 388.569 143.211 388.581L143.064 387.598L143.078 387.59C143.358 387.594 143.631 387.598 143.91 387.602L143.904 387.598Z" fill="#AB750F"/>
<path id="Vector_196" d="M129.004 383.114C128.425 383.608 127.872 383.68 127.366 383.07C127.912 383.082 128.458 383.098 129.004 383.114Z" fill="#AB750F"/>
<path id="Vector_197" d="M149.725 381.068C149.658 381.389 149.592 381.706 149.518 382.027H149.279L149.045 382.047C148.972 381.722 148.899 381.397 148.826 381.068C149.125 381.068 149.425 381.068 149.725 381.068Z" fill="#AB750F"/>
<path id="Vector_198" d="M179.25 380.137C179.317 380.446 179.383 380.759 179.457 381.068C179.217 381.068 178.977 381.064 178.737 381.06C178.797 380.743 178.864 380.43 178.924 380.113L179.25 380.137Z" fill="#AB750F"/>
<path id="Vector_199" d="M109.15 379.592C108.584 380.122 108.037 380.142 107.511 379.568C108.057 379.576 108.604 379.584 109.15 379.592Z" fill="#AB750F"/>
<path id="Vector_200" d="M191.891 379.086C193.103 379.126 192.777 379.62 192.664 380.049L192.69 380.037C192.431 380.037 192.178 380.021 191.931 379.981C191.918 379.684 191.904 379.383 191.891 379.086Z" fill="#AB750F"/>
<path id="Vector_201" d="M39.5494 376.598C39.616 376.923 39.676 377.248 39.7426 377.573C39.4429 377.573 39.1498 377.569 38.8501 377.565C38.9167 377.24 38.9766 376.915 39.0366 376.59C39.2031 376.61 39.3696 376.614 39.5428 376.602L39.5494 376.598Z" fill="#AB750F"/>
<path id="Vector_202" d="M9.90474 374.03C9.35859 374.03 8.81244 374.038 8.27295 374.042C8.25963 373.885 8.25964 373.729 8.27962 373.576C8.8191 373.58 9.35859 373.584 9.89142 373.588C9.90474 373.737 9.90474 373.881 9.90474 374.03Z" fill="#AB750F"/>
<path id="Vector_203" d="M214.982 369.054C214.909 369.359 214.836 369.66 214.762 369.964L214.476 369.993C214.376 369.672 214.276 369.351 214.176 369.03L214.196 369.021C214.469 369.025 214.736 369.042 215.002 369.066L214.975 369.054H214.982Z" fill="#AB750F"/>
<path id="Vector_204" d="M49.4071 368.593C49.4737 368.906 49.5336 369.219 49.6002 369.528H49.2139H48.8276C48.8743 369.203 48.9275 368.882 48.9742 368.557C49.1074 368.597 49.2539 368.609 49.4004 368.593H49.4071Z" fill="#AB750F"/>
<path id="Vector_205" d="M53.6498 365.057C53.6964 365.382 53.7431 365.707 53.7897 366.028C52.7174 365.759 52.8705 365.422 53.6498 365.057Z" fill="#AB750F"/>
<path id="Vector_206" d="M139.787 364.544C140.98 364.588 140.786 365.05 140.58 365.515C139.707 365.375 139.774 364.949 139.787 364.544Z" fill="#AB750F"/>
<path id="Vector_207" d="M163.784 102.677C163.984 102.725 164.337 102.753 164.364 102.821C164.471 103.102 164.111 103.118 163.771 103.114C163.765 102.97 163.771 102.821 163.784 102.677Z" fill="#AB750F"/>
<path id="Vector_208" d="M238.188 108.644C238.747 108.648 239.033 108.82 239.04 109.161C238.54 109.121 238.254 108.949 238.188 108.644Z" fill="#AB750F"/>
<path id="Vector_209" d="M199.318 112.159C198.958 112.171 198.585 112.159 198.692 111.862C198.718 111.79 199.085 111.758 199.298 111.71C199.311 111.858 199.318 112.011 199.318 112.159Z" fill="#AB750F"/>
<path id="Vector_210" d="M260.506 115.682C260.532 116.023 260.273 116.191 259.707 116.175C259.747 115.874 260.013 115.71 260.506 115.682Z" fill="#AB750F"/>
<path id="Vector_211" d="M101.751 117.227C102.004 117.187 102.264 117.175 102.523 117.195C102.51 117.508 102.264 117.681 101.724 117.669C101.718 117.52 101.724 117.372 101.744 117.227H101.751Z" fill="#AB750F"/>
<path id="Vector_212" d="M239 126.18C238.673 126.168 238.274 126.18 238.387 125.888C238.413 125.815 238.786 125.791 239 125.747C239.02 125.892 239.02 126.036 239 126.18Z" fill="#AB750F"/>
<path id="Vector_213" d="M225.779 128.704C226.392 128.676 226.665 128.857 226.625 129.222C226.105 129.194 225.825 129.017 225.779 128.704Z" fill="#AB750F"/>
<path id="Vector_214" d="M105.034 129.222C104.94 129.499 104.667 129.659 104.214 129.715C104.314 129.446 104.594 129.282 105.034 129.222Z" fill="#AB750F"/>
<path id="Vector_215" d="M130.676 129.226C131.055 129.218 131.475 129.218 131.362 129.543C131.335 129.619 130.922 129.647 130.689 129.695C130.682 129.539 130.676 129.382 130.676 129.226Z" fill="#AB750F"/>
<path id="Vector_216" d="M200.163 135.27C200.39 135.318 200.783 135.342 200.809 135.414C200.922 135.723 200.516 135.723 200.156 135.727C200.143 135.575 200.143 135.422 200.156 135.27H200.163Z" fill="#AB750F"/>
<path id="Vector_217" d="M16.5381 139.262C16.9843 139.322 17.2574 139.486 17.3573 139.759C16.9177 139.695 16.6447 139.531 16.5381 139.262Z" fill="#AB750F"/>
<path id="Vector_218" d="M11.5564 144.747C10.8437 144.595 10.857 144.446 11.5564 144.298C11.563 144.446 11.563 144.599 11.5564 144.747Z" fill="#AB750F"/>
<path id="Vector_219" d="M147.22 154.306C147.22 154.142 147.214 153.973 147.22 153.809C147.493 153.805 147.773 153.805 148.046 153.809C148.046 153.965 148.046 154.118 148.033 154.274C147.766 154.298 147.5 154.302 147.234 154.29V154.31L147.22 154.306Z" fill="#AB750F"/>
<path id="Vector_220" d="M5.76171 163.809C5.5619 163.736 5.36876 163.664 5.16895 163.588C5.36876 163.516 5.5619 163.443 5.76171 163.367C5.77504 163.512 5.77504 163.66 5.76171 163.805V163.809Z" fill="#AB750F"/>
<path id="Vector_221" d="M261.358 163.857C261.065 163.857 260.772 163.857 260.486 163.857C260.466 163.496 260.759 163.34 261.338 163.364C261.338 163.528 261.352 163.689 261.365 163.853L261.358 163.857Z" fill="#AB750F"/>
<path id="Vector_222" d="M129.038 164.35C129.304 164.342 129.564 164.35 129.824 164.374C129.837 164.522 129.844 164.671 129.83 164.819C129.371 164.783 129.111 164.623 129.031 164.346L129.038 164.35Z" fill="#AB750F"/>
<path id="Vector_223" d="M68.655 167.877C68.8881 167.925 69.2944 167.949 69.321 168.021C69.4409 168.342 69.0147 168.334 68.655 168.338C68.6417 168.186 68.6417 168.033 68.655 167.877Z" fill="#AB750F"/>
<path id="Vector_224" d="M24.0376 169.371C24.2907 169.359 24.5504 169.351 24.8102 169.355C24.8302 169.704 24.5504 169.868 23.9776 169.856C23.9643 169.692 23.9843 169.531 24.0376 169.371Z" fill="#AB750F"/>
<path id="Vector_225" d="M119.933 171.886C120.379 171.934 120.639 172.09 120.719 172.363C120.293 172.303 120.033 172.143 119.933 171.886Z" fill="#AB750F"/>
<path id="Vector_226" d="M29.752 178.359C29.4323 178.355 29.0727 178.343 29.1793 178.07C29.2059 178.002 29.5522 177.974 29.7454 177.93C29.7654 178.07 29.7654 178.215 29.752 178.355V178.359Z" fill="#AB750F"/>
<path id="Vector_227" d="M47.116 185.418C47.1026 185.735 46.8495 185.912 46.3101 185.92C46.37 185.631 46.6364 185.462 47.116 185.418Z" fill="#AB750F"/>
<path id="Vector_228" d="M243.156 187.416L242.51 187.207L243.123 186.975C243.143 187.123 243.149 187.272 243.156 187.416Z" fill="#AB750F"/>
<path id="Vector_229" d="M101.71 194.415C101.397 194.415 101.057 194.394 101.15 194.138C101.177 194.069 101.503 194.041 101.69 193.993C101.71 194.134 101.717 194.274 101.703 194.415H101.71Z" fill="#AB750F"/>
<path id="Vector_230" d="M172.856 194.443C172.856 194.274 172.856 194.11 172.856 193.941C173.13 193.941 173.409 193.941 173.682 193.941C173.682 194.102 173.682 194.258 173.676 194.415C173.403 194.443 173.136 194.447 172.863 194.439L172.856 194.443Z" fill="#AB750F"/>
<path id="Vector_231" d="M235.683 194.896C235.483 194.848 235.136 194.82 235.11 194.747C235.01 194.47 235.356 194.446 235.703 194.458C235.703 194.607 235.703 194.751 235.683 194.9V194.896Z" fill="#AB750F"/>
<path id="Vector_232" d="M154.68 200.458C154.646 200.113 154.913 199.94 155.492 199.956C155.492 200.125 155.465 200.285 155.386 200.442C155.146 200.454 154.913 200.458 154.673 200.454L154.68 200.458Z" fill="#AB750F"/>
<path id="Vector_233" d="M232.406 200.972C232.872 201.02 233.152 201.184 233.232 201.469C232.792 201.401 232.512 201.241 232.406 200.972Z" fill="#AB750F"/>
<path id="Vector_234" d="M21.4797 204.455C21.2666 204.383 21.0535 204.311 20.8403 204.238C21.0535 204.166 21.2599 204.09 21.4664 204.018C21.4797 204.162 21.4864 204.311 21.4731 204.455H21.4797Z" fill="#AB750F"/>
<path id="Vector_235" d="M205.944 203.985C206.47 203.993 206.737 204.158 206.757 204.475C206.49 204.475 206.224 204.459 205.957 204.419C205.944 204.274 205.938 204.13 205.938 203.981L205.944 203.985Z" fill="#AB750F"/>
<path id="Vector_236" d="M253.826 205.497C253.752 205.614 253.712 205.822 253.606 205.834C253.166 205.895 253.18 205.674 253.16 205.493C253.386 205.481 253.606 205.481 253.832 205.493L253.826 205.497Z" fill="#AB750F"/>
<path id="Vector_237" d="M332.471 205.481C332.451 205.802 332.185 205.983 331.646 205.995C331.719 205.706 331.992 205.53 332.471 205.481Z" fill="#AB750F"/>
<path id="Vector_238" d="M70.2998 206.995C70.5995 207.079 70.8992 207.16 71.2056 207.244C70.9925 207.445 70.6928 207.525 70.3065 207.473C70.3065 207.312 70.2998 207.156 70.3065 206.995H70.2998Z" fill="#AB750F"/>
<path id="Vector_239" d="M258.895 209.989C258.895 209.664 259.128 209.471 259.707 209.487C259.701 209.64 259.687 209.792 259.674 209.945C259.414 209.997 259.154 210.009 258.881 209.977L258.895 209.989Z" fill="#AB750F"/>
<path id="Vector_240" d="M155.499 211.529C155.832 211.529 156.165 211.561 156.052 211.822C156.025 211.894 155.692 211.919 155.506 211.967C155.486 211.822 155.486 211.678 155.506 211.533L155.499 211.529Z" fill="#AB750F"/>
<path id="Vector_241" d="M200.177 214.062C200.377 214.11 200.73 214.138 200.756 214.21C200.856 214.491 200.483 214.491 200.157 214.495C200.157 214.35 200.157 214.206 200.177 214.066V214.062Z" fill="#AB750F"/>
<path id="Vector_242" d="M133.993 215.032C134.219 215.08 134.626 215.108 134.652 215.185C134.772 215.502 134.359 215.51 133.986 215.51C133.986 215.349 133.986 215.193 133.993 215.032Z" fill="#AB750F"/>
<path id="Vector_243" d="M220.011 217.047C220.357 217.047 220.757 217.047 220.644 217.348C220.617 217.42 220.231 217.444 220.011 217.488C219.991 217.34 219.991 217.195 220.011 217.047Z" fill="#AB750F"/>
<path id="Vector_244" d="M277.044 229.519C276.837 229.475 276.471 229.451 276.444 229.383C276.338 229.094 276.724 229.102 277.044 229.094C277.064 229.234 277.064 229.379 277.044 229.519Z" fill="#AB750F"/>
<path id="Vector_245" d="M22.3523 232.529C22.3257 232.376 22.319 232.228 22.3323 232.075C22.9118 232.059 23.2182 232.212 23.1715 232.577C22.8985 232.577 22.6254 232.565 22.3523 232.529Z" fill="#AB750F"/>
<path id="Vector_246" d="M96.7757 234.587C97.0421 234.579 97.3019 234.587 97.5616 234.623C97.5816 234.763 97.5816 234.908 97.5616 235.048C97.0887 235.028 96.8223 234.876 96.769 234.591L96.7757 234.587Z" fill="#AB750F"/>
<path id="Vector_247" d="M146.334 239.106C146.321 239.306 146.341 239.551 145.848 239.487C145.735 239.471 145.695 239.242 145.622 239.11C145.861 239.098 146.094 239.098 146.334 239.11V239.106Z" fill="#AB750F"/>
<path id="Vector_248" d="M291.95 240.603C291.93 240.92 291.657 241.088 291.13 241.1C291.204 240.815 291.477 240.647 291.95 240.603Z" fill="#AB750F"/>
<path id="Vector_249" d="M294.447 242.613C294.714 242.601 294.98 242.613 295.24 242.645C295.253 242.802 295.266 242.958 295.266 243.111C294.727 243.103 294.474 242.926 294.447 242.609V242.613Z" fill="#AB750F"/>
<path id="Vector_250" d="M41.3472 247.629C41.8067 247.673 42.0598 247.842 42.1397 248.114H42.1597C41.8933 248.122 41.6202 248.114 41.3538 248.094C41.3538 247.938 41.3472 247.785 41.3472 247.629Z" fill="#AB750F"/>
<path id="Vector_251" d="M160.461 250.654C160.794 250.666 161.194 250.654 161.087 250.951C161.061 251.023 160.688 251.048 160.468 251.096C160.455 250.947 160.448 250.803 160.455 250.654H160.461Z" fill="#AB750F"/>
<path id="Vector_252" d="M183.626 255.679C183.892 255.655 184.152 255.651 184.418 255.659C184.332 255.928 184.079 256.096 183.619 256.137C183.619 255.984 183.619 255.832 183.626 255.679Z" fill="#AB750F"/>
<path id="Vector_253" d="M105.034 260.166C105.034 259.997 105.034 259.833 105.034 259.664C105.307 259.664 105.587 259.664 105.86 259.664V260.166H105.447H105.034Z" fill="#AB750F"/>
<path id="Vector_254" d="M321.754 262.22C321.967 262.268 322.334 262.292 322.354 262.364C322.453 262.657 322.074 262.657 321.734 262.653C321.727 262.509 321.734 262.364 321.747 262.22H321.754Z" fill="#AB750F"/>
<path id="Vector_255" d="M13.2075 273.68C12.8945 273.668 12.5082 273.676 12.6148 273.395C12.6414 273.323 12.9944 273.299 13.2009 273.255C13.2208 273.399 13.2208 273.54 13.2009 273.684L13.2075 273.68Z" fill="#AB750F"/>
<path id="Vector_256" d="M387.072 279.23C387.625 279.218 387.858 279.399 387.845 279.72C387.365 279.688 387.112 279.519 387.072 279.23Z" fill="#AB750F"/>
<path id="Vector_257" d="M68.6682 280.278C69.0612 280.282 69.4341 280.335 69.2743 280.635C69.2343 280.712 68.848 280.724 68.6216 280.764C68.6416 280.603 68.6549 280.439 68.6615 280.278H68.6682Z" fill="#AB750F"/>
<path id="Vector_258" d="M335.841 281.249C336.054 281.333 336.274 281.418 336.487 281.502C336.26 281.578 336.041 281.654 335.814 281.731C335.794 281.57 335.801 281.41 335.841 281.249Z" fill="#AB750F"/>
<path id="Vector_259" d="M68.6953 283.732C68.9617 283.255 69.2148 283.307 69.4612 283.741C69.2082 283.741 68.9551 283.741 68.6953 283.732Z" fill="#AB750F"/>
<path id="Vector_260" d="M187.722 283.717C188.262 283.745 188.515 283.929 188.555 284.246C188.075 284.186 187.815 284.002 187.722 283.717Z" fill="#AB750F"/>
<path id="Vector_261" d="M215.003 285.201C214.637 285.193 214.27 285.145 214.423 284.856C214.463 284.78 214.83 284.768 215.05 284.728C215.03 284.884 215.016 285.045 215.01 285.201H215.003Z" fill="#AB750F"/>
<path id="Vector_262" d="M48.8003 293.283C49.0667 293.271 49.3331 293.283 49.5929 293.315C49.6128 293.467 49.6195 293.62 49.6128 293.768C49.0534 293.785 48.787 293.62 48.8003 293.279V293.283Z" fill="#AB750F"/>
<path id="Vector_263" d="M6.60719 295.282C7.17332 295.273 7.45306 295.442 7.43973 295.787C7.17998 295.791 6.92023 295.779 6.66048 295.747L6.6738 295.755C6.62052 295.599 6.60053 295.442 6.60719 295.282Z" fill="#AB750F"/>
<path id="Vector_264" d="M49.6265 297.802C49.8196 297.874 50.0194 297.946 50.2126 298.018C50.0261 298.095 49.8329 298.171 49.6464 298.247C49.6331 298.099 49.6265 297.95 49.6265 297.802Z" fill="#AB750F"/>
<path id="Vector_265" d="M33.9211 298.829C34.1875 298.801 34.4473 298.789 34.7137 298.805C34.6471 299.086 34.394 299.246 33.9211 299.267C33.9078 299.122 33.9078 298.978 33.9211 298.829Z" fill="#AB750F"/>
<path id="Vector_266" d="M106.706 385.587C106.792 385.31 107.059 385.146 107.518 385.094C107.412 385.355 107.145 385.523 106.706 385.587Z" fill="#AB750F"/>
<path id="Vector_267" d="M44.6582 385.098C45.191 385.11 45.5041 385.262 45.524 385.599C45.0512 385.551 44.7448 385.395 44.6582 385.098Z" fill="#AB750F"/>
<path id="Vector_268" d="M239.832 363.484C239.626 363.404 239.426 363.327 239.219 363.247C239.426 363.171 239.639 363.095 239.845 363.022C239.845 363.175 239.845 363.331 239.832 363.484Z" fill="#AB750F"/>
<path id="Vector_269" d="M157.99 382.119C158.197 382.163 158.557 382.187 158.583 382.256C158.69 382.541 158.31 382.541 157.984 382.545C157.964 382.4 157.97 382.26 157.984 382.115L157.99 382.119Z" fill="#AB750F"/>
<path id="Vector_270" d="M238.214 378.099C238.414 378.143 238.747 378.163 238.78 378.235C238.907 378.496 238.541 378.516 238.234 378.552C238.201 378.4 238.194 378.251 238.208 378.099H238.214Z" fill="#AB750F"/>
<path id="Vector_271" d="M316 402.16C316.213 402.244 316.433 402.329 316.653 402.413C316.42 402.481 316.193 402.545 315.96 402.614C315.947 402.461 315.96 402.309 316 402.16Z" fill="#AB750F"/>
<path id="Vector_272" d="M240.651 377.525C240.438 377.476 240.072 377.448 240.045 377.376C239.939 377.083 240.338 377.087 240.671 377.075C240.671 377.224 240.671 377.376 240.658 377.525H240.651Z" fill="#AB750F"/>
<path id="Vector_273" d="M139.768 343.443C140.214 343.504 140.48 343.668 140.567 343.941C140.127 343.881 139.867 343.708 139.768 343.443Z" fill="#AB750F"/>
<path id="Vector_274" d="M45.4839 375.05C46.0367 375.058 46.3364 375.218 46.3497 375.563C45.8569 375.519 45.5572 375.355 45.4839 375.05Z" fill="#AB750F"/>
<path id="Vector_275" d="M135.625 328.384C135.172 328.336 134.906 328.171 134.812 327.898H134.806C135.079 327.898 135.352 327.902 135.618 327.923C135.618 328.075 135.618 328.231 135.618 328.384H135.625Z" fill="#AB750F"/>
<path id="Vector_276" d="M111.621 338.392L111.228 338.428H110.828C110.861 338.123 111.121 337.954 111.641 337.942C111.641 338.091 111.641 338.243 111.621 338.392Z" fill="#AB750F"/>
<path id="Vector_277" d="M34.7472 373.079C35.0202 373.171 35.3 373.264 35.5731 373.356C35.2867 373.432 35.0003 373.504 34.7139 373.581C34.7338 373.412 34.7472 373.248 34.7472 373.079Z" fill="#AB750F"/>
<path id="Vector_278" d="M306.003 325.378L305.603 325.386L305.21 325.35C305.19 325.198 305.184 325.041 305.19 324.889C305.757 324.873 306.003 325.053 306.003 325.378Z" fill="#AB750F"/>
<path id="Vector_279" d="M251.441 324.406C251.788 324.406 252.181 324.406 252.067 324.703C252.041 324.775 251.661 324.799 251.448 324.844C251.428 324.699 251.428 324.551 251.441 324.406Z" fill="#AB750F"/>
<path id="Vector_280" d="M248.95 386.603C249.496 386.603 249.789 386.755 249.789 387.096C249.297 387.06 249.01 386.899 248.95 386.603Z" fill="#AB750F"/>
<path id="Vector_281" d="M15.6455 318.877C15.6921 319.038 15.7121 319.198 15.6988 319.359C15.2192 319.319 14.9395 319.158 14.8862 318.865C15.1393 318.865 15.3924 318.869 15.6455 318.877Z" fill="#AB750F"/>
<path id="Vector_282" d="M227.484 318.352C227.484 318.159 227.511 317.946 227.951 318.006C228.064 318.023 228.11 318.227 228.19 318.344L227.837 318.356H227.484V318.352Z" fill="#AB750F"/>
<path id="Vector_283" d="M39.669 370.499C39.4093 370.535 39.1429 370.547 38.8765 370.535C38.9098 370.23 39.1762 370.07 39.6824 370.058C39.689 370.206 39.6824 370.351 39.669 370.499Z" fill="#AB750F"/>
<path id="Vector_284" d="M28.1069 313.829C28.3334 313.873 28.713 313.889 28.753 313.966C28.8995 314.266 28.5332 314.319 28.1402 314.315C28.1402 314.154 28.1269 313.99 28.1136 313.829H28.1069Z" fill="#AB750F"/>
<path id="Vector_285" d="M235.73 311.365C235.916 311.437 236.109 311.51 236.296 311.586C236.109 311.658 235.923 311.734 235.73 311.807C235.716 311.658 235.716 311.514 235.73 311.365Z" fill="#AB750F"/>
<path id="Vector_286" d="M368.836 363.475C368.284 363.508 368.084 363.327 368.077 363.022C368.603 363.002 368.816 363.183 368.836 363.475Z" fill="#AB750F"/>
<path id="Vector_287" d="M315.927 324.378C315.96 324.695 315.873 325 315.434 325.201C315.274 325.273 314.928 325.301 314.754 325.249C314.188 325.077 314.655 324.896 314.814 324.731C314.934 324.599 315.107 324.483 315.261 324.362H315.6L315.933 324.382L315.927 324.378Z" fill="#AB750F"/>
<path id="Vector_288" d="M315.954 322.372C315.9 322.685 315.84 322.999 315.094 322.85C314.981 322.826 314.801 322.738 314.815 322.702C314.968 322.328 315.407 322.288 315.94 322.368L315.954 322.372Z" fill="#AB750F"/>
<path id="Vector_289" d="M314.321 326.377C314.361 326.165 314.508 326.072 314.748 326.125C314.754 326.125 314.741 326.257 314.681 326.285C314.581 326.329 314.435 326.341 314.308 326.365L314.321 326.377Z" fill="#AB750F"/>
<path id="Vector_290" d="M312.583 325.398C312.743 325.273 312.896 325.145 313.056 325.021C313.549 325.418 312.969 325.382 312.603 325.426L312.583 325.398Z" fill="#AB750F"/>
<path id="Vector_291" d="M315.927 324.378L315.594 324.354H315.254C315.207 324.114 315.32 323.937 315.78 324.021C315.88 324.037 315.88 324.254 315.927 324.378Z" fill="#AB750F"/>
<path id="Vector_292" d="M19.7548 303.78C19.868 304.089 19.868 304.559 19.4284 304.571C18.9289 304.583 18.8956 304.137 18.9955 303.824C19.2486 303.828 19.5017 303.816 19.7548 303.784V303.78Z" fill="#AB750F"/>
<path id="Vector_293" d="M19.7549 303.78C19.5018 303.812 19.2554 303.824 18.9956 303.82C18.9091 303.427 19.2221 303.279 19.8348 303.319C19.8681 303.475 19.8415 303.628 19.7616 303.78H19.7549Z" fill="#AB750F"/>
<path id="Vector_294" d="M24.7772 184.883C24.291 184.891 23.5784 185.18 23.3985 184.747C23.2254 184.322 23.8181 183.94 24.5308 184.045C25.2168 184.149 24.7239 184.599 24.7639 184.895L24.7772 184.883Z" fill="#AB750F"/>
<path id="Vector_295" d="M288.639 328.388C287.82 328.336 287.487 328.091 287.867 327.609C288.02 327.417 288.246 327.405 288.459 327.517C288.972 327.778 288.606 328.099 288.626 328.392H288.633L288.639 328.388Z" fill="#AB750F"/>
<path id="Vector_296" d="M142.232 170.838C142.019 170.774 141.799 170.714 141.586 170.65C141.706 170.582 141.819 170.517 141.939 170.449C142.032 170.582 142.125 170.714 142.212 170.846L142.232 170.834V170.838Z" fill="#AB750F"/>
<path id="Vector_297" d="M65.4052 172.344C65.5318 171.922 65.1721 171.336 66.3577 171.268C66.8239 171.24 67.0703 171.449 67.097 171.685C67.1369 172.043 67.4899 172.528 66.6973 172.681C66.3577 172.749 65.8248 172.452 65.3853 172.324L65.4052 172.344Z" fill="#AB750F"/>
<path id="Vector_298" d="M50.5259 281.791C50.9988 281.807 51.465 281.823 51.9379 281.843C51.9911 282.212 52.4241 282.746 51.4383 282.802C50.1795 282.874 50.4393 282.265 50.5259 281.791Z" fill="#AB750F"/>
<path id="Vector_299" d="M282.832 250.595C283.231 250.519 283.564 250.555 283.731 250.808C283.757 250.852 283.611 250.992 283.531 251C283.078 251.036 282.885 250.868 282.812 250.623L282.832 250.595Z" fill="#AB750F"/>
<path id="Vector_300" d="M225.08 240.675C225.273 240.687 225.466 240.687 225.659 240.679C225.719 241.297 226.172 241.919 225.632 242.721C224.4 242.015 224.993 241.321 225.08 240.675Z" fill="#AB750F"/>
<path id="Vector_301" d="M358.893 287.745C358.919 287.593 358.959 287.44 358.999 287.288C359.439 287.224 359.705 287.051 359.805 286.786C361.09 287.015 360.771 287.392 360.071 287.809C359.678 287.789 359.286 287.769 358.893 287.749V287.745Z" fill="#AB750F"/>
<path id="Vector_302" d="M362.27 285.759C362.716 285.819 362.982 285.992 363.095 286.256C362.656 286.192 362.389 286.02 362.27 285.759Z" fill="#AB750F"/>
<path id="Vector_303" d="M16.5377 176.385C17.6567 176.385 18.356 176.638 18.2228 177.4C16.4512 177.536 16.3779 177.492 16.5377 176.385Z" fill="#AB750F"/>
<path id="Vector_304" d="M17.3703 178.905C16.8108 178.909 16.0715 179.25 15.8384 178.644C15.7319 178.363 16.1581 178.19 16.5045 178.154C17.5435 178.042 17.2837 178.564 17.3836 178.901L17.3703 178.909V178.905Z" fill="#AB750F"/>
<path id="Vector_305" d="M29.6586 218.21C29.552 218.319 29.4521 218.423 29.3522 218.523C29.2656 218.471 29.0925 218.403 29.1124 218.363C29.1591 218.251 29.2789 218.15 29.3722 218.046C29.4654 218.098 29.552 218.15 29.6586 218.206V218.21Z" fill="#AB750F"/>
<path id="Vector_306" d="M238.194 236.586C237.967 236.517 237.748 236.449 237.528 236.385C237.654 236.309 237.781 236.232 237.907 236.16C238.001 236.305 238.101 236.445 238.194 236.59V236.586Z" fill="#AB750F"/>
<path id="Vector_307" d="M17.2774 183.64C17.1176 183.724 16.9044 183.925 16.7646 183.905C16.4249 183.857 16.1185 183.712 15.7988 183.608C16.1252 183.511 16.4382 183.375 16.7779 183.335C16.9044 183.319 17.1043 183.531 17.2708 183.636L17.2774 183.64Z" fill="#AB750F"/>
<path id="Vector_308" d="M42.0603 157.886C42.0336 158.03 42.0603 158.171 42.1402 158.307C41.6673 158.5 41.4609 159.041 40.6749 158.793C40.4618 158.724 40.3353 158.347 40.4418 158.171C40.7349 157.685 41.4542 157.85 42.0603 157.882V157.886Z" fill="#AB750F"/>
<path id="Vector_309" d="M175.314 111.646C175.194 111.574 175.067 111.505 174.947 111.433C175.021 111.445 175.127 111.441 175.167 111.473C175.234 111.521 175.26 111.594 175.3 111.654L175.314 111.646Z" fill="#AB750F"/>
<path id="Vector_310" d="M126.5 251.65C126.514 251.963 126.754 252.32 126.114 252.504C126.021 252.532 125.648 252.364 125.608 252.255C125.448 251.822 125.934 251.706 126.52 251.658L126.5 251.646V251.65Z" fill="#AB750F"/>
<path id="Vector_311" d="M127.346 253.632L126.954 253.64L126.561 253.632C126.64 253.355 126.907 253.199 127.36 253.146C127.38 253.307 127.38 253.468 127.36 253.628L127.346 253.632Z" fill="#AB750F"/>
<path id="Vector_312" d="M97.614 255.133C97.5807 254.972 97.574 254.816 97.6073 254.655C97.9537 254.659 98.3133 254.695 98.1935 254.972C98.1602 255.049 97.8138 255.081 97.614 255.133Z" fill="#AB750F"/>
<path id="Vector_313" d="M103.349 180.401C103.282 180.149 103.389 179.948 103.835 179.884C103.915 179.872 104.141 179.98 104.135 180.02C104.088 180.289 103.762 180.381 103.362 180.405H103.342L103.349 180.401Z" fill="#AB750F"/>
<path id="Vector_314" d="M153.854 109.651C153.981 109.571 154.114 109.487 154.24 109.406C154.22 109.458 154.227 109.531 154.174 109.559C154.087 109.603 153.954 109.619 153.841 109.647L153.854 109.655V109.651Z" fill="#AB750F"/>
<path id="Vector_315" d="M18.1567 185.337C18.0701 185.188 18.0768 185.044 18.17 184.896C19.1824 184.976 18.9026 185.385 18.7694 185.754L18.4631 185.766L18.1567 185.754C18.1367 185.614 18.1367 185.473 18.1567 185.333V185.337Z" fill="#AB750F"/>
<path id="Vector_316" d="M109.996 336.923C109.969 337.144 109.829 337.321 109.417 337.337C109.343 337.337 109.183 337.216 109.203 337.176C109.317 336.94 109.623 336.887 109.996 336.923Z" fill="#AB750F"/>
<path id="Vector_317" d="M173.742 340.399C173.722 340.074 173.695 339.753 173.675 339.428C174.161 339.428 174.661 339.428 174.648 339.845C174.634 340.19 174.275 340.355 173.749 340.399H173.742Z" fill="#AB750F"/>
<path id="Vector_318" d="M17.3842 226.582C17.937 226.638 18.3833 226.766 18.2101 227.171C18.1635 227.272 17.8038 227.428 17.7305 227.4C17.1644 227.2 17.4109 226.858 17.4042 226.562L17.3842 226.578V226.582Z" fill="#AB750F"/>
<path id="Vector_319" d="M172.057 228.543C172.317 228.206 172.576 227.869 172.83 227.532C173.402 227.641 173.829 227.873 173.689 228.242C173.462 228.856 172.663 228.56 172.05 228.547L172.057 228.543Z" fill="#AB750F"/>
<path id="Vector_320" d="M133.7 378.978C133.527 378.922 133.354 378.865 133.174 378.805C133.26 378.753 133.367 378.645 133.44 378.653C133.627 378.677 133.8 378.749 133.98 378.801C133.893 378.853 133.807 378.91 133.7 378.974V378.978Z" fill="#AB750F"/>
<path id="Vector_321" d="M142.105 320.59C142.059 320.638 142.012 320.691 141.972 320.739C141.852 320.687 141.732 320.63 141.612 320.574C141.699 320.526 141.785 320.478 141.872 320.43C141.952 320.482 142.032 320.534 142.112 320.59H142.105Z" fill="#AB750F"/>
<path id="Vector_322" d="M257.729 361.943C257.562 361.887 257.396 361.827 257.223 361.771C257.309 361.719 257.422 361.618 257.489 361.626C257.676 361.655 257.842 361.727 258.015 361.779C257.922 361.831 257.835 361.883 257.729 361.943Z" fill="#AB750F"/>
<path id="Vector_323" d="M125.361 318.797C125.201 318.741 125.041 318.681 124.881 318.62C124.968 318.572 125.074 318.472 125.141 318.48C125.321 318.508 125.474 318.58 125.641 318.636C125.554 318.685 125.467 318.737 125.361 318.797Z" fill="#AB750F"/>
<path id="Vector_324" d="M39.2628 303.312C39.3427 303.416 39.4493 303.52 39.4892 303.629C39.5026 303.669 39.3294 303.725 39.2428 303.777C39.1629 303.673 39.0563 303.568 39.0164 303.46C39.003 303.42 39.1762 303.364 39.2628 303.312Z" fill="#AB750F"/>
<path id="Vector_325" d="M28.7262 365.651C28.7395 365.908 28.7528 366.165 28.7662 366.421C28.0535 366.449 26.9879 366.738 27.1277 365.936C27.221 365.382 28.1201 365.619 28.7329 365.651H28.7262Z" fill="#AB750F"/>
<path id="Vector_326" d="M254.205 366.149C254.292 366.149 254.398 366.133 254.452 366.161C254.665 366.257 254.611 366.37 254.298 366.446C254.258 366.454 254.112 366.358 254.072 366.294C254.052 366.257 254.152 366.197 254.198 366.149H254.205Z" fill="#AB750F"/>
<path id="Vector_327" d="M251.122 396.533C250.948 396.473 250.775 396.417 250.602 396.357C250.689 396.305 250.795 396.2 250.862 396.208C251.048 396.233 251.215 396.305 251.388 396.357C251.301 396.413 251.215 396.465 251.115 396.529L251.122 396.533Z" fill="#AB750F"/>
<path id="Vector_328" d="M381.964 308.592C381.871 308.64 381.771 308.729 381.684 308.725C381.598 308.721 381.518 308.624 381.438 308.568C381.531 308.52 381.631 308.432 381.718 308.436C381.804 308.436 381.884 308.536 381.964 308.592Z" fill="#AB750F"/>
<path id="Vector_329" d="M152.049 225.759C152.002 225.819 151.956 225.879 151.902 225.935C151.769 225.875 151.629 225.811 151.496 225.751C151.589 225.691 151.683 225.634 151.776 225.574C151.862 225.634 151.956 225.699 152.042 225.759H152.049Z" fill="#AB750F"/>
<path id="Vector_330" d="M194.003 231.517C193.916 231.489 193.823 231.457 193.736 231.424C193.836 231.344 193.929 231.26 194.029 231.18C194.116 231.24 194.276 231.3 194.269 231.356C194.269 231.412 194.096 231.465 194.003 231.517Z" fill="#AB750F"/>
<path id="Vector_331" d="M336.254 304.255C336.154 304.227 336.061 304.195 335.961 304.167C336.068 304.086 336.167 304.006 336.274 303.922C336.367 303.978 336.467 304.038 336.56 304.094L336.254 304.255Z" fill="#AB750F"/>
<path id="Vector_332" d="M38.837 192.42C38.3241 192.408 37.8179 192.392 37.3051 192.38C37.2718 192.007 36.9254 191.493 37.9045 191.441C39.15 191.373 38.9835 191.931 38.837 192.42Z" fill="#AB750F"/>
<path id="Vector_333" d="M188.641 325.43C189.127 325.442 189.607 325.454 190.093 325.466C190.099 325.827 190.446 326.341 189.493 326.397C188.195 326.469 188.568 325.871 188.641 325.43Z" fill="#AB750F"/>
<path id="Vector_334" d="M377.868 326.57C377.775 326.67 377.682 326.771 377.588 326.875C377.502 326.823 377.335 326.755 377.355 326.715C377.395 326.602 377.515 326.502 377.602 326.394C377.688 326.446 377.768 326.502 377.868 326.566V326.57Z" fill="#AB750F"/>
<path id="Vector_335" d="M223.334 341.47C223.528 341.526 223.721 341.582 223.921 341.643C223.814 341.707 223.707 341.767 223.594 341.831C223.514 341.707 223.434 341.582 223.354 341.458L223.334 341.47Z" fill="#AB750F"/>
<path id="Vector_336" d="M97.5811 160.333C97.5878 160.506 97.5944 160.674 97.6011 160.847C96.8152 160.69 96.7885 160.518 97.5811 160.333Z" fill="#AB750F"/>
<path id="Vector_337" d="M98.3866 161.316L97.9936 161.328H97.6007C97.594 161.155 97.5807 160.987 97.5674 160.818C98.0469 160.863 98.3067 161.031 98.3799 161.316H98.3866Z" fill="#AB750F"/>
<path id="Vector_338" d="M378.801 270.703C379.08 270.703 379.353 270.703 379.633 270.703C379.626 271.036 379.62 271.365 379.613 271.698L377.975 271.71C378.254 271.377 378.527 271.04 378.807 270.703H378.801Z" fill="#AB750F"/>
<path id="Vector_339" d="M124.03 389.074C123.816 389.017 123.603 388.961 123.39 388.901L123.736 388.692C123.83 388.821 123.923 388.953 124.01 389.086L124.03 389.074Z" fill="#AB750F"/>
<path id="Vector_340" d="M281.173 321.382C281.04 321.466 280.907 321.546 280.773 321.631C280.793 321.578 280.787 321.502 280.847 321.474C280.94 321.43 281.073 321.418 281.193 321.39L281.18 321.382H281.173Z" fill="#AB750F"/>
<path id="Vector_341" d="M22.3593 272.685C22.3127 272.533 22.306 272.376 22.3526 272.224C22.5724 272.3 22.7855 272.376 23.0053 272.452C22.7922 272.529 22.5791 272.609 22.3659 272.685H22.3593Z" fill="#AB750F"/>
<path id="Vector_342" d="M196.84 323.38C197.386 323.388 197.626 323.573 197.672 323.886C197.093 323.902 196.86 323.705 196.84 323.38Z" fill="#AB750F"/>
<path id="Vector_343" d="M151.37 334.439C151.59 334.507 151.803 334.579 152.023 334.647C151.437 334.977 151.477 334.631 151.39 334.427L151.37 334.439Z" fill="#AB750F"/>
<path id="Vector_344" d="M322.594 248.604C322.654 248.324 322.9 248.155 323.38 248.127C323.326 248.412 323.067 248.572 322.594 248.604Z" fill="#AB750F"/>
<path id="Vector_345" d="M127.373 274.712C127.472 274.567 127.566 274.427 127.666 274.282C127.786 274.358 127.912 274.439 128.039 274.515C127.819 274.579 127.592 274.643 127.373 274.712Z" fill="#AB750F"/>
<path id="Vector_346" d="M54.5286 362.027C54.442 362.16 54.3621 362.296 54.2822 362.429C54.1623 362.36 54.0491 362.292 53.9292 362.228C54.1357 362.168 54.3488 362.104 54.5553 362.043L54.5286 362.031V362.027Z" fill="#AB750F"/>
<path id="Vector_347" d="M134.972 210.602C135.132 210.642 135.292 210.646 135.458 210.61C135.438 210.971 136.098 211.525 134.772 211.525C134.839 211.216 134.906 210.907 134.979 210.598L134.972 210.602Z" fill="#AB750F"/>
<path id="Vector_348" d="M167.075 319.881C167.288 319.953 167.495 320.021 167.708 320.094C167.088 320.451 167.195 320.05 167.082 319.877L167.068 319.885L167.075 319.881Z" fill="#AB750F"/>
<path id="Vector_349" d="M17.1507 188.809C16.6911 188.849 16.418 189.001 16.3448 189.282C14.4266 188.672 16.3714 188.432 16.6645 188.03C17.2306 188.199 17.0041 188.548 17.1507 188.809Z" fill="#AB750F"/>
<path id="Vector_350" d="M265.501 366.012C265.501 365.687 265.515 365.366 265.521 365.041C266.008 365.089 266.501 365.145 266.501 365.535C266.501 365.928 265.981 365.964 265.508 366.012H265.501Z" fill="#AB750F"/>
<path id="Vector_351" d="M60.3691 259.166C60.2758 259.431 60.0161 259.599 59.5698 259.652C59.6564 259.379 59.9162 259.214 60.3691 259.166Z" fill="#AB750F"/>
<path id="Vector_352" d="M158.829 153.816C158.536 153.977 158.25 154.137 157.957 154.298C157.351 154.282 156.738 154.278 156.452 153.86C156.678 153.672 156.911 153.487 157.138 153.299C157.877 153.262 158.843 152.945 158.829 153.816Z" fill="#AB750F"/>
<path id="Vector_353" d="M367.191 316.373C367.218 316.53 367.218 316.682 367.191 316.839C366.978 316.79 366.618 316.762 366.585 316.686C366.465 316.397 366.845 316.381 367.191 316.373Z" fill="#AB750F"/>
<path id="Vector_354" d="M19.8682 360.519C20.7074 360.446 21.5998 360.258 22.0927 360.904C21.2269 361.04 20.2411 361.43 19.8682 360.519Z" fill="#AB750F"/>
<path id="Vector_355" d="M2.48469 185.418C1.9785 185.39 1.47232 185.358 0.959473 185.33C0.979454 185.065 0.999432 184.796 1.01941 184.531C2.2649 184.371 2.93759 184.551 2.47803 185.422L2.48469 185.418Z" fill="#AB750F"/>
<path id="Vector_356" d="M115.737 185.389L115.358 185.417L114.978 185.405C114.991 185.205 115.005 184.976 115.471 185.036C115.597 185.052 115.651 185.265 115.737 185.389Z" fill="#AB750F"/>
<path id="Vector_357" d="M323.36 322.393C323.38 322.549 323.38 322.706 323.36 322.866C323.173 322.786 322.98 322.71 322.793 322.633C322.98 322.553 323.166 322.473 323.36 322.397V322.393Z" fill="#AB750F"/>
<path id="Vector_358" d="M313.429 284.732L313.036 284.748L312.643 284.736C312.676 284.527 312.65 284.266 313.163 284.334C313.289 284.35 313.336 284.591 313.422 284.728L313.429 284.732Z" fill="#AB750F"/>
<path id="Vector_359" d="M182.747 121.806C182.473 121.798 182.207 121.761 181.947 121.701C181.961 121.368 181.981 121.039 181.994 120.706C182.933 120.899 182.707 121.384 182.747 121.806Z" fill="#AB750F"/>
<path id="Vector_360" d="M230.774 345.968C231.028 345.956 231.281 345.96 231.527 345.98C231.44 346.1 231.387 346.301 231.261 346.321C230.814 346.381 230.781 346.168 230.774 345.968Z" fill="#AB750F"/>
<path id="Vector_361" d="M170.312 112.187C170.505 112.079 170.592 111.943 170.572 111.782C170.825 111.806 171.031 111.758 171.184 111.638C171.671 111.698 172.057 111.814 172.03 112.171C171.457 112.175 170.878 112.183 170.305 112.191L170.312 112.187Z" fill="#AB750F"/>
<path id="Vector_362" d="M169.519 112.147C169.819 112.147 170.112 112.143 170.412 112.139C170.525 112.572 170.232 112.761 169.506 112.696C169.506 112.512 169.513 112.331 169.519 112.147Z" fill="#AB750F"/>
<path id="Vector_363" d="M169.566 113.186C169.286 113.19 168.999 113.198 168.72 113.206C168.72 113.03 168.72 112.853 168.72 112.673C169.006 112.664 169.286 112.656 169.572 112.648C169.572 112.829 169.566 113.01 169.566 113.186Z" fill="#AB750F"/>
<path id="Vector_364" d="M217.467 109.478C217.553 109.37 217.567 109.257 217.52 109.145C217.893 109.121 218.326 109.221 218.273 109.414C218.213 109.619 217.78 109.619 217.467 109.478Z" fill="#AB750F"/>
<path id="Vector_365" d="M138.902 310.864C138.915 310.683 138.922 310.507 138.929 310.326C139.208 310.414 139.495 310.507 139.781 310.595C139.488 310.683 139.195 310.776 138.902 310.864Z" fill="#AB750F"/>
<path id="Vector_366" d="M148.053 173.881C148.319 173.869 148.586 173.869 148.852 173.881C148.586 174.314 148.319 174.319 148.053 173.881Z" fill="#AB750F"/>
<path id="Vector_367" d="M191.812 266.646L191.459 266.67C191.459 266.67 191.099 266.658 191.106 266.658C191.119 266.345 191.139 266.028 191.152 265.715C191.365 265.699 191.572 265.695 191.785 265.715C191.792 266.024 191.805 266.337 191.812 266.646Z" fill="#AB750F"/>
<path id="Vector_368" d="M91.7731 127.231C91.8131 127.577 91.7065 127.882 91.1604 128.066C91.0738 127.709 90.5543 127.235 91.7731 127.231Z" fill="#AB750F"/>
<path id="Vector_369" d="M258.894 185.397C258.967 185.819 259.174 186.28 258.115 186.369C258.061 185.951 257.555 185.401 258.894 185.397Z" fill="#AB750F"/>
<path id="Vector_370" d="M18.1563 185.337C18.1363 185.478 18.1363 185.618 18.1563 185.759C17.5036 185.967 17.4237 185.69 17.3438 185.406C17.6035 185.341 17.8766 185.321 18.1563 185.337Z" fill="#AB750F"/>
<path id="Vector_371" d="M27.2611 198.471C27.381 198.917 26.735 199.134 26.4619 199.459C25.8758 199.394 25.1565 199.507 24.9233 199.009C25.5894 198.648 26.2354 198.259 27.2611 198.475V198.471Z" fill="#AB750F"/>
<path id="Vector_372" d="M124.062 394.616C124.049 395.026 124.009 395.423 123.249 395.607C123.236 395.19 123.249 394.785 124.062 394.616Z" fill="#AB750F"/>
<path id="Vector_373" d="M145.549 271.201H145.149H144.749C144.729 271.036 144.729 270.875 144.743 270.711C145.189 270.767 145.462 270.932 145.555 271.205L145.549 271.201Z" fill="#AB750F"/>
<path id="Vector_374" d="M153.781 302.276L153.408 302.3L153.028 302.292C153.028 301.971 153.275 301.794 153.828 301.806C153.841 301.963 153.828 302.119 153.781 302.276Z" fill="#AB750F"/>
<path id="Vector_375" d="M235.703 112.66C235.19 112.64 234.937 112.468 234.89 112.171C235.403 112.187 235.656 112.364 235.703 112.66Z" fill="#AB750F"/>
<path id="Vector_376" d="M189.314 318.909C189.281 319.194 189.247 319.479 189.214 319.764C188.481 319.776 187.755 319.784 187.029 319.796C187.01 319.495 186.99 319.194 186.963 318.893C187.749 318.689 188.535 318.693 189.314 318.909Z" fill="#AB750F"/>
<path id="Vector_377" d="M212.578 360.519C213.124 360.511 213.677 360.507 214.223 360.499C214.203 360.828 214.183 361.153 214.163 361.482C213.657 361.474 213.151 361.462 212.645 361.454C212.625 361.141 212.598 360.832 212.578 360.519Z" fill="#AB750F"/>
<path id="Vector_378" d="M59.584 254.17C59.8371 254.142 60.0835 254.142 60.3366 254.17C60.2633 254.447 60.1967 254.724 60.1235 255.001H59.7705C59.7105 254.728 59.6506 254.451 59.584 254.174V254.17Z" fill="#AB750F"/>
<path id="Vector_379" d="M193.53 213.507H193.117H192.704C192.704 213.339 192.704 213.174 192.704 213.006C192.977 213.006 193.257 213.006 193.53 213.006C193.53 213.174 193.53 213.339 193.53 213.507Z" fill="#AB750F"/>
</g>
</g>
<path id="Glow" d="M0.000976562 255.484H393.001L385.632 387.029C385.632 387.029 364.14 472.248 196.501 472.248C28.8619 472.248 7.36973 387.081 7.36973 387.081L0.000976562 255.484Z" fill="url(#paint2_linear_3482_5879)" fill-opacity="0.2"/>
<g id="Design">
<path id="Vector 122" d="M394.001 12.3154V381.367C394.001 381.367 389.132 401.304 370.667 418.211C362.549 425.643 347.802 436.154 333.823 445.6C316.005 457.64 299.436 471.634 299.436 471.634L314.787 449.528C314.787 449.528 301.886 443.829 299.436 434.79C328.911 453.212 333.209 408.386 336.893 399.789C357.157 395.49 379.107 386.894 381.106 374.612C389.703 321.803 394.001 12.3154 394.001 12.3154Z" fill="#AB750F"/>
<path id="Union_3" d="M394.002 16V385.052C394.002 385.052 389.132 404.989 370.667 421.895C362.55 429.328 347.802 439.838 333.824 449.284C316.006 461.324 299.436 471.634 299.436 471.634L314.788 453.212C314.788 453.212 301.887 443.829 299.436 434.791C328.911 453.212 338.736 411.456 342.42 402.859C362.684 398.561 379.107 390.578 381.106 378.297C389.703 325.487 394.002 16 394.002 16Z" fill="#CB9A40"/>
<path id="Vector 134" d="M338.735 423.738C342.174 417.843 344.467 409.819 344.876 405.93C354.21 404.947 361.456 401.836 363.912 400.403C356.543 411.456 351.017 417.597 338.735 423.738Z" fill="#D8A956"/>
<path id="Vector 141" d="M382.948 396.719C382.948 409 353.064 427.627 340.578 436.019C339.964 437.247 338.49 440.072 337.507 441.545C347.332 435.405 383.562 409 382.948 396.719Z" fill="#EBBF72"/>
</g>
<g id="Design_2">
<path id="Vector 122_2" d="M0.000770569 12.3154V381.367C0.000770569 381.367 4.87006 401.304 23.3352 418.211C31.4529 425.643 46.2001 436.154 60.1789 445.6C77.9969 457.64 94.5664 471.634 94.5664 471.634L79.2148 449.528C79.2148 449.528 92.1158 443.829 94.5664 434.79C65.0914 453.212 60.793 408.386 57.1086 399.789C36.8445 395.49 14.8954 386.894 12.8961 374.612C4.29921 321.803 0.000770569 12.3154 0.000770569 12.3154Z" fill="#AB750F"/>
<path id="Union_4" d="M0.000770569 16V385.052C0.000770569 385.052 4.87006 404.989 23.3352 421.895C31.4529 429.328 46.2001 439.838 60.1789 449.284C77.9969 461.324 94.5664 471.634 94.5664 471.634L79.2148 453.212C79.2148 453.212 92.1158 443.829 94.5664 434.791C65.0914 453.212 55.2664 411.456 51.582 402.859C31.318 398.561 14.8954 390.578 12.8961 378.297C4.29921 325.487 0.000770569 16 0.000770569 16Z" fill="#CB9A40"/>
<path id="Vector 134_2" d="M55.2661 423.738C51.8274 417.843 49.5349 409.819 49.1255 405.93C39.7917 404.947 32.5458 401.836 30.0895 400.403C37.4583 411.456 42.9849 417.597 55.2661 423.738Z" fill="#D8A956"/>
<path id="Vector 141_2" d="M11.0535 396.719C11.0535 409 40.9379 427.627 53.4238 436.019C54.0379 437.247 55.5116 440.072 56.4941 441.545C46.6691 435.405 10.4395 409 11.0535 396.719Z" fill="#EBBF72"/>
</g>
<g id="Group 424">
<path id="Rectangle 291" d="M259 8H238L230 18H253L259 8Z" fill="url(#paint3_linear_3482_5879)"/>
<path id="Rectangle 290" d="M135 8H156L164 18H141L135 8Z" fill="url(#paint4_linear_3482_5879)"/>
<path id="Vector 133 (Stroke)" fill-rule="evenodd" clip-rule="evenodd" d="M142 19L196 19L196 16L142 16L142 19Z" fill="url(#paint5_linear_3482_5879)"/>
<path id="Vector 132 (Stroke)" fill-rule="evenodd" clip-rule="evenodd" d="M251 19L198 19L198 16L251 16L251 19Z" fill="url(#paint6_linear_3482_5879)"/>
<g id="Group 214">
<path id="Vector 304" d="M206 16.9999L197 0L188 16.9999L197 31L206 16.9999Z" fill="#AB750F"/>
<path id="Vector 301" d="M188 16.9999L197 0V31L188 16.9999Z" fill="#D8A956"/>
<path id="Vector 305" d="M197 0L188 17L197 3L206 17L197 0Z" fill="white" fill-opacity="0.5"/>
</g>
<g id="Group 420">
<path id="Vector 305_2" d="M10 9L0 20V4H134L143 17L134 9H10Z" fill="#CB9A40"/>
<path id="Vector 305 (Stroke)" fill-rule="evenodd" clip-rule="evenodd" d="M9.15527e-05 19.9999L0 4H134L143 17L133.24 11H10.8848L9.15527e-05 19.9999ZM10.0001 9H134L143 17L134 4H0L9.15527e-05 19.9999L10.0001 9Z" fill="#AB750F"/>
</g>
<g id="Group 421">
<path id="Vector 305_3" d="M384 9L394 20V4H260L251 17L260 9H384Z" fill="#CB9A40"/>
<path id="Vector 305 (Stroke)_2" fill-rule="evenodd" clip-rule="evenodd" d="M394 19.9999L394 4H260L251 17L260.76 11H383.115L394 19.9999ZM384 9H260L251 17L260 4H394L394 19.9999L384 9Z" fill="#AB750F"/>
</g>
</g>
</g>
<defs>
<linearGradient id="paint0_linear_3482_5879" x1="276.715" y1="125.39" x2="276.715" y2="446.545" gradientUnits="userSpaceOnUse">
<stop stop-color="#D9D9D9" stop-opacity="0"/>
<stop offset="1" stop-color="#D8A956"/>
</linearGradient>
<linearGradient id="paint1_linear_3482_5879" x1="253.345" y1="343.383" x2="253.345" y2="479.705" gradientUnits="userSpaceOnUse">
<stop stop-color="#D9D9D9" stop-opacity="0"/>
<stop offset="1" stop-color="#D8A956"/>
</linearGradient>
<linearGradient id="paint2_linear_3482_5879" x1="200.595" y1="270.841" x2="194.451" y2="426.423" gradientUnits="userSpaceOnUse">
<stop stop-color="#D8A956" stop-opacity="0"/>
<stop offset="1" stop-color="#AB750F"/>
</linearGradient>
<linearGradient id="paint3_linear_3482_5879" x1="255.096" y1="12.0909" x2="236.143" y2="12.7749" gradientUnits="userSpaceOnUse">
<stop stop-color="#AB750F"/>
<stop offset="1" stop-color="#CB9A40"/>
</linearGradient>
<linearGradient id="paint4_linear_3482_5879" x1="138.904" y1="12.0909" x2="157.857" y2="12.7749" gradientUnits="userSpaceOnUse">
<stop stop-color="#AB750F"/>
<stop offset="1" stop-color="#CB9A40"/>
</linearGradient>
<linearGradient id="paint5_linear_3482_5879" x1="196" y1="18.1106" x2="142" y2="18.1106" gradientUnits="userSpaceOnUse">
<stop stop-color="#AB750F"/>
<stop offset="1" stop-color="#AB750F" stop-opacity="0"/>
</linearGradient>
<linearGradient id="paint6_linear_3482_5879" x1="198" y1="18.1106" x2="251" y2="18.1106" gradientUnits="userSpaceOnUse">
<stop stop-color="#AB750F"/>
<stop offset="1" stop-color="#AB750F" stop-opacity="0"/>
</linearGradient>
<clipPath id="clip0_3482_5879">
<rect width="391.772" height="427.388" fill="white" transform="translate(1.00098 21)"/>
</clipPath>
</defs>
</svg>
