<svg xmlns="http://www.w3.org/2000/svg" width="393" height="492" fill="none" xmlns:v="https://vecta.io/nano"><g clip-path="url(#E)" fill-rule="evenodd"><path d="M176.272 381.928l5.841-17.339c1.85 6.494 5.976 19.278 7.683 18.457s6.688-35.206 8.964-52.296l8.111-7.178 9.391-73.318 3.842 8.203 11.952-63.063 14.513 19.995 8.537 43.068v49.733l10.245-16.407 15.367 46.657 10.672 8.204 7.683-67.166 16.648-21.021 21.343 24.61 9.818 37.428-2.561 58.962 11.525 5.287 14.163-11.834 15.395 27.367-60.792 45.833-104.508 13.33 2.339-2.974-157.069-7.631-8.143-3.061c-5.867.972-13.038-5.752-17.627-10.055-2.09-1.96-3.645-3.417-4.297-3.417 0 0-10.644-4.463-14.408-14.085L8.37 403.521c.498-.487.412-2.518.289-5.4-.219-5.157-.555-13.039 2.138-19.665 1.882 5.376 6.079 15.96 7.816 15.281s6.803-29.148 9.119-43.297l8.25-5.943 9.553-60.7 3.908 6.792 12.158-52.211 14.764 16.555 8.684 35.656v41.174L95.47 318.18l15.632 38.627 10.855 6.792 7.816-55.607 16.935-17.403 21.711 20.375 9.987 30.987-2.134 39.977zm8.819 27.003l1.13 2.21.779-1.666-1.909-.544zm38.49 34.251l.417.643 3.928 5.668 6.691-8.51-11.036 2.199z" fill="url(#A)" fill-opacity=".3"/><path d="M24.95 417.684c6.101-12.769 14.616-18.468 17.34-19.489s9.932-12.912 13.195-18.729l8.087 22.134c1.987-2.27 6.044-6.129 6.385-3.405s5.817 18.161 8.513 25.539l21.709-48.099 15.749 17.878 18.729-37.458 25.539 45.545 11.067-14.472 12.459 25.816c4.188-7.881 7.924-14.252 9.25-14.749 2.724-1.022 9.932-12.912 13.195-18.729l8.088 22.134c1.986-2.27 6.044-6.129 6.385-3.405s5.817 18.161 8.513 25.539l21.708-48.099 15.75 17.878 18.729-37.458L310.88 401.6l11.067-14.472c5.676 12.202 17.367 36.606 18.729 36.606s0 14.047-9.923 24.653l-125.258-.931 5.356 9.054H78.471L24.95 417.684z" fill="url(#B)" fill-opacity=".6"/></g><g opacity=".35" fill="#ab750f"><path d="M142.125 167.657c-.892.401-.486 1.071-.899 1.577-.599.73-.912.726-2.138-.093l-.02-.04c.447-.172.573-.433.573-.734.22-.044.307-.136.253-.277.493-.152.666-.425.76-.726l-.027.02 1.525.2-.02.073h-.007zm-6.554 44.362l.24.506.027.971-.18.558c-.566.136-1.132.176-1.705.02l-.14-1.573c.113-.157.133-.317.073-.486.2-.092.26-.212.187-.357l.779-.18.719.545v-.004zm-71.058 7.014c-.34-.622.4-1.035.799-1.516h.013l.833.012a2.44 2.44 0 0 1 .113.485l.127.546.593.465-.027.45-.773.14-.879.125c-.133-.089-.127-.177.02-.257-.093-.269-.42-.377-.812-.446l-.007-.004zm196.866-23.057c1.125-.217 1.865-.088 1.778.746-.04.409-.12.815-.186 1.22l.019-.012c-.812.08-.992-.449-1.565-.602.134-.152.087-.281-.146-.381l.12-.987-.02.016zm-58.718 63.696c-1.086-.341-.866-.69-.02-1.039.44-.048.673-.229.806-.474.539.016 1.279-.012 1.379.349.166.574-.726.582-1.366.678-.446.053-.672.237-.799.482v.004zm-5.428 48.719v-.024c.833.714 1.132 1.393-.38 1.938l.027.016c-.386-.453-1.032-.862-.666-1.444l-.106.072 1.125-.554v-.004zM56.919 178.656c-.173.117-.373.221-.513.349-.413.378-.986.558-1.592.261-.633-.313-.306-.682.14-.995l.486-.365-.027.008c.759.048.992.501 1.525.726l-.02.02v-.004zm71.306 5.759l-.879.028c-.106-.398-.053-.839-.799-1.06.033-.321.053-.734.646-.786.939-.081.872.473 1.086.826l-.06.992h.006zm170.891 33.057h-1.079l-.293-.955 1.645-.477-.027-.012.713.963.1-.036-1.059.513v.004zM13.981 193.066l-.02.153c-.739.333-1.532.301-2.344.132l.1.056c-.273-.477-.26-.955.02-1.432l-.1.08c1.166.008 1.818.453 2.338 1.011h.007zm69.613 85.113c-.18-.963-.406-1.926.246-2.865h.213c.22.979 1.272 2.002-.46 2.865zm125.541 113.126l.013.622c-.746.257-1.518.257-2.304.076l.086.061.047-.883-.087.056c.76-.181 1.512-.161 2.238.068h.007zm-61.222-17.275c-.326-.153-.686-.281-.966-.458-.393-.248-.719-.586-.113-.838.546-.229.993.02 1.286.325l-.207.967v.004zm73.743-168.047c2.265.305 2.544.546 1.712 1.489l-.879-.497h.006l-.845-.486-.014-.008.02-.502v.004zm138.416 81.823l-.433 1.328.046-.016-1.492-.465.047-.675c.246-.048.466-.124.659-.232l1.179.06h-.006zM183.593 120.225l-.027 1.89c-.446.064-.772.012-.819-.309-.04-.422.186-.907-.753-1.1l.027-.501-.04.024 1.618-.004h-.006zM324.185 324.86c1.059.105.719.643.872 1.028l.207.529-.253.073-.193-.125c-.173.048-.353.056-.54.016-.939-.104-.799-.553-.819-.951.38-.128.706-.277.719-.574l.007.004zm-286.9 1.372v-.204l.759-.642c1.432.076 1.951.385.793 1.131l-1.552-.285zm308.993-48.053h-.266l-.44-.939c.173-.092.247-.205.227-.345l1.592-.249-.04 1.031-1.073.498v.004zm-96.482-4.519v-.401l.786-.554h.014l1.185-.433.107-.008.406.951-.027.016c-.439.056-.719.212-.832.481l-1.639-.052zm-111.674 38.13c-.266.301-.639.53-1.212.341-.413-.132-.326-.401-.147-.63l.547-.634.825-.028-.006.951h-.007zm-63.066-66.56c-.213.076-.446.228-.626.208-.46-.056-.606-.293-.346-.521.107-.093.526-.153.679-.101.173.06.2.269.293.414zm53.156 13.779c-.453-.024-.74-.172-.673-.449.066-.265.406-.401.826-.325.193.036.426.184.473.305.106.281-.193.425-.626.469zm89.235-150.341c.16.148.186.309.073.473.053.116.033.229-.053.333.146.08.173.177.086.281-.486-.269-1.052-.144-1.598-.12l-.087-.988 1.572.012.007.009z"/><path d="M209.168 270.691c-.619-.045-1.345-.073-1.212-.594.086-.329.693-.366 1.192-.386l.02.98zm-36.305-158.516c-.28 0-.553 0-.833-.004.02-.357-.366-.473-.845-.533 0-.157.02-.313.046-.47l1.619-.044c1.039.345.12.698.013 1.051zm-3.263 4.161c.153.109.446.217.446.325 0 .293-.367.418-.786.305-.16-.044-.307-.284-.253-.401.046-.1.386-.152.599-.225l-.006-.004zm-78.866 6.995c-.206.072-.44.221-.62.201-.446-.057-.593-.285-.34-.51.1-.088.513-.144.666-.092.166.06.2.261.293.401zm97.867 7.893l-.047-.999c.64.044 1.472.016 1.326.598-.087.349-.753.381-1.279.401zM38.65 288.857c-.2.084-.406.249-.586.241-.473-.028-.659-.253-.433-.502.093-.1.513-.184.686-.14s.226.261.333.401zm130.622-140.506c-.199.085-.406.245-.586.233-.459-.036-.646-.261-.439-.502.086-.096.506-.168.679-.124s.233.257.346.393zm-98.132 1.898c.04-.329.087-.742.693-.782.992-.069.906.441.946.842l-1.645-.056.007-.004zm265.287 1.722c.18.048.5.072.586.168.2.217.053.438-.346.502-.173.028-.526-.06-.606-.157-.174-.208-.08-.417.366-.513zM72.785 294.872c-.812-.213-.859-.638-.806-1.087 1.279.084 1.985.329.806 1.087zm197.665 1.424c-.007-.329.026-.742.599-.802.926-.1.992.381 1.052.79l-1.658.012h.007zM28.793 167.324l-.24-.024-.24.02-.213-.971.013-.008 1.006-.458c.147.028.293.028.446 0l.2.967-.979.474h.007zm362.435 3.964c.074.43.014.823-.712 1.056l-.919-.574-.02-.863a4.99 4.99 0 0 1 .812-.068l.027.012.812.433v.004zm-330.858 5.59c-.733.325-1.465.658-2.464.49v-.458l.846-.521-.02.012 1.625.044a1.94 1.94 0 0 0 .02.437l-.007-.004zm-32.263 130.45l.027-.999c.526.02 1.199.048 1.285.393.153.574-.679.554-1.312.606zm3.337-126.489c.047-.317.053-.735.659-.775.946-.064.913.438.966.835l-1.632-.056.007-.004zm191.751 129.993l1.765.004-.053.995-1.399-.028-.313-.975v.004zM126.54 183.885c.007.434-.1.831-.832 1.04-1.326-.823-.24-.931.832-1.04zm4.642 130.911h-1.026l-.226-.931-.054.032 1.612-.02-.033-.02-.273.939zm145.029-124.374c-.613-.056-1.558-.068-1.312-.566.273-.546.932-.293 1.345.072l-.04.494h.007zM167.009 317.738c-.18-.093-.48-.169-.527-.277-.113-.297.207-.47.66-.45.466.02.652.257.499.502-.066.108-.413.152-.632.225zm86.364.589c.179-.096.359-.268.539-.268.486 0 .679.224.5.477-.074.096-.473.185-.66.153-.166-.028-.253-.237-.373-.362h-.006zm-23.445-121.533c-.419-.068-.619-.249-.479-.481.06-.097.393-.201.586-.193.433.024.599.241.473.47-.054.096-.38.136-.58.204zm-59.869 126.514c-.094.128-.127.325-.287.381-.366.12-.739.036-.839-.217-.047-.112.1-.329.267-.381.366-.121.686-.016.865.221l-.006-.004zm122.69-119.756l.053.991-1.605-.213c.04-.14-.027-.261-.187-.365l.12-.489 1.619.076zM116.616 325.398l-1.645-.036v-.943h1.632l.02.975-.007.004zm108.337-120.494c.726.048 1.465.069 1.765.586l-.093.048-.846.442-.386-.008h-.387l-.852-.534.799-.534zM89.382 325.968l1.585-.076c.007.321.047.754-.499.83-.899.129-1.006-.345-1.092-.754h.007zm85.958 2.074c.16.109.453.217.453.326 0 .296-.366.421-.792.309-.167-.045-.307-.289-.26-.41.04-.1.386-.152.599-.225zm-129.929 6.361c-.52-.028-1.226-.004-1.299-.369-.113-.554.713-.566 1.365-.622l-.06.991h-.007zm-10.757.69l.02.686-1.592.145.007-.979 1.565.144v.004zm265.468 1.834c.087-.405-.226-.947.919-.991l-.013-.008.746.706v.104l-1.452.482c.073-.133 0-.229-.2-.293zm-142.924.072l1.592-.068c0 .321.04.755-.507.831-.899.124-.999-.353-1.085-.759v-.004zm15.665 2.95c-.62-.061-1.579-.057-1.332-.57.266-.55.946-.305 1.398.048l-.059.522h-.007zm196.713 21.091l.846.518c.306.212.279.477-.014.654-.613.377-.952-.068-1.279-.241-.486-.257-.153-.606-.073-.919.173.032.353.028.526-.012h-.006zM1.026 270.145c-.573-.887-.04-1.152 1.392-.907l-.02-.02a1.71 1.71 0 0 0 .087.482v.008l-.952.469-.24-.072-.26.036-.007.004zm383.629-89.262l-.04-.979c.639-.02 1.205.06 1.585.409l-.826.582-.36-.016h-.359v.004zm-349.202 1.16c-.087.273.3.674-.393.774-.267.036-.633-.196-.953-.305h-.106l1.079-.554c.087.097.207.125.373.085zm5.908.826c-.04-.381.166-.702.673-.943l.972.47a.93.93 0 0 0-.04.425l-1.605.048zm-19.807 97.352c-.013-.284-.12-.662.526-.678.546-.012.786.301.819.63l-1.345.048zm280.319-82.235l-.16-.554c.127-.125.207-.261.227-.405l.679-.061.866.594c-.06.084-.06.173-.013.261l-1.599.165zm-19.847 91.758l.865.53-.859.505-.013-.008-.819-.489-.02-.012.013-.506.819-.02h.014zm78.571-74.218c.334-.381.833-.662 1.406-.245.346.257-.073.554-.54.727l-.872-.482h.006zM242.29 301.779c-.693.02-1.519.212-1.639-.482l.014-.012.912-.47h.66l.026.976.033-.012h-.006zm-224.707.569c.413-.128.693-.541 1.285-.273.14.061.166.342.06.45-.373.361-.919.156-1.405.096.133-.08.153-.172.06-.273zm336.401 1.489c-.093-.426.113-.767.72-1.007l.925.521c-.026.129-.033.257-.013.385l-1.625.101h-.007zm-137.27 1.481c-.373-.057-1.005-.061-1.072-.181-.286-.51.466-.638 1.026-.819l.046 1zM91.8 393.115c-.526-.176-.926-.453-.426-.758s.952-.068 1.252.253l-.826.505zm-73.011-83.897c-.873-.385-.619-.846-.246-1.32l.08-.02c.633.433.559.899.133 1.372l.033-.036v.004zm96.175-182.023l-.013-.506.852-.473c.766.184.819.578.806.995l-1.645-.016zm-47.687 3.078l.346-.016 1.006.505a.73.73 0 0 0-.02.378l-1.618.096h-.007l.3-.963h-.007zm164.21 18.503c-.579.012-1.092-.08-1.498-.337l.959-.618.36.012.173.943h.006zm70.007 101.084c-.213.064-.446.197-.626.177-.44-.049-.593-.269-.38-.502.067-.072.48-.108.62-.056.186.072.266.249.393.381h-.007zm-142.698 86.554l-.899-.486.067-.526 1.645.048c-.02.402-.1.779-.813.964zm-34.72 57.744l-1.612-.128c.053-.097.053-.197-.006-.293l.872-.606c.193.012.393.012.586.004l.2.991-.04.032zm54.561-57.749c.273-.02.546-.02.82.004 0 .317.279.466.792.47l.3.212c-.113.101-.187.213-.227.329l-1.452-.04-.246-.971.02-.008-.007.004zm-121.565-81.3c-.013-.152-.013-.305-.013-.457l.879-.49-.027.02.38.012.38-.008v-.028l.027.987-1.638-.036h.013zm220.844 83.359c.52-.197.873-.586 1.618-.53.116.722-.412 1.026-1.585.911.06-.128.047-.257-.033-.381zm-23.364-80.847c-.114.136-.167.341-.347.389-.166.044-.453-.072-.692-.12.133-.137.219-.301.406-.398.266-.144.513-.08.633.129zm1.792-92.267l.892-.558.813.036v.522l-.799.493-.027.016-.879-.513v.004zm-236.489 1.01l1.592.55c-.087.1-.093.201-.013.305l-1.592.141.04-1-.02.008-.007-.004zm325.037 95.791c.406-.329.926-.65 1.445-.16.3.281-.133.566-.666.682l-.779-.522zM111.614 386.662c-.026.14-.02.277.027.417l-1.159.466-.573-.458.093-.493h-.006l1.618.068zm35.606-119.996c.293-.313.746-.537 1.239-.253.5.289.12.57-.36.763l-.879-.51zm-19.002 93.881l-1.652-.076c.62-.534 1.186-.614 1.652.076zm174.461-.59c-.446 0-.899-.068-.766-.401.153-.402.54-.229.866-.053-.053.149-.086.301-.1.454zM167.928 113.66l-.02-.983c.273-.016.546-.02.819-.004v.534a.73.73 0 0 1-.08.453h-.36-.359zm-3.351 4.016l1.645.02-.013.434-1.632.048c-.013-.169-.013-.333 0-.502zm-76.9 1.028l1.645-.02v.521l-1.638-.072-.013-.433.007.004zM43.766 355.001l.113 1c-.3 0-.593-.004-.892-.008l.107-.992h.673zM150.85 122.616l-.366-.935c1.918-.044.573.574.519.931h-.153v.004zm60.896 1.618l1.498.181.047.06-1.539.184c-.013-.144-.013-.285 0-.429l-.006.004zm-1.105 6.954c-.407-.369-.886-.747.253-.963l-.253.963zM49.68 134.719c-.047-.409-.047-.802.753-.963 0 .394-.047.775-.753.963zm69.454 3.596l1.618-.076v.537l-1.638-.084a1.82 1.82 0 0 0 .02-.377zm41.321 2.957l1.645-.008v.506l-1.645-.028v-.466-.004zm84.299 6.007c-.885-.365-1.079-.706.094-.999l-.094.999zm-138.855 2.079c.6.024.933.221.82.578-.074.237-.44.333-.84.329l.02-.907zm286.928 4.39c-.726-.093-1.179-.317-.573-.731.226-.152.593.093.746.289-.1.141-.16.289-.173.442zm-209.994.642l1.592-.068.013.525-1.631-.112c.026-.112.033-.229.026-.345zm-70.353 5.94l1.585.084a1.43 1.43 0 0 0 .034.337l-1.625.104v-.529l.006.004zm-7.426 1.528l1.638-.032a3.06 3.06 0 0 1-.007.497l-1.625-.048v-.417h-.006zm27.274 2.484l.007-.999h.779l.027.995h-.407-.406v.004zm127.372-.506l.846-.02-.02 1.024a3.13 3.13 0 0 1-.8-.052l-.026-.956v.004zm4.15 4.013l-.02-.999c.952.325.939.662.02.999zm-163.791.98l1.585.136c-.02.092-.014.185.033.277l-1.612.16-.006-.573zm-31.424 6.051l.027-.995c.892.341.919.674-.027.995zm271.316-.983c1.159.06.919.526.759.967-.493-.044-.733-.253-.926-.502.073-.156.133-.317.18-.481l-.02.012.007.004zM44.325 348.564l.333.903c-1.259-.088-.633-.537-.473-.899h.14v-.004zm148.392-168.716l-.08 1.027c-.879-.369-.859-.71.08-1.027zm189.52.726c.612-.068 1.385-.409 1.538.325h-.006l-1.572-.197.04-.128zm-340.763 5.807l-.16-.975.02-.012.846-.02.06.032-.2.987a5.35 5.35 0 0 0-.566-.016v.004zM305.17 346.935l-1.638.028v-.525l1.638.06v.437zM2.411 189.439l.186-.98c.193.012.386.008.573-.016l.167.992-.932.008.007-.004zm378.088.481l.066-.967.653-.02.173 1.003-.899-.016h.007zm-273.813 1.007l1.651.008-.006.47-1.639.024v-.502h-.006zm-39.663 8.523v-.983c.972.329.972.654 0 .983zm6.541.948l-.759.108c-.453.069-.706-.1-.953-.285.313-.108.613-.252.946-.313.227-.04.506.037.759.065a.94.94 0 0 0 0 .429l.007-.004zm-55.388.06l1.638.04-.793.526c-.446-.1-.746-.277-.846-.566zm150.544 7.034h1.645v.474l-1.645.012v-.49.004zm136.457 1.501l.067-.991.619.008.147.979-.833.008v-.004zM264.688 343.44l-.073.999c-.926-.357-1.039-.694.073-.999zm-10.076.337l-1.512.14c-.013-.144-.02-.293 0-.437l1.552.165-.04.128v.004zM60.71 210.915l-.32-.425c-.22-.277.08-.51.4-.51.313 0 .613.229.38.506-.12.141-.213.285-.32.425h-.14v.004zm108.269.482l-.259-.899a3.2 3.2 0 0 1 .806.052c.02.329-.14.618-.547.847zm-85.445.614l1.632.016-.007.413-1.612.024c-.02-.148-.02-.301-.007-.449l-.007-.004zm248.138.995c-.819-.164-.799-.578-.799-.987l-.014.008.713-.012.1.991zm28.945-.481l1.638-.012a2.9 2.9 0 0 1 0 .493l-1.645-.032v-.445l.007-.004zm-162.099 1.978l-.026-.996c1.052.321 1.045.654.026.996zm.74 1.416c-.886-.104-.913-.489-.806-.915.959.085.819.522.806.915zm-128.132 1.1c-1.039-.329-1.012-.666-.013-1.003l.013 1.003zM0 216.529c.826.157.819.558.759.971-.693-.196-.766-.569-.759-.971zm215.182 9.482c-.02-.285-.446-.782.114-.798 1.052-.032.319.509.406.798h-.26-.26zm-105.952 2.027l-.053-.983c1.145.305.972.638.053.983zm67.788 3.572l1.632-.04v.505l-1.638-.036.006-.429zM6.607 237.589l1.645.016-.007.449-1.638.049v-.514zm80.231 1.003l.007-.999h.786l.047 1.003h-.839v-.004zm122.557 1.685l1.498-.164-.013.429-1.545-.152.06-.113zM6.574 242.6c-1.052-.313-.906-.646-.047-.987l.047.987zm260.579.017l1.645-.012v.506l-1.652-.012v-.482h.007zm1.618 2.002l.073-.931c.886.334 1.053.651-.073.931zM3.384 246.602l-.12-.992.846.008-.127.98-.3-.009-.306.009.007.004zm267.1 1.023c-1.193-.277-.913-.622-.134-.995l.134.995zm-57.912.024c.499-.036 1.245-.068 1.218.269-.02.277-.812.257-1.318.221a1.8 1.8 0 0 0 .106-.49h-.006zm5.767 1.982c-.999-.305-.886-.642-.066-.991l.066.991zm43.013-1.007l1.645.012-.013.445-1.639.065v-.522h.007zM53.29 251.056l-.333-.911-.02.008.406-.02h.413c.166.365-.153.65-.4.947l-.067-.024zm5.375 6.12l.06 1.003c-.906-.317-.946-.65-.06-1.003zm202.74.068c.959.325.999.634-.053.915l.053-.915zm-226.677.923a2 2 0 0 1 0 .489l-1.638-.04.826-.501.806.056.007-.004zm129.396 2.922c-.18-.361-.899-.819.446-.903l-.02-.012-.366.935-.06-.02zm-115.297-.37l1.612-.04a1.19 1.19 0 0 1 0 .485l-1.625-.072c.007-.124.007-.249 0-.373h.013zm153.894.887l-.073-.935.872-.012c.2.457.187.85-.792.947h-.007zm91.72-.931l1.638.008v.461l-1.652.036.007-.501.007-.004zm-179.437.557l1.612-.072v.51l-1.618-.088c.02-.117.02-.233.006-.354v.004zm-108.41.915l1.625.081c-.013.12-.013.24 0 .361l-1.618.096-.013-.008-.027-.509.027-.021h.007zm6.654.02l-.047.988c-.873-.145-.899-.542-.786-.979l.833-.009zm329.094.498l1.692.048c-.007.133-.007.265 0 .397l-1.619.045-.073-.49zm-255.544 3.014c-.873-.341-.919-.674.027-.995l-.027.995zm105.08-.999l-.1 1.035a4.18 4.18 0 0 0-.633 0l-.1-1.035h.833zm-119.107 2.01l.06-.991h.679l.107.991h-.846zm190.246-.004l.013-.995h.733l.033.987h-.386-.387l-.006.008zm93.451.502l1.652.012v.477l-1.645.008v-.497h-.007zm-258.041 3.029l1.578.077a1.36 1.36 0 0 0 .047.361l-1.645.104.02-.542zm10.756 64.194l-.173.951c-.646-.365-.893-.702.173-.951zm52.264-52.721l-.18-.959h.007l.832-.004h.007l-.207.979-.226-.02h-.233v.004zm-66.337.558l1.645-.008v.485l-1.638-.016v-.465l-.007.004zm249.869 2.965c.286-.45.872-.526 1.572-.474l.02.554-1.652-.092.06.012zm-196.933 47.701l-1.612-.072a.87.87 0 0 0-.006-.345l1.625-.108.02.016-.02.509h-.007zM61.169 286.75c-.886-.345-.939-.678.033-.999l-.033.999zm-6.614 45.63l-1.638.044c.499-.634 1.052-.581 1.638-.044zm-7.579-.188c-.38.044-.779.153-1.132.112-.393-.048-.386-.292.013-.329.353-.032.746.093 1.119.145v.068.004zm32.556-41.473l-.166-.963.02-.008.833.02c.04.389-.053.742-.686.947v.004zm-5.089-.429l1.618.012v.413l-1.625.028a2.08 2.08 0 0 1 0-.453h.007zm171.184-.037l1.545.069c-.293.425-.879.505-1.552.481l.007-.55zm-176.119 4.086c.499-.044 1.299-.096 1.292.201-.007.305-.793.236-1.292.184v-.389.004zm41.42 3.414l-.16-.975c1.079.265.946.602.16.975zm138.002 1.048l.073-.988c.846.354.9.683-.073.988zm-118.374 2.99c-.712-.378-1.085-.739.174-.992l-.174.992zm63.926 1.689c.632-.152 1.358-.457 1.472.309l.033-.016-1.532-.172.027-.117v-.004zm133.053 4.872l1.639-.02c-.527.585-1.073.573-1.639.02zm-136.363 1.653l.753-.133c.499-.1.692.044.613.317-.06.205-.32.225-.627.129-.226-.073-.492-.101-.745-.149v-.16l.006-.004zm-53.043.839l.839-.02.213.521-1.059.45.007-.951zm175.247 11.051c.08.317.146.823-.333.823-.473 0-.407-.506-.327-.823h.66zm-3.217 1.994c.412.044 1.065-.148 1.039.325 0 .06-.673.104-1.039.157-.02-.161-.02-.321 0-.482zm-73.663 3.01l.126-.987c.813.369 1.039.71-.126.987zm48.913-.025l-.04-.979h.786v.987h-.373-.373v-.008zm-118.914 2.457l-.246-.927c1.265.072.639.55.533.919l-.28.008h-.007zm77.494 71.81l-.054.995h-.686l-.08-.987h.82v-.008zm-91.813-1.004l-.113.971-.6.012-.133-.987h.846v.004zm-8.272-12.54l-.107.971-.586.013-.147-.984.014-.008.832.012-.006-.004zm-14.9-4.482c-.579.494-1.132.566-1.638-.044l1.638.044zm20.721-2.047l-.207.959h-.239l-.234.02-.219-.979h.899zm29.525-.931l.207.931a43.21 43.21 0 0 1-.72-.008l.187-.947.326.024zm-70.1-.545c-.566.53-1.113.55-1.639-.024l1.639.024zm82.741-.506c1.212.04.886.534.773.963l.026-.012c-.259 0-.512-.016-.759-.056l-.04-.895zm-152.342-2.488l.193.975c-.3 0-.593-.004-.893-.008l.187-.975a2.66 2.66 0 0 0 .506.012l.007-.004zM9.905 374.03l-1.632.012c-.013-.156-.013-.313.007-.465l1.612.012c.013.148.013.293.013.441zm205.077-4.976l-.22.911-.286.028-.3-.963.02-.008.806.044-.027-.012h.007zm-165.575-.461l.193.935h-.386-.386l.147-.971a1.08 1.08 0 0 0 .426.036h.007zm4.243-3.536l.14.971c-1.072-.269-.919-.606-.14-.971zm86.137-.514c1.193.045.999.506.793.972-.873-.141-.806-.566-.793-.972zm23.997-261.866c.2.048.553.076.58.144.107.281-.253.297-.593.293a3.36 3.36 0 0 1 .013-.437zm74.404 5.967c.559.004.845.176.852.517-.5-.04-.786-.212-.852-.517zm-38.87 3.515c-.36.012-.733 0-.626-.297.026-.072.393-.104.606-.152l.02.449zm61.188 3.523c.026.341-.233.51-.799.494.04-.301.306-.466.799-.494zm-158.755 1.545c.253-.04.513-.052.772-.032-.013.313-.259.486-.799.474a2.5 2.5 0 0 1 .02-.442h.007zM239 126.18c-.327-.012-.726 0-.613-.293.026-.072.399-.096.613-.14a1.57 1.57 0 0 1 0 .433zm-13.221 2.524c.613-.028.886.153.846.518-.52-.028-.8-.205-.846-.518zm-120.745.518c-.094.277-.367.437-.82.493.1-.269.38-.433.82-.493zm25.642.004c.379-.008.799-.008.686.317-.027.076-.44.104-.673.152l-.013-.469zm69.487 6.043c.227.048.62.072.646.145.113.308-.293.308-.653.313-.013-.153-.013-.305 0-.458h.007zm-183.625 3.993c.446.06.719.224.819.497-.44-.064-.713-.228-.819-.497zm-4.982 5.485c-.713-.152-.699-.301 0-.449v.449z"/><path d="M147.22 154.306v-.498h.826l-.013.466c-.267.024-.533.028-.799.016v.02l-.014-.004zM5.762 163.809l-.593-.221.593-.221c.013.145.013.293 0 .438v.004zm255.596.048h-.872c-.02-.361.273-.518.852-.494 0 .165.014.325.027.49l-.007.004zm-132.32.493c.266-.008.526 0 .786.024a2.46 2.46 0 0 1 .006.446c-.459-.036-.719-.197-.799-.474l.007.004zm-60.383 3.527c.233.049.639.073.666.145.12.321-.306.313-.666.317a2.68 2.68 0 0 1 0-.462zm-44.617 1.493l.773-.016c.02.349-.26.514-.833.502-.013-.165.007-.325.06-.486zm95.895 2.516c.446.048.706.205.786.478-.426-.06-.686-.221-.786-.478zm-90.181 6.473c-.32-.004-.679-.016-.573-.289.027-.068.373-.096.566-.14a1.81 1.81 0 0 1 .007.425v.004zm17.364 7.058c-.013.317-.267.494-.806.502.06-.289.326-.457.806-.502zm196.04 1.999l-.646-.209.613-.232c.02.148.026.297.033.441zm-141.446 6.999c-.313 0-.653-.02-.56-.277.027-.068.353-.096.54-.144.02.14.027.281.013.421h.007zm71.146.028v-.502h.826l-.006.473a5.97 5.97 0 0 1-.813.025l-.007.004zm62.827.453c-.2-.048-.547-.076-.573-.148-.1-.277.246-.301.593-.289l-.02.441v-.004zm-81.003 5.562c-.034-.345.233-.518.812-.502a1.05 1.05 0 0 1-.106.486l-.713.012.007.004zm77.726.514c.466.048.746.212.826.497-.44-.068-.72-.228-.826-.497zM21.48 204.455l-.639-.217.626-.22a2.4 2.4 0 0 1 .007.437h.007zm184.464-.47c.526.008.793.173.813.49a5.38 5.38 0 0 1-.8-.057l-.019-.437.006.004zm47.882 1.513c-.074.116-.114.325-.22.337-.44.06-.426-.161-.446-.341.226-.012.446-.012.672 0l-.006.004zm78.645-.016c-.02.321-.286.502-.825.514.073-.289.346-.466.825-.514zM70.3 206.995l.906.248c-.213.201-.513.281-.899.229v-.477H70.3zm188.595 2.993c0-.325.233-.517.812-.501l-.033.457a2.5 2.5 0 0 1-.793.032l.014.012zm-103.396 1.541c.333 0 .666.032.553.293-.027.072-.36.097-.546.145-.02-.145-.02-.289 0-.434l-.007-.004zm44.678 2.533c.2.048.553.076.579.148.1.281-.273.281-.599.285l.02-.429v-.004zm-66.184.971c.226.048.633.076.659.152.12.317-.293.325-.666.325l.007-.477zm86.018 2.014c.346 0 .746 0 .633.301-.027.072-.413.096-.633.14a1.63 1.63 0 0 1 0-.441zm57.033 12.472c-.207-.044-.573-.068-.6-.136-.106-.289.28-.281.6-.289.02.14.02.285 0 .425zm-254.692 3.009c-.027-.152-.033-.301-.02-.453.579-.016.886.136.839.501a6.25 6.25 0 0 1-.819-.048zm74.424 2.059a4.67 4.67 0 0 1 .786.036c.02.14.02.285 0 .425-.473-.02-.739-.172-.793-.457l.007-.004zm49.558 4.519c-.013.201.007.446-.486.381-.113-.016-.153-.244-.226-.377.239-.012.472-.012.712 0v-.004zm145.616 1.497c-.02.317-.293.485-.82.497.074-.285.347-.453.82-.497zm2.497 2.01a4.65 4.65 0 0 1 .793.033l.026.465c-.539-.008-.792-.185-.819-.502v.004zm-253.1 5.016c.459.044.713.213.792.485h.02c-.266.008-.54 0-.806-.02l-.007-.465zm119.114 3.026c.333.012.733 0 .626.297-.026.072-.399.096-.619.144a3.25 3.25 0 0 1-.013-.441h.006zm23.165 5.024c.266-.024.526-.028.792-.02-.086.269-.339.437-.799.478l.007-.458zm-78.592 4.486v-.501h.826v.501h-.413-.413zm216.72 2.055c.213.048.58.072.6.144.099.293-.28.293-.62.289-.007-.144 0-.289.013-.433h.007zM13.208 273.68c-.313-.012-.699-.004-.593-.285.027-.072.38-.096.586-.14a1.55 1.55 0 0 1 0 .429l.007-.004zm373.864 5.55c.553-.012.786.169.773.49-.48-.032-.733-.201-.773-.49zm-318.404 1.048c.393.004.766.056.606.357-.04.076-.426.088-.653.128l.04-.485h.007zm267.173.971l.646.252-.673.229c-.02-.16-.013-.321.027-.481zm-267.146 2.483c.266-.477.519-.425.766.009-.253 0-.506 0-.766-.009zm119.027-.016c.54.028.793.213.833.53-.48-.06-.74-.245-.833-.53zm27.281 1.486c-.366-.008-.733-.057-.58-.346.04-.076.407-.088.627-.128l-.04.474h-.007zM48.8 293.283a4.75 4.75 0 0 1 .793.032 2.61 2.61 0 0 1 .02.454c-.559.016-.826-.149-.812-.49v.004zm-42.193 1.999c.566-.009.846.16.833.505a5.65 5.65 0 0 1-.779-.04l.013.008a1.28 1.28 0 0 1-.067-.473zm43.02 2.519l.586.217-.566.229-.02-.446zm-15.706 1.028c.266-.028.526-.04.793-.024-.067.281-.32.441-.793.462a2.41 2.41 0 0 1 0-.438zm72.785 86.758c.086-.277.353-.442.812-.494-.106.261-.373.43-.812.494zm-62.048-.49c.533.012.846.165.866.502-.473-.048-.779-.205-.866-.502zm195.174-21.613l-.613-.237.626-.225-.013.462zM157.99 382.12c.207.044.567.068.593.136.107.285-.273.285-.599.289a1.81 1.81 0 0 1 0-.429l.006.004zm80.224-4.021c.2.044.533.064.566.136.127.261-.239.281-.546.317a1.47 1.47 0 0 1-.026-.453h.006zM316 402.16l.653.253-.693.201c-.013-.153 0-.305.04-.454zm-75.349-24.635c-.213-.049-.579-.077-.606-.149-.106-.293.293-.289.626-.301l-.013.45h-.007zm-100.883-34.081c.446.06.712.225.799.497-.44-.06-.7-.232-.799-.497zm-94.284 31.605c.553.008.852.169.866.514-.493-.044-.792-.209-.866-.514zm90.141-46.665c-.453-.048-.719-.213-.813-.486h-.006l.812.025v.461h.007zm-24.004 10.008l-.393.036h-.4c.033-.305.293-.474.813-.486l-.02.45zm-76.874 34.687l.826.277-.859.225a4.23 4.23 0 0 0 .033-.502zm271.256-47.701l-.4.008-.393-.036c-.02-.152-.026-.309-.02-.461.567-.016.813.164.813.489zm-54.562-.971c.347 0 .74 0 .626.297-.026.072-.406.096-.619.14-.02-.144-.02-.293-.007-.437zm-2.491 62.196c.546 0 .839.152.839.493-.492-.036-.779-.197-.839-.493zM15.646 318.877c.047.161.067.321.053.482-.48-.04-.759-.201-.813-.494l.759.012zm211.838-.525c0-.193.027-.406.467-.346.113.017.159.221.239.338l-.353.012h-.353v-.004zM39.669 370.499c-.26.036-.526.048-.792.036.033-.305.3-.466.806-.478.007.149 0 .293-.013.442zm-11.562-56.67c.227.044.606.06.646.137.146.3-.22.353-.613.349a5.95 5.95 0 0 0-.027-.486h-.007zm207.623-2.464l.566.221-.566.221a2.33 2.33 0 0 1 0-.442zm133.106 52.111c-.552.032-.752-.149-.759-.453.526-.021.739.16.759.453zm-52.909-39.097c.033.317-.054.622-.493.822a1.26 1.26 0 0 1-.68.049c-.566-.173-.099-.354.06-.518.12-.132.293-.249.447-.369h.339l.333.02-.006-.004zm.027-2.007c-.054.313-.114.627-.86.478-.113-.024-.293-.112-.279-.148.153-.374.592-.414 1.125-.334l.014.004zm-1.633 4.005c.04-.213.187-.305.427-.253.006 0-.007.133-.067.161-.1.044-.246.056-.373.08l.013.012zm-1.738-.979l.473-.377c.493.397-.087.361-.453.405l-.02-.028z"/><path d="M315.927 324.379l-.333-.024h-.34c-.047-.241.066-.417.526-.333.1.016.1.233.147.357zM19.755 303.781c.113.309.113.778-.326.79-.5.012-.533-.433-.433-.746.253.004.506-.008.759-.04v-.004z"/><path d="M19.755 303.781a5.31 5.31 0 0 1-.759.04c-.087-.393.227-.542.839-.502a.67.67 0 0 1-.073.462h-.007zm5.022-118.897c-.486.008-1.199.297-1.379-.137-.173-.425.42-.806 1.132-.702.686.105.193.554.233.851l.013-.012zm263.862 143.504c-.819-.052-1.152-.297-.772-.779.153-.192.379-.204.592-.092.513.261.147.582.167.875h.007l.006-.004zM142.232 170.839l-.646-.189.353-.2.273.397.02-.012v.004zm-76.827 1.505c.127-.422-.233-1.008.953-1.076.466-.028.713.181.739.417.04.358.393.843-.4.996-.34.068-.873-.229-1.312-.357l.02.02zM50.526 281.791l1.412.052c.053.369.486.903-.5.959-1.259.072-.999-.537-.912-1.011zm232.306-31.196c.399-.077.732-.041.899.212.026.044-.12.185-.2.193-.453.036-.646-.133-.719-.377l.02-.028zm-57.752-9.921a5.59 5.59 0 0 0 .579.004c.06.618.513 1.24-.027 2.043-1.232-.706-.639-1.401-.552-2.047zm133.813 47.071a5.38 5.38 0 0 1 .106-.457c.44-.064.706-.237.806-.502 1.285.229.966.606.266 1.023l-1.178-.06v-.004zm3.377-1.986c.446.06.712.233.825.498-.439-.064-.706-.237-.825-.498zM16.538 176.385c1.119 0 1.818.253 1.685 1.015-1.772.136-1.845.092-1.685-1.015zm.832 2.52c-.559.004-1.299.345-1.532-.261-.107-.281.32-.453.666-.489 1.039-.113.779.409.879.746l-.013.008v-.004zm12.289 39.305l-.306.313c-.087-.052-.26-.12-.24-.16.047-.112.166-.213.26-.317l.286.16v.004zm208.535 18.376l-.666-.201.379-.225.287.43v-.004zM17.277 183.64c-.16.084-.373.285-.513.265-.34-.048-.646-.193-.966-.297.326-.097.639-.233.979-.273.127-.016.326.196.493.301l.007.004zm24.783-25.755a.6.6 0 0 0 .08.422c-.473.192-.679.734-1.465.485-.213-.068-.34-.445-.233-.622.293-.485 1.012-.321 1.618-.289v.004zm133.254-46.239l-.367-.213c.074.012.18.008.22.04.067.048.093.121.133.181l.014-.008zM126.5 251.65c.014.313.254.67-.386.855-.093.028-.466-.141-.506-.249-.16-.433.326-.55.912-.598l-.02-.012v.004zm.846 1.982l-.392.008-.393-.008c.079-.277.346-.433.799-.486.02.161.02.322 0 .482l-.014.004zm-29.732 1.501c-.033-.161-.04-.317-.007-.478.346.004.706.04.586.317-.033.077-.38.109-.579.161zm5.735-74.731c-.067-.253.04-.454.486-.518.08-.012.306.097.3.137-.047.269-.373.361-.773.385h-.02l.007-.004zm50.505-70.751l.386-.245c-.02.052-.013.125-.066.153-.087.044-.22.06-.333.088l.013.008v-.004zM18.157 185.337c-.087-.148-.08-.293.013-.441 1.012.08.733.49.599.859l-.306.012-.306-.012a1.49 1.49 0 0 1 0-.422v.004zm91.839 151.586c-.027.221-.167.397-.579.413-.074 0-.234-.12-.214-.16.114-.237.42-.289.793-.253zm63.746 3.475l-.067-.971c.486 0 .986 0 .973.418-.014.345-.373.509-.899.553h-.007zM17.384 226.582c.553.056.999.184.826.589-.047.101-.406.257-.48.229-.566-.2-.32-.542-.326-.838l-.02.016v.004zm154.673 1.962l.773-1.011c.572.108.999.341.859.71-.227.614-1.026.317-1.639.305l.007-.004zM133.7 378.978l-.526-.173c.086-.052.193-.16.266-.152.187.024.36.096.54.148l-.28.173v.004zm8.405-58.387l-.133.148-.36-.164.26-.145.24.161h-.007zm115.624 41.352l-.506-.173c.086-.052.199-.152.266-.144.187.028.353.1.526.152l-.286.165zm-132.368-43.146l-.48-.177c.087-.048.193-.148.26-.14.18.028.333.1.5.156l-.28.161zm-86.098-15.486c.08.104.187.209.226.317.013.04-.16.096-.246.149-.08-.105-.187-.209-.226-.317-.013-.041.16-.097.246-.149zm-10.537 62.34l.04.77c-.713.028-1.778.317-1.639-.485.093-.554.992-.317 1.605-.285h-.007zm225.479.498c.087 0 .193-.016.247.012.213.096.159.209-.154.285-.04.008-.186-.088-.226-.152-.02-.037.08-.097.126-.145h.007zm-3.083 30.384l-.52-.176c.087-.052.193-.157.26-.149.186.025.353.097.526.149l-.273.172.007.004zm130.842-87.941c-.093.048-.193.137-.28.133s-.166-.101-.246-.157c.093-.048.193-.136.28-.132s.166.1.246.156zm-229.915-82.833l-.147.176-.406-.184.28-.177.266.185h.007zm41.954 5.758l-.267-.092.293-.245c.087.06.247.121.24.177 0 .056-.173.108-.266.16zm142.251 72.738l-.293-.088.313-.245.286.172-.306.161zM38.837 192.42l-1.532-.04c-.033-.373-.38-.887.599-.939 1.245-.068 1.079.49.933.979zm149.804 133.01l1.452.036c.006.361.353.875-.6.931-1.298.073-.925-.525-.852-.967zm189.227 1.14l-.28.305c-.086-.053-.253-.121-.233-.161.04-.112.16-.213.247-.321l.266.173v.004zm-154.534 14.9l.587.172-.327.189-.24-.373-.02.012zM97.581 160.333l.02.514c-.786-.156-.813-.329-.02-.514z"/><path d="M98.387 161.316l-.393.012h-.393l-.033-.509c.479.044.739.213.813.497h.007zm280.414 109.387h.832l-.02.995-1.638.012.832-1.007h-.006zM124.03 389.074l-.64-.173.346-.209.274.394.02-.012zm157.143-67.693l-.4.249c.02-.052.014-.128.074-.156.093-.045.226-.057.346-.085l-.013-.008h-.007zM22.359 272.686a.78.78 0 0 1-.007-.462l.653.229-.639.233h-.007zM196.84 323.38c.546.008.786.193.832.506-.579.016-.812-.181-.832-.506zm-45.47 11.059l.653.209c-.586.329-.546-.016-.633-.221l-.02.012zm171.224-85.835c.06-.28.306-.449.786-.477-.054.285-.313.445-.786.477zm-195.221 26.108l.293-.43.373.233-.666.197zm-72.844 87.315l-.246.402-.353-.201.626-.185-.027-.012v-.004zm80.443-151.425a1.05 1.05 0 0 0 .486.008c-.02.361.64.915-.686.915l.207-.927-.007.004zm32.103 109.278l.633.213c-.62.357-.513-.044-.626-.217l-.014.008.007-.004zM17.151 188.808c-.46.04-.733.193-.806.474-1.918-.61.027-.851.32-1.252.566.168.34.517.486.778zm248.35 177.204l.02-.971c.487.048.98.104.98.494s-.52.429-.993.477h-.007zM60.369 259.166c-.093.265-.353.433-.799.486.087-.273.346-.438.799-.486zm98.46-105.35l-.872.482c-.606-.016-1.219-.02-1.505-.438l.686-.561c.739-.037 1.705-.354 1.691.517zm208.362 162.557a1.35 1.35 0 0 1 0 .466c-.213-.049-.573-.077-.606-.153-.12-.289.26-.305.606-.313zM19.868 360.519c.839-.073 1.732-.261 2.224.385-.866.136-1.852.526-2.224-.385zM2.485 185.418l-1.525-.089.06-.798c1.245-.161 1.918.02 1.459.891l.007-.004zm113.252-.029l-.379.028-.38-.012c.013-.2.027-.429.493-.369.126.016.18.229.266.353zM323.36 322.393a1.87 1.87 0 0 1 0 .473l-.567-.233.567-.236v-.004zm-9.931-37.661l-.393.016-.393-.012c.033-.209.007-.469.52-.401.126.016.173.257.259.393l.007.004zM182.747 121.806c-.274-.008-.54-.044-.8-.104l.047-.995c.939.192.713.678.753 1.099zm48.027 224.162a5.89 5.89 0 0 1 .753.012c-.087.121-.14.321-.266.341-.447.061-.48-.152-.487-.353zm-60.462-233.781c.193-.108.28-.244.26-.405.253.024.459-.024.612-.144.487.06.873.176.846.533l-1.725.02.007-.004z"/><path d="M169.519 112.147l.893-.008c.113.434-.18.622-.906.558l.013-.55z"/><path d="M169.566 113.186l-.846.02v-.533l.852-.025-.006.538zm47.901-3.708c.086-.108.1-.221.053-.333.373-.024.806.076.753.269-.06.205-.493.205-.806.064zm-78.565 201.385l.027-.537.852.269-.879.268zm9.151-136.982h.799c-.266.433-.533.437-.799 0zm43.759 92.765l-.353.024-.353-.012.046-.943c.213-.016.42-.02.633 0l.027.931zM91.773 127.231c.04.345-.067.65-.613.835-.087-.358-.606-.831.613-.835zm167.121 58.166c.073.422.28.883-.779.972-.054-.418-.56-.968.779-.972zm-240.738-.06a1.49 1.49 0 0 0 0 .422c-.653.208-.733-.069-.812-.353.26-.065.533-.085.813-.069zm9.105 13.134c.12.446-.526.663-.799.988-.586-.065-1.305.048-1.539-.45.666-.361 1.312-.75 2.338-.534v-.004zm96.801 196.145c-.013.409-.053.806-.813.991-.013-.417 0-.823.813-.991zm21.487-123.415h-.4-.4a2.36 2.36 0 0 1-.006-.49c.446.056.719.221.812.494l-.006-.004zm8.232 31.075l-.373.024-.38-.008c0-.321.247-.497.8-.485a1.25 1.25 0 0 1-.047.469zm81.922-189.616c-.513-.02-.766-.192-.813-.489.513.016.766.193.813.489zm-46.389 206.249l-.1.855-2.185.032-.066-.903c.786-.204 1.572-.2 2.351.016zm23.264 41.61l1.645-.02-.06.983-1.518-.028-.067-.935zM59.584 254.17a3.38 3.38 0 0 1 .753 0l-.213.831h-.353l-.186-.827v-.004zm133.946-40.662h-.413-.413v-.502h.826v.502z"/></g><path d="M.001 255.484h393l-7.369 131.545s-21.492 85.219-189.131 85.219S7.37 387.081 7.37 387.081L.001 255.484z" fill="url(#C)" fill-opacity=".2"/><path d="M393.001 12.315v369.052s-4.869 19.937-23.334 36.844c-8.118 7.432-22.865 17.943-36.844 27.389-17.818 12.04-34.387 26.034-34.387 26.034l15.351-22.106s-12.901-5.699-15.351-14.738c29.475 18.422 33.773-26.404 37.457-35.001 20.264-4.299 42.214-12.895 44.213-25.177 8.597-52.809 12.895-362.297 12.895-362.297z" fill="#ab750f"/><path d="M393.002 16v369.052s-4.87 19.937-23.335 36.844c-8.117 7.432-22.865 17.943-36.843 27.389-17.818 12.04-34.388 22.35-34.388 22.35l15.352-18.422s-12.901-9.383-15.352-18.422c29.475 18.422 39.3-23.334 42.984-31.931 20.264-4.299 36.687-12.281 38.686-24.563C388.703 325.487 393.002 16 393.002 16z" fill="#cb9a40"/><path d="M337.735 423.737c3.439-5.895 5.732-13.919 6.141-17.808 9.334-.982 16.58-4.093 19.036-5.526-7.369 11.053-12.895 17.194-25.177 23.334z" fill="#d8a956"/><path d="M381.948 396.719c0 12.281-29.884 30.908-42.37 39.3-.614 1.228-2.088 4.053-3.071 5.526 9.825-6.14 46.055-32.545 45.441-44.826z" fill="#ebbf72"/><path d="M.001 12.315v369.052s4.869 19.937 23.334 36.844c8.118 7.432 22.865 17.943 36.844 27.389 17.818 12.04 34.388 26.034 34.388 26.034l-15.352-22.106s12.901-5.699 15.352-14.738c-29.475 18.422-33.773-26.404-37.458-35.001-20.264-4.299-42.213-12.895-44.213-25.177C4.299 321.803.001 12.315.001 12.315z" fill="#ab750f"/><path d="M.001 16v369.052s4.869 19.937 23.334 36.843c8.118 7.433 22.865 17.943 36.844 27.389a1230.99 1230.99 0 0 0 34.388 22.35l-15.352-18.422s12.901-9.383 15.352-18.421c-29.475 18.421-39.3-23.335-42.984-31.932-20.264-4.298-36.687-12.281-38.686-24.562C4.299 325.487.001 16 .001 16z" fill="#cb9a40"/><path d="M55.266 423.737c-3.439-5.895-5.731-13.919-6.141-17.808-9.334-.982-16.58-4.093-19.036-5.526 7.369 11.053 12.895 17.194 25.177 23.334z" fill="#d8a956"/><path d="M11.054 396.719c0 12.281 29.884 30.908 42.37 39.3.614 1.228 2.088 4.053 3.07 5.526-9.825-6.14-46.055-32.545-45.441-44.826z" fill="#ebbf72"/><path fill-rule="evenodd" d="M374.001 18h-355v-2h355v2z" fill="url(#D)"/><path d="M206.001 17l-9-17-9 17 9 14 9-14z" fill="#ab750f"/><path d="M188.001 17l9-17v31l-9-14z" fill="#ffc502"/><path d="M197.001 0l-9 17 9-14 9 14-9-17z" fill="#fff" fill-opacity=".3"/><defs><linearGradient id="A" x1="276.715" y1="125.39" x2="276.715" y2="446.545" href="#F"><stop stop-color="#d9d9d9" stop-opacity="0"/><stop offset="1" stop-color="#d8a956"/></linearGradient><linearGradient id="B" x1="253.345" y1="343.383" x2="253.345" y2="479.705" href="#F"><stop stop-color="#d9d9d9" stop-opacity="0"/><stop offset="1" stop-color="#d8a956"/></linearGradient><linearGradient id="C" x1="200.595" y1="270.841" x2="194.451" y2="426.423" href="#F"><stop stop-color="#d8a956" stop-opacity="0"/><stop offset="1" stop-color="#ab750f"/></linearGradient><linearGradient id="D" x1="19.001" y1="18.893" x2="374.001" y2="18.893" href="#F"><stop stop-color="#cf9a3a" stop-opacity="0"/><stop offset=".464" stop-color="#cf9a3a"/><stop offset="1" stop-color="#cf9a3a" stop-opacity="0"/></linearGradient><clipPath id="E"><path fill="#fff" transform="translate(1.001 21)" d="M0 0h391.772v427.388H0z"/></clipPath><linearGradient id="F" gradientUnits="userSpaceOnUse"/></defs></svg>