<svg width="393" height="195" viewBox="0 0 393 195" fill="none" xmlns="http://www.w3.org/2000/svg">
<g id="card-lineup-no-lineup">
<g id="BASE">
<mask id="path-1-inside-1_647_19431" fill="white">
<path fill-rule="evenodd" clip-rule="evenodd" d="M393 50.5125V96.5125V141.512V194.512H294.75H196.5H0V96.5125V51.5125V29.0125V17.5125L12 6.51245H24.5625H49.125H98.25H196.5H245.625H272.111L296.556 50.5125H393Z"/>
</mask>
<path d="M393 50.5125H393.5V50.0125H393V50.5125ZM393 194.512V195.012H393.5V194.512H393ZM0 194.512H-0.5V195.012H0V194.512ZM0 17.5125L-0.337862 17.1439L-0.5 17.2925V17.5125H0ZM12 6.51245V6.01245H11.8055L11.6621 6.14387L12 6.51245ZM272.111 6.51245L272.548 6.26963L272.405 6.01245H272.111V6.51245ZM296.556 50.5125L296.118 50.7553L296.261 51.0125H296.556V50.5125ZM393 50.0125H389.986V51.0125H393V50.0125ZM383.958 50.0125H377.931V51.0125H383.958V50.0125ZM371.903 50.0125H365.875V51.0125H371.903V50.0125ZM359.847 50.0125H353.819V51.0125H359.847V50.0125ZM347.792 50.0125H341.764V51.0125H347.792V50.0125ZM335.736 50.0125H329.708V51.0125H335.736V50.0125ZM323.681 50.0125H317.653V51.0125H323.681V50.0125ZM311.625 50.0125H305.597V51.0125H311.625V50.0125ZM299.569 50.0125H296.556V51.0125H299.569V50.0125ZM296.993 50.2696L295.465 47.5196L294.591 48.0053L296.118 50.7553L296.993 50.2696ZM292.409 42.0196L289.354 36.5196L288.48 37.0053L291.535 42.5053L292.409 42.0196ZM286.298 31.0196L283.243 25.5196L282.368 26.0053L285.424 31.5053L286.298 31.0196ZM280.187 20.0196L277.132 14.5196L276.257 15.0053L279.313 20.5053L280.187 20.0196ZM274.076 9.01963L272.548 6.26963L271.674 6.75527L273.202 9.50528L274.076 9.01963ZM272.111 6.01245H268.8V7.01245H272.111V6.01245ZM262.179 6.01245H255.557V7.01245H262.179V6.01245ZM248.936 6.01245H245.625V7.01245H248.936V6.01245ZM245.625 6.01245H242.555V7.01245H245.625V6.01245ZM236.414 6.01245H230.273V7.01245H236.414V6.01245ZM224.133 6.01245H217.992V7.01245H224.133V6.01245ZM211.852 6.01245H205.711V7.01245H211.852V6.01245ZM199.57 6.01245H196.5V7.01245H199.57V6.01245ZM196.5 6.01245H193.43V7.01245H196.5V6.01245ZM187.289 6.01245H181.148V7.01245H187.289V6.01245ZM175.008 6.01245H168.867V7.01245H175.008V6.01245ZM162.727 6.01245H156.586V7.01245H162.727V6.01245ZM150.445 6.01245H144.305V7.01245H150.445V6.01245ZM138.164 6.01245H132.023V7.01245H138.164V6.01245ZM125.883 6.01245H119.742V7.01245H125.883V6.01245ZM113.602 6.01245H107.461V7.01245H113.602V6.01245ZM101.32 6.01245H98.25V7.01245H101.32V6.01245ZM98.25 6.01245H95.1797V7.01245H98.25V6.01245ZM89.0391 6.01245H82.8984V7.01245H89.0391V6.01245ZM76.7578 6.01245H70.6172V7.01245H76.7578V6.01245ZM64.4766 6.01245H58.3359V7.01245H64.4766V6.01245ZM52.1953 6.01245H49.125V7.01245H52.1953V6.01245ZM49.125 6.01245H46.0547V7.01245H49.125V6.01245ZM39.9141 6.01245H33.7734V7.01245H39.9141V6.01245ZM27.6328 6.01245H24.5625V7.01245H27.6328V6.01245ZM24.5625 6.01245H21.4219V7.01245H24.5625V6.01245ZM15.1406 6.01245H12V7.01245H15.1406V6.01245ZM11.6621 6.14387L8.66214 8.89387L9.33786 9.63103L12.3379 6.88103L11.6621 6.14387ZM2.66214 14.3939L-0.337862 17.1439L0.337862 17.881L3.33786 15.131L2.66214 14.3939ZM-0.5 17.5125V20.3875H0.5V17.5125H-0.5ZM-0.5 26.1375V29.0125H0.5V26.1375H-0.5ZM-0.5 29.0125V31.825H0.5V29.0125H-0.5ZM-0.5 37.45V43.075H0.5V37.45H-0.5ZM-0.5 48.7V51.5125H0.5V48.7H-0.5ZM-0.5 51.5125V54.325H0.5V51.5125H-0.5ZM-0.5 59.95V65.575H0.5V59.95H-0.5ZM-0.5 71.2V76.825H0.5V71.2H-0.5ZM-0.5 82.45V88.075H0.5V82.45H-0.5ZM-0.5 93.7V96.5125H0.5V93.7H-0.5ZM-0.5 96.5125V99.575H0.5V96.5125H-0.5ZM-0.5 105.7V111.825H0.5V105.7H-0.5ZM-0.5 117.95V124.075H0.5V117.95H-0.5ZM-0.5 130.2V136.325H0.5V130.2H-0.5ZM-0.5 142.45V148.575H0.5V142.45H-0.5ZM-0.5 154.7V160.825H0.5V154.7H-0.5ZM-0.5 166.95V173.075H0.5V166.95H-0.5ZM-0.5 179.2V185.325H0.5V179.2H-0.5ZM-0.5 191.45V194.512H0.5V191.45H-0.5ZM0 195.012H3.07031V194.012H0V195.012ZM9.21094 195.012H15.3516V194.012H9.21094V195.012ZM21.4922 195.012H27.6328V194.012H21.4922V195.012ZM33.7734 195.012H39.9141V194.012H33.7734V195.012ZM46.0547 195.012H52.1953V194.012H46.0547V195.012ZM58.3359 195.012H64.4766V194.012H58.3359V195.012ZM70.6172 195.012H76.7578V194.012H70.6172V195.012ZM82.8984 195.012H89.0391V194.012H82.8984V195.012ZM95.1797 195.012H101.32V194.012H95.1797V195.012ZM107.461 195.012H113.602V194.012H107.461V195.012ZM119.742 195.012H125.883V194.012H119.742V195.012ZM132.023 195.012H138.164V194.012H132.023V195.012ZM144.305 195.012H150.445V194.012H144.305V195.012ZM156.586 195.012H162.727V194.012H156.586V195.012ZM168.867 195.012H175.008V194.012H168.867V195.012ZM181.148 195.012H187.289V194.012H181.148V195.012ZM193.43 195.012H196.5V194.012H193.43V195.012ZM196.5 195.012H199.57V194.012H196.5V195.012ZM205.711 195.012H211.852V194.012H205.711V195.012ZM217.992 195.012H224.133V194.012H217.992V195.012ZM230.273 195.012H236.414V194.012H230.273V195.012ZM242.555 195.012H248.695V194.012H242.555V195.012ZM254.836 195.012H260.977V194.012H254.836V195.012ZM267.117 195.012H273.258V194.012H267.117V195.012ZM279.398 195.012H285.539V194.012H279.398V195.012ZM291.68 195.012H294.75V194.012H291.68V195.012ZM294.75 195.012H297.82V194.012H294.75V195.012ZM303.961 195.012H310.102V194.012H303.961V195.012ZM316.242 195.012H322.383V194.012H316.242V195.012ZM328.523 195.012H334.664V194.012H328.523V195.012ZM340.805 195.012H346.945V194.012H340.805V195.012ZM353.086 195.012H359.227V194.012H353.086V195.012ZM365.367 195.012H371.508V194.012H365.367V195.012ZM377.648 195.012H383.789V194.012H377.648V195.012ZM389.93 195.012H393V194.012H389.93V195.012ZM393.5 194.512V191.2H392.5V194.512H393.5ZM393.5 184.575V177.95H392.5V184.575H393.5ZM393.5 171.325V164.7H392.5V171.325H393.5ZM393.5 158.075V151.45H392.5V158.075H393.5ZM393.5 144.825V141.512H392.5V144.825H393.5ZM393.5 141.512V138.7H392.5V141.512H393.5ZM393.5 133.075V127.45H392.5V133.075H393.5ZM393.5 121.825V116.2H392.5V121.825H393.5ZM393.5 110.575V104.95H392.5V110.575H393.5ZM393.5 99.325V96.5125H392.5V99.325H393.5ZM393.5 96.5125V93.6375H392.5V96.5125H393.5ZM393.5 87.8875V82.1375H392.5V87.8875H393.5ZM393.5 76.3875V70.6375H392.5V76.3875H393.5ZM393.5 64.8875V59.1375H392.5V64.8875H393.5ZM393.5 53.3875V50.5125H392.5V53.3875H393.5ZM393 50.5125H394V49.5125H393V50.5125ZM393 194.512V195.512H394V194.512H393ZM0 194.512H-1V195.512H0V194.512ZM0 17.5125L-0.675725 16.7753L-1 17.0725V17.5125H0ZM12 6.51245V5.51245H11.611L11.3243 5.7753L12 6.51245ZM272.111 6.51245L272.985 6.02681L272.7 5.51245H272.111V6.51245ZM296.556 50.5125L295.681 50.9981L295.967 51.5125H296.556V50.5125ZM393 49.5125H389.986V51.5125H393V49.5125ZM383.958 49.5125H377.931V51.5125H383.958V49.5125ZM371.903 49.5125H365.875V51.5125H371.903V49.5125ZM359.847 49.5125H353.819V51.5125H359.847V49.5125ZM347.792 49.5125H341.764V51.5125H347.792V49.5125ZM335.736 49.5125H329.708V51.5125H335.736V49.5125ZM323.681 49.5125H317.653V51.5125H323.681V49.5125ZM311.625 49.5125H305.597V51.5125H311.625V49.5125ZM299.569 49.5125H296.556V51.5125H299.569V49.5125ZM297.43 50.0268L295.902 47.2768L294.154 48.2481L295.681 50.9981L297.43 50.0268ZM292.846 41.7768L289.791 36.2768L288.043 37.2481L291.098 42.7481L292.846 41.7768ZM286.735 30.7768L283.68 25.2768L281.931 26.2481L284.987 31.7481L286.735 30.7768ZM280.624 19.7768L277.569 14.2768L275.82 15.2481L278.876 20.7481L280.624 19.7768ZM274.513 8.77681L272.985 6.02681L271.237 6.99809L272.765 9.7481L274.513 8.77681ZM272.111 5.51245H268.8V7.51245H272.111V5.51245ZM262.179 5.51245H255.557V7.51245H262.179V5.51245ZM248.936 5.51245H245.625V7.51245H248.936V5.51245ZM245.625 5.51245H242.555V7.51245H245.625V5.51245ZM236.414 5.51245H230.273V7.51245H236.414V5.51245ZM224.133 5.51245H217.992V7.51245H224.133V5.51245ZM211.852 5.51245H205.711V7.51245H211.852V5.51245ZM199.57 5.51245H196.5V7.51245H199.57V5.51245ZM196.5 5.51245H193.43V7.51245H196.5V5.51245ZM187.289 5.51245H181.148V7.51245H187.289V5.51245ZM175.008 5.51245H168.867V7.51245H175.008V5.51245ZM162.727 5.51245H156.586V7.51245H162.727V5.51245ZM150.445 5.51245H144.305V7.51245H150.445V5.51245ZM138.164 5.51245H132.023V7.51245H138.164V5.51245ZM125.883 5.51245H119.742V7.51245H125.883V5.51245ZM113.602 5.51245H107.461V7.51245H113.602V5.51245ZM101.32 5.51245H98.25V7.51245H101.32V5.51245ZM98.25 5.51245H95.1797V7.51245H98.25V5.51245ZM89.0391 5.51245H82.8984V7.51245H89.0391V5.51245ZM76.7578 5.51245H70.6172V7.51245H76.7578V5.51245ZM64.4766 5.51245H58.3359V7.51245H64.4766V5.51245ZM52.1953 5.51245H49.125V7.51245H52.1953V5.51245ZM49.125 5.51245H46.0547V7.51245H49.125V5.51245ZM39.9141 5.51245H33.7734V7.51245H39.9141V5.51245ZM27.6328 5.51245H24.5625V7.51245H27.6328V5.51245ZM24.5625 5.51245H21.4219V7.51245H24.5625V5.51245ZM15.1406 5.51245H12V7.51245H15.1406V5.51245ZM11.3243 5.7753L8.32428 8.5253L9.67572 9.99961L12.6757 7.24961L11.3243 5.7753ZM2.32428 14.0253L-0.675725 16.7753L0.675725 18.2496L3.67572 15.4996L2.32428 14.0253ZM-1 17.5125V20.3875H1V17.5125H-1ZM-1 26.1375V29.0125H1V26.1375H-1ZM-1 29.0125V31.825H1V29.0125H-1ZM-1 37.45V43.075H1V37.45H-1ZM-1 48.7V51.5125H1V48.7H-1ZM-1 51.5125V54.325H1V51.5125H-1ZM-1 59.95V65.575H1V59.95H-1ZM-1 71.2V76.825H1V71.2H-1ZM-1 82.45V88.075H1V82.45H-1ZM-1 93.7V96.5125H1V93.7H-1ZM-1 96.5125V99.575H1V96.5125H-1ZM-1 105.7V111.825H1V105.7H-1ZM-1 117.95V124.075H1V117.95H-1ZM-1 130.2V136.325H1V130.2H-1ZM-1 142.45V148.575H1V142.45H-1ZM-1 154.7V160.825H1V154.7H-1ZM-1 166.95V173.075H1V166.95H-1ZM-1 179.2V185.325H1V179.2H-1ZM-1 191.45V194.512H1V191.45H-1ZM0 195.512H3.07031V193.512H0V195.512ZM9.21094 195.512H15.3516V193.512H9.21094V195.512ZM21.4922 195.512H27.6328V193.512H21.4922V195.512ZM33.7734 195.512H39.9141V193.512H33.7734V195.512ZM46.0547 195.512H52.1953V193.512H46.0547V195.512ZM58.3359 195.512H64.4766V193.512H58.3359V195.512ZM70.6172 195.512H76.7578V193.512H70.6172V195.512ZM82.8984 195.512H89.0391V193.512H82.8984V195.512ZM95.1797 195.512H101.32V193.512H95.1797V195.512ZM107.461 195.512H113.602V193.512H107.461V195.512ZM119.742 195.512H125.883V193.512H119.742V195.512ZM132.023 195.512H138.164V193.512H132.023V195.512ZM144.305 195.512H150.445V193.512H144.305V195.512ZM156.586 195.512H162.727V193.512H156.586V195.512ZM168.867 195.512H175.008V193.512H168.867V195.512ZM181.148 195.512H187.289V193.512H181.148V195.512ZM193.43 195.512H196.5V193.512H193.43V195.512ZM196.5 195.512H199.57V193.512H196.5V195.512ZM205.711 195.512H211.852V193.512H205.711V195.512ZM217.992 195.512H224.133V193.512H217.992V195.512ZM230.273 195.512H236.414V193.512H230.273V195.512ZM242.555 195.512H248.695V193.512H242.555V195.512ZM254.836 195.512H260.977V193.512H254.836V195.512ZM267.117 195.512H273.258V193.512H267.117V195.512ZM279.398 195.512H285.539V193.512H279.398V195.512ZM291.68 195.512H294.75V193.512H291.68V195.512ZM294.75 195.512H297.82V193.512H294.75V195.512ZM303.961 195.512H310.102V193.512H303.961V195.512ZM316.242 195.512H322.383V193.512H316.242V195.512ZM328.523 195.512H334.664V193.512H328.523V195.512ZM340.805 195.512H346.945V193.512H340.805V195.512ZM353.086 195.512H359.227V193.512H353.086V195.512ZM365.367 195.512H371.508V193.512H365.367V195.512ZM377.648 195.512H383.789V193.512H377.648V195.512ZM389.93 195.512H393V193.512H389.93V195.512ZM394 194.512V191.2H392V194.512H394ZM394 184.575V177.95H392V184.575H394ZM394 171.325V164.7H392V171.325H394ZM394 158.075V151.45H392V158.075H394ZM394 144.825V141.512H392V144.825H394ZM394 141.512V138.7H392V141.512H394ZM394 133.075V127.45H392V133.075H394ZM394 121.825V116.2H392V121.825H394ZM394 110.575V104.95H392V110.575H394ZM394 99.325V96.5125H392V99.325H394ZM394 96.5125V93.6375H392V96.5125H394ZM394 87.8875V82.1375H392V87.8875H394ZM394 76.3875V70.6375H392V76.3875H394ZM394 64.8875V59.1375H392V64.8875H394ZM394 53.3875V50.5125H392V53.3875H394Z" fill="#AB750F" mask="url(#path-1-inside-1_647_19431)"/>
</g>
<path id="Subtract" d="M393 45.5125L367.788 0.512451H274L299.212 45.5125H393Z" fill="#AB750F"/>
<g id="joined-draft">
<g id="Prize pool">
<path id="Union" fill-rule="evenodd" clip-rule="evenodd" d="M114.329 6.55444H17L26.4823 29.1465H114.329V29.089H114.58L124.062 6.55449L114.329 6.55444Z" fill="#6C4B0E"/>
<path id="Union_2" fill-rule="evenodd" clip-rule="evenodd" d="M27.974 4.51245H122.545L113.332 27.047H113.088V27.1047H27.7305L18.5168 4.51265H27.974V4.51245Z" fill="#2D2D2D"/>
</g>
</g>
<path id="Subtract_2" d="M9 6.51245H0V14.7625L9 6.51245Z" fill="#AB750F"/>
<g id="LOGO">
<path id="Vector" d="M87.3533 16.0846C87.4509 16.1328 87.5105 16.1721 87.576 16.193C88.1268 16.3668 88.4919 16.7164 88.5038 17.3858C88.5169 18.1385 88.1185 18.5935 87.4622 18.7513C87.062 18.8472 86.6464 18.9228 86.2367 18.9288C84.8235 18.9508 83.4103 18.9371 81.9972 18.9407C81.8548 18.9407 81.8054 18.8924 81.8054 18.7495C81.809 17.0827 81.8084 15.4152 81.806 13.7484C81.806 13.6168 81.8376 13.5435 81.9888 13.5447C83.5003 13.5518 85.0117 13.5459 86.5225 13.5643C86.9739 13.5697 87.4045 13.712 87.7266 14.0467C87.8588 14.1837 87.9619 14.379 88.0065 14.5648C88.1465 15.1478 87.9875 15.7493 87.3533 16.0846ZM84.889 16.5991C84.889 16.5991 84.889 16.5937 84.889 16.5908C84.3989 16.5908 83.9088 16.5931 83.4181 16.589C83.2793 16.5878 83.2227 16.6366 83.2275 16.7819C83.2364 17.0642 83.2287 17.3471 83.2305 17.6299C83.2317 17.8396 83.2478 17.8556 83.458 17.8568C84.2941 17.8604 85.1308 17.8634 85.9669 17.864C86.111 17.864 86.2563 17.864 86.3986 17.8449C86.6261 17.8139 86.8435 17.7258 86.9001 17.4852C86.959 17.2363 87.0061 16.951 86.7661 16.7635C86.6482 16.6712 86.4749 16.6128 86.3236 16.6062C85.846 16.5866 85.3666 16.5991 84.8878 16.5991H84.889ZM84.7151 14.5362C84.7151 14.5362 84.7151 14.5333 84.7151 14.5321C84.2941 14.5321 83.8731 14.5309 83.452 14.5321C83.2406 14.5327 83.2305 14.5452 83.2299 14.7607C83.2299 15.0031 83.2317 15.2449 83.2299 15.4873C83.2287 15.6099 83.2877 15.6689 83.4068 15.6719C83.5568 15.676 83.7063 15.6796 83.8564 15.6802C84.5192 15.6838 85.1826 15.6945 85.8454 15.6826C86.0235 15.6796 86.2242 15.6451 86.3718 15.5552C86.6237 15.4027 86.5868 15.13 86.538 14.8828C86.4921 14.6512 86.2891 14.6005 86.0979 14.5523C86.0211 14.5332 85.9377 14.5362 85.8567 14.5362C85.4762 14.5344 85.0956 14.5356 84.7151 14.5356V14.5362Z" fill="#F5F1EE"/>
<path id="Vector_2" d="M97.3056 18.9385C96.4397 18.9385 95.5744 18.9344 94.7091 18.9421C94.537 18.9433 94.4799 18.8945 94.4805 18.717C94.4864 17.0722 94.484 15.428 94.484 13.7832C94.484 13.5557 94.493 13.5467 94.7163 13.5461C96.4415 13.5461 98.1673 13.5461 99.8925 13.5461C100.117 13.5461 100.129 13.5581 100.132 13.779C100.135 13.9981 100.137 14.2173 100.138 14.437C100.138 14.6556 100.114 14.6806 99.8848 14.6806C98.9844 14.6812 98.0845 14.6806 97.1841 14.6806C96.8494 14.6806 96.5148 14.6848 96.1801 14.6794C96.0407 14.677 95.9788 14.7265 95.9842 14.8706C95.9913 15.0552 95.9925 15.2404 95.9842 15.4244C95.9776 15.5703 96.0395 15.6108 96.1783 15.6102C97.2056 15.606 98.2328 15.6078 99.2595 15.6084C99.4286 15.6084 99.5132 15.6946 99.5132 15.8669C99.5132 16.086 99.506 16.3058 99.5156 16.5243C99.5221 16.6839 99.459 16.7345 99.3024 16.7339C98.287 16.7292 97.2711 16.7316 96.2557 16.7316C95.9865 16.7316 95.9859 16.7322 95.9859 17.0001C95.9859 17.208 95.9913 17.4158 95.9842 17.623C95.9794 17.7648 96.0342 17.8172 96.1771 17.8142C96.806 17.8029 97.4348 17.7981 98.0637 17.7922C98.6812 17.7868 99.2988 17.7874 99.9157 17.7761C100.076 17.7731 100.134 17.8362 100.131 17.9887C100.126 18.237 100.122 18.4854 100.133 18.7331C100.14 18.8957 100.076 18.9415 99.9205 18.9403C99.0493 18.935 98.178 18.9379 97.3062 18.9379L97.3056 18.9385Z" fill="#F5F1EE"/>
<path id="Vector_3" d="M55.2026 16.2466C55.2026 15.4159 55.2044 14.5852 55.2008 13.7544C55.2002 13.6127 55.2377 13.5436 55.3955 13.5442C56.7283 13.5507 58.0605 13.549 59.3932 13.5555C59.8774 13.5579 60.3246 13.7044 60.723 13.9765C61.2745 14.3529 61.4734 14.8924 61.4329 15.5463C61.3787 16.4229 60.7963 16.9559 60.0412 17.0964C59.8047 17.1405 59.563 17.1757 59.323 17.1786C58.5268 17.1893 57.7305 17.1876 56.9349 17.1798C56.761 17.178 56.7039 17.2304 56.708 17.4061C56.7188 17.8557 56.7063 18.3059 56.714 18.7562C56.7164 18.9026 56.664 18.9443 56.5234 18.9414C56.1489 18.9336 55.7737 18.9336 55.3985 18.9414C55.2455 18.9443 55.1996 18.8872 55.2002 18.7389C55.2056 17.9081 55.2026 17.0774 55.2026 16.2466ZM58.0605 16.0787C58.0605 16.0847 58.0605 16.0912 58.0611 16.0972C58.5327 16.0775 59.0056 16.0698 59.4766 16.0358C60.0793 15.993 60.1299 15.3962 59.9679 14.9996C59.8488 14.7078 59.5665 14.6501 59.289 14.6465C58.4815 14.637 57.674 14.6435 56.8665 14.6388C56.7456 14.6382 56.7039 14.6834 56.7051 14.8013C56.7092 15.1646 56.7098 15.5279 56.7051 15.8911C56.7033 16.0329 56.7587 16.0829 56.9004 16.0805C57.2869 16.0734 57.6734 16.0781 58.0599 16.0781L58.0605 16.0787Z" fill="#F5F1EE"/>
<path id="Vector_4" d="M74.4783 18.9222C74.3925 18.9299 74.3425 18.9376 74.2925 18.9376C73.9 18.9388 73.5076 18.9365 73.1152 18.9394C73.002 18.94 72.927 18.9144 72.8716 18.7977C72.759 18.5589 72.6203 18.3326 72.4976 18.0986C72.4249 17.9598 72.3344 17.8872 72.1605 17.8889C71.2315 17.8979 70.3025 17.8949 69.3735 17.8913C69.2264 17.8913 69.1264 17.9306 69.0579 18.0747C68.9447 18.3129 68.8072 18.5398 68.6845 18.7739C68.6261 18.8858 68.5535 18.9454 68.4147 18.9418C68.0402 18.9323 67.665 18.9394 67.2898 18.9376C67.2219 18.9376 67.1546 18.9263 67.0552 18.9174C67.2011 18.6441 67.3339 18.3927 67.4691 18.1426C67.9449 17.2636 68.4225 16.3853 68.8989 15.5063C69.2276 14.9 69.5522 14.2914 69.8898 13.6905C69.9285 13.6215 70.0393 13.5554 70.1191 13.553C70.5515 13.5399 70.9844 13.5476 71.4173 13.5458C71.5227 13.5458 71.593 13.5714 71.6508 13.678C72.1957 14.6964 72.7483 15.7105 73.2992 16.7253C73.669 17.4072 74.04 18.0884 74.4098 18.7697C74.4306 18.8084 74.4467 18.8501 74.4783 18.9216V18.9222ZM69.7606 16.7723H71.7758C71.4406 16.1506 71.1243 15.5652 70.8087 14.9798C70.7891 14.9763 70.7694 14.9727 70.7504 14.9691C70.427 15.5587 70.1036 16.1476 69.7612 16.7729L69.7606 16.7723Z" fill="#F5F1EE"/>
<path id="Vector_5" d="M79.3358 13.5765C79.1131 13.848 78.9148 14.0916 78.7147 14.334C78.1025 15.0754 77.4874 15.8138 76.8805 16.56C76.8222 16.6315 76.7918 16.7458 76.7906 16.8411C76.7829 17.4753 76.7823 18.1102 76.79 18.7444C76.7918 18.8986 76.7406 18.9439 76.5917 18.9409C76.1647 18.9332 75.7377 18.9344 75.3113 18.9403C75.1744 18.9421 75.1333 18.8921 75.1345 18.7587C75.1398 18.1298 75.1333 17.5009 75.1392 16.8727C75.1404 16.7238 75.094 16.6118 74.9999 16.4993C74.2269 15.5703 73.4587 14.6365 72.6893 13.7045C72.6643 13.6742 72.6434 13.6408 72.5994 13.5801C72.6905 13.567 72.7584 13.5491 72.8268 13.5485C73.2133 13.5455 73.5998 13.5527 73.9863 13.5443C74.1388 13.5408 74.243 13.5896 74.3395 13.7093C74.8165 14.3006 75.3012 14.8854 75.7836 15.4726C75.9241 15.6441 75.9438 15.6447 76.0915 15.4702C76.5869 14.886 77.0842 14.3042 77.5749 13.7158C77.6755 13.595 77.7821 13.539 77.9429 13.5437C78.3294 13.5545 78.7159 13.5461 79.1024 13.5485C79.1679 13.5485 79.2334 13.564 79.3364 13.5777L79.3358 13.5765Z" fill="#F5F1EE"/>
<path id="Vector_6" d="M88.9259 16.235C88.9259 15.4156 88.9259 14.5962 88.9259 13.7762C88.9259 13.5582 88.9372 13.5469 89.148 13.5463C89.5059 13.5451 89.8638 13.554 90.2211 13.5421C90.3944 13.5362 90.4337 13.6029 90.4331 13.7631C90.4277 15.0041 90.4301 16.2446 90.4301 17.4856C90.4301 17.7476 90.4313 17.7482 90.6856 17.7488C91.7069 17.7488 92.7288 17.7488 93.7501 17.7488C93.9752 17.7488 93.9877 17.7619 93.9883 17.9823C93.9889 18.2074 93.9883 18.4325 93.9883 18.6576C93.9883 18.8442 93.8974 18.9375 93.7156 18.9375C92.3769 18.9375 91.0375 18.9375 89.6988 18.9375C89.5142 18.9375 89.3284 18.9274 89.145 18.9405C88.9652 18.9536 88.9199 18.8797 88.9217 18.71C88.9288 17.8846 88.9247 17.0592 88.9247 16.2338L88.9259 16.235Z" fill="#F5F1EE"/>
<path id="Vector_7" d="M61.9344 16.252C61.9344 15.4266 61.9344 14.6012 61.9344 13.7758C61.9344 13.5596 61.9463 13.5471 62.1565 13.5465C62.5144 13.5453 62.8723 13.5531 63.2296 13.543C63.3886 13.5388 63.4387 13.5894 63.4375 13.7496C63.4321 14.9907 63.4345 16.2311 63.4345 17.4722C63.4345 17.6568 63.5262 17.7491 63.7096 17.7491C64.7256 17.7491 65.7409 17.7491 66.7569 17.7491C66.9802 17.7491 66.9957 17.7646 66.9963 17.9819C66.9975 18.2356 66.9915 18.4899 66.9987 18.7436C67.0022 18.883 66.9552 18.9401 66.8099 18.9395C65.246 18.9366 63.6816 18.936 62.1178 18.9395C61.9707 18.9395 61.9308 18.8824 61.9314 18.7436C61.9356 17.9123 61.9338 17.0815 61.9338 16.2502L61.9344 16.252Z" fill="#F5F1EE"/>
<path id="Vector_8" d="M81.1767 16.2545C81.1767 17.0852 81.1731 17.9153 81.1796 18.7461C81.1808 18.8979 81.1356 18.9462 80.9831 18.942C80.6085 18.9319 80.2334 18.9355 79.8588 18.9402C79.7278 18.942 79.6736 18.8997 79.6736 18.7616C79.6766 17.0834 79.6766 15.4052 79.6736 13.7271C79.6736 13.5913 79.729 13.5437 79.86 13.5454C80.2346 13.5496 80.6097 13.5532 80.9843 13.5437C81.1409 13.5395 81.1796 13.599 81.1785 13.7461C81.1731 14.5822 81.1761 15.4183 81.1761 16.255L81.1767 16.2545Z" fill="#F5F1EE"/>
<path id="Vector_9" d="M42.692 18.8973C42.692 18.8973 42 17.5133 42 16.1163V10.5125H52.487V16.2788C52.487 16.2788 52.5549 20.1181 48.9866 21.882L47.2108 22.7628C47.2108 22.7628 44.9573 21.76 44.1433 20.8786L45.1652 19.0932H47.6937L50.2312 14.6936L48.9586 12.4919L43.8497 12.4747L45.1568 14.6936H47.7152L46.4217 16.9041H43.8652L42.6914 18.8973H42.692Z" fill="#F5F1EE"/>
</g>
</g>
</svg>
