<svg xmlns="http://www.w3.org/2000/svg" width="393" height="294" fill="none" xmlns:v="https://vecta.io/nano"><g clip-path="url(#B)"><g opacity=".1"><path d="M392.268 11L180 294.108H286.166L498.497 11H392.268Z" fill="url(#A)"/><path d="M522.026 11L309.758 294.108h49.544L571.633 11h-49.607z" fill="url(#A)"/></g><g fill="#ab750f"><path d="M18.559 19.559v1.919h-.64v-1.919H16v-.64h1.919V17h.64v1.919h1.919v.64h-1.919z"/><use href="#C"/><path d="M38.605 19.559v1.919h-.64v-1.919h-1.919v-.64h1.919V17h.64v1.919h1.919v.64h-1.919zm311.954 250v1.919h-.64v-1.919H348v-.64h1.919V267h.64v1.919h1.919v.64h-1.919z"/><use href="#D"/><path d="M370.605 269.559v1.919h-.64v-1.919h-1.919v-.64h1.919V267h.64v1.919h1.919v.64h-1.919z"/></g></g><defs><linearGradient id="A" x1="418.283" y1="11" x2="418.283" y2="294.108" gradientUnits="userSpaceOnUse"><stop stop-color="#ab750f"/><stop offset=".516" stop-color="#d8a956"/><stop offset="1" stop-color="#ab750f" stop-opacity="0"/></linearGradient><clipPath id="B"><path fill="#fff" d="M0 0h393v294H0z"/></clipPath><path id="C" d="M28.582 19.559v1.919h-.64v-1.919h-1.919v-.64h1.919V17h.64v1.919h1.919v.64h-1.919z"/><path id="D" d="M360.582 269.559v1.919h-.64v-1.919h-1.919v-.64h1.919V267h.64v1.919h1.919v.64h-1.919z"/></defs></svg>