<svg xmlns="http://www.w3.org/2000/svg" width="383" height="36" fill="none" xmlns:v="https://vecta.io/nano"><g fill="#212121"><path d="M31 14h321v10H31z"/><path d="M69 21h245v14.8H69z"/></g><path d="M0 19.664V5l11-5v14.664l-11 5z" fill="url(#C)"/><path d="M383 19.664V5l-11-5v14.664l11 5z" fill="url(#D)"/><mask id="A" fill="#fff"><path d="M21 16H72L85 31H29L21 16Z"/></mask><path d="M21 16H72L85 31H29L21 16Z" stroke="#6e4800" stroke-width="2" mask="url(#A)"/><mask id="B" fill="#fff"><path d="M362 16h-51l-13 15h56l8-15z"/></mask><path d="M362 16h-51l-13 15h56l8-15z" stroke="#6e4800" stroke-width="2" mask="url(#B)"/><path d="M0 19.664V5l39 16h43l13 15H39L0 19.664z" fill="url(#E)"/><path d="M383 19.664V5l-39 16h-43l-13 15h56l39-16.336z" fill="url(#F)"/><path d="M84 21h5.026L102 35.994 97 36 84 21z" fill="url(#G)"/><path d="M299 21h-5.026L281 35.994l5 .006 13-15z" fill="url(#H)"/><path d="M91 21h3.026L107 35.994 104 36 91 21z" fill="url(#I)"/><path d="M292 21h-3.026L276 35.994l3 .006 13-15z" fill="url(#J)"/><path d="M0 24v2.86L29 35 0 24z" fill="url(#K)"/><path d="M383 24v2.86L354 35l29-11z" fill="url(#L)"/><defs><linearGradient id="C" x1="-5.098" y1="26.924" x2="143.272" y2="26.924" href="#M"><stop stop-color="#5d3d00"/><stop offset=".544" stop-color="#ab750f"/><stop offset="1" stop-color="#d8a956"/></linearGradient><linearGradient id="D" x1="388.098" y1="26.924" x2="239.728" y2="26.924" href="#M"><stop stop-color="#5d3d00"/><stop offset=".544" stop-color="#ab750f"/><stop offset="1" stop-color="#d8a956"/></linearGradient><linearGradient id="E" x1="140.512" y1="13.997" x2="-7.858" y2="13.997" href="#M"><stop stop-color="#d8a956"/><stop offset=".544" stop-color="#ab750f"/></linearGradient><linearGradient id="F" x1="242.488" y1="13.997" x2="390.858" y2="13.997" href="#M"><stop stop-color="#d8a956"/><stop offset=".544" stop-color="#ab750f"/></linearGradient><linearGradient id="G" x1="146.512" y1="13.997" x2="-1.858" y2="13.997" href="#M"><stop stop-color="#d8a956"/><stop offset=".544" stop-color="#ab750f"/></linearGradient><linearGradient id="H" x1="236.488" y1="13.997" x2="384.858" y2="13.997" href="#M"><stop stop-color="#d8a956"/><stop offset=".544" stop-color="#ab750f"/></linearGradient><linearGradient id="I" x1="153.512" y1="13.997" x2="5.142" y2="13.997" href="#M"><stop stop-color="#d8a956"/><stop offset=".544" stop-color="#ab750f"/></linearGradient><linearGradient id="J" x1="229.488" y1="13.997" x2="377.858" y2="13.997" href="#M"><stop stop-color="#d8a956"/><stop offset=".544" stop-color="#ab750f"/></linearGradient><linearGradient id="K" x1="41.94" y1="33.532" x2="-6.672" y2="24.953" href="#M"><stop stop-color="#b47f1d"/><stop offset="1" stop-color="#ab750f"/></linearGradient><linearGradient id="L" x1="341.06" y1="33.532" x2="389.672" y2="24.953" href="#M"><stop stop-color="#b47f1d"/><stop offset="1" stop-color="#ab750f"/></linearGradient><linearGradient id="M" gradientUnits="userSpaceOnUse"/></defs></svg>