<svg xmlns="http://www.w3.org/2000/svg" width="393" height="162" fill="none" xmlns:v="https://vecta.io/nano"><g clip-path="url(#T)"><path d="M0 131.978v-14.664l83.586-35.927v14.664L0 131.978z" fill="url(#E)"/><path d="M393 131.978v-14.664l-83.586-35.927v14.664L393 131.978z" fill="url(#F)"/><path d="M25.112 0H35.56h20.896 41.793 49.125 24.563l24.562 8.256L221.062 0h24.562 49.125 41.793 20.897 10.448l10.448 8.249v8.249 16.497 32.995 65.989l-68.921 29.328H253.69 139.309 83.585l-68.922-29.328V65.989 32.994 16.497 8.249L25.112 0z" fill="#212121"/><g opacity=".35" fill="#ffc502"><path d="M152.518 41.033c-.746.163-.406.435-.751.64-.501.296-.763.295-1.787-.038l-.017-.016c.373-.07.479-.176.479-.298.183-.018.256-.055.211-.112.412-.062.557-.173.635-.295l-.022.008 1.274.081-.016.029h-.006zm-5.477 18.002l.2.205.022.394-.15.226c-.473.055-.946.072-1.425.008l-.117-.638c.095-.063.111-.129.061-.197.167-.038.217-.086.156-.145l.651-.073.602.221v-.002zm-59.393 2.846c-.284-.252.334-.42.668-.615h.011l.696.005c.045.063.078.13.095.197l.106.221.496.189c-.011.06-.022.122-.022.182l-.646.057-.735.05c-.111-.036-.106-.072.017-.104-.078-.109-.351-.153-.679-.181l-.006-.002zm164.545-9.356c.941-.088 1.559-.036 1.486.303-.033.166-.1.331-.156.495l.017-.005c-.679.032-.829-.182-1.308-.244.111-.062.072-.114-.123-.155l.101-.401-.017.007zm-49.078 25.847c-.907-.138-.724-.28-.017-.422.368-.02.563-.093.674-.192.451.006 1.069-.005 1.152.142.14.233-.606.236-1.141.275-.373.021-.562.096-.668.195v.002zm-4.537 19.77v-.01c.696.29.947.565-.317.786l.022.007c-.323-.184-.863-.35-.556-.586l-.09.029.941-.225v-.002zM81.302 45.496l-.429.142c-.345.153-.824.226-1.331.106-.529-.127-.256-.277.117-.404l.406-.148-.022.003c.635.02.829.204 1.275.295l-.017.008v-.002zm59.599 2.337l-.735.011c-.089-.161-.045-.34-.668-.43.028-.13.044-.298.54-.319.785-.033.729.192.907.335l-.05.402h.006zm142.834 13.415h-.902l-.245-.388 1.375-.194-.022-.005.596.391.083-.015-.885.208v.002zM45.413 51.344l-.017.062c-.618.135-1.28.122-1.959.054l.083.023c-.228-.194-.217-.388.017-.581l-.083.033c.974.003 1.52.184 1.954.41h.006zm58.184 34.538c-.15-.391-.339-.782.206-1.163h.178c.184.397 1.064.813-.384 1.163zm104.93 45.906l.011.252c-.624.105-1.27.105-1.926.031l.072.025.039-.358-.072.022c.634-.073 1.263-.065 1.87.028h.006zm-51.171-7.01l-.807-.186c-.329-.101-.602-.237-.095-.34a1.64 1.64 0 0 1 1.074.132l-.172.392v.002zm61.637-68.193c1.893.124 2.126.221 1.43.604l-.734-.202h.005l-.707-.197-.011-.003c0-.068 0-.135.017-.204v.002zm115.689 33.204l-.362.539.039-.007-1.247-.189.039-.274a3.33 3.33 0 0 0 .551-.094l.986.024h-.006zM187.178 21.785l-.022.767c-.373.026-.646.005-.685-.125-.033-.171.156-.368-.629-.446l.022-.203-.033.01 1.353-.002h-.006zm117.51 83.04c.885.043.601.261.729.417l.173.215-.212.029-.161-.05c-.145.019-.295.023-.451.006-.785-.042-.668-.224-.685-.386.318-.052.59-.112.602-.232l.005.001zm-239.797.557v-.083l.635-.261c1.197.031 1.631.156.663.459l-1.297-.115zm258.262-19.5h-.223l-.367-.381c.144-.037.206-.083.189-.14l1.33-.101-.033.419-.896.202v.002zm-80.642-1.834v-.163l.657-.225h.011l.991-.176.089-.003.34.386-.022.007c-.368.023-.602.086-.696.195l-1.37-.021zm-93.338 15.473c-.223.122-.535.215-1.013.138-.346-.054-.273-.163-.123-.256l.457-.257.69-.011-.006.386h-.005zM96.46 72.511c-.178.031-.373.093-.523.085-.384-.023-.507-.119-.29-.212.089-.038.44-.062.568-.041.145.025.167.109.245.168zm44.43 5.592c-.379-.01-.618-.07-.563-.182s.34-.163.691-.132c.161.015.356.075.395.124.089.114-.162.173-.523.191zm74.584-61.008c.133.06.156.125.061.192.045.047.028.093-.044.135.122.033.144.072.072.114-.406-.109-.88-.059-1.336-.049l-.072-.401 1.313.005.006.003zm-6.921 65.748c-.517-.018-1.124-.029-1.013-.241.073-.133.579-.148.997-.156l.016.397zM178.21 18.518c-.234 0-.462 0-.696-.002.017-.145-.306-.192-.707-.217a.59.59 0 0 1 .039-.191l1.353-.018c.868.14.1.283.011.427zm-2.729 1.689c.128.044.373.088.373.132 0 .119-.306.169-.657.124-.134-.018-.256-.116-.212-.163.039-.041.323-.062.501-.091l-.005-.002zm-65.917 2.839c-.172.029-.367.09-.518.081-.373-.023-.495-.116-.284-.207.084-.036.429-.059.557-.037.139.024.167.106.245.163zm81.8 3.203l-.039-.405c.534.018 1.23.006 1.108.243-.073.142-.629.155-1.069.163zM66.032 90.215c-.167.034-.34.101-.49.098-.395-.011-.551-.103-.362-.204.078-.041.429-.075.573-.057s.189.106.278.163zm109.176-57.016c-.167.034-.34.099-.49.094-.384-.015-.54-.106-.367-.203.072-.039.423-.068.568-.05s.194.104.289.16zm-82.021.77c.033-.133.072-.301.579-.317.829-.028.757.179.791.342l-1.375-.023.005-.002zm221.733.698c.151.02.418.029.49.068.167.088.045.178-.289.204-.145.011-.44-.024-.507-.063-.145-.085-.067-.169.306-.209zM94.562 92.656c-.679-.086-.718-.259-.674-.441 1.069.034 1.659.133.674.441zm165.213.578c-.006-.133.022-.301.501-.326.774-.041.829.155.879.321l-1.386.005h.006zM57.792 40.897l-.2-.01-.2.008-.178-.394.011-.003.841-.186a2.04 2.04 0 0 0 .373 0l.167.392-.818.192h.005zm302.932 1.609c.061.174.011.334-.596.428l-.768-.233-.017-.35.679-.028.022.005.68.176v.002zM84.186 44.775c-.612.132-1.225.267-2.06.199-.006-.062-.006-.124 0-.186l.707-.212-.017.005 1.358.018c-.011.059 0 .119.017.178l-.006-.002zM57.22 97.711l.022-.405c.44.008 1.002.02 1.074.16.128.233-.568.225-1.097.246zm2.789-51.329c.039-.129.045-.298.551-.314.791-.026.763.178.807.339l-1.364-.023.005-.002zm160.269 52.75l1.476.002-.045.404-1.169-.011-.262-.396v.002zm-80.787-51.514c.006.176-.083.337-.695.422-1.108-.334-.201-.378.695-.422zm3.881 53.123h-.857l-.19-.378-.044.013 1.347-.008-.028-.008-.228.381zm121.218-50.47c-.512-.023-1.302-.028-1.096-.23.228-.221.779-.119 1.124.029a1.16 1.16 0 0 1-.033.2h.005zm-91.274 51.664c-.15-.038-.4-.069-.439-.113-.095-.12.172-.19.551-.182.389.008.545.104.417.204-.055.044-.345.061-.529.091zm72.185.239c.15-.039.3-.109.451-.109.406 0 .567.091.417.194-.061.039-.395.075-.551.062-.139-.012-.211-.096-.312-.147h-.005zm-19.595-49.317c-.35-.028-.517-.101-.4-.195.05-.039.328-.081.489-.078.362.01.501.098.396.191-.045.039-.318.055-.485.083zm-50.04 51.338c-.078.052-.106.132-.24.155-.306.049-.618.014-.701-.088-.039-.046.083-.134.222-.155.307-.049.574-.006.724.09l-.005-.002zm102.547-48.596l.045.402-1.342-.086c.033-.057-.022-.106-.156-.148a1.65 1.65 0 0 0 .1-.199l1.353.031zm-147.216 49.444l-1.375-.014v-.383h1.364l.016.396-.005.001zm90.551-48.896c.607.02 1.225.028 1.475.238l-.078.02-.707.179-.322-.003h-.323l-.713-.217.668-.217zm-113.314 49.128l1.325-.031c.006.13.039.306-.418.337-.751.052-.84-.14-.913-.306h.006zm71.847.841c.133.044.378.088.378.132 0 .121-.306.171-.662.126-.139-.018-.256-.118-.217-.166.033-.041.322-.062.501-.092zm-108.599 2.582c-.434-.012-1.024-.002-1.085-.15-.095-.225.596-.23 1.141-.253l-.05.403h-.006zm-8.99.28c0 .092.011.185.017.278l-1.331.059.006-.398 1.308.059v.002zm221.883.744c.072-.164-.189-.384.768-.402l-.011-.003.624.286v.043l-1.214.195c.061-.054 0-.093-.167-.119zm-119.459.029l1.33-.027c0 .13.034.306-.423.337-.751.05-.835-.144-.907-.308v-.002zm13.094 1.197c-.518-.024-1.32-.023-1.114-.231.223-.223.791-.124 1.169.019l-.05.212h-.005zm164.416 8.559l.707.21c.257.086.234.194-.011.265-.512.153-.796-.027-1.069-.097-.406-.105-.128-.246-.061-.373a2.23 2.23 0 0 0 .44-.005h-.006zM34.585 82.622c-.479-.36-.033-.467 1.163-.368l-.017-.008c.006.065.028.132.072.195v.003l-.796.191-.2-.029-.217.015-.006.002zM355.229 46.4l-.033-.397c.534-.008 1.007.024 1.324.166l-.69.236-.3-.006h-.301v.002zm-291.869.471c-.072.111.25.273-.329.314-.223.015-.529-.08-.796-.124h-.089l.902-.225c.072.039.173.05.312.034zm4.938.335c-.033-.155.139-.285.562-.383l.813.191c-.039.057-.05.116-.033.173l-1.342.02zM51.742 86.711c-.011-.116-.1-.269.44-.275.456-.005.657.122.685.256l-1.125.02zM286.038 53.34l-.133-.225c.106-.05.172-.106.189-.164l.568-.024.724.241c-.051.034-.051.07-.012.106l-1.336.067zM269.45 90.575l.724.215-.718.205-.011-.003-.685-.199-.017-.005c0-.068.011-.137.011-.205l.685-.008h.011zm65.672-30.117a1.41 1.41 0 0 1 1.174-.099c.29.104-.061.225-.451.295l-.729-.195h.006zm-98.884 35.001c-.579.008-1.269.086-1.37-.195l.012-.005.762-.191h.551l.023.396.027-.005h-.005zm-187.815.231c.345-.052.579-.22 1.074-.111.117.024.139.138.05.182-.312.147-.768.064-1.175.039.111-.032.128-.07.05-.111zm281.171.604c-.078-.173.095-.311.601-.409l.774.212c-.022.052-.028.104-.011.156l-1.358.041h-.006zm-114.733.601c-.312-.023-.841-.024-.897-.073-.239-.207.39-.259.858-.332l.039.405zm-104.406 35.627c-.44-.071-.774-.184-.356-.307a1.41 1.41 0 0 1 1.046.102l-.69.205zM49.432 98.478c-.729-.156-.518-.344-.206-.536l.067-.008c.529.176.468.365.111.557l.028-.015v.002zm80.384-73.865a2.35 2.35 0 0 0-.011-.205l.713-.192c.64.075.684.235.673.404l-1.375-.007zm-39.858 1.25l.29-.007.841.205c-.033.05-.039.103-.017.153l-1.353.039h-.006l.251-.391h-.006zm137.251 7.508c-.484.005-.913-.032-1.252-.137l.801-.251.301.005.145.383h.005zm58.513 41.019c-.178.026-.373.08-.523.072-.368-.02-.496-.109-.318-.204a1.69 1.69 0 0 1 .518-.023c.156.029.223.101.328.155h-.005zm-119.27 35.123l-.752-.197.056-.213 1.375.019c-.017.163-.084.316-.679.391zm-29.02 23.433l-1.347-.052c.045-.039.045-.08-.005-.119l.729-.246.49.002.167.402-.034.013zm45.603-23.434l.685.001c0 .129.234.189.662.191l.251.086c-.095.041-.156.087-.19.134l-1.213-.017-.206-.394.017-.003-.006.002zM81.43 76.52c-.011-.062-.011-.124-.011-.186l.735-.199-.022.008.317.005.317-.003v-.011l.022.401-1.369-.015h.011zm184.585 33.827c.434-.08.729-.238 1.352-.215.097.293-.345.416-1.325.37.051-.053.039-.105-.027-.155zM246.486 77.54c-.094.055-.139.138-.289.158-.139.018-.379-.029-.579-.049.111-.055.184-.122.339-.161.223-.059.429-.033.529.052zm1.499-37.442l.746-.226.679.015v.212l-.668.2-.023.007-.734-.209v.002zm-197.663.411l1.331.223c-.072.041-.078.081-.011.124l-1.331.057.033-.405-.017.003-.005-.002zM321.995 79.38c.339-.134.774-.264 1.208-.065.25.114-.111.23-.557.277l-.651-.212zm-194.978 50.524c-.022.057-.017.113.022.17l-.968.189-.479-.186c.022-.067.044-.134.078-.2h-.006l1.353.027zm29.76-48.694c.245-.127.623-.218 1.035-.103.418.117.1.231-.301.309l-.734-.207zm-15.882 38.096l-1.381-.03c.518-.217.991-.25 1.381.03zm145.818-.239c-.373 0-.752-.028-.64-.163.128-.163.451-.093.723-.021-.044.06-.072.122-.083.184zM174.084 19.121l-.017-.399.685-.002v.217c.017.062 0 .124-.067.184h-.3-.301zm-2.8 1.63l1.375.008c0 .059 0 .117-.011.176l-1.364.02a.63.63 0 0 1 0-.203zm-64.274.417l1.375-.008v.212l-1.37-.029a1.73 1.73 0 0 0-.011-.176l.006.002zm-36.703 95.888l.095.405c-.251 0-.495-.002-.746-.003l.089-.402h.562zm89.504-94.3l-.307-.379c1.604-.018.479.233.435.378h-.128v.002zm50.898.656l1.252.073.039.024-1.286.075c-.011-.059-.011-.116 0-.174l-.005.002zm-.925 2.822c-.339-.15-.74-.303.212-.391l-.212.391zM75.25 27.667c-.039-.166-.039-.326.629-.391 0 .16-.039.314-.629.391zm58.051 1.459l1.353-.031v.218l-1.369-.034a.36.36 0 0 0 .016-.153zm34.538 1.2l1.375-.003v.205l-1.375-.011v-.189-.002zm70.459 2.438c-.741-.148-.902-.287.078-.406l-.078.406zm-116.057.843c.501.01.779.09.684.234-.061.096-.367.135-.701.134l.017-.368zm239.818 1.782c-.607-.038-.985-.129-.479-.296.19-.062.496.037.624.117-.084.057-.134.117-.145.179zm-175.516.26l1.33-.028c0 .072.012.142.012.213l-1.364-.046c.022-.046.028-.093.022-.14zM127.74 38.06l1.325.034c0 .046.005.091.027.137l-1.358.042v-.215l.006.002zm-6.206.62l1.369-.013c.012.067.006.133-.005.202l-1.359-.02v-.169h-.005zm22.796 1.008l.005-.405h.651l.023.404h-.34-.339v.002zm106.46-.206l.707-.008-.017.415a5.45 5.45 0 0 1-.668-.021l-.022-.388v.002zm3.467 1.629l-.016-.405c.796.132.785.269.016.405zm-136.899.397l1.325.055c-.017.038-.011.075.028.112l-1.348.065-.005-.233zm-26.265 2.456l.022-.404c.746.138.768.274-.022.404zm226.772-.399c.968.025.768.213.634.392-.412-.018-.612-.103-.774-.204a1.01 1.01 0 0 0 .151-.195l-.017.005.006.002zM70.774 114.444l.278.366c-1.052-.036-.529-.218-.395-.364h.117v-.002zM194.805 45.98l-.067.417c-.735-.15-.718-.288.067-.417zm158.404.295c.512-.028 1.158-.166 1.286.132h-.005l-1.314-.08.033-.052zM68.392 48.631l-.134-.396.017-.005.707-.008.05.013-.167.401-.473-.007v.002zm220.403 65.152l-1.37.011v-.213l1.37.025v.177zM35.743 49.872l.156-.397.479-.007.139.402-.779.003.006-.002zm316.012.195l.056-.392.546-.008.144.407-.751-.007h.005zm-228.858.409l1.381.003-.006.191-1.369.01v-.203h-.006zm-33.151 3.459v-.399c.813.133.813.265 0 .399zm5.468.384l-.635.044a1.69 1.69 0 0 1-.796-.116l.79-.127c.189-.016.423.015.635.026a.19.19 0 0 0 0 .174l.005-.002zm-46.295.024l1.369.016-.662.213c-.373-.041-.623-.112-.707-.23zm125.828 2.855h1.375v.192l-1.375.005v-.199.002zm114.053.609l.056-.402.517.003.123.397-.696.003v-.002zm-33.84 54.558l-.062.405c-.774-.145-.868-.282.062-.405zm-8.423.136l-1.264.057c-.011-.058-.016-.119 0-.177l1.297.067-.033.052v.001zM84.468 58.587l-.267-.173c-.184-.112.067-.207.334-.207.262 0 .512.093.317.205-.1.057-.178.116-.267.173h-.117v.002zm90.496.196l-.217-.365c.228-.007.451 0 .673.021.017.133-.116.251-.456.344zm-71.417.248l1.364.007-.006.168-1.347.01a.4.4 0 0 1-.006-.182l-.005-.002zm207.399.404c-.685-.067-.668-.234-.668-.401l-.011.003.595-.005.084.402zm24.193-.195l1.369-.005a.61.61 0 0 1 0 .2l-1.375-.013v-.181l.006-.002zm-135.487.803l-.022-.404c.88.13.874.265.022.404z"/><path d="M200.271 60.618c-.74-.042-.762-.199-.673-.371.801.034.685.212.673.371zm-107.096.446c-.868-.134-.846-.27-.011-.407l.011.407zm-59.448-.199c.69.063.685.226.635.394-.579-.08-.64-.231-.635-.394zm179.853 3.848c-.017-.116-.373-.317.095-.324.879-.013.267.207.339.324h-.217-.217zm-88.557.822l-.045-.399c.958.124.813.259.045.399zm56.66 1.45l1.364-.016v.205l-1.37-.015.006-.174zM39.25 69.411l1.375.007-.006.182-1.369.02v-.209zm67.058.407l.005-.405h.657l.039.407h-.701v-.002zm102.435.684l1.253-.067c0 .059-.006.116-.011.174l-1.292-.062.05-.046zm-169.521.943c-.88-.127-.757-.262-.039-.4l.039.4zm217.797.006l1.375-.005v.205l-1.381-.005v-.195h.006zm1.353.812l.061-.378c.741.135.88.264-.061.378zm-221.817.805l-.1-.402.707.003-.106.397-.251-.003-.256.003.005.002zm223.248.415c-.997-.112-.763-.252-.112-.404l.112.404zm-48.405.01c.418-.015 1.041-.028 1.019.109-.017.112-.679.104-1.102.09a.44.44 0 0 0 .089-.199h-.006zm4.822.805c-.835-.124-.741-.26-.056-.402l.056.402zm35.95-.409l1.375.005c0 .06 0 .121-.011.181l-1.37.026v-.212h.006zm-173.902.987l-.278-.37-.017.003.34-.008h.345c.139.148-.128.264-.334.384l-.056-.01zm4.493 2.483l.05.407c-.757-.129-.79-.264-.05-.407zm169.453.028c.802.132.835.257-.044.371l.044-.371zm-189.461.374a.4.4 0 0 1 0 .199l-1.369-.016.69-.204.674.023.005-.002zm108.152 1.186c-.15-.147-.751-.332.373-.366l-.017-.005-.306.379-.05-.008zm-96.367-.15l1.347-.016c.028.065.028.132 0 .197l-1.358-.029c.006-.05.006-.101 0-.151h.011zm128.628.36l-.062-.379.73-.005c.167.186.156.345-.663.384h-.005zm76.661-.378l1.369.003v.187l-1.381.015.006-.204.006-.002zm-149.977.227l1.347-.029v.207l-1.353-.036a.25.25 0 0 0 .006-.143v.002zm-90.611.37l1.358.033c-.011.049-.011.098 0 .146l-1.353.039-.011-.003-.022-.207.022-.008h.006zm5.56.009l-.039.401c-.729-.059-.751-.22-.657-.397l.696-.003zm275.064.202l1.414.02a.87.87 0 0 0 0 .161l-1.352.018c-.017-.065-.034-.132-.062-.199zm-213.589 1.222c-.729-.138-.768-.273.022-.404l-.022.404zm87.829-.405l-.084.42a7.18 7.18 0 0 0-.529 0l-.083-.42h.696zm-99.552.816l.05-.402h.568l.089.402h-.707zm159.01-.002l.011-.404h.613l.028.401h-.323-.323l-.006.003zm78.11.204l1.38.005v.194l-1.375.003a1.36 1.36 0 0 1 0-.202h-.005zm-215.677 1.229l1.32.031c0 .049.011.098.039.146l-1.375.042c0-.073.011-.147.016-.22zm8.991 26.05l-.145.386c-.54-.148-.746-.285.145-.386zm43.683-21.394l-.15-.389h.005l.696-.002h.006l-.173.397-.189-.008h-.195v.002zm-55.446.226l1.375-.003v.197l-1.369-.007v-.189l-.006.002zm208.846 1.203c.239-.182.729-.213 1.313-.192 0 .075.012.15.017.225l-1.38-.038.05.005zm-164.601 19.357l-1.347-.029c.017-.047.017-.093-.006-.14l1.359-.044.016.007c0 .068-.011.138-.016.206h-.006zM84.852 89.36c-.74-.14-.785-.275.028-.405l-.028.405zm-5.526 18.517l-1.369.018c.417-.258.879-.236 1.369-.018zm-6.336-.077l-.946.046c-.329-.02-.323-.119.011-.134.295-.013.623.038.935.059v.028.001zm27.211-16.829l-.139-.391.017-.003.696.008c.033.158-.045.301-.574.384v.002zm-4.253-.174l1.353.005a.84.84 0 0 1 0 .168l-1.358.011a.41.41 0 0 1 0-.184h.005zm143.079-.015l1.291.028c-.245.173-.735.205-1.297.195l.006-.223zM91.823 92.439c.418-.018 1.085-.039 1.08.081s-.662.096-1.08.075v-.158.002zm34.62 1.386l-.134-.396c.902.108.791.244.134.396zm115.345.426l.062-.401c.707.143.751.277-.062.401zm-98.939 1.212c-.596-.153-.908-.3.145-.402l-.145.402zm53.43.686c.529-.062 1.135-.186 1.23.125l.028-.007-1.28-.07.022-.047v-.002zm111.209 1.977l1.369-.008c-.44.238-.896.233-1.369.008zm-113.976.671l.629-.054c.418-.041.579.018.512.129-.05.083-.267.091-.523.052-.189-.029-.412-.041-.623-.06v-.065l.005-.002zm-44.334.34l.701-.008.178.212-.885.182.006-.386zm146.475 4.485c.066.128.122.334-.279.334-.395 0-.339-.206-.272-.334h.551zm-2.689.809c.345.018.891-.06.868.132 0 .024-.562.042-.868.064-.017-.066-.017-.131 0-.196zm-61.568 1.221l.105-.4c.679.15.869.288-.105.4zm40.881-.009l-.033-.398h.657v.401h-.312-.312v-.003zm-99.39.996l-.206-.376c1.057.029.534.223.445.373l-.234.003h-.005zm64.77 29.14l-.045.404h-.573l-.067-.4h.685v-.004zm-76.739-.407l-.094.394-.501.005-.112-.401h.707v.002zm-6.913-5.089l-.089.394-.49.005-.123-.399.011-.003.696.005-.005-.002zm-12.453-1.818c-.485.2-.947.229-1.37-.018l1.37.018zm17.318-.831l-.173.389h-.2l-.195.008-.184-.397h.752zm24.678-.378l.172.378c-.2 0-.401-.002-.601-.003l.156-.385.273.01zm-58.591-.221c-.473.215-.93.223-1.369-.01l1.369.01zm69.156-.205c1.013.016.741.216.646.391l.022-.005a8.19 8.19 0 0 1-.634-.023l-.034-.363zm-127.329-1.01l.161.396c-.251 0-.495-.002-.746-.003l.156-.396.423.005.006-.002zm-24.779-1.042l-1.364.005a.43.43 0 0 1 .006-.189l1.347.005a.97.97 0 0 1 .011.179zm171.409-2.019l-.184.369-.239.012-.251-.391.017-.003.674.018-.023-.005h.006zm-138.391-.188l.161.38h-.323-.323l.122-.394a1.81 1.81 0 0 0 .356.014h.006zm3.546-1.434l.117.394c-.896-.109-.768-.246-.117-.394zm71.996-.209c.996.018.835.205.662.394-.729-.057-.673-.229-.662-.394zm20.057-106.264c.166.02.46.031.482.059.089.114-.21.12-.493.119a.62.62 0 0 1 .011-.177zm62.187 2.422c.468.002.707.072.713.21-.418-.016-.657-.086-.713-.21zm-32.488 1.426c-.301.005-.612 0-.523-.12.022-.029.328-.042.506-.062a1.02 1.02 0 0 1 .017.182zm51.142 1.43c.022.138-.195.207-.668.2.034-.122.256-.189.668-.2zm-132.691.627a5.68 5.68 0 0 1 .646-.013c-.011.127-.217.197-.668.192-.006-.06 0-.12.016-.179h.006zm114.716 3.633c-.273-.005-.607 0-.512-.119.022-.029.334-.039.512-.057a.33.33 0 0 1 0 .176zm-11.05 1.024c.512-.011.74.062.706.21-.434-.011-.668-.083-.706-.21zm-100.921.21c-.078.112-.306.178-.685.2.084-.109.318-.176.685-.2zm21.431.002c.318-.003.669-.003.574.129-.022.031-.368.042-.562.062l-.012-.191zm58.079 2.452c.189.02.518.029.54.059.095.125-.245.125-.545.127-.012-.062-.012-.124 0-.186h.005zM47.55 29.51c.373.024.601.091.685.202-.367-.026-.596-.093-.685-.202zm-4.166 2.226c-.593-.062-.582-.122 0-.182a1.01 1.01 0 0 1 0 .182zm113.393 3.879v-.202h.69c0 .063 0 .125-.011.189l-.668.007v.008l-.011-.002zM38.541 39.471l-.494-.09.494-.09c.011.059.011.119 0 .178v.002zm213.635.02h-.729c-.017-.147.228-.21.712-.2 0 .067.012.132.023.199l-.006.002zm-110.597.2l.657.01a.5.5 0 0 1 .006.181c-.384-.015-.601-.08-.668-.192l.005.002zM91.11 41.122l.557.059c.1.13-.256.127-.557.129a.53.53 0 0 1 0-.187zm-37.292.606l.646-.007c.017.142-.217.208-.696.204-.011-.067.006-.132.05-.197zm80.151 1.021c.373.02.59.083.657.194-.356-.024-.573-.09-.657-.194zm-75.376 2.627c-.266-.002-.566-.007-.477-.117.022-.028.311-.039.471-.057a.35.35 0 0 1 .005.173v.002zm14.514 2.864c-.011.129-.223.2-.674.204.05-.117.273-.186.674-.204zm163.855.811l-.54-.085.512-.094c.016.06.022.12.028.179zm-118.226 2.84c-.26 0-.543-.008-.465-.112.022-.028.294-.039.449-.059.016.057.022.114.011.171h.005zm59.468.011v-.204h.69l-.005.192-.68.01-.005.002zm52.51.184c-.166-.02-.455-.031-.477-.06-.083-.112.205-.122.494-.117 0 .06 0 .119-.017.179v-.002zm-67.702 2.257c-.028-.14.195-.21.679-.204 0 .068-.022.134-.089.197l-.596.005.006.002zm64.965.209c.39.02.624.086.691.202-.368-.028-.602-.093-.691-.202zM51.68 55.965l-.534-.088.523-.09c.011.059.017.119.005.178h.006zm154.179-.19c.44.003.663.07.679.199-.222 0-.445-.006-.668-.023a.96.96 0 0 1-.016-.178l.005.002zm40.021.614c-.061.047-.095.132-.184.137-.367.024-.356-.065-.373-.138h.562l-.005.002zm65.733-.007c-.017.13-.239.203-.69.208.061-.117.289-.189.69-.208zm-219.128.614l.757.101c-.178.081-.429.114-.751.093v-.194h-.006zm157.631 1.215c0-.132.195-.21.68-.204-.006.062-.017.124-.028.186a4.28 4.28 0 0 1-.663.013l.011.005zm-86.42.625c.277 0 .554.013.46.119-.022.029-.3.039-.455.059a.33.33 0 0 1 0-.176l-.005-.002zm37.342 1.027c.166.02.46.031.483.06.083.114-.228.114-.5.116 0-.059 0-.117.017-.174v-.002zm-55.317.395c.189.02.529.031.551.062.1.129-.245.132-.556.132l.005-.194zm71.896.817c.289 0 .623 0 .529.122-.023.029-.346.039-.529.057a.32.32 0 0 1 0-.179zm47.669 5.061c-.172-.018-.479-.028-.501-.055-.089-.117.234-.114.501-.117a.3.3 0 0 1 0 .173zM52.409 67.357a.35.35 0 0 1-.017-.184c.484-.007.74.055.702.204-.228 0-.456-.005-.685-.02zm62.205.836l.657.015a.3.3 0 0 1 0 .173c-.395-.008-.618-.07-.663-.186l.006-.002zm41.423 1.833c-.011.081.005.181-.407.155-.094-.007-.128-.099-.189-.153h.596v-.002zm121.708.608c-.017.129-.245.197-.685.202.061-.116.29-.184.685-.202zm2.086.816l.663.013c.011.064.022.127.022.189-.451-.003-.663-.075-.685-.204v.002zM68.286 73.485c.384.018.596.086.662.197h.017a13.27 13.27 0 0 1-.674-.008l-.006-.189zm99.558 1.228c.278.005.612 0 .523.12-.022.029-.334.039-.518.059-.011-.06-.016-.119-.011-.179h.006zm19.362 2.039l.662-.008c-.072.109-.284.177-.668.194l.006-.186zm-65.689 1.82v-.204h.69v.204h-.345-.345zm181.14.834c.178.02.484.029.501.059.083.119-.234.119-.518.117-.006-.059 0-.117.011-.176h.006zM44.765 84.057c-.261-.005-.582-.002-.493-.116.022-.029.316-.039.488-.057a.31.31 0 0 1 0 .174l.005-.002zm312.485 2.252c.462-.005.657.068.646.199-.401-.013-.612-.081-.646-.199zm-266.128.425c.328.002.64.023.507.145-.033.031-.356.036-.545.052a1.22 1.22 0 0 0 .033-.197h.005zm223.309.394l.54.103-.563.093a.27.27 0 0 1 .023-.195zM91.143 88.136c.223-.194.434-.173.64.003-.212 0-.423 0-.64-.003zm99.486-.007c.451.011.662.086.696.215-.401-.024-.618-.099-.696-.215zm22.801.603c-.306-.003-.612-.023-.484-.14.033-.031.339-.036.523-.052-.017.064-.028.129-.033.192h-.006zM74.515 92.011l.662.013a.52.52 0 0 1 .017.184c-.468.007-.69-.06-.679-.199v.002zm-35.265.811c.473-.003.707.065.696.205a9.43 9.43 0 0 1-.651-.016l.011.003a.29.29 0 0 1-.056-.192zm35.956 1.023l.488.088-.471.093a1.01 1.01 0 0 1-.017-.181zm-13.127.417l.662-.01c-.056.114-.267.179-.662.187-.011-.059-.011-.117 0-.178zm60.835 35.206c.072-.113.295-.179.679-.2-.089.105-.312.174-.679.2zm-51.86-.199c.445.005.707.067.724.204-.395-.02-.651-.084-.724-.204zm163.128-8.771l-.51-.096.521-.091c0 .062 0 .126-.011.187zm-68.404 7.563c.173.018.474.027.496.055.089.116-.228.116-.501.117-.017-.058-.011-.115 0-.174l.005.002zm67.053-1.632c.166.018.444.026.471.055.106.106-.199.114-.454.129-.028-.062-.034-.122-.023-.184h.006zm65.015 9.764l.546.103-.579.081c-.011-.062 0-.124.033-.184zm-62.977-9.997c-.178-.019-.484-.031-.507-.06-.089-.119.245-.117.524-.122 0 .06 0 .122-.012.182h-.005zm-84.322-13.83c.373.025.596.091.668.202-.367-.024-.584-.094-.668-.202zm-78.804 12.825c.462.004.712.069.724.209-.412-.018-.662-.085-.724-.209zm75.342-18.936c-.378-.019-.601-.086-.679-.197h-.005l.679.01v.187h.005zm-20.063 4.061l-.329.015h-.334c.028-.124.245-.192.68-.197 0 .06 0 .122-.017.182zM62.77 124.392l.69.112-.718.091a.85.85 0 0 0 .028-.203zm226.721-19.357l-.334.003-.329-.014c-.017-.062-.022-.126-.017-.187.474-.007.68.066.68.198zm-45.604-.394c.29 0 .618 0 .523.121-.022.029-.339.039-.517.057-.017-.059-.017-.119-.006-.178zm-2.082 25.239c.456 0 .701.062.701.2-.412-.015-.651-.08-.701-.2zM46.804 102.397c.039.065.056.131.044.196-.401-.017-.635-.082-.679-.201l.635.005zm177.059-.213c0-.078.022-.165.39-.14.094.006.133.089.2.137l-.295.005h-.295v-.002zM66.884 123.345l-.662.015c.028-.124.251-.189.674-.194.005.06 0 .119-.011.179zm-9.665-22.996c.189.017.506.024.54.055.123.122-.184.143-.512.142a1.19 1.19 0 0 0-.022-.197h-.005zm173.535-1l.471.09-.471.09a.49.49 0 0 1 0-.179zm111.254 21.146c-.462.013-.629-.06-.634-.184.44-.008.618.065.634.184zm-44.223-15.865c.028.128-.044.252-.412.334-.133.029-.423.04-.568.019-.473-.07-.083-.143.051-.21.1-.054.244-.101.372-.15h.284l.279.008-.006-.001zm.022-.814c-.045.127-.095.254-.718.193-.095-.009-.245-.045-.234-.06.128-.151.495-.168.941-.135l.011.002z"/><path d="M296.443 105.441c.034-.087.155-.124.355-.103.006 0-.005.054-.055.065-.083.018-.206.023-.311.033l.011.005zm-1.453-.398l.395-.153c.412.161-.072.147-.378.165l-.017-.012zm2.795-.413l-.279-.01h-.284c-.039-.098.056-.169.44-.135.084.006.084.094.123.145zM50.239 96.271c.095.125.095.316-.273.321-.417.005-.445-.176-.362-.303l.635-.016v-.002z"/><path d="M50.239 96.271l-.635.016c-.072-.16.189-.22.701-.204.028.064.006.125-.061.187h-.006zm4.197-48.248c-.406.003-1.002.12-1.152-.055s.351-.327.946-.285c.573.042.161.225.195.345l.011-.005zm220.542 58.234c-.685-.022-.964-.121-.646-.316.128-.079.317-.083.495-.038.429.106.123.236.139.355h.006l.006-.001zm-122.37-63.933l-.54-.076.295-.082.228.161.017-.005v.002zm-64.214.61c.106-.171-.195-.409.796-.436.39-.011.596.073.618.169.033.145.329.342-.334.404-.284.028-.729-.093-1.097-.145l.017.008zM75.957 87.348l1.18.021c.044.15.406.366-.418.389-1.052.029-.835-.218-.763-.41zm194.167-12.66c.334-.031.612-.016.751.086.022.018-.1.075-.167.078-.378.015-.54-.054-.601-.153l.017-.011zm-48.271-4.025l.485.002c.05.251.428.503-.023.829-1.03-.287-.534-.568-.462-.83zm111.844 19.101c.022-.062.056-.124.089-.186.367-.026.59-.096.674-.204 1.074.093.807.246.222.415l-.985-.024v-.002zm2.822-.806c.373.024.596.094.691.202-.368-.026-.591-.096-.691-.202zM47.55 44.574c.935 0 1.52.103 1.408.412-1.481.055-1.542.037-1.408-.412z"/><path d="M48.246 45.597c-.468.002-1.085.14-1.28-.106-.089-.114.267-.184.557-.199.869-.046.651.166.735.303l-.011.003v-.002zm10.269 15.95l-.255.127c-.072-.021-.216-.049-.2-.065.039-.046.139-.086.216-.129l.238.065v.002zm174.299 7.457l-.556-.081.317-.091.239.174v-.002zM48.168 47.519c-.134.034-.312.116-.429.108-.284-.02-.54-.078-.807-.12l.818-.111c.106-.007.273.08.412.122l.006.002zm20.714-10.451c-.022.059 0 .116.067.171-.395.078-.568.298-1.225.197-.178-.028-.284-.181-.195-.252.245-.197.846-.13 1.353-.117v.002zm111.375-18.764l-.305-.086c.061.005.149.003.183.016.055.02.077.049.111.073l.011-.003zm-40.799 56.813c.011.127.212.272-.323.347-.078.011-.39-.057-.423-.101-.134-.176.273-.223.763-.243l-.017-.005v.002zm.707.804l-.328.003-.329-.003c.067-.112.29-.176.668-.197a.38.38 0 0 1 0 .195l-.011.002zm-24.85.609c-.028-.065-.034-.129-.006-.194.29.002.59.016.49.129-.028.031-.317.044-.484.065zm4.792-30.326c-.055-.103.034-.184.407-.21.067-.005.256.039.25.055-.039.109-.311.147-.645.156h-.017l.005-.002zm42.214-28.71l.322-.099c-.017.021-.011.05-.056.062-.072.018-.183.024-.277.036l.011.003v-.002zM48.902 48.207c-.072-.06-.067-.119.011-.179.846.033.612.199.501.349l-.256.005-.256-.005c-.017-.057-.017-.114 0-.171v.002zm76.762 61.513c-.023.09-.14.161-.485.168-.061 0-.195-.049-.178-.065.095-.096.351-.118.663-.103zm53.28 1.41l-.056-.394c.407 0 .824 0 .813.17-.011.14-.312.206-.752.224h-.005zM48.256 64.944c.462.023.835.075.69.239-.039.041-.34.104-.401.093-.473-.081-.267-.22-.273-.34l-.017.007v.002zm129.279.797l.646-.41c.479.044.835.138.718.288-.189.249-.857.129-1.369.124l.005-.002zm-32.059 61.045l-.439-.07c.072-.022.161-.066.222-.062.156.01.301.039.451.06l-.234.07v.002zm7.023-23.693l-.111.06-.299-.067.216-.059.2.066h-.006zm96.643 16.78l-.423-.07c.073-.021.167-.062.223-.059.156.012.295.041.44.062l-.24.067zm-110.635-17.508l-.401-.072c.072-.02.161-.06.217-.057.15.011.278.041.417.063l-.233.066zm-71.964-6.284c.066.042.155.085.188.129.011.016-.133.039-.205.06-.067-.042-.155-.085-.189-.129-.011-.016.133-.039.205-.06zm-8.806 25.297l.033.312c-.596.012-1.486.129-1.369-.197.078-.224.829-.128 1.342-.115h-.006zm188.459.202c.072 0 .161-.006.206.005.177.039.133.085-.128.116a.49.49 0 0 1-.189-.062c-.016-.015.067-.039.106-.059h.005zm-2.576 12.33l-.435-.072c.073-.021.162-.063.217-.06.156.01.295.039.44.06l-.228.07.006.002zm109.359-35.686c-.077.02-.161.055-.233.054s-.138-.041-.205-.064c.078-.02.161-.055.233-.054s.139.041.205.063zM160.811 64.61l-.122.072-.338-.075.233-.072.222.075h.005zm35.067 2.337l-.222-.038.244-.099c.072.024.205.049.2.072s-.145.044-.222.065zm118.896 29.517l-.244-.036.26-.099.239.07-.255.065zM66.188 51.081l-1.28-.016c-.028-.151-.317-.36.501-.381 1.041-.028.902.199.779.397zm125.21 53.975l1.213.015c.006.147.295.355-.501.378-1.085.029-.774-.214-.712-.393zm158.158.463l-.233.123c-.072-.021-.211-.048-.194-.065.033-.045.133-.086.205-.13l.222.07v.002zm-129.161 6.046l.488.07-.272.077-.199-.152-.017.005zm-105.11-73.504l.017.209c-.654-.064-.676-.134-.017-.209z"/><path d="M115.961 38.46l-.329.005h-.328l-.028-.207c.401.018.618.086.679.202h.006zm234.375 44.389h.696l-.017.404-1.369.005.696-.409h-.006zm-212.943 48.034l-.534-.07.289-.085.229.16.016-.005zm131.343-27.47l-.332.101c.016-.021.011-.052.061-.063.077-.018.188-.023.288-.035l-.011-.003h-.006zM52.415 83.653c-.039-.062-.045-.125-.006-.187l.546.093-.534.094h-.006zm145.835 20.571c.457.003.657.078.696.205-.484.007-.679-.073-.696-.205zm-38.006 4.488l.546.085c-.49.133-.457-.007-.529-.09l-.017.005zm143.113-34.831c.051-.114.256-.182.657-.194-.044.116-.261.181-.657.194zM140.188 84.475l.244-.174.312.094-.556.08zm-60.887 35.432l-.205.163-.294-.081.521-.075-.022-.005v-.002zM146.54 58.46a1.78 1.78 0 0 0 .406.003c-.016.147.535.371-.573.371l.173-.376-.006.002zm26.832 44.344l.529.087c-.518.145-.429-.018-.523-.088l-.011.003.005-.002zM48.062 49.616c-.384.016-.612.078-.674.192-1.603-.248.022-.345.267-.508.473.068.284.21.406.316zm207.577 71.909l.016-.395c.407.02.819.043.819.201s-.435.174-.83.194h-.005zM84.186 78.167c-.078.108-.295.176-.668.197.072-.111.29-.177.668-.197zm82.294-42.751l-.729.195c-.507-.007-1.019-.008-1.258-.177l.573-.228c.618-.015 1.425-.143 1.414.21zm174.153 65.965a.28.28 0 0 1 0 .189c-.178-.02-.479-.031-.506-.062-.101-.117.217-.124.506-.127zm-290.3 17.914c.701-.029 1.447-.106 1.859.157-.724.055-1.548.213-1.859-.157zM35.803 48.24l-1.275-.036.05-.324c1.041-.065 1.603.008 1.219.361l.006-.002zm94.659-.012l-.318.011-.317-.005c.011-.081.022-.174.412-.15.106.007.15.093.223.143zm173.534 55.596a.39.39 0 0 1 0 .192l-.472-.095.472-.096v-.001zm-8.299-15.283l-.328.007-.328-.005c.027-.085.005-.191.434-.163.105.007.144.104.217.16l.005.002zM186.47 22.427l-.668-.042.039-.404c.785.078.595.275.629.446zm40.144 90.964l.629.004c-.073.049-.117.131-.223.139-.373.024-.401-.062-.406-.143zm-50.537-94.868c.161-.044.234-.099.217-.165.212.01.384-.01.512-.059.406.024.729.072.707.216l-1.442.008.006-.002z"/><path d="M175.415 18.507l.746-.003c.094.176-.151.252-.757.226l.011-.223z"/><path d="M175.454 18.929l-.707.008v-.217l.712-.01-.005.218zm40.037-1.505c.072-.044.083-.09.045-.135.311-.01.673.031.629.109-.051.083-.412.083-.674.026zm-65.667 81.721l.022-.218.713.109-.735.109zm7.649-55.587h.668c-.223.176-.445.177-.668 0zm36.574 37.644l-.295.01-.295-.005.039-.383h.528l.023.378zm-83.614-56.574c.034.14-.056.264-.512.339-.072-.145-.507-.337.512-.339zm139.683 23.604c.061.171.234.358-.652.394-.044-.169-.467-.392.652-.394zm-201.213-.024c-.017.057-.017.114 0 .171-.545.085-.612-.028-.679-.143a4.65 4.65 0 0 1 .679-.028zm7.61 5.329c.1.181-.44.269-.668.401-.49-.026-1.091.02-1.286-.182.557-.146 1.097-.304 1.954-.216v-.002zm80.908 79.594c-.011.167-.045.328-.679.403-.011-.17 0-.334.679-.403zM155.38 83.05h-.334-.334c-.017-.067-.017-.132-.006-.199.373.023.601.09.679.2l-.005-.002zm6.88 12.61l-.312.01-.317-.003c0-.13.206-.202.668-.197.011.063 0 .127-.039.191zm68.473-76.944c-.429-.008-.64-.078-.679-.199.428.006.64.078.679.199zm-38.774 83.694l-.083.347-1.826.013-.056-.366a7.56 7.56 0 0 1 1.965.006zm19.445 16.885l1.375-.008-.05.399-1.269-.012-.056-.379zM83.528 76.139a5.79 5.79 0 0 1 .629 0l-.178.337h-.295l-.156-.335v-.002zm111.955-16.5h-.345-.345v-.204h.69v.204z"/></g><path opacity=".05" fill-rule="evenodd" d="M195.329 7.863l1.196 2.227.003.006.004.008.005.009.005.008.004.008.004.008c3.51 6.541 7.026 13.095 10.987 19.354 5.051 7.984 12.03 14.245 18.996 20.496l3.103 2.795 5.058 4.528h0c5.435 4.829 10.875 9.663 15.698 15.046 5.592 6.235 10.723 12.883 15.855 19.531h0 0 0 0 0 0 0 0 .001 0 0 0 0 0 0 0l6.444 8.275c9.276 11.708 20.216 21.38 33.355 28.63l34.408 19.306 8.652-3.682-26.678-15.064c-11.003-6.185-21.64-12.837-30.307-22.209-8.381-9.068-15.969-18.768-23.253-28.733l-.673-.923c-3.348-4.592-6.727-9.227-10.681-13.266-4.552-4.648-9.334-9.069-14.115-13.49l-7.99-7.464c-7.41-7.065-14.803-14.24-19.815-23.267-2.807-5.057-5.355-10.273-7.759-15.553l-11.337 3.81-1.17-.393zM150.92 0c2.817 3.527 5.44 7.232 7.941 11.061 6.848 10.489 13.925 20.828 21.043 31.133 8.955 12.963 19.889 24.2 31.369 34.855l.791.733c10.889 10.099 21.756 20.178 31.721 31.234 10.631 11.8 23.282 21.086 37.31 28.411 12.293 6.419 24.308 13.294 36.095 20.57l-7.776 3.309h-2.291c-9.36-6.108-19.102-11.554-28.938-16.835-17.582-9.441-33.528-21.006-47.206-35.591-5.239-5.586-11.015-10.564-16.79-15.542h0 0l-8.575-7.524-.039-.035h0-.001c-10.284-9.355-20.608-18.745-30.032-28.933-4.235-4.577-7.744-9.827-11.253-15.08h-.001 0 0 0 0 0 0 0-.001 0 0 0 0 0 0-.001 0 0 0l-5.046-7.367-4.15-5.82c-4.168-5.87-8.337-11.741-12.801-17.378-2.898-3.665-6.578-6.824-10.303-9.701-.634-.49-1.257-.988-1.869-1.495h17.257 3.546zm-45.212 0c4.657 6.742 9.804 13.113 15.722 18.917 1.957 1.922 4.03 3.74 6.153 5.477 9.403 7.669 16.761 17.146 23.925 26.823 3.806 5.132 7.749 10.167 11.721 15.167 3.163 3.981 6.791 7.514 11.291 9.954 9.574 5.19 17.811 12.129 25.801 19.418l8.112 7.437 22.115 19.967c13.076 11.386 27.145 21.461 41.943 30.5 3.998 2.443 7.913 5.002 11.768 7.646h-29.197l-4.566-3.113c-18.099-12.4-34.363-27.022-50.622-41.638l-6.951-6.238c-8.202-7.33-16.91-13.71-26.915-18.411-4.334-2.031-8.346-4.948-12.094-7.974-4.116-3.32-7.91-7.077-11.572-10.903-8.518-8.889-18.173-16.242-28.855-22.301-5.052-2.865-9.58-6.427-13.013-11.145l-2.887-3.97h0L78.329 8.531A106.46 106.46 0 0 1 73.1 0h25.149 7.459zM55.621 0a109.25 109.25 0 0 0 9.305 17.938l8.176 12.396h0 0l11.461 17.597c6.704 10.84 15.963 18.647 27.357 23.774 11.991 5.397 22.902 12.313 32.902 20.793a103.66 103.66 0 0 0 20.388 13.515c2.503 1.266 4.942 2.675 7.342 4.131 10.623 6.451 19.972 14.584 29.294 22.693l1.937 1.685c10.811 9.395 21.934 18.346 33.464 26.783h-14.214l-4.682-3.385-15.529-11.609h-.001 0 0 0l-.001-.001h0 0 0-.001v-.001h0-.001l-15.768-11.783c-8.252-5.993-17.456-10.174-26.662-14.356h0c-4.74-2.153-9.48-4.306-14.092-6.708-.346-.179-.753-.247-1.159-.316a8.72 8.72 0 0 1-.575-.109l-.136.198v.002l-.231.34c.351.365.688.748 1.024 1.132h.001c.731.833 1.462 1.665 2.339 2.303l3.585 2.661h.001c3.671 2.75 7.348 5.504 11.303 7.753 17.014 9.655 32.432 21.519 47.614 33.733l.181.146h-9.135c-9.779-7.455-19.912-14.403-30.538-20.662-3.92-2.311-7.926-4.477-11.932-6.643h-.001l-.001-.001c-4.751-2.569-9.502-5.138-14.108-7.947l-19.735-12.433h0 0 0-.001 0v-.001h0 0l-19.962-12.571c-7.583-4.615-14.259-9.988-19.574-17.169h.017l-2.923-3.851h0 0 0 0 0 0 0 0c-3.531-4.594-7.056-9.181-9.467-14.528-4.385-9.718-10.091-18.636-16.267-27.278-6.819-9.539-12.846-19.51-16.99-30.563L36.721 0h18.9zM31.977 0l3.363 7.873h0l1.918 4.541c4.431 10.368 10.556 19.689 17.277 28.653 6.458 8.619 11.744 17.899 16.474 27.583 2.181 4.469 5.064 8.604 7.936 12.726l2.23 3.223.401.589h0c2.166 3.186 4.372 6.431 7.119 9.06 3.846 3.682 8.117 6.991 12.519 10l36.369 24.142c6.854 4.289 14.082 8 21.29 11.7l.004.002.003.002.004.002.003.002.004.001 3.042 1.564c11.012 5.677 21.359 12.344 31.283 19.644h-5.562a239.09 239.09 0 0 0-34.963-20.525c-16.301-7.797-31.174-17.923-45.61-28.722-2.962-2.215-5.947-4.425-9.052-6.433-7.33-4.729-12.794-11.145-17.783-18.239-5.505-7.819-10.034-16.093-14.35-24.602-3.622-7.134-8.065-13.964-12.921-20.333-8.777-11.513-15.969-23.826-21.583-37.168-.749-1.781-1.552-3.54-2.393-5.284h2.978zm-6.823 0c2 3.72 3.937 7.47 5.733 11.285 4.575 9.706 9.81 18.958 16.485 27.335l-.006-.006c8.191 10.282 15.527 21.035 20.739 33.21 3.011 7.035 7.448 13.216 11.88 19.391l3.997 5.648c1.429 2.077 3.278 3.965 5.246 5.546 2.637 2.122 5.343 4.157 8.048 6.193h0 0 0v.001h0 0 .001l7.133 5.463c14.849 11.783 30.531 22.237 47.481 30.776 7.973 4.016 15.889 8.17 23.644 12.583 2.131 1.212 4.196 2.512 6.209 3.88h-9.834c-4.074-2.276-8.246-4.399-12.407-6.496-21.347-10.754-41.501-23.302-59.748-38.837-2.194-1.866-4.514-3.582-6.835-5.297h0 0 0v-.001h0 0 0 0 0 0-.001l-2.285-1.698c-4.856-3.648-8.834-8.084-12.134-13.182-6.188-9.545-12.123-19.188-16.686-29.688-3.421-7.882-8.668-14.752-14.247-21.283-8.3-9.706-15.424-20.172-21.232-31.576-1.708-3.355-3.519-6.671-5.442-9.918L25.112 0h.042zm-9.439 7.419c8.384 14.171 17.424 27.907 28.822 40.052 8.254 8.797 13.851 19.303 18.736 30.339 4.598 10.38 9.85 20.569 16.864 29.557 2.467 3.157 5.525 5.857 8.578 8.552v.001h.001.001l.001.001h0l.001.001h.001l.001.001h.001l.001.001h0l3.499 3.145 13.802 12.816.004.004.003.002.002.002.002.002.002.002.003.003.002.002.002.002.003.002.002.002.002.002 23.912 22.273c2.329 2.19 4.444 4.635 6.481 7.124h-24.17l-2.717-1.836-17.622-12.584-13.535-9.717-11.196-7.681-9.186-6.271c-2.25-1.565-4.368-3.343-6.423-5.156-6.561-5.799-14.396-8.348-22.926-8.987a240.69 240.69 0 0 1-14.002-1.464V95.942c3.297-.026 6.605-.191 9.926-.512 10.08-.972 19.522.863 27.501 7.491 2.8 2.328 5.341 4.978 7.878 7.624l1.817 1.887c4.81 4.954 10.125 9.177 16.56 11.812.64.263 1.336.387 2.031.511h0c.322.057.643.114.959.185l.032-.042.193-.25.002-.002.137-.176.09-.117-.684-1.17c-.481-.835-.962-1.669-1.509-2.46-.977-1.418-2.009-2.806-3.041-4.194h0c-2.102-2.827-4.204-5.654-5.844-8.729-4.868-9.114-9.517-18.383-13.644-27.859-4.724-10.834-11.124-20.396-19.47-28.664-8.357-8.282-16.062-17.031-22.933-26.48v-8.3-8.249l1.051-.83zm-1.051 54.942c1.473 3.447 1.44 6.49 0 9.239v-5.611-3.628zm0 64.149v3.897c12.433 4.121 24.098 9.807 35.202 16.55l17.053 7.257c-6.587-4.935-13.397-9.561-20.694-13.495l-4.894-2.688h0v-.001h-.001-.001v-.001h-.001-.001v-.001h-.001l-.001-.001-.002-.001c-6.846-3.796-13.689-7.591-21.255-9.896l-2.852-.856h0l-2.55-.764zM305.299 0l-4.108 7.542c-2.514 4.471-3.41 9.039-2.216 14.01l.234.986.001.003c.301 1.288.604 2.579 1.051 3.815 6.595 18.296 14.19 36.15 23.638 53.169 6.004 10.817 13.144 20.787 23.075 28.348 6.461 4.917 13.138 9.546 19.811 14.172l1.857 1.288 4.788 3.3v.001l4.905 3.382v-13.237l-11.064-8.586c-4.61-3.63-9.167-7.353-13.512-11.294-5.878-5.333-10.086-11.904-12.56-19.441l-.101-.307-12.544-39.668c-1.372-4.712-2.227-9.873-1.888-14.729.534-7.676 1.727-15.292 3.733-22.753h-25.1z" fill="url(#G)"/><mask id="A" maskUnits="userSpaceOnUse" x="14" y="0" width="365" height="162" mask-type="alpha"><path d="M25.112 0H35.56h20.896 41.793 49.125 24.563l24.562 8.256L221.062 0h24.562 49.125 41.793 20.897 10.448l10.448 8.249v8.249 16.497 32.994 65.989l-68.921 29.328H253.69 139.309 83.585l-68.922-29.328V65.989 32.994 16.497 8.249L25.112 0z" fill="#212121"/></mask><g mask="url(#A)"><g opacity=".05"><mask id="B" maskUnits="userSpaceOnUse" x="-9.604" y="42.162" width="417" height="83" fill="#000"><path fill="#fff" d="M-9.604 42.162h417v83h-417z"/><path d="M-7.029 46.063H38.63c7.61 0 13.118 1.739 16.524 5.218 3.479 3.406 5.218 8.914 5.218 16.524v10.871c0 7.61-1.739 13.154-5.218 16.633-3.406 3.406-8.914 5.109-16.524 5.109H12.539v21.743H-7.029V46.063zm47.833 21.742c0-4.349-2.174-6.523-6.523-6.523H12.539V85.2h21.742c4.348 0 6.523-2.174 6.523-6.523V67.806zm78.268-1.087c0-4.348-2.174-6.523-6.522-6.523H94.069c-4.349 0-6.523 2.174-6.523 6.523v34.787c0 4.349 2.174 6.523 6.523 6.523h18.481c4.348 0 6.522-2.174 6.522-6.523V66.719zm19.569 34.787c0 7.61-1.74 13.155-5.219 16.633-3.406 3.407-8.914 5.11-16.524 5.11H89.72c-7.61 0-13.154-1.703-16.633-5.11-3.406-3.478-5.109-9.023-5.109-16.633V66.719c0-7.61 1.703-13.118 5.109-16.524 3.479-3.479 9.023-5.218 16.633-5.218h27.178c7.61 0 13.118 1.739 16.524 5.218 3.479 3.406 5.219 8.914 5.219 16.524v34.787zm46.797 20.656h-39.137v-15.22h9.784V61.283h-9.784v-15.22h39.137v15.22h-9.784v45.659h9.784v15.22zm76.09 0h-20.656l-26.091-45.659v45.659h-19.568V46.063h20.656l26.09 45.659V46.063h19.569v76.099zm50.058 0h-19.568V61.283h-22.83v-15.22h65.227v15.22h-22.829v60.879zm28.169-15.764c19.858 1.088 33.302 1.631 40.332 1.631 1.667 0 2.972-.471 3.914-1.413 1.014-1.015 1.522-2.356 1.522-4.023v-9.784h-25.004c-7.61 0-13.154-1.703-16.633-5.109-3.406-3.479-5.109-9.023-5.109-16.633v-3.261c0-7.61 1.703-13.118 5.109-16.524 3.479-3.479 9.023-5.218 16.633-5.218h38.158v15.22h-33.81c-4.348 0-6.522 2.174-6.522 6.523v2.174c0 4.349 2.174 6.523 6.522 6.523h19.569c7.102 0 12.32 1.667 15.654 5.001s5.001 8.552 5.001 15.654v5.435c0 7.103-1.667 12.321-5.001 15.655s-8.552 5.001-15.654 5.001c-3.697 0-7.61-.073-11.741-.218l-10.002-.435c-7.392-.362-15.038-.869-22.938-1.521v-14.677z"/></mask><path d="M-7.029 46.063v-1.856h-1.856v1.856h1.856zm62.183 5.218l-1.326 1.299.014.014.014.014 1.299-1.326zm0 44.028l1.313 1.313-1.312-1.313zm-42.615 5.109v-1.856h-1.856v1.856h1.856zm0 21.743v1.856h1.856v-1.856h-1.856zm-19.568 0h-1.856v1.856h1.856v-1.856zm19.568-60.879v-1.856h-1.856v1.856h1.856zm0 23.917h-1.856v1.856h1.856V85.2zM-7.029 47.92H38.63v-3.713H-7.029v3.713zm45.659 0c7.385 0 12.295 1.695 15.198 4.661l2.653-2.597c-3.909-3.992-10.016-5.776-17.851-5.776v3.713zm15.226 4.688c2.965 2.903 4.66 7.813 4.66 15.198h3.713c0-7.835-1.783-13.941-5.776-17.851l-2.597 2.653zm4.66 15.198v10.871h3.713V67.806h-3.713zm0 10.871c0 7.38-1.694 12.34-4.674 15.32l2.625 2.625c3.977-3.977 5.762-10.106 5.762-17.945h-3.713zm-4.674 15.32c-2.902 2.902-7.818 4.566-15.212 4.566v3.713c7.826 0 13.926-1.743 17.837-5.654l-2.625-2.625zM38.63 98.563H12.539v3.713H38.63v-3.713zm-27.947 1.856v21.743h3.713v-21.743h-3.713zm1.856 19.886H-7.029v3.713h19.568v-3.713zm-17.712 1.857V46.063h-3.713v76.099h3.713zm47.833-54.356c0-2.46-.616-4.647-2.174-6.205s-3.744-2.174-6.205-2.174v3.713c1.888 0 2.963.471 3.579 1.087s1.087 1.691 1.087 3.579h3.713zm-8.379-8.379H12.539v3.713h21.742v-3.713zm-23.599 1.856V85.2h3.713V61.283h-3.713zm1.856 25.773h21.742v-3.713H12.539v3.713zm21.742 0c2.46 0 4.647-.616 6.205-2.174s2.174-3.744 2.174-6.205h-3.713c0 1.888-.471 2.963-1.087 3.579s-1.691 1.087-3.579 1.087v3.713zm8.379-8.379V67.806h-3.713v10.871h3.713zm90.762 39.462l-1.312-1.312 1.312 1.312zm-60.335 0l-1.326 1.299.014.014.014.014 1.299-1.327zm0-67.945l-1.313-1.313h0l1.313 1.313zm60.335 0l-1.326 1.299.014.014.014.014 1.298-1.326zm-12.493 16.524c0-2.46-.617-4.647-2.175-6.205s-3.744-2.174-6.204-2.174v3.713c1.888 0 2.963.471 3.579 1.087s1.087 1.691 1.087 3.579h3.713zm-8.379-8.379H94.069v3.713h18.481V58.34zm-18.481 0c-2.46 0-4.647.616-6.205 2.174s-2.174 3.744-2.174 6.205h3.712c0-1.888.471-2.963 1.087-3.579s1.691-1.087 3.579-1.087V58.34zm-8.379 8.379v34.787h3.712V66.719H85.69zm0 34.787c0 2.461.616 4.647 2.174 6.205s3.744 2.174 6.205 2.174v-3.712c-1.888 0-2.963-.471-3.579-1.087s-1.087-1.692-1.087-3.58H85.69zm8.379 8.379h18.481v-3.712H94.069v3.712zm18.481 0c2.46 0 4.646-.616 6.204-2.174s2.175-3.744 2.175-6.205h-3.713c0 1.888-.471 2.964-1.087 3.58s-1.691 1.087-3.579 1.087v3.712zm8.379-8.379V66.719h-3.713v34.787h3.713zm15.855 0c0 7.381-1.693 12.34-4.674 15.321l2.625 2.625c3.977-3.977 5.762-10.106 5.762-17.946h-3.713zm-4.674 15.321c-2.902 2.902-7.818 4.565-15.212 4.565v3.713c7.826 0 13.927-1.743 17.837-5.653l-2.625-2.625zm-15.212 4.565H89.72v3.713h27.178v-3.713zm-27.178 0c-7.389 0-12.354-1.661-15.334-4.579l-2.597 2.653c3.977 3.894 10.101 5.639 17.932 5.639v-3.713zm-15.307-4.551c-2.918-2.98-4.58-7.946-4.58-15.335h-3.713c0 7.831 1.745 13.954 5.639 17.932l2.653-2.597zm-4.58-15.335V66.719h-3.713v34.787h3.713zm0-34.787c0-7.394 1.663-12.309 4.566-15.212l-2.625-2.625c-3.91 3.91-5.653 10.011-5.653 17.837h3.713zM74.4 51.507c2.981-2.981 7.94-4.674 15.32-4.674V43.12c-7.839 0-13.969 1.785-17.945 5.762l2.625 2.625zm15.32-4.674h27.178V43.12H89.72v3.713zm27.178 0c7.385 0 12.295 1.695 15.198 4.66l2.653-2.597c-3.909-3.992-10.016-5.776-17.851-5.776v3.713zm15.226 4.688c2.965 2.903 4.66 7.813 4.66 15.198h3.713c0-7.835-1.783-13.941-5.776-17.851l-2.597 2.653zm4.66 15.198v34.787h3.713V66.719h-3.713zm48.654 55.443v1.856h1.856v-1.856h-1.856zm-39.137 0h-1.856v1.856h1.856v-1.856zm0-15.22v-1.856h-1.856v1.856h1.856zm9.784 0v1.856h1.857v-1.856h-1.857zm0-45.659h1.857v-1.856h-1.857v1.856zm-9.784 0h-1.856v1.856h1.856v-1.856zm0-15.22v-1.856h-1.856v1.856h1.856zm39.137 0h1.856v-1.856h-1.856v1.856zm0 15.22v1.856h1.856v-1.856h-1.856zm-9.784 0v-1.856h-1.857v1.856h1.857zm0 45.659h-1.857v1.856h1.857v-1.856zm9.784 0h1.856v-1.856h-1.856v1.856zm0 13.363h-39.137v3.713h39.137v-3.713zm-37.28 1.857v-15.22h-3.713v15.22h3.713zm-1.857-13.364h9.784v-3.712h-9.784v3.712zm11.641-1.856V61.283h-3.713v45.659h3.713zm-1.857-47.515h-9.784v3.713h9.784v-3.713zm-7.927 1.856v-15.22h-3.713v15.22h3.713zm-1.857-13.363h39.137v-3.713h-39.137v3.713zm37.28-1.856v15.22h3.713v-15.22h-3.713zm1.857 13.363h-9.784v3.713h9.784v-3.713zm-11.641 1.856v45.659h3.713V61.283h-3.713zm1.857 47.515h9.784v-3.712h-9.784v3.712zm7.927-1.856v15.22h3.713v-15.22h-3.713zm77.946 15.22v1.856h1.857v-1.856h-1.857zm-20.655 0l-1.611.921.534.935h1.077v-1.856zm-26.091-45.659l1.612-.921-3.468-6.069v6.99h1.856zm0 45.659v1.856h1.857v-1.856h-1.857zm-19.568 0h-1.856v1.856h1.856v-1.856zm0-76.099v-1.856h-1.856v1.856h1.856zm20.656 0l1.611-.921-.534-.935h-1.077v1.856zm26.09 45.659l-1.611.921 3.468 6.069v-6.99h-1.857zm0-45.659v-1.856h-1.856v1.856h1.856zm19.568 0h1.857v-1.856h-1.857v1.856zm0 74.242h-20.655v3.713h20.655v-3.713zm-19.043.936l-26.091-45.659-3.223 1.842 26.091 45.659 3.223-1.842zm-29.559-44.738v45.659h3.713V76.503h-3.713zm1.856 43.802h-19.568v3.713h19.568v-3.713zm-17.711 1.857V46.063h-3.713v76.099h3.713zm-1.857-74.242h20.656v-3.713h-20.656v3.713zm19.044-.935l26.091 45.659 3.223-1.842-26.091-45.659-3.223 1.842zm29.559 44.738V46.063h-3.713v45.659h3.713zm-1.857-43.803h19.568v-3.713h-19.568v3.713zm17.712-1.856v76.099h3.713V46.063h-3.713zm51.915 76.099v1.856h1.856v-1.856h-1.856zm-19.568 0h-1.857v1.856h1.857v-1.856zm0-60.879h1.856v-1.856h-1.856v1.856zm-22.83 0h-1.856v1.856h1.856v-1.856zm0-15.22v-1.856h-1.856v1.856h1.856zm65.227 0h1.857v-1.856h-1.857v1.856zm0 15.22v1.856h1.857v-1.856h-1.857zm-22.829 0v-1.856h-1.856v1.856h1.856zm0 59.022h-19.568v3.713h19.568v-3.713zm-17.712 1.857V61.283h-3.713v60.879h3.713zm-1.856-62.735h-22.83v3.713h22.83v-3.713zm-20.973 1.856v-15.22h-3.713v15.22h3.713zm-1.857-13.363h65.227v-3.713h-65.227v3.713zm63.371-1.856v15.22h3.713v-15.22h-3.713zm1.856 13.363h-22.829v3.713h22.829v-3.713zm-24.685 1.856v60.879h3.712V61.283h-3.712zm30.025 45.115l.102-1.853-1.958-.107v1.96h1.856zm44.246.218l-1.313-1.313 1.313 1.313zm1.522-13.807h1.856v-1.856h-1.856v1.856zM343.886 87.7l-1.326 1.299.013.014.014.014 1.299-1.326zm0-36.418l1.313 1.313h0l-1.313-1.313zm54.791-5.218h1.856v-1.856h-1.856v1.856zm0 15.22v1.856h1.856v-1.856h-1.856zm1.413 56.965l-1.312-1.313 1.312 1.313zm-27.395 4.783l-.081 1.855h.008.008l.065-1.855zm-10.002-.435l-.091 1.855h.011l.08-1.855zm-22.938-1.521h-1.856v1.709l1.703.14.153-1.849zm-.101-12.823c19.851 1.087 33.345 1.633 40.433 1.633v-3.712c-6.971 0-20.366-.541-40.23-1.628l-.203 3.707zm40.433 1.633c2.029 0 3.854-.584 5.226-1.957l-2.625-2.625c-.511.512-1.296.87-2.601.87v3.712zm5.226-1.957c1.42-1.419 2.066-3.261 2.066-5.335h-3.713c0 1.261-.368 2.1-.978 2.71l2.625 2.625zm2.066-5.335v-9.784h-3.713v9.784h3.713zm-1.856-11.64h-25.004v3.713h25.004v-3.713zm-25.004 0c-7.389 0-12.354-1.662-15.334-4.58l-2.598 2.653c3.978 3.895 10.101 5.639 17.932 5.639v-3.713zm-15.307-4.552c-2.918-2.98-4.579-7.945-4.579-15.334h-3.713c0 7.831 1.745 13.954 5.64 17.932l2.652-2.597zm-4.579-15.334v-3.261h-3.713v3.261h3.713zm0-3.261c0-7.394 1.663-12.309 4.566-15.212l-2.625-2.625c-3.911 3.91-5.654 10.011-5.654 17.837h3.713zm4.566-15.212c2.981-2.981 7.94-4.674 15.32-4.674v-3.713c-7.839 0-13.969 1.785-17.945 5.762l2.625 2.625zm15.32-4.674h38.158v-3.713h-38.158v3.713zm36.302-1.856v15.22h3.712v-15.22h-3.712zm1.856 13.363h-33.81v3.713h33.81v-3.713zm-33.81 0c-2.46 0-4.646.616-6.204 2.174s-2.175 3.744-2.175 6.205h3.713c0-1.888.471-2.963 1.087-3.579s1.691-1.087 3.579-1.087v-3.713zm-8.379 8.379v2.174h3.713v-2.174h-3.713zm0 2.174c0 2.46.617 4.647 2.175 6.205s3.744 2.174 6.204 2.174v-3.713c-1.888 0-2.963-.471-3.579-1.087s-1.087-1.691-1.087-3.579h-3.713zm8.379 8.379h19.569v-3.713h-19.569v3.713zm19.569 0c6.856 0 11.498 1.613 14.342 4.457l2.625-2.625c-3.824-3.824-9.619-5.544-16.967-5.544v3.713zm14.342 4.457c2.843 2.844 4.457 7.486 4.457 14.342h3.712c0-7.349-1.72-13.143-5.544-16.967l-2.625 2.625zm4.457 14.342v5.435h3.712v-5.435h-3.712zm0 5.435c0 6.857-1.614 11.499-4.457 14.342l2.625 2.626c3.824-3.824 5.544-9.619 5.544-16.968h-3.712zm-4.457 14.342c-2.844 2.844-7.486 4.457-14.342 4.457v3.713c7.348 0 13.143-1.72 16.967-5.544l-2.625-2.626zm-14.342 4.457c-3.673 0-7.564-.072-11.676-.216l-.13 3.71c4.15.146 8.085.219 11.806.219v-3.713zm-11.661-.215l-10.001-.435-.161 3.709 10.001.435.161-3.709zm-9.991-.435c-7.37-.361-14.996-.867-22.876-1.517l-.306 3.699c7.919.654 15.586 1.163 23 1.527l.182-3.709zm-21.173.333v-14.677h-3.712v14.677h3.712z" fill="#d8a956" mask="url(#B)"/></g></g><path d="M14.664 71.855H35.56h20.896 41.793 49.125 24.563l24.562 6.506 24.563-6.506h24.562 49.125 41.793 20.897 10.448 10.448v4.574 4.574 9.148 18.296 24.996l-68.921 27.862H253.69 139.309 83.585l-68.922-27.862v-24.996-18.296-9.148-9.149z" fill="url(#H)" fill-opacity=".3"/><mask id="C" fill="#fff"><path d="M145.762 159.84h-44.579v-11.732h34.021l10.558 11.732z"/></mask><path d="M145.762 159.84h-44.579v-11.732h34.021l10.558 11.732z" stroke="#6e4800" stroke-width="1.173" mask="url(#C)"/><mask id="D" fill="#fff"><path d="M247.238 159.84h44.579v-11.732h-34.021l-10.558 11.732z"/></mask><path d="M247.238 159.84h44.579v-11.732h-34.021l-10.558 11.732z" stroke="#6e4800" stroke-width="1.173" mask="url(#D)"/><path d="M0 131.978v-14.664l83.586 29.328h42.526l13.198 14.664H83.586L0 131.978z" fill="url(#I)"/><path d="M393 131.978v-14.664l-83.586 29.328h-42.526l-13.198 14.664h55.724L393 131.978z" fill="url(#J)"/><use href="#U" fill="url(#K)"/><path d="M359.273 16.131l1.629 1.629-1.629 1.629-1.629-1.629 1.629-1.629z" fill="url(#L)"/><path d="M353.57 16.131l1.63 1.629-1.63 1.629-1.629-1.629 1.629-1.629z" fill="url(#M)"/><g fill-rule="evenodd"><path d="M165.705 0L196.5 16.131V8.256L171.938 0h-6.233z" fill="url(#N)"/><path d="M227.295 0L196.5 16.131V8.256L221.062 0h6.233z" fill="url(#O)"/></g><path d="M393.073 137.844v2.859l-54.331 16.204 54.331-19.063z" fill="url(#P)"/><path d="M0 137.843v2.86l54.331 16.204L0 137.843z" fill="url(#Q)"/><g fill="#f5f1ee"><path d="M193.483 141h5.418l3.999 11.094-3.999 1.806-.783-3.328h0l-.636-2.703h0l-.645-2.741-1.236 3.514 1.398-.574.635 2.702L190 153.9l3.172-9.064 2.697-1.966-2.191.52.595-1.699-.79-.691zm8.801 7.864l-.931-2.584 1.547-.636-.616 3.22z"/></g><path d="M64.996 46.996c3.743-.423 4.939-4.635 5.069-6.688-.103 3.126 2.483 6.55 5.008 6.711-3.577.155-4.928 4.85-5.059 6.243a.59.59 0 0 1-.01.146l.01-.146c-.027-1.069-1.435-6.266-5.017-6.266z" fill="url(#R)"/><path d="M332.035 108.473c4.404-.487 5.811-5.339 5.964-7.704-.12 3.601 2.922 7.545 5.892 7.731-4.209.178-5.798 5.586-5.953 7.192.002.074-.002.13-.011.168l.011-.168c-.031-1.232-1.688-7.219-5.903-7.219z" fill="url(#S)"/></g><defs><linearGradient id="E" x1="-6.512" y1="139.31" x2="141.858" y2="139.31" href="#V"><stop stop-color="#5d3d00"/><stop offset=".544" stop-color="#ab750f"/><stop offset="1" stop-color="#d8a956"/></linearGradient><linearGradient id="F" x1="399.512" y1="139.31" x2="251.142" y2="139.31" href="#V"><stop stop-color="#5d3d00"/><stop offset=".544" stop-color="#ab750f"/><stop offset="1" stop-color="#d8a956"/></linearGradient><linearGradient id="G" x1="196.499" y1="0" x2="196.499" y2="161.306" href="#V"><stop stop-color="#fff"/><stop offset="1" stop-color="#fff" stop-opacity="0"/></linearGradient><linearGradient id="H" x1="196.499" y1="202.366" x2="196.499" y2="71.855" href="#V"><stop stop-color="#261900"/><stop offset=".774" stop-color="#ffa700" stop-opacity="0"/></linearGradient><linearGradient id="I" x1="-6.512" y1="139.31" x2="141.858" y2="139.31" href="#V"><stop stop-color="#ab750f"/><stop offset=".544" stop-color="#ab750f"/><stop offset="1" stop-color="#d8a956"/></linearGradient><linearGradient id="J" x1="247.177" y1="139.31" x2="395.548" y2="139.31" href="#V"><stop stop-color="#d8a956"/><stop offset=".544" stop-color="#ab750f"/></linearGradient><linearGradient id="K" x1="365.79" y1="16.946" x2="364.161" y2="18.575" href="#V"><stop stop-color="#ab750f"/><stop offset=".516" stop-color="#d8a956"/><stop offset="1" stop-color="#ab750f"/></linearGradient><linearGradient id="L" x1="360.088" y1="16.946" x2="358.458" y2="18.575" href="#V"><stop stop-color="#ab750f"/><stop offset=".516" stop-color="#d8a956"/><stop offset="1" stop-color="#ab750f"/></linearGradient><linearGradient id="M" x1="354.385" y1="16.946" x2="352.756" y2="18.575" href="#V"><stop stop-color="#ab750f"/><stop offset=".516" stop-color="#d8a956"/><stop offset="1" stop-color="#ab750f"/></linearGradient><linearGradient id="N" x1="164.266" y1="8.065" x2="197.063" y2="8.065" href="#V"><stop stop-color="#ab750f"/><stop offset=".516" stop-color="#d8a956"/><stop offset="1" stop-color="#ab750f"/></linearGradient><linearGradient id="O" x1="228.734" y1="8.065" x2="195.937" y2="8.065" href="#V"><stop stop-color="#ab750f"/><stop offset=".516" stop-color="#d8a956"/><stop offset="1" stop-color="#ab750f"/></linearGradient><linearGradient id="P" x1="351.134" y1="147.376" x2="399.745" y2="138.797" href="#V"><stop stop-color="#b47f1d"/><stop offset="1" stop-color="#ab750f"/></linearGradient><linearGradient id="Q" x1="41.94" y1="147.375" x2="-6.672" y2="138.797" href="#V"><stop stop-color="#b47f1d"/><stop offset="1" stop-color="#ab750f"/></linearGradient><linearGradient id="R" x1="70.035" y1="40.308" x2="70.035" y2="53.408" href="#V"><stop stop-color="#0094ff"/><stop offset="1" stop-color="#00ede0"/></linearGradient><linearGradient id="S" x1="337.963" y1="100.769" x2="337.963" y2="115.86" href="#V"><stop stop-color="#8d39ac"/><stop offset="1" stop-color="#ff00d6"/></linearGradient><clipPath id="T"><path fill="#fff" d="M0 0h393v161.306H0z"/></clipPath><path id="U" d="M364.975 16.131l1.63 1.629-1.63 1.629-1.629-1.629 1.629-1.629z"/><linearGradient id="V" gradientUnits="userSpaceOnUse"/></defs></svg>