<svg width="394" height="544" viewBox="0 0 394 544" fill="none" xmlns="http://www.w3.org/2000/svg">
<g id="rankings-leaderboard" clip-path="url(#clip0_3596_23351)">
<g id="background-roam">
<path id="Rectangle 291" d="M259 8H238L230 18H253L259 8Z" fill="url(#paint0_linear_3596_23351)"/>
<path id="Rectangle 290" d="M135 8H156L164 18H141L135 8Z" fill="url(#paint1_linear_3596_23351)"/>
<path id="Rectangle 289" d="M0 4H134L143 17H251L260 4H394V533H0V4Z" fill="#F5F1EE"/>
<path id="Vector 133 (Stroke)" fill-rule="evenodd" clip-rule="evenodd" d="M142 19L196 19L196 16L142 16L142 19Z" fill="url(#paint2_linear_3596_23351)"/>
<path id="Vector 132 (Stroke)" fill-rule="evenodd" clip-rule="evenodd" d="M251 19L198 19L198 16L251 16L251 19Z" fill="url(#paint3_linear_3596_23351)"/>
<g id="Group 214">
<path id="Vector 304" d="M206 16.9999L197 0L188 16.9999L197 31L206 16.9999Z" fill="#AB750F"/>
<path id="Vector 301" d="M188 16.9999L197 0V31L188 16.9999Z" fill="#D8A956"/>
<path id="Vector 305" d="M197 0L188 17L197 3L206 17L197 0Z" fill="white" fill-opacity="0.5"/>
</g>
<g id="Mask group">
<mask id="mask0_3596_23351" style="mask-type:alpha" maskUnits="userSpaceOnUse" x="0" y="4" width="394" height="529">
<path id="Rectangle 292" d="M0 4H134L143 17H251L260 4H394V533H0V4Z" fill="#F5F1EE"/>
</mask>
<g mask="url(#mask0_3596_23351)">
<path id="Union" fill-rule="evenodd" clip-rule="evenodd" d="M179.266 441.599L182.377 381.972L168.253 337.145L137.55 307.67L113.602 332.847L102.549 413.289L87.197 403.464L65.0907 347.584L50.3532 367.234V307.67L38.072 256.089L17.1938 232.141L9.91821e-05 307.67L-5.52647 297.845L-19.0358 385.656L-30.703 394.253C-33.978 414.722 -41.1421 455.905 -43.5983 456.888C-46.0546 457.87 -51.9905 442.559 -54.6515 434.781C-60.5874 449.723 -72.9505 480.099 -74.9155 482.064L-96.4077 558.208C-92.3104 568.924 -50.4067 547.852 -29.995 537.587C-23.8947 534.52 -19.714 532.417 -19.0358 532.417C-16.0883 532.417 8.80166 528.323 20.8782 526.277L9.91821e-05 548.383H259.749L255.589 542.242H479.583L466.687 523.206L423.089 454.431L413.264 475.923L398.526 446.448L402.211 375.831L388.087 331.005L357.384 301.53L333.436 326.706L322.383 407.148L307.031 397.323L284.925 341.444L270.187 361.094V301.53L257.906 249.948L237.028 226L219.834 301.53L214.308 291.705L200.798 379.516L189.131 388.113C186.785 402.776 182.443 428.07 179.266 441.599Z" fill="url(#paint4_linear_3596_23351)" fill-opacity="0.3"/>
</g>
</g>
<g id="Mask group_2">
<mask id="mask1_3596_23351" style="mask-type:alpha" maskUnits="userSpaceOnUse" x="0" y="4" width="394" height="529">
<path id="Rectangle 292_2" d="M0 4H134L143 17H251L260 4H394V533H0V4Z" fill="#F5F1EE"/>
</mask>
<g mask="url(#mask1_3596_23351)">
<path id="Union_2" fill-rule="evenodd" clip-rule="evenodd" d="M-46.669 500.9C-37.8675 482.478 -19.2819 445.266 -15.3519 443.792C-11.4219 442.318 -1.02373 425.166 3.68408 416.773L15.3513 448.705C18.2169 445.43 24.071 439.862 24.5622 443.792C25.0535 447.722 32.9544 469.992 36.8435 480.636L68.1606 411.247L90.881 437.038L117.9 383L154.743 448.705L170.709 427.827C175.345 437.793 182.762 453.403 188.682 465.07C194.724 453.701 200.113 444.51 202.026 443.792C205.956 442.318 216.354 425.166 221.062 416.773L232.729 448.705C235.595 445.43 241.449 439.862 241.94 443.792C242.432 447.722 250.333 469.992 254.222 480.636L285.539 411.247L308.259 437.038L335.278 383L372.122 448.705L388.087 427.827C396.275 445.43 413.141 480.636 415.106 480.636C417.071 480.636 435.984 512.158 445.195 527.919L153.515 531.603L155.064 528.838L-63.8628 531.603L-46.669 500.9Z" fill="url(#paint5_linear_3596_23351)" fill-opacity="0.6"/>
</g>
</g>
<g id="Mask group_3">
<mask id="mask2_3596_23351" style="mask-type:alpha" maskUnits="userSpaceOnUse" x="0" y="3" width="394" height="530">
<path id="Rectangle 292_3" d="M0 3.96094H134L143 16.9609H251L260 3.96094H394V533H0V3.96094Z" fill="#212121"/>
</mask>
<g mask="url(#mask2_3596_23351)">
<g id="Dust">
<g id="Group" opacity="0.35">
<path id="Vector" d="M142.125 137.978C141.233 138.707 141.639 139.923 141.226 140.841C140.627 142.167 140.314 142.16 139.088 140.674L139.068 140.601C139.515 140.288 139.641 139.814 139.641 139.268C139.861 139.188 139.948 139.02 139.894 138.765C140.387 138.488 140.56 137.993 140.654 137.446L140.627 137.483C141.133 137.607 141.646 137.723 142.152 137.847L142.132 137.978H142.125Z" fill="#AB750F"/>
<path id="Vector_2" d="M135.571 218.521C135.651 218.827 135.731 219.133 135.811 219.439C135.818 220.029 135.824 220.612 135.838 221.202C135.778 221.537 135.718 221.88 135.658 222.215C135.092 222.463 134.526 222.536 133.953 222.251C133.906 221.297 133.86 220.343 133.813 219.395C133.926 219.111 133.946 218.82 133.886 218.514C134.086 218.346 134.146 218.128 134.073 217.865C134.332 217.756 134.592 217.647 134.852 217.538C135.092 217.865 135.332 218.201 135.571 218.528V218.521Z" fill="#AB750F"/>
<path id="Vector_3" d="M64.5126 231.256C64.1729 230.127 64.9122 229.377 65.3118 228.502H65.3252C65.6049 228.502 65.878 228.51 66.1577 228.524C66.211 228.808 66.251 229.107 66.2709 229.406C66.3176 229.734 66.3575 230.069 66.3975 230.397C66.5973 230.681 66.7904 230.958 66.9902 231.242C66.9769 231.511 66.9636 231.788 66.9636 232.058C66.7039 232.131 66.4441 232.211 66.191 232.313C65.898 232.386 65.6049 232.466 65.3118 232.539C65.1786 232.378 65.1853 232.218 65.3318 232.072C65.2386 231.584 64.9122 231.388 64.5193 231.264L64.5126 231.256Z" fill="#AB750F"/>
<path id="Vector_4" d="M261.379 189.394C262.504 189 263.244 189.234 263.157 190.749C263.117 191.492 263.037 192.228 262.971 192.964L262.99 192.942C262.178 193.088 261.998 192.126 261.425 191.849C261.559 191.572 261.512 191.339 261.279 191.157C261.319 190.56 261.359 189.962 261.399 189.365L261.379 189.394Z" fill="#AB750F"/>
<path id="Vector_5" d="M202.661 305.04C201.575 304.42 201.795 303.787 202.641 303.153C203.081 303.065 203.314 302.737 203.447 302.293C203.986 302.322 204.726 302.271 204.826 302.927C204.992 303.969 204.1 303.983 203.46 304.158C203.014 304.253 202.788 304.588 202.661 305.032V305.04Z" fill="#AB750F"/>
<path id="Vector_6" d="M197.233 393.496V393.452C198.065 394.749 198.365 395.98 196.853 396.971L196.88 397C196.493 396.177 195.847 395.434 196.214 394.377L196.107 394.509C196.48 394.173 196.86 393.838 197.233 393.503V393.496Z" fill="#AB750F"/>
<path id="Vector_7" d="M56.9197 157.947C56.7465 158.159 56.5467 158.348 56.4068 158.581C55.9939 159.266 55.4211 159.594 54.815 159.055C54.1823 158.487 54.5087 157.816 54.9549 157.248C55.1214 157.029 55.2746 156.804 55.4411 156.585L55.4145 156.6C56.1737 156.687 56.4068 157.51 56.9397 157.918L56.9197 157.955V157.947Z" fill="#AB750F"/>
<path id="Vector_8" d="M128.225 168.403C127.932 168.417 127.639 168.439 127.346 168.454C127.24 167.732 127.293 166.931 126.547 166.53C126.58 165.947 126.6 165.197 127.193 165.102C128.132 164.956 128.065 165.962 128.279 166.603C128.259 167.2 128.239 167.798 128.219 168.403H128.225Z" fill="#AB750F"/>
<path id="Vector_9" d="M299.116 228.423C298.756 228.423 298.396 228.423 298.037 228.423C297.937 227.847 297.837 227.264 297.744 226.689C298.29 226.397 298.843 226.113 299.389 225.822L299.362 225.8C299.602 226.383 299.835 226.966 300.075 227.548L300.175 227.483C299.822 227.796 299.469 228.109 299.116 228.415V228.423Z" fill="#AB750F"/>
<path id="Vector_10" d="M13.9806 184.111L13.9606 184.388C13.2213 184.993 12.4287 184.934 11.6161 184.628L11.7161 184.73C11.443 183.863 11.4563 182.996 11.736 182.129L11.6361 182.275C12.8017 182.29 13.4544 183.098 13.9739 184.111H13.9806Z" fill="#AB750F"/>
<path id="Vector_11" d="M83.5943 338.641C83.4145 336.892 83.188 335.144 83.8407 333.439H84.0539C84.2737 335.217 85.326 337.075 83.5943 338.641Z" fill="#AB750F"/>
<path id="Vector_12" d="M147.913 512.669C147.587 512.392 147.227 512.159 146.947 511.838C146.554 511.387 146.228 510.775 146.834 510.316C147.38 509.9 147.827 510.352 148.12 510.906C148.046 511.489 147.98 512.079 147.913 512.662V512.669Z" fill="#AB750F"/>
<path id="Vector_13" d="M221.656 207.564C223.921 208.118 224.2 208.555 223.368 210.267C223.075 209.968 222.782 209.662 222.489 209.363H222.495C222.216 209.079 221.929 208.781 221.65 208.482L221.636 208.467C221.636 208.161 221.636 207.863 221.656 207.557V207.564Z" fill="#AB750F"/>
<path id="Vector_14" d="M360.071 356.12C359.925 356.921 359.785 357.73 359.638 358.531L359.685 358.502L358.193 357.657C358.206 357.249 358.226 356.841 358.239 356.433C358.486 356.345 358.706 356.207 358.899 356.01C359.292 356.047 359.685 356.083 360.078 356.12H360.071Z" fill="#AB750F"/>
<path id="Vector_15" d="M183.593 51.8606C183.586 53.0045 183.573 54.1484 183.566 55.2922C183.12 55.4088 182.794 55.3141 182.747 54.7312C182.707 53.9662 182.933 53.0847 181.994 52.7349C182.001 52.4289 182.014 52.1302 182.021 51.8242L181.981 51.8679C182.52 51.8679 183.06 51.8606 183.599 51.8606H183.593Z" fill="#AB750F"/>
<path id="Vector_16" d="M324.185 423.396C325.244 423.586 324.904 424.562 325.057 425.262C325.124 425.582 325.197 425.903 325.264 426.223L325.011 426.354L324.818 426.129C324.645 426.216 324.465 426.231 324.278 426.158C323.339 425.968 323.479 425.152 323.459 424.431C323.839 424.198 324.165 423.928 324.178 423.389L324.185 423.396Z" fill="#AB750F"/>
<path id="Vector_17" d="M37.2852 425.888V425.516C37.5382 425.13 37.7913 424.737 38.0444 424.351C39.4764 424.489 39.9959 425.05 38.837 426.405C38.3175 426.23 37.8047 426.063 37.2852 425.888Z" fill="#AB750F"/>
<path id="Vector_18" d="M346.278 338.643H346.012C345.865 338.074 345.719 337.506 345.572 336.938C345.745 336.77 345.819 336.566 345.799 336.311C346.332 336.165 346.858 336.012 347.391 335.859C347.377 336.486 347.364 337.105 347.351 337.732C346.991 338.031 346.638 338.337 346.278 338.635V338.643Z" fill="#AB750F"/>
<path id="Vector_19" d="M249.796 330.438C249.796 330.197 249.796 329.95 249.796 329.709C250.056 329.374 250.323 329.039 250.582 328.704H250.596C250.989 328.434 251.382 328.172 251.781 327.917L251.888 327.902C252.021 328.478 252.161 329.053 252.294 329.629L252.267 329.658C251.828 329.76 251.548 330.044 251.435 330.532C250.889 330.503 250.343 330.467 249.796 330.438Z" fill="#AB750F"/>
<path id="Vector_20" d="M138.123 399.667C137.856 400.213 137.483 400.628 136.91 400.286C136.497 400.045 136.584 399.557 136.764 399.142C136.93 398.756 137.124 398.377 137.31 397.991C137.583 397.976 137.863 397.955 138.136 397.94C138.136 398.516 138.136 399.091 138.129 399.667H138.123Z" fill="#AB750F"/>
<path id="Vector_21" d="M75.0557 278.818C74.8426 278.956 74.6095 279.233 74.4297 279.197C73.9701 279.095 73.8236 278.665 74.0833 278.249C74.1899 278.082 74.6095 277.973 74.7627 278.067C74.9359 278.177 74.9625 278.555 75.0557 278.818Z" fill="#AB750F"/>
<path id="Vector_22" d="M128.212 303.837C127.759 303.793 127.472 303.524 127.539 303.021C127.605 302.54 127.945 302.292 128.365 302.431C128.558 302.496 128.791 302.766 128.838 302.984C128.944 303.494 128.645 303.757 128.212 303.837Z" fill="#AB750F"/>
<path id="Vector_23" d="M217.447 30.8773C217.607 31.1468 217.634 31.4383 217.52 31.737C217.574 31.9483 217.554 32.1523 217.467 32.3417C217.614 32.4874 217.64 32.6623 217.554 32.8517C217.068 32.3635 216.501 32.5894 215.955 32.6331C215.929 32.0357 215.895 31.4383 215.869 30.8408C216.395 30.8481 216.914 30.8554 217.441 30.8627L217.447 30.8773Z" fill="#AB750F"/>
<path id="Vector_24" d="M209.168 325.046C208.549 324.966 207.823 324.915 207.956 323.968C208.042 323.371 208.649 323.305 209.148 323.269C209.155 323.859 209.161 324.449 209.168 325.046Z" fill="#AB750F"/>
<path id="Vector_25" d="M172.862 37.2448C172.583 37.2448 172.31 37.2448 172.03 37.2375C172.05 36.5891 171.664 36.3778 171.184 36.2685C171.184 35.9844 171.204 35.7002 171.231 35.4161C171.77 35.3869 172.31 35.3651 172.849 35.3359C173.888 35.9625 172.969 36.6037 172.862 37.2448Z" fill="#AB750F"/>
<path id="Vector_26" d="M169.599 44.8003C169.752 44.997 170.045 45.1937 170.045 45.3904C170.045 45.9223 169.679 46.1482 169.259 45.9442C169.1 45.864 168.953 45.4269 169.006 45.2156C169.053 45.0334 169.393 44.9387 169.606 44.8076L169.599 44.8003Z" fill="#AB750F"/>
<path id="Vector_27" d="M90.7341 57.4994C90.5276 57.6305 90.2945 57.9001 90.1146 57.8637C89.6684 57.7617 89.5219 57.3464 89.775 56.9384C89.8749 56.7781 90.2878 56.6761 90.441 56.7708C90.6075 56.8801 90.6408 57.2444 90.7341 57.4994Z" fill="#AB750F"/>
<path id="Vector_28" d="M188.601 71.8308C188.587 71.226 188.574 70.6213 188.554 70.0166C189.194 70.0967 190.026 70.0457 189.88 71.1022C189.793 71.736 189.127 71.7943 188.601 71.8308Z" fill="#AB750F"/>
<path id="Vector_29" d="M38.6506 358.029C38.4508 358.182 38.2443 358.48 38.0645 358.466C37.5916 358.415 37.4051 358.007 37.6316 357.555C37.7248 357.373 38.1444 357.22 38.3176 357.3C38.4908 357.38 38.544 357.774 38.6506 358.029Z" fill="#AB750F"/>
<path id="Vector_30" d="M169.272 102.926C169.073 103.079 168.866 103.371 168.686 103.349C168.227 103.283 168.04 102.875 168.247 102.438C168.333 102.263 168.753 102.132 168.926 102.212C169.099 102.3 169.159 102.678 169.272 102.926Z" fill="#AB750F"/>
<path id="Vector_31" d="M71.1395 106.372C71.1794 105.774 71.2261 105.024 71.8321 104.951C72.8245 104.827 72.738 105.753 72.7779 106.481C72.2318 106.445 71.6856 106.408 71.1328 106.379L71.1395 106.372Z" fill="#AB750F"/>
<path id="Vector_32" d="M336.427 109.498C336.607 109.585 336.927 109.629 337.013 109.804C337.213 110.197 337.066 110.598 336.667 110.714C336.494 110.765 336.141 110.605 336.061 110.43C335.887 110.051 335.981 109.672 336.427 109.498Z" fill="#AB750F"/>
<path id="Vector_33" d="M72.7845 368.951C71.972 368.564 71.9253 367.792 71.9786 366.976C73.2574 367.129 73.9634 367.574 72.7845 368.951Z" fill="#AB750F"/>
<path id="Vector_34" d="M270.45 371.537C270.443 370.939 270.476 370.189 271.049 370.08C271.975 369.897 272.041 370.772 272.101 371.515L270.443 371.537H270.45Z" fill="#AB750F"/>
<path id="Vector_35" d="M28.7933 137.373L28.5535 137.329L28.3137 137.366C28.2405 136.775 28.1738 136.185 28.1006 135.602L28.1139 135.588C28.4469 135.311 28.7866 135.034 29.1196 134.757C29.2661 134.808 29.4127 134.808 29.5659 134.757C29.6325 135.34 29.6991 135.93 29.7657 136.513C29.4393 136.797 29.113 137.089 28.7866 137.373H28.7933Z" fill="#AB750F"/>
<path id="Vector_36" d="M391.228 144.571C391.302 145.35 391.242 146.064 390.516 146.487C390.209 146.137 389.903 145.795 389.597 145.445C389.59 144.921 389.583 144.403 389.577 143.879C389.843 143.799 390.116 143.755 390.389 143.755L390.416 143.777C390.689 144.039 390.955 144.301 391.228 144.564V144.571Z" fill="#AB750F"/>
<path id="Vector_37" d="M60.3697 154.72C59.6371 155.311 58.9044 155.915 57.9054 155.609C57.8987 155.332 57.8987 155.056 57.9054 154.779C58.1851 154.465 58.4649 154.145 58.7513 153.832L58.7313 153.853C59.2708 153.883 59.8102 153.904 60.3564 153.934C60.3431 154.196 60.3564 154.465 60.3764 154.728L60.3697 154.72Z" fill="#AB750F"/>
<path id="Vector_38" d="M28.1069 391.565C28.1136 390.96 28.1269 390.355 28.1336 389.75C28.6597 389.787 29.3324 389.838 29.419 390.464C29.5722 391.506 28.7397 391.47 28.1069 391.565Z" fill="#AB750F"/>
<path id="Vector_39" d="M31.4442 161.912C31.4908 161.336 31.4974 160.579 32.1035 160.506C33.0493 160.389 33.016 161.3 33.0693 162.021C32.5231 161.985 31.9836 161.948 31.4375 161.919L31.4442 161.912Z" fill="#AB750F"/>
<path id="Vector_40" d="M223.195 397.925C223.781 397.925 224.367 397.925 224.96 397.933C224.94 398.537 224.927 399.142 224.907 399.739L223.508 399.688C223.401 399.098 223.301 398.508 223.195 397.918V397.925Z" fill="#AB750F"/>
<path id="Vector_41" d="M126.54 167.442C126.546 168.229 126.44 168.95 125.707 169.329C124.382 167.835 125.468 167.639 126.54 167.442Z" fill="#AB750F"/>
<path id="Vector_42" d="M131.182 405.124C130.843 405.124 130.496 405.124 130.157 405.124C130.083 404.563 130.01 403.994 129.93 403.433L129.877 403.492C130.416 403.477 130.949 403.463 131.489 403.455L131.455 403.419C131.369 403.987 131.276 404.555 131.182 405.124Z" fill="#AB750F"/>
<path id="Vector_43" d="M276.211 179.309C275.598 179.207 274.653 179.185 274.899 178.282C275.172 177.291 275.831 177.75 276.244 178.413C276.238 178.712 276.224 179.011 276.204 179.309H276.211Z" fill="#AB750F"/>
<path id="Vector_44" d="M167.008 410.465C166.828 410.297 166.529 410.159 166.482 409.962C166.369 409.423 166.688 409.11 167.141 409.146C167.608 409.182 167.794 409.612 167.641 410.057C167.574 410.253 167.228 410.334 167.008 410.465Z" fill="#AB750F"/>
<path id="Vector_45" d="M253.373 411.535C253.552 411.361 253.732 411.047 253.912 411.047C254.398 411.047 254.591 411.455 254.412 411.914C254.338 412.089 253.939 412.25 253.752 412.191C253.586 412.14 253.499 411.761 253.379 411.535H253.373Z" fill="#AB750F"/>
<path id="Vector_46" d="M229.928 190.879C229.509 190.755 229.309 190.427 229.449 190.005C229.509 189.83 229.842 189.641 230.035 189.655C230.468 189.699 230.634 190.092 230.508 190.508C230.454 190.682 230.128 190.755 229.928 190.879Z" fill="#AB750F"/>
<path id="Vector_47" d="M170.059 420.578C169.965 420.811 169.932 421.168 169.772 421.27C169.406 421.488 169.033 421.335 168.933 420.876C168.886 420.672 169.033 420.279 169.2 420.184C169.566 419.966 169.886 420.155 170.065 420.585L170.059 420.578Z" fill="#AB750F"/>
<path id="Vector_48" d="M292.749 203.148C292.769 203.746 292.782 204.343 292.802 204.948C292.269 204.817 291.736 204.693 291.197 204.562C291.237 204.307 291.17 204.088 291.01 203.899C291.057 203.6 291.097 203.301 291.13 203.01C291.67 203.061 292.209 203.104 292.749 203.148Z" fill="#AB750F"/>
<path id="Vector_49" d="M116.616 424.373C116.07 424.352 115.517 424.33 114.971 424.308C114.971 423.732 114.971 423.164 114.971 422.596C115.517 422.596 116.057 422.596 116.603 422.596C116.603 423.186 116.616 423.776 116.623 424.366L116.616 424.373Z" fill="#AB750F"/>
<path id="Vector_50" d="M224.954 205.604C225.68 205.691 226.419 205.728 226.719 206.668L226.625 206.755C226.346 207.025 226.059 207.287 225.779 207.557L225.393 207.542H225.007C224.72 207.221 224.441 206.894 224.154 206.573C224.421 206.252 224.687 205.925 224.954 205.604Z" fill="#AB750F"/>
<path id="Vector_51" d="M89.3822 425.407C89.915 425.364 90.4411 425.313 90.9673 425.269C90.974 425.852 91.0139 426.639 90.4678 426.777C89.5686 427.01 89.4621 426.151 89.3755 425.407H89.3822Z" fill="#AB750F"/>
<path id="Vector_52" d="M175.34 429.175C175.5 429.372 175.793 429.568 175.793 429.765C175.793 430.304 175.427 430.53 175.001 430.326C174.834 430.246 174.694 429.801 174.741 429.583C174.781 429.401 175.127 429.306 175.34 429.175Z" fill="#AB750F"/>
<path id="Vector_53" d="M45.4103 440.722C44.8908 440.671 44.1848 440.715 44.1116 440.052C43.9983 439.047 44.8242 439.025 45.4769 438.923C45.457 439.52 45.437 440.125 45.417 440.722H45.4103Z" fill="#AB750F"/>
<path id="Vector_54" d="M34.6544 441.975C34.6544 442.39 34.6677 442.805 34.6743 443.22C34.1415 443.308 33.6087 443.395 33.0825 443.483C33.0825 442.893 33.0825 442.303 33.0892 441.705C33.6153 441.793 34.1349 441.88 34.6544 441.967V441.975Z" fill="#AB750F"/>
<path id="Vector_55" d="M300.122 445.305C300.209 444.569 299.896 443.586 301.041 443.506L301.028 443.491C301.274 443.921 301.527 444.344 301.774 444.773V444.963C301.288 445.254 300.808 445.546 300.322 445.837C300.395 445.597 300.322 445.422 300.122 445.305Z" fill="#AB750F"/>
<path id="Vector_56" d="M157.197 445.435C157.73 445.392 158.256 445.348 158.789 445.312C158.789 445.894 158.829 446.681 158.283 446.82C157.384 447.045 157.284 446.179 157.197 445.443V445.435Z" fill="#AB750F"/>
<path id="Vector_57" d="M172.863 450.791C172.243 450.682 171.284 450.689 171.531 449.757C171.797 448.758 172.477 449.203 172.929 449.844C172.91 450.157 172.89 450.478 172.87 450.791H172.863Z" fill="#AB750F"/>
<path id="Vector_58" d="M369.576 489.084C369.855 489.398 370.162 489.697 370.422 490.024C370.728 490.411 370.701 490.891 370.408 491.212C369.795 491.897 369.456 491.088 369.129 490.775C368.643 490.308 368.976 489.675 369.056 489.106C369.229 489.165 369.409 489.157 369.582 489.084H369.576Z" fill="#AB750F"/>
<path id="Vector_59" d="M1.02609 324.056C0.453301 322.446 0.98613 321.965 2.4181 322.409L2.39812 322.373C2.40478 322.664 2.43142 322.963 2.4847 323.247V323.262C2.16501 323.546 1.84531 323.83 1.53228 324.114L1.2925 323.983L1.03275 324.049L1.02609 324.056Z" fill="#AB750F"/>
<path id="Vector_60" d="M384.654 161.991C384.641 161.401 384.628 160.804 384.614 160.214C385.254 160.177 385.82 160.323 386.199 160.957C385.926 161.307 385.653 161.656 385.374 162.013L385.014 161.984H384.654V161.991Z" fill="#AB750F"/>
<path id="Vector_61" d="M35.4534 164.097C35.3668 164.592 35.7531 165.321 35.0605 165.503C34.794 165.569 34.4277 165.146 34.108 164.949H34.0015C34.3611 164.614 34.7208 164.279 35.0804 163.944C35.167 164.119 35.2869 164.17 35.4534 164.097Z" fill="#AB750F"/>
<path id="Vector_62" d="M41.3613 165.598C41.3213 164.906 41.5278 164.323 42.034 163.886C42.3603 164.17 42.68 164.454 43.0064 164.738C42.9598 164.993 42.9464 165.255 42.9664 165.51L41.3613 165.598Z" fill="#AB750F"/>
<path id="Vector_63" d="M21.5531 342.35C21.5398 341.833 21.4332 341.148 22.0793 341.119C22.6254 341.097 22.8652 341.665 22.8985 342.263C22.4523 342.292 21.9994 342.321 21.5531 342.35Z" fill="#AB750F"/>
<path id="Vector_64" d="M301.873 193.043L301.713 192.038C301.84 191.812 301.92 191.564 301.94 191.302C302.166 191.258 302.393 191.222 302.619 191.192C302.906 191.549 303.199 191.906 303.485 192.271C303.425 192.424 303.425 192.584 303.472 192.744C302.939 192.846 302.406 192.948 301.873 193.043Z" fill="#AB750F"/>
<path id="Vector_65" d="M282.026 359.64C282.312 359.96 282.605 360.281 282.891 360.601L282.032 361.519L282.019 361.505C281.746 361.206 281.473 360.907 281.2 360.616L281.18 360.594C281.18 360.288 281.193 359.982 281.193 359.676C281.466 359.654 281.739 359.647 282.012 359.64H282.026Z" fill="#AB750F"/>
<path id="Vector_66" d="M360.597 224.889C360.931 224.197 361.43 223.687 362.003 224.445C362.349 224.911 361.93 225.45 361.463 225.763C361.17 225.472 360.884 225.18 360.591 224.889H360.597Z" fill="#AB750F"/>
<path id="Vector_67" d="M242.29 381.489C241.597 381.525 240.771 381.875 240.651 380.614L240.665 380.593C240.971 380.309 241.271 380.024 241.577 379.74C241.797 379.74 242.017 379.74 242.237 379.74C242.243 380.33 242.256 380.921 242.263 381.511L242.296 381.489H242.29Z" fill="#AB750F"/>
<path id="Vector_68" d="M17.5839 382.524C17.9968 382.291 18.2765 381.541 18.8693 382.029C19.0092 382.138 19.0358 382.648 18.9293 382.845C18.5563 383.501 18.0101 383.129 17.5239 383.02C17.6571 382.874 17.6771 382.706 17.5839 382.524Z" fill="#AB750F"/>
<path id="Vector_69" d="M353.983 385.227C353.89 384.454 354.097 383.835 354.703 383.398C355.009 383.711 355.322 384.032 355.628 384.345C355.602 384.578 355.595 384.811 355.615 385.045C355.076 385.103 354.529 385.168 353.99 385.227H353.983Z" fill="#AB750F"/>
<path id="Vector_70" d="M216.714 387.914C216.341 387.812 215.709 387.805 215.642 387.586C215.356 386.661 216.108 386.428 216.668 386.1C216.688 386.705 216.701 387.31 216.714 387.914Z" fill="#AB750F"/>
<path id="Vector_71" d="M18.789 394.996C17.9165 394.297 18.1696 393.459 18.5426 392.599L18.6225 392.562C19.2552 393.349 19.182 394.194 18.7557 395.054L18.789 394.989V394.996Z" fill="#AB750F"/>
<path id="Vector_72" d="M114.964 64.5155C114.964 64.2095 114.957 63.9035 114.951 63.5975C115.237 63.3061 115.523 63.0219 115.803 62.7378C116.569 63.0729 116.622 63.7869 116.609 64.5447C116.063 64.5374 115.51 64.5228 114.964 64.5155Z" fill="#AB750F"/>
<path id="Vector_73" d="M67.2765 70.1034L67.6228 70.0742C67.9558 70.3802 68.2955 70.6862 68.6285 70.9922C68.5885 71.2181 68.5819 71.4512 68.6085 71.6771C68.069 71.7354 67.5295 71.7937 66.9901 71.8519H66.9834C67.0833 71.2618 67.1832 70.6789 67.2831 70.1034H67.2765Z" fill="#AB750F"/>
<path id="Vector_74" d="M231.486 103.699C230.907 103.721 230.394 103.553 229.988 103.087C230.307 102.715 230.627 102.344 230.947 101.965L231.307 101.987C231.366 102.562 231.42 103.131 231.48 103.699H231.486Z" fill="#AB750F"/>
<path id="Vector_75" d="M301.494 287.226C301.281 287.342 301.048 287.583 300.868 287.546C300.428 287.459 300.275 287.058 300.488 286.636C300.555 286.504 300.968 286.439 301.108 286.534C301.294 286.665 301.374 286.985 301.501 287.226H301.494Z" fill="#AB750F"/>
<path id="Vector_76" d="M158.796 444.372C158.496 444.081 158.197 443.782 157.897 443.491C157.917 443.17 157.937 442.857 157.964 442.536C158.51 442.565 159.056 442.594 159.609 442.624C159.589 443.352 159.509 444.037 158.796 444.372Z" fill="#AB750F"/>
<path id="Vector_77" d="M178.637 444.365C178.91 444.328 179.183 444.328 179.457 444.372C179.457 444.948 179.736 445.217 180.249 445.225C180.349 445.348 180.449 445.48 180.549 445.611C180.436 445.793 180.362 445.997 180.322 446.208C179.836 446.186 179.357 446.157 178.87 446.135C178.791 445.545 178.704 444.962 178.624 444.372L178.644 444.358L178.637 444.365Z" fill="#AB750F"/>
<path id="Vector_78" d="M57.0729 296.756C57.0596 296.479 57.0596 296.202 57.0596 295.925C57.3526 295.627 57.6457 295.335 57.9387 295.037L57.9121 295.073L58.2917 295.095L58.6714 295.08V295.029C58.6847 295.627 58.6913 296.224 58.698 296.822C58.1519 296.792 57.6057 296.771 57.0596 296.756H57.0729Z" fill="#AB750F"/>
<path id="Vector_79" d="M277.916 448.102C278.436 447.745 278.789 447.038 279.534 447.14C279.65 448.452 279.122 449.003 277.949 448.794C278.009 448.561 277.996 448.328 277.916 448.102Z" fill="#AB750F"/>
<path id="Vector_80" d="M254.552 301.316C254.438 301.564 254.385 301.935 254.205 302.023C254.039 302.103 253.752 301.892 253.513 301.804C253.646 301.556 253.732 301.258 253.919 301.083C254.185 300.821 254.432 300.937 254.552 301.316Z" fill="#AB750F"/>
<path id="Vector_81" d="M256.344 133.795C256.643 133.46 256.937 133.118 257.236 132.783C257.509 132.812 257.776 132.834 258.049 132.848V133.795C257.782 134.094 257.516 134.393 257.25 134.692L257.223 134.721C256.93 134.407 256.637 134.101 256.344 133.788V133.795Z" fill="#AB750F"/>
<path id="Vector_82" d="M19.8551 135.632C20.3879 135.967 20.9208 136.295 21.4469 136.63C21.3604 136.813 21.3537 136.995 21.4336 137.184C20.9008 137.272 20.3746 137.352 19.8418 137.439C19.8551 136.834 19.8684 136.23 19.8818 135.625L19.8618 135.64L19.8551 135.632Z" fill="#AB750F"/>
<path id="Vector_83" d="M344.892 309.549C345.298 308.952 345.818 308.369 346.337 309.258C346.637 309.768 346.204 310.285 345.671 310.496C345.412 310.183 345.152 309.862 344.892 309.549Z" fill="#AB750F"/>
<path id="Vector_84" d="M147.221 317.739C147.514 317.171 147.967 316.763 148.46 317.28C148.959 317.804 148.579 318.315 148.1 318.664C147.807 318.358 147.514 318.045 147.221 317.739Z" fill="#AB750F"/>
<path id="Vector_85" d="M128.219 488.189L126.567 488.05C127.186 487.081 127.752 486.936 128.219 488.189Z" fill="#AB750F"/>
<path id="Vector_86" d="M302.679 487.118C302.233 487.118 301.78 486.994 301.913 486.389C302.066 485.661 302.453 485.974 302.779 486.295C302.726 486.564 302.693 486.841 302.679 487.118Z" fill="#AB750F"/>
<path id="Vector_87" d="M167.927 39.9407C167.927 39.3433 167.914 38.7532 167.907 38.1557C168.18 38.1266 168.453 38.1193 168.726 38.1484C168.726 38.469 168.726 38.7896 168.726 39.1174C168.746 39.3943 168.726 39.6712 168.647 39.9407H168.287H167.927Z" fill="#AB750F"/>
<path id="Vector_88" d="M164.577 47.2339C165.124 47.2485 165.676 47.2557 166.222 47.2703C166.222 47.5326 166.222 47.7949 166.209 48.0572C165.663 48.0863 165.124 48.1155 164.577 48.1446C164.564 47.8386 164.564 47.5399 164.577 47.2339Z" fill="#AB750F"/>
<path id="Vector_89" d="M87.6771 49.0994C88.2232 49.0921 88.7694 49.0776 89.3222 49.063C89.3222 49.3763 89.3222 49.6968 89.3222 50.0101C88.776 49.9664 88.2299 49.9227 87.6837 49.879C87.6837 49.6167 87.6771 49.3544 87.6704 49.0921L87.6771 49.0994Z" fill="#AB750F"/>
<path id="Vector_90" d="M43.7656 478.12C43.8055 478.725 43.8388 479.33 43.8788 479.934C43.5791 479.934 43.286 479.927 42.9863 479.92C43.0196 479.315 43.0596 478.718 43.0929 478.12C43.3193 478.135 43.5391 478.135 43.7656 478.12Z" fill="#AB750F"/>
<path id="Vector_91" d="M150.85 56.2031C150.73 55.6348 150.604 55.0738 150.484 54.5055C152.402 54.4254 151.057 55.5474 151.003 56.1958H150.85V56.2031Z" fill="#AB750F"/>
<path id="Vector_92" d="M211.746 59.1382C212.245 59.2474 212.745 59.3567 213.244 59.466L213.291 59.5753C212.778 59.6919 212.265 59.8012 211.752 59.9104C211.739 59.6482 211.739 59.3931 211.752 59.1309L211.746 59.1382Z" fill="#AB750F"/>
<path id="Vector_93" d="M210.64 71.7652C210.234 71.0949 209.754 70.41 210.893 70.0166C210.807 70.5995 210.72 71.1823 210.64 71.7652Z" fill="#AB750F"/>
<path id="Vector_94" d="M49.6799 78.1768C49.6333 77.4337 49.6333 76.7197 50.4326 76.4282C50.4326 77.1422 50.3859 77.8344 49.6799 78.1768Z" fill="#AB750F"/>
<path id="Vector_95" d="M119.134 84.7043C119.673 84.6606 120.213 84.6096 120.752 84.5659V85.5422C120.206 85.4912 119.66 85.4402 119.114 85.3892C119.134 85.1634 119.14 84.9375 119.134 84.7043Z" fill="#AB750F"/>
<path id="Vector_96" d="M160.455 90.0741C161.007 90.0741 161.554 90.0596 162.1 90.0596V90.9776C161.554 90.9557 161.001 90.9411 160.455 90.9266C160.455 90.6424 160.455 90.3583 160.455 90.0814V90.0741Z" fill="#AB750F"/>
<path id="Vector_97" d="M244.754 100.981C243.869 100.318 243.675 99.6989 244.848 99.167C244.814 99.7717 244.788 100.376 244.754 100.981Z" fill="#AB750F"/>
<path id="Vector_98" d="M105.899 104.755C106.499 104.799 106.832 105.156 106.719 105.804C106.645 106.234 106.279 106.409 105.879 106.401C105.879 105.855 105.893 105.309 105.899 104.755Z" fill="#AB750F"/>
<path id="Vector_99" d="M392.827 112.726C392.101 112.558 391.648 112.15 392.254 111.4C392.48 111.123 392.847 111.567 393 111.924C392.9 112.179 392.84 112.449 392.827 112.726Z" fill="#AB750F"/>
<path id="Vector_100" d="M182.833 113.891L184.425 113.767C184.425 114.088 184.438 114.401 184.438 114.722C183.892 114.656 183.353 114.59 182.807 114.518C182.833 114.314 182.84 114.102 182.833 113.891Z" fill="#AB750F"/>
<path id="Vector_101" d="M112.48 124.674C113.006 124.725 113.539 124.776 114.065 124.827C114.065 125.031 114.072 125.235 114.098 125.439L112.473 125.629C112.473 125.308 112.473 124.988 112.473 124.667L112.48 124.674Z" fill="#AB750F"/>
<path id="Vector_102" d="M105.054 127.45C105.6 127.428 106.146 127.413 106.692 127.392C106.705 127.69 106.699 127.989 106.685 128.295C106.146 128.266 105.6 128.237 105.06 128.208C105.06 127.953 105.06 127.705 105.06 127.45H105.054Z" fill="#AB750F"/>
<path id="Vector_103" d="M132.328 131.96C132.328 131.355 132.328 130.75 132.335 130.146C132.595 130.146 132.854 130.146 133.114 130.146C133.121 130.75 133.127 131.355 133.141 131.952H132.734H132.328V131.96Z" fill="#AB750F"/>
<path id="Vector_104" d="M259.7 131.041C259.979 131.034 260.259 131.019 260.546 131.005C260.539 131.624 260.532 132.243 260.526 132.863C260.253 132.892 259.986 132.863 259.726 132.768C259.72 132.192 259.706 131.617 259.7 131.034V131.041Z" fill="#AB750F"/>
<path id="Vector_105" d="M263.85 138.327C263.85 137.723 263.836 137.118 263.83 136.513C264.782 137.103 264.769 137.715 263.85 138.327Z" fill="#AB750F"/>
<path id="Vector_106" d="M100.059 140.105C100.585 140.185 101.111 140.273 101.644 140.353C101.624 140.52 101.631 140.688 101.678 140.855L100.066 141.147C100.066 140.797 100.066 140.455 100.059 140.105Z" fill="#AB750F"/>
<path id="Vector_107" d="M68.6348 151.092C68.6414 150.487 68.6548 149.883 68.6614 149.285C69.5539 149.904 69.5805 150.509 68.6348 151.092Z" fill="#AB750F"/>
<path id="Vector_108" d="M339.951 149.307C341.11 149.416 340.87 150.261 340.71 151.063C340.217 150.983 339.977 150.604 339.784 150.152C339.857 149.868 339.917 149.577 339.964 149.278L339.944 149.3L339.951 149.307Z" fill="#AB750F"/>
<path id="Vector_109" d="M44.3246 466.433C44.4378 466.98 44.5444 467.526 44.6576 468.072C43.3988 467.912 44.0249 467.096 44.1848 466.44H44.3246V466.433Z" fill="#AB750F"/>
<path id="Vector_110" d="M192.717 160.112C192.69 160.731 192.664 161.35 192.637 161.977C191.758 161.307 191.778 160.687 192.717 160.112Z" fill="#AB750F"/>
<path id="Vector_111" d="M382.237 161.431C382.849 161.307 383.622 160.687 383.775 162.021H383.769C383.242 161.904 382.723 161.788 382.197 161.664L382.237 161.431Z" fill="#AB750F"/>
<path id="Vector_112" d="M41.4743 171.974C41.421 171.384 41.3677 170.793 41.3145 170.203L41.3344 170.181C41.6142 170.167 41.9006 170.16 42.1803 170.145L42.2402 170.203C42.1736 170.801 42.107 171.398 42.0404 171.996C41.8539 171.966 41.6608 171.959 41.4743 171.966V171.974Z" fill="#AB750F"/>
<path id="Vector_113" d="M305.17 463.476C304.624 463.49 304.078 463.512 303.532 463.527V462.572C304.078 462.609 304.624 462.645 305.17 462.682C305.17 462.944 305.17 463.213 305.17 463.476Z" fill="#AB750F"/>
<path id="Vector_114" d="M2.41145 177.524C2.47139 176.934 2.53799 176.337 2.59794 175.746C2.79108 175.768 2.98424 175.761 3.17072 175.717C3.22401 176.315 3.28395 176.912 3.33723 177.517L2.40479 177.531L2.41145 177.524Z" fill="#AB750F"/>
<path id="Vector_115" d="M380.499 178.399C380.519 177.816 380.545 177.226 380.565 176.643C380.785 176.643 380.998 176.629 381.218 176.607C381.278 177.212 381.338 177.824 381.391 178.428C381.092 178.421 380.792 178.407 380.492 178.399H380.499Z" fill="#AB750F"/>
<path id="Vector_116" d="M106.686 180.228C107.239 180.228 107.792 180.235 108.338 180.242C108.338 180.526 108.338 180.81 108.331 181.095L106.693 181.138C106.693 180.832 106.693 180.534 106.693 180.228H106.686Z" fill="#AB750F"/>
<path id="Vector_117" d="M67.0229 195.702V193.917C67.9954 194.515 67.9954 195.105 67.0229 195.702Z" fill="#AB750F"/>
<path id="Vector_118" d="M73.5638 197.422C73.3107 197.487 73.0576 197.546 72.8045 197.619C72.3516 197.742 72.0985 197.436 71.8521 197.101C72.1651 196.905 72.4648 196.642 72.7978 196.533C73.0243 196.46 73.304 196.599 73.5571 196.65C73.5238 196.912 73.5238 197.167 73.5571 197.429L73.5638 197.422Z" fill="#AB750F"/>
<path id="Vector_119" d="M18.1768 197.531C18.7229 197.553 19.2691 197.582 19.8152 197.604C19.5488 197.925 19.289 198.245 19.0226 198.559C18.5764 198.376 18.2767 198.056 18.1768 197.531Z" fill="#AB750F"/>
<path id="Vector_120" d="M168.72 210.303C169.273 210.303 169.819 210.303 170.365 210.303C170.365 210.595 170.365 210.879 170.365 211.163C169.819 211.17 169.266 211.177 168.72 211.185C168.72 210.886 168.72 210.587 168.72 210.296V210.303Z" fill="#AB750F"/>
<path id="Vector_121" d="M305.177 213.029C305.197 212.431 305.224 211.826 305.244 211.229C305.45 211.244 305.657 211.251 305.863 211.244C305.91 211.834 305.963 212.431 306.01 213.021C305.73 213.021 305.457 213.021 305.177 213.036V213.029Z" fill="#AB750F"/>
<path id="Vector_122" d="M264.689 457.129C264.663 457.734 264.643 458.339 264.616 458.944C263.69 458.295 263.577 457.683 264.689 457.129Z" fill="#AB750F"/>
<path id="Vector_123" d="M254.612 457.741C254.106 457.829 253.606 457.916 253.1 457.996C253.087 457.734 253.08 457.464 253.1 457.202C253.62 457.304 254.132 457.399 254.652 457.501L254.612 457.734V457.741Z" fill="#AB750F"/>
<path id="Vector_124" d="M60.7095 216.518C60.603 216.263 60.4964 216.001 60.3898 215.746C60.17 215.243 60.4698 214.82 60.7895 214.82C61.1025 214.82 61.4022 215.236 61.1691 215.738C61.0492 215.993 60.956 216.256 60.8494 216.511H60.7095V216.518Z" fill="#AB750F"/>
<path id="Vector_125" d="M168.98 217.393C168.893 216.846 168.807 216.307 168.72 215.761C168.993 215.732 169.26 215.761 169.526 215.856C169.546 216.453 169.386 216.978 168.98 217.393Z" fill="#AB750F"/>
<path id="Vector_126" d="M83.5344 218.507C84.0805 218.515 84.62 218.529 85.1661 218.536C85.1661 218.784 85.1595 219.039 85.1595 219.287C84.62 219.301 84.0805 219.316 83.5477 219.331C83.5277 219.061 83.5277 218.784 83.541 218.515L83.5344 218.507Z" fill="#AB750F"/>
<path id="Vector_127" d="M331.672 220.314C330.853 220.015 330.873 219.265 330.873 218.521L330.859 218.536C331.099 218.536 331.332 218.529 331.572 218.514C331.605 219.112 331.639 219.716 331.672 220.314Z" fill="#AB750F"/>
<path id="Vector_128" d="M360.617 219.439C361.163 219.432 361.709 219.425 362.255 219.417C362.269 219.716 362.269 220.015 362.255 220.314C361.709 220.292 361.163 220.27 360.61 220.255C360.61 219.986 360.61 219.716 360.61 219.447L360.617 219.439Z" fill="#AB750F"/>
<path id="Vector_129" d="M198.518 223.032C198.512 222.427 198.498 221.83 198.492 221.225C199.544 221.808 199.537 222.413 198.518 223.032Z" fill="#AB750F"/>
<path id="Vector_130" d="M199.257 225.604C198.371 225.415 198.345 224.715 198.451 223.943C199.41 224.096 199.271 224.89 199.257 225.604Z" fill="#AB750F"/>
<path id="Vector_131" d="M71.1259 227.599C70.0869 227.002 70.1136 226.39 71.1126 225.778C71.1126 226.383 71.1193 226.995 71.1259 227.599Z" fill="#AB750F"/>
<path id="Vector_132" d="M0.000383724 226.71C0.826265 226.995 0.819604 227.723 0.759661 228.474C0.0669867 228.117 -0.00627661 227.439 0.000383724 226.71Z" fill="#AB750F"/>
<path id="Vector_133" d="M215.182 243.927C215.162 243.41 214.736 242.506 215.296 242.477C216.348 242.419 215.615 243.402 215.702 243.927H215.442H215.182Z" fill="#AB750F"/>
<path id="Vector_134" d="M109.23 247.606C109.21 247.009 109.197 246.411 109.177 245.821C110.322 246.375 110.149 246.98 109.23 247.606Z" fill="#AB750F"/>
<path id="Vector_135" d="M177.019 254.091C177.565 254.069 178.104 254.04 178.651 254.018C178.651 254.324 178.651 254.63 178.651 254.936C178.104 254.914 177.558 254.9 177.012 254.871C177.012 254.608 177.012 254.346 177.019 254.091Z" fill="#AB750F"/>
<path id="Vector_136" d="M6.60742 264.947C7.15357 264.954 7.70638 264.961 8.25252 264.976C8.25252 265.253 8.25253 265.522 8.24587 265.792C7.69972 265.821 7.15357 265.85 6.60742 265.879C6.60742 265.566 6.60742 265.253 6.60742 264.947Z" fill="#AB750F"/>
<path id="Vector_137" d="M86.8379 266.768C86.8379 266.163 86.8379 265.558 86.8446 264.954C87.1043 264.954 87.3707 264.954 87.6305 264.954C87.6438 265.558 87.6638 266.163 87.6771 266.775C87.3974 266.775 87.1176 266.775 86.8379 266.775V266.768Z" fill="#AB750F"/>
<path id="Vector_138" d="M209.395 269.828C209.894 269.726 210.394 269.624 210.893 269.529C210.893 269.792 210.887 270.047 210.88 270.309C210.367 270.214 209.848 270.127 209.335 270.032L209.395 269.828Z" fill="#AB750F"/>
<path id="Vector_139" d="M6.57411 274.047C5.52178 273.478 5.66831 272.874 6.52749 272.254C6.54081 272.852 6.56079 273.449 6.57411 274.047Z" fill="#AB750F"/>
<path id="Vector_140" d="M267.153 274.075L268.798 274.053C268.798 274.359 268.798 274.665 268.798 274.971C268.245 274.963 267.699 274.956 267.146 274.949C267.146 274.657 267.146 274.366 267.146 274.075H267.153Z" fill="#AB750F"/>
<path id="Vector_141" d="M268.771 277.71C268.798 277.149 268.818 276.581 268.844 276.02C269.73 276.625 269.897 277.2 268.771 277.71Z" fill="#AB750F"/>
<path id="Vector_142" d="M3.38405 281.31C3.34408 280.712 3.30412 280.108 3.26416 279.51L4.11002 279.525C4.07006 280.115 4.02344 280.712 3.98348 281.303L3.68376 281.288L3.37738 281.303L3.38405 281.31Z" fill="#AB750F"/>
<path id="Vector_143" d="M270.484 283.167C269.291 282.665 269.571 282.038 270.35 281.36C270.397 281.965 270.437 282.563 270.484 283.167Z" fill="#AB750F"/>
<path id="Vector_144" d="M212.572 283.212C213.071 283.146 213.817 283.088 213.79 283.7C213.77 284.203 212.978 284.166 212.472 284.101C212.532 283.809 212.565 283.511 212.578 283.212H212.572Z" fill="#AB750F"/>
<path id="Vector_145" d="M218.339 286.811C217.34 286.258 217.453 285.646 218.273 285.012C218.293 285.609 218.319 286.214 218.339 286.811Z" fill="#AB750F"/>
<path id="Vector_146" d="M261.351 284.982C261.898 284.99 262.45 284.997 262.996 285.004C262.996 285.274 262.997 285.543 262.983 285.813C262.437 285.849 261.891 285.893 261.345 285.93C261.345 285.616 261.345 285.296 261.345 284.982H261.351Z" fill="#AB750F"/>
<path id="Vector_147" d="M53.29 289.397C53.1768 288.843 53.0636 288.289 52.957 287.743L52.937 287.758L53.3433 287.721H53.7562C53.9227 288.384 53.603 288.901 53.3566 289.441L53.29 289.397Z" fill="#AB750F"/>
<path id="Vector_148" d="M58.6649 300.508C58.6848 301.113 58.7048 301.725 58.7248 302.329C57.819 301.754 57.779 301.149 58.6649 300.508Z" fill="#AB750F"/>
<path id="Vector_149" d="M261.405 300.632C262.364 301.222 262.404 301.783 261.352 302.293C261.372 301.74 261.392 301.186 261.405 300.632Z" fill="#AB750F"/>
<path id="Vector_150" d="M34.7278 302.308C34.7478 302.606 34.7478 302.898 34.7278 303.196C34.1816 303.175 33.6355 303.145 33.0894 303.124C33.3624 302.818 33.6422 302.519 33.9152 302.213C34.1816 302.249 34.4547 302.278 34.7211 302.315L34.7278 302.308Z" fill="#AB750F"/>
<path id="Vector_151" d="M164.124 307.611C163.944 306.956 163.225 306.125 164.57 305.972L164.55 305.95C164.431 306.518 164.304 307.079 164.184 307.648L164.124 307.611Z" fill="#AB750F"/>
<path id="Vector_152" d="M48.8273 306.942L50.4391 306.869C50.4724 307.16 50.4724 307.459 50.4391 307.75C49.8996 307.707 49.3601 307.663 48.814 307.619C48.8206 307.393 48.8206 307.167 48.814 306.942H48.8273Z" fill="#AB750F"/>
<path id="Vector_153" d="M202.721 308.551C202.695 307.983 202.668 307.422 202.648 306.854C202.941 306.847 203.227 306.839 203.52 306.832C203.72 307.663 203.707 308.377 202.728 308.551H202.721Z" fill="#AB750F"/>
<path id="Vector_154" d="M294.441 306.862C294.987 306.862 295.533 306.869 296.079 306.876C296.079 307.153 296.086 307.43 296.079 307.714C295.533 307.736 294.98 307.758 294.427 307.78C294.427 307.474 294.427 307.168 294.434 306.869L294.441 306.862Z" fill="#AB750F"/>
<path id="Vector_155" d="M115.004 307.874C115.544 307.831 116.083 307.787 116.616 307.743C116.616 308.049 116.616 308.362 116.616 308.668C116.077 308.617 115.537 308.559 114.998 308.508C115.018 308.297 115.018 308.086 115.004 307.867V307.874Z" fill="#AB750F"/>
<path id="Vector_156" d="M6.59434 309.535C7.14049 309.586 7.67997 309.629 8.21946 309.68C8.20614 309.899 8.20614 310.118 8.21946 310.336C7.67997 310.394 7.14049 310.453 6.601 310.511L6.58768 310.496C6.58102 310.19 6.5677 309.877 6.56104 309.571L6.58768 309.535H6.59434Z" fill="#AB750F"/>
<path id="Vector_157" d="M13.2479 309.571C13.2346 310.169 13.2146 310.766 13.2013 311.364C12.3288 311.101 12.3021 310.38 12.4153 309.586C12.6951 309.586 12.9748 309.579 13.2479 309.571Z" fill="#AB750F"/>
<path id="Vector_158" d="M342.341 310.475C342.907 310.504 343.466 310.533 344.033 310.563C344.026 310.803 344.026 311.043 344.033 311.284C343.493 311.313 342.954 311.335 342.414 311.364C342.394 311.073 342.374 310.774 342.341 310.475Z" fill="#AB750F"/>
<path id="Vector_159" d="M86.7979 315.946C85.9254 315.327 85.8788 314.722 86.8246 314.139C86.8179 314.744 86.8046 315.349 86.7979 315.946Z" fill="#AB750F"/>
<path id="Vector_160" d="M191.878 314.133C191.845 314.759 191.811 315.386 191.778 316.013C191.565 315.983 191.358 315.983 191.145 316.013C191.112 315.386 191.079 314.759 191.045 314.133C191.325 314.133 191.598 314.133 191.878 314.133Z" fill="#AB750F"/>
<path id="Vector_161" d="M72.771 317.783C72.791 317.186 72.8043 316.581 72.8309 315.983C73.0574 315.983 73.2838 315.983 73.5103 315.983C73.5436 316.581 73.5836 317.178 73.6169 317.783C73.3371 317.783 73.0507 317.783 72.771 317.783Z" fill="#AB750F"/>
<path id="Vector_162" d="M263.017 317.776C263.017 317.171 263.023 316.573 263.03 315.969C263.276 315.969 263.516 315.969 263.763 315.969L263.796 317.761H263.41H263.023L263.017 317.776Z" fill="#AB750F"/>
<path id="Vector_163" d="M356.468 318.686C357.021 318.686 357.567 318.701 358.12 318.708C358.12 318.999 358.12 319.283 358.12 319.575C357.574 319.575 357.021 319.589 356.475 319.589C356.468 319.291 356.468 318.985 356.475 318.686H356.468Z" fill="#AB750F"/>
<path id="Vector_164" d="M98.4267 324.187C98.9529 324.23 99.479 324.274 100.005 324.325C100.005 324.544 100.019 324.762 100.052 324.981C99.499 325.046 98.9529 325.112 98.4067 325.17C98.4067 324.842 98.4201 324.514 98.4267 324.187Z" fill="#AB750F"/>
<path id="Vector_165" d="M109.183 440.737C109.123 441.312 109.07 441.888 109.01 442.464C108.364 441.801 108.118 441.189 109.183 440.737Z" fill="#AB750F"/>
<path id="Vector_166" d="M161.447 345.017C161.387 344.434 161.327 343.859 161.267 343.276H161.274C161.553 343.276 161.833 343.276 162.106 343.269H162.113C162.046 343.866 161.973 344.456 161.906 345.046L161.68 345.01H161.447V345.017Z" fill="#AB750F"/>
<path id="Vector_167" d="M95.1104 346.029C95.6632 346.029 96.2093 346.021 96.7555 346.014C96.7555 346.306 96.7555 346.604 96.7555 346.896C96.2093 346.888 95.6632 346.874 95.117 346.867C95.117 346.59 95.1104 346.306 95.117 346.021L95.1104 346.029Z" fill="#AB750F"/>
<path id="Vector_168" d="M344.979 351.413C345.265 350.597 345.851 350.459 346.551 350.554C346.551 350.889 346.564 351.224 346.571 351.559C346.018 351.501 345.472 351.45 344.919 351.392L344.979 351.413Z" fill="#AB750F"/>
<path id="Vector_169" d="M148.046 438.019C147.507 437.976 146.974 437.932 146.434 437.888C146.454 437.677 146.454 437.473 146.428 437.262C146.967 437.196 147.513 437.131 148.053 437.065L148.073 437.094C148.073 437.4 148.06 437.713 148.053 438.019H148.046Z" fill="#AB750F"/>
<path id="Vector_170" d="M61.1685 354.204C60.2827 353.577 60.2294 352.973 61.2018 352.39C61.1885 352.994 61.1818 353.599 61.1685 354.204Z" fill="#AB750F"/>
<path id="Vector_171" d="M54.5549 437.05C54.0088 437.079 53.4627 437.101 52.9165 437.13C53.416 435.979 53.9688 436.073 54.5549 437.05Z" fill="#AB750F"/>
<path id="Vector_172" d="M46.9756 436.707C46.596 436.787 46.1963 436.984 45.8433 436.911C45.4504 436.824 45.457 436.379 45.8567 436.314C46.2097 436.255 46.6026 436.481 46.9756 436.576V436.7V436.707Z" fill="#AB750F"/>
<path id="Vector_173" d="M79.5313 361.41C79.478 360.827 79.418 360.244 79.3647 359.661L79.3847 359.646C79.6645 359.661 79.9375 359.668 80.2173 359.683C80.2572 360.39 80.164 361.031 79.5313 361.402V361.41Z" fill="#AB750F"/>
<path id="Vector_174" d="M74.4431 360.63C74.9826 360.637 75.5221 360.644 76.0616 360.652C76.0682 360.899 76.0682 361.154 76.0616 361.402C75.5221 361.417 74.9759 361.431 74.4364 361.453C74.4165 361.176 74.4231 360.907 74.4364 360.63H74.4431Z" fill="#AB750F"/>
<path id="Vector_175" d="M245.627 360.564C246.14 360.608 246.659 360.644 247.172 360.688C246.879 361.46 246.293 361.606 245.62 361.562C245.62 361.227 245.62 360.892 245.627 360.564Z" fill="#AB750F"/>
<path id="Vector_176" d="M69.5073 367.981C70.0068 367.901 70.8061 367.806 70.7994 368.345C70.7928 368.899 70.0068 368.775 69.5073 368.68C69.5073 368.447 69.5073 368.207 69.5073 367.974V367.981Z" fill="#AB750F"/>
<path id="Vector_177" d="M110.928 374.182C110.875 373.591 110.822 373.001 110.769 372.411C111.848 372.892 111.714 373.504 110.928 374.182Z" fill="#AB750F"/>
<path id="Vector_178" d="M248.93 376.083C248.957 375.486 248.977 374.888 249.003 374.291C249.849 374.932 249.903 375.53 248.93 376.083Z" fill="#AB750F"/>
<path id="Vector_179" d="M130.556 381.511C129.844 380.826 129.471 380.17 130.73 379.711C130.67 380.308 130.616 380.913 130.556 381.511Z" fill="#AB750F"/>
<path id="Vector_180" d="M194.482 384.578C195.115 384.301 195.841 383.748 195.954 385.139L195.987 385.11C195.475 385.008 194.968 384.899 194.456 384.797L194.482 384.585V384.578Z" fill="#AB750F"/>
<path id="Vector_181" d="M327.535 393.423C328.081 393.409 328.627 393.394 329.174 393.387C328.647 394.45 328.101 394.429 327.535 393.423Z" fill="#AB750F"/>
<path id="Vector_182" d="M191.172 396.425C191.425 396.345 191.678 396.279 191.925 396.184C192.424 396.002 192.617 396.265 192.538 396.76C192.478 397.132 192.218 397.168 191.911 396.993C191.685 396.862 191.419 396.811 191.166 396.724V396.432L191.172 396.425Z" fill="#AB750F"/>
<path id="Vector_183" d="M138.129 397.947C138.409 397.932 138.689 397.925 138.968 397.911C139.042 398.224 139.108 398.544 139.182 398.858C138.829 399.127 138.476 399.404 138.123 399.674C138.123 399.098 138.123 398.523 138.129 397.947Z" fill="#AB750F"/>
<path id="Vector_184" d="M313.376 418.012C313.456 418.588 313.522 419.506 313.043 419.506C312.57 419.506 312.636 418.588 312.716 418.012C312.936 418.005 313.156 418.005 313.376 418.012Z" fill="#AB750F"/>
<path id="Vector_185" d="M310.159 421.634C310.571 421.714 311.224 421.364 311.198 422.224C311.198 422.333 310.525 422.413 310.159 422.508C310.139 422.216 310.139 421.925 310.159 421.634Z" fill="#AB750F"/>
<path id="Vector_186" d="M236.496 427.098C236.536 426.501 236.582 425.904 236.622 425.306C237.435 425.976 237.661 426.596 236.496 427.098Z" fill="#AB750F"/>
<path id="Vector_187" d="M285.409 427.054C285.395 426.464 285.382 425.867 285.369 425.277C285.628 425.255 285.888 425.255 286.155 425.277C286.155 425.874 286.155 426.471 286.155 427.069H285.782H285.409V427.054Z" fill="#AB750F"/>
<path id="Vector_188" d="M166.495 431.513C166.409 430.952 166.329 430.391 166.249 429.83C167.514 429.961 166.888 430.828 166.782 431.498L166.502 431.513H166.495Z" fill="#AB750F"/>
<path id="Vector_189" d="M129.004 529.164C128.425 530.06 127.872 530.191 127.366 529.083C127.912 529.105 128.458 529.134 129.004 529.164Z" fill="#AB750F"/>
<path id="Vector_190" d="M149.725 525.447C149.658 526.03 149.592 526.606 149.518 527.189H149.279L149.045 527.225C148.972 526.635 148.899 526.045 148.826 525.447C149.125 525.447 149.425 525.447 149.725 525.447Z" fill="#AB750F"/>
<path id="Vector_191" d="M179.25 523.757C179.317 524.318 179.383 524.886 179.457 525.447C179.217 525.447 178.977 525.44 178.737 525.433C178.797 524.857 178.864 524.289 178.924 523.713L179.25 523.757Z" fill="#AB750F"/>
<path id="Vector_192" d="M109.15 522.766C108.584 523.728 108.038 523.765 107.512 522.723C108.058 522.737 108.604 522.752 109.15 522.766Z" fill="#AB750F"/>
<path id="Vector_193" d="M191.891 521.849C193.103 521.922 192.777 522.818 192.664 523.598L192.69 523.576C192.431 523.576 192.178 523.547 191.931 523.474C191.918 522.935 191.904 522.388 191.891 521.849Z" fill="#AB750F"/>
<path id="Vector_194" d="M39.5494 517.332C39.616 517.922 39.676 518.512 39.7426 519.102C39.4429 519.102 39.1498 519.095 38.8501 519.088C38.9167 518.498 38.9766 517.908 39.0366 517.317C39.2031 517.354 39.3696 517.361 39.5428 517.339L39.5494 517.332Z" fill="#AB750F"/>
<path id="Vector_195" d="M9.90425 512.669C9.3581 512.669 8.81195 512.683 8.27247 512.69C8.25915 512.406 8.25915 512.122 8.27913 511.845C8.81862 511.853 9.3581 511.86 9.89093 511.867C9.90425 512.137 9.90425 512.399 9.90425 512.669Z" fill="#AB750F"/>
<path id="Vector_196" d="M214.982 503.635C214.909 504.189 214.836 504.735 214.762 505.289L214.476 505.34C214.376 504.757 214.276 504.174 214.176 503.591L214.196 503.577C214.469 503.584 214.736 503.613 215.002 503.657L214.975 503.635H214.982Z" fill="#AB750F"/>
<path id="Vector_197" d="M49.4066 502.797C49.4732 503.365 49.5331 503.933 49.5997 504.494H49.2134H48.8271C48.8738 503.904 48.9271 503.321 48.9737 502.731C49.1069 502.804 49.2534 502.826 49.3999 502.797H49.4066Z" fill="#AB750F"/>
<path id="Vector_198" d="M53.6493 496.378C53.6959 496.968 53.7426 497.558 53.7892 498.141C52.7169 497.653 52.8701 497.041 53.6493 496.378Z" fill="#AB750F"/>
<path id="Vector_199" d="M139.788 495.445C140.98 495.525 140.787 496.363 140.58 497.208C139.708 496.953 139.775 496.181 139.788 495.445Z" fill="#AB750F"/>
<path id="Vector_200" d="M163.785 20C163.984 20.0874 164.336 20.1384 164.362 20.2623C164.468 20.7723 164.11 20.8014 163.772 20.7941C163.765 20.5319 163.772 20.2623 163.785 20Z" fill="#AB750F"/>
<path id="Vector_201" d="M238.188 30.8335C238.747 30.8408 239.033 31.1541 239.04 31.7734C238.54 31.7005 238.254 31.3872 238.188 30.8335Z" fill="#AB750F"/>
<path id="Vector_202" d="M199.317 37.2159C198.958 37.2378 198.585 37.2159 198.691 36.6768C198.718 36.5456 199.084 36.4873 199.297 36.3999C199.311 36.6695 199.317 36.9463 199.317 37.2159Z" fill="#AB750F"/>
<path id="Vector_203" d="M260.506 43.6128C260.532 44.2321 260.273 44.5381 259.707 44.5089C259.747 43.9625 260.013 43.6638 260.506 43.6128Z" fill="#AB750F"/>
<path id="Vector_204" d="M101.75 46.4188C102.003 46.346 102.263 46.3241 102.523 46.3606C102.51 46.9289 102.263 47.2421 101.724 47.2203C101.717 46.9507 101.724 46.6811 101.744 46.4188H101.75Z" fill="#AB750F"/>
<path id="Vector_205" d="M239 62.6721C238.674 62.6502 238.274 62.6721 238.387 62.1402C238.414 62.0091 238.787 61.9654 239 61.8853C239.02 62.1475 239.02 62.4098 239 62.6721Z" fill="#AB750F"/>
<path id="Vector_206" d="M225.778 67.2547C226.391 67.2037 226.664 67.5315 226.624 68.1945C226.105 68.1435 225.825 67.823 225.778 67.2547Z" fill="#AB750F"/>
<path id="Vector_207" d="M105.034 68.1948C104.941 68.6975 104.668 68.989 104.215 69.091C104.315 68.6028 104.594 68.3041 105.034 68.1948Z" fill="#AB750F"/>
<path id="Vector_208" d="M130.676 68.2019C131.055 68.1874 131.475 68.1874 131.362 68.7775C131.335 68.9159 130.922 68.9669 130.689 69.0544C130.682 68.7702 130.676 68.4861 130.676 68.2019Z" fill="#AB750F"/>
<path id="Vector_209" d="M200.163 79.1748C200.39 79.2622 200.783 79.3059 200.809 79.4371C200.922 79.9981 200.516 79.9981 200.156 80.0054C200.143 79.7285 200.143 79.4517 200.156 79.1748H200.163Z" fill="#AB750F"/>
<path id="Vector_210" d="M16.5381 86.4238C16.9843 86.5331 17.2574 86.8318 17.3573 87.3273C16.9177 87.2107 16.6447 86.912 16.5381 86.4238Z" fill="#AB750F"/>
<path id="Vector_211" d="M11.5539 96.3829C10.8439 96.106 10.8572 95.8365 11.5539 95.5669C11.5605 95.8365 11.5605 96.1133 11.5539 96.3829Z" fill="#AB750F"/>
<path id="Vector_212" d="M147.22 113.738C147.22 113.439 147.214 113.133 147.22 112.834C147.493 112.827 147.773 112.827 148.046 112.834C148.046 113.118 148.046 113.395 148.033 113.679C147.766 113.723 147.5 113.73 147.234 113.708V113.745L147.22 113.738Z" fill="#AB750F"/>
<path id="Vector_213" d="M5.75948 130.991C5.56042 130.86 5.368 130.729 5.16895 130.59C5.368 130.459 5.56042 130.328 5.75948 130.189C5.77275 130.452 5.77275 130.721 5.75948 130.984V130.991Z" fill="#AB750F"/>
<path id="Vector_214" d="M261.358 131.079C261.065 131.079 260.772 131.079 260.486 131.079C260.466 130.423 260.759 130.139 261.338 130.183C261.338 130.481 261.352 130.773 261.365 131.071L261.358 131.079Z" fill="#AB750F"/>
<path id="Vector_215" d="M129.038 131.974C129.304 131.96 129.564 131.974 129.824 132.018C129.837 132.287 129.844 132.557 129.83 132.827C129.371 132.761 129.111 132.47 129.031 131.967L129.038 131.974Z" fill="#AB750F"/>
<path id="Vector_216" d="M68.655 138.378C68.8881 138.466 69.2944 138.51 69.321 138.641C69.4409 139.224 69.0147 139.209 68.655 139.216C68.6417 138.939 68.6417 138.663 68.655 138.378Z" fill="#AB750F"/>
<path id="Vector_217" d="M24.0376 141.089C24.2907 141.067 24.5504 141.053 24.8102 141.06C24.8302 141.694 24.5504 141.993 23.9776 141.971C23.9643 141.672 23.9843 141.381 24.0376 141.089Z" fill="#AB750F"/>
<path id="Vector_218" d="M119.933 145.657C120.379 145.744 120.639 146.028 120.719 146.524C120.293 146.414 120.033 146.123 119.933 145.657Z" fill="#AB750F"/>
<path id="Vector_219" d="M29.7503 157.409C29.4318 157.402 29.0735 157.38 29.1797 156.885C29.2062 156.761 29.5512 156.71 29.7437 156.63C29.7636 156.885 29.7636 157.147 29.7503 157.402V157.409Z" fill="#AB750F"/>
<path id="Vector_220" d="M47.1155 170.224C47.1021 170.799 46.8491 171.12 46.3096 171.134C46.3695 170.61 46.6359 170.304 47.1155 170.224Z" fill="#AB750F"/>
<path id="Vector_221" d="M243.156 173.853L242.51 173.474L243.123 173.052C243.143 173.321 243.149 173.591 243.156 173.853Z" fill="#AB750F"/>
<path id="Vector_222" d="M101.708 186.559C101.396 186.559 101.058 186.523 101.151 186.057C101.177 185.933 101.503 185.882 101.688 185.794C101.708 186.049 101.715 186.304 101.702 186.559H101.708Z" fill="#AB750F"/>
<path id="Vector_223" d="M172.856 186.609C172.856 186.303 172.856 186.005 172.856 185.699C173.13 185.699 173.409 185.699 173.682 185.699C173.682 185.99 173.682 186.274 173.676 186.558C173.403 186.609 173.136 186.617 172.863 186.602L172.856 186.609Z" fill="#AB750F"/>
<path id="Vector_224" d="M235.68 187.434C235.481 187.346 235.136 187.295 235.11 187.164C235.01 186.661 235.355 186.618 235.7 186.64C235.7 186.909 235.7 187.171 235.68 187.441V187.434Z" fill="#AB750F"/>
<path id="Vector_225" d="M154.68 197.532C154.647 196.905 154.913 196.592 155.493 196.621C155.493 196.927 155.466 197.218 155.386 197.503C155.146 197.524 154.913 197.532 154.673 197.524L154.68 197.532Z" fill="#AB750F"/>
<path id="Vector_226" d="M232.406 198.464C232.872 198.551 233.152 198.85 233.232 199.367C232.792 199.243 232.512 198.952 232.406 198.464Z" fill="#AB750F"/>
<path id="Vector_227" d="M21.4802 204.788C21.2671 204.657 21.054 204.526 20.8408 204.394C21.054 204.263 21.2604 204.125 21.4669 203.994C21.4802 204.256 21.4869 204.526 21.4735 204.788H21.4802Z" fill="#AB750F"/>
<path id="Vector_228" d="M205.944 203.935C206.47 203.95 206.737 204.248 206.757 204.824C206.49 204.824 206.224 204.795 205.957 204.722C205.944 204.46 205.938 204.197 205.938 203.928L205.944 203.935Z" fill="#AB750F"/>
<path id="Vector_229" d="M253.825 206.683C253.752 206.894 253.712 207.273 253.605 207.295C253.166 207.404 253.179 207.003 253.159 206.676C253.386 206.654 253.605 206.654 253.832 206.676L253.825 206.683Z" fill="#AB750F"/>
<path id="Vector_230" d="M332.47 206.652C332.45 207.235 332.184 207.563 331.645 207.585C331.718 207.06 331.991 206.74 332.47 206.652Z" fill="#AB750F"/>
<path id="Vector_231" d="M70.3003 209.399C70.6 209.552 70.8997 209.698 71.2061 209.851C70.993 210.215 70.6933 210.361 70.307 210.266C70.307 209.975 70.3003 209.691 70.307 209.399H70.3003Z" fill="#AB750F"/>
<path id="Vector_232" d="M258.894 214.835C258.894 214.245 259.127 213.895 259.707 213.925C259.7 214.201 259.687 214.478 259.673 214.755C259.414 214.85 259.154 214.872 258.881 214.813L258.894 214.835Z" fill="#AB750F"/>
<path id="Vector_233" d="M155.499 217.632C155.831 217.632 156.163 217.691 156.05 218.164C156.023 218.295 155.691 218.339 155.506 218.426C155.486 218.164 155.486 217.902 155.506 217.64L155.499 217.632Z" fill="#AB750F"/>
<path id="Vector_234" d="M200.177 222.23C200.376 222.318 200.727 222.369 200.754 222.5C200.853 223.01 200.482 223.01 200.157 223.017C200.157 222.755 200.157 222.493 200.177 222.238V222.23Z" fill="#AB750F"/>
<path id="Vector_235" d="M133.993 223.993C134.219 224.081 134.626 224.132 134.652 224.27C134.772 224.846 134.359 224.86 133.986 224.86C133.986 224.569 133.986 224.285 133.993 223.993Z" fill="#AB750F"/>
<path id="Vector_236" d="M220.011 227.651C220.357 227.651 220.757 227.651 220.644 228.197C220.617 228.328 220.231 228.372 220.011 228.452C219.991 228.183 219.991 227.92 220.011 227.651Z" fill="#AB750F"/>
<path id="Vector_237" d="M277.044 250.295C276.837 250.215 276.471 250.171 276.444 250.047C276.338 249.522 276.724 249.537 277.044 249.522C277.064 249.777 277.064 250.04 277.044 250.295Z" fill="#AB750F"/>
<path id="Vector_238" d="M22.3523 255.759C22.3257 255.482 22.319 255.213 22.3323 254.936C22.9118 254.907 23.2182 255.183 23.1715 255.846C22.8985 255.846 22.6254 255.825 22.3523 255.759Z" fill="#AB750F"/>
<path id="Vector_239" d="M96.7752 259.496C97.0416 259.482 97.3014 259.496 97.5611 259.562C97.5811 259.817 97.5811 260.079 97.5611 260.334C97.0883 260.298 96.8218 260.021 96.7686 259.504L96.7752 259.496Z" fill="#AB750F"/>
<path id="Vector_240" d="M146.335 267.7C146.321 268.064 146.341 268.509 145.849 268.392C145.735 268.363 145.695 267.948 145.622 267.707C145.862 267.685 146.095 267.685 146.335 267.707V267.7Z" fill="#AB750F"/>
<path id="Vector_241" d="M291.95 270.417C291.93 270.993 291.657 271.299 291.13 271.321C291.204 270.804 291.477 270.498 291.95 270.417Z" fill="#AB750F"/>
<path id="Vector_242" d="M294.447 274.068C294.713 274.046 294.98 274.068 295.239 274.126C295.253 274.41 295.266 274.694 295.266 274.971C294.727 274.957 294.473 274.636 294.447 274.061V274.068Z" fill="#AB750F"/>
<path id="Vector_243" d="M41.3477 283.175C41.8072 283.255 42.0603 283.561 42.1402 284.057H42.1602C41.8938 284.071 41.6207 284.057 41.3543 284.02C41.3543 283.736 41.3477 283.459 41.3477 283.175Z" fill="#AB750F"/>
<path id="Vector_244" d="M160.461 288.669C160.794 288.691 161.194 288.669 161.087 289.208C161.061 289.339 160.688 289.383 160.468 289.47C160.455 289.201 160.448 288.939 160.455 288.669H160.461Z" fill="#AB750F"/>
<path id="Vector_245" d="M183.626 297.79C183.892 297.747 184.152 297.739 184.418 297.754C184.332 298.242 184.079 298.548 183.619 298.621C183.619 298.344 183.619 298.067 183.626 297.79Z" fill="#AB750F"/>
<path id="Vector_246" d="M105.034 305.936C105.034 305.63 105.034 305.331 105.034 305.025C105.307 305.025 105.586 305.025 105.86 305.025V305.936H105.447H105.034Z" fill="#AB750F"/>
<path id="Vector_247" d="M321.754 309.666C321.967 309.753 322.334 309.797 322.354 309.928C322.453 310.46 322.074 310.46 321.734 310.453C321.727 310.191 321.734 309.928 321.747 309.666H321.754Z" fill="#AB750F"/>
<path id="Vector_248" d="M13.2057 330.473C12.8939 330.452 12.509 330.466 12.6152 329.956C12.6417 329.825 12.9934 329.781 13.1991 329.701C13.219 329.963 13.219 330.218 13.1991 330.481L13.2057 330.473Z" fill="#AB750F"/>
<path id="Vector_249" d="M387.072 340.55C387.625 340.528 387.858 340.856 387.845 341.439C387.365 341.38 387.112 341.074 387.072 340.55Z" fill="#AB750F"/>
<path id="Vector_250" d="M68.6682 342.452C69.0612 342.459 69.4341 342.554 69.2743 343.101C69.2343 343.239 68.848 343.261 68.6216 343.334C68.6416 343.042 68.6549 342.744 68.6615 342.452H68.6682Z" fill="#AB750F"/>
<path id="Vector_251" d="M335.841 344.215C336.054 344.368 336.274 344.521 336.487 344.674C336.26 344.813 336.041 344.951 335.814 345.09C335.794 344.798 335.801 344.507 335.841 344.215Z" fill="#AB750F"/>
<path id="Vector_252" d="M68.6948 348.724C68.9612 347.857 69.2143 347.952 69.4608 348.739C69.2077 348.739 68.9546 348.739 68.6948 348.724Z" fill="#AB750F"/>
<path id="Vector_253" d="M187.722 348.696C188.261 348.747 188.514 349.082 188.554 349.658C188.075 349.548 187.815 349.213 187.722 348.696Z" fill="#AB750F"/>
<path id="Vector_254" d="M215.002 351.392C214.636 351.377 214.27 351.29 214.423 350.765C214.463 350.627 214.829 350.605 215.049 350.532C215.029 350.816 215.016 351.108 215.009 351.392H215.002Z" fill="#AB750F"/>
<path id="Vector_255" d="M48.8003 366.065C49.0667 366.044 49.3331 366.065 49.5929 366.124C49.6128 366.401 49.6195 366.677 49.6128 366.947C49.0534 366.976 48.787 366.677 48.8003 366.058V366.065Z" fill="#AB750F"/>
<path id="Vector_256" d="M6.60768 369.693C7.17381 369.678 7.45354 369.984 7.44022 370.611C7.18047 370.618 6.92072 370.596 6.66097 370.538L6.67429 370.553C6.62101 370.268 6.60102 369.984 6.60768 369.693Z" fill="#AB750F"/>
<path id="Vector_257" d="M49.6265 374.269C49.8189 374.4 50.0179 374.531 50.2104 374.662C50.0246 374.801 49.8322 374.939 49.6464 375.078C49.6331 374.808 49.6265 374.539 49.6265 374.269Z" fill="#AB750F"/>
<path id="Vector_258" d="M33.9216 376.134C34.188 376.083 34.4478 376.061 34.7142 376.09C34.6476 376.6 34.3945 376.892 33.9216 376.928C33.9083 376.666 33.9083 376.403 33.9216 376.134Z" fill="#AB750F"/>
<path id="Vector_259" d="M106.706 533.652C106.792 533.149 107.059 532.85 107.518 532.755C107.412 533.229 107.145 533.535 106.706 533.652Z" fill="#AB750F"/>
<path id="Vector_260" d="M44.6582 532.763C45.191 532.785 45.5041 533.062 45.524 533.674C45.0512 533.586 44.7448 533.302 44.6582 532.763Z" fill="#AB750F"/>
<path id="Vector_261" d="M239.83 493.521C239.624 493.375 239.425 493.237 239.219 493.091C239.425 492.953 239.637 492.814 239.843 492.683C239.843 492.96 239.843 493.244 239.83 493.521Z" fill="#AB750F"/>
<path id="Vector_262" d="M157.99 527.356C158.196 527.437 158.556 527.48 158.583 527.604C158.689 528.121 158.31 528.121 157.983 528.129C157.963 527.866 157.97 527.611 157.983 527.349L157.99 527.356Z" fill="#AB750F"/>
<path id="Vector_263" d="M238.214 520.056C238.413 520.136 238.745 520.173 238.778 520.304C238.904 520.777 238.539 520.814 238.234 520.879C238.201 520.603 238.194 520.333 238.208 520.056H238.214Z" fill="#AB750F"/>
<path id="Vector_264" d="M240.651 519.015C240.438 518.928 240.072 518.877 240.045 518.746C239.939 518.214 240.338 518.221 240.671 518.199C240.671 518.469 240.671 518.746 240.658 519.015H240.651Z" fill="#AB750F"/>
<path id="Vector_265" d="M139.768 457.137C140.214 457.246 140.48 457.545 140.567 458.041C140.127 457.931 139.867 457.618 139.768 457.137Z" fill="#AB750F"/>
<path id="Vector_266" d="M45.4839 514.519C46.0367 514.533 46.3364 514.825 46.3497 515.451C45.8569 515.371 45.5572 515.072 45.4839 514.519Z" fill="#AB750F"/>
<path id="Vector_267" d="M135.625 429.794C135.172 429.707 134.906 429.408 134.812 428.913H134.806C135.079 428.913 135.352 428.92 135.618 428.956C135.618 429.233 135.618 429.517 135.618 429.794H135.625Z" fill="#AB750F"/>
<path id="Vector_268" d="M111.621 447.964L111.228 448.03H110.829C110.862 447.476 111.122 447.17 111.641 447.148C111.641 447.418 111.641 447.694 111.621 447.964Z" fill="#AB750F"/>
<path id="Vector_269" d="M34.7472 510.941C35.0202 511.109 35.3 511.277 35.5731 511.444C35.2867 511.583 35.0003 511.714 34.7139 511.852C34.7338 511.546 34.7472 511.247 34.7472 510.941Z" fill="#AB750F"/>
<path id="Vector_270" d="M306.003 424.337L305.603 424.352L305.21 424.286C305.19 424.009 305.184 423.725 305.19 423.448C305.757 423.419 306.003 423.747 306.003 424.337Z" fill="#AB750F"/>
<path id="Vector_271" d="M251.441 422.573C251.788 422.573 252.181 422.573 252.067 423.112C252.041 423.244 251.661 423.287 251.448 423.367C251.428 423.105 251.428 422.836 251.441 422.573Z" fill="#AB750F"/>
<path id="Vector_272" d="M15.646 412.534C15.6926 412.825 15.7126 413.116 15.6993 413.408C15.2197 413.335 14.94 413.044 14.8867 412.512C15.1398 412.512 15.3929 412.519 15.646 412.534Z" fill="#AB750F"/>
<path id="Vector_273" d="M227.484 411.579C227.484 411.229 227.511 410.843 227.95 410.952C228.063 410.982 228.11 411.353 228.19 411.564L227.837 411.586H227.484V411.579Z" fill="#AB750F"/>
<path id="Vector_274" d="M39.6695 506.257C39.4098 506.323 39.1434 506.345 38.877 506.323C38.9103 505.769 39.1767 505.478 39.6829 505.456C39.6895 505.726 39.6829 505.988 39.6695 506.257Z" fill="#AB750F"/>
<path id="Vector_275" d="M28.1069 403.368C28.3334 403.448 28.713 403.477 28.753 403.615C28.8995 404.162 28.5332 404.257 28.1402 404.249C28.1402 403.958 28.1269 403.659 28.1136 403.368H28.1069Z" fill="#AB750F"/>
<path id="Vector_276" d="M235.73 398.895C235.915 399.026 236.108 399.157 236.294 399.296C236.108 399.427 235.922 399.565 235.73 399.696C235.716 399.427 235.716 399.165 235.73 398.895Z" fill="#AB750F"/>
<path id="Vector_277" d="M368.836 493.507C368.284 493.565 368.084 493.238 368.077 492.684C368.603 492.647 368.816 492.975 368.836 493.507Z" fill="#AB750F"/>
<path id="Vector_278" d="M315.926 422.523C315.959 423.098 315.873 423.652 315.433 424.016C315.273 424.147 314.927 424.198 314.754 424.104C314.188 423.79 314.654 423.463 314.814 423.164C314.934 422.923 315.107 422.712 315.26 422.494H315.6L315.933 422.53L315.926 422.523Z" fill="#AB750F"/>
<path id="Vector_279" d="M315.954 418.879C315.9 419.448 315.84 420.016 315.094 419.746C314.981 419.703 314.801 419.542 314.815 419.477C314.968 418.799 315.407 418.726 315.94 418.872L315.954 418.879Z" fill="#AB750F"/>
<path id="Vector_280" d="M314.321 426.15C314.361 425.764 314.507 425.597 314.746 425.691C314.753 425.691 314.739 425.932 314.68 425.983C314.58 426.063 314.434 426.085 314.308 426.129L314.321 426.15Z" fill="#AB750F"/>
<path id="Vector_281" d="M312.583 424.372C312.743 424.147 312.896 423.913 313.056 423.688C313.549 424.409 312.969 424.343 312.603 424.423L312.583 424.372Z" fill="#AB750F"/>
<path id="Vector_282" d="M315.927 422.522L315.594 422.478H315.254C315.207 422.041 315.32 421.721 315.78 421.874C315.88 421.903 315.88 422.296 315.927 422.522Z" fill="#AB750F"/>
<path id="Vector_283" d="M19.7552 385.125C19.8685 385.686 19.8685 386.538 19.4289 386.56C18.9294 386.582 18.8961 385.773 18.996 385.205C19.2491 385.212 19.5022 385.19 19.7552 385.132V385.125Z" fill="#AB750F"/>
<path id="Vector_284" d="M19.7549 385.125C19.5018 385.183 19.2554 385.205 18.9956 385.198C18.9091 384.484 19.2221 384.214 19.8348 384.287C19.8681 384.571 19.8415 384.848 19.7616 385.125H19.7549Z" fill="#AB750F"/>
<path id="Vector_285" d="M24.7767 169.255C24.2905 169.27 23.5779 169.794 23.398 169.007C23.2249 168.235 23.8176 167.543 24.5303 167.732C25.2163 167.922 24.7234 168.738 24.7634 169.277L24.7767 169.255Z" fill="#AB750F"/>
<path id="Vector_286" d="M288.639 429.8C287.82 429.706 287.487 429.261 287.866 428.387C288.019 428.037 288.246 428.015 288.459 428.219C288.972 428.693 288.606 429.276 288.626 429.808H288.632L288.639 429.8Z" fill="#AB750F"/>
<path id="Vector_287" d="M142.232 143.755C142.019 143.638 141.799 143.529 141.586 143.413C141.706 143.289 141.819 143.172 141.939 143.048C142.032 143.289 142.125 143.529 142.212 143.77L142.232 143.748V143.755Z" fill="#AB750F"/>
<path id="Vector_288" d="M65.4047 146.487C65.5313 145.722 65.1716 144.658 66.3572 144.534C66.8234 144.483 67.0698 144.862 67.0965 145.292C67.1364 145.941 67.4894 146.822 66.6969 147.099C66.3572 147.223 65.8243 146.684 65.3848 146.451L65.4047 146.487Z" fill="#AB750F"/>
<path id="Vector_289" d="M50.5259 345.199C50.9988 345.228 51.465 345.258 51.9379 345.294C51.9911 345.964 52.4241 346.933 51.4383 347.035C50.1795 347.166 50.4393 346.059 50.5259 345.199Z" fill="#AB750F"/>
<path id="Vector_290" d="M282.831 288.56C283.231 288.421 283.564 288.487 283.73 288.946C283.757 289.026 283.61 289.281 283.53 289.295C283.077 289.361 282.884 289.055 282.811 288.611L282.831 288.56Z" fill="#AB750F"/>
<path id="Vector_291" d="M225.08 270.549C225.273 270.571 225.466 270.571 225.659 270.556C225.719 271.678 226.172 272.807 225.632 274.265C224.4 272.982 224.993 271.722 225.08 270.549Z" fill="#AB750F"/>
<path id="Vector_292" d="M358.893 356.011C358.919 355.734 358.959 355.457 358.999 355.18C359.439 355.064 359.705 354.75 359.805 354.27C361.09 354.685 360.771 355.37 360.071 356.127C359.678 356.091 359.286 356.055 358.893 356.018V356.011Z" fill="#AB750F"/>
<path id="Vector_293" d="M362.27 352.404C362.716 352.513 362.982 352.826 363.095 353.307C362.656 353.191 362.389 352.877 362.27 352.404Z" fill="#AB750F"/>
<path id="Vector_294" d="M16.5377 153.825C17.6567 153.825 18.356 154.284 18.2228 155.668C16.4512 155.916 16.3779 155.836 16.5377 153.825Z" fill="#AB750F"/>
<path id="Vector_295" d="M17.3703 158.399C16.8108 158.407 16.0715 159.026 15.8384 157.926C15.7319 157.416 16.1581 157.103 16.5045 157.037C17.5435 156.833 17.2837 157.78 17.3836 158.392L17.3703 158.407V158.399Z" fill="#AB750F"/>
<path id="Vector_296" d="M29.6565 229.764C29.5503 229.96 29.4508 230.15 29.3513 230.332C29.265 230.237 29.0925 230.113 29.1124 230.04C29.1589 229.836 29.2783 229.654 29.3712 229.465C29.4641 229.56 29.5503 229.654 29.6565 229.756V229.764Z" fill="#AB750F"/>
<path id="Vector_297" d="M238.194 263.125C237.967 263.001 237.748 262.878 237.528 262.761C237.654 262.623 237.781 262.484 237.907 262.353C238.001 262.615 238.101 262.87 238.194 263.133V263.125Z" fill="#AB750F"/>
<path id="Vector_298" d="M17.2774 166.997C17.1176 167.15 16.9044 167.514 16.7646 167.478C16.4249 167.391 16.1185 167.128 15.7988 166.939C16.1252 166.764 16.4382 166.516 16.7779 166.443C16.9044 166.414 17.1043 166.8 17.2708 166.99L17.2774 166.997Z" fill="#AB750F"/>
<path id="Vector_299" d="M42.0603 120.237C42.0336 120.499 42.0603 120.754 42.1402 121.002C41.6673 121.351 41.4609 122.335 40.6749 121.883C40.4618 121.759 40.3353 121.075 40.4418 120.754C40.7349 119.872 41.4542 120.171 42.0603 120.229V120.237Z" fill="#AB750F"/>
<path id="Vector_300" d="M175.313 36.2831C175.193 36.152 175.067 36.0281 174.948 35.897C175.021 35.9188 175.127 35.9115 175.167 35.9698C175.233 36.0573 175.26 36.1884 175.299 36.2977L175.313 36.2831Z" fill="#AB750F"/>
<path id="Vector_301" d="M126.5 290.475C126.513 291.043 126.753 291.692 126.114 292.027C126.02 292.078 125.647 291.772 125.607 291.575C125.448 290.788 125.934 290.577 126.52 290.49L126.5 290.468V290.475Z" fill="#AB750F"/>
<path id="Vector_302" d="M127.346 294.075L126.953 294.09L126.56 294.075C126.64 293.572 126.906 293.288 127.359 293.193C127.379 293.485 127.379 293.776 127.359 294.068L127.346 294.075Z" fill="#AB750F"/>
<path id="Vector_303" d="M97.614 296.8C97.5807 296.508 97.574 296.224 97.6073 295.933C97.9537 295.94 98.3133 296.005 98.1935 296.508C98.1602 296.647 97.8138 296.705 97.614 296.8Z" fill="#AB750F"/>
<path id="Vector_304" d="M103.349 161.117C103.282 160.658 103.389 160.294 103.835 160.177C103.915 160.155 104.141 160.352 104.135 160.425C104.088 160.913 103.762 161.08 103.362 161.124H103.342L103.349 161.117Z" fill="#AB750F"/>
<path id="Vector_305" d="M153.854 32.6617C153.98 32.516 154.113 32.363 154.239 32.2173C154.219 32.312 154.226 32.4431 154.173 32.4941C154.086 32.5743 153.954 32.6034 153.841 32.6544L153.854 32.669V32.6617Z" fill="#AB750F"/>
<path id="Vector_306" d="M18.1562 170.078C18.0696 169.809 18.0763 169.546 18.1695 169.277C19.1819 169.423 18.9022 170.166 18.7689 170.836L18.4626 170.858L18.1562 170.836C18.1362 170.581 18.1362 170.326 18.1562 170.071V170.078Z" fill="#AB750F"/>
<path id="Vector_307" d="M109.996 445.298C109.969 445.699 109.829 446.019 109.417 446.049C109.343 446.049 109.183 445.83 109.203 445.757C109.317 445.327 109.623 445.233 109.996 445.298Z" fill="#AB750F"/>
<path id="Vector_308" d="M173.741 451.607C173.721 451.017 173.695 450.434 173.675 449.844C174.161 449.844 174.661 449.844 174.647 450.601C174.634 451.228 174.274 451.527 173.748 451.607H173.741Z" fill="#AB750F"/>
<path id="Vector_309" d="M17.3837 244.961C17.9365 245.063 18.3828 245.296 18.2096 246.032C18.163 246.214 17.8033 246.499 17.7301 246.448C17.1639 246.083 17.4104 245.464 17.4037 244.925L17.3837 244.954V244.961Z" fill="#AB750F"/>
<path id="Vector_310" d="M172.057 248.524C172.317 247.912 172.576 247.3 172.83 246.688C173.402 246.885 173.829 247.308 173.689 247.978C173.462 249.093 172.663 248.554 172.05 248.532L172.057 248.524Z" fill="#AB750F"/>
<path id="Vector_311" d="M133.7 521.652C133.527 521.55 133.354 521.448 133.174 521.339C133.26 521.244 133.367 521.047 133.44 521.062C133.627 521.106 133.8 521.237 133.98 521.331C133.893 521.426 133.807 521.528 133.7 521.645V521.652Z" fill="#AB750F"/>
<path id="Vector_312" d="M142.103 415.644C142.057 415.731 142.01 415.826 141.971 415.914C141.851 415.819 141.732 415.717 141.612 415.615C141.699 415.527 141.785 415.44 141.871 415.353C141.951 415.447 142.03 415.542 142.11 415.644H142.103Z" fill="#AB750F"/>
<path id="Vector_313" d="M257.729 490.724C257.562 490.622 257.396 490.513 257.223 490.411C257.309 490.316 257.422 490.134 257.489 490.149C257.676 490.2 257.842 490.331 258.015 490.426C257.922 490.52 257.835 490.615 257.729 490.724Z" fill="#AB750F"/>
<path id="Vector_314" d="M125.361 412.388C125.202 412.286 125.042 412.177 124.882 412.067C124.968 411.98 125.075 411.798 125.142 411.812C125.321 411.863 125.475 411.995 125.641 412.097C125.555 412.184 125.468 412.279 125.361 412.388Z" fill="#AB750F"/>
<path id="Vector_315" d="M39.2619 384.272C39.3415 384.462 39.4476 384.651 39.4874 384.848C39.5007 384.921 39.3282 385.023 39.2419 385.118C39.1623 384.928 39.0562 384.739 39.0163 384.542C39.0031 384.469 39.1756 384.367 39.2619 384.272Z" fill="#AB750F"/>
<path id="Vector_316" d="M28.7267 497.455C28.74 497.922 28.7533 498.388 28.7667 498.854C28.054 498.905 26.9883 499.43 27.1282 497.973C27.2215 496.967 28.1206 497.397 28.7334 497.455H28.7267Z" fill="#AB750F"/>
<path id="Vector_317" d="M254.205 498.36C254.291 498.36 254.397 498.331 254.45 498.382C254.662 498.557 254.609 498.761 254.298 498.899C254.258 498.914 254.112 498.739 254.072 498.622C254.052 498.557 254.152 498.447 254.198 498.36H254.205Z" fill="#AB750F"/>
<path id="Vector_318" d="M381.961 393.86C381.868 393.947 381.769 394.108 381.683 394.1C381.596 394.093 381.517 393.918 381.437 393.816C381.53 393.729 381.629 393.569 381.716 393.576C381.802 393.576 381.882 393.758 381.961 393.86Z" fill="#AB750F"/>
<path id="Vector_319" d="M152.047 243.467C152 243.576 151.954 243.686 151.901 243.788C151.768 243.678 151.629 243.562 151.496 243.452C151.589 243.343 151.682 243.241 151.775 243.132C151.861 243.241 151.954 243.358 152.04 243.467H152.047Z" fill="#AB750F"/>
<path id="Vector_320" d="M194.002 253.923C193.915 253.872 193.823 253.813 193.736 253.755C193.836 253.609 193.929 253.456 194.028 253.311C194.115 253.42 194.274 253.529 194.267 253.631C194.267 253.733 194.095 253.828 194.002 253.923Z" fill="#AB750F"/>
<path id="Vector_321" d="M336.252 385.985C336.153 385.934 336.06 385.875 335.96 385.824C336.067 385.679 336.166 385.533 336.272 385.38C336.365 385.482 336.465 385.591 336.558 385.693L336.252 385.985Z" fill="#AB750F"/>
<path id="Vector_322" d="M38.837 182.938C38.3241 182.917 37.8179 182.887 37.3051 182.866C37.2718 182.188 36.9254 181.255 37.9045 181.161C39.15 181.037 38.9835 182.05 38.837 182.938Z" fill="#AB750F"/>
<path id="Vector_323" d="M188.641 424.431C189.127 424.453 189.607 424.475 190.093 424.497C190.1 425.152 190.446 426.085 189.494 426.187C188.195 426.318 188.568 425.233 188.641 424.431Z" fill="#AB750F"/>
<path id="Vector_324" d="M377.866 426.5C377.773 426.682 377.68 426.864 377.587 427.053C377.501 426.959 377.335 426.835 377.355 426.762C377.395 426.558 377.514 426.376 377.601 426.179C377.687 426.274 377.767 426.376 377.866 426.492V426.5Z" fill="#AB750F"/>
<path id="Vector_325" d="M223.334 453.552C223.527 453.654 223.719 453.756 223.918 453.865C223.812 453.982 223.706 454.091 223.593 454.208C223.514 453.982 223.434 453.756 223.354 453.53L223.334 453.552Z" fill="#AB750F"/>
<path id="Vector_326" d="M97.5789 124.681C97.5855 124.994 97.5922 125.3 97.5988 125.614C96.8159 125.33 96.7893 125.016 97.5789 124.681Z" fill="#AB750F"/>
<path id="Vector_327" d="M98.3871 126.466L97.9941 126.488H97.6012C97.5945 126.175 97.5812 125.869 97.5679 125.562C98.0474 125.643 98.3072 125.949 98.3804 126.466H98.3871Z" fill="#AB750F"/>
<path id="Vector_328" d="M378.8 325.068C379.08 325.068 379.353 325.068 379.633 325.068C379.626 325.673 379.619 326.271 379.613 326.875L377.974 326.897C378.254 326.292 378.527 325.68 378.807 325.068H378.8Z" fill="#AB750F"/>
<path id="Vector_329" d="M281.172 417.08C281.039 417.233 280.906 417.378 280.773 417.531C280.793 417.437 280.787 417.298 280.846 417.247C280.939 417.167 281.072 417.145 281.191 417.094L281.178 417.08H281.172Z" fill="#AB750F"/>
<path id="Vector_330" d="M22.3593 328.667C22.3127 328.391 22.306 328.106 22.3526 327.83C22.5724 327.968 22.7855 328.106 23.0053 328.245C22.7922 328.383 22.5791 328.529 22.3659 328.667H22.3593Z" fill="#AB750F"/>
<path id="Vector_331" d="M196.84 420.708C197.386 420.723 197.626 421.058 197.672 421.626C197.093 421.655 196.86 421.298 196.84 420.708Z" fill="#AB750F"/>
<path id="Vector_332" d="M151.37 440.788C151.589 440.912 151.803 441.043 152.022 441.167C151.436 441.764 151.476 441.138 151.39 440.766L151.37 440.788Z" fill="#AB750F"/>
<path id="Vector_333" d="M322.594 284.946C322.654 284.436 322.9 284.13 323.38 284.079C323.326 284.596 323.067 284.887 322.594 284.946Z" fill="#AB750F"/>
<path id="Vector_334" d="M127.373 332.346C127.472 332.084 127.566 331.829 127.666 331.567C127.786 331.705 127.912 331.851 128.039 331.989C127.819 332.106 127.592 332.223 127.373 332.346Z" fill="#AB750F"/>
<path id="Vector_335" d="M54.5264 490.877C54.4401 491.118 54.3605 491.366 54.2809 491.606C54.1614 491.482 54.0486 491.358 53.9292 491.242C54.1349 491.132 54.3472 491.016 54.5529 490.907L54.5264 490.885V490.877Z" fill="#AB750F"/>
<path id="Vector_336" d="M134.972 215.95C135.132 216.023 135.291 216.03 135.458 215.964C135.438 216.62 136.097 217.625 134.772 217.625C134.839 217.064 134.905 216.503 134.978 215.942L134.972 215.95Z" fill="#AB750F"/>
<path id="Vector_337" d="M167.075 414.355C167.288 414.486 167.495 414.61 167.708 414.741C167.088 415.39 167.195 414.661 167.082 414.348L167.068 414.362L167.075 414.355Z" fill="#AB750F"/>
<path id="Vector_338" d="M17.1507 176.38C16.6911 176.453 16.418 176.73 16.3448 177.24C14.4266 176.133 16.3714 175.695 16.6645 174.967C17.2306 175.273 17.0041 175.907 17.1507 176.38Z" fill="#AB750F"/>
<path id="Vector_339" d="M265.501 498.112C265.501 497.522 265.515 496.939 265.521 496.349C266.008 496.437 266.501 496.539 266.501 497.245C266.501 497.959 265.981 498.025 265.508 498.112H265.501Z" fill="#AB750F"/>
<path id="Vector_340" d="M60.3696 304.121C60.2763 304.601 60.0166 304.907 59.5703 305.002C59.6569 304.507 59.9167 304.208 60.3696 304.121Z" fill="#AB750F"/>
<path id="Vector_341" d="M158.829 112.849C158.536 113.14 158.25 113.432 157.957 113.723C157.351 113.694 156.738 113.687 156.452 112.929C156.678 112.587 156.911 112.251 157.138 111.909C157.877 111.843 158.843 111.268 158.829 112.849Z" fill="#AB750F"/>
<path id="Vector_342" d="M367.191 407.987C367.218 408.271 367.218 408.548 367.191 408.832C366.978 408.745 366.618 408.694 366.585 408.556C366.465 408.031 366.845 408.002 367.191 407.987Z" fill="#AB750F"/>
<path id="Vector_343" d="M19.8682 488.137C20.7074 488.006 21.5998 487.664 22.0927 488.837C21.2269 489.085 20.2411 489.791 19.8682 488.137Z" fill="#AB750F"/>
<path id="Vector_344" d="M2.48518 170.225C1.97899 170.174 1.47281 170.115 0.959961 170.064C0.979942 169.583 0.99992 169.095 1.0199 168.614C2.26538 168.323 2.93808 168.651 2.47852 170.232L2.48518 170.225Z" fill="#AB750F"/>
<path id="Vector_345" d="M115.737 170.173L115.358 170.224L114.978 170.202C114.991 169.838 115.005 169.423 115.471 169.532C115.597 169.561 115.651 169.947 115.737 170.173Z" fill="#AB750F"/>
<path id="Vector_346" d="M323.357 418.917C323.377 419.201 323.377 419.485 323.357 419.776C323.172 419.631 322.979 419.492 322.793 419.354C322.979 419.208 323.165 419.062 323.357 418.924V418.917Z" fill="#AB750F"/>
<path id="Vector_347" d="M313.429 350.539L313.036 350.568L312.643 350.546C312.676 350.167 312.65 349.694 313.163 349.817C313.289 349.847 313.336 350.284 313.422 350.531L313.429 350.539Z" fill="#AB750F"/>
<path id="Vector_348" d="M182.747 54.7307C182.473 54.7161 182.207 54.6505 181.947 54.5412C181.961 53.9365 181.981 53.3391 181.994 52.7344C182.933 53.0841 182.707 53.9657 182.747 54.7307Z" fill="#AB750F"/>
<path id="Vector_349" d="M230.775 461.719C231.028 461.697 231.281 461.705 231.528 461.741C231.441 461.96 231.388 462.324 231.261 462.36C230.815 462.47 230.782 462.084 230.775 461.719Z" fill="#AB750F"/>
<path id="Vector_350" d="M170.311 37.2662C170.505 37.0695 170.591 36.8218 170.571 36.5303C170.824 36.5741 171.031 36.4866 171.184 36.2681C171.67 36.3774 172.056 36.5886 172.03 37.2371C171.457 37.2444 170.877 37.2589 170.305 37.2735L170.311 37.2662Z" fill="#AB750F"/>
<path id="Vector_351" d="M169.519 37.1947C169.819 37.1947 170.112 37.1875 170.412 37.1802C170.525 37.967 170.232 38.3095 169.506 38.1929C169.506 37.8577 169.513 37.5299 169.519 37.1947Z" fill="#AB750F"/>
<path id="Vector_352" d="M169.566 39.0813C169.286 39.0886 168.999 39.1031 168.72 39.1177C168.72 38.7971 168.72 38.4766 168.72 38.1487C169.006 38.1341 169.286 38.1196 169.572 38.105C169.572 38.4328 169.566 38.7607 169.566 39.0813Z" fill="#AB750F"/>
<path id="Vector_353" d="M217.467 32.3494C217.554 32.1527 217.567 31.9487 217.521 31.7447C217.894 31.701 218.326 31.8831 218.273 32.2328C218.213 32.6044 217.78 32.6044 217.467 32.3494Z" fill="#AB750F"/>
<path id="Vector_354" d="M138.901 397.984C138.915 397.656 138.921 397.335 138.928 397.007C139.208 397.168 139.494 397.335 139.781 397.496C139.487 397.656 139.194 397.823 138.901 397.984Z" fill="#AB750F"/>
<path id="Vector_355" d="M148.053 149.278C148.319 149.256 148.586 149.256 148.852 149.278C148.586 150.065 148.319 150.072 148.053 149.278Z" fill="#AB750F"/>
<path id="Vector_356" d="M191.812 317.702L191.459 317.745C191.459 317.745 191.099 317.724 191.106 317.724C191.119 317.155 191.139 316.58 191.152 316.011C191.365 315.982 191.572 315.975 191.785 316.011C191.792 316.572 191.805 317.141 191.812 317.702Z" fill="#AB750F"/>
<path id="Vector_357" d="M91.7731 64.5811C91.8131 65.2076 91.7065 65.7613 91.1604 66.0965C91.0738 65.4481 90.5543 64.5883 91.7731 64.5811Z" fill="#AB750F"/>
<path id="Vector_358" d="M258.894 170.188C258.967 170.953 259.174 171.791 258.115 171.951C258.061 171.193 257.555 170.195 258.894 170.188Z" fill="#AB750F"/>
<path id="Vector_359" d="M18.1563 170.079C18.1363 170.334 18.1363 170.589 18.1563 170.844C17.5036 171.223 17.4237 170.721 17.3438 170.203C17.6035 170.087 17.8766 170.05 18.1563 170.079Z" fill="#AB750F"/>
<path id="Vector_360" d="M27.2611 193.925C27.381 194.734 26.735 195.127 26.4619 195.717C25.8758 195.601 25.1565 195.805 24.9233 194.901C25.5894 194.245 26.2354 193.539 27.2611 193.932V193.925Z" fill="#AB750F"/>
<path id="Vector_361" d="M145.549 325.971H145.149H144.749C144.729 325.672 144.729 325.381 144.743 325.082C145.189 325.184 145.462 325.483 145.555 325.978L145.549 325.971Z" fill="#AB750F"/>
<path id="Vector_362" d="M153.781 382.392L153.408 382.436L153.028 382.421C153.028 381.838 153.275 381.518 153.828 381.54C153.841 381.824 153.828 382.108 153.781 382.392Z" fill="#AB750F"/>
<path id="Vector_363" d="M235.703 38.1267C235.19 38.0902 234.937 37.7769 234.89 37.2378C235.403 37.2669 235.656 37.5875 235.703 38.1267Z" fill="#AB750F"/>
<path id="Vector_364" d="M189.313 412.592C189.28 413.109 189.247 413.626 189.214 414.144C188.481 414.165 187.755 414.18 187.029 414.202C187.009 413.655 186.989 413.109 186.962 412.563C187.748 412.191 188.534 412.198 189.313 412.592Z" fill="#AB750F"/>
<path id="Vector_365" d="M212.578 488.137C213.124 488.123 213.677 488.116 214.223 488.101C214.203 488.699 214.183 489.289 214.163 489.886C213.657 489.872 213.151 489.85 212.645 489.835C212.625 489.267 212.598 488.706 212.578 488.137Z" fill="#AB750F"/>
<path id="Vector_366" d="M59.584 295.051C59.8371 295 60.0835 295 60.3366 295.051C60.2633 295.554 60.1967 296.056 60.1235 296.559H59.7705C59.7105 296.064 59.6506 295.561 59.584 295.058V295.051Z" fill="#AB750F"/>
<path id="Vector_367" d="M193.53 221.225H193.117H192.704C192.704 220.919 192.704 220.62 192.704 220.314C192.977 220.314 193.256 220.314 193.53 220.314C193.53 220.62 193.53 220.919 193.53 221.225Z" fill="#AB750F"/>
</g>
</g>
</g>
</g>
<g id="Group 420">
<path id="Vector 305_2" d="M10 9L0 20V4H134L143 17L134 9H10Z" fill="#CB9A40"/>
<path id="Vector 305 (Stroke)" fill-rule="evenodd" clip-rule="evenodd" d="M9.15527e-05 19.9999L0 4H134L143 17L133.24 11H10.8848L9.15527e-05 19.9999ZM10.0001 9H134L143 17L134 4H0L9.15527e-05 19.9999L10.0001 9Z" fill="#AB750F"/>
</g>
<g id="Group 421">
<path id="Vector 305_3" d="M384 9L394 20V4H260L251 17L260 9H384Z" fill="#CB9A40"/>
<path id="Vector 305 (Stroke)_2" fill-rule="evenodd" clip-rule="evenodd" d="M394 19.9999L394 4H260L251 17L260.76 11H383.115L394 19.9999ZM384 9H260L251 17L260 4H394L394 19.9999L384 9Z" fill="#AB750F"/>
</g>
</g>
<g id="Group 419">
<path id="Rectangle 293" d="M394 519H275L266 524.958H197V533H394V519Z" fill="url(#paint6_linear_3596_23351)"/>
<g id="Group 422">
<path id="Rectangle 292_4" d="M0 519H119L128 524.958H197V533H0V519Z" fill="#CB9A40"/>
<path id="Rectangle 292 (Stroke)" fill-rule="evenodd" clip-rule="evenodd" d="M128 524.958L119 519H0V533H197V524.958H128ZM195 526.958H127.398L118.398 521L0 519V533H197L195 526.958Z" fill="#AB750F"/>
</g>
<g id="Group 423">
<path id="Rectangle 292_5" d="M394 519H275L266 524.958H197V533H394V519Z" fill="#CB9A40"/>
<path id="Rectangle 292 (Stroke)_2" fill-rule="evenodd" clip-rule="evenodd" d="M266 524.958L275 519H394V533H197V524.958H266ZM199 526.958H266.602L275.602 521L394 519V533H197L199 526.958Z" fill="#AB750F"/>
</g>
<g id="Group 215">
<path id="Vector 304_2" d="M206 530L197 513L188 530L197 544L206 530Z" fill="#AB750F"/>
<path id="Vector 301_2" d="M188 530L197 513V544L188 530Z" fill="#D8A956"/>
<path id="Vector 305_4" d="M197 513L188 530L197 516L206 530L197 513Z" fill="white" fill-opacity="0.5"/>
</g>
</g>
</g>
<defs>
<linearGradient id="paint0_linear_3596_23351" x1="255.096" y1="12.0909" x2="236.143" y2="12.7749" gradientUnits="userSpaceOnUse">
<stop stop-color="#AB750F"/>
<stop offset="1" stop-color="#CB9A40"/>
</linearGradient>
<linearGradient id="paint1_linear_3596_23351" x1="138.904" y1="12.0909" x2="157.857" y2="12.7749" gradientUnits="userSpaceOnUse">
<stop stop-color="#AB750F"/>
<stop offset="1" stop-color="#CB9A40"/>
</linearGradient>
<linearGradient id="paint2_linear_3596_23351" x1="196" y1="18.1106" x2="142" y2="18.1106" gradientUnits="userSpaceOnUse">
<stop stop-color="#AB750F"/>
<stop offset="1" stop-color="#AB750F" stop-opacity="0"/>
</linearGradient>
<linearGradient id="paint3_linear_3596_23351" x1="198" y1="18.1106" x2="251" y2="18.1106" gradientUnits="userSpaceOnUse">
<stop stop-color="#AB750F"/>
<stop offset="1" stop-color="#AB750F" stop-opacity="0"/>
</linearGradient>
<linearGradient id="paint4_linear_3596_23351" x1="313.54" y1="137.142" x2="313.54" y2="544.798" gradientUnits="userSpaceOnUse">
<stop stop-color="#D9D9D9" stop-opacity="0"/>
<stop offset="1" stop-color="#D8A956"/>
</linearGradient>
<linearGradient id="paint5_linear_3596_23351" x1="303.871" y1="364.254" x2="303.871" y2="565.915" gradientUnits="userSpaceOnUse">
<stop stop-color="#D9D9D9" stop-opacity="0"/>
<stop offset="1" stop-color="#D8A956"/>
</linearGradient>
<linearGradient id="paint6_linear_3596_23351" x1="224.519" y1="525.22" x2="379.262" y2="525.22" gradientUnits="userSpaceOnUse">
<stop stop-color="#D8A956"/>
<stop offset="0.711424" stop-color="#AB750F"/>
</linearGradient>
<clipPath id="clip0_3596_23351">
<rect width="394" height="544" fill="white"/>
</clipPath>
</defs>
</svg>
