<svg width="394" height="379" viewBox="0 0 394 379" fill="none" xmlns="http://www.w3.org/2000/svg">
<g id="rankings-leaderboard" clip-path="url(#clip0_3550_12121)">
<path id="Rectangle 291" d="M259 8H238L230 18H253L259 8Z" fill="url(#paint0_linear_3550_12121)"/>
<path id="Rectangle 290" d="M135 8H156L164 18H141L135 8Z" fill="url(#paint1_linear_3550_12121)"/>
<path id="Rectangle 289" d="M0 3.96094H134L143 16.9609H251L260 3.96094H394V367H0V3.96094Z" fill="#212121"/>
<g id="Mask group">
<mask id="mask0_3550_12121" style="mask-type:alpha" maskUnits="userSpaceOnUse" x="0" y="3" width="394" height="364">
<path id="Rectangle 292" d="M0 3.96094H134L143 16.9609H251L260 3.96094H394V367H0V3.96094Z" fill="#212121"/>
</mask>
<g mask="url(#mask0_3550_12121)">
<g id="glow" opacity="0.7" filter="url(#filter0_f_3550_12121)">
<ellipse cx="196.5" cy="358.5" rx="196.5" ry="57.5" fill="url(#paint2_linear_3550_12121)"/>
</g>
</g>
</g>
<g id="Mask group_2">
<mask id="mask1_3550_12121" style="mask-type:alpha" maskUnits="userSpaceOnUse" x="0" y="3" width="394" height="364">
<path id="Rectangle 292_2" d="M0 3.96094H134L143 16.9609H251L260 3.96094H394V367H0V3.96094Z" fill="#212121"/>
</mask>
<g mask="url(#mask1_3550_12121)">
<g id="Dust">
<g id="Group" opacity="0.35">
<path id="Vector" d="M142.125 137.978C141.233 138.707 141.639 139.923 141.226 140.841C140.627 142.167 140.314 142.16 139.088 140.674L139.068 140.601C139.515 140.288 139.641 139.814 139.641 139.268C139.861 139.188 139.948 139.02 139.894 138.765C140.387 138.488 140.56 137.993 140.654 137.446L140.627 137.483C141.133 137.607 141.646 137.723 142.152 137.847L142.132 137.978H142.125Z" fill="#FFC502"/>
<path id="Vector_2" d="M135.572 218.521C135.651 218.827 135.731 219.133 135.811 219.439C135.818 220.029 135.825 220.612 135.838 221.202C135.778 221.537 135.718 221.88 135.658 222.215C135.092 222.463 134.526 222.536 133.953 222.251C133.906 221.297 133.86 220.343 133.813 219.395C133.926 219.111 133.946 218.82 133.886 218.514C134.086 218.346 134.146 218.128 134.073 217.865C134.333 217.756 134.592 217.647 134.852 217.538C135.092 217.865 135.332 218.201 135.572 218.528V218.521Z" fill="#FFC502"/>
<path id="Vector_3" d="M64.5124 231.257C64.1727 230.128 64.912 229.377 65.3116 228.503H65.3249C65.6047 228.503 65.8777 228.51 66.1575 228.525C66.2107 228.809 66.2507 229.108 66.2707 229.406C66.3173 229.734 66.3573 230.069 66.3972 230.397C66.597 230.681 66.7902 230.958 66.99 231.242C66.9767 231.512 66.9634 231.789 66.9634 232.058C66.7036 232.131 66.4439 232.211 66.1908 232.313C65.8977 232.386 65.6047 232.466 65.3116 232.539C65.1784 232.379 65.1851 232.219 65.3316 232.073C65.2383 231.585 64.912 231.388 64.519 231.264L64.5124 231.257Z" fill="#FFC502"/>
<path id="Vector_4" d="M261.379 189.394C262.504 189 263.244 189.234 263.157 190.749C263.117 191.492 263.037 192.228 262.971 192.964L262.99 192.942C262.178 193.088 261.998 192.126 261.425 191.849C261.559 191.572 261.512 191.339 261.279 191.157C261.319 190.56 261.359 189.962 261.399 189.365L261.379 189.394Z" fill="#FFC502"/>
<path id="Vector_5" d="M202.661 305.04C201.575 304.42 201.795 303.787 202.641 303.153C203.081 303.065 203.314 302.737 203.447 302.293C203.986 302.322 204.726 302.271 204.826 302.927C204.992 303.969 204.1 303.983 203.46 304.158C203.014 304.253 202.788 304.588 202.661 305.032V305.04Z" fill="#FFC502"/>
<path id="Vector_6" d="M56.9197 157.947C56.7465 158.159 56.5467 158.348 56.4068 158.581C55.9939 159.266 55.4211 159.594 54.815 159.055C54.1823 158.487 54.5087 157.816 54.9549 157.248C55.1214 157.029 55.2746 156.804 55.4411 156.585L55.4145 156.6C56.1737 156.687 56.4068 157.51 56.9397 157.918L56.9197 157.955V157.947Z" fill="#FFC502"/>
<path id="Vector_7" d="M128.225 168.403C127.932 168.417 127.639 168.439 127.346 168.454C127.239 167.732 127.293 166.931 126.547 166.53C126.58 165.947 126.6 165.197 127.193 165.102C128.132 164.956 128.065 165.962 128.278 166.603C128.258 167.2 128.238 167.798 128.218 168.403H128.225Z" fill="#FFC502"/>
<path id="Vector_8" d="M299.116 228.423C298.756 228.423 298.396 228.423 298.037 228.423C297.937 227.847 297.837 227.264 297.744 226.689C298.29 226.397 298.843 226.113 299.389 225.822L299.362 225.8C299.602 226.383 299.835 226.966 300.075 227.548L300.175 227.483C299.822 227.796 299.469 228.109 299.116 228.415V228.423Z" fill="#FFC502"/>
<path id="Vector_9" d="M13.9806 184.111L13.9606 184.388C13.2213 184.993 12.4287 184.934 11.6161 184.628L11.7161 184.73C11.443 183.863 11.4563 182.996 11.736 182.129L11.6361 182.275C12.8017 182.29 13.4544 183.098 13.9739 184.111H13.9806Z" fill="#FFC502"/>
<path id="Vector_10" d="M83.5943 338.641C83.4145 336.893 83.188 335.144 83.8407 333.439H84.0539C84.2737 335.217 85.326 337.075 83.5943 338.641Z" fill="#FFC502"/>
<path id="Vector_11" d="M221.656 207.564C223.921 208.118 224.201 208.555 223.368 210.267C223.075 209.968 222.782 209.662 222.489 209.363H222.496C222.216 209.079 221.93 208.781 221.65 208.482L221.636 208.467C221.636 208.161 221.636 207.863 221.656 207.557V207.564Z" fill="#FFC502"/>
<path id="Vector_12" d="M360.071 356.12C359.924 356.921 359.784 357.73 359.638 358.531L359.685 358.502L358.193 357.657C358.206 357.249 358.226 356.841 358.239 356.433C358.486 356.345 358.705 356.207 358.899 356.01C359.292 356.047 359.685 356.083 360.077 356.12H360.071Z" fill="#FFC502"/>
<path id="Vector_13" d="M183.593 51.8606C183.586 53.0045 183.573 54.1484 183.566 55.2922C183.12 55.4088 182.793 55.3141 182.747 54.7312C182.707 53.9662 182.933 53.0847 181.994 52.7349C182.001 52.4289 182.014 52.1302 182.021 51.8242L181.981 51.8679C182.52 51.8679 183.06 51.8606 183.599 51.8606H183.593Z" fill="#FFC502"/>
<path id="Vector_14" d="M346.278 338.643H346.012C345.865 338.074 345.719 337.506 345.572 336.938C345.745 336.77 345.818 336.566 345.798 336.311C346.331 336.165 346.857 336.012 347.39 335.859C347.377 336.486 347.364 337.105 347.35 337.732C346.991 338.031 346.638 338.337 346.278 338.635V338.643Z" fill="#FFC502"/>
<path id="Vector_15" d="M249.796 330.438C249.796 330.197 249.796 329.95 249.796 329.709C250.056 329.374 250.323 329.039 250.582 328.704H250.596C250.989 328.434 251.382 328.172 251.781 327.917L251.888 327.902C252.021 328.478 252.161 329.053 252.294 329.629L252.267 329.658C251.828 329.76 251.548 330.044 251.435 330.532C250.889 330.503 250.343 330.467 249.796 330.438Z" fill="#FFC502"/>
<path id="Vector_16" d="M75.0557 278.818C74.8426 278.956 74.6095 279.233 74.4297 279.197C73.9701 279.095 73.8236 278.665 74.0833 278.249C74.1899 278.082 74.6095 277.973 74.7627 278.067C74.9359 278.177 74.9625 278.555 75.0557 278.818Z" fill="#FFC502"/>
<path id="Vector_17" d="M128.212 303.837C127.759 303.793 127.473 303.524 127.539 303.021C127.606 302.54 127.945 302.292 128.365 302.431C128.558 302.496 128.791 302.766 128.838 302.984C128.944 303.494 128.645 303.757 128.212 303.837Z" fill="#FFC502"/>
<path id="Vector_18" d="M217.447 30.8777C217.607 31.1473 217.633 31.4387 217.52 31.7375C217.573 31.9487 217.553 32.1527 217.467 32.3422C217.613 32.4879 217.64 32.6627 217.553 32.8522C217.067 32.364 216.501 32.5899 215.955 32.6336C215.928 32.0362 215.895 31.4387 215.868 30.8413C216.395 30.8486 216.914 30.8559 217.44 30.8632L217.447 30.8777Z" fill="#FFC502"/>
<path id="Vector_19" d="M209.168 325.046C208.549 324.966 207.823 324.915 207.956 323.968C208.042 323.371 208.649 323.305 209.148 323.269C209.155 323.859 209.161 324.449 209.168 325.046Z" fill="#FFC502"/>
<path id="Vector_20" d="M172.863 37.2448C172.583 37.2448 172.31 37.2448 172.03 37.2375C172.05 36.5891 171.664 36.3778 171.184 36.2685C171.184 35.9844 171.204 35.7002 171.231 35.4161C171.77 35.3869 172.31 35.3651 172.849 35.3359C173.888 35.9625 172.969 36.6037 172.863 37.2448Z" fill="#FFC502"/>
<path id="Vector_21" d="M169.599 44.8003C169.752 44.997 170.045 45.1937 170.045 45.3904C170.045 45.9223 169.679 46.1482 169.259 45.9442C169.1 45.864 168.953 45.4269 169.006 45.2156C169.053 45.0334 169.393 44.9387 169.606 44.8076L169.599 44.8003Z" fill="#FFC502"/>
<path id="Vector_22" d="M90.7341 57.4994C90.5276 57.6305 90.2945 57.9001 90.1146 57.8637C89.6684 57.7617 89.5219 57.3464 89.775 56.9384C89.8749 56.7781 90.2878 56.6761 90.441 56.7708C90.6075 56.8801 90.6408 57.2444 90.7341 57.4994Z" fill="#FFC502"/>
<path id="Vector_23" d="M188.601 71.8308C188.588 71.226 188.574 70.6213 188.554 70.0166C189.194 70.0967 190.026 70.0457 189.88 71.1022C189.793 71.736 189.127 71.7943 188.601 71.8308Z" fill="#FFC502"/>
<path id="Vector_24" d="M38.6504 358.029C38.4505 358.182 38.2441 358.48 38.0642 358.466C37.5914 358.415 37.4049 358.007 37.6313 357.555C37.7246 357.373 38.1442 357.22 38.3173 357.3C38.4905 357.38 38.5438 357.774 38.6504 358.029Z" fill="#FFC502"/>
<path id="Vector_25" d="M169.272 102.926C169.073 103.079 168.866 103.371 168.686 103.349C168.227 103.283 168.04 102.875 168.247 102.438C168.333 102.263 168.753 102.132 168.926 102.212C169.099 102.3 169.159 102.678 169.272 102.926Z" fill="#FFC502"/>
<path id="Vector_26" d="M71.1392 106.372C71.1792 105.774 71.2258 105.024 71.8319 104.951C72.8243 104.827 72.7377 105.753 72.7777 106.481C72.2315 106.445 71.6854 106.408 71.1326 106.379L71.1392 106.372Z" fill="#FFC502"/>
<path id="Vector_27" d="M336.427 109.498C336.607 109.585 336.927 109.629 337.013 109.804C337.213 110.197 337.066 110.598 336.667 110.714C336.494 110.765 336.141 110.605 336.061 110.43C335.887 110.051 335.981 109.672 336.427 109.498Z" fill="#FFC502"/>
<path id="Vector_28" d="M72.7845 368.951C71.972 368.564 71.9253 367.792 71.9786 366.976C73.2574 367.129 73.9634 367.574 72.7845 368.951Z" fill="#FFC502"/>
<path id="Vector_29" d="M28.7933 137.373L28.5535 137.329L28.3137 137.366C28.2405 136.775 28.1738 136.185 28.1006 135.602L28.1139 135.588C28.4469 135.311 28.7866 135.034 29.1196 134.757C29.2661 134.808 29.4127 134.808 29.5659 134.757C29.6325 135.34 29.6991 135.93 29.7657 136.513C29.4393 136.797 29.113 137.089 28.7866 137.373H28.7933Z" fill="#FFC502"/>
<path id="Vector_30" d="M391.228 144.571C391.301 145.35 391.241 146.064 390.516 146.487C390.209 146.137 389.903 145.795 389.596 145.445C389.59 144.921 389.583 144.403 389.576 143.879C389.843 143.799 390.116 143.755 390.389 143.755L390.416 143.777C390.689 144.039 390.955 144.301 391.228 144.564V144.571Z" fill="#FFC502"/>
<path id="Vector_31" d="M60.3697 154.721C59.6371 155.311 58.9044 155.916 57.9054 155.61C57.8987 155.333 57.8987 155.056 57.9054 154.779C58.1851 154.466 58.4649 154.145 58.7513 153.832L58.7313 153.854C59.2708 153.883 59.8102 153.905 60.3564 153.934C60.3431 154.196 60.3564 154.466 60.3764 154.728L60.3697 154.721Z" fill="#FFC502"/>
<path id="Vector_32" d="M31.4442 161.912C31.4908 161.336 31.4974 160.579 32.1035 160.506C33.0493 160.389 33.016 161.3 33.0693 162.021C32.5231 161.985 31.9836 161.948 31.4375 161.919L31.4442 161.912Z" fill="#FFC502"/>
<path id="Vector_33" d="M126.54 167.442C126.546 168.229 126.44 168.95 125.707 169.329C124.382 167.835 125.468 167.639 126.54 167.442Z" fill="#FFC502"/>
<path id="Vector_34" d="M276.211 179.309C275.598 179.207 274.653 179.185 274.899 178.282C275.172 177.291 275.831 177.75 276.244 178.413C276.238 178.712 276.224 179.011 276.204 179.309H276.211Z" fill="#FFC502"/>
<path id="Vector_35" d="M229.928 190.88C229.509 190.756 229.309 190.428 229.449 190.005C229.509 189.83 229.842 189.641 230.035 189.656C230.468 189.699 230.634 190.093 230.508 190.508C230.455 190.683 230.128 190.756 229.928 190.88Z" fill="#FFC502"/>
<path id="Vector_36" d="M292.749 203.148C292.769 203.746 292.782 204.343 292.802 204.948C292.269 204.817 291.736 204.693 291.197 204.562C291.237 204.307 291.17 204.088 291.01 203.899C291.057 203.6 291.097 203.301 291.13 203.01C291.67 203.061 292.209 203.104 292.749 203.148Z" fill="#FFC502"/>
<path id="Vector_37" d="M224.954 205.604C225.68 205.691 226.419 205.728 226.719 206.668L226.625 206.755C226.346 207.025 226.059 207.287 225.779 207.557L225.393 207.542H225.007C224.72 207.221 224.441 206.894 224.154 206.573C224.421 206.252 224.687 205.925 224.954 205.604Z" fill="#FFC502"/>
<path id="Vector_38" d="M1.02633 324.056C0.453545 322.446 0.986374 321.965 2.41835 322.409L2.39836 322.373C2.40502 322.664 2.43166 322.963 2.48495 323.247V323.262C2.16525 323.546 1.84556 323.83 1.53252 324.114L1.29275 323.983L1.033 324.049L1.02633 324.056Z" fill="#FFC502"/>
<path id="Vector_39" d="M384.654 161.991C384.641 161.401 384.628 160.804 384.614 160.214C385.254 160.177 385.82 160.323 386.199 160.957C385.926 161.307 385.653 161.656 385.374 162.013L385.014 161.984H384.654V161.991Z" fill="#FFC502"/>
<path id="Vector_40" d="M35.4537 164.097C35.3671 164.592 35.7534 165.321 35.0607 165.503C34.7943 165.569 34.428 165.146 34.1083 164.949H34.0017C34.3614 164.614 34.721 164.279 35.0807 163.944C35.1673 164.119 35.2872 164.17 35.4537 164.097Z" fill="#FFC502"/>
<path id="Vector_41" d="M41.361 165.598C41.3211 164.906 41.5275 164.323 42.0337 163.886C42.3601 164.17 42.6798 164.454 43.0061 164.738C42.9595 164.993 42.9462 165.255 42.9662 165.51L41.361 165.598Z" fill="#FFC502"/>
<path id="Vector_42" d="M21.5531 342.35C21.5398 341.833 21.4332 341.148 22.0793 341.119C22.6254 341.097 22.8652 341.665 22.8985 342.263C22.4523 342.292 21.9994 342.321 21.5531 342.35Z" fill="#FFC502"/>
<path id="Vector_43" d="M301.873 193.043L301.713 192.038C301.84 191.812 301.92 191.564 301.94 191.302C302.166 191.258 302.393 191.222 302.619 191.192C302.906 191.549 303.199 191.906 303.485 192.271C303.425 192.424 303.425 192.584 303.472 192.744C302.939 192.846 302.406 192.948 301.873 193.043Z" fill="#FFC502"/>
<path id="Vector_44" d="M282.025 359.64C282.312 359.96 282.605 360.281 282.891 360.601L282.032 361.519L282.019 361.505C281.746 361.206 281.472 360.907 281.199 360.616L281.179 360.594C281.179 360.288 281.193 359.982 281.193 359.676C281.466 359.654 281.739 359.647 282.012 359.64H282.025Z" fill="#FFC502"/>
<path id="Vector_45" d="M360.597 224.889C360.931 224.197 361.43 223.687 362.003 224.445C362.349 224.911 361.93 225.45 361.463 225.763C361.17 225.472 360.884 225.18 360.591 224.889H360.597Z" fill="#FFC502"/>
<path id="Vector_46" d="M114.964 64.5155C114.964 64.2095 114.958 63.9035 114.951 63.5975C115.237 63.3061 115.524 63.0219 115.803 62.7378C116.569 63.0729 116.623 63.7869 116.609 64.5447C116.063 64.5374 115.51 64.5228 114.964 64.5155Z" fill="#FFC502"/>
<path id="Vector_47" d="M67.2762 70.1034L67.6226 70.0742C67.9556 70.3802 68.2952 70.6862 68.6283 70.9922C68.5883 71.2181 68.5816 71.4512 68.6083 71.6771C68.0688 71.7354 67.5293 71.7937 66.9898 71.8519H66.9832C67.0831 71.2618 67.183 70.6789 67.2829 70.1034H67.2762Z" fill="#FFC502"/>
<path id="Vector_48" d="M231.487 103.699C230.907 103.721 230.394 103.553 229.988 103.087C230.308 102.715 230.627 102.344 230.947 101.965L231.307 101.987C231.367 102.562 231.42 103.131 231.48 103.699H231.487Z" fill="#FFC502"/>
<path id="Vector_49" d="M301.494 287.226C301.28 287.342 301.047 287.583 300.868 287.546C300.428 287.459 300.275 287.058 300.488 286.636C300.554 286.504 300.967 286.439 301.107 286.534C301.294 286.665 301.374 286.985 301.5 287.226H301.494Z" fill="#FFC502"/>
<path id="Vector_50" d="M57.0729 296.756C57.0596 296.479 57.0596 296.202 57.0596 295.925C57.3526 295.627 57.6457 295.335 57.9387 295.037L57.9121 295.073L58.2917 295.095L58.6714 295.08V295.029C58.6847 295.627 58.6913 296.224 58.698 296.822C58.1519 296.792 57.6057 296.771 57.0596 296.756H57.0729Z" fill="#FFC502"/>
<path id="Vector_51" d="M254.551 301.316C254.438 301.564 254.385 301.936 254.205 302.023C254.039 302.103 253.752 301.892 253.512 301.805C253.646 301.557 253.732 301.258 253.919 301.083C254.185 300.821 254.432 300.938 254.551 301.316Z" fill="#FFC502"/>
<path id="Vector_52" d="M256.344 133.795C256.643 133.46 256.936 133.118 257.236 132.783C257.509 132.812 257.775 132.834 258.049 132.848V133.795C257.782 134.094 257.516 134.393 257.249 134.692L257.223 134.721C256.93 134.407 256.637 134.101 256.344 133.788V133.795Z" fill="#FFC502"/>
<path id="Vector_53" d="M19.8549 135.632C20.3877 135.967 20.9205 136.295 21.4467 136.63C21.3601 136.813 21.3534 136.995 21.4334 137.184C20.9005 137.272 20.3744 137.352 19.8416 137.439C19.8549 136.834 19.8682 136.23 19.8815 135.625L19.8615 135.64L19.8549 135.632Z" fill="#FFC502"/>
<path id="Vector_54" d="M344.892 309.549C345.298 308.952 345.818 308.369 346.337 309.258C346.637 309.768 346.204 310.285 345.671 310.496C345.412 310.183 345.152 309.862 344.892 309.549Z" fill="#FFC502"/>
<path id="Vector_55" d="M147.221 317.739C147.514 317.171 147.967 316.763 148.46 317.28C148.959 317.804 148.579 318.315 148.1 318.664C147.807 318.358 147.514 318.045 147.221 317.739Z" fill="#FFC502"/>
<path id="Vector_56" d="M167.927 39.9407C167.927 39.3433 167.914 38.7532 167.907 38.1557C168.181 38.1266 168.454 38.1193 168.727 38.1484C168.727 38.469 168.727 38.7896 168.727 39.1174C168.747 39.3943 168.727 39.6712 168.647 39.9407H168.287H167.927Z" fill="#FFC502"/>
<path id="Vector_57" d="M164.577 47.2339C165.123 47.2485 165.676 47.2557 166.222 47.2703C166.222 47.5326 166.222 47.7949 166.209 48.0572C165.663 48.0863 165.123 48.1155 164.577 48.1446C164.564 47.8386 164.564 47.5399 164.577 47.2339Z" fill="#FFC502"/>
<path id="Vector_58" d="M87.6771 49.0994C88.2232 49.0921 88.7694 49.0776 89.3222 49.063C89.3222 49.3763 89.3222 49.6968 89.3222 50.0101C88.776 49.9664 88.2299 49.9227 87.6837 49.879C87.6837 49.6167 87.6771 49.3544 87.6704 49.0921L87.6771 49.0994Z" fill="#FFC502"/>
<path id="Vector_59" d="M150.85 56.2031C150.73 55.6348 150.604 55.0738 150.484 54.5055C152.402 54.4254 151.057 55.5474 151.003 56.1958H150.85V56.2031Z" fill="#FFC502"/>
<path id="Vector_60" d="M211.746 59.1382C212.245 59.2474 212.745 59.3567 213.244 59.466L213.291 59.5753C212.778 59.6919 212.265 59.8012 211.752 59.9104C211.739 59.6482 211.739 59.3931 211.752 59.1309L211.746 59.1382Z" fill="#FFC502"/>
<path id="Vector_61" d="M210.64 71.7652C210.234 71.0949 209.754 70.41 210.893 70.0166C210.807 70.5995 210.72 71.1823 210.64 71.7652Z" fill="#FFC502"/>
<path id="Vector_62" d="M49.6799 78.1768C49.6333 77.4337 49.6333 76.7197 50.4326 76.4282C50.4326 77.1422 50.3859 77.8344 49.6799 78.1768Z" fill="#FFC502"/>
<path id="Vector_63" d="M119.134 84.7043C119.673 84.6606 120.213 84.6096 120.752 84.5659V85.5422C120.206 85.4912 119.66 85.4402 119.114 85.3892C119.134 85.1634 119.14 84.9375 119.134 84.7043Z" fill="#FFC502"/>
<path id="Vector_64" d="M160.454 90.0741C161.007 90.0741 161.553 90.0596 162.099 90.0596V90.9776C161.553 90.9557 161 90.9411 160.454 90.9266C160.454 90.6424 160.454 90.3583 160.454 90.0814V90.0741Z" fill="#FFC502"/>
<path id="Vector_65" d="M244.754 100.981C243.868 100.318 243.675 99.6989 244.847 99.167C244.814 99.7717 244.787 100.376 244.754 100.981Z" fill="#FFC502"/>
<path id="Vector_66" d="M105.9 104.755C106.499 104.799 106.832 105.156 106.719 105.804C106.646 106.234 106.279 106.409 105.88 106.401C105.88 105.855 105.893 105.309 105.9 104.755Z" fill="#FFC502"/>
<path id="Vector_67" d="M392.827 112.726C392.101 112.558 391.648 112.15 392.254 111.4C392.48 111.123 392.847 111.567 393 111.924C392.9 112.179 392.84 112.449 392.827 112.726Z" fill="#FFC502"/>
<path id="Vector_68" d="M182.833 113.891L184.425 113.767C184.425 114.088 184.438 114.401 184.438 114.722C183.892 114.656 183.353 114.59 182.807 114.518C182.833 114.314 182.84 114.102 182.833 113.891Z" fill="#FFC502"/>
<path id="Vector_69" d="M112.48 124.674C113.006 124.725 113.539 124.776 114.065 124.827C114.065 125.031 114.072 125.235 114.099 125.439L112.473 125.629C112.473 125.308 112.473 124.988 112.473 124.667L112.48 124.674Z" fill="#FFC502"/>
<path id="Vector_70" d="M105.054 127.45C105.6 127.428 106.146 127.413 106.692 127.392C106.706 127.69 106.699 127.989 106.686 128.295C106.146 128.266 105.6 128.237 105.061 128.208C105.061 127.953 105.061 127.705 105.061 127.45H105.054Z" fill="#FFC502"/>
<path id="Vector_71" d="M132.328 131.96C132.328 131.355 132.328 130.75 132.335 130.146C132.595 130.146 132.854 130.146 133.114 130.146C133.121 130.75 133.127 131.355 133.141 131.952H132.734H132.328V131.96Z" fill="#FFC502"/>
<path id="Vector_72" d="M259.7 131.041C259.98 131.034 260.259 131.019 260.546 131.005C260.539 131.624 260.533 132.243 260.526 132.863C260.253 132.892 259.986 132.863 259.727 132.768C259.72 132.192 259.707 131.617 259.7 131.034V131.041Z" fill="#FFC502"/>
<path id="Vector_73" d="M263.85 138.327C263.85 137.723 263.836 137.118 263.83 136.513C264.782 137.103 264.769 137.715 263.85 138.327Z" fill="#FFC502"/>
<path id="Vector_74" d="M100.059 140.105C100.585 140.185 101.111 140.273 101.644 140.353C101.624 140.52 101.631 140.688 101.677 140.855L100.065 141.147C100.065 140.797 100.065 140.455 100.059 140.105Z" fill="#FFC502"/>
<path id="Vector_75" d="M68.635 151.092C68.6417 150.487 68.655 149.883 68.6617 149.285C69.5541 149.904 69.5808 150.509 68.635 151.092Z" fill="#FFC502"/>
<path id="Vector_76" d="M339.951 149.307C341.11 149.416 340.87 150.261 340.71 151.063C340.217 150.983 339.977 150.604 339.784 150.152C339.857 149.868 339.917 149.577 339.964 149.278L339.944 149.3L339.951 149.307Z" fill="#FFC502"/>
<path id="Vector_77" d="M192.717 160.112C192.69 160.731 192.664 161.35 192.637 161.977C191.758 161.307 191.778 160.687 192.717 160.112Z" fill="#FFC502"/>
<path id="Vector_78" d="M382.237 161.431C382.85 161.307 383.622 160.687 383.776 162.021H383.769C383.243 161.904 382.723 161.788 382.197 161.664L382.237 161.431Z" fill="#FFC502"/>
<path id="Vector_79" d="M41.4745 171.974C41.4213 171.384 41.368 170.793 41.3147 170.203L41.3347 170.181C41.6144 170.167 41.9008 170.16 42.1805 170.145L42.2405 170.203C42.1739 170.801 42.1073 171.398 42.0407 171.996C41.8542 171.966 41.661 171.959 41.4745 171.966V171.974Z" fill="#FFC502"/>
<path id="Vector_80" d="M2.41145 177.524C2.47139 176.934 2.53799 176.337 2.59794 175.746C2.79108 175.768 2.98424 175.761 3.17072 175.717C3.22401 176.315 3.28395 176.912 3.33723 177.517L2.40479 177.531L2.41145 177.524Z" fill="#FFC502"/>
<path id="Vector_81" d="M380.499 178.399C380.519 177.816 380.545 177.226 380.565 176.643C380.785 176.643 380.998 176.629 381.218 176.607C381.278 177.212 381.338 177.824 381.391 178.428C381.092 178.421 380.792 178.407 380.492 178.399H380.499Z" fill="#FFC502"/>
<path id="Vector_82" d="M106.686 180.228C107.239 180.228 107.791 180.235 108.338 180.243C108.338 180.527 108.338 180.811 108.331 181.095L106.692 181.139C106.692 180.833 106.692 180.534 106.692 180.228H106.686Z" fill="#FFC502"/>
<path id="Vector_83" d="M67.0229 195.702V193.917C67.9954 194.515 67.9954 195.105 67.0229 195.702Z" fill="#FFC502"/>
<path id="Vector_84" d="M73.564 197.422C73.3109 197.487 73.0578 197.546 72.8047 197.619C72.3518 197.742 72.0987 197.436 71.8523 197.101C72.1653 196.905 72.465 196.642 72.7981 196.533C73.0245 196.46 73.3042 196.599 73.5573 196.65C73.524 196.912 73.524 197.167 73.5573 197.429L73.564 197.422Z" fill="#FFC502"/>
<path id="Vector_85" d="M18.1765 197.531C18.7227 197.553 19.2688 197.582 19.815 197.604C19.5485 197.925 19.2888 198.245 19.0224 198.559C18.5761 198.376 18.2764 198.056 18.1765 197.531Z" fill="#FFC502"/>
<path id="Vector_86" d="M168.72 210.303C169.273 210.303 169.819 210.303 170.365 210.303C170.365 210.595 170.365 210.879 170.365 211.163C169.819 211.17 169.266 211.177 168.72 211.185C168.72 210.886 168.72 210.587 168.72 210.296V210.303Z" fill="#FFC502"/>
<path id="Vector_87" d="M305.177 213.029C305.197 212.431 305.224 211.826 305.244 211.229C305.45 211.244 305.657 211.251 305.863 211.244C305.91 211.834 305.963 212.431 306.01 213.021C305.73 213.021 305.457 213.021 305.177 213.036V213.029Z" fill="#FFC502"/>
<path id="Vector_88" d="M60.7093 216.518C60.6027 216.263 60.4962 216.001 60.3896 215.746C60.1698 215.243 60.4695 214.82 60.7892 214.82C61.1022 214.82 61.402 215.236 61.1689 215.738C61.049 215.993 60.9557 216.256 60.8492 216.511H60.7093V216.518Z" fill="#FFC502"/>
<path id="Vector_89" d="M168.98 217.393C168.893 216.846 168.807 216.307 168.72 215.761C168.993 215.732 169.26 215.761 169.526 215.856C169.546 216.453 169.386 216.978 168.98 217.393Z" fill="#FFC502"/>
<path id="Vector_90" d="M83.5344 218.507C84.0805 218.515 84.62 218.529 85.1661 218.536C85.1661 218.784 85.1595 219.039 85.1595 219.287C84.62 219.301 84.0805 219.316 83.5477 219.331C83.5277 219.061 83.5277 218.784 83.541 218.515L83.5344 218.507Z" fill="#FFC502"/>
<path id="Vector_91" d="M331.672 220.314C330.852 220.015 330.872 219.265 330.872 218.521L330.859 218.536C331.099 218.536 331.332 218.529 331.572 218.514C331.605 219.112 331.638 219.716 331.672 220.314Z" fill="#FFC502"/>
<path id="Vector_92" d="M360.617 219.439C361.163 219.432 361.71 219.425 362.256 219.417C362.269 219.716 362.269 220.015 362.256 220.314C361.71 220.292 361.163 220.27 360.611 220.255C360.611 219.986 360.611 219.716 360.611 219.447L360.617 219.439Z" fill="#FFC502"/>
<path id="Vector_93" d="M198.518 223.032C198.512 222.427 198.498 221.83 198.492 221.225C199.544 221.808 199.537 222.413 198.518 223.032Z" fill="#FFC502"/>
<path id="Vector_94" d="M199.258 225.604C198.372 225.415 198.345 224.715 198.452 223.943C199.411 224.096 199.271 224.89 199.258 225.604Z" fill="#FFC502"/>
<path id="Vector_95" d="M71.1257 227.599C70.0867 227.002 70.1133 226.39 71.1124 225.778C71.1124 226.383 71.119 226.995 71.1257 227.599Z" fill="#FFC502"/>
<path id="Vector_96" d="M0.000383724 226.71C0.826265 226.995 0.819604 227.723 0.759661 228.474C0.0669867 228.117 -0.00627661 227.439 0.000383724 226.71Z" fill="#FFC502"/>
<path id="Vector_97" d="M215.182 243.927C215.162 243.41 214.736 242.506 215.296 242.477C216.348 242.419 215.615 243.402 215.702 243.927H215.442H215.182Z" fill="#FFC502"/>
<path id="Vector_98" d="M109.23 247.606C109.21 247.009 109.196 246.411 109.177 245.821C110.322 246.375 110.149 246.98 109.23 247.606Z" fill="#FFC502"/>
<path id="Vector_99" d="M177.019 254.091C177.565 254.069 178.104 254.04 178.651 254.018C178.651 254.324 178.651 254.63 178.651 254.936C178.104 254.914 177.558 254.9 177.012 254.871C177.012 254.608 177.012 254.346 177.019 254.091Z" fill="#FFC502"/>
<path id="Vector_100" d="M6.60742 264.947C7.15357 264.954 7.70638 264.961 8.25252 264.976C8.25252 265.253 8.25253 265.522 8.24587 265.792C7.69972 265.821 7.15357 265.85 6.60742 265.879C6.60742 265.566 6.60742 265.253 6.60742 264.947Z" fill="#FFC502"/>
<path id="Vector_101" d="M86.8379 266.768C86.8379 266.163 86.8379 265.558 86.8446 264.954C87.1043 264.954 87.3707 264.954 87.6305 264.954C87.6438 265.558 87.6638 266.163 87.6771 266.775C87.3974 266.775 87.1176 266.775 86.8379 266.775V266.768Z" fill="#FFC502"/>
<path id="Vector_102" d="M209.395 269.828C209.894 269.726 210.394 269.624 210.893 269.529C210.893 269.792 210.887 270.047 210.88 270.309C210.367 270.214 209.848 270.127 209.335 270.032L209.395 269.828Z" fill="#FFC502"/>
<path id="Vector_103" d="M6.57411 274.047C5.52178 273.478 5.66831 272.874 6.52749 272.254C6.54081 272.852 6.56079 273.449 6.57411 274.047Z" fill="#FFC502"/>
<path id="Vector_104" d="M267.153 274.075L268.798 274.053C268.798 274.359 268.798 274.665 268.798 274.971C268.245 274.963 267.699 274.956 267.146 274.949C267.146 274.657 267.146 274.366 267.146 274.075H267.153Z" fill="#FFC502"/>
<path id="Vector_105" d="M268.771 277.71C268.798 277.149 268.818 276.581 268.844 276.02C269.73 276.625 269.897 277.2 268.771 277.71Z" fill="#FFC502"/>
<path id="Vector_106" d="M3.3838 281.31C3.34384 280.712 3.30388 280.108 3.26392 279.51L4.10978 279.525C4.06981 280.115 4.0232 280.712 3.98323 281.303L3.68352 281.288L3.37714 281.303L3.3838 281.31Z" fill="#FFC502"/>
<path id="Vector_107" d="M270.483 283.167C269.291 282.665 269.571 282.038 270.35 281.36C270.397 281.965 270.437 282.563 270.483 283.167Z" fill="#FFC502"/>
<path id="Vector_108" d="M212.572 283.212C213.071 283.146 213.817 283.088 213.79 283.7C213.77 284.203 212.978 284.166 212.472 284.101C212.532 283.809 212.565 283.511 212.578 283.212H212.572Z" fill="#FFC502"/>
<path id="Vector_109" d="M218.339 286.811C217.34 286.258 217.453 285.646 218.273 285.012C218.293 285.609 218.319 286.214 218.339 286.811Z" fill="#FFC502"/>
<path id="Vector_110" d="M261.351 284.982C261.898 284.99 262.45 284.997 262.996 285.004C262.996 285.274 262.997 285.543 262.983 285.813C262.437 285.849 261.891 285.893 261.345 285.93C261.345 285.616 261.345 285.296 261.345 284.982H261.351Z" fill="#FFC502"/>
<path id="Vector_111" d="M53.2898 289.397C53.1765 288.843 53.0633 288.289 52.9567 287.743L52.9368 287.758L53.343 287.721H53.756C53.9225 288.384 53.6028 288.901 53.3564 289.441L53.2898 289.397Z" fill="#FFC502"/>
<path id="Vector_112" d="M58.6646 300.508C58.6846 301.113 58.7046 301.725 58.7246 302.329C57.8188 301.754 57.7788 301.149 58.6646 300.508Z" fill="#FFC502"/>
<path id="Vector_113" d="M261.405 300.632C262.364 301.222 262.404 301.783 261.352 302.293C261.372 301.74 261.392 301.186 261.405 300.632Z" fill="#FFC502"/>
<path id="Vector_114" d="M34.7276 302.308C34.7475 302.607 34.7475 302.898 34.7276 303.197C34.1814 303.175 33.6353 303.146 33.0891 303.124C33.3622 302.818 33.6419 302.519 33.915 302.213C34.1814 302.25 34.4545 302.279 34.7209 302.315L34.7276 302.308Z" fill="#FFC502"/>
<path id="Vector_115" d="M164.124 307.611C163.945 306.956 163.225 306.125 164.571 305.972L164.551 305.95C164.431 306.518 164.304 307.079 164.184 307.648L164.124 307.611Z" fill="#FFC502"/>
<path id="Vector_116" d="M48.827 306.942L50.4388 306.869C50.4721 307.16 50.4721 307.459 50.4388 307.75C49.8994 307.707 49.3599 307.663 48.8137 307.619C48.8204 307.393 48.8204 307.167 48.8137 306.942H48.827Z" fill="#FFC502"/>
<path id="Vector_117" d="M202.721 308.551C202.695 307.983 202.668 307.422 202.648 306.854C202.941 306.847 203.227 306.839 203.52 306.832C203.72 307.663 203.707 308.377 202.728 308.551H202.721Z" fill="#FFC502"/>
<path id="Vector_118" d="M294.441 306.862C294.987 306.862 295.533 306.869 296.079 306.876C296.079 307.153 296.086 307.43 296.079 307.714C295.533 307.736 294.98 307.758 294.427 307.78C294.427 307.474 294.427 307.168 294.434 306.869L294.441 306.862Z" fill="#FFC502"/>
<path id="Vector_119" d="M115.004 307.874C115.544 307.831 116.083 307.787 116.616 307.743C116.616 308.049 116.616 308.362 116.616 308.668C116.077 308.617 115.537 308.559 114.998 308.508C115.018 308.297 115.018 308.086 115.004 307.867V307.874Z" fill="#FFC502"/>
<path id="Vector_120" d="M6.59434 309.535C7.14049 309.586 7.67997 309.629 8.21946 309.68C8.20614 309.899 8.20614 310.118 8.21946 310.336C7.67997 310.394 7.14049 310.453 6.601 310.511L6.58768 310.496C6.58102 310.19 6.5677 309.877 6.56104 309.571L6.58768 309.535H6.59434Z" fill="#FFC502"/>
<path id="Vector_121" d="M13.2479 309.571C13.2346 310.169 13.2146 310.766 13.2013 311.364C12.3288 311.101 12.3021 310.38 12.4153 309.586C12.6951 309.586 12.9748 309.579 13.2479 309.571Z" fill="#FFC502"/>
<path id="Vector_122" d="M342.341 310.475C342.907 310.504 343.467 310.533 344.033 310.563C344.026 310.803 344.026 311.043 344.033 311.284C343.493 311.313 342.954 311.335 342.414 311.364C342.394 311.073 342.374 310.774 342.341 310.475Z" fill="#FFC502"/>
<path id="Vector_123" d="M86.7977 315.946C85.9252 315.327 85.8786 314.722 86.8243 314.139C86.8177 314.744 86.8044 315.349 86.7977 315.946Z" fill="#FFC502"/>
<path id="Vector_124" d="M191.878 314.133C191.845 314.759 191.811 315.386 191.778 316.013C191.565 315.983 191.358 315.983 191.145 316.013C191.112 315.386 191.079 314.759 191.045 314.133C191.325 314.133 191.598 314.133 191.878 314.133Z" fill="#FFC502"/>
<path id="Vector_125" d="M72.7712 317.783C72.7912 317.186 72.8045 316.581 72.8312 315.983C73.0576 315.983 73.2841 315.983 73.5105 315.983C73.5438 316.581 73.5838 317.178 73.6171 317.783C73.3374 317.783 73.051 317.783 72.7712 317.783Z" fill="#FFC502"/>
<path id="Vector_126" d="M263.017 317.776C263.017 317.171 263.023 316.573 263.03 315.969C263.276 315.969 263.516 315.969 263.763 315.969L263.796 317.761H263.41H263.023L263.017 317.776Z" fill="#FFC502"/>
<path id="Vector_127" d="M356.468 318.686C357.021 318.686 357.567 318.701 358.12 318.708C358.12 318.999 358.12 319.283 358.12 319.575C357.574 319.575 357.021 319.589 356.475 319.589C356.468 319.291 356.468 318.985 356.475 318.686H356.468Z" fill="#FFC502"/>
<path id="Vector_128" d="M98.4267 324.187C98.9529 324.23 99.479 324.274 100.005 324.325C100.005 324.544 100.019 324.762 100.052 324.981C99.499 325.046 98.9529 325.112 98.4067 325.17C98.4067 324.842 98.4201 324.514 98.4267 324.187Z" fill="#FFC502"/>
<path id="Vector_129" d="M161.447 345.017C161.387 344.434 161.327 343.859 161.267 343.276H161.274C161.554 343.276 161.833 343.276 162.107 343.269H162.113C162.047 343.866 161.973 344.456 161.907 345.046L161.68 345.01H161.447V345.017Z" fill="#FFC502"/>
<path id="Vector_130" d="M95.1101 346.029C95.6629 346.029 96.2091 346.022 96.7552 346.015C96.7552 346.306 96.7552 346.605 96.7552 346.896C96.2091 346.889 95.6629 346.874 95.1168 346.867C95.1168 346.59 95.1101 346.306 95.1168 346.022L95.1101 346.029Z" fill="#FFC502"/>
<path id="Vector_131" d="M344.979 351.413C345.265 350.597 345.851 350.459 346.551 350.554C346.551 350.889 346.564 351.224 346.571 351.559C346.018 351.501 345.472 351.45 344.919 351.392L344.979 351.413Z" fill="#FFC502"/>
<path id="Vector_132" d="M61.1687 354.204C60.2829 353.577 60.2296 352.973 61.202 352.39C61.1887 352.994 61.1821 353.599 61.1687 354.204Z" fill="#FFC502"/>
<path id="Vector_133" d="M79.5315 361.41C79.4782 360.827 79.4183 360.244 79.365 359.661L79.385 359.646C79.6647 359.661 79.9378 359.668 80.2175 359.683C80.2575 360.39 80.1642 361.031 79.5315 361.402V361.41Z" fill="#FFC502"/>
<path id="Vector_134" d="M74.4431 360.63C74.9826 360.637 75.5221 360.644 76.0616 360.652C76.0682 360.899 76.0682 361.154 76.0616 361.402C75.5221 361.417 74.9759 361.431 74.4364 361.453C74.4165 361.176 74.4231 360.907 74.4364 360.63H74.4431Z" fill="#FFC502"/>
<path id="Vector_135" d="M245.627 360.564C246.14 360.608 246.659 360.644 247.172 360.688C246.879 361.46 246.293 361.606 245.62 361.562C245.62 361.227 245.62 360.892 245.627 360.564Z" fill="#FFC502"/>
<path id="Vector_136" d="M163.785 20C163.984 20.0874 164.335 20.1384 164.362 20.2623C164.468 20.7723 164.11 20.8014 163.771 20.7941C163.765 20.5319 163.771 20.2623 163.785 20Z" fill="#FFC502"/>
<path id="Vector_137" d="M238.187 30.8335C238.747 30.8408 239.033 31.1541 239.04 31.7734C238.54 31.7005 238.254 31.3872 238.187 30.8335Z" fill="#FFC502"/>
<path id="Vector_138" d="M199.317 37.2159C198.958 37.2378 198.585 37.2159 198.691 36.6768C198.718 36.5456 199.084 36.4873 199.297 36.3999C199.311 36.6695 199.317 36.9463 199.317 37.2159Z" fill="#FFC502"/>
<path id="Vector_139" d="M260.506 43.6128C260.532 44.2321 260.273 44.5381 259.707 44.5089C259.747 43.9625 260.013 43.6638 260.506 43.6128Z" fill="#FFC502"/>
<path id="Vector_140" d="M101.75 46.4188C102.003 46.346 102.263 46.3241 102.523 46.3606C102.51 46.9289 102.263 47.2421 101.724 47.2203C101.717 46.9507 101.724 46.6811 101.744 46.4188H101.75Z" fill="#FFC502"/>
<path id="Vector_141" d="M239 62.6726C238.674 62.6507 238.274 62.6726 238.387 62.1407C238.414 62.0096 238.787 61.9659 239 61.8857C239.02 62.148 239.02 62.4103 239 62.6726Z" fill="#FFC502"/>
<path id="Vector_142" d="M225.778 67.2547C226.391 67.2037 226.664 67.5315 226.624 68.1945C226.105 68.1435 225.825 67.823 225.778 67.2547Z" fill="#FFC502"/>
<path id="Vector_143" d="M105.034 68.1953C104.941 68.698 104.668 68.9895 104.215 69.0915C104.315 68.6033 104.594 68.3046 105.034 68.1953Z" fill="#FFC502"/>
<path id="Vector_144" d="M130.676 68.2019C131.056 68.1874 131.475 68.1874 131.362 68.7775C131.335 68.9159 130.922 68.9669 130.689 69.0544C130.683 68.7702 130.676 68.4861 130.676 68.2019Z" fill="#FFC502"/>
<path id="Vector_145" d="M200.163 79.1748C200.39 79.2622 200.783 79.3059 200.809 79.4371C200.922 79.9981 200.516 79.9981 200.156 80.0054C200.143 79.7285 200.143 79.4517 200.156 79.1748H200.163Z" fill="#FFC502"/>
<path id="Vector_146" d="M16.5381 86.4238C16.9843 86.5331 17.2574 86.8318 17.3573 87.3273C16.9177 87.2107 16.6447 86.912 16.5381 86.4238Z" fill="#FFC502"/>
<path id="Vector_147" d="M11.5539 96.3829C10.8439 96.106 10.8572 95.8365 11.5539 95.5669C11.5605 95.8365 11.5605 96.1133 11.5539 96.3829Z" fill="#FFC502"/>
<path id="Vector_148" d="M147.22 113.738C147.22 113.439 147.214 113.133 147.22 112.834C147.493 112.827 147.773 112.827 148.046 112.834C148.046 113.118 148.046 113.395 148.033 113.679C147.766 113.723 147.5 113.73 147.234 113.708V113.745L147.22 113.738Z" fill="#FFC502"/>
<path id="Vector_149" d="M5.75948 130.991C5.56042 130.86 5.368 130.729 5.16895 130.59C5.368 130.459 5.56042 130.328 5.75948 130.189C5.77275 130.452 5.77275 130.721 5.75948 130.984V130.991Z" fill="#FFC502"/>
<path id="Vector_150" d="M261.358 131.079C261.065 131.079 260.772 131.079 260.486 131.079C260.466 130.423 260.759 130.139 261.338 130.183C261.338 130.481 261.352 130.773 261.365 131.071L261.358 131.079Z" fill="#FFC502"/>
<path id="Vector_151" d="M129.038 131.974C129.304 131.96 129.564 131.974 129.824 132.018C129.837 132.287 129.844 132.557 129.83 132.827C129.371 132.761 129.111 132.47 129.031 131.967L129.038 131.974Z" fill="#FFC502"/>
<path id="Vector_152" d="M68.6553 138.378C68.8884 138.466 69.2946 138.51 69.3213 138.641C69.4412 139.224 69.0149 139.209 68.6553 139.216C68.6419 138.939 68.6419 138.663 68.6553 138.378Z" fill="#FFC502"/>
<path id="Vector_153" d="M24.0376 141.089C24.2907 141.067 24.5504 141.053 24.8102 141.06C24.8302 141.694 24.5504 141.993 23.9776 141.971C23.9643 141.672 23.9843 141.381 24.0376 141.089Z" fill="#FFC502"/>
<path id="Vector_154" d="M119.933 145.657C120.379 145.744 120.639 146.028 120.719 146.524C120.293 146.414 120.033 146.123 119.933 145.657Z" fill="#FFC502"/>
<path id="Vector_155" d="M29.7501 157.409C29.4316 157.402 29.0733 157.38 29.1794 156.885C29.206 156.761 29.551 156.71 29.7434 156.63C29.7633 156.885 29.7633 157.147 29.7501 157.402V157.409Z" fill="#FFC502"/>
<path id="Vector_156" d="M47.1155 170.224C47.1021 170.799 46.8491 171.12 46.3096 171.134C46.3695 170.61 46.6359 170.304 47.1155 170.224Z" fill="#FFC502"/>
<path id="Vector_157" d="M243.156 173.853L242.51 173.474L243.123 173.052C243.143 173.321 243.149 173.591 243.156 173.853Z" fill="#FFC502"/>
<path id="Vector_158" d="M101.708 186.559C101.396 186.559 101.058 186.523 101.151 186.057C101.177 185.933 101.502 185.882 101.688 185.794C101.708 186.049 101.715 186.304 101.701 186.559H101.708Z" fill="#FFC502"/>
<path id="Vector_159" d="M172.856 186.61C172.856 186.304 172.856 186.005 172.856 185.699C173.129 185.699 173.409 185.699 173.682 185.699C173.682 185.991 173.682 186.275 173.675 186.559C173.402 186.61 173.136 186.617 172.863 186.603L172.856 186.61Z" fill="#FFC502"/>
<path id="Vector_160" d="M235.68 187.434C235.481 187.346 235.136 187.295 235.11 187.164C235.01 186.661 235.355 186.618 235.7 186.64C235.7 186.909 235.7 187.171 235.68 187.441V187.434Z" fill="#FFC502"/>
<path id="Vector_161" d="M154.68 197.532C154.647 196.906 154.913 196.592 155.493 196.621C155.493 196.927 155.466 197.219 155.386 197.503C155.146 197.525 154.913 197.532 154.673 197.525L154.68 197.532Z" fill="#FFC502"/>
<path id="Vector_162" d="M232.406 198.464C232.872 198.551 233.152 198.85 233.232 199.367C232.792 199.243 232.512 198.952 232.406 198.464Z" fill="#FFC502"/>
<path id="Vector_163" d="M21.48 204.788C21.2668 204.657 21.0537 204.526 20.8406 204.394C21.0537 204.263 21.2602 204.125 21.4666 203.994C21.48 204.256 21.4866 204.526 21.4733 204.788H21.48Z" fill="#FFC502"/>
<path id="Vector_164" d="M205.944 203.935C206.47 203.95 206.737 204.248 206.757 204.824C206.49 204.824 206.224 204.795 205.957 204.722C205.944 204.46 205.938 204.197 205.938 203.928L205.944 203.935Z" fill="#FFC502"/>
<path id="Vector_165" d="M253.825 206.683C253.752 206.894 253.712 207.273 253.605 207.295C253.166 207.404 253.179 207.003 253.159 206.676C253.386 206.654 253.605 206.654 253.832 206.676L253.825 206.683Z" fill="#FFC502"/>
<path id="Vector_166" d="M332.471 206.652C332.451 207.235 332.184 207.563 331.645 207.585C331.718 207.06 331.991 206.74 332.471 206.652Z" fill="#FFC502"/>
<path id="Vector_167" d="M70.3003 209.399C70.6 209.552 70.8997 209.698 71.2061 209.851C70.993 210.215 70.6933 210.361 70.307 210.266C70.307 209.975 70.3003 209.691 70.307 209.399H70.3003Z" fill="#FFC502"/>
<path id="Vector_168" d="M258.894 214.835C258.894 214.245 259.127 213.895 259.706 213.925C259.7 214.201 259.687 214.478 259.673 214.755C259.413 214.85 259.154 214.872 258.881 214.813L258.894 214.835Z" fill="#FFC502"/>
<path id="Vector_169" d="M155.499 217.632C155.831 217.632 156.163 217.691 156.05 218.164C156.023 218.295 155.692 218.339 155.506 218.426C155.486 218.164 155.486 217.902 155.506 217.64L155.499 217.632Z" fill="#FFC502"/>
<path id="Vector_170" d="M200.177 222.23C200.376 222.318 200.727 222.369 200.754 222.5C200.853 223.01 200.482 223.01 200.157 223.017C200.157 222.755 200.157 222.493 200.177 222.238V222.23Z" fill="#FFC502"/>
<path id="Vector_171" d="M133.993 223.994C134.219 224.081 134.625 224.132 134.652 224.271C134.772 224.846 134.359 224.861 133.986 224.861C133.986 224.569 133.986 224.285 133.993 223.994Z" fill="#FFC502"/>
<path id="Vector_172" d="M220.011 227.651C220.358 227.651 220.757 227.651 220.644 228.197C220.617 228.328 220.231 228.372 220.011 228.452C219.991 228.183 219.991 227.92 220.011 227.651Z" fill="#FFC502"/>
<path id="Vector_173" d="M277.044 250.295C276.838 250.215 276.471 250.171 276.445 250.047C276.338 249.522 276.724 249.537 277.044 249.522C277.064 249.777 277.064 250.04 277.044 250.295Z" fill="#FFC502"/>
<path id="Vector_174" d="M22.3523 255.759C22.3257 255.482 22.319 255.213 22.3323 254.936C22.9118 254.907 23.2182 255.183 23.1715 255.846C22.8985 255.846 22.6254 255.825 22.3523 255.759Z" fill="#FFC502"/>
<path id="Vector_175" d="M96.7752 259.497C97.0416 259.482 97.3014 259.497 97.5611 259.562C97.5811 259.817 97.5811 260.08 97.5611 260.335C97.0883 260.298 96.8218 260.021 96.7686 259.504L96.7752 259.497Z" fill="#FFC502"/>
<path id="Vector_176" d="M146.334 267.7C146.321 268.064 146.341 268.509 145.848 268.392C145.735 268.363 145.695 267.948 145.622 267.707C145.862 267.685 146.095 267.685 146.334 267.707V267.7Z" fill="#FFC502"/>
<path id="Vector_177" d="M291.95 270.417C291.93 270.993 291.657 271.299 291.13 271.321C291.204 270.804 291.477 270.498 291.95 270.417Z" fill="#FFC502"/>
<path id="Vector_178" d="M294.447 274.068C294.713 274.046 294.979 274.068 295.239 274.126C295.252 274.41 295.266 274.694 295.266 274.971C294.726 274.957 294.473 274.636 294.447 274.061V274.068Z" fill="#FFC502"/>
<path id="Vector_179" d="M41.3479 283.175C41.8075 283.255 42.0606 283.561 42.1405 284.057H42.1605C41.894 284.071 41.621 284.057 41.3546 284.02C41.3546 283.736 41.3479 283.459 41.3479 283.175Z" fill="#FFC502"/>
<path id="Vector_180" d="M160.461 288.669C160.794 288.691 161.194 288.669 161.087 289.208C161.061 289.339 160.688 289.383 160.468 289.47C160.455 289.201 160.448 288.939 160.455 288.669H160.461Z" fill="#FFC502"/>
<path id="Vector_181" d="M183.626 297.791C183.892 297.747 184.152 297.74 184.418 297.754C184.332 298.243 184.079 298.549 183.619 298.621C183.619 298.345 183.619 298.068 183.626 297.791Z" fill="#FFC502"/>
<path id="Vector_182" d="M105.034 305.936C105.034 305.63 105.034 305.331 105.034 305.025C105.307 305.025 105.586 305.025 105.86 305.025V305.936H105.447H105.034Z" fill="#FFC502"/>
<path id="Vector_183" d="M321.754 309.666C321.967 309.753 322.334 309.797 322.354 309.928C322.453 310.46 322.074 310.46 321.734 310.453C321.727 310.191 321.734 309.928 321.747 309.666H321.754Z" fill="#FFC502"/>
<path id="Vector_184" d="M13.2055 330.474C12.8936 330.452 12.5088 330.467 12.6149 329.957C12.6415 329.826 12.9931 329.782 13.1988 329.702C13.2187 329.964 13.2187 330.219 13.1988 330.481L13.2055 330.474Z" fill="#FFC502"/>
<path id="Vector_185" d="M387.072 340.55C387.625 340.528 387.858 340.856 387.845 341.439C387.365 341.38 387.112 341.074 387.072 340.55Z" fill="#FFC502"/>
<path id="Vector_186" d="M68.6682 342.452C69.0612 342.459 69.4341 342.554 69.2743 343.101C69.2343 343.239 68.848 343.261 68.6216 343.334C68.6416 343.042 68.6549 342.744 68.6615 342.452H68.6682Z" fill="#FFC502"/>
<path id="Vector_187" d="M335.841 344.215C336.054 344.368 336.274 344.521 336.487 344.674C336.261 344.813 336.041 344.951 335.814 345.09C335.794 344.798 335.801 344.507 335.841 344.215Z" fill="#FFC502"/>
<path id="Vector_188" d="M68.6948 348.724C68.9612 347.857 69.2143 347.952 69.4608 348.739C69.2077 348.739 68.9546 348.739 68.6948 348.724Z" fill="#FFC502"/>
<path id="Vector_189" d="M187.722 348.696C188.261 348.747 188.514 349.082 188.554 349.658C188.075 349.549 187.815 349.214 187.722 348.696Z" fill="#FFC502"/>
<path id="Vector_190" d="M215.002 351.392C214.636 351.377 214.27 351.29 214.423 350.765C214.463 350.627 214.829 350.605 215.049 350.532C215.029 350.816 215.016 351.108 215.009 351.392H215.002Z" fill="#FFC502"/>
<path id="Vector_191" d="M48.8005 366.065C49.0669 366.044 49.3334 366.065 49.5931 366.124C49.6131 366.401 49.6197 366.677 49.6131 366.947C49.0536 366.976 48.7872 366.677 48.8005 366.058V366.065Z" fill="#FFC502"/>
<path id="Vector_192" d="M24.7767 169.255C24.2905 169.27 23.5779 169.794 23.398 169.007C23.2249 168.235 23.8176 167.543 24.5303 167.732C25.2163 167.922 24.7234 168.738 24.7634 169.277L24.7767 169.255Z" fill="#FFC502"/>
<path id="Vector_193" d="M142.232 143.755C142.019 143.638 141.799 143.529 141.586 143.413C141.706 143.289 141.819 143.172 141.939 143.048C142.032 143.289 142.125 143.529 142.212 143.77L142.232 143.748V143.755Z" fill="#FFC502"/>
<path id="Vector_194" d="M65.4047 146.487C65.5313 145.722 65.1716 144.659 66.3572 144.535C66.8234 144.484 67.0698 144.863 67.0965 145.293C67.1364 145.941 67.4894 146.823 66.6969 147.099C66.3572 147.223 65.8243 146.684 65.3848 146.451L65.4047 146.487Z" fill="#FFC502"/>
<path id="Vector_195" d="M50.5261 345.199C50.999 345.228 51.4652 345.258 51.9381 345.294C51.9914 345.964 52.4243 346.933 51.4386 347.035C50.1798 347.166 50.4395 346.059 50.5261 345.199Z" fill="#FFC502"/>
<path id="Vector_196" d="M282.831 288.56C283.231 288.421 283.564 288.487 283.73 288.946C283.757 289.026 283.61 289.281 283.53 289.295C283.077 289.361 282.884 289.055 282.811 288.611L282.831 288.56Z" fill="#FFC502"/>
<path id="Vector_197" d="M225.08 270.549C225.273 270.571 225.466 270.571 225.659 270.556C225.719 271.678 226.172 272.807 225.632 274.265C224.4 272.982 224.993 271.722 225.08 270.549Z" fill="#FFC502"/>
<path id="Vector_198" d="M358.893 356.011C358.919 355.734 358.959 355.458 358.999 355.181C359.439 355.064 359.705 354.751 359.805 354.27C361.09 354.685 360.771 355.37 360.071 356.128C359.678 356.091 359.286 356.055 358.893 356.019V356.011Z" fill="#FFC502"/>
<path id="Vector_199" d="M362.269 352.404C362.716 352.514 362.982 352.827 363.095 353.308C362.656 353.191 362.389 352.878 362.269 352.404Z" fill="#FFC502"/>
<path id="Vector_200" d="M16.538 153.825C17.6569 153.825 18.3563 154.284 18.2231 155.668C16.4514 155.916 16.3781 155.836 16.538 153.825Z" fill="#FFC502"/>
<path id="Vector_201" d="M17.3706 158.399C16.8111 158.407 16.0718 159.026 15.8387 157.926C15.7321 157.416 16.1584 157.103 16.5047 157.037C17.5437 156.833 17.284 157.78 17.3839 158.392L17.3706 158.407V158.399Z" fill="#FFC502"/>
<path id="Vector_202" d="M29.6568 229.764C29.5506 229.96 29.4511 230.15 29.3515 230.332C29.2653 230.237 29.0928 230.113 29.1127 230.04C29.1591 229.836 29.2785 229.654 29.3714 229.465C29.4643 229.56 29.5506 229.654 29.6568 229.756V229.764Z" fill="#FFC502"/>
<path id="Vector_203" d="M238.194 263.125C237.967 263.001 237.747 262.878 237.528 262.761C237.654 262.623 237.781 262.484 237.907 262.353C238 262.615 238.1 262.87 238.194 263.133V263.125Z" fill="#FFC502"/>
<path id="Vector_204" d="M17.2774 166.997C17.1176 167.15 16.9044 167.514 16.7646 167.478C16.4249 167.391 16.1185 167.128 15.7988 166.939C16.1252 166.764 16.4382 166.516 16.7779 166.443C16.9044 166.414 17.1043 166.8 17.2708 166.99L17.2774 166.997Z" fill="#FFC502"/>
<path id="Vector_205" d="M42.0603 120.237C42.0336 120.499 42.0603 120.754 42.1402 121.002C41.6673 121.351 41.4609 122.335 40.6749 121.883C40.4618 121.759 40.3353 121.075 40.4418 120.754C40.7349 119.872 41.4542 120.171 42.0603 120.229V120.237Z" fill="#FFC502"/>
<path id="Vector_206" d="M175.312 36.2831C175.193 36.152 175.067 36.0281 174.948 35.897C175.02 35.9188 175.127 35.9115 175.166 35.9698C175.233 36.0573 175.259 36.1884 175.299 36.2977L175.312 36.2831Z" fill="#FFC502"/>
<path id="Vector_207" d="M126.5 290.475C126.513 291.043 126.753 291.692 126.114 292.027C126.02 292.078 125.647 291.772 125.607 291.575C125.448 290.788 125.934 290.577 126.52 290.49L126.5 290.468V290.475Z" fill="#FFC502"/>
<path id="Vector_208" d="M127.346 294.075L126.953 294.09L126.56 294.075C126.64 293.572 126.906 293.288 127.359 293.193C127.379 293.485 127.379 293.776 127.359 294.068L127.346 294.075Z" fill="#FFC502"/>
<path id="Vector_209" d="M97.614 296.8C97.5807 296.508 97.574 296.224 97.6073 295.933C97.9537 295.94 98.3133 296.005 98.1935 296.508C98.1602 296.647 97.8138 296.705 97.614 296.8Z" fill="#FFC502"/>
<path id="Vector_210" d="M103.348 161.117C103.282 160.658 103.388 160.294 103.835 160.177C103.915 160.155 104.141 160.352 104.134 160.425C104.088 160.913 103.761 161.08 103.362 161.124H103.342L103.348 161.117Z" fill="#FFC502"/>
<path id="Vector_211" d="M153.854 32.6617C153.98 32.516 154.113 32.363 154.239 32.2173C154.219 32.312 154.226 32.4431 154.173 32.4941C154.086 32.5743 153.954 32.6034 153.841 32.6544L153.854 32.669V32.6617Z" fill="#FFC502"/>
<path id="Vector_212" d="M18.1564 170.078C18.0699 169.809 18.0765 169.546 18.1698 169.277C19.1821 169.423 18.9024 170.166 18.7692 170.836L18.4628 170.858L18.1564 170.836C18.1365 170.581 18.1365 170.326 18.1564 170.071V170.078Z" fill="#FFC502"/>
<path id="Vector_213" d="M17.3837 244.962C17.9365 245.064 18.3828 245.297 18.2096 246.033C18.163 246.215 17.8033 246.499 17.7301 246.448C17.1639 246.084 17.4104 245.464 17.4037 244.925L17.3837 244.954V244.962Z" fill="#FFC502"/>
<path id="Vector_214" d="M172.057 248.524C172.317 247.912 172.576 247.3 172.83 246.688C173.402 246.885 173.829 247.308 173.689 247.978C173.462 249.093 172.663 248.554 172.05 248.532L172.057 248.524Z" fill="#FFC502"/>
<path id="Vector_215" d="M152.047 243.467C152.001 243.576 151.954 243.686 151.901 243.788C151.768 243.678 151.629 243.562 151.496 243.452C151.589 243.343 151.682 243.241 151.775 243.132C151.861 243.241 151.954 243.358 152.04 243.467H152.047Z" fill="#FFC502"/>
<path id="Vector_216" d="M194.001 253.923C193.915 253.872 193.822 253.814 193.736 253.755C193.836 253.61 193.929 253.457 194.028 253.311C194.114 253.42 194.274 253.53 194.267 253.632C194.267 253.734 194.094 253.828 194.001 253.923Z" fill="#FFC502"/>
<path id="Vector_217" d="M38.8367 182.938C38.3239 182.917 37.8177 182.887 37.3048 182.866C37.2715 182.188 36.9252 181.255 37.9043 181.161C39.1498 181.037 38.9832 182.05 38.8367 182.938Z" fill="#FFC502"/>
<path id="Vector_218" d="M97.5787 124.681C97.5853 124.994 97.5919 125.3 97.5986 125.614C96.8156 125.33 96.7891 125.016 97.5787 124.681Z" fill="#FFC502"/>
<path id="Vector_219" d="M98.3871 126.466L97.9941 126.488H97.6012C97.5945 126.175 97.5812 125.869 97.5679 125.562C98.0474 125.643 98.3072 125.949 98.3804 126.466H98.3871Z" fill="#FFC502"/>
<path id="Vector_220" d="M378.8 325.068C379.08 325.068 379.353 325.068 379.633 325.068C379.626 325.673 379.619 326.271 379.613 326.875L377.974 326.897C378.254 326.292 378.527 325.68 378.807 325.068H378.8Z" fill="#FFC502"/>
<path id="Vector_221" d="M22.359 328.667C22.3124 328.391 22.3058 328.106 22.3524 327.83C22.5722 327.968 22.7853 328.106 23.0051 328.245C22.792 328.383 22.5788 328.529 22.3657 328.667H22.359Z" fill="#FFC502"/>
<path id="Vector_222" d="M322.594 284.946C322.654 284.436 322.9 284.13 323.38 284.079C323.327 284.596 323.067 284.887 322.594 284.946Z" fill="#FFC502"/>
<path id="Vector_223" d="M127.372 332.346C127.472 332.084 127.565 331.829 127.665 331.567C127.785 331.705 127.912 331.851 128.038 331.989C127.819 332.106 127.592 332.223 127.372 332.346Z" fill="#FFC502"/>
<path id="Vector_224" d="M134.972 215.95C135.132 216.023 135.291 216.03 135.458 215.964C135.438 216.62 136.097 217.625 134.772 217.625C134.839 217.064 134.905 216.503 134.978 215.942L134.972 215.95Z" fill="#FFC502"/>
<path id="Vector_225" d="M17.1507 176.38C16.6911 176.453 16.418 176.73 16.3448 177.24C14.4266 176.133 16.3714 175.695 16.6645 174.967C17.2306 175.273 17.0041 175.907 17.1507 176.38Z" fill="#FFC502"/>
<path id="Vector_226" d="M60.3696 304.121C60.2763 304.601 60.0166 304.907 59.5703 305.002C59.6569 304.507 59.9167 304.208 60.3696 304.121Z" fill="#FFC502"/>
<path id="Vector_227" d="M158.829 112.849C158.536 113.14 158.25 113.432 157.957 113.723C157.351 113.694 156.738 113.687 156.452 112.929C156.678 112.587 156.911 112.251 157.138 111.909C157.877 111.843 158.843 111.268 158.829 112.849Z" fill="#FFC502"/>
<path id="Vector_228" d="M2.48493 170.225C1.97875 170.174 1.47256 170.115 0.959717 170.064C0.979698 169.583 0.999676 169.095 1.01966 168.614C2.26514 168.323 2.93783 168.651 2.47827 170.232L2.48493 170.225Z" fill="#FFC502"/>
<path id="Vector_229" d="M115.737 170.173L115.357 170.224L114.978 170.202C114.991 169.838 115.004 169.423 115.471 169.532C115.597 169.561 115.65 169.947 115.737 170.173Z" fill="#FFC502"/>
<path id="Vector_230" d="M313.429 350.539L313.036 350.568L312.643 350.546C312.676 350.167 312.65 349.694 313.163 349.817C313.289 349.847 313.336 350.284 313.422 350.531L313.429 350.539Z" fill="#FFC502"/>
<path id="Vector_231" d="M182.747 54.7307C182.473 54.7161 182.207 54.6505 181.947 54.5412C181.961 53.9365 181.981 53.3391 181.994 52.7344C182.933 53.0841 182.707 53.9657 182.747 54.7307Z" fill="#FFC502"/>
<path id="Vector_232" d="M170.312 37.2662C170.505 37.0695 170.591 36.8218 170.571 36.5303C170.824 36.5741 171.031 36.4866 171.184 36.2681C171.67 36.3774 172.057 36.5886 172.03 37.2371C171.457 37.2444 170.878 37.2589 170.305 37.2735L170.312 37.2662Z" fill="#FFC502"/>
<path id="Vector_233" d="M169.519 37.1947C169.819 37.1947 170.112 37.1875 170.412 37.1802C170.525 37.967 170.232 38.3095 169.506 38.1929C169.506 37.8577 169.513 37.5299 169.519 37.1947Z" fill="#FFC502"/>
<path id="Vector_234" d="M169.566 39.0813C169.286 39.0886 169 39.1031 168.72 39.1177C168.72 38.7971 168.72 38.4766 168.72 38.1487C169.006 38.1341 169.286 38.1196 169.572 38.105C169.572 38.4328 169.566 38.7607 169.566 39.0813Z" fill="#FFC502"/>
<path id="Vector_235" d="M217.467 32.3494C217.554 32.1527 217.567 31.9487 217.521 31.7447C217.894 31.701 218.326 31.8831 218.273 32.2328C218.213 32.6044 217.78 32.6044 217.467 32.3494Z" fill="#FFC502"/>
<path id="Vector_236" d="M148.053 149.278C148.319 149.256 148.586 149.256 148.852 149.278C148.586 150.065 148.319 150.072 148.053 149.278Z" fill="#FFC502"/>
<path id="Vector_237" d="M191.812 317.702L191.459 317.746C191.459 317.746 191.099 317.724 191.106 317.724C191.119 317.156 191.139 316.58 191.152 316.012C191.365 315.983 191.572 315.976 191.785 316.012C191.792 316.573 191.805 317.141 191.812 317.702Z" fill="#FFC502"/>
<path id="Vector_238" d="M91.7731 64.5811C91.8131 65.2076 91.7065 65.7613 91.1604 66.0965C91.0738 65.4481 90.5543 64.5883 91.7731 64.5811Z" fill="#FFC502"/>
<path id="Vector_239" d="M258.894 170.188C258.967 170.953 259.174 171.791 258.115 171.951C258.061 171.193 257.555 170.195 258.894 170.188Z" fill="#FFC502"/>
<path id="Vector_240" d="M18.1566 170.079C18.1366 170.334 18.1366 170.589 18.1566 170.844C17.5038 171.223 17.4239 170.721 17.344 170.203C17.6037 170.087 17.8768 170.05 18.1566 170.079Z" fill="#FFC502"/>
<path id="Vector_241" d="M27.2614 193.925C27.3812 194.734 26.7352 195.127 26.4621 195.717C25.876 195.601 25.1567 195.805 24.9236 194.901C25.5896 194.245 26.2357 193.539 27.2614 193.932V193.925Z" fill="#FFC502"/>
<path id="Vector_242" d="M145.549 325.971H145.149H144.749C144.729 325.672 144.729 325.381 144.743 325.082C145.189 325.184 145.462 325.483 145.555 325.978L145.549 325.971Z" fill="#FFC502"/>
<path id="Vector_243" d="M235.703 38.1267C235.19 38.0902 234.937 37.7769 234.89 37.2378C235.403 37.2669 235.656 37.5875 235.703 38.1267Z" fill="#FFC502"/>
<path id="Vector_244" d="M59.5837 295.051C59.8368 295 60.0833 295 60.3364 295.051C60.2631 295.554 60.1965 296.056 60.1232 296.559H59.7702C59.7103 296.064 59.6503 295.561 59.5837 295.058V295.051Z" fill="#FFC502"/>
<path id="Vector_245" d="M193.53 221.225H193.117H192.704C192.704 220.919 192.704 220.62 192.704 220.314C192.977 220.314 193.257 220.314 193.53 220.314C193.53 220.62 193.53 220.919 193.53 221.225Z" fill="#FFC502"/>
</g>
</g>
</g>
</g>
<path id="Vector 133 (Stroke)" fill-rule="evenodd" clip-rule="evenodd" d="M142 19L196 19L196 16L142 16L142 19Z" fill="url(#paint3_linear_3550_12121)"/>
<path id="Vector 132 (Stroke)" fill-rule="evenodd" clip-rule="evenodd" d="M251 19L198 19L198 16L251 16L251 19Z" fill="url(#paint4_linear_3550_12121)"/>
<g id="Group 214">
<path id="Vector 304" d="M206 16.9999L197 0L188 16.9999L197 31L206 16.9999Z" fill="#AB750F"/>
<path id="Vector 301" d="M188 16.9999L197 0V31L188 16.9999Z" fill="#D8A956"/>
<path id="Vector 305" d="M197 0L188 17L197 3L206 17L197 0Z" fill="white" fill-opacity="0.5"/>
</g>
<g id="Group 420">
<path id="Vector 305_2" d="M10 9L0 20V4H134L143 17L134 9H10Z" fill="#CB9A40"/>
<path id="Vector 305 (Stroke)" fill-rule="evenodd" clip-rule="evenodd" d="M9.15527e-05 19.9999L0 4H134L143 17L133.24 11H10.8848L9.15527e-05 19.9999ZM10.0001 9H134L143 17L134 4H0L9.15527e-05 19.9999L10.0001 9Z" fill="#AB750F"/>
</g>
<g id="Group 421">
<path id="Vector 305_3" d="M384 9L394 20V4H260L251 17L260 9H384Z" fill="#CB9A40"/>
<path id="Vector 305 (Stroke)_2" fill-rule="evenodd" clip-rule="evenodd" d="M394 19.9999L394 4H260L251 17L260.76 11H383.115L394 19.9999ZM384 9H260L251 17L260 4H394L394 19.9999L384 9Z" fill="#AB750F"/>
</g>
<g id="Group 419">
<path id="Rectangle 293" d="M394 354H275L266 359.958H197V368H394V354Z" fill="url(#paint5_linear_3550_12121)"/>
<g id="Group 422">
<path id="Rectangle 292_3" d="M0 354H119L128 359.958H197V368H0V354Z" fill="#CB9A40"/>
<path id="Rectangle 292 (Stroke)" fill-rule="evenodd" clip-rule="evenodd" d="M128 359.958L119 354H0V368H197V359.958H128ZM195 361.958H127.398L118.398 356L0 354V368H197L195 361.958Z" fill="#AB750F"/>
</g>
<g id="Group 423">
<path id="Rectangle 292_4" d="M394 354H275L266 359.958H197V368H394V354Z" fill="#CB9A40"/>
<path id="Rectangle 292 (Stroke)_2" fill-rule="evenodd" clip-rule="evenodd" d="M266 359.958L275 354H394V368H197V359.958H266ZM199 361.958H266.602L275.602 356L394 354V368H197L199 361.958Z" fill="#AB750F"/>
</g>
<g id="Group 215">
<path id="Vector 304_2" d="M206 365L197 348L188 365L197 379L206 365Z" fill="#AB750F"/>
<path id="Vector 301_2" d="M188 365L197 348V379L188 365Z" fill="#D8A956"/>
<path id="Vector 305_4" d="M197 348L188 365L197 351L206 365L197 348Z" fill="white" fill-opacity="0.5"/>
</g>
</g>
</g>
<defs>
<filter id="filter0_f_3550_12121" x="-184.219" y="116.781" width="761.438" height="483.438" filterUnits="userSpaceOnUse" color-interpolation-filters="sRGB">
<feFlood flood-opacity="0" result="BackgroundImageFix"/>
<feBlend mode="normal" in="SourceGraphic" in2="BackgroundImageFix" result="shape"/>
<feGaussianBlur stdDeviation="92.1094" result="effect1_foregroundBlur_3550_12121"/>
</filter>
<linearGradient id="paint0_linear_3550_12121" x1="255.096" y1="12.0909" x2="236.143" y2="12.7749" gradientUnits="userSpaceOnUse">
<stop stop-color="#AB750F"/>
<stop offset="1" stop-color="#CB9A40"/>
</linearGradient>
<linearGradient id="paint1_linear_3550_12121" x1="138.904" y1="12.0909" x2="157.857" y2="12.7749" gradientUnits="userSpaceOnUse">
<stop stop-color="#AB750F"/>
<stop offset="1" stop-color="#CB9A40"/>
</linearGradient>
<linearGradient id="paint2_linear_3550_12121" x1="196.5" y1="301" x2="196.5" y2="332.963" gradientUnits="userSpaceOnUse">
<stop stop-color="#AB750F"/>
<stop offset="1" stop-color="#D8A956"/>
</linearGradient>
<linearGradient id="paint3_linear_3550_12121" x1="196" y1="18.1106" x2="142" y2="18.1106" gradientUnits="userSpaceOnUse">
<stop stop-color="#AB750F"/>
<stop offset="1" stop-color="#AB750F" stop-opacity="0"/>
</linearGradient>
<linearGradient id="paint4_linear_3550_12121" x1="198" y1="18.1106" x2="251" y2="18.1106" gradientUnits="userSpaceOnUse">
<stop stop-color="#AB750F"/>
<stop offset="1" stop-color="#AB750F" stop-opacity="0"/>
</linearGradient>
<linearGradient id="paint5_linear_3550_12121" x1="224.519" y1="360.22" x2="379.262" y2="360.22" gradientUnits="userSpaceOnUse">
<stop stop-color="#D8A956"/>
<stop offset="0.711424" stop-color="#AB750F"/>
</linearGradient>
<clipPath id="clip0_3550_12121">
<rect width="394" height="379" fill="white"/>
</clipPath>
</defs>
</svg>
