<svg width="185" height="26" viewBox="0 0 185 26" fill="none" xmlns="http://www.w3.org/2000/svg">
<g id="rankings-item">
<g clip-path="url(#clip0_3550_10912)">
<mask id="path-1-inside-1_3550_10912" fill="white">
<path d="M0 0H185V26H0V0Z"/>
</mask>
<path id="Union" fill-rule="evenodd" clip-rule="evenodd" d="M136.325 0H0V26H99.1302C136.325 26 136.325 0 136.325 0ZM145 0H140.043C138.803 8.66667 131.615 26 112.778 26C130.748 26 145 11.7 145 0Z" fill="url(#paint0_linear_3550_10912)"/>
<g id="Waves">
<g id="Group" opacity="0.25">
<path id="Vector" d="M186.041 22.3554C185.81 21.0193 185.248 19.8167 184.543 18.653C183.618 17.1229 182.58 15.6771 181.247 14.4377C180.988 14.1968 180.713 13.9688 180.432 13.7509C179.188 12.7893 178.215 11.6011 177.267 10.3876C176.763 9.7441 176.241 9.11285 175.716 8.48593C175.297 7.9867 174.817 7.54374 174.222 7.23785C172.955 6.58713 171.865 5.71708 170.808 4.80303C169.479 3.6538 168.165 2.48652 166.808 1.36686C165.078 -0.060843 163.217 -1.32407 161.259 -2.45743C159.765 -3.32242 158.359 -4.30357 156.969 -5.31357C155.583 -6.32068 154.122 -7.23618 152.678 -8.1697C151.268 -9.08231 149.881 -10.0223 148.561 -11.0518C147.466 -11.9053 146.282 -12.6058 145.028 -13.1865C144.608 -12.4334 144.038 -11.875 143.431 -11.4616C144.857 -10.8072 146.203 -10.0173 147.421 -9.02171C148.365 -8.24978 149.412 -7.61853 150.509 -7.0587C151.133 -6.73983 151.763 -6.42745 152.364 -6.07251C153.553 -5.37056 154.748 -4.67366 155.898 -3.914C157.37 -2.94007 158.929 -2.10754 160.505 -1.30531C162.832 -0.121444 164.942 1.32863 166.752 3.15745C167.79 4.20713 168.989 5.08583 170.108 6.04966C171.47 7.22415 172.838 8.40296 174.087 9.68205C174.912 10.5268 175.528 11.5549 176.244 12.4971C176.983 13.4724 177.7 14.4651 178.486 15.4059C178.87 15.8654 179.357 16.2615 179.85 16.6222C181.265 17.6589 182.267 19.0022 183.132 20.4602C183.737 21.4789 184.112 22.5646 184.314 23.7138C184.648 25.6155 185.218 27.4573 185.87 29.2811C185.939 29.473 186.002 29.6678 186.062 29.8633L188.09 29.8633C188.045 29.683 187.996 29.5033 187.944 29.3251C187.518 27.883 187.014 26.4625 186.602 25.0175C186.354 24.146 186.195 23.2492 186.041 22.3561L186.041 22.3554Z" fill="url(#paint1_linear_3550_10912)"/>
<path id="Vector_2" d="M164.08 28.7714C164.308 27.7953 164.867 27.2692 165.699 27.2351C166.424 27.2053 167.086 27.484 167.728 27.8548C168.144 28.0958 168.547 28.3715 168.964 28.6088C169.152 28.7162 169.358 28.7924 169.563 28.8411C169.933 28.9281 170.186 28.7489 170.328 28.3142C170.507 27.7677 170.51 27.1937 170.467 26.6204C170.366 25.2568 170.044 23.9693 169.436 22.8234C168.484 21.0302 167.748 19.1085 167.056 17.1542C166.719 16.2013 166.361 15.2542 165.949 14.3478C165.432 13.2092 164.67 12.3042 163.905 11.413C163.147 10.5291 162.357 9.68438 161.625 8.76998C161.19 8.22642 160.822 7.59723 160.454 6.98037C159.702 5.72343 158.919 4.49988 158.055 3.35616C157.161 2.17397 156.063 1.33504 154.928 0.554897C153.172 -0.651966 151.422 -1.86899 149.669 -3.08093C148.855 -3.64336 148.137 -4.36109 147.455 -5.13615C146.628 -6.07595 145.708 -6.84303 144.677 -7.40909C144.147 -7.7001 143.637 -8.03611 143.142 -8.40332L142.633 -5.45547C142.661 -5.43297 142.689 -5.41047 142.718 -5.3887C143.367 -4.88215 144.046 -4.43439 144.697 -3.93074C145.48 -3.32477 146.143 -2.53664 146.817 -1.76521C147.841 -0.59173 149.013 0.340812 150.161 1.31399C150.913 1.9519 151.668 2.58617 152.396 3.26399C153.421 4.21758 154.157 5.47524 154.777 6.83958C155.751 8.98625 156.535 11.2381 157.215 13.5459C157.273 13.7419 157.307 13.9487 157.348 14.1519C157.471 14.7789 157.378 15.3551 157.119 15.919C156.734 16.7536 156.381 17.6106 156.016 18.459C155.468 19.7312 155.302 21.0774 155.504 22.4925C155.734 24.1065 156.017 25.7024 156.527 27.2264C156.859 28.2177 157.31 29.1234 157.802 30L163.951 30C163.948 29.5907 163.985 29.1814 164.081 28.7714L164.08 28.7714Z" fill="url(#paint2_linear_3550_10912)"/>
<path id="Vector_3" d="M140 26.5C145.13 26.904 145.719 29.8632 145.719 29.8632L148.986 29.8632C148.781 29.5926 148.568 29.3257 148.35 29.0609C146.45 26.7581 144.579 24.433 142.711 22.1056C141.833 21.0119 141.135 19.8209 140.882 18.448C140.754 17.7561 140.706 17.0499 140.652 16.3479C140.556 15.1099 140.464 13.8712 140.406 12.6311C140.349 11.4003 140.172 10.1826 139.823 9.00376C139.424 7.65685 138.967 6.31932 138.435 5.01498C138.109 4.21491 137.619 3.56274 136.998 3.04981L136 7.52772L140 26.5Z" fill="url(#paint3_linear_3550_10912)"/>
<path id="Vector_4" d="M182.872 24.8017C182.55 22.825 181.711 21.0784 180.334 19.5677C180.098 19.308 179.834 19.062 179.544 18.8578C178.214 17.9207 177.194 16.7289 176.294 15.4231C175.388 14.1079 174.451 12.8115 173.509 11.5195C172.325 9.89407 170.878 8.48512 169.359 7.14904C167.883 5.85191 166.407 4.56055 165.057 3.14078C163.65 1.66113 161.976 0.49674 160.12 -0.421639C157.858 -1.5413 155.667 -2.77133 153.529 -4.09371C152.32 -4.84111 151.064 -5.52142 149.801 -6.18225C148.462 -6.88276 147.27 -7.77084 146.048 -8.63006C144.862 -9.46475 143.626 -10.2122 142.34 -10.8687C141.09 -10.3362 139.974 -10.2865 139.974 -10.2865L139.744 -9.25698C140.528 -8.79526 141.335 -8.36529 142.158 -7.97284C143.518 -7.32355 144.778 -6.54874 145.897 -5.56687C146.916 -4.67302 148.087 -3.99127 149.291 -3.35136C151.801 -2.01672 154.298 -0.656102 156.819 0.661227C158.557 1.57023 160.005 2.78295 161.232 4.25106C162.209 5.41905 163.135 6.63033 164.183 7.73772C165.02 8.62292 165.997 9.3898 166.929 10.192C167.981 11.0974 169.085 11.9624 169.853 13.1124C170.449 14.0041 170.968 14.9434 171.497 15.874C172.038 16.8256 172.558 17.7887 173.073 18.7532C173.857 20.2192 174.884 21.5322 175.88 22.8675C176.587 23.8155 177.308 24.7627 177.728 25.8694C178.218 27.1615 178.521 28.4961 178.627 29.8639L184.046 29.8639C184.041 29.8495 184.036 29.8344 184.031 29.8199C183.446 28.1895 183.148 26.497 182.872 24.8031L182.872 24.8017Z" fill="url(#paint4_linear_3550_10912)"/>
<path id="Vector_5" d="M155.043 26.9009C154.487 25.5771 153.931 24.2525 153.415 22.9143C152.718 21.1071 152.769 19.2812 153.391 17.466C153.783 16.3226 154.003 15.1452 154.09 13.9563C154.135 13.3474 154.022 12.7003 153.84 12.1094C153.322 10.4278 152.744 8.762 152.167 7.09694C151.84 6.15187 151.283 5.328 150.505 4.65923C149.93 4.16505 149.327 3.69829 148.717 3.24307C147.443 2.29222 146.142 1.37457 144.881 0.408573C144.325 -0.0177912 143.825 -0.514133 143.324 -1.00182C142.24 -2.05799 140.998 -2.90423 139.604 -3.54919C139.256 -3.71006 138.919 -3.88537 138.587 -4.06934L137.724 -0.202477C137.755 -0.190934 137.784 -0.180112 137.815 -0.16857C139.026 0.286652 140.036 1.01385 140.866 1.95892C141.987 3.23658 143.003 4.58493 143.801 6.07107C144.325 7.04572 144.618 8.07736 144.714 9.17321C144.829 10.4942 144.764 11.818 144.822 13.1367C144.896 14.8379 144.901 16.5527 145.362 18.2199C145.747 19.613 146.37 20.9195 146.965 22.2376C147.805 24.1003 148.967 25.7618 150.39 27.2602C151.157 28.0674 151.797 28.9396 152.34 29.8624L156.65 29.8624C156.038 28.9144 155.48 27.9369 155.044 26.9002L155.043 26.9009Z" fill="url(#paint5_linear_3550_10912)"/>
<path id="Vector_6" d="M190.815 20.2556C190.462 18.2349 189.759 16.3281 188.584 14.5982C187.729 13.3378 186.818 12.1114 185.986 10.8373C185.099 9.47817 183.874 8.49919 182.366 7.8564C180.78 7.1797 179.336 6.31254 178.013 5.24915C177.185 4.58327 176.285 4.01912 175.315 3.55452C174.984 3.3958 174.661 3.21905 174.344 3.03653C172.841 2.17154 171.531 1.06559 170.211 -0.0201622C168.224 -1.65708 166.156 -3.18651 163.976 -4.58464C162.732 -5.38254 161.47 -6.17612 160.338 -7.10604C158.428 -8.67587 156.528 -10.2544 154.526 -11.7181C153.013 -12.8248 151.511 -13.9459 149.929 -14.9624C148.596 -14.9602 147.518 -14.9581 146.776 -14.9566C148.234 -14.2352 149.612 -13.3998 150.911 -12.4201C152.801 -10.9938 154.768 -9.65918 156.674 -8.25095C157.793 -7.42419 158.823 -6.48777 159.957 -5.67977C161.279 -4.73687 162.665 -3.87476 164.031 -2.98812C166.766 -1.21196 169.185 0.927796 171.648 3.01489C172.734 3.93399 173.886 4.73405 175.21 5.32346C175.783 5.57813 176.314 5.94389 176.81 6.32336C177.354 6.73963 177.856 7.21072 178.341 7.69047C179.468 8.80508 180.746 9.72706 182.159 10.4867C182.827 10.846 183.427 11.2926 183.881 11.8841C184.87 13.1741 185.866 14.4589 186.811 15.7777C187.986 17.4182 188.737 19.224 189.006 21.2043C189.142 22.2049 189.257 23.2156 189.503 24.1946C189.901 25.7825 190.392 27.3501 190.859 28.9221C190.886 29.0152 190.913 29.1083 190.938 29.2013C191.046 27.6618 191.353 26.2305 191.779 24.9232C191.401 23.3794 191.087 21.8225 190.813 20.2556L190.815 20.2556Z" fill="url(#paint6_linear_3550_10912)"/>
<path id="Vector_7" d="M159.69 -9.0322C161.32 -7.68313 163.037 -6.4668 164.844 -5.34858C166.06 -4.59613 167.247 -3.80184 168.422 -2.9924C169.816 -2.03217 171.17 -1.01857 172.564 -0.0590664C174.218 1.07935 176.161 1.69617 177.956 2.58209C178.024 2.61527 178.109 2.61816 178.186 2.63547C178.202 2.61311 178.218 2.59074 178.234 2.56766C178.087 2.42265 177.959 2.25383 177.789 2.13696C177.141 1.68968 176.513 1.20488 175.819 0.831177C173.568 -0.379381 171.528 -1.86697 169.519 -3.39856C168.334 -4.30179 167.185 -5.2483 165.975 -6.11907C164.171 -7.41836 162.368 -8.71116 160.827 -10.3055C159.452 -11.7289 158.027 -13.1097 156.646 -14.5288C156.503 -14.6752 156.363 -14.8231 156.227 -14.9746C154.679 -14.9724 153.236 -14.9696 151.944 -14.9674C152.377 -14.6615 152.807 -14.3513 153.231 -14.0339C155.412 -12.3998 157.597 -10.7658 159.69 -9.03364L159.69 -9.0322Z" fill="url(#paint7_linear_3550_10912)"/>
<path id="Vector_8" d="M199.62 2.46451C198.564 2.06123 197.508 1.65867 196.442 1.28136C195.859 1.07503 195.256 0.915599 194.659 0.743899C193.419 0.38607 192.326 -0.258167 191.198 -0.834588C189.372 -1.7674 187.777 -3.01042 186.175 -4.23829C184.245 -5.71794 182.385 -7.28344 180.425 -8.72558C178.611 -10.0602 176.71 -11.2953 174.654 -12.2786C173.776 -12.6985 172.844 -13.0246 171.913 -13.329C171.004 -13.6262 170.122 -13.9588 169.362 -14.5259C169.122 -14.7048 168.873 -14.8577 168.616 -14.9897C166.756 -14.9876 164.893 -14.9854 163.077 -14.9825C163.052 -14.8447 163.049 -14.6932 163.071 -14.5288C163.156 -13.8607 163.445 -13.2684 163.807 -12.7028C164.45 -11.6957 165.325 -10.8899 166.249 -10.1179C167.51 -9.06393 168.743 -7.97962 169.982 -6.90181C171.127 -5.90551 172.201 -4.82481 173.509 -4.01825C174.369 -3.48728 175.291 -3.04 176.209 -2.60137C179.034 -1.25302 181.7 0.320421 184.115 2.26828C184.501 2.57921 184.916 2.85697 185.322 3.14554C185.964 3.60292 186.49 4.15914 186.927 4.79833C187.746 5.99518 188.531 7.20429 189.135 8.5209C189.588 9.50926 190.282 10.3706 191.02 11.1895C192.118 12.4065 193.061 13.7188 193.829 15.1487C194.189 15.8189 194.584 16.4768 195.018 17.1066C195.233 17.4183 195.43 17.7364 195.612 18.0596C195.808 17.823 195.995 17.6066 196.169 17.4125C194.783 15.1032 193.36 12.8156 191.421 10.8576C190.329 9.75455 189.588 8.43722 188.942 7.05352C188.334 5.75206 187.639 4.47441 186.711 3.34754C186.258 2.79853 185.655 2.3599 185.112 1.88015C183.448 0.41132 181.775 -1.04669 180.118 -2.52273C179.751 -2.85026 179.423 -3.22324 179.106 -3.59694C178.968 -3.75998 178.878 -3.97064 178.81 -4.17336C178.745 -4.37103 178.854 -4.54634 179.072 -4.56149C179.352 -4.58169 179.647 -4.58241 179.919 -4.52109C180.986 -4.28013 181.929 -3.77153 182.818 -3.18572C184.206 -2.27167 185.561 -1.31362 186.941 -0.389465C187.83 0.206435 188.744 0.769871 189.638 1.36C189.936 1.55623 190.216 1.77915 190.488 2.0064C191.356 2.7336 192.392 3.05319 193.521 3.13327C195.546 3.27684 197.535 3.60725 199.501 4.08772C199.913 4.18872 200.297 4.33229 200.661 4.51264C200.486 3.82007 200.256 3.18954 200 2.62322C199.875 2.56767 199.748 2.51429 199.619 2.46451L199.62 2.46451Z" fill="url(#paint8_linear_3550_10912)"/>
<path id="Vector_9" d="M186.03 6.29333C186.613 7.04001 187.262 7.74124 187.67 8.5983C188.25 9.81679 189.005 10.935 189.822 12.0186C190.725 13.2147 191.522 14.465 192.07 15.8508C192.402 16.6906 192.738 17.5303 193.121 18.3499C193.427 19.0056 193.708 19.6679 193.957 20.3396C194.122 20.0791 194.287 19.8302 194.452 19.5922C194.204 19.0143 193.926 18.4458 193.62 17.8853C193.155 17.034 192.781 16.1372 192.383 15.2542C191.797 13.9542 190.987 12.7855 190.097 11.6615C189.243 10.5808 188.543 9.41712 187.917 8.20295C187.554 7.49667 187.042 6.85677 186.572 6.20315C186.269 5.78039 185.963 5.34321 185.577 4.99332C185.069 4.5316 184.503 4.11678 183.921 3.73947C182.331 2.70999 180.74 1.67979 179.109 0.712356C178.074 0.0984197 176.974 -0.42101 175.887 -0.951981C173.858 -1.94322 171.999 -3.17543 170.225 -4.52738C168.954 -5.49482 167.709 -6.49183 166.446 -7.46865C165.374 -8.29829 164.247 -9.07094 163.231 -9.95758C162.314 -10.7576 161.485 -11.6544 160.673 -12.5533C159.971 -13.3288 159.309 -14.1411 158.687 -14.9766C158.242 -14.9766 157.803 -14.9751 157.371 -14.9744C157.496 -14.8229 157.625 -14.6743 157.757 -14.5286C158.673 -13.5229 159.638 -12.5576 160.569 -11.5635C161.913 -10.1264 163.38 -8.81989 165.003 -7.66776C166.247 -6.78473 167.493 -5.90026 168.681 -4.95303C170.593 -3.42865 172.592 -2.02547 174.744 -0.824288C175.878 -0.190873 177.067 0.35597 178.19 1.00526C179.956 2.02536 181.675 3.12121 183.442 4.14059C184.446 4.71917 185.329 5.39299 186.032 6.29333L186.03 6.29333Z" fill="url(#paint9_linear_3550_10912)"/>
<path id="Vector_10" d="M183.819 -7.84022C181.634 -9.48363 179.428 -11.0946 177.107 -12.5627C175.675 -13.4688 174.211 -14.3165 172.651 -14.9946C172.168 -14.9946 171.682 -14.9939 171.194 -14.9932C171.455 -14.8871 171.72 -14.7876 171.988 -14.6916C174 -13.976 175.799 -12.8873 177.582 -11.7612C179.9 -10.2974 182.025 -8.60277 184.192 -6.95575C186.197 -5.43281 188.231 -3.93729 190.438 -2.68777C192.467 -1.53854 194.579 -0.53647 196.878 0.0666445C197.556 0.244116 198.223 0.456937 198.889 0.671923C198.552 0.193616 198.242 -0.172149 198.018 -0.415992C195.862 -0.952735 193.832 -1.80474 191.875 -2.81402C189.045 -4.27347 186.345 -5.93997 183.819 -7.84022L183.819 -7.84022Z" fill="url(#paint10_linear_3550_10912)"/>
<path id="Vector_11" d="M191.047 11.9683C189.963 10.6791 188.992 9.33073 188.302 7.80419C187.783 6.65423 186.943 5.68607 186.202 4.66453C186.013 4.40409 185.768 4.16746 185.508 3.96907C184.85 3.46768 184.16 3.00452 183.499 2.50746C181.534 1.02997 179.459 -0.280864 177.216 -1.35146C176.161 -1.85502 175.114 -2.37589 174.088 -2.92923C172.573 -3.74589 171.311 -4.88142 169.993 -5.94408C168.571 -7.08971 167.157 -8.24472 165.711 -9.36149C164.246 -10.4934 162.949 -11.7653 161.897 -13.2558C161.515 -13.7976 161.176 -14.3596 160.977 -14.98C160.533 -14.98 160.093 -14.9785 159.659 -14.9778C159.829 -14.6561 160.034 -14.3495 160.255 -14.0522C161.741 -12.0503 163.432 -10.2229 165.514 -8.75693C167.014 -7.70076 168.437 -6.55802 169.841 -5.39219C172.046 -3.5612 174.464 -2.04187 177.111 -0.842136C179.268 0.1354 181.235 1.40512 183.146 2.75924C183.537 3.03699 183.932 3.31401 184.343 3.56579C185.313 4.15881 186.036 4.9632 186.696 5.85272C187.425 6.83315 188.024 7.87056 188.595 8.93755C189.074 9.83213 189.662 10.6885 190.305 11.4871C191.466 12.9307 192.417 14.4745 193.16 16.1475C193.507 16.9281 193.941 17.6755 194.367 18.4215C194.506 18.6653 194.635 18.912 194.757 19.1616C194.866 19.0109 194.975 18.8651 195.083 18.7245C194.997 18.5614 194.909 18.3998 194.815 18.2397C194.268 17.3011 193.709 16.3647 193.227 15.3951C192.622 14.178 191.929 13.018 191.046 11.9676L191.047 11.9683Z" fill="url(#paint11_linear_3550_10912)"/>
<path id="Vector_12" d="M187.782 -3.9411C185.428 -5.63718 183.174 -7.45086 180.852 -9.18373C178.624 -10.8473 176.31 -12.415 173.742 -13.5931C172.97 -13.9473 172.163 -14.2395 171.36 -14.5266C170.982 -14.6623 170.615 -14.813 170.264 -14.9927C170.018 -14.9927 169.771 -14.9927 169.524 -14.992C170.203 -14.5504 170.935 -14.2114 171.724 -13.9661C173.066 -13.5491 174.354 -13.0023 175.558 -12.301C178.224 -10.7485 180.75 -9.01491 183.119 -7.0685C185.181 -5.37458 187.309 -3.74776 189.576 -2.30707C191.563 -1.04385 193.678 -0.00354621 195.996 0.643576C197.167 0.970383 198.306 1.40324 199.445 1.82311C199.511 1.84764 199.577 1.87217 199.644 1.8967C199.535 1.69398 199.425 1.50208 199.315 1.32172C199.063 1.23587 198.81 1.15218 198.558 1.06778C197.215 0.616883 195.835 0.254004 194.525 -0.266867C192.121 -1.22204 189.869 -2.43981 187.783 -3.94183L187.782 -3.9411Z" fill="url(#paint12_linear_3550_10912)"/>
<path id="Vector_13" d="M140.627 4.24032C141.245 5.40759 141.861 6.57631 142.228 7.84314C142.532 8.89065 142.644 9.96846 142.72 11.0463C142.792 12.0693 142.799 13.0959 142.846 14.1203C142.89 15.0877 142.918 16.058 143.008 17.0219C143.129 18.3161 143.563 19.5296 144.249 20.6514C145.196 22.2046 146.112 23.7795 147.152 25.2757C147.925 26.3882 148.844 27.4162 149.752 28.4378C150.157 28.8944 150.519 29.3706 150.844 29.8633L151.569 29.8633C151.159 29.2046 150.691 28.5748 150.155 27.9782C149.334 27.0649 148.531 26.1306 147.808 25.1466C146.715 23.6576 145.94 21.9932 145.09 20.3729C144.514 19.2756 144.102 18.1221 143.985 16.8963C143.881 15.8048 143.819 14.7083 143.766 13.6131C143.708 12.4213 143.701 11.2266 143.636 10.0348C143.586 9.12295 143.472 8.21539 143.159 7.34319C142.553 5.65793 141.611 4.14293 140.528 2.7044C139.757 1.67997 138.768 0.927518 137.584 0.432618L137.444 1.05882C138.831 1.7485 139.877 2.82416 140.627 4.24104L140.627 4.24032Z" fill="url(#paint13_linear_3550_10912)"/>
<path id="Vector_14" d="M140.127 6.39498C140.629 7.59832 141.029 8.8298 141.174 10.1212C141.279 11.0518 141.351 11.9853 141.414 12.9196C141.494 14.102 141.555 15.2851 141.613 16.469C141.678 17.8116 141.908 19.1203 142.598 20.3099C143.001 21.0032 143.466 21.6647 143.928 22.3256C145.529 24.6176 147.18 26.8735 149.062 28.9714C149.32 29.2599 149.565 29.5572 149.794 29.8638L150.354 29.8638C150.052 29.4331 149.721 29.0168 149.355 28.6193C147.457 26.5582 145.888 24.2806 144.387 21.9548C143.755 20.9765 143.105 20.0112 142.743 18.9038C142.496 18.1507 142.355 17.3795 142.32 16.5917C142.246 14.9107 142.177 13.2298 142.101 11.5489C141.976 8.78002 141.098 6.21895 139.699 3.80866C139.116 2.80515 138.312 2.06857 137.339 1.5376L137.209 2.11907C138.169 2.73373 138.917 3.58285 139.423 4.69674C139.676 5.25512 139.891 5.82938 140.127 6.3957L140.127 6.39498Z" fill="url(#paint14_linear_3550_10912)"/>
</g>
</g>
<path id="Vector 516" d="M5 13L0 9V17L5 13Z" fill="#FFBA38"/>
</g>
<path d="M0 0V-1.2H-1.2V0H0ZM0 26H-1.2V27.2H0V26ZM0 1.2H185V-1.2H0V1.2ZM185 24.8H0V27.2H185V24.8ZM1.2 26V0H-1.2V26H1.2Z" fill="url(#paint15_linear_3550_10912)" mask="url(#path-1-inside-1_3550_10912)"/>
</g>
<defs>
<linearGradient id="paint0_linear_3550_10912" x1="1.23932" y1="2.6" x2="155.675" y2="17.3818" gradientUnits="userSpaceOnUse">
<stop stop-color="#AB750F"/>
<stop offset="1" stop-color="#AB750F" stop-opacity="0"/>
</linearGradient>
<linearGradient id="paint1_linear_3550_10912" x1="116.376" y1="-18.6535" x2="193.414" y2="28.172" gradientUnits="userSpaceOnUse">
<stop stop-color="#070808" stop-opacity="0"/>
<stop offset="1" stop-color="#5C5C5C"/>
</linearGradient>
<linearGradient id="paint2_linear_3550_10912" x1="121.003" y1="-10.1356" x2="188.317" y2="21.5762" gradientUnits="userSpaceOnUse">
<stop stop-color="#070808" stop-opacity="0"/>
<stop offset="1" stop-color="#5C5C5C"/>
</linearGradient>
<linearGradient id="paint3_linear_3550_10912" x1="115.944" y1="2.51811" x2="157.625" y2="27.8526" gradientUnits="userSpaceOnUse">
<stop stop-color="#070808" stop-opacity="0"/>
<stop offset="1" stop-color="#5C5C5C"/>
</linearGradient>
<linearGradient id="paint4_linear_3550_10912" x1="118.428" y1="-13.5747" x2="188.866" y2="29.2392" gradientUnits="userSpaceOnUse">
<stop stop-color="#070808" stop-opacity="0"/>
<stop offset="1" stop-color="#5C5C5C"/>
</linearGradient>
<linearGradient id="paint5_linear_3550_10912" x1="116.152" y1="-3.21589" x2="164.196" y2="25.9861" gradientUnits="userSpaceOnUse">
<stop stop-color="#070808" stop-opacity="0"/>
<stop offset="1" stop-color="#5C5C5C"/>
</linearGradient>
<linearGradient id="paint6_linear_3550_10912" x1="137.375" y1="-11.0104" x2="198.229" y2="25.9773" gradientUnits="userSpaceOnUse">
<stop stop-color="#070808" stop-opacity="0"/>
<stop offset="1" stop-color="#5C5C5C"/>
</linearGradient>
<linearGradient id="paint7_linear_3550_10912" x1="142.523" y1="-19.4785" x2="203.376" y2="17.51" gradientUnits="userSpaceOnUse">
<stop stop-color="#070808" stop-opacity="0"/>
<stop offset="1" stop-color="#5C5C5C"/>
</linearGradient>
<linearGradient id="paint8_linear_3550_10912" x1="160.393" y1="-10.7023" x2="211.237" y2="20.2015" gradientUnits="userSpaceOnUse">
<stop stop-color="#070808" stop-opacity="0"/>
<stop offset="1" stop-color="#5C5C5C"/>
</linearGradient>
<linearGradient id="paint9_linear_3550_10912" x1="151.51" y1="-10.9243" x2="205.399" y2="21.83" gradientUnits="userSpaceOnUse">
<stop stop-color="#070808" stop-opacity="0"/>
<stop offset="1" stop-color="#5C5C5C"/>
</linearGradient>
<linearGradient id="paint10_linear_3550_10912" x1="158.095" y1="-21.7573" x2="211.984" y2="10.997" gradientUnits="userSpaceOnUse">
<stop stop-color="#070808" stop-opacity="0"/>
<stop offset="1" stop-color="#5C5C5C"/>
</linearGradient>
<linearGradient id="paint11_linear_3550_10912" x1="155.138" y1="-10.3744" x2="207.453" y2="21.4239" gradientUnits="userSpaceOnUse">
<stop stop-color="#070808" stop-opacity="0"/>
<stop offset="1" stop-color="#5C5C5C"/>
</linearGradient>
<linearGradient id="paint12_linear_3550_10912" x1="160.664" y1="-19.467" x2="212.979" y2="12.3313" gradientUnits="userSpaceOnUse">
<stop stop-color="#070808" stop-opacity="0"/>
<stop offset="1" stop-color="#5C5C5C"/>
</linearGradient>
<linearGradient id="paint13_linear_3550_10912" x1="116.037" y1="-0.329212" x2="160.691" y2="26.8121" gradientUnits="userSpaceOnUse">
<stop stop-color="#070808" stop-opacity="0"/>
<stop offset="1" stop-color="#5C5C5C"/>
</linearGradient>
<linearGradient id="paint14_linear_3550_10912" x1="116.117" y1="0.645911" x2="159.429" y2="26.9722" gradientUnits="userSpaceOnUse">
<stop stop-color="#070808" stop-opacity="0"/>
<stop offset="1" stop-color="#5C5C5C"/>
</linearGradient>
<linearGradient id="paint15_linear_3550_10912" x1="0" y1="13" x2="143.5" y2="13" gradientUnits="userSpaceOnUse">
<stop stop-color="#FFBA39"/>
<stop offset="1" stop-color="#AB750F" stop-opacity="0"/>
</linearGradient>
<clipPath id="clip0_3550_10912">
<path d="M0 0H185V26H0V0Z" fill="white"/>
</clipPath>
</defs>
</svg>
