<svg width="77" height="43" viewBox="0 0 77 43" fill="none" xmlns="http://www.w3.org/2000/svg">
<g id="stats">
<path id="Rectangle 231" d="M0 0H65.7162L76.7867 10.9695V42.0499H10.9695L0 31.0803V0Z" fill="#212121"/>
<g id="Mask group">
<mask id="mask0_770_17678" style="mask-type:alpha" maskUnits="userSpaceOnUse" x="0" y="0" width="77" height="43">
<path id="Rectangle 232" d="M0 0H65.7162L76.7867 10.9695V42.0499H10.9695L0 31.0803V0Z" fill="#212121"/>
</mask>
<g mask="url(#mask0_770_17678)">
<g id="Waves">
<g id="Group" opacity="0.2">
<path id="Vector" d="M73.8643 37.3158C73.4945 35.8764 72.5931 34.5808 71.4654 33.3271C69.9824 31.6787 68.3207 30.1211 66.1845 28.7858C65.7697 28.5263 65.3305 28.2807 64.8804 28.0459C62.8877 27.0099 61.3282 25.7298 59.81 24.4225C59.0034 23.7293 58.1677 23.0492 57.3258 22.3738C56.6555 21.8359 55.8867 21.3587 54.933 21.0292C52.9038 20.3281 51.1581 19.3908 49.4647 18.4061C47.3358 17.168 45.2313 15.9104 43.0586 14.7042C40.2873 13.1661 37.3057 11.8051 34.1695 10.5841C31.7766 9.65225 29.5249 8.59523 27.2986 7.50712C25.0785 6.42212 22.7379 5.43583 20.4253 4.43011C18.1663 3.44692 15.9449 2.4342 13.8306 1.32511C12.0776 0.40566 10.1811 -0.349021 8.17261 -0.974683C7.49866 -0.163265 6.58628 0.438303 5.61428 0.883651C7.89889 1.58859 10.0546 2.43964 12.0046 3.51221C13.5168 4.34383 15.1943 5.0239 16.951 5.62702C17.9509 5.97056 18.9594 6.30709 19.9217 6.68948C21.8268 7.44572 23.7415 8.19651 25.5821 9.01493C27.941 10.0642 30.4372 10.9611 32.9627 11.8254C36.6889 13.1008 40.0684 14.663 42.9673 16.6332C44.6315 17.7641 46.5512 18.7107 48.3431 19.7491C50.5255 21.0144 52.7165 22.2844 54.7164 23.6624C56.0375 24.5725 57.0254 25.6801 58.1713 26.6951C59.3562 27.7459 60.5046 28.8154 61.7637 29.8289C62.378 30.324 63.1578 30.7507 63.9473 31.1393C66.2149 32.2561 67.8183 33.7033 69.2051 35.2741C70.1734 36.3715 70.7744 37.5412 71.098 38.7793C71.632 40.8281 72.5456 42.8123 73.5906 44.7771C73.7001 44.9839 73.8023 45.1937 73.8972 45.4044L77.1465 45.4044C77.0735 45.2101 76.9956 45.0165 76.9117 44.8246C76.2305 43.2709 75.4227 41.7406 74.7633 40.1838C74.3655 39.2449 74.1113 38.2788 73.8643 37.3166L73.8643 37.3158Z" fill="#444444"/>
<path id="Vector_2" d="M38.6878 44.2274C39.0529 43.1759 39.9483 42.609 41.2809 42.5723C42.4419 42.5402 43.5032 42.8405 44.5304 43.24C45.1972 43.4996 45.8422 43.7967 46.5108 44.0523C46.8125 44.168 47.1416 44.2501 47.4697 44.3025C48.0625 44.3963 48.4685 44.2032 48.6961 43.7349C48.9826 43.1462 48.9864 42.5277 48.9181 41.9101C48.7559 40.441 48.2409 39.054 47.2668 37.8195C45.7426 35.8876 44.5636 33.8173 43.4548 31.7118C42.9142 30.6853 42.3413 29.665 41.6821 28.6884C40.8541 27.4617 39.6325 26.4868 38.408 25.5267C37.1939 24.5744 35.9287 23.6644 34.7554 22.6792C34.0583 22.0936 33.4692 21.4158 32.8793 20.7512C31.6757 19.3971 30.4218 18.0789 29.037 16.8467C27.6048 15.5731 25.8473 14.6693 24.029 13.8288C21.2168 12.5287 18.4131 11.2175 15.6046 9.91185C14.3014 9.30593 13.1519 8.53269 12.0592 7.69769C10.7352 6.68521 9.26121 5.85881 7.60991 5.24897C6.76007 4.93546 5.94438 4.57347 5.15145 4.17786L4.33481 7.35368C4.38034 7.37792 4.42587 7.40215 4.47139 7.42561C5.51093 7.97133 6.59883 8.45372 7.64121 8.99632C8.89605 9.64915 9.95834 10.4982 11.0377 11.3293C12.6776 12.5935 14.5547 13.5982 16.3928 14.6467C17.5974 15.3339 18.8067 16.0172 19.9733 16.7474C21.6142 17.7748 22.7941 19.1297 23.7862 20.5996C25.3474 22.9122 26.6023 25.3383 27.6921 27.8245C27.785 28.0356 27.84 28.2584 27.9045 28.4773C28.1018 29.1529 27.9538 29.7736 27.5384 30.3811C26.9219 31.2802 26.3566 32.2036 25.7714 33.1175C24.8931 34.4881 24.6275 35.9384 24.951 37.463C25.3199 39.2018 25.7733 40.9211 26.5899 42.5629C27.1211 43.6309 27.8438 44.6066 28.633 45.5511L38.482 45.5511C38.4772 45.1101 38.5351 44.6692 38.6887 44.2274L38.6878 44.2274Z" fill="#444444"/>
<path id="Vector_3" d="M80.1858 -0.601409C78.6494 -1.2908 77.0412 -1.91646 75.4998 -2.60197C75.2578 -2.70923 75.0169 -2.81804 74.776 -2.92607C71.2287 -2.92918 66.5609 -2.92918 61.3433 -2.92763C63.2873 -2.11388 65.2312 -1.29935 67.146 -0.457623C71.1557 1.30434 75.147 3.08494 79.0727 4.92152C80.8342 5.74615 82.4194 6.72467 84.0799 7.63712C85.5032 8.41978 87.0579 9.05244 88.7075 9.56774C84.4205 5.91558 82.7162 2.6054 82.0581 0.314934C81.4535 -0.00528094 80.833 -0.312283 80.1871 -0.602186L80.1858 -0.601409Z" fill="#444444"/>
<path id="Vector_4" d="M0.127432 40.5204C8.34498 40.9557 9.27926 45.4037 9.27926 45.4037L14.5127 45.4037C14.183 45.1122 13.8424 44.8247 13.4933 44.5394C10.4495 42.0586 7.45327 39.5536 4.46187 37.0463C3.05558 35.868 1.93638 34.5848 1.53128 33.1058C1.32691 32.3604 1.24906 31.5995 1.16268 30.8433C1.0094 29.5096 0.862201 28.1751 0.769746 26.839C0.678507 25.5131 0.39506 24.2011 -0.164536 22.9312C-0.804422 21.4801 -1.53555 20.0391 -2.38711 18.6339C-2.91021 17.772 -3.69486 17.0694 -4.68875 16.5168L-6.28846 21.341L0.126214 40.5204L0.127432 40.5204Z" fill="#444444"/>
<path id="Vector_5" d="M68.7889 39.951C68.2719 37.8214 66.9289 35.9397 64.7234 34.3122C64.345 34.0324 63.9217 33.7674 63.4582 33.5474C61.3269 32.5378 59.6931 31.2539 58.2515 29.8471C56.8002 28.4302 55.3002 27.0336 53.7918 25.6416C51.894 23.8905 49.5766 22.3726 47.1435 20.9332C44.7798 19.5357 42.4162 18.1445 40.2532 16.6149C38.0002 15.0209 35.319 13.7664 32.3459 12.777C28.7219 11.5708 25.2122 10.2456 21.7877 8.82097C19.8523 8.01577 17.8402 7.28285 15.8171 6.57092C13.6724 5.81624 11.7625 4.85948 9.8063 3.93381C7.90611 3.03457 5.92684 2.22937 3.86607 1.5221C1.8649 2.09569 0.0766246 2.14931 0.0766246 2.14931L-0.290757 3.25841C0.964684 3.75583 2.25662 4.21905 3.57532 4.64186C5.75409 5.34136 7.77229 6.17609 9.56422 7.23389C11.1956 8.19686 13.0714 8.93133 14.9996 9.62073C19.0214 11.0586 23.0201 12.5244 27.0577 13.9436C29.8423 14.9229 32.1609 16.2294 34.1268 17.8111C35.6913 19.0694 37.1742 20.3743 38.853 21.5674C40.1936 22.521 41.7592 23.3472 43.2519 24.2115C44.9368 25.1869 46.7056 26.1188 47.9355 27.3577C48.8892 28.3183 49.7213 29.3302 50.568 30.3329C51.4354 31.358 52.2675 32.3956 53.0935 33.4347C54.3489 35.0141 55.9937 36.4286 57.5885 37.8672C58.7211 38.8885 59.8756 39.909 60.5483 41.1012C61.3342 42.4932 61.8195 43.9311 61.9886 45.4047L70.6685 45.4047C70.6599 45.3892 70.6526 45.3728 70.6441 45.3573C69.7074 43.6008 69.2305 41.7774 68.7877 39.9525L68.7889 39.951Z" fill="#444444"/>
<path id="Vector_6" d="M24.2139 42.2126C23.3222 40.7864 22.4318 39.3594 21.6057 37.9177C20.4902 35.9707 20.5705 34.0036 21.5668 32.0481C22.1945 30.8162 22.5473 29.5478 22.6872 28.2669C22.759 27.6109 22.5777 26.9138 22.287 26.2772C21.4573 24.4655 20.5316 22.6709 19.607 20.8771C19.0827 19.859 18.191 18.9714 16.9453 18.2509C16.0244 17.7185 15.0585 17.2156 14.0816 16.7252C12.0403 15.7008 9.95641 14.7122 7.93699 13.6715C7.04529 13.2122 6.24482 12.6774 5.44314 12.152C3.70596 11.0142 1.71696 10.1025 -0.515337 9.40768C-1.0725 9.23436 -1.61263 9.0455 -2.14425 8.84731L-3.52621 13.0132C-3.47755 13.0256 -3.4301 13.0373 -3.38144 13.0497C-1.4411 13.5402 0.176858 14.3236 1.50529 15.3418C3.30086 16.7182 4.92856 18.1708 6.20712 19.7719C7.04651 20.8219 7.51609 21.9334 7.66937 23.114C7.85306 24.537 7.74966 25.9632 7.84211 27.384C7.96133 29.2167 7.96863 31.0641 8.70705 32.8603C9.32382 34.3611 10.3214 35.7687 11.2739 37.1886C12.6206 39.1954 14.4806 40.9854 16.7604 42.5996C17.989 43.4693 19.0146 44.409 19.8844 45.4031L26.7881 45.4031C25.8076 44.3818 24.9134 43.3287 24.2152 42.2118L24.2139 42.2126Z" fill="#444444"/>
<path id="Vector_7" d="M81.51 35.0538C80.9443 32.8769 79.819 30.8227 77.9371 28.9589C76.5673 27.6011 75.1074 26.2798 73.7754 24.9072C72.3545 23.443 70.3922 22.3883 67.9775 21.6958C65.4362 20.9667 63.1236 20.0325 61.0044 18.8869C59.6784 18.1695 58.2368 17.5617 56.6834 17.0612C56.153 16.8902 55.6359 16.6998 55.1274 16.5032C52.72 15.5713 50.6215 14.3798 48.5084 13.2101C45.3248 11.4466 42.0134 9.79886 38.5208 8.2926C36.5282 7.433 34.5063 6.57806 32.6937 5.57622C29.6342 3.88499 26.5905 2.18443 23.385 0.607451C20.9617 -0.584805 18.5554 -1.7926 16.0214 -2.88771C13.8864 -2.88538 12.1602 -2.88304 10.9716 -2.88149C13.3061 -2.10427 15.5141 -1.20425 17.5943 -0.148784C20.6222 1.38778 23.7718 2.82564 26.8253 4.34277C28.6172 5.23347 30.268 6.2423 32.083 7.11278C34.201 8.12861 36.4211 9.05739 38.6084 10.0126C42.9903 11.9261 46.8649 14.2313 50.81 16.4798C52.5484 17.47 54.3939 18.332 56.5143 18.9669C57.4327 19.2413 58.2831 19.6354 59.0775 20.0442C59.9497 20.4926 60.7538 21.0002 61.5299 21.517C63.3352 22.7178 65.3814 23.7111 67.6454 24.5295C68.7159 24.9166 69.6757 25.3977 70.4032 26.035C71.9871 27.4247 73.5832 28.8089 75.0965 30.2296C76.9784 31.997 78.1816 33.9424 78.6122 36.0759C78.83 37.1539 79.0137 38.2428 79.4078 39.2975C80.0465 41.0081 80.8324 42.697 81.5805 44.3906C81.6243 44.4909 81.6669 44.5911 81.707 44.6914C81.8798 43.0328 82.3712 41.4908 83.0537 40.0825C82.4479 38.4192 81.9455 36.742 81.5075 35.0538L81.51 35.0538Z" fill="#444444"/>
<path id="Vector_8" d="M69.1444 3.05635C70.2405 3.51102 71.418 3.88564 72.5676 4.28591C72.7757 4.35819 73.0275 4.3784 73.2598 4.4227C73.2902 4.39083 73.3207 4.35897 73.3511 4.3271C73.0701 4.14989 72.8097 3.95637 72.5056 3.79704C70.682 2.8465 68.8962 1.86331 67.0082 0.967955C64.2078 -0.360314 61.3611 -1.65128 58.4999 -2.92592C57.2104 -2.92592 55.8953 -2.92436 54.562 -2.92359C55.9221 -2.45803 57.2481 -1.95051 58.5461 -1.40956C62.0886 0.0687115 65.5958 1.58351 69.1444 3.05635Z" fill="#444444"/>
<path id="Vector_9" d="M31.6558 3.50061C34.2676 4.95401 37.0169 6.2644 39.911 7.4691C41.8587 8.27974 43.7613 9.13545 45.6432 10.0075C47.8755 11.042 50.0434 12.134 52.2769 13.1677C54.9265 14.3941 58.0383 15.0586 60.9141 16.0131C61.0224 16.0488 61.1587 16.0519 61.2815 16.0706C61.3071 16.0465 61.3338 16.0224 61.3594 15.9975C61.1234 15.8413 60.9178 15.6594 60.6465 15.5335C59.6088 15.0517 58.6015 14.5294 57.4909 14.1268C53.8851 12.8226 50.6176 11.22 47.3999 9.56992C45.5021 8.59684 43.6615 7.57713 41.7236 6.63902C38.8332 5.23925 35.9464 3.84647 33.4781 2.12882C31.275 0.595362 28.9928 -0.892237 26.78 -2.42103C26.5513 -2.5788 26.3274 -2.73813 26.1097 -2.90135C23.6292 -2.89902 21.3178 -2.89591 19.2498 -2.89358C19.9432 -2.56404 20.6317 -2.22983 21.3105 -1.88786C24.8044 -0.127452 28.3031 1.63295 31.657 3.49906L31.6558 3.50061Z" fill="#444444"/>
<path id="Vector_10" d="M95.6134 15.8863C93.9225 15.4519 92.2303 15.0182 90.5235 14.6117C89.5892 14.3894 88.6233 14.2176 87.6671 14.0327C85.6818 13.6472 83.9312 12.9531 82.1235 12.3321C79.199 11.3272 76.6443 9.98801 74.0787 8.66519C70.9863 7.07111 68.0083 5.38454 64.8685 3.83088C61.9634 2.39302 58.9185 1.06242 55.6242 0.00306985C54.2191 -0.449272 52.7252 -0.800576 51.2338 -1.12856C49.7776 -1.44878 48.3653 -1.80708 47.1487 -2.41797C46.7643 -2.61072 46.3653 -2.77549 45.9541 -2.91772C42.9749 -2.91539 39.9908 -2.91306 37.0821 -2.90995C37.0419 -2.7615 37.0371 -2.59828 37.0711 -2.42108C37.2074 -1.70137 37.6709 -1.06328 38.2499 -0.453935C39.2803 0.631064 40.6818 1.49922 42.1623 2.33084C44.1817 3.46636 46.1573 4.63452 48.1414 5.79569C49.9759 6.86903 51.6961 8.03331 53.7909 8.90224C55.168 9.47427 56.6448 9.95615 58.1156 10.4287C62.6398 11.8813 66.911 13.5764 70.7783 15.6749C71.3963 16.0099 72.0617 16.3091 72.7113 16.62C73.7405 17.1128 74.5835 17.712 75.283 18.4006C76.5944 19.69 77.8523 20.9927 78.8194 22.4111C79.5445 23.4759 80.6564 24.4039 81.8388 25.286C83.5979 26.5972 85.1076 28.011 86.3387 29.5514C86.9153 30.2735 87.5479 30.9823 88.2426 31.6608C88.5868 31.9966 88.9031 32.3393 89.1939 32.6875C89.5077 32.4326 89.807 32.1994 90.0868 31.9903C87.8667 29.5025 85.5869 27.0379 82.4812 24.9285C80.7318 23.7401 79.5457 22.3209 78.5105 20.8302C77.536 19.4281 76.4229 18.0517 74.9363 16.8377C74.2113 16.2462 73.2454 15.7736 72.3756 15.2568C69.7102 13.6744 67.0302 12.1036 64.377 10.5134C63.7882 10.1606 63.2639 9.75874 62.7554 9.35614C62.534 9.18048 62.3904 8.95353 62.2822 8.73514C62.1775 8.52218 62.3515 8.33331 62.7006 8.31699C63.1495 8.29523 63.6228 8.29445 64.0571 8.36051C65.7663 8.62011 67.2772 9.16805 68.7017 9.79915C70.9243 10.7839 73.0945 11.816 75.3049 12.8117C76.7295 13.4536 78.1929 14.0606 79.6248 14.6964C80.1017 14.9078 80.5505 15.148 80.9861 15.3928C82.3765 16.1762 84.0371 16.5205 85.8448 16.6068C89.088 16.7615 92.2741 17.1175 95.4224 17.6351C96.083 17.7439 96.6985 17.8986 97.2813 18.0929C97.0002 17.3467 96.6316 16.6674 96.2229 16.0573C96.0222 15.9975 95.819 15.94 95.6122 15.8863L95.6134 15.8863Z" fill="#444444"/>
<path id="Vector_11" d="M97.6624 19.4035C97.0967 19.1743 96.4861 18.9955 95.8024 18.8983C92.8061 18.474 89.7831 18.2603 86.7077 18.4499C84.5715 18.5812 82.5704 18.3333 80.8794 17.438C80.1446 17.0486 79.4938 16.5923 78.8247 16.1532C77.8053 15.484 76.6788 14.9135 75.3151 14.5576C75.1168 14.5055 74.8929 14.4938 74.6813 14.4635C74.6496 14.49 74.6168 14.5164 74.5852 14.5428C74.7397 14.7068 74.8796 14.8762 75.0499 15.0332C75.6788 15.6146 76.4148 16.1594 76.933 16.7789C77.9646 18.01 78.95 19.2621 79.8247 20.5422C80.8259 22.0057 82.1823 23.2974 83.9511 24.4143C86.6457 26.1164 89.0203 27.9646 90.94 30.0693C91.1894 30.3429 91.4278 30.6196 91.6553 30.8971C91.9132 30.7331 92.0604 30.6476 92.0604 30.6476C92.8085 30.2022 93.4594 29.7242 94.0275 29.2292C93.4582 28.2483 92.8304 27.2822 92.0628 26.3542C91.4582 25.6236 90.6857 24.9506 90.0057 24.2456C89.5945 23.8205 89.1493 23.4023 88.833 22.9484C88.3281 22.2248 88.5872 21.6326 89.5325 21.1165C90.4144 20.6347 91.4655 20.3976 92.6005 20.3106C93.4046 20.2484 94.2136 20.2064 95.0226 20.1761C96.0834 20.1357 96.9933 20.3347 97.8242 20.6611C97.8023 20.2266 97.7476 19.8069 97.6636 19.4035L97.6624 19.4035Z" fill="#444444"/>
<path id="Vector_12" d="M73.846 20.0114C74.7803 20.8158 75.8192 21.5713 76.4725 22.4946C77.4019 23.8073 78.6111 25.012 79.9201 26.1794C81.3653 27.468 82.6426 28.815 83.521 30.308C84.0526 31.2127 84.5903 32.1174 85.2034 33.0003C85.6936 33.7068 86.1438 34.4203 86.5428 35.1439C86.8068 34.8633 87.072 34.5951 87.3359 34.3387C86.9381 33.7161 86.4929 33.1037 86.0026 32.4998C85.2581 31.5826 84.6596 30.6166 84.0222 29.6652C83.083 28.2647 81.785 27.0056 80.3605 25.7947C78.9919 24.6304 77.8715 23.3767 76.8691 22.0687C76.2864 21.3078 75.4676 20.6184 74.7146 19.9142C74.228 19.4588 73.739 18.9878 73.121 18.6108C72.3059 18.1134 71.4008 17.6665 70.4678 17.26C67.9216 16.1509 65.373 15.0411 62.7599 13.9988C61.1018 13.3374 59.3403 12.7778 57.5995 12.2058C54.349 11.1379 51.3722 9.81037 48.5304 8.35386C46.4952 7.31161 44.5001 6.23749 42.4782 5.18513C40.7605 4.29133 38.9552 3.45893 37.3275 2.50373C35.8592 1.64179 34.532 0.675704 33.2303 -0.292713C32.1062 -1.12822 31.0454 -2.00337 30.0503 -2.90339C29.3375 -2.90339 28.6343 -2.90184 27.9421 -2.90106C28.1416 -2.73785 28.3484 -2.57774 28.5601 -2.42074C30.0272 -1.3373 31.5734 -0.297376 33.0636 0.773633C35.2169 2.32186 37.5672 3.7294 40.1669 4.97062C42.1583 5.92194 44.1546 6.87481 46.0572 7.8953C49.1204 9.53757 52.3223 11.0493 55.7686 12.3433C57.5849 13.0257 59.4887 13.6149 61.288 14.3144C64.1176 15.4133 66.8705 16.5939 69.7014 17.6922C71.3084 18.3155 72.7232 19.0414 73.8497 20.0114L73.846 20.0114Z" fill="#444444"/>
<path id="Vector_13" d="M70.3043 4.7845C66.8056 3.014 63.2717 1.27847 59.554 -0.303177C57.2597 -1.27937 54.9154 -2.1926 52.4167 -2.92319C51.643 -2.92319 50.8645 -2.92241 50.0835 -2.92163C50.5007 -2.80738 50.9253 -2.70012 51.3547 -2.59675C54.5773 -1.82575 57.4592 -0.652926 60.3143 0.560314C64.0271 2.13729 67.4309 3.96298 70.9029 5.73738C74.1132 7.37809 77.3711 8.98926 80.9062 10.3354C84.1568 11.5735 87.5399 12.6531 91.2223 13.3028C92.3074 13.494 93.3755 13.7233 94.4424 13.9549C93.9035 13.4396 93.4071 13.0456 93.0483 12.7829C89.5946 12.2046 86.3428 11.2867 83.2079 10.1994C78.6752 8.62708 74.3505 6.8317 70.3055 4.7845L70.3043 4.7845Z" fill="#444444"/>
<path id="Vector_14" d="M81.8812 26.1251C80.1452 24.7362 78.5905 23.2836 77.4859 21.639C76.6538 20.4001 75.3083 19.3571 74.121 18.2565C73.8181 17.976 73.4264 17.721 73.0091 17.5073C71.9556 16.9671 70.851 16.4682 69.7914 15.9327C66.6443 14.3409 63.3208 12.9287 59.7284 11.7753C58.0387 11.2328 56.3611 10.6717 54.7176 10.0755C52.2907 9.19572 50.2701 7.97238 48.1582 6.82753C45.8809 5.59331 43.6169 4.34898 41.3007 3.14584C38.954 1.92638 36.8762 0.556143 35.1914 -1.04959C34.5795 -1.63328 34.0357 -2.23874 33.717 -2.90715C33.0065 -2.90715 32.3022 -2.90559 31.6063 -2.90482C31.8788 -2.55818 32.2073 -2.22786 32.5613 -1.90764C34.942 0.249142 37.6499 2.21784 40.9844 3.79715C43.387 4.935 45.6668 6.16612 47.9149 7.4221C51.4476 9.39469 55.321 11.0315 59.5593 12.324C63.0142 13.3772 66.1662 14.7451 69.2258 16.2039C69.8535 16.5031 70.4861 16.8016 71.1442 17.0728C72.6977 17.7117 73.8558 18.5783 74.913 19.5366C76.0796 20.5929 77.0394 21.7105 77.9542 22.86C78.7219 23.8238 79.6634 24.7463 80.6926 25.6067C82.5527 27.1619 84.077 28.8252 85.2667 30.6276C85.8214 31.4685 86.5173 32.2737 87.1997 33.0774C87.4224 33.3401 87.6292 33.6059 87.8238 33.8748C87.999 33.7123 88.1742 33.5553 88.3457 33.4038C88.2095 33.2281 88.0671 33.054 87.9175 32.8815C87.0404 31.8703 86.145 30.8615 85.3738 29.8169C84.4042 28.5057 83.2947 27.256 81.8799 26.1243L81.8812 26.1251Z" fill="#444444"/>
<path id="Vector_15" d="M76.6531 8.98578C72.8819 7.15853 69.2713 5.2046 65.5524 3.33772C61.9831 1.54545 58.2776 -0.143447 54.1646 -1.41265C52.9274 -1.79426 51.6355 -2.10904 50.3484 -2.41837C49.7426 -2.56449 49.155 -2.72693 48.593 -2.92045C48.1988 -2.92045 47.8035 -2.92045 47.4081 -2.91968C48.4957 -2.44402 49.6672 -2.07872 50.9311 -1.81447C53.0819 -1.36524 55.1439 -0.776104 57.0733 -0.0206466C61.3433 1.65193 65.3882 3.51959 69.1837 5.61653C72.4865 7.44144 75.8952 9.19407 79.5253 10.7462C82.7077 12.1071 86.0969 13.2278 89.8097 13.925C91.6843 14.2771 93.5091 14.7434 95.3339 15.1958C95.4397 15.2222 95.5455 15.2486 95.6514 15.275C95.4774 15.0566 95.301 14.8499 95.1246 14.6556C94.7207 14.5631 94.3169 14.473 93.913 14.382C91.7622 13.8963 89.5518 13.5053 87.4533 12.9442C83.603 11.9151 79.9948 10.6032 76.6543 8.985L76.6531 8.98578Z" fill="#444444"/>
<path id="Vector_16" d="M1.12262 17.7997C2.11286 19.0573 3.09824 20.3164 3.68703 21.6812C4.17364 22.8097 4.35246 23.9709 4.47411 25.132C4.58968 26.2341 4.60063 27.3401 4.67605 28.4438C4.74661 29.486 4.79162 30.5314 4.93639 31.5697C5.12981 32.9641 5.82566 34.2714 6.92296 35.4799C8.44116 37.1533 9.90828 38.85 11.5737 40.4619C12.8121 41.6604 14.2829 42.7679 15.7378 43.8685C16.3874 44.3605 16.9665 44.8734 17.4872 45.4043L18.6489 45.4043C17.992 44.6947 17.2426 44.0161 16.3838 43.3734C15.0687 42.3894 13.7817 41.3829 12.6248 40.3228C10.873 38.7186 9.63213 36.9256 8.27086 35.1799C7.34874 33.9978 6.68817 32.755 6.50082 31.4345C6.33416 30.2586 6.23441 29.0772 6.14926 27.8974C6.0568 26.6134 6.04585 25.3263 5.94123 24.0424C5.86216 23.06 5.67847 22.0822 5.17726 21.1426C4.2077 19.327 2.69801 17.6948 0.963259 16.145C-0.271501 15.0414 -1.8554 14.2307 -3.75195 13.6976L-3.97579 14.3722C-1.75444 15.1152 -0.0792925 16.2741 1.12262 17.8005L1.12262 17.7997Z" fill="#444444"/>
<path id="Vector_17" d="M0.320089 20.121C1.1242 21.4174 1.76531 22.7441 1.99767 24.1353C2.16554 25.1379 2.28111 26.1437 2.38208 27.1502C2.50982 28.424 2.60835 29.6987 2.70081 30.9741C2.80543 32.4205 3.17282 33.8304 4.27863 35.112C4.92338 35.8589 5.6691 36.5716 6.40874 37.2836C8.97315 39.7528 11.6179 42.1831 14.6324 44.4433C15.046 44.7542 15.4377 45.0744 15.8051 45.4047L16.7017 45.4047C16.2187 44.9407 15.6871 44.4923 15.1007 44.064C12.0619 41.8435 9.54856 39.3898 7.14352 36.8841C6.13138 35.8301 5.09126 34.7902 4.51098 33.5972C4.11561 32.7858 3.88934 31.9549 3.83338 31.1062C3.71416 29.2953 3.60468 27.4844 3.48302 25.6734C3.2823 22.6905 1.87601 19.9313 -0.364808 17.3346C-1.29787 16.2535 -2.58616 15.46 -4.14573 14.888L-4.35375 15.5144C-2.81486 16.1766 -1.61659 17.0914 -0.807613 18.2914C-0.401298 18.893 -0.0570286 19.5116 0.321307 20.1218L0.320089 20.121Z" fill="#444444"/>
</g>
</g>
</g>
</g>
<path id="Polygon 48" d="M69.4736 -7.44999e-07L76.7867 -1.06466e-06L76.7867 7.31302L69.4736 -7.44999e-07Z" fill="url(#paint0_linear_770_17678)"/>
<path id="Polygon 49" d="M7.31299 42.0499L-3.11222e-05 42.0499L-3.08026e-05 34.7368L7.31299 42.0499Z" fill="url(#paint1_linear_770_17678)"/>
</g>
<defs>
<linearGradient id="paint0_linear_770_17678" x1="73.1302" y1="7.65489" x2="73.1302" y2="-0.133775" gradientUnits="userSpaceOnUse">
<stop stop-color="#AB750F"/>
<stop offset="0.516" stop-color="#D8A956"/>
<stop offset="1" stop-color="#AB750F"/>
</linearGradient>
<linearGradient id="paint1_linear_770_17678" x1="3.65645" y1="34.395" x2="3.65645" y2="42.1836" gradientUnits="userSpaceOnUse">
<stop stop-color="#AB750F"/>
<stop offset="0.516" stop-color="#D8A956"/>
<stop offset="1" stop-color="#AB750F"/>
</linearGradient>
</defs>
</svg>
