<svg xmlns="http://www.w3.org/2000/svg" width="77" height="43" fill="none" xmlns:v="https://vecta.io/nano"><path d="M0 0h65.716l11.07 10.97v31.08H10.97L0 31.08V0z" fill="#212121"/><mask id="A" maskUnits="userSpaceOnUse" x="0" y="0" width="77" height="43" mask-type="alpha"><path d="M0 0h65.716l11.07 10.97v31.08H10.97L0 31.08V0z" fill="#212121"/></mask><g mask="url(#A)"><g opacity=".2"><path d="M73.864 37.316c-.37-1.439-1.271-2.735-2.399-3.989-1.483-1.648-3.145-3.206-5.281-4.541l-1.304-.74c-1.993-1.036-3.552-2.316-5.07-3.623l-2.484-2.049c-.67-.538-1.439-1.015-2.393-1.345-2.029-.701-3.775-1.638-5.468-2.623l-6.406-3.702c-2.771-1.538-5.753-2.899-8.889-4.12l-6.871-3.077-6.873-3.077-6.595-3.105c-1.753-.919-3.649-1.674-5.658-2.3C7.499-.163 6.586.438 5.614.884c2.285.705 4.44 1.556 6.39 2.629 1.512.832 3.19 1.512 4.946 2.115l2.971 1.062 5.66 2.325c2.359 1.049 4.855 1.946 7.381 2.81 3.726 1.275 7.106 2.838 10.005 4.808 1.664 1.131 3.584 2.078 5.376 3.116 2.182 1.265 4.373 2.535 6.373 3.913 1.321.91 2.309 2.018 3.455 3.033 1.185 1.051 2.333 2.12 3.592 3.134.614.495 1.394.922 2.184 1.31 2.268 1.117 3.871 2.564 5.258 4.135.968 1.097 1.569 2.267 1.893 3.505.534 2.049 1.448 4.033 2.493 5.998a10.99 10.99 0 0 1 .307.627h3.249a11.93 11.93 0 0 0-.235-.58c-.681-1.554-1.489-3.084-2.148-4.641-.398-.939-.652-1.905-.899-2.867v-.001zm-35.176 6.912c.365-1.052 1.261-1.618 2.593-1.655 1.161-.032 2.222.268 3.249.668l1.981.812a4.83 4.83 0 0 0 .959.25c.593.094.999-.099 1.226-.568.286-.589.29-1.207.222-1.825-.162-1.469-.677-2.856-1.651-4.091-1.524-1.932-2.703-4.002-3.812-6.108l-1.773-3.023c-.828-1.227-2.05-2.202-3.274-3.162l-3.653-2.847c-.697-.586-1.286-1.264-1.876-1.928-1.204-1.354-2.457-2.672-3.842-3.904-1.432-1.274-3.19-2.178-5.008-3.018l-8.424-3.917c-1.303-.606-2.453-1.379-3.545-2.214-1.324-1.012-2.798-1.839-4.449-2.449a24.48 24.48 0 0 1-2.458-1.071l-.817 3.176.137.072 3.17 1.571c1.255.653 2.317 1.502 3.397 2.333 1.64 1.264 3.517 2.269 5.355 3.317l3.58 2.101c1.641 1.027 2.821 2.382 3.813 3.852 1.561 2.313 2.816 4.739 3.906 7.225.093.211.148.434.212.653.197.675.049 1.296-.366 1.904l-1.767 2.736c-.878 1.37-1.144 2.821-.82 4.345.369 1.739.822 3.458 1.639 5.1.531 1.068 1.254 2.044 2.043 2.988h9.849c-.005-.441.053-.882.207-1.324h-.001zM80.186-.601L75.5-2.602l-.724-.324-13.433-.002 5.803 2.47 11.927 5.379c1.761.825 3.347 1.803 5.007 2.716 1.423.783 2.978 1.415 4.628 1.931-4.287-3.652-5.991-6.962-6.65-9.253a32.18 32.18 0 0 0-1.871-.917l-.001.001zM.127 40.521c8.218.435 9.152 4.883 9.152 4.883h5.233a34.47 34.47 0 0 0-1.019-.864l-9.031-7.493c-1.406-1.178-2.525-2.461-2.931-3.94-.204-.745-.282-1.506-.369-2.263-.153-1.334-.3-2.668-.393-4.004-.091-1.326-.375-2.638-.934-3.908a37.29 37.29 0 0 0-2.223-4.297c-.523-.862-1.308-1.565-2.302-2.117l-1.6 4.824L.126 40.521h.001z" fill="#444"/><path d="M68.789 39.951c-.517-2.13-1.86-4.011-4.066-5.639-.378-.28-.802-.545-1.265-.765-2.131-1.01-3.765-2.294-5.207-3.7l-4.46-4.206c-1.898-1.751-4.215-3.269-6.648-4.708l-6.89-4.318c-2.253-1.594-4.934-2.849-7.907-3.838a154.4 154.4 0 0 1-10.558-3.956l-5.971-2.25c-2.145-.755-4.055-1.711-6.011-2.637a57.54 57.54 0 0 0-5.94-2.412c-2.001.574-3.789.627-3.789.627L-.29 3.258l3.866 1.383c2.179.699 4.197 1.534 5.989 2.592C11.196 8.196 13.072 8.93 15 9.62l12.058 4.323c2.785.979 5.103 2.286 7.069 3.867l4.726 3.756c1.341.954 2.906 1.78 4.399 2.644 1.685.975 3.454 1.907 4.684 3.146.954.961 1.786 1.973 2.633 2.975l2.526 3.102c1.255 1.579 2.9 2.994 4.495 4.433 1.133 1.021 2.287 2.042 2.96 3.234.786 1.392 1.271 2.83 1.44 4.303h8.68l-.024-.047c-.937-1.756-1.414-3.58-1.856-5.405l.001-.002zm-44.575 2.262l-2.608-4.295c-1.115-1.947-1.035-3.914-.039-5.87a10.85 10.85 0 0 0 1.12-3.781c.072-.656-.11-1.353-.4-1.99l-2.68-5.4c-.524-1.018-1.416-1.906-2.662-2.626l-2.864-1.526-6.145-3.054c-.892-.459-1.692-.994-2.494-1.519-1.737-1.138-3.726-2.05-5.958-2.744l-1.629-.56-1.382 4.166.145.037c1.94.491 3.558 1.274 4.887 2.292 1.796 1.376 3.423 2.829 4.702 4.43.839 1.05 1.309 2.162 1.462 3.342.184 1.423.08 2.849.173 4.27.119 1.833.127 3.68.865 5.476.617 1.501 1.614 2.908 2.567 4.328 1.347 2.007 3.207 3.797 5.487 5.411 1.229.87 2.254 1.809 3.124 2.803h6.904c-.98-1.021-1.875-2.074-2.573-3.191l-.001.001zm57.296-7.159c-.566-2.177-1.691-4.231-3.573-6.095l-4.162-4.052c-1.421-1.464-3.383-2.519-5.798-3.212-2.541-.729-4.854-1.663-6.973-2.809-1.326-.717-2.768-1.325-4.321-1.826l-1.556-.558c-2.407-.932-4.506-2.123-6.619-3.293-3.184-1.764-6.495-3.411-9.988-4.917-1.993-.86-4.014-1.715-5.827-2.716-3.06-1.691-6.103-3.392-9.309-4.969-2.423-1.192-4.83-2.4-7.364-3.495l-5.05.006c2.335.777 4.543 1.677 6.623 2.733 3.028 1.537 6.177 2.974 9.231 4.492 1.792.891 3.443 1.9 5.258 2.77 2.118 1.016 4.338 1.945 6.525 2.9 4.382 1.913 8.256 4.219 12.202 6.467 1.738.99 3.584 1.852 5.704 2.487.919.274 1.769.668 2.563 1.077.872.448 1.676.956 2.453 1.473 1.805 1.201 3.852 2.194 6.115 3.012 1.071.387 2.03.868 2.758 1.506l4.693 4.195c1.882 1.767 3.085 3.713 3.516 5.846.218 1.078.401 2.167.796 3.222.639 1.711 1.425 3.4 2.173 5.093l.126.301c.173-1.659.664-3.201 1.347-4.609a55.02 55.02 0 0 1-1.546-5.029h.002zM69.144 3.056l3.423 1.23c.208.072.46.092.692.137l.091-.096-.846-.53L67.008.968 58.5-2.926l-3.938.002 3.984 1.514 10.598 4.466zm-37.488.445c2.612 1.453 5.361 2.764 8.255 3.968l5.732 2.538 6.634 3.16c2.65 1.226 5.761 1.891 8.637 2.845.108.036.245.039.367.057l.078-.073c-.236-.156-.442-.338-.713-.464l-3.156-1.407c-3.605-1.302-6.872-2.905-10.09-4.555l-5.676-2.931c-2.89-1.4-5.777-2.793-8.245-4.51l-6.698-4.55c-.229-.158-.453-.317-.67-.48l-6.86.008 2.061 1.006L31.658 3.5l-.001.002zm63.957 12.385l-5.09-1.275-2.856-.579c-1.985-.386-3.736-1.08-5.544-1.701-2.925-1.005-5.479-2.344-8.045-3.667l-9.21-4.834c-2.905-1.438-5.95-2.768-9.244-3.828-1.405-.452-2.899-.804-4.39-1.132-1.456-.32-2.869-.679-4.085-1.289a9.68 9.68 0 0 0-1.195-.5l-8.872.008a1.08 1.08 0 0 0-.011.489c.136.72.6 1.358 1.179 1.967C39.28.63 40.682 1.498 42.162 2.33l5.979 3.465c1.834 1.073 3.555 2.238 5.649 3.107 1.377.572 2.854 1.054 4.325 1.526 4.524 1.453 8.795 3.148 12.663 5.246.618.335 1.283.634 1.933.945 1.029.493 1.872 1.092 2.572 1.781 1.311 1.289 2.569 2.592 3.536 4.011.725 1.065 1.837 1.993 3.019 2.875 1.759 1.311 3.269 2.725 4.5 4.265a23.06 23.06 0 0 0 1.904 2.109c.344.336.661.679.951 1.027.314-.255.613-.488.893-.697-2.22-2.488-4.5-4.952-7.606-7.062-1.749-1.188-2.935-2.608-3.971-4.098-.974-1.402-2.088-2.779-3.574-3.992-.725-.591-1.691-1.064-2.561-1.581l-7.999-4.743c-.589-.353-1.113-.755-1.622-1.157-.221-.176-.365-.403-.473-.621-.105-.213.069-.402.419-.418.449-.022.922-.023 1.356.044 1.709.26 3.22.808 4.645 1.439l6.603 3.013 4.32 1.885a16.06 16.06 0 0 1 1.361.696c1.391.783 3.051 1.128 4.859 1.214 3.243.155 6.429.511 9.578 1.028a12.03 12.03 0 0 1 1.859.458 10.06 10.06 0 0 0-1.058-2.036c-.201-.06-.404-.117-.611-.171h.001zm2.049 3.518c-.566-.229-1.176-.408-1.86-.505-2.996-.424-6.019-.638-9.095-.448-2.136.131-4.137-.117-5.828-1.012-.735-.389-1.386-.846-2.055-1.285-1.019-.669-2.146-1.24-3.51-1.596-.198-.052-.422-.064-.634-.094l-.096.079.465.49c.629.581 1.365 1.126 1.883 1.746l2.892 3.763c1.001 1.463 2.358 2.755 4.126 3.872 2.695 1.702 5.069 3.55 6.989 5.655l.715.828.405-.25a13.47 13.47 0 0 0 1.967-1.419c-.569-.981-1.197-1.947-1.965-2.875-.605-.731-1.377-1.404-2.057-2.109-.411-.425-.856-.843-1.173-1.297-.505-.724-.246-1.316.7-1.832.882-.482 1.933-.719 3.068-.806l2.422-.134c1.061-.04 1.971.159 2.802.485a8.2 8.2 0 0 0-.16-1.258h-.001zm-23.816.608c.934.804 1.973 1.56 2.626 2.483.929 1.313 2.139 2.517 3.448 3.685 1.445 1.289 2.723 2.636 3.601 4.129L85.203 33l1.339 2.144.793-.805c-.398-.623-.843-1.235-1.333-1.839-.745-.917-1.343-1.883-1.981-2.835-.939-1.4-2.237-2.66-3.662-3.87-1.369-1.164-2.489-2.418-3.491-3.726-.583-.761-1.401-1.45-2.154-2.154-.487-.455-.976-.926-1.594-1.303a22.11 22.11 0 0 0-2.653-1.351L62.759 14l-5.16-1.793c-3.251-1.068-6.227-2.395-9.069-3.852l-6.052-3.169-5.151-2.681C35.859 1.642 34.532.676 33.23-.293l-3.18-2.611-2.108.002.618.48L33.064.774c2.153 1.548 4.504 2.956 7.103 4.197l5.89 2.925c3.063 1.642 6.265 3.154 9.712 4.448 1.816.682 3.72 1.271 5.519 1.971l8.413 3.378c1.607.623 3.022 1.349 4.148 2.319h-.004zM70.304 4.785c-3.499-1.771-7.033-3.506-10.75-5.088-2.294-.976-4.639-1.889-7.137-2.62l-2.333.002a42.09 42.09 0 0 0 1.271.325c3.223.771 6.105 1.944 8.96 3.157 3.713 1.577 7.117 3.403 10.589 5.177 3.21 1.641 6.468 3.252 10.003 4.598 3.251 1.238 6.634 2.318 10.316 2.967a83.28 83.28 0 0 1 3.22.652 14.07 14.07 0 0 0-1.394-1.172c-3.454-.578-6.706-1.496-9.84-2.583-4.533-1.572-8.858-3.368-12.902-5.415h-.001z" fill="#444"/><path d="M81.881 26.125c-1.736-1.389-3.291-2.841-4.395-4.486-.832-1.239-2.178-2.282-3.365-3.382-.303-.281-.695-.535-1.112-.749l-3.218-1.575c-3.147-1.592-6.471-3.004-10.063-4.157a143.67 143.67 0 0 1-5.011-1.7c-2.427-.88-4.447-2.103-6.559-3.248L41.3 3.146c-2.347-1.219-4.424-2.59-6.109-4.195-.612-.584-1.156-1.189-1.474-1.858l-2.111.002c.272.347.601.677.955.997 2.381 2.157 5.089 4.125 8.423 5.705 2.403 1.138 4.682 2.369 6.931 3.625 3.533 1.973 7.406 3.609 11.644 4.902 3.455 1.053 6.607 2.421 9.666 3.88.628.299 1.26.598 1.918.869 1.553.639 2.712 1.505 3.769 2.464 1.167 1.056 2.126 2.174 3.041 3.323.768.964 1.709 1.886 2.738 2.747 1.86 1.555 3.384 3.218 4.574 5.021.555.841 1.251 1.646 1.933 2.45.223.263.429.529.624.797l.522-.471a12.4 12.4 0 0 0-.428-.522c-.877-1.011-1.772-2.02-2.544-3.065-.97-1.311-2.079-2.561-3.494-3.692l.001.001zM76.653 8.986c-3.771-1.827-7.382-3.781-11.101-5.648-3.569-1.792-7.275-3.481-11.388-4.75-1.237-.382-2.529-.696-3.816-1.006-.606-.146-1.194-.309-1.755-.502h-1.185c1.088.476 2.259.841 3.523 1.105 2.151.449 4.213 1.038 6.142 1.794 4.27 1.673 8.315 3.54 12.11 5.637 3.303 1.825 6.712 3.578 10.342 5.13 3.182 1.361 6.572 2.482 10.284 3.179 1.875.352 3.699.818 5.524 1.271l.318.079c-.174-.218-.35-.425-.527-.62l-1.212-.274c-2.151-.486-4.361-.877-6.46-1.438-3.85-1.029-7.458-2.341-10.799-3.959l-.001.001zM1.123 17.8c.99 1.258 1.976 2.517 2.564 3.881.487 1.128.665 2.29.787 3.451l.202 3.312.26 3.126c.193 1.394.889 2.702 1.987 3.91l4.651 4.982c1.238 1.198 2.709 2.306 4.164 3.407a15.83 15.83 0 0 1 1.749 1.536h1.162c-.657-.71-1.406-1.388-2.265-2.031l-3.759-3.051c-1.752-1.604-2.993-3.397-4.354-5.143-.922-1.182-1.583-2.425-1.77-3.746l-.352-3.537-.208-3.855c-.079-.982-.263-1.96-.764-2.9-.97-1.816-2.479-3.448-4.214-4.997-1.235-1.104-2.819-1.914-4.715-2.447l-.224.675c2.221.743 3.896 1.902 5.098 3.428V17.8zM.32 20.121c.804 1.296 1.445 2.623 1.678 4.014l.384 3.015.319 3.824c.105 1.446.472 2.856 1.578 4.138.645.747 1.39 1.46 2.13 2.171 2.564 2.469 5.209 4.9 8.224 7.16a17.31 17.31 0 0 1 1.173.961h.897a15.65 15.65 0 0 0-1.601-1.341c-3.039-2.221-5.552-4.674-7.957-7.18-1.012-1.054-2.052-2.094-2.633-3.287-.395-.811-.622-1.642-.678-2.491l-.35-5.433c-.201-2.983-1.607-5.742-3.848-8.339-.933-1.081-2.221-1.875-3.781-2.447l-.208.627c1.539.662 2.737 1.577 3.546 2.777.406.602.751 1.22 1.129 1.83l-.001-.001z" fill="#444"/></g></g><path d="M69.474 0h7.313v7.313L69.474 0z" fill="url(#B)"/><path d="M7.313 42.05H0v-7.313l7.313 7.313z" fill="url(#C)"/><defs><linearGradient id="B" x1="73.13" y1="7.655" x2="73.13" y2="-.134" gradientUnits="userSpaceOnUse"><stop stop-color="#ab750f"/><stop offset=".516" stop-color="#d8a956"/><stop offset="1" stop-color="#ab750f"/></linearGradient><linearGradient id="C" x1="3.656" y1="34.395" x2="3.656" y2="42.184" gradientUnits="userSpaceOnUse"><stop stop-color="#ab750f"/><stop offset=".516" stop-color="#d8a956"/><stop offset="1" stop-color="#ab750f"/></linearGradient></defs></svg>