<svg xmlns="http://www.w3.org/2000/svg" width="320" height="50" fill="none" xmlns:v="https://vecta.io/nano"><g fill-rule="evenodd"><path d="M311.539 6.154v27.692l-7.692 7.692h-67.693l-4.615 6.923H159V0h146.385l6.154 6.154z" fill="#212121"/><use href="#H" fill="url(#C)"/><use href="#H" fill="#cb9a40"/><path d="M320 22.308h-4.615l-1 14.97-7.107 7.107-21.124 1V50h23.45L320 39.604V22.308zm-12.308 23.077l7.693-7.692V22.308H320v17.296L309.604 50h-23.45v-4.615h21.538z" fill="#ab750f"/></g><path d="M273.077 31.493l17.647-17.647h12.353L285.43 31.493h-12.353z" fill="#cb9a40"/><use href="#I" fill="#d8a956"/><path d="M252 31.493l17.647-17.647H282l-17.647 17.647H252z" fill="#cb9a40"/><use href="#I" x="-21.077" fill="#d8a956"/><g fill-rule="evenodd"><path d="M161 0H14.615L8.461 6.154v27.692l7.692 7.692h67.693l4.615 6.923H161V0z" fill="#212121"/><use href="#J" fill="url(#D)"/><use href="#J" fill="#cb9a40"/><path d="M0 22.308h4.615l1 14.97 7.107 7.107 21.124 1V50h-23.45L0 39.604V22.308zm12.308 23.077l-7.692-7.692V22.308H0v17.296L10.396 50h23.45v-4.615H12.308z" fill="#ab750f"/></g><path d="M46.923 31.493L29.276 13.846H16.923L34.57 31.493h12.353z" fill="#cb9a40"/><use href="#K" fill="#d8a956"/><path d="M68 31.493L50.353 13.846H38l17.647 17.647H68z" fill="#cb9a40"/><use href="#K" x="21.077" fill="#d8a956"/><mask id="A" maskUnits="userSpaceOnUse" x="8" y="0" width="304" height="49" mask-type="alpha"><path d="M14.615 0h290.769l6.154 6.154v27.692l-7.692 7.692h-67.693l-4.615 6.923H88.461l-4.615-6.923H16.154l-7.692-7.692V6.154L14.615 0z" fill="#212121"/></mask><g mask="url(#A)"><g opacity=".05"><path d="M71.275-7.38c1.148 2.382 3.945 4.527 7.444 6.602a82.18 82.18 0 0 0 16.387 7.517l4.047 1.225c6.183 1.715 11.023 3.834 15.734 5.997 2.503 1.148 5.096 2.273 7.709 3.391 2.08.89 4.465 1.68 7.425 2.226 6.297 1.16 11.714 2.712 16.969 4.342l19.879 6.127c8.6 2.546 17.852 4.798 27.584 6.819 7.426 1.542 14.413 3.292 21.321 5.093 6.89 1.796 14.153 3.428 21.329 5.093 7.01 1.627 13.904 3.303 20.465 5.139 5.439 1.522 11.325 2.771 17.557 3.807 2.091-1.343 4.923-2.339 7.939-3.076-7.089-1.167-13.779-2.575-19.83-4.351-4.693-1.376-9.898-2.502-15.349-3.5l-9.219-1.758-17.565-3.849c-7.32-1.737-15.066-3.221-22.903-4.652-11.563-2.111-22.05-4.697-31.046-7.958-5.164-1.872-11.121-3.439-16.682-5.157-6.772-2.094-13.571-4.196-19.777-6.477-4.1-1.506-7.165-3.339-10.721-5.02-3.677-1.739-7.24-3.509-11.148-5.187-1.906-.819-4.326-1.526-6.776-2.169C95.013.995 90.037-1.4 85.734-4c-3.005-1.816-4.87-3.752-5.874-5.802-1.657-3.391-4.492-6.675-7.735-9.927a17.49 17.49 0 0 1-.951-1.038H61.09c.227.322.468.642.729.96 2.114 2.572 4.621 5.105 6.667 7.681 1.234 1.554 2.023 3.153 2.79 4.746v.001z" fill="url(#E)"/><path d="M168.954-18.587c-1.454 1.73-5.017 2.663-10.321 2.723-4.621.053-8.845-.441-12.933-1.099l-7.883-1.337a42.72 42.72 0 0 0-3.816-.412c-2.359-.154-3.975.163-4.881.934-1.14.969-1.155 1.986-.884 3.002.646 2.417 2.696 4.699 6.573 6.73 6.066 3.179 10.759 6.585 15.172 10.049 2.151 1.689 4.431 3.368 7.055 4.975 3.296 2.018 8.158 3.623 13.031 5.202l14.538 4.685c2.775.963 5.119 2.079 7.467 3.172 4.79 2.228 9.781 4.397 15.293 6.424 5.7 2.096 12.695 3.583 19.932 4.966l33.529 6.445c5.187.997 9.763 2.269 14.111 3.643 5.27 1.666 11.137 3.026 17.709 4.029a190.54 190.54 0 0 1 9.785 1.762l3.25-5.225-.544-.118-12.616-2.584c-4.994-1.074-9.222-2.471-13.518-3.839-6.527-2.08-13.998-3.733-21.314-5.458l-14.25-3.457c-6.531-1.69-11.227-3.92-15.176-6.338-6.214-3.805-11.208-7.797-15.545-11.888-.37-.347-.589-.714-.846-1.074-.785-1.111-.196-2.133 1.457-3.132 2.454-1.479 4.704-2.999 7.033-4.502 3.496-2.255 4.553-4.641 3.265-7.15-1.468-2.861-3.273-5.69-6.523-8.391-2.114-1.757-4.99-3.363-8.131-4.917h-39.2c.019.726-.211 1.451-.823 2.178h.004z" fill="url(#E)"/><path d="M51.657 55.379l14.541 3.311 2.246.536 41.684.003-18.007-4.088-37.01-8.903c-5.466-1.365-10.385-2.984-15.538-4.495-4.417-1.295-9.241-2.343-14.36-3.195 13.303 6.045 18.592 11.524 20.634 15.315 1.876.53 3.801 1.038 5.806 1.518l.004-.001z" fill="url(#E)"/><path d="M300.09-12.685c-25.5-.72-28.399-8.082-28.399-8.082h-16.24a117.76 117.76 0 0 0 3.163 1.43L286.64-6.935c4.364 1.95 7.837 4.074 9.094 6.522.634 1.234.876 2.493 1.144 3.745.475 2.207.932 4.416 1.219 6.628.283 2.195 1.163 4.366 2.899 6.468a62.5 62.5 0 0 0 6.897 7.113c1.623 1.427 4.058 2.589 7.143 3.504L320 19.06l-19.906-31.745h-.004z" fill="url(#E)"/><path d="M87.025-11.741c1.604 3.525 5.772 6.639 12.616 9.333 1.174.463 2.488.902 3.926 1.266 6.614 1.671 11.684 3.796 16.157 6.125l13.839 6.961c5.889 2.898 13.081 5.411 20.631 7.793 7.334 2.313 14.669 4.616 21.381 7.147 6.992 2.638 15.312 4.715 24.538 6.352 11.246 1.997 22.137 4.19 32.763 6.548 6.006 1.333 12.25 2.546 18.528 3.724 6.655 1.249 12.582 2.833 18.652 4.365a285.12 285.12 0 0 0 18.434 3.992c6.21-.949 11.759-1.038 11.759-1.038l1.14-1.836a314.59 314.59 0 0 0-11.997-2.29c-6.761-1.158-13.024-2.539-18.584-4.29-5.063-1.594-10.884-2.809-16.867-3.951l-37.418-7.155c-8.641-1.621-15.836-3.783-21.937-6.401-4.854-2.083-9.456-4.242-14.666-6.217-4.16-1.578-9.018-2.946-13.65-4.376-5.229-1.614-10.717-3.157-14.534-5.207-2.96-1.59-5.542-3.265-8.169-4.924-2.692-1.697-5.274-3.414-7.837-5.134-3.896-2.614-9-4.955-13.949-7.336-3.514-1.69-7.097-3.379-9.184-5.353-2.439-2.304-3.945-4.684-4.47-7.123H81.192c.026.026.049.053.075.079 2.907 2.907 4.387 5.925 5.761 8.946l-.004.003z" fill="url(#E)"/><path d="M225.345-15.486c2.767 2.361 5.53 4.722 8.094 7.109 3.461 3.222 3.212 6.478.12 9.715-1.947 2.039-3.042 4.138-3.476 6.258-.223 1.086.339 2.24 1.242 3.293 2.574 2.999 5.447 5.969 8.316 8.938 1.627 1.685 4.394 3.154 8.26 4.347 2.857.881 5.855 1.714 8.886 2.525l19.068 5.054c2.767.76 5.251 1.645 7.739 2.515 5.39 1.883 11.562 3.392 18.49 4.542 1.728.287 3.405.599 5.054.927l4.289-6.895-.449-.06c-6.022-.812-11.042-2.108-15.165-3.794-5.572-2.278-10.623-4.683-14.59-7.332-2.605-1.738-4.062-3.578-4.538-5.532-.57-2.355-.249-4.716-.536-7.068-.37-3.033-.392-6.091-2.684-9.064-1.914-2.484-5.009-4.814-7.965-7.164-4.179-3.321-9.951-6.284-17.025-8.956-3.813-1.439-6.996-2.995-9.695-4.64h-21.423c3.043 1.69 5.817 3.433 7.984 5.282l.004-.001z" fill="url(#E)"/><path d="M46.859-3.568C48.614.035 52.106 3.435 57.946 6.52l12.914 6.706c4.409 2.424 10.498 4.169 17.992 5.315 7.886 1.207 15.063 2.753 21.639 4.649 4.114 1.187 8.588 2.193 13.409 3.022a148.24 148.24 0 0 1 4.828.924c7.471 1.542 13.982 3.515 20.54 5.451a521.94 521.94 0 0 0 30.993 8.139c6.183 1.423 12.457 2.838 18.082 4.496l28.886 8.224 22.85 5.785 15.67-.01c-7.244-1.286-14.095-2.776-20.551-4.523l-28.644-7.434-16.316-4.585c-6.572-1.681-13.462-3.219-20.249-4.8-13.598-3.167-25.621-6.983-37.864-10.704-5.394-1.639-11.121-3.065-17.701-4.117-2.85-.454-5.489-1.106-7.954-1.783-2.706-.742-5.202-1.582-7.61-2.438-5.602-1.987-11.952-3.632-18.977-4.986-3.322-.641-6.3-1.437-8.558-2.492L66.761 4.417c-5.84-2.925-9.573-6.145-10.91-9.676-.676-1.784-1.246-3.587-2.469-5.332-1.982-2.831-4.42-5.627-6.742-8.43-.136-.166-.268-.332-.393-.498-.536 2.745-2.061 5.298-4.179 7.628 1.88 2.753 3.439 5.529 4.798 8.323h-.008z" fill="url(#E)"/><path d="M85.922 49.325c-3.401-.753-7.055-1.373-10.623-2.035-.645-.12-1.427-.153-2.148-.226l-.283.158c.872.293 1.68.614 2.624.877l17.059 4.683 26.403 6.445 12.22-.004c-4.221-.77-8.336-1.611-12.364-2.506l-32.888-7.392z" fill="url(#E)"/><path d="M202.253 48.588c-8.105-2.406-16.636-4.574-25.617-6.568l-17.788-4.201-20.585-5.231c-8.222-2.03-17.879-3.13-26.803-4.709-.336-.059-.758-.064-1.14-.095l-.241.121c.732.259 1.37.56 2.212.768 3.22.798 6.346 1.662 9.792 2.328 11.189 2.159 21.329 4.811 31.314 7.542l17.614 4.851c8.97 2.317 17.928 4.622 25.587 7.465l20.785 7.531 2.081.795 21.287-.013-6.395-1.665-32.107-8.916.004-.003z" fill="url(#E)"/><path d="M3.786 28.089l15.795 2.11 8.864.958c6.161.638 11.593 1.787 17.203 2.815 9.075 1.663 17.003 3.88 24.964 6.069l28.581 8.002c9.014 2.38 18.463 4.582 28.686 6.336 4.36.749 8.996 1.33 13.624 1.873 4.519.53 8.901 1.123 12.676 2.134 1.193.319 2.432.592 3.708.827l27.531-.013c.124-.246.139-.516.034-.809-.423-1.191-1.861-2.247-3.658-3.256-3.198-1.796-7.547-3.233-12.141-4.609l-18.554-5.735c-5.693-1.777-11.031-3.704-17.531-5.142-4.273-.947-8.856-1.744-13.42-2.526-14.04-2.404-27.294-5.21-39.294-8.683-1.918-.555-3.983-1.05-5.998-1.564-3.194-.816-5.81-1.807-7.98-2.947-4.069-2.134-7.973-4.29-10.974-6.638-2.25-1.762-5.7-3.298-9.37-4.758-5.459-2.17-10.143-4.51-13.964-7.06a63.19 63.19 0 0 0-5.908-3.491A38.39 38.39 0 0 1 23.706.281l-2.771 1.154c6.889 4.118 13.964 8.197 23.601 11.688 5.429 1.967 9.109 4.316 12.322 6.783 3.024 2.321 6.478 4.599 11.091 6.608 2.25.979 5.247 1.761 7.946 2.617l24.821 7.851c1.827.584 3.454 1.249 5.032 1.915.687.291 1.132.666 1.468 1.028.325.352-.215.665-1.298.692-1.393.036-2.862.037-4.209-.072-5.304-.43-9.993-1.337-14.413-2.381l-20.491-4.986-13.405-3.119c-1.48-.35-2.873-.747-4.224-1.153-4.315-1.297-9.468-1.867-15.077-2.009-10.064-.256-19.951-.845-29.721-1.702-2.05-.18-3.96-.436-5.768-.758.872 1.235 2.016 2.359 3.284 3.369l1.895.283h-.004z" fill="url(#E)"/><path d="M1.97 16.118c.634-.819.159-1.625-.461-2.412L.105 11.969c-1.816 2.016-2.624 3.877-2.975 5.243 2.416.157 4.198-.266 4.84-1.095z" fill="url(#E)"/><path d="M-2.575 22.268a42.15 42.15 0 0 0 5.772.836c9.298.702 18.679 1.056 28.222.742 6.629-.217 12.839.193 18.086 1.675 2.28.645 4.3 1.4 6.376 2.126a55.33 55.33 0 0 0 10.891 2.641c.615.086 1.31.105 1.967.156l.298-.131c-.479-.271-.913-.552-1.442-.812-1.952-.962-4.236-1.864-5.844-2.889-3.201-2.038-6.259-4.11-8.973-6.229-3.107-2.422-7.316-4.56-12.805-6.409-8.362-2.817-15.73-5.876-21.687-9.36a55.06 55.06 0 0 1-2.22-1.37l-1.257.413c-2.322.737-4.341 1.528-6.104 2.348 1.767 1.623 3.715 3.222 6.097 4.758 1.876 1.209 4.273 2.323 6.384 3.49 1.276.704 2.658 1.396 3.639 2.147 1.567 1.198.763 2.178-2.171 3.032-2.737.798-5.998 1.19-9.521 1.334l-7.516.223c-3.292.067-6.116-.262-8.694-.803.068.719.238 1.414.498 2.082h.004z" fill="url(#E)"/><path d="M71.328 21.263c-2.899-1.331-6.123-2.582-8.15-4.11-2.884-2.173-6.636-4.167-10.698-6.099-4.485-2.133-8.449-4.362-11.174-6.833-1.65-1.497-3.318-2.995-5.221-4.456-1.521-1.169-2.918-2.35-4.156-3.548-.819.464-1.642.908-2.461 1.333 1.235 1.03 2.616 2.044 4.137 3.044 2.31 1.518 4.168 3.117 6.146 4.692 2.914 2.318 6.942 4.402 11.363 6.406 4.247 1.927 7.724 4.002 10.834 6.167 1.808 1.259 4.349 2.4 6.685 3.566 1.51.754 3.028 1.533 4.945 2.157 2.529.823 5.338 1.563 8.233 2.236l23.919 5.398c5.145 1.095 10.611 2.021 16.013 2.968 10.087 1.768 19.325 3.965 28.143 6.375l18.781 5.245c5.33 1.479 10.932 2.857 15.983 4.438 4.557 1.427 8.675 3.026 12.714 4.629a149.46 149.46 0 0 1 9.868 4.321l6.542-.004c-.619-.27-1.26-.535-1.917-.795l-13.975-5.287c-6.682-2.562-13.976-4.892-22.043-6.947l-18.278-4.841c-9.506-2.718-19.442-5.22-30.136-7.362l-17.128-3.262-26.108-5.591c-4.987-1.032-9.377-2.233-12.873-3.839h.011z" fill="url(#E)"/><path d="M82.321 46.466c10.857 2.93 21.823 5.803 33.36 8.421 7.12 1.616 14.394 3.127 22.148 4.337l7.24-.003-3.945-.538c-10-1.276-18.943-3.217-27.802-5.225-11.522-2.61-22.084-5.632-32.858-8.569-9.962-2.716-20.072-5.382-31.042-7.61-10.087-2.049-20.585-3.836-32.012-4.911l-9.992-1.079a48.47 48.47 0 0 0 4.326 1.94c10.717.957 20.808 2.476 30.536 4.276 14.066 2.602 27.486 5.574 40.038 8.962h.004z" fill="url(#E)"/><path d="M46.398 11.143c5.387 2.299 10.211 4.703 13.639 7.425 2.582 2.05 6.757 3.777 10.442 5.598.94.464 2.156.886 3.45 1.24l9.985 2.606c9.766 2.635 20.079 4.972 31.227 6.881l15.549 2.813c7.531 1.456 13.802 3.481 20.355 5.376l21.28 6.094c7.282 2.018 13.73 4.286 18.958 6.944 1.899.966 3.586 1.968 4.575 3.075l6.55-.004c-.846-.574-1.865-1.12-2.963-1.65-7.388-3.57-15.791-6.828-26.139-9.442-7.455-1.883-14.53-3.921-21.506-6-10.963-3.265-22.982-5.974-36.134-8.113-10.721-1.743-20.502-4.007-29.997-6.422l-5.953-1.438c-4.821-1.057-8.415-2.492-11.695-4.078-3.62-1.748-6.599-3.598-9.438-5.501-2.382-1.595-5.304-3.122-8.497-4.546-5.772-2.574-10.502-5.327-14.194-8.31-1.721-1.392-3.881-2.725-5.999-4.055a31.9 31.9 0 0 1-1.937-1.32l-1.62.78c.423.291.864.579 1.329.864 2.722 1.674 5.5 3.343 7.894 5.072a55.04 55.04 0 0 0 10.842 6.112l-.004-.001z" fill="url(#E)"/><path d="M62.619 39.512l34.447 9.348c11.076 2.966 22.575 5.762 35.338 7.863 3.839.632 7.849 1.153 11.842 1.665 1.88.242 3.704.511 5.448.831l3.677-.001c-3.375-.787-7.011-1.392-10.933-1.829-6.674-.744-13.073-1.719-19.06-2.969-13.25-2.768-25.802-5.86-37.58-9.33-10.249-3.02-20.827-5.921-32.091-8.49-9.875-2.253-20.393-4.108-31.914-5.262-5.817-.583-11.48-1.355-17.142-2.103l-.985-.131c.54.361 1.087.704 1.635 1.025l3.76.453 20.045 2.38c11.948 1.703 23.145 3.875 33.511 6.553l.004-.001z" fill="url(#E)"/><path d="M297.002 24.923c-3.073-2.081-6.13-4.165-7.957-6.424-1.51-1.868-2.065-3.79-2.443-5.712-.358-1.824-.392-3.655-.627-5.481-.218-1.725-.358-3.455-.807-5.174-.601-2.308-2.76-4.472-6.165-6.472-4.711-2.77-9.264-5.578-14.432-8.246-3.843-1.984-8.407-3.817-12.922-5.638-2.016-.814-3.812-1.663-5.428-2.542h-3.605c2.038 1.175 4.364 2.297 7.029 3.361 4.08 1.629 8.074 3.295 11.664 5.049 5.437 2.655 9.287 5.623 13.511 8.512 2.862 1.957 4.912 4.014 5.493 6.199.517 1.946.827 3.902 1.091 5.854.287 2.125.321 4.255.645 6.381.246 1.626.816 3.244 2.371 4.8 3.009 3.005 7.694 5.706 13.077 8.272 3.831 1.827 8.747 3.168 14.632 4.051l.694-1.117c-6.893-1.23-12.091-3.148-15.821-5.674v.001z" fill="url(#E)"/><path d="M57.889 58.146c-3.877-.799-7.667-1.647-11.28-2.574.185.538.302 1.023.374 1.45 3.379.782 6.908 1.494 10.445 2.196l5.564.005-5.104-1.077z" fill="url(#E)"/><path d="M299.49 21.079c-2.495-2.146-4.485-4.342-5.206-6.644-.521-1.659-.879-3.324-1.193-4.99l-.989-6.329c-.324-2.394-1.464-4.728-4.896-6.849-2.001-1.236-4.315-2.416-6.61-3.594-7.958-4.087-16.164-8.11-25.519-11.85a60.63 60.63 0 0 1-3.639-1.591h-2.782c1.498.768 3.148 1.51 4.968 2.219 9.43 3.675 17.229 7.736 24.692 11.884 3.141 1.744 6.368 3.466 8.169 5.44 1.227 1.343 1.929 2.718 2.103 4.123l1.087 8.992c.623 4.937 4.987 9.504 11.94 13.802 2.896 1.789 6.894 3.103 11.733 4.05l.646-1.037c-4.776-1.096-8.494-2.61-11.004-4.596-1.261-.996-2.33-2.02-3.504-3.029l.004.001z" fill="url(#E)"/></g><path d="M73.846 8.659c2.591-.256 3.419-2.802 3.509-4.043-.071 1.89 1.719 3.96 3.466 4.057-2.476.094-3.411 2.932-3.502 3.775.001.039-.001.068-.007.088l.007-.088c-.019-.647-.993-3.788-3.473-3.788z" fill="url(#F)"/><path d="M229.45 40.398c1.748-.024 2.446-1.681 2.577-2.507-.155 1.26.925 2.747 2.089 2.911-1.662-.078-2.448 1.769-2.557 2.327-.001.026-.005.046-.01.058l.01-.058c.024-.434-.45-2.591-2.109-2.732z" fill="url(#G)"/><g filter="url(#B)"><path fill="#cd9c44" fill-opacity=".3" d="M65.384 37.692h190v33.846h-190z"/></g></g><defs><filter id="B" x="26.923" y="-.769" width="266.923" height="110.769" filterUnits="userSpaceOnUse" color-interpolation-filters="sRGB"><feFlood flood-opacity="0"/><feBlend in="SourceGraphic"/><feGaussianBlur stdDeviation="19.231"/></filter><linearGradient id="C" x1="303.077" y1="22.308" x2="303.077" y2="50" href="#L"><stop stop-color="#ab750f"/><stop offset=".516" stop-color="#d8a956"/><stop offset="1" stop-color="#ab750f"/></linearGradient><linearGradient id="D" x1="16.923" y1="22.308" x2="16.923" y2="50" href="#L"><stop stop-color="#ab750f"/><stop offset=".516" stop-color="#d8a956"/><stop offset="1" stop-color="#ab750f"/></linearGradient><linearGradient id="E" x1="39.357" y1="43.821" x2="51.488" y2="-25.294" href="#L"><stop stop-color="#fff" stop-opacity="0"/><stop offset="1" stop-color="#fff"/></linearGradient><linearGradient id="F" x1="73.52" y1="8.575" x2="80.948" y2="8.575" href="#L"><stop stop-color="#ab750f"/><stop offset=".516" stop-color="#d8a956"/><stop offset="1" stop-color="#ab750f"/></linearGradient><linearGradient id="G" x1="229.236" y1="40.324" x2="234.207" y2="40.744" href="#L"><stop stop-color="#ab750f"/><stop offset=".516" stop-color="#d8a956"/><stop offset="1" stop-color="#ab750f"/></linearGradient><path id="H" d="M320 22.308h-4.615v15.385l-7.693 7.692h-21.538V50h23.45L320 39.604V22.308z"/><path id="I" d="M300 15h-5s1.216.848 1 2c-.322 1.717-3 5-3 5l7-7z"/><path id="J" d="M0 22.308h4.615v15.385l7.692 7.692h21.539V50h-23.45L0 39.604V22.308z"/><path id="K" d="M20 15h5s-1.216.848-1 2c.322 1.717 3 5 3 5l-7-7z"/><linearGradient id="L" gradientUnits="userSpaceOnUse"/></defs></svg>