<svg width="361" height="120" viewBox="0 0 361 120" fill="none" xmlns="http://www.w3.org/2000/svg">
<g id="tournament-list-free" clip-path="url(#clip0_1020_10931)">
<rect width="361" height="120" fill="#F5F1EE"/>
<rect id="Rectangle 144" y="73" width="361" height="47" fill="url(#paint0_linear_1020_10931)" fill-opacity="0.2"/>
<g id="Dust">
<g id="Group" opacity="0.35">
<path id="Vector" d="M282.038 29.3043C281.55 28.9816 280.736 29.1285 280.122 28.9792C279.234 28.7625 279.239 28.6494 280.234 28.2063L280.283 28.1991C280.492 28.3604 280.809 28.4062 281.175 28.4062C281.229 28.4856 281.341 28.5169 281.511 28.4977C281.697 28.6759 282.028 28.7385 282.394 28.7722L282.37 28.7625C282.287 28.9455 282.209 29.1309 282.126 29.3139L282.038 29.3067V29.3043Z" fill="white"/>
<path id="Vector_2" d="M228.132 26.9349C227.927 26.9638 227.722 26.9927 227.517 27.0215C227.122 27.024 226.732 27.0264 226.337 27.0312C226.113 27.0095 225.884 26.9878 225.659 26.9662C225.494 26.7615 225.445 26.5568 225.635 26.3498C226.274 26.3329 226.913 26.316 227.547 26.2992C227.737 26.3401 227.932 26.3473 228.137 26.3257C228.249 26.3979 228.395 26.4196 228.571 26.3931C228.644 26.487 228.717 26.5809 228.79 26.6748C228.571 26.7615 228.346 26.8482 228.127 26.9349H228.132Z" fill="white"/>
<path id="Vector_3" d="M219.607 1.24575C220.363 1.12295 220.866 1.39022 221.451 1.53469V1.5395C221.451 1.64063 221.446 1.73935 221.436 1.84048C221.246 1.85974 221.046 1.87419 220.846 1.88141C220.627 1.89827 220.402 1.91271 220.183 1.92716C219.993 1.99939 219.807 2.06922 219.617 2.14146C219.437 2.13664 219.251 2.13183 219.071 2.13183C219.022 2.03792 218.969 1.94401 218.9 1.85252C218.852 1.74657 218.798 1.64063 218.749 1.53469C218.857 1.48653 218.964 1.48894 219.061 1.54191C219.388 1.5082 219.52 1.39021 219.603 1.24815L219.607 1.24575Z" fill="white"/>
<path id="Vector_4" d="M247.626 72.4165C247.89 72.8234 247.734 73.0907 246.719 73.0594C246.222 73.0449 245.729 73.016 245.237 72.992L245.252 72.9992C245.154 72.7054 245.798 72.6404 245.983 72.4333C246.168 72.4815 246.324 72.4646 246.446 72.3804C246.846 72.3948 247.246 72.4093 247.646 72.4237L247.626 72.4165Z" fill="white"/>
<path id="Vector_5" d="M170.225 51.189C170.64 50.7965 171.064 50.876 171.488 51.1818C171.547 51.3407 171.766 51.425 172.063 51.4731C172.044 51.6682 172.078 51.9354 171.639 51.9716C170.942 52.0318 170.932 51.7091 170.815 51.4779C170.752 51.3166 170.527 51.2348 170.23 51.189H170.225Z" fill="white"/>
<path id="Vector_6" d="M111.022 49.2265H111.051C110.183 49.5275 109.359 49.6358 108.696 49.0893L108.676 49.0989C109.228 48.9592 109.725 48.7257 110.432 48.8581L110.344 48.8196C110.569 48.9544 110.793 49.0917 111.017 49.2265H111.022Z" fill="white"/>
<path id="Vector_7" d="M261.675 24.2791C261.665 24.1732 261.651 24.0672 261.641 23.9613C262.124 23.9228 262.66 23.942 262.928 23.6724C263.318 23.6844 263.821 23.6916 263.884 23.9059C263.982 24.2454 263.309 24.2214 262.88 24.2984C262.48 24.2912 262.08 24.2839 261.675 24.2767V24.2791Z" fill="white"/>
<path id="Vector_8" d="M221.505 86.0592C221.505 85.9292 221.505 85.7992 221.505 85.6692C221.89 85.6331 222.28 85.5969 222.665 85.5632C222.86 85.7607 223.051 85.9605 223.246 86.158L223.26 86.1483C222.87 86.235 222.48 86.3193 222.09 86.406L222.134 86.4421C221.924 86.3145 221.714 86.1869 221.51 86.0592H221.505Z" fill="white"/>
<path id="Vector_9" d="M147.736 8.14427C148.906 8.07926 150.077 7.99739 151.218 8.23336V8.31041C150.028 8.38987 148.784 8.7703 147.736 8.14427Z" fill="white"/>
<path id="Vector_10" d="M10.2684 53.5295C10.0148 53.5295 9.76126 53.5319 9.51257 53.5343C9.20048 53.2646 9.20048 52.9853 9.41992 52.7012L9.34679 52.7325C9.70276 52.7373 10.0636 52.7445 10.4195 52.7493L10.3513 52.718C10.5707 52.9925 10.5463 53.2646 10.2684 53.5271V53.5295Z" fill="white"/>
<path id="Vector_11" d="M31.261 31.3965C31.4463 31.2785 31.6023 31.1485 31.8169 31.0474C32.1192 30.9053 32.5288 30.7873 32.836 31.0064C33.114 31.2039 32.8116 31.3652 32.441 31.4711C32.0509 31.4446 31.6559 31.4206 31.2658 31.3965H31.261Z" fill="white"/>
<path id="Vector_12" d="M235.465 58.0563C235.094 58.875 234.802 58.9761 233.656 58.6751C233.856 58.5692 234.06 58.4632 234.26 58.3573V58.3597C234.451 58.2586 234.651 58.155 234.85 58.0539L234.86 58.0491C235.065 58.0491 235.265 58.0491 235.47 58.0563H235.465Z" fill="white"/>
<path id="Vector_13" d="M136.038 108.096C135.501 108.043 134.96 107.992 134.424 107.939L134.443 107.956L135.009 107.417C135.282 107.422 135.555 107.429 135.828 107.434C135.887 107.523 135.979 107.602 136.111 107.672C136.086 107.814 136.062 107.956 136.038 108.098V108.096Z" fill="white"/>
<path id="Vector_14" d="M339.676 44.2955C338.911 44.2931 338.145 44.2882 337.38 44.2858C337.302 44.1245 337.365 44.0065 337.755 43.9897C338.267 43.9752 338.857 44.0571 339.091 43.7176C339.296 43.72 339.496 43.7248 339.701 43.7272L339.671 43.7128C339.671 43.9078 339.676 44.1028 339.676 44.2979V44.2955Z" fill="white"/>
<path id="Vector_15" d="M91.0103 95.1223C90.8835 95.5052 90.2301 95.3824 89.7619 95.4377C89.5474 95.4618 89.3328 95.4883 89.1183 95.5124L89.0305 95.4209L89.1816 95.3511C89.1231 95.2885 89.1134 95.2234 89.1622 95.156C89.2889 94.8165 89.8351 94.8671 90.3178 94.8599C90.4739 94.9971 90.6543 95.1151 91.0151 95.1199L91.0103 95.1223Z" fill="white"/>
<path id="Vector_16" d="M147.735 103.109V103.013C148.116 102.96 148.496 102.907 148.876 102.854C148.989 102.917 149.125 102.943 149.296 102.936C149.393 103.128 149.496 103.319 149.598 103.511C149.179 103.507 148.764 103.502 148.345 103.497C148.145 103.367 147.94 103.239 147.74 103.109H147.735Z" fill="white"/>
<path id="Vector_17" d="M153.227 68.2292C153.388 68.2292 153.554 68.2292 153.715 68.2292C153.939 68.3232 154.163 68.4195 154.387 68.5134V68.5182C154.568 68.6603 154.743 68.8023 154.914 68.9468L154.924 68.9853C154.539 69.0335 154.153 69.084 153.768 69.1322L153.749 69.1226C153.68 68.9636 153.49 68.8625 153.163 68.8216C153.183 68.6241 153.207 68.4267 153.227 68.2292Z" fill="white"/>
<path id="Vector_18" d="M106.892 27.8571C106.526 27.7607 106.249 27.6259 106.478 27.4188C106.639 27.2695 106.965 27.3008 107.243 27.3659C107.502 27.426 107.755 27.4959 108.014 27.5633C108.023 27.662 108.038 27.7631 108.048 27.8619C107.663 27.8619 107.277 27.8619 106.892 27.8595V27.8571Z" fill="white"/>
<path id="Vector_19" d="M187.775 5.0574C187.682 4.98035 187.497 4.89608 187.521 4.83107C187.59 4.66493 187.877 4.61196 188.155 4.70586C188.268 4.74439 188.341 4.89608 188.277 4.95146C188.204 5.01407 187.951 5.02369 187.775 5.0574Z" fill="white"/>
<path id="Vector_20" d="M171.03 24.2742C171.06 24.1105 171.24 24.007 171.577 24.0311C171.898 24.0551 172.064 24.1779 171.972 24.3296C171.928 24.3995 171.747 24.4837 171.601 24.5006C171.26 24.5391 171.084 24.4308 171.03 24.2742Z" fill="white"/>
<path id="Vector_21" d="M353.72 56.5343C353.539 56.5921 353.344 56.6017 353.144 56.5608C353.003 56.58 352.866 56.5728 352.74 56.5415C352.642 56.5945 352.525 56.6041 352.398 56.5728C352.725 56.397 352.574 56.1924 352.545 55.9949C352.944 55.9853 353.344 55.9733 353.744 55.9636C353.739 56.1538 353.734 56.3417 353.73 56.5319L353.72 56.5343Z" fill="white"/>
<path id="Vector_22" d="M156.835 53.5414C156.889 53.3175 156.923 53.055 157.557 53.1032C157.957 53.1345 158.001 53.3536 158.025 53.5342C157.63 53.5366 157.235 53.539 156.835 53.5414Z" fill="white"/>
<path id="Vector_23" d="M349.458 40.4163C349.458 40.3152 349.458 40.2165 349.463 40.1154C349.897 40.1226 350.038 39.9829 350.111 39.8096C350.301 39.8096 350.492 39.8168 350.682 39.8264C350.701 40.0215 350.716 40.2165 350.735 40.4115C350.316 40.7872 349.887 40.4549 349.458 40.4163Z" fill="white"/>
<path id="Vector_24" d="M344.401 39.2366C344.27 39.292 344.138 39.398 344.006 39.398C343.65 39.398 343.499 39.2655 343.636 39.1138C343.689 39.0561 343.982 39.0031 344.123 39.0223C344.245 39.0392 344.309 39.162 344.396 39.239L344.401 39.2366Z" fill="white"/>
<path id="Vector_25" d="M335.902 10.7254C335.814 10.6508 335.634 10.5665 335.658 10.5015C335.727 10.3401 336.004 10.2872 336.278 10.3787C336.385 10.4148 336.453 10.5641 336.39 10.6195C336.317 10.6796 336.073 10.6917 335.902 10.7254Z" fill="white"/>
<path id="Vector_26" d="M326.31 46.1061C326.714 46.1013 327.119 46.0965 327.524 46.0892C327.47 46.3204 327.504 46.6214 326.797 46.5684C326.373 46.5371 326.334 46.2963 326.31 46.1061Z" fill="white"/>
<path id="Vector_27" d="M305.499 39.1183C305.396 39.0461 305.201 38.9715 305.216 38.9065C305.26 38.7403 305.533 38.6729 305.825 38.7475C305.942 38.7788 306.03 38.9305 305.977 38.9931C305.918 39.0557 305.664 39.0774 305.499 39.1183Z" fill="white"/>
<path id="Vector_28" d="M303.191 3.64157C303.591 3.65602 304.094 3.67287 304.142 3.89198C304.225 4.25075 303.606 4.21945 303.118 4.2339C303.143 4.03645 303.167 3.83901 303.187 3.63916L303.191 3.64157Z" fill="white"/>
<path id="Vector_29" d="M301.1 99.5479C301.041 99.6129 301.012 99.7285 300.895 99.7598C300.631 99.8321 300.363 99.7791 300.285 99.6346C300.251 99.572 300.358 99.4444 300.475 99.4155C300.729 99.3529 300.983 99.3866 301.1 99.5479Z" fill="white"/>
<path id="Vector_30" d="M127.45 4.23631C127.709 3.94256 128.226 3.9257 128.772 3.94496C128.67 4.40727 128.372 4.6625 127.45 4.23631Z" fill="white"/>
<path id="Vector_31" d="M125.719 75.6958C126.119 75.6934 126.621 75.7054 126.695 75.9125C126.817 76.2472 126.231 76.2712 125.734 76.2929L125.719 75.6934V75.6958Z" fill="white"/>
<path id="Vector_32" d="M277.625 119.36C277.103 119.386 276.626 119.364 276.343 119.102C276.577 118.991 276.806 118.88 277.04 118.77C277.391 118.767 277.737 118.765 278.088 118.762C278.142 118.859 278.171 118.957 278.171 119.056L278.157 119.066C277.981 119.165 277.806 119.261 277.63 119.36H277.625Z" fill="white"/>
<path id="Vector_33" d="M108.058 58.6123C108.058 58.8242 108.058 59.0361 108.053 59.2504C107.648 59.2432 107.243 59.2383 106.843 59.2311L106.878 58.7255C107.273 58.6869 107.668 58.6508 108.062 58.6123H108.058Z" fill="white"/>
<path id="Vector_34" d="M262.318 23.6698C261.792 23.6722 261.309 23.6337 261.055 23.3688C262.055 22.8896 262.187 23.2821 262.318 23.6698Z" fill="white"/>
<path id="Vector_35" d="M103.239 25.3482C103.239 25.2254 103.239 25.1001 103.239 24.9773C103.615 24.9509 103.995 24.9244 104.371 24.8955L104.332 24.8762C104.341 25.0713 104.351 25.2639 104.356 25.4589L104.38 25.4469C104 25.4156 103.62 25.3819 103.239 25.3482Z" fill="white"/>
<path id="Vector_36" d="M254.375 77.7786C254.444 77.5571 254.458 77.2152 255.063 77.3043C255.726 77.403 255.419 77.6414 254.975 77.7907C254.775 77.7883 254.575 77.7834 254.375 77.7762V77.7786Z" fill="white"/>
<path id="Vector_37" d="M99.6653 38.2998C99.7774 38.2348 99.8701 38.1265 100.002 38.1096C100.363 38.0687 100.572 38.1842 100.548 38.348C100.524 38.5165 100.236 38.5839 99.9384 38.5286C99.8067 38.5045 99.7531 38.3793 99.6653 38.2998Z" fill="white"/>
<path id="Vector_38" d="M98.9487 69.5222C99.0657 69.5872 99.2754 69.6522 99.2754 69.7173C99.2754 69.893 99.0023 69.9628 98.6951 69.8978C98.5781 69.8714 98.4708 69.7269 98.5098 69.6595C98.5439 69.5993 98.7975 69.568 98.9487 69.5246V69.5222Z" fill="white"/>
<path id="Vector_39" d="M246.632 61.0467C246.715 60.895 246.934 60.8228 247.217 60.8733C247.334 60.895 247.461 61.0154 247.451 61.0852C247.422 61.2417 247.159 61.3019 246.881 61.2562C246.764 61.2369 246.715 61.1189 246.632 61.0467Z" fill="white"/>
<path id="Vector_40" d="M92.8967 39.4025C92.7407 39.3688 92.5017 39.3568 92.4335 39.299C92.2872 39.1666 92.3896 39.0317 92.6968 38.9956C92.8333 38.9787 93.0967 39.0317 93.1601 39.0919C93.3064 39.2244 93.1795 39.3399 92.8918 39.4049L92.8967 39.4025Z" fill="white"/>
<path id="Vector_41" d="M238.421 83.7574C238.021 83.7646 237.621 83.7694 237.217 83.7766C237.304 83.584 237.387 83.3914 237.475 83.1963C237.646 83.2108 237.792 83.1867 237.919 83.1289C238.119 83.1458 238.319 83.1602 238.514 83.1722C238.48 83.3673 238.45 83.5623 238.421 83.7574Z" fill="white"/>
<path id="Vector_42" d="M90.3561 20.0823C90.3707 19.8848 90.3853 19.685 90.4 19.4875C90.7852 19.4875 91.1655 19.4875 91.5459 19.4875C91.5459 19.685 91.5459 19.88 91.5459 20.0775C91.1509 20.0775 90.7559 20.0823 90.3609 20.0847L90.3561 20.0823Z" fill="white"/>
<path id="Vector_43" d="M236.777 59.2482C236.719 59.5106 236.694 59.7779 236.065 59.8862L236.007 59.8525C235.826 59.7514 235.651 59.6479 235.47 59.5467L235.48 59.4071V59.2674C235.695 59.1639 235.914 59.0628 236.129 58.9592C236.343 59.0555 236.563 59.1519 236.777 59.2482Z" fill="white"/>
<path id="Vector_44" d="M89.6637 10.2365C89.693 10.4292 89.7271 10.6194 89.7563 10.8096C89.3662 10.812 88.8396 10.8265 88.747 10.629C88.5909 10.304 89.1663 10.2654 89.6637 10.2341V10.2365Z" fill="white"/>
<path id="Vector_45" d="M87.1431 41.312C87.0114 41.3698 86.8797 41.4758 86.7481 41.4758C86.3872 41.4758 86.2361 41.3433 86.3726 41.1892C86.4262 41.129 86.7237 41.0785 86.87 41.0953C86.9919 41.1098 87.0553 41.235 87.1431 41.312Z" fill="white"/>
<path id="Vector_46" d="M76.3464 86.4229C76.8389 86.4542 77.4972 86.341 77.5508 86.7551L77.5605 86.7503C77.2728 86.8394 76.99 86.9309 76.7023 87.02H76.5756C76.3805 86.8442 76.1854 86.6709 75.9904 86.4951C76.1513 86.5216 76.2683 86.4951 76.3464 86.4229Z" fill="white"/>
<path id="Vector_47" d="M76.2594 34.7531C76.2887 34.9457 76.3179 35.1359 76.3423 35.3285C75.9522 35.3285 75.4256 35.343 75.3329 35.1455C75.1818 34.8205 75.762 34.7844 76.2545 34.7531H76.2594Z" fill="white"/>
<path id="Vector_48" d="M72.6747 40.4163C72.7479 40.1924 72.743 39.8456 73.3672 39.9347C74.0352 40.031 73.7378 40.2766 73.3087 40.4404C73.099 40.4331 72.8844 40.4259 72.6747 40.4187V40.4163Z" fill="white"/>
<path id="Vector_49" d="M47.0454 111.532C46.8357 111.633 46.6358 111.744 46.4164 111.838C46.1579 111.948 45.8361 111.939 45.6215 111.833C45.1631 111.611 45.7044 111.488 45.9141 111.37C46.2262 111.195 46.6504 111.315 47.0308 111.344C46.9918 111.407 46.9966 111.472 47.0454 111.534V111.532Z" fill="white"/>
<path id="Vector_50" d="M265.966 116.983C266.361 116.978 266.761 116.973 267.156 116.969C267.181 117.2 267.083 117.404 266.659 117.542C266.425 117.443 266.191 117.344 265.952 117.243L265.971 117.113V116.983H265.966Z" fill="white"/>
<path id="Vector_51" d="M245.184 87.0561L245.857 86.9983C246.008 87.044 246.174 87.0729 246.349 87.0802C246.378 87.162 246.403 87.2439 246.422 87.3258C246.183 87.4293 245.944 87.5352 245.701 87.6388C245.598 87.6171 245.491 87.6171 245.384 87.634C245.315 87.4413 245.247 87.2487 245.184 87.0561Z" fill="white"/>
<path id="Vector_52" d="M133.682 79.8808C133.468 79.9843 133.253 80.0902 133.038 80.1938L132.424 79.8832L132.434 79.8783C132.634 79.7796 132.834 79.6809 133.029 79.5822L133.043 79.575C133.248 79.575 133.453 79.5798 133.658 79.5798C133.672 79.6785 133.677 79.7772 133.682 79.8759V79.8808Z" fill="white"/>
<path id="Vector_53" d="M223.869 108.286C224.332 108.406 224.674 108.587 224.167 108.794C223.855 108.919 223.494 108.768 223.284 108.599C223.479 108.493 223.674 108.39 223.869 108.284V108.286Z" fill="white"/>
<path id="Vector_54" d="M119.059 65.5157C119.034 65.2653 118.8 64.9667 119.644 64.9233L119.658 64.9282C119.849 65.0389 120.039 65.1473 120.229 65.258C120.229 65.3375 120.229 65.4169 120.229 65.4964C119.834 65.4988 119.439 65.5036 119.044 65.506L119.059 65.5181V65.5157Z" fill="white"/>
<path id="Vector_55" d="M116.557 105.895C117.074 105.861 117.489 105.936 117.781 106.155C117.572 106.266 117.357 106.379 117.147 106.49C116.991 106.48 116.835 106.478 116.679 106.485C116.64 106.29 116.596 106.092 116.557 105.897V105.895Z" fill="white"/>
<path id="Vector_56" d="M114.758 56.2695C114.826 56.1347 114.831 55.906 114.977 55.8819C115.597 55.7783 115.753 56.0504 115.972 56.2527C115.567 56.2599 115.163 56.2647 114.758 56.2695Z" fill="white"/>
<path id="Vector_57" d="M8.06967 11.1105C8.28423 10.9203 8.62067 10.7759 8.99127 10.9564C9.36186 11.137 9.07416 11.3008 8.68406 11.4091C8.47925 11.3104 8.27447 11.2093 8.06967 11.1105Z" fill="white"/>
<path id="Vector_58" d="M331.207 19.485C331.411 19.485 331.616 19.4826 331.821 19.4802C332.016 19.5838 332.206 19.6873 332.396 19.7884C332.172 20.0653 331.694 20.0846 331.187 20.0798C331.192 19.8823 331.202 19.6825 331.207 19.485Z" fill="white"/>
<path id="Vector_59" d="M327.467 2.24486L327.486 2.37007C327.282 2.49046 327.077 2.61326 326.872 2.73365C326.721 2.7192 326.565 2.7168 326.414 2.72643C326.375 2.53139 326.336 2.33636 326.297 2.14132V2.13892C326.691 2.17503 327.082 2.21115 327.467 2.24727V2.24486Z" fill="white"/>
<path id="Vector_60" d="M304.981 61.6101C304.966 61.4006 305.079 61.2152 305.391 61.0684C305.639 61.1839 305.888 61.2995 306.142 61.4151L306.127 61.5451C305.742 61.5668 305.361 61.586 304.981 61.6077V61.6101Z" fill="white"/>
<path id="Vector_61" d="M182.148 86.9188C182.07 86.8418 181.909 86.7575 181.933 86.6925C181.992 86.5336 182.26 86.4782 182.543 86.5552C182.631 86.5793 182.675 86.7286 182.611 86.7792C182.523 86.8466 182.309 86.8755 182.148 86.9212V86.9188Z" fill="white"/>
<path id="Vector_62" d="M76.9714 35.3312C77.1664 35.2228 77.3664 35.1145 77.5614 35.0061C77.776 35.0133 77.9856 35.0205 78.2002 35.0302C78.1807 35.2276 78.1612 35.4251 78.1417 35.6249C77.6541 35.6177 77.1957 35.5888 76.9714 35.3312Z" fill="white"/>
<path id="Vector_63" d="M6.80148 22.7791C6.85512 22.584 6.90876 22.3914 6.95752 22.1964C7.07455 22.2156 7.19645 22.2156 7.31348 22.194C7.5573 22.2999 7.80599 22.4035 8.0498 22.5094C8.03518 22.5792 8.03517 22.6515 8.04492 22.7213C7.64507 22.7454 7.24035 22.7694 6.8405 22.7935L6.80148 22.7791Z" fill="white"/>
<path id="Vector_64" d="M76.9759 42.5041C77.0003 42.6028 77.0003 42.7015 76.9711 42.8002C76.5858 42.8002 76.4054 42.9014 76.4005 43.0868C76.3176 43.1229 76.2299 43.159 76.1421 43.1951C76.0202 43.1542 75.8836 43.1277 75.7422 43.1133C75.7569 42.9375 75.7764 42.7641 75.791 42.5884C76.186 42.5595 76.5761 42.5282 76.9711 42.4993L76.9808 42.5065L76.9759 42.5041Z" fill="white"/>
<path id="Vector_65" d="M74.4751 78.3951C74.7141 78.583 75.1871 78.7106 75.1188 78.9802C74.2411 79.022 73.8721 78.831 74.0119 78.4072C74.1679 78.4289 74.324 78.424 74.4751 78.3951Z" fill="white"/>
<path id="Vector_66" d="M172.717 69.9484C172.551 69.9074 172.303 69.8882 172.244 69.8232C172.19 69.763 172.332 69.6594 172.39 69.5728C172.556 69.6209 172.756 69.6522 172.873 69.7196C173.049 69.8159 172.971 69.905 172.717 69.9484Z" fill="white"/>
<path id="Vector_67" d="M284.838 70.5962C285.062 70.7045 285.291 70.8105 285.516 70.9188C285.496 71.0176 285.481 71.1139 285.472 71.2126H284.838C284.638 71.1163 284.438 71.02 284.238 70.9237L284.219 70.914C284.428 70.8081 284.633 70.7021 284.843 70.5962H284.838Z" fill="white"/>
<path id="Vector_68" d="M167.207 102.608C167.607 102.755 167.997 102.943 167.402 103.131C167.061 103.239 166.715 103.083 166.573 102.89C166.783 102.796 166.998 102.702 167.207 102.608Z" fill="white"/>
<path id="Vector_69" d="M15.9098 18.2739C15.7391 18.2642 15.5733 18.2667 15.4026 18.2835C15.2125 18.1439 15.0272 18.0042 14.837 17.8645C15.0223 17.7947 15.2076 17.7273 15.3929 17.6575C15.5928 17.6671 15.7927 17.6767 15.9927 17.6912V17.6888C15.9634 17.8838 15.9341 18.0788 15.9098 18.2739Z" fill="white"/>
<path id="Vector_70" d="M161.726 31.1462C162.106 31.2522 162.379 31.4159 162.033 31.5941C161.682 31.7747 161.341 31.6374 161.106 31.4641C161.311 31.3581 161.521 31.2522 161.726 31.1462Z" fill="white"/>
<path id="Vector_71" d="M47.645 24.2766L47.7376 23.6794C48.3862 23.9034 48.4837 24.108 47.645 24.2766Z" fill="white"/>
<path id="Vector_72" d="M48.3621 87.3475C48.3621 87.1861 48.445 87.0224 48.8497 87.0706C49.3373 87.1259 49.1276 87.2656 48.9131 87.3836C48.7326 87.3643 48.5474 87.3523 48.3621 87.3475Z" fill="white"/>
<path id="Vector_73" d="M347.654 38.6322C348.054 38.6322 348.449 38.6274 348.848 38.625C348.868 38.7237 348.873 38.8224 348.853 38.9212C348.639 38.9212 348.424 38.9212 348.205 38.9212C348.019 38.9284 347.834 38.9212 347.654 38.8923V38.7622V38.6322Z" fill="white"/>
<path id="Vector_74" d="M342.773 37.4211C342.763 37.6185 342.758 37.8184 342.749 38.0158C342.573 38.0158 342.397 38.0158 342.222 38.011C342.202 37.8136 342.183 37.6185 342.163 37.4211C342.368 37.4163 342.568 37.4163 342.773 37.4211Z" fill="white"/>
<path id="Vector_75" d="M341.524 9.62009C341.529 9.81753 341.539 10.015 341.548 10.2148C341.339 10.2148 341.124 10.2148 340.914 10.2148C340.944 10.0174 340.973 9.81993 341.002 9.62249C341.178 9.62249 341.353 9.62008 341.529 9.61768L341.524 9.62009Z" fill="white"/>
<path id="Vector_76" d="M336.77 32.4586C337.15 32.4153 337.526 32.3695 337.906 32.3262C337.96 33.0196 337.209 32.5332 336.775 32.514V32.4586H336.77Z" fill="white"/>
<path id="Vector_77" d="M334.805 54.4731C334.732 54.6537 334.658 54.8343 334.585 55.0149L334.512 55.0317C334.434 54.8463 334.361 54.6609 334.288 54.4755C334.463 54.4707 334.634 54.4707 334.81 54.4755L334.805 54.4731Z" fill="white"/>
<path id="Vector_78" d="M326.354 54.0736C326.802 53.9268 327.261 53.7534 327.524 54.1651C327.134 54.1338 326.744 54.1025 326.354 54.0736Z" fill="white"/>
<path id="Vector_79" d="M317.693 20.9923C317.723 21.1874 317.757 21.3824 317.786 21.5774H317.133C317.167 21.38 317.201 21.1825 317.235 20.9851C317.386 20.9923 317.537 20.9947 317.693 20.9923Z" fill="white"/>
<path id="Vector_80" d="M314.1 35.9304C314.1 36.1303 314.11 36.3277 314.11 36.5252H313.495C313.51 36.3277 313.52 36.1279 313.53 35.9304C313.72 35.9304 313.91 35.9304 314.095 35.9304H314.1Z" fill="white"/>
<path id="Vector_81" d="M306.8 66.4065C307.244 66.0862 307.659 66.0164 308.015 66.4402C307.61 66.4282 307.205 66.4185 306.8 66.4065Z" fill="white"/>
<path id="Vector_82" d="M304.274 16.208C304.245 16.4247 304.006 16.5451 303.572 16.5042C303.285 16.4777 303.167 16.3453 303.172 16.2008C303.538 16.2008 303.904 16.2056 304.274 16.208Z" fill="white"/>
<path id="Vector_83" d="M298.94 119.938C299.052 119.675 299.325 119.511 299.827 119.73C300.013 119.812 299.715 119.945 299.476 120C299.306 119.964 299.125 119.942 298.94 119.938Z" fill="white"/>
<path id="Vector_84" d="M298.16 44.0209L298.243 44.5963C298.028 44.5963 297.818 44.6011 297.604 44.6011C297.648 44.4037 297.692 44.2087 297.74 44.0112C297.877 44.0209 298.018 44.0233 298.16 44.0209Z" fill="white"/>
<path id="Vector_85" d="M290.942 18.5869C290.908 18.7771 290.874 18.9697 290.84 19.1599C290.703 19.1599 290.567 19.1624 290.43 19.172L290.304 18.5845C290.518 18.5845 290.733 18.5845 290.947 18.5845L290.942 18.5869Z" fill="white"/>
<path id="Vector_86" d="M289.085 15.9023C289.099 16.0998 289.109 16.2972 289.124 16.4947C288.924 16.4995 288.724 16.4971 288.519 16.4923C288.538 16.2972 288.558 16.0998 288.577 15.9048C288.748 15.9048 288.914 15.9048 289.085 15.9048V15.9023Z" fill="white"/>
<path id="Vector_87" d="M286.067 25.7623C286.471 25.7623 286.876 25.7623 287.281 25.7647C287.281 25.8586 287.281 25.9525 287.281 26.0465C286.876 26.0489 286.471 26.0513 286.071 26.0561V25.9092V25.7623H286.067Z" fill="white"/>
<path id="Vector_88" d="M286.681 71.8097C286.686 71.9108 286.695 72.012 286.705 72.1155C286.291 72.1131 285.876 72.1107 285.462 72.1083C285.442 72.0095 285.462 71.9132 285.525 71.8193C285.91 71.8169 286.295 71.8121 286.686 71.8097H286.681Z" fill="white"/>
<path id="Vector_89" d="M281.804 73.3097C282.209 73.3097 282.614 73.3049 283.019 73.3025C282.624 73.6468 282.214 73.642 281.804 73.3097Z" fill="white"/>
<path id="Vector_90" d="M280.614 14.0964C280.561 14.2867 280.502 14.4769 280.448 14.6695C280.336 14.6623 280.224 14.6647 280.112 14.6815L279.917 14.0988C280.151 14.0988 280.38 14.0988 280.614 14.0964Z" fill="white"/>
<path id="Vector_91" d="M273.261 2.73621C273.666 2.73861 274.071 2.74343 274.471 2.74584C274.056 3.06849 273.651 3.07812 273.261 2.73621Z" fill="white"/>
<path id="Vector_92" d="M274.455 100.822C274.382 101.241 273.816 101.154 273.28 101.096C273.334 100.918 273.587 100.831 273.889 100.761C274.08 100.788 274.275 100.81 274.475 100.826L274.46 100.819L274.455 100.822Z" fill="white"/>
<path id="Vector_93" d="M267.224 47.5941C266.81 47.5845 266.395 47.5749 265.976 47.5652C266.424 47.2474 266.839 47.2546 267.224 47.5941Z" fill="white"/>
<path id="Vector_94" d="M266.341 116.109C266.424 116.33 266.839 116.61 265.947 116.665V116.663C266.025 116.473 266.103 116.285 266.185 116.094L266.341 116.109Z" fill="white"/>
<path id="Vector_95" d="M64.1859 88.2481C64.1761 88.0506 64.1615 87.8532 64.1517 87.6558H64.7905C64.7661 87.8532 64.7418 88.0506 64.7174 88.2481C64.5419 88.2481 64.3614 88.2481 64.1859 88.2481Z" fill="white"/>
<path id="Vector_96" d="M254.985 115.48C255.375 115.488 255.77 115.497 256.16 115.505C256.16 115.584 256.169 115.661 256.184 115.74C255.779 115.762 255.37 115.784 254.965 115.803C254.97 115.695 254.98 115.586 254.985 115.478V115.48Z" fill="white"/>
<path id="Vector_97" d="M253.761 16.4922C253.761 16.692 253.756 16.8919 253.751 17.0893C253.561 17.0893 253.371 17.0893 253.18 17.0869L253.151 16.4946C253.356 16.4946 253.556 16.4946 253.761 16.4946V16.4922Z" fill="white"/>
<path id="Vector_98" d="M243.403 2.15356L244.598 2.15356C244.198 2.50511 243.803 2.50511 243.403 2.15356Z" fill="white"/>
<path id="Vector_99" d="M242.253 4.51798C242.209 4.42649 242.17 4.33499 242.121 4.24349C242.038 4.07976 242.243 3.98826 242.468 3.89917C242.599 4.01234 242.775 4.12069 242.848 4.24108C242.897 4.32295 242.804 4.42408 242.77 4.51557C242.594 4.50354 242.424 4.50354 242.248 4.51557L242.253 4.51798Z" fill="white"/>
<path id="Vector_100" d="M233.631 38.9187C233.631 39.1186 233.631 39.316 233.631 39.5134C233.436 39.5134 233.246 39.5134 233.056 39.5134C233.051 39.316 233.046 39.1161 233.041 38.9187C233.241 38.9187 233.441 38.9187 233.636 38.9187H233.631Z" fill="white"/>
<path id="Vector_101" d="M231.807 88.2505C232.207 88.2577 232.612 88.2674 233.012 88.2746C233.002 88.3492 232.997 88.4239 233.002 88.4985C232.607 88.5154 232.207 88.5346 231.812 88.5515C231.812 88.4503 231.812 88.3516 231.802 88.2505H231.807Z" fill="white"/>
<path id="Vector_102" d="M68.4321 73.6132C68.0274 73.6035 67.6227 73.5963 67.2179 73.5867C67.6519 73.252 68.0615 73.2111 68.4321 73.6132Z" fill="white"/>
<path id="Vector_103" d="M68.0239 69.9701C67.9654 69.7871 67.9069 69.6065 67.8532 69.4235C68.0288 69.4187 68.2092 69.4163 68.3848 69.4235C68.3165 69.6113 68.2531 69.7967 68.1848 69.9845L68.0288 69.9701H68.0239Z" fill="white"/>
<path id="Vector_104" d="M229.472 -0.129144C229.643 -0.167669 229.818 -0.206194 229.989 -0.244719C230.326 -0.324178 230.608 -0.215827 230.608 -0.100251C230.608 0.0129168 230.33 0.121271 229.994 0.0369969C229.823 -0.00634409 229.648 -0.0400527 229.477 -0.078578V-0.129144H229.472Z" fill="white"/>
<path id="Vector_105" d="M228.887 39.0127C229.253 38.9814 229.613 38.9501 229.979 38.9188C229.999 39.0175 229.979 39.1139 229.916 39.2102C229.516 39.2174 229.165 39.1596 228.887 39.0127Z" fill="white"/>
<path id="Vector_106" d="M228.141 8.12253C228.136 8.31997 228.126 8.51501 228.121 8.71245C227.955 8.71245 227.785 8.71004 227.619 8.71004C227.609 8.51501 227.599 8.31997 227.59 8.12735C227.77 8.12012 227.955 8.12012 228.136 8.12494L228.141 8.12253Z" fill="white"/>
<path id="Vector_107" d="M226.931 97.8287C227.131 97.5325 227.633 97.5397 228.131 97.5397L228.121 97.5349C228.121 97.6216 228.126 97.7059 228.136 97.7926C227.736 97.8046 227.331 97.8166 226.931 97.8287Z" fill="white"/>
<path id="Vector_108" d="M227.517 108.293C227.521 108.491 227.526 108.688 227.531 108.885C227.331 108.89 227.131 108.89 226.931 108.885C226.946 108.688 226.961 108.491 226.97 108.291C227.151 108.291 227.331 108.291 227.512 108.291L227.517 108.293Z" fill="white"/>
<path id="Vector_109" d="M225.112 49.6914C225.517 49.689 225.917 49.6842 226.322 49.6818C225.932 50.0622 225.527 50.0598 225.112 49.6914Z" fill="white"/>
<path id="Vector_110" d="M223.391 49.9586C223.518 49.6384 223.986 49.6288 224.503 49.6673C224.401 50.014 223.869 49.9634 223.391 49.9586Z" fill="white"/>
<path id="Vector_111" d="M222.055 3.63662C222.455 3.261 222.865 3.27063 223.274 3.6318C222.87 3.6318 222.46 3.63421 222.055 3.63662Z" fill="white"/>
<path id="Vector_112" d="M211.128 55.7158C211.474 55.7086 212.078 55.5545 212.098 55.7567C212.137 56.1372 211.479 55.8723 211.128 55.9036V55.8097V55.7158Z" fill="white"/>
<path id="Vector_113" d="M208.665 17.4118C209.065 17.4046 209.464 17.3998 209.859 17.3926C209.489 17.8067 209.084 17.7441 208.665 17.4118Z" fill="white"/>
<path id="Vector_114" d="M204.325 41.9189C204.34 42.1164 204.359 42.3114 204.374 42.5088C204.169 42.5088 203.964 42.5088 203.76 42.5088C203.774 42.3114 203.784 42.1139 203.803 41.9165C203.979 41.9165 204.155 41.9165 204.325 41.9189Z" fill="white"/>
<path id="Vector_115" d="M195.841 9.31689C196.246 9.31689 196.65 9.3169 197.055 9.3193C197.055 9.41321 197.055 9.50952 197.055 9.60343C196.65 9.60824 196.246 9.61547 195.836 9.62028C195.836 9.51915 195.836 9.41802 195.836 9.31689H195.841Z" fill="white"/>
<path id="Vector_116" d="M193.793 53.6234C193.861 53.8039 193.929 53.9845 193.993 54.1651C193.817 54.1651 193.646 54.1627 193.471 54.1603C193.534 53.9749 193.593 53.7871 193.656 53.6017L193.793 53.6234Z" fill="white"/>
<path id="Vector_117" d="M190.95 74.5041L190.964 75.0988C190.76 75.0988 190.555 75.0988 190.35 75.0988C190.355 74.899 190.36 74.7016 190.365 74.5017C190.56 74.5017 190.755 74.5017 190.95 74.5017V74.5041Z" fill="white"/>
<path id="Vector_118" d="M188.517 75.0891C188.892 75.0987 189.272 75.106 189.648 75.1156C189.243 75.4358 188.858 75.496 188.517 75.0891Z" fill="white"/>
<path id="Vector_119" d="M184.864 75.708C185.201 75.277 185.62 75.3781 186.074 75.6598C185.669 75.6767 185.269 75.6911 184.864 75.708Z" fill="white"/>
<path id="Vector_120" d="M184.834 54.772C184.878 54.9526 184.917 55.2222 184.507 55.2126C184.171 55.2054 184.195 54.9188 184.239 54.7358C184.434 54.7575 184.634 54.7696 184.834 54.7744V54.772Z" fill="white"/>
<path id="Vector_121" d="M182.425 56.857C182.796 56.4958 183.205 56.5367 183.629 56.8329C183.23 56.8401 182.825 56.8497 182.425 56.857Z" fill="white"/>
<path id="Vector_122" d="M183.649 72.4068C183.645 72.6043 183.64 72.8041 183.635 73.0016C183.454 73.0016 183.274 73.0016 183.094 72.9968C183.069 72.7993 183.04 72.6019 183.016 72.4044C183.225 72.4044 183.44 72.4044 183.649 72.4044V72.4068Z" fill="white"/>
<path id="Vector_123" d="M173.175 72.4261C172.78 72.7728 172.404 72.7873 172.063 72.4069C172.434 72.4141 172.804 72.4213 173.175 72.4261Z" fill="white"/>
<path id="Vector_124" d="M168.504 37.2573C168.943 37.1923 169.499 36.9323 169.601 37.4187L169.616 37.4114C169.235 37.3681 168.86 37.3223 168.48 37.279L168.504 37.2573Z" fill="white"/>
<path id="Vector_125" d="M167.875 51.2107C168.255 51.2011 168.63 51.1914 169.011 51.1842C169.016 51.2901 169.021 51.3937 169.025 51.4996C168.469 51.5719 167.992 51.5671 167.875 51.2131V51.2107Z" fill="white"/>
<path id="Vector_126" d="M169.006 84.3691C169.006 84.5665 169.001 84.764 168.996 84.9614C168.811 84.9614 168.626 84.9638 168.435 84.9614C168.421 84.764 168.406 84.5641 168.391 84.3643C168.596 84.3643 168.801 84.3643 169.001 84.3667L169.006 84.3691Z" fill="white"/>
<path id="Vector_127" d="M168.328 19.4995C168.357 19.6945 168.387 19.8895 168.416 20.0822C168.211 20.0822 168.002 20.0822 167.797 20.0822C167.831 19.8871 167.87 19.6921 167.904 19.4971C168.045 19.5043 168.187 19.5043 168.333 19.4995H168.328Z" fill="white"/>
<path id="Vector_128" d="M166.587 101.686C166.568 101.891 166.548 102.093 166.529 102.298C166.368 102.295 166.207 102.295 166.046 102.298C166.027 102.103 166.012 101.908 165.992 101.713C166.188 101.705 166.387 101.698 166.587 101.686Z" fill="white"/>
<path id="Vector_129" d="M162.926 9.30236C163.34 8.98694 163.745 8.97008 164.135 9.31199C163.731 9.30959 163.326 9.30477 162.926 9.30236Z" fill="white"/>
<path id="Vector_130" d="M164.139 47.2907C163.72 47.2787 163.3 47.2666 162.881 47.2546C162.901 47.1776 162.901 47.1029 162.881 47.0259C163.3 47.0138 163.72 47.0018 164.139 46.9897C164.139 47.0909 164.139 47.1896 164.139 47.2907Z" fill="white"/>
<path id="Vector_131" d="M161.696 4.23145C162.096 4.23867 162.501 4.24348 162.9 4.25311C162.9 4.33498 162.9 4.41685 162.9 4.49871C162.501 4.51075 162.101 4.5252 161.696 4.53724C161.696 4.43611 161.696 4.33257 161.696 4.23145Z" fill="white"/>
<path id="Vector_132" d="M161.701 73.0088C162.106 73.0088 162.505 73.0112 162.91 73.0136C162.91 73.1027 162.91 73.1894 162.91 73.2785L161.711 73.2905V73.1509V73.0112L161.701 73.0088Z" fill="white"/>
<path id="Vector_133" d="M161.092 106.793C161.092 106.993 161.082 107.19 161.077 107.39C160.882 107.39 160.692 107.39 160.497 107.39C160.497 107.193 160.487 106.993 160.487 106.796C160.687 106.793 160.892 106.793 161.092 106.796V106.793Z" fill="white"/>
<path id="Vector_134" d="M157.41 13.5065C157.381 13.6967 157.352 13.8869 157.318 14.0771C157.171 14.0771 157.025 14.082 156.879 14.094C156.835 13.8942 156.791 13.6967 156.752 13.4993C156.971 13.4993 157.191 13.5041 157.41 13.5065Z" fill="white"/>
<path id="Vector_135" d="M79.4043 17.3951C79.0191 17.3734 78.6338 17.3541 78.2486 17.3325C78.6924 17.0989 79.102 17.0098 79.4043 17.3951Z" fill="white"/>
<path id="Vector_136" d="M143.468 36.2894C143.858 36.2677 144.244 36.246 144.634 36.2244V36.2268C144.634 36.3279 144.634 36.429 144.639 36.5277V36.5302C144.239 36.5061 143.844 36.4796 143.449 36.4555L143.473 36.3736V36.2894H143.468Z" fill="white"/>
<path id="Vector_137" d="M142.791 12.3074C142.791 12.5072 142.796 12.7047 142.801 12.9021C142.606 12.9021 142.406 12.9021 142.211 12.9021C142.216 12.7047 142.225 12.5072 142.23 12.3098C142.416 12.3098 142.606 12.3074 142.796 12.3098L142.791 12.3074Z" fill="white"/>
<path id="Vector_138" d="M139.188 102.64C139.734 102.743 139.826 102.955 139.763 103.208C139.539 103.208 139.314 103.213 139.09 103.215C139.129 103.015 139.163 102.818 139.202 102.618L139.188 102.64Z" fill="white"/>
<path id="Vector_139" d="M81.2235 31.4447C81.2528 31.2497 81.282 31.0571 81.3113 30.862C81.4527 30.8692 81.5893 30.8693 81.7307 30.8596C81.7746 31.0547 81.8184 31.2521 81.8623 31.4471L81.8428 31.4544C81.638 31.4544 81.4283 31.4495 81.2235 31.4471V31.4447Z" fill="white"/>
<path id="Vector_140" d="M137.32 0.0369225C137.739 -0.283319 138.144 -0.302581 138.534 0.0489624C138.129 0.0441467 137.725 0.0417381 137.32 0.0369225Z" fill="white"/>
<path id="Vector_141" d="M132.497 6.67543C132.887 6.65617 133.277 6.6345 133.667 6.61523L133.677 6.62246C133.667 6.72359 133.663 6.82231 133.653 6.92344C133.18 6.93788 132.751 6.90417 132.502 6.67543H132.497Z" fill="white"/>
<path id="Vector_142" d="M133.019 4.83582C133.014 5.03086 133.009 5.22589 133.004 5.42093C132.839 5.42334 132.668 5.42334 132.502 5.42093C132.492 5.22589 132.483 5.02845 132.468 4.83342C132.653 4.82619 132.834 4.8286 133.019 4.83342V4.83582Z" fill="white"/>
<path id="Vector_143" d="M133.063 66.7219C133.034 66.9073 133.01 67.0951 132.981 67.2805C132.464 67.1746 132.366 66.9627 132.395 66.7195C132.62 66.7195 132.844 66.7195 133.063 66.7219Z" fill="white"/>
<path id="Vector_144" d="M128.1 3.05151C128.153 3.2321 128.217 3.52104 127.856 3.51863C127.485 3.51622 127.568 3.2321 127.631 3.05151C127.787 3.05151 127.948 3.05151 128.104 3.05151H128.1Z" fill="white"/>
<path id="Vector_145" d="M123.949 18.0259C124.344 18.0067 124.739 17.9874 125.134 17.9681C124.812 18.3582 124.403 18.31 123.949 18.0259Z" fill="white"/>
<path id="Vector_146" d="M122.676 67.9163C123.076 67.9259 123.476 67.9331 123.876 67.9427C123.447 68.2485 123.047 68.2678 122.676 67.9163Z" fill="white"/>
<path id="Vector_147" d="M119.044 25.1219C119.502 24.8643 119.941 24.7294 120.249 25.1845C119.849 25.1628 119.444 25.1436 119.044 25.1219Z" fill="white"/>
<path id="Vector_148" d="M116.991 48.232C117.176 48.4608 117.547 48.7232 116.615 48.7642L116.635 48.7762C116.703 48.5908 116.776 48.4078 116.844 48.2224L116.986 48.232H116.991Z" fill="white"/>
<path id="Vector_149" d="M111.071 96.3335C111.081 96.5309 111.091 96.7284 111.096 96.9258C110.384 96.7356 110.398 96.5382 111.071 96.3335Z" fill="white"/>
<path id="Vector_150" d="M109.062 47.0356C109.116 47.1271 109.16 47.2186 109.223 47.3077C109.345 47.4883 109.169 47.5581 108.838 47.5292C108.589 47.5075 108.565 47.4136 108.682 47.3029C108.769 47.221 108.804 47.1247 108.862 47.0332H109.057L109.062 47.0356Z" fill="white"/>
<path id="Vector_151" d="M108.043 27.8596C108.053 27.9607 108.058 28.0618 108.067 28.163C107.858 28.1895 107.643 28.2135 107.433 28.24C107.253 28.1124 107.068 27.9848 106.887 27.8572C107.273 27.8572 107.658 27.8572 108.043 27.8596Z" fill="white"/>
<path id="Vector_152" d="M94.614 91.2144C94.2288 91.2433 93.6144 91.2674 93.6144 91.094C93.6144 90.9231 94.2288 90.9471 94.614 90.976C94.6189 91.0555 94.6189 91.1349 94.614 91.2144Z" fill="white"/>
<path id="Vector_153" d="M92.1898 90.0514C92.1362 90.2007 92.3703 90.4367 91.7949 90.4271C91.7217 90.4271 91.6681 90.1839 91.6047 90.0514C91.7998 90.0442 91.9948 90.0442 92.1898 90.0514Z" fill="white"/>
<path id="Vector_154" d="M88.5324 63.4209C88.9322 63.4353 89.3321 63.4522 89.7319 63.4666C89.2833 63.7604 88.8688 63.8423 88.5324 63.4209Z" fill="white"/>
<path id="Vector_155" d="M88.5619 81.1039C88.9569 81.0991 89.3567 81.0943 89.7517 81.0895C89.7664 81.1834 89.7664 81.2773 89.7517 81.3736C89.3519 81.3736 88.952 81.3736 88.5522 81.3736V81.2388V81.1039H88.5619Z" fill="white"/>
<path id="Vector_156" d="M85.5777 38.1145C85.9532 38.0832 86.3286 38.0543 86.7041 38.0254C86.6163 38.4829 86.0361 38.2565 85.5874 38.218L85.5777 38.1169V38.1145Z" fill="white"/>
<path id="Vector_157" d="M14.7744 29.9471C14.3795 29.935 13.9845 29.9206 13.5944 29.9085C13.5944 29.8387 13.5944 29.7665 13.5798 29.6966L14.7744 29.6437L14.7842 29.6485C14.7793 29.7496 14.7744 29.8483 14.7696 29.9495L14.7744 29.9471Z" fill="white"/>
<path id="Vector_158" d="M20.2213 24.5607C19.6215 24.3512 19.5337 24.1514 20.2749 23.9684C20.2603 24.1658 20.2408 24.3633 20.2213 24.5607Z" fill="white"/>
<path id="Vector_159" d="M22.708 32.0516C22.3179 32.0275 21.9327 32.0035 21.5426 31.977V31.8903L21.5182 31.806C21.9132 31.7795 22.3082 31.753 22.708 31.7266C22.708 31.8349 22.708 31.9433 22.708 32.0516Z" fill="white"/>
<path id="Vector_160" d="M23.8394 42.7254C23.4639 42.7495 23.0836 42.7736 22.7081 42.8001C22.7081 42.7134 22.713 42.6267 22.7179 42.54C23.1031 42.5617 23.4834 42.5858 23.8687 42.6075L23.8394 42.7254Z" fill="white"/>
<path id="Vector_161" d="M24.5025 17.3831C23.8588 17.1784 23.8344 16.981 24.5317 16.7908C24.522 16.9882 24.5122 17.1857 24.5025 17.3831Z" fill="white"/>
<path id="Vector_162" d="M25.1162 47.2955C25.0674 47.7338 24.4677 47.6158 23.9459 47.5748L23.9605 47.5845C23.9605 47.4906 23.98 47.3991 24.0288 47.31C24.3897 47.3052 24.7554 47.3003 25.1162 47.2955Z" fill="white"/>
<path id="Vector_163" d="M37.3077 55.6434C36.9371 55.6169 36.5714 55.5904 36.2008 55.5639L36.1666 55.4604C36.5567 55.4243 36.9468 55.3882 37.3369 55.3521L37.3467 55.3593C37.3418 55.458 37.3223 55.5543 37.293 55.6506L37.3077 55.641V55.6434Z" fill="white"/>
<path id="Vector_164" d="M42.7886 28.4592C42.7349 28.8902 42.1742 28.8203 41.6085 28.7457C41.7792 28.4303 42.2961 28.4544 42.7886 28.4592Z" fill="white"/>
<path id="Vector_165" d="M361 37.1345C360.941 37.2065 360.907 37.3336 360.824 37.3432C360.483 37.3816 360.464 37.2521 360.468 37.1297C360.644 37.1273 360.824 37.1297 361 37.1345Z" fill="white"/>
<path id="Vector_166" d="M353.749 64.0323C353.744 64.2346 353.534 64.3381 353.12 64.3406C353.169 64.16 353.378 64.0564 353.749 64.0323Z" fill="white"/>
<path id="Vector_167" d="M349.478 49.9801C349.463 49.8501 349.478 49.7152 349.839 49.7538C349.926 49.7634 349.965 49.8958 350.024 49.9729C349.844 49.9777 349.658 49.9801 349.478 49.9801Z" fill="white"/>
<path id="Vector_168" d="M345.196 72.101C344.781 72.1106 344.577 72.0167 344.596 71.812C344.962 71.8265 345.162 71.9228 345.196 72.101Z" fill="white"/>
<path id="Vector_169" d="M343.319 14.708C343.367 14.7995 343.382 14.8934 343.358 14.9874C342.977 14.9825 342.768 14.8934 342.782 14.6984C342.963 14.696 343.143 14.6984 343.319 14.7056V14.708Z" fill="white"/>
<path id="Vector_170" d="M332.44 64.3262C332.455 64.2082 332.44 64.0637 332.796 64.1046C332.884 64.1143 332.913 64.2491 332.967 64.3262C332.791 64.3334 332.616 64.3334 332.44 64.3262Z" fill="white"/>
<path id="Vector_171" d="M329.373 59.5465C329.407 59.768 329.187 59.8667 328.743 59.8523C328.778 59.6645 328.992 59.5634 329.373 59.5465Z" fill="white"/>
<path id="Vector_172" d="M328.744 15.895C328.407 15.8613 328.212 15.7626 328.144 15.5989C328.471 15.635 328.671 15.7361 328.744 15.895Z" fill="white"/>
<path id="Vector_173" d="M328.739 25.1652C328.748 25.3024 328.748 25.4541 328.354 25.4132C328.261 25.4035 328.227 25.2543 328.168 25.17C328.358 25.1676 328.549 25.1652 328.739 25.1652Z" fill="white"/>
<path id="Vector_174" d="M321.395 50.2861C321.337 50.3679 321.307 50.51 321.219 50.5196C320.844 50.5605 320.844 50.4137 320.839 50.2836C321.024 50.2788 321.21 50.2788 321.395 50.2836V50.2861Z" fill="white"/>
<path id="Vector_175" d="M298.262 31.1461C298.462 31.1461 298.667 31.1437 298.867 31.1461C298.872 31.2448 298.872 31.3459 298.867 31.4447C298.677 31.4447 298.491 31.4447 298.301 31.4398C298.272 31.3435 298.267 31.2472 298.282 31.1509H298.257L298.262 31.1461Z" fill="white"/>
<path id="Vector_176" d="M286.656 72.4093C286.656 72.3033 286.656 72.1974 286.656 72.0939C287.095 72.0866 287.285 72.1926 287.256 72.4021C287.056 72.4021 286.861 72.4069 286.661 72.4117L286.656 72.4093Z" fill="white"/>
<path id="Vector_177" d="M286.057 24.5727C286.066 24.669 286.057 24.7629 286.027 24.8568C285.847 24.8617 285.667 24.8641 285.486 24.8593C285.53 24.6931 285.725 24.5992 286.062 24.5703L286.057 24.5727Z" fill="white"/>
<path id="Vector_178" d="M281.771 2.74348C281.712 2.82775 281.683 2.97463 281.595 2.98426C281.205 3.0276 281.215 2.8735 281.21 2.74348C281.395 2.73866 281.58 2.73866 281.771 2.74348Z" fill="white"/>
<path id="Vector_179" d="M276.899 21.2812C276.841 21.4426 276.651 21.5365 276.319 21.5654C276.392 21.4113 276.587 21.3174 276.899 21.2812Z" fill="white"/>
<path id="Vector_180" d="M258.028 65.8287L258.281 65.5951L258.564 65.8166C258.384 65.8238 258.203 65.8262 258.028 65.8287Z" fill="white"/>
<path id="Vector_181" d="M249.524 14.6927C249.524 14.58 249.548 14.4577 249.86 14.4912C249.943 14.5008 249.977 14.6184 250.036 14.6855C249.865 14.6927 249.694 14.6951 249.524 14.6903V14.6927Z" fill="white"/>
<path id="Vector_182" d="M249.49 40.4141C249.694 40.4141 249.894 40.4141 250.099 40.4141C250.099 40.5128 250.099 40.6139 250.099 40.7126C249.904 40.7126 249.714 40.7126 249.524 40.7102C249.49 40.6115 249.485 40.5152 249.494 40.4165L249.49 40.4141Z" fill="white"/>
<path id="Vector_183" d="M248.938 63.1262C248.996 63.0542 249.03 62.9295 249.118 62.9199C249.455 62.8839 249.484 63.0086 249.469 63.1333C249.289 63.1333 249.113 63.1333 248.933 63.1262H248.938Z" fill="white"/>
<path id="Vector_184" d="M242.179 33.843C242.599 33.8309 242.808 33.9273 242.789 34.1367C242.584 34.1367 242.389 34.1271 242.199 34.0982C242.184 34.0115 242.179 33.9273 242.184 33.8406L242.179 33.843Z" fill="white"/>
<path id="Vector_185" d="M241.556 61.9424C241.497 62.1109 241.297 62.2121 240.951 62.241C241.034 62.082 241.229 61.9809 241.556 61.9424Z" fill="white"/>
<path id="Vector_186" d="M237.894 52.3759C237.884 52.5662 237.684 52.6625 237.299 52.6697C237.299 52.5734 237.318 52.4771 237.367 52.3808C237.542 52.3759 237.718 52.3735 237.898 52.3735L237.894 52.3759Z" fill="white"/>
<path id="Vector_187" d="M236.054 69.6859C235.913 69.6594 235.659 69.6449 235.645 69.6064C235.572 69.4475 235.84 69.4523 236.059 69.4451C236.074 69.5269 236.074 69.6064 236.059 69.6883L236.054 69.6859Z" fill="white"/>
<path id="Vector_188" d="M236.076 98.1177C235.686 98.1105 235.466 98.0141 235.452 97.8191C235.803 97.8456 236.017 97.9443 236.076 98.1177Z" fill="white"/>
<path id="Vector_189" d="M234.236 3.33813C234.134 3.44649 234.036 3.55484 233.934 3.6656C233.69 3.58855 233.593 3.4802 233.656 3.34054C233.851 3.34054 234.041 3.33814 234.236 3.34054V3.33813Z" fill="white"/>
<path id="Vector_190" d="M230.599 71.5182C230.994 71.5182 231.228 71.6025 231.208 71.812C231.023 71.8096 230.838 71.8048 230.652 71.8C230.589 71.7061 230.574 71.6121 230.613 71.5134L230.599 71.5182Z" fill="white"/>
<path id="Vector_191" d="M228.726 34.139C228.726 34.2589 228.687 34.3789 228.37 34.3381C228.282 34.3285 228.253 34.2085 228.195 34.1414C228.37 34.1342 228.546 34.1342 228.721 34.1414L228.726 34.139Z" fill="white"/>
<path id="Vector_192" d="M225.649 50.2909C225.59 50.3628 225.556 50.49 225.469 50.4996C225.127 50.5356 225.127 50.4012 225.122 50.2837C225.298 50.2837 225.473 50.2837 225.644 50.2909H225.649Z" fill="white"/>
<path id="Vector_193" d="M224.469 26.3642C224.41 26.4461 224.376 26.593 224.283 26.6026C223.898 26.6459 223.888 26.4967 223.888 26.3618C224.084 26.3618 224.274 26.3618 224.469 26.3642Z" fill="white"/>
<path id="Vector_194" d="M222.021 57.4614C222.021 57.5866 222.021 57.731 221.655 57.6901C221.567 57.6805 221.538 57.5408 221.484 57.4614C221.665 57.4541 221.84 57.4541 222.021 57.4614Z" fill="white"/>
<path id="Vector_195" d="M206.865 78.0797C206.919 78.005 206.948 77.8726 207.031 77.863C207.382 77.8244 207.372 77.9641 207.382 78.0797C207.211 78.0869 207.036 78.0869 206.865 78.0797Z" fill="white"/>
<path id="Vector_196" d="M200.707 12.9093C200.716 13.0056 200.706 13.0995 200.663 13.1934C200.492 13.2006 200.316 13.2006 200.146 13.1934C200.17 13.0224 200.355 12.9261 200.702 12.9069L200.707 12.9093Z" fill="white"/>
<path id="Vector_197" d="M195.217 30.8259C194.973 30.8211 194.675 30.8283 194.753 30.6501C194.773 30.6092 195.051 30.5947 195.212 30.5682C195.226 30.6549 195.226 30.7392 195.212 30.8259H195.217Z" fill="white"/>
<path id="Vector_198" d="M193.397 83.4683C193.012 83.4611 192.807 83.3623 192.793 83.1721C193.139 83.1986 193.344 83.2973 193.397 83.4683Z" fill="white"/>
<path id="Vector_199" d="M190.954 84.3713C190.969 84.4677 190.954 84.564 190.915 84.6579C190.725 84.6627 190.535 84.6675 190.35 84.6675C190.359 84.4725 190.574 84.381 190.959 84.3713H190.954Z" fill="white"/>
<path id="Vector_200" d="M181.182 35.933C181.168 36.0534 181.182 36.1979 180.821 36.1594C180.734 36.1497 180.704 36.0149 180.646 35.9354C180.826 35.9306 181.002 35.9282 181.182 35.9306V35.933Z" fill="white"/>
<path id="Vector_201" d="M175.078 44.3073C175.107 44.4036 175.112 44.4976 175.102 44.5939C174.775 44.5626 174.57 44.4711 174.522 44.3049C174.707 44.3049 174.892 44.3049 175.078 44.3073Z" fill="white"/>
<path id="Vector_202" d="M169.626 15.895C169.831 15.895 170.031 15.895 170.235 15.895C170.235 15.9937 170.235 16.0949 170.235 16.1936H169.626V16.0443V15.895Z" fill="white"/>
<path id="Vector_203" d="M167.129 94.2435C167.07 94.3206 167.041 94.453 166.953 94.4602C166.597 94.4964 166.597 94.3591 166.602 94.2363C166.778 94.2339 166.953 94.2363 167.129 94.2411V94.2435Z" fill="white"/>
<path id="Vector_204" d="M146.459 117.857C146.473 118.057 146.254 118.141 145.864 118.136C145.903 117.963 146.108 117.871 146.459 117.857Z" fill="white"/>
<path id="Vector_205" d="M145.186 2.74818C145.181 2.89024 145.117 3.02508 144.752 2.96729C144.659 2.95284 144.644 2.81319 144.596 2.73132C144.791 2.73855 144.99 2.74336 145.186 2.74577V2.74818Z" fill="white"/>
<path id="Vector_206" d="M144.006 99.3361C143.903 99.4131 143.801 99.4926 143.699 99.5696C143.606 99.4878 143.513 99.4083 143.421 99.3265C143.616 99.3192 143.811 99.3216 144.006 99.3361Z" fill="white"/>
<path id="Vector_207" d="M140.988 2.75781C141.568 2.85413 141.505 2.94562 140.978 3.03471C140.978 2.94321 140.978 2.85172 140.988 2.75781Z" fill="white"/>
<path id="Vector_208" d="M141.007 45.7883C140.973 45.9834 140.748 46.0749 140.363 46.0893C140.436 45.9159 140.661 45.822 141.007 45.7883Z" fill="white"/>
<path id="Vector_209" d="M139.202 55.6506C139.212 55.5182 139.27 55.3858 139.621 55.4412C139.714 55.4556 139.729 55.588 139.777 55.6675C139.587 55.6603 139.392 55.6554 139.202 55.653V55.6506Z" fill="white"/>
<path id="Vector_210" d="M17.2176 16.4993C17.554 16.5306 17.754 16.6269 17.8174 16.793C17.5004 16.7545 17.2956 16.6582 17.2176 16.4993Z" fill="white"/>
<path id="Vector_211" d="M44.0764 64.6262C44.1739 64.5518 44.2666 64.4799 44.3641 64.4055C44.4568 64.4799 44.5494 64.5566 44.6372 64.631C44.4519 64.631 44.2617 64.631 44.0764 64.6262Z" fill="white"/>
<path id="Vector_212" d="M21.4307 35.0397C21.377 35.1143 21.3478 35.2444 21.2649 35.254C20.9187 35.2925 20.9187 35.1553 20.9138 35.0373C21.0893 35.0301 21.26 35.0325 21.4355 35.0373L21.4307 35.0397Z" fill="white"/>
<path id="Vector_213" d="M26.3164 64.0421C26.2628 64.114 26.2384 64.234 26.1506 64.246C25.8336 64.2915 25.8093 64.1596 25.7654 64.0493C25.9507 64.0373 26.1311 64.0349 26.3164 64.0397V64.0421Z" fill="white"/>
<path id="Vector_214" d="M27.0129 64.9232C27.0715 64.8462 27.1056 64.7137 27.1934 64.7041C27.5493 64.6656 27.5445 64.81 27.5591 64.9304C27.3787 64.9304 27.1934 64.9304 27.0129 64.9256V64.9232Z" fill="white"/>
<path id="Vector_215" d="M68.4272 28.4518C68.3541 28.6131 68.1542 28.7094 67.8226 28.7407C67.8957 28.5818 68.1054 28.4879 68.4272 28.4518Z" fill="white"/>
<path id="Vector_216" d="M86.7283 26.9541C86.7869 26.7904 86.9868 26.6941 87.3184 26.6604V26.658C87.3184 26.7567 87.3135 26.8554 87.2891 26.9517C87.1038 26.9517 86.9136 26.9517 86.7283 26.9517V26.9541Z" fill="white"/>
<path id="Vector_217" d="M74.5667 18.2763L74.5228 18.1342V17.9897C74.8933 18.0018 75.0982 18.0957 75.1128 18.2835C74.9324 18.2835 74.7471 18.2835 74.5667 18.2763Z" fill="white"/>
<path id="Vector_218" d="M90.3805 88.5489L90.3707 88.4045L90.4146 88.2624C90.5999 88.2552 90.7901 88.2528 90.9754 88.2552C90.9949 88.4598 90.7755 88.5489 90.3805 88.5489Z" fill="white"/>
<path id="Vector_219" d="M91.5615 68.8239C91.5615 68.9491 91.5615 69.0912 91.2007 69.0502C91.1129 69.0406 91.0837 68.9034 91.03 68.8263C91.2056 68.8191 91.386 68.8191 91.5615 68.8239Z" fill="white"/>
<path id="Vector_220" d="M15.9834 67.9233C15.9834 68.1208 15.7981 68.2267 15.3836 68.2267C15.4275 68.0485 15.6226 67.945 15.9834 67.9233Z" fill="white"/>
<path id="Vector_221" d="M98.9191 60.1631C99.1532 60.1631 99.4116 60.1727 99.3384 60.3316C99.3189 60.3726 99.0702 60.3894 98.9288 60.4183L98.9142 60.2907V60.1631H98.9191Z" fill="white"/>
<path id="Vector_222" d="M107.408 63.1437C107.32 63.2109 107.233 63.2805 107.14 63.3476C107.052 63.2805 106.96 63.2133 106.872 63.1437C107.052 63.1389 107.228 63.1389 107.408 63.1437Z" fill="white"/>
<path id="Vector_223" d="M44.0853 111.264C44.0463 111.065 44.2657 110.992 44.6363 110.99C44.6607 111.18 44.4413 111.257 44.0853 111.264Z" fill="white"/>
<path id="Vector_224" d="M91.5948 92.1367C91.2095 92.1487 90.8389 92.1174 90.5951 91.9585C90.5074 91.9007 90.4732 91.7755 90.5366 91.7129C90.7463 91.5082 90.9657 91.6768 91.1656 91.7346C91.3266 91.7779 91.468 91.8405 91.6143 91.8959V92.0187L91.5899 92.1391L91.5948 92.1367Z" fill="white"/>
<path id="Vector_225" d="M94.0338 92.1461C93.6534 92.1269 93.2731 92.1052 93.4535 91.8355C93.4827 91.7946 93.59 91.7296 93.6339 91.7344C94.0874 91.7898 94.1362 91.9487 94.0387 92.1413L94.0338 92.1461Z" fill="white"/>
<path id="Vector_226" d="M89.1667 91.5563C89.4251 91.5707 89.5373 91.6235 89.4739 91.7098C89.4739 91.7122 89.3129 91.7074 89.2788 91.6858C89.2252 91.6499 89.2105 91.5971 89.1813 91.5515L89.1667 91.5563Z" fill="white"/>
<path id="Vector_227" d="M90.3571 90.9277C90.5082 90.9855 90.6643 91.0409 90.8154 91.0987C90.3327 91.2769 90.3766 91.0674 90.3229 90.935L90.3571 90.9277Z" fill="white"/>
<path id="Vector_228" d="M91.5953 92.1366L91.6245 92.0162V91.8934C91.9171 91.8765 92.1317 91.9175 92.0293 92.0836C92.0097 92.1197 91.7464 92.1197 91.5953 92.1366Z" fill="white"/>
<path id="Vector_229" d="M86.7235 82.2718C86.7869 81.9757 87.0843 81.8553 87.6695 81.9925C87.9036 82.0479 87.9182 82.1298 87.7816 82.2068C87.4647 82.3922 87.0746 82.2598 86.7186 82.267V82.2694L86.7235 82.2718Z" fill="white"/>
<path id="Vector_230" d="M278.172 29.3428C278.25 29.2658 278.323 29.1863 278.401 29.1093C278.484 29.1526 278.562 29.1935 278.645 29.2369C278.484 29.2706 278.323 29.3043 278.162 29.3356L278.177 29.3428H278.172Z" fill="white"/>
<path id="Vector_231" d="M276.343 1.56826C276.855 1.61401 277.567 1.48398 277.65 1.91258C277.684 2.08112 277.43 2.17021 277.143 2.17985C276.709 2.19429 276.119 2.32191 275.933 2.03538C275.85 1.91258 276.211 1.71995 276.367 1.56104L276.343 1.56826Z" fill="white"/>
<path id="Vector_232" d="M181.255 80.172C181.348 80.3165 181.304 80.4369 180.997 80.4971C180.943 80.5067 180.772 80.4537 180.763 80.4248C180.719 80.2611 180.924 80.1913 181.221 80.1648L181.255 80.172Z" fill="white"/>
<path id="Vector_233" d="M193.31 59.2937C193.295 59.3636 193.295 59.4334 193.305 59.5032C192.554 59.5249 191.798 59.6886 190.823 59.4936C191.681 59.0481 192.524 59.2624 193.31 59.2937Z" fill="white"/>
<path id="Vector_234" d="M136.111 107.67C136.296 107.679 136.482 107.694 136.667 107.708C136.745 107.867 136.955 107.963 137.276 108C136.998 108.464 136.54 108.349 136.033 108.096C136.057 107.954 136.082 107.812 136.106 107.67H136.111Z" fill="white"/>
<path id="Vector_235" d="M138.525 108.89C138.452 109.052 138.242 109.148 137.92 109.189C137.998 109.03 138.208 108.934 138.525 108.89Z" fill="white"/>
<path id="Vector_236" d="M198.278 64.0347C198.361 63.9529 198.444 63.8734 198.522 63.7939C198.615 63.8397 198.707 63.8854 198.795 63.9312C198.619 63.9649 198.449 64.001 198.273 64.0347H198.278Z" fill="white"/>
<path id="Vector_237" d="M350.102 41.302C350.19 41.2588 350.273 41.2132 350.36 41.17C350.346 41.1964 350.351 41.2348 350.312 41.2492C350.253 41.2732 350.165 41.2828 350.092 41.2972L350.102 41.302Z" fill="white"/>
<path id="Vector_238" d="M179.973 23.6556C179.593 23.6604 179.159 23.7471 178.934 23.5159C178.9 23.4822 179.105 23.3474 179.237 23.3329C179.763 23.2751 179.905 23.4509 179.963 23.6628L179.978 23.6556H179.973Z" fill="white"/>
<path id="Vector_239" d="M177.564 23.9612L177.554 23.8192L177.564 23.6771C177.9 23.706 178.09 23.8023 178.154 23.9661C177.959 23.9733 177.764 23.9733 177.569 23.9661L177.564 23.9612Z" fill="white"/>
<path id="Vector_240" d="M175.741 13.2126C175.936 13.2006 176.126 13.1981 176.321 13.2102C176.316 13.3354 176.272 13.4654 175.936 13.4221C175.843 13.41 175.804 13.2848 175.741 13.2126Z" fill="white"/>
<path id="Vector_241" d="M266.551 15.2857C266.859 15.2617 267.102 15.3002 267.181 15.4615C267.195 15.4904 267.063 15.5723 267.015 15.5699C266.688 15.553 266.576 15.435 266.547 15.2906V15.2833L266.551 15.2857Z" fill="white"/>
<path id="Vector_242" d="M352.525 33.5445C352.623 33.5901 352.725 33.638 352.823 33.6836C352.759 33.6764 352.672 33.6788 352.637 33.6596C352.584 33.6284 352.564 33.5805 352.53 33.5397L352.52 33.5445H352.525Z" fill="white"/>
<path id="Vector_243" d="M76.3517 17.6888C76.0835 17.6791 75.8689 17.6286 75.8494 17.4793C75.8494 17.4528 75.9957 17.395 76.0444 17.4022C76.3321 17.4432 76.3955 17.5539 76.3517 17.6888Z" fill="white"/>
<path id="Vector_244" d="M72.1295 40.7342C72.5245 40.7269 72.9146 40.7173 73.3096 40.7101C73.3096 40.8859 73.3096 41.0664 72.8024 41.0616C72.3831 41.0568 72.1832 40.9268 72.1295 40.7366V40.7342Z" fill="white"/>
<path id="Vector_245" d="M208.05 40.125C208.46 40.2189 208.87 40.3128 209.279 40.4043C209.148 40.6113 208.865 40.7654 208.416 40.7149C207.67 40.633 208.031 40.3441 208.046 40.1226L208.05 40.125Z" fill="white"/>
<path id="Vector_246" d="M25.2486 26.2583C25.3168 26.1957 25.3851 26.1331 25.4582 26.0681C25.5216 26.0994 25.6533 26.1379 25.6435 26.1644C25.6143 26.2319 25.5265 26.2945 25.4631 26.3595C25.3997 26.3282 25.3315 26.2969 25.2534 26.2583H25.2486Z" fill="white"/>
<path id="Vector_247" d="M96.1985 29.2964C96.14 29.2796 96.0766 29.2628 96.0181 29.2484C96.0815 29.2053 96.1497 29.1621 96.218 29.1189C96.2765 29.1501 96.335 29.1813 96.3936 29.2124C96.3302 29.2412 96.2668 29.27 96.1985 29.2988V29.2964Z" fill="white"/>
<path id="Vector_248" d="M45.9482 71.0969C46.0165 71.0367 46.0896 70.9765 46.1579 70.9139C46.2213 70.9452 46.3432 70.9862 46.3334 71.0103C46.2993 71.0777 46.2115 71.1379 46.1481 71.2005C46.0847 71.1668 46.0214 71.1355 45.9482 71.0969Z" fill="white"/>
<path id="Vector_249" d="M98.3779 23.2437C98.4461 23.1859 98.5193 23.1281 98.5924 23.0703C98.6509 23.1016 98.7729 23.1401 98.7631 23.1642C98.729 23.2292 98.6412 23.2846 98.5729 23.3448C98.5144 23.3135 98.451 23.2822 98.3779 23.2437Z" fill="white"/>
<path id="Vector_250" d="M40.8377 69.8231C40.8377 69.8543 40.8572 69.8926 40.8231 69.9118C40.7061 69.9886 40.5695 69.9694 40.4769 69.8567C40.4671 69.8423 40.5841 69.7895 40.6622 69.7751C40.7061 69.7679 40.7792 69.8039 40.8377 69.8207V69.8231Z" fill="white"/>
<path id="Vector_251" d="M3.91406 68.7084C3.9872 68.6458 4.05547 68.5832 4.12862 68.5206C4.19201 68.5519 4.31879 68.5905 4.30904 68.6145C4.27978 68.682 4.19201 68.7422 4.12862 68.8048C4.06035 68.7735 3.99696 68.7422 3.91894 68.706L3.91406 68.7084Z" fill="white"/>
<path id="Vector_252" d="M110.778 116.009C110.72 115.976 110.613 115.94 110.618 115.909C110.622 115.877 110.739 115.849 110.808 115.82C110.866 115.853 110.973 115.889 110.969 115.921C110.969 115.952 110.847 115.981 110.778 116.009Z" fill="white"/>
<path id="Vector_253" d="M211.435 32.891C211.362 32.8742 211.289 32.8574 211.22 32.8382C211.293 32.7902 211.371 32.7399 211.445 32.6919C211.518 32.7255 211.586 32.7591 211.659 32.7926C211.586 32.8238 211.508 32.8574 211.435 32.8886V32.891Z" fill="white"/>
<path id="Vector_254" d="M204.438 48.0585C204.472 48.0273 204.511 47.9937 204.55 47.9625C204.647 47.9985 204.75 48.0321 204.847 48.0681C204.774 48.0993 204.701 48.1568 204.633 48.1544C204.564 48.1544 204.501 48.0921 204.438 48.0585Z" fill="white"/>
<path id="Vector_255" d="M116.05 99.4849C116.085 99.449 116.123 99.4154 116.158 99.3794C116.255 99.4178 116.353 99.4537 116.455 99.4921C116.387 99.5257 116.314 99.5617 116.245 99.5953L116.05 99.4849Z" fill="white"/>
<path id="Vector_256" d="M90.3174 46.1205C90.3028 46.2962 90.2881 46.4696 90.2735 46.6454C89.8346 46.6478 89.2104 46.773 89.1422 46.4287C89.0544 45.9591 89.781 46.094 90.3174 46.1205Z" fill="white"/>
<path id="Vector_257" d="M88.9329 114.529C88.811 114.495 88.6891 114.462 88.5623 114.428C88.6257 114.397 88.7086 114.337 88.7574 114.344C88.8939 114.358 89.0158 114.402 89.1475 114.433C89.0841 114.464 89.0158 114.493 88.9378 114.529H88.9329Z" fill="white"/>
<path id="Vector_258" d="M70.8272 58.6628C70.7589 58.7324 70.6906 58.802 70.6175 58.8739C70.5395 58.8355 70.4663 58.7972 70.3883 58.7564C70.5395 58.7276 70.6906 58.6988 70.8418 58.67L70.8272 58.6628Z" fill="white"/>
<path id="Vector_259" d="M290.938 13.1999C290.728 13.2023 290.524 13.2047 290.314 13.2071C290.504 12.924 290.714 12.9144 290.938 13.1999Z" fill="white"/>
<path id="Vector_260" d="M289.743 13.492L289.729 13.3499V13.2078C289.939 13.2054 290.143 13.2006 290.348 13.1958C290.295 13.3692 290.09 13.4631 289.743 13.4896V13.492Z" fill="white"/>
<path id="Vector_261" d="M156.82 114.866C156.82 114.968 156.82 115.066 156.82 115.167C156.415 115.165 156.015 115.163 155.61 115.16L155.596 114.568C156.001 114.669 156.41 114.768 156.82 114.869V114.866Z" fill="white"/>
<path id="Vector_262" d="M12.9796 22.7622C13.0479 22.6851 13.1162 22.6081 13.1893 22.531L13.4429 22.6562C13.2868 22.6899 13.1259 22.7236 12.965 22.7549L12.9796 22.7622Z" fill="white"/>
<path id="Vector_263" d="M95.2383 79.572C95.1359 79.5241 95.0384 79.4761 94.936 79.4281C94.9993 79.4353 95.092 79.4329 95.1261 79.4545C95.1798 79.4881 95.1944 79.536 95.2285 79.5792L95.2383 79.5744V79.572Z" fill="white"/>
<path id="Vector_264" d="M92.8091 49.0846C92.7993 49.282 92.575 49.3687 92.1947 49.3856C92.1752 49.1761 92.4141 49.0918 92.8091 49.0846Z" fill="white"/>
<path id="Vector_265" d="M79.3701 32.6462C79.2872 32.7257 79.1994 32.8028 79.1165 32.8822C78.7167 32.6703 79.1361 32.6848 79.3848 32.6535L79.3701 32.6462Z" fill="white"/>
<path id="Vector_266" d="M183.674 94.5469C184.015 94.5685 184.22 94.6576 184.254 94.831C183.908 94.8117 183.713 94.7178 183.674 94.5469Z" fill="white"/>
<path id="Vector_267" d="M151.949 23.9707C152.124 24.0068 152.295 24.0405 152.471 24.0766C152.378 24.12 152.281 24.1657 152.188 24.2115C152.11 24.132 152.032 24.0502 151.949 23.9707Z" fill="white"/>
<path id="Vector_268" d="M229.852 26.7182C229.803 26.776 229.798 26.8338 229.842 26.894C229.403 26.8868 228.731 27.1252 228.731 26.646C229.106 26.6701 229.481 26.6942 229.857 26.7206L229.852 26.7182Z" fill="white"/>
<path id="Vector_269" d="M97.0611 38.3239C96.9733 38.401 96.8904 38.4756 96.8026 38.5527C96.3686 38.3288 96.8562 38.3673 97.0659 38.3263L97.0562 38.3215L97.0611 38.3239Z" fill="white"/>
<path id="Vector_270" d="M41.0031 73.907C41.398 73.907 41.7881 73.9118 42.1831 73.9142C42.1246 74.09 42.0563 74.2682 41.5833 74.2682C41.1055 74.2682 41.0616 74.0803 41.0031 73.9094V73.907Z" fill="white"/>
<path id="Vector_271" d="M298.858 35.343C298.663 35.2371 298.468 35.1335 298.272 35.0276C298.292 34.8085 298.297 34.5869 298.804 34.4834C299.033 34.5653 299.257 34.6495 299.487 34.7314C299.531 34.9987 299.916 35.3478 298.858 35.343Z" fill="white"/>
<path id="Vector_272" d="M101.323 110.67C101.133 110.679 100.948 110.679 100.758 110.67C100.816 110.593 100.85 110.463 100.943 110.451C101.294 110.407 101.313 110.544 101.323 110.67Z" fill="white"/>
<path id="Vector_273" d="M260.491 19.7645L260.456 19.6272L260.471 19.49C260.715 19.4948 260.993 19.4996 260.92 19.6682C260.9 19.7139 260.642 19.7332 260.491 19.7645Z" fill="white"/>
<path id="Vector_274" d="M94.0088 94.823C93.8186 94.8302 93.6284 94.8302 93.4334 94.823C93.5309 94.7559 93.6235 94.6863 93.7162 94.6191C93.8137 94.6863 93.9113 94.7535 94.0039 94.823H94.0088Z" fill="white"/>
<path id="Vector_275" d="M139.774 91.2336L139.754 91.0915L139.769 90.9495C140.022 90.9615 140.339 90.9519 140.257 91.1373C140.237 91.183 139.944 91.1999 139.779 91.2312L139.774 91.2336Z" fill="white"/>
<path id="Vector_276" d="M337.755 43.9896C337.765 43.8909 337.809 43.7946 337.882 43.7007C338.287 43.7055 338.687 43.7127 339.091 43.7175C338.857 44.057 338.267 43.9752 337.755 43.9896Z" fill="white"/>
<path id="Vector_277" d="M65.3604 61.3525C65.3751 61.444 65.3702 61.5355 65.3458 61.6246C65.1995 61.5933 64.9557 61.5741 64.9313 61.5283C64.8582 61.367 65.1166 61.3549 65.3604 61.3525Z" fill="white"/>
<path id="Vector_278" d="M349.444 39.4941C349.575 39.5639 349.741 39.5952 349.936 39.588C349.907 39.6795 349.966 39.7542 350.112 39.8095C350.039 39.9853 349.897 40.125 349.463 40.1153C349.458 39.9083 349.449 39.6988 349.439 39.4917L349.444 39.4941Z" fill="white"/>
<path id="Vector_279" d="M349.491 39.2076C349.491 39.3159 349.496 39.4219 349.501 39.5302C348.974 39.5712 348.745 39.4652 348.823 39.2028C349.047 39.2028 349.267 39.2052 349.491 39.2076Z" fill="white"/>
<path id="Vector_280" d="M348.229 39.2245C348.225 39.1234 348.215 39.0198 348.205 38.9187C348.42 38.9187 348.634 38.9187 348.854 38.9187C348.863 39.0222 348.873 39.1234 348.883 39.2269C348.663 39.2269 348.444 39.2245 348.229 39.2245Z" fill="white"/>
<path id="Vector_281" d="M352.735 56.5417C352.867 56.573 353.003 56.5779 353.14 56.561C353.169 56.6959 353.047 56.8524 352.813 56.8331C352.564 56.8114 352.564 56.6549 352.735 56.5417Z" fill="white"/>
<path id="Vector_282" d="M108.019 28.1387C108.238 28.1435 108.453 28.1459 108.672 28.1483C108.565 28.2494 108.453 28.353 108.346 28.4565C108.238 28.3506 108.126 28.2446 108.019 28.1387Z" fill="white"/>
<path id="Vector_283" d="M274.475 31.4471C274.489 31.5435 274.489 31.6398 274.475 31.7361C273.948 31.6398 273.943 31.5435 274.475 31.4471Z" fill="white"/>
<path id="Vector_284" d="M161.751 47.2667L161.721 47.1391C161.721 47.1391 161.736 47.0091 161.736 47.0115C162.116 47.0163 162.502 47.0235 162.882 47.0284C162.901 47.1054 162.906 47.1801 162.882 47.2571C162.506 47.2595 162.126 47.2643 161.751 47.2667Z" fill="white"/>
<path id="Vector_285" d="M331.162 11.101C330.742 11.1154 330.372 11.0769 330.147 10.8794C330.581 10.8481 331.157 10.6603 331.162 11.101Z" fill="white"/>
<path id="Vector_286" d="M260.48 71.5184C259.968 71.5449 259.408 71.6195 259.3 71.2367C259.808 71.2174 260.476 71.0344 260.48 71.5184Z" fill="white"/>
<path id="Vector_287" d="M6.24609 22.7741C5.74871 22.7693 5.26597 22.7549 5.04167 22.4804C5.5488 22.4756 6.04129 22.4804 6.24609 22.7741Z" fill="white"/>
<path id="Vector_288" d="M156.216 30.5418V30.3973V30.2528C156.416 30.2456 156.611 30.2456 156.811 30.2504C156.743 30.4118 156.543 30.5105 156.211 30.5442L156.216 30.5418Z" fill="white"/>
<path id="Vector_289" d="M118.454 33.5179L118.424 33.3831L118.434 33.2458C118.824 33.2458 119.039 33.3349 119.024 33.5348C118.834 33.5396 118.644 33.5348 118.454 33.5179Z" fill="white"/>
<path id="Vector_290" d="M348.868 63.1343C348.893 62.9489 349.103 62.8574 349.463 62.8406C349.444 63.026 349.229 63.1175 348.868 63.1343Z" fill="white"/>
<path id="Vector_291" d="M98.241 46.3636C97.8948 46.3516 97.5486 46.3396 97.2024 46.3275C97.1877 46.0627 97.178 45.8002 97.1633 45.5378C97.5291 45.5305 97.8948 45.5233 98.2605 45.5137C98.5092 45.7978 98.5043 46.0819 98.241 46.3636Z" fill="white"/>
<path id="Vector_292" d="M47.6792 54.7743C47.689 54.9717 47.6939 55.1716 47.7036 55.369C47.3038 55.3618 46.9088 55.3546 46.5089 55.3474C46.5187 55.1644 46.5333 54.9814 46.5431 54.7984C46.9234 54.7911 47.2989 54.7815 47.6792 54.7743Z" fill="white"/>
<path id="Vector_293" d="M226.322 47.8879V47.7386V47.5894C226.527 47.5894 226.727 47.5894 226.932 47.5894C226.932 47.6881 226.932 47.7892 226.932 47.8879C226.727 47.8879 226.527 47.8879 226.322 47.8879Z" fill="white"/>
</g>
</g>
<path id="FREE" opacity="0.08" d="M258.798 37H247.854V-5.5579H281.597V2.95368H258.798V12.9852H276.733V21.4968H258.798V37ZM287.068 -5.5579H312.603C316.859 -5.5579 319.939 -4.58515 321.844 -2.63964C323.79 -0.734668 324.763 2.34571 324.763 6.6015V12.0732C324.763 15.4373 324.195 18.0516 323.06 19.916C321.966 21.7805 320.203 23.0167 317.771 23.6247L325.371 37H313.515L306.523 24.2326H298.012V37H287.068V-5.5579ZM313.819 6.6015C313.819 4.16962 312.603 2.95368 310.171 2.95368H298.012V15.7211H310.171C312.603 15.7211 313.819 14.5051 313.819 12.0732V6.6015ZM365.784 37H332.042V-5.5579H365.784V2.95368H342.985V11.1613H360.92V19.6729H342.985V28.4884H365.784V37ZM405.592 37H371.849V-5.5579H405.592V2.95368H382.793V11.1613H400.728V19.6729H382.793V28.4884H405.592V37Z" fill="#AB750F"/>
<line id="Line 12" x1="58" y1="72.4403" x2="304" y2="72.4403" stroke="url(#paint1_linear_1020_10931)" stroke-width="1.11942"/>
<g id="Vector_294" opacity="0.1">
<path d="M21.1436 -16L-83.075 123H-30.95L73.3 -16H21.1436Z" fill="url(#paint2_linear_1020_10931)"/>
<path d="M84.8519 -16L-19.3667 123H4.95833L109.208 -16H84.8519Z" fill="url(#paint3_linear_1020_10931)"/>
</g>
<g id="Vector_295" opacity="0.3">
<path d="M352.25 120L406.983 47H379.608L324.858 120H352.25Z" fill="url(#paint4_linear_1020_10931)"/>
<path d="M318.791 120L373.525 47H360.75L306 120H318.791Z" fill="url(#paint5_linear_1020_10931)"/>
</g>
<path id="Vector (Stroke)" opacity="0.1" fill-rule="evenodd" clip-rule="evenodd" d="M-23 -10.4625C-23 -10.7594 -22.7594 -11 -22.4625 -11H102.944C103.241 -11 103.482 -10.7594 103.482 -10.4625V58.4934L103.482 58.4942L103.482 58.5212C103.482 58.5353 103.482 58.5535 103.482 58.5755C103.483 58.5901 103.483 58.6063 103.483 58.6243C103.483 58.7145 103.483 58.8475 103.48 59.0211C103.476 59.3683 103.463 59.8779 103.433 60.5326C103.371 61.8419 103.235 63.732 102.937 66.0645C102.343 70.7286 101.103 77.1669 98.5213 84.2693C93.3561 98.4782 82.813 115.357 61.3231 125.98L40.0879 136.512C39.9445 136.583 39.7769 136.587 39.6306 136.521L39.8491 136.03C39.6306 136.521 39.6309 136.522 39.6306 136.521L39.6292 136.521L39.6103 136.512L39.5515 136.486C39.4997 136.463 39.4229 136.428 39.3225 136.383C39.1217 136.292 38.8263 136.157 38.4472 135.983C37.689 135.633 36.5956 135.122 35.2535 134.476C32.5695 133.185 28.8888 131.352 24.9024 129.189C16.9524 124.876 7.70728 119.206 2.77233 113.863C2.61314 113.691 2.58414 113.435 2.70069 113.232L14.9209 91.8818C15.0166 91.7145 15.1946 91.6113 15.3874 91.6113H45.3141L75.3479 39.5367L60.4395 13.7452L0.598601 13.5429L15.5948 38.9989H45.8809C46.0735 38.9989 46.2513 39.1019 46.3471 39.269C46.4429 39.436 46.442 39.6416 46.3448 39.8078L30.8773 66.2422C30.7808 66.4069 30.6043 66.5082 30.4134 66.5082H0.148703L-13.6886 90.0057C-13.7 90.0341 -13.7139 90.0618 -13.7304 90.0884C-13.8283 90.2469 -14.0013 90.3433 -14.1876 90.3433H-14.1947C-14.3875 90.3433 -14.5656 90.24 -14.6613 90.0726C-14.6807 90.0386 -14.6961 90.0031 -14.7075 89.9666C-14.7224 89.9363 -14.7414 89.8973 -14.7643 89.85C-14.826 89.7225 -14.916 89.5342 -15.0302 89.2893C-15.2587 88.7993 -15.5843 88.0824 -15.9746 87.1704C-16.7552 85.3466 -17.7952 82.7416 -18.8351 79.612C-20.9129 73.359 -23 64.9833 -23 56.5492V-10.4625ZM-14.14 88.654L-0.62164 65.698C-0.525043 65.534 -0.348882 65.4333 -0.15852 65.4333H30.1052L44.9437 40.0738H15.2877C15.0973 40.0738 14.9212 39.9731 14.8246 39.8092L-0.806751 13.275C-0.904805 13.1086 -0.905988 12.9023 -0.809849 12.7348C-0.713709 12.5672 -0.53504 12.4641 -0.341859 12.4648L60.7521 12.6713C60.9433 12.672 61.1199 12.7742 61.2156 12.9398L76.4339 39.2674C76.53 39.4336 76.5301 39.6385 76.4341 39.8049L46.0901 92.4173C45.9941 92.5837 45.8166 92.6863 45.6245 92.6863H15.699L3.83092 113.421C8.69582 118.536 17.604 124.006 25.415 128.244C29.3823 130.397 33.0468 132.221 35.7196 133.508C37.0559 134.151 38.1438 134.659 38.8973 135.007C39.274 135.18 39.5671 135.314 39.7658 135.404C39.7913 135.415 39.8154 135.426 39.8378 135.436L60.8462 125.017L60.8468 125.016C82.028 114.546 92.4145 97.9221 97.5111 83.902C100.06 76.89 101.284 70.532 101.871 65.9286C102.164 63.6274 102.298 61.7659 102.359 60.482C102.389 59.8401 102.401 59.3427 102.405 59.0071C102.408 58.8393 102.408 58.7119 102.408 58.6271C102.408 58.6071 102.408 58.5894 102.408 58.5742C102.407 58.5572 102.407 58.5432 102.407 58.5322L102.407 58.5092L102.407 58.504L102.407 58.5029C102.407 58.5029 102.407 58.5029 102.407 58.5029L102.407 58.5029L102.407 58.4934V-9.92509H-21.9251V56.5492C-21.9251 64.8218 -19.8747 73.0744 -17.815 79.2731C-16.7862 82.3693 -15.7574 84.9459 -14.9864 86.7474C-14.6468 87.5409 -14.3573 88.1837 -14.14 88.654Z" fill="url(#paint6_linear_1020_10931)"/>
<g id="Frame 36275">
<path id="add" d="M10.5953 94.1271L9 94.1271L9 93.5953L10.5953 93.5953L10.5953 92L11.1271 92L11.1271 93.5953L12.7224 93.5953L12.7224 94.1271L11.1271 94.1271L11.1271 95.7224L10.5953 95.7224L10.5953 94.1271Z" fill="#AB750F"/>
<path id="add_2" d="M10.5953 102.458L9 102.458L9 101.926L10.5953 101.926L10.5953 100.331L11.1271 100.331L11.1271 101.926L12.7224 101.926L12.7224 102.458L11.1271 102.458L11.1271 104.053L10.5953 104.053L10.5953 102.458Z" fill="#AB750F"/>
<path id="add_3" d="M10.5953 110.789L9 110.789L9 110.258L10.5953 110.258L10.5953 108.662L11.1271 108.662L11.1271 110.258L12.7224 110.258L12.7224 110.789L11.1271 110.789L11.1271 112.385L10.5953 112.385L10.5953 110.789Z" fill="#AB750F"/>
</g>
<path id="Vector_296" d="M17.2274 33.7471V18.2599H32.7146M10 35.8121V10H35.8121" stroke="#AB750F" stroke-width="1.03248"/>
<path id="Vector_297" d="M343.585 86.065V101.552H328.097M350.812 84V109.812H325" stroke="#AB750F" stroke-width="1.03248"/>
<path id="FREE_2" opacity="0.1" d="M23.7979 139H12.8544V96.4421H46.5967V104.954H23.7979V114.985H41.733V123.497H23.7979V139ZM52.0685 96.4421H77.6032C81.859 96.4421 84.9394 97.4149 86.8443 99.3604C88.7898 101.265 89.7626 104.346 89.7626 108.602V114.073C89.7626 117.437 89.1952 120.052 88.0603 121.916C86.9659 123.78 85.2028 125.017 82.7709 125.625L90.3706 139H78.5152L71.5235 126.233H63.0119V139H52.0685V96.4421ZM78.8191 108.602C78.8191 106.17 77.6032 104.954 75.1713 104.954H63.0119V117.721H75.1713C77.6032 117.721 78.8191 116.505 78.8191 114.073V108.602ZM130.784 139H97.0416V96.4421H130.784V104.954H107.985V113.161H125.92V121.673H107.985V130.488H130.784V139ZM170.592 139H136.849V96.4421H170.592V104.954H147.793V113.161H165.728V121.673H147.793V130.488H170.592V139Z" fill="#AB750F"/>
<g id="Prize pool">
<path id="Union" fill-rule="evenodd" clip-rule="evenodd" d="M220.404 -0.124268H131L139.71 20.6282H220.404V20.5754H220.634L229.344 -0.124262L220.404 -0.124268Z" fill="#6C4B0E"/>
<path id="Union_2" fill-rule="evenodd" clip-rule="evenodd" d="M141.08 -1.99988H227.951L219.488 18.6998H219.264V18.7528H140.856L132.393 -1.99966H141.08V-1.99988Z" fill="url(#paint7_linear_1020_10931)"/>
</g>
</g>
<defs>
<linearGradient id="paint0_linear_1020_10931" x1="184.26" y1="76.9167" x2="183.825" y2="116.656" gradientUnits="userSpaceOnUse">
<stop stop-color="#D8A956" stop-opacity="0"/>
<stop offset="1" stop-color="#AB750F"/>
</linearGradient>
<linearGradient id="paint1_linear_1020_10931" x1="58" y1="73.5" x2="304" y2="73.5" gradientUnits="userSpaceOnUse">
<stop stop-color="#CF9A3A" stop-opacity="0"/>
<stop offset="0.464" stop-color="#CF9A3A"/>
<stop offset="1" stop-color="#CF9A3A" stop-opacity="0"/>
</linearGradient>
<linearGradient id="paint2_linear_1020_10931" x1="33.9166" y1="-16" x2="33.9166" y2="123" gradientUnits="userSpaceOnUse">
<stop stop-color="#AB750F"/>
<stop offset="0.516" stop-color="#D8A956"/>
<stop offset="1" stop-color="#AB750F" stop-opacity="0"/>
</linearGradient>
<linearGradient id="paint3_linear_1020_10931" x1="33.9166" y1="-16" x2="33.9166" y2="123" gradientUnits="userSpaceOnUse">
<stop stop-color="#AB750F"/>
<stop offset="0.516" stop-color="#D8A956"/>
<stop offset="1" stop-color="#AB750F" stop-opacity="0"/>
</linearGradient>
<linearGradient id="paint4_linear_1020_10931" x1="345.542" y1="120" x2="345.542" y2="47" gradientUnits="userSpaceOnUse">
<stop stop-color="#AB750F"/>
<stop offset="0.516" stop-color="#D8A956"/>
<stop offset="1" stop-color="#AB750F" stop-opacity="0"/>
</linearGradient>
<linearGradient id="paint5_linear_1020_10931" x1="345.542" y1="120" x2="345.542" y2="47" gradientUnits="userSpaceOnUse">
<stop stop-color="#AB750F"/>
<stop offset="0.516" stop-color="#D8A956"/>
<stop offset="1" stop-color="#AB750F" stop-opacity="0"/>
</linearGradient>
<linearGradient id="paint6_linear_1020_10931" x1="102.945" y1="62.784" x2="-22.4625" y2="62.784" gradientUnits="userSpaceOnUse">
<stop stop-color="#AB750F" stop-opacity="0"/>
<stop offset="1" stop-color="#AB750F"/>
</linearGradient>
<linearGradient id="paint7_linear_1020_10931" x1="132.393" y1="-0.783352" x2="141.055" y2="38.8284" gradientUnits="userSpaceOnUse">
<stop stop-color="#AB750F"/>
<stop offset="0.484" stop-color="#D8A956"/>
<stop offset="1" stop-color="#AB750F"/>
</linearGradient>
<clipPath id="clip0_1020_10931">
<rect width="361" height="120" fill="white"/>
</clipPath>
</defs>
</svg>
