<svg width="393" height="229" viewBox="0 0 393 229" fill="none" xmlns="http://www.w3.org/2000/svg">
<g clip-path="url(#clip0_606_14026)">
<rect width="393" height="231.979" fill="#212121"/>
<rect y="87.1414" width="393" height="141.917" fill="url(#paint0_linear_606_14026)" fill-opacity="0.2"/>
<rect y="165.523" width="393" height="63.1413" fill="url(#paint1_linear_606_14026)" fill-opacity="0.1"/>
<g opacity="0.35">
<path d="M306.625 93.5681C306.095 92.8419 305.211 93.1725 304.544 92.8365C303.58 92.3487 303.585 92.094 304.665 91.0968L304.718 91.0806C304.946 91.4437 305.29 91.5466 305.688 91.5466C305.746 91.7255 305.868 91.7959 306.053 91.7526C306.254 92.1536 306.615 92.2945 307.012 92.3704L306.985 92.3487C306.895 92.7606 306.81 93.1779 306.72 93.5897L306.625 93.5735V93.5681Z" fill="white"/>
<path d="M248.076 88.235C247.854 88.3001 247.631 88.3651 247.409 88.4301C246.98 88.4356 246.556 88.441 246.127 88.4518C245.883 88.403 245.634 88.3543 245.391 88.3055C245.211 87.8448 245.158 87.3842 245.364 86.9181C246.058 86.8802 246.752 86.8423 247.44 86.8043C247.647 86.8965 247.859 86.9127 248.081 86.8639C248.203 87.0265 248.362 87.0753 248.553 87.0157C248.632 87.227 248.712 87.4384 248.791 87.6497C248.553 87.8448 248.309 88.0399 248.071 88.235H248.076Z" fill="white"/>
<path d="M238.818 30.4157C239.639 30.1394 240.185 30.7409 240.82 31.0661V31.0769C240.82 31.3045 240.815 31.5267 240.804 31.7543C240.598 31.7977 240.381 31.8302 240.164 31.8465C239.925 31.8844 239.682 31.9169 239.443 31.9494C239.237 32.112 239.035 32.2692 238.829 32.4317C238.633 32.4209 238.432 32.4101 238.236 32.4101C238.183 32.1987 238.125 31.9874 238.05 31.7814C237.997 31.543 237.939 31.3045 237.886 31.0661C238.003 30.9577 238.119 30.9631 238.225 31.0823C238.58 31.0065 238.723 30.7409 238.813 30.4212L238.818 30.4157Z" fill="white"/>
<path d="M269.25 190.602C269.536 191.518 269.366 192.119 268.265 192.049C267.725 192.016 267.19 191.951 266.655 191.897L266.671 191.913C266.565 191.252 267.264 191.106 267.465 190.64C267.666 190.748 267.836 190.71 267.968 190.521C268.402 190.553 268.837 190.586 269.271 190.618L269.25 190.602Z" fill="white"/>
<path d="M185.183 142.825C185.633 141.941 186.094 142.12 186.555 142.808C186.618 143.166 186.857 143.356 187.18 143.464C187.159 143.903 187.196 144.505 186.719 144.586C185.962 144.721 185.951 143.995 185.824 143.475C185.755 143.112 185.511 142.928 185.188 142.825H185.183Z" fill="white"/>
<path d="M120.882 138.408H120.914C119.971 139.085 119.076 139.329 118.355 138.099L118.334 138.12C118.933 137.806 119.473 137.28 120.241 137.578L120.146 137.492C120.389 137.795 120.633 138.104 120.876 138.408H120.882Z" fill="white"/>
<path d="M292.108 24.2376C291.955 24.0967 291.817 23.9341 291.647 23.8203C291.15 23.4843 290.911 23.0182 291.303 22.5251C291.716 22.0102 292.204 22.2758 292.617 22.6389C292.776 22.7744 292.94 22.899 293.099 23.0345L293.088 23.0128C293.024 23.6306 292.426 23.8203 292.129 24.2539L292.103 24.2376H292.108Z" fill="white"/>
<path d="M284.509 82.2575C284.498 82.0191 284.482 81.7806 284.472 81.5422C284.996 81.4555 285.579 81.4988 285.87 80.8918C286.294 80.9189 286.839 80.9352 286.908 81.4175C287.014 82.1817 286.283 82.1275 285.817 82.3009C285.383 82.2846 284.949 82.2684 284.509 82.2521V82.2575Z" fill="white"/>
<path d="M240.879 221.308C240.879 221.016 240.879 220.723 240.879 220.43C241.297 220.349 241.721 220.268 242.139 220.192C242.351 220.636 242.557 221.086 242.769 221.53L242.785 221.509C242.361 221.704 241.938 221.894 241.514 222.089L241.562 222.17C241.334 221.883 241.106 221.596 240.884 221.308H240.879Z" fill="white"/>
<path d="M160.758 45.9423C162.029 45.7959 163.3 45.6117 164.539 46.1428V46.3162C163.247 46.495 161.896 47.3513 160.758 45.9423Z" fill="white"/>
<path d="M11.4517 148.092C11.1763 148.092 10.9009 148.098 10.6308 148.103C10.2918 147.496 10.2918 146.868 10.5302 146.228L10.4507 146.298C10.8374 146.309 11.2292 146.326 11.6159 146.336L11.5417 146.266C11.7801 146.884 11.7536 147.496 11.4517 148.087V148.092Z" fill="white"/>
<path d="M34.2518 98.2771C34.453 98.0116 34.6225 97.7189 34.8555 97.4913C35.1839 97.1716 35.6288 96.906 35.9624 97.3992C36.2643 97.8436 35.936 98.2067 35.5334 98.4451C35.1097 98.3855 34.6807 98.3313 34.257 98.2771H34.2518Z" fill="white"/>
<path d="M256.041 158.281C255.639 160.123 255.321 160.351 254.076 159.674C254.293 159.435 254.516 159.197 254.733 158.958V158.964C254.939 158.736 255.157 158.503 255.374 158.275L255.384 158.265C255.607 158.265 255.824 158.265 256.046 158.281H256.041Z" fill="white"/>
<path d="M369.226 127.309C368.395 127.304 367.563 127.293 366.732 127.287C366.647 126.924 366.716 126.659 367.14 126.621C367.696 126.588 368.337 126.773 368.591 126.008C368.813 126.014 369.03 126.025 369.253 126.03L369.221 125.998C369.221 126.437 369.226 126.876 369.226 127.314V127.309Z" fill="white"/>
<path d="M97.3351 8.26123H97.6053C97.886 8.46717 98.1719 8.6731 98.4526 8.87904C98.352 10.0442 97.9442 10.4669 96.9591 9.52395C97.0862 9.10124 97.208 8.68394 97.3351 8.26123Z" fill="white"/>
<path d="M166.721 181.178C166.896 181.178 167.076 181.178 167.25 181.178C167.494 181.389 167.738 181.606 167.981 181.817V181.828C168.177 182.148 168.368 182.468 168.553 182.793L168.564 182.879C168.146 182.988 167.727 183.102 167.309 183.21L167.288 183.188C167.213 182.831 167.007 182.603 166.652 182.511C166.673 182.067 166.7 181.622 166.721 181.178Z" fill="white"/>
<path d="M116.396 90.3108C115.999 90.094 115.697 89.7905 115.946 89.3244C116.121 88.9884 116.476 89.0589 116.778 89.2052C117.058 89.3407 117.334 89.4979 117.614 89.6496C117.625 89.8718 117.641 90.0994 117.651 90.3216C117.233 90.3216 116.815 90.3216 116.396 90.3162V90.3108Z" fill="white"/>
<path d="M204.244 38.9947C204.144 38.8213 203.943 38.6316 203.969 38.4853C204.043 38.1113 204.356 37.9921 204.658 38.2035C204.779 38.2902 204.859 38.6316 204.79 38.7562C204.71 38.8971 204.435 38.9188 204.244 38.9947Z" fill="white"/>
<path d="M186.058 82.2467C186.09 81.8782 186.286 81.6451 186.651 81.6993C187.001 81.7535 187.181 82.0299 187.08 82.3713C187.033 82.5285 186.837 82.7182 186.678 82.7561C186.307 82.8428 186.116 82.599 186.058 82.2467Z" fill="white"/>
<path d="M384.479 154.856C384.283 154.986 384.072 155.007 383.854 154.915C383.701 154.959 383.553 154.942 383.415 154.872C383.309 154.991 383.182 155.013 383.044 154.942C383.399 154.547 383.235 154.086 383.203 153.642C383.637 153.62 384.072 153.593 384.506 153.571C384.501 153.999 384.495 154.422 384.49 154.85L384.479 154.856Z" fill="white"/>
<path d="M170.64 148.119C170.698 147.615 170.735 147.025 171.424 147.133C171.858 147.204 171.906 147.697 171.932 148.103C171.503 148.109 171.074 148.114 170.64 148.119Z" fill="white"/>
<path d="M379.851 118.578C379.851 118.351 379.851 118.129 379.856 117.901C380.328 117.917 380.481 117.603 380.561 117.213C380.767 117.213 380.974 117.229 381.18 117.251C381.201 117.69 381.217 118.129 381.239 118.567C380.783 119.413 380.317 118.665 379.851 118.578Z" fill="white"/>
<path d="M374.359 115.923C374.216 116.047 374.073 116.286 373.93 116.286C373.543 116.286 373.379 115.988 373.527 115.646C373.586 115.516 373.903 115.397 374.057 115.44C374.189 115.478 374.258 115.755 374.354 115.928L374.359 115.923Z" fill="white"/>
<path d="M365.127 51.7518C365.032 51.5838 364.836 51.3941 364.863 51.2478C364.937 50.8847 365.239 50.7655 365.535 50.9714C365.652 51.0527 365.726 51.3887 365.657 51.5134C365.578 51.6488 365.313 51.6759 365.127 51.7518Z" fill="white"/>
<path d="M354.71 131.384C355.149 131.374 355.589 131.363 356.028 131.346C355.97 131.867 356.007 132.544 355.239 132.425C354.778 132.354 354.736 131.812 354.71 131.384Z" fill="white"/>
<path d="M146.664 9.37218C146.553 9.2096 146.336 9.0416 146.347 8.89528C146.384 8.5105 146.68 8.35876 147.009 8.54302C147.141 8.61889 147.252 8.96031 147.194 9.10121C147.136 9.24212 146.85 9.28547 146.664 9.37218Z" fill="white"/>
<path d="M332.106 115.657C331.995 115.494 331.783 115.326 331.799 115.18C331.847 114.806 332.143 114.654 332.461 114.822C332.588 114.893 332.683 115.234 332.625 115.375C332.562 115.516 332.286 115.565 332.106 115.657Z" fill="white"/>
<path d="M329.601 35.8079C330.035 35.8404 330.58 35.8784 330.633 36.3715C330.723 37.179 330.051 37.1086 329.521 37.1411C329.548 36.6967 329.574 36.2523 329.595 35.8025L329.601 35.8079Z" fill="white"/>
<path d="M138.725 37.1465C139.006 36.4854 139.567 36.4474 140.16 36.4908C140.049 37.5313 139.726 38.1058 138.725 37.1465Z" fill="white"/>
<path d="M136.844 197.983C137.279 197.978 137.824 198.005 137.904 198.471C138.036 199.224 137.401 199.278 136.86 199.327L136.844 197.978V197.983Z" fill="white"/>
<path d="M307.065 1.35158L307.097 1.15648L307.07 0.961384C307.499 0.901771 307.928 0.847577 308.352 0.787964L308.363 0.798801C308.564 1.06977 308.765 1.34616 308.966 1.61713C308.929 1.73636 308.929 1.85558 308.966 1.98023C308.543 2.03442 308.114 2.08862 307.69 2.14281C307.483 1.87726 307.272 1.61171 307.065 1.34616V1.35158Z" fill="white"/>
<path d="M294.454 27.0446C294.025 26.4485 293.586 25.8524 293.808 25.0395C294.01 25.034 294.211 25.034 294.412 25.0395C294.64 25.2671 294.873 25.4947 295.101 25.7277L295.085 25.7115C295.064 26.1504 295.048 26.5894 295.026 27.0338C294.836 27.023 294.64 27.0338 294.449 27.0501L294.454 27.0446Z" fill="white"/>
<path d="M122.285 0.793335C122.725 0.798754 123.164 0.809589 123.604 0.815009C123.578 1.24314 123.54 1.7905 123.085 1.86095C122.328 1.9856 122.354 1.30818 122.285 0.793335Z" fill="white"/>
<path d="M289.227 3.50847C289.645 3.5464 290.196 3.55183 290.249 4.04499C290.334 4.81454 289.672 4.78744 289.147 4.8308C289.174 4.38641 289.2 3.94744 289.221 3.50305L289.227 3.50847Z" fill="white"/>
<path d="M117.662 159.533C117.662 160.01 117.662 160.487 117.657 160.969C117.217 160.953 116.778 160.942 116.343 160.926L116.381 159.787C116.809 159.701 117.238 159.619 117.667 159.533H117.662Z" fill="white"/>
<path d="M285.207 80.8864C284.635 80.8918 284.111 80.8051 283.835 80.2089C284.921 79.1305 285.064 80.0138 285.207 80.8864Z" fill="white"/>
<path d="M112.429 84.6636C112.429 84.3872 112.429 84.1054 112.429 83.829C112.836 83.7694 113.25 83.7098 113.657 83.6448L113.615 83.6014C113.626 84.0404 113.636 84.474 113.641 84.9129L113.668 84.8858C113.255 84.8154 112.842 84.7395 112.429 84.6636Z" fill="white"/>
<path d="M276.58 202.671C276.655 202.172 276.67 201.403 277.327 201.603C278.047 201.826 277.714 202.362 277.232 202.698C277.015 202.693 276.798 202.682 276.58 202.666V202.671Z" fill="white"/>
<path d="M108.547 113.815C108.669 113.668 108.77 113.425 108.913 113.387C109.304 113.294 109.532 113.555 109.506 113.923C109.479 114.302 109.167 114.454 108.844 114.33C108.701 114.275 108.642 113.994 108.547 113.815Z" fill="white"/>
<path d="M107.768 184.088C107.895 184.234 108.123 184.381 108.123 184.527C108.123 184.922 107.826 185.08 107.493 184.933C107.366 184.874 107.249 184.549 107.292 184.397C107.329 184.261 107.604 184.191 107.768 184.093V184.088Z" fill="white"/>
<path d="M268.17 165.012C268.26 164.67 268.498 164.508 268.805 164.621C268.932 164.67 269.07 164.941 269.059 165.098C269.028 165.451 268.742 165.586 268.44 165.483C268.313 165.44 268.26 165.174 268.17 165.012Z" fill="white"/>
<path d="M101.196 116.297C101.026 116.221 100.767 116.194 100.693 116.064C100.534 115.765 100.645 115.462 100.979 115.381C101.127 115.343 101.413 115.462 101.482 115.597C101.641 115.896 101.503 116.156 101.191 116.302L101.196 116.297Z" fill="white"/>
<path d="M259.251 216.127C258.817 216.144 258.383 216.154 257.943 216.171C258.039 215.737 258.129 215.304 258.224 214.865C258.409 214.897 258.568 214.843 258.706 214.713C258.923 214.751 259.14 214.783 259.352 214.81C259.315 215.249 259.283 215.688 259.251 216.127Z" fill="white"/>
<path d="M98.4362 72.8117C98.4521 72.3673 98.468 71.9175 98.4839 71.4731C98.9023 71.4731 99.3154 71.4731 99.7285 71.4731C99.7285 71.9175 99.7285 72.3565 99.7285 72.8009C99.2995 72.8009 98.8705 72.8117 98.4415 72.8172L98.4362 72.8117Z" fill="white"/>
<path d="M257.466 160.964C257.403 161.554 257.376 162.156 256.693 162.4L256.629 162.324C256.434 162.096 256.243 161.863 256.047 161.636L256.058 161.321V161.007C256.291 160.774 256.529 160.546 256.762 160.313C256.995 160.53 257.233 160.747 257.466 160.964Z" fill="white"/>
<path d="M97.684 50.6518C97.7158 51.0853 97.7529 51.5135 97.7847 51.9416C97.361 51.947 96.789 51.9795 96.6883 51.5351C96.5189 50.8035 97.1438 50.7168 97.684 50.6464V50.6518Z" fill="white"/>
<path d="M94.9463 120.594C94.8033 120.724 94.6603 120.963 94.5173 120.963C94.1254 120.963 93.9612 120.665 94.1095 120.318C94.1677 120.182 94.4908 120.069 94.6497 120.107C94.7821 120.139 94.851 120.421 94.9463 120.594Z" fill="white"/>
<path d="M86.5517 14.8728C86.5888 14.4501 86.557 13.8756 87.039 13.816C87.7698 13.7239 87.7857 14.3959 87.8599 14.927C87.4256 14.9108 86.986 14.8945 86.5517 14.8782V14.8728Z" fill="white"/>
<path d="M85.641 6.12065C85.3391 6.12065 85.0372 6.13149 84.7353 6.13691C84.6718 5.70336 84.6082 5.26981 84.5446 4.84167C84.9736 4.84167 85.4026 4.84168 85.8369 4.8471C85.7734 5.27523 85.7098 5.69794 85.6463 6.12065H85.641Z" fill="white"/>
<path d="M83.2203 222.126C83.7552 222.197 84.4702 221.942 84.5285 222.874L84.5391 222.863C84.2266 223.064 83.9194 223.27 83.607 223.47H83.4692C83.2574 223.075 83.0455 222.685 82.8337 222.289C83.0085 222.349 83.1356 222.289 83.2203 222.126Z" fill="white"/>
<path d="M83.1253 105.832C83.1571 106.265 83.1889 106.693 83.2153 107.127C82.7916 107.127 82.2197 107.16 82.119 106.715C81.9549 105.984 82.5851 105.902 83.12 105.832H83.1253Z" fill="white"/>
<path d="M79.2322 118.578C79.3116 118.074 79.3063 117.294 79.9842 117.494C80.7098 117.711 80.3868 118.264 79.9207 118.632C79.6929 118.616 79.4599 118.6 79.2322 118.584V118.578Z" fill="white"/>
<path d="M287.639 6.77103C287.279 6.70057 286.749 7.0149 286.617 6.45128C286.569 6.2345 286.876 5.93644 287.019 5.67631V5.5896C287.263 5.88225 287.506 6.17489 287.75 6.46754C287.623 6.53799 287.586 6.63554 287.639 6.77103Z" fill="white"/>
<path d="M286.548 11.5778C287.051 11.5453 287.475 11.7133 287.792 12.1251C287.586 12.3907 287.379 12.6508 287.173 12.9164C286.987 12.8784 286.797 12.8676 286.611 12.8839L286.548 11.5778Z" fill="white"/>
<path d="M266.597 223.552L267.328 223.422C267.492 223.525 267.672 223.59 267.862 223.606C267.894 223.79 267.921 223.974 267.942 224.159C267.682 224.392 267.423 224.63 267.158 224.863C267.047 224.814 266.93 224.814 266.814 224.852C266.74 224.419 266.666 223.985 266.597 223.552Z" fill="white"/>
<path d="M145.493 207.402C145.26 207.635 145.027 207.873 144.794 208.106L144.127 207.407L144.137 207.396C144.354 207.174 144.572 206.952 144.783 206.73L144.799 206.714C145.022 206.714 145.244 206.724 145.467 206.724C145.483 206.947 145.488 207.169 145.493 207.391V207.402Z" fill="white"/>
<path d="M129.61 175.07C129.584 174.506 129.33 173.834 130.246 173.737L130.262 173.748C130.468 173.997 130.675 174.241 130.881 174.49C130.881 174.669 130.881 174.848 130.881 175.027C130.452 175.032 130.023 175.043 129.594 175.048L129.61 175.075V175.07Z" fill="white"/>
<path d="M124.939 154.259C125.013 153.956 125.019 153.441 125.177 153.387C125.85 153.154 126.019 153.766 126.258 154.221C125.818 154.238 125.379 154.249 124.939 154.259Z" fill="white"/>
<path d="M9.0634 52.619C9.29643 52.1908 9.66185 51.8657 10.0644 52.2721C10.4669 52.6786 10.1544 53.0471 9.7307 53.291C9.50825 53.0688 9.28584 52.8411 9.0634 52.619Z" fill="white"/>
<path d="M360.028 71.4676C360.25 71.4676 360.473 71.4622 360.695 71.4568C360.907 71.6898 361.114 71.9229 361.32 72.1505C361.076 72.7737 360.557 72.817 360.007 72.8062C360.012 72.3618 360.023 71.912 360.028 71.4676Z" fill="white"/>
<path d="M355.966 32.6647L355.987 32.9465C355.765 33.2175 355.542 33.4939 355.32 33.7649C355.156 33.7323 354.986 33.7269 354.822 33.7486C354.78 33.3096 354.737 32.8707 354.695 32.4317V32.4263C355.124 32.5076 355.547 32.5888 355.966 32.6701V32.6647Z" fill="white"/>
<path d="M331.544 166.28C331.528 165.808 331.65 165.391 331.989 165.06C332.259 165.32 332.529 165.581 332.804 165.841L332.789 166.133C332.37 166.182 331.957 166.225 331.544 166.274V166.28Z" fill="white"/>
<path d="M198.132 223.243C198.048 223.069 197.873 222.88 197.899 222.733C197.963 222.376 198.254 222.251 198.561 222.425C198.657 222.479 198.704 222.815 198.635 222.929C198.54 223.08 198.307 223.145 198.132 223.248V223.243Z" fill="white"/>
<path d="M83.8983 107.133C84.1101 106.889 84.3273 106.645 84.5391 106.401C84.7721 106.417 84.9999 106.434 85.2329 106.455C85.2117 106.9 85.1905 107.344 85.1694 107.794C84.6397 107.778 84.1419 107.713 83.8983 107.133Z" fill="white"/>
<path d="M7.68567 78.8814C7.74393 78.4424 7.80219 78.0088 7.85516 77.5699C7.98227 77.6132 8.11466 77.6132 8.24177 77.5645C8.50658 77.8029 8.77669 78.0359 9.0415 78.2744C9.02562 78.4316 9.02561 78.5941 9.0362 78.7513C8.60191 78.8055 8.16234 78.8597 7.72805 78.9139L7.68567 78.8814Z" fill="white"/>
<path d="M83.9041 123.277C83.9306 123.499 83.9306 123.721 83.8988 123.944C83.4804 123.944 83.2844 124.171 83.2791 124.588C83.1891 124.67 83.0938 124.751 82.9984 124.832C82.866 124.74 82.7177 124.681 82.5641 124.648C82.58 124.252 82.6012 123.862 82.6171 123.467C83.0461 123.402 83.4698 123.331 83.8988 123.266L83.9094 123.282L83.9041 123.277Z" fill="white"/>
<path d="M191.204 24.3623C191.406 24.3514 191.607 24.3514 191.808 24.3514C192.025 24.5899 192.237 24.8283 192.454 25.0668L192.428 25.0451L192.412 25.354L192.422 25.6629H192.459C192.025 25.6738 191.591 25.6792 191.157 25.6846C191.178 25.2402 191.194 24.7958 191.204 24.3514V24.3623Z" fill="white"/>
<path d="M81.1872 204.058C81.4467 204.481 81.9605 204.768 81.8863 205.375C80.933 205.469 80.5322 205.039 80.6841 204.085C80.8535 204.134 81.023 204.123 81.1872 204.058Z" fill="white"/>
<path d="M187.89 185.047C187.71 184.955 187.44 184.912 187.376 184.765C187.318 184.63 187.471 184.397 187.535 184.202C187.715 184.31 187.932 184.38 188.059 184.532C188.25 184.749 188.165 184.95 187.89 185.047Z" fill="white"/>
<path d="M309.666 186.505C309.909 186.749 310.158 186.987 310.402 187.231C310.381 187.453 310.365 187.67 310.354 187.892H309.666C309.449 187.675 309.231 187.459 309.014 187.242L308.993 187.22C309.221 186.982 309.443 186.743 309.671 186.505H309.666Z" fill="white"/>
<path d="M17.5789 68.7416C17.3935 68.7199 17.2135 68.7254 17.0281 68.7633C16.8215 68.449 16.6203 68.1346 16.4137 67.8203C16.615 67.6632 16.8162 67.5114 17.0175 67.3542C17.2346 67.3759 17.4518 67.3976 17.6689 67.4301V67.4247C17.6372 67.8637 17.6054 68.3026 17.5789 68.7416Z" fill="white"/>
<path d="M175.952 97.7139C176.365 97.9523 176.662 98.3208 176.286 98.7219C175.905 99.1283 175.534 98.8194 175.28 98.4292C175.502 98.1908 175.73 97.9523 175.952 97.7139Z" fill="white"/>
<path d="M52.0471 82.2521L52.1477 80.9081C52.8521 81.4121 52.958 81.8727 52.0471 82.2521Z" fill="white"/>
<path d="M52.8257 224.208C52.8257 223.845 52.9157 223.476 53.3553 223.584C53.8849 223.709 53.6572 224.023 53.4241 224.289C53.2282 224.246 53.0269 224.218 52.8257 224.208Z" fill="white"/>
<path d="M377.891 114.563C378.325 114.563 378.754 114.552 379.189 114.546C379.21 114.769 379.215 114.991 379.194 115.213C378.961 115.213 378.728 115.213 378.49 115.213C378.288 115.229 378.087 115.213 377.891 115.148V114.855V114.563Z" fill="white"/>
<path d="M372.59 111.836C372.579 112.281 372.574 112.731 372.563 113.175C372.373 113.175 372.182 113.175 371.991 113.164C371.97 112.72 371.949 112.281 371.928 111.836C372.15 111.826 372.367 111.826 372.59 111.836Z" fill="white"/>
<path d="M371.234 49.2643C371.239 49.7087 371.249 50.1531 371.26 50.6029C371.032 50.6029 370.799 50.6029 370.572 50.6029C370.603 50.1585 370.635 49.7141 370.667 49.2698C370.857 49.2698 371.048 49.2643 371.239 49.2589L371.234 49.2643Z" fill="white"/>
<path d="M59.3662 13.5343C58.9266 13.5669 58.487 13.5939 58.0475 13.6265C58.0475 13.3826 58.0527 13.1441 58.058 12.9003C58.4976 12.9274 58.9319 12.9599 59.3662 12.987C59.3556 13.1712 59.3556 13.3501 59.3662 13.5343Z" fill="white"/>
<path d="M366.07 100.667C366.483 100.57 366.891 100.467 367.304 100.369C367.362 101.93 366.547 100.835 366.075 100.792V100.667H366.07Z" fill="white"/>
<path d="M363.936 150.217C363.856 150.623 363.777 151.029 363.698 151.436L363.618 151.474C363.533 151.057 363.454 150.639 363.374 150.222C363.565 150.211 363.75 150.211 363.941 150.222L363.936 150.217Z" fill="white"/>
<path d="M354.757 149.317C355.244 148.987 355.742 148.596 356.028 149.523C355.605 149.453 355.181 149.382 354.757 149.317Z" fill="white"/>
<path d="M350.097 18.3467C350.637 18.3088 351.156 18.3088 351.368 18.9591C350.849 18.9591 350.346 18.9212 350.097 18.3467Z" fill="white"/>
<path d="M345.352 74.8601C345.383 75.2991 345.42 75.7381 345.452 76.177H344.742C344.78 75.7326 344.817 75.2883 344.854 74.8439C345.018 74.8601 345.182 74.8655 345.352 74.8601Z" fill="white"/>
<path d="M341.448 108.482C341.448 108.931 341.459 109.376 341.459 109.82H340.792C340.808 109.376 340.818 108.926 340.829 108.482C341.035 108.482 341.242 108.482 341.443 108.482H341.448Z" fill="white"/>
<path d="M333.52 177.075C334.002 176.354 334.452 176.197 334.839 177.151C334.399 177.124 333.959 177.102 333.52 177.075Z" fill="white"/>
<path d="M330.776 64.0917C330.744 64.5794 330.485 64.8504 330.013 64.7583C329.701 64.6987 329.574 64.4006 329.579 64.0754C329.976 64.0754 330.374 64.0863 330.776 64.0917Z" fill="white"/>
<path d="M324.135 126.691L324.225 127.986C323.992 127.986 323.764 127.997 323.531 127.997C323.579 127.553 323.627 127.114 323.68 126.669C323.828 126.691 323.981 126.697 324.135 126.691Z" fill="white"/>
<path d="M316.296 69.446C316.259 69.8741 316.222 70.3077 316.185 70.7358C316.036 70.7358 315.888 70.7412 315.74 70.7629L315.602 69.4406C315.835 69.4406 316.068 69.4406 316.301 69.4406L316.296 69.446Z" fill="white"/>
<path d="M314.278 63.4037C314.294 63.8481 314.304 64.2925 314.32 64.7369C314.103 64.7477 313.886 64.7423 313.664 64.7314C313.685 64.2925 313.706 63.8481 313.727 63.4091C313.912 63.4091 314.093 63.4091 314.278 63.4091V63.4037Z" fill="white"/>
<path d="M311 85.5959C311.44 85.5959 311.879 85.596 312.319 85.6014C312.319 85.8127 312.319 86.0241 312.319 86.2354C311.879 86.2409 311.44 86.2463 311.005 86.2571V85.9265V85.5959H311Z" fill="white"/>
<path d="M311.667 189.236C311.673 189.464 311.683 189.692 311.694 189.925C311.244 189.919 310.793 189.914 310.343 189.908C310.322 189.686 310.343 189.469 310.412 189.258C310.831 189.253 311.249 189.242 311.673 189.236H311.667Z" fill="white"/>
<path d="M306.372 192.612C306.811 192.612 307.251 192.602 307.69 192.596C307.261 193.371 306.817 193.36 306.372 192.612Z" fill="white"/>
<path d="M305.079 59.339C305.021 59.7671 304.957 60.1953 304.899 60.6288C304.777 60.6125 304.655 60.618 304.534 60.6559L304.322 59.3444C304.576 59.3444 304.825 59.3444 305.079 59.339Z" fill="white"/>
<path d="M297.092 33.7704C297.532 33.7758 297.971 33.7866 298.406 33.7921C297.956 34.5183 297.516 34.5399 297.092 33.7704Z" fill="white"/>
<path d="M67.8613 13.9896C67.4641 14.0817 67.0669 14.1684 66.6697 14.2605C66.7862 13.2363 67.3794 13.7457 67.856 13.8757V13.9896H67.8613Z" fill="white"/>
<path d="M290.536 134.734C290.085 134.712 289.635 134.69 289.18 134.668C289.667 133.953 290.117 133.969 290.536 134.734Z" fill="white"/>
<path d="M281.913 11.6701C282.342 11.6268 282.771 11.5834 283.2 11.54L283.216 11.5563C283.226 11.7839 283.232 12.0169 283.242 12.2446L283.2 12.2933C282.766 12.2391 282.331 12.1849 281.897 12.1308C281.918 11.979 281.923 11.8219 281.918 11.6701H281.913Z" fill="white"/>
<path d="M70.0117 226.235C70.0011 225.79 69.9852 225.346 69.9747 224.901H70.6685C70.642 225.346 70.6155 225.79 70.589 226.235C70.3984 226.235 70.2024 226.235 70.0117 226.235Z" fill="white"/>
<path d="M275.912 64.7313C275.912 65.1811 275.907 65.6309 275.902 66.0753C275.695 66.0753 275.488 66.0753 275.282 66.0699L275.25 64.7367C275.473 64.7367 275.69 64.7367 275.912 64.7367V64.7313Z" fill="white"/>
<path d="M264.663 32.4589H265.961C265.527 33.2501 265.098 33.2501 264.663 32.4589Z" fill="white"/>
<path d="M263.413 37.7807C263.366 37.5748 263.323 37.3689 263.27 37.1629C263.18 36.7944 263.403 36.5885 263.647 36.3879C263.79 36.6427 263.98 36.8865 264.06 37.1575C264.113 37.3418 264.012 37.5694 263.975 37.7753C263.784 37.7482 263.599 37.7482 263.408 37.7753L263.413 37.7807Z" fill="white"/>
<path d="M254.05 115.208C254.05 115.657 254.05 116.102 254.05 116.546C253.838 116.546 253.631 116.546 253.425 116.546C253.42 116.102 253.414 115.652 253.409 115.208C253.626 115.208 253.843 115.208 254.055 115.208H254.05Z" fill="white"/>
<path d="M252.069 226.24C252.503 226.256 252.943 226.278 253.377 226.294C253.366 226.462 253.361 226.63 253.366 226.798C252.937 226.836 252.503 226.879 252.074 226.917C252.074 226.69 252.074 226.468 252.063 226.24H252.069Z" fill="white"/>
<path d="M74.6245 193.296C74.1849 193.274 73.7453 193.258 73.3058 193.236C73.7771 192.483 74.222 192.391 74.6245 193.296Z" fill="white"/>
<path d="M74.1803 185.096C74.1168 184.684 74.0532 184.277 73.995 183.865C74.1856 183.855 74.3816 183.849 74.5723 183.865C74.4981 184.288 74.4292 184.705 74.3551 185.128L74.1856 185.096H74.1803Z" fill="white"/>
<path d="M249.532 27.3212C249.717 27.2345 249.908 27.1478 250.093 27.0611C250.459 26.8823 250.766 27.1261 250.766 27.3863C250.766 27.641 250.464 27.8848 250.099 27.6952C249.913 27.5976 249.723 27.5217 249.537 27.435V27.3212H249.532Z" fill="white"/>
<path d="M248.896 115.419C249.293 115.349 249.685 115.278 250.082 115.208C250.104 115.43 250.082 115.647 250.014 115.864C249.579 115.88 249.198 115.75 248.896 115.419Z" fill="white"/>
<path d="M248.086 45.8936C248.081 46.338 248.071 46.777 248.065 47.2214C247.885 47.2214 247.7 47.216 247.52 47.216C247.509 46.777 247.499 46.338 247.488 45.9045C247.684 45.8882 247.885 45.8882 248.081 45.899L248.086 45.8936Z" fill="white"/>
<path d="M244.797 139.454C245.237 139.448 245.671 139.438 246.111 139.432C245.687 140.288 245.248 140.283 244.797 139.454Z" fill="white"/>
<path d="M242.928 140.055C243.065 139.335 243.574 139.313 244.135 139.4C244.024 140.18 243.447 140.066 242.928 140.055Z" fill="white"/>
<path d="M241.477 35.797C241.912 34.9516 242.356 34.9732 242.801 35.7861C242.362 35.7861 241.917 35.7916 241.477 35.797Z" fill="white"/>
<path d="M229.608 153.013C229.984 152.997 230.641 152.65 230.662 153.105C230.705 153.961 229.99 153.365 229.608 153.436V153.224V153.013Z" fill="white"/>
<path d="M226.933 66.8013C227.367 66.785 227.801 66.7742 228.23 66.7579C227.828 67.6901 227.388 67.5492 226.933 66.8013Z" fill="white"/>
<path d="M222.219 121.96C222.235 122.404 222.257 122.843 222.272 123.288C222.05 123.288 221.828 123.288 221.605 123.288C221.621 122.843 221.632 122.399 221.653 121.955C221.843 121.955 222.034 121.955 222.219 121.96Z" fill="white"/>
<path d="M213.005 48.5815C213.445 48.5815 213.884 48.5815 214.324 48.587C214.324 48.7983 214.324 49.0151 214.324 49.2265C213.884 49.2373 213.445 49.2536 213 49.2644C213 49.0368 213 48.8092 213 48.5815H213.005Z" fill="white"/>
<path d="M210.78 148.304C210.855 148.71 210.929 149.117 210.998 149.523C210.807 149.523 210.622 149.518 210.431 149.512C210.5 149.095 210.563 148.672 210.632 148.255L210.78 148.304Z" fill="white"/>
<path d="M207.693 195.301L207.708 196.639C207.486 196.639 207.264 196.639 207.041 196.639C207.046 196.189 207.052 195.745 207.057 195.295C207.269 195.295 207.481 195.295 207.693 195.295V195.301Z" fill="white"/>
<path d="M205.05 196.617C205.458 196.639 205.871 196.655 206.279 196.677C205.839 197.398 205.421 197.533 205.05 196.617Z" fill="white"/>
<path d="M201.083 198.01C201.448 197.04 201.904 197.268 202.396 197.902C201.957 197.94 201.523 197.972 201.083 198.01Z" fill="white"/>
<path d="M201.05 150.889C201.098 151.295 201.14 151.902 200.695 151.88C200.33 151.864 200.356 151.219 200.404 150.807C200.616 150.856 200.833 150.883 201.05 150.894V150.889Z" fill="white"/>
<path d="M198.434 155.582C198.837 154.769 199.281 154.861 199.742 155.528C199.308 155.544 198.868 155.565 198.434 155.582Z" fill="white"/>
<path d="M199.764 190.58C199.758 191.025 199.753 191.474 199.748 191.919C199.552 191.919 199.356 191.919 199.16 191.908C199.133 191.463 199.102 191.019 199.075 190.575C199.303 190.575 199.536 190.575 199.764 190.575V190.58Z" fill="white"/>
<path d="M196.554 21.2841C196.957 21.1919 197.359 21.0998 197.757 21.0131L197.746 20.9968L197.772 21.3274V21.6634C197.291 21.7989 196.914 21.5388 196.523 21.3383L196.554 21.2841Z" fill="white"/>
<path d="M188.478 25.6576C188.038 25.6739 187.593 25.6901 187.153 25.7064C187.572 24.9693 188.011 24.9368 188.478 25.6576Z" fill="white"/>
<path d="M188.387 190.624C187.958 191.404 187.55 191.437 187.18 190.58C187.582 190.597 187.985 190.613 188.387 190.624Z" fill="white"/>
<path d="M187.169 6.18034C186.952 6.1966 186.74 6.1966 186.523 6.18034C186.539 5.73595 186.56 5.29156 186.576 4.84717C186.799 5.06936 187.016 5.29698 187.238 5.51917C187.212 5.73595 187.191 5.95815 187.164 6.17492L187.169 6.18034Z" fill="white"/>
<path d="M183.313 111.468C183.79 111.322 184.394 110.736 184.505 111.831L184.521 111.815C184.108 111.717 183.7 111.614 183.287 111.517L183.313 111.468Z" fill="white"/>
<path d="M183.801 17.6529L183.854 18.9644C183.642 18.9915 183.425 18.9915 183.213 18.9644C183.244 18.5255 183.276 18.0865 183.308 17.6421C183.472 17.6475 183.636 17.6475 183.801 17.6421V17.6529Z" fill="white"/>
<path d="M182.63 142.873C183.044 142.852 183.451 142.83 183.864 142.814C183.87 143.052 183.875 143.285 183.88 143.524C183.277 143.686 182.758 143.675 182.63 142.879V142.873Z" fill="white"/>
<path d="M183.859 217.504C183.859 217.948 183.854 218.393 183.848 218.837C183.647 218.837 183.446 218.843 183.239 218.837C183.223 218.393 183.207 217.943 183.192 217.493C183.414 217.493 183.636 217.493 183.854 217.499L183.859 217.504Z" fill="white"/>
<path d="M183.122 71.4999C183.154 71.9389 183.186 72.3779 183.218 72.8114C182.995 72.8114 182.768 72.8114 182.545 72.8114C182.582 72.3725 182.625 71.9335 182.662 71.4945C182.815 71.5108 182.969 71.5108 183.128 71.4999H183.122Z" fill="white"/>
<path d="M177.255 48.549C177.705 47.8391 178.145 47.8011 178.568 48.5707C178.129 48.5653 177.689 48.5544 177.255 48.549Z" fill="white"/>
<path d="M178.573 134.051C178.118 134.024 177.662 133.997 177.207 133.969C177.228 133.796 177.228 133.628 177.207 133.455C177.662 133.427 178.118 133.4 178.573 133.373C178.573 133.601 178.573 133.823 178.573 134.051Z" fill="white"/>
<path d="M175.92 37.1357C176.354 37.152 176.794 37.1628 177.228 37.1845C177.228 37.3688 177.228 37.553 177.228 37.7373C176.794 37.7644 176.359 37.7969 175.92 37.824C175.92 37.5964 175.92 37.3634 175.92 37.1357Z" fill="white"/>
<path d="M175.925 191.935C176.365 191.935 176.799 191.94 177.239 191.946C177.239 192.146 177.239 192.342 177.239 192.542L175.936 192.569V192.255V191.94L175.925 191.935Z" fill="white"/>
<path d="M171.265 58.0113C171.233 58.4394 171.201 58.8675 171.164 59.2956C171.005 59.2956 170.846 59.3065 170.687 59.3336C170.64 58.8838 170.592 58.4394 170.55 57.995C170.788 57.995 171.026 58.0058 171.265 58.0113Z" fill="white"/>
<path d="M86.541 66.7636C86.1226 66.7149 85.7042 66.6715 85.2858 66.6227C85.7678 66.0971 86.2127 65.8965 86.541 66.7636Z" fill="white"/>
<path d="M156.122 109.29C156.546 109.241 156.965 109.192 157.388 109.143V109.149C157.388 109.376 157.388 109.604 157.394 109.826V109.832C156.959 109.777 156.53 109.718 156.101 109.664L156.128 109.479V109.29H156.122Z" fill="white"/>
<path d="M155.387 55.3124C155.387 55.7622 155.392 56.2066 155.397 56.651C155.186 56.651 154.968 56.651 154.757 56.651C154.762 56.2066 154.773 55.7622 154.778 55.3178C154.979 55.3178 155.186 55.3124 155.392 55.3178L155.387 55.3124Z" fill="white"/>
<path d="M88.5171 98.3855C88.5489 97.9465 88.5807 97.513 88.6125 97.074C88.7661 97.0903 88.9144 97.0903 89.068 97.0686C89.1156 97.5076 89.1633 97.952 89.2109 98.3909L89.1898 98.4072C88.9673 98.4072 88.7396 98.3964 88.5171 98.3909V98.3855Z" fill="white"/>
<path d="M149.444 27.6951C149.9 26.9743 150.339 26.9309 150.763 27.7222C150.324 27.7113 149.884 27.7059 149.444 27.6951Z" fill="white"/>
<path d="M89.2212 22.3138C89.2 21.8694 89.1841 21.425 89.1629 20.9806C89.9997 21.387 89.9308 21.8368 89.2212 22.3138Z" fill="white"/>
<path d="M89.4698 16.1464C89.4115 15.8375 89.2686 15.5123 89.3215 15.2251C89.3851 14.9054 89.7081 14.9108 89.7558 15.2359C89.7982 15.5232 89.634 15.8429 89.5652 16.1464H89.4751H89.4698Z" fill="white"/>
<path d="M144.206 42.6363C144.63 42.593 145.053 42.5442 145.477 42.5009L145.488 42.5171C145.477 42.7447 145.472 42.9669 145.461 43.1945C144.948 43.2271 144.482 43.1512 144.211 42.6363H144.206Z" fill="white"/>
<path d="M144.773 38.4961C144.768 38.9351 144.762 39.3741 144.757 39.8131C144.577 39.8185 144.392 39.8185 144.212 39.8131C144.201 39.3741 144.19 38.9297 144.174 38.4907C144.376 38.4745 144.572 38.4799 144.773 38.4907V38.4961Z" fill="white"/>
<path d="M144.821 177.785C144.79 178.203 144.763 178.625 144.731 179.042C144.17 178.804 144.064 178.327 144.096 177.78C144.339 177.78 144.583 177.78 144.821 177.785Z" fill="white"/>
<path d="M139.429 34.4802C139.488 34.8867 139.557 35.537 139.165 35.5316C138.762 35.5262 138.852 34.8867 138.921 34.4802C139.091 34.4802 139.265 34.4802 139.435 34.4802H139.429Z" fill="white"/>
<path d="M134.922 68.1835C135.351 68.1402 135.78 68.0968 136.209 68.0535C135.859 68.9314 135.415 68.823 134.922 68.1835Z" fill="white"/>
<path d="M133.54 180.473C133.974 180.495 134.408 180.511 134.843 180.533C134.377 181.221 133.942 181.264 133.54 180.473Z" fill="white"/>
<path d="M129.595 84.1545C130.092 83.5746 130.569 83.2711 130.903 84.2954C130.469 84.2466 130.029 84.2032 129.595 84.1545Z" fill="white"/>
<path d="M127.364 136.169C127.566 136.684 127.968 137.275 126.957 137.367L126.978 137.394C127.052 136.977 127.131 136.565 127.205 136.148L127.359 136.169H127.364Z" fill="white"/>
<path d="M118.753 133.476C118.811 133.682 118.859 133.888 118.928 134.089C119.06 134.495 118.869 134.652 118.509 134.587C118.239 134.539 118.213 134.327 118.34 134.078C118.435 133.894 118.472 133.677 118.536 133.471H118.748L118.753 133.476Z" fill="white"/>
<path d="M117.646 90.3162C117.657 90.5438 117.662 90.7714 117.673 90.999C117.445 91.0587 117.212 91.1129 116.984 91.1725C116.788 90.8852 116.587 90.598 116.391 90.3108C116.81 90.3108 117.228 90.3108 117.646 90.3162Z" fill="white"/>
<path d="M96.4554 170.355C96.8897 170.388 97.324 170.426 97.7583 170.458C97.271 171.119 96.8209 171.304 96.4554 170.355Z" fill="white"/>
<path d="M96.4873 210.155C96.9163 210.144 97.3506 210.133 97.7796 210.123C97.7955 210.334 97.7955 210.545 97.7796 210.762C97.3453 210.762 96.911 210.762 96.4767 210.762V210.459V210.155H96.4873Z" fill="white"/>
<path d="M93.2458 113.397C93.6536 113.327 94.0614 113.262 94.4692 113.197C94.3739 114.226 93.7437 113.717 93.2564 113.63L93.2458 113.403V113.397Z" fill="white"/>
<path d="M16.3459 95.0146C15.9169 94.9875 15.4879 94.955 15.0642 94.9279C15.0642 94.7708 15.0642 94.6082 15.0483 94.451L16.3459 94.3318L16.3564 94.3426C16.3511 94.5703 16.3459 94.7924 16.3406 95.0201L16.3459 95.0146Z" fill="white"/>
<path d="M22.2616 82.8915C21.6101 82.42 21.5148 81.9702 22.3198 81.5583C22.3039 82.0027 22.2828 82.4471 22.2616 82.8915Z" fill="white"/>
<path d="M24.9624 99.7514C24.5387 99.6972 24.1203 99.643 23.6966 99.5834V99.3883L23.6701 99.1986C24.0991 99.139 24.5281 99.0794 24.9624 99.0198C24.9624 99.2636 24.9624 99.5075 24.9624 99.7514Z" fill="white"/>
<path d="M26.1909 123.775C25.7831 123.83 25.37 123.884 24.9622 123.943C24.9622 123.748 24.9675 123.553 24.9728 123.358C25.3912 123.407 25.8043 123.461 26.2227 123.51L26.1909 123.775Z" fill="white"/>
<path d="M26.9116 66.7365C26.2125 66.2758 26.186 65.8315 26.9434 65.4033C26.9328 65.8477 26.9222 66.2921 26.9116 66.7365Z" fill="white"/>
<path d="M27.5781 134.062C27.5252 135.048 26.8737 134.782 26.3071 134.69L26.3229 134.712C26.3229 134.501 26.3441 134.295 26.3971 134.094C26.789 134.083 27.1862 134.072 27.5781 134.062Z" fill="white"/>
<path d="M30.862 10.1038C30.433 10.158 30.004 10.2068 29.575 10.261C29.575 10.0171 29.5803 9.77866 29.5856 9.53479C30.0146 9.58898 30.4436 9.63776 30.8726 9.68653C30.8461 9.82202 30.8408 9.9575 30.8567 10.0984L30.862 10.1038Z" fill="white"/>
<path d="M40.8189 152.85C40.4164 152.791 40.0192 152.731 39.6167 152.671L39.5797 152.438C40.0034 152.357 40.427 152.276 40.8507 152.195L40.8613 152.211C40.856 152.433 40.8349 152.65 40.8031 152.867L40.8189 152.845V152.85Z" fill="white"/>
<path d="M41.4279 18.1246C41.0148 18.1788 40.6017 18.2275 40.1939 18.2817V17.9674V17.6531C40.6229 17.691 41.0466 17.7344 41.4756 17.7723C41.4226 17.8807 41.4068 17.9999 41.4279 18.1191V18.1246Z" fill="white"/>
<path d="M46.0938 21.5767C45.6648 21.6146 45.2358 21.6526 44.8121 21.6905C45.1669 20.818 45.6118 20.9426 46.0938 21.5767Z" fill="white"/>
<path d="M46.7725 91.6658C46.7142 92.6358 46.1051 92.4787 45.4908 92.3107C45.6762 91.6007 46.2375 91.6549 46.7725 91.6658Z" fill="white"/>
<path d="M392.387 111.192C392.323 111.354 392.286 111.64 392.196 111.661C391.826 111.748 391.804 111.456 391.81 111.181C392 111.175 392.196 111.181 392.387 111.192Z" fill="white"/>
<path d="M384.511 171.731C384.506 172.187 384.278 172.42 383.828 172.425C383.881 172.019 384.109 171.786 384.511 171.731Z" fill="white"/>
<path d="M379.872 140.104C379.857 139.811 379.872 139.508 380.264 139.594C380.36 139.616 380.402 139.914 380.466 140.088C380.27 140.098 380.068 140.104 379.872 140.104Z" fill="white"/>
<path d="M375.222 189.892C374.772 189.914 374.549 189.702 374.57 189.242C374.967 189.274 375.185 189.491 375.222 189.892Z" fill="white"/>
<path d="M373.183 60.7155C373.236 60.9214 373.251 61.1328 373.225 61.3441C372.812 61.3333 372.584 61.1328 372.6 60.6938C372.796 60.6884 372.992 60.6938 373.183 60.7101V60.7155Z" fill="white"/>
<path d="M361.368 172.393C361.384 172.127 361.368 171.802 361.754 171.894C361.85 171.916 361.881 172.219 361.94 172.393C361.749 172.409 361.558 172.409 361.368 172.393Z" fill="white"/>
<path d="M358.036 161.635C358.073 162.134 357.835 162.356 357.353 162.324C357.39 161.901 357.623 161.673 358.036 161.635Z" fill="white"/>
<path d="M357.353 63.3872C356.987 63.3113 356.775 63.0891 356.701 62.7206C357.056 62.8019 357.273 63.0295 357.353 63.3872Z" fill="white"/>
<path d="M357.348 84.2518C357.358 84.5607 357.358 84.9022 356.929 84.81C356.829 84.7883 356.792 84.4524 356.728 84.2627C356.935 84.2573 357.141 84.2518 357.348 84.2518Z" fill="white"/>
<path d="M349.371 140.792C349.308 140.977 349.276 141.296 349.181 141.318C348.773 141.41 348.773 141.08 348.768 140.787C348.969 140.776 349.17 140.776 349.371 140.787V140.792Z" fill="white"/>
<path d="M324.246 97.7136C324.463 97.7136 324.686 97.7082 324.903 97.7136C324.908 97.9358 324.908 98.1634 324.903 98.3856C324.696 98.3856 324.495 98.3856 324.288 98.3747C324.257 98.158 324.251 97.9412 324.267 97.7244H324.241L324.246 97.7136Z" fill="white"/>
<path d="M311.64 190.586C311.64 190.347 311.64 190.109 311.64 189.876C312.117 189.86 312.324 190.098 312.292 190.569C312.075 190.569 311.863 190.58 311.646 190.591L311.64 190.586Z" fill="white"/>
<path d="M310.99 82.9188C311 83.1355 310.99 83.3469 310.958 83.5582C310.762 83.5691 310.566 83.5745 310.37 83.5637C310.418 83.1897 310.63 82.9784 310.995 82.9133L310.99 82.9188Z" fill="white"/>
<path d="M306.334 33.7867C306.271 33.9764 306.239 34.307 306.144 34.3286C305.72 34.4262 305.731 34.0793 305.725 33.7867C305.927 33.7759 306.128 33.7759 306.334 33.7867Z" fill="white"/>
<path d="M301.044 75.5104C300.98 75.8735 300.774 76.0848 300.414 76.1499C300.493 75.803 300.705 75.5917 301.044 75.5104Z" fill="white"/>
<path d="M292.5 2.13018C292.505 1.87103 292.521 1.57949 292.882 1.66588C292.972 1.68747 293.009 1.96822 293.067 2.12479C292.882 2.14098 292.691 2.14098 292.505 2.13018H292.5Z" fill="white"/>
<path d="M283.185 16.2602C282.767 16.2494 282.534 16.0435 282.523 15.6045C282.904 15.6533 283.127 15.87 283.185 16.2602Z" fill="white"/>
<path d="M280.547 175.774L280.822 175.249L281.129 175.747C280.933 175.764 280.737 175.769 280.547 175.774Z" fill="white"/>
<path d="M271.311 60.6811C271.311 60.4273 271.337 60.152 271.676 60.2276C271.766 60.2492 271.803 60.5137 271.867 60.6649C271.681 60.6811 271.496 60.6865 271.311 60.6757V60.6811Z" fill="white"/>
<path d="M271.274 118.573C271.496 118.573 271.714 118.573 271.936 118.573C271.936 118.795 271.936 119.023 271.936 119.245C271.724 119.245 271.518 119.245 271.311 119.24C271.274 119.017 271.269 118.801 271.279 118.578L271.274 118.573Z" fill="white"/>
<path d="M270.674 169.692C270.738 169.53 270.775 169.249 270.87 169.228C271.236 169.147 271.268 169.428 271.252 169.708C271.056 169.708 270.865 169.708 270.669 169.692H270.674Z" fill="white"/>
<path d="M263.334 103.783C263.79 103.756 264.017 103.973 263.996 104.444C263.774 104.444 263.562 104.423 263.355 104.358C263.339 104.163 263.334 103.973 263.339 103.778L263.334 103.783Z" fill="white"/>
<path d="M262.656 167.028C262.593 167.407 262.376 167.635 262 167.7C262.09 167.342 262.301 167.115 262.656 167.028Z" fill="white"/>
<path d="M258.679 145.496C258.669 145.924 258.452 146.141 258.033 146.157C258.033 145.941 258.054 145.724 258.107 145.507C258.298 145.496 258.489 145.491 258.685 145.491L258.679 145.496Z" fill="white"/>
<path d="M256.682 184.456C256.528 184.397 256.253 184.364 256.237 184.277C256.157 183.92 256.448 183.931 256.687 183.914C256.703 184.099 256.703 184.277 256.687 184.462L256.682 184.456Z" fill="white"/>
<path d="M254.707 35.125C254.595 35.3689 254.489 35.6127 254.378 35.862C254.113 35.6886 254.007 35.4447 254.076 35.1304C254.288 35.1304 254.495 35.125 254.707 35.1304V35.125Z" fill="white"/>
<path d="M250.756 188.58C251.185 188.58 251.439 188.77 251.418 189.242C251.216 189.236 251.015 189.225 250.814 189.214C250.745 189.003 250.729 188.792 250.772 188.57L250.756 188.58Z" fill="white"/>
<path d="M248.722 104.45C248.722 104.72 248.679 104.99 248.335 104.898C248.24 104.876 248.208 104.606 248.144 104.455C248.335 104.439 248.526 104.439 248.716 104.455L248.722 104.45Z" fill="white"/>
<path d="M245.38 140.803C245.316 140.965 245.279 141.251 245.184 141.273C244.813 141.354 244.813 141.052 244.808 140.787C244.999 140.787 245.189 140.787 245.375 140.803H245.38Z" fill="white"/>
<path d="M244.098 86.9507C244.034 87.135 243.997 87.4656 243.896 87.4873C243.478 87.5848 243.467 87.2488 243.467 86.9453C243.679 86.9453 243.886 86.9453 244.098 86.9507Z" fill="white"/>
<path d="M241.439 156.942C241.439 157.224 241.439 157.549 241.042 157.457C240.947 157.435 240.915 157.121 240.857 156.942C241.053 156.926 241.243 156.926 241.439 156.942Z" fill="white"/>
<path d="M224.979 203.348C225.037 203.18 225.069 202.882 225.159 202.86C225.54 202.774 225.529 203.088 225.54 203.348C225.355 203.364 225.164 203.364 224.979 203.348Z" fill="white"/>
<path d="M218.29 56.6672C218.3 56.8839 218.29 57.0953 218.242 57.3067C218.057 57.3229 217.866 57.3229 217.681 57.3067C217.707 56.9219 217.908 56.7051 218.284 56.6617L218.29 56.6672Z" fill="white"/>
<path d="M212.327 96.9927C212.062 96.9819 211.739 96.9981 211.824 96.5971C211.845 96.505 212.147 96.4725 212.322 96.4128C212.337 96.6079 212.337 96.7976 212.322 96.9927H212.327Z" fill="white"/>
<path d="M210.351 215.477C209.933 215.461 209.71 215.238 209.694 214.81C210.07 214.87 210.293 215.092 210.351 215.477Z" fill="white"/>
<path d="M207.698 217.509C207.713 217.726 207.698 217.943 207.655 218.154C207.449 218.165 207.242 218.176 207.041 218.176C207.051 217.737 207.284 217.531 207.703 217.509H207.698Z" fill="white"/>
<path d="M201.078 11.567C201.019 11.941 200.797 12.1469 200.437 12.2119V12.2282C200.426 12.0114 200.437 11.7892 200.463 11.5724C200.67 11.5724 200.871 11.567 201.078 11.567Z" fill="white"/>
<path d="M197.083 108.488C197.068 108.758 197.084 109.084 196.692 108.997C196.596 108.975 196.564 108.672 196.501 108.493C196.697 108.482 196.888 108.477 197.083 108.482V108.488Z" fill="white"/>
<path d="M190.453 127.336C190.485 127.553 190.49 127.764 190.479 127.981C190.125 127.91 189.902 127.705 189.849 127.331C190.05 127.331 190.252 127.331 190.453 127.336Z" fill="white"/>
<path d="M184.532 63.3872C184.755 63.3872 184.972 63.3872 185.194 63.3872C185.194 63.6094 185.194 63.837 185.194 64.0592H184.532V63.7232V63.3872Z" fill="white"/>
<path d="M157.987 33.7973C157.982 34.1171 157.913 34.4206 157.516 34.2905C157.415 34.258 157.399 33.9437 157.346 33.7594C157.558 33.7757 157.775 33.7865 157.987 33.7919V33.7973Z" fill="white"/>
<path d="M153.428 33.819C154.058 34.0357 153.989 34.2417 153.417 34.4422C153.417 34.2363 153.417 34.0303 153.428 33.819Z" fill="white"/>
<path d="M153.448 130.669C153.411 131.108 153.168 131.314 152.749 131.346C152.829 130.956 153.072 130.745 153.448 130.669Z" fill="white"/>
<path d="M151.489 152.867C151.499 152.569 151.563 152.271 151.944 152.395C152.045 152.428 152.061 152.726 152.114 152.905C151.907 152.888 151.695 152.878 151.489 152.872V152.867Z" fill="white"/>
<path d="M140.822 17.6314C140.838 17.8481 140.822 18.0649 140.78 18.2763C140.578 18.2925 140.377 18.298 140.181 18.2925C140.16 17.8373 140.377 17.6205 140.827 17.6314H140.822Z" fill="white"/>
<path d="M134.858 18.3033C134.763 18.4599 134.668 18.6219 134.572 18.7785C134.472 18.6273 134.371 18.4707 134.271 18.3195C134.466 18.3087 134.662 18.3033 134.858 18.3033Z" fill="white"/>
<path d="M133.503 5.52461C133.54 5.74138 133.556 5.95274 133.534 6.16952C133.164 6.11532 132.952 5.90939 132.925 5.52461C133.116 5.51377 133.307 5.51377 133.503 5.52461Z" fill="white"/>
<path d="M18.9989 64.7474C19.3644 64.8179 19.5815 65.0347 19.6504 65.4086C19.3061 65.3219 19.0837 65.1051 18.9989 64.7474Z" fill="white"/>
<path d="M19.6445 14.2606C19.6286 14.6942 19.4274 14.9489 18.9825 14.9651C19.0461 14.5804 19.2526 14.3311 19.6445 14.2606Z" fill="white"/>
<path d="M48.1707 173.068C48.2766 172.901 48.3773 172.739 48.4832 172.572C48.5838 172.739 48.6845 172.912 48.7798 173.079C48.5785 173.079 48.372 173.079 48.1707 173.068Z" fill="white"/>
<path d="M23.5753 106.477C23.517 106.645 23.4852 106.937 23.3952 106.959C23.0192 107.046 23.0192 106.737 23.0139 106.471C23.2045 106.455 23.3899 106.46 23.5806 106.471L23.5753 106.477Z" fill="white"/>
<path d="M28.8813 171.753C28.8231 171.915 28.7966 172.185 28.7013 172.212C28.357 172.315 28.3305 172.018 28.2829 171.769C28.4841 171.742 28.6801 171.737 28.8813 171.748V171.753Z" fill="white"/>
<path d="M29.6383 173.737C29.7018 173.563 29.7389 173.265 29.8342 173.244C30.2209 173.157 30.2156 173.482 30.2314 173.753C30.0355 173.753 29.8342 173.753 29.6383 173.742V173.737Z" fill="white"/>
<path d="M74.6191 91.6494C74.5397 92.0125 74.3226 92.2293 73.9624 92.2997C74.0419 91.9421 74.2696 91.7307 74.6191 91.6494Z" fill="white"/>
<path d="M32.9072 14.9324C32.8966 15.3822 32.6848 15.6261 32.2293 15.6369C32.2876 15.2359 32.5047 14.992 32.9072 14.9324Z" fill="white"/>
<path d="M94.4964 88.2784C94.5599 87.9099 94.7771 87.6931 95.1372 87.6172V87.6118C95.1372 87.834 95.1319 88.0562 95.1054 88.273C94.9042 88.273 94.6976 88.273 94.4964 88.273V88.2784Z" fill="white"/>
<path d="M81.2872 68.747L81.2395 68.4272V68.1021C81.642 68.1291 81.8645 68.3405 81.8804 68.7632C81.6844 68.7632 81.4832 68.7632 81.2872 68.747Z" fill="white"/>
<path d="M35.5073 6.19641C35.3855 6.4186 35.2637 6.64622 35.1419 6.86841C35.0413 6.63538 34.9459 6.40235 34.8453 6.16931C35.0677 6.18557 35.2849 6.19641 35.5073 6.19641Z" fill="white"/>
<path d="M98.4629 226.912L98.4523 226.587L98.5 226.267C98.7013 226.251 98.9078 226.245 99.109 226.251C99.1302 226.711 98.8919 226.912 98.4629 226.912Z" fill="white"/>
<path d="M99.7451 182.516C99.7451 182.798 99.7451 183.118 99.3532 183.026C99.2579 183.004 99.2261 182.695 99.1678 182.522C99.3585 182.505 99.5545 182.505 99.7451 182.516Z" fill="white"/>
<path d="M17.6582 180.489C17.6582 180.934 17.457 181.172 17.0068 181.172C17.0544 180.771 17.2663 180.538 17.6582 180.489Z" fill="white"/>
<path d="M107.737 163.023C107.991 163.023 108.272 163.044 108.192 163.402C108.171 163.494 107.901 163.532 107.747 163.597L107.732 163.31V163.023H107.737Z" fill="white"/>
<path d="M38.9116 10.2015C38.8639 9.99019 38.848 9.77342 38.8639 9.55664C39.2664 9.58374 39.4783 9.80051 39.4941 10.2124C39.2982 10.2178 39.1075 10.2124 38.9116 10.2015Z" fill="white"/>
<path d="M113.706 0.793213C113.647 0.977472 113.626 1.28637 113.526 1.31889C113.128 1.43812 113.059 1.14005 113.065 0.820307C113.277 0.820307 113.494 0.809468 113.706 0.798629V0.793213Z" fill="white"/>
<path d="M116.957 169.732C116.862 169.883 116.766 170.039 116.666 170.191C116.57 170.039 116.47 169.888 116.374 169.732C116.57 169.721 116.761 169.721 116.957 169.732Z" fill="white"/>
<path d="M94.4911 212.784C94.5599 212.117 94.883 211.846 95.5186 212.155C95.7728 212.28 95.7887 212.464 95.6404 212.637C95.2961 213.055 94.8724 212.757 94.4858 212.773V212.778L94.4911 212.784Z" fill="white"/>
<path d="M302.426 93.6548C302.51 93.4814 302.59 93.3026 302.675 93.1292C302.765 93.2267 302.849 93.3188 302.939 93.4164C302.765 93.4922 302.59 93.5681 302.415 93.6386L302.431 93.6548H302.426Z" fill="white"/>
<path d="M300.44 31.1419C300.996 31.2448 301.769 30.9522 301.859 31.9168C301.896 32.2962 301.621 32.4967 301.308 32.5184C300.837 32.5509 300.196 32.8381 299.995 32.1932C299.905 31.9168 300.297 31.4833 300.466 31.1256L300.44 31.1419Z" fill="white"/>
<path d="M155.99 19.0352C155.969 19.42 155.948 19.7994 155.921 20.1842C155.434 20.2275 154.73 20.5798 154.656 19.7777C154.56 18.7534 155.365 18.9648 155.99 19.0352Z" fill="white"/>
<path d="M197.164 208.058C197.264 208.383 197.217 208.654 196.883 208.789C196.825 208.811 196.639 208.692 196.629 208.627C196.581 208.258 196.803 208.101 197.127 208.041L197.164 208.058Z" fill="white"/>
<path d="M210.256 161.066C210.24 161.223 210.24 161.381 210.251 161.538C209.435 161.587 208.614 161.955 207.555 161.516C208.487 160.513 209.403 160.996 210.256 161.066Z" fill="white"/>
<path d="M239.903 2.05435C239.76 1.96797 239.623 1.88699 239.49 1.806C239.559 1.73582 239.649 1.59544 239.702 1.61164C239.85 1.64943 239.983 1.74661 240.121 1.8222C240.052 1.89779 239.983 1.96797 239.909 2.05435H239.903Z" fill="white"/>
<path d="M215.651 171.737C215.742 171.553 215.832 171.374 215.916 171.195C216.017 171.298 216.118 171.401 216.213 171.504C216.022 171.58 215.837 171.661 215.646 171.737H215.651Z" fill="white"/>
<path d="M319.522 12.1471C319.332 12.1254 319.146 12.1471 318.966 12.2121C318.712 11.8273 317.997 11.6593 318.325 11.0198C318.415 10.8464 318.913 10.7435 319.146 10.8302C319.787 11.0686 319.57 11.6539 319.528 12.1471H319.522Z" fill="white"/>
<path d="M380.55 120.572C380.645 120.474 380.735 120.372 380.831 120.275C380.815 120.334 380.82 120.42 380.778 120.453C380.714 120.507 380.619 120.528 380.539 120.561L380.55 120.572Z" fill="white"/>
<path d="M195.771 80.854C195.358 80.8649 194.887 81.06 194.643 80.5397C194.606 80.4638 194.828 80.1604 194.971 80.1278C195.543 79.9978 195.697 80.3934 195.76 80.8703L195.776 80.854H195.771Z" fill="white"/>
<path d="M193.154 81.5422L193.143 81.2225L193.154 80.9027C193.52 80.9677 193.726 81.1845 193.795 81.553C193.583 81.5693 193.371 81.5693 193.159 81.553L193.154 81.5422Z" fill="white"/>
<path d="M191.173 57.3499C191.385 57.3228 191.592 57.3174 191.804 57.3445C191.798 57.6263 191.751 57.9189 191.385 57.8214C191.285 57.7943 191.242 57.5125 191.173 57.3499Z" fill="white"/>
<path d="M289.805 62.016C290.139 61.9618 290.404 62.0485 290.489 62.4116C290.504 62.4766 290.361 62.6609 290.308 62.6555C289.954 62.6176 289.832 62.352 289.8 62.0268V62.0106L289.805 62.016Z" fill="white"/>
<path d="M383.183 103.112C383.289 103.214 383.4 103.322 383.506 103.425C383.437 103.409 383.342 103.414 383.305 103.371C383.246 103.301 383.225 103.193 383.188 103.101L383.177 103.112H383.183Z" fill="white"/>
<path d="M83.2261 67.4246C82.9348 67.4029 82.7018 67.2891 82.6806 66.9531C82.6806 66.8935 82.8394 66.7635 82.8924 66.7797C83.2049 66.8718 83.2737 67.1211 83.2261 67.4246Z" fill="white"/>
<path d="M78.6397 119.293C79.0687 119.277 79.4924 119.256 79.9214 119.239C79.9214 119.635 79.9214 120.041 79.3706 120.031C78.9151 120.02 78.698 119.727 78.6397 119.299V119.293Z" fill="white"/>
<path d="M226.265 117.922C226.71 118.134 227.155 118.345 227.6 118.551C227.457 119.017 227.15 119.364 226.663 119.25C225.852 119.066 226.244 118.416 226.26 117.917L226.265 117.922Z" fill="white"/>
<path d="M27.7218 86.7123C27.796 86.5714 27.8701 86.4305 27.9496 86.2842C28.0184 86.3546 28.1614 86.4414 28.1508 86.501C28.119 86.6527 28.0237 86.7936 27.9549 86.9399C27.886 86.8695 27.8119 86.799 27.7271 86.7123H27.7218Z" fill="white"/>
<path d="M104.782 93.5502C104.718 93.5124 104.649 93.4746 104.586 93.4422C104.655 93.345 104.729 93.2478 104.803 93.1506C104.867 93.2208 104.93 93.291 104.994 93.3612C104.925 93.426 104.856 93.4908 104.782 93.5556V93.5502Z" fill="white"/>
<path d="M50.2041 187.632C50.2782 187.497 50.3576 187.361 50.4318 187.22C50.5006 187.291 50.633 187.383 50.6224 187.437C50.5854 187.589 50.49 187.724 50.4212 187.865C50.3523 187.789 50.2835 187.719 50.2041 187.632Z" fill="white"/>
<path d="M107.148 79.9272C107.223 79.7971 107.302 79.6671 107.381 79.537C107.445 79.6074 107.577 79.6941 107.567 79.7483C107.53 79.8947 107.434 80.0193 107.36 80.1548C107.297 80.0843 107.228 80.0139 107.148 79.9272Z" fill="white"/>
<path d="M127.586 9.87003C127.449 9.93482 127.311 10.0212 127.168 10.0536C127.115 10.0644 127.041 9.92401 126.972 9.85383C127.11 9.78904 127.247 9.70266 127.39 9.67027C127.443 9.65947 127.518 9.79984 127.586 9.87003Z" fill="white"/>
<path d="M45.3106 1.29739C44.9717 1.30823 44.6327 1.31907 44.2937 1.32991C44.2567 0.750032 43.8754 -0.117069 44.9346 -0.00326198C45.6655 0.0726094 45.353 0.804225 45.3106 1.30281V1.29739Z" fill="white"/>
<path d="M44.6531 184.765C44.6531 184.835 44.6743 184.921 44.6373 184.965C44.5102 185.137 44.3619 185.094 44.2612 184.84C44.2506 184.808 44.3777 184.689 44.4625 184.657C44.5102 184.641 44.5896 184.722 44.6531 184.759V184.765Z" fill="white"/>
<path d="M4.55041 182.256C4.62985 182.115 4.704 181.974 4.78345 181.833C4.8523 181.904 4.99 181.991 4.9794 182.045C4.94763 182.197 4.8523 182.332 4.78345 182.473C4.7093 182.403 4.64045 182.332 4.55571 182.251L4.55041 182.256Z" fill="white"/>
<path d="M229.942 101.641C229.862 101.603 229.783 101.565 229.709 101.522C229.788 101.414 229.873 101.301 229.953 101.193C230.032 101.268 230.106 101.344 230.186 101.419C230.106 101.49 230.021 101.565 229.942 101.635V101.641Z" fill="white"/>
<path d="M222.342 135.779C222.379 135.709 222.422 135.633 222.464 135.563C222.57 135.644 222.681 135.719 222.787 135.8C222.708 135.87 222.628 136 222.554 135.995C222.48 135.995 222.411 135.854 222.342 135.779Z" fill="white"/>
<path d="M273.942 9.52411C273.958 9.10681 273.979 8.69494 273.995 8.27764C274.488 8.25055 275.166 7.96874 275.235 8.76539C275.325 9.77882 274.589 9.64333 273.942 9.52411Z" fill="white"/>
<path d="M98.394 131.417C98.3782 131.812 98.3623 132.203 98.3464 132.598C97.8697 132.604 97.1918 132.885 97.1176 132.11C97.0223 131.054 97.8115 131.357 98.394 131.417Z" fill="white"/>
<path d="M77.2258 159.646C77.1516 159.803 77.0775 159.959 76.9981 160.121C76.9133 160.035 76.8339 159.949 76.7492 159.857C76.9133 159.792 77.0775 159.727 77.2417 159.662L77.2258 159.646Z" fill="white"/>
<path d="M316.292 57.3211C316.064 57.3265 315.841 57.3319 315.614 57.3373C315.82 56.7002 316.048 56.6786 316.292 57.3211Z" fill="white"/>
<path d="M314.994 57.9788L314.978 57.6591V57.3394C315.206 57.3339 315.428 57.3231 315.65 57.3123C315.592 57.7025 315.37 57.9138 314.994 57.9734V57.9788Z" fill="white"/>
<path d="M14.3958 78.8435C14.4699 78.6701 14.5441 78.4967 14.6235 78.3232L14.8989 78.6051C14.7294 78.6809 14.5547 78.7568 14.3799 78.8272L14.3958 78.8435Z" fill="white"/>
<path d="M103.738 206.707C103.627 206.599 103.521 206.491 103.41 206.383C103.479 206.399 103.579 206.394 103.616 206.443C103.675 206.518 103.691 206.626 103.728 206.723L103.738 206.713V206.707Z" fill="white"/>
<path d="M101.101 138.088C101.09 138.533 100.846 138.728 100.433 138.766C100.412 138.294 100.672 138.104 101.101 138.088Z" fill="white"/>
<path d="M86.5036 101.09C86.4136 101.269 86.3182 101.442 86.2282 101.621C85.7939 101.144 86.2494 101.177 86.5195 101.106L86.5036 101.09Z" fill="white"/>
<path d="M165.333 81.5636C165.523 81.6449 165.709 81.7208 165.899 81.8021C165.799 81.8996 165.693 82.0026 165.592 82.1055C165.507 81.9267 165.423 81.7424 165.333 81.5636Z" fill="white"/>
<path d="M50.0923 22.2902C49.9175 22.22 49.7374 22.1553 49.5627 22.0905C49.6527 21.9933 49.7427 21.9015 49.8275 21.8043C49.9069 21.9717 49.9917 22.1444 50.0711 22.3118L50.087 22.2902H50.0923Z" fill="white"/>
<path d="M249.945 87.7473C249.892 87.8774 249.887 88.0074 249.935 88.1429C249.458 88.1267 248.727 88.6632 248.727 87.5847C249.135 87.6389 249.543 87.6931 249.951 87.7527L249.945 87.7473Z" fill="white"/>
<path d="M105.718 113.869C105.623 114.042 105.533 114.21 105.438 114.384C104.966 113.88 105.496 113.966 105.724 113.874L105.713 113.864L105.718 113.869Z" fill="white"/>
<path d="M44.8331 193.957C45.2621 193.957 45.6858 193.967 46.1147 193.973C46.0512 194.368 45.9771 194.769 45.4633 194.769C44.9443 194.769 44.8966 194.347 44.8331 193.962V193.957Z" fill="white"/>
<path d="M185.851 27.0449C185.502 26.969 185.279 26.7576 185.21 26.3945C185.57 26.465 185.788 26.6763 185.851 27.0449Z" fill="white"/>
<path d="M324.893 107.16C324.681 106.921 324.469 106.688 324.257 106.45C324.278 105.956 324.284 105.458 324.834 105.225C325.083 105.409 325.327 105.599 325.576 105.783C325.624 106.385 326.042 107.17 324.893 107.16Z" fill="white"/>
<path d="M283.222 72.0962L283.185 71.7873L283.201 71.4784C283.465 71.4892 283.767 71.5001 283.688 71.8794C283.667 71.9824 283.386 72.0258 283.222 72.0962Z" fill="white"/>
<path d="M367.14 126.621C367.151 126.399 367.198 126.182 367.278 125.97C367.717 125.981 368.152 125.998 368.591 126.008C368.337 126.773 367.696 126.588 367.14 126.621Z" fill="white"/>
<path d="M71.2879 165.7C71.3038 165.906 71.2985 166.112 71.272 166.312C71.1132 166.242 70.8484 166.199 70.8219 166.096C70.7424 165.732 71.0231 165.705 71.2879 165.7Z" fill="white"/>
<path d="M379.836 116.502C379.979 116.66 380.159 116.73 380.371 116.714C380.339 116.92 380.403 117.088 380.562 117.212C380.482 117.608 380.328 117.922 379.857 117.901C379.852 117.435 379.841 116.963 379.831 116.497L379.836 116.502Z" fill="white"/>
<path d="M379.887 115.858C379.887 116.102 379.893 116.34 379.898 116.584C379.326 116.676 379.077 116.438 379.162 115.847C379.405 115.847 379.644 115.852 379.887 115.858Z" fill="white"/>
<path d="M378.517 115.896C378.511 115.668 378.501 115.435 378.49 115.208C378.723 115.208 378.956 115.208 379.195 115.208C379.205 115.441 379.216 115.668 379.226 115.901C378.988 115.901 378.75 115.896 378.517 115.896Z" fill="white"/>
<path d="M383.41 154.872C383.553 154.943 383.701 154.953 383.85 154.915C383.881 155.219 383.749 155.571 383.495 155.528C383.225 155.479 383.225 155.127 383.41 154.872Z" fill="white"/>
<path d="M117.62 90.9448C117.858 90.9557 118.091 90.9611 118.33 90.9665C118.213 91.1941 118.091 91.4272 117.975 91.6602C117.858 91.4217 117.736 91.1833 117.62 90.9448Z" fill="white"/>
<path d="M298.411 98.3911C298.427 98.6079 298.427 98.8247 298.411 99.0414C297.839 98.8247 297.834 98.6079 298.411 98.3911Z" fill="white"/>
<path d="M175.978 133.996L175.947 133.709C175.947 133.709 175.963 133.417 175.963 133.422C176.376 133.433 176.794 133.449 177.207 133.46C177.228 133.633 177.234 133.801 177.207 133.975C176.799 133.98 176.386 133.991 175.978 133.996Z" fill="white"/>
<path d="M359.979 52.5974C359.524 52.6299 359.122 52.5432 358.878 52.0988C359.349 52.0283 359.974 51.6056 359.979 52.5974Z" fill="white"/>
<path d="M283.211 188.581C282.655 188.64 282.046 188.808 281.929 187.947C282.48 187.903 283.206 187.491 283.211 188.581Z" fill="white"/>
<path d="M265.956 0.105087C265.368 0.202636 265.082 -0.323043 264.653 -0.545238C264.738 -1.02214 264.59 -1.60744 265.246 -1.79712C265.723 -1.25518 266.237 -0.729498 265.951 0.105087H265.956Z" fill="white"/>
<path d="M7.08301 78.8703C6.54279 78.8595 6.01848 78.8269 5.77486 78.2091C6.32566 78.1983 6.86057 78.2091 7.08301 78.8703Z" fill="white"/>
<path d="M169.968 96.3532V96.0281V95.7029C170.185 95.6867 170.397 95.6867 170.614 95.6975C170.54 96.0606 170.323 96.2828 169.963 96.3587L169.968 96.3532Z" fill="white"/>
<path d="M128.954 103.052L128.922 102.749L128.933 102.44C129.356 102.44 129.589 102.64 129.573 103.09C129.367 103.101 129.16 103.09 128.954 103.052Z" fill="white"/>
<path d="M379.21 169.71C379.237 169.293 379.465 169.087 379.856 169.049C379.835 169.467 379.602 169.673 379.21 169.71Z" fill="white"/>
<path d="M107 131.964C106.624 131.937 106.248 131.91 105.872 131.883C105.856 131.287 105.846 130.696 105.83 130.105C106.227 130.089 106.624 130.073 107.022 130.051C107.292 130.691 107.286 131.33 107 131.964Z" fill="white"/>
<path d="M52.0844 150.894C52.095 151.338 52.1002 151.788 52.1108 152.233C51.6766 152.216 51.2476 152.2 50.8133 152.184C50.8239 151.772 50.8397 151.36 50.8503 150.948C51.2634 150.932 51.6713 150.91 52.0844 150.894Z" fill="white"/>
<path d="M192.444 26.4054C192.481 26.6113 192.481 26.8119 192.444 27.0178C192.079 26.9582 191.713 26.904 191.348 26.8444V26.5571C191.708 26.5084 192.074 26.4596 192.439 26.4054H192.444Z" fill="white"/>
<path d="M246.111 135.395V135.059V134.723C246.333 134.723 246.551 134.723 246.773 134.723C246.773 134.945 246.773 135.172 246.773 135.395C246.551 135.395 246.333 135.395 246.111 135.395Z" fill="white"/>
</g>
<path d="M164.078 75.7456L164.078 74.4711L164.078 74.4711L164.078 75.7456ZM232.593 147.12L232.593 148.395L232.593 148.395L232.593 147.12ZM335.031 130.124L334.091 129.264L335.031 130.124ZM73.5495 146.716L72.6184 147.586L73.5495 146.716ZM58.0436 130.126L58.9747 129.256L58.0436 130.126ZM318.911 147.12L318.911 145.846L318.911 147.12ZM319.851 146.706L318.911 145.846L319.851 146.706ZM164.078 77.0202H334.09V74.4711H164.078V77.0202ZM164.078 74.4711L58.9747 74.4711L58.9747 77.0202L164.078 77.0202L164.078 74.4711ZM56.4256 77.0202V129.256H58.9747V77.0202H56.4256ZM57.1125 130.997L72.6184 147.586L74.4807 145.846L58.9747 129.256L57.1125 130.997ZM74.4807 148.395H232.593V145.846H74.4807V148.395ZM318.911 145.846L232.593 145.846L232.593 148.395L318.911 148.395L318.911 145.846ZM334.091 129.264L318.911 145.846L320.792 147.567L335.971 130.985L334.091 129.264ZM334.091 77.0202V129.264H336.64V77.0202H334.091ZM335.971 130.985C336.401 130.515 336.64 129.901 336.64 129.264H334.091L334.091 129.264L335.971 130.985ZM72.6184 147.586C73.1004 148.102 73.7747 148.395 74.4807 148.395V145.846L74.4807 145.846L72.6184 147.586ZM56.4256 129.256C56.4256 129.902 56.6711 130.524 57.1125 130.997L58.9747 129.256L58.9747 129.256H56.4256ZM58.9747 74.4711C57.5669 74.4711 56.4256 75.6124 56.4256 77.0202H58.9747L58.9747 77.0202L58.9747 74.4711ZM318.911 148.395C319.626 148.395 320.309 148.094 320.792 147.567L318.911 145.846L318.911 145.846L318.911 148.395ZM334.09 77.0202L334.091 77.0202H336.64C336.64 75.6123 335.498 74.4711 334.09 74.4711V77.0202Z" fill="url(#paint2_linear_606_14026)"/>
<path fill-rule="evenodd" clip-rule="evenodd" d="M240.424 65.0421H143.095L152.577 87.6342H240.424V87.5767H240.674L250.157 65.0422L240.424 65.0421Z" fill="#6C4B0E"/>
<path fill-rule="evenodd" clip-rule="evenodd" d="M154.068 63.0002H248.64L239.426 85.5348H239.183V85.5925H153.825L144.611 63.0004H154.068V63.0002Z" fill="url(#paint3_linear_606_14026)"/>
<path d="M164.571 70.751H168.842C169.553 70.751 170.068 70.9136 170.387 71.239C170.712 71.5576 170.875 72.0728 170.875 72.7846V73.8014C170.875 74.5132 170.712 75.0317 170.387 75.3571C170.068 75.6757 169.553 75.835 168.842 75.835H166.401V77.8687H164.571V70.751ZM169.045 72.7846C169.045 72.3779 168.842 72.1745 168.435 72.1745H166.401V74.4115H168.435C168.842 74.4115 169.045 74.2081 169.045 73.8014V72.7846ZM171.993 70.751H176.264C176.976 70.751 177.491 70.9136 177.809 71.239C178.135 71.5576 178.297 72.0728 178.297 72.7846V73.6997C178.297 74.2624 178.203 74.6996 178.013 75.0114C177.83 75.3232 177.535 75.53 177.128 75.6317L178.399 77.8687H176.416L175.247 75.7333H173.824V77.8687H171.993V70.751ZM176.467 72.7846C176.467 72.3779 176.264 72.1745 175.857 72.1745H173.824V74.3098H175.857C176.264 74.3098 176.467 74.1064 176.467 73.6997V72.7846ZM182.87 77.8687H179.21V76.4451H180.125V72.1745H179.21V70.751H182.87V72.1745H181.955V76.4451H182.87V77.8687ZM189.377 72.1745L185.818 76.4451H189.377V77.8687H183.581V76.4451L187.14 72.1745H183.581V70.751H189.377V72.1745ZM196.041 77.8687H190.398V70.751H196.041V72.1745H192.228V73.5472H195.227V74.9707H192.228V76.4451H196.041V77.8687ZM200.307 70.751H204.578C205.29 70.751 205.805 70.9136 206.123 71.239C206.449 71.5576 206.611 72.0728 206.611 72.7846V73.8014C206.611 74.5132 206.449 75.0317 206.123 75.3571C205.805 75.6757 205.29 75.835 204.578 75.835H202.137V77.8687H200.307V70.751ZM204.781 72.7846C204.781 72.3779 204.578 72.1745 204.171 72.1745H202.137V74.4115H204.171C204.578 74.4115 204.781 74.2081 204.781 73.8014V72.7846ZM212.305 72.6829C212.305 72.2762 212.102 72.0728 211.695 72.0728H209.966C209.56 72.0728 209.356 72.2762 209.356 72.6829V75.9367C209.356 76.3434 209.56 76.5468 209.966 76.5468H211.695C212.102 76.5468 212.305 76.3434 212.305 75.9367V72.6829ZM214.135 75.9367C214.135 76.6485 213.973 77.1671 213.647 77.4924C213.329 77.811 212.814 77.9703 212.102 77.9703H209.56C208.848 77.9703 208.329 77.811 208.004 77.4924C207.685 77.1671 207.526 76.6485 207.526 75.9367V72.6829C207.526 71.9711 207.685 71.4559 208.004 71.1373C208.329 70.812 208.848 70.6493 209.56 70.6493H212.102C212.814 70.6493 213.329 70.812 213.647 71.1373C213.973 71.4559 214.135 71.9711 214.135 72.6829V75.9367ZM219.936 72.6829C219.936 72.2762 219.733 72.0728 219.326 72.0728H217.597C217.191 72.0728 216.987 72.2762 216.987 72.6829V75.9367C216.987 76.3434 217.191 76.5468 217.597 76.5468H219.326C219.733 76.5468 219.936 76.3434 219.936 75.9367V72.6829ZM221.766 75.9367C221.766 76.6485 221.604 77.1671 221.278 77.4924C220.96 77.811 220.444 77.9703 219.733 77.9703H217.191C216.479 77.9703 215.96 77.811 215.635 77.4924C215.316 77.1671 215.157 76.6485 215.157 75.9367V72.6829C215.157 71.9711 215.316 71.4559 215.635 71.1373C215.96 70.812 216.479 70.6493 217.191 70.6493H219.733C220.444 70.6493 220.96 70.812 221.278 71.1373C221.604 71.4559 221.766 71.9711 221.766 72.6829V75.9367ZM224.822 76.4451H228.533V77.8687H222.991V70.751H224.822V76.4451Z" fill="#F5F1EE"/>
<path d="M-18 77.4197C-18 77.4197 -15.9254 76.1831 -15.1393 74.1922C-14.3505 72.1803 10.3722 49.0526 10.3722 49.0526C10.3722 49.0526 10.178 46.7136 13.4105 45.935C16.6401 45.1775 19.3042 41.1952 19.4429 40.8073C19.6025 40.4223 25.3665 41.0175 25.9801 34.3354C26.5909 27.6743 37.6641 22.6361 38.4705 22.5323C39.2769 22.4284 53.5744 18.2377 57.5745 4.48177C57.5745 4.48177 57.4998 2.05208 59.3024 -0.0139333C61.105 -2.07995 63.3813 -6.20093 65.1575 -6.6647C66.9338 -7.12846 69.2441 -7.11242 70.9519 -8.48482C72.6597 -9.85722 72.6834 -12.3805 75.9274 -13.2432C79.1714 -14.1058 82.4896 -14.1019 85.0071 -17.0123L-3.14471 -29.0622L-13.8098 48.9587L16.3473 23.041C16.3473 23.041 19.208 19.8135 22.7745 20.194C26.341 20.5745 27.3552 19.1072 29.7065 16.0029C32.0369 12.8956 34.852 11.5675 38.4386 8.82467C42.0463 6.08471 47.4212 1.38096 49.3038 0.139507C51.1892 -1.12296 63.9255 -10.9655 63.9255 -10.9655C63.9255 -10.9655 46.4632 6.19602 43.683 8.83497C40.9028 11.4739 28.8056 21.8106 27.5476 23.6513C26.2897 25.492 24.403 27.5466 20.8499 29.8872C17.2969 32.2278 15.4607 34.696 13.977 37.4051C12.4933 40.1143 11.8399 45.6775 5.53337 47.6417C-0.77312 49.606 -14.5535 52.9895 -17.5805 74.351L-18 77.4197Z" fill="url(#paint4_linear_606_14026)"/>
<path d="M72.1309 -18.7724L49.3595 -21.8851C28.6684 -14.248 3.02262 10.9558 -10.7532 26.6L-13.8096 48.9587L16.3475 23.041C16.3475 23.041 19.2082 19.8135 22.7747 20.194C26.2545 20.5652 27.3046 19.1775 29.5376 16.2263C29.5932 16.1528 29.6496 16.0783 29.7067 16.0029C31.3521 13.8089 33.2392 12.5019 35.4689 10.9577C36.3971 10.3148 37.3846 9.63087 38.4388 8.82468C40.1171 7.55007 42.1778 5.85048 44.0914 4.27217C46.2915 2.45767 48.2971 0.803452 49.304 0.139515C50.7172 -0.806749 58.2265 -6.57335 61.8994 -9.40263L72.1266 -18.1735C72.4451 -18.2975 72.5235 -18.498 72.1309 -18.7724Z" fill="#FFC502"/>
<path d="M75.1284 -18.3627L-3.14451 -29.0622L-13.8096 48.9587L16.3475 23.041C16.3475 23.041 19.2082 19.8135 22.7747 20.194C23.3455 20.2549 23.8509 20.2685 24.3069 20.2355L29.4724 16.3124C29.4941 16.2839 29.5158 16.2551 29.5376 16.2263C29.5932 16.1528 29.6496 16.0783 29.7067 16.0029C31.3521 13.8089 33.2392 12.5019 35.4689 10.9577C36.3971 10.3148 37.3846 9.63087 38.4388 8.82468C40.1171 7.55007 42.1778 5.85048 44.0914 4.27217C46.2915 2.45767 48.2971 0.803453 49.304 0.139515C51.1895 -1.12295 63.9257 -10.9655 63.9257 -10.9655C63.9257 -10.9655 61.8089 -8.88513 58.9319 -6.06166L75.1284 -18.3627Z" fill="url(#paint5_radial_606_14026)"/>
<path d="M58.6209 -20.6191L52.9663 -21.3921C31.2117 -14.9123 2.85455 13.3029 -11.1439 29.4577L-13.8096 48.9587L16.3475 23.041C16.3475 23.041 19.2082 19.8135 22.7747 20.194C26.2545 20.5652 27.3046 19.1775 29.5376 16.2263C29.5932 16.1528 29.6496 16.0783 29.7067 16.0029C31.3521 13.8089 33.2392 12.5019 35.4689 10.9577C36.3971 10.3148 37.3846 9.63087 38.4388 8.82468C40.1171 7.55007 42.1778 5.85048 44.0914 4.27217C46.2915 2.45767 48.2971 0.803453 49.304 0.139515C51.1895 -1.12295 63.9257 -10.9655 63.9257 -10.9655C63.9257 -10.9655 53.8103 -1.0243 47.7514 4.88909L73.0051 -16.7686C74.0942 -17.1925 72.3767 -18.511 58.6209 -20.6191Z" fill="url(#paint6_linear_606_14026)"/>
<path d="M52.1748 0.563103C50.8534 7.66014 47.8033 14.5485 44.8179 19.8586C49.4319 17.2524 55.2466 12.4867 57.5743 4.4819C57.5743 4.4819 57.4996 2.05221 59.3022 -0.0138016C59.8795 -0.675469 60.5054 -1.54792 61.1479 -2.4435C62.5115 -4.3443 63.9499 -6.34933 65.1573 -6.66457C65.6493 -6.79302 66.1823 -6.88467 66.7321 -6.97921C68.1672 -7.22597 69.7169 -7.49243 70.9517 -8.48469C71.5675 -8.97957 71.9643 -9.6241 72.3721 -10.2864C73.0953 -11.4609 73.853 -12.6914 75.9272 -13.243C76.6495 -13.4351 77.3754 -13.5842 78.0954 -13.7321C80.6091 -14.2484 83.0499 -14.7498 85.0069 -17.0121L56.7957 -20.8685C54.6094 -19.109 52.7009 -15.1122 52.8486 -6.9981C52.8769 -5.4399 52.7905 -3.86828 52.6086 -2.29788C57.002 -5.61506 63.9253 -10.9654 63.9253 -10.9654C63.9253 -10.9654 57.7614 -4.90769 52.1748 0.563103Z" fill="#F5F1EE"/>
<path d="M52.6976 0.0510786C51.4711 7.15079 48.4718 14.0788 45.4873 19.4698C49.9799 16.7893 55.358 12.1039 57.5744 4.4817C57.5744 4.4817 57.4997 2.05202 59.3023 -0.0139965C59.8797 -0.675664 60.5055 -1.54811 61.148 -2.44369C62.5117 -4.3445 63.9501 -6.34953 65.1575 -6.66476C65.6495 -6.79322 66.1825 -6.88486 66.7323 -6.9794C68.1674 -7.22616 69.7171 -7.49263 70.9518 -8.48489C71.5676 -8.97977 71.9645 -9.62429 72.3723 -10.2866C73.0955 -11.4611 73.8531 -12.6916 75.9273 -13.2432C76.6496 -13.4353 77.3756 -13.5844 78.0956 -13.7323C80.6092 -14.2486 83.0501 -14.7499 85.0071 -17.0123L57.2163 -20.8112C55.03 -19.0517 53.1215 -15.0549 53.2691 -6.94083C53.295 -5.51807 53.2253 -4.08411 53.0744 -2.65012C57.4739 -5.97981 63.9254 -10.9656 63.9254 -10.9656C63.9254 -10.9656 58.1389 -5.27874 52.6976 0.0510786Z" fill="url(#paint7_linear_606_14026)"/>
<path d="M-16.1913 67.8503C-13.564 65.8833 -11.1362 63.6572 -9.11877 61.1622C-2.16625 52.5731 2.7936 52.2703 5.37332 53.7595C-1.89381 60.6332 -14.5779 72.7604 -15.1393 74.1922C-15.9254 76.1831 -18 77.4197 -18 77.4197L-17.5805 74.351C-17.2428 71.968 -16.7713 69.8088 -16.1913 67.8503Z" fill="#F5F1EE"/>
<path d="M-16.2944 68.2045C-13.5341 66.1753 -10.981 63.8639 -8.87517 61.2595C-2.11662 52.91 2.75889 52.3909 5.40662 53.728C-1.85498 60.596 -14.577 72.7582 -15.1393 74.1922C-15.9254 76.1831 -18 77.4197 -18 77.4197L-17.5805 74.351C-17.2631 72.1108 -16.8274 70.0683 -16.2944 68.2045Z" fill="url(#paint8_linear_606_14026)"/>
<path d="M406.486 203.603C406.486 203.603 397.694 207.354 389.745 214.726C381.774 222.07 371.72 222.741 371.72 222.741L406.819 191.894L406.486 203.603ZM403.121 158.079C380.858 161.218 375.906 185.485 373.761 189.342C371.64 193.199 370.907 192.329 365.247 196.614C359.588 200.9 359.403 207.361 359.403 207.361L314 254.338C314 254.338 325.36 244.343 333.069 238.731C340.778 233.12 361.016 213.041 364.351 210.626C367.686 208.21 371.848 204.162 374.474 200.032C377.1 195.902 379.661 194.885 389.789 192.422C399.94 189.986 405.215 181.753 405.215 181.753L403.121 158.079Z" fill="url(#paint9_linear_606_14026)"/>
</g>
<defs>
<linearGradient id="paint0_linear_606_14026" x1="200.594" y1="98.9677" x2="196.948" y2="218.863" gradientUnits="userSpaceOnUse">
<stop stop-color="#D8A956" stop-opacity="0"/>
<stop offset="1" stop-color="#AB750F"/>
</linearGradient>
<linearGradient id="paint1_linear_606_14026" x1="200.594" y1="170.785" x2="199.871" y2="224.169" gradientUnits="userSpaceOnUse">
<stop stop-color="#D8A956" stop-opacity="0"/>
<stop offset="1" stop-color="#AB750F"/>
</linearGradient>
<linearGradient id="paint2_linear_606_14026" x1="196.533" y1="75.7456" x2="196.533" y2="147.12" gradientUnits="userSpaceOnUse">
<stop stop-color="#AB750F"/>
<stop offset="0.516" stop-color="#D8A956"/>
<stop offset="1" stop-color="#AB750F"/>
</linearGradient>
<linearGradient id="paint3_linear_606_14026" x1="144.611" y1="64.3246" x2="154.041" y2="107.448" gradientUnits="userSpaceOnUse">
<stop stop-color="#AB750F"/>
<stop offset="0.484" stop-color="#D8A956"/>
<stop offset="1" stop-color="#AB750F"/>
</linearGradient>
<linearGradient id="paint4_linear_606_14026" x1="34.4207" y1="47.5946" x2="30.3376" y2="-29.8302" gradientUnits="userSpaceOnUse">
<stop stop-color="#885F11"/>
<stop offset="0.3726" stop-color="#D8A956"/>
<stop offset="1" stop-color="#AB750F"/>
</linearGradient>
<radialGradient id="paint5_radial_606_14026" cx="0" cy="0" r="1" gradientUnits="userSpaceOnUse" gradientTransform="translate(20.927 -2.13531) rotate(51.4498) scale(33.7432 142.276)">
<stop stop-color="#543600"/>
<stop offset="0.3528" stop-color="#FFBB48"/>
<stop offset="0.899" stop-color="#543600"/>
<stop offset="1" stop-color="#EDBF74"/>
</radialGradient>
<linearGradient id="paint6_linear_606_14026" x1="29.086" y1="21.2673" x2="14.5886" y2="2.79884" gradientUnits="userSpaceOnUse">
<stop stop-color="#FCC575"/>
<stop offset="1" stop-color="#412800"/>
</linearGradient>
<linearGradient id="paint7_linear_606_14026" x1="58.2995" y1="1.62295" x2="78.5938" y2="-1.16986" gradientUnits="userSpaceOnUse">
<stop stop-color="#F9B554"/>
<stop offset="1" stop-color="#956618"/>
</linearGradient>
<linearGradient id="paint8_linear_606_14026" x1="-15.4534" y1="67.9349" x2="1.88555" y2="78.8443" gradientUnits="userSpaceOnUse">
<stop offset="0.0961003" stop-color="#F9B554"/>
<stop offset="0.7835" stop-color="#956618"/>
</linearGradient>
<linearGradient id="paint9_linear_606_14026" x1="378.038" y1="165.216" x2="359.411" y2="218.812" gradientUnits="userSpaceOnUse">
<stop stop-color="#4F3600"/>
<stop offset="0.447" stop-color="#BD852B"/>
<stop offset="0.9866" stop-color="#4F3600"/>
</linearGradient>
<clipPath id="clip0_606_14026">
<rect width="393" height="229" fill="white"/>
</clipPath>
</defs>
</svg>
