<svg xmlns="http://www.w3.org/2000/svg" width="361" height="120" fill="none" xmlns:v="https://vecta.io/nano"><g clip-path="url(#J)"><path d="M0 0H361V159H0V0Z" fill="#212121"/><path d="M43 3.85547H318L317.984 56.8567C317.984 57.1722 317.866 57.4762 317.653 57.709L302.62 74.131C302.381 74.3922 302.043 74.5409 301.689 74.5409H59.6184C59.2689 74.5409 58.935 74.396 58.6963 74.1406L43.3401 57.711C43.1216 57.4772 43 57.1691 43 56.8491V3.85547Z" stroke="url(#A)" stroke-opacity=".3" stroke-width="2.705"/><g opacity=".35" fill="#fff"><path d="M282.038 40.013c-.488-.295-1.302-.161-1.916-.297-.888-.198-.883-.302.112-.707l.049-.007c.209.148.526.189.892.189.054.073.166.101.336.084.186.163.517.22.883.251l-.024-.009-.244.505-.088-.007v-.002zm-53.907-2.167l-.614.079-1.18.009-.678-.059c-.166-.187-.214-.375-.024-.564l1.911-.046a2.02 2.02 0 0 0 .59.024c.113.066.259.086.434.062l.22.258-.663.238h.004zm-8.524-23.506c.756-.112 1.259.132 1.844.264v.004c0 .092-.005.183-.015.275l-.59.037-.663.042-.566.196-.546-.009c-.049-.086-.102-.172-.171-.256l-.151-.291c.108-.044.215-.042.312.007.327-.031.459-.139.542-.269l.004-.002zm28.019 65.121c.264.372.108.617-.907.588l-1.482-.062.015.007c-.098-.269.546-.328.731-.518.185.044.341.029.463-.048l1.2.04-.02-.007zm-77.401-19.423c.414-.359.839-.286 1.263-.007.058.145.278.223.575.267-.019.178.015.423-.424.456-.697.055-.707-.24-.824-.452-.063-.148-.288-.223-.585-.264h-.005zm-59.203-1.796h.029c-.868.275-1.692.375-2.355-.126l-.02.009c.552-.128 1.049-.341 1.756-.22l-.088-.035.673.372h.005zm157.65-46.414l-.424-.17c-.458-.137-.678-.326-.317-.527.381-.209.829-.101 1.209.046l.444.161-.01-.009c-.058.251-.609.328-.882.505l-.025-.007h.005zm-6.997 23.587l-.034-.291c.483-.035 1.019-.018 1.288-.264.39.011.892.018.955.214.098.311-.575.289-1.004.359l-1.205-.02v.002zm-40.171 56.529v-.357l1.161-.097.58.544.015-.009-1.171.236.044.033-.624-.35h-.005zm-73.768-71.292c1.17-.059 2.34-.134 3.482.081v.07c-1.19.073-2.434.421-3.482-.152zM10.268 62.18l-.756.004c-.312-.247-.312-.502-.093-.762l-.073.029 1.073.015-.068-.029c.219.251.195.5-.083.74v.002zm20.993-20.252c.185-.108.341-.227.556-.319.302-.13.712-.238 1.019-.037.278.181-.024.328-.395.425l-1.175-.068h-.005zm204.204 24.394c-.371.749-.663.842-1.809.566l.604-.291v.002l.59-.28.01-.005.61.007h-.005zm-99.427 45.786l-1.614-.144.019.016.566-.494.819.016c.059.081.151.154.283.218l-.073.39v-.002zM339.676 53.73l-2.297-.009c-.078-.148-.014-.256.376-.271.512-.013 1.102.062 1.336-.249l.609.009-.029-.013.005.535v-.002zM91.01 100.237c-.127.35-.78.238-1.248.288l-.644.069-.088-.084.151-.064c-.059-.057-.068-.117-.019-.178.127-.311.673-.265 1.156-.271.156.125.337.233.697.238l-.005.002zM89.342 5.334h.249l.78.251c-.093.474-.468.646-1.375.262l.346-.513zm58.393 102.211v-.088l1.141-.146c.112.058.249.082.42.075l.302.527-1.253-.013-.605-.355h-.005zm5.492-31.915h.487l.673.26v.004l.527.392.01.035-1.156.134-.02-.009c-.068-.145-.258-.238-.585-.275l.064-.542zm-46.335-36.941c-.366-.088-.644-.212-.415-.401.161-.137.488-.108.766-.049l.77.181.035.273c-.386 0-.771 0-1.156-.002v-.002zm80.883-20.861c-.093-.07-.278-.148-.254-.207.069-.152.356-.2.634-.115.112.035.185.174.122.225-.073.057-.327.066-.502.097zM171.03 35.411c.03-.15.21-.245.547-.223.321.022.487.134.395.273-.044.064-.225.141-.371.156-.341.035-.517-.064-.571-.207zm182.69 29.518c-.181.053-.376.062-.576.024a1.16 1.16 0 0 1-.405-.018c-.097.048-.214.057-.341.029.327-.161.176-.348.146-.529l1.2-.029-.015.52-.009.002zM156.835 62.19c.053-.205.088-.445.722-.401.399.029.443.229.468.394l-1.19.007zm192.623-12.009l.005-.275c.434.007.575-.121.648-.28l.571.015.053.535c-.419.344-.848.04-1.277.004zm-5.057-1.079c-.131.051-.263.148-.395.148-.356 0-.507-.121-.37-.26.053-.053.346-.101.487-.084.122.015.186.128.273.198l.005-.002zm-8.499-26.088c-.088-.068-.268-.145-.244-.205.069-.148.346-.196.62-.112.107.033.175.17.112.22-.073.055-.317.066-.488.097zm-9.592 32.373l1.214-.015c-.053.212-.019.487-.726.438-.425-.029-.464-.249-.488-.423zM134.76 5.785c-.102-.066-.302-.134-.292-.194.034-.156.307-.218.609-.143.122.031.224.17.171.227s-.317.075-.488.11zm170.738 43.208c-.102-.066-.297-.134-.282-.194.043-.152.317-.214.609-.145.117.029.205.167.151.225s-.312.077-.478.114zm-2.306-32.461c.4.013.902.029.951.229.083.328-.537.3-1.024.313l.068-.544.005.002zm-2.092 87.754c-.059.06-.088.166-.205.194-.264.066-.532.018-.61-.114-.034-.058.073-.174.19-.201.254-.057.508-.026.625.121zm-173.65-87.21c.259-.269.776-.284 1.322-.267-.102.423-.4.657-1.322.267zm-1.731 65.386c.4-.002.902.009.975.198.122.306-.463.328-.96.348l-.015-.549v.002zM282.443 2.524l.029-.079-.024-.079 1.18-.07.01.004.556.333c-.035.048-.035.097 0 .148l-1.176.066-.575-.324v.002zm-11.611 10.445c-.395-.242-.799-.485-.595-.815h.556l.634.28-.014-.007-.054.538a8.58 8.58 0 0 0-.532.007l.005-.002zM112.314 2.298l1.214.009c-.024.174-.058.397-.478.425-.697.051-.672-.225-.736-.434zm153.705 1.103c.386.015.893.018.941.218.079.313-.531.302-1.014.319l.068-.54.005.002zM108.057 66.83l-.005.584-1.209-.018.034-.463 1.185-.104h-.005z"/><path d="M262.318 34.858c-.526.002-1.009-.033-1.263-.275 1-.439 1.132-.079 1.263.275zm-159.079 1.536v-.339l1.132-.075-.039-.018.024.533.024-.011-1.141-.09zm151.136 47.974c.069-.203.083-.516.688-.434.663.09.356.308-.088.445l-.6-.013v.002zM99.665 48.244c.112-.059.205-.159.337-.174.361-.037.57.068.546.218s-.312.216-.61.165c-.132-.022-.185-.137-.273-.209zm-.717 28.569c.117.059.327.119.327.178 0 .161-.273.225-.58.165-.117-.024-.224-.156-.185-.218.034-.055.288-.084.439-.123v-.002zm147.684-7.755c.083-.139.302-.205.585-.159.117.02.244.13.234.194-.029.143-.293.198-.571.156-.117-.018-.165-.126-.248-.192zM92.897 49.253c-.156-.031-.395-.042-.463-.095-.146-.121-.044-.245.263-.278.136-.015.4.033.463.088.146.121.019.227-.268.286l.005-.002zm145.524 40.585l-1.205.018.259-.531c.17.013.316-.009.443-.062l.595.04-.092.535zM90.356 31.575l.044-.544h1.146v.54l-1.185.007-.005-.002zm146.421 35.837c-.058.24-.083.485-.712.584l-.058-.031-.537-.28.01-.128v-.128l.649-.282.648.264zM89.664 22.567l.093.524c-.39.002-.917.015-1.009-.165-.156-.297.419-.333.917-.361v.002zm-2.521 28.434c-.132.053-.263.15-.395.15-.361 0-.512-.121-.375-.262.054-.055.351-.101.497-.086.122.013.185.128.273.198zm-7.729-42.98c.034-.172.005-.405.449-.43.673-.037.688.236.756.452l-1.204-.02v-.002zm-.839-3.558l-.834.007-.176-.527 1.19.002-.175.518h-.005zm-2.229 87.814c.492.029 1.151-.075 1.204.304l.01-.004-.858.247h-.127l-.585-.48c.161.024.278 0 .356-.066zm-.087-47.278l.083.527c-.39 0-.917.013-1.009-.167-.151-.297.429-.33.922-.359h.005zm-3.584 5.182c.073-.205.068-.522.692-.441.668.088.371.313-.058.463l-.634-.02v-.002zm-25.63 65.07l-.629.28a1.1 1.1 0 0 1-.795-.004c-.458-.203.083-.315.293-.423.312-.161.736-.051 1.117-.025-.039.058-.034.117.015.175v-.003zM264.557 4.728c-.332-.029-.819.099-.941-.13-.044-.088.239-.209.37-.315v-.035l.673.357c-.117.029-.151.068-.102.123zm-1.004 1.954c.463-.013.853.055 1.146.223l-.571.322c-.17-.015-.346-.02-.517-.013l-.058-.531zM145.253.13c.347-.004.805-.04.824.174.015.181-.365.26-.765.271l-.059-.445zm99.931 92.726l.672-.053c.152.042.317.068.493.075a1.96 1.96 0 0 1 .073.225l-.722.286c-.102-.02-.209-.02-.317-.004l-.199-.529zm-111.502-6.565l-.644.286-.614-.284.01-.004.595-.271.014-.007.615.004c.014.09.019.181.024.271v.004zm90.187 25.991c.464.11.805.275.298.465-.312.114-.673-.025-.883-.179l.585-.288v.002zM119.058 73.147c-.024-.229-.258-.502.586-.542l.014.004.571.302v.218l-1.185.009.014.011v-.002zm-2.501 36.947c.517-.031.931.037 1.224.238l-.634.306-.468-.004-.122-.538v-.002zm-1.799-45.407c.068-.123.073-.333.219-.355.619-.095.775.154.995.339l-1.214.015zM8.069 23.366c.215-.174.551-.306.922-.141s.083.315-.307.414l-.614-.273zm323.137 7.663l.615-.004.575.282c-.224.253-.702.271-1.209.267l.019-.544zm-3.739-15.775l.019.114-.614.333a3.35 3.35 0 0 0-.459-.007l-.117-.535v-.002l1.171.099v-.002zm-22.486 54.319c-.015-.192.098-.361.41-.496l.751.317-.015.119-1.146.057v.002zM182.147 92.731c-.078-.07-.239-.148-.214-.207.058-.145.327-.196.609-.126.088.022.132.159.069.205-.088.062-.303.088-.464.13v-.002zM76.971 45.528l.59-.297.639.022-.059.544c-.488-.007-.946-.033-1.17-.269zM6.801 34.043l.156-.533a1.12 1.12 0 0 0 .356-.002l.736.289a.52.52 0 0 0-.005.194l-1.204.066-.039-.013zm70.175 18.048a.47.47 0 0 1-.005.271c-.385 0-.566.093-.571.262l-.258.099a2.01 2.01 0 0 0-.4-.075l.049-.48 1.18-.081.01.007-.005-.002zm98.793-40.212l.556-.004.594.291-.024-.009-.015.125.01.126h.034l-1.199.009.044-.542v.004zM74.475 84.932c.239.172.712.289.644.535-.878.038-1.247-.137-1.107-.524a1.55 1.55 0 0 0 .463-.011zm98.242-7.729c-.166-.037-.415-.055-.473-.114s.088-.15.146-.229c.166.044.366.073.483.134.175.088.097.17-.156.209zm112.121.592l.678.295a2.25 2.25 0 0 0-.044.269h-.634l-.6-.264-.019-.009.624-.291h-.005zm-1.23-78.227l-.668.527a.84.84 0 0 0-.37-.004l-.171-.527 1.214.013-.01-.007.005-.002zM167.207 107.087c.4.134.79.306.195.478-.341.099-.687-.044-.829-.221l.634-.257zM15.91 29.921a3.55 3.55 0 0 0-.507.009l-.566-.383.556-.189.6.031v-.002l-.083.535zm145.816 11.778c.38.097.653.247.307.41s-.692.04-.927-.119l.62-.291zM47.645 35.413l.093-.546c.649.205.746.392-.093.546zm.717 57.71c0-.148.083-.297.488-.253.488.051.278.178.063.286l-.551-.033zm299.291-44.575l1.195-.007a.62.62 0 0 1 .005.271h-.648c-.186.007-.371 0-.552-.026v-.119-.119zm-4.881-1.108l-.024.544c-.175 0-.351 0-.527-.004l-.058-.54h.609zm-1.248-25.437l.024.544h-.634l.088-.542.527-.004-.005.002zM54.384 7.477l-1.214.037.01-.295 1.204.035c-.01.075-.01.148 0 .223zM336.77 42.9l1.136-.121c.053.635-.698.189-1.132.172V42.9h-.004zm-1.965 20.143l-.219.496-.074.015-.224-.509h.522l-.005-.002zm-8.451-.366c.448-.134.907-.293 1.17.084l-1.17-.084zm-4.291-53.243c.497-.015.975-.015 1.17.249-.477 0-.941-.015-1.17-.249zm-4.369 22.974l.093.535h-.654l.103-.542.458.007zM314.1 46.076l.01.544h-.614l.034-.544h.565.005zm-7.3 27.886c.444-.293.859-.357 1.215.031l-1.215-.031zm-2.526-45.931c-.029.198-.268.308-.702.271-.288-.024-.405-.145-.4-.278l1.102.007zm-6.114 25.448l.083.527-.639.004.136-.54.42.009zm-7.218-23.272l-.102.524-.41.011-.126-.538h.643l-.005.002zm-1.858-2.456l.039.542c-.2.004-.4.002-.604-.002l.058-.538h.507v-.002zm-3.018 9.022l1.215.002v.258l-1.21.009v-.134-.134h-.005zm.615 42.133l.024.28-1.243-.007c-.02-.09 0-.178.063-.264l1.161-.009h-.005zm-4.877 1.373l1.215-.007c-.395.315-.805.311-1.215.007zm-1.189-54.181l-.166.524a1.72 1.72 0 0 0-.337.011l-.195-.533.698-.002zm-7.354-10.394l1.209.009c-.414.295-.819.304-1.209-.009zm1.194 89.748c-.073.383-.638.304-1.175.251.054-.163.307-.242.61-.306l.585.059-.015-.006-.005.002zM62.205 7.662l-1.097.11c.107-.416.653-.209 1.092-.156v.046h.005zm205.019 49.087l-1.248-.026c.449-.291.863-.284 1.248.026zm-.883 62.691c.083.202.498.458-.395.509v-.003l.239-.519.156.013zM259.285 6.719l1.185-.053.015.007.024.28-.039.02-1.199-.066a.5.5 0 0 0 .019-.187h-.005zm-195.1 87.228l-.034-.542h.639l-.073.542h-.531zm190.8 24.918l1.175.022c0 .072.01.143.024.216l-1.219.057.02-.297v.002zM253.76 28.29l-.009.546c-.19 0-.381 0-.571-.002l-.029-.542h.609v-.002zm-10.357-13.119h1.195c-.4.322-.795.322-1.195 0zm-1.15 2.163l-.132-.251c-.083-.15.122-.234.346-.315.132.104.308.203.381.313.048.075-.044.167-.078.251-.176-.011-.347-.011-.522 0l.005.002zm-8.622 31.477v.544h-.575l-.015-.544h.595-.005zm-1.824 45.138l1.205.022a.94.94 0 0 0-.01.205l-1.19.048-.01-.275h.005zM68.432 80.556l-1.214-.024c.434-.306.844-.344 1.214.024zm-.409-3.333l-.171-.5h.532l-.2.513-.156-.013h-.005zm161.449-64.141l.517-.106c.336-.073.619.026.619.132s-.278.203-.614.126l-.517-.106v-.046h-.005zm-.586 35.815l1.093-.086c.019.09 0 .178-.064.267-.4.007-.751-.046-1.029-.181zm-.745-28.265l-.02.54c-.166 0-.336-.002-.502-.002l-.029-.533.546-.002.005-.002zm-1.21 82.081c.2-.271.702-.264 1.2-.264l-.01-.005a1.86 1.86 0 0 0 .015.236l-1.205.033zm.586 9.575l.014.542h-.599l.039-.544h.541l.005.002zm-2.405-53.62l1.21-.009c-.39.348-.795.346-1.21.009zm-1.721.244c.127-.293.595-.302 1.112-.267-.103.317-.634.271-1.112.267zm-1.335-42.384c.399-.344.809-.335 1.219-.004l-1.219.004zM211.128 64.18c.346-.007.95-.148.97.037.039.348-.619.106-.97.134v-.086-.086zm-2.464-35.048l1.195-.018c-.37.379-.775.322-1.195.018zm-4.339 22.424l.049.54h-.615l.044-.542.522.002zm-8.484-29.831l1.214.002v.26l-1.219.016v-.278h.005zm-2.048 40.54l.199.496c-.175 0-.346-.002-.521-.004l.185-.511.137.02zm-2.843 19.106l.014.544h-.614l.015-.546h.585v.002zm-2.434.536l1.132.024c-.405.293-.79.348-1.132-.024zm-3.652.566c.337-.394.756-.302 1.21-.044l-1.21.044zm-.03-19.157c.044.165.083.412-.327.403-.336-.007-.312-.269-.268-.436l.595.035v-.002zm-2.409 1.908c.371-.331.78-.293 1.205-.022l-1.205.022zm1.224 14.228l-.014.544c-.181 0-.361 0-.542-.004l-.078-.542h.634v.002zm-2.954-68.824l1.107-.11-.01-.007.024.134v.137c-.444.055-.79-.051-1.151-.132l.03-.022zm-7.437 1.778l-1.219.02c.385-.3.79-.313 1.219-.02zm-.083 67.064c-.395.317-.771.331-1.112-.018l1.112.018zm-1.121-74.982h-.595l.049-.542.609.273-.068.267.005.002zm-3.55 42.802c.439-.059.994-.297 1.097.148l.014-.007-1.136-.121.025-.02zm.448-38.139l.049.533a5.28 5.28 0 0 1-.59 0l.087-.538h.454v.004zm-1.077 50.907l1.136-.024.014.289c-.556.066-1.033.062-1.15-.262v-.002zm1.131 30.34l-.01.542h-.561l-.044-.546.61.002.005.002zm-.678-59.356l.088.533h-.62l.108-.535.429.002h-.005zm-1.741 75.201l-.058.56a12.96 12.96 0 0 0-.483 0l-.054-.536.595-.024zm-3.662-84.531c.415-.289.82-.304 1.21.009l-1.21-.009zm1.214 34.759l-1.258-.033a.37.37 0 0 0 0-.209l1.258-.033v.275zm-2.443-39.399l1.204.02v.225l-1.204.035v-.28zm.005 62.931l1.209.004v.242l-1.199.011v-.128-.128l-.01-.002zm-.609 30.913l-.015.546h-.58l-.01-.544h.605v-.002zm-3.682-85.357l-.093.522-.439.015-.126-.544.658.007zm-78.006 3.558l-1.156-.057c.444-.214.853-.295 1.156.057zm64.064 17.288l1.166-.059v.002l.005.275v.002l-1.19-.068.024-.075v-.077h-.005zm-.677-21.944l.01.544h-.59l.019-.542h.566l-.005-.002zm-3.604 82.654c.546.095.639.289.576.52l-.673.007.112-.547-.015.02zM81.224 41.972l.088-.533a3.81 3.81 0 0 0 .419-.002l.132.538-.02.007c-.205 0-.415-.004-.619-.007v-.002zm56.096-28.738c.419-.293.824-.311 1.214.011l-1.214-.011zm-55.448-2.188l-.054-.542c.77.165.707.348.054.542z"/><path d="M82.1 8.539c-.054-.126-.185-.258-.136-.375.059-.13.356-.128.4.004.039.117-.112.247-.176.37h-.083-.005zm50.397 10.769l1.17-.055.01.007-.024.275c-.473.013-.902-.018-1.151-.227h-.005zm.522-1.683l-.015.535h-.502l-.034-.538h.551v.002zm.044 56.626l-.083.511c-.517-.097-.614-.291-.585-.513l.668.002zm-4.964-58.259c.054.165.117.43-.244.427-.37-.002-.287-.262-.224-.427h.473-.005zm-4.15 13.702l1.185-.053c-.322.357-.731.313-1.185.053zm-1.273 45.649l1.2.024c-.429.28-.829.297-1.2-.024zm-3.632-39.156c.458-.236.897-.359 1.204.057l-1.204-.057zm-2.054 21.146c.186.209.556.449-.375.487l.019.011.21-.507.142.009h.004zm-5.919 44.012l.024.542c-.712-.174-.697-.355-.024-.542zm-2.009-45.107l.161.249c.122.165-.054.229-.385.203-.249-.02-.273-.106-.156-.207.087-.075.122-.163.18-.247h.195l.005.002zm-1.019-17.547l.024.278-.634.07-.546-.35 1.156.002zm-13.429 57.97c-.385.026-1 .048-1-.11s.614-.134 1-.108a1.62 1.62 0 0 1 0 .218zm-2.424-1.064c-.054.137.18.353-.395.344-.073 0-.127-.223-.19-.344h.585zM88.532 71.23l1.2.042c-.449.269-.863.344-1.2-.042zm.03 16.18l1.19-.013c.015.086.015.172 0 .26h-1.2v-.123-.123h.01zm-2.985-39.335l1.126-.081c-.088.419-.668.212-1.117.176l-.01-.093v-.002zm-70.803-7.473l-1.18-.035c0-.064 0-.13-.015-.194l1.195-.048.01.004-.015.275.005-.002zm5.447-4.929c-.6-.192-.687-.375.054-.542l-.054.542zm2.487 6.854l-1.165-.068v-.079l-.024-.077 1.19-.073v.297zm1.131 9.767l-1.131.068.01-.238 1.151.062-.029.108zm.663-23.188c-.644-.187-.668-.368.029-.542l-.029.542zm.614 27.37c-.049.401-.648.293-1.17.256l.015.009a.48.48 0 0 1 .068-.251l1.087-.013zm3.023-50.394l-1.185.064.01-.295 1.185.062c-.024.055-.029.11-.015.167l.005.002zm9.168 58.032l-1.107-.073-.034-.095 1.17-.099.01.007a1.02 1.02 0 0 1-.054.267l.015-.009v.002zm.561-54.771l-1.136.064v-.128-.128l1.18.048c-.049.044-.063.093-.044.141v.002zm4.296 1.404l-1.18.046c.327-.355.736-.304 1.18-.046zm.624 28.493c-.054.394-.614.331-1.18.262.171-.289.688-.267 1.18-.262zM361 47.178c-.059.066-.093.182-.176.191-.341.035-.36-.084-.356-.195l.532.004zm-7.251 24.612c-.005.185-.215.28-.629.282.049-.165.258-.26.629-.282zm-4.271-12.858c-.015-.119 0-.242.36-.207.088.009.127.13.186.201l-.546.007zm-4.282 20.241c-.415.009-.619-.077-.6-.264.366.013.566.101.6.264zm-1.878-52.515c.049.084.064.17.039.256-.38-.004-.59-.086-.575-.264l.536.007v.002zm-10.878 45.4c.015-.108 0-.24.356-.203.088.009.117.132.171.203h-.527zm-3.067-4.373c.034.203-.186.293-.629.28.034-.172.248-.264.629-.28zm-.629-39.941c-.337-.031-.532-.121-.6-.271.327.033.527.126.6.271zm-.005 8.482c.009.126.009.264-.385.227-.093-.009-.127-.145-.186-.223l.571-.004zm-7.344 22.986c-.058.075-.088.205-.176.214-.375.038-.375-.097-.38-.216h.556v.002zm-23.133-17.513h.604a2.49 2.49 0 0 1 0 .273c-.19 0-.375 0-.565-.004-.029-.088-.034-.176-.02-.264h-.024l.005-.004zm-11.606 37.756v-.289c.438-.007.629.09.599.282l-.595.009-.004-.002zm-.599-43.771c.009.088 0 .174-.03.26l-.541.002c.044-.152.239-.238.576-.264l-.005.002zM281.77 15.71c-.058.077-.088.211-.175.22-.39.04-.381-.101-.386-.22h.561zM279.956.951a1.15 1.15 0 0 1 .019.256c-.424.007-.624-.086-.609-.275a5.24 5.24 0 0 1 .59.02zm-3.057 31.722c-.058.148-.249.233-.58.26.073-.141.268-.227.58-.26zm-7.866-29.832c.005-.105.02-.224.351-.189.083.009.117.123.171.187l-.517.002h-.005zm-8.576 5.744c-.386-.004-.6-.088-.61-.267.351.02.556.108.61.267zm-2.429 64.848l.253-.214.283.203-.536.011zm-8.505-46.789c0-.103.025-.215.337-.184.083.009.117.116.175.178l-.512.004v.002zm-.033 23.535h.609v.273c-.195 0-.385 0-.575-.002a.58.58 0 0 1-.03-.269l-.004-.002zm-.552 20.781c.058-.066.092-.18.18-.189.337-.033.366.081.351.195-.18 0-.356 0-.536-.007h.005zm-6.758-26.794c.419-.011.629.077.609.269a4.34 4.34 0 0 1-.59-.035c-.015-.079-.019-.156-.015-.236l-.004.002zm-.625 25.711c-.058.154-.258.247-.604.273.083-.145.278-.238.604-.273zM237.323.105l.263-.212.268.207-.531.002v.002zm.571 61.019c-.01.174-.21.262-.595.269a.53.53 0 0 1 .068-.264l.531-.007-.004.002zm-1.84 15.839c-.141-.024-.395-.038-.409-.073-.073-.145.195-.141.414-.148.015.075.015.148 0 .222l-.005-.002zm.021 26.015c-.39-.007-.609-.095-.624-.274.351.025.566.115.624.274zm-1.839-86.724l-.302.3c-.244-.07-.342-.17-.278-.297h.58v-.002zm-3.637 62.385c.395 0 .629.077.609.269l-.556-.011c-.063-.086-.078-.172-.039-.262l-.014.004zm-1.873-34.202c0 .11-.039.219-.356.182-.088-.009-.117-.119-.176-.18h.527l.005-.002zm-3.077 14.779c-.059.066-.093.182-.181.191-.341.033-.341-.09-.346-.198l.522.007h.005zm-1.181-21.893c-.058.075-.092.209-.185.218-.385.04-.395-.097-.395-.22l.58.002zm-2.447 28.454c0 .115 0 .247-.366.209-.088-.009-.117-.137-.171-.209h.537zm-15.156 18.866c.054-.068.083-.189.166-.198.351-.035.341.093.351.198h-.517zM203.208.394l.551-.007c.02.192-.165.293-.609.278 0-.09.014-.181.058-.271zm-2.501 24.618a.46.46 0 0 1-.044.26h-.517c.024-.156.209-.244.556-.262l.005.002zm-5.491 16.394c-.243-.004-.541.002-.463-.161.02-.038.298-.051.458-.075.015.079.015.156 0 .236h.005zm-1.819 48.168c-.385-.007-.59-.097-.604-.271.346.024.551.115.604.271zm-2.443.826c.015.088 0 .176-.039.262l-.565.009c.009-.178.224-.262.609-.271h-.005zm-6.095-83.723c-.054.152-.258.236-.59.262v.007a.71.71 0 0 1 .024-.267l.566-.002zm-3.677 39.402c-.015.11 0 .242-.361.207-.088-.009-.117-.132-.176-.205l.537-.005v.002zm-6.105 7.662a.6.6 0 0 1 .025.262c-.327-.029-.532-.112-.581-.264l.556.002zm-5.451-25.997h.609v.273h-.609v-.137-.137zm-2.498 71.689c-.058.07-.087.192-.175.198-.356.033-.356-.093-.351-.205l.526.004v.002zm-21.943-83.718c-.005.13-.068.253-.434.2-.092-.013-.107-.141-.156-.216l.59.013v.002zm-1.179 88.378l-.308.213-.278-.222c.196-.007.391-.005.586.009zm-3.018-88.37c.58.088.517.172-.01.253l.01-.253zm.018 39.373c-.034.178-.258.262-.643.275.073-.159.297-.245.643-.275zm-1.804 9.025c.01-.121.068-.242.42-.192.092.013.107.134.156.207l-.576-.013v-.002zm-9.821-54.978c.015.088 0 .176-.039.262l-.551.007c-.02-.185.18-.273.595-.269h-.005zm-5.491.273l-.263.193-.278-.187.541-.007zm-1.248-5.195c.034.088.049.174.029.262-.341-.022-.536-.106-.56-.262h.531zM17.217 28.297c.336.029.536.117.6.269-.317-.035-.522-.123-.6-.269zm.595-20.525c-.015.176-.2.28-.609.286.058-.156.249-.258.609-.286zm26.264 64.561l.288-.202.273.206c-.185 0-.375 0-.561-.004zM21.43 45.262c-.054.068-.083.187-.166.196-.346.035-.346-.09-.351-.198h.522l-.005.002zm4.886 26.537c-.054.066-.078.176-.166.187-.317.042-.341-.079-.385-.18l.551-.009v.002zm.697.806c.059-.07.093-.192.181-.2.356-.035.351.097.366.207-.18 0-.366 0-.546-.004v-.002zm41.414-33.372c-.073.148-.273.236-.605.264.073-.145.283-.231.605-.264zM30.023 8.045c-.01.183-.205.282-.624.286.054-.163.254-.262.624-.286zm56.705 29.818c.059-.15.258-.238.59-.269v-.002a1 1 0 0 1-.029.269h-.561v.002zm-12.161-7.94l-.044-.13v-.132c.37.011.575.097.59.269-.18 0-.366 0-.546-.007zM32.417 4.494l-.337.273-.273-.284.61.011zm57.964 89.728l-.01-.132.044-.13.561-.007c.02.187-.2.269-.595.269zm1.18-18.048c0 .114 0 .244-.361.207-.088-.009-.117-.134-.171-.205l.532-.002zm-75.578-.824c0 .181-.185.278-.6.278.044-.163.239-.258.6-.278zm82.936-7.101c.234 0 .493.009.419.154-.019.037-.268.053-.41.079l-.015-.117v-.117h.005zM35.551 6.122c-.044-.086-.059-.174-.044-.262.371.011.566.099.58.267a14.51 14.51 0 0 1-.536-.004zm68.864-3.825c-.054.075-.074.2-.166.214-.366.048-.429-.073-.424-.203l.59-.009v-.002zm2.993 68.68l-.268.187-.268-.187h.536zm-63.323 44.03c-.039-.183.18-.249.551-.251.024.174-.195.244-.551.251zm47.51-17.502c-.385.011-.756-.018-1-.163-.088-.053-.122-.168-.058-.225.21-.187.429-.033.629.02.161.04.302.097.449.148v.112l-.024.11.005-.002zm2.438.009c-.38-.018-.761-.037-.58-.284a.32.32 0 0 1 .18-.093c.454.051.502.196.405.372l-.005.004zm-4.866-.54c.258.013.371.061.307.14 0 .002-.161-.002-.195-.022-.054-.033-.068-.081-.097-.123l-.015.004zm1.19-.575l.458.157c-.483.163-.439-.029-.493-.15l.034-.007z"/><path d="M91.595 97.505l.029-.11v-.112c.292-.015.507.022.405.174-.019.033-.283.033-.434.048zm169.51-96.309c-.01-.161-.361-.397.166-.456.517-.057.98.139.853.375-.127.227-.673.064-1.034.077l.015.004zM86.724 88.479c.063-.271.361-.381.946-.255.234.051.249.126.112.196-.317.17-.707.048-1.063.055v.002l.005.002zm191.448-48.43l.229-.214.244.117-.483.09.014.007h-.004zm-1.829-25.414c.512.042 1.224-.077 1.306.315.035.154-.219.236-.507.245-.434.013-1.024.13-1.209-.132-.083-.112.278-.289.434-.434l-.024.007zM143.347 9.713l-.064.467c-.448.018-1.097.161-1.165-.165-.088-.416.653-.33 1.229-.302zm37.908 76.844c.093.132.049.242-.258.297-.054.009-.225-.04-.234-.066-.044-.15.161-.214.458-.238l.034.007zm12.055-19.103c-.015.064-.015.128-.005.192-.751.02-1.507.17-2.482-.009.858-.407 1.701-.212 2.487-.183zm-57.2 44.264l.556.035c.078.145.288.234.61.267-.278.425-.736.319-1.244.088l.074-.39h.004zm2.415 1.116c-.073.148-.283.236-.605.274.078-.146.288-.234.605-.274zM220.607 2.81l-.381-.101c.064-.029.147-.086.195-.079.137.015.259.055.386.086l-.195.094h-.005zm-22.329 68.982l.244-.22.273.126-.522.095h.005zm95.635-64.879c-.176-.009-.347 0-.512.026-.234-.156-.893-.225-.59-.485.082-.07.541-.112.755-.077.59.097.39.335.351.535h-.004zm56.189 44.078l.258-.121c-.015.024-.01.059-.049.072-.058.022-.146.031-.219.044l.01.004zM179.973 34.845c-.38.004-.814.084-1.038-.128-.034-.031.17-.154.302-.167.527-.053.668.108.727.302l.014-.007h-.005zm-2.409.28l-.01-.13.01-.13c.336.026.526.115.59.264h-.585l-.005-.004zm-1.823-9.835a5.1 5.1 0 0 1 .58-.002c-.005.115-.049.234-.385.194-.093-.011-.132-.126-.195-.192zm90.811 1.897c.307-.022.551.013.629.161.014.026-.117.101-.166.099-.327-.015-.439-.123-.468-.256v-.007l.005.002zm85.974 16.706l.297.127c-.063-.007-.151-.004-.185-.022-.054-.029-.073-.072-.108-.11l-.009.004h.005zM76.352 29.385c-.268-.009-.483-.055-.502-.192 0-.024.146-.077.195-.07.288.037.351.139.307.262zm-4.223 21.087l1.18-.022c0 .161 0 .326-.507.322-.419-.004-.619-.123-.673-.297v-.002zm135.921-.557l1.229.255c-.132.19-.415.331-.863.284-.746-.075-.386-.339-.371-.542l.005.002zM25.248 37.227l.21-.174c.063.029.195.064.185.088-.029.062-.117.119-.18.178l-.21-.093h-.005zm70.951 2.779l-.18-.044.2-.118.176.085-.195.079v-.002zM45.948 78.254l.21-.168c.063.029.185.066.176.088-.034.062-.122.117-.185.174l-.2-.095zm52.429-43.786l.215-.159c.059.029.181.064.171.086-.034.059-.122.11-.19.165l-.195-.092zm18.818-28.481l-.385.075c-.049.004-.117-.053-.181-.081l.386-.075c.048-.004.117.053.18.081zM41.443 2.502l-.936.013c-.034-.236-.385-.588.59-.542.673.031.385.328.346.531v-.002zm-.605 74.586c0 .029.02.064-.015.081-.117.07-.254.053-.346-.05-.01-.013.107-.062.185-.075.044-.007.117.026.176.042v.002zm-36.924-1.02l.215-.172c.063.029.19.064.18.086-.029.062-.117.117-.18.174l-.21-.09-.005.002zm106.865 43.281c-.059-.031-.166-.064-.161-.092s.122-.055.19-.082c.058.031.166.064.161.092s-.122.055-.19.082zm100.656-76.054l-.215-.048.225-.134.214.092-.224.088v.002zm-6.997 13.879l.112-.088.297.097c-.073.029-.146.081-.214.079s-.132-.057-.195-.088zm-88.388 47.055l.107-.097.298.103-.21.095-.195-.101zM251.947 5.847l.048-.507c.454-.011 1.078-.126 1.141.198.083.412-.595.357-1.189.308zM90.317 55.4l-.044.48c-.439.002-1.063.117-1.131-.198-.088-.43.639-.306 1.175-.282zm-1.384 62.594l-.371-.092c.063-.029.146-.084.195-.077.137.013.259.052.39.081l-.21.088h-.005zM70.827 66.877l-.21.193-.229-.107.454-.079-.015-.007zm220.111-41.599l-.624.007c.19-.259.4-.268.624-.007z"/><path d="M289.743 25.545l-.014-.13v-.13l.619-.011c-.054.159-.259.245-.605.269v.002zM156.82 118.303v.275l-1.21-.006-.014-.542 1.224.275v-.002zM12.979 34.027l.21-.212.254.115-.478.09.015.007zm82.259 51.981l-.302-.132c.063.007.156.004.19.024.054.031.068.075.102.114l.01-.004v-.002zM154.411.396a3.39 3.39 0 0 1 .561-.002l-.278.216-.283-.212V.396zM92.809 58.113c-.01.181-.234.26-.614.275-.019-.192.219-.269.614-.275zM79.37 43.071l-.254.216c-.4-.194.02-.181.268-.209l-.015-.007zM183.674 99.71c.341.02.546.101.58.26-.346-.018-.541-.103-.58-.26zm-31.726-64.577l.522.097-.283.123-.239-.22zM45.845 11.037l-.488-.081.244-.116.224.206.015-.009h.005zm184.007 26.61c-.048.053-.053.106-.009.161-.439-.007-1.112.212-1.112-.227l1.126.068-.005-.002zM97.061 48.266l-.258.209c-.434-.205.054-.17.263-.207l-.01-.004.005.002zM41.003 80.825l1.18.007c-.059.161-.127.324-.6.324s-.522-.172-.58-.328v-.002zM170.84 12.97c-.322-.031-.527-.117-.59-.264.332.029.532.114.59.264zm128.017 32.569l-.585-.289c.019-.201.024-.403.531-.498l.683.227c.044.245.429.564-.629.56zm-197.534 68.924h-.566c.059-.071.093-.19.185-.201.351-.04.371.086.381.201zM47.679-.428c.088.278.317.573-.468.736-.166-.286-.639-.612.468-.736zM260.49 31.285l-.034-.126.015-.126c.243.005.521.009.448.163-.019.042-.278.059-.429.088zM94.008 99.963h-.575l.283-.187.288.187h.005zm45.765-3.284l-.019-.13.014-.13c.254.011.571.002.488.172-.019.042-.312.057-.478.086l-.005.002zm197.982-43.228c.01-.09.054-.178.127-.264l1.209.015c-.234.311-.824.236-1.336.249zM65.36 69.337a.54.54 0 0 1-.015.249c-.146-.029-.39-.046-.414-.088-.073-.148.185-.159.429-.161zm284.084-20c.132.064.297.092.493.086-.03.084.029.152.175.203-.073.161-.214.289-.648.28l-.025-.571.005.002z"/><path d="M349.491 49.075l.01.295c-.526.037-.756-.059-.678-.3l.668.004z"/><path d="M348.229 49.09l-.024-.28h.649l.029.282c-.22 0-.439-.002-.654-.002zm4.506 15.846c.131.029.268.033.405.018.029.123-.093.267-.327.249-.249-.02-.249-.163-.078-.267zM108.019 38.947l.653.009-.327.282-.326-.291zm166.456 3.027c.014.088.014.176 0 .264-.527-.088-.532-.176 0-.264zM161.75 56.449l-.029-.117.015-.117 1.145.015c.02.07.025.139 0 .209l-1.131.009zm169.412-33.091c-.419.013-.79-.022-1.014-.203.434-.029 1.009-.201 1.014.203zM260.48 78.639c-.512.024-1.072.093-1.18-.258.508-.018 1.176-.185 1.18.258zM244.594 2.018c-.542.04-.805-.174-1.2-.264.078-.194-.058-.432.546-.509.439.22.912.434.649.773h.005zM6.246 34.038c-.497-.004-.98-.018-1.204-.269.507-.004 1 0 1.204.269zm149.97 7.108v-.132-.132l.595-.002c-.068.148-.268.238-.6.269l.005-.002zm-37.762 2.723l-.029-.123.009-.126c.391 0 .605.081.59.264a5.48 5.48 0 0 1-.57-.015zm230.414 27.099c.025-.17.234-.253.595-.269-.019.17-.234.253-.595.269zM98.241 55.623l-1.039-.033-.039-.723 1.097-.022c.249.26.244.52-.019.778zm-50.562 7.696l.024.544-1.195-.02.034-.502 1.136-.022zM176.91 12.71c.035.084.035.165 0 .249l-1.009-.071v-.117l1.005-.062h.004zm49.412 44.307v-.137-.137h.609v.273h-.609z"/></g><path fill="url(#B)" fill-opacity=".2" d="M0-10.361h361V120H0z"/><path d="M389.486 94.844s-8.792 3.538-16.741 10.492c-7.971 6.927-18.025 7.56-18.025 7.56L389.819 83.8l-.333 11.044zm-3.365-42.939c-22.263 2.96-27.215 25.85-29.36 29.488-2.121 3.638-2.854 2.817-8.514 6.859s-5.844 10.136-5.844 10.136L297 142.699s11.36-9.428 19.069-14.721 27.947-24.232 31.282-26.51 7.497-6.097 10.123-9.992 5.187-4.855 15.315-7.178C382.94 82 388.215 74.235 388.215 74.235l-2.094-22.33z" fill="url(#C)"/><path d="M-16.534 71.116s1.906-1.136 2.628-2.965c.725-1.848 23.434-23.093 23.434-23.093s-.178-2.148 2.791-2.864c2.967-.696 5.414-4.354 5.541-4.71.147-.354 5.441.193 6.005-5.945.561-6.119 10.733-10.747 11.473-10.842s13.874-3.945 17.548-16.581c0 0-.069-2.232 1.587-4.13s3.747-5.683 5.378-6.109 3.754-.411 5.323-1.672 1.591-3.579 4.57-4.371 6.028-.789 8.34-3.462L-2.888-26.696l-9.797 71.668 27.702-23.807s2.628-2.965 5.904-2.615 4.208-.998 6.368-3.85c2.141-2.854 4.727-4.074 8.021-6.594 3.314-2.517 8.251-6.838 9.981-7.978 1.732-1.16 13.431-10.201 13.431-10.201L40.126 8.116c-2.554 2.424-13.666 11.919-14.822 13.61s-2.889 3.578-6.152 5.728-4.95 4.417-6.313 6.906-1.963 7.599-7.756 9.403-18.451 4.912-21.232 24.534l-.385 2.819z" fill="url(#D)"/><path d="M66.258-17.244l-20.917-2.859C26.334-13.088 2.777 10.064-9.878 24.434l-2.808 20.538 27.702-23.807s2.628-2.965 5.904-2.615c3.197.341 4.161-.934 6.212-3.645l.155-.205c1.511-2.015 3.245-3.216 5.293-4.634.853-.591 1.76-1.219 2.728-1.959 1.542-1.171 3.435-2.732 5.192-4.182C42.522 2.257 44.365.738 45.29.128c1.298-.869 8.196-6.166 11.57-8.765l9.394-8.057c.293-.114.365-.298.004-.55z" fill="#ffc502"/><path d="M69.011-16.868l-71.899-9.828-9.797 71.668 27.702-23.807s2.628-2.965 5.904-2.615c.524.056.989.068 1.407.038l4.745-3.604.06-.079.155-.205c1.511-2.015 3.245-3.216 5.293-4.634l2.728-1.959 5.192-4.182L45.29.128c1.732-1.16 13.431-10.201 13.431-10.201l-4.587 4.504 14.878-11.299z" fill="url(#E)"/><path d="M53.848-18.94l-5.194-.71C28.67-13.698 2.622 12.22-10.236 27.059l-2.449 17.913 27.702-23.807s2.628-2.965 5.904-2.615c3.197.341 4.161-.934 6.212-3.645l.155-.205c1.511-2.015 3.245-3.216 5.293-4.634.853-.591 1.76-1.219 2.728-1.959 1.542-1.171 3.435-2.732 5.192-4.182C42.522 2.257 44.365.738 45.29.128c1.732-1.16 13.431-10.201 13.431-10.201L43.863 4.491l23.197-19.894c1-.389-.577-1.6-13.213-3.537z" fill="url(#F)"/><path d="M47.927.517c-1.214 6.519-4.016 12.847-6.758 17.724 4.238-2.394 9.58-6.772 11.718-14.125 0 0-.069-2.232 1.587-4.13.53-.608 1.105-1.409 1.695-2.232 1.253-1.746 2.574-3.588 3.683-3.877.452-.118.941-.202 1.447-.289 1.318-.227 2.742-.471 3.876-1.383.566-.455.93-1.047 1.305-1.655.664-1.079 1.36-2.209 3.266-2.716.663-.177 1.33-.313 1.992-.449 2.309-.474 4.551-.935 6.349-3.013l-25.914-3.542c-2.008 1.616-3.761 5.288-3.626 12.741a32.42 32.42 0 0 1-.22 4.318l10.395-7.962L47.927.517z" fill="#f5f1ee"/><path d="M48.407.047c-1.127 6.522-3.882 12.886-6.623 17.838 4.127-2.462 9.067-6.766 11.103-13.768 0 0-.069-2.232 1.587-4.13.53-.608 1.105-1.409 1.695-2.232 1.253-1.746 2.574-3.588 3.683-3.877.452-.118.942-.202 1.447-.289 1.318-.227 2.742-.471 3.876-1.383.566-.455.93-1.047 1.305-1.655.664-1.079 1.36-2.209 3.265-2.716.664-.176 1.33-.313 1.992-.449 2.309-.474 4.551-.935 6.349-3.013l-25.528-3.489c-2.008 1.616-3.761 5.288-3.626 12.741.024 1.307-.04 2.624-.179 3.941l9.968-7.638L48.407.047z" fill="url(#G)"/><path d="M-14.873 62.326c2.413-1.807 4.644-3.852 6.497-6.143 6.386-7.89 10.942-8.168 13.312-6.8-6.675 6.314-18.327 17.454-18.842 18.769-.722 1.829-2.628 2.965-2.628 2.965l.385-2.819a41.53 41.53 0 0 1 1.276-5.971z" fill="#f5f1ee"/><path d="M-14.967 62.651c2.536-1.864 4.881-3.987 6.815-6.379 6.208-7.67 10.687-8.147 13.119-6.918-6.67 6.309-18.356 17.481-18.873 18.798-.722 1.829-2.628 2.965-2.628 2.965l.385-2.819c.292-2.058.692-3.934 1.181-5.646z" fill="url(#H)"/><g fill-rule="evenodd"><path d="M220.404-.124H131l8.71 20.752h80.694v-.053h.23l8.71-20.7h-8.94z" fill="#6c4b0e"/><path d="M141.08-2h86.871l-8.463 20.7h-.224v.053h-78.407L132.393-2h8.687 0z" fill="url(#I)"/></g></g><defs><linearGradient id="A" x1="180.492" y1="13.459" x2="180.492" y2="74.541" href="#K"><stop offset=".292" stop-color="#ab750f" stop-opacity="0"/><stop offset=".652" stop-color="#d8a956"/><stop offset="1" stop-color="#ab750f"/></linearGradient><linearGradient id="B" x1="184.26" y1=".502" x2="180.911" y2="110.636" href="#K"><stop stop-color="#d8a956" stop-opacity="0"/><stop offset="1" stop-color="#ab750f"/></linearGradient><linearGradient id="C" x1="361.038" y1="58.636" x2="344.266" y2="109.798" href="#K"><stop stop-color="#4f3600"/><stop offset=".447" stop-color="#bd852b"/><stop offset=".987" stop-color="#4f3600"/></linearGradient><linearGradient id="D" x1="31.618" y1="43.719" x2="27.868" y2="-27.401" href="#K"><stop stop-color="#885f11"/><stop offset=".373" stop-color="#d8a956"/><stop offset="1" stop-color="#ab750f"/></linearGradient><radialGradient id="E" cx="0" cy="0" r="1" gradientTransform="translate(19.2231 -1.96156) rotate(51.4498) scale(30.9957 130.691)" href="#K"><stop stop-color="#543600"/><stop offset=".353" stop-color="#ffbb48"/><stop offset=".899" stop-color="#543600"/><stop offset="1" stop-color="#edbf74"/></radialGradient><linearGradient id="F" x1="26.718" y1="19.536" x2="13.401" y2="2.571" href="#K"><stop stop-color="#fcc575"/><stop offset="1" stop-color="#412800"/></linearGradient><linearGradient id="G" x1="53.553" y1="1.491" x2="72.195" y2="-1.075" href="#K"><stop stop-color="#f9b554"/><stop offset="1" stop-color="#956618"/></linearGradient><linearGradient id="H" x1="-14.195" y1="62.403" x2="1.732" y2="72.424" href="#K"><stop offset=".096" stop-color="#f9b554"/><stop offset=".784" stop-color="#956618"/></linearGradient><linearGradient id="I" x1="132.393" y1="-.783" x2="141.056" y2="38.829" href="#K"><stop stop-color="#ab750f"/><stop offset=".484" stop-color="#d8a956"/><stop offset="1" stop-color="#ab750f"/></linearGradient><clipPath id="J"><path fill="#fff" d="M0 0h361v120H0z"/></clipPath><linearGradient id="K" gradientUnits="userSpaceOnUse"/></defs></svg>