<svg xmlns="http://www.w3.org/2000/svg" width="393" height="229" fill="none" xmlns:v="https://vecta.io/nano"><g clip-path="url(#H)"><path fill="#f5f1ee" d="M0 0h393v229H0z"/><path fill="url(#A)" fill-opacity=".1" d="M0 165.523h393v63.141H0z"/><g opacity=".05" stroke-width="2" stroke-miterlimit="16"><path d="M-13.87 5H78.11L146 193.34L78.11 224L64.8149 167.496L64.8146 167.496L54.0197 121.618L54.02 121.617L43.07 75.08L22.08 134.736L45.8135 124.988L56.6071 170.861L-73 224L-19.1444 70.1269L26.645 36.755L-10.5536 45.5818L-0.457561 16.7359L-13.87 5Z" stroke="url(#B)"/><path d="M135.543 138.498L119.73 94.6296L146 83.84L135.543 138.498Z" stroke="url(#B)"/></g><g opacity=".05" stroke-width="2" stroke-miterlimit="16"><path d="M293.13 5H385.11L453 193.34L385.11 224L371.815 167.496L371.815 167.496L361.02 121.618L361.02 121.617L350.07 75.08L329.08 134.736L352.813 124.988L363.607 170.861L234 224L287.856 70.1269L333.645 36.755L296.446 45.5818L306.542 16.7359L293.13 5Z" stroke="url(#C)"/><path d="M442.543 138.498L426.73 94.6296L453 83.84L442.543 138.498Z" stroke="url(#C)"/></g><g opacity=".35" fill="#fff"><path d="M306.626 93.568c-.53-.726-1.415-.396-2.082-.732-.964-.488-.958-.742.122-1.74l.053-.016c.228.363.572.466.969.466.058.179.18.249.366.206.201.401.561.542.958.618l-.026-.022-.265 1.241-.095-.016v-.006zm-58.549-5.333l-.668.195-1.281.022-.737-.146c-.18-.461-.233-.921-.026-1.387l2.076-.114a1 1 0 0 0 .641.06c.122.163.281.211.471.152l.239.634-.721.585h.006zm-9.259-57.819c.821-.276 1.367.325 2.002.65v.011l-.016.677a4.93 4.93 0 0 1-.64.092l-.721.103-.614.482-.593-.022-.186-.629-.164-.715c.117-.108.233-.103.339.016.355-.076.498-.341.588-.661l.005-.005zm30.432 160.186c.286.916.117 1.517-.985 1.447l-1.61-.152.016.016c-.106-.661.593-.807.795-1.273.201.108.37.07.503-.119l1.303.097-.022-.016zm-84.066-47.777c.45-.884.91-.705 1.371-.017.064.358.302.548.625.656-.021.439.016 1.041-.461 1.122-.757.135-.768-.591-.895-1.111-.069-.363-.312-.547-.635-.65h-.005zm-64.302-4.417h.032c-.943.677-1.838.921-2.559-.309l-.021.021c.599-.314 1.139-.84 1.907-.542l-.095-.086.73.916h.006zm171.227-114.17c-.154-.141-.292-.303-.461-.417-.498-.336-.736-.802-.344-1.295.413-.515.9-.249 1.313.114l.482.396-.01-.022c-.064.618-.663.808-.959 1.241l-.027-.016h.006zm-7.6 58.02l-.037-.715c.524-.087 1.107-.043 1.398-.65.424.027.969.043 1.038.526.106.764-.625.71-1.091.883l-1.308-.049v.005zm-43.63 139.05v-.878l1.261-.238.63 1.338.016-.021-1.271.58.047.081-.678-.862h-.005zM160.758 45.942c1.271-.146 2.542-.331 3.781.2v.173c-1.292.179-2.643 1.035-3.781-.374zM11.452 148.092l-.821.011c-.339-.607-.339-1.235-.101-1.875l-.08.07 1.165.038-.074-.07a2.15 2.15 0 0 1-.09 1.821v.005zm22.8-49.815c.201-.266.371-.558.604-.786.328-.32.773-.585 1.107-.092.302.444-.026.808-.429 1.046l-1.276-.168h-.005zm221.79 60.004c-.403 1.842-.721 2.07-1.965 1.393l.656-.716v.006l.641-.689.011-.01.662.016h-.005zm113.185-30.972l-2.495-.022c-.084-.363-.015-.628.408-.666.556-.033 1.197.152 1.451-.613l.662.022-.031-.032.005 1.316v-.005zM97.335 8.261h.27l.847.618c-.101 1.165-.508 1.588-1.493.645l.376-1.263zm69.386 172.917h.53l.731.639v.011l.572.965.01.086-1.255.331-.021-.022c-.074-.357-.281-.585-.635-.677l.068-1.333zm-50.325-90.867c-.397-.217-.699-.52-.45-.986.175-.336.53-.266.832-.119l.836.444.037.672c-.418 0-.836 0-1.255-.005v-.005zm87.848-51.316c-.1-.173-.301-.363-.275-.509.074-.374.387-.493.689-.282.121.087.201.428.132.553-.08.141-.355.163-.546.239zm-18.186 43.252c.032-.368.228-.602.593-.547.35.054.53.331.429.672-.047.157-.243.347-.402.385-.371.087-.562-.157-.62-.509zm198.422 72.609a.63.63 0 0 1-.625.059.59.59 0 0 1-.44-.043.28.28 0 0 1-.37.07c.354-.395.19-.856.158-1.3l1.303-.071-.016 1.279-.01.006zm-213.84-6.737c.059-.504.096-1.094.784-.986.434.071.482.564.509.97l-1.293.016zm209.211-29.541l.005-.677c.472.016.625-.298.705-.688.206 0 .413.016.62.038l.058 1.316c-.456.846-.922.098-1.388.011zm-5.492-2.655c-.143.124-.286.363-.429.363-.386 0-.55-.298-.402-.64.058-.13.376-.249.529-.206.133.038.202.315.297.488l.005-.005zm-9.231-64.171c-.095-.168-.291-.358-.265-.504.074-.363.376-.482.673-.276.116.081.19.417.122.542-.08.135-.345.163-.53.238zm-10.418 79.632l1.318-.038c-.058.521-.021 1.198-.789 1.079-.461-.071-.503-.613-.529-1.041zM146.664 9.372c-.111-.163-.328-.331-.317-.477.037-.385.333-.537.662-.352.132.076.243.417.185.558s-.344.184-.53.271zm185.442 106.285c-.111-.163-.323-.331-.307-.477.048-.374.344-.526.662-.358.127.071.222.412.164.553s-.339.19-.519.282zm-2.505-79.849c.434.033.979.071 1.032.564.09.808-.582.737-1.112.77l.074-1.339.006.005zm-190.876 1.339c.281-.661.842-.699 1.436-.656-.112 1.041-.435 1.615-1.436.656zm-1.88 160.836c.434-.005.98.022 1.059.488.133.753-.503.807-1.043.856l-.016-1.349v.005zM307.065 1.352l.032-.195-.027-.195 1.282-.173.011.011.603.818c-.037.119-.037.238 0 .363l-1.276.163-.625-.797v.005zm-12.611 25.693c-.429-.596-.868-1.192-.646-2.005h.604l.689.688-.016-.016-.059 1.322c-.19-.011-.386 0-.577.016l.005-.006zM122.286.793l1.318.022c-.026.428-.063.975-.519 1.046-.757.125-.73-.553-.799-1.068zm166.941 2.715c.419.038.969.043 1.022.537.085.77-.577.742-1.101.786l.074-1.328.005.005zM117.662 159.533l-.005 1.436-1.314-.043.038-1.139 1.286-.254h-.005zm167.546-78.647c-.572.005-1.097-.081-1.372-.677 1.086-1.078 1.229-.195 1.372.677zm-172.779 3.778v-.835l1.229-.184-.042-.043.026 1.311.026-.027-1.239-.222zM276.58 202.671c.075-.499.09-1.268.747-1.068.72.223.387.759-.095 1.095l-.652-.032v.005zm-168.033-88.856c.122-.147.223-.39.366-.428.391-.093.619.168.593.536-.027.379-.339.531-.662.407-.143-.055-.202-.336-.297-.515zm-.778 70.273c.127.146.355.293.355.439 0 .395-.297.553-.631.406-.127-.059-.243-.384-.201-.536.037-.136.313-.206.477-.304v-.005zm160.401-19.076c.09-.342.329-.504.636-.391.127.049.265.32.254.477-.032.353-.318.488-.62.385-.127-.043-.18-.309-.27-.471zm-166.974-48.715c-.17-.076-.429-.103-.503-.233-.159-.299-.048-.602.286-.683.148-.038.434.081.503.216.159.299.021.559-.291.705l.005-.005zm158.056 99.83l-1.308.044.28-1.306c.186.032.345-.022.482-.152l.647.097-.101 1.317zM98.436 72.812l.048-1.339h1.245v1.328l-1.287.016-.005-.005zm159.031 88.152c-.064.59-.09 1.192-.773 1.436l-.064-.076-.583-.688.011-.315v-.314l.704-.694.705.651zM97.685 50.652l.101 1.29c-.424.005-.996.038-1.096-.407-.169-.732.456-.818.996-.889v.005zm-2.738 69.942c-.143.13-.286.369-.429.369-.392 0-.556-.298-.408-.645.058-.136.381-.249.54-.211.132.032.201.314.297.487zM86.552 14.873c.037-.423.005-.997.487-1.057.731-.092.747.58.821 1.111l-1.308-.049v-.005zm-.911-8.752l-.906.016-.191-1.295 1.292.005-.191 1.274h-.005zM83.22 222.126c.535.071 1.25-.184 1.308.748l.011-.011-.932.607h-.138l-.636-1.181c.175.06.302 0 .387-.163zm-.094-116.294l.09 1.295c-.424 0-.996.033-1.096-.412-.164-.731.466-.813 1.001-.883h.005zm-3.894 12.746c.079-.504.074-1.284.752-1.084.726.217.403.77-.064 1.138l-.688-.048v-.006zM287.639 6.771c-.36-.07-.89.244-1.022-.32-.048-.217.259-.515.402-.775V5.59l.731.878c-.127.07-.164.168-.111.303zm-1.091 4.807c.503-.033.927.136 1.244.547l-.619.791a1.96 1.96 0 0 0-.562-.032l-.063-1.306zm-19.951 211.974l.731-.13a1.19 1.19 0 0 0 .535.184l.079.553-.783.704c-.112-.049-.228-.049-.345-.011l-.217-1.3zm-121.103-16.15l-.699.704-.668-.699.011-.011.646-.666.016-.016.667.01.027.667v.011zm-15.883-32.332c-.027-.564-.281-1.236.635-1.333l.016.011.62.742v.537l-1.287.021.016.027v-.005zm-4.671-20.811c.074-.303.079-.818.238-.872.673-.233.842.379 1.08.834l-1.318.038zM9.064 52.619c.233-.428.598-.753 1.001-.347s.09.775-.334 1.019l-.667-.672zm350.964 18.849l.667-.011.625.694c-.243.623-.762.666-1.313.656l.021-1.339zm-4.062-38.803l.021.282-.667.818c-.164-.033-.334-.038-.498-.016l-.127-1.317v-.005l1.271.244v-.005zM331.544 166.28c-.016-.472.106-.889.445-1.22l.816.781-.016.292-1.245.141v.006zm-133.411 56.963c-.085-.174-.26-.363-.233-.51.063-.357.355-.482.662-.308.095.054.143.39.074.504-.095.151-.328.216-.503.319v-.005zM83.899 107.133l.641-.732.694.054-.064 1.339c-.53-.016-1.027-.081-1.271-.661zM7.686 78.881l.169-1.311a.56.56 0 0 0 .387-.005l.8.71a2.87 2.87 0 0 0-.005.477l-1.308.163-.042-.032zm76.218 44.396c.026.222.026.444-.005.667-.418 0-.614.227-.62.644l-.281.244c-.132-.092-.281-.151-.434-.184l.053-1.181 1.282-.201.011.016-.005-.005zm107.301-98.915l.604-.011.646.715-.027-.022-.016.309.011.309h.037l-1.303.022.048-1.333v.011zM81.188 204.058c.259.423.773.71.699 1.317-.953.094-1.354-.336-1.202-1.29.169.049.339.038.503-.027zm106.702-19.011c-.18-.092-.45-.135-.514-.282-.058-.135.095-.368.159-.563.18.108.397.178.524.33.191.217.106.418-.169.515zm121.776 1.458l.736.726-.047.661h-.689l-.651-.65-.021-.022.677-.715h-.005zM17.579 68.742a1.71 1.71 0 0 0-.551.022l-.614-.943.604-.466.651.076v-.005l-.09 1.317zm158.373 28.972c.413.238.71.607.334 1.008-.381.406-.752.097-1.006-.293l.672-.715zM52.047 82.252l.101-1.344c.704.504.81.965-.101 1.344zm.779 141.956c0-.363.09-.732.53-.624.53.125.302.439.069.705-.196-.043-.397-.071-.598-.081zm325.066-109.645l1.297-.017a3.54 3.54 0 0 1 .006.667h-.705c-.201.016-.402 0-.598-.065v-.293-.292zm-5.302-2.727l-.026 1.339c-.191 0-.381 0-.572-.011l-.064-1.328h.662zm-1.356-62.572l.026 1.339h-.688l.095-1.333.572-.011-.005.005zM59.366 13.534l-1.319.092.011-.726 1.308.087a4.54 4.54 0 0 0 0 .547zm306.704 87.133l1.234-.298c.058 1.561-.757.466-1.229.423v-.125h-.005zm-2.134 49.55l-.238 1.219-.08.038-.243-1.252a4.86 4.86 0 0 1 .566 0l-.005-.005zm-9.179-.9c.487-.33.985-.721 1.271.206l-1.271-.206zm-4.659-130.97c.54-.038 1.059-.038 1.271.612-.519 0-1.023-.038-1.271-.612zm-4.746 56.513l.1 1.317h-.71l.112-1.333c.164.016.328.022.498.016zm-3.904 33.622l.011 1.338h-.667l.037-1.338h.614.005zm-7.928 68.593c.482-.721.932-.878 1.319.076l-1.319-.076zm-2.744-112.983c-.031.488-.291.759-.762.667-.313-.06-.44-.358-.435-.683l1.197.016zm-6.64 62.599l.09 1.295-.694.011.148-1.328c.148.022.302.028.456.022zm-7.84-57.245l-.111 1.29a3.07 3.07 0 0 0-.445.027l-.137-1.322h.699l-.006.005zm-2.018-6.042l.043 1.333a6.65 6.65 0 0 1-.657-.006l.064-1.322h.55v-.005zm-3.277 22.192l1.318.005v.634l-1.313.022v-.331-.331h-.005zm.667 103.64l.026.689-1.35-.017a1.59 1.59 0 0 1 .069-.65l1.26-.022h-.005zm-5.296 3.376l1.318-.016c-.429.775-.873.764-1.318.016zm-1.293-133.273l-.18 1.29a.84.84 0 0 0-.365.027l-.212-1.312.757-.005zm-7.986-25.569l1.313.022c-.45.726-.89.748-1.313-.022zM67.861 13.99l-1.192.271c.116-1.024.71-.515 1.186-.385v.114h.005zm222.675 120.744l-1.356-.066c.487-.715.937-.699 1.356.066zM281.913 11.67l1.287-.13.016.016.027.688-.043.049-1.303-.162c.022-.152.027-.309.022-.461h-.006zM70.012 226.235l-.037-1.334h.694l-.079 1.334h-.577zM275.913 64.731l-.011 1.344c-.207 0-.413 0-.62-.005l-.031-1.333h.662v-.005zm-11.249-32.272h1.297c-.434.791-.863.791-1.297 0zm-1.25 5.322l-.143-.618c-.09-.368.132-.574.376-.775.143.255.334.499.413.77.053.184-.048.412-.085.618a1.98 1.98 0 0 0-.566 0l.005.005zm-9.364 77.427v1.338h-.625l-.016-1.338h.646-.005zm-1.981 111.032l1.308.054-.011.504-1.292.119-.011-.677h.006zM74.625 193.296l-1.319-.06c.471-.753.916-.845 1.319.06zm-.444-8.2l-.185-1.231c.191-.01.387-.016.577 0l-.217 1.263-.169-.032h-.005zM249.533 27.321l.561-.26c.365-.179.673.065.673.325s-.302.498-.668.309c-.185-.098-.376-.174-.561-.26v-.114h-.005zm-.636 88.098l1.186-.211a1.63 1.63 0 0 1-.069.656c-.434.016-.816-.114-1.117-.445zm-.811-69.525l-.021 1.328c-.18 0-.365-.005-.545-.005l-.032-1.312a4.33 4.33 0 0 1 .593-.005l.005-.005zm-3.289 93.56l1.314-.022c-.424.856-.863.851-1.314.022zm-1.869.601c.137-.72.646-.742 1.207-.655-.111.78-.688.666-1.207.655zm-1.451-104.258c.435-.845.879-.824 1.324-.011l-1.324.011zm-11.869 117.216c.376-.016 1.033-.363 1.054.092.043.856-.672.26-1.054.331v-.212-.211zm-2.675-86.212l1.298-.043c-.403.932-.842.791-1.298.043zm-4.713 55.159l.053 1.328h-.667l.047-1.333.567.005zm-9.215-73.378l1.319.006v.639l-1.324.038v-.683h.005zm-2.225 99.722l.218 1.219a17.87 17.87 0 0 1-.567-.011l.201-1.257.148.049zm-3.087 46.997l.015 1.338h-.667l.016-1.344h.636v.006zm-2.643 1.316l1.229.06c-.44.721-.858.856-1.229-.06zm-3.966 1.393c.365-.97.82-.742 1.313-.108l-1.313.108zm-.033-47.121c.047.406.09 1.013-.355.991-.366-.016-.339-.661-.292-1.073a3.7 3.7 0 0 0 .647.087v-.005zm-2.617 4.693c.403-.813.847-.721 1.308-.054l-1.308.054zm1.33 34.998l-.016 1.339c-.196 0-.392 0-.588-.011l-.085-1.333h.689v.005zm-3.209-169.296l1.202-.271-.011-.016.027.331v.336c-.482.136-.858-.125-1.25-.325l.032-.054zm-8.077 4.374l-1.324.049c.418-.737.858-.77 1.324-.049zm-.091 164.966c-.429.78-.837.813-1.207-.044l1.207.044zM187.17 6.18c-.217.016-.429.016-.646 0l.053-1.333.662.672-.074.656.005.005zm-3.856 105.288c.477-.146 1.08-.732 1.192.363l.015-.016-1.234-.298.027-.049zm.487-93.815l.053 1.312c-.212.027-.429.027-.641 0l.095-1.322h.493v.011zm-1.171 125.22l1.234-.059.016.71c-.603.162-1.122.151-1.25-.645v-.006zm1.229 74.631l-.01 1.333h-.609l-.048-1.344.662.006.005.005zM183.123 71.5l.095 1.312h-.672l.116-1.317a2.66 2.66 0 0 0 .466.005h-.005zm-5.868-22.951c.451-.71.89-.748 1.314.022l-1.314-.022zm1.318 85.502l-1.366-.082c.021-.173.021-.341 0-.514l1.366-.082v.678zm-2.653-96.915l1.308.049v.553l-1.308.087v-.688zm.005 154.799l1.314.011v.596l-1.303.027v-.314-.315l-.011-.005zm-4.66-133.924l-.101 1.284a2.83 2.83 0 0 0-.477.038l-.137-1.339.715.016zm-84.723 8.753l-1.255-.141c.482-.526.927-.726 1.255.141zm69.58 42.526l1.266-.147v.006l.006.677v.006l-1.293-.168.027-.185v-.189h-.006zm-.735-53.978l.01 1.339h-.64l.021-1.333h.614l-.005-.005zm-66.87 43.074l.095-1.311a1.88 1.88 0 0 0 .456-.005l.143 1.322-.021.016c-.223 0-.45-.011-.673-.016v-.005zm60.927-70.691c.456-.721.895-.764 1.319.027l-1.319-.027zm-60.222-5.381l-.058-1.333c.837.406.768.856.058 1.333zm.248-6.168c-.058-.309-.201-.634-.148-.921.064-.32.387-.314.434.011.042.287-.122.607-.191.91h-.09-.005zm54.737 26.49l1.271-.135.01.016-.026.677c-.514.033-.98-.043-1.25-.558h-.005zm.566-4.14l-.015 1.317h-.546l-.037-1.322a4.42 4.42 0 0 1 .598 0v.005zm.048 139.289l-.09 1.257c-.561-.238-.667-.715-.635-1.262l.725.005zM139.43 34.48c.058.406.127 1.057-.265 1.051-.402-.005-.312-.645-.243-1.051h.513-.005zm-4.508 33.704l1.287-.13c-.349.878-.794.769-1.287.13zm-1.382 112.289l1.303.06c-.466.688-.901.731-1.303-.06zm-3.945-96.318c.497-.58.974-.883 1.308.141l-1.308-.141zm-2.231 52.014c.202.515.604 1.106-.407 1.198l.021.027.227-1.246.154.021h.005zm-8.611-2.693l.175.613c.132.406-.058.563-.418.498-.27-.048-.297-.26-.17-.509.096-.184.133-.401.196-.607h.212l.005.005z"/><path d="M117.646 90.316l.027.683-.689.173-.593-.862 1.255.005zm-21.191 80.039l1.303.103c-.487.661-.937.846-1.303-.103zm.033 39.8l1.292-.032a4.26 4.26 0 0 1 0 .639h-1.303v-.303-.304h.011zm-3.242-96.758l1.223-.2c-.095 1.029-.725.52-1.213.433l-.011-.227v-.006zm-76.9-18.382l-1.282-.087-.016-.477 1.298-.119.011.011-.016.677.005-.005zm5.916-12.123c-.652-.471-.747-.921.058-1.333l-.058 1.333zm2.7 16.859l-1.266-.168v-.195l-.026-.19 1.292-.179v.732zm1.229 24.024l-1.229.168.011-.585 1.25.152-.032.265zm.721-57.038c-.699-.461-.726-.905.032-1.333l-.032 1.333zm.666 67.325c-.053.986-.704.72-1.271.628l.016.022a2.41 2.41 0 0 1 .074-.618l1.181-.032zm3.284-123.958l-1.287.157.011-.726 1.287.152a1.34 1.34 0 0 0-.016.412l.005.005zm9.957 142.746l-1.202-.179-.037-.233 1.271-.243.011.016a5.41 5.41 0 0 1-.058.656l.016-.022v.005zm.609-134.725l-1.234.157v-.314-.314l1.282.119a.56.56 0 0 0-.048.347v.006zm4.666 3.452l-1.282.114c.355-.872.8-.748 1.282-.114zm.679 70.089c-.058.97-.667.813-1.282.645.185-.71.747-.656 1.282-.645zm345.614 19.526c-.063.162-.1.448-.19.469-.371.087-.392-.205-.387-.48.191-.006.387 0 .577.011zm-7.875 60.539c-.006.456-.233.689-.683.694.052-.406.28-.639.683-.694zm-4.639-31.627c-.016-.293 0-.596.392-.51.095.022.137.32.201.494l-.593.016zm-4.651 49.788c-.45.022-.672-.19-.651-.65a.64.64 0 0 1 .651.65zm-2.039-129.176c.053.206.069.417.042.629-.413-.011-.641-.211-.625-.65.196-.005.392 0 .583.016v.005zm-11.815 111.677c.016-.266 0-.591.387-.499.095.022.127.325.185.499-.191.016-.381.016-.572 0zm-3.332-10.758c.037.499-.201.721-.683.689a.68.68 0 0 1 .683-.689zm-.683-98.248c-.365-.076-.577-.298-.651-.667.354.081.572.309.651.667zm-.005 20.865c.01.309.011.65-.418.558-.101-.022-.138-.358-.202-.547l.62-.011zm-7.976 56.54c-.064.185-.096.504-.191.526-.408.092-.408-.238-.413-.531a5.53 5.53 0 0 1 .604 0v.005zm-25.125-43.078h.656v.672c-.206 0-.408 0-.614-.011a2.95 2.95 0 0 1-.021-.65h-.027l.006-.011zm-12.606 92.872v-.71c.476-.016.683.222.651.693l-.646.022-.005-.005zm-.651-107.667c.01.217 0 .428-.032.639l-.588.005c.048-.374.26-.585.625-.65l-.005.005zm-4.656-49.132c-.063.19-.095.52-.19.542-.424.098-.413-.249-.419-.542.202-.011.403-.011.609 0zm-5.29 41.723c-.064.363-.27.574-.63.639a.79.79 0 0 1 .63-.639zm-8.543-73.38c.005-.259.021-.551.381-.464.09.022.127.302.185.459a3.89 3.89 0 0 1-.561.005h-.005zm-9.316 14.13c-.418-.011-.651-.217-.662-.656a.7.7 0 0 1 .662.656zm-2.638 159.514l.276-.525.307.498-.583.027zm-9.236-115.093c0-.254.026-.529.365-.453.09.022.127.286.191.437-.186.016-.371.022-.556.011v.005zm-.037 57.892h.662v.672c-.212 0-.418 0-.625-.005-.037-.223-.042-.439-.032-.662l-.005-.005zm-.6 51.119c.064-.162.101-.443.196-.464.366-.081.398.2.382.48-.196 0-.387 0-.583-.016h.005zm-7.34-65.909c.456-.027.683.19.662.661-.222 0-.434-.021-.641-.086a5.35 5.35 0 0 1-.016-.58l-.005.005zm-.677 63.245c-.064.379-.281.607-.657.672.09-.358.302-.585.657-.672zm-3.978-21.532c-.01.428-.227.645-.646.661 0-.216.021-.433.074-.65l.578-.016-.006.005zm-1.997 38.96c-.154-.059-.429-.092-.445-.179-.079-.357.212-.346.45-.363.016.185.016.363 0 .548l-.005-.006zm-1.975-149.331l-.328.737a.64.64 0 0 1-.302-.732h.63v-.005zm-3.951 153.455c.429 0 .683.19.662.662l-.604-.028c-.068-.211-.084-.422-.042-.644l-.016.01zm-2.034-84.13c0 .27-.042.54-.386.448-.096-.022-.128-.292-.191-.443.191-.016.381-.016.572 0l.005-.005zm-3.342 36.353c-.064.162-.101.448-.196.47-.371.081-.371-.221-.376-.486l.567.016h.005zm-1.282-53.852c-.063.184-.1.515-.201.537-.419.097-.429-.239-.429-.542l.63.005zm-2.659 69.991c0 .282 0 .607-.397.515-.095-.022-.127-.336-.185-.515.196-.016.386-.016.582 0zm-16.46 46.406c.058-.168.09-.466.18-.488.381-.086.37.228.381.488-.185.016-.376.016-.561 0zM218.29 56.667c.01.217 0 .428-.048.639-.185.016-.376.016-.561 0 .026-.385.227-.602.603-.645l.006.005zm-5.963 40.326c-.265-.011-.588.005-.503-.396.021-.092.323-.125.498-.184a3.74 3.74 0 0 1 0 .58h.005zm-1.976 118.484c-.418-.016-.641-.239-.657-.667.376.06.599.282.657.667zm-2.653 2.032a2.4 2.4 0 0 1-.042.645l-.615.022c.011-.439.244-.645.662-.667h-.005zm-6.62-205.942c-.059.374-.281.58-.641.645v.016a3.89 3.89 0 0 1 .026-.656l.615-.005zm-3.994 96.921c-.016.27 0 .596-.392.509-.095-.022-.127-.325-.191-.504l.583-.011v.006zm-6.631 18.848a3.32 3.32 0 0 1 .027.645c-.355-.071-.577-.276-.63-.65l.603.005zm-5.921-63.949h.662v.672h-.662v-.336-.336zm-26.545-29.59c-.005.32-.074.623-.471.493-.101-.032-.117-.347-.17-.531l.641.032v.005zm-4.559.022c.631.217.562.423-.01.623l.01-.623zm.021 96.85c-.037.439-.281.645-.699.677.079-.39.323-.601.699-.677zm-1.96 22.198c.01-.298.074-.596.455-.472.101.033.117.331.17.51l-.625-.033v-.005zM140.822 17.631a2.4 2.4 0 0 1-.042.645c-.202.016-.403.022-.599.016-.021-.455.196-.672.646-.661h-.005zm-5.963.672l-.286.475-.302-.459.588-.016zm-1.356-12.778a2.37 2.37 0 0 1 .031.645c-.37-.054-.582-.26-.609-.645a5.14 5.14 0 0 1 .578 0zM18.999 64.747a.75.75 0 0 1 .651.661c-.344-.087-.567-.304-.651-.661zm.646-50.486c-.016.434-.217.688-.662.704.064-.385.27-.634.662-.704zm28.526 158.807l.313-.496.297.507c-.201 0-.408 0-.609-.011zm-24.596-66.591c-.058.168-.09.46-.18.482-.376.087-.376-.222-.381-.488a3.97 3.97 0 0 1 .567 0l-.005.006zm5.307 65.276c-.058.162-.085.432-.18.459-.344.103-.371-.194-.418-.443a3.15 3.15 0 0 1 .598-.021v.005zm.756 1.984c.063-.174.101-.472.196-.493.387-.087.381.238.397.509-.196 0-.397 0-.593-.011v-.005zm44.981-82.088c-.079.363-.297.58-.657.65.079-.358.307-.569.657-.65zM32.907 14.932c-.011.45-.222.694-.678.705.058-.401.275-.645.678-.705zm61.589 73.347c.064-.368.281-.585.641-.661v-.005l-.032.661h-.609v.005zM81.287 68.747l-.048-.32v-.325a.61.61 0 0 1 .641.661c-.196 0-.397 0-.593-.016zM35.507 6.196l-.365.672-.297-.699.662.027zm62.956 220.716l-.011-.325.048-.32a5.63 5.63 0 0 1 .609-.016c.021.46-.217.661-.646.661zm1.283-44.396c0 .282 0 .602-.392.51-.095-.022-.127-.331-.185-.504a3.97 3.97 0 0 1 .577-.006zm-82.087-2.027c0 .445-.201.683-.651.683.048-.401.259-.634.651-.683zm90.078-17.466c.254 0 .535.021.455.379-.021.092-.291.13-.445.195l-.015-.287v-.287h.005zM38.912 10.202a2.18 2.18 0 0 1-.048-.645c.402.027.614.244.63.656-.196.005-.387 0-.582-.011zM113.706.793c-.059.184-.08.493-.18.526-.398.119-.467-.179-.461-.499l.641-.022V.793zm3.251 168.939l-.291.459-.292-.459c.196-.011.387-.011.583 0zm-22.466 43.052c.069-.667.392-.938 1.028-.629.254.125.27.309.122.482-.344.418-.768.12-1.155.136v.005l.005.006zM302.426 93.655l.249-.526.265.287-.524.222.016.016h-.006zm-1.986-62.513c.556.103 1.329-.19 1.419.775.037.379-.238.58-.551.602-.471.032-1.112.32-1.313-.325-.09-.276.302-.71.471-1.068l-.026.016zM155.99 19.035l-.069 1.149c-.487.043-1.191.396-1.265-.407-.096-1.024.709-.813 1.334-.742zm41.174 189.023c.1.325.053.596-.281.731-.058.022-.244-.097-.254-.162-.048-.369.174-.526.498-.586l.037.017zm13.092-46.992c-.016.157-.016.315-.005.472-.816.049-1.637.417-2.696-.022.932-1.003 1.848-.52 2.701-.45zM239.904 2.054l-.413-.248c.069-.07.159-.211.212-.194.148.038.28.135.418.211l-.212.232h-.005zm-24.252 169.683l.265-.542.296.309-.566.233h.005zm103.87-159.59a1.21 1.21 0 0 0-.556.065c-.254-.385-.969-.553-.641-1.192.09-.173.588-.276.821-.19.641.238.424.824.382 1.317h-.006zm61.028 108.425l.281-.297c-.016.059-.011.145-.053.178-.063.054-.159.075-.238.108l.01.011zM195.771 80.854c-.413.011-.884.206-1.128-.314-.037-.076.185-.379.328-.412.572-.13.726.266.789.743l.016-.016h-.005zm-2.617.688l-.011-.32.011-.32a.73.73 0 0 1 .641.65 4.14 4.14 0 0 1-.636 0l-.005-.011zm-1.98-24.192a2.45 2.45 0 0 1 .63-.005c-.005.282-.053.574-.418.477-.101-.027-.143-.309-.212-.471zm98.631 4.666c.334-.054.599.032.684.396a.34.34 0 0 1-.181.244c-.354-.038-.476-.304-.508-.629v-.016l.005.005zm93.378 41.096l.323.313c-.069-.016-.164-.011-.201-.054-.059-.07-.08-.178-.117-.27l-.011.011h.006zM83.226 67.425c-.291-.022-.524-.135-.546-.471 0-.06.159-.19.212-.173.313.092.381.341.334.645zm-4.586 51.868l1.282-.054c0 .396 0 .802-.551.792-.456-.011-.673-.304-.731-.732v-.006zm147.626-1.371l1.335.629c-.143.466-.451.813-.938.699-.81-.184-.418-.834-.402-1.333l.005.005zM27.722 86.712l.228-.428c.069.07.212.157.201.217-.032.152-.127.293-.196.439l-.228-.228h-.005zm77.06 6.838l-.196-.108.217-.292.191.211-.212.194v-.005zm-54.578 94.082l.228-.412c.069.071.201.163.191.217-.037.152-.132.287-.201.428l-.217-.233zm56.945-107.705l.233-.39c.063.07.196.157.185.211-.037.146-.132.271-.206.406l-.212-.228zM127.587 9.87c-.138.065-.275.151-.418.184-.053.011-.128-.13-.196-.2.137-.065.275-.151.418-.184.053-.011.127.13.196.2zM45.311 1.297l-1.017.033c-.037-.58-.418-1.447.641-1.333.731.076.418.807.376 1.306v-.005zm-.657 183.468c0 .07.021.156-.016.2-.127.172-.276.129-.376-.125-.011-.032.117-.151.201-.183.048-.016.127.065.191.102v.006zM4.55 182.256l.233-.423c.069.071.207.158.196.212-.032.152-.127.287-.196.428l-.228-.222-.005.005zm225.392-80.615l-.233-.119.244-.329.233.226-.244.216v.006zm-7.6 34.138l.122-.216.323.237c-.079.07-.159.2-.233.195s-.143-.141-.212-.216zm51.6-126.255l.053-1.246c.493-.027 1.171-.309 1.24.488.09 1.013-.646.878-1.293.759zM98.394 131.417l-.048 1.181c-.477.006-1.155.287-1.229-.488-.095-1.056.694-.753 1.276-.693zm-21.168 28.229l-.228.475-.249-.264.492-.195-.016-.016zM316.292 57.321l-.678.016c.206-.637.434-.659.678-.016z"/><path d="M314.994 57.979l-.016-.32v-.32l.673-.027c-.058.39-.281.602-.657.661v.005zM14.396 78.844l.228-.52.275.282-.519.222.016.016zm89.343 127.863l-.329-.324c.069.016.17.011.207.06.058.075.074.183.111.28l.011-.01v-.006zm-2.638-68.619c-.011.445-.255.64-.668.678-.021-.472.239-.662.668-.678zM86.504 101.09l-.275.531c-.434-.477.021-.444.291-.515l-.016-.016zm78.829-19.526l.567.239-.307.303-.26-.542zM50.093 22.29l-.53-.2.265-.286.244.508.016-.022h.005zm199.852 65.457c-.053.13-.058.26-.01.396-.477-.016-1.208.52-1.208-.558l1.224.168-.006-.005zm-144.226 26.122l-.281.515c-.471-.504.058-.418.286-.51l-.01-.01.005.005zm-60.886 80.088l1.282.016c-.063.395-.138.796-.651.796-.519 0-.567-.422-.63-.807v-.005zM185.852 27.045c-.35-.076-.572-.287-.641-.65.36.07.577.282.641.65zm139.041 80.115l-.635-.71c.021-.494.026-.992.577-1.225l.741.558c.048.602.466 1.387-.683 1.377zm-41.671-35.064l-.037-.309.016-.309c.265.011.567.022.487.401-.021.103-.302.146-.466.217zm83.919 54.525c.01-.222.058-.439.137-.651l1.314.038c-.254.765-.895.58-1.451.613zM71.288 165.7c.016.206.011.412-.016.612-.159-.07-.424-.113-.45-.216-.079-.364.201-.391.466-.396zm308.548-49.198c.143.158.323.228.535.212-.032.206.032.374.191.498-.08.396-.234.71-.705.689l-.026-1.404.005.005z"/><path d="M379.887 115.858l.011.726c-.572.092-.821-.146-.736-.737l.725.011z"/><path d="M378.517 115.896l-.027-.688h.705l.032.693c-.239 0-.477-.005-.71-.005zm4.893 38.976a.62.62 0 0 0 .44.043c.032.304-.101.656-.355.613-.27-.049-.27-.401-.085-.656zM117.62 90.945l.71.022-.355.694-.355-.715zm180.791 7.446a4.41 4.41 0 0 1 0 .65c-.572-.217-.577-.433 0-.65zm-122.432 35.605l-.032-.287.016-.287 1.245.038a1.89 1.89 0 0 1 0 .515l-1.229.021zm184-81.399c-.455.032-.857-.054-1.101-.499.471-.07 1.096-.493 1.101.499zm-76.768 135.984c-.556.059-1.165.227-1.281-.634.551-.044 1.276-.456 1.281.634zM265.956.105c-.588.098-.874-.428-1.303-.65.085-.477-.063-1.062.593-1.252.477.542.991 1.068.705 1.902h.005zM7.083 78.87c-.54-.011-1.065-.043-1.308-.661.551-.011 1.086 0 1.308.661zm162.885 17.483v-.325-.325c.217-.016.429-.016.646-.005a.78.78 0 0 1-.651.661l.005-.005zm-41.014 6.699l-.032-.303.011-.309c.423 0 .656.2.64.65a2.63 2.63 0 0 1-.619-.038zm250.257 66.658c.026-.417.254-.623.646-.661-.021.418-.254.624-.646.661zM107 131.964l-1.128-.081-.042-1.778 1.192-.054c.27.64.264 1.279-.022 1.913zm-54.916 18.93l.026 1.339-1.297-.049.037-1.236 1.234-.054zM192.445 26.405a1.7 1.7 0 0 1 0 .612l-1.096-.173v-.287l1.091-.152h.005zm53.666 108.99v-.336-.336h.662v.672h-.662z"/></g><g fill="#ab750f"><path d="M12.595 199.127H11v-.532h1.595V197h.532v1.595h1.595v.532h-1.595v1.595h-.532v-1.595zm0 8.331H11v-.532h1.595v-1.595h.532v1.595h1.595v.532h-1.595v1.595h-.532v-1.595zm0 8.331H11v-.532h1.595v-1.595h.532v1.595h1.595v.532h-1.595v1.596h-.532v-1.596z"/></g><g opacity=".1"><path d="M3.121-16L-193 245.573h98.09L101.27-16H3.121z" fill="url(#D)"/><path d="M123.008-16l-196.12 261.573h45.775L168.843-16h-45.835z" fill="url(#D)"/></g><g opacity=".3"><path d="M382.092 256.573L479.242 127h-48.589l-97.18 129.573h48.619z" fill="url(#E)"/><path d="M322.705 256.573L419.855 127H397.18L300 256.573h22.705z" fill="url(#E)"/></g><g fill="#ab750f"><path d="M374.769 82.692H372v-.923h2.769V79h.923v2.769h2.77v.923h-2.77v2.769h-.923v-2.769zm0 14.462H372v-.923h2.769v-2.769h.923v2.769h2.77v.923h-2.77v2.769h-.923v-2.769zm0 14.461H372v-.923h2.769v-2.769h.923v2.769h2.77v.923h-2.77v2.77h-.923v-2.77z"/></g><g opacity=".35" fill="#ab750f"><path d="M309.238 81.539c-.529-.525-1.414-.286-2.081-.528-.964-.352-.959-.536.122-1.257l.053-.012c.227.262.572.337.969.337.058.129.18.18.365.149.202.29.562.391.959.446l-.026-.016-.265.897-.096-.012v-.004zm-58.549-3.852l-.667.141-1.282.016-.736-.106c-.18-.333-.233-.666-.026-1.002l2.076-.082a1.36 1.36 0 0 0 .641.043c.121.117.28.153.471.11l.238.458-.72.423h.005zm-9.257-41.767c.821-.2 1.366.235 2.002.47v.008l-.016.489-.641.067-.72.074-.615.348-.593-.016a3.84 3.84 0 0 0-.185-.454l-.164-.517c.116-.078.233-.074.338.012a.68.68 0 0 0 .588-.478l.006-.004zm30.431 115.715c.286.661.116 1.096-.985 1.045l-1.611-.11.016.012c-.106-.478.594-.583.795-.92.201.078.371.051.503-.086l1.303.07-.021-.011zm-84.067-34.514c.45-.638.911-.509 1.372-.012.064.259.302.396.625.474-.021.317.016.752-.461.811-.757.097-.768-.427-.895-.803-.069-.262-.312-.395-.635-.47h-.006zm-64.301-3.19h.031c-.942.489-1.837.665-2.558-.224l-.021.016c.599-.227 1.139-.607 1.907-.391l-.096-.063.731.662h.006zm171.227-82.474c-.154-.102-.292-.219-.461-.302-.498-.243-.736-.579-.345-.936.414-.372.901-.18 1.314.082l.482.286-.011-.016c-.063.446-.662.583-.958.896l-.027-.012h.006zm-7.6 41.912l-.037-.517c.524-.063 1.107-.031 1.398-.47.424.02.969.031 1.038.38.106.552-.625.513-1.091.638l-1.308-.035v.004zm-43.63 100.447v-.634l1.26-.172.631.967.015-.016-1.271.419.048.059-.678-.623h-.005zM275.703 6.218l-.201-.012c-.44-.435-.398-.9-.175-1.378l-.074.059a3.73 3.73 0 0 1 1.891.012l-.106-.059c-.011.685-.599 1.069-1.335 1.374v.004zM163.37 47.136c1.271-.106 2.543-.239 3.782.145v.125c-1.292.129-2.643.748-3.782-.27zM14.065 120.927l-.821.007c-.339-.438-.339-.892-.101-1.354l-.079.051 1.165.027-.074-.051a1.17 1.17 0 0 1-.09 1.316v.004zm22.8-35.986c.201-.192.371-.403.604-.568.328-.231.773-.423 1.107-.067.302.321-.026.583-.429.755l-1.276-.121h-.005zm221.789 43.346c-.402 1.331-.72 1.495-1.965 1.006l.657-.517v.004l.641-.497.011-.008.662.012h-.006zm-107.989 81.358l-1.753-.254.021.027.614-.877.89.027a1.02 1.02 0 0 0 .307.388l-.079.693v-.004zM371.84 105.913l-2.495-.015c-.085-.263-.016-.455.408-.482.556-.023 1.197.11 1.451-.442l.662.015-.032-.023.006.951v-.004zm-270.08 82.639c-.138.622-.848.423-1.356.513l-.699.121-.095-.149.164-.113a.31.31 0 0 1-.021-.317c.138-.552.73-.47 1.255-.482.169.223.365.415.757.423l-.005.004zM99.948 19.916h.27l.847.446c-.1.842-.508 1.147-1.493.466l.376-.912zm63.421 181.621v-.156l1.24-.259c.122.102.27.145.455.133l.329.936-1.362-.023-.656-.631h-.006zm5.965-56.71h.529l.731.462v.007l.572.697.011.063-1.255.239-.022-.016c-.074-.258-.28-.423-.635-.489l.069-.963zm-50.325-65.64c-.397-.157-.699-.376-.45-.712.175-.243.53-.192.832-.086l.837.321.037.485c-.419 0-.837 0-1.256-.004v-.004zm87.849-37.07c-.101-.125-.302-.262-.276-.368.074-.27.387-.356.689-.204.122.063.201.309.132.399-.079.102-.355.117-.545.172zm-18.187 31.244c.032-.266.228-.434.593-.395.35.039.53.239.429.486-.048.114-.244.251-.403.278-.37.063-.561-.114-.619-.368zm198.422 52.451c-.196.094-.408.11-.625.043a.79.79 0 0 1-.44-.031c-.106.086-.233.102-.371.051.355-.286.191-.619.159-.94l1.303-.05-.016.923-.01.004zm-213.84-4.866c.058-.364.095-.791.783-.712.435.051.482.407.509.701l-1.292.011zm209.211-21.34l.005-.489c.472.012.625-.215.705-.497l.619.027.059.951c-.456.61-.922.07-1.388.008zm-5.492-1.918c-.143.09-.286.262-.429.262-.387 0-.551-.215-.403-.462.058-.094.376-.18.53-.149.132.027.201.227.296.352l.006-.004zm-9.231-46.356c-.096-.121-.292-.258-.265-.364.074-.262.376-.348.673-.2.116.059.19.301.121.392-.079.098-.344.117-.529.172zm-10.418 57.525l1.319-.027c-.059.375-.022.865-.79.779-.46-.051-.503-.443-.529-.752zM149.277 20.718c-.111-.117-.328-.239-.318-.344.038-.278.334-.388.662-.255.133.055.244.302.186.403s-.344.133-.53.196zm185.442 76.778c-.111-.117-.323-.239-.307-.344.048-.27.344-.38.662-.258.127.051.223.298.164.399s-.339.137-.519.204zm-2.505-57.681c.434.023.98.051 1.033.407.09.583-.583.532-1.112.556l.074-.967.005.004zm-2.273 155.932c-.063.106-.095.294-.222.345-.286.117-.577.031-.662-.204-.037-.102.079-.309.206-.356.276-.102.551-.047.678.215zM141.338 40.782c.281-.478.842-.505 1.435-.474-.111.752-.434 1.167-1.435.474zm-1.88 116.185c.434-.004.98.015 1.059.352.132.544-.503.583-1.043.618l-.016-.974v.004zm170.22-142.043l.032-.141-.027-.141 1.282-.125.01.008.604.591c-.037.086-.037.172 0 .262l-1.276.117-.625-.575v.004zm-5.232 213.035c-.567.043-1.086.007-1.393-.419l.757-.54 1.139-.012a1.37 1.37 0 0 1 .09.477l-.016.016-.572.478h-.005zm-7.379-194.475c-.429-.431-.868-.861-.646-1.448h.604l.688.497-.016-.012-.058.955a5.56 5.56 0 0 0-.577.012l.005-.004zM124.898 14.521l1.319.016c-.027.309-.064.705-.519.756-.758.09-.731-.399-.8-.771zm166.942 1.961c.418.027.969.031 1.022.388.084.556-.578.536-1.102.568l.074-.959.006.004zM120.275 129.191l-.005 1.037-1.314-.031.037-.822 1.287-.184h-.005zM287.82 72.379c-.572.004-1.096-.059-1.371-.489 1.085-.779 1.228-.141 1.371.489zm-172.778 2.728v-.603l1.229-.133-.043-.031.027.947.026-.019-1.239-.16zm164.151 85.246c.074-.36.09-.916.747-.771.72.16.387.548-.095.791l-.652-.024v.004zM111.16 96.165c.122-.106.223-.282.366-.309.392-.067.619.121.593.388-.026.274-.339.384-.662.294-.143-.039-.201-.243-.297-.372zm-.779 50.764c.128.106.355.211.355.317 0 .286-.296.399-.63.294-.127-.043-.244-.278-.201-.388.037-.098.312-.149.476-.219v-.004zm160.402-13.78c.09-.247.328-.364.635-.282a.42.42 0 0 1 .254.344c-.032.255-.317.353-.619.278-.127-.031-.18-.223-.27-.34zM103.809 97.958c-.17-.055-.429-.074-.503-.168-.159-.215-.048-.435.286-.493.148-.027.434.059.503.157.159.215.021.403-.292.509l.006-.004zm158.055 72.116l-1.308.031.281-.944a.67.67 0 0 0 .482-.109l.646.07-.101.952zM101.05 66.546l.047-.967h1.245v.959l-1.287.012-.005-.004zm159.03 63.678c-.064.427-.09.862-.774 1.038l-.063-.055-.583-.497.011-.227v-.227l.704-.501.705.469zM100.297 50.538l.101.932c-.424.004-.996.027-1.096-.294-.169-.529.456-.591.995-.642v.004zm-2.737 50.525c-.143.094-.286.266-.429.266-.392 0-.556-.215-.408-.466.058-.098.381-.18.54-.153.132.024.201.227.297.353zm-8.395-76.371c.037-.305.005-.72.487-.763.731-.067.747.419.821.802l-1.308-.035v-.004zm-.911-6.323l-.906.012-.191-.936 1.292.004-.191.92h-.005zm-2.421 156.038c.535.051 1.25-.133 1.308.541l.011-.008-.932.438h-.138l-.635-.853c.175.043.302 0 .387-.118zm-.094-84.009l.09.936c-.424 0-.996.023-1.096-.297-.164-.529.466-.587 1.001-.638h.005zm-3.894 9.208c.079-.364.074-.928.752-.783.726.157.403.556-.063.822l-.689-.035v-.004zM54.009 215.232l-.683.497a.77.77 0 0 1-.863-.008c-.498-.36.09-.56.318-.752.339-.285.8-.09 1.213-.043-.042.102-.037.208.016.309v-.003zm237.774 8.863l1.292-.024c.026.376-.08.709-.54.932l-.768-.486.021-.211v-.211h-.005zm-1.531-205.256c-.361-.051-.89.176-1.023-.231-.047-.157.26-.372.403-.56v-.063l.731.634c-.127.051-.164.121-.111.219zm-1.091 3.472c.503-.023.927.098 1.244.395l-.619.572a2.7 2.7 0 0 0-.562-.024l-.063-.944zM160.674 10.669c.376-.008.874-.07.895.309.016.321-.397.462-.832.482l-.063-.791zM269.21 175.437l.731-.094a1.53 1.53 0 0 0 .535.133l.079.399-.784.509c-.111-.035-.227-.035-.344-.008l-.217-.939zm-121.104-11.666l-.699.509-.667-.505.011-.008.646-.482.016-.012.667.008.026.482v.008zm97.955 46.183c.503.196.874.49.323.826-.339.204-.731-.043-.959-.317l.636-.513v.004zm-113.838-69.539c-.026-.407-.281-.893.636-.963l.015.007.62.537v.387l-1.287.016.016.02v-.004zm-.752-132.08c.169.243.715.407.36.756-.08.082-.451.098-.594.035-.476-.219-.206-.54-.127-.826a.35.35 0 0 0 .361.035zm-1.964 197.732c.561-.055 1.011.066 1.329.423l-.689.544a3.08 3.08 0 0 0-.508-.008l-.132-.955v-.004zm-1.955-80.685c.074-.22.08-.592.239-.631.672-.168.842.274 1.08.603l-1.319.028zM11.677 51.959c.233-.309.598-.544 1.001-.251s.09.56-.334.736l-.667-.485zM122.404 9.044c.508-.513 1.117-.364 1.742-.145l.027.047c-.572.372-1.186.329-1.811.078l.047.02h-.005zm240.237 56.531l.667-.008.625.501c-.244.45-.763.481-1.313.474l.021-.967zm-4.062-28.031l.021.204-.667.591a2.12 2.12 0 0 0-.498-.012l-.127-.951v-.004l1.271.176v-.004zm-24.422 96.521c-.016-.341.106-.642.445-.881l.815.564-.015.211-1.245.102v.004zm-133.411 41.149c-.085-.125-.26-.262-.233-.368.063-.258.354-.349.662-.223.095.039.143.282.074.364-.096.109-.329.156-.503.231v-.004zM86.512 91.338l.641-.528.694.039-.064.967c-.53-.012-1.027-.059-1.271-.478zM10.299 70.93l.169-.947a.76.76 0 0 0 .387-.004l.8.513a1.5 1.5 0 0 0-.005.344l-1.308.117-.042-.023zm76.218 32.071c.026.16.026.321-.005.481-.418 0-.614.164-.62.466l-.281.176a1.46 1.46 0 0 0-.434-.133l.053-.853 1.282-.145.011.011-.005-.003zm107.3-71.454l.604-.008.646.517-.027-.016-.015.223.01.223h.037l-1.303.016.048-.963v.008zM83.801 161.355c.26.306.773.513.699.952-.953.067-1.354-.243-1.202-.932.169.035.339.027.503-.02zm106.702-13.733c-.18-.067-.451-.098-.514-.204-.058-.098.095-.266.159-.407.18.079.397.129.524.239.191.157.106.301-.169.372zm121.776 1.053l.736.525-.048.477h-.688l-.651-.47-.022-.015.678-.517h-.005zM310.944 9.67l-.726.936a.57.57 0 0 0-.402-.008l-.186-.936 1.319.023-.01-.012.005-.004zM184.519 200.723c.434.239.858.544.212.849-.371.177-.747-.078-.901-.391l.689-.458zM20.192 63.605a2.31 2.31 0 0 0-.551.016l-.614-.681.604-.337.651.055v-.004l-.09.951zm158.373 20.929c.413.172.71.438.334.728-.382.294-.752.071-1.007-.211l.673-.517zM54.66 73.365l.101-.971c.704.364.81.697-.101.971zm.779 102.546c0-.263.09-.529.53-.451.53.09.302.318.069.509a4.94 4.94 0 0 0-.598-.058zm325.065-79.205l1.298-.012a1.85 1.85 0 0 1 .005.481h-.705c-.201.012-.402 0-.598-.047v-.211-.211zm-5.301-1.97l-.026.967c-.191 0-.382 0-.572-.008l-.064-.959h.662zm-1.356-45.201l.026.967h-.688l.095-.963.572-.008-.005.004zM61.979 23.725l-1.319.067.011-.525 1.308.063a2.46 2.46 0 0 0 0 .395zm306.704 62.943l1.234-.215c.058 1.127-.757.337-1.229.305v-.09h-.005zm-2.134 35.793l-.238.881-.08.027-.243-.904h.566l-.005-.004zm-9.178-.65c.487-.238.985-.52 1.271.149l-1.271-.149zm-4.661-94.61c.541-.027 1.06-.027 1.271.442-.519 0-1.022-.027-1.271-.442zm-4.745 40.824l.1.951h-.709l.111-.963.498.012zm-3.903 24.288l.01.967h-.667l.037-.967h.614.006zm-7.929 49.55c.482-.52.932-.634 1.319.055l-1.319-.055zm-2.744-81.617c-.032.352-.291.548-.762.481a.46.46 0 0 1-.435-.493l1.197.012zm-5.794 168.652c.122-.427.419-.693.964-.337.201.134-.122.349-.381.439a2.22 2.22 0 0 0-.583-.102zm-.847-123.431l.09.935-.694.008.148-.959c.149.016.302.02.456.016zm-7.839-41.353l-.111.932-.445.02-.138-.955h.7l-.006.004zm-2.018-4.365l.043.963a9.24 9.24 0 0 1-.657-.004l.063-.955h.551v-.004zm-3.278 16.032l1.319.004v.458l-1.313.016v-.239-.239h-.006zm.668 74.867l.026.497-1.35-.011a.85.85 0 0 1 .068-.47l1.261-.016h-.005zm-5.297 2.439l1.319-.012c-.429.56-.874.552-1.319.012zm-1.292-96.274l-.18.932a1.13 1.13 0 0 0-.366.02l-.211-.947.757-.004zm-7.986-18.47l1.313.016c-.45.525-.89.54-1.313-.016zm1.296 159.475c-.079.682-.694.541-1.276.447.058-.29.334-.431.662-.545l.635.106-.015-.012-.006.004zM70.475 24.054l-1.192.196c.117-.74.71-.372 1.186-.278v.082h.005zm222.673 87.223l-1.355-.047c.487-.517.937-.505 1.355.047zm-.959 111.397c.09.36.541.814-.429.904v-.004l.26-.924.169.024zm-7.663-200.296l1.287-.094.016.012.026.497-.042.035-1.303-.117a1.38 1.38 0 0 0 .021-.333h-.005zM72.625 177.375l-.037-.963h.694l-.079.963h-.577zm207.23 44.277l1.277.039a3.11 3.11 0 0 0 .026.384l-1.324.101.021-.528v.004zm-1.33-160.944l-.01.971c-.207 0-.413 0-.62-.004l-.032-.963h.662v-.004zm-11.248-23.313h1.297c-.434.572-.863.572-1.297 0zm-1.25 3.845l-.143-.446c-.09-.266.132-.415.376-.56.143.184.333.36.413.556.053.133-.048.297-.085.446a2.74 2.74 0 0 0-.567 0l.006.004zm-.08-32.556l-.053.963-.694-.466c.133-.262.366-.438.747-.497zm-9.284 88.487v.967h-.625l-.016-.967h.646-.005zm-1.981 80.208l1.308.039c-.011.121-.016.243-.011.364l-1.292.086-.011-.489h.006zM77.237 153.58l-1.319-.043c.471-.544.916-.61 1.319.043zm-.443-5.923l-.185-.889h.577l-.217.913-.169-.024h-.005zM252.145 33.684l.561-.188c.366-.129.673.047.673.235s-.302.36-.667.223l-.562-.188v-.082h-.005zm-.636 63.64l1.187-.153a.87.87 0 0 1-.069.474c-.434.012-.816-.082-1.118-.321zm-.81-50.224l-.021.959c-.18 0-.365-.004-.545-.004l-.032-.947c.196-.012.397-.012.593-.004l.005-.004zm-1.313 145.852c.217-.482.763-.47 1.303-.47l-.011-.008.016.419-1.308.059zm.636 17.014l.016.963h-.652l.043-.967h.587l.006.004zm-2.612-95.28l1.314-.015c-.424.618-.864.614-1.314.015zm-1.869.435c.137-.521.646-.536 1.207-.474-.111.564-.688.482-1.207.474zm-1.451-75.314c.434-.611.879-.595 1.324-.008l-1.324.008zm-11.869 84.674c.376-.011 1.033-.262 1.054.067.042.618-.673.188-1.054.239v-.153-.153zm-2.675-62.277l1.298-.031c-.403.673-.842.571-1.298.031zm-4.713 39.845l.053.959h-.668l.048-.963.567.004zM216.941 1.884l-.021.967c-.201 0-.397 0-.593-.004l-.064-.963h.678zm-1.323 47.158l1.319.004v.462l-1.325.027v-.493h.006zm-2.225 72.037l.217.881c-.19 0-.376-.004-.566-.008l.201-.908.148.035zM210.326 1.864c.413-.619.853-.532 1.303-.027l-1.303.027zm-.021 153.165l.016.967h-.667l.016-.971h.635v.004zm-2.642.951l1.229.043c-.44.521-.858.619-1.229-.043zM205.046-.011l1.308-.07-.01.497-1.292-.074.01-.176-.01-.18-.006.004zm-1.35 156.997c.366-.701.821-.536 1.314-.078l-1.314.078zm-.033-34.039c.048.293.09.732-.354.716-.366-.012-.339-.478-.292-.775a5.14 5.14 0 0 0 .646.063v-.004zm-2.616 3.39c.403-.587.848-.521 1.308-.039l-1.308.039zm1.329 25.282l-.015.967c-.196 0-.392 0-.588-.008l-.085-.963h.688v.004zm-3.208-122.296l1.202-.196-.011-.012.027.239v.243c-.482.098-.858-.09-1.25-.235l.032-.039zm-8.077 3.159l-1.324.035c.418-.532.858-.556 1.324-.035zM191 151.65c-.429.564-.837.588-1.208-.031l1.208.031zm-1.217-133.238a5.95 5.95 0 0 1-.646 0l.053-.963.662.485-.075.474.006.004zm-3.856 76.058c.476-.106 1.08-.529 1.191.262l.016-.012-1.234-.215.027-.035zm.487-67.77l.053.947a3.52 3.52 0 0 1-.641 0l.095-.955h.493v.008zm-1.171 90.457l1.234-.043.016.512c-.604.118-1.123.11-1.25-.465v-.004zm1.229 53.911l-.011.963h-.609l-.048-.971.662.004.006.004zm-.736-105.47l.095.947h-.673l.117-.951a3.71 3.71 0 0 0 .466.004h-.005zm-1.207-63.722l-.106.955c-.159-.008-.317-.008-.476 0l-.127-.951.01-.008.673-.016.026.016v.004zm-.027 3.911L183.2 5.76c.19-.513.715-.529 1.292-.462l.01.489zm-.656 193.437l-.064.994a11.44 11.44 0 0 0-.524 0l-.058-.951.646-.043zm-3.978-150.205c.45-.513.89-.54 1.314.016l-1.314-.016zm1.319 61.764l-1.367-.058c.021-.126.021-.247 0-.372l1.367-.059v.489zm-2.654-70.009l1.308.035v.399l-1.308.063v-.497zm.005 111.824l1.314.007v.431l-1.303.02v-.227-.227l-.011-.004zm-.661 54.929l-.016.971h-.63l-.011-.967h.657v-.004zm-4-151.673l-.1.928a3.91 3.91 0 0 0-.477.027l-.138-.967.715.012zm-84.723 6.323l-1.255-.102c.482-.38.927-.525 1.255.102zm69.582 30.719l1.266-.106v.004l.005.489v.004l-1.292-.121.026-.133v-.137h-.005zM158 53.904l.01.967h-.641l.022-.963h.614l-.005-.004zm-3.914 146.87c.593.168.693.513.625.924l-.731.011.122-.97-.016.035zM91.13 85.019l.095-.947a2.52 2.52 0 0 0 .456-.004l.143.955-.021.012c-.222 0-.45-.008-.673-.012v-.004zm60.927-51.065c.456-.521.895-.552 1.319.02l-1.319-.02zm-60.223-3.887l-.058-.963c.837.294.768.619.058.963zm.249-4.455c-.058-.223-.201-.458-.148-.665.064-.231.387-.227.434.008.042.207-.122.438-.191.658h-.09-.005zm54.736 19.135l1.271-.098.011.012-.026.489c-.514.024-.98-.031-1.25-.403h-.006zm.567-2.99l-.016.951h-.545l-.037-.955c.201-.012.397-.008.598 0v.004zm.048 100.619l-.09.908c-.561-.172-.667-.517-.635-.912l.725.004zm-5.391-103.52c.058.294.127.763-.265.759-.403-.004-.313-.466-.244-.759h.514-.005zm-4.508 24.346l1.287-.094c-.349.634-.794.556-1.287.094zm-1.382 81.116l1.303.043c-.467.497-.901.528-1.303-.043zm-3.946-69.579c.498-.419.975-.638 1.309.102l-1.309-.102zm-2.229 37.575c.201.372.603.798-.408.865l.021.02.228-.901.153.016h.006zm-6.43 78.207l.026.963c-.773-.309-.757-.63-.026-.963zm-2.182-80.153l.175.443c.132.293-.058.407-.419.36-.27-.035-.296-.188-.169-.368.095-.133.132-.29.196-.438h.212l.005.003z"/><path d="M120.259 79.19l.027.493-.689.125-.593-.622 1.255.004zm-14.585 103.008c-.419.047-1.086.086-1.086-.196s.667-.239 1.086-.192v.388zm-2.633-1.891c-.059.243.196.627-.429.611-.08 0-.138-.396-.207-.611a5.62 5.62 0 0 1 .636 0zm-3.973-43.298l1.303.074c-.487.478-.937.611-1.303-.074zm.032 28.75l1.292-.023a2.23 2.23 0 0 1 0 .462H99.09v-.219-.22h.011zm-3.241-69.895l1.223-.145c-.095.744-.726.376-1.213.313l-.011-.165v-.004zM1.083 141.413l-1.313-.031v-.404l1.303-.047c.016.161.016.321 0 .482h.011zm1.325-53.966l-1.282-.067-.016-.352 1.303-.078v.497h-.005zm16.551-4.862l-1.282-.063-.016-.344 1.298-.086.011.008-.016.489.005-.004zm5.915-8.758c-.652-.341-.747-.666.058-.963l-.058.963zm2.701 12.179l-1.266-.121v-.141l-.026-.137 1.292-.129v.529zm1.229 17.355l-1.229.121.011-.423 1.25.11-.032.192zm.72-41.204c-.699-.333-.726-.654.032-.963l-.032.963zm.667 48.634c-.053.713-.704.521-1.271.454l.016.016c0-.153.021-.302.074-.446l1.181-.024zm3.284-89.544l-1.287.114.011-.525 1.287.11a.71.71 0 0 0-.016.297l.005.004zm3.389-17.425l-.016-.959.614.004-.016.947-.583.008zm6.568 120.542l-1.202-.13-.037-.168 1.271-.176.011.012a2.84 2.84 0 0 1-.058.473l.016-.015v.004zm.609-97.323l-1.234.113v-.227-.227l1.282.086c-.053.078-.069.164-.048.251v.004zm4.666 2.493l-1.282.082c.355-.63.8-.54 1.282-.082zm.678 50.631c-.058.701-.667.587-1.282.466.185-.513.747-.474 1.282-.466zm337.739 57.838c-.005.329-.233.497-.683.501.053-.293.281-.462.683-.501zm-4.639-22.847c-.015-.211 0-.431.392-.368.096.016.138.231.202.356l-.594.012zm-4.65 35.966c-.45.016-.673-.137-.651-.47.397.024.614.18.651.47zm-2.039-93.315a.89.89 0 0 1 .042.454c-.413-.008-.641-.153-.625-.47l.583.012v.004zm-11.815 80.674c.016-.192 0-.427.386-.36.096.015.127.235.186.36a4.55 4.55 0 0 1-.572 0zm-3.332-7.771c.037.36-.201.52-.683.497.037-.305.27-.47.683-.497zm-.683-70.973c-.366-.055-.577-.215-.652-.482.355.059.572.223.652.482zm-.005 15.073c.01.223.01.47-.419.403-.1-.016-.137-.258-.201-.395l.62-.008zm-7.977 40.843c-.063.133-.095.364-.19.38-.408.067-.408-.172-.413-.384h.603v.004zM346.715 7.721c-.08.262-.297.423-.657.482.085-.258.302-.419.657-.482zm-7.24-2.93c.201-.417.397-.41.593 0h-.593zm-12.616 79.743h.657v.485c-.207 0-.408 0-.615-.008-.032-.157-.037-.313-.021-.47h-.026l.005-.008zM314.318 1.385l.291-.347.291.347h-.577-.005zm-.064 150.238v-.513c.476-.012.683.161.651.501l-.646.016-.005-.004zm-.651-77.776c.011.157 0 .309-.032.462l-.588.004c.048-.27.26-.423.625-.47l-.005.004zm-4.656-35.492c-.063.137-.095.376-.19.392-.424.071-.414-.18-.419-.392h.609zm-1.971-26.226a3.26 3.26 0 0 1 .022.454c-.461.012-.678-.153-.662-.489.217-.008.429.004.64.035zm-3.319 56.366c-.063.262-.27.415-.63.462.079-.251.291-.403.63-.462zm-8.544-53.008c.005-.187.021-.398.381-.335.09.016.127.218.186.332a5.27 5.27 0 0 1-.562.004h-.005zm-9.315 10.207c-.419-.008-.652-.157-.662-.474.381.035.604.192.662.474zm-2.638 115.23l.275-.38.307.36-.582.02zm-9.237-83.141c0-.183.027-.382.366-.328.09.016.127.207.19.316l-.556.008v.004zm-.036 41.82h.662v.485c-.212 0-.419 0-.625-.004-.037-.16-.042-.317-.032-.478l-.005-.004zm-.599 36.927c.063-.117.1-.32.196-.335.365-.059.397.144.381.347-.196 0-.387 0-.583-.012h.006zm-7.341-47.611c.455-.02.683.137.662.478a2.88 2.88 0 0 1-.641-.063c-.016-.141-.021-.278-.016-.419l-.005.004zm-.677 45.686c-.064.274-.281.439-.657.486.09-.259.302-.423.657-.486zm-4.598-123.979l.286-.376.292.368-.578.004v.004zm.621 108.425c-.011.31-.228.466-.647.478a1.45 1.45 0 0 1 .075-.47l.577-.012-.005.004zm-1.998 28.144c-.154-.043-.429-.066-.445-.129-.08-.258.212-.251.45-.262a1.63 1.63 0 0 1 0 .395l-.005-.004zm.022 46.227c-.423-.012-.662-.169-.678-.486.382.043.615.204.678.486zm-1.998-154.101l-.328.532c-.265-.125-.371-.301-.302-.529h.63v-.004zm-3.95 110.853c.429 0 .683.137.662.478l-.604-.02a.67.67 0 0 1-.042-.465l-.016.007zM251.335 89.4c0 .195-.042.39-.387.324-.095-.016-.127-.211-.19-.32a4.55 4.55 0 0 1 .572 0l.005-.004zm-3.342 26.261c-.063.117-.1.324-.196.339-.371.059-.371-.159-.376-.351l.567.012h.005zm-1.282-38.902c-.064.133-.101.372-.201.387-.419.071-.429-.172-.429-.391l.63.004zm-2.659 50.56c0 .204 0 .439-.397.372-.095-.015-.127-.242-.185-.372.196-.011.386-.011.582 0zm-16.46 33.523c.058-.121.09-.336.18-.352.381-.063.371.165.381.352-.185.012-.376.012-.561 0zM223.62 11.139a5.08 5.08 0 0 1 .598-.012c.021.341-.18.521-.662.493a1.66 1.66 0 0 1 .064-.481zm-2.718 43.744c.011.157 0 .309-.047.462a4.39 4.39 0 0 1-.562 0c.027-.278.228-.434.604-.466l.005.004zm-5.962 29.13c-.265-.008-.588.004-.503-.286.021-.067.323-.09.497-.133.016.141.016.278 0 .419h.006zm-1.976 85.591c-.419-.012-.641-.172-.657-.482.376.043.599.204.657.482zm-2.653 1.468a1.25 1.25 0 0 1-.043.466l-.614.015c.011-.317.244-.466.662-.481h-.005zM203.69 22.304c-.058.27-.28.419-.64.466v.012a2.04 2.04 0 0 1 .026-.474l.614-.004zm-3.993 70.013c-.016.196 0 .431-.392.368-.095-.016-.127-.235-.191-.364l.583-.008v.004zm-6.631 13.616c.032.156.037.309.027.465-.355-.05-.578-.199-.631-.469l.604.004zm-5.921-46.196h.662v.486h-.662v-.243-.243zm-2.712 127.386c-.063.125-.095.341-.191.352-.386.059-.386-.164-.381-.364l.572.008v.004zM169.308 5.762c.016-.183.005-.41.376-.347.095.016.127.222.185.343a4.47 4.47 0 0 1-.567 0l.006.004zm-7.324 219.754c.016.325-.223.462-.647.454.043-.282.265-.431.647-.454zM160.6 38.362c-.005.231-.074.45-.471.356-.101-.023-.117-.251-.17-.384l.641.023v.004zm-1.281 157.041l-.334.379-.302-.395c.212-.012.424-.008.636.016zm-3.278-157.025c.631.157.562.305-.01.45l.01-.45zm.021 69.962c-.038.317-.281.466-.7.49.08-.282.323-.435.7-.49zm-1.96 16.036c.01-.216.074-.431.455-.341.101.023.117.239.17.368l-.625-.024v-.003zm-10.667-97.692c.016.157 0 .313-.043.466l-.598.012c-.021-.329.196-.485.646-.478h-.005zm-2.637-24.8c.011.333-.212.497-.667.489-.006-.153.01-.305.053-.458l-.011.008a3.69 3.69 0 0 1 .625-.039zm-3.326 25.286l-.286.343-.302-.332.588-.012zm-1.356-9.231c.037.157.053.309.032.466-.371-.039-.583-.188-.609-.466h.577zM21.612 60.72c.365.051.583.208.651.478-.344-.063-.567-.219-.651-.478zm.646-36.471c-.016.313-.217.497-.662.509.064-.278.27-.458.662-.509zm28.526 114.72l.313-.359.297.366c-.201 0-.408 0-.609-.007zM26.188 90.864c-.058.121-.09.333-.18.348-.376.063-.376-.16-.381-.352a5.36 5.36 0 0 1 .567 0l-.005.004zm5.306 47.155c-.058.117-.085.312-.18.331-.344.074-.371-.14-.418-.319.201-.02.397-.024.598-.016v.004zm.758 1.433c.063-.126.101-.341.196-.357.387-.062.381.173.397.368-.196 0-.397 0-.593-.008v-.003zm44.98-59.299c-.079.262-.296.419-.657.47.08-.258.307-.411.657-.47zM35.521 24.735c-.011.325-.222.501-.678.509.058-.29.275-.466.678-.509zm61.588 52.983c.064-.266.281-.423.641-.478v-.004c0 .16-.005.321-.032.478h-.609v.004zM83.9 63.609l-.048-.231v-.235c.403.02.625.172.641.478-.196 0-.397 0-.593-.012zM38.12 18.424l-.365.485-.297-.505.662.02zm62.956 159.44l-.011-.235.048-.231.609-.011c.021.332-.217.477-.646.477zm1.282-32.07c0 .203 0 .434-.392.368-.095-.016-.127-.239-.185-.365.191-.011.387-.011.577-.003zm-82.086-1.464c0 .321-.201.493-.651.493.048-.29.259-.458.651-.493zM109.656 7.196c-.212.027-.424.039-.636.031.053-.282.265-.446.651-.478l-.015.446zm.694 124.516c.254 0 .535.016.455.274-.021.067-.291.094-.445.141l-.016-.208v-.207h.006zM41.525 21.317a1.16 1.16 0 0 1-.048-.466c.402.02.614.176.63.474a9.67 9.67 0 0 1-.582-.008zm74.793-6.796c-.058.133-.079.356-.18.38-.397.086-.466-.129-.46-.36l.64-.016v-.004zm3.252 122.038l-.291.331-.291-.331h.582zm-68.776 78.238c-.042-.325.196-.442.598-.446.026.309-.212.434-.598.446zm51.6-31.1c-.418.02-.821-.031-1.085-.289-.096-.094-.133-.298-.064-.4.228-.332.466-.058.683.036.175.07.329.172.488.262v.2l-.027.195.005-.004zm2.649.016c-.413-.032-.826-.067-.63-.505.031-.067.148-.172.196-.165.492.09.545.349.439.662l-.005.008zm-5.285-.959c.281.023.402.109.334.249 0 .004-.175-.003-.212-.039-.058-.058-.074-.144-.106-.218l-.016.008zm1.292-1.022l.498.278c-.524.29-.477-.051-.535-.266l.037-.012z"/><path d="M102.395 183.697l.032-.196v-.199c.318-.028.551.039.439.309-.021.059-.307.059-.471.086zM129.581 9.612c-.408.067-1.028.067-1.044-.192-.016-.294.572-.313.985-.254a1.45 1.45 0 0 0 .053.446h.006z"/><path d="M129.58 9.612a1.41 1.41 0 0 1-.053-.446c.519-.051.715.133.662.493a1.86 1.86 0 0 1-.609-.043v-.004zm156.922 2.952c-.01-.286-.391-.705.181-.81.561-.102 1.064.247.926.665-.137.403-.731.114-1.122.137l.015.008zM97.104 167.658c.069-.481.392-.677 1.028-.454.254.09.27.223.122.349-.344.301-.768.086-1.155.097v.004l.005.004zm207.935-86.056l.249-.38.265.207-.525.16.016.012h-.005zm-1.987-45.158c.556.074 1.33-.137 1.42.56.037.274-.239.419-.551.435-.471.023-1.112.231-1.314-.235-.09-.2.302-.513.472-.771l-.027.012zm-144.448-8.746l-.069.83c-.488.031-1.192.286-1.266-.294-.095-.74.71-.587 1.335-.536zm41.172 136.546c.101.235.053.431-.28.529-.059.015-.244-.071-.254-.118-.048-.266.174-.38.497-.423l.037.012zm13.093-33.945c-.016.113-.016.227-.006.34-.815.036-1.636.302-2.695-.015.932-.725 1.848-.376 2.701-.325zm-62.125 78.653l.604.063c.084.258.312.415.662.473-.302.756-.8.568-1.351.157l.08-.693h.005zm2.622 1.985c-.079.262-.307.419-.657.485.085-.258.313-.415.657-.485zM297.719 7.721c0 .658-.334 1.069-1.34.99-.18-1.041-.122-1.084 1.34-.99zm-3.326.489c-.005-.329-.455-.763.345-.9a.55.55 0 0 1 .646.391c.148.611-.54.458-.985.517l-.011-.008h.005zm-51.877 7.222l-.413-.179c.069-.051.159-.152.212-.14.148.027.281.098.418.152l-.211.168h-.006zm-24.251 122.575l.265-.392.296.224-.567.168h.006zM288.143 8.155c-.111-.094-.376-.219-.349-.301.063-.2.254-.38.392-.568.127.192.307.376.36.575.021.074-.26.192-.397.29l-.006.004zm33.992 14.568a1.65 1.65 0 0 0-.556.047c-.254-.278-.969-.399-.641-.861.09-.125.588-.2.821-.137.641.172.424.595.381.951h-.005zm61.028 78.324l.28-.215c-.016.043-.01.106-.053.129-.063.039-.158.055-.238.078l.011.008zM198.384 72.355c-.413.008-.884.149-1.128-.227-.037-.055.186-.274.329-.297.572-.094.725.192.789.536l.016-.012h-.006zm-2.617.497l-.011-.231.011-.231c.365.047.572.204.641.47a5.72 5.72 0 0 1-.636 0l-.005-.008zm-1.98-17.476a3.39 3.39 0 0 1 .63-.004c-.005.204-.053.415-.418.345-.101-.02-.143-.223-.212-.341zm98.631 3.371c.334-.039.599.024.683.286.016.047-.127.18-.18.176-.355-.027-.476-.219-.508-.454v-.012l.005.004zm93.378 29.687l.323.226c-.069-.012-.164-.008-.201-.039-.058-.051-.08-.129-.117-.195l-.01.008h.005zM285.904 8.672a1.09 1.09 0 0 1 .582.008c-.106.595-.646.431-1.133.352l-.016-.18.016-.18a4.39 4.39 0 0 1 .556 0h-.005zM85.839 62.654c-.291-.016-.524-.098-.545-.341 0-.043.159-.137.212-.125.313.067.381.247.334.466zm-4.586 37.469l1.282-.039c0 .286 0 .579-.551.571-.456-.008-.673-.219-.731-.528v-.004zM231.469 8.218c-.075.325-.244.587-.779.485-.132-.027-.339-.239-.302-.282.265-.333.715-.188 1.107-.192l-.021-.012h-.005zm-2.591 90.915l1.335.454c-.143.337-.45.587-.938.505-.81-.133-.418-.603-.402-.963l.005.004zM30.335 76.587l.228-.309c.069.051.212.114.201.157-.032.11-.127.211-.196.317l-.228-.164h-.005zm77.06 4.939l-.196-.078.217-.211.19.152-.211.14v-.004zm-54.578 67.963l.228-.297c.069.051.201.117.191.156-.037.11-.132.208-.201.31l-.217-.169zm56.945-77.803l.233-.282c.063.051.196.114.185.153-.037.106-.132.196-.206.294l-.212-.164zm20.437-50.608c-.137.047-.275.109-.418.133-.053.008-.127-.094-.196-.144.138-.047.275-.109.418-.133.053-.008.127.094.196.144zm-82.275-6.193l-1.017.024c-.037-.419-.418-1.045.641-.963.731.055.418.583.376.943v-.004zm-.658 132.533c0 .051.021.113-.016.144-.127.125-.276.094-.376-.089-.011-.024.117-.109.201-.133.048-.012.127.047.191.074v.004zm-40.103-1.812l.233-.305c.069.05.207.113.196.152-.032.11-.127.208-.196.309l-.228-.16-.005.004zm116.068 76.906c-.064-.055-.18-.113-.175-.164s.132-.098.207-.144c.063.054.18.113.174.163 0 .051-.132.098-.206.145zM232.555 87.371l-.233-.086.244-.238.233.164-.244.156v.004zm-7.6 24.66l.122-.156.323.172c-.08.051-.159.144-.233.14s-.143-.101-.212-.156zm-95.999 83.614l.116-.172.324.183-.228.168-.212-.179zM276.555 20.828l.053-.9c.493-.019 1.171-.223 1.239.352.091.732-.646.634-1.292.548zM101.007 108.88l-.048.854c-.477.004-1.154.207-1.229-.352-.095-.764.694-.545 1.277-.502zm-1.504 111.224l-.402-.164c.069-.05.159-.148.212-.136.148.023.281.094.424.144l-.228.156h-.005zm-19.664-90.831l-.228.343-.249-.191.493-.14-.016-.012zm239.065-73.918l-.678.012c.207-.46.435-.476.678-.012z"/><path d="M317.607 55.831l-.016-.231v-.231l.673-.02c-.059.282-.281.434-.657.478v.004zM173.236 220.653v.49l-1.313-.012-.016-.963 1.329.489v-.004zM17.009 70.903l.228-.376.275.204-.519.16.016.012zm89.343 92.366l-.329-.234c.069.012.17.008.207.043.058.054.074.132.111.203l.011-.008v-.004zM170.62 11.142a2.3 2.3 0 0 1 .609-.004l-.301.384-.308-.376v-.004zM103.713 113.7c-.01.321-.254.462-.667.489-.021-.341.238-.478.667-.489zM89.117 86.973l-.275.384c-.434-.344.021-.321.291-.372l-.016-.012zm113.286 100.643c.371.035.593.18.63.462-.376-.031-.588-.184-.63-.462zM167.946 72.868l.567.172-.307.219-.26-.392zM52.706 30.05l-.53-.144.265-.207.244.367.016-.016h.005zm199.852 47.285c-.053.094-.058.188-.01.286-.477-.012-1.208.376-1.208-.403l1.223.121-.005-.004zM108.332 96.204l-.281.372c-.471-.364.058-.302.286-.368l-.011-.008.006.004zm172.99-88.123c-.053-.27-.254-.431-.625-.474.805-1.127 1.123.016 1.653.188-.223.333-.684.2-1.028.286zM47.446 154.058l1.282.012c-.063.285-.138.575-.651.575-.519 0-.567-.305-.63-.583v-.004zM188.464 33.484c-.35-.055-.572-.208-.641-.47.36.051.577.204.641.47zm139.041 57.874l-.635-.513c.021-.356.026-.716.577-.885l.742.403c.047.434.466 1.002-.684.994zM112.96 213.83c-.206.015-.407.015-.614 0 .064-.126.101-.337.201-.357.382-.07.403.153.413.357zM54.697 9.678c.095.493.344 1.018-.508 1.308-.18-.509-.694-1.088.508-1.308zm231.137 56.351l-.037-.223.016-.223c.265.008.567.016.488.29-.022.074-.302.106-.467.157zM105.016 188.065a5.43 5.43 0 0 1-.625 0l.307-.331.313.331h.005zm49.706-5.836l-.021-.231.016-.231c.275.02.62.004.53.306-.022.074-.339.101-.519.152l-.006.004zm215.031-76.813a1.18 1.18 0 0 1 .138-.47l1.313.027c-.254.552-.895.419-1.451.443zm-295.852 28.23a1.54 1.54 0 0 1-.016.442c-.159-.051-.424-.082-.45-.156-.079-.263.201-.282.466-.286zm308.548-35.539c.143.114.323.164.535.153-.032.149.032.27.191.36-.08.286-.233.513-.705.497l-.026-1.014.005.004z"/><path d="M382.5 97.641l.011.525c-.572.067-.821-.106-.736-.532l.725.008z"/><path d="M381.13 97.669l-.027-.497h.705l.031.501c-.238 0-.476-.004-.709-.004zm4.893 28.155c.143.051.291.059.44.032.031.219-.101.473-.355.442-.27-.035-.27-.29-.085-.474zm-265.79-46.18l.709.016-.354.501-.355-.517zm180.791 5.379c.016.157.016.313 0 .47-.572-.157-.578-.313 0-.47zm-122.432 25.721l-.032-.207.016-.208 1.244.028c.022.125.027.246 0 .371l-1.228.016zm184.001-58.801c-.456.023-.858-.039-1.102-.36.472-.051 1.096-.356 1.102.36zm-76.769 98.231c-.556.044-1.165.165-1.281-.458.55-.031 1.276-.328 1.281.458zm.079-141.502a4.3 4.3 0 0 0-.556 0c-.275-.384.09-.431.466-.478a.76.76 0 0 1 .09.478zm-17.334 5.352c-.588.07-.874-.309-1.303-.47.085-.344-.063-.767.593-.904.477.391.991.771.705 1.374h.005zM9.696 70.922c-.54-.008-1.065-.031-1.308-.478.551-.008 1.086 0 1.308.478zm162.885 12.629v-.235-.235l.647-.004c-.075.262-.292.423-.652.478l.005-.004zm-41.014 4.839l-.032-.219.01-.223c.424 0 .657.145.641.47-.206.008-.413 0-.619-.027zm250.257 48.153c.026-.301.254-.45.646-.478-.021.302-.254.451-.646.478zm-272.21-27.267l-1.128-.059-.043-1.284 1.192-.039c.27.462.265.924-.021 1.382zm-54.917 13.675l.026.967-1.297-.036.037-.892 1.234-.039zm140.36-89.928c.037.149.037.294 0 .442l-1.096-.125v-.207l1.091-.11h.005zm53.667 78.731v-.243-.242h.662v.485h-.662z"/></g><g stroke="#ab750f" stroke-width="1.032"><path d="M17.227 33.747V18.26h15.487M10 35.812V10h25.812m339.773 185.065v15.487h-15.488M382.812 193v25.812H357"/></g><path d="M58.344 130.126l.931-.87-.931.87zm262.123 16.581l-.94-.861.94.861zm15.198-16.583l-.94-.861.94.861zM73.869 146.717l-.931.87.931-.87zm90.637-72.246H59.275v2.549h105.232v-2.549zm0 2.549h68.598v-2.549h-68.598v2.549zm68.598 0h101.621v-2.549H233.104v2.549zm101.621 0v52.243h2.549V77.02h-2.549zm0 52.243l-15.198 16.583 1.88 1.722 15.198-16.583-1.88-1.722zm-15.198 16.583h-86.423v2.549h86.423v-2.549zm-86.423 0h-68.598v2.549h68.598v-2.549zM74.8 148.395h89.706v-2.549H74.8v2.549zm-17.386-17.398l15.525 16.59 1.861-1.741-15.525-16.59-1.861 1.741zm-.688-53.977v52.236h2.549V77.02h-2.549zm2.549 52.236h-2.549a2.55 2.55 0 0 0 .688 1.741l1.861-1.741zm260.253 16.59v2.549a2.55 2.55 0 0 0 1.88-.827l-1.88-1.722zm15.198-16.583h0l1.88 1.722a2.55 2.55 0 0 0 .669-1.722h-2.549zM74.8 145.846l-1.861 1.741c.482.516 1.156.808 1.861.808v-2.549zM334.725 77.02h0 2.549a2.55 2.55 0 0 0-2.549-2.549v2.549zM59.275 74.471a2.55 2.55 0 0 0-2.549 2.549h2.549 0v-2.549z" fill="url(#F)"/><g fill-rule="evenodd"><path d="M153.242 65.042h-9.744l9.493 22.592h87.953v-.058h.251l9.494-22.534h-9.745-87.702z" fill="#6c4b0e"/><path d="M154.485 63h-9.469l9.225 22.592h85.461v-.058h.243L249.17 63h-9.468-85.217z" fill="url(#G)"/></g><path d="M165.038 70.751h4.271c.712 0 1.227.163 1.545.488.326.319.488.834.488 1.546v1.017c0 .712-.162 1.23-.488 1.556-.318.319-.833.478-1.545.478h-2.441v2.034h-1.83v-7.118zm4.474 2.034c0-.407-.203-.61-.61-.61h-2.034v2.237h2.034c.407 0 .61-.203.61-.61v-1.017zm2.949-2.034h4.27c.712 0 1.227.163 1.546.488.325.319.488.834.488 1.546v.915c0 .563-.095 1-.285 1.312-.183.312-.478.519-.885.62l1.271 2.237h-1.982l-1.17-2.135h-1.423v2.135h-1.83v-7.118zm4.474 2.034c0-.407-.204-.61-.611-.61h-2.033v2.135h2.033c.407 0 .611-.203.611-.61v-.915zm6.403 5.084h-3.661v-1.424h.915v-4.271h-.915v-1.423h3.661v1.423h-.915v4.271h.915v1.424zm6.507-5.694l-3.559 4.271h3.559v1.424h-5.796v-1.424l3.559-4.271h-3.559v-1.423h5.796v1.423zm6.663 5.694h-5.643v-7.118h5.643v1.423h-3.813v1.373h3v1.423h-3v1.474h3.813v1.424zm4.266-7.118h4.271c.712 0 1.227.163 1.546.488.325.319.488.834.488 1.546v1.017c0 .712-.163 1.23-.488 1.556-.319.319-.834.478-1.546.478h-2.44v2.034h-1.831v-7.118zm4.474 2.034c0-.407-.203-.61-.61-.61h-2.033v2.237h2.033c.407 0 .61-.203.61-.61v-1.017zm7.524-.102c0-.407-.203-.61-.61-.61h-1.728c-.407 0-.61.203-.61.61v3.254c0 .407.203.61.61.61h1.728c.407 0 .61-.203.61-.61v-3.254zm1.831 3.254c0 .712-.163 1.23-.488 1.556-.319.319-.834.478-1.546.478h-2.542c-.712 0-1.23-.159-1.556-.478-.318-.325-.478-.844-.478-1.556v-3.254c0-.712.16-1.227.478-1.546.326-.325.844-.488 1.556-.488h2.542c.712 0 1.227.163 1.546.488.325.319.488.834.488 1.546v3.254zm5.8-3.254c0-.407-.203-.61-.61-.61h-1.728c-.407 0-.61.203-.61.61v3.254c0 .407.203.61.61.61h1.728c.407 0 .61-.203.61-.61v-3.254zm1.831 3.254c0 .712-.163 1.23-.488 1.556-.319.319-.834.478-1.546.478h-2.542c-.712 0-1.23-.159-1.556-.478-.318-.325-.478-.844-.478-1.556v-3.254c0-.712.16-1.227.478-1.546.326-.325.844-.488 1.556-.488h2.542c.712 0 1.227.163 1.546.488.325.319.488.834.488 1.546v3.254zm3.055.508H229v1.424h-5.541v-7.118h1.83v5.694z" fill="#f5f1ee"/></g><defs><linearGradient id="A" x1="200.594" y1="170.785" x2="199.871" y2="224.169" href="#I"><stop stop-color="#d8a956" stop-opacity="0"/><stop offset="1" stop-color="#ab750f"/></linearGradient><linearGradient id="B" x1="145.069" y1="114.5" x2="-72.069" y2="114.5" href="#I"><stop stop-color="#ab750f" stop-opacity="0"/><stop offset="1" stop-color="#ab750f"/></linearGradient><linearGradient id="C" x1="452.069" y1="114.5" x2="234.931" y2="114.5" href="#I"><stop stop-color="#ab750f" stop-opacity="0"/><stop offset="1" stop-color="#ab750f"/></linearGradient><linearGradient id="D" x1="27.158" y1="-16" x2="27.158" y2="245.573" href="#I"><stop stop-color="#ab750f"/><stop offset=".516" stop-color="#d8a956"/><stop offset="1" stop-color="#ab750f" stop-opacity="0"/></linearGradient><linearGradient id="E" x1="370.185" y1="256.573" x2="370.185" y2="127" href="#I"><stop stop-color="#ab750f"/><stop offset=".516" stop-color="#d8a956"/><stop offset="1" stop-color="#ab750f" stop-opacity="0"/></linearGradient><linearGradient id="F" x1="197" y1="75.746" x2="197" y2="147.12" href="#I"><stop stop-color="#ab750f"/><stop offset=".516" stop-color="#d8a956"/><stop offset="1" stop-color="#ab750f"/></linearGradient><linearGradient id="G" x1="145.016" y1="64.324" x2="154.436" y2="107.452" href="#I"><stop stop-color="#ab750f"/><stop offset=".484" stop-color="#d8a956"/><stop offset="1" stop-color="#ab750f"/></linearGradient><clipPath id="H"><path fill="#fff" d="M0 0h393v229H0z"/></clipPath><linearGradient id="I" gradientUnits="userSpaceOnUse"/></defs></svg>