<svg width="361" height="120" viewBox="0 0 361 120" fill="none" xmlns="http://www.w3.org/2000/svg">
<g id="tournament-list" clip-path="url(#clip0_663_9530)">
<path id="Rectangle 142" d="M0 0H361V159H0V0Z" fill="#212121"/>
<path id="Union" d="M43 3.85547H318L317.984 56.8567C317.984 57.1722 317.866 57.4762 317.653 57.709L302.62 74.131C302.381 74.3922 302.043 74.5409 301.689 74.5409H59.6184C59.2689 74.5409 58.935 74.396 58.6963 74.1406L43.3401 57.711C43.1216 57.4772 43 57.1691 43 56.8491V3.85547Z" stroke="url(#paint0_linear_663_9530)" stroke-opacity="0.3" stroke-width="2.70492"/>
<g id="Dust">
<g id="Group" opacity="0.35">
<path id="Vector" d="M282.038 40.0134C281.55 39.7182 280.736 39.8526 280.122 39.716C279.234 39.5177 279.239 39.4142 280.234 39.0088L280.283 39.0022C280.492 39.1498 280.809 39.1917 281.175 39.1917C281.229 39.2644 281.341 39.293 281.511 39.2754C281.697 39.4384 282.028 39.4957 282.394 39.5266L282.37 39.5177C282.287 39.6852 282.209 39.8548 282.126 40.0223L282.038 40.0157V40.0134Z" fill="white"/>
<path id="Vector_2" d="M228.131 37.8455C227.927 37.872 227.722 37.8984 227.517 37.9249C227.122 37.9271 226.732 37.9293 226.337 37.9337C226.113 37.9138 225.884 37.894 225.659 37.8742C225.493 37.6869 225.445 37.4997 225.635 37.3102C226.274 37.2948 226.912 37.2793 227.546 37.2639C227.737 37.3014 227.932 37.308 228.136 37.2881C228.249 37.3542 228.395 37.3741 228.57 37.3498C228.644 37.4358 228.717 37.5217 228.79 37.6076C228.57 37.6869 228.346 37.7662 228.127 37.8455H228.131Z" fill="white"/>
<path id="Vector_3" d="M219.607 14.34C220.363 14.2276 220.866 14.4722 221.451 14.6044V14.6088C221.451 14.7013 221.446 14.7916 221.436 14.8842C221.246 14.9018 221.046 14.915 220.846 14.9216C220.627 14.9371 220.402 14.9503 220.183 14.9635C219.993 15.0296 219.807 15.0935 219.617 15.1596C219.437 15.1552 219.251 15.1508 219.071 15.1508C219.022 15.0648 218.969 14.9789 218.9 14.8952C218.852 14.7983 218.798 14.7013 218.749 14.6044C218.857 14.5603 218.964 14.5625 219.061 14.611C219.388 14.5801 219.52 14.4722 219.603 14.3422L219.607 14.34Z" fill="white"/>
<path id="Vector_4" d="M247.626 79.461C247.89 79.8334 247.734 80.0779 246.719 80.0493C246.222 80.036 245.729 80.0096 245.237 79.9876L245.252 79.9942C245.154 79.7254 245.798 79.6659 245.983 79.4764C246.168 79.5205 246.324 79.5051 246.446 79.428C246.846 79.4412 247.246 79.4544 247.646 79.4676L247.626 79.461Z" fill="white"/>
<path id="Vector_5" d="M170.225 60.038C170.639 59.6789 171.064 59.7516 171.488 60.0314C171.546 60.1768 171.766 60.2539 172.063 60.2979C172.044 60.4764 172.078 60.721 171.639 60.754C170.942 60.8091 170.932 60.5138 170.815 60.3023C170.752 60.1547 170.527 60.0798 170.23 60.038H170.225Z" fill="white"/>
<path id="Vector_6" d="M111.022 58.2422H111.051C110.183 58.5176 109.359 58.6167 108.696 58.1166L108.676 58.1254C109.228 57.9976 109.725 57.7839 110.432 57.9051L110.344 57.8698C110.569 57.9932 110.793 58.1188 111.017 58.2422H111.022Z" fill="white"/>
<path id="Vector_7" d="M268.672 11.8282C268.531 11.7709 268.404 11.7048 268.248 11.6586C267.79 11.522 267.57 11.3325 267.931 11.132C268.312 10.9227 268.76 11.0307 269.14 11.1783C269.287 11.2334 269.438 11.284 269.584 11.3391L269.574 11.3303C269.516 11.5815 268.965 11.6586 268.692 11.8348L268.667 11.8282H268.672Z" fill="white"/>
<path id="Vector_8" d="M261.675 35.4153C261.666 35.3184 261.651 35.2214 261.641 35.1245C262.124 35.0892 262.66 35.1069 262.929 34.8601C263.319 34.8711 263.821 34.8777 263.884 35.0738C263.982 35.3845 263.309 35.3624 262.88 35.4329C262.48 35.4263 262.08 35.4197 261.675 35.4131V35.4153Z" fill="white"/>
<path id="Vector_9" d="M221.504 91.9441C221.504 91.8251 221.504 91.7061 221.504 91.5872C221.89 91.5541 222.28 91.5211 222.665 91.4902C222.86 91.6709 223.05 91.8537 223.245 92.0344L223.26 92.0256C222.87 92.1049 222.48 92.182 222.089 92.2613L222.133 92.2944C221.924 92.1776 221.714 92.0609 221.509 91.9441H221.504Z" fill="white"/>
<path id="Vector_10" d="M147.736 20.6521C148.906 20.5926 150.076 20.5177 151.218 20.7336V20.8041C150.028 20.8769 148.784 21.225 147.736 20.6521Z" fill="white"/>
<path id="Vector_11" d="M10.2681 62.1795C10.0146 62.1795 9.76101 62.1817 9.51232 62.1839C9.20024 61.9372 9.20024 61.6816 9.41967 61.4216L9.34655 61.4503C9.70251 61.4547 10.0633 61.4613 10.4193 61.4657L10.3511 61.4371C10.5705 61.6882 10.5461 61.9372 10.2681 62.1773V62.1795Z" fill="white"/>
<path id="Vector_12" d="M31.2607 41.928C31.446 41.82 31.6021 41.7011 31.8166 41.6085C32.1189 41.4785 32.5286 41.3706 32.8358 41.5711C33.1137 41.7517 32.8114 41.8993 32.4408 41.9963C32.0507 41.972 31.6557 41.95 31.2656 41.928H31.2607Z" fill="white"/>
<path id="Vector_13" d="M235.465 66.3216C235.094 67.0706 234.802 67.1632 233.656 66.8878C233.856 66.7908 234.06 66.6939 234.26 66.5969V66.5992C234.451 66.5066 234.651 66.4119 234.85 66.3194L234.86 66.3149C235.065 66.3149 235.265 66.3149 235.47 66.3216H235.465Z" fill="white"/>
<path id="Vector_14" d="M136.038 112.108C135.501 112.059 134.96 112.013 134.424 111.964L134.443 111.98L135.009 111.486C135.282 111.491 135.555 111.497 135.828 111.502C135.887 111.583 135.979 111.656 136.111 111.72C136.086 111.85 136.062 111.98 136.038 112.11V112.108Z" fill="white"/>
<path id="Vector_15" d="M339.676 53.7304C338.91 53.7282 338.145 53.7238 337.379 53.7216C337.301 53.574 337.365 53.4661 337.755 53.4506C338.267 53.4374 338.857 53.5123 339.091 53.2017C339.296 53.2039 339.496 53.2083 339.7 53.2105L339.671 53.1973C339.671 53.3757 339.676 53.5542 339.676 53.7326V53.7304Z" fill="white"/>
<path id="Vector_16" d="M91.0103 100.237C90.8835 100.587 90.2301 100.475 89.7619 100.525C89.5474 100.547 89.3328 100.572 89.1183 100.594L89.0305 100.51L89.1816 100.446C89.1231 100.389 89.1134 100.329 89.1622 100.268C89.2889 99.9569 89.8351 100.003 90.3178 99.9966C90.4739 100.122 90.6543 100.23 91.0151 100.235L91.0103 100.237Z" fill="white"/>
<path id="Vector_17" d="M89.3422 5.3335H89.5909C89.8493 5.41722 90.1127 5.50094 90.3711 5.58466C90.2784 6.05834 89.903 6.23018 88.996 5.84683C89.113 5.67499 89.2252 5.50534 89.3422 5.3335Z" fill="white"/>
<path id="Vector_18" d="M147.735 107.545V107.457C148.116 107.408 148.496 107.36 148.876 107.311C148.988 107.369 149.125 107.393 149.296 107.386C149.393 107.562 149.495 107.736 149.598 107.913C149.179 107.908 148.764 107.904 148.345 107.9C148.145 107.781 147.94 107.664 147.74 107.545H147.735Z" fill="white"/>
<path id="Vector_19" d="M153.227 75.6299C153.388 75.6299 153.553 75.6299 153.714 75.6299C153.939 75.7158 154.163 75.8039 154.387 75.8899V75.8943C154.568 76.0243 154.743 76.1542 154.914 76.2864L154.924 76.3217C154.538 76.3657 154.153 76.412 153.768 76.4561L153.748 76.4473C153.68 76.3018 153.49 76.2093 153.163 76.1719C153.183 75.9912 153.207 75.8105 153.227 75.6299Z" fill="white"/>
<path id="Vector_20" d="M106.892 38.6894C106.526 38.6012 106.248 38.4779 106.477 38.2884C106.638 38.1518 106.965 38.1804 107.243 38.2399C107.501 38.295 107.755 38.3589 108.013 38.4206C108.023 38.5109 108.038 38.6034 108.048 38.6938C107.662 38.6938 107.277 38.6938 106.892 38.6916V38.6894Z" fill="white"/>
<path id="Vector_21" d="M187.775 17.8276C187.682 17.7571 187.497 17.6799 187.521 17.6205C187.59 17.4684 187.877 17.42 188.155 17.5059C188.267 17.5411 188.34 17.6799 188.277 17.7306C188.204 17.7879 187.95 17.7967 187.775 17.8276Z" fill="white"/>
<path id="Vector_22" d="M171.03 35.411C171.06 35.2612 171.24 35.1664 171.577 35.1885C171.898 35.2105 172.064 35.3229 171.972 35.4617C171.928 35.5256 171.747 35.6027 171.601 35.6181C171.26 35.6533 171.084 35.5542 171.03 35.411Z" fill="white"/>
<path id="Vector_23" d="M353.72 64.9289C353.539 64.9818 353.344 64.9906 353.144 64.9531C353.003 64.9708 352.866 64.9641 352.739 64.9355C352.642 64.984 352.525 64.9928 352.398 64.9641C352.725 64.8033 352.574 64.616 352.544 64.4354C352.944 64.4266 353.344 64.4156 353.744 64.4067C353.739 64.5808 353.734 64.7526 353.729 64.9267L353.72 64.9289Z" fill="white"/>
<path id="Vector_24" d="M156.835 62.1904C156.888 61.9855 156.923 61.7454 157.557 61.7895C157.956 61.8181 158 62.0186 158.025 62.1838C157.63 62.186 157.235 62.1882 156.835 62.1904Z" fill="white"/>
<path id="Vector_25" d="M349.458 50.1809C349.458 50.0884 349.458 49.9981 349.463 49.9055C349.897 49.9121 350.038 49.7844 350.111 49.6257C350.301 49.6257 350.492 49.6323 350.682 49.6412C350.701 49.8196 350.716 49.9981 350.735 50.1765C350.316 50.5202 349.887 50.2162 349.458 50.1809Z" fill="white"/>
<path id="Vector_26" d="M344.401 49.1016C344.27 49.1523 344.138 49.2492 344.006 49.2492C343.65 49.2492 343.499 49.1281 343.636 48.9893C343.689 48.9364 343.982 48.8879 344.123 48.9055C344.245 48.921 344.309 49.0333 344.396 49.1038L344.401 49.1016Z" fill="white"/>
<path id="Vector_27" d="M335.902 23.0139C335.814 22.9456 335.634 22.8685 335.658 22.809C335.727 22.6614 336.004 22.6129 336.278 22.6966C336.385 22.7297 336.453 22.8663 336.39 22.917C336.317 22.972 336.073 22.9831 335.902 23.0139Z" fill="white"/>
<path id="Vector_28" d="M326.31 55.3872C326.715 55.3828 327.119 55.3784 327.524 55.3718C327.471 55.5833 327.505 55.8587 326.798 55.8103C326.373 55.7816 326.334 55.5613 326.31 55.3872Z" fill="white"/>
<path id="Vector_29" d="M134.76 5.78507C134.658 5.71898 134.458 5.65068 134.468 5.5912C134.502 5.43477 134.775 5.37308 135.077 5.44799C135.199 5.47884 135.301 5.61763 135.248 5.67492C135.194 5.7322 134.931 5.74982 134.76 5.78507Z" fill="white"/>
<path id="Vector_30" d="M305.498 48.9934C305.396 48.9273 305.201 48.859 305.216 48.7996C305.259 48.6475 305.533 48.5858 305.825 48.6541C305.942 48.6828 306.03 48.8216 305.976 48.8789C305.918 48.9362 305.664 48.956 305.498 48.9934Z" fill="white"/>
<path id="Vector_31" d="M303.192 16.5322C303.592 16.5455 304.094 16.5609 304.143 16.7614C304.226 17.0896 303.606 17.061 303.119 17.0742C303.143 16.8936 303.168 16.7129 303.187 16.53L303.192 16.5322Z" fill="white"/>
<path id="Vector_32" d="M301.1 104.286C301.041 104.346 301.012 104.452 300.895 104.48C300.631 104.546 300.363 104.498 300.285 104.366C300.251 104.308 300.358 104.192 300.475 104.165C300.729 104.108 300.983 104.139 301.1 104.286Z" fill="white"/>
<path id="Vector_33" d="M127.45 17.0763C127.709 16.8075 128.226 16.7921 128.772 16.8097C128.67 17.2327 128.372 17.4663 127.45 17.0763Z" fill="white"/>
<path id="Vector_34" d="M125.719 82.4617C126.119 82.4595 126.621 82.4705 126.694 82.66C126.816 82.9662 126.231 82.9882 125.734 83.0081L125.719 82.4595V82.4617Z" fill="white"/>
<path id="Vector_35" d="M282.443 2.5243L282.472 2.44498L282.448 2.36567C282.843 2.34143 283.238 2.3194 283.628 2.29517L283.638 2.29957C283.823 2.40973 284.008 2.52209 284.194 2.63225C284.159 2.68072 284.159 2.72919 284.194 2.77986C283.804 2.80189 283.409 2.82393 283.018 2.84596C282.828 2.738 282.633 2.63005 282.443 2.52209V2.5243Z" fill="white"/>
<path id="Vector_36" d="M270.832 12.9694C270.437 12.7271 270.033 12.4847 270.237 12.1542C270.423 12.152 270.608 12.152 270.793 12.1542C271.003 12.2468 271.218 12.3393 271.427 12.434L271.413 12.4274C271.393 12.6059 271.378 12.7843 271.359 12.965C271.183 12.9606 271.003 12.965 270.827 12.9716L270.832 12.9694Z" fill="white"/>
<path id="Vector_37" d="M112.314 2.29761C112.719 2.29981 113.124 2.30422 113.528 2.30642C113.504 2.48047 113.47 2.70299 113.05 2.73163C112.353 2.7823 112.378 2.50691 112.314 2.29761Z" fill="white"/>
<path id="Vector_38" d="M266.019 3.40137C266.405 3.41679 266.912 3.419 266.96 3.61949C267.039 3.93234 266.429 3.92132 265.946 3.93894C265.971 3.75828 265.995 3.57983 266.014 3.39917L266.019 3.40137Z" fill="white"/>
<path id="Vector_39" d="M108.057 66.8303C108.057 67.0242 108.057 67.2181 108.052 67.4142C107.648 67.4075 107.243 67.4031 106.843 67.3965L106.877 66.9339C107.272 66.8986 107.667 66.8656 108.062 66.8303H108.057Z" fill="white"/>
<path id="Vector_40" d="M262.318 34.8581C261.792 34.8603 261.309 34.825 261.055 34.5827C262.055 34.1442 262.187 34.5034 262.318 34.8581Z" fill="white"/>
<path id="Vector_41" d="M103.239 36.3937C103.239 36.2814 103.239 36.1668 103.239 36.0544C103.615 36.0302 103.995 36.006 104.371 35.9795L104.332 35.9619C104.341 36.1404 104.351 36.3166 104.356 36.4951L104.38 36.4841C104 36.4554 103.62 36.4246 103.239 36.3937Z" fill="white"/>
<path id="Vector_42" d="M254.375 84.3677C254.444 84.165 254.458 83.8522 255.063 83.9337C255.726 84.024 255.419 84.2421 254.975 84.3787C254.775 84.3765 254.575 84.3721 254.375 84.3655V84.3677Z" fill="white"/>
<path id="Vector_43" d="M99.6653 48.2444C99.7774 48.1849 99.8701 48.0858 100.002 48.0703C100.363 48.0329 100.572 48.1386 100.548 48.2884C100.524 48.4427 100.236 48.5044 99.9384 48.4537C99.8067 48.4316 99.7531 48.3171 99.6653 48.2444Z" fill="white"/>
<path id="Vector_44" d="M98.9482 76.813C99.0652 76.8725 99.2749 76.932 99.2749 76.9914C99.2749 77.1523 99.0018 77.2162 98.6946 77.1567C98.5776 77.1324 98.4703 77.0003 98.5093 76.9386C98.5435 76.8835 98.797 76.8549 98.9482 76.8152V76.813Z" fill="white"/>
<path id="Vector_45" d="M246.632 69.0578C246.715 68.919 246.934 68.8529 247.217 68.8992C247.334 68.919 247.461 69.0292 247.451 69.0931C247.422 69.2363 247.158 69.2913 246.88 69.2495C246.763 69.2319 246.715 69.1239 246.632 69.0578Z" fill="white"/>
<path id="Vector_46" d="M92.8967 49.2534C92.7407 49.2226 92.5017 49.2116 92.4335 49.1587C92.2872 49.0375 92.3896 48.9141 92.6968 48.8811C92.8333 48.8657 93.0967 48.9141 93.1601 48.9692C93.3064 49.0904 93.1795 49.1961 92.8918 49.2556L92.8967 49.2534Z" fill="white"/>
<path id="Vector_47" d="M238.421 89.838C238.021 89.8446 237.621 89.849 237.216 89.8556C237.304 89.6793 237.387 89.5031 237.475 89.3246C237.645 89.3378 237.791 89.3158 237.918 89.2629C238.118 89.2784 238.318 89.2916 238.513 89.3026C238.479 89.4811 238.45 89.6595 238.421 89.838Z" fill="white"/>
<path id="Vector_48" d="M90.3561 31.5754C90.3707 31.3948 90.3853 31.2119 90.4 31.0312C90.7852 31.0312 91.1655 31.0312 91.5459 31.0312C91.5459 31.2119 91.5459 31.3904 91.5459 31.571C91.1509 31.571 90.7559 31.5754 90.3609 31.5776L90.3561 31.5754Z" fill="white"/>
<path id="Vector_49" d="M236.777 67.4121C236.719 67.6522 236.694 67.8968 236.065 67.9959L236.007 67.9651C235.826 67.8725 235.651 67.7778 235.47 67.6853L235.48 67.5575V67.4297C235.695 67.335 235.914 67.2424 236.129 67.1477C236.343 67.2358 236.563 67.324 236.777 67.4121Z" fill="white"/>
<path id="Vector_50" d="M89.6637 22.5667C89.693 22.7429 89.7271 22.917 89.7563 23.091C89.3662 23.0932 88.8396 23.1064 88.747 22.9258C88.5909 22.6283 89.1663 22.5931 89.6637 22.5645V22.5667Z" fill="white"/>
<path id="Vector_51" d="M87.1431 51.0006C87.0114 51.0535 86.8797 51.1504 86.7481 51.1504C86.3872 51.1504 86.2361 51.0292 86.3726 50.8882C86.4262 50.8332 86.7237 50.7869 86.87 50.8023C86.9919 50.8155 87.0553 50.9301 87.1431 51.0006Z" fill="white"/>
<path id="Vector_52" d="M79.4137 8.02122C79.4479 7.84938 79.4186 7.61584 79.8623 7.59161C80.5353 7.55415 80.5499 7.82735 80.6182 8.04326C80.2183 8.03665 79.8136 8.03003 79.4137 8.02342V8.02122Z" fill="white"/>
<path id="Vector_53" d="M78.5752 4.46306C78.2972 4.46306 78.0193 4.46747 77.7414 4.46967C77.6829 4.29342 77.6243 4.11717 77.5658 3.94312C77.9608 3.94312 78.3558 3.94312 78.7556 3.94532C78.6971 4.11937 78.6386 4.29122 78.5801 4.46306H78.5752Z" fill="white"/>
<path id="Vector_54" d="M76.3464 92.2769C76.8389 92.3055 77.4972 92.2019 77.5508 92.5809L77.5605 92.5765C77.2728 92.658 76.99 92.7417 76.7023 92.8232H76.5756C76.3805 92.6624 76.1854 92.5038 75.9904 92.3429C76.1513 92.3672 76.2683 92.343 76.3464 92.2769Z" fill="white"/>
<path id="Vector_55" d="M76.2594 44.999C76.2887 45.1753 76.3179 45.3493 76.3423 45.5256C75.9522 45.5256 75.4256 45.5388 75.3329 45.3581C75.1818 45.0607 75.762 45.0277 76.2545 44.999H76.2594Z" fill="white"/>
<path id="Vector_56" d="M72.6745 50.181C72.7476 49.9761 72.7428 49.6589 73.3669 49.7404C74.035 49.8285 73.7375 50.0532 73.3084 50.2031C73.0987 50.1964 72.8842 50.1898 72.6745 50.1832V50.181Z" fill="white"/>
<path id="Vector_57" d="M47.0454 115.251C46.8357 115.344 46.6358 115.445 46.4163 115.531C46.1579 115.632 45.8361 115.624 45.6215 115.527C45.1631 115.324 45.7044 115.212 45.9141 115.104C46.2262 114.943 46.6504 115.053 47.0308 115.079C46.9918 115.137 46.9966 115.196 47.0454 115.254V115.251Z" fill="white"/>
<path id="Vector_58" d="M264.557 4.7276C264.225 4.69896 263.738 4.82675 263.616 4.59762C263.572 4.50949 263.855 4.38832 263.986 4.28256V4.24731C264.211 4.36629 264.435 4.48526 264.659 4.60423C264.542 4.63287 264.508 4.67253 264.557 4.7276Z" fill="white"/>
<path id="Vector_59" d="M263.553 6.68177C264.016 6.66856 264.406 6.73686 264.699 6.9043C264.509 7.01225 264.318 7.118 264.128 7.22596C263.958 7.21053 263.782 7.20613 263.611 7.21274L263.553 6.68177Z" fill="white"/>
<path id="Vector_60" d="M145.253 0.129571C145.6 0.125164 146.058 0.0899138 146.077 0.303621C146.092 0.48428 145.712 0.563595 145.312 0.574611C145.292 0.426999 145.273 0.277183 145.253 0.129571Z" fill="white"/>
<path id="Vector_61" d="M245.184 92.8564L245.856 92.8035C246.008 92.8453 246.173 92.8718 246.349 92.8784C246.378 92.9533 246.403 93.0282 246.422 93.1031C246.183 93.1978 245.944 93.2948 245.7 93.3895C245.598 93.3697 245.491 93.3697 245.383 93.3851C245.315 93.2089 245.247 93.0326 245.184 92.8564Z" fill="white"/>
<path id="Vector_62" d="M133.682 86.2908C133.468 86.3855 133.253 86.4825 133.038 86.5772L132.424 86.293L132.434 86.2886C132.634 86.1983 132.834 86.1079 133.029 86.0176L133.043 86.011C133.248 86.011 133.453 86.0154 133.658 86.0154C133.672 86.1057 133.677 86.1961 133.682 86.2864V86.2908Z" fill="white"/>
<path id="Vector_63" d="M223.869 112.282C224.333 112.392 224.674 112.557 224.167 112.747C223.855 112.861 223.494 112.722 223.284 112.568C223.479 112.471 223.674 112.376 223.869 112.28V112.282Z" fill="white"/>
<path id="Vector_64" d="M119.058 73.1467C119.034 72.9176 118.8 72.6444 119.644 72.6047L119.658 72.6091C119.848 72.7105 120.039 72.8096 120.229 72.911C120.229 72.9837 120.229 73.0564 120.229 73.1291C119.834 73.1313 119.439 73.1357 119.044 73.1379L119.058 73.1489V73.1467Z" fill="white"/>
<path id="Vector_65" d="M116.557 110.094C117.074 110.063 117.488 110.131 117.781 110.332C117.571 110.433 117.357 110.537 117.147 110.638C116.991 110.629 116.835 110.627 116.679 110.634C116.64 110.455 116.596 110.274 116.557 110.096V110.094Z" fill="white"/>
<path id="Vector_66" d="M114.758 64.6868C114.826 64.5634 114.831 64.3541 114.977 64.3321C115.596 64.2374 115.752 64.4863 115.972 64.6714C115.567 64.678 115.162 64.6824 114.758 64.6868Z" fill="white"/>
<path id="Vector_67" d="M8.06943 23.3663C8.28398 23.1922 8.62042 23.0601 8.99102 23.2253C9.36162 23.3905 9.07392 23.5403 8.68381 23.6395C8.47901 23.5492 8.27423 23.4566 8.06943 23.3663Z" fill="white"/>
<path id="Vector_68" d="M331.206 31.0291C331.411 31.0291 331.616 31.0269 331.821 31.0247C332.016 31.1194 332.206 31.2141 332.396 31.3067C332.172 31.56 331.694 31.5777 331.187 31.5732C331.192 31.3926 331.202 31.2097 331.206 31.0291Z" fill="white"/>
<path id="Vector_69" d="M327.467 15.2542L327.486 15.3687C327.281 15.4789 327.076 15.5913 326.872 15.7014C326.721 15.6882 326.564 15.686 326.413 15.6948C326.374 15.5163 326.335 15.3379 326.296 15.1594V15.1572C326.691 15.1903 327.081 15.2233 327.467 15.2564V15.2542Z" fill="white"/>
<path id="Vector_70" d="M304.981 69.5733C304.966 69.3817 305.079 69.212 305.391 69.0776C305.639 69.1834 305.888 69.2891 306.142 69.3949L306.127 69.5139C305.742 69.5337 305.361 69.5513 304.981 69.5711V69.5733Z" fill="white"/>
<path id="Vector_71" d="M182.147 92.7308C182.069 92.6603 181.908 92.5832 181.933 92.5237C181.991 92.3783 182.26 92.3276 182.542 92.3981C182.63 92.4202 182.674 92.5568 182.611 92.603C182.523 92.6647 182.308 92.6912 182.147 92.733V92.7308Z" fill="white"/>
<path id="Vector_72" d="M76.9709 45.5279C77.166 45.4287 77.3659 45.3296 77.5609 45.2305C77.7755 45.2371 77.9852 45.2437 78.1997 45.2525C78.1802 45.4332 78.1607 45.6138 78.1412 45.7967C77.6536 45.7901 77.1952 45.7636 76.9709 45.5279Z" fill="white"/>
<path id="Vector_73" d="M6.80099 34.0429C6.85463 33.8645 6.90827 33.6882 6.95703 33.5098C7.07406 33.5274 7.19596 33.5274 7.31299 33.5076C7.55681 33.6045 7.8055 33.6992 8.04932 33.7962C8.03469 33.8601 8.03468 33.9262 8.04444 33.9901C7.64458 34.0121 7.23986 34.0341 6.84001 34.0562L6.80099 34.0429Z" fill="white"/>
<path id="Vector_74" d="M76.9759 52.0911C77.0003 52.1814 77.0003 52.2717 76.9711 52.3621C76.5858 52.3621 76.4054 52.4546 76.4005 52.6242C76.3176 52.6573 76.2299 52.6903 76.1421 52.7234C76.0202 52.6859 75.8836 52.6617 75.7422 52.6485C75.7568 52.4876 75.7764 52.329 75.791 52.1682C76.186 52.1417 76.5761 52.1131 76.9711 52.0867L76.9808 52.0933L76.9759 52.0911Z" fill="white"/>
<path id="Vector_75" d="M175.769 11.8792C175.954 11.8748 176.139 11.8748 176.325 11.8748C176.524 11.9717 176.72 12.0686 176.919 12.1656L176.895 12.1568L176.88 12.2823L176.89 12.4079H176.924C176.524 12.4123 176.125 12.4145 175.725 12.4167C175.744 12.2361 175.759 12.0554 175.769 11.8748V11.8792Z" fill="white"/>
<path id="Vector_76" d="M74.4747 84.9316C74.7136 85.1035 75.1866 85.2203 75.1183 85.467C74.2406 85.5052 73.8716 85.3304 74.0114 84.9427C74.1674 84.9625 74.3235 84.9581 74.4747 84.9316Z" fill="white"/>
<path id="Vector_77" d="M172.717 77.2028C172.551 77.1654 172.302 77.1477 172.244 77.0883C172.19 77.0332 172.332 76.9384 172.39 76.8591C172.556 76.9032 172.756 76.9318 172.873 76.9935C173.048 77.0816 172.97 77.1632 172.717 77.2028Z" fill="white"/>
<path id="Vector_78" d="M284.838 77.7954C285.062 77.8946 285.291 77.9915 285.516 78.0906C285.496 78.181 285.481 78.2691 285.472 78.3594H284.838C284.638 78.2713 284.438 78.1832 284.238 78.095L284.219 78.0862C284.428 77.9893 284.633 77.8923 284.843 77.7954H284.838Z" fill="white"/>
<path id="Vector_79" d="M283.608 -0.432116C283.384 -0.255863 283.164 -0.0796102 282.94 0.0944397C282.818 0.0657986 282.696 0.0635945 282.57 0.0900325C282.511 -0.0862206 282.457 -0.26027 282.399 -0.436523C282.804 -0.432117 283.208 -0.427711 283.613 -0.423305L283.603 -0.429914L283.608 -0.432116Z" fill="white"/>
<path id="Vector_80" d="M167.207 107.087C167.607 107.221 167.997 107.393 167.402 107.565C167.061 107.664 166.715 107.521 166.573 107.344C166.783 107.259 166.998 107.173 167.207 107.087Z" fill="white"/>
<path id="Vector_81" d="M15.9098 29.9207C15.7391 29.9119 15.5733 29.9141 15.4026 29.9295C15.2125 29.8017 15.0272 29.6739 14.837 29.5462C15.0223 29.4823 15.2076 29.4206 15.3929 29.3567C15.5928 29.3655 15.7927 29.3743 15.9927 29.3875V29.3853C15.9634 29.5638 15.9341 29.7422 15.9098 29.9207Z" fill="white"/>
<path id="Vector_82" d="M161.726 41.699C162.106 41.7959 162.379 41.9457 162.033 42.1088C161.682 42.274 161.341 42.1484 161.106 41.9898C161.311 41.8928 161.521 41.7959 161.726 41.699Z" fill="white"/>
<path id="Vector_83" d="M47.645 35.4133L47.7376 34.8669C48.3862 35.0718 48.4837 35.2591 47.645 35.4133Z" fill="white"/>
<path id="Vector_84" d="M48.3616 93.123C48.3616 92.9754 48.4445 92.8256 48.8492 92.8696C49.3368 92.9203 49.1271 93.0481 48.9126 93.1561C48.7321 93.1384 48.5469 93.1274 48.3616 93.123Z" fill="white"/>
<path id="Vector_85" d="M347.653 48.5484C348.053 48.5484 348.448 48.544 348.848 48.5417C348.868 48.6321 348.873 48.7224 348.853 48.8127C348.639 48.8127 348.424 48.8127 348.205 48.8127C348.019 48.8193 347.834 48.8127 347.653 48.7863V48.6673V48.5484Z" fill="white"/>
<path id="Vector_86" d="M342.772 47.4403C342.763 47.621 342.758 47.8038 342.748 47.9845C342.573 47.9845 342.397 47.9845 342.221 47.9801C342.202 47.7994 342.182 47.621 342.163 47.4403C342.368 47.4359 342.568 47.4359 342.772 47.4403Z" fill="white"/>
<path id="Vector_87" d="M341.524 22.0027C341.529 22.1834 341.538 22.364 341.548 22.5469C341.338 22.5469 341.124 22.5469 340.914 22.5469C340.943 22.3662 340.973 22.1856 341.002 22.0049C341.178 22.0049 341.353 22.0027 341.529 22.0005L341.524 22.0027Z" fill="white"/>
<path id="Vector_88" d="M54.3835 7.47701C53.9788 7.49023 53.5741 7.50124 53.1694 7.51446C53.1694 7.41532 53.1742 7.31838 53.1791 7.21924C53.5838 7.23025 53.9837 7.24347 54.3835 7.25449C54.3738 7.3294 54.3738 7.4021 54.3835 7.47701Z" fill="white"/>
<path id="Vector_89" d="M336.77 42.8997C337.15 42.8601 337.525 42.8182 337.906 42.7786C337.959 43.4131 337.208 42.968 336.774 42.9504V42.8997H336.77Z" fill="white"/>
<path id="Vector_90" d="M334.805 63.0431C334.732 63.2083 334.659 63.3736 334.586 63.5388L334.512 63.5542C334.434 63.3846 334.361 63.2149 334.288 63.0453C334.464 63.0409 334.634 63.0409 334.81 63.0453L334.805 63.0431Z" fill="white"/>
<path id="Vector_91" d="M326.354 62.6774C326.802 62.543 327.261 62.3844 327.524 62.7612C327.134 62.7325 326.744 62.7039 326.354 62.6774Z" fill="white"/>
<path id="Vector_92" d="M322.063 9.43364C322.56 9.41822 323.038 9.41822 323.233 9.6826C322.756 9.6826 322.292 9.66717 322.063 9.43364Z" fill="white"/>
<path id="Vector_93" d="M317.694 32.4082C317.723 32.5867 317.757 32.7651 317.787 32.9436H317.133C317.167 32.7629 317.201 32.5823 317.236 32.4016C317.387 32.4082 317.538 32.4104 317.694 32.4082Z" fill="white"/>
<path id="Vector_94" d="M314.1 46.0764C314.1 46.2593 314.11 46.4399 314.11 46.6206H313.496C313.51 46.4399 313.52 46.2571 313.53 46.0764C313.72 46.0764 313.91 46.0764 314.095 46.0764H314.1Z" fill="white"/>
<path id="Vector_95" d="M306.8 73.9619C307.244 73.6689 307.659 73.605 308.015 73.9928C307.61 73.9818 307.205 73.973 306.8 73.9619Z" fill="white"/>
<path id="Vector_96" d="M304.274 28.0305C304.245 28.2288 304.006 28.339 303.572 28.3015C303.284 28.2773 303.167 28.1561 303.172 28.0239C303.538 28.0239 303.904 28.0283 304.274 28.0305Z" fill="white"/>
<path id="Vector_97" d="M298.16 53.479L298.243 54.0056C298.028 54.0056 297.818 54.01 297.604 54.01C297.648 53.8293 297.692 53.6509 297.74 53.4702C297.877 53.479 298.018 53.4812 298.16 53.479Z" fill="white"/>
<path id="Vector_98" d="M290.942 30.207C290.908 30.3811 290.874 30.5573 290.84 30.7314C290.703 30.7314 290.567 30.7336 290.43 30.7424L290.304 30.2048C290.518 30.2048 290.733 30.2048 290.947 30.2048L290.942 30.207Z" fill="white"/>
<path id="Vector_99" d="M289.084 27.7505C289.099 27.9311 289.109 28.1118 289.123 28.2925C288.923 28.2969 288.723 28.2947 288.519 28.2903C288.538 28.1118 288.558 27.9311 288.577 27.7527C288.748 27.7527 288.914 27.7527 289.084 27.7527V27.7505Z" fill="white"/>
<path id="Vector_100" d="M286.066 36.7727C286.471 36.7727 286.876 36.7727 287.281 36.7749C287.281 36.8608 287.281 36.9468 287.281 37.0327C286.876 37.0349 286.471 37.0371 286.071 37.0415V36.9071V36.7727H286.066Z" fill="white"/>
<path id="Vector_101" d="M286.681 78.906C286.686 78.9985 286.695 79.0911 286.705 79.1858C286.291 79.1836 285.876 79.1814 285.462 79.1792C285.442 79.0889 285.462 79.0007 285.525 78.9148C285.91 78.9126 286.295 78.9082 286.686 78.906H286.681Z" fill="white"/>
<path id="Vector_102" d="M281.804 80.2786C282.209 80.2786 282.614 80.2742 283.019 80.272C282.624 80.587 282.214 80.5826 281.804 80.2786Z" fill="white"/>
<path id="Vector_103" d="M280.615 26.0984C280.561 26.2724 280.502 26.4465 280.449 26.6227C280.337 26.6161 280.224 26.6183 280.112 26.6338L279.917 26.1006C280.151 26.1006 280.38 26.1006 280.615 26.0984Z" fill="white"/>
<path id="Vector_104" d="M273.261 15.7036C273.666 15.7058 274.071 15.7102 274.47 15.7124C274.056 16.0077 273.651 16.0165 273.261 15.7036Z" fill="white"/>
<path id="Vector_105" d="M274.455 105.452C274.382 105.835 273.817 105.756 273.28 105.703C273.334 105.54 273.587 105.461 273.89 105.397C274.08 105.421 274.275 105.441 274.475 105.456L274.46 105.45L274.455 105.452Z" fill="white"/>
<path id="Vector_106" d="M62.2053 7.66211C61.8396 7.69956 61.4739 7.73481 61.1082 7.77227C61.2154 7.35587 61.7616 7.56297 62.2004 7.61584V7.66211H62.2053Z" fill="white"/>
<path id="Vector_107" d="M267.224 56.7487C266.81 56.7399 266.395 56.7311 265.976 56.7223C266.425 56.4314 266.839 56.4381 267.224 56.7487Z" fill="white"/>
<path id="Vector_108" d="M266.341 119.44C266.424 119.642 266.839 119.898 265.946 119.949V119.946C266.024 119.772 266.102 119.601 266.185 119.427L266.341 119.44Z" fill="white"/>
<path id="Vector_109" d="M259.285 6.71914C259.68 6.70151 260.075 6.68389 260.47 6.66626L260.485 6.67287C260.495 6.7654 260.5 6.86014 260.509 6.95267L260.47 6.9725C260.07 6.95047 259.671 6.92844 259.271 6.90641C259.29 6.84472 259.295 6.78083 259.29 6.71914H259.285Z" fill="white"/>
<path id="Vector_110" d="M64.1854 93.947C64.1756 93.7663 64.161 93.5857 64.1512 93.405H64.79C64.7657 93.5857 64.7413 93.7663 64.7169 93.947C64.5414 93.947 64.3609 93.947 64.1854 93.947Z" fill="white"/>
<path id="Vector_111" d="M254.985 118.865C255.375 118.871 255.77 118.88 256.16 118.887C256.16 118.959 256.17 119.03 256.184 119.103C255.78 119.123 255.37 119.142 254.965 119.16C254.97 119.061 254.98 118.962 254.985 118.863V118.865Z" fill="white"/>
<path id="Vector_112" d="M253.76 28.2903C253.76 28.4731 253.756 28.656 253.751 28.8367C253.561 28.8367 253.37 28.8367 253.18 28.8345L253.151 28.2925C253.356 28.2925 253.556 28.2925 253.76 28.2925V28.2903Z" fill="white"/>
<path id="Vector_113" d="M243.403 15.1707H244.598C244.198 15.4923 243.803 15.4923 243.403 15.1707Z" fill="white"/>
<path id="Vector_114" d="M242.253 17.334C242.209 17.2503 242.17 17.1666 242.121 17.0829C242.038 16.9331 242.243 16.8493 242.467 16.7678C242.599 16.8714 242.775 16.9705 242.848 17.0807C242.896 17.1556 242.804 17.2481 242.77 17.3318C242.594 17.3208 242.423 17.3208 242.248 17.3318L242.253 17.334Z" fill="white"/>
<path id="Vector_115" d="M233.631 48.8105C233.631 48.9934 233.631 49.1741 233.631 49.3547C233.436 49.3547 233.246 49.3547 233.056 49.3547C233.051 49.1741 233.046 48.9912 233.041 48.8105C233.241 48.8105 233.441 48.8105 233.636 48.8105H233.631Z" fill="white"/>
<path id="Vector_116" d="M231.807 93.9492C232.207 93.9558 232.612 93.9646 233.012 93.9713C233.002 94.0396 232.997 94.1079 233.002 94.1762C232.607 94.1916 232.207 94.2092 231.812 94.2246C231.812 94.1321 231.812 94.0418 231.802 93.9492H231.807Z" fill="white"/>
<path id="Vector_117" d="M68.4321 80.556C68.0274 80.5472 67.6227 80.5405 67.2179 80.5317C67.6519 80.2255 68.0615 80.188 68.4321 80.556Z" fill="white"/>
<path id="Vector_118" d="M68.0234 77.2226C67.9649 77.0551 67.9064 76.8899 67.8527 76.7224C68.0283 76.718 68.2087 76.7158 68.3843 76.7224C68.316 76.8943 68.2526 77.0639 68.1843 77.2358L68.0283 77.2226H68.0234Z" fill="white"/>
<path id="Vector_119" d="M229.472 13.0819C229.642 13.0466 229.818 13.0114 229.989 12.9761C230.325 12.9034 230.608 13.0025 230.608 13.1083C230.608 13.2118 230.33 13.311 229.994 13.2339C229.823 13.1942 229.647 13.1634 229.477 13.1281V13.0819H229.472Z" fill="white"/>
<path id="Vector_120" d="M228.886 48.8967C229.252 48.8681 229.613 48.8394 229.979 48.8108C229.998 48.9011 229.979 48.9892 229.915 49.0774C229.515 49.084 229.164 49.0311 228.886 48.8967Z" fill="white"/>
<path id="Vector_121" d="M228.141 20.6322C228.136 20.8129 228.126 20.9913 228.121 21.172C227.955 21.172 227.785 21.1698 227.619 21.1698C227.609 20.9913 227.599 20.8129 227.59 20.6366C227.77 20.63 227.955 20.63 228.136 20.6344L228.141 20.6322Z" fill="white"/>
<path id="Vector_122" d="M226.931 102.713C227.131 102.442 227.633 102.449 228.131 102.449L228.121 102.444C228.121 102.524 228.126 102.601 228.136 102.68C227.736 102.691 227.331 102.702 226.931 102.713Z" fill="white"/>
<path id="Vector_123" d="M227.517 112.288C227.522 112.469 227.527 112.649 227.531 112.83C227.332 112.834 227.132 112.834 226.932 112.83C226.946 112.649 226.961 112.469 226.971 112.286C227.151 112.286 227.332 112.286 227.512 112.286L227.517 112.288Z" fill="white"/>
<path id="Vector_124" d="M225.112 58.6678C225.517 58.6655 225.917 58.6611 226.322 58.6589C225.932 59.007 225.527 59.0048 225.112 58.6678Z" fill="white"/>
<path id="Vector_125" d="M223.391 58.9121C223.518 58.6191 223.986 58.6103 224.503 58.6456C224.4 58.9628 223.869 58.9165 223.391 58.9121Z" fill="white"/>
<path id="Vector_126" d="M222.056 16.5277C222.455 16.184 222.865 16.1928 223.275 16.5233C222.87 16.5233 222.46 16.5255 222.056 16.5277Z" fill="white"/>
<path id="Vector_127" d="M211.128 64.1799C211.474 64.1733 212.078 64.0323 212.098 64.2174C212.137 64.5655 211.479 64.3231 211.128 64.3518V64.2658V64.1799Z" fill="white"/>
<path id="Vector_128" d="M208.664 29.1319C209.064 29.1253 209.464 29.1209 209.859 29.1143C209.489 29.4932 209.084 29.4359 208.664 29.1319Z" fill="white"/>
<path id="Vector_129" d="M204.325 51.5559C204.339 51.7366 204.359 51.915 204.374 52.0957C204.169 52.0957 203.964 52.0957 203.759 52.0957C203.774 51.915 203.783 51.7344 203.803 51.5537C203.979 51.5537 204.154 51.5537 204.325 51.5559Z" fill="white"/>
<path id="Vector_130" d="M195.841 21.7249C196.245 21.7249 196.65 21.7249 197.055 21.7271C197.055 21.813 197.055 21.9011 197.055 21.987C196.65 21.9914 196.245 21.998 195.836 22.0025C195.836 21.9099 195.836 21.8174 195.836 21.7249H195.841Z" fill="white"/>
<path id="Vector_131" d="M193.793 62.2654C193.861 62.4307 193.929 62.5959 193.992 62.7611C193.817 62.7611 193.646 62.7589 193.471 62.7567C193.534 62.5871 193.593 62.4152 193.656 62.2456L193.793 62.2654Z" fill="white"/>
<path id="Vector_132" d="M190.95 81.3711L190.964 81.9153C190.76 81.9153 190.555 81.9153 190.35 81.9153C190.355 81.7324 190.36 81.5518 190.365 81.3689C190.56 81.3689 190.755 81.3689 190.95 81.3689V81.3711Z" fill="white"/>
<path id="Vector_133" d="M188.516 81.9067C188.892 81.9156 189.272 81.9222 189.648 81.931C189.243 82.224 188.858 82.2791 188.516 81.9067Z" fill="white"/>
<path id="Vector_134" d="M184.864 82.4727C185.201 82.0784 185.62 82.1709 186.074 82.4287C185.669 82.4441 185.269 82.4573 184.864 82.4727Z" fill="white"/>
<path id="Vector_135" d="M184.834 63.3163C184.878 63.4815 184.917 63.7282 184.507 63.7194C184.171 63.7128 184.195 63.4506 184.239 63.2832C184.434 63.303 184.634 63.314 184.834 63.3185V63.3163Z" fill="white"/>
<path id="Vector_136" d="M182.425 65.2244C182.796 64.8939 183.205 64.9314 183.63 65.2024C183.23 65.209 182.825 65.2178 182.425 65.2244Z" fill="white"/>
<path id="Vector_137" d="M183.649 79.4524C183.644 79.6331 183.639 79.8159 183.635 79.9966C183.454 79.9966 183.274 79.9966 183.093 79.9922C183.069 79.8115 183.04 79.6309 183.015 79.4502C183.225 79.4502 183.439 79.4502 183.649 79.4502V79.4524Z" fill="white"/>
<path id="Vector_138" d="M180.695 10.6278C181.065 10.5903 181.436 10.5528 181.802 10.5176L181.792 10.511L181.816 10.6454V10.782C181.372 10.8371 181.026 10.7313 180.665 10.6498L180.695 10.6278Z" fill="white"/>
<path id="Vector_139" d="M173.258 12.4056C172.854 12.4122 172.444 12.4188 172.039 12.4254C172.424 12.1258 172.829 12.1126 173.258 12.4056Z" fill="white"/>
<path id="Vector_140" d="M173.175 79.47C172.78 79.7873 172.404 79.8005 172.063 79.4524C172.434 79.459 172.804 79.4656 173.175 79.47Z" fill="white"/>
<path id="Vector_141" d="M172.054 4.48753C171.854 4.49414 171.659 4.49414 171.459 4.48753C171.474 4.30688 171.493 4.12622 171.508 3.94556C171.712 4.03589 171.912 4.12842 172.117 4.21875C172.093 4.30688 172.073 4.39721 172.049 4.48533L172.054 4.48753Z" fill="white"/>
<path id="Vector_142" d="M168.504 47.2904C168.943 47.2309 169.498 46.993 169.601 47.438L169.615 47.4314C169.235 47.3918 168.86 47.3499 168.479 47.3102L168.504 47.2904Z" fill="white"/>
<path id="Vector_143" d="M168.952 9.15138L169.001 9.68455C168.806 9.69556 168.606 9.69556 168.411 9.68455C168.44 9.50609 168.469 9.32763 168.498 9.14697C168.65 9.14918 168.801 9.14918 168.952 9.14697V9.15138Z" fill="white"/>
<path id="Vector_144" d="M167.875 60.0579C168.255 60.0491 168.63 60.0403 169.011 60.0337C169.016 60.1306 169.021 60.2254 169.025 60.3223C168.469 60.3884 167.992 60.384 167.875 60.0601V60.0579Z" fill="white"/>
<path id="Vector_145" d="M169.006 90.3977C169.006 90.5784 169.001 90.759 168.996 90.9397C168.811 90.9397 168.625 90.9419 168.435 90.9397C168.42 90.759 168.406 90.5762 168.391 90.3933C168.596 90.3933 168.801 90.3933 169.001 90.3955L169.006 90.3977Z" fill="white"/>
<path id="Vector_146" d="M168.328 31.042C168.357 31.2205 168.386 31.3989 168.416 31.5752C168.211 31.5752 168.001 31.5752 167.796 31.5752C167.83 31.3967 167.869 31.2183 167.904 31.0398C168.045 31.0464 168.186 31.0464 168.333 31.042H168.328Z" fill="white"/>
<path id="Vector_147" d="M166.587 106.243C166.568 106.43 166.548 106.615 166.529 106.803C166.368 106.8 166.207 106.8 166.046 106.803C166.027 106.624 166.012 106.446 165.992 106.267C166.188 106.261 166.387 106.254 166.587 106.243Z" fill="white"/>
<path id="Vector_148" d="M162.925 21.7119C163.34 21.4233 163.745 21.4078 164.135 21.7207C163.73 21.7185 163.325 21.7141 162.925 21.7119Z" fill="white"/>
<path id="Vector_149" d="M164.139 56.471C163.72 56.4599 163.3 56.4489 162.881 56.4379C162.901 56.3674 162.901 56.2991 162.881 56.2286C163.3 56.2176 163.72 56.2066 164.139 56.1956C164.139 56.2881 164.139 56.3784 164.139 56.471Z" fill="white"/>
<path id="Vector_150" d="M161.696 17.072C162.096 17.0786 162.501 17.083 162.9 17.0918C162.9 17.1668 162.9 17.2417 162.9 17.3166C162.501 17.3276 162.101 17.3408 161.696 17.3518C161.696 17.2593 161.696 17.1646 161.696 17.072Z" fill="white"/>
<path id="Vector_151" d="M161.701 80.0029C162.106 80.0029 162.505 80.0051 162.91 80.0073C162.91 80.0889 162.91 80.1682 162.91 80.2497L161.711 80.2607V80.1329V80.0051L161.701 80.0029Z" fill="white"/>
<path id="Vector_152" d="M161.092 110.916C161.092 111.098 161.082 111.279 161.077 111.462C160.882 111.462 160.692 111.462 160.497 111.462C160.497 111.281 160.487 111.098 160.487 110.918C160.687 110.916 160.892 110.916 161.092 110.918V110.916Z" fill="white"/>
<path id="Vector_153" d="M157.41 25.5586C157.381 25.7327 157.351 25.9067 157.317 26.0808C157.171 26.0808 157.025 26.0852 156.878 26.0962C156.835 25.9133 156.791 25.7327 156.752 25.552C156.971 25.552 157.19 25.5564 157.41 25.5586Z" fill="white"/>
<path id="Vector_154" d="M79.4041 29.1168C79.0188 29.097 78.6336 29.0793 78.2484 29.0595C78.6921 28.8458 79.1017 28.7643 79.4041 29.1168Z" fill="white"/>
<path id="Vector_155" d="M143.468 46.4049C143.858 46.3851 144.244 46.3653 144.634 46.3455V46.3477C144.634 46.4402 144.634 46.5327 144.639 46.6231V46.6253C144.239 46.6032 143.844 46.579 143.449 46.557L143.473 46.4821V46.4049H143.468Z" fill="white"/>
<path id="Vector_156" d="M142.791 24.4614C142.791 24.6443 142.796 24.8249 142.801 25.0056C142.606 25.0056 142.406 25.0056 142.211 25.0056C142.216 24.8249 142.225 24.6443 142.23 24.4636C142.416 24.4636 142.606 24.4614 142.796 24.4636L142.791 24.4614Z" fill="white"/>
<path id="Vector_157" d="M139.187 107.115C139.733 107.21 139.826 107.404 139.763 107.635C139.538 107.635 139.314 107.639 139.09 107.642C139.129 107.459 139.163 107.278 139.202 107.095L139.187 107.115Z" fill="white"/>
<path id="Vector_158" d="M81.2235 41.9721C81.2528 41.7937 81.282 41.6174 81.3113 41.439C81.4527 41.4456 81.5893 41.4456 81.7307 41.4368C81.7746 41.6152 81.8184 41.7959 81.8623 41.9743L81.8428 41.9809C81.638 41.9809 81.4283 41.9765 81.2235 41.9743V41.9721Z" fill="white"/>
<path id="Vector_159" d="M137.32 13.234C137.739 12.941 138.144 12.9234 138.534 13.2451C138.129 13.2406 137.724 13.2384 137.32 13.234Z" fill="white"/>
<path id="Vector_160" d="M81.8715 11.0464C81.852 10.8657 81.8374 10.6851 81.8179 10.5044C82.5883 10.6696 82.5249 10.8525 81.8715 11.0464Z" fill="white"/>
<path id="Vector_161" d="M82.1004 8.53903C82.0468 8.41345 81.9152 8.28126 81.9639 8.16449C82.0224 8.0345 82.3199 8.03671 82.3638 8.16889C82.4028 8.28566 82.2516 8.41565 82.1882 8.53903H82.1053H82.1004Z" fill="white"/>
<path id="Vector_162" d="M132.497 19.3083C132.887 19.2906 133.277 19.2708 133.667 19.2532L133.677 19.2598C133.667 19.3523 133.663 19.4426 133.653 19.5352C133.18 19.5484 132.751 19.5176 132.502 19.3083H132.497Z" fill="white"/>
<path id="Vector_163" d="M133.019 17.6248C133.014 17.8032 133.009 17.9817 133.004 18.1602C132.839 18.1624 132.668 18.1624 132.502 18.1602C132.492 17.9817 132.483 17.801 132.468 17.6226C132.653 17.616 132.834 17.6182 133.019 17.6226V17.6248Z" fill="white"/>
<path id="Vector_164" d="M133.063 74.2505C133.034 74.4201 133.009 74.592 132.98 74.7616C132.463 74.6647 132.366 74.4708 132.395 74.2483C132.619 74.2483 132.844 74.2483 133.063 74.2505Z" fill="white"/>
<path id="Vector_165" d="M128.099 15.9922C128.153 16.1574 128.216 16.4218 127.855 16.4196C127.485 16.4174 127.568 16.1574 127.631 15.9922C127.787 15.9922 127.948 15.9922 128.104 15.9922H128.099Z" fill="white"/>
<path id="Vector_166" d="M123.949 29.694C124.344 29.6764 124.739 29.6587 125.134 29.6411C124.812 29.998 124.403 29.954 123.949 29.694Z" fill="white"/>
<path id="Vector_167" d="M122.676 75.3433C123.076 75.3521 123.476 75.3587 123.876 75.3675C123.447 75.6473 123.047 75.6649 122.676 75.3433Z" fill="white"/>
<path id="Vector_168" d="M119.044 36.1865C119.502 35.9508 119.941 35.8274 120.248 36.2438C119.848 36.224 119.444 36.2063 119.044 36.1865Z" fill="white"/>
<path id="Vector_169" d="M116.99 57.3325C117.176 57.5418 117.546 57.782 116.615 57.8194L116.634 57.8305C116.703 57.6608 116.776 57.4934 116.844 57.3237L116.986 57.3325H116.99Z" fill="white"/>
<path id="Vector_170" d="M111.071 101.345C111.081 101.526 111.09 101.707 111.095 101.887C110.383 101.713 110.398 101.532 111.071 101.345Z" fill="white"/>
<path id="Vector_171" d="M109.062 56.2376C109.116 56.3213 109.16 56.405 109.223 56.4865C109.345 56.6518 109.169 56.7156 108.838 56.6892C108.589 56.6694 108.565 56.5835 108.682 56.4821C108.769 56.4072 108.804 56.3191 108.862 56.2354H109.057L109.062 56.2376Z" fill="white"/>
<path id="Vector_172" d="M108.043 38.6914C108.053 38.7839 108.057 38.8765 108.067 38.969C107.857 38.9932 107.643 39.0153 107.433 39.0395C107.253 38.9227 107.068 38.806 106.887 38.6892C107.272 38.6892 107.658 38.6892 108.043 38.6914Z" fill="white"/>
<path id="Vector_173" d="M94.6138 96.6612C94.2285 96.6876 93.6141 96.7096 93.6141 96.551C93.6141 96.3946 94.2285 96.4166 94.6138 96.443C94.6187 96.5157 94.6187 96.5884 94.6138 96.6612Z" fill="white"/>
<path id="Vector_174" d="M92.1896 95.597C92.136 95.7336 92.37 95.9495 91.7946 95.9407C91.7215 95.9407 91.6679 95.7182 91.6045 95.597C91.7995 95.5904 91.9945 95.5904 92.1896 95.597Z" fill="white"/>
<path id="Vector_175" d="M88.5324 71.2302C88.9322 71.2434 89.3321 71.2589 89.7319 71.2721C89.2833 71.5409 88.8688 71.6158 88.5324 71.2302Z" fill="white"/>
<path id="Vector_176" d="M88.5617 87.4099C88.9566 87.4055 89.3565 87.4011 89.7515 87.3967C89.7661 87.4827 89.7661 87.5686 89.7515 87.6567C89.3516 87.6567 88.9518 87.6567 88.5519 87.6567V87.5333V87.4099H88.5617Z" fill="white"/>
<path id="Vector_177" d="M85.5772 48.0747C85.9527 48.046 86.3281 48.0196 86.7036 47.9932C86.6158 48.4118 86.0356 48.2047 85.587 48.1694L85.5772 48.0769V48.0747Z" fill="white"/>
<path id="Vector_178" d="M14.7744 40.6016C14.3795 40.5906 13.9845 40.5773 13.5944 40.5663C13.5944 40.5024 13.5944 40.4363 13.5798 40.3724L14.7744 40.324L14.7842 40.3284C14.7793 40.4209 14.7744 40.5112 14.7696 40.6038L14.7744 40.6016Z" fill="white"/>
<path id="Vector_179" d="M20.221 35.6731C19.6212 35.4814 19.5335 35.2985 20.2747 35.1311C20.26 35.3118 20.2405 35.4924 20.221 35.6731Z" fill="white"/>
<path id="Vector_180" d="M22.7078 42.5274C22.3177 42.5054 21.9325 42.4833 21.5424 42.4591V42.3798L21.5179 42.3027C21.9129 42.2785 22.3079 42.2542 22.7078 42.23C22.7078 42.3291 22.7078 42.4283 22.7078 42.5274Z" fill="white"/>
<path id="Vector_181" d="M23.8392 52.2939C23.4637 52.3159 23.0833 52.338 22.7078 52.3622C22.7078 52.2829 22.7127 52.2036 22.7176 52.1243C23.1028 52.1441 23.4832 52.1661 23.8684 52.186L23.8392 52.2939Z" fill="white"/>
<path id="Vector_182" d="M24.5022 29.1055C23.8586 28.9182 23.8342 28.7375 24.5315 28.5635C24.5217 28.7441 24.512 28.9248 24.5022 29.1055Z" fill="white"/>
<path id="Vector_183" d="M25.1162 56.4756C25.0674 56.8766 24.4677 56.7686 23.9459 56.7312L23.9605 56.74C23.9605 56.654 23.98 56.5703 24.0288 56.4888C24.3897 56.4844 24.7554 56.48 25.1162 56.4756Z" fill="white"/>
<path id="Vector_184" d="M28.1394 6.08241C27.7444 6.10444 27.3495 6.12427 26.9545 6.1463C26.9545 6.04715 26.9594 5.95022 26.9642 5.85107C27.3592 5.87311 27.7542 5.89293 28.1492 5.91276C28.1248 5.96784 28.1199 6.02292 28.1345 6.0802L28.1394 6.08241Z" fill="white"/>
<path id="Vector_185" d="M37.3072 64.1137C36.9366 64.0895 36.5709 64.0653 36.2003 64.041L36.1661 63.9463C36.5562 63.9133 36.9463 63.8802 37.3364 63.8472L37.3462 63.8538C37.3413 63.9441 37.3218 64.0322 37.2926 64.1204L37.3072 64.1115V64.1137Z" fill="white"/>
<path id="Vector_186" d="M37.868 9.34329C37.4876 9.36532 37.1073 9.38515 36.7318 9.40718V9.2794V9.15161C37.1268 9.16703 37.5169 9.18466 37.9119 9.20008C37.8631 9.24414 37.8485 9.29261 37.868 9.34108V9.34329Z" fill="white"/>
<path id="Vector_187" d="M42.1638 10.7466C41.7688 10.762 41.3739 10.7774 40.9838 10.7929C41.3105 10.4381 41.7201 10.4888 42.1638 10.7466Z" fill="white"/>
<path id="Vector_188" d="M42.7883 39.2402C42.7347 39.6346 42.1739 39.5707 41.6083 39.5024C41.7789 39.2138 42.2958 39.2358 42.7883 39.2402Z" fill="white"/>
<path id="Vector_189" d="M361 47.1781C360.941 47.244 360.907 47.3603 360.824 47.3691C360.483 47.4042 360.464 47.2856 360.468 47.1737C360.644 47.1715 360.824 47.1737 361 47.1781Z" fill="white"/>
<path id="Vector_190" d="M353.749 71.7896C353.744 71.9746 353.534 72.0694 353.12 72.0716C353.169 71.9063 353.378 71.8116 353.749 71.7896Z" fill="white"/>
<path id="Vector_191" d="M349.478 58.932C349.463 58.813 349.478 58.6896 349.838 58.7249C349.926 58.7337 349.965 58.8549 350.024 58.9254C349.843 58.9298 349.658 58.932 349.478 58.932Z" fill="white"/>
<path id="Vector_192" d="M345.196 79.1726C344.781 79.1814 344.577 79.0955 344.596 78.9082C344.962 78.9214 345.162 79.0096 345.196 79.1726Z" fill="white"/>
<path id="Vector_193" d="M343.318 26.6578C343.367 26.7416 343.382 26.8275 343.357 26.9134C342.977 26.909 342.767 26.8275 342.782 26.649C342.962 26.6468 343.143 26.649 343.318 26.6556V26.6578Z" fill="white"/>
<path id="Vector_194" d="M332.44 72.0583C332.455 71.9504 332.44 71.8182 332.796 71.8556C332.884 71.8644 332.913 71.9878 332.967 72.0583C332.791 72.0649 332.616 72.0649 332.44 72.0583Z" fill="white"/>
<path id="Vector_195" d="M329.373 67.6851C329.407 67.8877 329.187 67.9781 328.744 67.9649C328.778 67.793 328.992 67.7005 329.373 67.6851Z" fill="white"/>
<path id="Vector_196" d="M328.744 27.7439C328.407 27.713 328.212 27.6227 328.144 27.4729C328.471 27.5059 328.671 27.5985 328.744 27.7439Z" fill="white"/>
<path id="Vector_197" d="M328.739 36.2261C328.748 36.3517 328.748 36.4905 328.354 36.453C328.261 36.4442 328.227 36.3076 328.168 36.2305C328.358 36.2283 328.549 36.2261 328.739 36.2261Z" fill="white"/>
<path id="Vector_198" d="M321.395 59.2118C321.337 59.2867 321.307 59.4167 321.219 59.4255C320.844 59.463 320.844 59.3286 320.839 59.2096C321.024 59.2052 321.21 59.2052 321.395 59.2096V59.2118Z" fill="white"/>
<path id="Vector_199" d="M298.262 41.6987C298.462 41.6987 298.667 41.6965 298.866 41.6987C298.871 41.7891 298.871 41.8816 298.866 41.9719C298.676 41.9719 298.491 41.9719 298.301 41.9675C298.272 41.8794 298.267 41.7913 298.281 41.7031H298.257L298.262 41.6987Z" fill="white"/>
<path id="Vector_200" d="M286.656 79.4545C286.656 79.3575 286.656 79.2606 286.656 79.1658C287.094 79.1592 287.285 79.2562 287.255 79.4478C287.055 79.4478 286.86 79.4523 286.66 79.4567L286.656 79.4545Z" fill="white"/>
<path id="Vector_201" d="M286.057 35.6843C286.066 35.7725 286.057 35.8584 286.027 35.9443C285.847 35.9487 285.667 35.9509 285.486 35.9465C285.53 35.7945 285.725 35.7086 286.062 35.6821L286.057 35.6843Z" fill="white"/>
<path id="Vector_202" d="M281.77 15.7103C281.712 15.7874 281.682 15.9218 281.595 15.9307C281.205 15.9703 281.214 15.8293 281.209 15.7103C281.395 15.7059 281.58 15.7059 281.77 15.7103Z" fill="white"/>
<path id="Vector_203" d="M279.956 0.951327C279.97 1.03505 279.98 1.12097 279.975 1.20689C279.551 1.2135 279.351 1.12097 279.366 0.931498C279.566 0.927091 279.761 0.933702 279.956 0.951327Z" fill="white"/>
<path id="Vector_204" d="M276.899 32.6726C276.841 32.8202 276.65 32.9061 276.319 32.9326C276.392 32.7916 276.587 32.7057 276.899 32.6726Z" fill="white"/>
<path id="Vector_205" d="M269.033 2.84105C269.038 2.73569 269.053 2.61717 269.384 2.65229C269.467 2.66107 269.501 2.7752 269.555 2.83885C269.384 2.84544 269.209 2.84544 269.038 2.84105H269.033Z" fill="white"/>
<path id="Vector_206" d="M260.457 8.58518C260.071 8.58078 259.857 8.49706 259.847 8.3186C260.198 8.33843 260.403 8.42656 260.457 8.58518Z" fill="white"/>
<path id="Vector_207" d="M258.028 73.4332L258.281 73.2195L258.564 73.4222C258.384 73.4288 258.203 73.431 258.028 73.4332Z" fill="white"/>
<path id="Vector_208" d="M249.523 26.6439C249.523 26.5407 249.548 26.4288 249.86 26.4595C249.943 26.4683 249.977 26.5758 250.035 26.6373C249.865 26.6439 249.694 26.6461 249.523 26.6417V26.6439Z" fill="white"/>
<path id="Vector_209" d="M249.49 50.1787C249.694 50.1787 249.894 50.1787 250.099 50.1787C250.099 50.269 250.099 50.3616 250.099 50.4519C249.904 50.4519 249.714 50.4519 249.524 50.4497C249.49 50.3594 249.485 50.2712 249.494 50.1809L249.49 50.1787Z" fill="white"/>
<path id="Vector_210" d="M248.938 70.9604C248.996 70.8945 249.03 70.7804 249.118 70.7716C249.455 70.7387 249.484 70.8528 249.469 70.967C249.289 70.967 249.113 70.967 248.933 70.9604H248.938Z" fill="white"/>
<path id="Vector_211" d="M242.18 44.1663C242.599 44.1553 242.809 44.2434 242.789 44.4351C242.584 44.4351 242.389 44.4262 242.199 44.3998C242.184 44.3205 242.18 44.2434 242.184 44.1641L242.18 44.1663Z" fill="white"/>
<path id="Vector_212" d="M241.555 69.8772C241.497 70.0314 241.297 70.1239 240.951 70.1504C241.034 70.005 241.229 69.9124 241.555 69.8772Z" fill="white"/>
<path id="Vector_213" d="M237.323 0.105302C237.411 0.0348011 237.498 -0.0356999 237.586 -0.106201C237.674 -0.0356999 237.766 0.0325987 237.854 0.100897C237.679 0.105303 237.498 0.107505 237.323 0.103099V0.105302Z" fill="white"/>
<path id="Vector_214" d="M237.894 61.124C237.884 61.2981 237.684 61.3862 237.299 61.3928C237.299 61.3047 237.318 61.2166 237.367 61.1284C237.542 61.124 237.718 61.1218 237.898 61.1218L237.894 61.124Z" fill="white"/>
<path id="Vector_215" d="M236.054 76.9625C235.913 76.9383 235.659 76.925 235.645 76.8898C235.572 76.7444 235.84 76.7488 236.059 76.7422C236.074 76.8171 236.074 76.8898 236.059 76.9647L236.054 76.9625Z" fill="white"/>
<path id="Vector_216" d="M236.075 102.978C235.685 102.971 235.466 102.883 235.451 102.704C235.802 102.729 236.017 102.819 236.075 102.978Z" fill="white"/>
<path id="Vector_217" d="M234.236 16.2544C234.134 16.3535 234.036 16.4527 233.934 16.554C233.69 16.4835 233.592 16.3844 233.656 16.2566C233.851 16.2566 234.041 16.2544 234.236 16.2566V16.2544Z" fill="white"/>
<path id="Vector_218" d="M230.599 78.6394C230.994 78.6394 231.228 78.7165 231.208 78.9082C231.023 78.906 230.837 78.9016 230.652 78.8972C230.589 78.8113 230.574 78.7253 230.613 78.635L230.599 78.6394Z" fill="white"/>
<path id="Vector_219" d="M228.726 44.4373C228.726 44.5471 228.687 44.6568 228.37 44.6195C228.282 44.6107 228.253 44.501 228.194 44.4395C228.37 44.4329 228.545 44.4329 228.721 44.4395L228.726 44.4373Z" fill="white"/>
<path id="Vector_220" d="M225.649 59.2163C225.59 59.2821 225.556 59.3985 225.468 59.4073C225.127 59.4402 225.127 59.3173 225.122 59.2097C225.298 59.2097 225.473 59.2097 225.644 59.2163H225.649Z" fill="white"/>
<path id="Vector_221" d="M224.468 37.3233C224.41 37.3982 224.376 37.5325 224.283 37.5414C223.898 37.581 223.888 37.4444 223.888 37.321C224.083 37.321 224.273 37.321 224.468 37.3233Z" fill="white"/>
<path id="Vector_222" d="M222.021 65.7772C222.021 65.8917 222.021 66.0239 221.655 65.9865C221.567 65.9777 221.538 65.8499 221.484 65.7772C221.665 65.7706 221.84 65.7706 222.021 65.7772Z" fill="white"/>
<path id="Vector_223" d="M206.865 84.6427C206.919 84.5744 206.948 84.4533 207.031 84.4445C207.382 84.4092 207.372 84.537 207.382 84.6427C207.211 84.6493 207.036 84.6493 206.865 84.6427Z" fill="white"/>
<path id="Vector_224" d="M203.208 0.393823C203.394 0.385011 203.574 0.382806 203.759 0.387213C203.779 0.578888 203.594 0.680234 203.15 0.664812C203.15 0.574482 203.164 0.484153 203.208 0.393823Z" fill="white"/>
<path id="Vector_225" d="M200.707 25.012C200.716 25.1001 200.706 25.186 200.663 25.2719C200.492 25.2786 200.316 25.2786 200.146 25.2719C200.17 25.1155 200.355 25.0274 200.702 25.0098L200.707 25.012Z" fill="white"/>
<path id="Vector_226" d="M195.216 41.4059C194.973 41.4015 194.675 41.4081 194.753 41.2451C194.773 41.2076 195.051 41.1944 195.211 41.1702C195.226 41.2495 195.226 41.3266 195.211 41.4059H195.216Z" fill="white"/>
<path id="Vector_227" d="M193.397 89.5735C193.012 89.5669 192.807 89.4765 192.793 89.3025C193.139 89.3267 193.344 89.4171 193.397 89.5735Z" fill="white"/>
<path id="Vector_228" d="M190.954 90.3997C190.969 90.4878 190.954 90.5759 190.915 90.6618C190.725 90.6662 190.535 90.6706 190.35 90.6706C190.359 90.4922 190.574 90.4085 190.959 90.3997H190.954Z" fill="white"/>
<path id="Vector_229" d="M184.859 6.67725C184.805 6.82926 184.601 6.91298 184.269 6.93942V6.94603C184.259 6.8579 184.269 6.76758 184.293 6.67945C184.484 6.67945 184.669 6.67725 184.859 6.67725Z" fill="white"/>
<path id="Vector_230" d="M181.182 46.0787C181.167 46.1889 181.182 46.3211 180.821 46.2858C180.733 46.277 180.704 46.1537 180.645 46.081C180.826 46.0765 181.001 46.0743 181.182 46.0765V46.0787Z" fill="white"/>
<path id="Vector_231" d="M175.077 53.7412C175.107 53.8293 175.111 53.9153 175.102 54.0034C174.775 53.9747 174.57 53.891 174.521 53.739C174.707 53.739 174.892 53.739 175.077 53.7412Z" fill="white"/>
<path id="Vector_232" d="M169.626 27.7439C169.83 27.7439 170.03 27.7439 170.235 27.7439C170.235 27.8342 170.235 27.9268 170.235 28.0171H169.626V27.8805V27.7439Z" fill="white"/>
<path id="Vector_233" d="M167.128 99.4328C167.07 99.5033 167.041 99.6245 166.953 99.6311C166.597 99.6641 166.597 99.5385 166.602 99.4262C166.777 99.424 166.953 99.4262 167.128 99.4306V99.4328Z" fill="white"/>
<path id="Vector_234" d="M145.185 15.7146C145.18 15.8446 145.117 15.968 144.751 15.9151C144.659 15.9019 144.644 15.7741 144.595 15.6992C144.79 15.7058 144.99 15.7102 145.185 15.7124V15.7146Z" fill="white"/>
<path id="Vector_235" d="M144.006 104.093C143.903 104.163 143.801 104.236 143.698 104.306C143.606 104.231 143.513 104.159 143.42 104.084C143.616 104.077 143.811 104.079 144.006 104.093Z" fill="white"/>
<path id="Vector_236" d="M140.988 15.7234C141.568 15.8115 141.505 15.8952 140.978 15.9768C140.978 15.893 140.978 15.8093 140.988 15.7234Z" fill="white"/>
<path id="Vector_237" d="M141.006 55.0962C140.972 55.2746 140.748 55.3584 140.363 55.3716C140.436 55.213 140.66 55.127 141.006 55.0962Z" fill="white"/>
<path id="Vector_238" d="M139.202 64.1205C139.212 63.9993 139.27 63.8781 139.622 63.9288C139.714 63.942 139.729 64.0632 139.778 64.1359C139.587 64.1293 139.392 64.1249 139.202 64.1227V64.1205Z" fill="white"/>
<path id="Vector_239" d="M129.381 9.14274C129.396 9.23086 129.381 9.31899 129.342 9.40491C129.157 9.41152 128.971 9.41372 128.791 9.41152C128.771 9.22646 128.971 9.13833 129.386 9.14274H129.381Z" fill="white"/>
<path id="Vector_240" d="M123.89 9.41602C123.803 9.47967 123.715 9.54551 123.627 9.60916C123.534 9.54771 123.442 9.48406 123.349 9.4226C123.53 9.41821 123.71 9.41602 123.89 9.41602Z" fill="white"/>
<path id="Vector_241" d="M122.642 4.22083C122.676 4.30896 122.691 4.39488 122.671 4.48301C122.33 4.46098 122.135 4.37726 122.111 4.22083C122.286 4.21643 122.462 4.21643 122.642 4.22083Z" fill="white"/>
<path id="Vector_242" d="M17.2173 28.2969C17.5538 28.3255 17.7537 28.4136 17.8171 28.5657C17.5002 28.5304 17.2954 28.4423 17.2173 28.2969Z" fill="white"/>
<path id="Vector_243" d="M17.8115 7.77246C17.7969 7.94871 17.6116 8.05226 17.202 8.05887C17.2605 7.90245 17.4507 7.8011 17.8115 7.77246Z" fill="white"/>
<path id="Vector_244" d="M44.0759 72.333C44.1735 72.265 44.2661 72.1991 44.3636 72.1311C44.4563 72.1991 44.5489 72.2694 44.6367 72.3374C44.4514 72.3374 44.2612 72.3374 44.0759 72.333Z" fill="white"/>
<path id="Vector_245" d="M21.4304 45.2615C21.3768 45.3298 21.3475 45.4488 21.2646 45.4576C20.9184 45.4928 20.9184 45.3673 20.9135 45.2593C21.0891 45.2527 21.2598 45.2549 21.4353 45.2593L21.4304 45.2615Z" fill="white"/>
<path id="Vector_246" d="M26.3162 71.7985C26.2625 71.8644 26.2381 71.9741 26.1504 71.9851C25.8334 72.0268 25.809 71.9061 25.7651 71.8051C25.9504 71.7941 26.1309 71.7919 26.3162 71.7963V71.7985Z" fill="white"/>
<path id="Vector_247" d="M27.0129 72.6047C27.0715 72.5342 27.1056 72.4131 27.1934 72.4042C27.5493 72.369 27.5445 72.5012 27.5591 72.6113C27.3787 72.6113 27.1934 72.6113 27.0129 72.6069V72.6047Z" fill="white"/>
<path id="Vector_248" d="M68.4272 39.2334C68.3541 39.381 68.1542 39.4691 67.8226 39.4978C67.8957 39.3524 68.1054 39.2664 68.4272 39.2334Z" fill="white"/>
<path id="Vector_249" d="M30.0227 8.04541C30.013 8.22827 29.8179 8.32742 29.3986 8.33182C29.4522 8.16879 29.6521 8.06964 30.0227 8.04541Z" fill="white"/>
<path id="Vector_250" d="M86.7283 37.8633C86.7869 37.7135 86.9868 37.6253 87.3184 37.5945V37.5923C87.3184 37.6826 87.3135 37.7729 87.2891 37.8611C87.1038 37.8611 86.9136 37.8611 86.7283 37.8611V37.8633Z" fill="white"/>
<path id="Vector_251" d="M74.5667 29.9231L74.5228 29.7931V29.6609C74.8933 29.6719 75.0982 29.7578 75.1128 29.9297C74.9324 29.9297 74.7471 29.9297 74.5667 29.9231Z" fill="white"/>
<path id="Vector_252" d="M32.4165 4.49392C32.3043 4.58425 32.1922 4.67679 32.08 4.76712C31.9874 4.67238 31.8996 4.57765 31.807 4.48291C32.0118 4.48952 32.2117 4.49392 32.4165 4.49392Z" fill="white"/>
<path id="Vector_253" d="M90.3805 94.2222L90.3707 94.0901L90.4146 93.9601C90.5999 93.9535 90.7901 93.9513 90.9754 93.9535C90.9949 94.1407 90.7755 94.2222 90.3805 94.2222Z" fill="white"/>
<path id="Vector_254" d="M91.561 76.174C91.561 76.2885 91.561 76.4185 91.2002 76.3811C91.1124 76.3723 91.0832 76.2467 91.0295 76.1762C91.2051 76.1696 91.3855 76.1696 91.561 76.174Z" fill="white"/>
<path id="Vector_255" d="M15.9829 75.3499C15.9829 75.5305 15.7976 75.6275 15.3831 75.6275C15.427 75.4644 15.6221 75.3697 15.9829 75.3499Z" fill="white"/>
<path id="Vector_256" d="M98.9191 68.2493C99.1532 68.2493 99.4116 68.2581 99.3384 68.4035C99.3189 68.4409 99.0702 68.4564 98.9288 68.4828L98.9142 68.366V68.2493H98.9191Z" fill="white"/>
<path id="Vector_257" d="M35.551 6.12228C35.5071 6.03636 35.4925 5.94823 35.5071 5.86011C35.8777 5.87112 36.0728 5.95925 36.0874 6.12669C35.907 6.12889 35.7314 6.12669 35.551 6.12228Z" fill="white"/>
<path id="Vector_258" d="M104.415 2.29736C104.361 2.37227 104.341 2.49785 104.249 2.51107C103.883 2.55954 103.82 2.43836 103.825 2.30838C104.02 2.30838 104.219 2.30397 104.415 2.29957V2.29736Z" fill="white"/>
<path id="Vector_259" d="M107.408 70.9767C107.321 71.0381 107.233 71.1018 107.14 71.1632C107.052 71.1018 106.96 71.0403 106.872 70.9767C107.052 70.9723 107.228 70.9723 107.408 70.9767Z" fill="white"/>
<path id="Vector_260" d="M44.0851 115.007C44.0461 114.824 44.2655 114.758 44.6361 114.756C44.6605 114.93 44.441 115 44.0851 115.007Z" fill="white"/>
<path id="Vector_261" d="M91.5945 97.505C91.2093 97.516 90.8387 97.4874 90.5949 97.342C90.5071 97.2891 90.473 97.1745 90.5364 97.1172C90.7461 96.93 90.9655 97.0842 91.1654 97.1371C91.3263 97.1767 91.4677 97.234 91.614 97.2847V97.397L91.5896 97.5072L91.5945 97.505Z" fill="white"/>
<path id="Vector_262" d="M94.0333 97.5137C93.6529 97.4961 93.2726 97.4762 93.453 97.2295C93.4823 97.192 93.5895 97.1325 93.6334 97.137C94.0869 97.1876 94.1357 97.333 94.0382 97.5093L94.0333 97.5137Z" fill="white"/>
<path id="Vector_263" d="M89.1669 96.9739C89.4253 96.987 89.5375 97.0353 89.4741 97.1143C89.4741 97.1165 89.3132 97.1121 89.279 97.0924C89.2254 97.0595 89.2108 97.0112 89.1815 96.9695L89.1669 96.9739Z" fill="white"/>
<path id="Vector_264" d="M90.3568 96.3989C90.508 96.4518 90.664 96.5025 90.8152 96.5554C90.3324 96.7184 90.3763 96.5267 90.3227 96.4055L90.3568 96.3989Z" fill="white"/>
<path id="Vector_265" d="M91.595 97.505L91.6243 97.3949V97.2825C91.9168 97.2671 92.1314 97.3045 92.029 97.4565C92.0095 97.4896 91.7462 97.4896 91.595 97.505Z" fill="white"/>
<path id="Vector_266" d="M261.105 1.19584C261.095 1.03501 260.744 0.799268 261.271 0.739783C261.788 0.6825 262.251 0.878581 262.124 1.11432C261.997 1.34125 261.451 1.17821 261.09 1.19143L261.105 1.19584Z" fill="white"/>
<path id="Vector_267" d="M86.7235 88.4786C86.7869 88.2077 87.0843 88.0975 87.6695 88.2231C87.9036 88.2737 87.9182 88.3487 87.7816 88.4192C87.4647 88.5888 87.0746 88.4676 86.7186 88.4742V88.4764L86.7235 88.4786Z" fill="white"/>
<path id="Vector_268" d="M278.172 40.0487C278.25 39.9782 278.323 39.9055 278.401 39.835C278.484 39.8746 278.562 39.9121 278.645 39.9517C278.484 39.9826 278.323 40.0134 278.162 40.0421L278.176 40.0487H278.172Z" fill="white"/>
<path id="Vector_269" d="M276.343 14.6353C276.855 14.6771 277.567 14.5582 277.649 14.9503C277.684 15.1045 277.43 15.1861 277.142 15.1949C276.708 15.2081 276.118 15.3249 275.933 15.0627C275.85 14.9503 276.211 14.7741 276.367 14.6287L276.343 14.6353Z" fill="white"/>
<path id="Vector_270" d="M143.347 9.71341C143.327 9.86984 143.308 10.0241 143.283 10.1805C142.835 10.1981 142.186 10.3413 142.118 10.0152C142.03 9.59885 142.771 9.68477 143.347 9.71341Z" fill="white"/>
<path id="Vector_271" d="M181.255 86.5574C181.348 86.6896 181.304 86.7997 180.997 86.8548C180.943 86.8636 180.772 86.8152 180.763 86.7887C180.719 86.6389 180.924 86.575 181.221 86.5508L181.255 86.5574Z" fill="white"/>
<path id="Vector_272" d="M193.31 67.4538C193.295 67.5177 193.295 67.5816 193.305 67.6455C192.554 67.6653 191.798 67.8151 190.823 67.6366C191.681 67.2291 192.524 67.4251 193.31 67.4538Z" fill="white"/>
<path id="Vector_273" d="M136.11 111.718C136.296 111.727 136.481 111.74 136.666 111.753C136.744 111.898 136.954 111.987 137.276 112.02C136.998 112.445 136.54 112.339 136.032 112.108C136.057 111.978 136.081 111.848 136.106 111.718H136.11Z" fill="white"/>
<path id="Vector_274" d="M138.525 112.834C138.452 112.982 138.242 113.07 137.92 113.108C137.998 112.962 138.208 112.874 138.525 112.834Z" fill="white"/>
<path id="Vector_275" d="M220.607 2.81014C220.475 2.77502 220.348 2.7421 220.226 2.70918C220.29 2.68064 220.373 2.62358 220.421 2.63016C220.558 2.64553 220.68 2.68503 220.807 2.71576C220.743 2.74649 220.68 2.77502 220.612 2.81014H220.607Z" fill="white"/>
<path id="Vector_276" d="M198.278 71.7918C198.361 71.7169 198.444 71.6442 198.522 71.5715C198.614 71.6134 198.707 71.6552 198.795 71.6971C198.619 71.728 198.448 71.761 198.273 71.7918H198.278Z" fill="white"/>
<path id="Vector_277" d="M293.913 6.9131C293.737 6.90428 293.566 6.9131 293.401 6.93953C293.167 6.78311 292.508 6.71481 292.811 6.45484C292.893 6.38434 293.352 6.34248 293.566 6.37773C294.156 6.47467 293.956 6.71261 293.917 6.9131H293.913Z" fill="white"/>
<path id="Vector_278" d="M350.102 50.9913C350.189 50.9518 350.272 50.9101 350.36 50.8706C350.345 50.8947 350.35 50.9299 350.311 50.943C350.253 50.965 350.165 50.9738 350.092 50.9869L350.102 50.9913Z" fill="white"/>
<path id="Vector_279" d="M179.973 34.8447C179.593 34.8491 179.159 34.9284 178.935 34.7169C178.901 34.6861 179.105 34.5627 179.237 34.5495C179.764 34.4966 179.905 34.6574 179.964 34.8513L179.978 34.8447H179.973Z" fill="white"/>
<path id="Vector_280" d="M177.564 35.1247L177.554 34.9947L177.564 34.8647C177.9 34.8912 178.09 34.9793 178.154 35.1291C177.959 35.1357 177.764 35.1357 177.569 35.1291L177.564 35.1247Z" fill="white"/>
<path id="Vector_281" d="M175.741 25.2897C175.936 25.2787 176.126 25.2765 176.321 25.2875C176.316 25.4021 176.272 25.5211 175.936 25.4814C175.843 25.4704 175.804 25.3558 175.741 25.2897Z" fill="white"/>
<path id="Vector_282" d="M266.552 27.1867C266.859 27.1646 267.103 27.1999 267.181 27.3475C267.195 27.3739 267.064 27.4488 267.015 27.4466C266.688 27.4312 266.576 27.3233 266.547 27.1911V27.1845L266.552 27.1867Z" fill="white"/>
<path id="Vector_283" d="M352.526 43.8933C352.623 43.935 352.725 43.9789 352.823 44.0206C352.76 44.014 352.672 44.0162 352.638 43.9987C352.584 43.9701 352.565 43.9262 352.53 43.8889L352.521 43.8933H352.526Z" fill="white"/>
<path id="Vector_284" d="M76.3517 29.3853C76.0835 29.3765 75.8689 29.3302 75.8494 29.1936C75.8494 29.1694 75.9957 29.1165 76.0444 29.1231C76.3321 29.1606 76.3955 29.2619 76.3517 29.3853Z" fill="white"/>
<path id="Vector_285" d="M72.129 50.4717C72.524 50.4651 72.9141 50.4563 73.3091 50.4497C73.3091 50.6105 73.3091 50.7758 72.802 50.7714C72.3826 50.767 72.1827 50.648 72.129 50.4739V50.4717Z" fill="white"/>
<path id="Vector_286" d="M208.05 49.9146C208.46 50.0005 208.869 50.0864 209.279 50.1701C209.147 50.3596 208.864 50.5006 208.416 50.4543C207.67 50.3794 208.03 50.115 208.045 49.9124L208.05 49.9146Z" fill="white"/>
<path id="Vector_287" d="M25.2483 37.2265C25.3166 37.1693 25.3848 37.112 25.458 37.0525C25.5214 37.0811 25.653 37.1164 25.6433 37.1406C25.614 37.2023 25.5263 37.2596 25.4629 37.3191C25.3995 37.2904 25.3312 37.2618 25.2532 37.2265H25.2483Z" fill="white"/>
<path id="Vector_288" d="M96.1985 40.0062C96.14 39.9908 96.0766 39.9754 96.0181 39.9623C96.0815 39.9228 96.1497 39.8833 96.218 39.8438C96.2765 39.8723 96.335 39.9008 96.3936 39.9293C96.3302 39.9557 96.2668 39.982 96.1985 40.0084V40.0062Z" fill="white"/>
<path id="Vector_289" d="M45.948 78.2539C46.0162 78.1988 46.0894 78.1437 46.1576 78.0864C46.221 78.1151 46.3429 78.1525 46.3332 78.1746C46.2991 78.2362 46.2113 78.2913 46.1479 78.3486C46.0845 78.3178 46.0211 78.2891 45.948 78.2539Z" fill="white"/>
<path id="Vector_290" d="M98.3774 34.468C98.4457 34.4151 98.5188 34.3622 98.5919 34.3093C98.6505 34.338 98.7724 34.3732 98.7626 34.3952C98.7285 34.4547 98.6407 34.5054 98.5724 34.5605C98.5139 34.5318 98.4505 34.5032 98.3774 34.468Z" fill="white"/>
<path id="Vector_291" d="M117.195 5.98746C117.068 6.01379 116.942 6.04891 116.81 6.06208C116.761 6.06647 116.693 6.0094 116.629 5.98087C116.756 5.95453 116.883 5.91941 117.015 5.90625C117.063 5.90186 117.132 5.95892 117.195 5.98746Z" fill="white"/>
<path id="Vector_292" d="M41.4425 2.50237C41.1305 2.50678 40.8184 2.51119 40.5063 2.51559C40.4721 2.27985 40.1211 1.92735 41.0963 1.97362C41.7692 2.00446 41.4816 2.30189 41.4425 2.50458V2.50237Z" fill="white"/>
<path id="Vector_293" d="M40.8375 77.088C40.8375 77.1165 40.857 77.1516 40.8228 77.1692C40.7058 77.2394 40.5693 77.2219 40.4766 77.1187C40.4669 77.1055 40.5839 77.0572 40.6619 77.0441C40.7058 77.0375 40.7789 77.0704 40.8375 77.0858V77.088Z" fill="white"/>
<path id="Vector_294" d="M3.91406 76.0683C3.9872 76.0111 4.05547 75.9538 4.12862 75.8965C4.19201 75.9251 4.31879 75.9604 4.30904 75.9824C4.27978 76.0441 4.19201 76.0992 4.12862 76.1565C4.06035 76.1278 3.99696 76.0992 3.91894 76.0661L3.91406 76.0683Z" fill="white"/>
<path id="Vector_295" d="M110.779 119.349C110.72 119.318 110.613 119.285 110.618 119.257C110.623 119.228 110.74 119.202 110.808 119.175C110.866 119.206 110.974 119.239 110.969 119.267C110.969 119.296 110.847 119.322 110.779 119.349Z" fill="white"/>
<path id="Vector_296" d="M211.435 43.2952C211.362 43.2798 211.289 43.2645 211.22 43.2469C211.293 43.203 211.371 43.1569 211.445 43.113C211.518 43.1438 211.586 43.1745 211.659 43.2052C211.586 43.2338 211.508 43.2645 211.435 43.293V43.2952Z" fill="white"/>
<path id="Vector_297" d="M204.438 57.1735C204.472 57.145 204.511 57.1142 204.55 57.0857C204.647 57.1186 204.75 57.1493 204.847 57.1823C204.774 57.2108 204.701 57.2635 204.633 57.2613C204.564 57.2613 204.501 57.2042 204.438 57.1735Z" fill="white"/>
<path id="Vector_298" d="M116.05 104.229C116.084 104.196 116.123 104.165 116.157 104.132C116.255 104.167 116.352 104.2 116.455 104.235C116.386 104.266 116.313 104.299 116.245 104.33L116.05 104.229Z" fill="white"/>
<path id="Vector_299" d="M251.947 5.84681C251.961 5.67717 251.981 5.50972 251.995 5.34008C252.449 5.32907 253.073 5.2145 253.136 5.53837C253.219 5.95036 252.541 5.89528 251.947 5.84681Z" fill="white"/>
<path id="Vector_300" d="M90.3171 55.4004C90.3025 55.5612 90.2879 55.7199 90.2732 55.8807C89.8344 55.8829 89.2102 55.9975 89.1419 55.6824C89.0542 55.2528 89.7807 55.3762 90.3171 55.4004Z" fill="white"/>
<path id="Vector_301" d="M88.9327 117.994C88.8108 117.963 88.6888 117.932 88.5621 117.902C88.6254 117.873 88.7084 117.818 88.7571 117.825C88.8937 117.838 89.0156 117.877 89.1472 117.906C89.0838 117.935 89.0156 117.961 88.9375 117.994H88.9327Z" fill="white"/>
<path id="Vector_302" d="M70.8272 66.8765C70.7589 66.9401 70.6906 67.0038 70.6175 67.0696C70.5395 67.0345 70.4663 66.9994 70.3883 66.9621C70.5395 66.9357 70.6906 66.9094 70.8418 66.883L70.8272 66.8765Z" fill="white"/>
<path id="Vector_303" d="M290.938 25.278C290.728 25.2802 290.524 25.2824 290.314 25.2846C290.504 25.0256 290.714 25.0168 290.938 25.278Z" fill="white"/>
<path id="Vector_304" d="M289.743 25.5454L289.729 25.4154V25.2854C289.938 25.2832 290.143 25.2788 290.348 25.2744C290.294 25.433 290.089 25.519 289.743 25.5432V25.5454Z" fill="white"/>
<path id="Vector_305" d="M156.82 118.303C156.82 118.395 156.82 118.486 156.82 118.578C156.415 118.576 156.015 118.574 155.61 118.572L155.596 118.03C156.001 118.122 156.41 118.212 156.82 118.305V118.303Z" fill="white"/>
<path id="Vector_306" d="M12.9791 34.0274C13.0474 33.9569 13.1157 33.8864 13.1888 33.8159L13.4424 33.9305C13.2863 33.9613 13.1254 33.9922 12.9645 34.0208L12.9791 34.0274Z" fill="white"/>
<path id="Vector_307" d="M95.2378 86.0084C95.1354 85.9645 95.0379 85.9206 94.9355 85.8767C94.9989 85.8833 95.0915 85.8811 95.1256 85.9008C95.1793 85.9316 95.1939 85.9755 95.2281 86.015L95.2378 86.0106V86.0084Z" fill="white"/>
<path id="Vector_308" d="M154.411 0.396271C154.596 0.380849 154.787 0.378647 154.972 0.394069C154.879 0.466774 154.787 0.537274 154.694 0.609978C154.601 0.539477 154.504 0.468976 154.411 0.398475V0.396271Z" fill="white"/>
<path id="Vector_309" d="M92.8091 58.1125C92.7993 58.2932 92.575 58.3725 92.1947 58.3879C92.1752 58.1963 92.4141 58.1192 92.8091 58.1125Z" fill="white"/>
<path id="Vector_310" d="M79.3699 43.0713C79.287 43.144 79.1992 43.2145 79.1163 43.2872C78.7164 43.0933 79.1358 43.1065 79.3845 43.0779L79.3699 43.0713Z" fill="white"/>
<path id="Vector_311" d="M183.674 99.7104C184.015 99.7303 184.22 99.8118 184.254 99.9704C183.908 99.9528 183.713 99.8669 183.674 99.7104Z" fill="white"/>
<path id="Vector_312" d="M151.948 35.1333C152.124 35.1663 152.295 35.1972 152.47 35.2302C152.378 35.2699 152.28 35.3118 152.187 35.3536C152.109 35.2809 152.031 35.206 151.948 35.1333Z" fill="white"/>
<path id="Vector_313" d="M45.8452 11.0366C45.6843 11.0081 45.5185 10.9818 45.3576 10.9554C45.4405 10.9159 45.5234 10.8786 45.6014 10.8391C45.6745 10.9072 45.7526 10.9774 45.8257 11.0454L45.8403 11.0366H45.8452Z" fill="white"/>
<path id="Vector_314" d="M229.852 37.6471C229.804 37.7 229.799 37.7529 229.843 37.808C229.404 37.8014 228.731 38.0195 228.731 37.5811C229.106 37.6031 229.482 37.6251 229.857 37.6494L229.852 37.6471Z" fill="white"/>
<path id="Vector_315" d="M97.0611 48.2664C96.9733 48.3369 96.8904 48.4052 96.8026 48.4757C96.3686 48.2708 96.8562 48.306 97.0659 48.2686L97.0562 48.2642L97.0611 48.2664Z" fill="white"/>
<path id="Vector_316" d="M41.0028 80.8247C41.3978 80.8247 41.7879 80.8291 42.1829 80.8313C42.1243 80.9921 42.0561 81.1552 41.5831 81.1552C41.1052 81.1552 41.0613 80.9833 41.0028 80.8269V80.8247Z" fill="white"/>
<path id="Vector_317" d="M170.84 12.9695C170.518 12.9386 170.313 12.8527 170.25 12.7051C170.582 12.7337 170.782 12.8196 170.84 12.9695Z" fill="white"/>
<path id="Vector_318" d="M298.857 45.5387C298.662 45.4418 298.467 45.3471 298.272 45.2501C298.291 45.0496 298.296 44.8469 298.803 44.7522C299.033 44.8271 299.257 44.9042 299.486 44.9791C299.53 45.2237 299.915 45.5431 298.857 45.5387Z" fill="white"/>
<path id="Vector_319" d="M101.323 114.463C101.133 114.471 100.947 114.471 100.757 114.463C100.816 114.392 100.85 114.273 100.942 114.262C101.293 114.222 101.313 114.348 101.323 114.463Z" fill="white"/>
<path id="Vector_320" d="M47.6792 -0.427734C47.767 -0.150136 47.9962 0.145087 47.2111 0.308121C47.0453 0.0217102 46.5723 -0.304357 47.6792 -0.427734Z" fill="white"/>
<path id="Vector_321" d="M260.49 31.2846L260.456 31.159L260.471 31.0334C260.714 31.0379 260.992 31.0423 260.919 31.1965C260.9 31.2383 260.641 31.256 260.49 31.2846Z" fill="white"/>
<path id="Vector_322" d="M94.0083 99.9629C93.8181 99.9695 93.628 99.9695 93.4329 99.9629C93.5304 99.9015 93.6231 99.8378 93.7157 99.7764C93.8132 99.8378 93.9108 99.8993 94.0034 99.9629H94.0083Z" fill="white"/>
<path id="Vector_323" d="M139.773 96.6787L139.754 96.5487L139.768 96.4187C140.022 96.4297 140.339 96.4209 140.256 96.5905C140.237 96.6324 139.944 96.6478 139.778 96.6765L139.773 96.6787Z" fill="white"/>
<path id="Vector_324" d="M337.755 53.4507C337.765 53.3603 337.809 53.2722 337.882 53.1863C338.286 53.1907 338.686 53.1973 339.091 53.2017C338.857 53.5123 338.267 53.4374 337.755 53.4507Z" fill="white"/>
<path id="Vector_325" d="M65.3602 69.3374C65.3748 69.4211 65.3699 69.5048 65.3455 69.5864C65.1993 69.5577 64.9554 69.5401 64.9311 69.4982C64.8579 69.3506 65.1164 69.3396 65.3602 69.3374Z" fill="white"/>
<path id="Vector_326" d="M349.444 49.3372C349.576 49.4011 349.741 49.4297 349.937 49.4231C349.907 49.5068 349.966 49.5751 350.112 49.6258C350.039 49.7866 349.898 49.9144 349.464 49.9056C349.459 49.7161 349.449 49.5244 349.439 49.335L349.444 49.3372Z" fill="white"/>
<path id="Vector_327" d="M349.491 49.075C349.491 49.1741 349.496 49.271 349.501 49.3702C348.975 49.4076 348.745 49.3107 348.823 49.0706C349.048 49.0706 349.267 49.0728 349.491 49.075Z" fill="white"/>
<path id="Vector_328" d="M348.229 49.0903C348.225 48.9978 348.215 48.9031 348.205 48.8105C348.42 48.8105 348.634 48.8105 348.854 48.8105C348.863 48.9053 348.873 48.9978 348.883 49.0926C348.663 49.0926 348.444 49.0903 348.229 49.0903Z" fill="white"/>
<path id="Vector_329" d="M352.735 64.9358C352.866 64.9644 353.003 64.9688 353.14 64.9534C353.169 65.0768 353.047 65.22 352.813 65.2024C352.564 65.1826 352.564 65.0393 352.735 64.9358Z" fill="white"/>
<path id="Vector_330" d="M108.019 38.947C108.238 38.9514 108.453 38.9536 108.672 38.9558C108.565 39.0484 108.453 39.1431 108.345 39.2378C108.238 39.1409 108.126 39.044 108.019 38.947Z" fill="white"/>
<path id="Vector_331" d="M274.475 41.9741C274.489 42.0622 274.489 42.1504 274.475 42.2385C273.948 42.1504 273.943 42.0622 274.475 41.9741Z" fill="white"/>
<path id="Vector_332" d="M161.75 56.4491L161.721 56.3324C161.721 56.3324 161.736 56.2134 161.736 56.2156C162.116 56.22 162.501 56.2266 162.881 56.231C162.901 56.3015 162.906 56.3698 162.881 56.4403C162.506 56.4425 162.126 56.4469 161.75 56.4491Z" fill="white"/>
<path id="Vector_333" d="M331.162 23.3575C330.743 23.3707 330.372 23.3355 330.148 23.1548C330.582 23.1262 331.157 22.9543 331.162 23.3575Z" fill="white"/>
<path id="Vector_334" d="M260.48 78.6393C259.968 78.6635 259.408 78.7318 259.3 78.3815C259.808 78.3639 260.476 78.1964 260.48 78.6393Z" fill="white"/>
<path id="Vector_335" d="M244.594 2.0177C244.052 2.05735 243.789 1.84365 243.394 1.75332C243.472 1.55944 243.336 1.3215 243.94 1.24438C244.379 1.4647 244.852 1.67841 244.589 2.0177H244.594Z" fill="white"/>
<path id="Vector_336" d="M6.24585 34.0384C5.74847 34.034 5.26573 34.0208 5.04142 33.7696C5.54855 33.7652 6.04105 33.7696 6.24585 34.0384Z" fill="white"/>
<path id="Vector_337" d="M156.216 41.1459V41.0137V40.8815C156.416 40.8749 156.611 40.8749 156.811 40.8793C156.743 41.0269 156.543 41.1172 156.211 41.1481L156.216 41.1459Z" fill="white"/>
<path id="Vector_338" d="M118.454 43.8691L118.425 43.7457L118.434 43.6201C118.825 43.6201 119.039 43.7016 119.024 43.8845C118.834 43.8889 118.644 43.8845 118.454 43.8691Z" fill="white"/>
<path id="Vector_339" d="M348.868 70.9678C348.893 70.7981 349.102 70.7144 349.463 70.699C349.444 70.8686 349.229 70.9523 348.868 70.9678Z" fill="white"/>
<path id="Vector_340" d="M98.2413 55.6229C97.895 55.6119 97.5488 55.6009 97.2026 55.5899C97.188 55.3475 97.1782 55.1074 97.1636 54.8672C97.5293 54.8606 97.895 54.854 98.2607 54.8452C98.5094 55.1052 98.5046 55.3652 98.2413 55.6229Z" fill="white"/>
<path id="Vector_341" d="M47.6792 63.3186C47.689 63.4993 47.6939 63.6821 47.7036 63.8628C47.3038 63.8562 46.9088 63.8496 46.5089 63.843C46.5187 63.6755 46.5333 63.5081 46.5431 63.3406C46.9234 63.334 47.2989 63.3252 47.6792 63.3186Z" fill="white"/>
<path id="Vector_342" d="M176.91 12.7097C176.945 12.7934 176.945 12.875 176.91 12.9587C176.574 12.9344 176.238 12.9124 175.901 12.8882V12.7714C176.233 12.7516 176.569 12.7317 176.906 12.7097H176.91Z" fill="white"/>
<path id="Vector_343" d="M226.322 57.0173V56.8807V56.7441C226.527 56.7441 226.727 56.7441 226.931 56.7441C226.931 56.8345 226.931 56.927 226.931 57.0173C226.727 57.0173 226.527 57.0173 226.322 57.0173Z" fill="white"/>
</g>
</g>
<rect id="Rectangle 143" y="-10.3611" width="361" height="130.361" fill="url(#paint1_linear_663_9530)" fill-opacity="0.2"/>
<path id="Vector_344" d="M389.486 94.844C389.486 94.844 380.694 98.3824 372.745 105.336C364.774 112.263 354.72 112.896 354.72 112.896L389.819 83.8001L389.486 94.844ZM386.121 51.9048C363.858 54.8653 358.906 77.7549 356.761 81.3926C354.64 85.0311 353.907 84.2097 348.247 88.252C342.588 92.2943 342.403 98.3883 342.403 98.3883L297 142.699C297 142.699 308.36 133.271 316.069 127.978C323.778 122.685 344.016 103.746 347.351 101.468C350.686 99.1899 354.848 95.3711 357.474 91.4757C360.1 87.5803 362.661 86.6208 372.789 84.2975C382.94 81.9999 388.215 74.2348 388.215 74.2348L386.121 51.9048Z" fill="url(#paint2_linear_663_9530)"/>
<g id="upper-left">
<path id="Vector_345" d="M-16.5342 71.1157C-16.5342 71.1157 -14.6285 69.9798 -13.9065 68.151C-13.1818 66.303 9.52779 45.0584 9.52779 45.0584C9.52779 45.0584 9.34945 42.9099 12.3187 42.1947C15.2854 41.4988 17.7325 37.8408 17.8599 37.4845C18.0066 37.1309 23.3012 37.6776 23.8649 31.5396C24.4259 25.4209 34.5974 20.7929 35.3382 20.6975C36.079 20.6021 49.2123 16.7527 52.8867 4.11678C52.8867 4.11678 52.818 1.88493 54.4739 -0.012857C56.1297 -1.91064 58.2206 -5.69608 59.8523 -6.12208C61.4839 -6.54808 63.6061 -6.53335 65.1748 -7.794C66.7435 -9.05466 66.7654 -11.3725 69.7452 -12.1649C72.725 -12.9573 75.773 -12.9537 78.0856 -15.6271L-2.88849 -26.6958L-12.6851 44.9722L15.0164 21.1648C15.0164 21.1648 17.6441 18.2001 20.9202 18.5496C24.1963 18.8991 25.1279 17.5514 27.2878 14.6998C29.4285 11.8455 32.0144 10.6256 35.3089 8.10606C38.6228 5.5892 43.5601 1.26845 45.2894 0.128089C47.0213 -1.03158 58.7205 -10.0727 58.7205 -10.0727C58.7205 -10.0727 42.6801 5.69145 40.1263 8.11552C37.5725 10.5396 26.4603 20.0346 25.3047 21.7255C24.1492 23.4163 22.4162 25.3035 19.1524 27.4535C15.8887 29.6036 14.202 31.8708 12.8391 34.3594C11.4762 36.8479 10.876 41.9582 5.08299 43.7625C-0.709997 45.5668 -13.3683 48.6747 -16.1489 68.2969L-16.5342 71.1157Z" fill="url(#paint3_linear_663_9530)"/>
<path id="Intersect" d="M66.2578 -17.244L45.3405 -20.1032C26.3341 -13.0879 2.77657 10.0636 -9.87759 24.434L-12.6851 44.9722L15.0165 21.1648C15.0165 21.1648 17.6442 18.2001 20.9203 18.5496C24.1168 18.8906 25.0814 17.6158 27.1326 14.9049C27.1837 14.8374 27.2354 14.769 27.2879 14.6997C28.7993 12.6844 30.5328 11.4839 32.5809 10.0654C33.4335 9.47485 34.3407 8.84657 35.309 8.10601C36.8506 6.93519 38.7435 5.37399 40.5014 3.92419C42.5222 2.25744 44.3646 0.737919 45.2895 0.128042C46.5876 -0.741172 53.4854 -6.03823 56.8593 -8.63714L66.2537 -16.6938C66.5463 -16.8077 66.6184 -16.9919 66.2578 -17.244Z" fill="#FFC502"/>
<path id="Intersect_2" d="M69.0111 -16.8676L-2.8884 -26.6959L-12.6851 44.9722L15.0165 21.1648C15.0165 21.1648 17.6442 18.2001 20.9203 18.5496C21.4447 18.6055 21.9089 18.618 22.3278 18.5878L27.0727 14.9841C27.0926 14.9578 27.1125 14.9315 27.1326 14.9049C27.1837 14.8374 27.2354 14.769 27.2879 14.6997C28.7993 12.6844 30.5328 11.4839 32.5809 10.0654C33.4335 9.47485 34.3407 8.84657 35.309 8.10601C36.8506 6.93519 38.7435 5.37399 40.5014 3.92419C42.5222 2.25744 44.3646 0.737919 45.2895 0.128042C47.0214 -1.03163 58.7206 -10.0727 58.7206 -10.0727C58.7206 -10.0727 56.7762 -8.16177 54.1335 -5.5682L69.0111 -16.8676Z" fill="url(#paint4_radial_663_9530)"/>
<path id="Intersect_3" d="M53.8477 -18.9403L48.6536 -19.6504C28.6703 -13.6982 2.62219 12.2196 -10.2364 27.059L-12.6851 44.9722L15.0165 21.1648C15.0165 21.1648 17.6442 18.2001 20.9203 18.5496C24.1168 18.8906 25.0814 17.6158 27.1326 14.9049C27.1837 14.8374 27.2354 14.769 27.2879 14.6997C28.7993 12.6844 30.5328 11.4839 32.5809 10.0654C33.4335 9.47485 34.3407 8.84657 35.309 8.10601C36.8506 6.93519 38.7435 5.37399 40.5014 3.92419C42.5222 2.25744 44.3646 0.737919 45.2895 0.128042C47.0214 -1.03163 58.7206 -10.0727 58.7206 -10.0727C58.7206 -10.0727 49.4288 -0.941006 43.8633 4.49088L67.0608 -15.4033C68.0611 -15.7927 66.4835 -17.0038 53.8477 -18.9403Z" fill="url(#paint5_linear_663_9530)"/>
<path id="Intersect_4" d="M47.9269 0.517055C46.713 7.03622 43.9113 13.3637 41.1689 18.2415C45.4073 15.8474 50.7485 11.4697 52.8866 4.11676C52.8866 4.11676 52.818 1.88491 54.4739 -0.0128758C55.0042 -0.620667 55.5791 -1.42207 56.1693 -2.24473C57.4219 -3.99077 58.7432 -5.83253 59.8523 -6.1221C60.3042 -6.2401 60.7938 -6.32428 61.2988 -6.41112C62.6171 -6.63779 64.0406 -6.88256 65.1748 -7.79402C65.7405 -8.24861 66.105 -8.84066 66.4796 -9.44907C67.1439 -10.5279 67.8399 -11.6582 69.7452 -12.1649C70.4086 -12.3414 71.0755 -12.4783 71.7369 -12.6142C74.0459 -13.0884 76.2879 -13.549 78.0856 -15.6271L52.1715 -19.1694C50.1632 -17.5532 48.4101 -13.8819 48.5457 -6.42848C48.5718 -4.99716 48.4924 -3.5535 48.3253 -2.11097C52.3609 -5.15805 58.7205 -10.0727 58.7205 -10.0727C58.7205 -10.0727 53.0586 -4.50828 47.9269 0.517055Z" fill="#F5F1EE"/>
<path id="Intersect_5" d="M48.4069 0.0469242C47.2803 6.56855 44.5252 12.9325 41.7837 17.8845C45.9105 15.4222 50.8506 11.1183 52.8866 4.11678C52.8866 4.11678 52.818 1.88494 54.4738 -0.0128522C55.0041 -0.620644 55.5791 -1.42205 56.1692 -2.24471C57.4218 -3.99074 58.7431 -5.83251 59.8522 -6.12208C60.3042 -6.24008 60.7938 -6.32426 61.2988 -6.4111C62.617 -6.63777 64.0405 -6.88254 65.1748 -7.794C65.7404 -8.24858 66.105 -8.84063 66.4796 -9.44905C67.1439 -10.5279 67.8398 -11.6582 69.7451 -12.1649C70.4086 -12.3413 71.0755 -12.4783 71.7368 -12.6141C74.0458 -13.0884 76.2879 -13.5489 78.0856 -15.6271L52.5576 -19.1166C50.5493 -17.5004 48.7963 -13.829 48.9319 -6.37566C48.9557 -5.06875 48.8916 -3.75156 48.753 -2.43432C52.7942 -5.4929 58.7205 -10.0727 58.7205 -10.0727C58.7205 -10.0727 53.4052 -4.84891 48.4069 0.0469242Z" fill="url(#paint6_linear_663_9530)"/>
<path id="Intersect_6" d="M-14.8728 62.3255C-12.4594 60.5187 -10.2292 58.4738 -8.3761 56.182C-1.98969 48.2923 2.5663 48.0141 4.93597 49.3821C-1.73944 55.696 -13.3907 66.8358 -13.9065 68.151C-14.6285 69.9798 -16.5342 71.1157 -16.5342 71.1157L-16.1489 68.2969C-15.8387 66.108 -15.4056 64.1245 -14.8728 62.3255Z" fill="#F5F1EE"/>
<path id="Intersect_7" d="M-14.9675 62.6509C-12.4319 60.7869 -10.0867 58.6637 -8.15234 56.2714C-1.94411 48.6018 2.53442 48.1249 4.96656 49.3531C-1.70377 55.6619 -13.3899 66.8338 -13.9065 68.151C-14.6285 69.9798 -16.5342 71.1157 -16.5342 71.1157L-16.1489 68.2969C-15.8573 66.2391 -15.457 64.363 -14.9675 62.6509Z" fill="url(#paint7_linear_663_9530)"/>
</g>
<g id="Prize pool">
<path id="Union_2" fill-rule="evenodd" clip-rule="evenodd" d="M220.404 -0.124268H131L139.71 20.6282H220.404V20.5754H220.634L229.344 -0.124262L220.404 -0.124268Z" fill="#6C4B0E"/>
<path id="Union_3" fill-rule="evenodd" clip-rule="evenodd" d="M141.08 -1.99976H227.951L219.488 18.6999H219.264V18.753H140.857L132.393 -1.99954H141.08V-1.99976Z" fill="url(#paint8_linear_663_9530)"/>
</g>
</g>
<defs>
<linearGradient id="paint0_linear_663_9530" x1="180.492" y1="13.459" x2="180.492" y2="74.5409" gradientUnits="userSpaceOnUse">
<stop offset="0.292375" stop-color="#AB750F" stop-opacity="0"/>
<stop offset="0.651936" stop-color="#D8A956"/>
<stop offset="1" stop-color="#AB750F"/>
</linearGradient>
<linearGradient id="paint1_linear_663_9530" x1="184.26" y1="0.502343" x2="180.911" y2="110.636" gradientUnits="userSpaceOnUse">
<stop stop-color="#D8A956" stop-opacity="0"/>
<stop offset="1" stop-color="#AB750F"/>
</linearGradient>
<linearGradient id="paint2_linear_663_9530" x1="361.038" y1="58.6364" x2="344.266" y2="109.798" gradientUnits="userSpaceOnUse">
<stop stop-color="#4F3600"/>
<stop offset="0.447" stop-color="#BD852B"/>
<stop offset="0.9866" stop-color="#4F3600"/>
</linearGradient>
<linearGradient id="paint3_linear_663_9530" x1="31.6182" y1="43.7191" x2="27.8675" y2="-27.4013" gradientUnits="userSpaceOnUse">
<stop stop-color="#885F11"/>
<stop offset="0.3726" stop-color="#D8A956"/>
<stop offset="1" stop-color="#AB750F"/>
</linearGradient>
<radialGradient id="paint4_radial_663_9530" cx="0" cy="0" r="1" gradientUnits="userSpaceOnUse" gradientTransform="translate(19.2231 -1.96156) rotate(51.4498) scale(30.9957 130.691)">
<stop stop-color="#543600"/>
<stop offset="0.3528" stop-color="#FFBB48"/>
<stop offset="0.899" stop-color="#543600"/>
<stop offset="1" stop-color="#EDBF74"/>
</radialGradient>
<linearGradient id="paint5_linear_663_9530" x1="26.7178" y1="19.5355" x2="13.4008" y2="2.57084" gradientUnits="userSpaceOnUse">
<stop stop-color="#FCC575"/>
<stop offset="1" stop-color="#412800"/>
</linearGradient>
<linearGradient id="paint6_linear_663_9530" x1="53.5526" y1="1.49081" x2="72.1945" y2="-1.0746" gradientUnits="userSpaceOnUse">
<stop stop-color="#F9B554"/>
<stop offset="1" stop-color="#956618"/>
</linearGradient>
<linearGradient id="paint7_linear_663_9530" x1="-14.1949" y1="62.4032" x2="1.73219" y2="72.4244" gradientUnits="userSpaceOnUse">
<stop offset="0.0961003" stop-color="#F9B554"/>
<stop offset="0.7835" stop-color="#956618"/>
</linearGradient>
<linearGradient id="paint8_linear_663_9530" x1="132.393" y1="-0.78323" x2="141.056" y2="38.8285" gradientUnits="userSpaceOnUse">
<stop stop-color="#AB750F"/>
<stop offset="0.484" stop-color="#D8A956"/>
<stop offset="1" stop-color="#AB750F"/>
</linearGradient>
<clipPath id="clip0_663_9530">
<rect width="361" height="120" fill="white"/>
</clipPath>
</defs>
</svg>
