<svg xmlns="http://www.w3.org/2000/svg" width="361" height="120" fill="none" xmlns:v="https://vecta.io/nano"><g clip-path="url(#G)"><path fill="#f5f1ee" d="M0 0h361v120H0z"/><path fill="url(#A)" fill-opacity=".2" d="M0 73h361v47H0z"/><g opacity=".35" fill="#fff"><path d="M282.038 29.304c-.487-.323-1.302-.176-1.916-.325-.888-.217-.883-.33.112-.773l.049-.007c.21.161.526.207.892.207.054.079.166.111.337.091.185.178.517.241.882.274l-.024-.01-.244.551-.088-.007v-.002zm-53.907-2.369l-.614.087-1.18.01-.678-.065c-.166-.205-.214-.409-.024-.616l1.911-.051a1.87 1.87 0 0 0 .59.027c.113.072.259.094.434.067l.22.282-.663.26h.004zm-8.524-25.689c.756-.123 1.259.144 1.844.289v.005c0 .101-.005.2-.015.301l-.59.041-.663.046-.566.214-.546-.01a1.92 1.92 0 0 0-.171-.279l-.151-.318a.34.34 0 0 1 .312.007c.327-.034.459-.152.542-.294l.004-.002zm28.02 71.171c.263.407.107.674-.907.643l-1.483-.067.015.007c-.098-.294.546-.359.731-.566.186.048.342.031.463-.053l1.2.043-.019-.007zm-77.402-21.228c.415-.392.839-.313 1.263-.007.059.159.278.243.575.291-.019.195.015.462-.424.498-.697.06-.707-.263-.824-.494-.063-.161-.288-.243-.585-.289h-.005zm-59.203-1.962h.029c-.868.301-1.692.409-2.355-.137l-.02.01c.552-.14 1.049-.373 1.756-.241l-.088-.038.673.407h.005zm150.653-24.948l-.034-.318c.483-.039 1.019-.019 1.288-.289.39.012.892.019.955.233.098.34-.575.316-1.004.393l-1.205-.022v.002zm-40.17 61.78v-.39l1.16-.106.581.595.014-.01-1.17.258.044.036-.624-.383h-.005zM147.736 8.144c1.17-.065 2.34-.147 3.482.089v.077c-1.19.079-2.434.46-3.482-.166zM10.268 53.53l-.756.005c-.312-.27-.312-.549-.093-.833l-.073.031 1.073.017-.068-.031c.219.274.195.547-.083.809v.002zm20.993-22.133c.185-.118.341-.248.556-.349.302-.142.712-.26 1.019-.041.278.198-.024.359-.395.465l-1.175-.075h-.005zm204.204 26.659c-.37.819-.663.92-1.809.619l.605-.318v.002l.59-.306.009-.005.61.007h-.005zm-99.427 50.04l-1.614-.157.019.017.566-.539.819.017c.059.089.151.168.283.238l-.073.426v-.002zm203.638-63.8l-2.297-.01c-.078-.161-.014-.279.376-.296.512-.014 1.102.067 1.336-.272l.609.01-.029-.014.005.585v-.002zM91.011 95.122c-.127.383-.78.26-1.248.315l-.644.075-.088-.091.151-.07c-.058-.063-.068-.128-.019-.195.127-.34.673-.289 1.156-.296a.96.96 0 0 0 .697.26l-.005.002zm56.725 7.987v-.096l1.141-.159a.77.77 0 0 0 .419.082l.302.575-1.253-.014-.604-.388h-.005zm5.491-34.88h.488l.672.284v.005l.527.429.01.038-1.156.147-.019-.01c-.069-.159-.259-.26-.586-.301l.064-.592zm-46.335-40.372c-.366-.096-.644-.231-.415-.438.161-.149.488-.118.766-.053l.77.197.035.299c-.386 0-.771 0-1.156-.002v-.002zm80.883-22.8c-.093-.077-.278-.161-.254-.226.069-.166.356-.219.634-.125.112.039.185.19.122.246-.073.063-.327.072-.502.106zM171.03 24.274c.03-.164.21-.267.547-.243.321.024.487.147.395.299-.044.07-.225.154-.371.171-.341.039-.517-.07-.571-.226zm182.69 32.26a1.13 1.13 0 0 1-.576.026 1.08 1.08 0 0 1-.405-.019c-.097.053-.214.063-.341.031.327-.176.176-.38.146-.578l1.2-.031-.015.568-.009.002zm-196.885-2.993c.054-.224.088-.486.722-.438.4.031.444.25.468.431l-1.19.007zm192.623-13.125l.005-.301c.434.007.575-.133.648-.306l.571.017.054.585c-.42.376-.849.043-1.278.005zm-5.056-1.179c-.132.055-.264.161-.395.161-.356 0-.508-.133-.371-.284.054-.058.346-.111.488-.091.122.017.185.14.273.217l.005-.002zm-8.5-28.512c-.088-.075-.268-.159-.244-.224.069-.161.346-.214.62-.123.107.036.175.185.112.241-.073.06-.317.072-.488.106zm-9.592 35.381l1.214-.017c-.054.231-.02.532-.727.479-.424-.031-.463-.272-.487-.462zm-20.812-6.988c-.102-.072-.297-.147-.282-.212.043-.166.317-.234.609-.159.117.031.205.183.151.246s-.312.084-.478.125zm-2.306-35.476c.4.014.902.031.951.25.083.359-.537.327-1.024.342l.068-.595.005.002zm-2.093 95.906c-.058.065-.087.181-.204.212-.264.072-.532.019-.61-.125-.034-.063.073-.19.19-.219.254-.063.507-.029.624.132zM127.451 4.236c.258-.294.775-.311 1.321-.291-.102.462-.4.718-1.321.291zm-1.732 71.46c.4-.002.902.01.976.217.122.335-.464.359-.961.38l-.015-.6v.002zm151.906 43.664c-.522.026-.999.004-1.282-.258l.697-.332 1.048-.008a.6.6 0 0 1 .083.294l-.014.01-.527.294h-.005zM108.058 58.612l-.005.638-1.21-.019.035-.506 1.184-.113h-.004z"/><path d="M262.318 23.67c-.526.002-1.009-.036-1.263-.301 1-.479 1.132-.087 1.263.301zm-159.079 1.678v-.371l1.132-.082-.039-.019.024.583.024-.012-1.141-.099zm151.136 52.431c.069-.221.083-.563.688-.474.663.099.356.337-.088.486l-.6-.014v.002zM99.665 38.3c.112-.065.205-.173.337-.19.361-.041.57.075.546.238s-.312.236-.61.181c-.132-.024-.185-.149-.273-.229zm-.717 31.222c.117.065.327.13.327.195 0 .176-.273.246-.58.181-.117-.026-.224-.171-.185-.238.034-.06.288-.091.439-.135v-.002zm147.684-8.475c.083-.152.302-.224.585-.173.117.022.244.142.234.212-.029.157-.292.217-.57.171-.117-.019-.166-.137-.249-.21zM92.897 39.403c-.156-.034-.395-.046-.463-.104-.146-.132-.044-.267.263-.303.136-.017.4.036.463.096.146.133.019.248-.268.313l.005-.002zm145.524 44.354l-1.205.019.259-.58c.17.015.317-.01.444-.067l.594.043-.092.585zM90.356 20.082l.044-.595h1.146v.59l-1.185.007-.005-.002zm146.421 39.166c-.058.262-.083.53-.712.638l-.058-.034-.537-.306.01-.14v-.14l.649-.308.648.289zM89.664 10.237l.093.573c-.39.002-.917.017-1.009-.181-.156-.325.419-.364.917-.395v.002zm-2.521 31.075c-.132.058-.263.164-.395.164-.361 0-.512-.133-.376-.287.054-.06.351-.111.497-.094.122.014.185.14.273.217zM76.347 86.423c.493.031 1.151-.082 1.205.332l.01-.005-.858.27h-.127l-.585-.525c.161.027.278 0 .356-.072zm-.088-51.67l.083.576c-.39 0-.917.014-1.009-.183-.151-.325.429-.361.922-.393h.005zm-3.584 5.663c.073-.224.068-.571.692-.482.668.096.371.342-.058.506l-.634-.022v-.002zm-25.63 71.116l-.629.306c-.259.11-.58.101-.795-.005-.458-.222.083-.345.293-.463.312-.175.736-.055 1.117-.026-.039.063-.034.128.015.19v-.002zm218.922 5.451l1.189-.014c.025.231-.073.435-.497.573l-.707-.299.02-.13v-.13h-.005zm-20.783-29.927l.673-.058a1.99 1.99 0 0 0 .492.082 2.28 2.28 0 0 1 .073.246l-.721.313c-.103-.022-.21-.022-.317-.005l-.2-.578zm-111.502-7.175l-.643.313-.615-.311.01-.005.595-.296.015-.007.614.005c.015.099.019.197.024.296v.005zm90.187 28.405c.464.12.805.301.298.508-.312.125-.673-.026-.883-.195l.585-.315v.002zm-104.81-42.77c-.025-.25-.259-.549.585-.592l.014.005.571.33v.238l-1.185.01.015.012v-.002zm-2.502 40.379c.517-.034.932.041 1.224.26l-.634.335a4.3 4.3 0 0 0-.468-.005l-.122-.588v-.002zm-1.799-49.625c.068-.135.073-.364.219-.388.62-.104.776.169.995.371l-1.214.017zM8.07 11.111c.215-.19.551-.335.922-.154s.083.344-.307.453l-.614-.299zm323.136 8.374l.615-.005.575.308c-.224.277-.702.296-1.209.291l.019-.595zm-3.739-17.24l.019.125-.614.364a2.92 2.92 0 0 0-.459-.007l-.117-.585V2.14l1.171.108v-.002zM304.981 61.61c-.015-.21.098-.395.41-.542l.751.347-.015.13-1.146.063v.002zM182.148 86.919c-.078-.077-.239-.161-.215-.226.059-.159.327-.214.61-.137.087.024.131.173.068.224-.088.067-.302.096-.463.142v-.002zM76.971 35.331l.59-.325.639.024-.059.595c-.488-.007-.946-.036-1.17-.294zM6.801 22.779l.156-.583a1.04 1.04 0 0 0 .356-.003l.736.316a.62.62 0 0 0-.005.212l-1.204.072-.039-.014zm70.175 19.725a.56.56 0 0 1-.005.296c-.385 0-.566.101-.57.287l-.258.108a1.89 1.89 0 0 0-.4-.082l.049-.525 1.18-.089.01.007-.005-.002zm-2.501 35.891c.239.188.712.315.644.585-.878.042-1.247-.149-1.107-.573a1.41 1.41 0 0 0 .463-.012zm98.242-8.447c-.166-.041-.414-.06-.473-.125s.088-.164.146-.25c.166.048.366.079.483.147.176.096.098.185-.156.229zm112.121.648l.678.323a2.71 2.71 0 0 0-.044.294h-.634l-.6-.289-.019-.01.624-.318h-.005zm-117.63 32.012c.399.147.789.335.195.523a.78.78 0 0 1-.829-.241l.634-.282zM15.91 18.274a3.18 3.18 0 0 0-.507.01l-.566-.419.556-.207.6.034v-.002l-.083.585zm145.816 12.872c.38.106.653.27.307.448s-.692.043-.927-.13l.62-.318zM47.645 24.277l.093-.597c.649.224.746.429-.093.597zm.717 63.071c0-.161.083-.325.488-.277.488.055.278.195.063.313l-.551-.036zm299.292-48.716l1.194-.007a.74.74 0 0 1 .005.296h-.648c-.186.007-.371 0-.551-.029v-.13-.13zm-4.881-1.211l-.025.595c-.175 0-.351 0-.526-.005l-.059-.59h.61zM341.524 9.62l.024.595h-.634l.088-.592.527-.005-.005.002zm-4.754 22.839l1.136-.132c.053.693-.698.207-1.132.188v-.055h-.004zm-1.965 22.014l-.22.542-.073.017-.224-.556h.522l-.005-.002zm-8.451-.399c.448-.147.907-.32 1.17.091l-1.17-.091zm-8.66-33.082l.092.585h-.653l.102-.592.459.007zM314.1 35.93l.01.595h-.615l.035-.595h.565.005zm-7.3 30.476c.444-.32.859-.39 1.215.034l-1.215-.034zm-2.526-50.198c-.029.217-.268.337-.702.296-.288-.027-.405-.159-.4-.303l1.102.007zm-5.334 103.73c.112-.263.385-.427.887-.208.185.082-.112.215-.351.27a2.91 2.91 0 0 0-.536-.062zm-.78-75.917l.083.575-.639.005.137-.59.419.01zm-7.218-25.434l-.102.573-.41.012-.126-.588h.643l-.005.002zm-1.858-2.685l.039.592a12.69 12.69 0 0 1-.604-.002l.058-.588h.507v-.002zm-3.018 9.86l1.215.002v.282l-1.21.01v-.147-.147h-.005zm.615 46.048l.024.306-1.243-.007a.37.37 0 0 1 .063-.289l1.161-.01h-.005zm-4.876 1.5l1.214-.007c-.395.344-.805.34-1.214.007zm-1.19-59.214l-.166.573c-.112-.007-.225-.005-.337.012l-.195-.583.698-.002zm-7.354-11.36l1.21.01c-.415.323-.82.332-1.21-.01zm1.194 98.086c-.073.419-.639.332-1.175.274.054-.178.307-.265.609-.335l.586.065-.015-.007-.005.003zm-7.231-53.228l-1.248-.029c.448-.318.863-.311 1.248.029z"/><path d="M266.341 116.109c.083.221.498.501-.394.556v-.002l.238-.569.156.015zM64.186 88.248l-.034-.592h.639l-.073.592h-.532zm190.799 27.232l1.175.025a1.25 1.25 0 0 0 .024.235l-1.219.063.02-.325v.002zm-1.225-98.988l-.009.597c-.19 0-.381 0-.571-.002l-.029-.592h.609v-.002zM243.404 2.154h1.194c-.399.352-.794.352-1.194 0zm-1.151 2.364l-.132-.274c-.083-.164.122-.255.346-.344.132.113.308.222.381.342.048.082-.044.183-.078.274a3.78 3.78 0 0 0-.522 0l.005.002zm-8.622 34.401v.595h-.575l-.015-.595h.595-.005zm-1.824 49.332l1.205.024a1.12 1.12 0 0 0-.01.224l-1.19.053-.01-.301h.005zM68.432 73.613l-1.214-.026c.434-.335.844-.376 1.214.026zm-.408-3.643l-.171-.547h.532l-.2.561-.156-.014h-.005zM229.472-.129l.517-.116c.337-.079.619.029.619.144s-.278.222-.614.137l-.517-.116v-.051h-.005zm-.585 39.142l1.092-.094c.019.099 0 .195-.064.291-.399.007-.751-.051-1.028-.197zm-.746-30.89l-.02.59c-.166 0-.336-.002-.502-.002l-.029-.583.546-.002.005-.002zm-1.21 89.706c.2-.296.702-.289 1.2-.289l-.01-.005a2.23 2.23 0 0 0 .015.258l-1.205.036zm.586 10.464l.014.592h-.599l.039-.594h.541l.005.002zm-2.405-58.602l1.21-.01c-.39.38-.795.378-1.21.01zm-1.721.268c.127-.32.595-.33 1.112-.291-.103.347-.634.296-1.112.291zm-1.336-46.322c.4-.376.81-.366 1.219-.005l-1.219.005zm-10.927 52.079c.346-.007.95-.161.97.041.039.38-.619.116-.97.147v-.094-.094zm-2.463-38.304l1.194-.019c-.37.414-.775.351-1.194.019zm-4.34 24.507l.049.59h-.615l.044-.592.522.002zm-8.484-32.602l1.214.002v.284l-1.219.017v-.303h.005zm-2.048 44.306l.199.542c-.175 0-.346-.002-.521-.005l.185-.559.137.022zm-2.843 20.881l.014.595h-.614l.015-.597h.585v.002zm-2.433.585l1.131.026c-.405.32-.79.38-1.131-.026zm-3.653.619c.337-.431.756-.33 1.21-.048l-1.21.048zm-.03-20.936c.044.181.083.45-.327.441-.336-.007-.312-.294-.268-.477l.595.039v-.002zm-2.409 2.085c.371-.361.78-.32 1.205-.024l-1.205.024zm1.224 15.55l-.014.595c-.181 0-.361 0-.541-.005l-.078-.592h.633v.002zm-10.474.019c-.395.347-.771.361-1.112-.019l1.112.019zm-4.671-35.169c.439-.065.995-.325 1.097.161l.015-.007-1.136-.132.024-.022zm-.629 13.954l1.136-.026.014.315c-.556.072-1.033.067-1.15-.286v-.002zm1.131 33.158l-.01.592h-.56l-.044-.597.609.002.005.002zm-.678-64.869l.088.583h-.62l.108-.585.429.002h-.005zm-1.741 82.186l-.058.612a12.96 12.96 0 0 0-.483 0l-.054-.585.595-.027zm-3.661-92.384c.414-.315.819-.332 1.209.01l-1.209-.01zm1.213 37.989l-1.258-.036c.02-.077.02-.152 0-.229l1.258-.036v.301zm-2.443-43.06l1.204.022v.246l-1.204.039v-.306zm.005 68.778l1.209.005v.265l-1.199.012v-.14-.14l-.01-.002zm-.609 33.784l-.015.597h-.58l-.01-.595h.605v-.002zm-3.682-93.286l-.093.571-.439.017-.126-.595.658.007zm-78.006 3.888l-1.156-.063c.444-.234.853-.323 1.156.063zm64.064 18.894l1.166-.065v.002l.005.301v.002l-1.19-.075.024-.082v-.084h-.005zm-.677-23.982l.01.595h-.59l.019-.592h.566l-.005-.002zm-3.603 90.333c.546.103.638.315.575.568l-.673.007.112-.597-.014.022zM81.224 31.445l.088-.583a3.66 3.66 0 0 0 .419-.002l.132.587-.02.007c-.205 0-.415-.005-.619-.007v-.002zM137.32.037c.419-.32.824-.34 1.214.012L137.32.037zm-4.823 6.638l1.17-.06.01.007-.024.301c-.473.014-.902-.019-1.151-.248h-.005zm.522-1.839l-.014.585h-.503l-.034-.588h.551v.002zm.044 61.886l-.083.559c-.517-.106-.614-.318-.585-.561l.668.002zm-4.964-63.67c.054.181.117.47-.244.467-.37-.002-.287-.287-.224-.467h.473-.005zm-4.15 14.974l1.185-.058c-.322.39-.731.342-1.185.058zm-1.273 49.89l1.2.026c-.429.306-.829.325-1.2-.026zm-3.632-42.794c.458-.258.897-.393 1.204.063l-1.204-.063zm-2.054 23.11c.186.229.556.491-.375.532l.019.012.21-.554.142.01h.004zm-5.919 48.102l.025.592c-.712-.19-.698-.388-.025-.592zm-2.009-49.298l.161.272c.122.181-.053.25-.385.222-.249-.022-.273-.116-.156-.226.088-.082.122-.178.18-.27h.195l.005.002zm-1.019-19.176l.024.303-.634.077-.546-.383 1.156.002zM94.614 91.214c-.385.029-1 .053-1-.12s.614-.147 1-.118a1.89 1.89 0 0 1 0 .238zm-2.424-1.163c-.054.149.18.385-.395.376-.073 0-.127-.243-.19-.376h.585zm-3.658-26.63l1.2.046c-.449.294-.863.376-1.2-.046zm.03 17.683l1.19-.014a.9.9 0 0 1 0 .284h-1.2v-.135-.135h.01zm-2.984-42.989l1.126-.089c-.088.458-.668.231-1.117.193l-.01-.101v-.002zm-70.804-8.168l-1.18-.038c0-.07 0-.142-.015-.212l1.195-.053.01.005-.015.301.005-.003zm5.447-5.386c-.6-.21-.688-.409.054-.592l-.054.592zm2.487 7.491l-1.165-.075v-.087l-.024-.084 1.19-.079v.325zm1.131 10.673l-1.131.075.01-.26 1.151.068-.029.118zm.664-25.342c-.644-.205-.668-.402.029-.592l-.029.592zm.613 29.912c-.049.438-.648.32-1.17.279l.015.01a.56.56 0 0 1 .068-.275l1.087-.014zm12.192 8.348l-1.107-.08-.034-.103 1.17-.108.01.007a1.2 1.2 0 0 1-.054.291l.015-.01v.002zm5.481-27.184c-.054.431-.614.361-1.18.287.171-.315.688-.291 1.18-.287zM361 37.134c-.059.072-.093.199-.176.209-.341.038-.36-.091-.356-.213l.532.005zm-7.251 26.898c-.005.202-.215.306-.629.308.049-.181.258-.284.629-.308zm-4.271-14.052c-.015-.13 0-.265.361-.226.087.01.126.142.185.219l-.546.007zm-4.282 22.121c-.414.01-.619-.084-.6-.289.366.014.566.111.6.289zm-1.878-57.393c.049.091.064.185.039.279-.38-.005-.59-.094-.575-.289l.536.007v.002zM332.44 64.326c.015-.118 0-.263.356-.222.088.01.117.144.171.222h-.527zm-3.067-4.78c.034.221-.186.32-.629.306.034-.188.248-.289.629-.306zm-.629-43.651c-.337-.034-.532-.132-.6-.296.327.036.527.137.6.296zm-.005 9.27c.01.137.01.289-.385.248-.093-.01-.127-.159-.186-.243l.571-.005zm-7.344 25.121c-.058.082-.088.224-.176.233-.375.041-.375-.106-.38-.236h.556v.002zm-23.133-19.14h.605a2.98 2.98 0 0 1 0 .299c-.19 0-.376 0-.566-.005-.029-.096-.034-.193-.019-.289h-.025l.005-.005zm-11.606 41.263v-.315c.439-.007.629.099.6.308l-.595.01-.005-.002zm-.6-47.836c.01.096 0 .19-.029.284l-.541.003c.044-.166.239-.26.575-.289l-.005.002zm-4.286-21.83c-.058.084-.088.231-.175.241-.39.043-.381-.111-.386-.241h.561zm-4.871 18.538c-.058.161-.249.255-.58.284.073-.154.268-.248.58-.284zm-18.871 44.548l.253-.234.283.221-.536.012zm-8.505-51.136c0-.113.025-.235.337-.202.083.01.117.127.175.194l-.512.005v.002zm-.033 25.721h.609v.299c-.195 0-.385 0-.575-.002a.69.69 0 0 1-.03-.294l-.004-.002zm-.552 22.712c.058-.072.092-.197.18-.206.337-.036.366.089.351.213-.18 0-.356 0-.536-.007h.005zm-6.758-29.283c.419-.012.629.084.609.294-.205 0-.4-.01-.59-.038-.015-.087-.019-.171-.015-.258l-.004.002zm-.624 28.099c-.059.169-.259.27-.605.299.083-.159.278-.26.605-.299zm-3.662-9.566c-.01.19-.21.287-.595.294 0-.096.019-.193.068-.289l.531-.007-.004.002zm-1.839 17.31c-.142-.026-.395-.041-.41-.08-.073-.159.195-.154.415-.161a.71.71 0 0 1 0 .243l-.005-.002zm.02 28.432c-.39-.007-.609-.104-.624-.299.351.026.566.125.624.299zm-1.839-94.78l-.302.327c-.244-.077-.341-.185-.278-.325h.58v-.002zm-3.637 68.18c.395 0 .629.084.609.294l-.556-.012c-.063-.094-.078-.188-.039-.287l-.014.005zm-1.873-37.379c0 .12-.039.24-.356.199-.088-.01-.117-.13-.175-.197h.526l.005-.002z"/><path d="M225.649 50.291c-.059.072-.093.199-.181.209-.341.036-.341-.098-.346-.216l.522.007h.005zm-1.18-23.927c-.059.082-.093.229-.186.238-.385.043-.395-.106-.395-.241l.581.002zm-2.448 31.098c0 .125 0 .27-.366.229-.088-.01-.117-.149-.171-.229h.537zM206.865 78.08c.054-.075.083-.207.166-.217.351-.039.341.101.351.217h-.517zm-6.158-65.171a.54.54 0 0 1-.044.284h-.517c.024-.171.209-.267.556-.287l.005.002zm-5.491 17.917c-.243-.005-.541.002-.463-.176.02-.041.298-.055.458-.082.015.087.015.171 0 .258h.005zm-1.819 52.642c-.385-.007-.59-.106-.604-.296.346.026.551.125.604.296zm-2.442.903a.54.54 0 0 1-.039.287l-.566.01c.01-.195.224-.287.61-.296h-.005zm-9.773-48.438c-.014.12 0 .265-.361.226-.087-.01-.117-.145-.175-.224l.536-.005v.002zm-6.105 8.374c.03.096.034.19.025.287-.327-.031-.532-.123-.581-.289l.556.002zm-5.451-28.412h.609v.299h-.609v-.149-.149zm-2.497 78.349c-.059.077-.088.21-.176.217-.356.036-.356-.101-.351-.224l.527.005v.002zm-20.67 23.613c.014.2-.205.284-.595.279.039-.173.244-.265.595-.279zM145.185 2.748c-.005.142-.068.277-.434.219-.092-.014-.107-.154-.156-.236l.59.014v.002zm-1.179 96.588l-.308.233-.278-.243c.196-.007.391-.005.586.01zm-3.018-96.578c.58.096.517.188-.01.277l.01-.277zm.019 43.03c-.035.195-.259.287-.644.301.073-.173.297-.267.644-.301zm-1.805 9.863c.01-.132.068-.265.42-.209.092.014.107.147.156.226l-.576-.014v-.002zM17.218 16.499c.336.031.536.128.6.294-.317-.038-.522-.135-.6-.294zm26.858 48.127l.288-.221.273.225c-.185 0-.376 0-.561-.005zM21.431 35.04c-.054.075-.083.205-.166.214-.346.038-.346-.099-.351-.217h.522l-.005.002zm4.885 29.002c-.054.072-.078.192-.166.204-.317.046-.341-.086-.385-.197l.551-.01v.002zm.697.881c.059-.077.093-.209.181-.219.356-.038.351.106.366.226-.18 0-.366 0-.546-.005v-.002zm41.414-36.471c-.073.161-.273.258-.605.289.073-.159.283-.253.605-.289zm18.302-1.498c.058-.164.258-.26.59-.294v-.002a1.19 1.19 0 0 1-.029.294h-.561v.002zm-12.162-8.678l-.044-.142v-.145c.37.012.575.106.59.294-.18 0-.366 0-.546-.007zm15.814 70.273l-.01-.144.044-.142.561-.007c.02.205-.2.294-.595.294zm1.181-19.725c0 .125 0 .267-.361.226-.088-.01-.117-.147-.171-.224l.531-.002zm-75.579-.901c0 .198-.185.303-.6.303.044-.178.239-.282.6-.303zm82.936-7.76c.234 0 .493.01.419.169-.019.041-.268.058-.41.087l-.015-.128v-.128h.005zm8.489 2.981l-.268.204-.268-.204h.536zm-63.323 48.12c-.039-.199.18-.272.551-.274.024.19-.195.267-.551.274zm47.51-19.127c-.385.012-.756-.019-1-.178-.088-.058-.122-.183-.058-.246.21-.205.429-.036.629.022.161.043.302.106.449.161v.123l-.024.12.005-.002zm2.439.009c-.38-.019-.761-.041-.58-.311.029-.041.136-.106.18-.101.454.055.502.214.405.407l-.005.005zm-4.867-.59c.258.014.371.067.307.154 0 .002-.161-.002-.195-.024-.054-.036-.068-.089-.098-.134l-.015.005zm1.19-.628l.458.171c-.483.178-.439-.031-.492-.164l.034-.007z"/><path d="M91.595 92.137l.029-.12v-.123c.293-.017.507.024.405.19-.02.036-.283.036-.434.053zm-4.871-9.865c.063-.296.361-.416.946-.279.234.055.249.137.112.214-.317.185-.707.053-1.063.06v.002l.005.002zm191.448-52.929l.229-.233.244.128-.483.099.015.007h-.005zm-1.829-27.775c.512.046 1.224-.084 1.306.344.035.169-.219.258-.507.267-.434.014-1.024.142-1.209-.144-.083-.123.278-.315.434-.474l-.024.007zm-95.088 78.604c.093.145.049.265-.258.325a.41.41 0 0 1-.234-.072c-.044-.164.161-.234.458-.26l.034.007zm12.055-20.878a.59.59 0 0 0-.005.209c-.751.022-1.507.185-2.482-.01.858-.446 1.701-.231 2.487-.2zm-57.199 48.376l.556.038c.078.159.287.255.609.292-.278.464-.736.349-1.243.096l.073-.426h.005zm2.414 1.22c-.073.162-.283.258-.605.299.079-.159.288-.255.605-.299zm59.753-44.855l.244-.241.273.137-.522.104h.005zm151.824-22.733l.258-.132c-.015.026-.01.065-.049.079-.058.024-.146.034-.219.048l.01.005zM179.973 23.656c-.38.005-.814.091-1.038-.14-.034-.034.17-.168.302-.183.527-.058.668.118.727.33l.014-.007h-.005zm-2.409.305l-.01-.142.01-.142c.336.029.526.125.59.289h-.585l-.005-.005zm-1.823-10.748a4.64 4.64 0 0 1 .58-.002c-.005.125-.049.255-.385.212-.093-.012-.132-.137-.195-.21zm90.811 2.073c.307-.024.551.014.629.176.014.029-.117.111-.166.108-.327-.017-.439-.135-.468-.279v-.007l.005.002zm85.973 18.258l.298.139c-.064-.007-.151-.005-.186-.024-.053-.031-.073-.079-.107-.12l-.01.005h.005zM76.352 17.689c-.268-.01-.483-.06-.502-.21 0-.026.146-.084.195-.077.288.041.351.152.307.287zM72.13 40.734l1.18-.024c0 .176 0 .356-.507.352-.419-.005-.619-.135-.673-.325v-.002zm135.92-.609l1.229.279c-.132.207-.414.361-.863.311-.746-.082-.385-.371-.371-.592l.005.002zM25.249 26.258l.21-.19c.063.031.195.07.185.096-.029.067-.117.13-.18.195l-.21-.101h-.005zm70.95 3.038l-.18-.048.2-.13.176.093-.195.086v-.002zM45.948 71.097l.21-.183c.063.031.185.072.175.096-.034.067-.122.128-.185.19l-.2-.103zm52.43-47.853l.215-.173c.058.031.181.07.171.094-.034.065-.122.12-.19.181l-.195-.101zm-57.54 46.579c0 .031.02.07-.015.089a.25.25 0 0 1-.346-.055c-.01-.014.107-.067.185-.082.044-.007.117.029.175.046v.002zM3.914 68.708l.215-.188c.063.031.19.07.18.094-.029.067-.117.128-.18.19l-.21-.099-.005.002zm106.865 47.301c-.059-.033-.166-.069-.161-.1s.122-.06.19-.089c.058.033.166.069.161.101s-.122.06-.19.088zm100.656-83.118l-.215-.053.225-.146.214.101-.224.096v.002zm-6.997 15.167l.112-.096.297.105c-.073.031-.146.089-.214.086s-.132-.062-.195-.096zM116.05 99.485l.107-.105.298.113-.21.103-.195-.11zM90.317 46.121l-.044.525c-.439.002-1.063.128-1.131-.217-.088-.47.639-.335 1.175-.308zm-1.384 68.408l-.371-.101c.063-.031.146-.091.195-.084.136.014.258.058.39.089l-.21.096h-.005zM70.827 58.663l-.21.211-.229-.117.454-.086-.015-.007zM290.938 13.2l-.624.007c.19-.283.399-.293.624-.007z"/><path d="M289.743 13.492l-.014-.142v-.142l.619-.012c-.054.173-.259.267-.605.294v.002zM156.82 114.866v.301l-1.21-.007-.014-.592 1.224.301v-.003zM12.979 22.762l.21-.231.254.125-.478.099.015.007zm82.259 56.81l-.302-.144c.063.007.156.005.19.026.054.034.068.082.102.125l.01-.005v-.002zm-2.429-30.487c-.01.197-.234.284-.614.301-.019-.209.219-.294.614-.301zM79.37 32.646l-.254.236c-.4-.212.02-.197.268-.229l-.015-.007zm104.304 61.901c.341.022.546.111.58.284-.346-.019-.541-.113-.58-.284zm-31.725-70.576l.522.106-.283.135-.239-.241zm77.903 2.747c-.048.058-.053.116-.009.176-.439-.007-1.112.231-1.112-.248l1.126.075-.005-.002zM97.061 38.324l-.258.229c-.434-.224.054-.185.263-.226l-.01-.005.005.002zM41.003 73.907l1.18.007c-.059.176-.127.354-.6.354s-.522-.188-.58-.359v-.002zm257.854-38.564l-.585-.315c.02-.219.025-.441.532-.544l.682.248c.044.267.43.616-.629.612zM101.323 110.67h-.566c.059-.077.093-.207.186-.219.351-.044.37.093.38.219zm159.168-90.905l-.035-.137.015-.137c.244.005.522.01.449.178-.02.046-.278.065-.429.096zM94.009 94.823h-.575l.283-.204.288.204h.005zm45.765-3.589l-.02-.142.015-.142c.253.012.57.002.487.188-.019.046-.312.063-.478.094l-.004.002zM337.755 43.99c.01-.099.054-.195.127-.289l1.209.017c-.234.34-.824.258-1.336.272zM65.36 61.353a.64.64 0 0 1-.015.272c-.146-.031-.39-.05-.414-.096-.073-.161.185-.173.429-.176zm284.084-21.859a.97.97 0 0 0 .493.094c-.03.091.029.166.175.221-.073.176-.214.316-.648.306l-.025-.624.005.002z"/><path d="M349.491 39.207l.01.323c-.527.041-.756-.065-.678-.328l.668.005z"/><path d="M348.229 39.225l-.024-.306h.649l.029.308c-.22 0-.439-.002-.654-.002zm4.506 17.317a1.14 1.14 0 0 0 .405.019c.029.135-.093.291-.327.272-.249-.022-.249-.178-.078-.291zM108.019 28.139l.654.01-.327.308-.327-.318zm166.456 3.308a1 1 0 0 1 0 .289c-.527-.096-.532-.193 0-.289zM161.75 47.267l-.029-.128.015-.128 1.146.017c.019.077.024.152 0 .229l-1.132.01zm169.412-36.166c-.419.014-.79-.024-1.014-.222.434-.031 1.009-.219 1.014.222zm-70.681 60.418c-.512.026-1.073.101-1.18-.282.507-.019 1.175-.202 1.18.282zM6.246 22.774c-.497-.005-.98-.019-1.204-.294.507-.005 1 0 1.204.294zm149.97 7.768v-.144-.145l.595-.002c-.068.161-.268.26-.6.294l.005-.002zm-37.762 2.976l-.029-.135.009-.137c.391 0 .605.089.59.289a5 5 0 0 1-.57-.017zm230.414 29.616c.025-.185.234-.277.595-.294-.019.185-.234.277-.595.294zM98.241 46.364l-1.039-.036-.039-.79 1.097-.024c.249.284.244.568-.02.85zm-50.562 8.41l.024.595-1.195-.022.034-.549 1.136-.024zm178.643-6.886v-.149-.149h.61v.299h-.61z"/></g><path stroke="url(#B)" stroke-width="1.119" d="M 58.00001 72.44031 L 304 72.4403"/><g opacity=".1"><path d="M21.144-16L-83.075 123h52.125L73.3-16H21.144z" fill="url(#C)"/><path d="M84.852-16L-19.366 123H4.959l104.25-139H84.852z" fill="url(#C)"/></g><g opacity=".3"><path d="M352.25 120l54.733-73h-27.375l-54.75 73h27.392z" fill="url(#D)"/><path d="M318.791 120l54.734-73H360.75L306 120h12.791z" fill="url(#D)"/></g><path opacity=".1" fill-rule="evenodd" d="M-23-10.462a.54.54 0 0 1 .538-.537h125.407a.54.54 0 0 1 .538.537v68.956.001.027.054l.001.049-.003.397-.047 1.512-.496 5.532a85.35 85.35 0 0 1-4.416 18.205c-5.165 14.209-15.708 31.088-37.198 41.711l-21.235 10.532c-.143.071-.311.075-.457.009l.218-.491-.218.491h-.001l-.019-.009-.059-.026-.229-.103-.875-.4-3.194-1.507c-2.684-1.291-6.365-3.124-10.351-5.287-7.95-4.313-17.195-9.983-22.13-15.326-.159-.172-.188-.428-.072-.631l12.22-21.35c.096-.167.274-.27.466-.27h29.927l30.034-52.075L60.44 13.745.599 13.543l14.996 25.456h30.286c.193 0 .37.103.466.27a.54.54 0 0 1-.002.539L30.877 66.242a.54.54 0 0 1-.464.266H.149l-13.837 23.498c-.011.028-.025.056-.042.083-.098.159-.271.255-.457.255h-.007a.54.54 0 0 1-.513-.377l-.057-.117-.266-.561a73.13 73.13 0 0 1-.944-2.119c-.781-1.824-1.821-4.429-2.86-7.558C-20.913 73.359-23 64.983-23 56.549v-67.012zm8.86 99.117L-.622 65.698a.54.54 0 0 1 .463-.265h30.264l14.839-25.36H15.288a.54.54 0 0 1-.463-.265L-.807 13.275c-.098-.166-.099-.373-.003-.54s.275-.271.468-.27l61.094.207a.54.54 0 0 1 .464.268l15.218 26.328c.096.166.096.371 0 .538L46.09 92.417c-.096.166-.273.269-.466.269H15.699L3.831 113.421c4.865 5.115 13.773 10.585 21.584 14.823a242.39 242.39 0 0 0 10.305 5.264l3.178 1.499.868.397.072.032 21.008-10.419.001-.001c21.181-10.47 31.568-27.094 36.664-41.114a84.32 84.32 0 0 0 4.36-17.973 69.65 69.65 0 0 0 .488-5.447 43.08 43.08 0 0 0 .046-1.475l.003-.38v-.053c-.001-.017-.001-.031-.001-.042v-.023-.005-.001h0v-.009-68.418H-21.925v66.474c0 8.273 2.05 16.525 4.11 22.724a96.62 96.62 0 0 0 2.829 7.474l.846 1.907z" fill="url(#E)"/><g fill="#ab750f"><path d="M10.595 94.127H9v-.532h1.595V92h.532v1.595h1.595v.532h-1.595v1.595h-.532v-1.595zm0 8.331H9v-.532h1.595v-1.595h.532v1.595h1.595v.532h-1.595v1.595h-.532v-1.595zm0 8.331H9v-.532h1.595v-1.595h.532v1.595h1.595v.532h-1.595v1.596h-.532v-1.596z"/></g><g stroke="#ab750f" stroke-width="1.032"><path d="M17.227 33.747V18.26h15.487M10 35.812V10h25.812m307.773 76.065v15.487h-15.488M350.812 84v25.812H325"/></g><g fill-rule="evenodd"><path d="M220.404-.124H131l8.71 20.752h80.694v-.053h.23l8.71-20.7h-8.94z" fill="#6c4b0e"/><path d="M141.08-2h86.871l-8.463 20.7h-.224v.053h-78.407L132.393-2h8.687 0z" fill="url(#F)"/></g></g><defs><linearGradient id="A" x1="184.26" y1="76.917" x2="183.825" y2="116.656" href="#H"><stop stop-color="#d8a956" stop-opacity="0"/><stop offset="1" stop-color="#ab750f"/></linearGradient><linearGradient id="B" x1="58" y1="73.5" x2="304" y2="73.5" href="#H"><stop stop-color="#cf9a3a" stop-opacity="0"/><stop offset=".464" stop-color="#cf9a3a"/><stop offset="1" stop-color="#cf9a3a" stop-opacity="0"/></linearGradient><linearGradient id="C" x1="33.917" y1="-16" x2="33.917" y2="123" href="#H"><stop stop-color="#ab750f"/><stop offset=".516" stop-color="#d8a956"/><stop offset="1" stop-color="#ab750f" stop-opacity="0"/></linearGradient><linearGradient id="D" x1="345.542" y1="120" x2="345.542" y2="47" href="#H"><stop stop-color="#ab750f"/><stop offset=".516" stop-color="#d8a956"/><stop offset="1" stop-color="#ab750f" stop-opacity="0"/></linearGradient><linearGradient id="E" x1="102.945" y1="62.784" x2="-22.462" y2="62.784" href="#H"><stop stop-color="#ab750f" stop-opacity="0"/><stop offset="1" stop-color="#ab750f"/></linearGradient><linearGradient id="F" x1="132.393" y1="-.783" x2="141.056" y2="38.829" href="#H"><stop stop-color="#ab750f"/><stop offset=".484" stop-color="#d8a956"/><stop offset="1" stop-color="#ab750f"/></linearGradient><clipPath id="G"><path fill="#fff" d="M0 0h361v120H0z"/></clipPath><linearGradient id="H" gradientUnits="userSpaceOnUse"/></defs></svg>