<svg xmlns="http://www.w3.org/2000/svg" width="393" height="229" fill="none" xmlns:v="https://vecta.io/nano"><g clip-path="url(#K)"><path fill="#212121" d="M0 0h393v231.979H0z"/><path fill="url(#A)" fill-opacity=".2" d="M0 87.141h393v141.917H0z"/><path fill="url(#B)" fill-opacity=".1" d="M0 165.523h393v63.141H0z"/><g opacity=".35" fill="#fff"><path d="M306.626 93.568c-.53-.726-1.415-.396-2.082-.732-.964-.488-.958-.742.122-1.74l.053-.016c.228.363.572.466.969.466.058.179.18.249.366.206.201.401.561.542.958.618l-.026-.022-.265 1.241-.095-.016v-.006zm-58.549-5.333l-.668.195-1.281.022-.737-.146c-.18-.461-.233-.921-.026-1.387l2.076-.114a1 1 0 0 0 .641.06c.122.163.281.211.471.152l.239.634-.721.585h.006zm-9.259-57.819c.821-.276 1.367.325 2.002.65v.011l-.016.677a4.93 4.93 0 0 1-.64.092l-.721.103-.614.482-.593-.022-.186-.629-.164-.715c.117-.108.233-.103.339.016.355-.076.498-.341.588-.661l.005-.005zm30.432 160.186c.286.916.117 1.517-.985 1.447l-1.61-.152.016.016c-.106-.661.593-.807.795-1.273.201.108.37.07.503-.119l1.303.097-.022-.016zm-84.066-47.777c.45-.884.91-.705 1.371-.017.064.358.302.548.625.656-.021.439.016 1.041-.461 1.122-.757.135-.768-.591-.895-1.111-.069-.363-.312-.547-.635-.65h-.005zm-64.302-4.417h.032c-.943.677-1.838.921-2.559-.309l-.021.021c.599-.314 1.139-.84 1.907-.542l-.095-.086.73.916h.006zm171.227-114.17c-.154-.141-.292-.303-.461-.417-.498-.336-.736-.802-.344-1.295.413-.515.9-.249 1.313.114l.482.396-.01-.022c-.064.618-.663.808-.959 1.241l-.027-.016h.006zm-7.6 58.02l-.037-.715c.524-.087 1.107-.043 1.398-.65.424.027.969.043 1.038.526.106.764-.625.71-1.091.883l-1.308-.049v.005zm-43.63 139.05v-.878l1.261-.238.63 1.338.016-.021-1.271.58.047.081-.678-.862h-.005zM160.758 45.942c1.271-.146 2.542-.331 3.781.2v.173c-1.292.179-2.643 1.035-3.781-.374zM11.452 148.092l-.821.011c-.339-.607-.339-1.235-.101-1.875l-.08.07 1.165.038-.074-.07a2.15 2.15 0 0 1-.09 1.821v.005zm22.8-49.815c.201-.266.371-.558.604-.786.328-.32.773-.585 1.107-.092.302.444-.026.808-.429 1.046l-1.276-.168h-.005zm221.79 60.004c-.403 1.842-.721 2.07-1.965 1.393l.656-.716v.006l.641-.689.011-.01.662.016h-.005zm113.185-30.972l-2.495-.022c-.084-.363-.015-.628.408-.666.556-.033 1.197.152 1.451-.613l.662.022-.031-.032.005 1.316v-.005zM97.335 8.261h.27l.847.618c-.101 1.165-.508 1.588-1.493.645l.376-1.263zm69.386 172.917h.53l.731.639v.011l.572.965.01.086-1.255.331-.021-.022c-.074-.357-.281-.585-.635-.677l.068-1.333zm-50.325-90.867c-.397-.217-.699-.52-.45-.986.175-.336.53-.266.832-.119l.836.444.037.672c-.418 0-.836 0-1.255-.005v-.005zm87.848-51.316c-.1-.173-.301-.363-.275-.509.074-.374.387-.493.689-.282.121.087.201.428.132.553-.08.141-.355.163-.546.239zm-18.186 43.252c.032-.368.228-.602.593-.547.35.054.53.331.429.672-.047.157-.243.347-.402.385-.371.087-.562-.157-.62-.509zm198.422 72.609a.63.63 0 0 1-.625.059.59.59 0 0 1-.44-.043.28.28 0 0 1-.37.07c.354-.395.19-.856.158-1.3l1.303-.071-.016 1.279-.01.006zm-213.84-6.737c.059-.504.096-1.094.784-.986.434.071.482.564.509.97l-1.293.016zm209.211-29.541l.005-.677c.472.016.625-.298.705-.688.206 0 .413.016.62.038l.058 1.316c-.456.846-.922.098-1.388.011zm-5.492-2.655c-.143.124-.286.363-.429.363-.386 0-.55-.298-.402-.64.058-.13.376-.249.529-.206.133.038.202.315.297.488l.005-.005zm-9.231-64.171c-.095-.168-.291-.358-.265-.504.074-.363.376-.482.673-.276.116.081.19.417.122.542-.08.135-.345.163-.53.238zm-10.418 79.632l1.318-.038c-.058.521-.021 1.198-.789 1.079-.461-.071-.503-.613-.529-1.041zM146.664 9.372c-.111-.163-.328-.331-.317-.477.037-.385.333-.537.662-.352.132.076.243.417.185.558s-.344.184-.53.271zm185.442 106.285c-.111-.163-.323-.331-.307-.477.048-.374.344-.526.662-.358.127.071.222.412.164.553s-.339.19-.519.282zm-2.505-79.849c.434.033.979.071 1.032.564.09.808-.582.737-1.112.77l.074-1.339.006.005zm-190.876 1.339c.281-.661.842-.699 1.436-.656-.112 1.041-.435 1.615-1.436.656zm-1.88 160.836c.434-.005.98.022 1.059.488.133.753-.503.807-1.043.856l-.016-1.349v.005zM307.065 1.352l.032-.195-.027-.195 1.282-.173.011.011.603.818c-.037.119-.037.238 0 .363l-1.276.163-.625-.797v.005zm-12.611 25.693c-.429-.596-.868-1.192-.646-2.005h.604l.689.688-.016-.016-.059 1.322c-.19-.011-.386 0-.577.016l.005-.006zM122.286.793l1.318.022c-.026.428-.063.975-.519 1.046-.757.125-.73-.553-.799-1.068zm166.941 2.715c.419.038.969.043 1.022.537.085.77-.577.742-1.101.786l.074-1.328.005.005zM117.662 159.533l-.005 1.436-1.314-.043.038-1.139 1.286-.254h-.005zm167.546-78.647c-.572.005-1.097-.081-1.372-.677 1.086-1.078 1.229-.195 1.372.677zm-172.779 3.778v-.835l1.229-.184-.042-.043.026 1.311.026-.027-1.239-.222zM276.58 202.671c.075-.499.09-1.268.747-1.068.72.223.387.759-.095 1.095l-.652-.032v.005zm-168.033-88.856c.122-.147.223-.39.366-.428.391-.093.619.168.593.536-.027.379-.339.531-.662.407-.143-.055-.202-.336-.297-.515zm-.778 70.273c.127.146.355.293.355.439 0 .395-.297.553-.631.406-.127-.059-.243-.384-.201-.536.037-.136.313-.206.477-.304v-.005zm160.401-19.076c.09-.342.329-.504.636-.391.127.049.265.32.254.477-.032.353-.318.488-.62.385-.127-.043-.18-.309-.27-.471zm-166.974-48.715c-.17-.076-.429-.103-.503-.233-.159-.299-.048-.602.286-.683.148-.038.434.081.503.216.159.299.021.559-.291.705l.005-.005zm158.056 99.83l-1.308.044.28-1.306c.186.032.345-.022.482-.152l.647.097-.101 1.317zM98.436 72.812l.048-1.339h1.245v1.328l-1.287.016-.005-.005zm159.031 88.152c-.064.59-.09 1.192-.773 1.436l-.064-.076-.583-.688.011-.315v-.314l.704-.694.705.651zM97.685 50.652l.101 1.29c-.424.005-.996.038-1.096-.407-.169-.732.456-.818.996-.889v.005zm-2.738 69.942c-.143.13-.286.369-.429.369-.392 0-.556-.298-.408-.645.058-.136.381-.249.54-.211.132.032.201.314.297.487zM86.552 14.873c.037-.423.005-.997.487-1.057.731-.092.747.58.821 1.111l-1.308-.049v-.005zm-.911-8.752l-.906.016-.191-1.295 1.292.005-.191 1.274h-.005zM83.22 222.126c.535.071 1.25-.184 1.308.748l.011-.011-.932.607h-.138l-.636-1.181c.175.06.302 0 .387-.163zm-.094-116.294l.09 1.295c-.424 0-.996.033-1.096-.412-.164-.731.466-.813 1.001-.883h.005zm-3.894 12.746c.079-.504.074-1.284.752-1.084.726.217.403.77-.064 1.138l-.688-.048v-.006zM287.639 6.771c-.36-.07-.89.244-1.022-.32-.048-.217.259-.515.402-.775V5.59l.731.878c-.127.07-.164.168-.111.303zm-1.091 4.807c.503-.033.927.136 1.244.547l-.619.791a1.96 1.96 0 0 0-.562-.032l-.063-1.306zm-19.951 211.974l.731-.13a1.19 1.19 0 0 0 .535.184l.079.553-.783.704c-.112-.049-.228-.049-.345-.011l-.217-1.3zm-121.103-16.15l-.699.704-.668-.699.011-.011.646-.666.016-.016.667.01.027.667v.011zm-15.883-32.332c-.027-.564-.281-1.236.635-1.333l.016.011.62.742v.537l-1.287.021.016.027v-.005zm-4.671-20.811c.074-.303.079-.818.238-.872.673-.233.842.379 1.08.834l-1.318.038zM9.064 52.619c.233-.428.598-.753 1.001-.347s.09.775-.334 1.019l-.667-.672zm350.964 18.849l.667-.011.625.694c-.243.623-.762.666-1.313.656l.021-1.339zm-4.062-38.803l.021.282-.667.818c-.164-.033-.334-.038-.498-.016l-.127-1.317v-.005l1.271.244v-.005zM331.544 166.28c-.016-.472.106-.889.445-1.22l.816.781-.016.292-1.245.141v.006zm-133.411 56.963c-.085-.174-.26-.363-.233-.51.063-.357.355-.482.662-.308.095.054.143.39.074.504-.095.151-.328.216-.503.319v-.005zM83.899 107.133l.641-.732.694.054-.064 1.339c-.53-.016-1.027-.081-1.271-.661zM7.686 78.881l.169-1.311a.56.56 0 0 0 .387-.005l.8.71a2.87 2.87 0 0 0-.005.477l-1.308.163-.042-.032zm76.218 44.396c.026.222.026.444-.005.667-.418 0-.614.227-.62.644l-.281.244c-.132-.092-.281-.151-.434-.184l.053-1.181 1.282-.201.011.016-.005-.005zm107.301-98.915l.604-.011.646.715-.027-.022-.016.309.011.309h.037l-1.303.022.048-1.333v.011zM81.188 204.058c.259.423.773.71.699 1.317-.953.094-1.354-.336-1.202-1.29.169.049.339.038.503-.027zm106.702-19.011c-.18-.092-.45-.135-.514-.282-.058-.135.095-.368.159-.563.18.108.397.178.524.33.191.217.106.418-.169.515zm121.776 1.458l.736.726-.047.661h-.689l-.651-.65-.021-.022.677-.715h-.005zM17.579 68.742a1.71 1.71 0 0 0-.551.022l-.614-.943.604-.466.651.076v-.005l-.09 1.317zm158.373 28.972c.413.238.71.607.334 1.008-.381.406-.752.097-1.006-.293l.672-.715zM52.047 82.252l.101-1.344c.704.504.81.965-.101 1.344zm.779 141.956c0-.363.09-.732.53-.624.53.125.302.439.069.705-.196-.043-.397-.071-.598-.081zm325.066-109.645l1.297-.017a3.54 3.54 0 0 1 .006.667h-.705c-.201.016-.402 0-.598-.065v-.293-.292zm-5.302-2.727l-.026 1.339c-.191 0-.381 0-.572-.011l-.064-1.328h.662zm-1.356-62.572l.026 1.339h-.688l.095-1.333.572-.011-.005.005zM59.366 13.534l-1.319.092.011-.726 1.308.087a4.54 4.54 0 0 0 0 .547zm306.704 87.133l1.234-.298c.058 1.561-.757.466-1.229.423v-.125h-.005zm-2.134 49.55l-.238 1.219-.08.038-.243-1.252a4.86 4.86 0 0 1 .566 0l-.005-.005zm-9.179-.9c.487-.33.985-.721 1.271.206l-1.271-.206zm-4.659-130.97c.54-.038 1.059-.038 1.271.612-.519 0-1.023-.038-1.271-.612zm-4.746 56.513l.1 1.317h-.71l.112-1.333c.164.016.328.022.498.016zm-3.904 33.622l.011 1.338h-.667l.037-1.338h.614.005zm-7.928 68.593c.482-.721.932-.878 1.319.076l-1.319-.076zm-2.744-112.983c-.031.488-.291.759-.762.667-.313-.06-.44-.358-.435-.683l1.197.016zm-6.64 62.599l.09 1.295-.694.011.148-1.328c.148.022.302.028.456.022zm-7.84-57.245l-.111 1.29a3.07 3.07 0 0 0-.445.027l-.137-1.322h.699l-.006.005zm-2.018-6.042l.043 1.333a6.65 6.65 0 0 1-.657-.006l.064-1.322h.55v-.005zm-3.277 22.192l1.318.005v.634l-1.313.022v-.331-.331h-.005zm.667 103.64l.026.689-1.35-.017a1.59 1.59 0 0 1 .069-.65l1.26-.022h-.005zm-5.296 3.376l1.318-.016c-.429.775-.873.764-1.318.016zm-1.293-133.273l-.18 1.29a.84.84 0 0 0-.365.027l-.212-1.312.757-.005zm-7.986-25.569l1.313.022c-.45.726-.89.748-1.313-.022zM67.861 13.99l-1.192.271c.116-1.024.71-.515 1.186-.385v.114h.005zm222.675 120.744l-1.356-.066c.487-.715.937-.699 1.356.066zM281.913 11.67l1.287-.13.016.016.027.688-.043.049-1.303-.162c.022-.152.027-.309.022-.461h-.006zM70.012 226.235l-.037-1.334h.694l-.079 1.334h-.577zM275.913 64.731l-.011 1.344c-.207 0-.413 0-.62-.005l-.031-1.333h.662v-.005zm-11.249-32.272h1.297c-.434.791-.863.791-1.297 0zm-1.25 5.322l-.143-.618c-.09-.368.132-.574.376-.775.143.255.334.499.413.77.053.184-.048.412-.085.618a1.98 1.98 0 0 0-.566 0l.005.005zm-9.364 77.427v1.338h-.625l-.016-1.338h.646-.005zm-1.981 111.032l1.308.054-.011.504-1.292.119-.011-.677h.006zM74.625 193.296l-1.319-.06c.471-.753.916-.845 1.319.06zm-.444-8.2l-.185-1.231c.191-.01.387-.016.577 0l-.217 1.263-.169-.032h-.005zM249.533 27.321l.561-.26c.365-.179.673.065.673.325s-.302.498-.668.309c-.185-.098-.376-.174-.561-.26v-.114h-.005zm-.636 88.098l1.186-.211a1.63 1.63 0 0 1-.069.656c-.434.016-.816-.114-1.117-.445zm-.811-69.525l-.021 1.328c-.18 0-.365-.005-.545-.005l-.032-1.312a4.33 4.33 0 0 1 .593-.005l.005-.005zm-3.289 93.56l1.314-.022c-.424.856-.863.851-1.314.022zm-1.869.601c.137-.72.646-.742 1.207-.655-.111.78-.688.666-1.207.655zm-1.451-104.258c.435-.845.879-.824 1.324-.011l-1.324.011zm-11.869 117.216c.376-.016 1.033-.363 1.054.092.043.856-.672.26-1.054.331v-.212-.211zm-2.675-86.212l1.298-.043c-.403.932-.842.791-1.298.043zm-4.713 55.159l.053 1.328h-.667l.047-1.333.567.005zm-9.215-73.378l1.319.006v.639l-1.324.038v-.683h.005zm-2.225 99.722l.218 1.219a17.87 17.87 0 0 1-.567-.011l.201-1.257.148.049zm-3.087 46.997l.015 1.338h-.667l.016-1.344h.636v.006zm-2.643 1.316l1.229.06c-.44.721-.858.856-1.229-.06zm-3.966 1.393c.365-.97.82-.742 1.313-.108l-1.313.108zm-.033-47.121c.047.406.09 1.013-.355.991-.366-.016-.339-.661-.292-1.073a3.7 3.7 0 0 0 .647.087v-.005zm-2.617 4.693c.403-.813.847-.721 1.308-.054l-1.308.054zm1.33 34.998l-.016 1.339c-.196 0-.392 0-.588-.011l-.085-1.333h.689v.005zm-3.209-169.296l1.202-.271-.011-.016.027.331v.336c-.482.136-.858-.125-1.25-.325l.032-.054zm-8.077 4.374l-1.324.049c.418-.737.858-.77 1.324-.049zm-.091 164.966c-.429.78-.837.813-1.207-.044l1.207.044zM187.17 6.18c-.217.016-.429.016-.646 0l.053-1.333.662.672-.074.656.005.005zm-3.856 105.288c.477-.146 1.08-.732 1.192.363l.015-.016-1.234-.298.027-.049zm.487-93.815l.053 1.312c-.212.027-.429.027-.641 0l.095-1.322h.493v.011zm-1.171 125.22l1.234-.059.016.71c-.603.162-1.122.151-1.25-.645v-.006zm1.229 74.631l-.01 1.333h-.609l-.048-1.344.662.006.005.005zM183.123 71.5l.095 1.312h-.672l.116-1.317a2.66 2.66 0 0 0 .466.005h-.005zm-5.868-22.951c.451-.71.89-.748 1.314.022l-1.314-.022zm1.318 85.502l-1.366-.082c.021-.173.021-.341 0-.514l1.366-.082v.678zm-2.653-96.915l1.308.049v.553l-1.308.087v-.688zm.005 154.799l1.314.011v.596l-1.303.027v-.314-.315l-.011-.005zm-4.66-133.924l-.101 1.284a2.83 2.83 0 0 0-.477.038l-.137-1.339.715.016zm-84.723 8.753l-1.255-.141c.482-.526.927-.726 1.255.141zm69.58 42.526l1.266-.147v.006l.006.677v.006l-1.293-.168.027-.185v-.189h-.006zm-.735-53.978l.01 1.339h-.64l.021-1.333h.614l-.005-.005zm-66.87 43.074l.095-1.311a1.88 1.88 0 0 0 .456-.005l.143 1.322-.021.016c-.223 0-.45-.011-.673-.016v-.005zm60.927-70.691c.456-.721.895-.764 1.319.027l-1.319-.027zm-60.222-5.381l-.058-1.333c.837.406.768.856.058 1.333zm.248-6.168c-.058-.309-.201-.634-.148-.921.064-.32.387-.314.434.011.042.287-.122.607-.191.91h-.09-.005zm54.737 26.49l1.271-.135.01.016-.026.677c-.514.033-.98-.043-1.25-.558h-.005zm.566-4.14l-.015 1.317h-.546l-.037-1.322a4.42 4.42 0 0 1 .598 0v.005zm.048 139.289l-.09 1.257c-.561-.238-.667-.715-.635-1.262l.725.005zM139.43 34.48c.058.406.127 1.057-.265 1.051-.402-.005-.312-.645-.243-1.051h.513-.005zm-4.508 33.704l1.287-.13c-.349.878-.794.769-1.287.13zm-1.382 112.289l1.303.06c-.466.688-.901.731-1.303-.06zm-3.945-96.318c.497-.58.974-.883 1.308.141l-1.308-.141zm-2.231 52.014c.202.515.604 1.106-.407 1.198l.021.027.227-1.246.154.021h.005zm-8.611-2.693l.175.613c.132.406-.058.563-.418.498-.27-.048-.297-.26-.17-.509.096-.184.133-.401.196-.607h.212l.005.005z"/><path d="M117.646 90.316l.027.683-.689.173-.593-.862 1.255.005zm-21.191 80.039l1.303.103c-.487.661-.937.846-1.303-.103zm.033 39.8l1.292-.032a4.26 4.26 0 0 1 0 .639h-1.303v-.303-.304h.011zm-3.242-96.758l1.223-.2c-.095 1.029-.725.52-1.213.433l-.011-.227v-.006zm-76.9-18.382l-1.282-.087-.016-.477 1.298-.119.011.011-.016.677.005-.005zm5.916-12.123c-.652-.471-.747-.921.058-1.333l-.058 1.333zm2.7 16.859l-1.266-.168v-.195l-.026-.19 1.292-.179v.732zm1.229 24.024l-1.229.168.011-.585 1.25.152-.032.265zm.721-57.038c-.699-.461-.726-.905.032-1.333l-.032 1.333zm.666 67.325c-.053.986-.704.72-1.271.628l.016.022a2.41 2.41 0 0 1 .074-.618l1.181-.032zm3.284-123.958l-1.287.157.011-.726 1.287.152a1.34 1.34 0 0 0-.016.412l.005.005zm9.957 142.746l-1.202-.179-.037-.233 1.271-.243.011.016a5.41 5.41 0 0 1-.058.656l.016-.022v.005zm.609-134.725l-1.234.157v-.314-.314l1.282.119a.56.56 0 0 0-.048.347v.006zm4.666 3.452l-1.282.114c.355-.872.8-.748 1.282-.114zm.679 70.089c-.058.97-.667.813-1.282.645.185-.71.747-.656 1.282-.645zm345.614 19.526c-.063.162-.1.448-.19.469-.371.087-.392-.205-.387-.48.191-.006.387 0 .577.011zm-7.875 60.539c-.006.456-.233.689-.683.694.052-.406.28-.639.683-.694zm-4.639-31.627c-.016-.293 0-.596.392-.51.095.022.137.32.201.494l-.593.016zm-4.651 49.788c-.45.022-.672-.19-.651-.65a.64.64 0 0 1 .651.65zm-2.039-129.176c.053.206.069.417.042.629-.413-.011-.641-.211-.625-.65.196-.005.392 0 .583.016v.005zm-11.815 111.677c.016-.266 0-.591.387-.499.095.022.127.325.185.499-.191.016-.381.016-.572 0zm-3.332-10.758c.037.499-.201.721-.683.689a.68.68 0 0 1 .683-.689zm-.683-98.248c-.365-.076-.577-.298-.651-.667.354.081.572.309.651.667zm-.005 20.865c.01.309.011.65-.418.558-.101-.022-.138-.358-.202-.547l.62-.011zm-7.976 56.54c-.064.185-.096.504-.191.526-.408.092-.408-.238-.413-.531a5.53 5.53 0 0 1 .604 0v.005zm-25.125-43.078h.656v.672c-.206 0-.408 0-.614-.011a2.95 2.95 0 0 1-.021-.65h-.027l.006-.011zm-12.606 92.872v-.71c.476-.016.683.222.651.693l-.646.022-.005-.005zm-.651-107.667c.01.217 0 .428-.032.639l-.588.005c.048-.374.26-.585.625-.65l-.005.005zm-4.656-49.132c-.063.19-.095.52-.19.542-.424.098-.413-.249-.419-.542.202-.011.403-.011.609 0zm-5.29 41.723c-.064.363-.27.574-.63.639a.79.79 0 0 1 .63-.639zm-8.543-73.38c.005-.259.021-.551.381-.464.09.022.127.302.185.459a3.89 3.89 0 0 1-.561.005h-.005zm-9.316 14.13c-.418-.011-.651-.217-.662-.656a.7.7 0 0 1 .662.656zm-2.638 159.514l.276-.525.307.498-.583.027zm-9.236-115.093c0-.254.026-.529.365-.453.09.022.127.286.191.437-.186.016-.371.022-.556.011v.005zm-.037 57.892h.662v.672c-.212 0-.418 0-.625-.005-.037-.223-.042-.439-.032-.662l-.005-.005zm-.6 51.119c.064-.162.101-.443.196-.464.366-.081.398.2.382.48-.196 0-.387 0-.583-.016h.005zm-7.34-65.909c.456-.027.683.19.662.661-.222 0-.434-.021-.641-.086a5.35 5.35 0 0 1-.016-.58l-.005.005zm-.677 63.245c-.064.379-.281.607-.657.672.09-.358.302-.585.657-.672zm-3.978-21.532c-.01.428-.227.645-.646.661 0-.216.021-.433.074-.65l.578-.016-.006.005zm-1.997 38.96c-.154-.059-.429-.092-.445-.179-.079-.357.212-.346.45-.363.016.185.016.363 0 .548l-.005-.006zm-1.975-149.331l-.328.737a.64.64 0 0 1-.302-.732h.63v-.005zm-3.951 153.455c.429 0 .683.19.662.662l-.604-.028c-.068-.211-.084-.422-.042-.644l-.016.01zm-2.034-84.13c0 .27-.042.54-.386.448-.096-.022-.128-.292-.191-.443.191-.016.381-.016.572 0l.005-.005zm-3.342 36.353c-.064.162-.101.448-.196.47-.371.081-.371-.221-.376-.486l.567.016h.005zm-1.282-53.852c-.063.184-.1.515-.201.537-.419.097-.429-.239-.429-.542l.63.005zm-2.659 69.991c0 .282 0 .607-.397.515-.095-.022-.127-.336-.185-.515.196-.016.386-.016.582 0zm-16.46 46.406c.058-.168.09-.466.18-.488.381-.086.37.228.381.488-.185.016-.376.016-.561 0zM218.29 56.667c.01.217 0 .428-.048.639-.185.016-.376.016-.561 0 .026-.385.227-.602.603-.645l.006.005zm-5.963 40.326c-.265-.011-.588.005-.503-.396.021-.092.323-.125.498-.184a3.74 3.74 0 0 1 0 .58h.005zm-1.976 118.484c-.418-.016-.641-.239-.657-.667.376.06.599.282.657.667zm-2.653 2.032a2.4 2.4 0 0 1-.042.645l-.615.022c.011-.439.244-.645.662-.667h-.005zm-6.62-205.942c-.059.374-.281.58-.641.645v.016a3.89 3.89 0 0 1 .026-.656l.615-.005zm-3.994 96.921c-.016.27 0 .596-.392.509-.095-.022-.127-.325-.191-.504l.583-.011v.006zm-6.631 18.848a3.32 3.32 0 0 1 .027.645c-.355-.071-.577-.276-.63-.65l.603.005zm-5.921-63.949h.662v.672h-.662v-.336-.336zm-26.545-29.59c-.005.32-.074.623-.471.493-.101-.032-.117-.347-.17-.531l.641.032v.005zm-4.559.022c.631.217.562.423-.01.623l.01-.623zm.021 96.85c-.037.439-.281.645-.699.677.079-.39.323-.601.699-.677zm-1.96 22.198c.01-.298.074-.596.455-.472.101.033.117.331.17.51l-.625-.033v-.005zM140.822 17.631a2.4 2.4 0 0 1-.042.645c-.202.016-.403.022-.599.016-.021-.455.196-.672.646-.661h-.005zm-5.963.672l-.286.475-.302-.459.588-.016zm-1.356-12.778a2.37 2.37 0 0 1 .031.645c-.37-.054-.582-.26-.609-.645a5.14 5.14 0 0 1 .578 0zM18.999 64.747a.75.75 0 0 1 .651.661c-.344-.087-.567-.304-.651-.661zm.646-50.486c-.016.434-.217.688-.662.704.064-.385.27-.634.662-.704zm28.526 158.807l.313-.496.297.507c-.201 0-.408 0-.609-.011zm-24.596-66.591c-.058.168-.09.46-.18.482-.376.087-.376-.222-.381-.488a3.97 3.97 0 0 1 .567 0l-.005.006zm5.307 65.276c-.058.162-.085.432-.18.459-.344.103-.371-.194-.418-.443a3.15 3.15 0 0 1 .598-.021v.005zm.756 1.984c.063-.174.101-.472.196-.493.387-.087.381.238.397.509-.196 0-.397 0-.593-.011v-.005zm44.981-82.088c-.079.363-.297.58-.657.65.079-.358.307-.569.657-.65zM32.907 14.932c-.011.45-.222.694-.678.705.058-.401.275-.645.678-.705zm61.589 73.347c.064-.368.281-.585.641-.661v-.005l-.032.661h-.609v.005zM81.287 68.747l-.048-.32v-.325a.61.61 0 0 1 .641.661c-.196 0-.397 0-.593-.016zM35.507 6.196l-.365.672-.297-.699.662.027zm62.956 220.716l-.011-.325.048-.32a5.63 5.63 0 0 1 .609-.016c.021.46-.217.661-.646.661zm1.283-44.396c0 .282 0 .602-.392.51-.095-.022-.127-.331-.185-.504a3.97 3.97 0 0 1 .577-.006zm-82.087-2.027c0 .445-.201.683-.651.683.048-.401.259-.634.651-.683zm90.078-17.466c.254 0 .535.021.455.379-.021.092-.291.13-.445.195l-.015-.287v-.287h.005zM38.912 10.202a2.18 2.18 0 0 1-.048-.645c.402.027.614.244.63.656-.196.005-.387 0-.582-.011zM113.706.793c-.059.184-.08.493-.18.526-.398.119-.467-.179-.461-.499l.641-.022V.793zm3.251 168.939l-.291.459-.292-.459c.196-.011.387-.011.583 0zm-22.466 43.052c.069-.667.392-.938 1.028-.629.254.125.27.309.122.482-.344.418-.768.12-1.155.136v.005l.005.006zM302.426 93.655l.249-.526.265.287-.524.222.016.016h-.006zm-1.986-62.513c.556.103 1.329-.19 1.419.775.037.379-.238.58-.551.602-.471.032-1.112.32-1.313-.325-.09-.276.302-.71.471-1.068l-.026.016zM155.99 19.035l-.069 1.149c-.487.043-1.191.396-1.265-.407-.096-1.024.709-.813 1.334-.742zm41.174 189.023c.1.325.053.596-.281.731-.058.022-.244-.097-.254-.162-.048-.369.174-.526.498-.586l.037.017zm13.092-46.992c-.016.157-.016.315-.005.472-.816.049-1.637.417-2.696-.022.932-1.003 1.848-.52 2.701-.45zM239.904 2.054l-.413-.248c.069-.07.159-.211.212-.194.148.038.28.135.418.211l-.212.232h-.005zm-24.252 169.683l.265-.542.296.309-.566.233h.005zm103.87-159.59a1.21 1.21 0 0 0-.556.065c-.254-.385-.969-.553-.641-1.192.09-.173.588-.276.821-.19.641.238.424.824.382 1.317h-.006zm61.028 108.425l.281-.297c-.016.059-.011.145-.053.178-.063.054-.159.075-.238.108l.01.011zM195.771 80.854c-.413.011-.884.206-1.128-.314-.037-.076.185-.379.328-.412.572-.13.726.266.789.743l.016-.016h-.005zm-2.617.688l-.011-.32.011-.32a.73.73 0 0 1 .641.65 4.14 4.14 0 0 1-.636 0l-.005-.011zm-1.98-24.192a2.45 2.45 0 0 1 .63-.005c-.005.282-.053.574-.418.477-.101-.027-.143-.309-.212-.471zm98.631 4.666c.334-.054.599.032.684.396a.34.34 0 0 1-.181.244c-.354-.038-.476-.304-.508-.629v-.016l.005.005zm93.378 41.096l.323.313c-.069-.016-.164-.011-.201-.054-.059-.07-.08-.178-.117-.27l-.011.011h.006zM83.226 67.425c-.291-.022-.524-.135-.546-.471 0-.06.159-.19.212-.173.313.092.381.341.334.645zm-4.586 51.868l1.282-.054c0 .396 0 .802-.551.792-.456-.011-.673-.304-.731-.732v-.006zm147.626-1.371l1.335.629c-.143.466-.451.813-.938.699-.81-.184-.418-.834-.402-1.333l.005.005zM27.722 86.712l.228-.428c.069.07.212.157.201.217-.032.152-.127.293-.196.439l-.228-.228h-.005zm77.06 6.838l-.196-.108.217-.292.191.211-.212.194v-.005zm-54.578 94.082l.228-.412c.069.071.201.163.191.217-.037.152-.132.287-.201.428l-.217-.233zm56.945-107.705l.233-.39c.063.07.196.157.185.211-.037.146-.132.271-.206.406l-.212-.228zM127.587 9.87c-.138.065-.275.151-.418.184-.053.011-.128-.13-.196-.2.137-.065.275-.151.418-.184.053-.011.127.13.196.2zM45.311 1.297l-1.017.033c-.037-.58-.418-1.447.641-1.333.731.076.418.807.376 1.306v-.005zm-.657 183.468c0 .07.021.156-.016.2-.127.172-.276.129-.376-.125-.011-.032.117-.151.201-.183.048-.016.127.065.191.102v.006zM4.55 182.256l.233-.423c.069.071.207.158.196.212-.032.152-.127.287-.196.428l-.228-.222-.005.005zm225.392-80.615l-.233-.119.244-.329.233.226-.244.216v.006zm-7.6 34.138l.122-.216.323.237c-.079.07-.159.2-.233.195s-.143-.141-.212-.216zm51.6-126.255l.053-1.246c.493-.027 1.171-.309 1.24.488.09 1.013-.646.878-1.293.759zM98.394 131.417l-.048 1.181c-.477.006-1.155.287-1.229-.488-.095-1.056.694-.753 1.276-.693zm-21.168 28.229l-.228.475-.249-.264.492-.195-.016-.016zM316.292 57.321l-.678.016c.206-.637.434-.659.678-.016z"/><path d="M314.994 57.979l-.016-.32v-.32l.673-.027c-.058.39-.281.602-.657.661v.005zM14.396 78.844l.228-.52.275.282-.519.222.016.016zm89.343 127.863l-.329-.324c.069.016.17.011.207.06.058.075.074.183.111.28l.011-.01v-.006zm-2.638-68.619c-.011.445-.255.64-.668.678-.021-.472.239-.662.668-.678zM86.504 101.09l-.275.531c-.434-.477.021-.444.291-.515l-.016-.016zm78.829-19.526l.567.239-.307.303-.26-.542zM50.093 22.29l-.53-.2.265-.286.244.508.016-.022h.005zm199.852 65.457c-.053.13-.058.26-.01.396-.477-.016-1.208.52-1.208-.558l1.224.168-.006-.005zm-144.226 26.122l-.281.515c-.471-.504.058-.418.286-.51l-.01-.01.005.005zm-60.886 80.088l1.282.016c-.063.395-.138.796-.651.796-.519 0-.567-.422-.63-.807v-.005zM185.852 27.045c-.35-.076-.572-.287-.641-.65.36.07.577.282.641.65zm139.041 80.115l-.635-.71c.021-.494.026-.992.577-1.225l.741.558c.048.602.466 1.387-.683 1.377zm-41.671-35.064l-.037-.309.016-.309c.265.011.567.022.487.401-.021.103-.302.146-.466.217zm83.919 54.525c.01-.222.058-.439.137-.651l1.314.038c-.254.765-.895.58-1.451.613zM71.288 165.7c.016.206.011.412-.016.612-.159-.07-.424-.113-.45-.216-.079-.364.201-.391.466-.396zm308.548-49.198c.143.158.323.228.535.212-.032.206.032.374.191.498-.08.396-.234.71-.705.689l-.026-1.404.005.005z"/><path d="M379.887 115.858l.011.726c-.572.092-.821-.146-.736-.737l.725.011z"/><path d="M378.517 115.896l-.027-.688h.705l.032.693c-.239 0-.477-.005-.71-.005zm4.893 38.976a.62.62 0 0 0 .44.043c.032.304-.101.656-.355.613-.27-.049-.27-.401-.085-.656zM117.62 90.945l.71.022-.355.694-.355-.715zm180.791 7.446a4.41 4.41 0 0 1 0 .65c-.572-.217-.577-.433 0-.65zm-122.432 35.605l-.032-.287.016-.287 1.245.038a1.89 1.89 0 0 1 0 .515l-1.229.021zm184-81.399c-.455.032-.857-.054-1.101-.499.471-.07 1.096-.493 1.101.499zm-76.768 135.984c-.556.059-1.165.227-1.281-.634.551-.044 1.276-.456 1.281.634zM265.956.105c-.588.098-.874-.428-1.303-.65.085-.477-.063-1.062.593-1.252.477.542.991 1.068.705 1.902h.005zM7.083 78.87c-.54-.011-1.065-.043-1.308-.661.551-.011 1.086 0 1.308.661zm162.885 17.483v-.325-.325c.217-.016.429-.016.646-.005a.78.78 0 0 1-.651.661l.005-.005zm-41.014 6.699l-.032-.303.011-.309c.423 0 .656.2.64.65a2.63 2.63 0 0 1-.619-.038zm250.257 66.658c.026-.417.254-.623.646-.661-.021.418-.254.624-.646.661zM107 131.964l-1.128-.081-.042-1.778 1.192-.054c.27.64.264 1.279-.022 1.913zm-54.916 18.93l.026 1.339-1.297-.049.037-1.236 1.234-.054zM192.445 26.405a1.7 1.7 0 0 1 0 .612l-1.096-.173v-.287l1.091-.152h.005zm53.666 108.99v-.336-.336h.662v.672h-.662z"/></g><path d="M-18 77.42s2.075-1.237 2.861-3.228c.789-2.012 25.511-25.14 25.511-25.14s-.194-2.339 3.038-3.118c3.23-.758 5.894-4.74 6.032-5.128.16-.385 5.924.21 6.537-6.472.611-6.661 11.684-11.699 12.49-11.803s15.104-4.295 19.104-18.051c0 0-.075-2.43 1.728-4.496s4.079-6.187 5.855-6.651 4.087-.448 5.794-1.82 1.732-3.896 4.976-4.758 6.562-.859 9.08-3.769l-88.152-12.05-10.665 78.021 30.157-25.918s2.861-3.227 6.427-2.847 4.581-1.087 6.932-4.191c2.33-3.107 5.145-4.435 8.732-7.178 3.608-2.74 8.983-7.444 10.865-8.685 1.885-1.262 14.622-11.105 14.622-11.105l-20.242 19.8c-2.78 2.639-14.877 12.976-16.135 14.816s-3.145 3.895-6.698 6.236-5.389 4.809-6.873 7.518-2.137 8.272-8.444 10.237-20.087 5.348-23.114 26.709L-18 77.42z" fill="url(#C)"/><path d="M72.131-18.772L49.36-21.885C28.668-14.248 3.023 10.956-10.753 26.6l-3.056 22.359 30.157-25.918s2.861-3.227 6.427-2.847c3.48.371 4.53-1.017 6.763-3.968l.169-.223c1.645-2.194 3.532-3.501 5.762-5.045.928-.643 1.916-1.327 2.97-2.133 1.678-1.275 3.739-2.974 5.653-4.553 2.2-1.815 4.206-3.469 5.213-4.133 1.413-.946 8.923-6.713 12.595-9.542l10.227-8.771c.319-.124.397-.325.004-.599z" fill="#ffc502"/><path d="M75.128-18.363L-3.145-29.062-13.81 48.959l30.157-25.918s2.861-3.227 6.427-2.847c.571.061 1.076.075 1.532.042l5.166-3.923.065-.086.169-.223c1.645-2.194 3.532-3.501 5.762-5.045l2.97-2.133 5.653-4.553L49.304.14c1.886-1.262 14.622-11.105 14.622-11.105l-4.994 4.904 16.197-12.301z" fill="url(#D)"/><path d="M58.621-20.619l-5.655-.773c-21.755 6.48-50.112 34.695-64.11 50.85l-2.666 19.501 30.157-25.918s2.861-3.227 6.427-2.847c3.48.371 4.53-1.017 6.763-3.968l.169-.223c1.645-2.194 3.532-3.501 5.762-5.045.928-.643 1.916-1.327 2.97-2.133 1.678-1.275 3.739-2.974 5.653-4.553 2.2-1.815 4.206-3.469 5.213-4.133 1.886-1.262 14.622-11.105 14.622-11.105L47.751 4.889l25.254-21.658c1.089-.424-.628-1.742-14.384-3.851z" fill="url(#E)"/><path d="M52.175.563c-1.321 7.097-4.371 13.985-7.357 19.295 4.614-2.606 10.429-7.372 12.756-15.377 0 0-.075-2.43 1.728-4.496.577-.662 1.203-1.534 1.846-2.43 1.364-1.901 2.802-3.906 4.009-4.221.492-.128 1.025-.22 1.575-.315 1.435-.247 2.985-.513 4.22-1.505.616-.495 1.013-1.139 1.42-1.802.723-1.174 1.481-2.405 3.555-2.957.722-.192 1.448-.341 2.168-.489 2.514-.516 4.954-1.018 6.912-3.28l-28.211-3.856c-2.186 1.759-4.095 5.756-3.947 13.87.028 1.558-.058 3.13-.24 4.7l11.317-8.668L52.175.563z" fill="#f5f1ee"/><path d="M52.698.051c-1.227 7.1-4.226 14.028-7.21 19.419 4.493-2.68 9.871-7.366 12.087-14.988 0 0-.075-2.43 1.728-4.496.577-.662 1.203-1.534 1.846-2.43 1.364-1.901 2.802-3.906 4.009-4.221.492-.128 1.025-.22 1.575-.315 1.435-.247 2.985-.513 4.22-1.505.616-.495 1.013-1.139 1.42-1.802.723-1.174 1.481-2.405 3.555-2.957.722-.192 1.448-.341 2.168-.489 2.514-.516 4.954-1.018 6.911-3.28l-27.791-3.799c-2.186 1.759-4.095 5.756-3.947 13.87a34.95 34.95 0 0 1-.195 4.291l10.851-8.315L52.698.051z" fill="url(#F)"/><path d="M-16.191 67.85c2.627-1.967 5.055-4.193 7.073-6.688 6.953-8.589 11.912-8.892 14.492-7.403-7.267 6.874-19.951 19.001-20.513 20.433C-15.925 76.183-18 77.42-18 77.42l.419-3.069c.338-2.383.809-4.542 1.389-6.501z" fill="#f5f1ee"/><path d="M-16.294 68.205c2.76-2.029 5.313-4.341 7.419-6.945 6.759-8.35 11.634-8.869 14.282-7.532-7.262 6.868-19.984 19.03-20.546 20.464C-15.925 76.183-18 77.42-18 77.42l.419-3.069c.317-2.24.753-4.283 1.286-6.147z" fill="url(#G)"/><path d="M406.485 203.603s-8.792 3.751-16.74 11.123c-7.972 7.344-18.025 8.015-18.025 8.015l35.099-30.847-.334 11.709zm-3.364-45.524c-22.264 3.139-27.215 27.406-29.36 31.263-2.122 3.857-2.854 2.987-8.514 7.272s-5.844 10.747-5.844 10.747L314 254.338s11.36-9.995 19.069-15.607 27.947-25.69 31.282-28.105 7.497-6.464 10.123-10.594 5.187-5.147 15.315-7.61c10.151-2.436 15.426-10.669 15.426-10.669l-2.094-23.674z" fill="url(#H)"/><path d="M58.344 130.126l.931-.87-.931.87zm262.123 16.581l-.94-.861.94.861zm15.198-16.583l-.94-.861.94.861zM73.869 146.717l-.931.87.931-.87zm90.637-72.246H59.275v2.549h105.232v-2.549zm0 2.549h68.598v-2.549h-68.598v2.549zm68.598 0h101.621v-2.549H233.104v2.549zm101.621 0v52.243h2.549V77.02h-2.549zm0 52.243l-15.198 16.583 1.88 1.722 15.198-16.583-1.88-1.722zm-15.198 16.583h-86.423v2.549h86.423v-2.549zm-86.423 0h-68.598v2.549h68.598v-2.549zM74.8 148.395h89.706v-2.549H74.8v2.549zm-17.386-17.398l15.525 16.59 1.861-1.741-15.525-16.59-1.861 1.741zm-.688-53.977v52.236h2.549V77.02h-2.549zm2.549 52.236h-2.549a2.55 2.55 0 0 0 .688 1.741l1.861-1.741zm260.253 16.59v2.549a2.55 2.55 0 0 0 1.88-.827l-1.88-1.722zm15.198-16.583h0l1.88 1.722a2.55 2.55 0 0 0 .669-1.722h-2.549zM74.8 145.846l-1.861 1.741c.482.516 1.156.808 1.861.808v-2.549zM334.725 77.02h0 2.549a2.55 2.55 0 0 0-2.549-2.549v2.549zM59.275 74.471a2.55 2.55 0 0 0-2.549 2.549h2.549 0v-2.549z" fill="url(#I)"/><g fill-rule="evenodd"><path d="M153.242 65.042h-9.744l9.493 22.592h87.953v-.058h.251l9.494-22.534h-9.745-87.702z" fill="#6c4b0e"/><path d="M154.485 63h-9.469l9.225 22.592h85.461v-.058h.243L249.17 63h-9.468-85.217z" fill="url(#J)"/></g><path d="M165.038 70.751h4.271c.712 0 1.227.163 1.545.488.326.319.488.834.488 1.546v1.017c0 .712-.162 1.23-.488 1.556-.318.319-.833.478-1.545.478h-2.441v2.034h-1.83v-7.118zm4.474 2.034c0-.407-.203-.61-.61-.61h-2.034v2.237h2.034c.407 0 .61-.203.61-.61v-1.017zm2.949-2.034h4.27c.712 0 1.227.163 1.546.488.325.319.488.834.488 1.546v.915c0 .563-.095 1-.285 1.312-.183.312-.478.519-.885.62l1.271 2.237h-1.982l-1.17-2.135h-1.423v2.135h-1.83v-7.118zm4.474 2.034c0-.407-.204-.61-.611-.61h-2.033v2.135h2.033c.407 0 .611-.203.611-.61v-.915zm6.403 5.084h-3.661v-1.424h.915v-4.271h-.915v-1.423h3.661v1.423h-.915v4.271h.915v1.424zm6.507-5.694l-3.559 4.271h3.559v1.424h-5.796v-1.424l3.559-4.271h-3.559v-1.423h5.796v1.423zm6.663 5.694h-5.643v-7.118h5.643v1.423h-3.813v1.373h3v1.423h-3v1.474h3.813v1.424zm4.266-7.118h4.271c.712 0 1.227.163 1.546.488.325.319.488.834.488 1.546v1.017c0 .712-.163 1.23-.488 1.556-.319.319-.834.478-1.546.478h-2.44v2.034h-1.831v-7.118zm4.474 2.034c0-.407-.203-.61-.61-.61h-2.033v2.237h2.033c.407 0 .61-.203.61-.61v-1.017zm7.524-.102c0-.407-.203-.61-.61-.61h-1.728c-.407 0-.61.203-.61.61v3.254c0 .407.203.61.61.61h1.728c.407 0 .61-.203.61-.61v-3.254zm1.831 3.254c0 .712-.163 1.23-.488 1.556-.319.319-.834.478-1.546.478h-2.542c-.712 0-1.23-.159-1.556-.478-.318-.325-.478-.844-.478-1.556v-3.254c0-.712.16-1.227.478-1.546.326-.325.844-.488 1.556-.488h2.542c.712 0 1.227.163 1.546.488.325.319.488.834.488 1.546v3.254zm5.8-3.254c0-.407-.203-.61-.61-.61h-1.728c-.407 0-.61.203-.61.61v3.254c0 .407.203.61.61.61h1.728c.407 0 .61-.203.61-.61v-3.254zm1.831 3.254c0 .712-.163 1.23-.488 1.556-.319.319-.834.478-1.546.478h-2.542c-.712 0-1.23-.159-1.556-.478-.318-.325-.478-.844-.478-1.556v-3.254c0-.712.16-1.227.478-1.546.326-.325.844-.488 1.556-.488h2.542c.712 0 1.227.163 1.546.488.325.319.488.834.488 1.546v3.254zm3.055.508H229v1.424h-5.541v-7.118h1.83v5.694z" fill="#f5f1ee"/></g><defs><linearGradient id="A" x1="200.594" y1="98.968" x2="196.948" y2="218.863" href="#L"><stop stop-color="#d8a956" stop-opacity="0"/><stop offset="1" stop-color="#ab750f"/></linearGradient><linearGradient id="B" x1="200.594" y1="170.785" x2="199.871" y2="224.169" href="#L"><stop stop-color="#d8a956" stop-opacity="0"/><stop offset="1" stop-color="#ab750f"/></linearGradient><linearGradient id="C" x1="34.421" y1="47.595" x2="30.338" y2="-29.83" href="#L"><stop stop-color="#885f11"/><stop offset=".373" stop-color="#d8a956"/><stop offset="1" stop-color="#ab750f"/></linearGradient><radialGradient id="D" cx="0" cy="0" r="1" gradientTransform="translate(20.927 -2.13531) rotate(51.4498) scale(33.7432 142.276)" href="#L"><stop stop-color="#543600"/><stop offset=".353" stop-color="#ffbb48"/><stop offset=".899" stop-color="#543600"/><stop offset="1" stop-color="#edbf74"/></radialGradient><linearGradient id="E" x1="29.086" y1="21.267" x2="14.589" y2="2.799" href="#L"><stop stop-color="#fcc575"/><stop offset="1" stop-color="#412800"/></linearGradient><linearGradient id="F" x1="58.3" y1="1.623" x2="78.594" y2="-1.17" href="#L"><stop stop-color="#f9b554"/><stop offset="1" stop-color="#956618"/></linearGradient><linearGradient id="G" x1="-15.453" y1="67.935" x2="1.886" y2="78.844" href="#L"><stop offset=".096" stop-color="#f9b554"/><stop offset=".784" stop-color="#956618"/></linearGradient><linearGradient id="H" x1="378.038" y1="165.216" x2="359.41" y2="218.812" href="#L"><stop stop-color="#4f3600"/><stop offset=".447" stop-color="#bd852b"/><stop offset=".987" stop-color="#4f3600"/></linearGradient><linearGradient id="I" x1="197" y1="75.746" x2="197" y2="147.12" href="#L"><stop stop-color="#ab750f"/><stop offset=".516" stop-color="#d8a956"/><stop offset="1" stop-color="#ab750f"/></linearGradient><linearGradient id="J" x1="145.016" y1="64.324" x2="154.436" y2="107.452" href="#L"><stop stop-color="#ab750f"/><stop offset=".484" stop-color="#d8a956"/><stop offset="1" stop-color="#ab750f"/></linearGradient><clipPath id="K"><path fill="#fff" d="M0 0h393v229H0z"/></clipPath><linearGradient id="L" gradientUnits="userSpaceOnUse"/></defs></svg>