<svg width="304" height="80" viewBox="0 0 304 80" fill="none" xmlns="http://www.w3.org/2000/svg">
<g id="username">
<rect id="Rectangle 357" x="15" y="6" width="274" height="74" fill="url(#paint0_linear_2364_32738)" fill-opacity="0.2"/>
<g id="Group 262">
<g id="Vector 362">
<path d="M31 80L0 41V47L25 80H31Z" fill="#D9D9D9"/>
<path d="M31 80L0 41V47L25 80H31Z" fill="url(#paint1_linear_2364_32738)"/>
</g>
<g id="Vector 363">
<path d="M1 56V52L22 79H19L1 56Z" fill="#D9D9D9"/>
<path d="M1 56V52L22 79H19L1 56Z" fill="url(#paint2_linear_2364_32738)"/>
</g>
</g>
<g id="Group 263">
<g id="Vector 362_2">
<path d="M273 80L304 41V47L279 80H273Z" fill="#D9D9D9"/>
<path d="M273 80L304 41V47L279 80H273Z" fill="url(#paint3_linear_2364_32738)"/>
</g>
<g id="Vector 363_2">
<path d="M303 56V52L282 79H285L303 56Z" fill="#D9D9D9"/>
<path d="M303 56V52L282 79H285L303 56Z" fill="url(#paint4_linear_2364_32738)"/>
</g>
</g>
<rect id="Rectangle 358" x="15" y="6" width="1" height="74" fill="url(#paint5_linear_2364_32738)"/>
<rect id="Rectangle 359" x="288" y="6" width="1" height="74" fill="url(#paint6_linear_2364_32738)"/>
<rect id="Rectangle 361" x="218" y="22" width="1" height="46" fill="url(#paint7_linear_2364_32738)"/>
<rect id="Rectangle 360" x="15" y="6" width="274" height="4" fill="url(#paint8_linear_2364_32738)"/>
<g id="Group 261">
<path id="Vector 359" d="M148 8L152 0L156 8L152 14L148 8Z" fill="#AB750F"/>
<path id="Vector 360" d="M148 8L152 14V0L148 8Z" fill="#FFC502"/>
<path id="Vector 361" d="M148 8L152 0L156 8L152 2L148 8Z" fill="white" fill-opacity="0.3"/>
</g>
</g>
<defs>
<linearGradient id="paint0_linear_2364_32738" x1="152" y1="6" x2="152" y2="80" gradientUnits="userSpaceOnUse">
<stop stop-color="#AB750F"/>
<stop offset="1" stop-color="#997601" stop-opacity="0"/>
</linearGradient>
<linearGradient id="paint1_linear_2364_32738" x1="-1.44919" y1="60.5002" x2="31.5671" y2="60.5002" gradientUnits="userSpaceOnUse">
<stop stop-color="#AB750F"/>
<stop offset="0.516" stop-color="#D8A956"/>
<stop offset="1" stop-color="#AB750F"/>
</linearGradient>
<linearGradient id="paint2_linear_2364_32738" x1="0.0182927" y1="65.5001" x2="22.3841" y2="65.5001" gradientUnits="userSpaceOnUse">
<stop stop-color="#AB750F"/>
<stop offset="0.516" stop-color="#D8A956"/>
<stop offset="1" stop-color="#AB750F"/>
</linearGradient>
<linearGradient id="paint3_linear_2364_32738" x1="305.449" y1="60.5002" x2="272.433" y2="60.5002" gradientUnits="userSpaceOnUse">
<stop stop-color="#AB750F"/>
<stop offset="0.516" stop-color="#D8A956"/>
<stop offset="1" stop-color="#AB750F"/>
</linearGradient>
<linearGradient id="paint4_linear_2364_32738" x1="303.982" y1="65.5001" x2="281.616" y2="65.5001" gradientUnits="userSpaceOnUse">
<stop stop-color="#AB750F"/>
<stop offset="0.516" stop-color="#D8A956"/>
<stop offset="1" stop-color="#AB750F"/>
</linearGradient>
<linearGradient id="paint5_linear_2364_32738" x1="15.5" y1="6" x2="15.5" y2="80" gradientUnits="userSpaceOnUse">
<stop stop-color="#AB750F"/>
<stop offset="1" stop-color="#997601" stop-opacity="0"/>
</linearGradient>
<linearGradient id="paint6_linear_2364_32738" x1="288.5" y1="6" x2="288.5" y2="80" gradientUnits="userSpaceOnUse">
<stop stop-color="#AB750F"/>
<stop offset="1" stop-color="#997601" stop-opacity="0"/>
</linearGradient>
<linearGradient id="paint7_linear_2364_32738" x1="218" y1="68" x2="217.998" y2="22" gradientUnits="userSpaceOnUse">
<stop stop-color="#AB750F"/>
<stop offset="0.516" stop-color="#D8A956"/>
<stop offset="1" stop-color="#AB750F"/>
</linearGradient>
<linearGradient id="paint8_linear_2364_32738" x1="2.19106" y1="8.00002" x2="294.012" y2="8.00023" gradientUnits="userSpaceOnUse">
<stop stop-color="#AB750F"/>
<stop offset="0.516" stop-color="#D8A956"/>
<stop offset="1" stop-color="#AB750F"/>
</linearGradient>
</defs>
</svg>
