<svg width="416" height="65" viewBox="0 0 416 65" fill="none" xmlns="http://www.w3.org/2000/svg">
<g id="winners-rank">
<g id="left">
<path id="Subtract" fill-rule="evenodd" clip-rule="evenodd" d="M208 0H19L11 8V44L21 54H109L115 63H208V0Z" fill="#212121"/>
<path id="Subtract_2" d="M61 40.9413L38.0589 18H22L44.9411 40.9413H61Z" fill="url(#paint0_linear_843_95681)"/>
<path id="Subtract_3" d="M88 40.9413L65.0589 18H49L71.9411 40.9413H88Z" fill="url(#paint1_linear_843_95681)"/>
<path id="Rectangle 440 (Stroke)" fill-rule="evenodd" clip-rule="evenodd" d="M0 29H6V49L16 59H44V65H13.5147L0 51.4853V29Z" fill="url(#paint2_linear_843_95681)"/>
</g>
<g id="right">
<path id="Subtract_4" fill-rule="evenodd" clip-rule="evenodd" d="M208 0H397L405 8V44L395 54H307L301 63H208V0Z" fill="#212121"/>
<path id="Subtract_5" d="M355 40.9413L377.941 18H394L371.059 40.9413H355Z" fill="url(#paint3_linear_843_95681)"/>
<path id="Subtract_6" d="M328 40.9413L350.941 18H367L344.059 40.9413H328Z" fill="url(#paint4_linear_843_95681)"/>
<path id="Rectangle 440 (Stroke)_2" fill-rule="evenodd" clip-rule="evenodd" d="M416 29H410V49L400 59H372V65H402.485L416 51.4853V29Z" fill="url(#paint5_linear_843_95681)"/>
</g>
<g id="Mask group">
<mask id="mask0_843_95681" style="mask-type:alpha" maskUnits="userSpaceOnUse" x="11" y="0" width="394" height="63">
<path id="Union" d="M19 0H397L405 8V44L395 54H307L301 63H115L109 54H21L11 44V8L19 0Z" fill="#212121"/>
</mask>
<g mask="url(#mask0_843_95681)">
<g id="Vector" opacity="0.05">
<path d="M92.6584 -9.5934C94.1503 -6.49623 97.7867 -3.70845 102.336 -1.01097C108.318 2.53606 115.022 5.88742 123.64 8.76049C125.313 9.31905 127.085 9.84751 128.9 10.3526C136.939 12.5818 143.23 15.3361 149.355 18.149C152.609 19.6407 155.98 21.104 159.376 22.5573C162.08 23.7145 165.182 24.7413 169.029 25.4504C177.215 26.9588 184.257 28.9757 191.089 31.0945C199.677 33.7586 208.167 36.4644 216.932 39.0599C228.111 42.3694 240.139 45.2977 252.791 47.9249C262.444 49.9301 271.528 52.2044 280.508 54.5457C289.465 56.8803 298.907 59.0025 308.236 61.1665C317.349 63.282 326.31 65.461 334.84 67.8475C341.911 69.8258 349.562 71.4497 357.664 72.7959C360.383 71.05 364.064 69.7556 367.985 68.7973C358.769 67.2805 350.073 65.4493 342.206 63.1415C336.106 61.3521 329.338 59.8888 322.252 58.5911C318.218 57.8519 314.149 57.1278 310.268 56.305C302.582 54.6778 294.858 53.0623 287.433 51.3014C277.917 49.0437 267.847 47.1138 257.659 45.2542C242.627 42.5099 228.994 39.1485 217.3 34.9091C210.586 32.4759 202.842 30.439 195.613 28.2047C186.809 25.4822 177.971 22.7496 169.903 19.7845C164.573 17.8262 160.588 15.4431 155.965 13.2591C151.185 10.9981 146.553 8.69694 141.473 6.51621C138.995 5.45094 135.849 4.53282 132.664 3.69666C123.517 1.29351 117.049 -1.82038 111.454 -5.20017C107.548 -7.56151 105.123 -10.0784 103.818 -12.7424C101.664 -17.1507 97.9781 -21.4202 93.7626 -25.6478C93.3209 -26.0927 92.9087 -26.5442 92.5259 -26.9974L79.4179 -26.9974C79.7123 -26.5793 80.0264 -26.1629 80.365 -25.7498C83.1133 -22.4068 86.3719 -19.114 89.0317 -15.7643C90.6365 -13.7441 91.6622 -11.6654 92.6584 -9.59507V-9.5934Z" fill="url(#paint6_linear_843_95681)"/>
<path d="M219.64 -24.1628C217.751 -21.9135 213.118 -20.7011 206.223 -20.6225C200.216 -20.5539 194.725 -21.1961 189.41 -22.0506C185.96 -22.6059 182.623 -23.2413 179.163 -23.7882C177.603 -24.0357 175.9 -24.2113 174.202 -24.3233C171.134 -24.524 169.034 -24.111 167.856 -23.1092C166.374 -21.85 166.355 -20.5272 166.708 -19.206C167.547 -16.0637 170.212 -13.097 175.252 -10.4563C183.138 -6.324 189.238 -1.89565 194.975 2.60795C197.772 4.80373 200.737 6.98612 204.147 9.07487C208.432 11.6988 214.752 13.7842 221.088 15.8378C227.37 17.8747 233.916 19.8213 239.987 21.9284C243.594 23.181 246.642 24.6309 249.694 26.0524C255.922 28.9489 262.409 31.7685 269.574 34.4041C276.985 37.1283 286.078 39.0615 295.486 40.8593C310.037 43.6404 324.544 46.4449 339.075 49.2377C345.818 50.5338 351.766 52.1877 357.419 53.9738C364.27 56.1394 371.896 57.9071 380.44 59.2115C384.837 59.8821 389.058 60.6564 393.16 61.5026L397.386 54.7096C397.15 54.6577 396.915 54.6059 396.679 54.5557C391.301 53.3884 385.672 52.3566 380.278 51.196C373.786 49.7996 368.289 47.9834 362.704 46.2057C354.219 43.5016 344.507 41.3526 334.997 39.11C328.764 37.6401 322.507 36.1784 316.471 34.6165C307.981 32.419 301.876 29.5208 296.742 26.3769C288.665 21.4301 282.172 16.2408 276.533 10.9228C276.052 10.4713 275.768 9.99466 275.434 9.5264C274.413 8.0815 275.179 6.75367 277.328 5.45426C280.518 3.53107 283.443 1.55605 286.471 -0.398914C291.015 -3.33052 292.389 -6.4327 290.716 -9.69376C288.807 -13.413 286.461 -17.0905 282.236 -20.6024C279.488 -22.8868 275.748 -24.9739 271.665 -26.9941L220.705 -26.9941C220.73 -26.0509 220.43 -25.1077 219.635 -24.1628H219.64Z" fill="url(#paint7_linear_843_95681)"/>
<path d="M67.1541 71.9925C73.3523 73.4759 79.8401 74.8221 86.0579 76.2971C87.0345 76.5279 88.0062 76.762 88.9779 76.9945C103.288 77.0011 122.118 77.0011 143.167 76.9978C135.324 75.2469 127.482 73.4943 119.758 71.6831C103.583 67.8919 87.4811 64.0606 71.6445 60.1089C64.5384 58.3345 58.1439 56.2291 51.4452 54.2657C45.7034 52.5817 39.4315 51.2204 32.777 50.1117C50.0711 57.97 56.9465 65.0924 59.6015 70.0208C62.0405 70.7098 64.5433 71.3704 67.1492 71.9942L67.1541 71.9925Z" fill="url(#paint8_linear_843_95681)"/>
<path d="M390.118 -16.4903C356.967 -17.4268 353.199 -26.9976 353.199 -26.9976L332.086 -26.9976C333.416 -26.3704 334.79 -25.7517 336.199 -25.1379C348.477 -19.7998 360.565 -14.4099 372.632 -9.01493C378.305 -6.47967 382.82 -3.71864 384.454 -0.536186C385.279 1.06758 385.593 2.7048 385.941 4.33198C386.56 7.20171 387.154 10.0731 387.527 12.9479C387.895 15.8009 389.038 18.6238 391.296 21.3564C393.877 24.4786 396.826 27.5791 400.262 30.6027C402.372 32.4573 405.537 33.9691 409.547 35.1582L416 24.778L390.123 -16.4903H390.118Z" fill="url(#paint9_linear_843_95681)"/>
<path d="M113.133 -15.2632C115.218 -10.681 120.636 -6.6323 129.534 -3.13043C131.06 -2.52839 132.768 -1.95812 134.637 -1.48485C143.235 0.687517 149.826 3.45021 155.642 6.47714C161.496 9.52581 167.547 12.531 173.633 15.5262C181.288 19.2939 190.637 22.56 200.452 25.6572C209.987 28.664 219.523 31.6575 228.248 34.9487C237.337 38.3786 248.153 41.0778 260.147 43.2067C274.767 45.8021 288.925 48.6535 302.74 51.7188C310.547 53.4514 318.664 55.0284 326.826 56.5603C335.478 58.1841 343.182 60.2427 351.074 62.2345C358.739 64.1694 366.724 65.9019 375.037 67.4237C383.11 66.1896 390.324 66.0742 390.324 66.0742L391.806 63.6877C386.742 62.6175 381.53 61.6207 376.21 60.711C367.421 59.2059 359.279 57.4098 352.05 55.1338C345.469 53.0617 337.902 51.4814 330.123 49.998C313.899 46.9042 297.768 43.7502 281.48 40.6965C270.247 38.5893 260.893 35.7781 252.963 32.3749C246.651 29.6674 240.669 26.8596 233.897 24.2925C228.489 22.2406 222.173 20.4629 216.151 18.6033C209.354 16.5045 202.219 14.4993 197.257 11.8336C193.41 9.76662 190.053 7.58924 186.637 5.43193C183.138 3.22612 179.782 0.993551 176.449 -1.24236C171.385 -4.64055 164.75 -7.6842 158.316 -10.7797C153.747 -12.9771 149.09 -15.1729 146.376 -17.7383C143.206 -20.7334 141.248 -23.8273 140.566 -26.998L105.551 -26.998C105.585 -26.9646 105.614 -26.9294 105.649 -26.896C109.427 -23.1165 111.351 -19.1932 113.138 -15.2666L113.133 -15.2632Z" fill="url(#paint10_linear_843_95681)"/>
<path d="M292.949 -20.1312C296.546 -17.0625 300.139 -13.992 303.471 -10.8899C307.971 -6.70066 307.647 -2.46799 303.628 1.73961C301.096 4.39027 299.672 7.11952 299.108 9.87553C298.818 11.287 299.55 12.7871 300.723 14.1567C304.07 18.0549 307.804 21.9163 311.534 25.7761C313.649 27.9669 317.246 29.8767 322.271 31.4269C325.986 32.5725 329.883 33.6545 333.824 34.7097C342.059 36.9139 350.465 39.0411 358.612 41.2803C362.209 42.2687 365.438 43.4192 368.672 44.5497C375.68 46.998 383.704 48.9597 392.709 50.4548C394.957 50.8277 397.136 51.2341 399.28 51.6605L404.855 42.6968C404.659 42.67 404.468 42.645 404.271 42.6182C396.444 41.563 389.917 39.8772 384.558 37.6865C377.314 34.7248 370.748 31.5992 365.59 28.1542C362.204 25.8948 360.31 23.5034 359.691 20.9631C358.95 17.9011 359.367 14.8323 358.994 11.7753C358.514 7.83194 358.484 3.85679 355.505 -0.00797462C353.017 -3.23726 348.993 -6.26586 345.15 -9.32122C339.718 -13.6392 332.214 -17.4906 323.017 -20.964C318.061 -22.8354 313.924 -24.8572 310.415 -26.9961L282.565 -26.9961C286.52 -24.7987 290.127 -22.5327 292.944 -20.1295L292.949 -20.1312Z" fill="url(#paint11_linear_843_95681)"/>
<path d="M60.9172 -4.63843C63.1992 0.045784 67.7387 4.46577 75.3306 8.47603C80.8565 11.3976 86.7455 14.2406 92.1192 17.1939C97.8512 20.3446 105.767 22.614 115.508 24.104C125.76 25.6727 135.089 27.6828 143.638 30.1478C148.988 31.6914 154.803 32.9992 161.07 34.0762C163.21 34.4441 165.295 34.8538 167.347 35.2769C177.059 37.282 185.524 39.8457 194.048 42.3626C206.891 46.1571 220.25 49.7025 234.339 52.9434C242.378 54.793 250.534 56.6326 257.846 58.7883C270.189 62.4273 282.467 66.0863 295.398 69.4795C305.174 72.0449 314.881 74.6437 325.104 77C333.716 76.995 340.68 76.99 345.475 76.9866C336.057 75.3143 327.15 73.3777 318.758 71.1067C306.543 67.8005 293.838 64.7066 281.52 61.4422C274.291 59.5257 267.632 57.3551 260.31 55.482C251.766 53.2963 242.81 51.2979 233.986 49.2426C216.309 45.1253 200.678 40.1651 184.763 35.327C177.751 33.1965 170.306 31.3419 161.752 29.9756C158.047 29.3852 154.616 28.5374 151.412 27.6577C147.893 26.6928 144.649 25.6007 141.518 24.4886C134.236 21.9049 125.981 19.7676 116.848 18.0067C112.53 17.1739 108.658 16.1387 105.723 14.7674C99.3333 11.7772 92.8946 8.79879 86.7897 5.74176C79.1977 1.93887 74.3442 -2.247 72.6069 -6.83756C71.7285 -9.15709 70.9874 -11.5 69.3974 -13.7694C66.821 -17.4502 63.6507 -21.0842 60.6326 -24.7282C60.4559 -24.9439 60.2841 -25.1597 60.1222 -25.3754C59.4253 -21.8066 57.4427 -18.4887 54.6896 -15.4584C57.1335 -11.8796 59.1603 -8.27074 60.927 -4.63843H60.9172Z" fill="url(#paint12_linear_843_95681)"/>
<path d="M111.7 64.1231C107.278 63.1448 102.527 62.3387 97.8899 61.4774C97.0507 61.3219 96.0348 61.2784 95.0975 61.1831C94.9748 61.2517 94.8521 61.3203 94.7294 61.3888C95.8631 61.7701 96.9133 62.1865 98.1402 62.5294C105.497 64.5746 112.701 66.6901 120.317 68.6167C131.614 71.4747 143.098 74.2524 154.64 76.995C159.842 76.995 165.147 76.9917 170.526 76.99C165.039 75.9883 159.69 74.8963 154.454 73.7323C140.163 70.5515 126.015 67.2922 111.7 64.1231Z" fill="url(#paint13_linear_843_95681)"/>
<path d="M262.93 63.1644C252.393 60.0371 241.302 57.2176 229.627 54.6254C221.77 52.8812 214.095 51.0399 206.503 49.1636C197.498 46.9377 188.752 44.5881 179.742 42.3639C169.054 39.7249 156.5 38.2951 144.899 36.2415C144.462 36.1645 143.912 36.1578 143.417 36.1177C143.314 36.1695 143.206 36.2214 143.103 36.2749C144.055 36.611 144.884 37.0024 145.979 37.2733C150.165 38.3101 154.228 39.4339 158.709 40.3002C173.255 43.1064 186.436 46.5548 199.417 50.1051C207.072 52.1989 214.497 54.393 222.315 56.4115C233.975 59.4234 245.621 62.4202 255.578 66.1161C264.466 69.4156 273.672 72.6164 282.599 75.9059C283.522 76.2454 284.425 76.5882 285.303 76.9394C295.309 76.9344 304.634 76.9277 312.977 76.9227C310.179 76.2136 307.402 75.4945 304.663 74.7587C290.569 70.9708 276.455 67.183 262.925 63.1677L262.93 63.1644Z" fill="url(#paint14_linear_843_95681)"/>
<path d="M4.9218 36.516C11.7433 37.4508 18.5696 38.384 25.4549 39.2586C29.2238 39.7369 33.1204 40.1065 36.9777 40.5045C44.9868 41.334 52.0487 42.8274 59.3413 44.1636C71.139 46.3259 81.4448 49.2074 91.7947 52.0537C104.27 55.4837 116.283 59.1126 128.95 62.4556C140.669 65.5494 152.952 68.4125 166.242 70.6919C171.91 71.6652 177.936 72.4211 183.953 73.1268C189.827 73.8158 195.525 74.5867 200.432 75.9012C201.983 76.3159 203.593 76.6705 205.252 76.9765C217.27 76.9715 229.308 76.9665 241.042 76.9598C241.204 76.6404 241.224 76.2892 241.086 75.9079C240.537 74.3593 238.667 72.9863 236.331 71.6752C232.174 69.3406 226.521 67.4726 220.548 65.6832C212.402 63.2399 204.432 60.7264 196.428 58.2279C189.027 55.9184 182.088 53.4133 173.637 51.5436C168.082 50.3128 162.124 49.2759 156.191 48.2592C137.94 45.1336 120.71 41.4862 105.109 36.9709C102.616 36.2501 99.9314 35.6063 97.3108 34.9373C93.159 33.8771 89.7581 32.5877 86.9363 31.106C81.646 28.3316 76.5716 25.5288 72.6701 22.4767C69.7452 20.1856 65.2598 18.1889 60.4896 16.2908C53.3934 13.4695 47.3031 10.4276 42.3367 7.113C40.0106 5.5594 37.4587 4.03423 34.6565 2.57428C33.2676 1.85183 31.9917 1.11433 30.8188 0.365126C29.5526 0.913651 28.3454 1.41535 27.2167 1.86521C36.1729 7.21835 45.3696 12.5213 57.8985 17.0601C64.9555 19.6171 69.7403 22.6707 73.9166 25.8783C77.8475 28.8952 82.3379 31.8569 88.3349 34.4691C91.2598 35.7417 95.1564 36.7585 98.6652 37.8706C109.418 41.2755 120.229 44.6553 130.932 48.0769C133.307 48.8361 135.423 49.7007 137.474 50.567C138.367 50.9449 138.946 51.4332 139.383 51.9032C139.805 52.3614 139.103 52.7678 137.695 52.8029C135.884 52.8497 133.975 52.8514 132.223 52.7092C125.328 52.1507 119.233 50.9717 113.486 49.6137C104.52 47.4949 95.7649 45.274 86.8479 43.1318C81.1012 41.7504 75.1975 40.4443 69.4213 39.0764C67.4976 38.6215 65.6867 38.1047 63.9298 37.5779C58.3205 35.8922 51.6218 35.1514 44.3292 34.9658C31.2457 34.633 18.3929 33.867 5.69228 32.7533C3.0275 32.5191 0.544295 32.1863 -1.80641 31.7682C-0.67277 33.3737 0.81421 34.8353 2.46314 36.1481C3.27288 36.2769 4.09243 36.4006 4.92671 36.516H4.9218Z" fill="url(#paint15_linear_843_95681)"/>
<path d="M2.56123 20.9534C3.3857 19.8882 2.76735 18.8413 1.96252 17.8178C1.36871 17.0636 0.755267 16.311 0.136919 15.5602C-2.2236 18.1807 -3.27381 20.6006 -3.73021 22.3766C-0.589393 22.5806 1.72696 22.0304 2.56123 20.9534Z" fill="url(#paint16_linear_843_95681)"/>
<path d="M-3.3473 28.9479C-1.0653 29.4412 1.39827 29.8259 4.1563 30.0349C16.2435 30.948 28.4387 31.4079 40.8449 30.9998C49.4625 30.7172 57.5354 31.2507 64.3568 33.1772C67.321 34.0151 69.9465 34.9967 72.6457 35.9416C76.7581 37.3815 81.3025 38.609 86.8038 39.3749C87.6038 39.4869 88.5068 39.512 89.3607 39.5773C89.4883 39.5204 89.6208 39.4635 89.7484 39.4067C89.1251 39.0538 88.5607 38.6892 87.8737 38.3514C85.3365 37.1005 82.3674 35.9282 80.2768 34.5954C76.1153 31.9464 72.1402 29.2523 68.6117 26.4979C64.5728 23.3489 59.1009 20.5695 51.9654 18.1663C41.0952 14.5039 31.5157 10.5271 23.7717 5.99843C22.7656 5.40977 21.8037 4.81441 20.886 4.21739C19.8456 4.57025 19.2518 4.75421 19.2518 4.75421C16.2337 5.71246 13.6082 6.74095 11.3164 7.80623C13.6131 9.91671 16.1454 11.9954 19.242 13.9922C21.681 15.5642 24.7973 17.0124 27.5406 18.5292C29.1994 19.444 30.9955 20.3437 32.2715 21.3204C34.3081 22.8773 33.2628 24.1516 29.4497 25.2621C25.8917 26.2989 21.6516 26.809 17.0729 26.9963C13.829 27.1301 10.5655 27.2204 7.30202 27.2856C3.02266 27.3725 -0.648164 26.9444 -4 26.2421C-3.91166 27.1769 -3.69083 28.0799 -3.35221 28.9479H-3.3473Z" fill="url(#paint17_linear_843_95681)"/>
<path d="M92.7268 27.6425C88.9579 25.9116 84.7669 24.2861 82.1315 22.2994C78.3822 19.4748 73.5041 16.8827 68.2236 14.3709C62.3935 11.5981 57.2406 8.69996 53.6973 5.48741C51.5528 3.54081 49.3836 1.59421 46.9102 -0.305565C44.9325 -1.82572 43.1167 -3.36093 41.5071 -4.91787C40.4421 -4.31416 39.3723 -3.73719 38.3074 -3.18532C39.9121 -1.84578 41.7083 -0.527988 43.686 0.771418C46.6894 2.74477 49.1039 4.82349 51.6754 6.87043C55.464 9.88398 60.7004 12.5932 66.4471 15.1987C71.968 17.7038 76.4879 20.4013 80.5317 23.2158C82.8824 24.8531 86.1851 26.3364 89.2229 27.8516C91.1859 28.8315 93.1587 29.845 95.6517 30.6561C98.9398 31.7264 102.591 32.688 106.355 33.5626C116.626 35.949 126.908 38.3371 137.449 40.5797C144.138 42.0029 151.244 43.2069 158.267 44.4378C171.38 46.7356 183.388 49.5919 194.852 52.7259C203.063 54.9685 211.111 57.2796 219.267 59.544C226.197 61.4672 233.479 63.2582 240.046 65.3136C245.969 67.1682 251.323 69.2469 256.574 71.3306C261.109 73.1284 265.388 75.0114 269.402 76.948C272.278 76.948 275.115 76.9447 277.907 76.943C277.102 76.5918 276.268 76.2473 275.414 75.9095C269.496 73.5782 263.258 71.3407 257.247 69.0362C248.56 65.7049 239.079 62.6763 228.592 60.0056C220.558 57.9586 212.505 55.9083 204.829 53.7126C192.472 50.1789 179.556 46.9262 165.653 44.1418C158.326 42.6735 150.645 41.4058 143.387 39.9007C131.972 37.536 120.867 34.9958 109.447 32.6328C102.964 31.2916 97.2565 29.7296 92.7121 27.6425H92.7268Z" fill="url(#paint18_linear_843_95681)"/>
<path d="M107.018 60.4056C121.132 64.2151 135.388 67.9495 150.386 71.3527C159.641 73.4531 169.098 75.4181 179.178 76.9901C182.299 76.9901 185.44 76.9884 188.591 76.9868C186.907 76.7409 185.195 76.5101 183.462 76.2877C170.462 74.6288 158.836 72.1052 147.318 69.4947C132.341 66.1015 118.609 62.1732 104.603 58.3553C91.6525 54.825 78.5101 51.3582 64.2489 48.4617C51.136 45.7977 37.4882 43.4748 22.6331 42.0768C18.2556 41.6654 13.9468 41.172 9.6429 40.6737C11.8169 41.7824 13.8192 42.6303 15.2669 43.1955C29.1994 44.4398 42.3172 46.4148 54.9638 48.7544C73.2492 52.1375 90.6955 56.0006 107.013 60.4056H107.018Z" fill="url(#paint19_linear_843_95681)"/>
<path d="M60.3177 14.4858C67.3208 17.4743 73.5926 20.5999 78.0486 24.1385C81.4053 26.8042 86.8331 29.0485 91.6228 31.4165C92.8448 32.0203 94.425 32.5688 96.1083 33.0287C100.358 34.191 104.814 35.2646 109.089 36.4168C121.784 39.8418 135.192 42.8804 149.684 45.3622C156.5 46.5294 163.268 47.7369 169.898 49.0196C179.688 50.9126 187.84 53.5449 196.359 56.0082C205.546 58.6639 214.679 61.3413 224.023 63.9301C233.489 66.554 241.871 69.5023 248.668 72.9574C251.137 74.2133 253.331 75.516 254.616 76.9543C257.482 76.9543 260.324 76.9509 263.131 76.9492C262.032 76.2034 260.707 75.4926 259.278 74.8036C249.674 70.1629 238.75 65.9269 225.299 62.5287C215.606 60.0804 206.41 57.4314 197.341 54.7289C183.089 50.4845 167.464 46.9626 150.366 44.1815C136.428 41.9155 123.713 38.9722 111.371 35.8332C108.838 35.1893 106.286 34.5472 103.631 33.9635C97.3646 32.5889 92.6926 30.7242 88.428 28.6622C83.7217 26.3895 79.8497 23.9847 76.1592 21.5113C73.0626 19.4376 69.2641 17.4525 65.1124 15.6013C57.6088 12.2549 51.4596 8.67612 46.6601 4.79797C44.4223 2.9885 41.6152 1.25597 38.862 -0.473227C37.964 -1.03848 37.1297 -1.61042 36.3445 -2.18904C35.6378 -1.83953 34.9311 -1.50172 34.2392 -1.17561C34.7888 -0.797663 35.363 -0.423058 35.9666 -0.0517998C39.5049 2.12391 43.1169 4.29461 46.2282 6.54223C50.1395 9.36346 54.6152 12.0526 60.3226 14.4875L60.3177 14.4858Z" fill="url(#paint20_linear_843_95681)"/>
<path d="M81.4056 51.3654C96.6189 55.2971 111.184 59.5013 126.187 63.5183C140.585 67.3747 155.534 71.0087 172.126 73.7396C177.117 74.5607 182.329 75.238 187.521 75.9036C189.965 76.218 192.335 76.5675 194.602 76.9839C196.192 76.9839 197.787 76.9839 199.382 76.9822C194.995 75.9588 190.269 75.1728 185.17 74.6042C176.494 73.6376 168.175 72.3699 160.392 70.7444C143.167 67.1456 126.849 63.127 111.538 58.615C98.2139 54.6883 84.463 50.9172 69.8189 47.5776C56.9809 44.6493 43.3085 42.2378 28.3308 40.7377C20.7683 39.9801 13.407 38.9767 6.04573 38.0034C5.61877 37.9466 5.19182 37.8897 4.76486 37.8329C5.46664 38.3028 6.17823 38.7476 6.88982 39.1657C8.51912 39.3647 10.1484 39.5587 11.7777 39.7544C20.4542 40.7996 29.3712 41.6408 37.8366 42.8482C53.3689 45.0624 67.9246 47.8853 81.4007 51.3671L81.4056 51.3654Z" fill="url(#paint21_linear_843_95681)"/>
<path d="M386.103 32.3997C382.109 29.6939 378.134 26.9847 375.758 24.0481C373.795 21.6199 373.074 19.1214 372.583 16.6229C372.117 14.2515 372.073 11.8718 371.769 9.4971C371.484 7.25449 371.302 5.0052 370.718 2.77096C369.938 -0.229216 367.131 -3.04208 362.704 -5.64256C356.58 -9.2431 350.661 -12.8938 343.943 -16.3622C338.947 -18.941 333.014 -21.3241 327.145 -23.6921C324.524 -24.7507 322.188 -25.8544 320.088 -26.9966L315.401 -26.9966C318.051 -25.4698 321.074 -24.0098 324.539 -22.6268C329.844 -20.5096 335.036 -18.344 339.703 -16.0629C346.77 -12.6112 351.775 -8.75311 357.267 -4.99704C360.987 -2.45342 363.652 0.220646 364.407 3.06194C365.08 5.59219 365.482 8.13414 365.826 10.6727C366.199 13.4354 366.243 16.2048 366.665 18.9675C366.984 21.0814 367.725 23.1852 369.747 25.207C373.658 29.1136 379.748 32.6255 386.746 35.9602C391.727 38.3349 398.117 40.0791 405.768 41.2263L406.671 39.7747C397.71 38.176 390.952 35.6825 386.103 32.3981V32.3997Z" fill="url(#paint22_linear_843_95681)"/>
<path d="M75.2562 75.5904C70.2161 74.5518 65.289 73.4498 60.5925 72.244C60.833 72.943 60.9851 73.5735 61.0783 74.1287C65.4706 75.1455 70.0591 76.0703 74.6574 76.9834C76.8413 76.9868 79.2558 76.9884 81.8911 76.9901C79.6926 76.5168 77.4842 76.0486 75.2562 75.5904Z" fill="url(#paint23_linear_843_95681)"/>
<path d="M389.338 27.4028C386.094 24.6133 383.507 21.7586 382.57 18.7651C381.893 16.6078 381.427 14.4438 381.019 12.2782C380.504 9.53719 380.107 6.79456 379.734 4.05026C379.312 0.93804 377.829 -2.09558 373.369 -4.85326C370.768 -6.46037 367.759 -7.9939 364.775 -9.52576C354.43 -14.8388 343.761 -20.0682 331.601 -24.9313C329.932 -25.6003 328.352 -26.2893 326.87 -27L323.253 -27C325.201 -26.0016 327.346 -25.0367 329.711 -24.1152C341.97 -19.3374 352.109 -14.0578 361.811 -8.66618C365.894 -6.39849 370.09 -4.16091 372.431 -1.59388C374.026 0.15204 374.939 1.93977 375.165 3.76596C375.646 7.66251 376.087 11.559 376.578 15.4556C377.388 21.874 383.061 27.8108 392.101 33.3981C395.865 35.7243 401.062 37.4318 407.353 38.6626L408.192 37.3147C401.984 35.8899 397.15 33.9215 393.887 31.3394C392.248 30.045 390.859 28.7139 389.333 27.4011L389.338 27.4028Z" fill="url(#paint24_linear_843_95681)"/>
</g>
<path id="Vector 130" d="M96 11.2561C99.3682 10.9238 100.444 7.61357 100.561 6C100.469 8.45648 102.796 11.1478 105.067 11.2742C101.848 11.396 100.633 15.0856 100.515 16.1811C100.516 16.2314 100.513 16.2701 100.506 16.2955C100.507 16.2615 100.51 16.2232 100.515 16.1811C100.49 15.3407 99.2234 11.2561 96 11.2561Z" fill="url(#paint25_linear_843_95681)"/>
<path id="Vector 131" d="M298.285 52.5171C300.558 52.4856 301.465 50.3315 301.635 49.2584C301.434 50.8969 302.839 52.8296 304.351 53.0429C302.191 52.942 301.169 55.3421 301.027 56.0684C301.025 56.1021 301.021 56.1278 301.015 56.1445C301.018 56.1218 301.022 56.0963 301.027 56.0684C301.059 55.5047 300.442 52.6997 298.285 52.5171Z" fill="url(#paint26_linear_843_95681)"/>
<g id="glow" filter="url(#filter0_f_843_95681)">
<rect x="85" y="49" width="247" height="44" fill="#CD9C44" fill-opacity="0.3"/>
</g>
</g>
</g>
</g>
<defs>
<filter id="filter0_f_843_95681" x="35" y="-1" width="347" height="144" filterUnits="userSpaceOnUse" color-interpolation-filters="sRGB">
<feFlood flood-opacity="0" result="BackgroundImageFix"/>
<feBlend mode="normal" in="SourceGraphic" in2="BackgroundImageFix" result="shape"/>
<feGaussianBlur stdDeviation="25" result="effect1_foregroundBlur_843_95681"/>
</filter>
<linearGradient id="paint0_linear_843_95681" x1="41.5" y1="18" x2="41.5" y2="40.9413" gradientUnits="userSpaceOnUse">
<stop stop-color="#AB750F"/>
<stop offset="0.516" stop-color="#D8A956"/>
<stop offset="1" stop-color="#AB750F"/>
</linearGradient>
<linearGradient id="paint1_linear_843_95681" x1="68.5" y1="18" x2="68.5" y2="40.9413" gradientUnits="userSpaceOnUse">
<stop stop-color="#AB750F"/>
<stop offset="0.516" stop-color="#D8A956"/>
<stop offset="1" stop-color="#AB750F"/>
</linearGradient>
<linearGradient id="paint2_linear_843_95681" x1="22" y1="29" x2="22" y2="65" gradientUnits="userSpaceOnUse">
<stop stop-color="#AB750F"/>
<stop offset="0.516" stop-color="#D8A956"/>
<stop offset="1" stop-color="#AB750F"/>
</linearGradient>
<linearGradient id="paint3_linear_843_95681" x1="374.5" y1="18" x2="374.5" y2="40.9413" gradientUnits="userSpaceOnUse">
<stop stop-color="#AB750F"/>
<stop offset="0.516" stop-color="#D8A956"/>
<stop offset="1" stop-color="#AB750F"/>
</linearGradient>
<linearGradient id="paint4_linear_843_95681" x1="347.5" y1="18" x2="347.5" y2="40.9413" gradientUnits="userSpaceOnUse">
<stop stop-color="#AB750F"/>
<stop offset="0.516" stop-color="#D8A956"/>
<stop offset="1" stop-color="#AB750F"/>
</linearGradient>
<linearGradient id="paint5_linear_843_95681" x1="394" y1="29" x2="394" y2="65" gradientUnits="userSpaceOnUse">
<stop stop-color="#AB750F"/>
<stop offset="0.516" stop-color="#D8A956"/>
<stop offset="1" stop-color="#AB750F"/>
</linearGradient>
<linearGradient id="paint6_linear_843_95681" x1="51.1642" y1="56.9672" x2="66.9354" y2="-32.882" gradientUnits="userSpaceOnUse">
<stop stop-color="white" stop-opacity="0"/>
<stop offset="1" stop-color="white"/>
</linearGradient>
<linearGradient id="paint7_linear_843_95681" x1="51.1642" y1="56.9672" x2="66.9354" y2="-32.882" gradientUnits="userSpaceOnUse">
<stop stop-color="white" stop-opacity="0"/>
<stop offset="1" stop-color="white"/>
</linearGradient>
<linearGradient id="paint8_linear_843_95681" x1="51.1642" y1="56.9672" x2="66.9354" y2="-32.882" gradientUnits="userSpaceOnUse">
<stop stop-color="white" stop-opacity="0"/>
<stop offset="1" stop-color="white"/>
</linearGradient>
<linearGradient id="paint9_linear_843_95681" x1="51.1642" y1="56.9672" x2="66.9354" y2="-32.882" gradientUnits="userSpaceOnUse">
<stop stop-color="white" stop-opacity="0"/>
<stop offset="1" stop-color="white"/>
</linearGradient>
<linearGradient id="paint10_linear_843_95681" x1="51.1642" y1="56.9672" x2="66.9354" y2="-32.882" gradientUnits="userSpaceOnUse">
<stop stop-color="white" stop-opacity="0"/>
<stop offset="1" stop-color="white"/>
</linearGradient>
<linearGradient id="paint11_linear_843_95681" x1="51.1642" y1="56.9672" x2="66.9354" y2="-32.882" gradientUnits="userSpaceOnUse">
<stop stop-color="white" stop-opacity="0"/>
<stop offset="1" stop-color="white"/>
</linearGradient>
<linearGradient id="paint12_linear_843_95681" x1="51.1642" y1="56.9672" x2="66.9354" y2="-32.882" gradientUnits="userSpaceOnUse">
<stop stop-color="white" stop-opacity="0"/>
<stop offset="1" stop-color="white"/>
</linearGradient>
<linearGradient id="paint13_linear_843_95681" x1="51.1642" y1="56.9672" x2="66.9354" y2="-32.882" gradientUnits="userSpaceOnUse">
<stop stop-color="white" stop-opacity="0"/>
<stop offset="1" stop-color="white"/>
</linearGradient>
<linearGradient id="paint14_linear_843_95681" x1="51.1642" y1="56.9672" x2="66.9354" y2="-32.882" gradientUnits="userSpaceOnUse">
<stop stop-color="white" stop-opacity="0"/>
<stop offset="1" stop-color="white"/>
</linearGradient>
<linearGradient id="paint15_linear_843_95681" x1="51.1642" y1="56.9672" x2="66.9354" y2="-32.882" gradientUnits="userSpaceOnUse">
<stop stop-color="white" stop-opacity="0"/>
<stop offset="1" stop-color="white"/>
</linearGradient>
<linearGradient id="paint16_linear_843_95681" x1="51.1642" y1="56.9672" x2="66.9354" y2="-32.882" gradientUnits="userSpaceOnUse">
<stop stop-color="white" stop-opacity="0"/>
<stop offset="1" stop-color="white"/>
</linearGradient>
<linearGradient id="paint17_linear_843_95681" x1="51.1642" y1="56.9672" x2="66.9354" y2="-32.882" gradientUnits="userSpaceOnUse">
<stop stop-color="white" stop-opacity="0"/>
<stop offset="1" stop-color="white"/>
</linearGradient>
<linearGradient id="paint18_linear_843_95681" x1="51.1642" y1="56.9672" x2="66.9354" y2="-32.882" gradientUnits="userSpaceOnUse">
<stop stop-color="white" stop-opacity="0"/>
<stop offset="1" stop-color="white"/>
</linearGradient>
<linearGradient id="paint19_linear_843_95681" x1="51.1642" y1="56.9672" x2="66.9354" y2="-32.882" gradientUnits="userSpaceOnUse">
<stop stop-color="white" stop-opacity="0"/>
<stop offset="1" stop-color="white"/>
</linearGradient>
<linearGradient id="paint20_linear_843_95681" x1="51.1642" y1="56.9672" x2="66.9354" y2="-32.882" gradientUnits="userSpaceOnUse">
<stop stop-color="white" stop-opacity="0"/>
<stop offset="1" stop-color="white"/>
</linearGradient>
<linearGradient id="paint21_linear_843_95681" x1="51.1642" y1="56.9672" x2="66.9354" y2="-32.882" gradientUnits="userSpaceOnUse">
<stop stop-color="white" stop-opacity="0"/>
<stop offset="1" stop-color="white"/>
</linearGradient>
<linearGradient id="paint22_linear_843_95681" x1="51.1642" y1="56.9672" x2="66.9354" y2="-32.882" gradientUnits="userSpaceOnUse">
<stop stop-color="white" stop-opacity="0"/>
<stop offset="1" stop-color="white"/>
</linearGradient>
<linearGradient id="paint23_linear_843_95681" x1="51.1642" y1="56.9672" x2="66.9354" y2="-32.882" gradientUnits="userSpaceOnUse">
<stop stop-color="white" stop-opacity="0"/>
<stop offset="1" stop-color="white"/>
</linearGradient>
<linearGradient id="paint24_linear_843_95681" x1="51.1642" y1="56.9672" x2="66.9354" y2="-32.882" gradientUnits="userSpaceOnUse">
<stop stop-color="white" stop-opacity="0"/>
<stop offset="1" stop-color="white"/>
</linearGradient>
<linearGradient id="paint25_linear_843_95681" x1="95.5761" y1="11.1478" x2="105.233" y2="11.1478" gradientUnits="userSpaceOnUse">
<stop stop-color="#AB750F"/>
<stop offset="0.516" stop-color="#D8A956"/>
<stop offset="1" stop-color="#AB750F"/>
</linearGradient>
<linearGradient id="paint26_linear_843_95681" x1="298.008" y1="52.4206" x2="304.469" y2="52.9677" gradientUnits="userSpaceOnUse">
<stop stop-color="#AB750F"/>
<stop offset="0.516" stop-color="#D8A956"/>
<stop offset="1" stop-color="#AB750F"/>
</linearGradient>
</defs>
</svg>
