<svg xmlns="http://www.w3.org/2000/svg" width="393" height="126" fill="none" xmlns:v="https://vecta.io/nano"><path fill="#f5f1ee" d="M0 0h393v126H0z"/><path d="M366 93.105c3.343-.323 4.411-3.538 4.527-5.105-.091 2.386 2.218 5 4.473 5.123-3.195.118-4.401 3.702-4.519 4.766a.38.38 0 0 1-.008.111l.008-.111c-.024-.816-1.281-4.784-4.481-4.784z" fill="url(#A)"/><path d="M80 37.168c5.201-.517 6.862-5.661 7.043-8.168-.143 3.818 3.45 8 6.957 8.197-4.97.189-6.846 5.923-7.029 7.626.002.078-.002.138-.014.178a2.69 2.69 0 0 1 .014-.178c-.037-1.306-1.994-7.654-6.971-7.654z" fill="url(#B)"/><path d="M349 42.721c6.315-.678 8.333-7.43 8.552-10.721-.173 5.011 4.189 10.5 8.448 10.758-6.035.248-8.313 7.774-8.535 10.009a.91.91 0 0 1-.017.233c.003-.069.008-.148.017-.233-.046-1.714-2.421-10.045-8.465-10.045z" fill="#01e3d6"/><path d="M20 74.7c5.944-.613 7.843-6.722 8.049-9.7-.163 4.533 3.943 9.5 7.951 9.733-5.68.225-7.824 7.034-8.033 9.055.003.093-.003.164-.016.211.002-.063.008-.133.016-.211C27.924 82.238 25.688 74.7 20 74.7z" fill="url(#C)"/><path d="M256 9h42.929V0H247l9 9z" fill="url(#D)"/><path d="M136.929 9H94V0h51.929l-9 9z" fill="url(#E)"/><path d="M24 21L0 59V0H116L95 21H24Z" fill="url(#F)"/><path d="M369 21l24 38V0H277l21 21h71z" fill="url(#G)"/><path d="M103.356 55l6 22.5 5.25-22.5h9.75l-9.5 35h-9.5l-6-21.75-6 21.75h-9.5l-9.5-35h9.75l5.25 22.5 6-22.5h8zm40.024 35h-18v-7h4.5V62h-4.5v-7h18v7h-4.5v21h4.5v7zm34.996 0h-9.5l-12-21v21h-9V55h9.5l12 21V55h9v35zm36.523 0h-9.5l-12-21v21h-9V55h9.5l12 21V55h9v35zm33.774 0h-27.75V55h27.75v7h-18.75v6.75h14.75v7h-14.75V83h18.75v7zm3.988-35h21c3.5 0 6.033.8 7.6 2.4 1.6 1.567 2.4 4.1 2.4 7.6v4.5c0 2.767-.467 4.917-1.4 6.45-.9 1.533-2.35 2.55-4.35 3.05l6.25 11h-9.75l-5.75-10.5h-7V90h-9V55zm22 10c0-2-1-3-3-3h-10v10.5h10c2 0 3-1 3-3V65zm12.936 17.75c9.134.5 15.317.75 18.55.75.767 0 1.367-.217 1.8-.65.467-.467.7-1.083.7-1.85v-4.5h-11.5c-3.5 0-6.05-.783-7.65-2.35-1.566-1.6-2.35-4.15-2.35-7.65V65c0-3.5.784-6.033 2.35-7.6 1.6-1.6 4.15-2.4 7.65-2.4h17.55v7h-15.55c-2 0-3 1-3 3v1c0 2 1 3 3 3h9c3.267 0 5.667.767 7.2 2.3s2.3 3.933 2.3 7.2V81c0 3.267-.766 5.667-2.3 7.2s-3.933 2.3-7.2 2.3c-1.7 0-3.5-.033-5.4-.1l-4.6-.2a317.03 317.03 0 0 1-10.55-.7v-6.75z" fill="url(#H)"/><path d="M193.78 30h5.88L204 42.04 199.66 44l-.85-3.612h0l-.69-2.933h0l-.7-2.975-1.342 3.814 1.517-.623.69 2.933L190 44l3.443-9.837 2.927-2.133-2.378.564.645-1.844-.857-.75z" fill="url(#I)"/><path d="M203.331 38.534l-1.01-2.804 1.679-.69-.669 3.494z" fill="url(#I)"/><defs><linearGradient id="A" x1="365.579" y1="93" x2="375.165" y2="93" href="#J"><stop stop-color="#ab750f"/><stop offset=".516" stop-color="#d8a956"/><stop offset="1" stop-color="#ab750f"/></linearGradient><linearGradient id="B" x1="79.346" y1="37" x2="94.256" y2="37" href="#J"><stop stop-color="#ab750f"/><stop offset=".516" stop-color="#d8a956"/><stop offset="1" stop-color="#ab750f"/></linearGradient><linearGradient id="C" x1="28" y1="65" x2="28" y2="84" href="#J"><stop stop-color="#ffa700"/><stop offset="1" stop-color="red"/></linearGradient><linearGradient id="D" x1="289.929" y1="4.5" x2="246.05" y2="4.5" href="#J"><stop stop-color="#6a4500"/><stop offset="1" stop-color="#d8a956"/></linearGradient><linearGradient id="E" x1="103" y1="4.5" x2="146.878" y2="4.5" href="#J"><stop stop-color="#6a4500"/><stop offset="1" stop-color="#d8a956"/></linearGradient><linearGradient id="F" x1="-5.423" y1="29.5" x2="118.122" y2="29.5" href="#J"><stop stop-color="#ab750f"/><stop offset=".516" stop-color="#d8a956"/><stop offset="1" stop-color="#ab750f"/></linearGradient><linearGradient id="G" x1="398.423" y1="29.5" x2="274.878" y2="29.5" href="#J"><stop stop-color="#ab750f"/><stop offset=".516" stop-color="#d8a956"/><stop offset="1" stop-color="#ab750f"/></linearGradient><linearGradient id="H" x1="63.047" y1="72.5" x2="323.982" y2="72.5" href="#J"><stop stop-color="#ab750f"/><stop offset=".516" stop-color="#d8a956"/><stop offset="1" stop-color="#ab750f"/></linearGradient><linearGradient id="I" x1="193.7" y1="33.045" x2="203.029" y2="42.75" href="#J"><stop stop-color="#ab750f"/><stop offset=".484" stop-color="#d8a956"/><stop offset="1" stop-color="#ab750f"/></linearGradient><linearGradient id="J" gradientUnits="userSpaceOnUse"/></defs></svg>