<svg xmlns="http://www.w3.org/2000/svg" width="416" height="65" fill="none" xmlns:v="https://vecta.io/nano"><path fill-rule="evenodd" d="M208 0H19l-8 8v36l10 10h88l6 9h93V0z" fill="#212121"/><path d="M61 40.941L38.059 18H22l22.941 22.941H61z" fill="url(#C)"/><path d="M88 40.941L65.059 18H49l22.941 22.941H88z" fill="url(#D)"/><g fill-rule="evenodd"><path d="M0 29h6v20l10 10h28v6H13.515L0 51.485V29z" fill="url(#E)"/><path d="M208 0h189l8 8v36l-10 10h-88l-6 9h-93V0z" fill="#212121"/></g><path d="M355 40.941L377.941 18H394l-22.941 22.941H355z" fill="url(#F)"/><path d="M328 40.941L350.941 18H367l-22.941 22.941H328z" fill="url(#G)"/><path fill-rule="evenodd" d="M416 29h-6v20l-10 10h-28v6h30.485L416 51.485V29z" fill="url(#H)"/><mask id="A" maskUnits="userSpaceOnUse" x="11" y="0" width="394" height="63" mask-type="alpha"><path d="M19 0h378l8 8v36l-10 10h-88l-6 9H115l-6-9H21L11 44V8l8-8z" fill="#212121"/></mask><g mask="url(#A)"><g opacity=".05"><path d="M92.658-9.593c1.492 3.097 5.128 5.885 9.678 8.582 5.982 3.547 12.686 6.898 21.304 9.771 1.673.559 3.445 1.087 5.26 1.592 8.039 2.229 14.33 4.983 20.455 7.796 3.254 1.492 6.625 2.955 10.021 4.408 2.704 1.157 5.806 2.184 9.653 2.893 8.186 1.508 15.228 3.525 22.06 5.644l25.843 7.965c11.179 3.31 23.207 6.238 35.859 8.865 9.653 2.005 18.737 4.279 27.717 6.621 8.957 2.335 18.399 4.457 27.728 6.621 9.113 2.115 18.074 4.294 26.604 6.681 7.071 1.978 14.722 3.602 22.824 4.948 2.719-1.746 6.4-3.04 10.321-3.999-9.216-1.517-17.912-3.348-25.779-5.656-6.1-1.789-12.868-3.253-19.954-4.55l-11.984-2.286-22.835-5.004c-9.516-2.258-19.586-4.188-29.774-6.047-15.032-2.744-28.665-6.106-40.359-10.345-6.714-2.433-14.458-4.47-21.687-6.704-8.804-2.722-17.642-5.455-25.71-8.42-5.33-1.958-9.315-4.341-13.938-6.525-4.78-2.261-9.412-4.562-14.492-6.743-2.478-1.065-5.624-1.983-8.809-2.82-9.147-2.403-15.615-5.517-21.21-8.897-3.906-2.361-6.331-4.878-7.636-7.542-2.154-4.408-5.84-8.678-10.055-12.905-.442-.445-.854-.896-1.237-1.35H79.418a21.4 21.4 0 0 0 .947 1.248c2.748 3.343 6.007 6.636 8.667 9.986 1.605 2.02 2.63 4.099 3.627 6.169v.002z" fill="url(#I)"/><path d="M219.64-24.163c-1.889 2.249-6.522 3.462-13.417 3.54-6.007.069-11.498-.574-16.813-1.428l-10.247-1.738c-1.56-.247-3.263-.423-4.961-.535-3.068-.201-5.168.212-6.346 1.214-1.482 1.259-1.501 2.582-1.148 3.903.839 3.142 3.504 6.109 8.544 8.75 7.886 4.132 13.986 8.561 19.723 13.064 2.797 2.196 5.762 4.378 9.172 6.467 4.285 2.624 10.605 4.709 16.941 6.763l18.899 6.091c3.607 1.253 6.655 2.703 9.707 4.124 6.228 2.896 12.715 5.716 19.88 8.352 7.411 2.724 16.504 4.657 25.912 6.455l43.589 8.378c6.743 1.296 12.691 2.95 18.344 4.736 6.851 2.166 14.477 3.933 23.021 5.238a247.34 247.34 0 0 1 12.72 2.291l4.226-6.793-.707-.154-16.401-3.36c-6.492-1.396-11.989-3.213-17.574-4.99-8.485-2.704-18.197-4.853-27.707-7.096l-18.526-4.493c-8.49-2.198-14.595-5.096-19.729-8.24a121.51 121.51 0 0 1-20.209-15.454c-.481-.452-.765-.928-1.099-1.396-1.021-1.445-.255-2.773 1.894-4.072 3.19-1.923 6.115-3.898 9.143-5.853 4.544-2.932 5.918-6.034 4.245-9.295-1.909-3.719-4.255-7.397-8.48-10.909-2.748-2.284-6.488-4.372-10.571-6.392h-50.96c.025.943-.275 1.886-1.07 2.831h.005z" fill="url(#I)"/><path d="M67.154 71.993l18.904 4.305 2.92.697 54.189.003-23.409-5.315-48.113-11.574c-7.106-1.774-13.501-3.88-20.199-5.843-5.742-1.684-12.014-3.045-18.668-4.154 17.294 7.858 24.17 14.981 26.825 19.909a192.65 192.65 0 0 0 7.548 1.973l.005-.002z" fill="url(#I)"/><path d="M390.118-16.49c-33.151-.936-36.919-10.507-36.919-10.507h-21.113c1.33.627 2.704 1.246 4.113 1.86l36.433 16.123c5.673 2.535 10.188 5.296 11.822 8.479.825 1.604 1.139 3.241 1.487 4.868.619 2.87 1.213 5.741 1.586 8.616.368 2.853 1.511 5.676 3.769 8.409 2.581 3.122 5.53 6.223 8.966 9.246 2.11 1.855 5.275 3.366 9.285 4.556L416 24.778 390.123-16.49h-.005z" fill="url(#I)"/><path d="M113.133-15.263c2.085 4.582 7.503 8.631 16.401 12.133 1.526.602 3.234 1.172 5.103 1.646 8.598 2.172 15.189 4.935 21.005 7.962l17.991 9.049c7.655 3.768 17.004 7.034 26.819 10.131 9.535 3.007 19.071 6 27.796 9.292 9.089 3.43 19.905 6.129 31.899 8.258 14.62 2.595 28.778 5.447 42.593 8.512 7.807 1.733 15.924 3.31 24.086 4.841 8.652 1.624 16.356 3.682 24.248 5.674 7.665 1.935 15.65 3.667 23.963 5.189 8.073-1.234 15.287-1.349 15.287-1.349l1.482-2.387c-5.064-1.07-10.276-2.067-15.596-2.977-8.789-1.505-16.931-3.301-24.16-5.577-6.581-2.072-14.148-3.652-21.927-5.136l-48.643-9.301c-11.233-2.107-20.587-4.918-28.517-8.322-6.312-2.707-12.294-5.515-19.066-8.082-5.408-2.052-11.724-3.83-17.746-5.689-6.797-2.099-13.932-4.104-18.894-6.77-3.847-2.067-7.204-4.244-10.62-6.402-3.499-2.206-6.855-4.438-10.188-6.674-5.064-3.398-11.699-6.442-18.133-9.537-4.569-2.197-9.226-4.393-11.94-6.959-3.17-2.995-5.128-6.089-5.81-9.26h-35.015c.034.033.063.069.098.102 3.778 3.78 5.702 7.703 7.489 11.629l-.005.003z" fill="url(#I)"/><path d="M292.949-20.131c3.597 3.069 7.19 6.139 10.522 9.241 4.5 4.189 4.176 8.422.157 12.63-2.532 2.651-3.956 5.38-4.52 8.136-.29 1.411.442 2.912 1.615 4.281 3.347 3.898 7.081 7.76 10.811 11.619 2.115 2.191 5.712 4.101 10.737 5.651 3.715 1.146 7.612 2.228 11.553 3.283l24.788 6.571c3.597.988 6.826 2.139 10.06 3.269 7.008 2.448 15.032 4.41 24.037 5.905 2.248.373 4.427.779 6.571 1.206l5.575-8.964-.584-.079c-7.827-1.055-14.354-2.741-19.713-4.932-7.244-2.962-13.81-6.087-18.968-9.532-3.386-2.259-5.28-4.651-5.899-7.191-.741-3.062-.324-6.131-.697-9.188-.48-3.943-.51-7.919-3.489-11.783-2.488-3.229-6.512-6.258-10.355-9.313-5.432-4.318-12.936-8.169-22.133-11.643-4.956-1.871-9.093-3.893-12.602-6.032h-27.85c3.955 2.197 7.562 4.463 10.379 6.867l.005-.002z" fill="url(#I)"/><path d="M60.917-4.638C63.199.046 67.739 4.466 75.331 8.476l16.789 8.718c5.732 3.151 13.648 5.42 23.389 6.91 10.252 1.569 19.581 3.579 28.13 6.044 5.35 1.544 11.165 2.851 17.432 3.928 2.14.368 4.225.778 6.277 1.201 9.712 2.005 18.177 4.569 26.701 7.086a678.89 678.89 0 0 0 40.291 10.581c8.039 1.85 16.195 3.689 23.507 5.845l37.552 10.691L325.104 77l20.371-.013c-9.418-1.672-18.325-3.609-26.717-5.88l-37.238-9.665-21.21-5.96c-8.544-2.186-17.5-4.184-26.324-6.239-17.677-4.117-33.308-9.077-49.223-13.916-7.012-2.13-14.457-3.985-23.011-5.351-3.705-.59-7.136-1.438-10.34-2.318-3.519-.965-6.763-2.057-9.894-3.169-7.282-2.584-15.537-4.721-24.67-6.482-4.318-.833-8.19-1.868-11.125-3.239L86.79 5.742C79.198 1.939 74.344-2.247 72.607-6.838c-.878-2.32-1.62-4.662-3.209-6.932-2.576-3.681-5.747-7.315-8.765-10.959a19.49 19.49 0 0 1-.51-.647c-.697 3.569-2.679 6.887-5.433 9.917 2.444 3.579 4.471 7.188 6.237 10.82h-.01z" fill="url(#I)"/><path d="M111.7 64.123c-4.422-.978-9.173-1.784-13.81-2.646-.839-.156-1.855-.199-2.792-.294l-.368.206c1.134.381 2.184.798 3.411 1.141l22.177 6.087 34.323 8.378 15.886-.005a429.05 429.05 0 0 1-16.072-3.258L111.7 64.123z" fill="url(#I)"/><path d="M262.93 63.164c-10.537-3.127-21.628-5.947-33.303-8.539l-23.124-5.462-26.761-6.8c-10.688-2.639-23.242-4.069-34.843-6.122-.437-.077-.987-.084-1.482-.124l-.314.157c.952.336 1.781.727 2.876.998 4.186 1.037 8.249 2.161 12.73 3.027 14.546 2.806 27.727 6.255 40.708 9.805l22.898 6.306c11.66 3.012 23.306 6.009 33.263 9.705l27.021 9.79 2.704 1.034 27.674-.017-8.314-2.164-41.738-11.591.005-.003z" fill="url(#I)"/><path d="M4.922 36.516l20.533 2.743c3.769.478 7.665.848 11.523 1.246 8.009.83 15.071 2.323 22.364 3.659 11.798 2.162 22.104 5.044 32.453 7.89l37.155 10.402c11.719 3.094 24.002 5.957 37.292 8.236 5.668.973 11.694 1.729 17.711 2.435 5.874.689 11.572 1.46 16.479 2.774a62.74 62.74 0 0 0 4.82 1.075l35.79-.017c.162-.319.182-.671.044-1.052-.549-1.549-2.419-2.922-4.755-4.233-4.157-2.335-9.81-4.203-15.783-5.992l-24.12-7.455c-7.401-2.309-14.34-4.815-22.791-6.684-5.555-1.231-11.513-2.268-17.446-3.284-18.251-3.126-35.481-6.773-51.082-11.288-2.493-.721-5.178-1.365-7.798-2.034-4.152-1.06-7.553-2.35-10.374-3.831-5.29-2.774-10.365-5.577-14.266-8.629-2.925-2.291-7.41-4.288-12.181-6.186-7.096-2.821-13.187-5.863-18.153-9.178-2.326-1.554-4.878-3.079-7.68-4.539-1.389-.722-2.665-1.46-3.838-2.209l-3.602 1.5C36.173 7.218 45.37 12.521 57.899 17.06c7.057 2.557 11.842 5.611 16.018 8.818 3.931 3.017 8.421 5.979 14.418 8.591 2.925 1.273 6.822 2.289 10.33 3.402l32.267 10.206c2.375.759 4.491 1.624 6.542 2.49a5.38 5.38 0 0 1 1.909 1.336c.422.458-.28.865-1.688.9-1.811.047-3.72.048-5.472-.094-6.895-.559-12.99-1.738-18.737-3.096l-26.638-6.482-17.427-4.055c-1.924-.455-3.735-.972-5.492-1.498-5.609-1.686-12.308-2.426-19.601-2.612-13.083-.333-25.936-1.099-38.637-2.212-2.665-.234-5.148-.567-7.499-.985 1.134 1.605 2.621 3.067 4.27 4.38l2.464.368h-.005z" fill="url(#I)"/><path d="M2.561 20.953c.824-1.065.206-2.112-.599-3.136L.137 15.56c-2.361 2.621-3.411 5.04-3.867 6.816 3.141.204 5.457-.346 6.291-1.423z" fill="url(#I)"/><path d="M-3.347 28.948c2.282.493 4.746.878 7.504 1.087 12.087.913 24.282 1.373 36.689.965 8.618-.283 16.691.251 23.512 2.177 2.964.838 5.59 1.819 8.289 2.764a71.93 71.93 0 0 0 14.158 3.433c.8.112 1.703.137 2.557.202l.388-.171c-.623-.353-1.188-.718-1.875-1.055-2.537-1.251-5.506-2.423-7.597-3.756-4.161-2.649-8.137-5.343-11.665-8.097-4.039-3.149-9.511-5.928-16.646-8.332-10.87-3.662-20.45-7.639-28.194-12.168a71.58 71.58 0 0 1-2.886-1.781l-1.634.537c-3.018.958-5.644 1.987-7.935 3.052 2.297 2.11 4.829 4.189 7.926 6.186 2.439 1.572 5.555 3.02 8.299 4.537 1.659.915 3.455 1.814 4.731 2.791 2.037 1.557.991 2.831-2.822 3.942-3.558 1.037-7.798 1.547-12.377 1.734l-9.771.289c-4.279.087-7.95-.341-11.302-1.043.088.935.309 1.838.648 2.706h.005z" fill="url(#I)"/><path d="M92.727 27.643c-3.769-1.731-7.96-3.356-10.595-5.343-3.749-2.825-8.627-5.417-13.908-7.928-5.83-2.773-10.983-5.671-14.526-8.883-2.145-1.947-4.314-3.893-6.787-5.793-1.978-1.52-3.794-3.055-5.403-4.612a96.92 96.92 0 0 1-3.2 1.733c1.605 1.34 3.401 2.657 5.379 3.957 3.003 1.973 5.418 4.052 7.989 6.099 3.789 3.014 9.025 5.723 14.772 8.328 5.521 2.505 10.041 5.203 14.085 8.017 2.351 1.637 5.653 3.121 8.691 4.636 1.963.98 3.936 1.993 6.429 2.804 3.288 1.07 6.939 2.032 10.703 2.907l31.094 7.017c6.689 1.423 13.795 2.627 20.818 3.858 13.113 2.298 25.121 5.154 36.585 8.288l24.415 6.818c6.93 1.923 14.212 3.714 20.779 5.77 5.923 1.855 11.277 3.933 16.528 6.017 4.535 1.798 8.814 3.681 12.828 5.617l8.505-.005a77.95 77.95 0 0 0-2.493-1.034l-18.167-6.873c-8.687-3.331-18.168-6.36-28.655-9.031l-23.763-6.293c-12.357-3.534-25.273-6.786-39.176-9.571l-22.266-4.241-33.94-7.268c-6.483-1.341-12.19-2.903-16.735-4.99h.015z" fill="url(#I)"/><path d="M107.018 60.406c14.114 3.81 28.37 7.544 43.368 10.947 9.255 2.1 18.712 4.065 28.792 5.637l9.413-.003-5.129-.699c-13-1.659-24.626-4.183-36.144-6.793-14.977-3.393-28.709-7.321-42.715-11.139-12.95-3.53-26.093-6.997-40.354-9.894-13.113-2.664-26.761-4.987-41.616-6.385l-12.99-1.403a63.01 63.01 0 0 0 5.624 2.522c13.933 1.244 27.05 3.219 39.697 5.559 18.285 3.383 35.732 7.246 52.049 11.651h.005z" fill="url(#I)"/><path d="M60.318 14.486c7.003 2.989 13.275 6.114 17.731 9.653 3.357 2.666 8.785 4.91 13.574 7.278 1.222.604 2.802 1.152 4.486 1.612l12.981 3.388c12.695 3.425 26.103 6.464 40.595 8.945l20.214 3.657c9.79 1.893 17.942 4.525 26.461 6.989l27.664 7.922c9.466 2.624 17.848 5.572 24.645 9.027 2.469 1.256 4.663 2.559 5.948 3.997l8.515-.005c-1.099-.746-2.424-1.457-3.853-2.146-9.604-4.641-20.528-8.877-33.979-12.275-9.693-2.448-18.889-5.097-27.958-7.8-14.252-4.244-29.877-7.766-46.975-10.547-13.938-2.266-26.653-5.209-38.995-8.348l-7.74-1.87c-6.266-1.375-10.938-3.239-15.203-5.301-4.706-2.273-8.578-4.677-12.269-7.151-3.097-2.074-6.895-4.059-11.047-5.91C57.609 12.255 51.46 8.676 46.66 4.798c-2.238-1.809-5.045-3.542-7.798-5.271-.898-.565-1.732-1.137-2.518-1.716l-2.105 1.013a40.38 40.38 0 0 0 1.727 1.124c3.538 2.176 7.15 4.346 10.262 6.594 3.911 2.821 8.387 5.51 14.094 7.945l-.005-.002z" fill="url(#I)"/><path d="M81.406 51.365l44.781 12.153c14.398 3.856 29.347 7.49 45.939 10.221 4.991.821 10.203 1.498 15.395 2.164 2.444.314 4.814.664 7.081 1.08l4.78-.002c-4.387-1.023-9.113-1.809-14.212-2.378-8.676-.967-16.995-2.234-24.778-3.86-17.225-3.599-33.543-7.617-48.854-12.129-13.324-3.927-27.075-7.698-41.719-11.037-12.838-2.928-26.51-5.34-41.488-6.84-7.562-.758-14.924-1.761-22.285-2.734l-1.281-.17c.702.47 1.413.915 2.125 1.333l4.888.589 26.059 3.094c15.532 2.214 30.088 5.037 43.564 8.519l.005-.002z" fill="url(#I)"/><path d="M386.103 32.4c-3.994-2.706-7.969-5.415-10.345-8.352-1.963-2.428-2.684-4.927-3.175-7.425-.466-2.371-.51-4.751-.814-7.126-.285-2.243-.467-4.492-1.051-6.726-.78-3-3.587-5.813-8.014-8.414-6.124-3.601-12.043-7.251-18.761-10.72-4.996-2.579-10.929-4.962-16.798-7.33-2.621-1.059-4.957-2.162-7.057-3.305h-4.687c2.65 1.527 5.673 2.987 9.138 4.37 5.305 2.117 10.497 4.283 15.164 6.564 7.067 3.452 12.072 7.31 17.564 11.066 3.72 2.544 6.385 5.218 7.14 8.059.673 2.53 1.075 5.072 1.419 7.611.373 2.763.417 5.532.839 8.295.319 2.114 1.06 4.218 3.082 6.24 3.911 3.907 10.001 7.419 16.999 10.753 4.981 2.375 11.371 4.119 19.022 5.266l.903-1.452c-8.961-1.599-15.719-4.092-20.568-7.377v.002z" fill="url(#I)"/><path d="M75.256 75.59c-5.04-1.039-9.967-2.141-14.664-3.346.24.699.393 1.329.486 1.885 4.392 1.017 8.981 1.942 13.579 2.855l7.234.007-6.635-1.4z" fill="url(#I)"/><path d="M389.338 27.403c-3.244-2.79-5.831-5.644-6.768-8.638-.677-2.157-1.143-4.321-1.551-6.487-.515-2.741-.912-5.484-1.285-8.228-.422-3.112-1.905-6.146-6.365-8.904-2.601-1.607-5.61-3.141-8.594-4.672-10.345-5.313-21.014-10.542-33.174-15.406-1.669-.669-3.249-1.358-4.731-2.069h-3.617c1.948.998 4.093 1.963 6.458 2.885 12.259 4.778 22.398 10.057 32.1 15.449 4.083 2.268 8.279 4.505 10.62 7.072 1.595 1.746 2.508 3.534 2.734 5.36l1.413 11.69c.81 6.418 6.483 12.355 15.523 17.943 3.764 2.326 8.961 4.034 15.252 5.264l.839-1.348c-6.208-1.425-11.042-3.393-14.305-5.975-1.639-1.294-3.028-2.626-4.554-3.938l.005.002z" fill="url(#I)"/></g><path d="M96 11.256c3.368-.332 4.444-3.643 4.561-5.256-.092 2.456 2.235 5.148 4.506 5.274-3.219.122-4.434 3.811-4.552 4.907.001.05-.002.089-.009.114l.009-.114c-.025-.84-1.292-4.925-4.515-4.925z" fill="url(#J)"/><path d="M298.285 52.517c2.273-.032 3.181-2.186 3.35-3.259-.201 1.639 1.204 3.571 2.717 3.785-2.161-.101-3.183 2.299-3.325 3.025-.001.034-.006.059-.012.076l.012-.076c.032-.564-.585-3.369-2.742-3.551z" fill="url(#K)"/><g filter="url(#B)"><path fill="#cd9c44" fill-opacity=".3" d="M85 49h247v44H85z"/></g></g><defs><filter id="B" x="35" y="-1" width="347" height="144" filterUnits="userSpaceOnUse" color-interpolation-filters="sRGB"><feFlood flood-opacity="0"/><feBlend in="SourceGraphic"/><feGaussianBlur stdDeviation="25"/></filter><linearGradient id="C" x1="41.5" y1="18" x2="41.5" y2="40.941" href="#L"><stop stop-color="#ab750f"/><stop offset=".516" stop-color="#d8a956"/><stop offset="1" stop-color="#ab750f"/></linearGradient><linearGradient id="D" x1="68.5" y1="18" x2="68.5" y2="40.941" href="#L"><stop stop-color="#ab750f"/><stop offset=".516" stop-color="#d8a956"/><stop offset="1" stop-color="#ab750f"/></linearGradient><linearGradient id="E" x1="22" y1="29" x2="22" y2="65" href="#L"><stop stop-color="#ab750f"/><stop offset=".516" stop-color="#d8a956"/><stop offset="1" stop-color="#ab750f"/></linearGradient><linearGradient id="F" x1="374.5" y1="18" x2="374.5" y2="40.941" href="#L"><stop stop-color="#ab750f"/><stop offset=".516" stop-color="#d8a956"/><stop offset="1" stop-color="#ab750f"/></linearGradient><linearGradient id="G" x1="347.5" y1="18" x2="347.5" y2="40.941" href="#L"><stop stop-color="#ab750f"/><stop offset=".516" stop-color="#d8a956"/><stop offset="1" stop-color="#ab750f"/></linearGradient><linearGradient id="H" x1="394" y1="29" x2="394" y2="65" href="#L"><stop stop-color="#ab750f"/><stop offset=".516" stop-color="#d8a956"/><stop offset="1" stop-color="#ab750f"/></linearGradient><linearGradient id="I" x1="51.164" y1="56.967" x2="66.935" y2="-32.882" href="#L"><stop stop-color="#fff" stop-opacity="0"/><stop offset="1" stop-color="#fff"/></linearGradient><linearGradient id="J" x1="95.576" y1="11.148" x2="105.233" y2="11.148" href="#L"><stop stop-color="#ab750f"/><stop offset=".516" stop-color="#d8a956"/><stop offset="1" stop-color="#ab750f"/></linearGradient><linearGradient id="K" x1="298.008" y1="52.421" x2="304.47" y2="52.968" href="#L"><stop stop-color="#ab750f"/><stop offset=".516" stop-color="#d8a956"/><stop offset="1" stop-color="#ab750f"/></linearGradient><linearGradient id="L" gradientUnits="userSpaceOnUse"/></defs></svg>