<svg xmlns="http://www.w3.org/2000/svg" width="361" height="234" fill="none" xmlns:v="https://vecta.io/nano"><g clip-path="url(#K)"><path d="M0 0v234h187.286l7.681-9.211h92.182l7.682 9.211H361V0H173.714l-7.681 9.211H73.851L66.169 0H0z" fill="#f5f1ee"/><path fill-rule="evenodd" d="M194.031 222.789h94.054l7.682 9.211H359V2H174.651l-7.682 9.211H72.915L65.233 2H2v230h184.349l7.682-9.211zM187.286 234H0V0h66.169l7.682 9.211h92.182L173.714 0H361v234h-66.169l-7.682-9.211h-92.182L187.286 234z" fill="url(#D)"/><mask id="A" maskUnits="userSpaceOnUse" x="0" y="0" width="361" height="234" mask-type="alpha"><mask id="B" fill="#fff"><path d="M0 0v234h187.286l7.681-9.211h92.182l7.682 9.211H361V0H173.714l-7.681 9.211H73.851L66.169 0H0z"/></mask><path d="M0 0V234H187.286L194.967 224.789H287.149L294.831 234H361V0H173.714L166.033 9.21139H73.8511L66.1693 0H0Z" fill="#f5f1ee" stroke="url(#D)" stroke-width="4" mask="url(#B)"/></mask><g mask="url(#A)"><g opacity=".1"><path d="M-23.879-53L-220 208.573h98.09L74.27-53h-98.149z" fill="url(#E)"/><path d="M96.009-53l-196.12 261.573h45.775L141.843-53H96.009z" fill="url(#E)"/></g><g opacity=".1"><path d="M330.451 260.067l96.392-128.561h-48.211l-96.42 128.561h48.239z" fill="url(#F)"/><path d="M271.527 260.067l96.392-128.561h-22.498L249 260.067h22.527z" fill="url(#F)"/></g><g opacity=".35"><path d="M282.791 84.624c-.483-.531-1.29-.29-1.898-.535-.879-.357-.875-.543.111-1.273l.048-.012c.208.266.522.341.884.341.053.131.164.182.333.151.184.294.512.397.874.452l-.024-.016-.241.908-.087-.012v-.004zm-53.393-3.902l-.609.143-1.169.016-.671-.107c-.164-.337-.213-.674-.024-1.015l1.893-.083a1.12 1.12 0 0 0 .584.044.41.41 0 0 0 .43.111l.218.464-.657.428h.005zm-8.443-42.31c.748-.202 1.246.238 1.826.476v.008l-.015.496a5.54 5.54 0 0 1-.584.067l-.657.075-.56.353-.541-.016-.169-.46-.15-.523c.106-.079.212-.075.309.012.324-.056.454-.25.536-.484l.005-.004zm27.751 117.218c.261.67.107 1.11-.898 1.059l-1.468-.111.014.011c-.096-.483.541-.59.725-.931.183.079.338.051.459-.088l1.188.072-.02-.012zm-76.663-34.962c.41-.646.83-.515 1.251-.012.058.262.275.401.57.48-.02.322.014.762-.421.821-.69.099-.7-.432-.816-.813-.063-.265-.285-.4-.579-.476h-.005zm-58.639-3.232h.029c-.86.496-1.676.674-2.333-.226l-.019.016c.545-.23 1.038-.615 1.738-.397l-.086-.063.666.67h.005zm156.148-83.545c-.14-.103-.266-.222-.42-.305-.454-.246-.671-.587-.314-.948.377-.377.821-.182 1.198.083l.439.289-.009-.016c-.058.452-.604.591-.875.908l-.024-.012h.005zm-6.931 42.457l-.033-.523c.478-.063 1.009-.032 1.275-.476.386.02.884.032.946.385.097.559-.57.52-.995.646l-1.193-.036v.004zM222.834 178.1v-.643l1.149-.174.575.979.014-.016-1.159.425.044.059-.619-.63h-.004zM252.209 8.324l-.184-.012c-.401-.44-.362-.912-.159-1.396l-.068.059a3.07 3.07 0 0 1 1.724.012l-.096-.059c-.01.694-.546 1.083-1.217 1.392v.004zm-102.441 41.45c1.159-.107 2.318-.242 3.448.147v.127c-1.178.131-2.41.758-3.448-.274zM13.61 124.523l-.749.008c-.309-.444-.309-.904-.092-1.372l-.072.051 1.063.028-.067-.051c.217.452.193.9-.082 1.332v.004zM34.403 88.07c.183-.194.338-.409.551-.575.299-.234.705-.428 1.009-.067.275.325-.024.591-.391.765l-1.164-.123h-.005zm202.258 43.909c-.367 1.348-.657 1.515-1.792 1.019l.599-.524v.004l.585-.503.009-.008.604.012h-.005zm-98.48 82.415l-1.598-.258.019.028.56-.889.812.028a1.02 1.02 0 0 0 .28.393l-.073.702v-.004zm201.698-105.079l-2.275-.016c-.077-.266-.014-.46.372-.488.507-.024 1.092.111 1.323-.448l.604.016-.029-.024.005.964v-.004zM93.583 193.026c-.126.631-.773.429-1.236.52l-.638.123-.087-.151.15-.115a.34.34 0 0 1-.019-.321c.126-.559.666-.476 1.145-.488.154.226.333.42.691.428l-.005.004zM91.931 22.2h.246l.773.452c-.092.853-.464 1.162-1.362.472l.343-.924zm57.836 183.981v-.159l1.13-.262c.112.103.247.147.416.135l.299.948-1.241-.024-.599-.638h-.005zm5.439-57.447h.483l.667.468v.008l.522.705.009.064-1.144.242-.02-.016c-.067-.262-.256-.428-.579-.496l.062-.975zm-45.893-66.493c-.362-.159-.637-.381-.41-.722.159-.246.483-.194.758-.087l.763.325.034.492c-.382 0-.763 0-1.145-.004v-.004zm80.113-37.551c-.092-.127-.276-.266-.252-.373.068-.274.353-.361.628-.206.111.063.184.313.121.405-.072.103-.324.119-.497.174zm-16.585 31.65c.029-.27.207-.44.541-.4.318.04.483.242.391.492a.57.57 0 0 1-.367.282c-.338.064-.512-.115-.565-.373zm180.948 53.132a.7.7 0 0 1-.57.044.66.66 0 0 1-.401-.032c-.097.087-.212.103-.338.052.324-.29.174-.627.145-.952l1.188-.052-.015.936-.009.004zm-195.009-4.929c.053-.369.087-.801.715-.722.396.052.44.413.464.71l-1.179.012zm190.788-21.617l.005-.496c.43.012.57-.218.642-.503l.565.027.053.964c-.415.619-.84.071-1.265.008zm-5.008-1.943c-.131.091-.261.265-.392.265-.352 0-.502-.218-.367-.468.053-.095.343-.182.483-.15.121.027.184.23.271.357l.005-.004zm-8.419-46.958c-.087-.123-.266-.262-.241-.369.067-.266.342-.353.613-.202.106.059.174.305.111.397-.072.099-.314.119-.483.175zm-9.5 58.272l1.202-.028c-.053.381-.019.876-.719.789-.421-.051-.459-.448-.483-.761zM136.916 23.013c-.102-.119-.3-.242-.29-.349.034-.282.304-.393.604-.258a.4.4 0 0 1 .169.408c-.053.103-.314.135-.483.198zm169.112 77.775c-.102-.119-.295-.242-.281-.349.044-.273.314-.384.604-.261.116.051.203.301.15.404s-.309.139-.473.206zm-2.285-58.43c.396.024.893.052.941.413.083.591-.531.539-1.014.563l.068-.98.005.004zm-2.073 157.958c-.058.107-.087.297-.202.349-.261.119-.527.031-.604-.207-.034-.103.072-.313.188-.361.251-.103.502-.047.618.219zM129.676 43.337c.256-.484.768-.512 1.309-.48-.102.761-.396 1.182-1.309.48zm-1.715 117.694c.396-.004.893.016.966.357.12.551-.459.591-.952.627l-.014-.988v.004zm155.23-143.887l.029-.143-.024-.143 1.169-.127.01.008.55.599a.36.36 0 0 0 0 .266l-1.164.119-.57-.583v.004zm-4.771 215.801c-.517.044-.99.008-1.27-.424l.69-.548 1.039-.012c.053.159.082.322.082.484l-.015.016-.521.484h-.005zm-6.729-197c-.391-.436-.792-.872-.589-1.467h.551l.628.504-.015-.012-.053.968c-.174-.008-.353 0-.527.012l.005-.004zM114.684 16.736l1.202.016c-.024.313-.057.714-.473.765-.691.091-.666-.404-.729-.781zm152.24 1.986c.382.028.884.032.932.393.078.563-.526.543-1.004.575l.067-.972.005.004zM110.468 132.895l-.005 1.051-1.198-.032.034-.833 1.173-.186h-.004zm152.791-57.551c-.522.004-1-.059-1.251-.496.99-.789 1.12-.143 1.251.496zm-157.564 2.764v-.611l1.121-.135-.039-.032.024.96.024-.02-1.13-.163zm149.696 86.354c.068-.365.083-.928.681-.782.657.163.353.556-.087.801l-.594-.023v.004zM102.155 99.44c.111-.107.203-.285.334-.313.357-.067.565.123.541.393-.025.278-.31.389-.604.297-.131-.04-.184-.246-.271-.377zm-.71 51.423c.116.107.324.214.324.322 0 .289-.271.404-.575.297-.116-.044-.222-.282-.183-.393.033-.099.284-.15.434-.222v-.004zm146.277-13.959c.082-.25.299-.369.579-.286.116.036.242.234.232.349-.029.258-.29.357-.565.282-.116-.032-.164-.226-.246-.345zM95.451 101.256c-.154-.055-.391-.075-.459-.17-.145-.218-.044-.44.261-.5.135-.028.396.06.459.159.145.218.019.408-.266.515l.005-.004zm144.137 73.052l-1.193.032.256-.956a.57.57 0 0 0 .44-.111l.589.072-.092.963zM92.935 69.436l.044-.979h1.135v.971l-1.174.012-.005-.004zm145.026 64.506c-.058.432-.082.872-.705 1.051l-.058-.056-.531-.504.009-.23v-.23l.643-.507.642.476zM92.249 53.22l.092.944c-.386.004-.908.028-1-.297-.154-.535.415-.599.908-.65v.004zm-2.497 51.181c-.13.095-.261.27-.391.27-.357 0-.507-.218-.372-.472.053-.099.348-.183.493-.155.121.024.183.23.27.357zm-7.655-77.363c.034-.309.005-.73.444-.773.667-.067.681.424.749.813l-1.193-.036v-.004zm-.831-6.404l-.826.012-.174-.948 1.178.004-.174.932h-.005zm-2.207 158.064c.488.052 1.14-.135 1.193.548l.01-.008-.85.444h-.126l-.58-.865c.159.044.275 0 .353-.119zm-.086-85.1l.082.948c-.386 0-.908.024-1-.301-.15-.535.425-.595.913-.646h.005zm-3.551 9.328c.072-.369.068-.94.686-.794.662.159.367.564-.058.833l-.628-.035v-.004zM50.037 220.053l-.623.503c-.256.183-.575.167-.787-.008-.454-.364.082-.567.29-.761.309-.29.729-.091 1.106-.044a.39.39 0 0 0 .015.314v-.004zM159.437.611c1.068-.341 1.386-.024 1.092.829l.024-.012a4.04 4.04 0 0 0-.58.052h-.009l-.565-.567.086-.143-.043-.155-.005-.004zm107.435 228.42l1.179-.024c.024.381-.073.718-.493.944l-.7-.492.019-.214v-.214h-.005zM265.476 21.11c-.329-.052-.812.178-.932-.234-.044-.159.236-.377.367-.567v-.063l.666.642c-.116.052-.15.123-.101.222zm-.995 3.517c.459-.024.845.099 1.135.401l-.565.579a2.2 2.2 0 0 0-.512-.024l-.058-.956zM147.309 12.833c.343-.008.797-.071.816.313.015.325-.362.468-.758.488l-.058-.801zm98.978 166.908l.667-.095a1.28 1.28 0 0 0 .487.135l.073.404-.715.516c-.101-.036-.208-.036-.314-.008l-.198-.952zm-110.439-11.817l-.637.515-.609-.511.01-.008.589-.488.014-.012.609.008.024.488v.008zm89.328 46.783c.459.198.797.496.295.837-.309.206-.667-.044-.874-.321l.579-.52v.004zm-103.812-70.443c-.024-.412-.256-.904.579-.975l.015.008.565.543v.393l-1.174.016.015.019v-.004zm-.687-133.794c.155.246.652.412.329.765-.073.083-.411.099-.541.036-.435-.222-.189-.547-.116-.837a.29.29 0 0 0 .328.036zm-1.791 200.299c.512-.056.923.067 1.213.428l-.628.551a2.57 2.57 0 0 0-.464-.008l-.121-.967v-.004zm-1.782-81.733c.067-.222.072-.599.217-.639.614-.17.768.278.985.611l-1.202.028zM11.432 54.66c.213-.313.546-.551.913-.254s.082.567-.304.745l-.609-.492zm100.977-43.473c.464-.52 1.019-.369 1.589-.147l.024.048c-.521.377-1.082.333-1.652.079l.044.02h-.005zM331.49 68.452l.609-.008.57.508c-.222.456-.696.488-1.198.48l.019-.98zm-3.704-28.394l.019.206-.608.599c-.15-.024-.304-.028-.454-.012l-.116-.964v-.004l1.159.178v-.004zm-22.271 97.774c-.015-.345.096-.65.406-.892l.743.571-.014.214-1.135.103v.004zm-121.663 41.683c-.077-.127-.237-.265-.213-.372.058-.262.324-.353.604-.227.087.04.13.286.068.369-.087.111-.3.159-.459.234v-.004zM79.677 94.551l.584-.535.633.04-.058.98c-.483-.012-.937-.059-1.159-.484zM10.176 73.877l.155-.96c.116.032.237.032.353-.004l.729.519a1.77 1.77 0 0 0-.005.349l-1.193.119-.039-.024zm69.506 32.487a1.51 1.51 0 0 1-.005.488c-.382 0-.56.166-.565.472l-.256.178a1.25 1.25 0 0 0-.396-.135l.048-.864 1.169-.147.01.012-.005-.004zm97.852-72.382l.55-.008.589.523-.024-.016-.014.226.009.226h.034l-1.188.016.044-.975v.008zM77.205 165.477c.237.309.705.519.638.963-.869.069-1.235-.245-1.096-.943a.87.87 0 0 0 .459-.02zm97.306-13.912c-.164-.067-.411-.099-.469-.206-.053-.099.087-.27.145-.412.165.079.363.13.479.241.173.159.096.306-.155.377zm111.053 1.067l.671.531-.044.484h-.627l-.595-.476-.019-.016.618-.523h-.004zm-1.218-140.81l-.662.948a.47.47 0 0 0-.367-.008l-.169-.948 1.203.024-.01-.012.005-.004zM169.054 205.356c.396.242.782.551.193.861-.338.178-.681-.08-.821-.397l.628-.464zM19.198 66.457a1.94 1.94 0 0 0-.502.016l-.56-.69.55-.341.594.056v-.004l-.082.964zm144.427 21.201c.376.174.647.444.304.738-.348.297-.686.071-.918-.214l.614-.523zM50.631 76.344l.092-.983c.642.369.739.706-.092.983zm.71 103.877c0-.265.082-.535.483-.456.483.092.275.322.063.516-.179-.032-.362-.052-.546-.06zm296.44-80.233l1.183-.012a2.09 2.09 0 0 1 .005.487h-.642a1.7 1.7 0 0 1-.546-.047v-.214-.215zm-4.835-1.995l-.024.979c-.174 0-.348 0-.521-.008l-.058-.972h.603zm-1.237-45.788l.024.979h-.627l.086-.976.522-.008-.005.004zM57.305 26.059l-1.203.067.01-.531 1.193.064a2.76 2.76 0 0 0 0 .401zM337 89.819l1.126-.218c.053 1.142-.691.341-1.121.309v-.091H337zm-1.946 36.258l-.217.893-.073.027-.222-.916h.517l-.005-.004zm-8.37-.658c.444-.241.898-.527 1.159.151l-1.159-.151zm-4.25-95.839c.493-.028.966-.028 1.159.448-.473 0-.932-.028-1.159-.448zm-4.328 41.355l.092.964h-.647l.101-.975c.15.012.3.016.454.012zm-3.559 24.603l.01.98h-.609l.034-.98h.56.005zm-7.23 50.193c.439-.527.85-.642 1.203.056l-1.203-.056zm-2.502-82.676c-.029.357-.266.555-.696.488-.285-.044-.401-.262-.396-.5l1.092.012zm-5.284 170.842c.111-.432.381-.702.879-.341.183.135-.111.353-.348.444-.169-.06-.348-.095-.531-.103zm-.773-125.034l.083.947-.633.008.135-.971c.135.016.275.019.415.016zm-7.148-41.89l-.102.944-.405.02-.126-.968h.638l-.005.004zm-1.841-4.422l.039.976a7.54 7.54 0 0 1-.599-.004l.058-.968h.502v-.004zm-2.989 16.24l1.203.004v.464l-1.198.016v-.242-.242h-.005zm.609 75.84l.024.503-1.232-.012a.95.95 0 0 1 .063-.476l1.15-.015h-.005zm-4.83 2.47l1.203-.012c-.391.567-.797.56-1.203.012zm-1.179-97.524l-.164.944c-.111-.012-.222-.008-.333.02l-.193-.96.69-.004zm-7.283-18.71l1.198.016c-.41.531-.811.547-1.198-.016zm1.183 161.546c-.072.69-.633.547-1.164.452.053-.293.304-.436.604-.551l.579.107-.014-.012-.005.004zM65.052 26.392l-1.087.198c.106-.749.647-.377 1.082-.282v.083h.005zm203.066 88.356l-1.237-.048c.445-.523.855-.511 1.237.048zm-.875 112.844c.082.365.493.825-.391.916v-.004l.237-.936.154.024zm-6.989-202.897l1.174-.095.014.012.025.504-.039.036-1.188-.119a1.59 1.59 0 0 0 .019-.337h-.005zM67.013 181.705l-.034-.976h.633l-.072.976h-.526zM256.575 1.436l1.179.111a.89.89 0 0 0 .019.341l-1.193.099-.01-.555.005.004zm-.58 225.12l1.164.04a3.59 3.59 0 0 0 .024.388l-1.207.104.019-.536v.004zm-1.213-163.033l-.009.984c-.189 0-.377 0-.566-.004l-.029-.976h.604v-.004zm-10.258-23.616h1.184c-.397.579-.788.579-1.184 0zm-1.14 3.894l-.13-.452c-.082-.27.12-.42.343-.567.13.186.304.365.376.563.049.135-.043.301-.077.452-.174-.02-.343-.02-.517 0l.005.004zm-.072-32.978l-.049.975-.632-.472c.12-.266.333-.444.681-.504zm-8.467 89.636v.98h-.57l-.015-.98h.59-.005zm-1.807 81.249l1.193.04-.009.369-1.179.087-.01-.496h.005zM71.22 157.601l-1.203-.044c.43-.551.836-.618 1.203.044zm-.405-6l-.169-.901h.526l-.198.924-.154-.023h-.005zm159.91-115.453l.512-.19c.333-.131.613.048.613.238s-.275.365-.608.226l-.512-.19v-.083h-.005zm-.58 64.466l1.082-.155c.02.163 0 .322-.063.48-.396.012-.743-.083-1.019-.325zm-.739-50.876l-.019.972c-.164 0-.333-.004-.497-.004l-.029-.96a4.93 4.93 0 0 1 .541-.004l.004-.004zm-1.197 147.746c.198-.488.695-.476 1.188-.476l-.01-.008.015.424-1.193.06zm.58 17.235l.014.975h-.594l.039-.979h.536l.005.004zm-2.382-96.517l1.198-.016c-.386.626-.787.622-1.198.016zm-1.705.44c.126-.528.59-.543 1.101-.48-.101.571-.627.488-1.101.48zm-1.323-76.292c.397-.619.802-.603 1.208-.008l-1.208.008zm.59-42.35c-.189.492-.672.488-1.169.452.236-.412.686-.456 1.169-.452zm-11.413 128.124c.342-.012.941-.266.961.067.038.627-.614.191-.961.242v-.154-.155zm-2.44-63.087l1.183-.032c-.367.682-.768.579-1.183.032zm-4.298 40.363l.048.972h-.609l.044-.976.517.004zM198.621 3.934l-.019.98c-.184 0-.362 0-.541-.004l-.058-.976h.618zm-1.207 47.771l1.203.004v.468l-1.208.028v-.5h.005zm-2.028 72.973l.198.892c-.174 0-.343-.004-.517-.008l.183-.92.136.036zM192.589 3.914c.376-.627.777-.539 1.188-.028l-1.188.028zm-.019 155.154l.014.98h-.608l.014-.984h.58v.004zm-2.41.964l1.121.043c-.401.528-.783.627-1.121-.043zM187.774 2.015l1.193-.071-.01.504-1.179-.075.01-.178-.01-.182-.004.004zm-1.231 159.036c.333-.71.748-.543 1.197-.079l-1.197.079zm-.03-34.481c.043.297.082.741-.324.725-.333-.012-.309-.484-.266-.785.194.036.392.056.59.063v-.003zm-2.386 3.434c.367-.595.773-.528 1.193-.04l-1.193.04zm1.212 25.61l-.014.98c-.179 0-.358 0-.536-.008l-.078-.976h.628v.004zM182.413 31.73l1.096-.198-.009-.012.024.242v.246c-.44.099-.783-.091-1.14-.238l.029-.04zm-7.366 3.2l-1.207.036c.381-.539.782-.563 1.207-.036zm-.082 120.716c-.392.571-.764.595-1.102-.032l1.102.032zm-1.111-134.968c-.198.012-.391.012-.589 0l.048-.976.604.492-.068.48.005.004zm-3.516 77.045c.435-.107.985-.535 1.087.266l.014-.012-1.125-.218.024-.036zm.444-68.65l.048.96a2.85 2.85 0 0 1-.584 0l.087-.968h.449v.008zm-1.067 91.631l1.125-.044.015.52c-.551.119-1.024.111-1.14-.472v-.004zm1.12 54.612l-.009.975h-.556l-.043-.983.603.004.005.004zm-.671-106.84l.087.96h-.614l.107-.964c.14.012.28.012.425.004h-.005z" fill="#ab750f"/><path d="M169.063 3.926l-.096.968a3.98 3.98 0 0 0-.435 0l-.116-.964.01-.008.613-.016.024.016v.004zm-.024 3.962l-1.188-.028c.174-.519.652-.535 1.178-.468l.01.496zm-.599 195.949l-.058 1.007a9.52 9.52 0 0 0-.478 0l-.053-.963.589-.044zm-3.627-152.156c.41-.52.811-.547 1.198.016l-1.198-.016zm1.202 62.567l-1.246-.06c.019-.126.019-.249 0-.376l1.246-.06v.496zm-2.42-70.919l1.193.036v.404l-1.193.063v-.504zm.005 113.276l1.198.008v.437l-1.188.019v-.23-.23l-.01-.004zm-.603 55.643l-.015.984h-.574l-.01-.98h.599v-.004zM159.35 58.605l-.092.94a3.21 3.21 0 0 0-.435.028l-.125-.98.652.012zM82.087 65.01l-1.145-.103c.44-.385.845-.531 1.145.103zm63.454 31.119l1.155-.107v.004l.004.496v.004l-1.178-.123.024-.135v-.139h-.005zm-.671-39.499l.01.98h-.585l.02-.976h.56l-.005-.004zm-3.569 148.777c.541.171.633.52.57.936l-.667.012.111-.983-.014.035zM83.889 88.15l.087-.96c.14.012.275.012.415-.004l.13.968-.019.012c-.203 0-.411-.008-.613-.012v-.004zm55.562-51.729c.416-.527.816-.559 1.203.02l-1.203-.02zm-54.92-3.938l-.053-.976c.763.297.7.626.053.976zm.227-4.513c-.053-.226-.183-.464-.135-.674.058-.234.353-.23.396.008.039.21-.111.444-.174.666h-.082-.005zm49.916 19.385l1.16-.099.009.012-.024.496c-.468.024-.893-.032-1.14-.408h-.005zm.517-3.03l-.014.964h-.498l-.034-.968c.184-.012.363-.008.546 0v.004zm.044 101.926l-.082.92c-.512-.174-.609-.523-.58-.924l.662.004zm-4.917-104.865c.053.297.116.773-.241.769-.367-.004-.285-.472-.222-.769h.468-.005zm-4.11 24.663l1.173-.095c-.318.642-.724.563-1.173.095zm-1.261 82.169l1.188.044c-.425.503-.821.535-1.188-.044zm-3.598-70.482c.454-.424.889-.646 1.193.103l-1.193-.103zm-2.033 38.063c.183.376.55.809-.372.876l.019.02.208-.912.14.016h.005zm-5.864 79.222l.025.976c-.706-.313-.691-.639-.025-.976zm-1.989-81.194l.159.449c.121.297-.053.412-.382.364-.246-.035-.27-.19-.154-.372.087-.135.121-.294.179-.445h.193l.005.004zm-1.01-31.582l.024.5-.628.127-.541-.631 1.145.004zM97.152 186.59c-.382.048-.99.087-.99-.198s.609-.242.99-.194v.392zm-2.401-1.915c-.053.246.179.634-.391.618-.073 0-.126-.4-.188-.618a4.67 4.67 0 0 1 .579 0zm-3.622-43.861l1.188.076c-.444.483-.855.618-1.188-.076zm.029 29.124l1.178-.024a2.54 2.54 0 0 1 0 .468h-1.188v-.222-.222h.01zm-2.956-70.803l1.116-.147c-.087.754-.662.381-1.106.317l-.01-.167v-.004zm-86.43 46.14l-1.198-.031v-.409l1.188-.047a2.83 2.83 0 0 1 0 .487h.01zM2.98 90.609l-1.169-.067-.014-.357 1.188-.079v.504H2.98zm15.093-4.926l-1.169-.063-.014-.349 1.183-.087.01.008-.014.496.005-.004zm5.395-8.871c-.594-.345-.681-.674.053-.976l-.053.976zm2.463 12.337l-1.154-.123v-.143l-.024-.139 1.178-.131v.535zm1.121 17.58l-1.12.123.01-.428 1.14.111-.029.194zm.657-41.739c-.638-.337-.662-.662.029-.976l-.029.976zm.608 49.266c-.048.722-.642.527-1.159.46l.015.016c0-.155.019-.306.068-.452l1.077-.024zm2.994-90.707l-1.174.115.01-.531 1.174.111a.79.79 0 0 0-.014.301l.005.004zm3.092-17.652l-.015-.972.56.004-.014.96-.531.008zm5.989 122.108l-1.096-.131-.034-.171 1.159-.178.01.012a3.22 3.22 0 0 1-.053.48l.015-.016v.004zm.555-98.587l-1.125.115v-.23-.23l1.169.087c-.048.079-.063.167-.043.254v.004zm4.255 2.526l-1.169.083c.324-.638.729-.547 1.169-.083zm.619 51.288c-.053.71-.609.595-1.169.472.169-.519.681-.48 1.169-.472zM361 97.521c-.058.118-.092.328-.174.344-.338.063-.357-.15-.352-.352l.526.008zm-7.182 44.3c-.005.333-.213.504-.623.508.048-.298.256-.468.623-.508zm-4.231-23.144c-.014-.214 0-.436.358-.372.087.016.125.234.183.361l-.541.011zm-4.241 36.433c-.41.016-.613-.138-.594-.475.362.023.56.182.594.475zm-1.859-94.526c.048.151.063.305.038.46-.376-.008-.584-.155-.57-.476l.532.012v.004zm-10.775 81.721c.015-.194 0-.432.353-.365.087.016.116.238.169.365a3.79 3.79 0 0 1-.522 0zm-3.038-7.872c.034.365-.183.528-.623.504.034-.31.246-.476.623-.504zm-.623-71.894c-.333-.056-.526-.218-.594-.488.324.059.522.226.594.488zm-.005 15.268c.01.226.01.476-.381.408-.092-.016-.126-.262-.184-.4l.565-.008zm-7.274 41.374c-.057.135-.086.369-.173.385-.372.067-.372-.175-.377-.389h.55v.004zM316.967 9.847c-.073.266-.271.428-.599.488.077-.262.275-.424.599-.488zm-6.602-2.967c.183-.423.362-.415.541 0h-.541zM298.86 87.658h.599v.492c-.189 0-.372 0-.561-.008a1.73 1.73 0 0 1-.019-.476h-.024l.005-.008zM287.423 3.429l.265-.352.266.352h-.527-.004zm-.059 152.189v-.519c.435-.012.623.162.594.507l-.589.016-.005-.004zm-.593-78.786c.009.159 0 .313-.029.468l-.536.004c.043-.274.236-.428.57-.476l-.005.004zm-4.246-35.953c-.058.139-.087.381-.174.397-.386.071-.376-.182-.381-.397h.555zm-1.797-26.566c.014.151.024.305.019.46-.42.012-.618-.155-.603-.496a2.87 2.87 0 0 1 .584.036zm-3.027 57.098c-.058.266-.247.42-.575.468.072-.254.266-.409.575-.468zm-7.792-53.697c.005-.19.02-.403.348-.34.082.016.116.221.169.336a4.44 4.44 0 0 1-.512.004h-.005zm-8.494 10.34c-.382-.008-.595-.159-.604-.48.348.036.55.194.604.48zm-2.406 116.726l.251-.385.28.365-.531.02zm-8.423-84.221c0-.186.024-.387.333-.332.082.016.116.209.174.32a4.29 4.29 0 0 1-.507.008v.004zm-.034 42.363h.604v.492c-.193 0-.382 0-.57-.004-.034-.163-.039-.322-.029-.484l-.005-.004zm-.546 37.407c.058-.119.091-.324.178-.34.334-.059.363.146.348.352-.179 0-.353 0-.531-.012h.005zm-6.694-48.23c.415-.02.623.139.604.484-.203 0-.397-.016-.585-.063a3.17 3.17 0 0 1-.014-.424l-.005.004zm-.618 46.28c-.058.278-.256.444-.599.492.082-.262.275-.428.599-.492zM238.501 12.79l.261-.381.266.373-.527.004v.004zm.566 109.833c-.01.314-.208.472-.59.484 0-.158.02-.317.068-.476l.527-.012-.005.004zm-1.822 28.51c-.14-.044-.391-.068-.406-.131-.072-.262.194-.254.411-.266a1.92 1.92 0 0 1 0 .401l-.005-.004zm.021 46.827c-.387-.012-.604-.171-.619-.492.348.043.561.206.619.492zm-1.822-156.102l-.3.539c-.241-.127-.338-.305-.275-.535h.575v-.004zm-3.603 112.293c.391 0 .623.139.604.484l-.551-.02c-.062-.155-.077-.31-.038-.472l-.015.008zm-1.855-61.564c0 .198-.038.395-.352.328-.087-.016-.116-.213-.174-.324.174-.012.348-.012.521 0l.005-.004zm-3.048 26.602c-.057.119-.091.328-.178.344-.338.059-.338-.162-.343-.356l.517.012h.004zm-1.168-39.407c-.058.135-.092.377-.184.393-.382.071-.391-.174-.391-.397l.575.004zm-2.425 51.217c0 .206 0 .444-.362.377-.087-.016-.116-.246-.169-.377a3.92 3.92 0 0 1 .531 0zm-15.011 33.958c.053-.123.082-.341.164-.357.348-.063.338.167.348.357-.169.012-.343.012-.512 0zm-3.622-151.648a4.16 4.16 0 0 1 .546-.012c.019.345-.165.527-.604.5a1.85 1.85 0 0 1 .058-.488zm-2.478 44.313c.009.159 0 .313-.044.468-.169.012-.343.012-.512 0 .024-.282.208-.44.551-.472l.005.004zm-5.438 29.508c-.242-.008-.536.004-.459-.289.019-.067.295-.091.454-.135.015.143.015.281 0 .424h.005zm-1.802 86.702c-.381-.012-.584-.174-.599-.488.343.044.546.207.599.488zm-2.419 1.488a1.41 1.41 0 0 1-.039.471l-.56.016c.01-.321.222-.472.604-.487h-.005zm-6.038-150.701c-.053.274-.256.424-.584.472v.012a2.27 2.27 0 0 1 .024-.48l.56-.004zm-3.641 70.923c-.015.198 0 .436-.358.373-.087-.016-.116-.238-.174-.369l.532-.008v.004zm-6.047 13.793a1.91 1.91 0 0 1 .024.471c-.324-.051-.527-.202-.575-.475l.551.004zm-5.4-46.796h.604v.492h-.604v-.246-.246zm-2.473 129.04c-.058.127-.087.345-.174.357-.353.06-.353-.167-.348-.369l.522.008v.004zM155.182 7.863c.015-.186.005-.415.343-.352.087.016.116.225.169.348a3.75 3.75 0 0 1-.516 0l.004.004zm-6.679 222.608c.014.329-.203.468-.589.46.038-.286.241-.437.589-.46zm-1.261-189.584c-.005.234-.068.456-.43.361-.092-.024-.106-.254-.155-.389l.585.024v.004zm-1.169 159.079l-.304.385-.275-.401c.193-.012.386-.008.579.016zm-2.989-159.064c.575.159.512.309-.01.456l.01-.456zm.019 70.871c-.034.321-.256.472-.638.496.072-.286.295-.44.638-.496zm-1.787 16.244c.009-.218.067-.437.415-.345.092.023.106.242.154.372l-.569-.023v-.004zm-9.728-98.96c.014.159 0 .317-.039.472l-.545.012c-.02-.333.178-.492.589-.484h-.005zm-2.405-25.123c.01.337-.193.504-.608.496-.005-.155.009-.309.048-.464l-.01.008a3.04 3.04 0 0 1 .57-.04zm-3.033 25.615l-.261.348-.275-.336.536-.012zm-1.237-9.351c.034.159.049.313.029.472-.338-.04-.531-.19-.555-.472h.526zM20.493 63.534c.333.052.531.21.594.484-.314-.063-.517-.222-.594-.484zm.589-36.944c-.014.317-.198.504-.604.516.058-.282.246-.464.604-.516zM47.096 142.8l.285-.364.271.371c-.184 0-.372 0-.556-.007zm-22.43-48.73c-.053.123-.082.337-.164.353-.343.063-.343-.163-.348-.357a4.5 4.5 0 0 1 .517 0l-.005.004zm4.839 47.767c-.053.119-.077.316-.164.336-.314.075-.338-.142-.382-.324a3.69 3.69 0 0 1 .546-.016v.004zM.546 188.153l-.304.388-.241-.412a3.1 3.1 0 0 1 .546.024zm29.649-44.864c.058-.127.092-.345.179-.361.353-.064.348.174.362.372-.179 0-.362 0-.541-.007v-.004zm41.02-60.069c-.072.266-.27.424-.599.476.072-.262.28-.416.599-.476zM33.177 27.082c-.01.329-.203.508-.618.515.053-.293.251-.472.618-.515zm56.165 53.672c.058-.27.256-.428.584-.484v-.004c0 .163-.005.325-.029.484h-.555v.004zM77.296 66.461l-.044-.234v-.238c.367.02.57.174.584.484-.179 0-.362 0-.541-.012zM35.547 20.689l-.333.492-.27-.512.604.02zM92.959 182.2l-.01-.238.043-.234.555-.012c.019.337-.198.484-.589.484zm1.169-32.487c0 .206 0 .44-.357.373-.087-.016-.116-.242-.169-.369.174-.012.352-.012.526-.004zM19.27 148.23c0 .325-.184.5-.594.5.043-.294.237-.464.594-.5zM100.783 9.316a3.15 3.15 0 0 1-.579.032c.048-.286.241-.452.594-.484l-.015.452zm.633 126.132c.232 0 .488.016.416.278-.02.068-.266.095-.406.143l-.014-.21v-.211h.004zM38.652 23.62a1.3 1.3 0 0 1-.043-.472c.367.02.56.178.575.48a7.91 7.91 0 0 1-.531-.008zm68.208-6.885c-.054.135-.073.361-.165.385-.362.087-.425-.131-.42-.365l.585-.016v-.004zm2.965 123.623l-.266.336-.266-.336h.532zm-62.72 79.254c-.039-.329.179-.448.546-.452.024.313-.193.44-.546.452zm47.057-31.503c-.382.02-.749-.032-.99-.293-.087-.096-.121-.302-.058-.405.208-.337.425-.059.623.036.159.071.299.174.444.265v.203l-.024.198.005-.004zm2.415.016c-.377-.032-.754-.068-.575-.512.029-.067.135-.174.179-.166.449.091.498.353.401.67l-.005.008zm-4.82-.972c.256.024.367.111.304.253 0 .004-.159-.004-.193-.039-.053-.06-.068-.147-.097-.222l-.014.008zm1.179-1.035l.454.281c-.478.294-.435-.051-.488-.269l.034-.012z" fill="#ab750f"/><path d="M94.162 188.109l.029-.198v-.203c.29-.027.502.04.401.314-.019.059-.28.059-.43.087zm24.792-176.346c-.372.067-.937.067-.952-.194-.014-.297.522-.317.898-.258a1.62 1.62 0 0 0 .049.452h.005z" fill="#ab750f"/><path d="M118.953 11.763c-.038-.151-.053-.297-.048-.452.473-.052.652.135.604.5-.189.02-.372.004-.556-.044v-.004zm143.104 2.99c-.01-.289-.358-.714.164-.821.512-.103.971.25.845.674-.125.409-.666.115-1.024.139l.015.008zM89.337 171.861c.063-.487.358-.686.937-.46.232.092.246.226.111.353-.314.306-.7.088-1.053.099v.004l.005.004zm189.624-87.173l.227-.385.241.21-.478.163.015.012h-.005zm-1.812-45.745c.507.075 1.213-.139 1.295.567.034.278-.218.424-.503.44-.429.024-1.014.234-1.197-.238-.082-.202.275-.52.429-.781l-.024.012zm-131.728-8.859l-.063.841c-.444.032-1.087.29-1.154-.297-.087-.75.647-.595 1.217-.543zm37.547 138.319c.092.238.048.436-.256.536a.32.32 0 0 1-.232-.119c-.043-.27.16-.385.454-.429l.034.012zm11.939-34.386a1.66 1.66 0 0 0-.004.345c-.744.036-1.493.305-2.459-.016.85-.734 1.686-.381 2.463-.329zm-56.654 79.675l.551.063c.077.262.285.421.603.48-.275.766-.729.575-1.231.159l.072-.702h.005zm2.392 2.01c-.073.266-.28.424-.599.492.077-.262.285-.42.599-.492zM272.285 9.847c0 .666-.304 1.083-1.222 1.003-.164-1.055-.111-1.098 1.222-1.003zm-3.032.496c-.005-.333-.416-.773.314-.912.338-.063.545.19.589.397.135.619-.493.464-.899.524l-.009-.008h.005zm-47.309 7.315l-.376-.182c.062-.051.144-.154.193-.142.135.028.256.099.381.154l-.193.17h-.005zm-22.116 124.167l.242-.396.27.226-.516.17h.004zm63.725-131.538c-.101-.095-.343-.222-.318-.305.057-.202.231-.385.357-.575.116.194.28.381.328.583.02.075-.236.194-.362.293l-.005.004zm30.999 14.757a1.36 1.36 0 0 0-.507.048c-.232-.282-.884-.404-.585-.872.082-.127.536-.202.749-.139.584.174.386.603.347.964h-.004zm55.653 79.341l.256-.218c-.014.044-.009.107-.048.131-.058.039-.145.055-.217.079l.009.008zM181.698 75.321c-.376.008-.806.151-1.028-.23-.034-.055.169-.278.299-.301.522-.095.662.194.72.543l.014-.012h-.005zm-2.386.503l-.01-.234.01-.234c.333.048.521.206.584.476-.193.012-.386.012-.58 0l-.004-.008zm-1.806-17.703c.193-.02.381-.024.575-.004-.005.206-.049.42-.382.349-.092-.02-.13-.226-.193-.345zm89.946 3.415c.304-.04.546.024.623.289.014.047-.116.182-.164.178a.46.46 0 0 1-.464-.46v-.012l.005.004zm85.154 30.072l.295.229c-.063-.012-.15-.008-.184-.04-.053-.051-.072-.13-.106-.197l-.01.008h.005zm-91.095-80.797a.89.89 0 0 1 .531.008c-.096.603-.589.436-1.033.357l-.015-.182.015-.182c.169-.012.338-.012.507 0h-.005zM79.064 65.494c-.266-.016-.478-.099-.497-.345a.26.26 0 0 1 .193-.127c.285.067.348.25.304.472zm-4.182 37.955l1.169-.039c0 .289 0 .587-.502.579-.415-.008-.613-.222-.666-.536v-.004zm136.987-93.098c-.067.329-.222.595-.71.492-.12-.028-.309-.242-.275-.286.242-.337.652-.19 1.01-.194l-.02-.012h-.005zm-2.362 92.095l1.217.46c-.13.341-.41.595-.855.512-.738-.135-.381-.611-.367-.976l.005.004zM28.447 79.608l.208-.313c.063.052.193.115.183.159-.029.111-.116.214-.179.321l-.208-.167h-.005zm70.275 5.003l-.179-.079.198-.213.174.154-.193.142v-.004zM48.95 153.457l.208-.302c.063.052.183.119.174.159-.034.111-.121.21-.184.313l-.198-.17zm51.93-78.814l.212-.286c.058.052.179.115.169.155-.033.107-.12.198-.188.297l-.193-.166zm18.638-51.266c-.126.047-.251.111-.381.134-.049.008-.116-.095-.179-.146.125-.047.251-.111.381-.134.049-.008.116.095.179.146zm-75.03-6.273l-.927.024c-.034-.424-.382-1.059.584-.976.666.055.382.591.343.956v-.004zm-.6 134.255c0 .051.019.114-.014.146-.116.126-.251.095-.343-.091-.01-.024.106-.111.183-.134.044-.012.116.047.174.075v.004zm-36.571-1.836l.213-.309c.063.051.188.115.179.154-.029.111-.116.21-.179.314l-.208-.163-.005.004zm105.846 77.904c-.058-.055-.164-.114-.16-.166s.121-.098.189-.146c.058.056.164.115.159.166s-.121.099-.188.146zM212.86 90.532l-.212-.087.222-.241.212.166-.222.158v.004zm-6.931 24.981l.111-.159.295.174c-.072.052-.145.146-.213.143s-.13-.103-.193-.158zm-87.545 84.698l.106-.173.295.185-.208.17-.193-.182zM252.986 23.124l.048-.912c.449-.02 1.067-.226 1.13.357.082.742-.589.642-1.178.555zm-160.09 89.197l-.043.864c-.435.004-1.053.21-1.121-.357-.087-.773.633-.551 1.164-.507zm-1.371 112.668l-.367-.166c.063-.051.145-.15.193-.138.135.023.256.094.386.146l-.208.158h-.005zm-17.933-92.011l-.208.347-.227-.193.449-.142-.014-.012zM291.605 58.1l-.618.012c.189-.466.396-.482.618-.012z" fill="#ab750f"/><path d="M290.422 58.582l-.014-.234v-.234l.613-.02c-.053.285-.256.44-.599.484v.004zM158.765 225.545v.496l-1.197-.012-.015-.976 1.212.496v-.004zM16.295 73.85l.208-.381.251.206-.473.163.015.012zm81.475 93.565l-.299-.237c.063.012.154.008.188.043.053.056.068.135.102.206l.01-.008v-.004zm58.61-154.102a1.86 1.86 0 0 1 .555-.004l-.275.389-.28-.381v-.004zM95.365 117.202c-.01.326-.232.468-.609.496-.019-.345.217-.484.609-.496zM82.053 90.128l-.251.389c-.396-.349.019-.325.266-.377l-.014-.012zm103.31 101.951c.339.035.541.182.575.468-.343-.032-.536-.187-.575-.468zM153.94 75.84l.517.175-.28.222-.237-.397zM48.848 32.466l-.483-.146.242-.209.222.371.015-.016h.005zm182.254 47.899c-.048.095-.053.19-.01.29-.434-.012-1.101.381-1.101-.409l1.116.123-.005-.004zM99.576 99.48l-.256.377c-.43-.369.053-.305.261-.373l-.01-.008.005.004zm157.757-89.268c-.048-.274-.232-.436-.57-.48.734-1.142 1.024.016 1.507.19-.203.337-.623.202-.937.29zM44.052 158.085l1.169.012c-.058.289-.126.583-.594.583s-.517-.31-.575-.591v-.004zm128.6-122.14c-.319-.056-.522-.21-.585-.476.329.052.527.206.585.476zM299.449 94.57l-.579-.52c.019-.361.024-.726.526-.896l.676.408c.044.44.425 1.015-.623 1.007zM103.797 218.633a3.49 3.49 0 0 1-.56 0c.058-.127.092-.341.183-.361.348-.072.367.154.377.361zM50.665 11.83c.087.5.314 1.031-.464 1.325-.164-.516-.633-1.102.464-1.325zm210.75-10.351l.106-.908.961.036c.193.742-.024 1.142-1.072.868l.005.004zm.033 67.433l-.034-.226.015-.226c.241.008.516.016.444.293-.019.075-.275.107-.425.159zM96.553 192.534c-.188.011-.377.011-.57 0l.28-.336.285.336h.005zm45.328-5.912l-.019-.234.014-.234c.251.02.565.004.483.309-.019.075-.309.103-.473.155l-.005.004zm196.095-77.811c.01-.163.054-.321.126-.476l1.198.028c-.232.559-.816.424-1.324.448zM68.177 137.408a1.74 1.74 0 0 1-.015.448c-.145-.052-.386-.083-.41-.159-.072-.265.184-.285.425-.289zm281.377-36.001a.65.65 0 0 0 .488.154c-.029.151.029.274.174.365-.073.29-.213.52-.643.504l-.024-1.027.005.004z" fill="#ab750f"/><path d="M349.601 100.935l.01.532c-.522.067-.749-.107-.672-.54l.662.008z" fill="#ab750f"/><path d="M348.351 100.963l-.024-.504h.642l.029.508c-.217 0-.434-.004-.647-.004zm4.463 28.521c.13.052.265.06.401.032.028.222-.092.48-.324.448-.246-.036-.246-.293-.077-.48zM110.429 82.705l.647.016-.323.508-.324-.523zm164.87 5.449a2.52 2.52 0 0 1 0 .476c-.521-.159-.526-.317 0-.476zm-111.65 26.054l-.029-.21.014-.21 1.135.028a1.08 1.08 0 0 1 0 .376l-1.12.016zm167.797-59.564c-.415.024-.782-.04-1.004-.365.43-.052.999-.361 1.004.365zm-70.008 99.507c-.507.043-1.062.166-1.169-.464.503-.032 1.164-.333 1.169.464zm.072-143.34c-.169-.012-.338-.012-.507 0-.251-.389.082-.436.425-.484a.84.84 0 0 1 .082.484zm-15.807 5.421c-.536.071-.797-.313-1.188-.476.077-.349-.058-.777.541-.916.434.397.903.781.642 1.392h.005zM9.626 73.869c-.493-.008-.971-.032-1.193-.484.502-.008.99 0 1.193.484zm148.542 12.793v-.238-.238c.198-.012.391-.012.589-.004-.068.266-.266.428-.594.484l.005-.004zm-37.403 4.902l-.029-.222.01-.226c.386 0 .599.147.584.476a3 3 0 0 1-.565-.028zm228.219 48.778c.024-.305.232-.456.589-.484-.019.306-.232.456-.589.484zm-248.239-27.621l-1.029-.059-.039-1.301 1.087-.04a1.38 1.38 0 0 1-.019 1.4zm-50.08 13.852l.024.98-1.183-.036.034-.904 1.125-.04zm128-91.096c.033.151.033.297 0 .448l-1-.127v-.21l.995-.111h.005zm48.94 79.755v-.246-.246h.604v.492h-.604z" fill="#ab750f"/></g></g><path d="M345 5h11.237v11.237L345 5z" fill="url(#G)"/><path d="M16.237 228.547H5V217.31l11.237 11.237z" fill="url(#H)"/><path d="M20 100h311.009l9.839 9.749v43.578H29.75l-9.75-9.75V100z" fill="#212121"/><mask id="C" maskUnits="userSpaceOnUse" x="20" y="100" width="321" height="54" mask-type="alpha"><path d="M20 100h311.009l9.839 9.749v43.578H29.75l-9.75-9.75V100z" fill="#212121"/></mask><g mask="url(#C)"><g opacity=".5"><g opacity=".2"><path d="M328.638 143.826c-1.545-1.661-5.312-3.156-10.024-4.602-6.196-1.902-13.14-3.699-22.066-5.239-1.733-.3-3.568-.583-5.449-.854-8.326-1.195-14.843-2.672-21.187-4.18l-10.379-2.364c-2.801-.62-6.014-1.171-9.999-1.551-8.478-.809-15.773-1.89-22.848-3.026l-26.768-4.271c-11.579-1.774-24.038-3.344-37.142-4.753l-28.71-3.55-28.72-3.55-27.555-3.582c-7.325-1.06-15.249-1.931-23.642-2.653-2.816.936-6.628 1.63-10.69 2.144 9.546.813 18.553 1.795 26.702 3.033 6.318.959 13.328 1.743 20.668 2.439l12.413 1.226 23.652 2.683c9.856 1.21 20.286 2.245 30.839 3.242 15.57 1.472 29.691 3.274 41.804 5.547 6.953 1.304 14.975 2.397 22.462 3.594l26.63 4.515c5.521 1.05 9.648 2.328 14.437 3.499l15.01 3.615c2.567.571 5.825 1.064 9.124 1.512 9.475 1.288 16.175 2.958 21.969 4.77 4.047 1.266 6.558 2.616 7.91 4.044 2.231 2.364 6.049 4.653 10.415 6.92a20.7 20.7 0 0 1 1.281.723h13.577c-.305-.224-.63-.447-.981-.669-2.847-1.792-6.222-3.558-8.977-5.354-1.662-1.083-2.724-2.197-3.756-3.307v-.001zm-146.983 7.973c1.525-1.213 5.267-1.867 10.835-1.909 4.851-.037 9.285.309 13.578.77l8.275.937a65.73 65.73 0 0 0 4.006.289c2.477.108 4.174-.115 5.125-.655 1.197-.679 1.213-1.393.927-2.105-.678-1.695-2.83-3.295-6.9-4.719-6.369-2.229-11.295-4.618-15.928-7.047-2.259-1.184-4.652-2.361-7.407-3.487-3.46-1.416-8.564-2.54-13.681-3.648l-15.262-3.285c-2.913-.676-5.374-1.458-7.839-2.224-5.029-1.563-10.268-3.083-16.055-4.505-5.984-1.469-13.328-2.512-20.925-3.482l-35.201-4.518c-5.445-.699-10.249-1.592-14.814-2.555-5.532-1.168-11.691-2.121-18.591-2.825-3.551-.362-6.959-.779-10.272-1.236l-3.412 3.664.571.083 13.245 1.812c5.243.754 9.682 1.733 14.192 2.692 6.852 1.458 14.695 2.617 22.376 3.827l14.96 2.424c6.857 1.185 11.787 2.748 15.932 4.444 6.524 2.668 11.767 5.467 16.321 8.335.388.243.618.5.887.753.825.779.206 1.495-1.529 2.196-2.576 1.038-4.939 2.103-7.384 3.157-3.67 1.581-4.779 3.255-3.428 5.013 1.542 2.006 3.436 3.99 6.848 5.884 2.22 1.232 5.24 2.358 8.537 3.447h41.154c-.02-.508.221-1.017.864-1.527h-.004zm173.395-51.717l-19.58-2.308-3.024-.374-56.128-.002 24.246 2.85 49.835 6.205c7.361.952 13.984 2.081 20.922 3.133 5.948.903 12.444 1.633 19.337 2.228-17.913-4.214-25.035-8.033-27.785-10.675l-7.818-1.058-.005.001zM20.531 147.523c34.337.502 38.24 5.633 38.24 5.633h21.868l-4.26-.997-37.737-8.644c-5.876-1.36-10.553-2.84-12.245-4.546-.854-.86-1.179-1.738-1.54-2.61-.64-1.539-1.255-3.079-1.642-4.62-.381-1.53-1.566-3.043-3.904-4.508-2.674-1.674-5.729-3.337-9.287-4.958-2.186-.994-5.464-1.805-9.617-2.442l-6.684 5.565 26.803 22.127h.005z" fill="#444"/><path d="M307.43 146.866c-2.16-2.457-7.772-4.628-16.988-6.505a75.31 75.31 0 0 0-5.286-.883c-8.906-1.164-15.732-2.646-21.756-4.269l-18.635-4.851c-7.929-2.021-17.613-3.772-27.779-5.432l-28.791-4.982c-9.414-1.839-20.617-3.286-33.04-4.428l-44.116-4.564-24.948-2.596c-8.961-.87-16.942-1.974-25.116-3.042-7.94-1.037-16.21-1.966-24.821-2.782-8.362.661-15.834.723-15.834.723l-1.535 1.28 16.154 1.596c9.104.807 17.537 1.77 25.024 2.99 6.816 1.111 14.655 1.959 22.711 2.754l50.384 4.987c11.635 1.13 21.323 2.637 29.538 4.462l19.748 4.333c5.601 1.101 12.143 2.054 18.38 3.051 7.04 1.125 14.431 2.2 19.57 3.629 3.985 1.109 7.462 2.276 11 3.433l10.553 3.578c5.246 1.822 12.118 3.454 18.782 5.114 4.732 1.178 9.556 2.355 12.367 3.731 3.284 1.606 5.312 3.265 6.019 4.965h36.268c-.036-.018-.066-.037-.102-.055-3.914-2.026-5.907-4.13-7.757-6.235l.005-.002zm-186.253 2.609l-10.898-4.955c-4.661-2.246-4.326-4.516-.163-6.772 2.623-1.421 4.097-2.884 4.682-4.362.3-.757-.458-1.561-1.673-2.295-3.466-2.09-7.334-4.161-11.198-6.23-2.19-1.175-5.916-2.199-11.122-3.03l-11.966-1.76-25.675-3.523c-3.726-.53-7.071-1.147-10.42-1.753-7.259-1.313-15.57-2.364-24.897-3.166l-6.806-.647-5.774 4.806.605.043c8.108.565 14.868 1.469 20.419 2.644 7.503 1.588 14.304 3.264 19.646 5.111 3.507 1.211 5.469 2.493 6.11 3.855.767 1.642.335 3.288.722 4.927.498 2.114.529 4.245 3.614 6.317 2.577 1.732 6.745 3.356 10.725 4.994 5.627 2.315 13.399 4.38 22.925 6.242 5.134 1.004 9.419 2.088 13.053 3.235h28.847c-4.097-1.179-7.833-2.394-10.751-3.682l-.005.001zm239.408-8.259c-2.364-2.511-7.066-4.881-14.93-7.031l-17.389-4.675c-5.937-1.689-14.136-2.906-24.226-3.705-10.619-.841-20.282-1.918-29.137-3.24-5.54-.828-11.564-1.529-18.055-2.106l-6.501-.644c-10.06-1.075-18.828-2.45-27.657-3.799a1259.71 1259.71 0 0 0-41.733-5.673l-24.348-3.134-38.896-5.732-30.768-4.033-21.1.007c9.754.897 18.98 1.935 27.673 3.153l38.571 5.182 21.969 3.196 27.266 3.345c18.31 2.208 34.499 4.867 50.984 7.461 7.264 1.142 14.975 2.137 23.835 2.869 3.837.317 7.391.771 10.71 1.243 3.644.517 7.004 1.103 10.247 1.699 7.544 1.386 16.094 2.532 25.553 3.476 4.473.446 8.484 1.001 11.524 1.736l19.61 4.84c7.864 2.039 12.891 4.283 14.691 6.744.909 1.244 1.677 2.5 3.324 3.717 2.669 1.974 5.952 3.922 9.078 5.876a14.72 14.72 0 0 1 .529.347c.722-1.914 2.775-3.693 5.627-5.317a51.3 51.3 0 0 1-6.461-5.802h.011zm-51.67-36.914c4.58.524 9.5.956 14.304 1.418.869.084 1.921.107 2.892.158l.381-.11c-1.174-.205-2.262-.428-3.533-.612l-22.97-3.264-35.552-4.492-16.454.003 16.648 1.747 44.284 5.153zm-156.643.512c10.913 1.677 22.401 3.189 34.494 4.579l23.952 2.928 27.718 3.646c11.071 1.415 24.073 2.181 36.09 3.282.452.042 1.022.045 1.535.067l.325-.085c-.986-.18-1.845-.39-2.978-.535l-13.186-1.623c-15.066-1.504-28.72-3.353-42.164-5.257l-23.718-3.381c-12.078-1.615-24.14-3.222-34.454-5.203l-27.987-5.249-2.801-.554-28.664.009 8.611 1.16 43.232 6.214-.005.002zm267.242 14.289l-21.268-1.47-11.935-.668c-8.296-.445-15.61-1.246-23.164-1.962-12.22-1.159-22.894-2.704-33.615-4.231l-38.484-5.577c-12.138-1.659-24.861-3.194-38.627-4.416-5.871-.522-12.113-.927-18.345-1.305-6.084-.37-11.985-.783-17.069-1.488-1.606-.222-3.273-.412-4.991-.576l-37.071.009c-.168.171-.189.36-.046.564.569.83 2.506 1.566 4.925 2.269 4.306 1.252 10.161 2.253 16.348 3.213l24.983 3.997c7.666 1.238 14.853 2.582 23.606 3.584 5.754.66 11.925 1.216 18.071 1.761 18.904 1.676 36.751 3.631 52.91 6.052l8.077 1.091c4.3.568 7.823 1.26 10.746 2.054 5.479 1.488 10.735 2.99 14.776 4.627 3.03 1.228 7.676 2.299 12.617 3.316 7.35 1.513 13.658 3.144 18.802 4.921 2.41.833 5.053 1.651 7.955 2.434a74.03 74.03 0 0 1 3.975 1.184l3.731-.804c-9.276-2.87-18.802-5.714-31.779-8.147-7.31-1.371-12.266-3.008-16.592-4.728a96.28 96.28 0 0 0-14.934-4.606c-3.029-.683-7.066-1.228-10.7-1.824l-33.421-5.472c-2.461-.407-4.652-.871-6.776-1.335-.925-.203-1.525-.465-1.978-.717-.437-.245.29-.463 1.749-.482 1.876-.025 3.853-.026 5.668.05 7.141.299 13.455.932 19.407 1.66l27.591 3.475 18.05 2.175c1.993.243 3.869.52 5.688.803 5.81.904 12.749 1.301 20.302 1.4 13.552.179 26.865.59 40.02 1.187a167.08 167.08 0 0 1 7.767.528c-1.174-.861-2.715-1.645-4.423-2.348l-2.551-.198h.005zm8.561 4.058l-7.772-.583c-12.52-.49-25.151-.736-38.001-.517-8.926.151-17.288-.135-24.354-1.168-3.07-.449-5.789-.975-8.585-1.482-4.26-.772-8.967-1.43-14.665-1.841-.828-.06-1.764-.073-2.648-.108l-.402.091c.646.189 1.23.385 1.942.566 2.628.671 5.703 1.299 7.869 2.014 4.31 1.42 8.427 2.865 12.082 4.341 4.184 1.689 9.851 3.179 17.242 4.468 11.259 1.963 21.182 4.095 29.203 6.524a98.2 98.2 0 0 1 2.989.955l1.692-.288c3.126-.514 5.846-1.066 8.22-1.637-2.379-1.131-5.002-2.246-8.21-3.316-2.526-.843-5.754-1.62-8.595-2.433-1.718-.491-3.579-.973-4.9-1.497-2.11-.834-1.027-1.518 2.923-2.113 3.685-.556 8.077-.829 12.819-.93l10.121-.155a97.27 97.27 0 0 1 11.706.56c-.091-.502-.32-.986-.671-1.451h-.005zm-99.514.701c3.904.928 8.245 1.8 10.975 2.865 3.883 1.514 8.936 2.904 14.405 4.251 6.039 1.487 11.376 3.04 15.046 4.763 2.222 1.044 4.469 2.087 7.03 3.106 2.049.815 3.93 1.638 5.597 2.473l3.314-.929c-1.662-.718-3.522-1.425-5.571-2.122-3.111-1.058-5.612-2.172-8.275-3.27-3.924-1.615-9.348-3.068-15.3-4.465-5.719-1.343-10.401-2.789-14.589-4.299-2.435-.877-5.856-1.673-9.002-2.485-2.034-.525-4.077-1.069-6.659-1.504-3.406-.574-7.188-1.089-11.086-1.558l-32.207-3.762-21.563-2.069c-13.582-1.232-26.02-2.764-37.894-4.444l-25.289-3.656-21.522-3.093c-6.135-.994-11.681-2.109-17.12-3.226a323.16 323.16 0 0 1-13.287-3.012l-8.809.003 2.582.554 18.818 3.685c8.997 1.786 18.818 3.41 29.68 4.842l24.613 3.374c12.799 1.895 26.178 3.639 40.578 5.132l23.062 2.274 35.155 3.896c6.715.72 12.627 1.557 17.334 2.676h-.016zm-14.798-17.567l-44.92-5.869c-9.587-1.126-19.382-2.18-29.823-3.023l-9.749.002 5.312.375c13.465.889 25.507 2.242 37.437 3.642 15.514 1.819 29.736 3.926 44.243 5.973l41.799 5.304c13.582 1.429 27.718 2.674 43.105 3.424l13.455.752c-2.252-.594-4.326-1.049-5.825-1.352-14.431-.667-28.019-1.726-41.118-2.981-18.939-1.814-37.01-3.885-53.911-6.247h-.005zm48.372 24.62c-7.254-1.602-13.75-3.278-18.366-5.175-3.477-1.429-9.098-2.633-14.06-3.902-1.265-.324-2.902-.618-4.646-.865l-13.444-1.816c-13.15-1.837-27.038-3.466-42.048-4.796l-20.937-1.961c-10.141-1.015-18.584-2.427-27.409-3.748l-28.653-4.247c-9.805-1.407-18.487-2.988-25.528-4.84-2.556-.673-4.829-1.372-6.16-2.143l-8.82.003c1.139.4 2.512.781 3.991 1.15 9.947 2.488 21.262 4.759 35.195 6.581l28.959 4.182c14.761 2.276 30.946 4.164 48.655 5.656 14.437 1.215 27.607 2.793 40.391 4.476l8.016 1.002c6.491.737 11.33 1.737 15.748 2.843 4.874 1.218 8.885 2.507 12.707 3.834 3.208 1.111 7.142 2.176 11.442 3.168 7.773 1.795 14.142 3.713 19.113 5.793 2.318.97 5.225 1.899 8.077 2.826.93.303 1.794.61 2.608.92l2.18-.543c-.569-.203-1.164-.404-1.789-.603-3.665-1.166-7.406-2.33-10.629-3.535-4.051-1.513-8.687-2.955-14.598-4.26h.005z" fill="#444"/><path d="M340.289 111.142l-46.383-6.516c-14.914-2.067-30.397-4.016-47.583-5.48l-15.946-1.16-7.335-.579h-4.951c4.544.549 9.439.97 14.721 1.275 8.987.518 17.603 1.198 25.665 2.07 17.841 1.93 34.743 4.084 50.602 6.503l43.212 5.918c13.297 1.57 27.459 2.863 42.972 3.668l23.083 1.466 1.327.091a62.06 62.06 0 0 0-2.201-.715l-5.063-.315-26.992-1.659c-16.088-1.187-31.164-2.701-45.123-4.568l-.005.001zM24.691 121.311c4.138 1.45 8.255 2.903 10.715 4.478 2.033 1.301 2.78 2.641 3.289 3.981.483 1.271.529 2.547.844 3.82.295 1.203.483 2.409 1.088 3.607.808 1.608 3.716 3.116 8.301 4.511l19.433 5.747c5.175 1.383 11.32 2.661 17.4 3.93 2.714.568 5.134 1.16 7.31 1.772h4.854c-2.745-.819-5.876-1.601-9.465-2.343-5.495-1.135-10.873-2.296-15.707-3.519-7.32-1.851-12.505-3.92-18.193-5.933-3.853-1.364-6.613-2.798-7.396-4.321-.696-1.357-1.113-2.72-1.469-4.081-.386-1.481-.432-2.966-.869-4.447-.33-1.134-1.098-2.262-3.192-3.346-4.051-2.094-10.359-3.977-17.608-5.765-5.159-1.274-11.778-2.209-19.702-2.824l-.935.778c9.282.858 16.281 2.195 21.303 3.956v-.001zm-3.353 2.678c3.36 1.495 6.039 3.026 7.01 4.631.701 1.156 1.184 2.317 1.606 3.478.534 1.47.945 2.94 1.332 4.411.437 1.669 1.972 3.296 6.593 4.774l8.901 2.505c10.715 2.849 21.766 5.653 34.362 8.26 1.728.359 3.365.729 4.9 1.11h3.746c-2.018-.536-4.239-1.053-6.689-1.547-12.698-2.562-23.199-5.393-33.249-8.283-4.229-1.216-8.575-2.416-11-3.792-1.652-.936-2.598-1.895-2.831-2.874l-1.464-6.268c-.839-3.441-6.715-6.624-16.078-9.62-3.899-1.247-9.282-2.163-15.798-2.823l-.869.723c6.43.764 11.437 1.819 14.817 3.204 1.698.694 3.136 1.408 4.717 2.111h-.005z" fill="#444"/></g></g></g><path d="M334.627 100h6.221v6.221L334.627 100z" fill="url(#I)"/><path d="M26.221 153.371H20v-6.266l6.221 6.266z" fill="url(#J)"/></g><defs><linearGradient id="D" x1="-16.876" y1="117.001" x2="367.604" y2="117.001" href="#L"><stop stop-color="#ab750f"/><stop offset=".516" stop-color="#d8a956"/><stop offset="1" stop-color="#ab750f"/></linearGradient><linearGradient id="E" x1=".158" y1="-53" x2=".158" y2="208.573" href="#L"><stop stop-color="#ab750f"/><stop offset=".516" stop-color="#d8a956"/><stop offset="1" stop-color="#ab750f" stop-opacity="0"/></linearGradient><linearGradient id="F" x1="318.637" y1="260.067" x2="318.637" y2="131.506" href="#L"><stop stop-color="#ab750f"/><stop offset=".516" stop-color="#d8a956"/><stop offset="1" stop-color="#ab750f" stop-opacity="0"/></linearGradient><linearGradient id="G" x1="344.475" y1="10.619" x2="356.443" y2="10.619" href="#L"><stop stop-color="#ab750f"/><stop offset=".516" stop-color="#d8a956"/><stop offset="1" stop-color="#ab750f"/></linearGradient><linearGradient id="H" x1="4.475" y1="222.929" x2="16.443" y2="222.929" href="#L"><stop stop-color="#ab750f"/><stop offset=".516" stop-color="#d8a956"/><stop offset="1" stop-color="#ab750f"/></linearGradient><linearGradient id="I" x1="337.737" y1="106.512" x2="337.737" y2="99.886" href="#L"><stop stop-color="#ab750f"/><stop offset=".516" stop-color="#d8a956"/><stop offset="1" stop-color="#ab750f"/></linearGradient><linearGradient id="J" x1="23.111" y1="146.812" x2="23.111" y2="153.486" href="#L"><stop stop-color="#ab750f"/><stop offset=".516" stop-color="#d8a956"/><stop offset="1" stop-color="#ab750f"/></linearGradient><clipPath id="K"><path fill="#fff" d="M0 0h361v234H0z"/></clipPath><linearGradient id="L" gradientUnits="userSpaceOnUse"/></defs></svg>