<svg width="394" height="757" viewBox="0 0 394 757" fill="none" xmlns="http://www.w3.org/2000/svg">
<g id="background-exp">
<g id="background-roam">
<path id="Rectangle 291" d="M259 25H238L230 35H253L259 25Z" fill="url(#paint0_linear_2250_89823)"/>
<path id="Rectangle 290" d="M135 25H156L164 35H141L135 25Z" fill="url(#paint1_linear_2250_89823)"/>
<path id="Vector 302" d="M49.0005 20L0.000411987 0V25H136.5L133 20H49.0005Z" fill="url(#paint2_linear_2250_89823)"/>
<path id="Vector 304" d="M344.5 20L393.501 0V25H257L260.5 20H344.5Z" fill="url(#paint3_linear_2250_89823)"/>
<path id="Rectangle 293" d="M394 754H275L266 748.042H197V740H394V754Z" fill="url(#paint4_linear_2250_89823)"/>
<path id="Rectangle 292" d="M0.000488281 754H119L128 748.042H197V740H0.000488281V754Z" fill="url(#paint5_linear_2250_89823)"/>
<path id="Rectangle 289" d="M0.000488281 21H133L142 34H251L260 21H394V741H0.000488281V21Z" fill="#F5F1EE"/>
<path id="Vector 133 (Stroke)" fill-rule="evenodd" clip-rule="evenodd" d="M142 36L196 36L196 33L142 33L142 36Z" fill="url(#paint6_linear_2250_89823)"/>
<path id="Vector 132 (Stroke)" fill-rule="evenodd" clip-rule="evenodd" d="M251 36L198 36L198 33L251 33L251 36Z" fill="url(#paint7_linear_2250_89823)"/>
<g id="Group 214">
<path id="Vector 304_2" d="M206 33.9999L197 17L188 33.9999L197 48L206 33.9999Z" fill="#AB750F"/>
<path id="Vector 301" d="M188 33.9999L197 17V48L188 33.9999Z" fill="#FFC502"/>
<path id="Vector 305" d="M197 17L188 34L197 20L206 34L197 17Z" fill="white" fill-opacity="0.3"/>
</g>
<g id="Mask group">
<mask id="mask0_2250_89823" style="mask-type:alpha" maskUnits="userSpaceOnUse" x="0" y="21" width="395" height="720">
<path id="Union" d="M133.001 21H0.000488281L0.000547767 741H394.001V21H260.001L251.001 34H142.001L133.001 21Z" fill="#F5F1EE"/>
</mask>
<g mask="url(#mask0_2250_89823)">
<path id="Union_2" fill-rule="evenodd" clip-rule="evenodd" d="M179.266 646.283L182.377 586.656L168.254 541.829L137.551 512.354L113.602 537.531L102.549 617.973L87.1975 608.148L65.0912 552.268L50.3537 571.918V512.354L38.0725 460.773L17.1943 436.825L0.000587463 512.354L-5.52598 502.529L-19.0354 590.34L-30.7025 598.937C-33.9775 619.406 -41.1416 660.589 -43.5979 661.572C-46.0541 662.554 -51.99 647.243 -54.651 639.465C-60.5869 654.408 -72.95 684.783 -74.915 686.748L-96.4072 762.892C-92.3099 773.608 -50.4063 752.536 -29.9945 742.271C-23.8942 739.204 -19.7136 737.101 -19.0354 737.101C-16.0879 737.101 8.80215 733.008 20.8787 730.961L0.000587463 753.067H259.749L255.589 746.926H479.583L466.688 727.89L423.089 659.115L413.264 680.608L398.527 651.133L402.211 580.515L388.088 535.689L357.385 506.214L333.436 531.39L322.383 611.833L307.032 602.008L284.925 546.128L270.188 565.778V506.214L257.907 454.633L237.028 430.684L219.835 506.214L214.308 496.389L200.799 584.2L189.132 592.797C186.785 607.46 182.443 632.754 179.266 646.283Z" fill="url(#paint8_linear_2250_89823)" fill-opacity="0.3"/>
</g>
</g>
<g id="Mask group_2">
<mask id="mask1_2250_89823" style="mask-type:alpha" maskUnits="userSpaceOnUse" x="0" y="21" width="395" height="720">
<path id="Union_3" d="M133 21H0.000488281V741H394V21H260L251 34H142L133 21Z" fill="#F5F1EE"/>
</mask>
<g mask="url(#mask1_2250_89823)">
<path id="Union_4" fill-rule="evenodd" clip-rule="evenodd" d="M-46.6686 724.206C-37.867 705.784 -19.2814 668.572 -15.3514 667.098C-11.4214 665.625 -1.02324 648.472 3.68457 640.08L15.3518 672.011C18.2174 668.736 24.0714 663.168 24.5627 667.098C25.0539 671.028 32.9549 693.298 36.8439 703.942L68.1611 634.553L90.8814 660.344L117.9 606.306L154.744 672.011L170.71 651.133C175.345 661.099 182.763 676.709 188.683 688.376C194.725 677.007 200.113 667.816 202.027 667.098C205.957 665.625 216.355 648.472 221.063 640.08L232.73 672.011C235.596 668.736 241.45 663.168 241.941 667.098C242.432 671.028 250.333 693.298 254.222 703.942L285.539 634.553L308.26 660.344L335.278 606.306L372.122 672.011L388.088 651.133C396.275 668.736 413.141 703.942 415.106 703.942C417.072 703.942 435.985 735.464 445.196 751.225L153.516 754.909L155.064 752.144L-63.8623 754.909L-46.6686 724.206Z" fill="url(#paint9_linear_2250_89823)" fill-opacity="0.6"/>
</g>
</g>
<g id="Group 215">
<path id="Vector 304_3" d="M206 743L197 726L188 743L197 757L206 743Z" fill="#AB750F"/>
<path id="Vector 301_2" d="M188 743L197 726V757L188 743Z" fill="#FFC502"/>
<path id="Vector 305_2" d="M197 726L188 743L197 729L206 743L197 726Z" fill="white" fill-opacity="0.3"/>
</g>
<g id="Group" opacity="0.35">
<path id="Vector" d="M142.975 277.487C142.106 278.155 142.502 279.269 142.1 280.11C141.517 281.324 141.212 281.318 140.02 279.956L140 279.89C140.435 279.603 140.558 279.169 140.558 278.668C140.772 278.595 140.856 278.441 140.804 278.208C141.283 277.954 141.452 277.501 141.543 277L141.517 277.033C142.009 277.147 142.508 277.254 143 277.367L142.981 277.487H142.975Z" fill="#AB750F"/>
<path id="Vector_2" d="M136.606 359.004C136.724 359.317 136.843 359.629 136.961 359.942C136.971 360.544 136.981 361.139 137 361.742C136.912 362.084 136.823 362.433 136.734 362.776C135.895 363.029 135.056 363.103 134.208 362.813C134.139 361.838 134.07 360.864 134 359.897C134.168 359.607 134.198 359.309 134.109 358.997C134.405 358.826 134.494 358.603 134.385 358.335C134.77 358.223 135.155 358.112 135.54 358C135.895 358.335 136.25 358.677 136.606 359.012V359.004Z" fill="#AB750F"/>
<path id="Vector_3" d="M65.0682 371.729C64.8033 370.61 65.3799 369.866 65.6915 369H65.7019C65.9201 369 66.133 369.007 66.3512 369.022C66.3928 369.303 66.4239 369.599 66.4395 369.895C66.4759 370.22 66.507 370.552 66.5382 370.877C66.694 371.159 66.8447 371.433 67.0005 371.715C66.9901 371.982 66.9797 372.256 66.9797 372.523C66.7771 372.596 66.5746 372.675 66.3772 372.776C66.1486 372.848 65.9201 372.928 65.6915 373C65.5876 372.841 65.5928 372.682 65.7071 372.538C65.6344 372.054 65.3799 371.859 65.0734 371.736L65.0682 371.729Z" fill="#AB750F"/>
<path id="Vector_4" d="M262.106 329.181C263.301 328.76 264.085 329.009 263.993 330.63C263.951 331.425 263.866 332.213 263.795 333L263.817 332.977C262.954 333.133 262.764 332.104 262.156 331.807C262.297 331.511 262.248 331.262 262 331.067C262.043 330.428 262.085 329.789 262.128 329.149L262.106 329.181Z" fill="#AB750F"/>
<path id="Vector_5" d="M202.757 447C201.642 446.324 201.867 445.631 202.736 444.939C203.188 444.843 203.427 444.485 203.564 444C204.118 444.032 204.877 443.976 204.98 444.692C205.151 445.83 204.234 445.846 203.577 446.037C203.119 446.141 202.887 446.507 202.757 446.992V447Z" fill="#AB750F"/>
<path id="Vector_6" d="M197.621 537.049V537C198.079 538.462 198.244 539.85 197.412 540.967L197.427 541C197.214 540.072 196.859 539.234 197.06 538.043L197.002 538.191C197.207 537.813 197.416 537.435 197.621 537.058V537.049Z" fill="#AB750F"/>
<path id="Vector_7" d="M56.9844 297.492C56.8446 297.724 56.6832 297.931 56.5703 298.186C56.2369 298.936 55.7745 299.295 55.2852 298.705C54.7743 298.083 55.0378 297.348 55.3981 296.726C55.5325 296.487 55.6562 296.239 55.7906 296L55.7691 296.016C56.3821 296.112 56.5703 297.013 57.0005 297.46L56.9844 297.5V297.492Z" fill="#AB750F"/>
<path id="Vector_8" d="M128.939 307.955C128.6 307.968 128.262 307.987 127.924 308C127.8 307.357 127.862 306.643 127 306.286C127.039 305.766 127.062 305.097 127.747 305.013C128.831 304.883 128.754 305.779 129 306.35C128.977 306.883 128.954 307.416 128.931 307.955H128.939Z" fill="#AB750F"/>
<path id="Vector_9" d="M299.694 369C299.25 369 298.806 369 298.362 369C298.239 368.561 298.116 368.117 298 367.678C298.674 367.456 299.357 367.239 300.031 367.017L299.998 367C300.294 367.444 300.581 367.889 300.877 368.333L301 368.283C300.565 368.522 300.129 368.761 299.694 368.994V369Z" fill="#AB750F"/>
<path id="Vector_10" d="M14.0005 324.183L13.9843 324.488C13.3837 325.154 12.7398 325.089 12.0798 324.752L12.1609 324.865C11.9391 323.91 11.9499 322.955 12.1772 322L12.096 322.161C13.0428 322.177 13.5731 323.067 13.9951 324.183H14.0005Z" fill="#AB750F"/>
<path id="Vector_11" d="M84.1626 481C84.0084 479.319 83.8142 477.639 84.3739 476H84.5567C84.7451 477.709 85.6475 479.494 84.1626 481Z" fill="#AB750F"/>
<path id="Vector_12" d="M208.989 690.373C208.989 690.785 208.995 691.196 209 691.599C208.353 692.105 207.683 692.105 207 691.749L207.076 691.868C207.087 691.291 207.105 690.705 207.116 690.128L207.041 690.239C207.7 689.883 208.353 689.922 208.983 690.373H208.989Z" fill="#AB750F"/>
<path id="Vector_13" d="M148.746 659C148.343 658.67 147.899 658.392 147.554 658.009C147.069 657.471 146.666 656.741 147.414 656.193C148.088 655.698 148.639 656.236 149 656.897C148.91 657.592 148.828 658.296 148.746 658.991V659Z" fill="#AB750F"/>
<path id="Vector_14" d="M222.019 348.008C224.115 348.621 224.373 349.105 223.603 351C223.332 350.669 223.061 350.331 222.789 350H222.796C222.537 349.685 222.272 349.355 222.013 349.024L222 349.008C222 348.669 222 348.339 222.019 348V348.008Z" fill="#AB750F"/>
<path id="Vector_15" d="M360.993 499.13C360.838 500.084 360.69 501.046 360.534 502L360.584 501.965L359 500.96C359.015 500.474 359.036 499.988 359.05 499.503C359.311 499.399 359.545 499.234 359.75 499C360.167 499.043 360.584 499.087 361 499.13H360.993Z" fill="#AB750F"/>
<path id="Vector_16" d="M184.992 189.041C184.984 190.344 184.968 191.647 184.959 192.95C184.408 193.083 184.005 192.975 183.947 192.311C183.898 191.44 184.177 190.436 183.017 190.037C183.025 189.689 183.042 189.349 183.05 189L183 189.05C183.667 189.05 184.334 189.041 185 189.041H184.992Z" fill="#AB750F"/>
<path id="Vector_17" d="M324.805 568.007C325.978 568.199 325.602 569.187 325.772 569.894C325.846 570.219 325.927 570.543 326 570.867L325.72 571L325.506 570.772C325.314 570.86 325.115 570.875 324.908 570.801C323.868 570.609 324.023 569.784 324 569.054C324.421 568.818 324.783 568.545 324.798 568L324.805 568.007Z" fill="#AB750F"/>
<path id="Vector_18" d="M37.0005 570.496V570.135C37.3475 569.759 37.6945 569.376 38.0416 569C40.005 569.135 40.7173 569.681 39.1283 571C38.416 570.83 37.7128 570.667 37.0005 570.496Z" fill="#AB750F"/>
<path id="Vector_19" d="M346.777 481H346.484C346.323 480.592 346.162 480.183 346 479.775C346.191 479.654 346.272 479.508 346.25 479.325C346.836 479.22 347.414 479.11 348 479C347.986 479.45 347.971 479.895 347.957 480.346C347.561 480.56 347.173 480.78 346.777 480.995V481Z" fill="#AB750F"/>
<path id="Vector_20" d="M250 472.892C250 472.618 250 472.335 250 472.061C250.312 471.679 250.632 471.296 250.944 470.914H250.96C251.432 470.607 251.904 470.307 252.384 470.017L252.513 470C252.673 470.657 252.84 471.313 253 471.97L252.968 472.003C252.44 472.119 252.104 472.443 251.968 473C251.312 472.967 250.656 472.925 250 472.892Z" fill="#AB750F"/>
<path id="Vector_21" d="M138.983 543.398C138.633 543.84 138.143 544.176 137.39 543.899C136.847 543.705 136.961 543.309 137.197 542.973C137.416 542.661 137.67 542.354 137.915 542.041C138.274 542.029 138.642 542.012 139 542C139 542.466 139 542.932 138.992 543.398H138.983Z" fill="#AB750F"/>
<path id="Vector_22" d="M75.0005 420.673C74.8068 420.791 74.5949 421.028 74.4314 420.997C74.0137 420.91 73.8805 420.542 74.1166 420.186C74.2135 420.043 74.5949 419.949 74.7341 420.03C74.8915 420.124 74.9157 420.448 75.0005 420.673Z" fill="#AB750F"/>
<path id="Vector_23" d="M129.026 446C128.345 445.939 127.915 445.566 128.015 444.87C128.115 444.204 128.626 443.861 129.257 444.053C129.547 444.144 129.898 444.517 129.968 444.82C130.128 445.526 129.678 445.889 129.026 446Z" fill="#AB750F"/>
<path id="Vector_24" d="M217.821 168.036C218.005 168.304 218.036 168.594 217.905 168.891C217.967 169.101 217.944 169.304 217.844 169.493C218.013 169.638 218.043 169.812 217.944 170C217.383 169.514 216.73 169.739 216.1 169.783C216.07 169.188 216.031 168.594 216 168C216.607 168.007 217.206 168.014 217.813 168.022L217.821 168.036Z" fill="#AB750F"/>
<path id="Vector_25" d="M209 468C208.496 467.91 207.905 467.852 208.013 466.787C208.084 466.115 208.577 466.041 208.984 466C208.99 466.664 208.995 467.328 209 468Z" fill="#AB750F"/>
<path id="Vector_26" d="M173.558 175C173.298 175 173.045 175 172.785 174.992C172.804 174.313 172.445 174.092 172 173.977C172 173.679 172.019 173.382 172.044 173.084C172.544 173.053 173.045 173.031 173.546 173C174.51 173.656 173.657 174.328 173.558 175Z" fill="#AB750F"/>
<path id="Vector_27" d="M170.576 182C170.721 182.161 171 182.323 171 182.484C171 182.921 170.652 183.106 170.252 182.939C170.1 182.873 169.96 182.514 170.011 182.341C170.055 182.191 170.379 182.114 170.582 182.006L170.576 182Z" fill="#AB750F"/>
<path id="Vector_28" d="M91.0005 195.351C90.8098 195.582 90.5945 196.058 90.4284 195.994C90.0162 195.814 89.8809 195.081 90.1146 194.36C90.2069 194.077 90.5883 193.897 90.7298 194.064C90.8836 194.257 90.9144 194.901 91.0005 195.351Z" fill="#AB750F"/>
<path id="Vector_29" d="M190.035 210C190.025 209.333 190.015 208.667 190 208C190.477 208.088 191.097 208.032 190.988 209.197C190.923 209.896 190.427 209.96 190.035 210Z" fill="#AB750F"/>
<path id="Vector_30" d="M39.0005 501.263C38.8213 501.521 38.6361 502.024 38.4748 501.999C38.0507 501.913 37.8834 501.226 38.0865 500.466C38.1702 500.159 38.5465 499.902 38.7018 500.037C38.8571 500.172 38.9049 500.834 39.0005 501.263Z" fill="#AB750F"/>
<path id="Vector_31" d="M170 241.635C169.82 241.767 169.634 242.018 169.472 241.999C169.058 241.943 168.89 241.591 169.076 241.215C169.154 241.065 169.532 240.952 169.688 241.021C169.844 241.096 169.898 241.422 170 241.635Z" fill="#AB750F"/>
<path id="Vector_32" d="M71.0086 244.858C71.0572 244.083 71.1139 243.109 71.8507 243.015C73.0572 242.854 72.9519 244.055 73.0005 245C72.3365 244.953 71.6726 244.905 71.0005 244.868L71.0086 244.858Z" fill="#AB750F"/>
<path id="Vector_33" d="M337.399 248C337.56 248.071 337.844 248.107 337.921 248.25C338.099 248.57 337.969 248.897 337.613 248.992C337.459 249.034 337.144 248.903 337.073 248.76C336.919 248.452 337.002 248.143 337.399 248Z" fill="#AB750F"/>
<path id="Vector_34" d="M73.1548 512C72.0126 511.609 71.947 510.827 72.0219 510C73.8195 510.155 74.812 510.605 73.1548 512Z" fill="#AB750F"/>
<path id="Vector_35" d="M271.005 515C271 514.193 271.021 513.18 271.366 513.033C271.924 512.787 271.964 513.967 272 514.97L271 515H271.005Z" fill="#AB750F"/>
<path id="Vector_36" d="M28.8325 276L28.5445 275.967L28.2565 275.994C28.1685 275.543 28.0885 275.092 28.0005 274.646L28.0165 274.635C28.4165 274.423 28.8245 274.212 29.2245 274C29.4005 274.039 29.5765 274.039 29.7605 274C29.8405 274.446 29.9205 274.897 30.0005 275.343C29.6085 275.56 29.2165 275.783 28.8245 276H28.8325Z" fill="#AB750F"/>
<path id="Vector_37" d="M391.986 283.896C392.03 284.752 391.994 285.536 391.561 286C391.378 285.616 391.195 285.24 391.012 284.856C391.008 284.28 391.004 283.712 391 283.136C391.159 283.048 391.322 283 391.485 283L391.501 283.024C391.664 283.312 391.823 283.6 391.986 283.888V283.896Z" fill="#AB750F"/>
<path id="Vector_38" d="M60.9924 293.956C60.1047 294.59 59.217 295.241 58.0065 294.912C57.9985 294.614 57.9985 294.316 58.0065 294.019C58.3455 293.682 58.6844 293.337 59.0314 293L59.0072 293.024C59.6609 293.055 60.3145 293.078 60.9763 293.11C60.9601 293.392 60.9763 293.682 61.0005 293.964L60.9924 293.956Z" fill="#AB750F"/>
<path id="Vector_39" d="M28.0005 535C28.0105 534.333 28.0305 533.667 28.0405 533C28.8314 533.04 29.8426 533.096 29.9727 533.787C30.203 534.936 28.9516 534.896 28.0005 535Z" fill="#AB750F"/>
<path id="Vector_40" d="M32.0046 301.857C32.0331 301.102 32.0372 300.109 32.4087 300.013C32.9882 299.86 32.9678 301.054 33.0005 302C32.6658 301.952 32.3352 301.904 32.0005 301.866L32.0046 301.857Z" fill="#AB750F"/>
<path id="Vector_41" d="M223 542.008C223.665 542.008 224.329 542.008 225 542.016C224.978 542.68 224.963 543.344 224.94 544L223.355 543.944C223.234 543.296 223.121 542.648 223 542V542.008Z" fill="#AB750F"/>
<path id="Vector_42" d="M127 307C127.005 307.834 126.931 308.598 126.424 309C125.506 307.417 126.258 307.208 127 307Z" fill="#AB750F"/>
<path id="Vector_43" d="M131.81 549C131.6 549 131.385 549 131.174 549C131.129 548.342 131.083 547.675 131.034 547.017L131 547.085C131.335 547.068 131.666 547.051 132 547.043L131.98 547C131.926 547.667 131.868 548.333 131.81 549Z" fill="#AB750F"/>
<path id="Vector_44" d="M276.952 319C276.068 318.936 274.703 318.923 275.058 318.358C275.453 317.739 276.404 318.026 277 318.44C276.991 318.627 276.972 318.813 276.943 319H276.952Z" fill="#AB750F"/>
<path id="Vector_45" d="M167.89 555C167.599 554.746 167.113 554.537 167.038 554.239C166.854 553.423 167.372 552.949 168.106 553.004C168.861 553.059 169.164 553.71 168.915 554.383C168.807 554.68 168.246 554.802 167.89 555Z" fill="#AB750F"/>
<path id="Vector_46" d="M254 555.422C254.163 555.271 254.326 555 254.489 555C254.929 555 255.103 555.353 254.941 555.75C254.874 555.901 254.513 556.04 254.344 555.989C254.193 555.945 254.115 555.618 254.007 555.422H254Z" fill="#AB750F"/>
<path id="Vector_47" d="M230.458 331C230.092 330.899 229.917 330.631 230.039 330.286C230.092 330.143 230.383 329.989 230.551 330.001C230.93 330.036 231.075 330.358 230.964 330.697C230.918 330.839 230.633 330.899 230.458 331Z" fill="#AB750F"/>
<path id="Vector_48" d="M170.995 564.76C170.913 565.126 170.884 565.686 170.744 565.846C170.423 566.189 170.096 565.949 170.008 565.229C169.967 564.909 170.096 564.292 170.242 564.143C170.563 563.8 170.843 564.098 171 564.772L170.995 564.76Z" fill="#AB750F"/>
<path id="Vector_49" d="M292.941 343.143C292.963 343.759 292.978 344.376 293 345C292.406 344.865 291.811 344.737 291.209 344.602C291.253 344.338 291.179 344.113 291 343.917C291.053 343.609 291.097 343.301 291.134 343C291.737 343.053 292.339 343.098 292.941 343.143Z" fill="#AB750F"/>
<path id="Vector_50" d="M116.996 569C116.666 568.975 116.331 568.951 116 568.926C116 568.279 116 567.639 116 567C116.331 567 116.658 567 116.988 567C116.988 567.664 116.996 568.328 117 568.992L116.996 569Z" fill="#AB750F"/>
<path id="Vector_51" d="M224.936 346C225.785 346.09 226.65 346.127 227 347.09L226.891 347.179C226.564 347.455 226.229 347.724 225.902 348L225.45 347.985H224.998C224.663 347.657 224.336 347.321 224 346.993C224.312 346.664 224.624 346.328 224.936 346Z" fill="#AB750F"/>
<path id="Vector_52" d="M90.0047 570.089C90.3387 570.061 90.6686 570.028 90.9985 570C91.0026 570.377 91.0277 570.885 90.6853 570.975C90.1216 571.126 90.0548 570.57 90.0005 570.089H90.0047Z" fill="#AB750F"/>
<path id="Vector_53" d="M176.574 574C176.724 574.161 177 574.321 177 574.482C177 574.922 176.655 575.106 176.254 574.939C176.097 574.874 175.965 574.511 176.009 574.333C176.047 574.184 176.373 574.107 176.574 574Z" fill="#AB750F"/>
<path id="Vector_54" d="M45.9037 585C45.1485 584.943 44.1222 584.992 44.0157 584.255C43.8512 583.138 45.0517 583.113 46.0005 583C45.9714 583.664 45.9424 584.336 45.9133 585H45.9037Z" fill="#AB750F"/>
<path id="Vector_55" d="M34.9754 586.303C34.9754 586.77 34.9921 587.238 35.0005 587.705C34.331 587.803 33.6616 587.902 33.0005 588C33.0005 587.336 33.0005 586.672 33.0089 586C33.6699 586.098 34.3227 586.197 34.9754 586.295V586.303Z" fill="#AB750F"/>
<path id="Vector_56" d="M301 590.32C301.053 589.379 300.863 588.121 301.557 588.019L301.549 588C301.698 588.55 301.851 589.09 302 589.64V589.882C301.706 590.255 301.416 590.627 301.121 591C301.166 590.693 301.121 590.469 301 590.32Z" fill="#AB750F"/>
<path id="Vector_57" d="M158 590.16C158.67 590.104 159.33 590.047 160 590C160 590.755 160.05 591.774 159.364 591.953C158.235 592.245 158.109 591.123 158 590.17V590.16Z" fill="#AB750F"/>
<path id="Vector_58" d="M173.908 596C173.047 595.865 171.713 595.874 172.056 594.724C172.426 593.492 173.371 594.041 174 594.832C173.973 595.218 173.945 595.614 173.917 596H173.908Z" fill="#AB750F"/>
<path id="Vector_59" d="M370.797 635C371.114 635.262 371.46 635.511 371.754 635.785C372.1 636.107 372.07 636.509 371.739 636.776C371.046 637.348 370.662 636.673 370.293 636.411C369.743 636.022 370.12 635.493 370.21 635.018C370.406 635.067 370.609 635.061 370.805 635H370.797Z" fill="#AB750F"/>
<path id="Vector_60" d="M1.13479 466.937C0.794836 465.208 1.11107 464.692 1.96096 465.169L1.9491 465.13C1.95305 465.443 1.96886 465.764 2.00049 466.069V466.085C1.81075 466.39 1.621 466.695 1.43522 467L1.29291 466.859L1.13874 466.93L1.13479 466.937Z" fill="#AB750F"/>
<path id="Vector_61" d="M386.026 301.976C386.017 301.322 386.009 300.66 386 300.006C386.404 299.965 386.761 300.127 387 300.829C386.828 301.217 386.656 301.604 386.479 302L386.253 301.968H386.026V301.976Z" fill="#AB750F"/>
<path id="Vector_62" d="M35.9589 304.098C35.8421 304.414 36.3632 304.879 35.4289 304.996C35.0695 305.038 34.5754 304.768 34.1442 304.642H34.0005C34.4856 304.428 34.9707 304.214 35.4558 304C35.5726 304.112 35.7343 304.144 35.9589 304.098Z" fill="#AB750F"/>
<path id="Vector_63" d="M42.0034 305C41.9792 304.191 42.1043 303.511 42.4111 303C42.6089 303.332 42.8027 303.664 43.0005 303.996C42.9722 304.294 42.9642 304.6 42.9763 304.898L42.0034 305Z" fill="#AB750F"/>
<path id="Vector_64" d="M22.0112 485C22.0014 484.58 21.923 484.024 22.3981 484C22.7997 483.983 22.976 484.444 23.0005 484.929C22.6724 484.953 22.3393 484.976 22.0112 485Z" fill="#AB750F"/>
<path id="Vector_65" d="M302.181 333L302 331.913C302.143 331.669 302.234 331.402 302.256 331.118C302.512 331.071 302.767 331.031 303.023 331C303.346 331.386 303.677 331.772 304 332.165C303.933 332.331 303.933 332.504 303.985 332.677C303.384 332.787 302.782 332.898 302.181 333Z" fill="#AB750F"/>
<path id="Vector_66" d="M282.495 503C282.662 503.341 282.833 503.682 283 504.023L282.499 505L282.491 504.984C282.331 504.667 282.172 504.349 282.012 504.039L282 504.015C282 503.69 282.008 503.364 282.008 503.039C282.168 503.015 282.327 503.008 282.487 503H282.495Z" fill="#AB750F"/>
<path id="Vector_67" d="M361.009 365.484C361.442 365.076 362.091 364.775 362.835 365.222C363.285 365.497 362.74 365.815 362.134 366C361.753 365.828 361.381 365.656 361 365.484H361.009Z" fill="#AB750F"/>
<path id="Vector_68" d="M242.992 524.921C242.15 524.961 241.146 525.345 241 523.961L241.017 523.937C241.389 523.624 241.754 523.312 242.126 523C242.393 523 242.66 523 242.928 523C242.936 523.648 242.952 524.297 242.96 524.945L243 524.921H242.992Z" fill="#AB750F"/>
<path id="Vector_69" d="M18.0412 525.969C18.322 525.625 18.5123 524.519 18.9153 525.238C19.0104 525.4 19.0286 526.152 18.9561 526.442C18.7025 527.408 18.3311 526.861 18.0005 526.699C18.0911 526.485 18.1047 526.237 18.0412 525.969Z" fill="#AB750F"/>
<path id="Vector_70" d="M355.013 529C354.957 528.155 355.081 527.478 355.445 527C355.629 527.343 355.817 527.693 356 528.036C355.985 528.291 355.981 528.546 355.993 528.801C355.669 528.865 355.341 528.936 355.017 529H355.013Z" fill="#AB750F"/>
<path id="Vector_71" d="M217 532C216.672 531.888 216.115 531.88 216.056 531.639C215.804 530.618 216.467 530.361 216.959 530C216.977 530.667 216.989 531.333 217 532Z" fill="#AB750F"/>
<path id="Vector_72" d="M92.4428 694C92.0874 693.608 91.8176 692.992 92.1549 692.314C92.4922 691.636 92.7981 692.163 93.0005 692.876C92.8161 693.251 92.6272 693.625 92.4428 694Z" fill="#AB750F"/>
<path id="Vector_73" d="M18.6654 538.93C17.6826 538.088 17.9677 537.079 18.3878 536.044L18.4778 536C19.1905 536.947 19.108 537.965 18.6278 539L18.6654 538.921V538.93Z" fill="#AB750F"/>
<path id="Vector_74" d="M116.009 201.984C116.009 201.815 116.005 201.645 116 201.476C116.173 201.315 116.346 201.157 116.514 201C116.975 201.185 117.008 201.581 117 202C116.671 201.996 116.338 201.988 116.009 201.984Z" fill="#AB750F"/>
<path id="Vector_75" d="M67.3568 208.033L67.7778 208C68.1827 208.344 68.5956 208.689 69.0005 209.033C68.9519 209.287 68.9438 209.549 68.9762 209.803C68.3203 209.869 67.6645 209.934 67.0086 210H67.0005C67.1219 209.336 67.2434 208.68 67.3649 208.033H67.3568Z" fill="#AB750F"/>
<path id="Vector_76" d="M232 241.998C231.227 242.023 230.543 241.83 230 241.293C230.427 240.865 230.854 240.437 231.28 240L231.76 240.025C231.84 240.688 231.912 241.343 231.992 241.998H232Z" fill="#AB750F"/>
<path id="Vector_77" d="M301.994 428.694C301.802 428.804 301.592 429.031 301.429 428.996C301.032 428.914 300.894 428.537 301.086 428.138C301.146 428.015 301.519 427.953 301.646 428.042C301.814 428.166 301.886 428.468 302 428.694H301.994Z" fill="#AB750F"/>
<path id="Vector_78" d="M159.526 589C159.351 588.683 159.176 588.357 159 588.04C159.012 587.69 159.024 587.349 159.039 587C159.358 587.032 159.678 587.063 160 587.095C159.989 587.889 159.942 588.635 159.526 589Z" fill="#AB750F"/>
<path id="Vector_79" d="M124.952 696C124.302 695.914 123.659 695.828 123.009 695.75C123.073 695.562 123.073 695.367 123 695.18C123.354 694.789 123.699 694.391 124.053 694C124.286 694.023 124.527 694.023 124.76 694.008C124.84 694.648 124.92 695.297 125 695.937L124.952 696Z" fill="#AB750F"/>
<path id="Vector_80" d="M180.007 589.028C180.149 588.989 180.291 588.989 180.433 589.036C180.433 589.652 180.578 589.94 180.845 589.948C180.897 590.08 180.949 590.221 181 590.361C180.942 590.556 180.904 590.774 180.883 591C180.63 590.977 180.381 590.945 180.129 590.922C180.087 590.291 180.042 589.667 180 589.036L180.011 589.021L180.007 589.028Z" fill="#AB750F"/>
<path id="Vector_81" d="M57.0167 438.927C57.0005 438.618 57.0005 438.309 57.0005 438C57.3582 437.667 57.7159 437.341 58.0737 437.008L58.0411 437.049L58.5046 437.073L58.968 437.057V437C58.9842 437.667 58.9924 438.333 59.0005 439C58.3338 438.967 57.6672 438.943 57.0005 438.927H57.0167Z" fill="#AB750F"/>
<path id="Vector_82" d="M278 593.139C278.636 592.72 279.068 591.892 279.981 592.012C280.123 593.548 279.476 594.194 278.041 593.95C278.115 593.676 278.098 593.403 278 593.139Z" fill="#AB750F"/>
<path id="Vector_83" d="M255 443.341C254.892 443.566 254.84 443.904 254.667 443.984C254.507 444.057 254.231 443.864 254 443.785C254.129 443.56 254.212 443.288 254.392 443.129C254.648 442.89 254.885 442.996 255 443.341Z" fill="#AB750F"/>
<path id="Vector_84" d="M257 273.045C257.176 272.699 257.348 272.346 257.524 272C257.684 272.03 257.84 272.053 258 272.068V273.045C257.844 273.353 257.688 273.662 257.532 273.97L257.516 274C257.344 273.677 257.172 273.361 257 273.038V273.045Z" fill="#AB750F"/>
<path id="Vector_85" d="M20.0171 275.008C20.681 275.378 21.3449 275.739 22.0005 276.108C21.8926 276.309 21.8843 276.51 21.9839 276.719C21.32 276.815 20.6644 276.904 20.0005 277C20.0171 276.333 20.0337 275.667 20.0503 275L20.0254 275.016L20.0171 275.008Z" fill="#AB750F"/>
<path id="Vector_86" d="M346 451.882C346.264 451.177 346.6 450.489 346.937 451.538C347.131 452.14 346.851 452.751 346.505 453C346.337 452.63 346.169 452.252 346 451.882Z" fill="#AB750F"/>
<path id="Vector_87" d="M111.97 682.143C111.939 682.439 111.947 682.726 112 683.021C111.554 683.35 111.108 683.671 110.662 684C110.439 683.679 110.224 683.359 110 683.038C110.031 682.692 110.062 682.346 110.108 682H110.1C110.724 682.051 111.347 682.101 111.97 682.143Z" fill="#AB750F"/>
<path id="Vector_88" d="M148 459.859C148.199 459.158 148.507 458.655 148.841 459.293C149.18 459.94 148.922 460.569 148.597 461C148.398 460.623 148.199 460.236 148 459.859Z" fill="#AB750F"/>
<path id="Vector_89" d="M129 634L127 633.847C127.75 632.773 128.436 632.612 129 634Z" fill="#AB750F"/>
<path id="Vector_90" d="M302.888 633C302.386 633 301.877 632.789 302.027 631.758C302.199 630.517 302.634 631.051 303 631.597C302.941 632.056 302.903 632.528 302.888 633Z" fill="#AB750F"/>
<path id="Vector_91" d="M169.025 177C169.025 176.34 169.009 175.688 169 175.029C169.331 174.996 169.661 174.988 169.992 175.02C169.992 175.375 169.992 175.729 169.992 176.091C170.016 176.396 169.992 176.702 169.895 177H169.46H169.025Z" fill="#AB750F"/>
<path id="Vector_92" d="M165.013 185C165.673 185.016 166.341 185.024 167 185.04C167 185.328 167 185.616 166.984 185.904C166.324 185.936 165.673 185.968 165.013 186C164.996 185.664 164.996 185.336 165.013 185Z" fill="#AB750F"/>
<path id="Vector_93" d="M88.0086 187.038C88.6698 187.031 89.3311 187.015 90.0005 187C90.0005 187.331 90.0005 187.669 90.0005 188C89.3392 187.954 88.6779 187.908 88.0166 187.862C88.0166 187.585 88.0086 187.308 88.0005 187.031L88.0086 187.038Z" fill="#AB750F"/>
<path id="Vector_94" d="M43.8736 623C43.9184 623.667 43.9557 624.333 44.0005 625C43.6647 625 43.3363 624.992 43.0005 624.984C43.0378 624.317 43.0826 623.659 43.1199 623C43.3736 623.016 43.6199 623.016 43.8736 623Z" fill="#AB750F"/>
<path id="Vector_95" d="M151.357 194C151.24 193.332 151.117 192.673 151 192.005C152.867 191.911 151.558 193.229 151.506 193.991H151.357V194Z" fill="#AB750F"/>
<path id="Vector_96" d="M212.003 197.009C212.325 197.15 212.648 197.29 212.97 197.43L213 197.57C212.669 197.72 212.338 197.86 212.007 198C211.998 197.664 211.998 197.336 212.007 197L212.003 197.009Z" fill="#AB750F"/>
<path id="Vector_97" d="M210.644 210C210.071 209.233 209.394 208.45 211 208C210.878 208.667 210.756 209.333 210.644 210Z" fill="#AB750F"/>
<path id="Vector_98" d="M50.0218 216C49.9612 215.15 49.9612 214.333 51.0005 214C51.0005 214.817 50.9399 215.608 50.0218 216Z" fill="#AB750F"/>
<path id="Vector_99" d="M120.013 223.142C120.342 223.097 120.671 223.045 121 223V224C120.667 223.948 120.334 223.896 120 223.843C120.013 223.612 120.017 223.381 120.013 223.142Z" fill="#AB750F"/>
<path id="Vector_100" d="M161 228.016C161.673 228.016 162.337 228 163 228V229C162.337 228.976 161.664 228.96 161 228.944C161 228.635 161 228.325 161 228.024V228.016Z" fill="#AB750F"/>
<path id="Vector_101" d="M244.887 239C243.805 238.635 243.569 238.293 245 238C244.96 238.333 244.927 238.667 244.887 239Z" fill="#AB750F"/>
<path id="Vector_102" d="M106.024 243C106.72 243.053 107.107 243.487 106.975 244.274C106.89 244.796 106.465 245.009 106 245C106 244.336 106.016 243.672 106.024 243Z" fill="#AB750F"/>
<path id="Vector_103" d="M393.832 251C393.126 250.881 392.686 250.593 393.275 250.061C393.495 249.865 393.852 250.18 394 250.433C393.903 250.613 393.845 250.804 393.832 251Z" fill="#AB750F"/>
<path id="Vector_104" d="M184.017 252.13L184.992 252C184.992 252.336 185 252.664 185 253C184.666 252.931 184.335 252.863 184 252.786C184.017 252.573 184.021 252.351 184.017 252.13Z" fill="#AB750F"/>
<path id="Vector_105" d="M113.009 264.008C113.656 264.061 114.312 264.114 114.96 264.167C114.96 264.379 114.968 264.591 115 264.803L113 265C113 264.667 113 264.333 113 264L113.009 264.008Z" fill="#AB750F"/>
<path id="Vector_106" d="M106 266.065C106.332 266.04 106.664 266.024 106.996 266C107.004 266.331 107 266.661 106.992 267C106.664 266.968 106.332 266.935 106.005 266.903C106.005 266.621 106.005 266.347 106.005 266.065H106Z" fill="#AB750F"/>
<path id="Vector_107" d="M133 271C133 270.333 133 269.667 133.009 269C133.328 269 133.648 269 133.968 269C133.976 269.667 133.984 270.333 134 270.992H133.501H133V271Z" fill="#AB750F"/>
<path id="Vector_108" d="M260 270.039C260.331 270.031 260.662 270.016 261 270C260.993 270.663 260.985 271.326 260.977 271.988C260.654 272.02 260.339 271.988 260.032 271.887C260.024 271.271 260.008 270.655 260 270.031V270.039Z" fill="#AB750F"/>
<path id="Vector_109" d="M264.029 277C264.029 276.667 264.01 276.333 264 276C265.338 276.325 265.32 276.663 264.029 277Z" fill="#AB750F"/>
<path id="Vector_110" d="M101 279C101.326 279.077 101.651 279.161 101.98 279.238C101.968 279.399 101.972 279.559 102 279.72L101.005 280C101.005 279.664 101.005 279.336 101 279Z" fill="#AB750F"/>
<path id="Vector_111" d="M69.0005 290C69.01 289.665 69.0289 289.331 69.0384 289C70.3085 289.343 70.3465 289.677 69.0005 290Z" fill="#AB750F"/>
<path id="Vector_112" d="M341.157 289.016C342.249 289.078 342.023 289.551 341.873 290C341.408 289.955 341.182 289.743 341 289.49C341.07 289.331 341.126 289.167 341.17 289L341.151 289.012L341.157 289.016Z" fill="#AB750F"/>
<path id="Vector_113" d="M44.568 611C44.715 611.667 44.8534 612.333 45.0005 613C43.3656 612.804 44.1787 611.809 44.3863 611.009H44.568V611Z" fill="#AB750F"/>
<path id="Vector_114" d="M194 300C193.964 300.664 193.927 301.328 193.89 302C192.673 301.281 192.7 300.617 194 300Z" fill="#AB750F"/>
<path id="Vector_115" d="M383.051 301.299C383.827 301.152 384.806 300.416 385 302H384.992C384.325 301.861 383.667 301.723 383 301.576L383.051 301.299Z" fill="#AB750F"/>
<path id="Vector_116" d="M306 608.947C305.334 608.962 304.667 608.985 304 609V608C304.667 608.038 305.334 608.076 306 608.114C306 608.389 306 608.672 306 608.947Z" fill="#AB750F"/>
<path id="Vector_117" d="M2.00763 316.996C2.07192 316.671 2.14335 316.341 2.20763 316.016C2.41477 316.028 2.62192 316.024 2.82192 316C2.87906 316.329 2.94335 316.659 3.00049 316.992L2.00049 317L2.00763 316.996Z" fill="#AB750F"/>
<path id="Vector_118" d="M381.008 317.968C381.03 317.328 381.06 316.68 381.082 316.04C381.326 316.04 381.563 316.024 381.808 316C381.875 316.664 381.941 317.336 382 318C381.667 317.992 381.334 317.976 381 317.968H381.008Z" fill="#AB750F"/>
<path id="Vector_119" d="M107 320C107.67 320 108.339 320.008 109 320.016C109 320.328 109 320.64 108.992 320.952L107.009 321C107.009 320.664 107.009 320.336 107.009 320H107Z" fill="#AB750F"/>
<path id="Vector_120" d="M67.0005 336V334C68.3338 334.669 68.3338 335.331 67.0005 336Z" fill="#AB750F"/>
<path id="Vector_121" d="M74.0005 337.802C73.7048 337.86 73.4091 337.911 73.1133 337.975C72.5842 338.084 72.2884 337.815 72.0005 337.519C72.3662 337.346 72.7164 337.115 73.1055 337.018C73.3701 336.954 73.697 337.076 73.9927 337.121C73.9538 337.352 73.9538 337.577 73.9927 337.808L74.0005 337.802Z" fill="#AB750F"/>
<path id="Vector_122" d="M18.0005 338C18.6672 338.021 19.3338 338.05 20.0005 338.071C19.6753 338.383 19.3582 338.695 19.033 339C18.4883 338.823 18.1224 338.511 18.0005 338Z" fill="#AB750F"/>
<path id="Vector_123" d="M170 351.008C170.337 351.008 170.669 351.008 171 351.008C171 351.336 171 351.656 171 351.975C170.669 351.984 170.332 351.992 170 352C170 351.664 170 351.328 170 351V351.008Z" fill="#AB750F"/>
<path id="Vector_124" d="M306 353.992C306.024 353.331 306.057 352.661 306.081 352C306.329 352.016 306.577 352.024 306.825 352.016C306.881 352.669 306.944 353.331 307 353.984C306.664 353.984 306.336 353.984 306 354V353.992Z" fill="#AB750F"/>
<path id="Vector_125" d="M265 602C264.967 602.667 264.942 603.333 264.909 604C263.753 603.285 263.612 602.61 265 602Z" fill="#AB750F"/>
<path id="Vector_126" d="M254.949 602.679C254.302 602.789 253.664 602.899 253.017 603C253 602.67 252.991 602.33 253.017 602C253.681 602.128 254.336 602.248 255 602.376L254.949 602.67V602.679Z" fill="#AB750F"/>
<path id="Vector_127" d="M61.4218 357C61.3082 356.7 61.1945 356.391 61.0809 356.09C60.8465 355.498 61.1661 355 61.5071 355C61.8409 355 62.1605 355.489 61.9119 356.082C61.7841 356.382 61.6846 356.691 61.571 356.991H61.4218V357Z" fill="#AB750F"/>
<path id="Vector_128" d="M84.0037 359C84.672 359.009 85.3322 359.027 86.0005 359.035C86.0005 359.336 85.9923 359.646 85.9923 359.947C85.3322 359.965 84.672 359.982 84.02 360C83.9955 359.673 83.9956 359.336 84.0119 359.009L84.0037 359Z" fill="#AB750F"/>
<path id="Vector_129" d="M361.008 360.024C361.668 360.016 362.328 360.008 362.988 360C363.005 360.333 363.005 360.667 362.988 361C362.328 360.976 361.669 360.951 361 360.935C361 360.634 361 360.333 361 360.033L361.008 360.024Z" fill="#AB750F"/>
<path id="Vector_130" d="M198.984 366C197.959 365.886 197.928 365.465 198.051 365C199.161 365.092 198.999 365.57 198.984 366Z" fill="#AB750F"/>
<path id="Vector_131" d="M0.000978229 367C1.05548 367.322 1.04698 368.149 0.970441 369C0.0860183 368.595 -0.00752583 367.826 0.000978229 367Z" fill="#AB750F"/>
<path id="Vector_132" d="M215.203 385C215.179 384.288 214.685 383.044 215.334 383.003C216.555 382.923 215.705 384.278 215.805 385H215.504H215.203Z" fill="#AB750F"/>
<path id="Vector_133" d="M110.067 389C110.042 388.331 110.025 387.661 110 387C111.43 387.62 111.214 388.298 110.067 389Z" fill="#AB750F"/>
<path id="Vector_134" d="M178.009 395.079C178.675 395.056 179.334 395.024 180 395C180 395.333 180 395.667 180 396C179.334 395.976 178.667 395.96 178 395.929C178 395.643 178 395.357 178.009 395.079Z" fill="#AB750F"/>
<path id="Vector_135" d="M7.00049 406C7.33247 406.008 7.6685 406.016 8.00049 406.031C8.00049 406.328 8.00049 406.617 7.99644 406.906C7.66446 406.938 7.33247 406.969 7.00049 407C7.00049 406.664 7.00049 406.328 7.00049 406Z" fill="#AB750F"/>
<path id="Vector_136" d="M87.0005 407.992C87.0005 407.328 87.0005 406.664 87.0084 406C87.318 406 87.6354 406 87.9449 406C87.9608 406.664 87.9846 407.328 88.0005 408C87.6672 408 87.3338 408 87.0005 408V407.992Z" fill="#AB750F"/>
<path id="Vector_137" d="M209.077 411.383C209.718 411.252 210.359 411.121 211 411C211 411.336 210.992 411.664 210.983 412C210.325 411.879 209.659 411.766 209 411.645L209.077 411.383Z" fill="#AB750F"/>
<path id="Vector_138" d="M7.00049 416C5.5796 415.366 5.77745 414.691 6.93754 414C6.95552 414.667 6.9825 415.333 7.00049 416Z" fill="#AB750F"/>
<path id="Vector_139" d="M268.005 416.024L269 416C269 416.333 269 416.667 269 417C268.666 416.992 268.335 416.984 268 416.976C268 416.659 268 416.341 268 416.024H268.005Z" fill="#AB750F"/>
<path id="Vector_140" d="M269 419C269.034 418.668 269.059 418.332 269.093 418C270.212 418.358 270.423 418.698 269 419Z" fill="#AB750F"/>
<path id="Vector_141" d="M3.14222 423C3.09498 422.336 3.04773 421.664 3.00049 421L4.00049 421.016C3.95324 421.672 3.89813 422.336 3.85089 422.992L3.49655 422.976L3.13435 422.992L3.14222 423Z" fill="#AB750F"/>
<path id="Vector_142" d="M271 425C269.523 424.444 269.87 423.75 270.835 423C270.893 423.669 270.943 424.331 271 425Z" fill="#AB750F"/>
<path id="Vector_143" d="M213.076 425.041C213.455 424.973 214.02 424.912 214 425.546C213.985 426.067 213.384 426.029 213 425.961C213.046 425.659 213.071 425.35 213.081 425.041H213.076Z" fill="#AB750F"/>
<path id="Vector_144" d="M262.005 427C262.335 427.008 262.67 427.015 263 427.023C263 427.308 263 427.592 262.992 427.877C262.662 427.915 262.331 427.962 262 428C262 427.669 262 427.331 262 427H262.005Z" fill="#AB750F"/>
<path id="Vector_145" d="M53.4084 430.975C53.2776 430.653 53.1467 430.331 53.0236 430.013L53.0005 430.021L53.47 430H53.9472C54.1396 430.386 53.7702 430.686 53.4854 431L53.4084 430.975Z" fill="#AB750F"/>
<path id="Vector_146" d="M58.9151 443C58.9436 443.332 58.972 443.668 59.0005 444C57.7108 443.684 57.6539 443.352 58.9151 443Z" fill="#AB750F"/>
<path id="Vector_147" d="M34.9824 444.096C35.0065 444.4 35.0065 444.696 34.9824 445C34.3217 444.978 33.6611 444.948 33.0005 444.926C33.3308 444.615 33.6692 444.311 33.9995 444C34.3217 444.037 34.6521 444.067 34.9743 444.104L34.9824 444.096Z" fill="#AB750F"/>
<path id="Vector_148" d="M49.0166 449.083L50.9702 449C51.0106 449.331 51.0106 449.669 50.9702 450C50.3163 449.95 49.6624 449.901 49.0005 449.851C49.0086 449.595 49.0086 449.339 49.0005 449.083H49.0166Z" fill="#AB750F"/>
<path id="Vector_149" d="M203.076 451C203.048 450.339 203.021 449.686 203 449.025C203.301 449.017 203.595 449.008 203.896 449C204.101 449.966 204.087 450.797 203.083 451H203.076Z" fill="#AB750F"/>
<path id="Vector_150" d="M295.017 449C295.677 449 296.337 449.008 296.997 449.016C296.997 449.317 297.005 449.619 296.997 449.929C296.337 449.952 295.669 449.976 295 450C295 449.667 295 449.333 295.009 449.008L295.017 449Z" fill="#AB750F"/>
<path id="Vector_151" d="M116.005 450.142C116.338 450.095 116.671 450.047 117 450C117 450.331 117 450.669 117 451C116.667 450.945 116.334 450.882 116 450.827C116.013 450.598 116.013 450.37 116.005 450.134V450.142Z" fill="#AB750F"/>
<path id="Vector_152" d="M7.02057 452C7.34989 452.052 7.67519 452.097 8.00049 452.149C7.99246 452.373 7.99246 452.597 8.00049 452.821C7.67519 452.881 7.34989 452.94 7.02459 453L7.01655 452.985C7.01254 452.672 7.0045 452.351 7.00049 452.037L7.01655 452H7.02057Z" fill="#AB750F"/>
<path id="Vector_153" d="M13.0005 452C12.9854 452.667 12.9627 453.333 12.9475 454C11.9563 453.707 11.926 452.902 12.0546 452.016C12.3724 452.016 12.6903 452.008 13.0005 452Z" fill="#AB750F"/>
<path id="Vector_154" d="M343 453C343.67 453.033 344.331 453.066 345 453.098C344.993 453.369 344.993 453.639 345 453.91C344.363 453.943 343.725 453.967 343.087 454C343.064 453.672 343.04 453.336 343 453Z" fill="#AB750F"/>
<path id="Vector_155" d="M193 456C192.96 456.667 192.92 457.333 192.88 458C192.624 457.969 192.376 457.969 192.12 458C192.08 457.333 192.04 456.667 192 456C192.336 456 192.664 456 193 456Z" fill="#AB750F"/>
<path id="Vector_156" d="M73.0005 460C73.0241 459.336 73.0399 458.664 73.0714 458C73.3391 458 73.6068 458 73.8745 458C73.9139 458.664 73.9611 459.328 74.0005 460C73.6698 460 73.3312 460 73.0005 460Z" fill="#AB750F"/>
<path id="Vector_157" d="M263 460C263 459.331 263.009 458.669 263.018 458C263.334 458 263.642 458 263.958 458L264 459.984H263.505H263.009L263 460Z" fill="#AB750F"/>
<path id="Vector_158" d="M357 461C357.67 461 358.331 461.016 359 461.024C359 461.347 359 461.661 359 461.984C358.339 461.984 357.67 462 357.009 462C357 461.669 357 461.331 357.009 461H357Z" fill="#AB750F"/>
<path id="Vector_159" d="M99.0248 467C99.6645 467.044 100.304 467.089 100.944 467.141C100.944 467.363 100.96 467.585 101 467.807C100.328 467.874 99.6645 467.941 99.0005 468C99.0005 467.667 99.0167 467.333 99.0248 467Z" fill="#AB750F"/>
<path id="Vector_160" d="M110 585C109.918 585.667 109.845 586.333 109.763 587C108.876 586.232 108.538 585.523 110 585Z" fill="#AB750F"/>
<path id="Vector_161" d="M162.213 487.967C162.142 487.311 162.071 486.664 162 486.008H162.008C162.339 486.008 162.67 486.008 162.993 486H163C162.922 486.672 162.835 487.336 162.756 488L162.489 487.959H162.213V487.967Z" fill="#AB750F"/>
<path id="Vector_162" d="M96.0005 489.017C96.3365 489.017 96.6685 489.008 97.0005 489C97.0005 489.331 97.0005 489.669 97.0005 490C96.6685 489.992 96.3365 489.975 96.0045 489.967C96.0045 489.653 96.0005 489.331 96.0045 489.008L96.0005 489.017Z" fill="#AB750F"/>
<path id="Vector_163" d="M346.037 494.717C346.21 493.135 346.565 492.867 346.988 493.05C346.988 493.7 346.996 494.35 347 495C346.666 494.887 346.335 494.788 346 494.675L346.037 494.717Z" fill="#AB750F"/>
<path id="Vector_164" d="M148.968 583C148.312 582.954 147.664 582.908 147.009 582.863C147.033 582.641 147.033 582.427 147 582.206C147.656 582.137 148.32 582.069 148.976 582L149 582.031C149 582.351 148.984 582.679 148.976 583H148.968Z" fill="#AB750F"/>
<path id="Vector_165" d="M61.9538 497C60.7123 496.309 60.6376 495.643 62.0005 495C61.9818 495.667 61.9725 496.333 61.9538 497Z" fill="#AB750F"/>
<path id="Vector_166" d="M55.0005 581.904C54.3338 581.939 53.6672 581.965 53.0005 582C53.6102 580.626 54.285 580.739 55.0005 581.904Z" fill="#AB750F"/>
<path id="Vector_167" d="M80.194 505C80.1321 504.339 80.0624 503.678 80.0005 503.017L80.0237 503C80.3488 503.017 80.6662 503.025 80.9913 503.041C81.0377 503.843 80.9293 504.57 80.194 504.992V505Z" fill="#AB750F"/>
<path id="Vector_168" d="M75.0122 504C75.3406 504.009 75.669 504.018 75.9974 504.027C76.0015 504.327 76.0015 504.637 75.9974 504.938C75.669 504.956 75.3366 504.973 75.0082 505C74.996 504.664 75.0001 504.336 75.0082 504H75.0122Z" fill="#AB750F"/>
<path id="Vector_169" d="M246.005 504C246.335 504.043 246.67 504.08 247 504.123C246.812 504.892 246.434 505.037 246 504.993C246 504.66 246 504.326 246.005 504Z" fill="#AB750F"/>
<path id="Vector_170" d="M70.0005 511.074C70.3871 510.979 71.0056 510.866 71.0005 511.505C70.9953 512.161 70.3871 512.014 70.0005 511.902C70.0005 511.626 70.0005 511.341 70.0005 511.065V511.074Z" fill="#AB750F"/>
<path id="Vector_171" d="M111.206 518C111.137 517.333 111.069 516.667 111 516C112.385 516.543 112.214 517.235 111.206 518Z" fill="#AB750F"/>
<path id="Vector_172" d="M249 520C249.038 519.333 249.065 518.667 249.102 518C250.28 518.715 250.354 519.382 249 520Z" fill="#AB750F"/>
<path id="Vector_173" d="M195.035 528.381C195.861 528.075 196.809 527.464 196.957 529L197 528.968C196.331 528.855 195.67 528.735 195 528.622L195.035 528.389V528.381Z" fill="#AB750F"/>
<path id="Vector_174" d="M328 537.046C328.667 537.028 329.334 537.009 330 537C329.358 538.339 328.692 538.312 328 537.046Z" fill="#AB750F"/>
<path id="Vector_175" d="M192.01 540.308C192.374 540.226 192.739 540.158 193.093 540.06C193.812 539.872 194.09 540.143 193.975 540.655C193.889 541.039 193.515 541.076 193.074 540.896C192.748 540.76 192.365 540.707 192 540.617V540.316L192.01 540.308Z" fill="#AB750F"/>
<path id="Vector_176" d="M139.007 542.041C139.271 542.025 139.535 542.017 139.799 542C139.868 542.355 139.931 542.719 140 543.074C139.667 543.38 139.334 543.694 139 544C139 543.347 139 542.694 139.007 542.041Z" fill="#AB750F"/>
<path id="Vector_177" d="M313.928 562.007C314.031 562.775 314.117 564 313.496 564C312.884 564 312.97 562.775 313.074 562.007C313.358 561.998 313.643 561.998 313.928 562.007Z" fill="#AB750F"/>
<path id="Vector_178" d="M311.015 566.006C311.406 566.097 312.025 565.699 312 566.677C312 566.801 311.362 566.892 311.015 567C310.996 566.669 310.996 566.337 311.015 566.006Z" fill="#AB750F"/>
<path id="Vector_179" d="M237 571C237.05 570.667 237.108 570.333 237.158 570C238.166 570.374 238.447 570.72 237 571Z" fill="#AB750F"/>
<path id="Vector_180" d="M286.051 570.992C286.034 570.666 286.017 570.335 286 570.009C286.331 569.997 286.662 569.997 287 570.009C287 570.339 287 570.67 287 571H286.526H286.051V570.992Z" fill="#AB750F"/>
<path id="Vector_181" d="M167.316 576C167.205 575.333 167.103 574.667 167 574C168.62 574.156 167.819 575.186 167.682 575.983L167.324 576H167.316Z" fill="#AB750F"/>
<path id="Vector_182" d="M244 709.002C243.976 709.671 243.96 710.331 243.935 711C243.659 711 243.374 711 243.098 711C243.066 710.339 243.033 709.679 243 709.018C243.334 708.994 243.667 708.994 244 709.018V709.002Z" fill="#AB750F"/>
<path id="Vector_183" d="M153 707.008C152.953 707.667 152.914 708.325 152.867 708.976C152.63 708.976 152.394 708.976 152.158 709C152.103 708.333 152.056 707.667 152 707C152.331 707 152.662 707 153 707V707.008Z" fill="#AB750F"/>
<path id="Vector_184" d="M144.993 684.008C144.953 684.336 144.906 684.664 144.867 684.988C144.638 684.988 144.402 684.988 144.174 685L144 684.008L144.016 684C144.347 684.004 144.67 684.008 145 684.012L144.993 684.008Z" fill="#AB750F"/>
<path id="Vector_185" d="M130 675.101C129.293 676.233 128.618 676.399 128 675C128.667 675.028 129.334 675.064 130 675.101Z" fill="#AB750F"/>
<path id="Vector_186" d="M110 669.057C109.309 670.3 108.643 670.347 108 669C108.667 669.019 109.334 669.038 110 669.057Z" fill="#AB750F"/>
<path id="Vector_187" d="M193 668C194.349 668.083 193.986 669.108 193.86 670L193.89 669.975C193.601 669.975 193.319 669.942 193.045 669.858C193.03 669.242 193.015 668.617 193 668Z" fill="#AB750F"/>
<path id="Vector_188" d="M39.7841 663.016C39.8587 663.678 39.9259 664.339 40.0005 665C39.6647 665 39.3363 664.992 39.0005 664.984C39.0751 664.322 39.1423 663.661 39.2094 663C39.396 663.041 39.5826 663.049 39.7766 663.025L39.7841 663.016Z" fill="#AB750F"/>
<path id="Vector_189" d="M10.0005 658.974C9.33489 658.974 8.66928 658.991 8.0118 659C7.99557 658.664 7.99557 658.328 8.01992 658C8.6774 658.009 9.33488 658.017 9.98425 658.026C10.0005 658.345 10.0005 658.655 10.0005 658.974Z" fill="#AB750F"/>
<path id="Vector_190" d="M214.976 649.066C214.888 649.694 214.799 650.314 214.71 650.942L214.363 651C214.242 650.339 214.121 649.678 214 649.017L214.025 649C214.355 649.008 214.678 649.041 215 649.091L214.968 649.066H214.976Z" fill="#AB750F"/>
<path id="Vector_191" d="M49.7505 648.074C49.8367 648.719 49.9143 649.364 50.0005 650H49.5005H49.0005C49.0608 649.331 49.1298 648.669 49.1901 648C49.3626 648.083 49.5522 648.107 49.7419 648.074H49.7505Z" fill="#AB750F"/>
<path id="Vector_192" d="M53.8175 642C53.8785 642.669 53.9395 643.339 54.0005 644C52.5975 643.446 52.7979 642.752 53.8175 642Z" fill="#AB750F"/>
<path id="Vector_193" d="M140.007 641C141.258 641.091 141.055 642.041 140.839 643C139.924 642.711 139.993 641.835 140.007 641Z" fill="#AB750F"/>
<path id="Vector_194" d="M238 168C238.657 168.008 238.993 168.341 239 169C238.415 168.922 238.079 168.589 238 168Z" fill="#AB750F"/>
<path id="Vector_195" d="M260.998 181C261.031 181.69 260.707 182.03 260 181.998C260.05 181.389 260.383 181.057 260.998 181Z" fill="#AB750F"/>
<path id="Vector_196" d="M102.037 184.086C102.353 184.003 102.677 183.978 103 184.02C102.984 184.667 102.677 185.024 102.004 184.999C101.995 184.692 102.004 184.385 102.029 184.086H102.037Z" fill="#AB750F"/>
<path id="Vector_197" d="M226 205.005C226.722 204.951 227.043 205.298 226.996 206C226.385 205.946 226.055 205.607 226 205.005Z" fill="#AB750F"/>
<path id="Vector_198" d="M106 206C105.887 206.561 105.553 206.886 105 207C105.122 206.455 105.464 206.122 106 206Z" fill="#AB750F"/>
<path id="Vector_199" d="M131 206.004C131.539 205.987 132.134 205.987 131.974 206.677C131.936 206.838 131.35 206.898 131.019 207C131.01 206.668 131 206.336 131 206.004Z" fill="#AB750F"/>
<path id="Vector_200" d="M200.025 217C200.357 217.105 200.933 217.158 200.972 217.316C201.138 217.991 200.542 217.991 200.015 218C199.996 217.667 199.996 217.333 200.015 217H200.025Z" fill="#AB750F"/>
<path id="Vector_201" d="M11.9911 235C10.6578 234.661 10.6828 234.33 11.9911 234C12.0036 234.33 12.0036 234.67 11.9911 235Z" fill="#AB750F"/>
<path id="Vector_202" d="M5.98391 270C5.65242 269.836 5.33198 269.673 5.00049 269.5C5.33198 269.336 5.65242 269.173 5.98391 269C6.00601 269.327 6.00601 269.664 5.98391 269.991V270Z" fill="#AB750F"/>
<path id="Vector_203" d="M261.993 270C261.66 270 261.327 270 261.002 270C260.979 269.272 261.312 268.956 261.97 269.005C261.97 269.337 261.985 269.66 262 269.992L261.993 270Z" fill="#AB750F"/>
<path id="Vector_204" d="M24.0768 280.034C24.379 280.01 24.6892 279.994 24.9993 280.002C25.0232 280.696 24.6892 281.023 24.0053 280.999C23.9894 280.672 24.0132 280.353 24.0768 280.034Z" fill="#AB750F"/>
<path id="Vector_205" d="M29.985 297C29.4533 296.991 28.855 296.963 29.0323 296.327C29.0766 296.168 29.6527 296.103 29.974 296C30.0072 296.327 30.0072 296.664 29.985 296.991V297Z" fill="#AB750F"/>
<path id="Vector_206" d="M174 327C174 326.664 174 326.336 174 326C174.331 326 174.67 326 175 326C175 326.32 175 326.632 174.992 326.944C174.662 327 174.339 327.008 174.009 326.992L174 327Z" fill="#AB750F"/>
<path id="Vector_207" d="M155.009 338C154.968 337.313 155.293 336.97 156 337.002C156 337.337 155.968 337.657 155.87 337.968C155.578 337.992 155.293 338 155 337.992L155.009 338Z" fill="#AB750F"/>
<path id="Vector_208" d="M21.9996 345C21.6665 344.835 21.3335 344.67 21.0005 344.505C21.3335 344.339 21.6561 344.165 21.9787 344C21.9996 344.33 22.01 344.67 21.9891 345H21.9996Z" fill="#AB750F"/>
<path id="Vector_209" d="M206.009 344.008C206.651 344.024 206.976 344.358 207 345C206.675 345 206.35 344.967 206.025 344.886C206.009 344.593 206 344.301 206 344L206.009 344.008Z" fill="#AB750F"/>
<path id="Vector_210" d="M253.991 347.036C253.882 347.359 253.822 347.939 253.664 347.972C253.01 348.139 253.03 347.526 253 347.025C253.337 346.992 253.664 346.992 254 347.025L253.991 347.036Z" fill="#AB750F"/>
<path id="Vector_211" d="M333 347C332.976 347.625 332.654 347.977 332 348C332.089 347.437 332.42 347.094 333 347Z" fill="#AB750F"/>
<path id="Vector_212" d="M71.0005 350C71.3314 350.171 71.6623 350.334 72.0005 350.505C71.7652 350.912 71.4343 351.074 71.0078 350.969C71.0078 350.643 71.0005 350.326 71.0078 350H71.0005Z" fill="#AB750F"/>
<path id="Vector_213" d="M259.017 354.989C259.017 354.349 259.299 353.97 260 354.002C259.992 354.302 259.976 354.602 259.96 354.902C259.646 355.005 259.331 355.028 259 354.965L259.017 354.989Z" fill="#AB750F"/>
<path id="Vector_214" d="M156.015 358C156.585 358 157.156 358.073 156.962 358.67C156.916 358.835 156.346 358.89 156.026 359C155.992 358.67 155.992 358.339 156.026 358.009L156.015 358Z" fill="#AB750F"/>
<path id="Vector_215" d="M200.033 363C200.357 363.111 200.93 363.176 200.974 363.343C201.136 363.991 200.53 363.991 200 364C200 363.667 200 363.333 200.033 363.009V363Z" fill="#AB750F"/>
<path id="Vector_216" d="M220.023 368C220.542 368 221.141 368 220.971 368.682C220.931 368.845 220.352 368.9 220.023 369C219.993 368.664 219.993 368.336 220.023 368Z" fill="#AB750F"/>
<path id="Vector_217" d="M22.0318 396.904C22.0005 396.601 21.9927 396.306 22.0083 396.002C22.6896 395.97 23.0498 396.274 22.995 397C22.674 397 22.3529 396.976 22.0318 396.904Z" fill="#AB750F"/>
<path id="Vector_218" d="M97.0087 401.006C97.3386 400.989 97.6603 401.006 97.9819 401.084C98.0067 401.386 98.0067 401.698 97.9819 402C97.3964 401.957 97.0665 401.628 97.0005 401.015L97.0087 401.006Z" fill="#AB750F"/>
<path id="Vector_219" d="M147 409.013C146.982 409.518 147.01 410.136 146.318 409.974C146.159 409.933 146.103 409.357 146 409.023C146.337 408.992 146.664 408.992 147 409.023V409.013Z" fill="#AB750F"/>
<path id="Vector_220" d="M295 416.009C295.326 415.985 295.651 416.009 295.968 416.073C295.984 416.385 296 416.696 296 417C295.342 416.984 295.033 416.632 295 416.001V416.009Z" fill="#AB750F"/>
<path id="Vector_221" d="M322.036 452C322.37 452.111 322.944 452.166 322.975 452.333C323.132 453.007 322.537 453.007 322.005 452.998C321.994 452.665 322.005 452.333 322.025 452H322.036Z" fill="#AB750F"/>
<path id="Vector_222" d="M388 483.001C388.716 482.977 389.017 483.345 389 484C388.38 483.935 388.052 483.591 388 483.001Z" fill="#AB750F"/>
<path id="Vector_223" d="M69.068 485C69.637 485.008 70.177 485.116 69.9456 485.736C69.8877 485.893 69.3284 485.917 69.0005 486C69.0294 485.669 69.0487 485.331 69.0583 485H69.068Z" fill="#AB750F"/>
<path id="Vector_224" d="M69.0005 491.977C69.3483 490.597 69.6787 490.747 70.0005 492C69.6701 492 69.3396 492 69.0005 491.977Z" fill="#AB750F"/>
<path id="Vector_225" d="M189 492C189.648 492.053 189.952 492.402 190 493C189.424 492.886 189.112 492.538 189 492Z" fill="#AB750F"/>
<path id="Vector_226" d="M214.93 494C214.377 493.983 213.823 493.881 214.055 493.271C214.115 493.11 214.668 493.085 215 493C214.97 493.331 214.95 493.669 214.94 494H214.93Z" fill="#AB750F"/>
<path id="Vector_227" d="M49.0011 509.009C49.3277 508.985 49.6544 509.009 49.9729 509.075C49.9974 509.385 50.0056 509.696 49.9974 509.998C49.3114 510.03 48.9847 509.696 49.0011 509.001V509.009Z" fill="#AB750F"/>
<path id="Vector_228" d="M107 680C107.107 679.439 107.435 679.106 108 679C107.869 679.528 107.541 679.87 107 680Z" fill="#AB750F"/>
<path id="Vector_229" d="M45.0005 679C45.6159 679.024 45.9774 679.328 46.0005 680C45.4543 679.904 45.1005 679.592 45.0005 679Z" fill="#AB750F"/>
<path id="Vector_230" d="M239.979 639C239.649 638.826 239.33 638.661 239 638.487C239.33 638.322 239.671 638.157 240 638C240 638.33 240 638.67 239.979 639Z" fill="#AB750F"/>
<path id="Vector_231" d="M238.022 666C238.352 666.097 238.903 666.142 238.958 666.301C239.167 666.876 238.562 666.92 238.055 667C238 666.664 237.989 666.336 238.011 666H238.022Z" fill="#AB750F"/>
<path id="Vector_232" d="M240.969 665C240.638 664.893 240.069 664.83 240.028 664.67C239.862 664.018 240.483 664.027 241 664C241 664.33 241 664.67 240.98 665H240.969Z" fill="#AB750F"/>
<path id="Vector_233" d="M140 602C140.559 602.121 140.892 602.452 141 603C140.45 602.879 140.125 602.532 140 602Z" fill="#AB750F"/>
<path id="Vector_234" d="M46.0005 660C46.6389 660.016 46.9851 660.328 47.0005 661C46.4313 660.914 46.0851 660.594 46.0005 660Z" fill="#AB750F"/>
<path id="Vector_235" d="M136 574C135.448 573.901 135.122 573.562 135.009 573H135C135.334 573 135.667 573.008 135.992 573.05C135.992 573.364 135.992 573.686 135.992 574H136Z" fill="#AB750F"/>
<path id="Vector_236" d="M111.976 592.926L111.492 593H111C111.041 592.372 111.361 592.025 112 592C112 592.306 112 592.62 111.976 592.926Z" fill="#AB750F"/>
<path id="Vector_237" d="M35.0392 657C35.3571 657.184 35.6827 657.368 36.0005 657.552C35.6672 657.704 35.3338 657.848 35.0005 658C35.0237 657.664 35.0392 657.336 35.0392 657Z" fill="#AB750F"/>
<path id="Vector_238" d="M307 568.984L306.51 569L306.028 568.928C306.004 568.622 305.995 568.308 306.004 568.002C306.698 567.97 307 568.332 307 568.984Z" fill="#AB750F"/>
<path id="Vector_239" d="M249 682C249.651 682 250 682.309 250 683C249.413 682.927 249.072 682.602 249 682Z" fill="#AB750F"/>
<path id="Vector_240" d="M15.9303 557.024C15.9874 557.35 16.0118 557.675 15.9955 558C15.4083 557.919 15.0657 557.594 15.0005 557C15.3104 557 15.6203 557.008 15.9303 557.024Z" fill="#AB750F"/>
<path id="Vector_241" d="M39.9808 651.916C39.6595 651.991 39.33 652.016 39.0005 651.991C39.0417 651.358 39.3712 651.025 39.9973 651C40.0055 651.308 39.9973 651.608 39.9808 651.916Z" fill="#AB750F"/>
<path id="Vector_242" d="M28.0005 547C28.334 547.091 28.8931 547.124 28.9519 547.281C29.1677 547.9 28.6282 548.008 28.0495 548C28.0495 547.669 28.0299 547.33 28.0103 547H28.0005Z" fill="#AB750F"/>
<path id="Vector_243" d="M370 638.992C369.272 639.062 369.009 638.668 369 638.003C369.693 637.96 369.974 638.353 370 638.992Z" fill="#AB750F"/>
<path id="Vector_244" d="M316.991 567.018C317.037 567.365 316.918 567.698 316.312 567.918C316.092 567.997 315.615 568.028 315.376 567.971C314.596 567.782 315.238 567.584 315.459 567.404C315.624 567.259 315.862 567.132 316.074 567H316.542L317 567.022L316.991 567.018Z" fill="#AB750F"/>
<path id="Vector_245" d="M317 563.07C316.907 563.634 316.802 564.199 315.493 563.931C315.294 563.888 314.978 563.729 315.002 563.663C315.271 562.99 316.042 562.917 316.977 563.062L317 563.07Z" fill="#AB750F"/>
<path id="Vector_246" d="M313 568.931C313.242 568.624 313.473 568.307 313.714 568C314.457 568.98 313.583 568.891 313.031 569L313 568.931Z" fill="#AB750F"/>
<path id="Vector_247" d="M317 567L316.512 566.936H316.015C315.946 566.3 316.112 565.834 316.786 566.056C316.932 566.099 316.932 566.671 317 567Z" fill="#AB750F"/>
<path id="Vector_248" d="M19.9274 529C20.0579 529.391 20.0579 529.984 19.5514 530C18.9759 530.015 18.9376 529.452 19.0527 529.056C19.3443 529.061 19.6358 529.046 19.9274 529.005V529Z" fill="#AB750F"/>
<path id="Vector_249" d="M19.8922 528.92C19.6004 528.983 19.3163 529.006 19.0169 528.999C18.917 528.225 19.2779 527.934 19.9843 528.012C20.0227 528.32 19.992 528.62 19.8999 528.92H19.8922Z" fill="#AB750F"/>
<path id="Vector_250" d="M24.8424 308.788C24.2069 308.804 23.2753 309.408 23.0402 308.503C22.8138 307.614 23.5887 306.818 24.5203 307.036C25.4171 307.254 24.7728 308.193 24.825 308.813L24.8424 308.788Z" fill="#AB750F"/>
<path id="Vector_251" d="M288.908 573.992C288.108 573.881 287.782 573.364 288.153 572.346C288.303 571.939 288.524 571.914 288.732 572.151C289.233 572.703 288.875 573.381 288.895 574H288.901L288.908 573.992Z" fill="#AB750F"/>
<path id="Vector_252" d="M143 282.98C142.671 282.818 142.33 282.667 142 282.505C142.186 282.333 142.361 282.172 142.547 282C142.691 282.333 142.836 282.667 142.97 283L143 282.97V282.98Z" fill="#AB750F"/>
<path id="Vector_253" d="M66.0224 285.513C66.1611 284.922 65.7668 284.099 67.0665 284.004C67.5776 283.964 67.8478 284.257 67.877 284.589C67.9208 285.09 68.3078 285.772 67.4389 285.986C67.0665 286.082 66.4824 285.665 66.0005 285.485L66.0224 285.513Z" fill="#AB750F"/>
<path id="Vector_254" d="M51.0507 488C51.34 488.032 51.6253 488.063 51.9147 488.103C51.9473 488.829 52.2122 489.878 51.609 489.988C50.8388 490.131 50.9977 488.931 51.0507 488Z" fill="#AB750F"/>
<path id="Vector_255" d="M283.022 430.08C283.455 429.908 283.816 429.99 283.997 430.557C284.026 430.656 283.867 430.971 283.78 430.989C283.289 431.07 283.08 430.692 283 430.143L283.022 430.08Z" fill="#AB750F"/>
<path id="Vector_256" d="M225.212 412C225.399 412.024 225.586 412.024 225.773 412.008C225.831 413.216 226.27 414.431 225.747 416C224.554 414.62 225.128 413.263 225.212 412Z" fill="#AB750F"/>
<path id="Vector_257" d="M360 498.875C360.03 498.576 360.075 498.278 360.12 497.98C360.611 497.855 360.908 497.518 361.02 497C362.456 497.447 362.099 498.184 361.318 499C360.879 498.961 360.44 498.922 360 498.882V498.875Z" fill="#AB750F"/>
<path id="Vector_258" d="M363 495C363.541 495.121 363.863 495.468 364 496C363.468 495.871 363.146 495.524 363 495Z" fill="#AB750F"/>
<path id="Vector_259" d="M17.0325 293C17.6692 293 18.0671 293.473 17.9913 294.898C16.9833 295.153 16.9416 295.07 17.0325 293Z" fill="#AB750F"/>
<path id="Vector_260" d="M16.992 297.771C16.6338 297.78 16.1604 298.568 16.0112 297.168C15.9429 296.518 16.2158 296.119 16.4376 296.036C17.1028 295.776 16.9365 296.982 17.0005 297.761L16.992 297.78V297.771Z" fill="#AB750F"/>
<path id="Vector_261" d="M30.0005 370.345C29.8059 370.571 29.6235 370.79 29.4411 371C29.2831 370.891 28.9669 370.748 29.0034 370.664C29.0885 370.429 29.3074 370.218 29.4776 370C29.6479 370.109 29.8059 370.219 30.0005 370.336V370.345Z" fill="#AB750F"/>
<path id="Vector_262" d="M17.0005 306.535C16.8924 306.682 16.7482 307.033 16.6536 306.998C16.4239 306.913 16.2167 306.661 16.0005 306.478C16.2212 306.31 16.4329 306.072 16.6627 306.002C16.7482 305.973 16.8834 306.345 16.996 306.528L17.0005 306.535Z" fill="#AB750F"/>
<path id="Vector_263" d="M41.9545 259.11C41.9391 259.391 41.9545 259.665 42.0005 259.93C41.7282 260.305 41.6094 261.359 41.1569 260.875C41.0342 260.742 40.9613 260.008 41.0227 259.665C41.1914 258.72 41.6055 259.04 41.9545 259.102V259.11Z" fill="#AB750F"/>
<path id="Vector_264" d="M126.944 432.009C126.958 432.736 127.203 433.564 126.549 433.993C126.454 434.058 126.073 433.667 126.032 433.415C125.869 432.41 126.366 432.14 126.965 432.028L126.944 432V432.009Z" fill="#AB750F"/>
<path id="Vector_265" d="M127.966 435.984L127.483 436L127 435.984C127.099 435.423 127.426 435.106 127.982 435C128.007 435.325 128.007 435.65 127.982 435.976L127.966 435.984Z" fill="#AB750F"/>
<path id="Vector_266" d="M98.0457 439C97.993 438.664 97.9824 438.336 98.0352 438C98.5835 438.008 99.153 438.084 98.9632 438.664C98.9105 438.824 98.3621 438.891 98.0457 439Z" fill="#AB750F"/>
<path id="Vector_267" d="M104.023 300.992C103.94 300.509 104.073 300.125 104.628 300.002C104.727 299.979 105.009 300.186 105 300.263C104.942 300.777 104.537 300.954 104.04 301H104.015L104.023 300.992Z" fill="#AB750F"/>
<path id="Vector_268" d="M18.0755 310.014C17.969 309.673 17.9772 309.341 18.0919 309C19.3379 309.184 18.9936 310.124 18.8297 310.972L18.4526 311L18.0755 310.972C18.051 310.65 18.051 310.327 18.0755 310.005V310.014Z" fill="#AB750F"/>
<path id="Vector_269" d="M111 590.024C110.967 590.545 110.791 590.962 110.271 591C110.179 591 109.977 590.716 110.003 590.621C110.145 590.062 110.531 589.939 111 590.024Z" fill="#AB750F"/>
<path id="Vector_270" d="M175.069 596C175.048 595.665 175.021 595.335 175 595C175.5 595 176.014 595 176 595.43C175.987 595.785 175.617 595.955 175.076 596H175.069Z" fill="#AB750F"/>
<path id="Vector_271" d="M17.0316 386.048C17.6517 386.181 18.1523 386.486 17.958 387.449C17.9057 387.687 17.5023 388.059 17.4201 387.992C16.7851 387.516 17.0615 386.705 17.054 386L17.0316 386.038V386.048Z" fill="#AB750F"/>
<path id="Vector_272" d="M173.008 389.843C173.32 389.229 173.632 388.614 173.936 388C174.624 388.197 175.136 388.622 174.968 389.294C174.696 390.413 173.736 389.872 173 389.85L173.008 389.843Z" fill="#AB750F"/>
<path id="Vector_273" d="M134.653 668C134.439 667.827 134.224 667.655 134 667.47C134.108 667.31 134.24 666.977 134.331 667.001C134.562 667.075 134.777 667.297 135 667.457C134.893 667.618 134.786 667.79 134.653 667.988V668Z" fill="#AB750F"/>
<path id="Vector_274" d="M142.987 559.519C142.894 559.675 142.8 559.844 142.72 560C142.48 559.831 142.24 559.649 142 559.468C142.174 559.312 142.347 559.156 142.52 559C142.68 559.169 142.84 559.338 143 559.519H142.987Z" fill="#AB750F"/>
<path id="Vector_275" d="M39.5216 528C39.6901 528.224 39.9147 528.448 39.999 528.681C40.027 528.767 39.662 528.888 39.4794 529C39.3109 528.776 39.0863 528.552 39.002 528.319C38.9739 528.233 39.339 528.112 39.5216 528Z" fill="#AB750F"/>
<path id="Vector_276" d="M28.9521 643.168C28.9682 643.726 28.9844 644.283 29.0005 644.841C28.1372 644.902 26.8462 645.529 27.0156 643.787C27.1286 642.585 28.2178 643.099 28.9601 643.168H28.9521Z" fill="#AB750F"/>
<path id="Vector_277" d="M254.266 644.015C254.436 644.015 254.645 643.962 254.749 644.055C255.167 644.374 255.062 644.746 254.449 644.998C254.371 645.025 254.084 644.706 254.006 644.493C253.966 644.374 254.162 644.175 254.253 644.015H254.266Z" fill="#AB750F"/>
<path id="Vector_278" d="M383 537.542C382.823 537.708 382.633 538.013 382.469 538C382.304 537.986 382.152 537.653 382 537.458C382.178 537.292 382.368 536.987 382.532 537C382.697 537 382.849 537.347 383 537.542Z" fill="#AB750F"/>
<path id="Vector_279" d="M153 384.511C152.916 384.678 152.832 384.844 152.735 385C152.494 384.833 152.241 384.656 152 384.489C152.169 384.322 152.338 384.167 152.507 384C152.663 384.167 152.832 384.344 152.988 384.511H153Z" fill="#AB750F"/>
<path id="Vector_280" d="M38.8839 323C38.287 322.976 37.6979 322.943 37.101 322.919C37.0622 322.161 36.6591 321.118 37.7986 321.012C39.2483 320.873 39.0545 322.006 38.8839 323Z" fill="#AB750F"/>
<path id="Vector_281" d="M189.131 569C189.729 569.025 190.32 569.05 190.918 569.074C190.926 569.817 191.353 570.872 190.18 570.988C188.581 571.136 189.04 569.907 189.131 569Z" fill="#AB750F"/>
<path id="Vector_282" d="M223 598.032C223.33 598.183 223.66 598.333 224 598.495C223.819 598.667 223.637 598.828 223.444 599C223.307 598.667 223.171 598.333 223.035 598L223 598.032Z" fill="#AB750F"/>
<path id="Vector_283" d="M97.9673 264C97.9784 264.336 97.9894 264.664 98.0005 265C96.6951 264.695 96.6508 264.359 97.9673 264Z" fill="#AB750F"/>
<path id="Vector_284" d="M99.0005 264.976L98.5208 265H98.0411C98.033 264.661 98.0167 264.331 98.0005 264C98.5858 264.087 98.9029 264.417 98.9924 264.976H99.0005Z" fill="#AB750F"/>
<path id="Vector_285" d="M379.996 468C380.334 468 380.663 468 381 468C380.992 468.331 380.984 468.657 380.976 468.988L379 469C379.338 468.669 379.667 468.335 380.004 468H379.996Z" fill="#AB750F"/>
<path id="Vector_286" d="M281.953 561C281.635 561.339 281.318 561.661 281 562C281.048 561.79 281.032 561.484 281.175 561.371C281.397 561.194 281.715 561.145 282 561.032L281.969 561H281.953Z" fill="#AB750F"/>
<path id="Vector_287" d="M22.0567 471C21.9886 470.67 21.9789 470.33 22.047 470C22.3681 470.165 22.6794 470.33 23.0005 470.496C22.6891 470.661 22.3778 470.835 22.0664 471H22.0567Z" fill="#AB750F"/>
<path id="Vector_288" d="M197 565C197.656 565.016 197.944 565.38 198 565.998C197.304 566.03 197.024 565.642 197 565Z" fill="#AB750F"/>
<path id="Vector_289" d="M152 585.034C152.337 585.225 152.664 585.427 153 585.619C152.103 586.541 152.164 585.574 152.031 585L152 585.034Z" fill="#AB750F"/>
<path id="Vector_290" d="M323 427C323.077 426.412 323.39 426.059 324 426C323.933 426.597 323.602 426.933 323 427Z" fill="#AB750F"/>
<path id="Vector_291" d="M128 475C128.15 474.664 128.29 474.336 128.44 474C128.62 474.178 128.81 474.364 129 474.542C128.67 474.692 128.33 474.841 128 475Z" fill="#AB750F"/>
<path id="Vector_292" d="M54.9579 636C54.8196 636.33 54.692 636.67 54.5643 637C54.3728 636.83 54.192 636.66 54.0005 636.5C54.3303 636.35 54.6707 636.19 55.0005 636.04L54.9579 636.01V636Z" fill="#AB750F"/>
<path id="Vector_293" d="M135.24 356.009C135.432 356.095 135.624 356.104 135.824 356.026C135.8 356.805 136.592 358 135 358C135.08 357.333 135.16 356.667 135.248 356L135.24 356.009Z" fill="#AB750F"/>
<path id="Vector_294" d="M168.011 558.011C168.344 558.212 168.667 558.401 169 558.602C168.032 559.593 168.198 558.479 168.021 558L168 558.022L168.011 558.011Z" fill="#AB750F"/>
<path id="Vector_295" d="M17.0005 316.244C16.7205 316.308 16.5541 316.551 16.5095 317C15.3409 316.026 16.5257 315.641 16.7043 315C17.0492 315.269 16.9112 315.827 17.0005 316.244Z" fill="#AB750F"/>
<path id="Vector_296" d="M266 644C266 643.331 266.014 642.669 266.02 642C266.507 642.099 267 642.215 267 643.017C267 643.826 266.48 643.901 266.007 644H266Z" fill="#AB750F"/>
<path id="Vector_297" d="M61.0005 446C60.8838 446.545 60.5588 446.893 60.0005 447C60.1088 446.438 60.4338 446.099 61.0005 446Z" fill="#AB750F"/>
<path id="Vector_298" d="M160 251.112C159.631 251.408 159.269 251.704 158.9 252C158.135 251.97 157.362 251.963 157 251.194C157.286 250.846 157.58 250.506 157.866 250.158C158.799 250.091 160.017 249.507 160 251.112Z" fill="#AB750F"/>
<path id="Vector_299" d="M367.97 552C368.011 552.336 368.011 552.664 367.97 553C367.641 552.897 367.087 552.836 367.035 552.672C366.851 552.052 367.436 552.017 367.97 552Z" fill="#AB750F"/>
<path id="Vector_300" d="M20.0005 633.246C20.755 633.03 21.5574 632.465 22.0005 634.4C21.222 634.809 20.3358 635.975 20.0005 633.246Z" fill="#AB750F"/>
<path id="Vector_301" d="M2.83421 309.991C2.22564 309.932 1.61707 309.864 1.00049 309.804C1.02451 309.243 1.04853 308.673 1.07255 308.112C2.56996 307.772 3.37872 308.154 2.8262 310L2.83421 309.991Z" fill="#AB750F"/>
<path id="Vector_302" d="M323.975 563C324.009 563.331 324.009 563.661 323.975 564C323.654 563.831 323.321 563.67 323 563.509C323.321 563.339 323.642 563.17 323.975 563.008V563Z" fill="#AB750F"/>
<path id="Vector_303" d="M314 493.962L313.5 494L313 493.972C313.043 493.48 313.009 492.865 313.661 493.026C313.823 493.064 313.882 493.631 313.992 493.953L314 493.962Z" fill="#AB750F"/>
<path id="Vector_304" d="M184 192C183.659 191.985 183.325 191.92 183 191.81C183.017 191.204 183.042 190.606 183.059 190C184.234 190.35 183.95 191.234 184 192Z" fill="#AB750F"/>
<path id="Vector_305" d="M171.008 174.993C171.232 174.797 171.332 174.551 171.309 174.261C171.602 174.304 171.842 174.217 172.019 174C172.582 174.109 173.03 174.319 172.999 174.964C172.335 174.971 171.664 174.986 171 175L171.008 174.993Z" fill="#AB750F"/>
<path id="Vector_306" d="M170.015 174.028C170.337 174.028 170.653 174.014 170.975 174C171.097 175.521 170.782 176.182 170 175.957C170 175.309 170.008 174.676 170.015 174.028Z" fill="#AB750F"/>
<path id="Vector_307" d="M193 459.95L192.501 460C192.501 460 191.991 459.975 192.001 459.975C192.019 459.329 192.048 458.674 192.067 458.028C192.369 457.995 192.661 457.987 192.963 458.028C192.972 458.666 192.991 459.312 193 459.95Z" fill="#AB750F"/>
<path id="Vector_308" d="M91.9911 202C92.0408 202.827 91.9083 203.558 91.2291 204C91.1214 203.144 90.4753 202.01 91.9911 202Z" fill="#AB750F"/>
<path id="Vector_309" d="M258.933 310C259.008 310.868 259.218 311.818 258.141 312C258.086 311.141 257.571 310.008 258.933 310Z" fill="#AB750F"/>
<path id="Vector_310" d="M18.0005 310.011C17.9759 310.292 17.9759 310.573 18.0005 310.854C17.1972 311.272 17.0988 310.717 17.0005 310.147C17.3202 310.019 17.6562 309.978 18.0005 310.011Z" fill="#AB750F"/>
<path id="Vector_311" d="M26.988 334.112C27.0899 334.964 26.5407 335.378 26.3085 336C25.8102 335.877 25.1987 336.092 25.0005 335.14C25.5667 334.449 26.116 333.705 26.988 334.119V334.112Z" fill="#AB750F"/>
<path id="Vector_312" d="M125 697C124.984 697.413 124.935 697.814 124.003 698C123.987 697.579 124.003 697.17 125 697Z" fill="#AB750F"/>
<path id="Vector_313" d="M154.936 525.951L154.473 526L154 525.984C154 525.334 154.307 524.977 154.994 525.001C155.011 525.318 154.994 525.635 154.936 525.951Z" fill="#AB750F"/>
<path id="Vector_314" d="M190 556.316C189.972 556.857 189.944 557.398 189.916 557.939C189.292 557.962 188.675 557.977 188.057 558C188.04 557.428 188.023 556.857 188 556.285C188.669 555.896 189.338 555.904 190 556.316Z" fill="#AB750F"/>
<path id="Vector_315" d="M213 634.02C213.332 634.012 213.669 634.008 214 634C213.988 634.335 213.976 634.665 213.964 635C213.656 634.992 213.349 634.98 213.041 634.971C213.029 634.653 213.013 634.339 213 634.02Z" fill="#AB750F"/>
<path id="Vector_316" d="M60.0005 437.049C60.3368 436.984 60.6642 436.984 61.0005 437.049C60.9031 437.7 60.8146 438.35 60.7173 439H60.2483C60.1686 438.359 60.089 437.709 60.0005 437.059V437.049Z" fill="#AB750F"/>
<path id="Vector_317" d="M195 362H194.5H194C194 361.664 194 361.336 194 361C194.331 361 194.67 361 195 361C195 361.336 195 361.664 195 362Z" fill="#AB750F"/>
</g>
</g>
<g id="EXP">
<path id="Vector 388" d="M331.267 296V355.669H205.3C205.3 355.669 165.521 355.669 134.029 382.188C80.9228 426.909 74.3603 514.785 74.3603 514.785C74.3603 514.785 41.119 434.683 85.9626 360.641C125.113 295.999 200.327 296 200.327 296H331.267Z" fill="#AB750F" fill-opacity="0.1"/>
<path id="Vector 389" d="M331.266 481.635V418.651H137.343C137.343 418.651 100.549 440.281 100.549 495.366C100.548 591.028 158.89 596 158.89 596H331.266V541.304H188.724C188.724 541.304 163.124 541.42 144.602 524.9C126.08 508.381 125.741 481.635 125.741 481.635H331.266Z" fill="#AB750F" fill-opacity="0.1"/>
</g>
</g>
<defs>
<linearGradient id="paint0_linear_2250_89823" x1="255.097" y1="29.0909" x2="236.143" y2="29.7749" gradientUnits="userSpaceOnUse">
<stop stop-color="#A9860F"/>
<stop offset="1" stop-color="#FFC502"/>
</linearGradient>
<linearGradient id="paint1_linear_2250_89823" x1="138.904" y1="29.0909" x2="157.858" y2="29.7749" gradientUnits="userSpaceOnUse">
<stop stop-color="#A9860F"/>
<stop offset="1" stop-color="#FFC502"/>
</linearGradient>
<linearGradient id="paint2_linear_2250_89823" x1="45.4411" y1="17.1937" x2="1.84268" y2="20.8781" gradientUnits="userSpaceOnUse">
<stop stop-color="#D8A956"/>
<stop offset="1" stop-color="#AB750F"/>
</linearGradient>
<linearGradient id="paint3_linear_2250_89823" x1="348.06" y1="17.1937" x2="391.658" y2="20.8781" gradientUnits="userSpaceOnUse">
<stop stop-color="#D8A956"/>
<stop offset="1" stop-color="#AB750F"/>
</linearGradient>
<linearGradient id="paint4_linear_2250_89823" x1="224.519" y1="747.78" x2="379.263" y2="747.78" gradientUnits="userSpaceOnUse">
<stop stop-color="#D8A956"/>
<stop offset="0.711424" stop-color="#AB750F"/>
</linearGradient>
<linearGradient id="paint5_linear_2250_89823" x1="169.482" y1="747.78" x2="14.738" y2="747.78" gradientUnits="userSpaceOnUse">
<stop stop-color="#D8A956"/>
<stop offset="0.711424" stop-color="#AB750F"/>
</linearGradient>
<linearGradient id="paint6_linear_2250_89823" x1="196" y1="35.1106" x2="142" y2="35.1106" gradientUnits="userSpaceOnUse">
<stop stop-color="#FFC502"/>
<stop offset="1" stop-color="#FFC502" stop-opacity="0"/>
</linearGradient>
<linearGradient id="paint7_linear_2250_89823" x1="198" y1="35.1106" x2="251" y2="35.1106" gradientUnits="userSpaceOnUse">
<stop stop-color="#AB750F"/>
<stop offset="1" stop-color="#AB750F" stop-opacity="0"/>
</linearGradient>
<linearGradient id="paint8_linear_2250_89823" x1="313.54" y1="341.826" x2="313.54" y2="749.482" gradientUnits="userSpaceOnUse">
<stop stop-color="#D9D9D9" stop-opacity="0"/>
<stop offset="1" stop-color="#D8A956"/>
</linearGradient>
<linearGradient id="paint9_linear_2250_89823" x1="303.871" y1="587.561" x2="303.871" y2="789.221" gradientUnits="userSpaceOnUse">
<stop stop-color="#D9D9D9" stop-opacity="0"/>
<stop offset="1" stop-color="#D8A956"/>
</linearGradient>
</defs>
</svg>
