<svg width="393" height="576" viewBox="0 0 393 576" fill="none" xmlns="http://www.w3.org/2000/svg">
<g id="background-categories" clip-path="url(#clip0_3_5019)">
<rect width="393" height="576" fill="#212121"/>
<g id="glow" opacity="0.7" filter="url(#filter0_f_3_5019)">
<ellipse cx="196.5" cy="566.5" rx="196.5" ry="57.5" fill="url(#paint0_linear_3_5019)"/>
</g>
<g id="Dust">
<g id="Group" opacity="0.35">
<path id="Vector" d="M142.125 117.978C141.233 118.707 141.639 119.923 141.226 120.841C140.627 122.167 140.314 122.16 139.088 120.674L139.068 120.601C139.515 120.288 139.641 119.814 139.641 119.268C139.861 119.188 139.948 119.02 139.894 118.765C140.387 118.488 140.56 117.993 140.654 117.446L140.627 117.483C141.133 117.607 141.646 117.723 142.152 117.847L142.132 117.978H142.125Z" fill="#FFC502"/>
<path id="Vector_2" d="M135.571 198.521C135.651 198.827 135.731 199.133 135.811 199.439C135.818 200.03 135.825 200.612 135.838 201.203C135.778 201.538 135.718 201.88 135.658 202.215C135.092 202.463 134.526 202.536 133.953 202.252C133.906 201.297 133.86 200.343 133.813 199.396C133.926 199.112 133.946 198.82 133.886 198.514C134.086 198.347 134.146 198.128 134.073 197.866C134.333 197.756 134.592 197.647 134.852 197.538C135.092 197.866 135.332 198.201 135.571 198.529V198.521Z" fill="#FFC502"/>
<path id="Vector_3" d="M64.5124 211.257C64.1727 210.127 64.912 209.377 65.3117 208.503H65.325C65.6047 208.503 65.8778 208.51 66.1575 208.525C66.2108 208.809 66.2508 209.107 66.2707 209.406C66.3174 209.734 66.3573 210.069 66.3973 210.397C66.5971 210.681 66.7902 210.958 66.9901 211.242C66.9767 211.512 66.9634 211.789 66.9634 212.058C66.7037 212.131 66.4439 212.211 66.1908 212.313C65.8978 212.386 65.6047 212.466 65.3117 212.539C65.1785 212.379 65.1851 212.218 65.3316 212.073C65.2384 211.585 64.912 211.388 64.5191 211.264L64.5124 211.257Z" fill="#FFC502"/>
<path id="Vector_4" d="M261.379 169.394C262.504 169 263.244 169.233 263.157 170.749C263.117 171.492 263.037 172.228 262.971 172.964L262.99 172.942C262.178 173.088 261.998 172.126 261.425 171.849C261.559 171.572 261.512 171.339 261.279 171.157C261.319 170.559 261.359 169.962 261.399 169.365L261.379 169.394Z" fill="#FFC502"/>
<path id="Vector_5" d="M202.661 285.04C201.576 284.42 201.795 283.787 202.641 283.153C203.081 283.065 203.314 282.737 203.447 282.293C203.987 282.322 204.726 282.271 204.826 282.927C204.992 283.969 204.1 283.983 203.46 284.158C203.014 284.253 202.788 284.588 202.661 285.032V285.04Z" fill="#FFC502"/>
<path id="Vector_6" d="M197.233 373.496V373.452C198.065 374.749 198.365 375.98 196.853 376.971L196.88 377C196.493 376.177 195.847 375.434 196.214 374.377L196.107 374.509C196.48 374.173 196.86 373.838 197.233 373.503V373.496Z" fill="#FFC502"/>
<path id="Vector_7" d="M56.9197 137.948C56.7465 138.159 56.5467 138.348 56.4068 138.582C55.9939 139.266 55.4211 139.594 54.815 139.055C54.1823 138.487 54.5086 137.816 54.9549 137.248C55.1214 137.03 55.2746 136.804 55.4411 136.585L55.4144 136.6C56.1737 136.687 56.4068 137.511 56.9396 137.919L56.9197 137.955V137.948Z" fill="#FFC502"/>
<path id="Vector_8" d="M128.225 148.403C127.932 148.417 127.639 148.439 127.346 148.454C127.239 147.732 127.293 146.931 126.547 146.53C126.58 145.947 126.6 145.197 127.193 145.102C128.132 144.956 128.065 145.962 128.278 146.603C128.258 147.2 128.238 147.798 128.218 148.403H128.225Z" fill="#FFC502"/>
<path id="Vector_9" d="M299.116 208.423C298.756 208.423 298.396 208.423 298.037 208.423C297.937 207.847 297.837 207.264 297.744 206.689C298.29 206.397 298.842 206.113 299.389 205.822L299.362 205.8C299.602 206.383 299.835 206.966 300.075 207.549L300.175 207.483C299.822 207.796 299.469 208.11 299.116 208.416V208.423Z" fill="#FFC502"/>
<path id="Vector_10" d="M13.9805 164.111L13.9605 164.388C13.2212 164.992 12.4286 164.934 11.6161 164.628L11.716 164.73C11.4429 163.863 11.4562 162.996 11.7359 162.129L11.636 162.275C12.8016 162.289 13.4543 163.098 13.9738 164.111H13.9805Z" fill="#FFC502"/>
<path id="Vector_11" d="M83.5942 318.641C83.4144 316.893 83.1879 315.144 83.8406 313.439H84.0538C84.2735 315.217 85.3259 317.075 83.5942 318.641Z" fill="#FFC502"/>
<path id="Vector_12" d="M209.135 524.034C209.135 524.413 209.142 524.792 209.148 525.163C208.402 525.63 207.63 525.63 206.844 525.302L206.93 525.411C206.944 524.879 206.964 524.34 206.977 523.808L206.89 523.91C207.65 523.582 208.402 523.619 209.128 524.034H209.135Z" fill="#FFC502"/>
<path id="Vector_13" d="M147.913 492.669C147.587 492.392 147.227 492.159 146.947 491.838C146.554 491.387 146.228 490.775 146.834 490.316C147.38 489.9 147.826 490.352 148.119 490.906C148.046 491.489 147.98 492.079 147.913 492.662V492.669Z" fill="#FFC502"/>
<path id="Vector_14" d="M221.656 187.564C223.921 188.118 224.201 188.555 223.368 190.267C223.075 189.968 222.782 189.662 222.489 189.364H222.496C222.216 189.08 221.929 188.781 221.65 188.482L221.636 188.468C221.636 188.162 221.636 187.863 221.656 187.557V187.564Z" fill="#FFC502"/>
<path id="Vector_15" d="M360.071 336.12C359.924 336.921 359.785 337.73 359.638 338.531L359.685 338.502L358.193 337.657C358.206 337.249 358.226 336.841 358.239 336.433C358.486 336.345 358.706 336.207 358.899 336.01C359.292 336.047 359.685 336.083 360.078 336.12H360.071Z" fill="#FFC502"/>
<path id="Vector_16" d="M183.593 31.8606C183.586 33.0045 183.573 34.1484 183.566 35.2922C183.12 35.4088 182.793 35.3141 182.747 34.7312C182.707 33.9662 182.933 33.0847 181.994 32.7349C182.001 32.4289 182.014 32.1302 182.021 31.8242L181.981 31.8679C182.52 31.8679 183.06 31.8606 183.599 31.8606H183.593Z" fill="#FFC502"/>
<path id="Vector_17" d="M324.185 403.396C325.244 403.586 324.905 404.562 325.058 405.262C325.124 405.582 325.198 405.903 325.264 406.223L325.011 406.354L324.818 406.129C324.645 406.216 324.465 406.231 324.278 406.158C323.339 405.968 323.479 405.152 323.459 404.431C323.839 404.198 324.165 403.928 324.179 403.389L324.185 403.396Z" fill="#FFC502"/>
<path id="Vector_18" d="M37.2851 405.888V405.516C37.5382 405.13 37.7913 404.737 38.0444 404.351C39.4764 404.489 39.9959 405.05 38.837 406.405C38.3175 406.23 37.8046 406.063 37.2851 405.888Z" fill="#FFC502"/>
<path id="Vector_19" d="M346.278 318.643H346.012C345.865 318.074 345.719 317.506 345.572 316.938C345.745 316.77 345.818 316.566 345.799 316.311C346.331 316.165 346.858 316.012 347.39 315.859C347.377 316.486 347.364 317.105 347.35 317.732C346.991 318.031 346.638 318.337 346.278 318.635V318.643Z" fill="#FFC502"/>
<path id="Vector_20" d="M249.796 310.438C249.796 310.197 249.796 309.95 249.796 309.709C250.056 309.374 250.322 309.039 250.582 308.704H250.596C250.989 308.434 251.381 308.172 251.781 307.917L251.888 307.902C252.021 308.478 252.161 309.053 252.294 309.629L252.267 309.658C251.828 309.76 251.548 310.044 251.435 310.532C250.889 310.503 250.342 310.467 249.796 310.438Z" fill="#FFC502"/>
<path id="Vector_21" d="M138.123 379.667C137.856 380.213 137.483 380.628 136.91 380.286C136.497 380.045 136.584 379.557 136.764 379.142C136.93 378.756 137.123 378.377 137.31 377.991C137.583 377.976 137.863 377.955 138.136 377.94C138.136 378.516 138.136 379.091 138.129 379.667H138.123Z" fill="#FFC502"/>
<path id="Vector_22" d="M75.0557 258.818C74.8426 258.956 74.6095 259.233 74.4297 259.197C73.9701 259.095 73.8236 258.665 74.0833 258.25C74.1899 258.082 74.6095 257.973 74.7627 258.068C74.9359 258.177 74.9625 258.556 75.0557 258.818Z" fill="#FFC502"/>
<path id="Vector_23" d="M128.212 283.837C127.759 283.793 127.472 283.524 127.539 283.021C127.606 282.54 127.945 282.293 128.365 282.431C128.558 282.497 128.791 282.766 128.838 282.985C128.944 283.495 128.645 283.757 128.212 283.837Z" fill="#FFC502"/>
<path id="Vector_24" d="M217.447 10.8777C217.607 11.1473 217.633 11.4387 217.52 11.7375C217.574 11.9487 217.554 12.1527 217.467 12.3422C217.613 12.4879 217.64 12.6627 217.554 12.8522C217.067 12.364 216.501 12.5899 215.955 12.6336C215.928 12.0362 215.895 11.4387 215.868 10.8413C216.395 10.8486 216.914 10.8559 217.44 10.8632L217.447 10.8777Z" fill="#FFC502"/>
<path id="Vector_25" d="M209.168 305.047C208.549 304.966 207.823 304.915 207.956 303.968C208.042 303.371 208.649 303.305 209.148 303.269C209.155 303.859 209.161 304.449 209.168 305.047Z" fill="#FFC502"/>
<path id="Vector_26" d="M172.863 17.2448C172.583 17.2448 172.31 17.2448 172.03 17.2375C172.05 16.5891 171.664 16.3778 171.184 16.2685C171.184 15.9844 171.204 15.7002 171.231 15.4161C171.77 15.3869 172.31 15.3651 172.849 15.3359C173.888 15.9625 172.969 16.6037 172.863 17.2448Z" fill="#FFC502"/>
<path id="Vector_27" d="M169.599 24.8003C169.752 24.997 170.045 25.1937 170.045 25.3904C170.045 25.9223 169.679 26.1482 169.259 25.9442C169.1 25.864 168.953 25.4269 169.006 25.2156C169.053 25.0334 169.393 24.9387 169.606 24.8076L169.599 24.8003Z" fill="#FFC502"/>
<path id="Vector_28" d="M90.734 37.4994C90.5275 37.6305 90.2944 37.9001 90.1146 37.8637C89.6684 37.7617 89.5218 37.3464 89.7749 36.9384C89.8748 36.7781 90.2878 36.6761 90.441 36.7708C90.6075 36.8801 90.6408 37.2444 90.734 37.4994Z" fill="#FFC502"/>
<path id="Vector_29" d="M188.601 51.8308C188.588 51.226 188.574 50.6213 188.554 50.0166C189.194 50.0967 190.026 50.0457 189.88 51.1022C189.793 51.736 189.127 51.7943 188.601 51.8308Z" fill="#FFC502"/>
<path id="Vector_30" d="M38.6504 338.029C38.4506 338.182 38.2441 338.48 38.0643 338.466C37.5914 338.415 37.4049 338.007 37.6314 337.555C37.7246 337.373 38.1442 337.22 38.3174 337.3C38.4906 337.38 38.5439 337.774 38.6504 338.029Z" fill="#FFC502"/>
<path id="Vector_31" d="M169.273 82.9261C169.073 83.0791 168.866 83.3705 168.686 83.3487C168.227 83.2831 168.04 82.8751 168.247 82.4379C168.333 82.2631 168.753 82.1319 168.926 82.2121C169.099 82.2995 169.159 82.6784 169.273 82.9261Z" fill="#FFC502"/>
<path id="Vector_32" d="M71.1393 86.3719C71.1792 85.7745 71.2259 85.024 71.8319 84.9512C72.8243 84.8273 72.7377 85.7526 72.7777 86.4812C72.2316 86.4448 71.6854 86.4083 71.1326 86.3792L71.1393 86.3719Z" fill="#FFC502"/>
<path id="Vector_33" d="M336.427 89.4976C336.607 89.585 336.927 89.6287 337.013 89.8036C337.213 90.197 337.067 90.5977 336.667 90.7143C336.494 90.7653 336.141 90.605 336.061 90.4301C335.888 90.0513 335.981 89.6724 336.427 89.4976Z" fill="#FFC502"/>
<path id="Vector_34" d="M72.7846 348.951C71.972 348.564 71.9254 347.792 71.9787 346.976C73.2575 347.129 73.9635 347.574 72.7846 348.951Z" fill="#FFC502"/>
<path id="Vector_35" d="M270.45 351.536C270.443 350.939 270.476 350.189 271.049 350.079C271.975 349.897 272.041 350.771 272.101 351.515L270.443 351.536H270.45Z" fill="#FFC502"/>
<path id="Vector_36" d="M28.7932 117.373L28.5535 117.329L28.3137 117.366C28.2404 116.775 28.1738 116.185 28.1006 115.602L28.1139 115.588C28.4469 115.311 28.7866 115.034 29.1196 114.757C29.2661 114.808 29.4126 114.808 29.5658 114.757C29.6324 115.34 29.699 115.93 29.7656 116.513C29.4393 116.797 29.1129 117.089 28.7866 117.373H28.7932Z" fill="#FFC502"/>
<path id="Vector_37" d="M391.228 124.571C391.301 125.35 391.242 126.064 390.516 126.487C390.209 126.137 389.903 125.795 389.596 125.445C389.59 124.921 389.583 124.403 389.576 123.879C389.843 123.799 390.116 123.755 390.389 123.755L390.416 123.777C390.689 124.039 390.955 124.301 391.228 124.564V124.571Z" fill="#FFC502"/>
<path id="Vector_38" d="M60.3696 134.721C59.637 135.311 58.9043 135.916 57.9053 135.61C57.8986 135.333 57.8986 135.056 57.9053 134.779C58.185 134.466 58.4647 134.145 58.7511 133.832L58.7312 133.854C59.2706 133.883 59.8101 133.905 60.3563 133.934C60.343 134.196 60.3563 134.466 60.3763 134.728L60.3696 134.721Z" fill="#FFC502"/>
<path id="Vector_39" d="M28.1072 371.565C28.1138 370.96 28.1271 370.355 28.1338 369.75C28.66 369.787 29.3326 369.838 29.4192 370.464C29.5724 371.506 28.7399 371.47 28.1072 371.565Z" fill="#FFC502"/>
<path id="Vector_40" d="M31.4441 141.912C31.4907 141.336 31.4974 140.579 32.1035 140.506C33.0492 140.389 33.0159 141.3 33.0692 142.021C32.5231 141.985 31.9836 141.948 31.4374 141.919L31.4441 141.912Z" fill="#FFC502"/>
<path id="Vector_41" d="M223.195 377.926C223.781 377.926 224.367 377.926 224.96 377.933C224.94 378.538 224.927 379.142 224.907 379.74L223.508 379.689C223.401 379.098 223.301 378.508 223.195 377.918V377.926Z" fill="#FFC502"/>
<path id="Vector_42" d="M126.54 147.442C126.547 148.229 126.44 148.95 125.707 149.329C124.382 147.835 125.468 147.638 126.54 147.442Z" fill="#FFC502"/>
<path id="Vector_43" d="M131.182 385.124C130.843 385.124 130.496 385.124 130.157 385.124C130.083 384.563 130.01 383.994 129.93 383.433L129.877 383.492C130.416 383.477 130.949 383.463 131.489 383.455L131.455 383.419C131.369 383.987 131.276 384.555 131.182 385.124Z" fill="#FFC502"/>
<path id="Vector_44" d="M276.211 159.31C275.598 159.208 274.653 159.186 274.899 158.282C275.172 157.291 275.831 157.75 276.244 158.413C276.238 158.712 276.224 159.011 276.204 159.31H276.211Z" fill="#FFC502"/>
<path id="Vector_45" d="M167.008 390.465C166.828 390.297 166.528 390.159 166.482 389.962C166.369 389.423 166.688 389.11 167.141 389.146C167.607 389.182 167.794 389.612 167.641 390.057C167.574 390.253 167.228 390.334 167.008 390.465Z" fill="#FFC502"/>
<path id="Vector_46" d="M253.373 391.535C253.553 391.361 253.732 391.047 253.912 391.047C254.398 391.047 254.592 391.455 254.412 391.914C254.338 392.089 253.939 392.25 253.752 392.191C253.586 392.14 253.499 391.761 253.379 391.535H253.373Z" fill="#FFC502"/>
<path id="Vector_47" d="M229.928 170.879C229.509 170.755 229.309 170.428 229.449 170.005C229.509 169.83 229.842 169.641 230.035 169.655C230.468 169.699 230.634 170.092 230.508 170.508C230.455 170.683 230.128 170.755 229.928 170.879Z" fill="#FFC502"/>
<path id="Vector_48" d="M170.059 400.578C169.965 400.811 169.932 401.168 169.772 401.27C169.406 401.489 169.033 401.336 168.933 400.877C168.886 400.673 169.033 400.279 169.199 400.184C169.566 399.966 169.885 400.155 170.065 400.585L170.059 400.578Z" fill="#FFC502"/>
<path id="Vector_49" d="M292.749 183.148C292.769 183.746 292.782 184.343 292.802 184.948C292.269 184.817 291.736 184.693 291.197 184.562C291.237 184.307 291.17 184.088 291.01 183.899C291.057 183.6 291.097 183.301 291.13 183.01C291.67 183.061 292.209 183.104 292.749 183.148Z" fill="#FFC502"/>
<path id="Vector_50" d="M116.616 404.373C116.07 404.352 115.517 404.33 114.971 404.308C114.971 403.732 114.971 403.164 114.971 402.596C115.517 402.596 116.057 402.596 116.603 402.596C116.603 403.186 116.616 403.776 116.623 404.366L116.616 404.373Z" fill="#FFC502"/>
<path id="Vector_51" d="M224.954 185.604C225.68 185.691 226.419 185.728 226.719 186.668L226.625 186.755C226.346 187.025 226.059 187.287 225.78 187.557L225.393 187.542H225.007C224.721 187.221 224.441 186.894 224.154 186.573C224.421 186.252 224.687 185.925 224.954 185.604Z" fill="#FFC502"/>
<path id="Vector_52" d="M89.3821 405.407C89.915 405.364 90.4411 405.313 90.9673 405.269C90.974 405.852 91.0139 406.639 90.4678 406.777C89.5686 407.01 89.4621 406.151 89.3755 405.407H89.3821Z" fill="#FFC502"/>
<path id="Vector_53" d="M175.34 409.175C175.5 409.371 175.793 409.568 175.793 409.765C175.793 410.304 175.427 410.53 175.001 410.326C174.834 410.246 174.694 409.801 174.741 409.583C174.781 409.4 175.127 409.306 175.34 409.175Z" fill="#FFC502"/>
<path id="Vector_54" d="M45.4105 420.722C44.891 420.671 44.185 420.715 44.1118 420.052C43.9985 419.046 44.8244 419.025 45.4771 418.923C45.4571 419.52 45.4372 420.125 45.4172 420.722H45.4105Z" fill="#FFC502"/>
<path id="Vector_55" d="M34.6542 421.975C34.6542 422.39 34.6675 422.805 34.6741 423.221C34.1413 423.308 33.6085 423.396 33.0823 423.483C33.0823 422.893 33.0823 422.303 33.089 421.705C33.6151 421.793 34.1347 421.88 34.6542 421.968V421.975Z" fill="#FFC502"/>
<path id="Vector_56" d="M300.122 425.305C300.208 424.569 299.895 423.586 301.041 423.506L301.028 423.491C301.274 423.921 301.527 424.344 301.774 424.773V424.963C301.287 425.254 300.808 425.546 300.322 425.837C300.395 425.597 300.322 425.422 300.122 425.305Z" fill="#FFC502"/>
<path id="Vector_57" d="M157.197 425.436C157.73 425.392 158.256 425.348 158.789 425.312C158.789 425.895 158.829 426.681 158.283 426.82C157.384 427.046 157.284 426.179 157.197 425.443V425.436Z" fill="#FFC502"/>
<path id="Vector_58" d="M172.863 430.791C172.243 430.682 171.284 430.689 171.531 429.757C171.797 428.758 172.476 429.203 172.929 429.844C172.909 430.157 172.889 430.478 172.869 430.791H172.863Z" fill="#FFC502"/>
<path id="Vector_59" d="M369.576 469.084C369.855 469.398 370.162 469.697 370.421 470.024C370.728 470.411 370.701 470.891 370.408 471.212C369.795 471.897 369.456 471.088 369.129 470.775C368.643 470.308 368.976 469.675 369.056 469.106C369.229 469.165 369.409 469.157 369.582 469.084H369.576Z" fill="#FFC502"/>
<path id="Vector_60" d="M1.02625 304.056C0.453457 302.446 0.986286 301.965 2.41826 302.409L2.39827 302.373C2.40493 302.664 2.43158 302.963 2.48486 303.247V303.262C2.16516 303.546 1.84547 303.83 1.53243 304.114L1.29266 303.983L1.03291 304.049L1.02625 304.056Z" fill="#FFC502"/>
<path id="Vector_61" d="M384.654 141.991C384.641 141.401 384.628 140.804 384.614 140.214C385.254 140.177 385.82 140.323 386.199 140.957C385.926 141.307 385.653 141.656 385.373 142.013L385.014 141.984H384.654V141.991Z" fill="#FFC502"/>
<path id="Vector_62" d="M35.4536 144.097C35.367 144.593 35.7533 145.321 35.0606 145.503C34.7942 145.569 34.4279 145.146 34.1082 144.95H34.0016C34.3613 144.614 34.7209 144.279 35.0806 143.944C35.1672 144.119 35.2871 144.17 35.4536 144.097Z" fill="#FFC502"/>
<path id="Vector_63" d="M41.3611 145.598C41.3211 144.906 41.5276 144.323 42.0338 143.885C42.3602 144.17 42.6798 144.454 43.0062 144.738C42.9596 144.993 42.9463 145.255 42.9662 145.51L41.3611 145.598Z" fill="#FFC502"/>
<path id="Vector_64" d="M21.5532 322.35C21.5399 321.833 21.4333 321.148 22.0794 321.119C22.6255 321.097 22.8653 321.665 22.8986 322.262C22.4524 322.292 21.9995 322.321 21.5532 322.35Z" fill="#FFC502"/>
<path id="Vector_65" d="M301.873 173.043L301.713 172.038C301.84 171.812 301.92 171.564 301.94 171.302C302.166 171.258 302.393 171.222 302.619 171.192C302.906 171.549 303.199 171.906 303.485 172.271C303.425 172.424 303.425 172.584 303.472 172.744C302.939 172.846 302.406 172.948 301.873 173.043Z" fill="#FFC502"/>
<path id="Vector_66" d="M282.025 339.64C282.312 339.96 282.605 340.281 282.891 340.602L282.032 341.52L282.019 341.505C281.746 341.206 281.472 340.908 281.199 340.616L281.179 340.594C281.179 340.288 281.193 339.982 281.193 339.676C281.466 339.654 281.739 339.647 282.012 339.64H282.025Z" fill="#FFC502"/>
<path id="Vector_67" d="M360.597 204.889C360.931 204.197 361.43 203.687 362.003 204.444C362.349 204.911 361.93 205.45 361.463 205.763C361.17 205.472 360.884 205.18 360.591 204.889H360.597Z" fill="#FFC502"/>
<path id="Vector_68" d="M242.29 361.489C241.597 361.525 240.771 361.875 240.651 360.614L240.665 360.593C240.971 360.309 241.271 360.024 241.577 359.74C241.797 359.74 242.017 359.74 242.236 359.74C242.243 360.33 242.256 360.921 242.263 361.511L242.296 361.489H242.29Z" fill="#FFC502"/>
<path id="Vector_69" d="M17.5838 362.524C17.9967 362.291 18.2765 361.541 18.8693 362.029C19.0091 362.138 19.0358 362.648 18.9292 362.845C18.5562 363.501 18.0101 363.129 17.5239 363.02C17.6571 362.874 17.6771 362.706 17.5838 362.524Z" fill="#FFC502"/>
<path id="Vector_70" d="M353.983 365.227C353.89 364.454 354.097 363.835 354.703 363.398C355.009 363.711 355.322 364.032 355.629 364.345C355.602 364.578 355.595 364.811 355.615 365.045C355.076 365.103 354.53 365.168 353.99 365.227H353.983Z" fill="#FFC502"/>
<path id="Vector_71" d="M216.714 367.914C216.341 367.812 215.709 367.805 215.642 367.587C215.356 366.661 216.108 366.428 216.668 366.1C216.688 366.705 216.701 367.31 216.714 367.914Z" fill="#FFC502"/>
<path id="Vector_72" d="M91.7997 527.319C91.2736 526.999 90.8739 526.496 91.3735 525.942C91.873 525.389 92.3259 525.818 92.6256 526.401C92.3525 526.707 92.0728 527.013 91.7997 527.319Z" fill="#FFC502"/>
<path id="Vector_73" d="M18.7891 374.996C17.9166 374.297 18.1697 373.459 18.5426 372.599L18.6226 372.563C19.2553 373.35 19.182 374.195 18.7558 375.054L18.7891 374.989V374.996Z" fill="#FFC502"/>
<path id="Vector_74" d="M114.964 44.5155C114.964 44.2095 114.957 43.9035 114.951 43.5975C115.237 43.3061 115.524 43.0219 115.803 42.7378C116.569 43.0729 116.623 43.7869 116.609 44.5447C116.063 44.5374 115.51 44.5228 114.964 44.5155Z" fill="#FFC502"/>
<path id="Vector_75" d="M67.2762 50.1034L67.6226 50.0742C67.9556 50.3802 68.2953 50.6862 68.6283 50.9922C68.5883 51.2181 68.5817 51.4512 68.6083 51.6771C68.0688 51.7354 67.5293 51.7937 66.9898 51.8519H66.9832C67.0831 51.2618 67.183 50.6789 67.2829 50.1034H67.2762Z" fill="#FFC502"/>
<path id="Vector_76" d="M231.487 83.6989C230.907 83.7207 230.394 83.5531 229.988 83.0868C230.308 82.7153 230.627 82.3437 230.947 81.9648L231.307 81.9867C231.367 82.5623 231.42 83.1306 231.48 83.6989H231.487Z" fill="#FFC502"/>
<path id="Vector_77" d="M301.494 267.226C301.281 267.343 301.047 267.583 300.868 267.547C300.428 267.459 300.275 267.058 300.488 266.636C300.555 266.505 300.967 266.439 301.107 266.534C301.294 266.665 301.374 266.986 301.5 267.226H301.494Z" fill="#FFC502"/>
<path id="Vector_78" d="M158.796 424.372C158.497 424.081 158.197 423.782 157.897 423.491C157.917 423.17 157.937 422.857 157.964 422.536C158.51 422.566 159.056 422.595 159.609 422.624C159.589 423.352 159.509 424.037 158.796 424.372Z" fill="#FFC502"/>
<path id="Vector_79" d="M124.076 529.214C123.536 529.134 123.004 529.054 122.464 528.981C122.517 528.806 122.517 528.624 122.457 528.449C122.751 528.085 123.037 527.713 123.33 527.349C123.523 527.371 123.723 527.371 123.916 527.356C123.983 527.954 124.049 528.559 124.116 529.156L124.076 529.214Z" fill="#FFC502"/>
<path id="Vector_80" d="M178.637 424.365C178.91 424.328 179.183 424.328 179.456 424.372C179.456 424.948 179.736 425.217 180.249 425.225C180.349 425.348 180.449 425.48 180.549 425.611C180.435 425.793 180.362 425.997 180.322 426.208C179.836 426.186 179.356 426.157 178.87 426.135C178.79 425.545 178.704 424.962 178.624 424.372L178.644 424.358L178.637 424.365Z" fill="#FFC502"/>
<path id="Vector_81" d="M57.0729 276.756C57.0595 276.479 57.0595 276.203 57.0595 275.926C57.3526 275.627 57.6456 275.336 57.9387 275.037L57.9121 275.073L58.2917 275.095L58.6713 275.081V275.03C58.6847 275.627 58.6913 276.224 58.698 276.822C58.1518 276.793 57.6057 276.771 57.0595 276.756H57.0729Z" fill="#FFC502"/>
<path id="Vector_82" d="M277.916 428.102C278.436 427.745 278.789 427.039 279.535 427.141C279.65 428.452 279.122 429.003 277.949 428.794C278.009 428.561 277.996 428.328 277.916 428.102Z" fill="#FFC502"/>
<path id="Vector_83" d="M254.551 281.316C254.438 281.564 254.385 281.936 254.205 282.023C254.039 282.103 253.752 281.892 253.512 281.804C253.646 281.557 253.732 281.258 253.919 281.083C254.185 280.821 254.432 280.937 254.551 281.316Z" fill="#FFC502"/>
<path id="Vector_84" d="M256.344 113.795C256.643 113.46 256.936 113.118 257.236 112.783C257.509 112.812 257.775 112.834 258.049 112.848V113.795C257.782 114.094 257.516 114.393 257.249 114.692L257.223 114.721C256.93 114.407 256.637 114.101 256.344 113.788V113.795Z" fill="#FFC502"/>
<path id="Vector_85" d="M19.8549 115.632C20.3877 115.967 20.9206 116.295 21.4467 116.63C21.3602 116.813 21.3535 116.995 21.4334 117.184C20.9006 117.272 20.3744 117.352 19.8416 117.439C19.8549 116.834 19.8682 116.23 19.8816 115.625L19.8616 115.64L19.8549 115.632Z" fill="#FFC502"/>
<path id="Vector_86" d="M344.892 289.549C345.298 288.952 345.818 288.369 346.337 289.258C346.637 289.768 346.204 290.285 345.671 290.497C345.412 290.183 345.152 289.863 344.892 289.549Z" fill="#FFC502"/>
<path id="Vector_87" d="M111.614 515.605C111.587 515.86 111.594 516.108 111.641 516.363C111.254 516.647 110.868 516.924 110.482 517.208C110.289 516.931 110.102 516.654 109.909 516.377C109.936 516.078 109.962 515.78 110.002 515.481H109.996C110.535 515.525 111.075 515.568 111.614 515.605Z" fill="#FFC502"/>
<path id="Vector_88" d="M147.221 297.739C147.514 297.17 147.967 296.762 148.459 297.28C148.959 297.804 148.579 298.314 148.1 298.664C147.807 298.358 147.514 298.045 147.221 297.739Z" fill="#FFC502"/>
<path id="Vector_89" d="M128.218 468.189L126.567 468.05C127.186 467.081 127.752 466.936 128.218 468.189Z" fill="#FFC502"/>
<path id="Vector_90" d="M302.679 467.118C302.233 467.118 301.78 466.994 301.913 466.389C302.067 465.661 302.453 465.974 302.779 466.295C302.726 466.564 302.693 466.841 302.679 467.118Z" fill="#FFC502"/>
<path id="Vector_91" d="M167.927 19.9407C167.927 19.3433 167.914 18.7532 167.907 18.1557C168.18 18.1266 168.454 18.1193 168.727 18.1484C168.727 18.469 168.727 18.7896 168.727 19.1174C168.747 19.3943 168.727 19.6712 168.647 19.9407H168.287H167.927Z" fill="#FFC502"/>
<path id="Vector_92" d="M164.577 27.2339C165.123 27.2485 165.676 27.2557 166.222 27.2703C166.222 27.5326 166.222 27.7949 166.209 28.0572C165.663 28.0863 165.123 28.1155 164.577 28.1446C164.564 27.8386 164.564 27.5399 164.577 27.2339Z" fill="#FFC502"/>
<path id="Vector_93" d="M87.677 29.0994C88.2231 29.0921 88.7693 29.0776 89.3221 29.063C89.3221 29.3763 89.3221 29.6968 89.3221 30.0101C88.7759 29.9664 88.2298 29.9227 87.6836 29.879C87.6836 29.6167 87.677 29.3544 87.6703 29.0921L87.677 29.0994Z" fill="#FFC502"/>
<path id="Vector_94" d="M43.7654 458.12C43.8054 458.725 43.8387 459.329 43.8787 459.934C43.5789 459.934 43.2859 459.927 42.9862 459.919C43.0195 459.315 43.0594 458.717 43.0927 458.12C43.3192 458.134 43.539 458.134 43.7654 458.12Z" fill="#FFC502"/>
<path id="Vector_95" d="M150.85 36.2031C150.73 35.6348 150.604 35.0738 150.484 34.5055C152.402 34.4254 151.057 35.5474 151.003 36.1958H150.85V36.2031Z" fill="#FFC502"/>
<path id="Vector_96" d="M211.745 39.1382C212.245 39.2474 212.744 39.3567 213.244 39.466L213.291 39.5753C212.778 39.6919 212.265 39.8012 211.752 39.9104C211.739 39.6482 211.739 39.3931 211.752 39.1309L211.745 39.1382Z" fill="#FFC502"/>
<path id="Vector_97" d="M210.64 51.7652C210.234 51.0949 209.754 50.41 210.893 50.0166C210.807 50.5995 210.72 51.1823 210.64 51.7652Z" fill="#FFC502"/>
<path id="Vector_98" d="M49.6799 58.1768C49.6333 57.4337 49.6333 56.7197 50.4325 56.4282C50.4325 57.1422 50.3859 57.8344 49.6799 58.1768Z" fill="#FFC502"/>
<path id="Vector_99" d="M119.134 64.7043C119.673 64.6606 120.213 64.6096 120.752 64.5659V65.5422C120.206 65.4912 119.66 65.4402 119.114 65.3892C119.134 65.1634 119.14 64.9375 119.134 64.7043Z" fill="#FFC502"/>
<path id="Vector_100" d="M160.454 70.0741C161.007 70.0741 161.553 70.0596 162.1 70.0596V70.9776C161.553 70.9557 161.001 70.9411 160.454 70.9266C160.454 70.6424 160.454 70.3583 160.454 70.0814V70.0741Z" fill="#FFC502"/>
<path id="Vector_101" d="M244.754 80.9811C243.868 80.3181 243.675 79.6989 244.848 79.167C244.814 79.7717 244.788 80.3764 244.754 80.9811Z" fill="#FFC502"/>
<path id="Vector_102" d="M105.9 84.7549C106.499 84.7986 106.832 85.1556 106.719 85.804C106.646 86.2339 106.279 86.4087 105.88 86.4015C105.88 85.855 105.893 85.3086 105.9 84.7549Z" fill="#FFC502"/>
<path id="Vector_103" d="M392.827 92.7256C392.101 92.558 391.648 92.15 392.254 91.3996C392.48 91.1227 392.847 91.5672 393 91.9242C392.9 92.1792 392.84 92.4487 392.827 92.7256Z" fill="#FFC502"/>
<path id="Vector_104" d="M182.833 93.8909L184.425 93.7671C184.425 94.0877 184.438 94.4009 184.438 94.7215C183.892 94.6559 183.353 94.5904 182.807 94.5175C182.833 94.3135 182.84 94.1022 182.833 93.8909Z" fill="#FFC502"/>
<path id="Vector_105" d="M112.48 104.674C113.006 104.725 113.539 104.776 114.065 104.827C114.065 105.031 114.072 105.235 114.098 105.439L112.473 105.629C112.473 105.308 112.473 104.988 112.473 104.667L112.48 104.674Z" fill="#FFC502"/>
<path id="Vector_106" d="M105.054 107.45C105.6 107.428 106.146 107.413 106.692 107.392C106.706 107.69 106.699 107.989 106.686 108.295C106.146 108.266 105.6 108.237 105.061 108.208C105.061 107.953 105.061 107.705 105.061 107.45H105.054Z" fill="#FFC502"/>
<path id="Vector_107" d="M132.328 111.96C132.328 111.355 132.328 110.75 132.335 110.146C132.594 110.146 132.854 110.146 133.114 110.146C133.121 110.75 133.127 111.355 133.141 111.952H132.734H132.328V111.96Z" fill="#FFC502"/>
<path id="Vector_108" d="M259.7 111.041C259.98 111.034 260.259 111.019 260.546 111.005C260.539 111.624 260.532 112.243 260.526 112.863C260.253 112.892 259.986 112.863 259.727 112.768C259.72 112.192 259.707 111.617 259.7 111.034V111.041Z" fill="#FFC502"/>
<path id="Vector_109" d="M263.85 118.327C263.85 117.723 263.836 117.118 263.83 116.513C264.782 117.103 264.769 117.715 263.85 118.327Z" fill="#FFC502"/>
<path id="Vector_110" d="M100.059 120.105C100.585 120.185 101.111 120.273 101.644 120.353C101.624 120.52 101.631 120.688 101.677 120.855L100.066 121.147C100.066 120.797 100.066 120.455 100.059 120.105Z" fill="#FFC502"/>
<path id="Vector_111" d="M68.635 131.092C68.6416 130.487 68.655 129.883 68.6616 129.285C69.5541 129.904 69.5807 130.509 68.635 131.092Z" fill="#FFC502"/>
<path id="Vector_112" d="M339.951 129.307C341.109 129.416 340.87 130.261 340.71 131.063C340.217 130.983 339.977 130.604 339.784 130.152C339.857 129.868 339.917 129.577 339.964 129.278L339.944 129.3L339.951 129.307Z" fill="#FFC502"/>
<path id="Vector_113" d="M44.3247 446.433C44.4379 446.98 44.5445 447.526 44.6577 448.073C43.3989 447.912 44.025 447.096 44.1848 446.441H44.3247V446.433Z" fill="#FFC502"/>
<path id="Vector_114" d="M192.717 140.112C192.69 140.731 192.664 141.35 192.637 141.977C191.758 141.307 191.778 140.687 192.717 140.112Z" fill="#FFC502"/>
<path id="Vector_115" d="M382.237 141.431C382.85 141.307 383.622 140.687 383.775 142.021H383.769C383.243 141.904 382.723 141.788 382.197 141.664L382.237 141.431Z" fill="#FFC502"/>
<path id="Vector_116" d="M41.4744 151.974C41.4212 151.384 41.3679 150.793 41.3146 150.203L41.3346 150.181C41.6143 150.167 41.9007 150.16 42.1804 150.145L42.2404 150.203C42.1738 150.801 42.1072 151.398 42.0406 151.996C41.8541 151.966 41.6609 151.959 41.4744 151.966V151.974Z" fill="#FFC502"/>
<path id="Vector_117" d="M305.17 443.475C304.624 443.49 304.078 443.512 303.532 443.526V442.572C304.078 442.608 304.624 442.645 305.17 442.681C305.17 442.944 305.17 443.213 305.17 443.475Z" fill="#FFC502"/>
<path id="Vector_118" d="M2.41134 157.524C2.47128 156.934 2.53789 156.337 2.59783 155.746C2.79098 155.768 2.98413 155.761 3.17062 155.717C3.2239 156.315 3.28384 156.912 3.33713 157.517L2.40468 157.531L2.41134 157.524Z" fill="#FFC502"/>
<path id="Vector_119" d="M380.499 158.399C380.519 157.816 380.545 157.226 380.565 156.643C380.785 156.643 380.998 156.629 381.218 156.607C381.278 157.212 381.338 157.824 381.391 158.428C381.091 158.421 380.792 158.407 380.492 158.399H380.499Z" fill="#FFC502"/>
<path id="Vector_120" d="M106.686 160.228C107.239 160.228 107.791 160.235 108.338 160.242C108.338 160.526 108.338 160.811 108.331 161.095L106.693 161.139C106.693 160.832 106.693 160.534 106.693 160.228H106.686Z" fill="#FFC502"/>
<path id="Vector_121" d="M67.0231 175.703V173.918C67.9955 174.515 67.9955 175.105 67.0231 175.703Z" fill="#FFC502"/>
<path id="Vector_122" d="M73.5639 177.422C73.3108 177.487 73.0577 177.546 72.8046 177.619C72.3517 177.742 72.0986 177.436 71.8522 177.101C72.1652 176.905 72.465 176.642 72.798 176.533C73.0244 176.46 73.3042 176.599 73.5573 176.65C73.524 176.912 73.524 177.167 73.5573 177.429L73.5639 177.422Z" fill="#FFC502"/>
<path id="Vector_123" d="M18.1766 177.531C18.7228 177.553 19.2689 177.582 19.8151 177.604C19.5486 177.925 19.2889 178.245 19.0225 178.559C18.5762 178.377 18.2765 178.056 18.1766 177.531Z" fill="#FFC502"/>
<path id="Vector_124" d="M168.72 190.303C169.273 190.303 169.819 190.303 170.365 190.303C170.365 190.595 170.365 190.879 170.365 191.163C169.819 191.17 169.266 191.177 168.72 191.185C168.72 190.886 168.72 190.587 168.72 190.296V190.303Z" fill="#FFC502"/>
<path id="Vector_125" d="M305.177 193.029C305.197 192.431 305.224 191.826 305.244 191.229C305.45 191.244 305.657 191.251 305.863 191.244C305.91 191.834 305.963 192.431 306.01 193.021C305.73 193.021 305.457 193.021 305.177 193.036V193.029Z" fill="#FFC502"/>
<path id="Vector_126" d="M264.689 437.13C264.662 437.734 264.642 438.339 264.616 438.944C263.69 438.295 263.577 437.683 264.689 437.13Z" fill="#FFC502"/>
<path id="Vector_127" d="M254.612 437.741C254.106 437.829 253.606 437.916 253.1 437.996C253.087 437.734 253.08 437.464 253.1 437.202C253.619 437.304 254.132 437.399 254.652 437.501L254.612 437.734V437.741Z" fill="#FFC502"/>
<path id="Vector_128" d="M60.7093 196.518C60.6028 196.263 60.4962 196.001 60.3896 195.746C60.1698 195.243 60.4696 194.821 60.7893 194.821C61.1023 194.821 61.402 195.236 61.1689 195.739C61.049 195.994 60.9558 196.256 60.8492 196.511H60.7093V196.518Z" fill="#FFC502"/>
<path id="Vector_129" d="M168.98 197.393C168.893 196.846 168.807 196.307 168.72 195.761C168.993 195.732 169.26 195.761 169.526 195.856C169.546 196.453 169.386 196.978 168.98 197.393Z" fill="#FFC502"/>
<path id="Vector_130" d="M83.5343 198.507C84.0805 198.515 84.62 198.529 85.1661 198.536C85.1661 198.784 85.1594 199.039 85.1594 199.287C84.62 199.301 84.0805 199.316 83.5476 199.331C83.5277 199.061 83.5277 198.784 83.541 198.515L83.5343 198.507Z" fill="#FFC502"/>
<path id="Vector_131" d="M331.672 200.314C330.853 200.015 330.872 199.265 330.872 198.521L330.859 198.536C331.099 198.536 331.332 198.529 331.572 198.514C331.605 199.112 331.638 199.716 331.672 200.314Z" fill="#FFC502"/>
<path id="Vector_132" d="M360.617 199.439C361.163 199.432 361.71 199.425 362.256 199.417C362.269 199.716 362.269 200.015 362.256 200.314C361.71 200.292 361.163 200.27 360.611 200.255C360.611 199.986 360.611 199.716 360.611 199.447L360.617 199.439Z" fill="#FFC502"/>
<path id="Vector_133" d="M198.518 203.032C198.512 202.427 198.498 201.83 198.492 201.225C199.544 201.808 199.537 202.413 198.518 203.032Z" fill="#FFC502"/>
<path id="Vector_134" d="M199.257 205.604C198.372 205.415 198.345 204.715 198.452 203.943C199.411 204.096 199.271 204.89 199.257 205.604Z" fill="#FFC502"/>
<path id="Vector_135" d="M71.1258 207.599C70.0868 207.002 70.1134 206.39 71.1125 205.778C71.1125 206.382 71.1191 206.994 71.1258 207.599Z" fill="#FFC502"/>
<path id="Vector_136" d="M0.000383724 206.711C0.826265 206.995 0.819604 207.723 0.759661 208.474C0.0669867 208.117 -0.00627661 207.439 0.000383724 206.711Z" fill="#FFC502"/>
<path id="Vector_137" d="M215.182 223.927C215.162 223.41 214.736 222.506 215.296 222.477C216.348 222.419 215.615 223.402 215.702 223.927H215.442H215.182Z" fill="#FFC502"/>
<path id="Vector_138" d="M109.23 227.606C109.21 227.009 109.197 226.411 109.177 225.821C110.322 226.375 110.149 226.98 109.23 227.606Z" fill="#FFC502"/>
<path id="Vector_139" d="M177.019 234.091C177.565 234.069 178.104 234.04 178.651 234.018C178.651 234.324 178.651 234.63 178.651 234.936C178.104 234.914 177.558 234.9 177.012 234.871C177.012 234.608 177.012 234.346 177.019 234.091Z" fill="#FFC502"/>
<path id="Vector_140" d="M6.60747 244.947C7.15361 244.954 7.70642 244.961 8.25257 244.976C8.25257 245.253 8.25257 245.522 8.24591 245.792C7.69977 245.821 7.15361 245.85 6.60747 245.879C6.60747 245.566 6.60747 245.253 6.60747 244.947Z" fill="#FFC502"/>
<path id="Vector_141" d="M86.838 246.768C86.838 246.163 86.838 245.558 86.8446 244.954C87.1044 244.954 87.3708 244.954 87.6306 244.954C87.6439 245.558 87.6639 246.163 87.6772 246.775C87.3974 246.775 87.1177 246.775 86.838 246.775V246.768Z" fill="#FFC502"/>
<path id="Vector_142" d="M209.395 249.828C209.894 249.726 210.394 249.624 210.893 249.529C210.893 249.792 210.887 250.047 210.88 250.309C210.367 250.214 209.848 250.127 209.335 250.032L209.395 249.828Z" fill="#FFC502"/>
<path id="Vector_143" d="M6.57421 254.047C5.52188 253.479 5.66841 252.874 6.52759 252.255C6.54091 252.852 6.56089 253.449 6.57421 254.047Z" fill="#FFC502"/>
<path id="Vector_144" d="M267.153 254.075L268.798 254.053C268.798 254.359 268.798 254.665 268.798 254.971C268.245 254.963 267.699 254.956 267.146 254.949C267.146 254.657 267.146 254.366 267.146 254.075H267.153Z" fill="#FFC502"/>
<path id="Vector_145" d="M268.771 257.71C268.798 257.149 268.818 256.581 268.844 256.02C269.73 256.625 269.897 257.2 268.771 257.71Z" fill="#FFC502"/>
<path id="Vector_146" d="M3.38389 261.31C3.34393 260.713 3.30397 260.108 3.26401 259.51L4.10987 259.525C4.06991 260.115 4.02329 260.713 3.98332 261.303L3.68361 261.288L3.37723 261.303L3.38389 261.31Z" fill="#FFC502"/>
<path id="Vector_147" d="M270.483 263.167C269.291 262.665 269.571 262.038 270.35 261.36C270.397 261.965 270.437 262.563 270.483 263.167Z" fill="#FFC502"/>
<path id="Vector_148" d="M212.572 263.212C213.071 263.147 213.817 263.088 213.79 263.7C213.77 264.203 212.978 264.167 212.472 264.101C212.532 263.81 212.565 263.511 212.578 263.212H212.572Z" fill="#FFC502"/>
<path id="Vector_149" d="M218.339 266.812C217.34 266.258 217.453 265.646 218.273 265.012C218.293 265.609 218.319 266.214 218.339 266.812Z" fill="#FFC502"/>
<path id="Vector_150" d="M261.351 264.982C261.898 264.99 262.45 264.997 262.997 265.004C262.997 265.274 262.997 265.543 262.983 265.813C262.437 265.849 261.891 265.893 261.345 265.93C261.345 265.616 261.345 265.296 261.345 264.982H261.351Z" fill="#FFC502"/>
<path id="Vector_151" d="M53.2898 269.397C53.1766 268.843 53.0634 268.289 52.9568 267.743L52.9368 267.758L53.3431 267.721H53.756C53.9225 268.384 53.6028 268.901 53.3564 269.441L53.2898 269.397Z" fill="#FFC502"/>
<path id="Vector_152" d="M58.6647 280.508C58.6847 281.113 58.7047 281.725 58.7247 282.329C57.8189 281.754 57.7789 281.149 58.6647 280.508Z" fill="#FFC502"/>
<path id="Vector_153" d="M261.405 280.633C262.364 281.223 262.404 281.784 261.352 282.294C261.372 281.74 261.392 281.186 261.405 280.633Z" fill="#FFC502"/>
<path id="Vector_154" d="M34.7277 282.308C34.7476 282.607 34.7476 282.898 34.7277 283.197C34.1815 283.175 33.6354 283.146 33.0892 283.124C33.3623 282.818 33.642 282.519 33.9151 282.213C34.1815 282.25 34.4546 282.279 34.721 282.315L34.7277 282.308Z" fill="#FFC502"/>
<path id="Vector_155" d="M164.124 287.611C163.945 286.955 163.225 286.125 164.571 285.972L164.551 285.95C164.431 286.518 164.304 287.079 164.184 287.648L164.124 287.611Z" fill="#FFC502"/>
<path id="Vector_156" d="M48.8271 286.942L50.4389 286.869C50.4722 287.16 50.4722 287.459 50.4389 287.75C49.8994 287.707 49.3599 287.663 48.8138 287.619C48.8204 287.393 48.8204 287.167 48.8138 286.942H48.8271Z" fill="#FFC502"/>
<path id="Vector_157" d="M202.721 288.551C202.694 287.983 202.668 287.422 202.648 286.854C202.941 286.847 203.227 286.839 203.52 286.832C203.72 287.663 203.707 288.377 202.728 288.551H202.721Z" fill="#FFC502"/>
<path id="Vector_158" d="M294.441 286.862C294.987 286.862 295.533 286.869 296.079 286.876C296.079 287.153 296.086 287.43 296.079 287.714C295.533 287.736 294.98 287.758 294.427 287.78C294.427 287.474 294.427 287.168 294.434 286.869L294.441 286.862Z" fill="#FFC502"/>
<path id="Vector_159" d="M115.004 287.874C115.544 287.831 116.083 287.787 116.616 287.743C116.616 288.049 116.616 288.362 116.616 288.668C116.077 288.617 115.537 288.559 114.998 288.508C115.018 288.297 115.018 288.086 115.004 287.867V287.874Z" fill="#FFC502"/>
<path id="Vector_160" d="M6.5943 289.535C7.14044 289.586 7.67993 289.629 8.21942 289.68C8.2061 289.899 8.2061 290.118 8.21942 290.336C7.67993 290.394 7.14045 290.453 6.60096 290.511L6.58764 290.496C6.58097 290.19 6.56765 289.877 6.56099 289.571L6.58764 289.535H6.5943Z" fill="#FFC502"/>
<path id="Vector_161" d="M13.2478 289.572C13.2345 290.169 13.2145 290.766 13.2012 291.364C12.3287 291.102 12.302 290.38 12.4153 289.586C12.695 289.586 12.9747 289.579 13.2478 289.572Z" fill="#FFC502"/>
<path id="Vector_162" d="M342.341 290.475C342.907 290.504 343.467 290.533 344.033 290.563C344.026 290.803 344.026 291.043 344.033 291.284C343.493 291.313 342.954 291.335 342.414 291.364C342.394 291.073 342.374 290.774 342.341 290.475Z" fill="#FFC502"/>
<path id="Vector_163" d="M86.7977 295.946C85.9252 295.327 85.8786 294.722 86.8244 294.139C86.8177 294.744 86.8044 295.349 86.7977 295.946Z" fill="#FFC502"/>
<path id="Vector_164" d="M191.878 294.133C191.845 294.76 191.811 295.386 191.778 296.013C191.565 295.984 191.358 295.984 191.145 296.013C191.112 295.386 191.079 294.76 191.045 294.133C191.325 294.133 191.598 294.133 191.878 294.133Z" fill="#FFC502"/>
<path id="Vector_165" d="M72.7712 297.783C72.7912 297.186 72.8045 296.581 72.8311 295.983C73.0576 295.983 73.284 295.983 73.5105 295.983C73.5438 296.581 73.5838 297.178 73.6171 297.783C73.3373 297.783 73.0509 297.783 72.7712 297.783Z" fill="#FFC502"/>
<path id="Vector_166" d="M263.017 297.775C263.017 297.171 263.023 296.573 263.03 295.969C263.276 295.969 263.516 295.969 263.763 295.969L263.796 297.761H263.41H263.023L263.017 297.775Z" fill="#FFC502"/>
<path id="Vector_167" d="M356.468 298.686C357.021 298.686 357.567 298.701 358.12 298.708C358.12 298.999 358.12 299.283 358.12 299.575C357.574 299.575 357.021 299.589 356.475 299.589C356.468 299.291 356.468 298.985 356.475 298.686H356.468Z" fill="#FFC502"/>
<path id="Vector_168" d="M98.4268 304.187C98.953 304.23 99.4791 304.274 100.005 304.325C100.005 304.544 100.019 304.762 100.052 304.981C99.4991 305.046 98.953 305.112 98.4068 305.17C98.4068 304.842 98.4201 304.514 98.4268 304.187Z" fill="#FFC502"/>
<path id="Vector_169" d="M109.183 420.737C109.123 421.312 109.07 421.888 109.01 422.464C108.364 421.801 108.118 421.189 109.183 420.737Z" fill="#FFC502"/>
<path id="Vector_170" d="M161.447 325.017C161.387 324.434 161.327 323.859 161.267 323.276H161.274C161.554 323.276 161.833 323.276 162.106 323.269H162.113C162.047 323.866 161.973 324.456 161.907 325.046L161.68 325.01H161.447V325.017Z" fill="#FFC502"/>
<path id="Vector_171" d="M95.1101 326.029C95.6629 326.029 96.2091 326.022 96.7552 326.014C96.7552 326.306 96.7552 326.605 96.7552 326.896C96.2091 326.889 95.6629 326.874 95.1168 326.867C95.1168 326.59 95.1101 326.306 95.1168 326.022L95.1101 326.029Z" fill="#FFC502"/>
<path id="Vector_172" d="M344.979 331.413C345.265 330.597 345.851 330.459 346.551 330.554C346.551 330.889 346.564 331.224 346.571 331.559C346.018 331.501 345.472 331.45 344.919 331.392L344.979 331.413Z" fill="#FFC502"/>
<path id="Vector_173" d="M148.046 418.019C147.507 417.976 146.974 417.932 146.434 417.888C146.454 417.677 146.454 417.473 146.428 417.262C146.967 417.196 147.513 417.131 148.053 417.065L148.073 417.094C148.073 417.4 148.06 417.713 148.053 418.019H148.046Z" fill="#FFC502"/>
<path id="Vector_174" d="M61.1687 334.204C60.2828 333.577 60.2296 332.973 61.202 332.39C61.1886 332.995 61.182 333.599 61.1687 334.204Z" fill="#FFC502"/>
<path id="Vector_175" d="M54.5552 417.05C54.009 417.079 53.4629 417.101 52.9167 417.13C53.4162 415.979 53.969 416.074 54.5552 417.05Z" fill="#FFC502"/>
<path id="Vector_176" d="M46.9756 416.707C46.596 416.788 46.1964 416.984 45.8434 416.911C45.4504 416.824 45.4571 416.379 45.8567 416.314C46.2097 416.256 46.6027 416.481 46.9756 416.576V416.7V416.707Z" fill="#FFC502"/>
<path id="Vector_177" d="M79.5314 341.409C79.4781 340.827 79.4182 340.244 79.3649 339.661L79.3849 339.646C79.6646 339.661 79.9377 339.668 80.2174 339.683C80.2574 340.389 80.1641 341.031 79.5314 341.402V341.409Z" fill="#FFC502"/>
<path id="Vector_178" d="M74.4432 340.63C74.9827 340.637 75.5221 340.645 76.0616 340.652C76.0683 340.9 76.0683 341.155 76.0616 341.402C75.5221 341.417 74.976 341.432 74.4365 341.453C74.4165 341.177 74.4232 340.907 74.4365 340.63H74.4432Z" fill="#FFC502"/>
<path id="Vector_179" d="M245.627 340.564C246.14 340.608 246.659 340.644 247.172 340.688C246.879 341.46 246.293 341.606 245.62 341.562C245.62 341.227 245.62 340.892 245.627 340.564Z" fill="#FFC502"/>
<path id="Vector_180" d="M69.5075 347.981C70.007 347.901 70.8063 347.806 70.7996 348.345C70.7929 348.899 70.007 348.775 69.5075 348.68C69.5075 348.447 69.5075 348.207 69.5075 347.974V347.981Z" fill="#FFC502"/>
<path id="Vector_181" d="M110.928 354.182C110.875 353.591 110.822 353.001 110.768 352.411C111.847 352.892 111.714 353.504 110.928 354.182Z" fill="#FFC502"/>
<path id="Vector_182" d="M248.93 356.083C248.957 355.486 248.977 354.888 249.004 354.291C249.85 354.932 249.903 355.53 248.93 356.083Z" fill="#FFC502"/>
<path id="Vector_183" d="M130.556 361.511C129.844 360.826 129.471 360.17 130.73 359.711C130.67 360.308 130.616 360.913 130.556 361.511Z" fill="#FFC502"/>
<path id="Vector_184" d="M194.482 364.578C195.115 364.301 195.841 363.748 195.954 365.139L195.987 365.11C195.474 365.008 194.968 364.899 194.455 364.797L194.482 364.585V364.578Z" fill="#FFC502"/>
<path id="Vector_185" d="M327.535 373.423C328.081 373.409 328.627 373.394 329.174 373.387C328.647 374.45 328.101 374.429 327.535 373.423Z" fill="#FFC502"/>
<path id="Vector_186" d="M191.172 376.425C191.425 376.345 191.678 376.279 191.925 376.184C192.424 376.002 192.617 376.265 192.537 376.76C192.477 377.132 192.218 377.168 191.911 376.993C191.685 376.862 191.418 376.811 191.165 376.724V376.432L191.172 376.425Z" fill="#FFC502"/>
<path id="Vector_187" d="M138.129 377.947C138.409 377.932 138.689 377.925 138.968 377.911C139.042 378.224 139.108 378.544 139.181 378.858C138.828 379.127 138.475 379.404 138.122 379.674C138.122 379.098 138.122 378.523 138.129 377.947Z" fill="#FFC502"/>
<path id="Vector_188" d="M313.376 398.012C313.456 398.588 313.522 399.506 313.043 399.506C312.57 399.506 312.636 398.588 312.716 398.012C312.936 398.005 313.156 398.005 313.376 398.012Z" fill="#FFC502"/>
<path id="Vector_189" d="M310.159 401.634C310.571 401.714 311.224 401.364 311.198 402.224C311.198 402.333 310.525 402.413 310.159 402.508C310.139 402.217 310.139 401.925 310.159 401.634Z" fill="#FFC502"/>
<path id="Vector_190" d="M236.496 407.099C236.536 406.501 236.582 405.904 236.622 405.306C237.435 405.977 237.661 406.596 236.496 407.099Z" fill="#FFC502"/>
<path id="Vector_191" d="M285.409 407.054C285.395 406.464 285.382 405.867 285.369 405.277C285.628 405.255 285.888 405.255 286.155 405.277C286.155 405.874 286.155 406.471 286.155 407.069H285.782H285.409V407.054Z" fill="#FFC502"/>
<path id="Vector_192" d="M166.495 411.513C166.409 410.952 166.329 410.391 166.249 409.83C167.514 409.961 166.888 410.828 166.782 411.498L166.502 411.513H166.495Z" fill="#FFC502"/>
<path id="Vector_193" d="M243.988 541.891C243.968 542.496 243.955 543.094 243.935 543.698C243.708 543.698 243.475 543.698 243.249 543.698C243.222 543.101 243.195 542.503 243.169 541.906C243.442 541.884 243.715 541.884 243.988 541.906V541.891Z" fill="#FFC502"/>
<path id="Vector_194" d="M152.176 540.07C152.136 540.66 152.102 541.25 152.062 541.833C151.863 541.833 151.663 541.833 151.463 541.855C151.416 541.257 151.376 540.66 151.33 540.062C151.61 540.062 151.889 540.062 152.176 540.062V540.07Z" fill="#FFC502"/>
<path id="Vector_195" d="M143.903 517.301C143.87 517.892 143.83 518.482 143.797 519.065C143.604 519.065 143.404 519.065 143.211 519.086L143.064 517.301L143.078 517.287C143.357 517.294 143.63 517.301 143.91 517.309L143.903 517.301Z" fill="#FFC502"/>
<path id="Vector_196" d="M129.004 509.163C128.425 510.06 127.872 510.191 127.366 509.083C127.912 509.105 128.458 509.134 129.004 509.163Z" fill="#FFC502"/>
<path id="Vector_197" d="M149.725 505.447C149.658 506.03 149.592 506.606 149.518 507.189H149.279L149.045 507.225C148.972 506.635 148.899 506.045 148.826 505.447C149.125 505.447 149.425 505.447 149.725 505.447Z" fill="#FFC502"/>
<path id="Vector_198" d="M179.25 503.757C179.317 504.318 179.383 504.887 179.456 505.448C179.217 505.448 178.977 505.44 178.737 505.433C178.797 504.857 178.864 504.289 178.924 503.714L179.25 503.757Z" fill="#FFC502"/>
<path id="Vector_199" d="M109.15 502.767C108.584 503.728 108.038 503.765 107.512 502.723C108.058 502.737 108.604 502.752 109.15 502.767Z" fill="#FFC502"/>
<path id="Vector_200" d="M191.891 501.849C193.103 501.922 192.777 502.818 192.664 503.598L192.69 503.576C192.431 503.576 192.178 503.547 191.931 503.474C191.918 502.935 191.905 502.389 191.891 501.849Z" fill="#FFC502"/>
<path id="Vector_201" d="M39.5496 497.332C39.6162 497.922 39.6761 498.512 39.7427 499.102C39.443 499.102 39.15 499.095 38.8502 499.088C38.9168 498.497 38.9768 497.907 39.0367 497.317C39.2032 497.354 39.3698 497.361 39.5429 497.339L39.5496 497.332Z" fill="#FFC502"/>
<path id="Vector_202" d="M9.90422 492.669C9.35808 492.669 8.81193 492.683 8.27244 492.69C8.25912 492.406 8.25912 492.122 8.2791 491.845C8.81859 491.853 9.35807 491.86 9.8909 491.867C9.90422 492.137 9.90422 492.399 9.90422 492.669Z" fill="#FFC502"/>
<path id="Vector_203" d="M214.982 483.635C214.909 484.189 214.836 484.735 214.763 485.289L214.476 485.34C214.376 484.757 214.276 484.174 214.176 483.591L214.196 483.577C214.47 483.584 214.736 483.613 215.002 483.657L214.976 483.635H214.982Z" fill="#FFC502"/>
<path id="Vector_204" d="M49.4067 482.797C49.4733 483.365 49.5333 483.933 49.5999 484.494H49.2136H48.8273C48.8739 483.904 48.9272 483.321 48.9738 482.731C49.107 482.804 49.2535 482.826 49.4001 482.797H49.4067Z" fill="#FFC502"/>
<path id="Vector_205" d="M53.6494 476.378C53.696 476.968 53.7426 477.558 53.7892 478.141C52.7169 477.653 52.8701 477.041 53.6494 476.378Z" fill="#FFC502"/>
<path id="Vector_206" d="M139.788 475.445C140.98 475.525 140.787 476.363 140.58 477.208C139.708 476.953 139.774 476.181 139.788 475.445Z" fill="#FFC502"/>
<path id="Vector_207" d="M163.785 0C163.984 0.0874289 164.335 0.138429 164.362 0.262287C164.468 0.772289 164.11 0.801429 163.771 0.794143C163.765 0.531856 163.771 0.262287 163.785 0Z" fill="#FFC502"/>
<path id="Vector_208" d="M238.187 10.8335C238.747 10.8408 239.033 11.1541 239.04 11.7734C238.54 11.7005 238.254 11.3872 238.187 10.8335Z" fill="#FFC502"/>
<path id="Vector_209" d="M199.317 17.2159C198.958 17.2378 198.585 17.2159 198.691 16.6768C198.718 16.5456 199.084 16.4873 199.297 16.3999C199.311 16.6695 199.317 16.9463 199.317 17.2159Z" fill="#FFC502"/>
<path id="Vector_210" d="M260.506 23.6128C260.532 24.2321 260.273 24.5381 259.706 24.5089C259.746 23.9625 260.013 23.6638 260.506 23.6128Z" fill="#FFC502"/>
<path id="Vector_211" d="M101.75 26.4188C102.003 26.346 102.263 26.3241 102.523 26.3606C102.51 26.9289 102.263 27.2421 101.724 27.2203C101.717 26.9507 101.724 26.6811 101.744 26.4188H101.75Z" fill="#FFC502"/>
<path id="Vector_212" d="M239 42.6726C238.674 42.6507 238.274 42.6726 238.387 42.1407C238.414 42.0096 238.787 41.9659 239 41.8857C239.02 42.148 239.02 42.4103 239 42.6726Z" fill="#FFC502"/>
<path id="Vector_213" d="M225.778 47.2547C226.391 47.2037 226.664 47.5315 226.624 48.1945C226.105 48.1435 225.825 47.823 225.778 47.2547Z" fill="#FFC502"/>
<path id="Vector_214" d="M105.034 48.1953C104.941 48.698 104.668 48.9895 104.215 49.0915C104.315 48.6033 104.594 48.3046 105.034 48.1953Z" fill="#FFC502"/>
<path id="Vector_215" d="M130.676 48.2019C131.056 48.1874 131.475 48.1874 131.362 48.7775C131.335 48.9159 130.922 48.9669 130.689 49.0544C130.683 48.7702 130.676 48.4861 130.676 48.2019Z" fill="#FFC502"/>
<path id="Vector_216" d="M200.163 59.1748C200.39 59.2622 200.783 59.3059 200.809 59.4371C200.923 59.9981 200.516 59.9981 200.157 60.0054C200.143 59.7285 200.143 59.4517 200.157 59.1748H200.163Z" fill="#FFC502"/>
<path id="Vector_217" d="M16.538 66.4238C16.9843 66.5331 17.2573 66.8318 17.3572 67.3273C16.9177 67.2107 16.6446 66.912 16.538 66.4238Z" fill="#FFC502"/>
<path id="Vector_218" d="M11.554 76.3829C10.844 76.106 10.8573 75.8365 11.554 75.5669C11.5606 75.8365 11.5606 76.1133 11.554 76.3829Z" fill="#FFC502"/>
<path id="Vector_219" d="M147.22 93.7375C147.22 93.4388 147.214 93.1328 147.22 92.8341C147.493 92.8268 147.773 92.8268 148.046 92.8341C148.046 93.1182 148.046 93.3951 148.033 93.6792C147.766 93.7229 147.5 93.7302 147.234 93.7084V93.7448L147.22 93.7375Z" fill="#FFC502"/>
<path id="Vector_220" d="M5.75939 110.991C5.56033 110.86 5.36791 110.729 5.16886 110.59C5.36791 110.459 5.56033 110.328 5.75939 110.189C5.77266 110.452 5.77266 110.721 5.75939 110.984V110.991Z" fill="#FFC502"/>
<path id="Vector_221" d="M261.358 111.079C261.065 111.079 260.772 111.079 260.486 111.079C260.466 110.423 260.759 110.139 261.338 110.183C261.338 110.481 261.352 110.773 261.365 111.071L261.358 111.079Z" fill="#FFC502"/>
<path id="Vector_222" d="M129.038 111.974C129.304 111.96 129.564 111.974 129.824 112.018C129.837 112.287 129.844 112.557 129.83 112.827C129.371 112.761 129.111 112.47 129.031 111.967L129.038 111.974Z" fill="#FFC502"/>
<path id="Vector_223" d="M68.6552 118.378C68.8883 118.466 69.2946 118.51 69.3212 118.641C69.4411 119.224 69.0148 119.209 68.6552 119.216C68.6418 118.939 68.6418 118.663 68.6552 118.378Z" fill="#FFC502"/>
<path id="Vector_224" d="M24.0376 121.089C24.2907 121.067 24.5504 121.053 24.8102 121.06C24.8301 121.694 24.5504 121.993 23.9776 121.971C23.9643 121.672 23.9843 121.381 24.0376 121.089Z" fill="#FFC502"/>
<path id="Vector_225" d="M119.933 125.657C120.379 125.744 120.639 126.028 120.719 126.524C120.293 126.414 120.033 126.123 119.933 125.657Z" fill="#FFC502"/>
<path id="Vector_226" d="M29.7501 137.409C29.4316 137.402 29.0733 137.38 29.1795 136.885C29.206 136.761 29.5511 136.71 29.7435 136.63C29.7634 136.885 29.7634 137.147 29.7501 137.402V137.409Z" fill="#FFC502"/>
<path id="Vector_227" d="M47.1154 150.224C47.1021 150.799 46.849 151.12 46.3095 151.134C46.3695 150.61 46.6359 150.304 47.1154 150.224Z" fill="#FFC502"/>
<path id="Vector_228" d="M243.156 153.853L242.51 153.474L243.122 153.052C243.142 153.321 243.149 153.591 243.156 153.853Z" fill="#FFC502"/>
<path id="Vector_229" d="M101.708 166.559C101.396 166.559 101.058 166.523 101.151 166.057C101.177 165.933 101.502 165.882 101.688 165.794C101.708 166.049 101.715 166.304 101.701 166.559H101.708Z" fill="#FFC502"/>
<path id="Vector_230" d="M172.856 166.61C172.856 166.304 172.856 166.005 172.856 165.699C173.129 165.699 173.409 165.699 173.682 165.699C173.682 165.99 173.682 166.275 173.675 166.559C173.402 166.61 173.136 166.617 172.863 166.602L172.856 166.61Z" fill="#FFC502"/>
<path id="Vector_231" d="M235.68 167.434C235.481 167.346 235.136 167.295 235.11 167.164C235.01 166.661 235.355 166.618 235.7 166.64C235.7 166.909 235.7 167.171 235.68 167.441V167.434Z" fill="#FFC502"/>
<path id="Vector_232" d="M154.68 177.532C154.647 176.905 154.913 176.592 155.493 176.621C155.493 176.927 155.466 177.219 155.386 177.503C155.146 177.525 154.913 177.532 154.673 177.525L154.68 177.532Z" fill="#FFC502"/>
<path id="Vector_233" d="M232.406 178.464C232.872 178.552 233.152 178.85 233.232 179.368C232.792 179.244 232.512 178.952 232.406 178.464Z" fill="#FFC502"/>
<path id="Vector_234" d="M21.48 184.788C21.2669 184.657 21.0538 184.526 20.8406 184.395C21.0538 184.263 21.2602 184.125 21.4667 183.994C21.48 184.256 21.4867 184.526 21.4734 184.788H21.48Z" fill="#FFC502"/>
<path id="Vector_235" d="M205.944 183.935C206.47 183.95 206.737 184.249 206.757 184.824C206.49 184.824 206.224 184.795 205.958 184.722C205.944 184.46 205.938 184.198 205.938 183.928L205.944 183.935Z" fill="#FFC502"/>
<path id="Vector_236" d="M253.825 186.683C253.752 186.894 253.712 187.273 253.605 187.295C253.166 187.404 253.179 187.003 253.159 186.676C253.386 186.654 253.605 186.654 253.832 186.676L253.825 186.683Z" fill="#FFC502"/>
<path id="Vector_237" d="M332.471 186.652C332.451 187.235 332.184 187.563 331.645 187.585C331.718 187.06 331.991 186.74 332.471 186.652Z" fill="#FFC502"/>
<path id="Vector_238" d="M70.3003 189.4C70.6 189.553 70.8997 189.698 71.2061 189.851C70.9929 190.216 70.6932 190.361 70.3069 190.267C70.3069 189.975 70.3003 189.691 70.3069 189.4H70.3003Z" fill="#FFC502"/>
<path id="Vector_239" d="M258.894 194.835C258.894 194.245 259.127 193.895 259.707 193.925C259.7 194.201 259.687 194.478 259.673 194.755C259.414 194.85 259.154 194.872 258.881 194.813L258.894 194.835Z" fill="#FFC502"/>
<path id="Vector_240" d="M155.499 197.633C155.831 197.633 156.163 197.691 156.05 198.164C156.023 198.296 155.692 198.339 155.506 198.427C155.486 198.164 155.486 197.902 155.506 197.64L155.499 197.633Z" fill="#FFC502"/>
<path id="Vector_241" d="M200.177 202.23C200.376 202.318 200.727 202.369 200.754 202.5C200.853 203.01 200.482 203.01 200.157 203.017C200.157 202.755 200.157 202.493 200.177 202.238V202.23Z" fill="#FFC502"/>
<path id="Vector_242" d="M133.993 203.993C134.219 204.081 134.626 204.132 134.652 204.27C134.772 204.846 134.359 204.86 133.986 204.86C133.986 204.569 133.986 204.285 133.993 203.993Z" fill="#FFC502"/>
<path id="Vector_243" d="M220.011 207.651C220.358 207.651 220.757 207.651 220.644 208.197C220.617 208.328 220.231 208.372 220.011 208.452C219.991 208.183 219.991 207.92 220.011 207.651Z" fill="#FFC502"/>
<path id="Vector_244" d="M277.044 230.295C276.838 230.215 276.471 230.171 276.445 230.047C276.338 229.523 276.724 229.537 277.044 229.523C277.064 229.778 277.064 230.04 277.044 230.295Z" fill="#FFC502"/>
<path id="Vector_245" d="M22.3524 235.759C22.3257 235.482 22.3191 235.213 22.3324 234.936C22.9118 234.907 23.2182 235.183 23.1716 235.846C22.8985 235.846 22.6254 235.825 22.3524 235.759Z" fill="#FFC502"/>
<path id="Vector_246" d="M96.7752 239.497C97.0416 239.482 97.3013 239.497 97.5611 239.562C97.5811 239.817 97.5811 240.079 97.5611 240.334C97.0882 240.298 96.8218 240.021 96.7685 239.504L96.7752 239.497Z" fill="#FFC502"/>
<path id="Vector_247" d="M146.335 247.7C146.321 248.064 146.341 248.509 145.848 248.392C145.735 248.363 145.695 247.948 145.622 247.707C145.862 247.685 146.095 247.685 146.335 247.707V247.7Z" fill="#FFC502"/>
<path id="Vector_248" d="M291.95 250.418C291.93 250.993 291.657 251.299 291.13 251.321C291.204 250.804 291.477 250.498 291.95 250.418Z" fill="#FFC502"/>
<path id="Vector_249" d="M294.447 254.068C294.713 254.046 294.979 254.068 295.239 254.126C295.252 254.41 295.266 254.694 295.266 254.971C294.726 254.957 294.473 254.636 294.447 254.06V254.068Z" fill="#FFC502"/>
<path id="Vector_250" d="M41.3479 263.176C41.8074 263.256 42.0605 263.562 42.1404 264.057H42.1604C41.894 264.072 41.6209 264.057 41.3545 264.021C41.3545 263.737 41.3479 263.46 41.3479 263.176Z" fill="#FFC502"/>
<path id="Vector_251" d="M160.461 268.669C160.794 268.691 161.194 268.669 161.087 269.208C161.061 269.339 160.688 269.383 160.468 269.47C160.455 269.201 160.448 268.939 160.455 268.669H160.461Z" fill="#FFC502"/>
<path id="Vector_252" d="M183.626 277.791C183.892 277.747 184.152 277.74 184.418 277.754C184.332 278.242 184.079 278.548 183.619 278.621C183.619 278.344 183.619 278.067 183.626 277.791Z" fill="#FFC502"/>
<path id="Vector_253" d="M105.034 285.936C105.034 285.63 105.034 285.331 105.034 285.025C105.307 285.025 105.587 285.025 105.86 285.025V285.936H105.447H105.034Z" fill="#FFC502"/>
<path id="Vector_254" d="M321.754 289.666C321.967 289.753 322.334 289.797 322.354 289.928C322.454 290.46 322.074 290.46 321.734 290.453C321.728 290.191 321.734 289.928 321.748 289.666H321.754Z" fill="#FFC502"/>
<path id="Vector_255" d="M13.2055 310.474C12.8937 310.452 12.5088 310.466 12.615 309.956C12.6415 309.825 12.9932 309.782 13.1989 309.701C13.2188 309.964 13.2188 310.219 13.1989 310.481L13.2055 310.474Z" fill="#FFC502"/>
<path id="Vector_256" d="M387.072 320.55C387.625 320.528 387.858 320.856 387.845 321.439C387.365 321.38 387.112 321.074 387.072 320.55Z" fill="#FFC502"/>
<path id="Vector_257" d="M68.6681 322.452C69.0611 322.459 69.434 322.554 69.2742 323.101C69.2342 323.239 68.8479 323.261 68.6215 323.334C68.6415 323.042 68.6548 322.744 68.6614 322.452H68.6681Z" fill="#FFC502"/>
<path id="Vector_258" d="M335.841 324.215C336.054 324.368 336.274 324.521 336.487 324.674C336.261 324.813 336.041 324.951 335.814 325.089C335.794 324.798 335.801 324.507 335.841 324.215Z" fill="#FFC502"/>
<path id="Vector_259" d="M68.6949 328.724C68.9614 327.857 69.2144 327.952 69.4609 328.739C69.2078 328.739 68.9547 328.739 68.6949 328.724Z" fill="#FFC502"/>
<path id="Vector_260" d="M187.722 328.696C188.261 328.747 188.514 329.082 188.554 329.658C188.075 329.548 187.815 329.213 187.722 328.696Z" fill="#FFC502"/>
<path id="Vector_261" d="M215.002 331.392C214.636 331.377 214.27 331.29 214.423 330.765C214.463 330.627 214.829 330.605 215.049 330.532C215.029 330.816 215.016 331.108 215.009 331.392H215.002Z" fill="#FFC502"/>
<path id="Vector_262" d="M48.8005 346.065C49.0669 346.044 49.3333 346.065 49.593 346.124C49.613 346.401 49.6197 346.677 49.613 346.947C49.0535 346.976 48.7871 346.677 48.8005 346.058V346.065Z" fill="#FFC502"/>
<path id="Vector_263" d="M6.60751 349.693C7.17363 349.678 7.45337 349.984 7.44005 350.611C7.18029 350.618 6.92054 350.596 6.66079 350.538L6.67411 350.553C6.62083 350.268 6.60085 349.984 6.60751 349.693Z" fill="#FFC502"/>
<path id="Vector_264" d="M49.6263 354.269C49.8187 354.4 50.0178 354.532 50.2102 354.663C50.0244 354.801 49.832 354.94 49.6462 355.078C49.633 354.808 49.6263 354.539 49.6263 354.269Z" fill="#FFC502"/>
<path id="Vector_265" d="M33.9217 356.134C34.1881 356.083 34.4478 356.061 34.7142 356.09C34.6476 356.6 34.3945 356.892 33.9217 356.928C33.9083 356.666 33.9083 356.404 33.9217 356.134Z" fill="#FFC502"/>
<path id="Vector_266" d="M106.705 513.652C106.792 513.149 107.058 512.85 107.518 512.755C107.411 513.229 107.145 513.535 106.705 513.652Z" fill="#FFC502"/>
<path id="Vector_267" d="M44.6581 512.763C45.1909 512.785 45.5039 513.062 45.5239 513.674C45.051 513.586 44.7446 513.302 44.6581 512.763Z" fill="#FFC502"/>
<path id="Vector_268" d="M239.83 473.521C239.624 473.376 239.425 473.237 239.219 473.091C239.425 472.953 239.637 472.814 239.843 472.683C239.843 472.96 239.843 473.244 239.83 473.521Z" fill="#FFC502"/>
<path id="Vector_269" d="M157.99 507.356C158.197 507.437 158.556 507.48 158.583 507.604C158.689 508.121 158.31 508.121 157.983 508.129C157.964 507.866 157.97 507.611 157.983 507.349L157.99 507.356Z" fill="#FFC502"/>
<path id="Vector_270" d="M238.214 500.056C238.413 500.136 238.745 500.173 238.778 500.304C238.904 500.777 238.539 500.814 238.234 500.879C238.201 500.603 238.194 500.333 238.207 500.056H238.214Z" fill="#FFC502"/>
<path id="Vector_271" d="M316 543.741C316.213 543.894 316.433 544.047 316.653 544.2C316.42 544.324 316.193 544.441 315.96 544.565C315.947 544.288 315.96 544.011 316 543.741Z" fill="#FFC502"/>
<path id="Vector_272" d="M240.651 499.015C240.438 498.928 240.072 498.877 240.045 498.746C239.939 498.214 240.338 498.221 240.671 498.199C240.671 498.469 240.671 498.746 240.658 499.015H240.651Z" fill="#FFC502"/>
<path id="Vector_273" d="M139.768 437.137C140.214 437.246 140.48 437.545 140.567 438.04C140.127 437.931 139.867 437.618 139.768 437.137Z" fill="#FFC502"/>
<path id="Vector_274" d="M45.4838 494.519C46.0366 494.533 46.3363 494.825 46.3496 495.451C45.8568 495.371 45.5571 495.072 45.4838 494.519Z" fill="#FFC502"/>
<path id="Vector_275" d="M135.625 409.794C135.172 409.707 134.906 409.408 134.812 408.913H134.806C135.079 408.913 135.352 408.92 135.618 408.956C135.618 409.233 135.618 409.517 135.618 409.794H135.625Z" fill="#FFC502"/>
<path id="Vector_276" d="M111.621 427.964L111.228 428.03H110.828C110.862 427.476 111.121 427.17 111.641 427.148C111.641 427.418 111.641 427.694 111.621 427.964Z" fill="#FFC502"/>
<path id="Vector_277" d="M34.7473 490.941C35.0204 491.109 35.3001 491.277 35.5732 491.444C35.2868 491.583 35.0004 491.714 34.714 491.852C34.734 491.546 34.7473 491.247 34.7473 490.941Z" fill="#FFC502"/>
<path id="Vector_278" d="M306.003 404.337L305.603 404.352L305.21 404.286C305.19 404.009 305.184 403.725 305.19 403.448C305.756 403.419 306.003 403.747 306.003 404.337Z" fill="#FFC502"/>
<path id="Vector_279" d="M251.441 402.573C251.788 402.573 252.181 402.573 252.068 403.112C252.041 403.244 251.661 403.287 251.448 403.367C251.428 403.105 251.428 402.836 251.441 402.573Z" fill="#FFC502"/>
<path id="Vector_280" d="M248.95 515.496C249.496 515.496 249.789 515.772 249.789 516.392C249.297 516.326 249.01 516.035 248.95 515.496Z" fill="#FFC502"/>
<path id="Vector_281" d="M15.6458 392.534C15.6924 392.825 15.7124 393.116 15.6991 393.408C15.2195 393.335 14.9398 393.044 14.8865 392.512C15.1396 392.512 15.3927 392.519 15.6458 392.534Z" fill="#FFC502"/>
<path id="Vector_282" d="M227.484 391.579C227.484 391.229 227.51 390.843 227.95 390.952C228.063 390.982 228.11 391.353 228.19 391.564L227.837 391.586H227.484V391.579Z" fill="#FFC502"/>
<path id="Vector_283" d="M39.6695 486.258C39.4098 486.323 39.1433 486.345 38.8769 486.323C38.9102 485.77 39.1766 485.478 39.6828 485.456C39.6895 485.726 39.6828 485.988 39.6695 486.258Z" fill="#FFC502"/>
<path id="Vector_284" d="M28.1072 383.368C28.3336 383.448 28.7132 383.477 28.7532 383.615C28.8997 384.162 28.5334 384.257 28.1404 384.249C28.1404 383.958 28.1271 383.659 28.1138 383.368H28.1072Z" fill="#FFC502"/>
<path id="Vector_285" d="M235.73 378.895C235.915 379.026 236.108 379.157 236.294 379.296C236.108 379.427 235.922 379.565 235.73 379.696C235.716 379.427 235.716 379.165 235.73 378.895Z" fill="#FFC502"/>
<path id="Vector_286" d="M368.836 473.507C368.284 473.565 368.084 473.238 368.077 472.684C368.603 472.647 368.816 472.975 368.836 473.507Z" fill="#FFC502"/>
<path id="Vector_287" d="M315.926 402.523C315.96 403.098 315.873 403.652 315.433 404.016C315.274 404.147 314.927 404.198 314.754 404.104C314.188 403.79 314.654 403.463 314.814 403.164C314.934 402.923 315.107 402.712 315.26 402.494H315.6L315.933 402.53L315.926 402.523Z" fill="#FFC502"/>
<path id="Vector_288" d="M315.953 398.879C315.9 399.448 315.84 400.016 315.094 399.746C314.981 399.703 314.801 399.542 314.814 399.477C314.968 398.799 315.407 398.726 315.94 398.872L315.953 398.879Z" fill="#FFC502"/>
<path id="Vector_289" d="M314.322 406.15C314.361 405.764 314.507 405.596 314.746 405.691C314.753 405.691 314.74 405.932 314.68 405.983C314.58 406.063 314.434 406.085 314.308 406.128L314.322 406.15Z" fill="#FFC502"/>
<path id="Vector_290" d="M312.583 404.373C312.743 404.147 312.896 403.914 313.056 403.688C313.549 404.409 312.969 404.343 312.603 404.424L312.583 404.373Z" fill="#FFC502"/>
<path id="Vector_291" d="M315.927 402.522L315.594 402.478H315.254C315.207 402.041 315.321 401.721 315.78 401.874C315.88 401.903 315.88 402.296 315.927 402.522Z" fill="#FFC502"/>
<path id="Vector_292" d="M19.755 365.125C19.8683 365.686 19.8683 366.538 19.4287 366.56C18.9292 366.582 18.8959 365.773 18.9958 365.205C19.2489 365.212 19.502 365.19 19.755 365.132V365.125Z" fill="#FFC502"/>
<path id="Vector_293" d="M19.7551 365.125C19.5021 365.183 19.2556 365.205 18.9959 365.198C18.9093 364.484 19.2223 364.214 19.8351 364.287C19.8684 364.571 19.8417 364.848 19.7618 365.125H19.7551Z" fill="#FFC502"/>
<path id="Vector_294" d="M24.7767 149.255C24.2905 149.27 23.5779 149.794 23.398 149.007C23.2249 148.235 23.8176 147.543 24.5303 147.732C25.2163 147.922 24.7234 148.738 24.7634 149.277L24.7767 149.255Z" fill="#FFC502"/>
<path id="Vector_295" d="M288.639 409.801C287.82 409.706 287.486 409.261 287.866 408.387C288.019 408.037 288.246 408.016 288.459 408.22C288.972 408.693 288.605 409.276 288.625 409.808H288.632L288.639 409.801Z" fill="#FFC502"/>
<path id="Vector_296" d="M142.232 123.755C142.019 123.638 141.799 123.529 141.586 123.413C141.706 123.289 141.819 123.172 141.939 123.048C142.032 123.289 142.125 123.529 142.212 123.77L142.232 123.748V123.755Z" fill="#FFC502"/>
<path id="Vector_297" d="M65.4047 126.487C65.5313 125.722 65.1716 124.659 66.3572 124.535C66.8234 124.484 67.0698 124.863 67.0965 125.293C67.1364 125.941 67.4894 126.823 66.6969 127.099C66.3572 127.223 65.8243 126.684 65.3848 126.451L65.4047 126.487Z" fill="#FFC502"/>
<path id="Vector_298" d="M50.526 325.199C50.9989 325.229 51.4651 325.258 51.938 325.294C51.9913 325.964 52.4242 326.933 51.4385 327.035C50.1797 327.167 50.4394 326.059 50.526 325.199Z" fill="#FFC502"/>
<path id="Vector_299" d="M282.831 268.56C283.231 268.421 283.564 268.487 283.73 268.946C283.757 269.026 283.61 269.281 283.53 269.295C283.078 269.361 282.884 269.055 282.811 268.611L282.831 268.56Z" fill="#FFC502"/>
<path id="Vector_300" d="M225.08 250.549C225.273 250.571 225.466 250.571 225.659 250.556C225.719 251.678 226.172 252.807 225.632 254.265C224.4 252.982 224.993 251.722 225.08 250.549Z" fill="#FFC502"/>
<path id="Vector_301" d="M358.893 336.011C358.919 335.734 358.959 335.457 358.999 335.18C359.439 335.064 359.705 334.751 359.805 334.27C361.09 334.685 360.771 335.37 360.071 336.128C359.678 336.091 359.286 336.055 358.893 336.018V336.011Z" fill="#FFC502"/>
<path id="Vector_302" d="M362.269 332.404C362.716 332.513 362.982 332.827 363.095 333.307C362.656 333.191 362.389 332.878 362.269 332.404Z" fill="#FFC502"/>
<path id="Vector_303" d="M16.5379 133.825C17.6569 133.825 18.3562 134.284 18.223 135.668C16.4514 135.916 16.3781 135.836 16.5379 133.825Z" fill="#FFC502"/>
<path id="Vector_304" d="M17.3705 138.399C16.8111 138.407 16.0718 139.026 15.8387 137.926C15.7321 137.416 16.1584 137.102 16.5047 137.037C17.5437 136.833 17.284 137.78 17.3839 138.392L17.3705 138.406V138.399Z" fill="#FFC502"/>
<path id="Vector_305" d="M29.6567 209.764C29.5505 209.961 29.451 210.15 29.3515 210.332C29.2652 210.237 29.0927 210.114 29.1126 210.041C29.159 209.837 29.2785 209.655 29.3714 209.465C29.4643 209.56 29.5505 209.655 29.6567 209.757V209.764Z" fill="#FFC502"/>
<path id="Vector_306" d="M238.194 243.125C237.967 243.001 237.747 242.878 237.528 242.761C237.654 242.623 237.781 242.484 237.907 242.353C238.001 242.615 238.1 242.87 238.194 243.133V243.125Z" fill="#FFC502"/>
<path id="Vector_307" d="M17.2775 146.997C17.1177 147.15 16.9045 147.514 16.7647 147.478C16.425 147.391 16.1186 147.128 15.7989 146.939C16.1253 146.764 16.4383 146.516 16.778 146.443C16.9045 146.414 17.1043 146.8 17.2708 146.99L17.2775 146.997Z" fill="#FFC502"/>
<path id="Vector_308" d="M42.0604 100.237C42.0337 100.499 42.0604 100.754 42.1403 101.002C41.6674 101.351 41.4609 102.335 40.675 101.883C40.4619 101.759 40.3353 101.075 40.4419 100.754C40.735 99.8724 41.4543 100.171 42.0604 100.229V100.237Z" fill="#FFC502"/>
<path id="Vector_309" d="M175.312 16.2831C175.193 16.152 175.067 16.0281 174.948 15.897C175.021 15.9188 175.127 15.9115 175.167 15.9698C175.233 16.0573 175.259 16.1884 175.299 16.2977L175.312 16.2831Z" fill="#FFC502"/>
<path id="Vector_310" d="M126.5 270.475C126.513 271.043 126.753 271.692 126.114 272.027C126.02 272.078 125.647 271.772 125.607 271.575C125.448 270.788 125.934 270.577 126.52 270.49L126.5 270.468V270.475Z" fill="#FFC502"/>
<path id="Vector_311" d="M127.346 274.075L126.953 274.09L126.56 274.075C126.64 273.572 126.906 273.288 127.359 273.193C127.379 273.485 127.379 273.776 127.359 274.068L127.346 274.075Z" fill="#FFC502"/>
<path id="Vector_312" d="M97.6141 276.8C97.5808 276.508 97.5742 276.224 97.6075 275.933C97.9538 275.94 98.3135 276.006 98.1936 276.508C98.1603 276.647 97.8139 276.705 97.6141 276.8Z" fill="#FFC502"/>
<path id="Vector_313" d="M103.349 141.117C103.282 140.658 103.389 140.294 103.835 140.177C103.915 140.155 104.141 140.352 104.134 140.425C104.088 140.913 103.762 141.08 103.362 141.124H103.342L103.349 141.117Z" fill="#FFC502"/>
<path id="Vector_314" d="M153.854 12.6617C153.98 12.516 154.113 12.363 154.239 12.2173C154.219 12.312 154.226 12.4431 154.173 12.4941C154.086 12.5743 153.954 12.6034 153.841 12.6544L153.854 12.669V12.6617Z" fill="#FFC502"/>
<path id="Vector_315" d="M18.1563 150.079C18.0698 149.809 18.0764 149.547 18.1697 149.277C19.182 149.423 18.9023 150.166 18.7691 150.836L18.4627 150.858L18.1563 150.836C18.1364 150.581 18.1364 150.326 18.1563 150.071V150.079Z" fill="#FFC502"/>
<path id="Vector_316" d="M109.996 425.298C109.969 425.699 109.829 426.019 109.416 426.049C109.343 426.049 109.183 425.83 109.203 425.757C109.316 425.327 109.623 425.233 109.996 425.298Z" fill="#FFC502"/>
<path id="Vector_317" d="M173.742 431.607C173.722 431.017 173.695 430.434 173.675 429.844C174.161 429.844 174.661 429.844 174.647 430.601C174.634 431.228 174.274 431.527 173.748 431.607H173.742Z" fill="#FFC502"/>
<path id="Vector_318" d="M17.3837 224.961C17.9365 225.063 18.3828 225.297 18.2096 226.032C18.163 226.215 17.8033 226.499 17.7301 226.448C17.1639 226.084 17.4104 225.464 17.4037 224.925L17.3837 224.954V224.961Z" fill="#FFC502"/>
<path id="Vector_319" d="M172.057 228.525C172.317 227.913 172.576 227.301 172.829 226.689C173.402 226.885 173.829 227.308 173.689 227.978C173.462 229.093 172.663 228.554 172.05 228.532L172.057 228.525Z" fill="#FFC502"/>
<path id="Vector_320" d="M133.7 501.652C133.527 501.55 133.354 501.448 133.174 501.339C133.26 501.244 133.367 501.047 133.44 501.062C133.627 501.106 133.8 501.237 133.98 501.332C133.893 501.426 133.807 501.528 133.7 501.645V501.652Z" fill="#FFC502"/>
<path id="Vector_321" d="M142.103 395.644C142.057 395.732 142.011 395.826 141.971 395.914C141.851 395.819 141.732 395.717 141.612 395.615C141.699 395.528 141.785 395.44 141.871 395.353C141.951 395.447 142.03 395.542 142.11 395.644H142.103Z" fill="#FFC502"/>
<path id="Vector_322" d="M257.729 470.724C257.562 470.622 257.396 470.513 257.223 470.411C257.309 470.316 257.422 470.134 257.489 470.149C257.676 470.2 257.842 470.331 258.015 470.426C257.922 470.52 257.835 470.615 257.729 470.724Z" fill="#FFC502"/>
<path id="Vector_323" d="M125.361 392.388C125.201 392.286 125.042 392.177 124.882 392.067C124.968 391.98 125.075 391.798 125.141 391.812C125.321 391.863 125.474 391.995 125.641 392.097C125.554 392.184 125.468 392.279 125.361 392.388Z" fill="#FFC502"/>
<path id="Vector_324" d="M39.262 364.273C39.3416 364.462 39.4478 364.652 39.4876 364.848C39.5008 364.921 39.3283 365.023 39.2421 365.118C39.1625 364.928 39.0563 364.739 39.0165 364.542C39.0032 364.469 39.1757 364.367 39.262 364.273Z" fill="#FFC502"/>
<path id="Vector_325" d="M28.7266 477.455C28.7399 477.922 28.7532 478.388 28.7665 478.854C28.0539 478.905 26.9882 479.43 27.1281 477.973C27.2213 476.967 28.1205 477.397 28.7332 477.455H28.7266Z" fill="#FFC502"/>
<path id="Vector_326" d="M254.205 478.36C254.291 478.36 254.397 478.331 254.45 478.382C254.663 478.557 254.61 478.761 254.298 478.899C254.258 478.914 254.112 478.739 254.072 478.622C254.052 478.557 254.152 478.448 254.198 478.36H254.205Z" fill="#FFC502"/>
<path id="Vector_327" d="M251.122 533.527C250.949 533.418 250.775 533.316 250.602 533.207C250.689 533.112 250.795 532.923 250.862 532.937C251.049 532.981 251.215 533.112 251.388 533.207C251.302 533.309 251.215 533.404 251.115 533.52L251.122 533.527Z" fill="#FFC502"/>
<path id="Vector_328" d="M381.961 373.86C381.868 373.948 381.769 374.108 381.683 374.101C381.596 374.093 381.517 373.919 381.437 373.817C381.53 373.729 381.63 373.569 381.716 373.576C381.802 373.576 381.882 373.758 381.961 373.86Z" fill="#FFC502"/>
<path id="Vector_329" d="M152.047 223.467C152.001 223.576 151.954 223.686 151.901 223.788C151.768 223.678 151.629 223.562 151.496 223.452C151.589 223.343 151.682 223.241 151.775 223.132C151.861 223.241 151.954 223.358 152.04 223.467H152.047Z" fill="#FFC502"/>
<path id="Vector_330" d="M194.002 233.923C193.915 233.872 193.822 233.814 193.736 233.755C193.836 233.61 193.929 233.457 194.028 233.311C194.114 233.42 194.274 233.529 194.267 233.631C194.267 233.733 194.094 233.828 194.002 233.923Z" fill="#FFC502"/>
<path id="Vector_331" d="M336.252 365.985C336.153 365.934 336.06 365.875 335.961 365.824C336.067 365.679 336.166 365.533 336.272 365.38C336.365 365.482 336.465 365.591 336.558 365.693L336.252 365.985Z" fill="#FFC502"/>
<path id="Vector_332" d="M38.8368 162.939C38.3239 162.917 37.8177 162.888 37.3049 162.866C37.2716 162.188 36.9252 161.256 37.9043 161.161C39.1498 161.037 38.9833 162.05 38.8368 162.939Z" fill="#FFC502"/>
<path id="Vector_333" d="M188.641 404.431C189.127 404.453 189.607 404.475 190.093 404.497C190.1 405.152 190.446 406.085 189.494 406.187C188.195 406.318 188.568 405.233 188.641 404.431Z" fill="#FFC502"/>
<path id="Vector_334" d="M377.866 406.5C377.773 406.682 377.68 406.864 377.587 407.053C377.501 406.959 377.335 406.835 377.355 406.762C377.395 406.558 377.514 406.376 377.601 406.179C377.687 406.274 377.766 406.376 377.866 406.492V406.5Z" fill="#FFC502"/>
<path id="Vector_335" d="M223.335 433.552C223.527 433.654 223.719 433.756 223.919 433.865C223.812 433.982 223.706 434.091 223.593 434.208C223.514 433.982 223.434 433.756 223.355 433.53L223.335 433.552Z" fill="#FFC502"/>
<path id="Vector_336" d="M97.5787 104.681C97.5853 104.994 97.5919 105.3 97.5986 105.614C96.8156 105.33 96.7891 105.016 97.5787 104.681Z" fill="#FFC502"/>
<path id="Vector_337" d="M98.3871 106.466L97.9941 106.488H97.6012C97.5945 106.175 97.5812 105.869 97.5679 105.562C98.0474 105.643 98.3072 105.949 98.3804 106.466H98.3871Z" fill="#FFC502"/>
<path id="Vector_338" d="M378.8 305.068C379.08 305.068 379.353 305.068 379.633 305.068C379.626 305.673 379.619 306.271 379.613 306.875L377.974 306.897C378.254 306.292 378.527 305.68 378.807 305.068H378.8Z" fill="#FFC502"/>
<path id="Vector_339" d="M124.029 519.983C123.816 519.881 123.603 519.779 123.39 519.67L123.736 519.291C123.829 519.524 123.923 519.765 124.009 520.005L124.029 519.983Z" fill="#FFC502"/>
<path id="Vector_340" d="M281.172 397.08C281.039 397.233 280.906 397.379 280.773 397.532C280.793 397.437 280.787 397.298 280.846 397.247C280.939 397.167 281.072 397.145 281.191 397.094L281.178 397.08H281.172Z" fill="#FFC502"/>
<path id="Vector_341" d="M22.3591 308.668C22.3125 308.391 22.3058 308.107 22.3524 307.83C22.5722 307.968 22.7854 308.107 23.0052 308.245C22.792 308.384 22.5789 308.529 22.3658 308.668H22.3591Z" fill="#FFC502"/>
<path id="Vector_342" d="M196.84 400.708C197.386 400.723 197.626 401.058 197.673 401.626C197.093 401.655 196.86 401.298 196.84 400.708Z" fill="#FFC502"/>
<path id="Vector_343" d="M151.369 420.788C151.589 420.912 151.802 421.043 152.022 421.167C151.436 421.765 151.476 421.138 151.389 420.766L151.369 420.788Z" fill="#FFC502"/>
<path id="Vector_344" d="M322.594 264.946C322.654 264.436 322.9 264.13 323.38 264.079C323.327 264.596 323.067 264.887 322.594 264.946Z" fill="#FFC502"/>
<path id="Vector_345" d="M127.372 312.346C127.472 312.084 127.566 311.829 127.665 311.567C127.785 311.705 127.912 311.851 128.038 311.989C127.819 312.106 127.592 312.223 127.372 312.346Z" fill="#FFC502"/>
<path id="Vector_346" d="M54.5261 470.877C54.4399 471.118 54.3602 471.366 54.2806 471.606C54.1612 471.482 54.0484 471.358 53.929 471.242C54.1347 471.132 54.347 471.016 54.5527 470.907L54.5261 470.885V470.877Z" fill="#FFC502"/>
<path id="Vector_347" d="M134.972 195.95C135.132 196.023 135.292 196.03 135.458 195.964C135.438 196.62 136.097 197.626 134.772 197.626C134.839 197.065 134.905 196.504 134.979 195.943L134.972 195.95Z" fill="#FFC502"/>
<path id="Vector_348" d="M167.075 394.355C167.288 394.486 167.494 394.61 167.708 394.741C167.088 395.39 167.195 394.661 167.081 394.348L167.068 394.362L167.075 394.355Z" fill="#FFC502"/>
<path id="Vector_349" d="M17.1507 156.38C16.6911 156.453 16.418 156.73 16.3448 157.24C14.4266 156.132 16.3714 155.695 16.6645 154.967C17.2306 155.273 17.0041 155.906 17.1507 156.38Z" fill="#FFC502"/>
<path id="Vector_350" d="M265.502 478.112C265.502 477.522 265.515 476.939 265.522 476.349C266.008 476.437 266.501 476.539 266.501 477.245C266.501 477.959 265.981 478.025 265.508 478.112H265.502Z" fill="#FFC502"/>
<path id="Vector_351" d="M60.3696 284.121C60.2764 284.602 60.0166 284.908 59.5704 285.002C59.6569 284.507 59.9167 284.208 60.3696 284.121Z" fill="#FFC502"/>
<path id="Vector_352" d="M158.829 92.8489C158.536 93.1403 158.25 93.4318 157.957 93.7232C157.351 93.694 156.738 93.6868 156.452 92.929C156.678 92.5866 156.911 92.2515 157.138 91.909C157.877 91.8435 158.843 91.2679 158.829 92.8489Z" fill="#FFC502"/>
<path id="Vector_353" d="M367.191 387.987C367.218 388.271 367.218 388.548 367.191 388.832C366.978 388.745 366.618 388.694 366.585 388.556C366.465 388.031 366.845 388.002 367.191 387.987Z" fill="#FFC502"/>
<path id="Vector_354" d="M19.8683 468.137C20.7075 468.006 21.6 467.664 22.0928 468.837C21.227 469.085 20.2413 469.791 19.8683 468.137Z" fill="#FFC502"/>
<path id="Vector_355" d="M2.48499 150.225C1.97881 150.174 1.47262 150.115 0.959774 150.064C0.979755 149.583 0.999734 149.095 1.01971 148.614C2.2652 148.323 2.93789 148.651 2.47833 150.232L2.48499 150.225Z" fill="#FFC502"/>
<path id="Vector_356" d="M115.737 150.173L115.357 150.224L114.978 150.202C114.991 149.838 115.004 149.423 115.471 149.532C115.597 149.561 115.65 149.947 115.737 150.173Z" fill="#FFC502"/>
<path id="Vector_357" d="M323.358 398.917C323.377 399.201 323.377 399.485 323.358 399.776C323.172 399.631 322.979 399.492 322.794 399.354C322.979 399.208 323.165 399.062 323.358 398.924V398.917Z" fill="#FFC502"/>
<path id="Vector_358" d="M313.429 330.539L313.036 330.568L312.643 330.546C312.676 330.167 312.65 329.694 313.162 329.818C313.289 329.847 313.336 330.284 313.422 330.532L313.429 330.539Z" fill="#FFC502"/>
<path id="Vector_359" d="M182.746 34.7307C182.473 34.7161 182.207 34.6505 181.947 34.5412C181.961 33.9365 181.981 33.3391 181.994 32.7344C182.933 33.0841 182.706 33.9657 182.746 34.7307Z" fill="#FFC502"/>
<path id="Vector_360" d="M230.775 441.719C231.028 441.697 231.281 441.705 231.527 441.741C231.441 441.96 231.388 442.324 231.261 442.36C230.815 442.47 230.781 442.084 230.775 441.719Z" fill="#FFC502"/>
<path id="Vector_361" d="M170.312 17.2662C170.505 17.0695 170.591 16.8218 170.571 16.5303C170.824 16.5741 171.031 16.4866 171.184 16.2681C171.67 16.3774 172.057 16.5886 172.03 17.2371C171.457 17.2444 170.878 17.2589 170.305 17.2735L170.312 17.2662Z" fill="#FFC502"/>
<path id="Vector_362" d="M169.519 17.1947C169.819 17.1947 170.112 17.1875 170.412 17.1802C170.525 17.967 170.232 18.3095 169.506 18.1929C169.506 17.8577 169.512 17.5299 169.519 17.1947Z" fill="#FFC502"/>
<path id="Vector_363" d="M169.566 19.0813C169.286 19.0886 169 19.1031 168.72 19.1177C168.72 18.7971 168.72 18.4766 168.72 18.1487C169.006 18.1341 169.286 18.1196 169.572 18.105C169.572 18.4328 169.566 18.7607 169.566 19.0813Z" fill="#FFC502"/>
<path id="Vector_364" d="M217.467 12.3494C217.554 12.1527 217.567 11.9487 217.52 11.7447C217.893 11.701 218.326 11.8831 218.273 12.2328C218.213 12.6044 217.78 12.6044 217.467 12.3494Z" fill="#FFC502"/>
<path id="Vector_365" d="M138.901 377.984C138.915 377.656 138.921 377.335 138.928 377.008C139.208 377.168 139.494 377.335 139.781 377.496C139.487 377.656 139.194 377.824 138.901 377.984Z" fill="#FFC502"/>
<path id="Vector_366" d="M148.053 129.278C148.319 129.256 148.586 129.256 148.852 129.278C148.586 130.065 148.319 130.072 148.053 129.278Z" fill="#FFC502"/>
<path id="Vector_367" d="M191.811 297.702L191.458 297.746C191.458 297.746 191.099 297.724 191.105 297.724C191.119 297.156 191.139 296.58 191.152 296.012C191.365 295.983 191.572 295.975 191.785 296.012C191.791 296.573 191.805 297.141 191.811 297.702Z" fill="#FFC502"/>
<path id="Vector_368" d="M91.7731 44.5811C91.8131 45.2076 91.7065 45.7613 91.1604 46.0965C91.0738 45.4481 90.5543 44.5883 91.7731 44.5811Z" fill="#FFC502"/>
<path id="Vector_369" d="M258.894 150.188C258.967 150.953 259.174 151.791 258.115 151.951C258.061 151.193 257.555 150.195 258.894 150.188Z" fill="#FFC502"/>
<path id="Vector_370" d="M18.1565 150.079C18.1365 150.334 18.1365 150.589 18.1565 150.844C17.5038 151.223 17.4239 150.721 17.344 150.203C17.6037 150.087 17.8768 150.05 18.1565 150.079Z" fill="#FFC502"/>
<path id="Vector_371" d="M27.2613 173.925C27.3812 174.733 26.7351 175.127 26.462 175.717C25.8759 175.6 25.1566 175.804 24.9235 174.901C25.5895 174.245 26.2356 173.538 27.2613 173.932V173.925Z" fill="#FFC502"/>
<path id="Vector_372" d="M124.062 530.044C124.049 530.787 124.009 531.509 123.25 531.844C123.236 531.086 123.25 530.35 124.062 530.044Z" fill="#FFC502"/>
<path id="Vector_373" d="M145.549 305.971H145.149H144.749C144.729 305.672 144.729 305.381 144.743 305.082C145.189 305.184 145.462 305.483 145.555 305.978L145.549 305.971Z" fill="#FFC502"/>
<path id="Vector_374" d="M153.781 362.392L153.408 362.436L153.028 362.421C153.028 361.839 153.275 361.518 153.828 361.54C153.841 361.824 153.828 362.108 153.781 362.392Z" fill="#FFC502"/>
<path id="Vector_375" d="M235.703 18.1267C235.19 18.0902 234.937 17.7769 234.89 17.2378C235.403 17.2669 235.656 17.5875 235.703 18.1267Z" fill="#FFC502"/>
<path id="Vector_376" d="M189.314 392.592C189.28 393.109 189.247 393.626 189.214 394.144C188.481 394.166 187.755 394.18 187.029 394.202C187.009 393.656 186.989 393.109 186.963 392.563C187.748 392.191 188.534 392.198 189.314 392.592Z" fill="#FFC502"/>
<path id="Vector_377" d="M212.578 468.138C213.124 468.123 213.677 468.116 214.223 468.101C214.203 468.699 214.183 469.289 214.163 469.886C213.657 469.872 213.151 469.85 212.645 469.835C212.625 469.267 212.598 468.706 212.578 468.138Z" fill="#FFC502"/>
<path id="Vector_378" d="M59.5839 275.051C59.8369 275 60.0834 275 60.3365 275.051C60.2632 275.554 60.1966 276.056 60.1233 276.559H59.7703C59.7104 276.064 59.6505 275.561 59.5839 275.058V275.051Z" fill="#FFC502"/>
<path id="Vector_379" d="M193.53 201.225H193.117H192.704C192.704 200.919 192.704 200.62 192.704 200.314C192.977 200.314 193.257 200.314 193.53 200.314C193.53 200.62 193.53 200.919 193.53 201.225Z" fill="#FFC502"/>
</g>
</g>
<g id="Group 309">
<g id="CATEGORIES" filter="url(#filter1_f_3_5019)">
<path d="M100.365 135.628C94.8286 136.124 90.2355 136.372 86.5859 136.372C84.1528 136.372 82.3652 135.801 81.2231 134.659C80.081 133.517 79.51 131.73 79.51 129.297V117.379C79.51 114.772 80.0934 112.886 81.2603 111.719C82.4521 110.527 84.3514 109.931 86.9583 109.931H100.365V115.145H88.4479C86.9583 115.145 86.2134 115.89 86.2134 117.379V129.297C86.2134 129.868 86.3748 130.327 86.6976 130.674C87.0452 130.997 87.4797 131.159 88.001 131.159C88.5224 131.159 89.0934 131.159 89.7141 131.159C90.3348 131.134 90.9803 131.109 91.6507 131.084C92.321 131.059 92.9914 131.034 93.6617 131.01C94.3569 130.985 95.2383 130.935 96.3059 130.861C97.3983 130.786 98.7514 130.699 100.365 130.6V135.628ZM108.004 136H100.742L110.611 109.931H118.059L127.928 136H120.666L118.99 131.345H109.68L108.004 136ZM111.356 126.503H117.314L114.335 117.752L111.356 126.503ZM139.832 136H133.129V115.145H125.308V109.931H147.653V115.145H139.832V136ZM170.933 136H150.264V109.931H170.933V115.145H156.968V120.172H167.954V125.386H156.968V130.786H170.933V136ZM196.249 135.441C190.439 136.062 185.101 136.372 180.235 136.372C177.802 136.372 176.014 135.801 174.872 134.659C173.73 133.517 173.159 131.73 173.159 129.297V117.379C173.159 114.772 173.742 112.886 174.909 111.719C176.101 110.527 178 109.931 180.607 109.931H194.014V115.145H182.097C180.607 115.145 179.862 115.89 179.862 117.379V129.297C179.862 129.868 180.024 130.327 180.347 130.674C180.694 130.997 181.153 131.159 181.724 131.159C184.58 131.159 187.187 131.097 189.545 130.972V125.572H184.704V121.103H196.249V135.441ZM216.739 117.007C216.739 115.517 215.994 114.772 214.504 114.772H208.173C206.683 114.772 205.939 115.517 205.939 117.007V128.924C205.939 130.414 206.683 131.159 208.173 131.159H214.504C215.994 131.159 216.739 130.414 216.739 128.924V117.007ZM223.442 128.924C223.442 131.531 222.846 133.43 221.655 134.622C220.488 135.789 218.601 136.372 215.994 136.372H206.683C204.077 136.372 202.177 135.789 200.986 134.622C199.819 133.43 199.235 131.531 199.235 128.924V117.007C199.235 114.4 199.819 112.513 200.986 111.346C202.177 110.154 204.077 109.559 206.683 109.559H215.994C218.601 109.559 220.488 110.154 221.655 111.346C222.846 112.513 223.442 114.4 223.442 117.007V128.924ZM227.184 109.931H242.825C245.432 109.931 247.319 110.527 248.486 111.719C249.677 112.886 250.273 114.772 250.273 117.379V120.731C250.273 122.792 249.926 124.393 249.231 125.535C248.56 126.677 247.48 127.434 245.991 127.807L250.646 136H243.384L239.101 128.179H233.887V136H227.184V109.931ZM243.57 117.379C243.57 115.89 242.825 115.145 241.335 115.145H233.887V122.966H241.335C242.825 122.966 243.57 122.221 243.57 120.731V117.379ZM266.277 136H252.87V130.786H256.222V115.145H252.87V109.931H266.277V115.145H262.925V130.786H266.277V136ZM290.295 136H269.626V109.931H290.295V115.145H276.329V120.172H287.315V125.386H276.329V130.786H290.295V136ZM292.483 130.6C299.286 130.972 303.892 131.159 306.3 131.159C306.871 131.159 307.318 130.997 307.64 130.674C307.988 130.327 308.162 129.868 308.162 129.297V125.945H299.596C296.989 125.945 295.09 125.361 293.898 124.194C292.732 123.003 292.148 121.103 292.148 118.497V117.379C292.148 114.772 292.732 112.886 293.898 111.719C295.09 110.527 296.989 109.931 299.596 109.931H312.668V115.145H301.086C299.596 115.145 298.852 115.89 298.852 117.379V118.124C298.852 119.614 299.596 120.359 301.086 120.359H307.789C310.223 120.359 312.01 120.93 313.152 122.072C314.294 123.214 314.865 125.001 314.865 127.434V129.297C314.865 131.73 314.294 133.517 313.152 134.659C312.01 135.801 310.223 136.372 307.789 136.372C306.523 136.372 305.183 136.348 303.767 136.298L300.341 136.149C297.809 136.025 295.189 135.851 292.483 135.628V130.6Z" fill="#FFBA39"/>
</g>
<path id="CATEGORIES_2" d="M100.365 135.628C94.8286 136.124 90.2355 136.372 86.5859 136.372C84.1528 136.372 82.3652 135.801 81.2231 134.659C80.081 133.517 79.51 131.73 79.51 129.297V117.379C79.51 114.772 80.0934 112.886 81.2603 111.719C82.4521 110.527 84.3514 109.931 86.9583 109.931H100.365V115.145H88.4479C86.9583 115.145 86.2134 115.89 86.2134 117.379V129.297C86.2134 129.868 86.3748 130.327 86.6976 130.674C87.0452 130.997 87.4797 131.159 88.001 131.159C88.5224 131.159 89.0934 131.159 89.7141 131.159C90.3348 131.134 90.9803 131.109 91.6507 131.084C92.321 131.059 92.9914 131.034 93.6617 131.01C94.3569 130.985 95.2383 130.935 96.3059 130.861C97.3983 130.786 98.7514 130.699 100.365 130.6V135.628ZM108.004 136H100.742L110.611 109.931H118.059L127.928 136H120.666L118.99 131.345H109.68L108.004 136ZM111.356 126.503H117.314L114.335 117.752L111.356 126.503ZM139.832 136H133.129V115.145H125.308V109.931H147.653V115.145H139.832V136ZM170.933 136H150.264V109.931H170.933V115.145H156.968V120.172H167.954V125.386H156.968V130.786H170.933V136ZM196.249 135.441C190.439 136.062 185.101 136.372 180.235 136.372C177.802 136.372 176.014 135.801 174.872 134.659C173.73 133.517 173.159 131.73 173.159 129.297V117.379C173.159 114.772 173.742 112.886 174.909 111.719C176.101 110.527 178 109.931 180.607 109.931H194.014V115.145H182.097C180.607 115.145 179.862 115.89 179.862 117.379V129.297C179.862 129.868 180.024 130.327 180.347 130.674C180.694 130.997 181.153 131.159 181.724 131.159C184.58 131.159 187.187 131.097 189.545 130.972V125.572H184.704V121.103H196.249V135.441ZM216.739 117.007C216.739 115.517 215.994 114.772 214.504 114.772H208.173C206.683 114.772 205.939 115.517 205.939 117.007V128.924C205.939 130.414 206.683 131.159 208.173 131.159H214.504C215.994 131.159 216.739 130.414 216.739 128.924V117.007ZM223.442 128.924C223.442 131.531 222.846 133.43 221.655 134.622C220.488 135.789 218.601 136.372 215.994 136.372H206.683C204.077 136.372 202.177 135.789 200.986 134.622C199.819 133.43 199.235 131.531 199.235 128.924V117.007C199.235 114.4 199.819 112.513 200.986 111.346C202.177 110.154 204.077 109.559 206.683 109.559H215.994C218.601 109.559 220.488 110.154 221.655 111.346C222.846 112.513 223.442 114.4 223.442 117.007V128.924ZM227.184 109.931H242.825C245.432 109.931 247.319 110.527 248.486 111.719C249.677 112.886 250.273 114.772 250.273 117.379V120.731C250.273 122.792 249.926 124.393 249.231 125.535C248.56 126.677 247.48 127.434 245.991 127.807L250.646 136H243.384L239.101 128.179H233.887V136H227.184V109.931ZM243.57 117.379C243.57 115.89 242.825 115.145 241.335 115.145H233.887V122.966H241.335C242.825 122.966 243.57 122.221 243.57 120.731V117.379ZM266.277 136H252.87V130.786H256.222V115.145H252.87V109.931H266.277V115.145H262.925V130.786H266.277V136ZM290.295 136H269.626V109.931H290.295V115.145H276.329V120.172H287.315V125.386H276.329V130.786H290.295V136ZM292.483 130.6C299.286 130.972 303.892 131.159 306.3 131.159C306.871 131.159 307.318 130.997 307.64 130.674C307.988 130.327 308.162 129.868 308.162 129.297V125.945H299.596C296.989 125.945 295.09 125.361 293.898 124.194C292.732 123.003 292.148 121.103 292.148 118.497V117.379C292.148 114.772 292.732 112.886 293.898 111.719C295.09 110.527 296.989 109.931 299.596 109.931H312.668V115.145H301.086C299.596 115.145 298.852 115.89 298.852 117.379V118.124C298.852 119.614 299.596 120.359 301.086 120.359H307.789C310.223 120.359 312.01 120.93 313.152 122.072C314.294 123.214 314.865 125.001 314.865 127.434V129.297C314.865 131.73 314.294 133.517 313.152 134.659C312.01 135.801 310.223 136.372 307.789 136.372C306.523 136.372 305.183 136.348 303.767 136.298L300.341 136.149C297.809 136.025 295.189 135.851 292.483 135.628V130.6Z" fill="white"/>
</g>
<rect id="Rectangle 210" y="567.519" width="393" height="8.59688" fill="url(#paint1_linear_3_5019)"/>
<path id="Rectangle 411" d="M0 0H72L54 18H18V54L0 72V0Z" fill="url(#paint2_linear_3_5019)"/>
<path id="Rectangle 412" d="M393 0H321L339 18H375V54L393 72V0Z" fill="url(#paint3_linear_3_5019)"/>
<path id="Vector 131" d="M38 51.3636C44.3153 50.6857 46.3327 43.9338 46.5519 40.6426C46.3788 45.6531 50.7413 51.1426 55 51.4005C48.965 51.6488 46.6868 59.1747 46.4647 61.4092C46.4674 61.5117 46.4617 61.5906 46.4481 61.6426C46.4506 61.5731 46.4561 61.495 46.4647 61.4092C46.4194 59.695 44.0438 51.3636 38 51.3636Z" fill="#01E3D6"/>
<path id="Vector 130" d="M371 489.469C380.659 488.468 383.744 478.501 384.079 473.642C383.815 481.039 390.487 489.142 397 489.523C387.77 489.89 384.286 500.999 383.946 504.298C383.95 504.449 383.941 504.566 383.921 504.642C383.924 504.54 383.933 504.425 383.946 504.298C383.877 501.767 380.243 489.469 371 489.469Z" fill="url(#paint4_linear_3_5019)"/>
<path id="Vector 129" d="M335 105.832C340.944 105.251 342.842 99.4636 343.049 96.6426C342.886 100.937 346.992 105.643 351 105.864C345.32 106.077 343.176 112.527 342.967 114.443C342.969 114.53 342.964 114.598 342.951 114.643C342.954 114.583 342.959 114.516 342.967 114.443C342.924 112.973 340.688 105.832 335 105.832Z" fill="url(#paint5_linear_3_5019)"/>
<g id="Group 308">
<g id="WINNING" filter="url(#filter2_f_3_5019)">
<path d="M106.403 59.4909L112.491 82.3182L117.817 59.4909H127.709L118.071 95H108.432L102.345 72.9336L96.2578 95H86.6196L76.9815 59.4909H86.8733L92.1996 82.3182L98.2869 59.4909H106.403ZM147.009 95H128.747V87.8982H133.313V66.5927H128.747V59.4909H147.009V66.5927H142.443V87.8982H147.009V95ZM182.514 95H172.876L160.701 73.6945V95H151.57V59.4909H161.209L173.383 80.7964V59.4909H182.514V95ZM219.569 95H209.93L197.756 73.6945V95H188.625V59.4909H198.263L210.438 80.7964V59.4909H219.569V95ZM242.42 95H224.158V87.8982H228.723V66.5927H224.158V59.4909H242.42V66.5927H237.854V87.8982H242.42V95ZM277.925 95H268.287L256.112 73.6945V95H246.981V59.4909H256.619L268.794 80.7964V59.4909H277.925V95ZM314.472 94.2391C306.559 95.0845 299.288 95.5073 292.66 95.5073C289.345 95.5073 286.91 94.7295 285.355 93.1738C283.799 91.6182 283.021 89.1833 283.021 85.8691V69.6364C283.021 66.0855 283.816 63.5153 285.406 61.9258C287.029 60.3025 289.616 59.4909 293.167 59.4909H311.429V66.5927H295.196C293.167 66.5927 292.152 67.6073 292.152 69.6364V85.8691C292.152 86.6469 292.372 87.2725 292.812 87.746C293.285 88.1856 293.911 88.4055 294.689 88.4055C298.578 88.4055 302.129 88.3209 305.341 88.1518V80.7964H298.747V74.7091H314.472V94.2391Z" fill="#FFBA39"/>
</g>
<path id="WINNING_2" d="M106.403 59.4909L112.491 82.3182L117.817 59.4909H127.709L118.071 95H108.432L102.345 72.9336L96.2578 95H86.6196L76.9815 59.4909H86.8733L92.1996 82.3182L98.2869 59.4909H106.403ZM147.009 95H128.747V87.8982H133.313V66.5927H128.747V59.4909H147.009V66.5927H142.443V87.8982H147.009V95ZM182.514 95H172.876L160.701 73.6945V95H151.57V59.4909H161.209L173.383 80.7964V59.4909H182.514V95ZM219.569 95H209.93L197.756 73.6945V95H188.625V59.4909H198.263L210.438 80.7964V59.4909H219.569V95ZM242.42 95H224.158V87.8982H228.723V66.5927H224.158V59.4909H242.42V66.5927H237.854V87.8982H242.42V95ZM277.925 95H268.287L256.112 73.6945V95H246.981V59.4909H256.619L268.794 80.7964V59.4909H277.925V95ZM314.472 94.2391C306.559 95.0845 299.288 95.5073 292.66 95.5073C289.345 95.5073 286.91 94.7295 285.355 93.1738C283.799 91.6182 283.021 89.1833 283.021 85.8691V69.6364C283.021 66.0855 283.816 63.5153 285.406 61.9258C287.029 60.3025 289.616 59.4909 293.167 59.4909H311.429V66.5927H295.196C293.167 66.5927 292.152 67.6073 292.152 69.6364V85.8691C292.152 86.6469 292.372 87.2725 292.812 87.746C293.285 88.1856 293.911 88.4055 294.689 88.4055C298.578 88.4055 302.129 88.3209 305.341 88.1518V80.7964H298.747V74.7091H314.472V94.2391Z" fill="white"/>
</g>
<g id="Frame 62" clip-path="url(#clip1_3_5019)">
<path id="Vector 316" d="M193.05 32.7324H194.25V33.7824L193.05 32.7324Z" fill="#F5F1EE"/>
<g id="Subtract">
<path d="M197.877 44.0927L189 47.7323L191.4 43.3073L197.138 40.9507L197.877 44.0927Z" fill="#F5F1EE"/>
<path d="M197.7 40.7198L201.645 39.0995L202.728 42.1038L198.439 43.8622L197.7 40.7198Z" fill="#F5F1EE"/>
<path d="M203.284 41.876L202.201 38.8713L204 38.1323L203.284 41.876Z" fill="#F5F1EE"/>
</g>
<path id="Subtract_2" fill-rule="evenodd" clip-rule="evenodd" d="M204 45.6324L199.35 32.7324H194.25L193.277 35.512L195.825 34.9074L192.689 37.1931L189 47.7324L194.1 45.6324L196.95 37.5324L199.35 47.7324L204 45.6324Z" fill="#F5F1EE"/>
</g>
</g>
<defs>
<filter id="filter0_f_3_5019" x="-184.219" y="324.781" width="761.438" height="483.438" filterUnits="userSpaceOnUse" color-interpolation-filters="sRGB">
<feFlood flood-opacity="0" result="BackgroundImageFix"/>
<feBlend mode="normal" in="SourceGraphic" in2="BackgroundImageFix" result="shape"/>
<feGaussianBlur stdDeviation="92.1094" result="effect1_foregroundBlur_3_5019"/>
</filter>
<filter id="filter1_f_3_5019" x="71.51" y="101.559" width="251.355" height="42.8137" filterUnits="userSpaceOnUse" color-interpolation-filters="sRGB">
<feFlood flood-opacity="0" result="BackgroundImageFix"/>
<feBlend mode="normal" in="SourceGraphic" in2="BackgroundImageFix" result="shape"/>
<feGaussianBlur stdDeviation="4" result="effect1_foregroundBlur_3_5019"/>
</filter>
<filter id="filter2_f_3_5019" x="68.9815" y="51.4907" width="253.491" height="52.0166" filterUnits="userSpaceOnUse" color-interpolation-filters="sRGB">
<feFlood flood-opacity="0" result="BackgroundImageFix"/>
<feBlend mode="normal" in="SourceGraphic" in2="BackgroundImageFix" result="shape"/>
<feGaussianBlur stdDeviation="4" result="effect1_foregroundBlur_3_5019"/>
</filter>
<linearGradient id="paint0_linear_3_5019" x1="196.5" y1="509" x2="196.5" y2="540.963" gradientUnits="userSpaceOnUse">
<stop stop-color="#AB750F"/>
<stop offset="1" stop-color="#D8A956"/>
</linearGradient>
<linearGradient id="paint1_linear_3_5019" x1="396.684" y1="572.295" x2="1.99922e-06" y2="572.295" gradientUnits="userSpaceOnUse">
<stop stop-color="#AB750F"/>
<stop offset="0.516" stop-color="#D8A956"/>
<stop offset="1" stop-color="#AB750F"/>
</linearGradient>
<linearGradient id="paint2_linear_3_5019" x1="36" y1="0" x2="36" y2="72" gradientUnits="userSpaceOnUse">
<stop stop-color="#AB750F"/>
<stop offset="0.516" stop-color="#D8A956"/>
<stop offset="1" stop-color="#AB750F"/>
</linearGradient>
<linearGradient id="paint3_linear_3_5019" x1="357" y1="0" x2="357" y2="72" gradientUnits="userSpaceOnUse">
<stop stop-color="#AB750F"/>
<stop offset="0.516" stop-color="#D8A956"/>
<stop offset="1" stop-color="#AB750F"/>
</linearGradient>
<linearGradient id="paint4_linear_3_5019" x1="384" y1="473.642" x2="384" y2="504.642" gradientUnits="userSpaceOnUse">
<stop stop-color="#FFA700"/>
<stop offset="1" stop-color="#FF0000"/>
</linearGradient>
<linearGradient id="paint5_linear_3_5019" x1="334.252" y1="105.643" x2="351.293" y2="105.643" gradientUnits="userSpaceOnUse">
<stop stop-color="#AB750F"/>
<stop offset="0.516" stop-color="#D8A956"/>
<stop offset="1" stop-color="#AB750F"/>
</linearGradient>
<clipPath id="clip0_3_5019">
<rect width="393" height="576" fill="white"/>
</clipPath>
<clipPath id="clip1_3_5019">
<rect width="15" height="15" fill="white" transform="translate(189 32.7324)"/>
</clipPath>
</defs>
</svg>
