<svg width="84" height="46" viewBox="0 0 84 46" fill="none" xmlns="http://www.w3.org/2000/svg">
<rect width="84" height="46" fill="#F5F1EE"/>
<path d="M0 0H71.8895L84 12V46H12L0 34V0Z" fill="#212121"/>
<mask id="mask0_2275_30522" style="mask-type:alpha" maskUnits="userSpaceOnUse" x="0" y="0" width="84" height="46">
<path d="M0 0H71.8895L84 12V46H12L0 34V0Z" fill="#212121"/>
</mask>
<g mask="url(#mask0_2275_30522)">
<g opacity="0.2">
<path d="M80.8031 40.8213C80.3985 39.2467 79.4124 37.8294 78.1788 36.458C76.5565 34.6546 74.7387 32.9508 72.4018 31.4901C71.948 31.2061 71.4676 30.9374 70.9752 30.6806C68.7953 29.5473 67.0893 28.1469 65.4284 26.7169C64.5461 25.9585 63.6319 25.2145 62.711 24.4756C61.9777 23.8873 61.1366 23.3652 60.0933 23.0047C57.8735 22.2378 55.9638 21.2125 54.1114 20.1352C51.7825 18.7808 49.4802 17.4051 47.1034 16.0856C44.0719 14.403 40.8101 12.9142 37.3793 11.5785C34.7617 10.5591 32.2984 9.40274 29.863 8.21242C27.4343 7.0255 24.8739 5.94655 22.3441 4.84635C19.8728 3.77081 17.4427 2.66296 15.1298 1.44968C13.2122 0.443852 11.1375 -0.381723 8.94032 -1.06616C8.20306 -0.178517 7.20496 0.479562 6.14166 0.966745C8.64089 1.73791 10.9991 2.66891 13.1323 3.84223C14.7865 4.75198 16.6216 5.49593 18.5433 6.15571C19.6372 6.53151 20.7404 6.89966 21.7931 7.31797C23.8771 8.14525 25.9718 8.96657 27.9853 9.86187C30.5657 11.0097 33.2965 11.9908 36.0592 12.9363C40.1354 14.3315 43.8324 16.0405 47.0036 18.1958C48.8242 19.4329 50.9241 20.4685 52.8844 21.6044C55.2718 22.9886 57.6686 24.3779 59.8564 25.8853C61.3017 26.881 62.3823 28.0925 63.6359 29.2029C64.9321 30.3524 66.1883 31.5224 67.5657 32.6311C68.2377 33.1727 69.0908 33.6394 69.9545 34.0646C72.4351 35.2863 74.189 36.8695 75.7061 38.5878C76.7655 39.7883 77.4229 41.0679 77.7769 42.4223C78.3611 44.6635 79.3605 46.8342 80.5037 48.9836C80.6234 49.2097 80.7352 49.4393 80.839 49.6697L84.3936 49.6697C84.3137 49.4572 84.2285 49.2454 84.1367 49.0354C83.3915 47.3358 82.5078 45.6617 81.7865 43.9587C81.3514 42.9316 81.0732 41.8748 80.8031 40.8222L80.8031 40.8213Z" fill="#444444"/>
<path d="M42.322 48.3821C42.7214 47.2318 43.7009 46.6117 45.1587 46.5715C46.4287 46.5364 47.5897 46.8649 48.7134 47.3019C49.4429 47.5859 50.1484 47.9109 50.8799 48.1906C51.2099 48.3171 51.5699 48.4069 51.9289 48.4642C52.5774 48.5669 53.0215 48.3556 53.2705 47.8433C53.5838 47.1993 53.588 46.5228 53.5133 45.8471C53.3359 44.24 52.7724 42.7227 51.7069 41.3722C50.0395 39.2588 48.7498 36.9941 47.5368 34.6908C46.9454 33.5678 46.3187 32.4517 45.5976 31.3834C44.6918 30.0415 43.3554 28.9749 42.0159 27.9246C40.6878 26.8829 39.3036 25.8874 38.0202 24.8097C37.2575 24.1691 36.6132 23.4276 35.9678 22.7006C34.6511 21.2192 33.2795 19.7772 31.7646 18.4293C30.1978 17.0361 28.2752 16.0473 26.2862 15.1279C23.2097 13.7056 20.1427 12.2713 17.0704 10.843C15.6448 10.1801 14.3872 9.33423 13.1919 8.42079C11.7435 7.3132 10.1311 6.40917 8.32465 5.74205C7.39498 5.39908 6.50266 5.00309 5.63525 4.57031L4.74189 8.04447C4.7917 8.07098 4.8415 8.0975 4.8913 8.12316C6.02849 8.72014 7.21859 9.24785 8.35889 9.84142C9.73161 10.5556 10.8937 11.4844 12.0745 12.3936C13.8684 13.7766 15.9218 14.8756 17.9326 16.0225C19.2504 16.7743 20.5733 17.5218 21.8495 18.3207C23.6445 19.4445 24.9352 20.9267 26.0206 22.5347C27.7284 25.0646 29.1011 27.7185 30.2933 30.4383C30.395 30.6692 30.4552 30.913 30.5257 31.1525C30.7415 31.8914 30.5797 32.5705 30.1252 33.2351C29.4508 34.2187 28.8324 35.2288 28.1922 36.2286C27.2314 37.7279 26.9409 39.3144 27.2947 40.9822C27.6983 42.8844 28.1943 44.7652 29.0876 46.5612C29.6687 47.7296 30.4593 48.797 31.3226 49.8301L42.0968 49.8301C42.0916 49.3478 42.1549 48.8654 42.323 48.3821L42.322 48.3821Z" fill="#444444"/>
<path d="M87.7181 -0.657997C86.0373 -1.41215 84.278 -2.09659 82.5919 -2.84649C82.3271 -2.96382 82.0636 -3.08286 81.8001 -3.20104C77.9195 -3.20444 72.8132 -3.20444 67.1055 -3.20274C69.2321 -2.31255 71.3587 -1.4215 73.4533 -0.500703C77.8396 1.42677 82.2059 3.37465 86.5004 5.38375C88.4274 6.28584 90.1614 7.35629 91.978 8.35446C93.535 9.21064 95.2357 9.90273 97.0403 10.4664C92.3506 6.47119 90.4861 2.85006 89.7662 0.344426C89.1048 -0.00586888 88.4261 -0.341711 87.7194 -0.658847L87.7181 -0.657997Z" fill="#444444"/>
<path d="M0.139126 44.3269C9.12862 44.803 10.1507 49.6689 10.1507 49.6689L15.8757 49.6689C15.5151 49.3501 15.1425 49.0355 14.7605 48.7235C11.4309 46.0095 8.15315 43.2692 4.88074 40.5264C3.34234 39.2374 2.11801 37.8337 1.67486 36.2157C1.45128 35.4003 1.36612 34.568 1.27163 33.7407C1.10395 32.2817 0.942919 30.8218 0.841778 29.3603C0.741969 27.9098 0.431895 26.4746 -0.180269 25.0853C-0.880265 23.4979 -1.68007 21.9216 -2.61163 20.3844C-3.18387 19.4415 -4.04223 18.6729 -5.12948 18.0684L-6.87947 23.3457L0.137793 44.3269L0.139126 44.3269Z" fill="#444444"/>
<path d="M75.2511 43.7039C74.6855 41.3743 73.2163 39.3158 70.8036 37.5355C70.3897 37.2294 69.9266 36.9394 69.4195 36.6988C67.088 35.5944 65.3007 34.1898 63.7237 32.6509C62.1361 31.1009 60.4952 29.573 58.8451 28.0503C56.769 26.1347 54.2339 24.4742 51.5723 22.8996C48.9866 21.3709 46.4008 19.8489 44.0347 18.1757C41.57 16.4319 38.637 15.0596 35.3845 13.9772C31.4201 12.6577 27.5808 11.208 23.8346 9.64957C21.7173 8.76873 19.5162 7.96696 17.3031 7.18814C14.9569 6.36257 12.8675 5.31594 10.7276 4.30331C8.64892 3.31959 6.48372 2.43875 4.22936 1.66504C2.04021 2.29251 0.0839436 2.35118 0.0839436 2.35118L-0.31795 3.56446C1.05543 4.10861 2.46872 4.61535 3.9113 5.07787C6.29475 5.84308 8.50254 6.75623 10.4628 7.91339C12.2474 8.96683 14.2995 9.7703 16.4088 10.5245C20.8084 12.0974 25.1827 13.7009 29.5996 15.2534C32.6458 16.3247 35.1822 17.754 37.3328 19.4842C39.0442 20.8607 40.6664 22.2883 42.5029 23.5934C43.9695 24.6366 45.6822 25.5404 47.3151 26.4858C49.1582 27.5529 51.0932 28.5723 52.4386 29.9276C53.482 30.9785 54.3922 32.0855 55.3185 33.1823C56.2673 34.3037 57.1776 35.4388 58.0812 36.5755C59.4546 38.3032 61.2538 39.8506 62.9985 41.4244C64.2374 42.5416 65.5003 43.658 66.2363 44.9622C67.096 46.485 67.627 48.0579 67.8119 49.67L77.3071 49.67C77.2978 49.653 77.2898 49.6351 77.2805 49.6181C76.2558 47.6966 75.7341 45.7019 75.2497 43.7056L75.2511 43.7039Z" fill="#444444"/>
<path d="M26.4887 46.1781C25.5133 44.6179 24.5391 43.0569 23.6355 41.4797C22.4152 39.3498 22.503 37.1979 23.5929 35.0587C24.2796 33.7111 24.6655 32.3235 24.8186 30.9224C24.8971 30.2048 24.6988 29.4421 24.3808 28.7458C23.4732 26.7639 22.4604 24.8007 21.449 22.8384C20.8755 21.7245 19.9 20.7536 18.5373 19.9654C17.5298 19.383 16.4732 18.8329 15.4046 18.2964C13.1715 17.1758 10.8919 16.0943 8.68274 14.9559C7.70727 14.4534 6.83161 13.8684 5.95461 13.2937C4.05424 12.0489 1.8784 11.0516 -0.563602 10.2915C-1.1731 10.1019 -1.76398 9.89528 -2.34553 9.67847L-3.85731 14.2357C-3.80408 14.2493 -3.75218 14.2621 -3.69895 14.2757C-1.57633 14.8122 0.193617 15.6692 1.64684 16.783C3.61109 18.2888 5.39169 19.8778 6.79036 21.6293C7.7086 22.778 8.22229 23.9938 8.38997 25.2853C8.59092 26.8421 8.4778 28.4023 8.57894 29.9565C8.70936 31.9613 8.71734 33.9823 9.52513 35.9472C10.1998 37.589 11.2911 39.1288 12.3331 40.6822C13.8063 42.8775 15.8411 44.8355 18.335 46.6015C19.6791 47.5529 20.8009 48.5808 21.7524 49.6683L29.3047 49.6683C28.2321 48.5511 27.2539 47.399 26.4901 46.1772L26.4887 46.1781Z" fill="#444444"/>
<path d="M89.1669 38.3468C88.5481 35.9653 87.3171 33.7182 85.2584 31.6793C83.7599 30.194 82.163 28.7486 80.7058 27.2471C79.1514 25.6452 77.0048 24.4915 74.3632 23.7339C71.5832 22.9364 69.0534 21.9144 66.7351 20.6612C65.2846 19.8764 63.7076 19.2115 62.0081 18.664C61.4279 18.4769 60.8623 18.2686 60.3061 18.0535C57.6724 17.0341 55.3768 15.7307 53.0652 14.4511C49.5825 12.5219 45.9601 10.7194 42.1394 9.07165C39.9596 8.13129 37.7478 7.19604 35.7649 6.10009C32.418 4.24999 29.0883 2.38968 25.5817 0.664559C22.9308 -0.639696 20.2985 -1.96096 17.5264 -3.15893C15.1909 -3.15638 13.3025 -3.15383 12.0023 -3.15213C14.5561 -2.3019 16.9715 -1.31733 19.2471 -0.162716C22.5595 1.51819 26.0049 3.09112 29.3452 4.75077C31.3054 5.72514 33.1113 6.82874 35.0969 7.781C37.4138 8.89225 39.8425 9.90828 42.2352 10.9532C47.0287 13.0465 51.2673 15.5683 55.5831 18.028C57.4848 19.1112 59.5036 20.0541 61.8232 20.7487C62.8279 21.0489 63.7581 21.4799 64.6271 21.9272C65.5813 22.4177 66.461 22.9729 67.31 23.5383C69.2849 24.852 71.5233 25.9385 73.9999 26.8338C75.171 27.2573 76.221 27.7835 77.0168 28.4807C78.7495 30.001 80.4955 31.5152 82.151 33.0694C84.2097 35.0029 85.5259 37.131 85.997 39.4649C86.2352 40.6442 86.4362 41.8353 86.8673 42.9891C87.566 44.8605 88.4257 46.708 89.2441 48.5607C89.292 48.6703 89.3386 48.78 89.3825 48.8897C89.5715 47.0753 90.1091 45.3884 90.8557 43.8478C90.193 42.0283 89.6434 40.1935 89.1643 38.3468L89.1669 38.3468Z" fill="#444444"/>
<path d="M75.6396 3.34355C76.8386 3.84094 78.1268 4.25075 79.3844 4.68862C79.612 4.76769 79.8875 4.78979 80.1416 4.83826C80.1749 4.8034 80.2082 4.76854 80.2415 4.73368C79.934 4.53983 79.6493 4.32812 79.3166 4.15382C77.3217 3.11399 75.3681 2.03844 73.3027 1.05898C70.2392 -0.394068 67.1252 -1.8063 63.9952 -3.20068C62.5845 -3.20068 61.1459 -3.19898 59.6874 -3.19813C61.1752 -2.68884 62.6258 -2.13364 64.0457 -1.54188C67.921 0.0752602 71.7577 1.73236 75.6396 3.34355Z" fill="#444444"/>
<path d="M34.6293 3.82953C37.4866 5.41946 40.4941 6.85296 43.6601 8.17081C45.7907 9.05761 47.8721 9.99371 49.9308 10.9477C52.3728 12.0793 54.7443 13.2739 57.1876 14.4047C60.0861 15.7464 63.4902 16.4733 66.6362 17.5174C66.7547 17.5565 66.9037 17.5599 67.0381 17.5803C67.0661 17.554 67.0953 17.5276 67.1233 17.5004C66.8651 17.3295 66.6402 17.1306 66.3435 16.9928C65.2083 16.4657 64.1064 15.8943 62.8914 15.4539C58.9469 14.0272 55.3724 12.274 51.8525 10.469C49.7764 9.4045 47.7629 8.289 45.643 7.26277C42.481 5.7315 39.323 4.20788 36.6229 2.32887C34.2128 0.651365 31.7162 -0.975978 29.2955 -2.64838C29.0453 -2.82098 28.8005 -2.99528 28.5623 -3.17383C25.8488 -3.17128 23.3203 -3.16787 21.0579 -3.16532C21.8165 -2.80483 22.5697 -2.43923 23.3123 -2.06512C27.1343 -0.13935 30.9617 1.78642 34.6307 3.82783L34.6293 3.82953Z" fill="#444444"/>
<path d="M104.595 17.3786C102.745 16.9033 100.894 16.4289 99.0271 15.9842C98.0051 15.7411 96.9484 15.5532 95.9024 15.3508C93.7306 14.9291 91.8156 14.1698 89.838 13.4905C86.6388 12.3911 83.8441 10.9262 81.0375 9.47911C77.6546 7.73528 74.3968 5.89028 70.9621 4.19067C67.7841 2.61774 64.4532 1.16214 60.8494 0.00327766C59.3123 -0.491557 57.6781 -0.875862 56.0466 -1.23466C54.4536 -1.58495 52.9086 -1.97691 51.5778 -2.64519C51.1572 -2.85605 50.7207 -3.0363 50.2709 -3.19189C47.0118 -3.18934 43.7474 -3.18679 40.5655 -3.18339C40.5215 -3.021 40.5162 -2.84245 40.5535 -2.64859C40.7025 -1.86128 41.2096 -1.16324 41.843 -0.496658C42.9702 0.690265 44.5033 1.63997 46.1228 2.54972C48.332 3.79191 50.4932 5.06981 52.6637 6.34005C54.6705 7.51422 56.5523 8.78787 58.8439 9.73843C60.3503 10.3642 61.9659 10.8913 63.5748 11.4083C68.5241 12.9974 73.1965 14.8517 77.4271 17.1473C78.1031 17.5138 78.831 17.8411 79.5417 18.1812C80.6675 18.7203 81.5898 19.3758 82.355 20.1291C83.7896 21.5396 85.1656 22.9646 86.2236 24.5163C87.0167 25.6811 88.2331 26.6963 89.5266 27.6613C91.4509 29.0957 93.1024 30.6422 94.4492 32.3274C95.08 33.1172 95.772 33.8927 96.5319 34.6349C96.9085 35.0022 97.2545 35.3772 97.5726 35.7581C97.9159 35.4792 98.2433 35.2241 98.5494 34.9954C96.1207 32.2738 93.6268 29.5777 90.2293 27.2702C88.3156 25.9702 87.0181 24.4177 85.8856 22.7869C84.8196 21.2531 83.6019 19.7474 81.9757 18.4193C81.1825 17.7723 80.1259 17.2553 79.1744 16.6899C76.2586 14.9588 73.3269 13.2405 70.4244 11.501C69.7803 11.115 69.2068 10.6754 68.6505 10.235C68.4083 10.0428 68.2512 9.79454 68.1328 9.55563C68.0184 9.32266 68.2087 9.11606 68.5906 9.0982C69.0817 9.0744 69.5993 9.07355 70.0744 9.14582C71.9442 9.42979 73.597 10.0292 75.1554 10.7196C77.5867 11.7968 79.9609 12.9259 82.3789 14.0151C83.9373 14.7174 85.5382 15.3814 87.1046 16.0769C87.6262 16.3082 88.1173 16.5709 88.5937 16.8387C90.1148 17.6957 91.9314 18.0724 93.9089 18.1668C97.4568 18.336 100.942 18.7254 104.386 19.2916C105.109 19.4107 105.782 19.5799 106.42 19.7924C106.112 18.9762 105.709 18.2331 105.262 17.5657C105.042 17.5002 104.82 17.4373 104.594 17.3786L104.595 17.3786Z" fill="#444444"/>
<path d="M106.836 21.2263C106.218 20.9755 105.55 20.78 104.802 20.6737C101.524 20.2095 98.2169 19.9756 94.8527 20.1831C92.5158 20.3268 90.3266 20.0556 88.4768 19.0761C87.673 18.6501 86.9611 18.151 86.2291 17.6707C85.1139 16.9386 83.8816 16.3145 82.3898 15.9251C82.1729 15.8682 81.928 15.8554 81.6964 15.8223C81.6618 15.8512 81.6259 15.8801 81.5913 15.909C81.7603 16.0884 81.9134 16.2737 82.0997 16.4455C82.7877 17.0815 83.5928 17.6775 84.1597 18.3551C85.2883 19.7019 86.3662 21.0716 87.323 22.4719C88.4183 24.0729 89.9021 25.486 91.8371 26.7078C94.7848 28.5698 97.3825 30.5916 99.4825 32.8941C99.7553 33.1933 100.016 33.496 100.265 33.7996C100.547 33.6202 100.708 33.5266 100.708 33.5266C101.527 33.0395 102.239 32.5166 102.86 31.975C102.237 30.902 101.551 29.8451 100.711 28.83C100.049 28.0307 99.2043 27.2944 98.4604 26.5233C98.0106 26.0582 97.5236 25.6008 97.1775 25.1042C96.6253 24.3127 96.9087 23.6648 97.9428 23.1002C98.9076 22.5731 100.057 22.3138 101.299 22.2186C102.179 22.1505 103.064 22.1046 103.949 22.0715C105.109 22.0273 106.104 22.2449 107.013 22.602C106.989 22.1267 106.93 21.6676 106.838 21.2263L106.836 21.2263Z" fill="#444444"/>
<path d="M80.7831 21.8914C81.8052 22.7713 82.9417 23.5978 83.6563 24.6078C84.673 26.0439 85.9958 27.3617 87.4278 28.6388C89.0088 30.0485 90.4061 31.5219 91.3669 33.1552C91.9485 34.1449 92.5367 35.1346 93.2074 36.1004C93.7437 36.8733 94.2361 37.6538 94.6726 38.4454C94.9614 38.1384 95.2515 37.8451 95.5403 37.5645C95.1051 36.8835 94.618 36.2135 94.0817 35.5529C93.2673 34.5496 92.6125 33.4928 91.9152 32.4521C90.8878 30.92 89.4679 29.5426 87.9095 28.2179C86.4124 26.9443 85.1867 25.5729 84.0902 24.1419C83.4527 23.3095 82.5571 22.5554 81.7333 21.7851C81.201 21.2868 80.666 20.7716 79.99 20.3592C79.0984 19.8151 78.1082 19.3262 77.0875 18.8815C74.3022 17.6683 71.5142 16.4541 68.6556 15.314C66.8418 14.5904 64.9148 13.9782 63.0104 13.3525C59.4545 12.1843 56.1981 10.7321 53.0894 9.13873C50.8629 7.99857 48.6804 6.82355 46.4687 5.67234C44.5896 4.69457 42.6147 3.78397 40.8341 2.73904C39.2278 1.79613 37.7759 0.739293 36.352 -0.320095C35.1223 -1.23409 33.9619 -2.19145 32.8733 -3.17602C32.0935 -3.17602 31.3243 -3.17432 30.567 -3.17347C30.7853 -2.99492 31.0115 -2.81978 31.2431 -2.64803C32.848 -1.46281 34.5395 -0.325196 36.1697 0.846423C38.5252 2.54008 41.0963 4.07985 43.9402 5.43767C46.1187 6.47836 48.3025 7.52074 50.3839 8.6371C53.7348 10.4336 57.2374 12.0873 61.0076 13.503C62.9944 14.2495 65.0771 14.8939 67.0454 15.6592C70.1408 16.8614 73.1524 18.1529 76.2491 19.3543C78.0071 20.0361 79.5548 20.8303 80.7871 21.8914L80.7831 21.8914Z" fill="#444444"/>
<path d="M76.9089 5.23399C73.0815 3.29717 69.2156 1.3986 65.1487 -0.331622C62.6388 -1.39951 60.0744 -2.39853 57.3409 -3.19775C56.4946 -3.19775 55.6428 -3.1969 54.7885 -3.19605C55.2449 -3.07107 55.7094 -2.95374 56.1792 -2.84065C59.7044 -1.99723 62.8571 -0.714226 65.9804 0.612986C70.042 2.33811 73.7656 4.3353 77.5636 6.27638C81.0756 8.07122 84.6395 9.83375 88.5067 11.3063C92.0626 12.6608 95.7635 13.8417 99.7918 14.5525C100.979 14.7617 102.147 15.0125 103.314 15.2659C102.725 14.7022 102.182 14.2711 101.789 13.9837C98.0113 13.3512 94.454 12.347 91.0246 11.1576C86.0661 9.43754 81.3351 7.4735 76.9102 5.23399L76.9089 5.23399Z" fill="#444444"/>
<path d="M89.5729 28.5794C87.6739 27.06 85.9732 25.4709 84.7648 23.6718C83.8545 22.3166 82.3827 21.1756 81.0838 19.9716C80.7525 19.6647 80.3239 19.3858 79.8675 19.152C78.715 18.5611 77.5067 18.0152 76.3475 17.4294C72.9048 15.6882 69.2691 14.1433 65.3392 12.8815C63.4908 12.2881 61.6556 11.6742 59.8577 11.0221C57.2028 10.0596 54.9923 8.72137 52.6821 7.46898C50.1908 6.11881 47.7142 4.75759 45.1804 3.44143C42.6133 2.10742 40.3403 0.608458 38.4972 -1.14812C37.8278 -1.78664 37.2329 -2.44897 36.8842 -3.18017C36.1071 -3.18017 35.3365 -3.17847 34.5753 -3.17762C34.8734 -2.79842 35.2327 -2.43707 35.62 -2.08678C38.2243 0.272617 41.1867 2.42625 44.8344 4.15392C47.4627 5.39866 49.9566 6.74543 52.4159 8.1194C56.2805 10.2773 60.5178 12.0679 65.1542 13.4818C68.9337 14.6339 72.3818 16.1303 75.7287 17.7262C76.4154 18.0535 77.1074 18.38 77.8274 18.6767C79.5268 19.3756 80.7937 20.3236 81.9502 21.372C83.2264 22.5274 84.2764 23.7501 85.2772 25.0075C86.1169 26.0618 87.1469 27.0711 88.2728 28.0123C90.3075 29.7136 91.975 31.5331 93.2765 33.5048C93.8834 34.4247 94.6446 35.3056 95.3912 36.1847C95.6347 36.4721 95.8609 36.7628 96.0739 37.057C96.2655 36.8793 96.4571 36.7076 96.6448 36.5418C96.4957 36.3496 96.34 36.1592 96.1763 35.9704C95.2168 34.8643 94.2374 33.7607 93.3937 32.618C92.333 31.1836 91.1193 29.8165 89.5716 28.5785L89.5729 28.5794Z" fill="#444444"/>
<path d="M83.8537 9.82988C79.7283 7.83098 75.7785 5.6935 71.7103 3.65124C67.8057 1.69061 63.7521 -0.156945 59.2527 -1.54537C57.8993 -1.96284 56.486 -2.30718 55.078 -2.64557C54.4153 -2.80542 53.7725 -2.98311 53.1577 -3.19482C52.7265 -3.19482 52.294 -3.19482 51.8615 -3.19397C53.0512 -2.67363 54.3328 -2.27402 55.7155 -1.98494C58.0683 -1.49351 60.324 -0.849034 62.4346 -0.0226085C67.1057 1.80709 71.5306 3.8502 75.6827 6.14412C79.2958 8.14046 83.0247 10.0577 86.9957 11.7556C90.4771 13.2444 94.1847 14.4704 98.2463 15.2331C100.297 15.6183 102.293 16.1284 104.289 16.6232C104.405 16.6521 104.521 16.681 104.637 16.71C104.446 16.471 104.253 16.2449 104.06 16.0323C103.619 15.9311 103.177 15.8325 102.735 15.733C100.382 15.2016 97.9641 14.774 95.6685 14.1601C91.4566 13.0344 87.5094 11.5992 83.8551 9.82903L83.8537 9.82988Z" fill="#444444"/>
<path d="M1.22816 19.4719C2.31143 20.8476 3.38937 22.2249 4.03348 23.718C4.56579 24.9525 4.76141 26.2227 4.89449 27.493C5.02092 28.6986 5.03289 29.9085 5.1154 31.1158C5.19259 32.256 5.24183 33.3995 5.40019 34.5355C5.61179 36.0608 6.373 37.4909 7.57338 38.813C9.23421 40.6435 10.8391 42.4996 12.661 44.263C14.0157 45.574 15.6247 46.7856 17.2163 47.9895C17.9269 48.5277 18.5604 49.0889 19.13 49.6696L20.4009 49.6696C19.6823 48.8933 18.8625 48.1511 17.9229 47.4479C16.4844 46.3715 15.0764 45.2705 13.8108 44.1108C11.8945 42.3559 10.5371 40.3944 9.0479 38.4848C8.03916 37.1916 7.31653 35.8321 7.11159 34.3875C6.92927 33.1011 6.82015 31.8088 6.727 30.5181C6.62586 29.1135 6.61388 27.7055 6.49943 26.301C6.41293 25.2263 6.21198 24.1567 5.66369 23.1287C4.60305 21.1426 2.95154 19.3571 1.05383 17.6618C-0.296923 16.4544 -2.02961 15.5676 -4.10432 14.9844L-4.34919 15.7224C-1.91916 16.5352 -0.086658 17.8029 1.22816 19.4727L1.22816 19.4719Z" fill="#444444"/>
<path d="M0.350307 22.0112C1.22996 23.4294 1.93129 24.8808 2.18547 26.4027C2.36912 27.4995 2.49554 28.5997 2.606 29.7007C2.74573 31.0943 2.85353 32.4886 2.95467 33.8839C3.06912 35.4661 3.47102 37.0085 4.68071 38.4105C5.38603 39.2276 6.2018 40.0072 7.01092 40.786C9.81623 43.4872 12.7094 46.1459 16.0071 48.6184C16.4595 48.9585 16.8881 49.3088 17.29 49.6701L18.2708 49.6701C17.7424 49.1625 17.1609 48.6719 16.5194 48.2035C13.1951 45.7744 10.4457 43.0902 7.81472 40.349C6.7075 39.1961 5.56967 38.0585 4.93489 36.7534C4.50238 35.8658 4.25485 34.9569 4.19363 34.0284C4.06322 32.0474 3.94344 30.0663 3.81037 28.0853C3.59078 24.8221 2.05239 21.8038 -0.39893 18.9632C-1.41965 17.7805 -2.82895 16.9124 -4.53502 16.2866L-4.76259 16.9719C-3.07914 17.6963 -1.76831 18.697 -0.883332 20.0098C-0.438847 20.6679 -0.0622376 21.3446 0.351639 22.0121L0.350307 22.0112Z" fill="#444444"/>
</g>
</g>
<path d="M76 8.37827e-09L84 -3.41313e-07L84 8L76 8.37827e-09Z" fill="url(#paint0_linear_2275_30522)"/>
<path d="M8 46L-1.98816e-07 46L1.50874e-07 38L8 46Z" fill="url(#paint1_linear_2275_30522)"/>
<defs>
<linearGradient id="paint0_linear_2275_30522" x1="80" y1="8.37398" x2="80" y2="-0.146341" gradientUnits="userSpaceOnUse">
<stop stop-color="#AB750F"/>
<stop offset="0.516" stop-color="#D8A956"/>
<stop offset="1" stop-color="#AB750F"/>
</linearGradient>
<linearGradient id="paint1_linear_2275_30522" x1="3.99997" y1="37.626" x2="3.99997" y2="46.1463" gradientUnits="userSpaceOnUse">
<stop stop-color="#AB750F"/>
<stop offset="0.516" stop-color="#D8A956"/>
<stop offset="1" stop-color="#AB750F"/>
</linearGradient>
</defs>
</svg>
