<svg width="100" height="100" viewBox="0 0 100 100" fill="none" xmlns="http://www.w3.org/2000/svg">
<g id="button-info">
<path id="Subtract" fill-rule="evenodd" clip-rule="evenodd" d="M100 50C100 77.6142 77.6142 100 50 100C22.3858 100 0 77.6142 0 50C0 22.3858 22.3858 0 50 0C77.6142 0 100 22.3858 100 50ZM35.1933 47.403C35.0873 47.403 35.0013 47.317 35.0013 47.2109V40.395C35.0013 40.2889 35.0873 40.2029 35.1933 40.2029L64.8093 40.2029C64.9154 40.2029 65.0013 40.2889 65.0013 40.3949V47.2109C65.0013 47.317 64.9154 47.4029 64.8093 47.4029H57V77.4031H64.8093C64.9154 77.4031 65.0013 77.4891 65.0013 77.5951V84.4111C65.0013 84.5172 64.9154 84.6031 64.8093 84.6031L35.1933 84.6031C35.0873 84.6031 35.0013 84.5172 35.0013 84.4111V77.5952C35.0013 77.4891 35.0873 77.4032 35.1933 77.4032L43 77.4031V47.4029L35.1933 47.403ZM50.0003 35.3998C55.6336 35.3998 60.2003 30.8331 60.2003 25.1998C60.2003 19.5665 55.6336 14.9998 50.0003 14.9998C44.367 14.9998 39.8003 19.5665 39.8003 25.1998C39.8003 30.8331 44.367 35.3998 50.0003 35.3998Z" fill="#F5F1EE"/>
</g>
</svg>
