<svg width="221" height="57" viewBox="0 0 221 57" fill="none" xmlns="http://www.w3.org/2000/svg">
<g id="Group 131">
<g id="Group 109">
<path id="Polygon 33" d="M111.759 4L143.69 29.7321L111.759 53.125L79.8275 29.7321L111.759 4Z" fill="#AE7813"/>
<path id="Polygon 34" d="M77.1318 29.8846L111.759 1.11391L146.386 29.8846L111.759 56.0398L77.1318 29.8846Z" stroke="#9D6D12" stroke-width="1.22812"/>
<path id="Polygon 32" d="M111.759 16.2812L127.724 29.1473L111.759 40.8437L95.7931 29.1473L111.759 16.2812Z" fill="#F5F1EE"/>
</g>
<g id="Enter Competition">
<g id="Union">
<path d="M205.191 48.2124L15.6622 48.2124L-0.00101551 29.7905L15.6297 11.3686L205.224 11.3687L220.855 29.7905L205.191 48.2124Z" fill="url(#paint0_linear_308_47499)"/>
<path d="M205.191 48.2124L15.6622 48.2124L-0.00101551 29.7905L15.6297 11.3686L205.224 11.3687L220.855 29.7905L205.191 48.2124Z" fill="url(#paint1_linear_308_47499)"/>
</g>
<path id="Rectangle 140" d="M5.00118 34.7909L20.6644 16.369L194.441 16.369L210.105 34.7909" stroke="url(#paint2_linear_308_47499)" stroke-width="1.11648"/>
<path id="Rectangle 146" d="M5.00118 23.7378L20.6644 42.1596L194.441 42.1597L210.105 23.7378" stroke="url(#paint3_linear_308_47499)" stroke-width="1.11648"/>
<path id="Polygon 42" d="M204.841 33.0381L201.507 29.7044L204.841 26.3706L208.175 29.7044L204.841 33.0381Z" fill="url(#paint4_linear_308_47499)"/>
<path id="Polygon 43" d="M11.6704 33.0381L8.3367 29.7044L11.6704 26.3706L15.0042 29.7044L11.6704 33.0381Z" fill="url(#paint5_linear_308_47499)"/>
</g>
</g>
<defs>
<linearGradient id="paint0_linear_308_47499" x1="220.855" y1="46.0526" x2="208.816" y2="-25.6145" gradientUnits="userSpaceOnUse">
<stop stop-color="#AB750F"/>
<stop offset="0.484" stop-color="#D8A956"/>
<stop offset="1" stop-color="#AB750F"/>
</linearGradient>
<linearGradient id="paint1_linear_308_47499" x1="226.085" y1="46.0526" x2="205.53" y2="-21.3703" gradientUnits="userSpaceOnUse">
<stop stop-color="#FFBA39"/>
<stop offset="0.279" stop-color="#D8A956"/>
<stop offset="0.629" stop-color="#AB750F"/>
</linearGradient>
<linearGradient id="paint2_linear_308_47499" x1="198.437" y1="25.5799" x2="11.4927" y2="25.5799" gradientUnits="userSpaceOnUse">
<stop stop-color="white" stop-opacity="0"/>
<stop offset="0.524" stop-color="white"/>
<stop offset="1" stop-color="white" stop-opacity="0"/>
</linearGradient>
<linearGradient id="paint3_linear_308_47499" x1="198.437" y1="32.9487" x2="11.4927" y2="32.9487" gradientUnits="userSpaceOnUse">
<stop stop-color="white" stop-opacity="0"/>
<stop offset="0.524" stop-color="white"/>
<stop offset="1" stop-color="white" stop-opacity="0"/>
</linearGradient>
<linearGradient id="paint4_linear_308_47499" x1="204.841" y1="33.0381" x2="204.841" y2="26.3706" gradientUnits="userSpaceOnUse">
<stop stop-color="#F5F1EE"/>
<stop offset="1" stop-color="#D8A956"/>
</linearGradient>
<linearGradient id="paint5_linear_308_47499" x1="11.6704" y1="33.0381" x2="11.6704" y2="26.3706" gradientUnits="userSpaceOnUse">
<stop stop-color="#F5F1EE"/>
<stop offset="1" stop-color="#D8A956"/>
</linearGradient>
</defs>
</svg>
