<svg width="100" height="130" viewBox="0 0 100 130" fill="none" xmlns="http://www.w3.org/2000/svg">
<g id="athlete category">
<g id="local-warrior">
<path id="1 back" fill-rule="evenodd" clip-rule="evenodd" d="M50 16L16 7L19 17V102H11L10 108L45 125V120L50 122L55 120V125L90 108L89 102H81V17L84 7L50 16Z" fill="url(#paint0_linear_3_5584)"/>
<path id="3 base" fill-rule="evenodd" clip-rule="evenodd" d="M10 105L50 122L90 105V27C90 20.5 94 18 94 18L90 19L95 8L50 19L5 8L10 19L6 18C6 18 10 20.5 10 27V105Z" fill="#EBE5DB"/>
<path id="4 texture wave" opacity="0.05" fill-rule="evenodd" clip-rule="evenodd" d="M25.6362 14.1042C23.2987 17.1864 20.8649 20.1906 18.4313 23.1944C16.7716 25.2431 15.112 27.2916 13.4831 29.3645C12.2943 30.8771 11.1266 32.4075 10 33.9666V33.0041C12.1244 30.1022 14.3812 27.3048 16.6388 24.5063C17.3094 23.6751 17.9801 22.8437 18.6474 22.0095C21.0004 19.0679 23.3253 16.0973 25.4718 13.0042L26.3017 13.2071C26.0821 13.5071 25.8597 13.8056 25.6346 14.1025L25.6362 14.1042ZM10 36.6451V35.253C12.5909 31.4805 15.3791 27.8504 18.3865 24.3725C21.4471 20.8336 24.4131 17.2063 27.154 13.4154L28.1263 13.6531C27.1994 14.8557 26.2447 16.0379 25.2905 17.2194L25.2903 17.2196L24.9472 17.6446C23.5346 19.3954 22.0883 21.1195 20.6421 22.8434C18.5766 25.3055 16.5114 27.7673 14.5451 30.3061C12.9529 32.3613 11.4219 34.4675 10 36.6451ZM45.2445 17.8375L43.9056 17.5103C43.2328 18.1175 42.6172 18.7861 42.0639 19.5243C41.8984 19.7454 41.7343 19.9677 41.5703 20.1901C41.0716 20.8662 40.5727 21.5424 40.0303 22.1817C35.5149 27.4982 31.8675 33.3699 28.7418 39.5894C27.725 41.6113 26.6882 43.6415 25.4573 45.5347C24.0265 47.7385 22.2234 49.6407 20.4208 51.5425C19.8678 52.1259 19.315 52.7092 18.7729 53.3011C18.3469 53.7662 17.9205 54.2308 17.4941 54.6955L17.494 54.6957L17.4939 54.6957L17.4938 54.6958C15.4192 56.9567 13.3441 59.2181 11.3174 61.5208C10.8847 62.013 10.4474 62.4988 10 62.9726V66.1405C11.0744 65.0522 12.0947 63.9041 13.0701 62.7049C15.1418 60.1568 17.2702 57.6547 19.3988 55.1524L19.3989 55.1524L19.399 55.1522C19.9303 54.5276 20.4616 53.903 20.9921 53.2777C21.4477 52.7407 21.9092 52.208 22.3706 51.6753C24.404 49.3278 26.438 46.9796 27.9809 44.2603C29.2636 42.001 30.4711 39.6948 31.6384 37.3718C34.1202 32.4333 37.1589 27.8644 40.5839 23.538C41.1246 22.8544 41.6481 22.1571 42.1716 21.4599L42.1718 21.4596L42.1719 21.4595C42.7636 20.6712 43.3554 19.883 43.9721 19.1146C44.3441 18.6506 44.7741 18.2096 45.2445 17.8375ZM10 68.2723C11.6069 66.6826 13.1068 64.9806 14.4715 63.1397C16.9199 59.8368 19.5689 56.7027 22.2714 53.6122C26.5159 48.7556 30.0379 43.4308 32.8191 37.6043C35.0851 32.8548 38.0285 28.5217 41.1675 24.3157C41.8114 23.4527 42.4536 22.5831 43.0372 21.6784C43.9322 20.288 45.0348 19.1281 46.2643 18.0868L47.07 18.2838C46.8166 18.4975 46.5738 18.7214 46.3468 18.9591C45.2765 20.0796 44.3149 21.3238 43.4403 22.6065C41.0538 26.1068 38.6657 29.6104 36.423 33.2026C35.1763 35.1994 34.0977 37.3052 33.022 39.4055L33.022 39.4055C32.8697 39.7028 32.7175 40 32.5649 40.2968C30.267 44.7654 27.4106 48.8577 24.2766 52.7643C22.939 54.433 21.5771 56.0821 20.2152 57.7311L20.2151 57.7312L20.215 57.7313L20.2149 57.7314L20.2148 57.7315L20.2147 57.7316L20.2147 57.7317L20.2142 57.7323L20.2139 57.7326L20.2139 57.7327L20.2138 57.7328L20.2138 57.7328L20.2137 57.7329C19.2927 58.8481 18.3717 59.9632 17.4584 61.0843C16.8198 61.8683 16.1958 62.6656 15.5719 63.4628L15.5719 63.4629L15.5719 63.4629L15.5718 63.463L15.5718 63.463L15.5718 63.4631L15.5717 63.4631C14.3165 65.067 13.0616 66.6705 11.6887 68.1651C11.1433 68.7587 10.5786 69.3355 10 69.8996V68.2723ZM16.5971 22.8323C14.3546 25.6635 12.1382 28.5114 10 31.4179V28.8143C10.9643 27.3553 11.9251 25.8941 12.8777 24.4277C13.6154 23.2916 14.2551 22.0918 14.8944 20.8928L14.8944 20.8928C15.103 20.5016 15.3115 20.1105 15.5234 19.7217C15.6299 19.5259 15.6839 19.3019 15.7379 19.0776C15.7628 18.9742 15.7877 18.8708 15.8178 18.7701L15.6121 18.6447C15.4894 18.769 15.3631 18.8903 15.2367 19.0117L15.2367 19.0117L15.2367 19.0117L15.2366 19.0118L15.2366 19.0118L15.2366 19.0118L15.2366 19.0118L15.2365 19.0119L15.2365 19.0119L15.2365 19.0119L15.2364 19.012L15.2364 19.012C14.9702 19.2677 14.7039 19.5235 14.4715 19.807C13.9186 20.4847 13.3605 21.1586 12.8024 21.8326L12.8024 21.8326L12.8023 21.8327L12.8023 21.8328L12.8022 21.8328L12.8022 21.8329L12.8021 21.8329L12.802 21.833L12.802 21.8331L12.8019 21.8331L12.8019 21.8332L12.8018 21.8333C11.8297 23.0072 10.8576 24.1812 9.91245 25.3753C9.75903 23.9881 9.41755 22.8216 8.99707 21.8553C11.564 18.172 14.1607 14.5094 16.8114 10.8872L23.8416 12.6057C21.6069 16.1344 19.1963 19.5495 16.5971 22.8306V22.8323ZM10 72.1487C12.5387 69.7112 14.8802 67.0942 16.9968 64.2618L17.0386 64.2059C19.0717 61.4868 21.109 58.762 23.2899 56.1642C26.8236 51.9532 30.0764 47.5515 32.8609 42.8137C33.5325 41.6716 34.1622 40.5042 34.7919 39.3369C35.5387 37.9525 36.2854 36.5682 37.102 35.2262C38.2777 33.2922 39.4968 31.3842 40.716 29.4761L40.716 29.4761C41.949 27.5465 43.1819 25.6168 44.3701 23.6601C45.5223 21.7623 46.8374 20.0595 48.5084 18.6354L50 19L63.5685 15.6832C62.354 16.4915 61.1341 17.2909 59.8947 18.0594C56.7439 20.0127 54.4745 22.7102 52.9845 26.0299C51.4158 29.5234 49.4056 32.7026 46.9405 35.6159C45.3969 37.4387 44.0891 39.4205 43.0121 41.5561C42.6442 42.2853 42.2345 42.996 41.8114 43.6951C39.9361 46.7902 37.5724 49.5139 35.2153 52.2299L35.214 52.2313C35.0511 52.419 34.8882 52.6067 34.7256 52.7944C30.931 57.171 27.3855 61.7232 24.1445 66.5245L23.7683 67.0822C22.0439 69.6395 20.3091 72.2123 18.2996 74.5352C18.015 74.8641 17.7303 75.1929 17.4456 75.5217L17.4454 75.5218L17.4453 75.522L17.4453 75.5221L17.4452 75.5221C14.931 78.4256 12.4178 81.3279 10 84.3093V80.4893C11.2583 78.9639 12.5328 77.4524 13.831 75.9617L13.8343 75.9634C16.9617 72.3728 19.7813 68.5933 22.3735 64.6147C24.1177 61.9372 25.959 59.3217 27.8354 56.7345C28.9398 55.212 30.0746 53.7112 31.2095 52.2105L31.2095 52.2104L31.2095 52.2104L31.2095 52.2104L31.2095 52.2104L31.2095 52.2103L31.2096 52.2103L31.2096 52.2103L31.2096 52.2103L31.2096 52.2103L31.2098 52.21C32.3622 50.6861 33.5146 49.162 34.6352 47.6151C36.3773 45.2106 37.5925 42.5293 38.808 39.8471L38.808 39.8471L38.808 39.8471L38.808 39.847L38.8081 39.847L38.8081 39.847L38.8081 39.847L38.8081 39.8469L38.8081 39.8469L38.8081 39.8469L38.8081 39.8468C39.4339 38.466 40.0598 37.0849 40.7578 35.7413C40.8099 35.6405 40.8298 35.522 40.8496 35.4036V35.4036L40.8497 35.4034C40.8591 35.3471 40.8686 35.2907 40.8815 35.2362C40.8623 35.2232 40.843 35.2099 40.8236 35.1965L40.8235 35.1964C40.7908 35.1739 40.7579 35.1512 40.7243 35.1292C40.6184 35.2315 40.5069 35.3296 40.3954 35.4277C40.1534 35.6408 39.9114 35.8538 39.7259 36.1092C39.4716 36.4591 39.2121 36.8064 38.9524 37.1539C38.1533 38.2235 37.3528 39.2949 36.6989 40.4473C33.8927 45.4042 30.4443 49.8962 26.8939 54.3196C26.1272 55.2748 25.3471 56.2195 24.5671 57.1641C23.2168 58.7993 21.8668 60.4342 20.5874 62.1229L20.4987 62.2398C17.5165 66.1742 14.5423 70.0982 10.8826 73.4582C10.5877 73.7289 10.2935 74.0005 10 74.2728V72.1487ZM37.4769 16.5356C37.5111 16.3433 37.5452 16.1508 37.6141 15.9723L34.4074 15.1885C34.2291 15.446 34.0499 15.7029 33.8693 15.9589C32.9378 17.2801 31.9915 18.5909 31.0451 19.9018L31.0451 19.9018L31.045 19.9019L31.045 19.9019L31.045 19.902L31.0449 19.902L31.0449 19.9021L31.0448 19.9021L31.0448 19.9021L31.0448 19.9022L31.0446 19.9024L31.0445 19.9026L31.0444 19.9027L31.0443 19.9028L31.0443 19.9029L31.0442 19.903L31.0441 19.9031L31.044 19.9033L31.044 19.9034C29.8142 21.6067 28.5844 23.3101 27.3872 25.0365C26.0293 26.9948 24.8502 29.0719 24.2917 31.4216C24.1495 32.0186 24.1512 32.6691 24.198 33.2863C24.2331 33.7662 24.6395 34.0054 25.0977 33.8615C25.5677 33.7127 26.056 33.5154 26.434 33.211C27.3003 32.5119 28.1649 31.7911 28.9241 30.9817C31.0957 28.6669 33.2504 26.3373 35.4053 24.0073L35.4054 24.0072L35.4055 24.0072L35.4055 24.0071L35.4056 24.007L35.4057 24.0069L35.4058 24.0068L35.4058 24.0068L35.4059 24.0067L35.406 24.0066C36.6463 22.6655 37.8868 21.3244 39.1306 19.9859C39.4406 19.6526 39.7431 19.3091 40.0459 18.9653L40.0459 18.9652L40.046 18.9652L40.046 18.9652L40.046 18.9651L40.0461 18.9651L40.0461 18.965L40.0462 18.965L40.0462 18.965L40.0462 18.9649L40.0463 18.9648C40.6396 18.2911 41.2338 17.6165 41.8859 17.0166L38.7374 16.2469L38.6489 16.3084C38.4189 16.4678 38.1765 16.6078 37.9338 16.748L37.9337 16.7481L37.9336 16.7481L37.9336 16.7482L37.9335 16.7482L37.9334 16.7482L37.9333 16.7483L37.9332 16.7483L37.9332 16.7484C37.8196 16.814 37.7061 16.8796 37.5937 16.9472C37.5653 16.9255 37.5369 16.9034 37.5085 16.8812C37.48 16.859 37.4515 16.8369 37.4231 16.8151C37.4437 16.7232 37.4603 16.6297 37.4769 16.5361L37.4769 16.536L37.4769 16.5359L37.4769 16.5358L37.4769 16.5356ZM11.3647 88.2457L11.3651 88.2452L11.3655 88.2447L11.3655 88.2446C12.7809 86.3554 14.1964 84.466 15.6455 82.6027C16.5294 81.4666 17.4673 80.3719 18.4051 79.2772L18.4052 79.2771L18.4054 79.2768C19.5011 77.9979 20.5967 76.7191 21.6058 75.3747C23.2749 73.1514 24.8348 70.8462 26.3941 68.5417L26.3942 68.5417L26.3951 68.5403C26.8775 67.8274 27.3599 67.1145 27.8454 66.4041C31.4496 61.1311 35.6996 56.3924 39.9483 51.6553C40.5532 50.9808 41.1582 50.3063 41.7612 49.6303C43.8918 47.2405 45.7465 44.7035 47.1128 41.7886C47.7031 40.5259 48.551 39.3569 49.4307 38.2649C50.3956 37.0658 51.4877 35.9604 52.5998 34.8934C55.1836 32.4116 57.3209 29.5987 59.0819 26.4864C59.9147 25.0147 60.9499 23.6952 62.3213 22.6952C62.7052 22.4156 63.0889 22.1357 63.4726 21.8559L63.4753 21.854L63.4754 21.8539L63.4755 21.8539C66.0795 19.9548 68.6834 18.0558 71.347 16.2432C75.15 13.656 79.3359 12.002 83.9266 11.41C84.258 11.3672 84.5899 11.3254 84.922 11.2836C86.9142 11.0326 88.9134 10.7807 90.8585 10.3163C92.0269 10.0376 93.1905 9.73854 94.3513 9.42721L90.8324 17.1687C89.4305 17.4701 88.0111 17.7068 86.5957 17.9389H86.594C83.4968 18.4473 80.709 19.6866 78.0114 21.2369C74.4643 23.2755 71.1129 25.5599 68.2398 28.4966C67.6812 29.0669 67.1528 29.6706 66.6477 30.2894C64.4184 33.0287 61.664 35.1727 58.8511 37.2598C57.3594 38.3686 55.8961 39.5175 54.4428 40.6748C53.2855 41.5962 52.2587 42.6532 51.5496 43.9643C50.0411 46.7538 48.0242 49.1537 45.9053 51.4816C45.1868 52.271 44.4651 53.058 43.7435 53.845L43.7431 53.8454L43.743 53.8456L43.7428 53.8457L43.7427 53.8459L43.7425 53.8461L43.7424 53.8462L43.7422 53.8464L43.7421 53.8466L43.7419 53.8468L43.7418 53.8469C41.7884 55.9771 39.8347 58.1077 37.9399 60.2883C34.6302 64.0979 31.7019 68.1969 29.0746 72.5083C27.0695 75.7978 24.795 78.8934 22.4537 81.9538C20.5229 84.478 18.7373 87.1154 16.9533 89.7507L16.9532 89.7508C16.5801 90.3019 16.2071 90.8529 15.8328 91.4027C13.9705 94.1365 12.0589 96.8302 10 99.4187V90.065C10.4554 89.4595 10.9097 88.8531 11.364 88.2467L11.3643 88.2462L11.3647 88.2457ZM5.77653 8.18982C5.63219 8.38062 5.48949 8.57287 5.34851 8.76673L5 8L5.77653 8.18982ZM19.6067 109.083L21.5298 109.9C22.0052 109.305 22.5047 108.727 23.0273 108.163C24.8134 106.237 26.4674 104.21 27.7635 101.912C28.7127 100.229 29.6633 98.5466 30.6139 96.8646C32.4601 93.5977 34.3062 90.3311 36.142 87.0579C37.9398 83.8519 39.8731 80.753 42.5974 78.2278C45.233 75.7861 48.0526 73.5752 50.9492 71.453L51.2173 71.257L51.2174 71.2569C52.5521 70.2816 53.8993 69.297 55.0732 68.1451C56.4242 66.8188 57.7091 65.4258 58.9942 64.0327L58.9944 64.0325C59.7137 63.2527 60.433 62.4729 61.164 61.7048C63.2177 59.5457 65.3031 57.3917 67.927 55.9318C70.0158 54.7695 72.1983 53.7594 74.3941 52.8061C78.8978 50.8511 83.3262 48.7724 87.4586 46.0849C88.276 45.5532 89.1246 45.0992 90 44.7171V38.7669C89.3247 39.2194 88.6605 39.6903 87.9973 40.1605L87.7814 40.3135C87.4158 40.5725 87.051 40.8323 86.6862 41.0922L86.6861 41.0922L86.686 41.0923C83.9619 43.0326 81.2408 44.9709 78.2439 46.4929C76.0079 47.6285 73.7753 48.7724 71.5695 49.9648C71.3109 50.1043 71.0519 50.2435 70.793 50.3828C68.8916 51.4054 66.9869 52.4298 65.1677 53.5838C62.8471 55.0556 61.0272 57.0887 59.2103 59.1185L59.2102 59.1186L59.2101 59.1187L59.21 59.1188L59.2099 59.1189L59.2098 59.119L59.2097 59.1191L59.2096 59.1192L59.2095 59.1194L59.2095 59.1195L59.2094 59.1196L59.2093 59.1197C58.9393 59.4213 58.6694 59.7228 58.3979 60.0224C57.9563 60.5096 57.5194 61.0025 57.0822 61.4956L57.0817 61.4962C55.6782 63.0795 54.2731 64.6645 52.7085 66.0697C50.8961 67.6991 48.9636 69.1943 47.0312 70.6895L47.031 70.6896L47.0309 70.6897L47.0308 70.6898L47.0306 70.6899L47.0305 70.69L47.0304 70.6901L47.0303 70.6902L47.0301 70.6903L47.03 70.6904L47.0299 70.6905L47.0298 70.6906L47.0296 70.6907L47.0295 70.6908L47.0294 70.6909C46.2254 71.313 45.4213 71.9351 44.626 72.5668C41.2227 75.2693 38.4115 78.4569 36.3043 82.2849C34.394 85.757 32.4445 89.2082 30.4951 92.6593L30.4947 92.66L30.4942 92.6609C29.3275 94.7263 28.1608 96.7916 27.0026 98.8614C25.5192 101.512 23.9388 104.091 21.8667 106.334C21.0552 107.212 20.3048 108.13 19.6067 109.083ZM14.1949 106.783L11.717 105.73C12.3823 104.784 13.0939 103.866 13.8578 102.979C15.6472 100.9 17.1105 98.5938 18.4083 96.179C18.5103 95.9892 18.6121 95.7992 18.7138 95.6092L18.7147 95.6076C19.3498 94.4217 19.9855 93.2348 20.6944 92.095L21.1213 91.4075C22.6054 89.0163 24.0912 86.6225 25.6981 84.3135C27.9558 81.0708 29.8857 77.6391 31.7454 74.1673C34.4898 69.0448 37.8512 64.399 42.0907 60.4137C43.714 58.8874 45.1609 57.2048 46.6077 55.5224L46.6077 55.5223L46.6078 55.5223L46.6078 55.5223L46.6078 55.5223L46.6078 55.5222L46.6079 55.5222L46.6079 55.5222L46.6079 55.5222L46.6079 55.5222L46.608 55.5221L46.608 55.5221L46.608 55.5221L46.608 55.5221L46.608 55.522L46.6081 55.522L46.6081 55.522L46.6081 55.522L46.6082 55.5219L46.6082 55.5219L46.6082 55.5218L46.6082 55.5218L46.6083 55.5218L46.6083 55.5217L46.6083 55.5217L46.6083 55.5217L46.6084 55.5216L46.6084 55.5216L46.6084 55.5215L46.6084 55.5215L46.6085 55.5215L46.6085 55.5214L46.6085 55.5214L46.6085 55.5214L46.6085 55.5213L46.6086 55.5213L46.6086 55.5213C47.3302 54.6822 48.0518 53.8431 48.7952 53.0235L48.8056 53.0121C51.5247 50.0157 54.2542 47.0079 57.2155 44.262C58.5458 43.0283 60.072 42.0061 61.5987 40.9835C62.3196 40.5007 63.0406 40.0177 63.7411 39.5125C64.3032 39.1075 64.8679 38.7057 65.4325 38.3038L65.433 38.3034C67.1393 37.089 68.8457 35.8744 70.4841 34.574C71.5494 33.7294 72.4675 32.6574 73.3037 31.5721C75.7069 28.4548 78.8209 26.2506 82.2007 24.3441C84.5621 23.0129 87.079 22.1868 89.7431 21.7419C90.2211 21.6623 90.6975 21.5765 91.1724 21.4851C90.6782 22.5132 90.2658 23.7913 90.0905 25.3485C86.3915 26.2529 83.0694 27.9619 80.132 30.5051C79.5299 31.0252 78.9597 31.6072 78.4864 32.2444C76.314 35.1744 73.5512 37.4203 70.5242 39.4021C67.4755 41.3972 64.4703 43.4593 61.4751 45.533C57.7072 48.1419 54.4411 51.3277 51.3439 54.6725L51.1308 54.9027C48.1954 58.0752 45.2657 61.2415 42.0522 64.1448C38.6222 67.242 35.923 70.9279 33.7941 75.0152C31.1985 79.9971 28.3472 84.8219 25.2817 89.5296C23.5491 92.1904 21.9721 94.9565 20.4402 97.7376C19.0513 100.259 17.3444 102.545 15.6333 104.836C15.3437 105.224 15.0541 105.612 14.7659 106.001C14.5736 106.26 14.3832 106.521 14.1949 106.783ZM49.2917 121.699C51.1388 121.055 53.0074 120.466 54.8855 119.924L63.4333 116.291C61.6976 116.41 59.9637 116.549 58.234 116.734C55.2405 117.053 52.3857 117.935 49.5962 119.04L49.5979 119.039C49.1364 119.221 48.6727 119.398 48.209 119.575C47.5277 119.836 46.8465 120.096 46.1733 120.374L49.2917 121.699ZM44.3269 119.589L42.8205 118.949C43.3856 118.588 43.9798 118.251 44.6025 117.938H44.6009C47.3068 116.577 50.016 115.222 52.9527 114.413C55.3809 113.744 57.8795 113.498 60.378 113.331C61.8452 113.232 63.3157 113.189 64.7862 113.146C65.6924 113.119 66.5985 113.093 67.5039 113.053C67.9624 113.033 68.4211 113.015 68.8798 112.997C69.7363 112.962 70.5932 112.928 71.4491 112.884L67.8045 114.433C65.7175 114.518 63.6306 114.602 61.5436 114.692C55.4024 114.956 49.7021 116.737 44.3269 119.589ZM41.0098 118.179L39.2759 117.442L39.3129 117.411C42.2746 114.943 45.4003 112.705 48.8454 110.948C51.1047 109.794 53.4962 109.148 56.0365 108.937C57.8567 108.787 59.6793 108.777 61.5003 108.766H61.5006C62.743 108.759 63.9847 108.752 65.2245 108.7C65.7496 108.678 66.2753 108.659 66.8012 108.64C70.2247 108.516 73.6578 108.391 77.008 107.511C79.8904 106.754 82.613 105.58 85.3374 104.406L85.3398 104.405C85.6669 104.264 85.994 104.123 86.3214 103.982C87.587 103.44 88.8124 102.836 90 102.176V104.049C88.1066 105.128 86.143 106.084 84.1804 107.04L84.1803 107.04C83.4516 107.395 82.7231 107.75 81.9983 108.111C79.4547 109.379 76.7805 110.287 73.9392 110.545C71.4089 110.774 68.8669 110.911 66.3283 111.028C65.0429 111.087 63.7562 111.122 62.4693 111.157L62.4685 111.157L62.4681 111.157L62.4677 111.157C60.989 111.197 59.5102 111.237 58.0333 111.314C55.9194 111.423 53.8156 111.675 51.7937 112.364C47.8871 113.697 44.3751 115.772 41.0404 118.157L41.0098 118.179ZM87.8901 89.7788C88.5949 89.5208 89.2981 89.2582 90 88.9921V84.7995C88.9045 85.0322 87.8021 85.2388 86.696 85.4323C83.4349 86.0026 80.3327 85.5343 77.401 83.9857C76.8576 83.6989 76.3127 83.4149 75.7678 83.1308L75.766 83.1299L75.7641 83.1289L75.7623 83.128L75.7605 83.127L75.7587 83.126L75.7568 83.1251C74.3448 82.389 72.9328 81.653 71.5477 80.8701C70.2483 80.1376 68.9204 79.8767 67.4755 80.2246C67.3798 80.2478 67.2838 80.2703 67.1878 80.2929C66.8135 80.3807 66.4384 80.4688 66.0791 80.5992C60.7609 82.5207 55.5716 84.7333 50.6247 87.486C47.4807 89.2353 44.5825 91.3157 42.385 94.2089C40.9556 96.0912 39.6103 98.0365 38.2658 99.9808L37.8913 100.522C37.5703 100.986 37.2511 101.451 36.932 101.917L36.9319 101.917C35.022 104.702 33.1125 107.487 30.7955 109.964C30.6497 110.12 30.5037 110.276 30.3576 110.432L30.3562 110.434L30.353 110.437C29.6379 111.2 28.9227 111.963 28.2371 112.751L30.7385 113.814C31.2799 113.188 31.8501 112.583 32.4495 111.998L32.6859 111.768C33.7394 110.742 34.7994 109.71 35.7189 108.57C37.0545 106.914 38.3501 105.227 39.646 103.539L39.6462 103.539C40.5231 102.397 41.4001 101.255 42.2897 100.122C43.3449 98.7795 44.427 97.4516 45.5725 96.1856C47.1228 94.4731 49.0327 93.2473 51.2235 92.5265L51.3121 92.4973L51.3139 92.4967L51.3142 92.4966C55.1438 91.2356 58.9753 89.9739 62.8431 88.8423C64.2127 88.4426 65.7128 88.1934 67.1243 88.2921C69.8804 88.4844 72.6097 88.9694 75.2604 89.8323C79.4681 91.202 83.7008 91.3124 87.8901 89.7788Z" fill="url(#paint1_linear_3_5584)"/>
<path id="16 Ouline (Stroke)" fill-rule="evenodd" clip-rule="evenodd" d="M8.38344 20.6574C7.27356 18.796 6 18 6 18L10 19L5 8L50 18L95 8L90 19L94 18C94 18 92.7264 18.796 91.6166 20.6574C90.7595 22.0949 90 24.1677 90 27V105L50 122L10 105V27C10 24.1677 9.24053 22.0949 8.38344 20.6574ZM10.9313 21.2944C11.5577 22.8154 12 24.7054 12 27V103.677L50 119.827L88 103.677V27C88 24.7054 88.4423 22.8154 89.0687 21.2944L86.4642 21.9455L91.5203 10.822L50 20.0488L8.47967 10.822L13.5358 21.9455L10.9313 21.2944Z" fill="url(#paint2_linear_3_5584)"/>
<g id="icon-exp" clip-path="url(#clip0_3_5584)">
<path id="EXP" d="M42.1778 81.2736H45.5186V82.3008H42.1778V81.2736ZM42.2738 84.1536H46.0658V85.2H41.0258V78.48H45.9314V79.5264H42.2738V84.1536ZM46.5661 85.2L49.3981 81.3024V82.2432L46.7005 78.48H48.1117L50.1181 81.264L49.5421 81.2736L51.5293 78.48H52.8829L50.2045 82.176V81.2736L53.0557 85.2H51.6157L49.5037 82.2432H50.0701L47.9869 85.2H46.5661ZM53.8133 85.2V78.48H56.5781C57.1733 78.48 57.6821 78.576 58.1045 78.768C58.5333 78.96 58.8629 79.2352 59.0933 79.5936C59.3237 79.952 59.4389 80.3776 59.4389 80.8704C59.4389 81.3632 59.3237 81.7888 59.0933 82.1472C58.8629 82.5056 58.5333 82.7808 58.1045 82.9728C57.6821 83.1648 57.1733 83.2608 56.5781 83.2608H54.5045L55.0613 82.6752V85.2H53.8133ZM55.0613 82.8096L54.5045 82.2048H56.5205C57.0709 82.2048 57.4837 82.0896 57.7589 81.8592C58.0405 81.6224 58.1813 81.2928 58.1813 80.8704C58.1813 80.4416 58.0405 80.112 57.7589 79.8816C57.4837 79.6512 57.0709 79.536 56.5205 79.536H54.5045L55.0613 78.9216V82.8096Z" fill="url(#paint3_linear_3_5584)"/>
<g id="EXP_2">
<path id="Vector 388" d="M62.5316 45V50.5691H50.7747C50.7747 50.5691 47.0619 50.5691 44.1227 53.0442C39.1661 57.2182 38.5536 65.4199 38.5536 65.4199C38.5536 65.4199 35.4511 57.9437 39.6365 51.0332C43.2906 44.9999 50.3106 45 50.3106 45H62.5316Z" fill="url(#paint4_linear_3_5584)"/>
<path id="Vector 389" d="M62.5315 62.326V56.4475H44.432C44.432 56.4475 40.9979 58.4662 40.9979 63.6075C40.9978 72.5359 46.4431 73 46.4431 73H62.5315V67.8951H49.2276C49.2276 67.8951 46.8382 67.9059 45.1095 66.3641C43.3808 64.8223 43.3492 62.326 43.3492 62.326H62.5315Z" fill="url(#paint5_linear_3_5584)"/>
</g>
</g>
</g>
</g>
<defs>
<linearGradient id="paint0_linear_3_5584" x1="19.3333" y1="66" x2="80.6666" y2="66" gradientUnits="userSpaceOnUse">
<stop stop-color="#D8A956"/>
<stop offset="1" stop-color="#AB750F"/>
</linearGradient>
<linearGradient id="paint1_linear_3_5584" x1="5" y1="127.826" x2="59.8524" y2="72.5687" gradientUnits="userSpaceOnUse">
<stop stop-color="white" stop-opacity="0"/>
<stop offset="1" stop-color="#AB750F"/>
</linearGradient>
<linearGradient id="paint2_linear_3_5584" x1="5" y1="65.3413" x2="95" y2="65.3413" gradientUnits="userSpaceOnUse">
<stop stop-color="#D8A956"/>
<stop offset="1" stop-color="#AB750F"/>
</linearGradient>
<linearGradient id="paint3_linear_3_5584" x1="39.065" y1="81.7" x2="60.3659" y2="81.7" gradientUnits="userSpaceOnUse">
<stop stop-color="#AB750F"/>
<stop offset="0.516" stop-color="#D8A956"/>
<stop offset="1" stop-color="#AB750F"/>
</linearGradient>
<linearGradient id="paint4_linear_3_5584" x1="36.2745" y1="55.2101" x2="62.9905" y2="55.2101" gradientUnits="userSpaceOnUse">
<stop stop-color="#AB750F"/>
<stop offset="0.516" stop-color="#D8A956"/>
<stop offset="1" stop-color="#AB750F"/>
</linearGradient>
<linearGradient id="paint5_linear_3_5584" x1="39.9912" y1="64.7238" x2="62.9254" y2="64.7238" gradientUnits="userSpaceOnUse">
<stop stop-color="#AB750F"/>
<stop offset="0.516" stop-color="#D8A956"/>
<stop offset="1" stop-color="#AB750F"/>
</linearGradient>
<clipPath id="clip0_3_5584">
<rect width="40" height="40" fill="white" transform="translate(30 45)"/>
</clipPath>
</defs>
</svg>
