<svg width="400" height="750" viewBox="0 0 400 750" fill="none" xmlns="http://www.w3.org/2000/svg">
<g id="Dust">
<g id="Group" opacity="0.35">
<path id="Vector" d="M144.657 162.485C143.749 163.488 144.162 165.164 143.742 166.428C143.132 168.255 142.813 168.245 141.566 166.198L141.546 166.097C142 165.666 142.129 165.014 142.129 164.261C142.352 164.151 142.44 163.92 142.386 163.569C142.888 163.187 143.064 162.505 143.159 161.752L143.132 161.803C143.647 161.973 144.169 162.134 144.684 162.304L144.664 162.485H144.657Z" fill="#FFC502"/>
<path id="Vector_2" d="M137.986 273.413C138.067 273.834 138.149 274.256 138.23 274.677C138.237 275.49 138.244 276.293 138.257 277.105C138.196 277.567 138.135 278.039 138.074 278.5C137.498 278.841 136.922 278.942 136.339 278.55C136.291 277.236 136.244 275.921 136.196 274.617C136.312 274.226 136.332 273.824 136.271 273.403C136.474 273.172 136.535 272.871 136.461 272.51C136.725 272.359 136.989 272.209 137.254 272.058C137.498 272.51 137.742 272.971 137.986 273.423V273.413Z" fill="#FFC502"/>
<path id="Vector_3" d="M65.6619 290.952C65.3161 289.397 66.0686 288.364 66.4753 287.159H66.4889C66.7736 287.159 67.0515 287.169 67.3363 287.19C67.3905 287.581 67.4312 287.992 67.4515 288.404C67.499 288.855 67.5396 289.317 67.5803 289.768C67.7837 290.16 67.9803 290.541 68.1836 290.932C68.1701 291.304 68.1565 291.685 68.1565 292.056C67.8921 292.156 67.6278 292.267 67.3702 292.407C67.0719 292.508 66.7736 292.618 66.4753 292.718C66.3398 292.498 66.3465 292.277 66.4957 292.076C66.4008 291.404 66.0686 291.133 65.6686 290.962L65.6619 290.952Z" fill="#FFC502"/>
<path id="Vector_4" d="M266.036 233.297C267.181 232.755 267.934 233.076 267.845 235.163C267.805 236.187 267.723 237.2 267.656 238.213L267.676 238.183C266.849 238.384 266.666 237.06 266.083 236.678C266.219 236.297 266.171 235.976 265.934 235.725C265.975 234.902 266.015 234.079 266.056 233.257L266.036 233.297Z" fill="#FFC502"/>
<path id="Vector_5" d="M206.271 392.57C205.166 391.717 205.39 390.844 206.251 389.971C206.698 389.851 206.936 389.399 207.071 388.787C207.62 388.827 208.373 388.757 208.474 389.66C208.644 391.095 207.736 391.115 207.085 391.356C206.631 391.486 206.4 391.948 206.271 392.56V392.57Z" fill="#FFC502"/>
<path id="Vector_6" d="M200.747 514.395V514.335C201.594 516.121 201.899 517.817 200.36 519.181L200.387 519.222C199.994 518.088 199.337 517.064 199.709 515.609L199.601 515.79C199.981 515.328 200.367 514.867 200.747 514.405V514.395Z" fill="#FFC502"/>
<path id="Vector_7" d="M57.9332 189.987C57.7569 190.278 57.5536 190.539 57.4112 190.86C56.9909 191.803 56.4079 192.255 55.791 191.512C55.147 190.73 55.4792 189.807 55.9334 189.024C56.1029 188.723 56.2588 188.412 56.4283 188.111L56.4011 188.131C57.174 188.251 57.4112 189.385 57.9535 189.947L57.9332 189.997V189.987Z" fill="#FFC502"/>
<path id="Vector_8" d="M130.51 204.387C130.211 204.407 129.913 204.437 129.615 204.457C129.506 203.464 129.561 202.36 128.801 201.808C128.835 201.005 128.856 199.972 129.459 199.841C130.415 199.64 130.347 201.025 130.564 201.908C130.543 202.731 130.523 203.554 130.503 204.387H130.51Z" fill="#FFC502"/>
<path id="Vector_9" d="M304.444 287.05C304.078 287.05 303.712 287.05 303.346 287.05C303.244 286.257 303.142 285.455 303.047 284.662C303.603 284.26 304.166 283.869 304.722 283.468L304.695 283.438C304.939 284.24 305.176 285.043 305.42 285.846L305.522 285.756C305.162 286.187 304.803 286.619 304.444 287.04V287.05Z" fill="#FFC502"/>
<path id="Vector_10" d="M14.2295 226.021L14.2092 226.402C13.4567 227.235 12.65 227.155 11.823 226.733L11.9247 226.874C11.6467 225.68 11.6603 224.486 11.945 223.292L11.8433 223.492C13.0296 223.512 13.694 224.626 14.2227 226.021H14.2295Z" fill="#FFC502"/>
<path id="Vector_11" d="M85.0825 438.847C84.8995 436.439 84.669 434.031 85.3334 431.683H85.5503C85.774 434.131 86.8451 436.69 85.0825 438.847Z" fill="#FFC502"/>
<path id="Vector_12" d="M212.86 721.724C212.86 722.245 212.866 722.767 212.873 723.279C212.114 723.921 211.328 723.921 210.528 723.47L210.616 723.62C210.629 722.888 210.65 722.145 210.663 721.413L210.575 721.553C211.348 721.101 212.114 721.152 212.853 721.724H212.86Z" fill="#FFC502"/>
<path id="Vector_13" d="M150.548 678.526C150.216 678.145 149.85 677.824 149.565 677.383C149.165 676.76 148.833 675.917 149.45 675.285C150.006 674.713 150.46 675.335 150.758 676.098C150.684 676.901 150.616 677.714 150.548 678.516V678.526Z" fill="#FFC502"/>
<path id="Vector_14" d="M225.604 258.322C227.909 259.084 228.194 259.686 227.347 262.045C227.048 261.633 226.75 261.212 226.452 260.8H226.458C226.174 260.409 225.882 259.998 225.598 259.586L225.584 259.566C225.584 259.145 225.584 258.733 225.604 258.312V258.322Z" fill="#FFC502"/>
<path id="Vector_15" d="M366.485 462.92C366.336 464.023 366.193 465.137 366.044 466.241L366.092 466.201L364.573 465.037C364.587 464.475 364.607 463.913 364.621 463.351C364.871 463.231 365.095 463.04 365.292 462.769C365.692 462.819 366.092 462.869 366.492 462.92H366.485Z" fill="#FFC502"/>
<path id="Vector_16" d="M186.863 43.8799C186.856 45.4553 186.843 47.0307 186.836 48.606C186.382 48.7666 186.049 48.6361 186.002 47.8334C185.961 46.7798 186.192 45.5656 185.236 45.084C185.243 44.6626 185.256 44.2512 185.263 43.8297L185.222 43.8899C185.772 43.8899 186.321 43.8799 186.87 43.8799H186.863Z" fill="#FFC502"/>
<path id="Vector_17" d="M329.961 555.576C331.039 555.837 330.693 557.182 330.849 558.145C330.917 558.586 330.991 559.028 331.059 559.469L330.802 559.65L330.605 559.339C330.429 559.459 330.246 559.479 330.056 559.379C329.1 559.118 329.243 557.994 329.222 557.001C329.609 556.68 329.941 556.309 329.954 555.566L329.961 555.576Z" fill="#FFC502"/>
<path id="Vector_18" d="M37.9495 559.008V558.496C38.2071 557.964 38.4647 557.422 38.7223 556.891C40.1797 557.081 40.7085 557.854 39.529 559.72C39.0002 559.479 38.4782 559.249 37.9495 559.008Z" fill="#FFC502"/>
<path id="Vector_19" d="M352.447 438.849H352.176C352.027 438.066 351.878 437.284 351.729 436.501C351.905 436.27 351.979 435.989 351.959 435.638C352.501 435.437 353.037 435.227 353.579 435.016C353.566 435.879 353.552 436.732 353.538 437.595C353.172 438.006 352.813 438.428 352.447 438.839V438.849Z" fill="#FFC502"/>
<path id="Vector_20" d="M254.246 427.549C254.246 427.218 254.246 426.877 254.246 426.546C254.51 426.084 254.781 425.622 255.046 425.161H255.059C255.459 424.79 255.859 424.428 256.266 424.077L256.374 424.057C256.51 424.85 256.652 425.642 256.788 426.435L256.761 426.475C256.313 426.616 256.029 427.007 255.913 427.679C255.358 427.639 254.802 427.589 254.246 427.549Z" fill="#FFC502"/>
<path id="Vector_21" d="M140.583 522.895C140.312 523.647 139.932 524.219 139.349 523.748C138.929 523.416 139.017 522.744 139.2 522.172C139.37 521.64 139.566 521.119 139.756 520.587C140.034 520.567 140.319 520.537 140.597 520.517C140.597 521.309 140.597 522.102 140.59 522.895H140.583Z" fill="#FFC502"/>
<path id="Vector_22" d="M76.3932 356.456C76.1763 356.647 75.939 357.028 75.756 356.978C75.2883 356.837 75.1391 356.245 75.4035 355.673C75.512 355.442 75.939 355.292 76.095 355.422C76.2712 355.573 76.2983 356.095 76.3932 356.456Z" fill="#FFC502"/>
<path id="Vector_23" d="M130.496 390.914C130.035 390.854 129.743 390.482 129.811 389.79C129.879 389.128 130.225 388.786 130.652 388.977C130.848 389.067 131.085 389.439 131.133 389.74C131.241 390.442 130.936 390.803 130.496 390.914Z" fill="#FFC502"/>
<path id="Vector_24" d="M221.32 14.9807C221.483 15.352 221.51 15.7534 221.395 16.1648C221.449 16.4558 221.429 16.7367 221.341 16.9976C221.49 17.1983 221.517 17.4391 221.429 17.7C220.934 17.0277 220.358 17.3388 219.802 17.399C219.775 16.5762 219.741 15.7534 219.714 14.9305C220.249 14.9406 220.778 14.9506 221.313 14.9606L221.32 14.9807Z" fill="#FFC502"/>
<path id="Vector_25" d="M212.894 420.124C212.263 420.013 211.524 419.943 211.66 418.639C211.748 417.816 212.365 417.726 212.873 417.675C212.88 418.488 212.887 419.301 212.894 420.124Z" fill="#FFC502"/>
<path id="Vector_26" d="M175.942 23.7503C175.658 23.7503 175.38 23.7503 175.095 23.7403C175.115 22.8472 174.722 22.5562 174.234 22.4057C174.234 22.0144 174.254 21.6231 174.282 21.2317C174.831 21.1916 175.38 21.1615 175.929 21.1213C176.986 21.9843 176.051 22.8673 175.942 23.7503Z" fill="#FFC502"/>
<path id="Vector_27" d="M172.62 34.156C172.776 34.4269 173.074 34.6979 173.074 34.9688C173.074 35.7013 172.702 36.0123 172.275 35.7314C172.112 35.621 171.963 35.019 172.017 34.728C172.064 34.4771 172.41 34.3467 172.627 34.166L172.62 34.156Z" fill="#FFC502"/>
<path id="Vector_28" d="M92.3495 51.6456C92.1394 51.8263 91.9021 52.1975 91.7191 52.1474C91.2649 52.0069 91.1158 51.4349 91.3734 50.873C91.475 50.6522 91.8953 50.5118 92.0513 50.6422C92.2207 50.7927 92.2546 51.2944 92.3495 51.6456Z" fill="#FFC502"/>
<path id="Vector_29" d="M191.961 71.3837C191.947 70.5508 191.934 69.718 191.914 68.8851C192.564 68.9955 193.412 68.9253 193.263 70.3802C193.174 71.2532 192.497 71.3335 191.961 71.3837Z" fill="#FFC502"/>
<path id="Vector_30" d="M39.3397 465.549C39.1363 465.759 38.9261 466.171 38.7431 466.151C38.2618 466.081 38.072 465.519 38.3025 464.897C38.3974 464.646 38.8244 464.435 39.0007 464.545C39.177 464.656 39.2312 465.198 39.3397 465.549Z" fill="#FFC502"/>
<path id="Vector_31" d="M172.288 114.21C172.084 114.42 171.874 114.822 171.691 114.792C171.224 114.701 171.034 114.139 171.244 113.537C171.332 113.297 171.759 113.116 171.935 113.226C172.112 113.347 172.173 113.868 172.288 114.21Z" fill="#FFC502"/>
<path id="Vector_32" d="M72.4067 118.956C72.4474 118.133 72.4948 117.099 73.1117 116.999C74.1218 116.828 74.0336 118.103 74.0743 119.106C73.5184 119.056 72.9626 119.006 72.3999 118.966L72.4067 118.956Z" fill="#FFC502"/>
<path id="Vector_33" d="M342.42 123.26C342.603 123.381 342.928 123.441 343.016 123.682C343.22 124.224 343.071 124.775 342.664 124.936C342.488 125.006 342.128 124.785 342.047 124.545C341.871 124.023 341.966 123.501 342.42 123.26Z" fill="#FFC502"/>
<path id="Vector_34" d="M74.0806 480.591C73.2536 480.059 73.2062 478.995 73.2604 477.872C74.5619 478.082 75.2805 478.694 74.0806 480.591Z" fill="#FFC502"/>
<path id="Vector_35" d="M275.268 484.152C275.261 483.33 275.295 482.296 275.878 482.146C276.82 481.895 276.888 483.099 276.949 484.122L275.261 484.152H275.268Z" fill="#FFC502"/>
<path id="Vector_36" d="M29.3061 161.651L29.062 161.591L28.818 161.641C28.7434 160.829 28.6756 160.016 28.6011 159.213L28.6146 159.193C28.9536 158.812 29.2993 158.43 29.6383 158.049C29.7874 158.119 29.9365 158.119 30.0924 158.049C30.1602 158.852 30.228 159.665 30.2958 160.467C29.9636 160.859 29.6315 161.26 29.2993 161.651H29.3061Z" fill="#FFC502"/>
<path id="Vector_37" d="M398.198 171.565C398.273 172.638 398.212 173.622 397.473 174.204C397.161 173.722 396.849 173.25 396.537 172.769C396.531 172.046 396.524 171.334 396.517 170.611C396.788 170.501 397.066 170.441 397.344 170.441L397.371 170.471C397.649 170.832 397.92 171.193 398.198 171.554V171.565Z" fill="#FFC502"/>
<path id="Vector_38" d="M61.4452 185.544C60.6995 186.356 59.9538 187.189 58.937 186.768C58.9302 186.387 58.9302 186.005 58.937 185.624C59.2217 185.192 59.5064 184.751 59.7979 184.319L59.7776 184.35C60.3267 184.39 60.8758 184.42 61.4316 184.46C61.4181 184.821 61.4316 185.192 61.452 185.554L61.4452 185.544Z" fill="#FFC502"/>
<path id="Vector_39" d="M28.6082 511.736C28.6149 510.903 28.6285 510.07 28.6353 509.237C29.1708 509.288 29.8555 509.358 29.9436 510.221C30.0995 511.656 29.2522 511.606 28.6082 511.736Z" fill="#FFC502"/>
<path id="Vector_40" d="M32.0043 195.448C32.0518 194.655 32.0586 193.612 32.6755 193.511C33.6381 193.351 33.6042 194.605 33.6584 195.598C33.1025 195.548 32.5534 195.498 31.9976 195.458L32.0043 195.448Z" fill="#FFC502"/>
<path id="Vector_41" d="M227.171 520.497C227.768 520.497 228.364 520.497 228.968 520.507C228.947 521.34 228.934 522.173 228.914 522.995L227.49 522.925C227.382 522.112 227.28 521.3 227.171 520.487V520.497Z" fill="#FFC502"/>
<path id="Vector_42" d="M128.794 203.064C128.801 204.147 128.692 205.141 127.947 205.663C126.598 203.606 127.703 203.335 128.794 203.064Z" fill="#FFC502"/>
<path id="Vector_43" d="M133.519 530.411C133.174 530.411 132.821 530.411 132.475 530.411C132.401 529.638 132.326 528.855 132.245 528.083L132.191 528.163C132.74 528.143 133.282 528.123 133.831 528.113L133.797 528.063C133.709 528.845 133.614 529.628 133.519 530.411Z" fill="#FFC502"/>
<path id="Vector_44" d="M281.132 219.408C280.508 219.268 279.546 219.238 279.797 217.993C280.075 216.629 280.746 217.261 281.166 218.174C281.159 218.585 281.146 218.997 281.125 219.408H281.132Z" fill="#FFC502"/>
<path id="Vector_45" d="M169.983 537.766C169.8 537.535 169.495 537.344 169.448 537.073C169.332 536.331 169.658 535.899 170.119 535.95C170.593 536 170.783 536.592 170.627 537.204C170.559 537.475 170.207 537.585 169.983 537.766Z" fill="#FFC502"/>
<path id="Vector_46" d="M257.887 539.241C258.07 539 258.253 538.569 258.436 538.569C258.931 538.569 259.127 539.131 258.944 539.763C258.87 540.004 258.463 540.224 258.273 540.144C258.104 540.074 258.016 539.552 257.894 539.241H257.887Z" fill="#FFC502"/>
<path id="Vector_47" d="M234.025 235.343C233.598 235.173 233.395 234.721 233.537 234.139C233.598 233.898 233.937 233.637 234.134 233.657C234.574 233.718 234.744 234.259 234.615 234.831C234.561 235.072 234.228 235.173 234.025 235.343Z" fill="#FFC502"/>
<path id="Vector_48" d="M173.089 551.694C172.994 552.015 172.96 552.507 172.797 552.647C172.424 552.948 172.045 552.737 171.943 552.105C171.896 551.824 172.045 551.282 172.214 551.152C172.587 550.851 172.912 551.112 173.095 551.704L173.089 551.694Z" fill="#FFC502"/>
<path id="Vector_49" d="M297.964 252.24C297.984 253.063 297.998 253.886 298.018 254.719C297.476 254.538 296.934 254.368 296.385 254.187C296.425 253.836 296.358 253.535 296.195 253.274C296.242 252.863 296.283 252.451 296.317 252.05C296.866 252.12 297.415 252.18 297.964 252.24Z" fill="#FFC502"/>
<path id="Vector_50" d="M118.694 556.922C118.138 556.892 117.576 556.862 117.02 556.832C117.02 556.039 117.02 555.256 117.02 554.474C117.576 554.474 118.125 554.474 118.681 554.474C118.681 555.286 118.694 556.099 118.701 556.912L118.694 556.922Z" fill="#FFC502"/>
<path id="Vector_51" d="M228.961 255.622C229.7 255.743 230.452 255.793 230.757 257.087L230.662 257.208C230.378 257.579 230.086 257.94 229.802 258.312L229.408 258.291H229.015C228.724 257.85 228.439 257.398 228.147 256.957C228.419 256.515 228.69 256.064 228.961 255.622Z" fill="#FFC502"/>
<path id="Vector_52" d="M90.9738 558.346C91.5161 558.285 92.0517 558.215 92.5872 558.155C92.594 558.958 92.6347 560.041 92.0788 560.232C91.1636 560.553 91.0552 559.369 90.967 558.346H90.9738Z" fill="#FFC502"/>
<path id="Vector_53" d="M178.465 563.534C178.627 563.805 178.926 564.076 178.926 564.347C178.926 565.089 178.553 565.4 178.119 565.119C177.949 565.009 177.807 564.397 177.854 564.096C177.895 563.845 178.248 563.715 178.465 563.534Z" fill="#FFC502"/>
<path id="Vector_54" d="M46.2188 579.438C45.6901 579.368 44.9715 579.428 44.8969 578.515C44.7817 577.131 45.6223 577.1 46.2866 576.96C46.2663 577.783 46.2459 578.616 46.2256 579.438H46.2188Z" fill="#FFC502"/>
<path id="Vector_55" d="M35.2722 581.164C35.2722 581.736 35.2858 582.307 35.2925 582.879C34.7502 583 34.2079 583.12 33.6724 583.241C33.6724 582.428 33.6724 581.615 33.6791 580.792C34.2147 580.913 34.7434 581.033 35.2722 581.154V581.164Z" fill="#FFC502"/>
<path id="Vector_56" d="M305.469 585.75C305.557 584.737 305.238 583.382 306.404 583.272L306.39 583.252C306.641 583.844 306.899 584.426 307.15 585.018V585.279C306.655 585.68 306.167 586.081 305.672 586.483C305.746 586.152 305.672 585.911 305.469 585.75Z" fill="#FFC502"/>
<path id="Vector_57" d="M159.998 585.93C160.54 585.87 161.075 585.81 161.618 585.759C161.618 586.562 161.658 587.646 161.103 587.836C160.187 588.147 160.086 586.953 159.998 585.94V585.93Z" fill="#FFC502"/>
<path id="Vector_58" d="M175.942 593.306C175.312 593.155 174.336 593.165 174.586 591.881C174.858 590.506 175.549 591.118 176.01 592.001C175.99 592.433 175.969 592.874 175.949 593.306H175.942Z" fill="#FFC502"/>
<path id="Vector_59" d="M376.159 646.045C376.444 646.476 376.756 646.888 377.02 647.339C377.332 647.871 377.305 648.533 377.006 648.975C376.383 649.918 376.037 648.804 375.705 648.373C375.21 647.731 375.549 646.858 375.63 646.075C375.807 646.155 375.99 646.145 376.166 646.045H376.159Z" fill="#FFC502"/>
<path id="Vector_60" d="M1.04428 418.76C0.461288 416.542 1.00361 415.88 2.46109 416.492L2.44075 416.442C2.44753 416.843 2.47465 417.255 2.52888 417.646V417.666C2.20349 418.057 1.8781 418.449 1.55948 418.84L1.31544 418.66L1.05106 418.75L1.04428 418.76Z" fill="#FFC502"/>
<path id="Vector_61" d="M391.506 195.557C391.493 194.744 391.479 193.921 391.466 193.108C392.117 193.058 392.693 193.259 393.079 194.132C392.801 194.614 392.523 195.095 392.239 195.587L391.873 195.547H391.506V195.557Z" fill="#FFC502"/>
<path id="Vector_62" d="M36.0845 198.457C35.9964 199.139 36.3896 200.142 35.6845 200.393C35.4134 200.484 35.0405 199.902 34.7152 199.631H34.6067C34.9728 199.169 35.3388 198.707 35.7049 198.246C35.793 198.487 35.915 198.557 36.0845 198.457Z" fill="#FFC502"/>
<path id="Vector_63" d="M42.0972 200.524C42.0565 199.571 42.2667 198.768 42.7819 198.166C43.1141 198.557 43.4394 198.948 43.7716 199.34C43.7242 199.691 43.7106 200.052 43.7309 200.403L42.0972 200.524Z" fill="#FFC502"/>
<path id="Vector_64" d="M21.9377 443.955C21.9241 443.243 21.8156 442.3 22.4732 442.259C23.0291 442.229 23.2731 443.012 23.307 443.835C22.8528 443.875 22.3919 443.915 21.9377 443.955Z" fill="#FFC502"/>
<path id="Vector_65" d="M307.25 238.322L307.088 236.937C307.216 236.626 307.298 236.285 307.318 235.924C307.549 235.864 307.779 235.813 308.01 235.773C308.301 236.265 308.599 236.757 308.891 237.258C308.83 237.469 308.83 237.69 308.877 237.911C308.335 238.051 307.793 238.192 307.25 238.322Z" fill="#FFC502"/>
<path id="Vector_66" d="M287.05 467.768C287.341 468.209 287.639 468.651 287.931 469.092L287.056 470.357L287.043 470.337C286.765 469.925 286.487 469.514 286.209 469.112L286.189 469.082C286.189 468.661 286.202 468.239 286.202 467.818C286.48 467.788 286.758 467.778 287.036 467.768H287.05Z" fill="#FFC502"/>
<path id="Vector_67" d="M367.022 282.182C367.361 281.229 367.87 280.527 368.453 281.57C368.805 282.213 368.378 282.955 367.904 283.387C367.605 282.985 367.314 282.584 367.016 282.182H367.022Z" fill="#FFC502"/>
<path id="Vector_68" d="M246.606 497.859C245.901 497.91 245.06 498.391 244.938 496.655L244.952 496.625C245.264 496.234 245.569 495.843 245.881 495.451C246.104 495.451 246.328 495.451 246.552 495.451C246.559 496.264 246.572 497.077 246.579 497.89L246.613 497.859H246.606Z" fill="#FFC502"/>
<path id="Vector_69" d="M17.8967 499.285C18.317 498.964 18.6017 497.93 19.205 498.603C19.3474 498.753 19.3745 499.456 19.2661 499.727C18.8864 500.63 18.3306 500.118 17.8357 499.967C17.9713 499.767 17.9916 499.536 17.8967 499.285Z" fill="#FFC502"/>
<path id="Vector_70" d="M360.289 503.008C360.194 501.944 360.405 501.091 361.021 500.489C361.333 500.921 361.652 501.362 361.964 501.794C361.937 502.115 361.93 502.436 361.95 502.757C361.401 502.837 360.845 502.927 360.296 503.008H360.289Z" fill="#FFC502"/>
<path id="Vector_71" d="M220.575 506.709C220.195 506.568 219.551 506.558 219.483 506.257C219.192 504.983 219.958 504.662 220.527 504.21C220.548 505.043 220.561 505.876 220.575 506.709Z" fill="#FFC502"/>
<path id="Vector_72" d="M93.4359 726.248C92.9003 725.807 92.4936 725.114 93.002 724.352C93.5104 723.589 93.9714 724.181 94.2765 724.984C93.9985 725.405 93.7138 725.827 93.4359 726.248Z" fill="#FFC502"/>
<path id="Vector_73" d="M19.1242 516.462C18.2362 515.499 18.4938 514.345 18.8734 513.161L18.9548 513.111C19.5988 514.194 19.5242 515.358 19.0903 516.542L19.1242 516.452V516.462Z" fill="#FFC502"/>
<path id="Vector_74" d="M117.013 61.3086C117.013 60.8871 117.006 60.4657 116.999 60.0443C117.291 59.6429 117.582 59.2516 117.867 58.8602C118.646 59.3218 118.701 60.3052 118.687 61.3487C118.131 61.3387 117.568 61.3186 117.013 61.3086Z" fill="#FFC502"/>
<path id="Vector_75" d="M68.475 69.0047L68.8275 68.9646C69.1665 69.386 69.5122 69.8075 69.8512 70.2289C69.8105 70.54 69.8037 70.8611 69.8308 71.1721C69.2817 71.2524 68.7326 71.3327 68.1835 71.413H68.1768C68.2784 70.6002 68.3801 69.7975 68.4818 69.0047H68.475Z" fill="#FFC502"/>
<path id="Vector_76" d="M235.611 115.274C235.021 115.304 234.499 115.074 234.085 114.431C234.411 113.92 234.736 113.408 235.062 112.886L235.428 112.916C235.489 113.709 235.543 114.492 235.604 115.274H235.611Z" fill="#FFC502"/>
<path id="Vector_77" d="M306.864 368.036C306.647 368.196 306.41 368.528 306.227 368.477C305.78 368.357 305.624 367.805 305.841 367.223C305.908 367.042 306.329 366.952 306.471 367.083C306.661 367.263 306.742 367.705 306.871 368.036H306.864Z" fill="#FFC502"/>
<path id="Vector_78" d="M161.624 584.465C161.319 584.064 161.014 583.653 160.709 583.251C160.73 582.81 160.75 582.378 160.777 581.937C161.333 581.977 161.889 582.017 162.451 582.057C162.431 583.061 162.35 584.004 161.624 584.465Z" fill="#FFC502"/>
<path id="Vector_79" d="M126.286 728.858C125.737 728.748 125.194 728.637 124.645 728.537C124.699 728.296 124.699 728.045 124.638 727.805C124.937 727.303 125.228 726.791 125.526 726.289C125.723 726.32 125.926 726.32 126.123 726.3C126.191 727.122 126.259 727.955 126.326 728.778L126.286 728.858Z" fill="#FFC502"/>
<path id="Vector_80" d="M181.82 584.454C182.098 584.404 182.376 584.404 182.654 584.464C182.654 585.257 182.938 585.628 183.46 585.638C183.562 585.809 183.664 585.99 183.765 586.17C183.65 586.421 183.575 586.702 183.535 586.993C183.04 586.963 182.552 586.923 182.057 586.893C181.976 586.08 181.888 585.277 181.806 584.464L181.826 584.444L181.82 584.454Z" fill="#FFC502"/>
<path id="Vector_81" d="M58.0895 381.162C58.0759 380.78 58.0759 380.399 58.0759 380.018C58.3742 379.606 58.6725 379.205 58.9707 378.794L58.9436 378.844L59.33 378.874L59.7164 378.854V378.784C59.73 379.606 59.7368 380.429 59.7436 381.252C59.1877 381.212 58.6318 381.182 58.0759 381.162H58.0895Z" fill="#FFC502"/>
<path id="Vector_82" d="M282.867 589.602C283.396 589.111 283.755 588.137 284.514 588.278C284.632 590.084 284.094 590.843 282.901 590.555C282.962 590.234 282.948 589.913 282.867 589.602Z" fill="#FFC502"/>
<path id="Vector_83" d="M259.085 387.442C258.97 387.783 258.916 388.295 258.733 388.415C258.563 388.526 258.272 388.235 258.028 388.114C258.163 387.773 258.252 387.362 258.441 387.121C258.712 386.76 258.963 386.92 259.085 387.442Z" fill="#FFC502"/>
<path id="Vector_84" d="M260.91 156.724C261.215 156.263 261.514 155.791 261.819 155.329C262.097 155.37 262.368 155.4 262.646 155.42V156.724C262.375 157.136 262.103 157.547 261.832 157.958L261.805 157.999C261.507 157.567 261.209 157.146 260.91 156.714V156.724Z" fill="#FFC502"/>
<path id="Vector_85" d="M20.2089 159.254C20.7512 159.716 21.2935 160.167 21.829 160.629C21.7409 160.88 21.7341 161.131 21.8155 161.391C21.2732 161.512 20.7376 161.622 20.1953 161.743C20.2089 160.91 20.2224 160.077 20.236 159.244L20.2156 159.264L20.2089 159.254Z" fill="#FFC502"/>
<path id="Vector_86" d="M351.036 398.78C351.449 397.957 351.978 397.154 352.507 398.379C352.812 399.081 352.371 399.793 351.829 400.084C351.564 399.653 351.3 399.211 351.036 398.78Z" fill="#FFC502"/>
<path id="Vector_87" d="M113.603 710.115C113.575 710.466 113.582 710.807 113.63 711.159C113.237 711.55 112.843 711.931 112.45 712.323C112.254 711.941 112.064 711.56 111.867 711.179C111.894 710.767 111.921 710.356 111.962 709.944H111.955C112.504 710.005 113.054 710.065 113.603 710.115Z" fill="#FFC502"/>
<path id="Vector_88" d="M149.843 410.06C150.142 409.277 150.602 408.715 151.104 409.428C151.613 410.15 151.226 410.853 150.738 411.334C150.44 410.913 150.142 410.481 149.843 410.06Z" fill="#FFC502"/>
<path id="Vector_89" d="M130.502 644.811L128.821 644.621C129.451 643.286 130.028 643.086 130.502 644.811Z" fill="#FFC502"/>
<path id="Vector_90" d="M308.071 643.337C307.617 643.337 307.156 643.166 307.292 642.334C307.448 641.33 307.841 641.762 308.173 642.203C308.119 642.574 308.085 642.956 308.071 643.337Z" fill="#FFC502"/>
<path id="Vector_91" d="M170.92 27.4631C170.92 26.6403 170.906 25.8275 170.899 25.0047C171.177 24.9646 171.455 24.9545 171.733 24.9947C171.733 25.4362 171.733 25.8777 171.733 26.3292C171.754 26.7105 171.733 27.0918 171.652 27.4631H171.286H170.92Z" fill="#FFC502"/>
<path id="Vector_92" d="M167.509 37.5083C168.065 37.5284 168.628 37.5384 169.184 37.5585C169.184 37.9197 169.184 38.2809 169.17 38.6422C168.614 38.6823 168.065 38.7224 167.509 38.7626C167.496 38.3411 167.496 37.9297 167.509 37.5083Z" fill="#FFC502"/>
<path id="Vector_93" d="M89.2395 40.0774C89.7953 40.0674 90.3512 40.0473 90.9139 40.0272C90.9139 40.4587 90.9139 40.9002 90.9139 41.3317C90.358 41.2715 89.8021 41.2113 89.2462 41.1511C89.2462 40.7898 89.2394 40.4286 89.2327 40.0674L89.2395 40.0774Z" fill="#FFC502"/>
<path id="Vector_94" d="M44.5453 630.944C44.586 631.777 44.6199 632.61 44.6606 633.443C44.3555 633.443 44.0573 633.433 43.7522 633.423C43.7861 632.59 43.8268 631.767 43.8607 630.944C44.0911 630.964 44.3149 630.964 44.5453 630.944Z" fill="#FFC502"/>
<path id="Vector_95" d="M153.537 49.8601C153.415 49.0774 153.286 48.3048 153.164 47.5221C155.116 47.4117 153.747 48.957 153.693 49.85H153.537V49.8601Z" fill="#FFC502"/>
<path id="Vector_96" d="M215.518 53.9031C216.026 54.0536 216.534 54.2041 217.043 54.3546L217.09 54.5052C216.568 54.6657 216.046 54.8162 215.524 54.9667C215.511 54.6055 215.511 54.2543 215.524 53.8931L215.518 53.9031Z" fill="#FFC502"/>
<path id="Vector_97" d="M214.393 71.2934C213.979 70.3702 213.491 69.427 214.651 68.8851C214.562 69.6879 214.474 70.4906 214.393 71.2934Z" fill="#FFC502"/>
<path id="Vector_98" d="M50.5645 80.1238C50.5171 79.1003 50.5171 78.1169 51.3305 77.7156C51.3305 78.6989 51.2831 79.6522 50.5645 80.1238Z" fill="#FFC502"/>
<path id="Vector_99" d="M121.255 89.1135C121.805 89.0533 122.354 88.9831 122.903 88.9229V90.2674C122.347 90.1972 121.791 90.127 121.235 90.0567C121.255 89.7457 121.262 89.4346 121.255 89.1135Z" fill="#FFC502"/>
<path id="Vector_100" d="M163.313 96.5094C163.876 96.5094 164.432 96.4894 164.988 96.4894V97.7537C164.432 97.7236 163.869 97.7035 163.313 97.6834C163.313 97.2921 163.313 96.9008 163.313 96.5195V96.5094Z" fill="#FFC502"/>
<path id="Vector_101" d="M249.114 111.531C248.212 110.618 248.016 109.765 249.209 109.032C249.175 109.865 249.148 110.698 249.114 111.531Z" fill="#FFC502"/>
<path id="Vector_102" d="M107.786 116.728C108.397 116.788 108.736 117.28 108.62 118.173C108.546 118.765 108.173 119.006 107.766 118.996C107.766 118.243 107.78 117.49 107.786 116.728Z" fill="#FFC502"/>
<path id="Vector_103" d="M399.824 127.706C399.085 127.475 398.624 126.913 399.241 125.88C399.471 125.498 399.844 126.111 400 126.602C399.898 126.953 399.837 127.325 399.824 127.706Z" fill="#FFC502"/>
<path id="Vector_104" d="M186.089 129.31L187.71 129.14C187.71 129.581 187.723 130.013 187.723 130.454C187.167 130.364 186.618 130.274 186.062 130.173C186.089 129.892 186.096 129.601 186.089 129.31Z" fill="#FFC502"/>
<path id="Vector_105" d="M114.483 144.162C115.019 144.232 115.561 144.302 116.096 144.373C116.096 144.654 116.103 144.935 116.13 145.216L114.476 145.476C114.476 145.035 114.476 144.593 114.476 144.152L114.483 144.162Z" fill="#FFC502"/>
<path id="Vector_106" d="M106.925 147.985C107.481 147.955 108.037 147.935 108.593 147.905C108.606 148.316 108.6 148.728 108.586 149.149C108.037 149.109 107.481 149.069 106.932 149.029C106.932 148.678 106.932 148.337 106.932 147.985H106.925Z" fill="#FFC502"/>
<path id="Vector_107" d="M134.686 154.195C134.686 153.363 134.686 152.53 134.692 151.697C134.957 151.697 135.221 151.697 135.485 151.697C135.492 152.53 135.499 153.363 135.513 154.185H135.099H134.686V154.195Z" fill="#FFC502"/>
<path id="Vector_108" d="M264.327 152.931C264.611 152.921 264.896 152.901 265.188 152.881C265.181 153.734 265.174 154.587 265.167 155.44C264.889 155.48 264.618 155.44 264.354 155.309C264.347 154.517 264.333 153.724 264.327 152.921V152.931Z" fill="#FFC502"/>
<path id="Vector_109" d="M268.55 162.966C268.55 162.133 268.537 161.3 268.53 160.467C269.499 161.28 269.486 162.123 268.55 162.966Z" fill="#FFC502"/>
<path id="Vector_110" d="M101.841 165.415C102.377 165.525 102.912 165.645 103.454 165.756C103.434 165.987 103.441 166.217 103.488 166.448L101.848 166.849C101.848 166.368 101.848 165.896 101.841 165.415Z" fill="#FFC502"/>
<path id="Vector_111" d="M69.8574 180.546C69.8642 179.713 69.8778 178.88 69.8845 178.057C70.7929 178.91 70.82 179.743 69.8574 180.546Z" fill="#FFC502"/>
<path id="Vector_112" d="M346.007 178.088C347.186 178.239 346.942 179.403 346.779 180.507C346.278 180.396 346.034 179.874 345.837 179.252C345.912 178.861 345.973 178.46 346.02 178.048L346 178.078L346.007 178.088Z" fill="#FFC502"/>
<path id="Vector_113" d="M45.1141 614.849C45.2294 615.601 45.3378 616.354 45.4531 617.107C44.1719 616.886 44.8091 615.762 44.9718 614.859H45.1141V614.849Z" fill="#FFC502"/>
<path id="Vector_114" d="M196.15 192.969C196.123 193.821 196.096 194.674 196.069 195.537C195.174 194.614 195.195 193.761 196.15 192.969Z" fill="#FFC502"/>
<path id="Vector_115" d="M389.046 194.785C389.669 194.614 390.456 193.761 390.611 195.598H390.605C390.069 195.437 389.54 195.277 389.005 195.106L389.046 194.785Z" fill="#FFC502"/>
<path id="Vector_116" d="M42.2132 209.306C42.159 208.493 42.1048 207.68 42.0505 206.867L42.0709 206.837C42.3556 206.817 42.6471 206.807 42.9318 206.787L42.9928 206.867C42.925 207.69 42.8572 208.513 42.7894 209.336C42.5996 209.296 42.403 209.286 42.2132 209.296V209.306Z" fill="#FFC502"/>
<path id="Vector_117" d="M310.606 610.775C310.05 610.795 309.494 610.825 308.938 610.845V609.53C309.494 609.581 310.05 609.631 310.606 609.681C310.606 610.042 310.606 610.413 310.606 610.775Z" fill="#FFC502"/>
<path id="Vector_118" d="M2.4538 216.949C2.51481 216.136 2.5826 215.314 2.64361 214.501C2.8402 214.531 3.03679 214.521 3.22661 214.461C3.28084 215.284 3.34185 216.106 3.39608 216.939L2.44702 216.959L2.4538 216.949Z" fill="#FFC502"/>
<path id="Vector_119" d="M387.277 218.155C387.298 217.352 387.325 216.539 387.345 215.737C387.569 215.737 387.786 215.717 388.009 215.687C388.07 216.519 388.131 217.362 388.186 218.195C387.881 218.185 387.576 218.165 387.271 218.155H387.277Z" fill="#FFC502"/>
<path id="Vector_120" d="M108.587 220.673C109.15 220.673 109.712 220.683 110.268 220.693C110.268 221.085 110.268 221.476 110.262 221.867L108.594 221.928C108.594 221.506 108.594 221.095 108.594 220.673H108.587Z" fill="#FFC502"/>
<path id="Vector_121" d="M68.2163 241.986V239.528C69.206 240.351 69.206 241.163 68.2163 241.986Z" fill="#FFC502"/>
<path id="Vector_122" d="M74.8748 244.353C74.6172 244.444 74.3596 244.524 74.102 244.624C73.641 244.795 73.3834 244.373 73.1326 243.912C73.4512 243.641 73.7562 243.28 74.0952 243.129C74.3257 243.029 74.6104 243.219 74.868 243.29C74.8341 243.651 74.8341 244.002 74.868 244.363L74.8748 244.353Z" fill="#FFC502"/>
<path id="Vector_123" d="M18.5005 244.505C19.0564 244.535 19.6122 244.575 20.1681 244.605C19.897 245.047 19.6326 245.488 19.3614 245.92C18.9072 245.669 18.6022 245.227 18.5005 244.505Z" fill="#FFC502"/>
<path id="Vector_124" d="M171.725 262.094C172.288 262.094 172.844 262.094 173.4 262.094C173.4 262.496 173.4 262.887 173.4 263.278C172.844 263.288 172.281 263.298 171.725 263.308C171.725 262.897 171.725 262.485 171.725 262.084V262.094Z" fill="#FFC502"/>
<path id="Vector_125" d="M310.613 265.847C310.634 265.024 310.661 264.192 310.681 263.369C310.891 263.389 311.101 263.399 311.312 263.389C311.359 264.202 311.413 265.024 311.461 265.837C311.176 265.837 310.898 265.837 310.613 265.857V265.847Z" fill="#FFC502"/>
<path id="Vector_126" d="M269.405 602.035C269.378 602.868 269.357 603.701 269.33 604.534C268.388 603.641 268.273 602.798 269.405 602.035Z" fill="#FFC502"/>
<path id="Vector_127" d="M259.147 602.877C258.632 602.998 258.123 603.118 257.608 603.228C257.595 602.867 257.588 602.496 257.608 602.135C258.137 602.275 258.659 602.406 259.188 602.546L259.147 602.867V602.877Z" fill="#FFC502"/>
<path id="Vector_128" d="M61.791 270.654C61.6826 270.303 61.5741 269.942 61.4656 269.591C61.2419 268.898 61.547 268.316 61.8724 268.316C62.191 268.316 62.496 268.888 62.2588 269.58C62.1368 269.932 62.0419 270.293 61.9334 270.644H61.791V270.654Z" fill="#FFC502"/>
<path id="Vector_129" d="M171.991 271.859C171.903 271.107 171.814 270.364 171.726 269.612C172.004 269.571 172.275 269.612 172.547 269.742C172.567 270.565 172.404 271.287 171.991 271.859Z" fill="#FFC502"/>
<path id="Vector_130" d="M85.022 273.393C85.5778 273.403 86.1269 273.424 86.6828 273.434C86.6828 273.775 86.676 274.126 86.676 274.467C86.1269 274.487 85.5778 274.507 85.0355 274.527C85.0152 274.156 85.0152 273.775 85.0287 273.403L85.022 273.393Z" fill="#FFC502"/>
<path id="Vector_131" d="M337.58 275.881C336.747 275.47 336.767 274.436 336.767 273.413L336.753 273.433C336.997 273.433 337.235 273.423 337.479 273.403C337.513 274.226 337.547 275.059 337.58 275.881Z" fill="#FFC502"/>
<path id="Vector_132" d="M367.041 274.677C367.597 274.667 368.153 274.657 368.709 274.647C368.722 275.059 368.722 275.47 368.709 275.881C368.153 275.851 367.597 275.821 367.034 275.801C367.034 275.43 367.034 275.059 367.034 274.687L367.041 274.677Z" fill="#FFC502"/>
<path id="Vector_133" d="M202.055 279.625C202.048 278.792 202.035 277.969 202.028 277.136C203.099 277.939 203.092 278.772 202.055 279.625Z" fill="#FFC502"/>
<path id="Vector_134" d="M202.807 283.167C201.906 282.906 201.879 281.943 201.987 280.879C202.963 281.09 202.821 282.184 202.807 283.167Z" fill="#FFC502"/>
<path id="Vector_135" d="M72.3926 285.915C71.3351 285.092 71.3622 284.25 72.379 283.407C72.379 284.24 72.3858 285.082 72.3926 285.915Z" fill="#FFC502"/>
<path id="Vector_136" d="M0.00039056 284.692C0.840984 285.083 0.834205 286.086 0.773194 287.12C0.06818 286.628 -0.00638842 285.695 0.00039056 284.692Z" fill="#FFC502"/>
<path id="Vector_137" d="M219.015 308.403C218.995 307.69 218.561 306.446 219.131 306.406C220.202 306.325 219.456 307.68 219.544 308.403H219.28H219.015Z" fill="#FFC502"/>
<path id="Vector_138" d="M111.175 313.47C111.155 312.647 111.141 311.824 111.121 311.012C112.287 311.774 112.11 312.607 111.175 313.47Z" fill="#FFC502"/>
<path id="Vector_139" d="M180.172 322.401C180.728 322.371 181.277 322.33 181.833 322.3C181.833 322.722 181.833 323.143 181.833 323.565C181.277 323.535 180.721 323.514 180.165 323.474C180.165 323.113 180.165 322.752 180.172 322.401Z" fill="#FFC502"/>
<path id="Vector_140" d="M6.7251 337.351C7.28097 337.361 7.84363 337.372 8.39951 337.392C8.39951 337.773 8.39951 338.144 8.39273 338.515C7.83686 338.556 7.28097 338.596 6.7251 338.636C6.7251 338.204 6.7251 337.773 6.7251 337.351Z" fill="#FFC502"/>
<path id="Vector_141" d="M88.3848 339.86C88.3848 339.027 88.3848 338.194 88.3916 337.361C88.6559 337.361 88.9271 337.361 89.1915 337.361C89.205 338.194 89.2254 339.027 89.2389 339.87C88.9542 339.87 88.6695 339.87 88.3848 339.87V339.86Z" fill="#FFC502"/>
<path id="Vector_142" d="M213.125 344.075C213.634 343.935 214.142 343.794 214.65 343.664C214.65 344.025 214.644 344.376 214.637 344.737C214.115 344.607 213.586 344.486 213.064 344.356L213.125 344.075Z" fill="#FFC502"/>
<path id="Vector_143" d="M6.6918 349.885C5.62072 349.102 5.76986 348.269 6.64435 347.417C6.6579 348.239 6.67824 349.062 6.6918 349.885Z" fill="#FFC502"/>
<path id="Vector_144" d="M271.911 349.924L273.586 349.893C273.586 350.315 273.586 350.736 273.586 351.158C273.023 351.148 272.467 351.138 271.905 351.128C271.905 350.726 271.905 350.325 271.905 349.924H271.911Z" fill="#FFC502"/>
<path id="Vector_145" d="M273.56 354.93C273.587 354.157 273.607 353.375 273.634 352.602C274.536 353.435 274.705 354.228 273.56 354.93Z" fill="#FFC502"/>
<path id="Vector_146" d="M3.44478 359.888C3.4041 359.065 3.36343 358.232 3.32275 357.409L4.18368 357.429C4.14301 358.242 4.09556 359.065 4.05489 359.878L3.74983 359.858L3.438 359.878L3.44478 359.888Z" fill="#FFC502"/>
<path id="Vector_147" d="M275.302 362.447C274.089 361.754 274.374 360.891 275.167 359.958C275.214 360.791 275.255 361.614 275.302 362.447Z" fill="#FFC502"/>
<path id="Vector_148" d="M216.359 362.508C216.867 362.418 217.626 362.337 217.599 363.18C217.579 363.873 216.772 363.822 216.257 363.732C216.318 363.331 216.352 362.919 216.365 362.508H216.359Z" fill="#FFC502"/>
<path id="Vector_149" d="M222.229 367.465C221.212 366.702 221.327 365.859 222.161 364.986C222.181 365.809 222.208 366.642 222.229 367.465Z" fill="#FFC502"/>
<path id="Vector_150" d="M266.007 364.946C266.563 364.956 267.126 364.966 267.682 364.976C267.682 365.347 267.682 365.718 267.668 366.09C267.112 366.14 266.556 366.2 266 366.25C266 365.819 266 365.377 266 364.946H266.007Z" fill="#FFC502"/>
<path id="Vector_151" d="M54.2389 371.025C54.1237 370.263 54.0084 369.5 53.9 368.748L53.8796 368.768L54.2932 368.718H54.7135C54.8829 369.631 54.5575 370.343 54.3067 371.086L54.2389 371.025Z" fill="#FFC502"/>
<path id="Vector_152" d="M59.709 386.328C59.7294 387.161 59.7497 388.004 59.77 388.837C58.8481 388.044 58.8074 387.211 59.709 386.328Z" fill="#FFC502"/>
<path id="Vector_153" d="M266.062 386.5C267.038 387.313 267.078 388.086 266.007 388.788C266.028 388.026 266.048 387.263 266.062 386.5Z" fill="#FFC502"/>
<path id="Vector_154" d="M35.3468 388.807C35.3672 389.219 35.3672 389.62 35.3468 390.032C34.791 390.001 34.2351 389.961 33.6792 389.931C33.9571 389.51 34.2419 389.098 34.5198 388.677C34.791 388.727 35.0689 388.767 35.3401 388.817L35.3468 388.807Z" fill="#FFC502"/>
<path id="Vector_155" d="M167.048 396.112C166.865 395.208 166.133 394.065 167.503 393.854L167.482 393.824C167.36 394.606 167.231 395.379 167.109 396.162L167.048 396.112Z" fill="#FFC502"/>
<path id="Vector_156" d="M49.6967 395.189L51.3372 395.089C51.3711 395.49 51.3711 395.902 51.3372 396.303C50.7881 396.243 50.239 396.182 49.6831 396.122C49.6899 395.811 49.6899 395.5 49.6831 395.189H49.6967Z" fill="#FFC502"/>
<path id="Vector_157" d="M206.332 397.406C206.305 396.624 206.278 395.851 206.258 395.068C206.556 395.058 206.847 395.048 207.146 395.038C207.349 396.182 207.335 397.165 206.339 397.406H206.332Z" fill="#FFC502"/>
<path id="Vector_158" d="M299.686 395.079C300.242 395.079 300.798 395.089 301.354 395.099C301.354 395.481 301.361 395.862 301.354 396.253C300.798 396.283 300.236 396.313 299.673 396.344C299.673 395.922 299.673 395.501 299.68 395.089L299.686 395.079Z" fill="#FFC502"/>
<path id="Vector_159" d="M117.053 396.474C117.603 396.414 118.152 396.353 118.694 396.293C118.694 396.715 118.694 397.146 118.694 397.568C118.145 397.497 117.596 397.417 117.047 397.347C117.067 397.056 117.067 396.765 117.053 396.464V396.474Z" fill="#FFC502"/>
<path id="Vector_160" d="M6.71139 398.76C7.26726 398.83 7.81636 398.89 8.36546 398.961C8.3519 399.262 8.3519 399.563 8.36546 399.864C7.81636 399.944 7.26727 400.024 6.71817 400.105L6.70461 400.084C6.69783 399.663 6.68427 399.232 6.67749 398.81L6.70461 398.76H6.71139Z" fill="#FFC502"/>
<path id="Vector_161" d="M13.4833 398.811C13.4697 399.634 13.4494 400.457 13.4358 401.279C12.5478 400.918 12.5207 399.925 12.6359 398.831C12.9206 398.831 13.2054 398.821 13.4833 398.811Z" fill="#FFC502"/>
<path id="Vector_162" d="M348.439 400.056C349.016 400.096 349.585 400.136 350.161 400.176C350.155 400.507 350.155 400.839 350.161 401.17C349.612 401.21 349.063 401.24 348.514 401.28C348.494 400.879 348.473 400.467 348.439 400.056Z" fill="#FFC502"/>
<path id="Vector_163" d="M88.3448 407.591C87.4567 406.738 87.4093 405.905 88.3719 405.102C88.3651 405.935 88.3515 406.768 88.3448 407.591Z" fill="#FFC502"/>
<path id="Vector_164" d="M195.296 405.093C195.262 405.956 195.228 406.819 195.194 407.682C194.977 407.642 194.767 407.642 194.55 407.682C194.516 406.819 194.482 405.956 194.448 405.093C194.733 405.093 195.011 405.093 195.296 405.093Z" fill="#FFC502"/>
<path id="Vector_165" d="M74.0679 410.121C74.0882 409.298 74.1018 408.465 74.1289 407.642C74.3594 407.642 74.5899 407.642 74.8203 407.642C74.8542 408.465 74.8949 409.288 74.9288 410.121C74.6441 410.121 74.3526 410.121 74.0679 410.121Z" fill="#FFC502"/>
<path id="Vector_166" d="M267.702 410.11C267.702 409.277 267.709 408.454 267.716 407.622C267.967 407.622 268.211 407.622 268.461 407.622L268.495 410.09H268.102H267.709L267.702 410.11Z" fill="#FFC502"/>
<path id="Vector_167" d="M362.818 411.364C363.381 411.364 363.936 411.384 364.499 411.394C364.499 411.796 364.499 412.187 364.499 412.588C363.943 412.588 363.381 412.608 362.825 412.608C362.818 412.197 362.818 411.775 362.825 411.364H362.818Z" fill="#FFC502"/>
<path id="Vector_168" d="M100.181 418.939C100.716 419 101.252 419.06 101.787 419.13C101.787 419.431 101.801 419.732 101.835 420.033C101.272 420.123 100.716 420.214 100.16 420.294C100.16 419.843 100.174 419.391 100.181 418.939Z" fill="#FFC502"/>
<path id="Vector_169" d="M111.128 579.459C111.067 580.251 111.013 581.044 110.952 581.837C110.294 580.924 110.043 580.081 111.128 579.459Z" fill="#FFC502"/>
<path id="Vector_170" d="M164.322 447.629C164.261 446.826 164.2 446.033 164.139 445.23H164.146C164.431 445.23 164.716 445.23 164.994 445.22H165C164.933 446.043 164.858 446.856 164.79 447.669L164.56 447.618H164.322V447.629Z" fill="#FFC502"/>
<path id="Vector_171" d="M96.8047 449.022C97.3673 449.022 97.9232 449.012 98.4791 449.002C98.4791 449.403 98.4791 449.815 98.4791 450.216C97.9232 450.206 97.3673 450.186 96.8115 450.176C96.8115 449.795 96.8047 449.403 96.8115 449.012L96.8047 449.022Z" fill="#FFC502"/>
<path id="Vector_172" d="M351.124 456.438C351.415 455.314 352.012 455.124 352.723 455.254C352.723 455.716 352.737 456.177 352.744 456.639C352.181 456.558 351.625 456.488 351.062 456.408L351.124 456.438Z" fill="#FFC502"/>
<path id="Vector_173" d="M150.683 575.715C150.134 575.655 149.592 575.595 149.043 575.535C149.063 575.244 149.063 574.963 149.036 574.672C149.585 574.581 150.141 574.491 150.69 574.401L150.711 574.441C150.711 574.862 150.697 575.294 150.69 575.715H150.683Z" fill="#FFC502"/>
<path id="Vector_174" d="M62.2582 460.281C61.3566 459.418 61.3024 458.585 62.2921 457.782C62.2786 458.615 62.2718 459.448 62.2582 460.281Z" fill="#FFC502"/>
<path id="Vector_175" d="M55.5272 574.38C54.9714 574.42 54.4155 574.45 53.8596 574.49C54.368 572.905 54.9307 573.035 55.5272 574.38Z" fill="#FFC502"/>
<path id="Vector_176" d="M47.8134 573.909C47.427 574.019 47.0203 574.29 46.661 574.189C46.2611 574.069 46.2678 573.457 46.6746 573.367C47.0339 573.286 47.4338 573.597 47.8134 573.728V573.898V573.909Z" fill="#FFC502"/>
<path id="Vector_177" d="M80.9485 470.205C80.8943 469.402 80.8333 468.599 80.7791 467.796L80.7994 467.776C81.0841 467.796 81.362 467.806 81.6468 467.826C81.6874 468.8 81.5925 469.683 80.9485 470.194V470.205Z" fill="#FFC502"/>
<path id="Vector_178" d="M75.7691 469.131C76.3182 469.141 76.8673 469.151 77.4164 469.161C77.4232 469.502 77.4232 469.854 77.4164 470.195C76.8673 470.215 76.3114 470.235 75.7623 470.265C75.742 469.884 75.7488 469.512 75.7623 469.131H75.7691Z" fill="#FFC502"/>
<path id="Vector_179" d="M250.002 469.04C250.524 469.1 251.053 469.151 251.575 469.211C251.277 470.274 250.68 470.475 249.996 470.415C249.996 469.953 249.996 469.492 250.002 469.04Z" fill="#FFC502"/>
<path id="Vector_180" d="M70.7461 479.256C71.2545 479.146 72.068 479.015 72.0612 479.758C72.0544 480.521 71.2545 480.35 70.7461 480.219C70.7461 479.898 70.7461 479.567 70.7461 479.246V479.256Z" fill="#FFC502"/>
<path id="Vector_181" d="M112.904 487.795C112.85 486.983 112.796 486.17 112.742 485.357C113.84 486.019 113.704 486.862 112.904 487.795Z" fill="#FFC502"/>
<path id="Vector_182" d="M253.365 490.414C253.392 489.591 253.413 488.768 253.44 487.946C254.301 488.829 254.355 489.651 253.365 490.414Z" fill="#FFC502"/>
<path id="Vector_183" d="M132.882 497.889C132.156 496.946 131.777 496.042 133.058 495.41C132.997 496.233 132.943 497.066 132.882 497.889Z" fill="#FFC502"/>
<path id="Vector_184" d="M197.946 502.114C198.59 501.732 199.329 500.97 199.444 502.886L199.478 502.846C198.956 502.706 198.441 502.555 197.919 502.415L197.946 502.124V502.114Z" fill="#FFC502"/>
<path id="Vector_185" d="M333.37 514.295C333.926 514.275 334.482 514.255 335.038 514.245C334.502 515.71 333.946 515.68 333.37 514.295Z" fill="#FFC502"/>
<path id="Vector_186" d="M194.577 518.429C194.835 518.319 195.093 518.229 195.343 518.098C195.852 517.847 196.048 518.209 195.967 518.891C195.906 519.403 195.642 519.453 195.33 519.212C195.099 519.031 194.828 518.961 194.571 518.841V518.439L194.577 518.429Z" fill="#FFC502"/>
<path id="Vector_187" d="M140.589 520.526C140.874 520.506 141.159 520.496 141.443 520.476C141.518 520.907 141.586 521.349 141.66 521.78C141.301 522.151 140.942 522.533 140.583 522.904C140.583 522.111 140.583 521.318 140.589 520.526Z" fill="#FFC502"/>
<path id="Vector_188" d="M318.959 548.161C319.04 548.954 319.108 550.218 318.62 550.218C318.138 550.218 318.206 548.954 318.288 548.161C318.511 548.151 318.735 548.151 318.959 548.161Z" fill="#FFC502"/>
<path id="Vector_189" d="M315.684 553.149C316.104 553.259 316.768 552.778 316.741 553.962C316.741 554.112 316.057 554.223 315.684 554.353C315.663 553.952 315.663 553.55 315.684 553.149Z" fill="#FFC502"/>
<path id="Vector_190" d="M240.709 560.676C240.75 559.853 240.797 559.03 240.838 558.207C241.665 559.13 241.895 559.983 240.709 560.676Z" fill="#FFC502"/>
<path id="Vector_191" d="M290.494 560.614C290.48 559.801 290.466 558.978 290.453 558.165C290.717 558.135 290.982 558.135 291.253 558.165C291.253 558.988 291.253 559.811 291.253 560.634H290.873H290.494V560.614Z" fill="#FFC502"/>
<path id="Vector_192" d="M169.462 566.755C169.373 565.982 169.292 565.209 169.211 564.437C170.499 564.617 169.861 565.811 169.753 566.735L169.468 566.755H169.462Z" fill="#FFC502"/>
<path id="Vector_193" d="M248.335 746.317C248.314 747.15 248.301 747.973 248.28 748.806C248.05 748.806 247.813 748.806 247.582 748.806C247.555 747.983 247.528 747.16 247.501 746.337C247.779 746.307 248.057 746.307 248.335 746.337V746.317Z" fill="#FFC502"/>
<path id="Vector_194" d="M154.887 743.809C154.846 744.622 154.812 745.435 154.772 746.237C154.568 746.237 154.365 746.237 154.161 746.267C154.114 745.445 154.073 744.622 154.026 743.799C154.311 743.799 154.595 743.799 154.887 743.799V743.809Z" fill="#FFC502"/>
<path id="Vector_195" d="M146.467 712.451C146.433 713.264 146.393 714.077 146.359 714.88C146.162 714.88 145.959 714.88 145.762 714.91L145.613 712.451L145.627 712.431C145.911 712.441 146.189 712.451 146.474 712.462L146.467 712.451Z" fill="#FFC502"/>
<path id="Vector_196" d="M131.302 701.243C130.712 702.477 130.149 702.658 129.634 701.133C130.19 701.163 130.746 701.203 131.302 701.243Z" fill="#FFC502"/>
<path id="Vector_197" d="M152.392 696.125C152.325 696.928 152.257 697.721 152.182 698.523H151.938L151.701 698.574C151.626 697.761 151.552 696.948 151.477 696.125C151.782 696.125 152.087 696.125 152.392 696.125Z" fill="#FFC502"/>
<path id="Vector_198" d="M182.443 693.798C182.511 694.571 182.579 695.354 182.654 696.126C182.409 696.126 182.165 696.116 181.921 696.106C181.982 695.314 182.05 694.531 182.111 693.738L182.443 693.798Z" fill="#FFC502"/>
<path id="Vector_199" d="M111.095 692.433C110.518 693.758 109.963 693.808 109.427 692.373C109.983 692.393 110.539 692.413 111.095 692.433Z" fill="#FFC502"/>
<path id="Vector_200" d="M195.309 691.17C196.543 691.27 196.211 692.504 196.095 693.578L196.123 693.548C195.858 693.548 195.601 693.508 195.35 693.407C195.336 692.665 195.323 691.912 195.309 691.17Z" fill="#FFC502"/>
<path id="Vector_201" d="M40.2545 684.948C40.3223 685.761 40.3833 686.574 40.4511 687.387C40.1461 687.387 39.8478 687.376 39.5427 687.366C39.6105 686.554 39.6715 685.741 39.7325 684.928C39.902 684.978 40.0715 684.988 40.2477 684.958L40.2545 684.948Z" fill="#FFC502"/>
<path id="Vector_202" d="M10.0812 678.526C9.52531 678.526 8.96943 678.546 8.42034 678.556C8.40678 678.164 8.40678 677.773 8.42712 677.392C8.97622 677.402 9.52531 677.412 10.0676 677.422C10.0812 677.793 10.0812 678.154 10.0812 678.526Z" fill="#FFC502"/>
<path id="Vector_203" d="M218.811 666.085C218.737 666.848 218.662 667.6 218.588 668.363L218.296 668.433C218.195 667.63 218.093 666.828 217.991 666.025L218.012 666.005C218.289 666.015 218.561 666.055 218.832 666.115L218.805 666.085H218.811Z" fill="#FFC502"/>
<path id="Vector_204" d="M50.2868 664.929C50.3546 665.712 50.4156 666.495 50.4834 667.267H50.0902H49.697C49.7445 666.454 49.7987 665.652 49.8462 664.839C49.9817 664.939 50.1309 664.969 50.28 664.929H50.2868Z" fill="#FFC502"/>
<path id="Vector_205" d="M54.6055 656.089C54.653 656.902 54.7004 657.715 54.7479 658.518C53.6565 657.845 53.8124 657.003 54.6055 656.089Z" fill="#FFC502"/>
<path id="Vector_206" d="M142.278 654.805C143.492 654.915 143.295 656.069 143.085 657.233C142.197 656.882 142.265 655.818 142.278 654.805Z" fill="#FFC502"/>
<path id="Vector_207" d="M166.702 0C166.905 0.120411 167.263 0.190652 167.29 0.361234C167.398 1.06363 167.033 1.10376 166.689 1.09373C166.682 0.732497 166.689 0.361233 166.702 0Z" fill="#FFC502"/>
<path id="Vector_208" d="M242.43 14.9205C242.999 14.9306 243.291 15.362 243.297 16.215C242.789 16.1146 242.497 15.6831 242.43 14.9205Z" fill="#FFC502"/>
<path id="Vector_209" d="M202.868 23.71C202.502 23.7401 202.123 23.71 202.231 22.9675C202.258 22.7869 202.631 22.7066 202.848 22.5862C202.861 22.9574 202.868 23.3388 202.868 23.71Z" fill="#FFC502"/>
<path id="Vector_210" d="M265.146 32.521C265.173 33.3739 264.909 33.7954 264.333 33.7552C264.373 33.0026 264.644 32.5912 265.146 32.521Z" fill="#FFC502"/>
<path id="Vector_211" d="M103.562 36.3852C103.82 36.2849 104.084 36.2548 104.349 36.305C104.335 37.0876 104.084 37.5191 103.535 37.489C103.528 37.1177 103.535 36.7465 103.556 36.3852H103.562Z" fill="#FFC502"/>
<path id="Vector_212" d="M243.258 58.77C242.926 58.7399 242.519 58.77 242.634 58.0375C242.662 57.8569 243.041 57.7967 243.258 57.6863C243.278 58.0475 243.278 58.4087 243.258 58.77Z" fill="#FFC502"/>
<path id="Vector_213" d="M229.8 65.0816C230.424 65.0113 230.702 65.4629 230.661 66.376C230.132 66.3057 229.848 65.8642 229.8 65.0816Z" fill="#FFC502"/>
<path id="Vector_214" d="M106.904 66.3762C106.809 67.0686 106.531 67.47 106.07 67.6104C106.172 66.9382 106.457 66.5267 106.904 66.3762Z" fill="#FFC502"/>
<path id="Vector_215" d="M133.004 66.3859C133.39 66.3659 133.817 66.3659 133.702 67.1786C133.675 67.3693 133.254 67.4395 133.017 67.5599C133.01 67.1686 133.004 66.7773 133.004 66.3859Z" fill="#FFC502"/>
<path id="Vector_216" d="M203.729 81.4985C203.959 81.6189 204.359 81.6792 204.386 81.8598C204.502 82.6324 204.088 82.6324 203.722 82.6424C203.709 82.2611 203.709 81.8798 203.722 81.4985H203.729Z" fill="#FFC502"/>
<path id="Vector_217" d="M16.8328 91.4818C17.287 91.6323 17.5649 92.0437 17.6666 92.7261C17.2192 92.5655 16.9412 92.1541 16.8328 91.4818Z" fill="#FFC502"/>
<path id="Vector_218" d="M11.7598 105.198C11.0372 104.817 11.0507 104.445 11.7598 104.074C11.7666 104.445 11.7666 104.827 11.7598 105.198Z" fill="#FFC502"/>
<path id="Vector_219" d="M149.842 129.1C149.842 128.689 149.836 128.267 149.842 127.856C150.12 127.846 150.405 127.846 150.683 127.856C150.683 128.247 150.683 128.628 150.669 129.02C150.398 129.08 150.127 129.09 149.856 129.06V129.11L149.842 129.1Z" fill="#FFC502"/>
<path id="Vector_220" d="M5.86204 152.862C5.65944 152.681 5.46359 152.501 5.26099 152.31C5.46359 152.129 5.65944 151.949 5.86204 151.758C5.87555 152.119 5.87555 152.491 5.86204 152.852V152.862Z" fill="#FFC502"/>
<path id="Vector_221" d="M266.014 152.983C265.715 152.983 265.417 152.983 265.126 152.983C265.105 152.08 265.404 151.688 265.993 151.749C265.993 152.16 266.007 152.561 266.021 152.973L266.014 152.983Z" fill="#FFC502"/>
<path id="Vector_222" d="M131.337 154.216C131.608 154.196 131.872 154.216 132.137 154.276C132.15 154.647 132.157 155.018 132.143 155.39C131.676 155.299 131.411 154.898 131.33 154.206L131.337 154.216Z" fill="#FFC502"/>
<path id="Vector_223" d="M69.8786 163.036C70.1158 163.157 70.5294 163.217 70.5565 163.398C70.6785 164.2 70.2446 164.18 69.8786 164.19C69.865 163.809 69.865 163.428 69.8786 163.036Z" fill="#FFC502"/>
<path id="Vector_224" d="M24.4657 166.769C24.7233 166.739 24.9877 166.719 25.2521 166.729C25.2724 167.602 24.9877 168.013 24.4047 167.983C24.3911 167.572 24.4115 167.17 24.4657 166.769Z" fill="#FFC502"/>
<path id="Vector_225" d="M122.069 173.06C122.523 173.18 122.788 173.572 122.869 174.254C122.435 174.104 122.171 173.702 122.069 173.06Z" fill="#FFC502"/>
<path id="Vector_226" d="M30.2808 189.247C29.9567 189.236 29.592 189.206 29.7 188.524C29.727 188.353 30.0782 188.283 30.2741 188.173C30.2943 188.524 30.2943 188.885 30.2808 189.237V189.247Z" fill="#FFC502"/>
<path id="Vector_227" d="M47.9538 206.895C47.9402 207.688 47.6826 208.129 47.1335 208.149C47.1946 207.427 47.4657 207.006 47.9538 206.895Z" fill="#FFC502"/>
<path id="Vector_228" d="M247.486 211.894L246.829 211.372L247.453 210.79C247.473 211.161 247.48 211.533 247.486 211.894Z" fill="#FFC502"/>
<path id="Vector_229" d="M103.521 229.393C103.203 229.393 102.859 229.343 102.953 228.701C102.98 228.53 103.311 228.46 103.5 228.339C103.521 228.691 103.527 229.042 103.514 229.393H103.521Z" fill="#FFC502"/>
<path id="Vector_230" d="M175.936 229.462C175.936 229.041 175.936 228.63 175.936 228.208C176.214 228.208 176.498 228.208 176.776 228.208C176.776 228.61 176.776 229.001 176.77 229.392C176.492 229.462 176.221 229.472 175.943 229.452L175.936 229.462Z" fill="#FFC502"/>
<path id="Vector_231" d="M239.879 230.598C239.677 230.478 239.325 230.407 239.298 230.227C239.197 229.534 239.548 229.474 239.9 229.504C239.9 229.876 239.9 230.237 239.879 230.608V230.598Z" fill="#FFC502"/>
<path id="Vector_232" d="M157.435 244.506C157.401 243.643 157.672 243.211 158.262 243.251C158.262 243.673 158.235 244.074 158.154 244.465C157.91 244.496 157.672 244.506 157.428 244.496L157.435 244.506Z" fill="#FFC502"/>
<path id="Vector_233" d="M236.546 245.789C237.021 245.909 237.306 246.321 237.387 247.033C236.94 246.863 236.655 246.461 236.546 245.789Z" fill="#FFC502"/>
<path id="Vector_234" d="M21.8629 254.499C21.646 254.318 21.4291 254.137 21.2122 253.957C21.4291 253.776 21.6392 253.585 21.8494 253.405C21.8629 253.766 21.8697 254.137 21.8562 254.499H21.8629Z" fill="#FFC502"/>
<path id="Vector_235" d="M209.613 253.324C210.149 253.344 210.42 253.756 210.44 254.549C210.169 254.549 209.898 254.508 209.627 254.408C209.613 254.047 209.606 253.686 209.606 253.314L209.613 253.324Z" fill="#FFC502"/>
<path id="Vector_236" d="M258.347 257.109C258.272 257.4 258.232 257.921 258.123 257.952C257.676 258.102 257.689 257.55 257.669 257.099C257.899 257.069 258.123 257.069 258.354 257.099L258.347 257.109Z" fill="#FFC502"/>
<path id="Vector_237" d="M338.393 257.066C338.373 257.869 338.102 258.321 337.552 258.351C337.627 257.628 337.905 257.187 338.393 257.066Z" fill="#FFC502"/>
<path id="Vector_238" d="M71.5532 260.85C71.8583 261.061 72.1633 261.261 72.4752 261.472C72.2582 261.974 71.9532 262.174 71.56 262.044C71.56 261.643 71.5532 261.251 71.56 260.85H71.5532Z" fill="#FFC502"/>
<path id="Vector_239" d="M263.505 268.336C263.505 267.523 263.743 267.042 264.332 267.082C264.326 267.463 264.312 267.844 264.298 268.226C264.034 268.356 263.77 268.386 263.492 268.306L263.505 268.336Z" fill="#FFC502"/>
<path id="Vector_240" d="M158.27 272.188C158.607 272.188 158.945 272.268 158.83 272.92C158.803 273.101 158.466 273.161 158.276 273.282C158.256 272.92 158.256 272.559 158.276 272.198L158.27 272.188Z" fill="#FFC502"/>
<path id="Vector_241" d="M203.743 278.522C203.946 278.642 204.304 278.712 204.331 278.893C204.432 279.595 204.054 279.595 203.723 279.605C203.723 279.244 203.723 278.883 203.743 278.532V278.522Z" fill="#FFC502"/>
<path id="Vector_242" d="M136.379 280.95C136.61 281.07 137.023 281.14 137.05 281.331C137.172 282.124 136.752 282.144 136.372 282.144C136.372 281.742 136.372 281.351 136.379 280.95Z" fill="#FFC502"/>
<path id="Vector_243" d="M223.931 285.986C224.283 285.986 224.69 285.986 224.575 286.739C224.547 286.92 224.154 286.98 223.931 287.09C223.91 286.719 223.91 286.358 223.931 285.986Z" fill="#FFC502"/>
<path id="Vector_244" d="M281.98 317.173C281.769 317.062 281.397 317.002 281.369 316.832C281.261 316.109 281.654 316.129 281.98 316.109C282 316.46 282 316.822 281.98 317.173Z" fill="#FFC502"/>
<path id="Vector_245" d="M22.751 324.698C22.7239 324.317 22.7171 323.945 22.7307 323.564C23.3204 323.524 23.6323 323.905 23.5848 324.818C23.3069 324.818 23.0289 324.788 22.751 324.698Z" fill="#FFC502"/>
<path id="Vector_246" d="M98.4992 329.847C98.7704 329.827 99.0348 329.847 99.2991 329.937C99.3195 330.288 99.3195 330.649 99.2991 331.001C98.8178 330.95 98.5467 330.569 98.4924 329.857L98.4992 329.847Z" fill="#FFC502"/>
<path id="Vector_247" d="M148.941 341.144C148.927 341.646 148.947 342.258 148.446 342.097C148.331 342.057 148.29 341.485 148.215 341.154C148.459 341.124 148.697 341.124 148.941 341.154V341.144Z" fill="#FFC502"/>
<path id="Vector_248" d="M297.151 344.886C297.131 345.679 296.853 346.101 296.317 346.131C296.392 345.418 296.67 344.997 297.151 344.886Z" fill="#FFC502"/>
<path id="Vector_249" d="M299.692 349.914C299.963 349.884 300.234 349.914 300.498 349.994C300.512 350.386 300.525 350.777 300.525 351.158C299.976 351.138 299.719 350.697 299.692 349.904V349.914Z" fill="#FFC502"/>
<path id="Vector_250" d="M42.0852 362.458C42.553 362.569 42.8106 362.99 42.8919 363.672H42.9122C42.6411 363.693 42.3631 363.672 42.092 363.622C42.092 363.231 42.0852 362.85 42.0852 362.458Z" fill="#FFC502"/>
<path id="Vector_251" d="M163.32 370.023C163.659 370.053 164.066 370.023 163.957 370.766C163.93 370.946 163.55 371.006 163.327 371.127C163.313 370.756 163.306 370.394 163.313 370.023H163.32Z" fill="#FFC502"/>
<path id="Vector_252" d="M186.897 382.586C187.168 382.526 187.432 382.516 187.704 382.536C187.615 383.208 187.358 383.63 186.89 383.73C186.89 383.349 186.89 382.968 186.897 382.586Z" fill="#FFC502"/>
<path id="Vector_253" d="M106.904 393.803C106.904 393.382 106.904 392.971 106.904 392.549C107.182 392.549 107.467 392.549 107.745 392.549V393.803H107.325H106.904Z" fill="#FFC502"/>
<path id="Vector_254" d="M327.486 398.941C327.703 399.062 328.076 399.122 328.096 399.303C328.198 400.035 327.811 400.035 327.466 400.025C327.459 399.664 327.466 399.303 327.479 398.941H327.486Z" fill="#FFC502"/>
<path id="Vector_255" d="M13.4404 427.599C13.123 427.568 12.7313 427.589 12.8394 426.886C12.8664 426.706 13.2243 426.645 13.4337 426.535C13.4539 426.896 13.4539 427.247 13.4337 427.609L13.4404 427.599Z" fill="#FFC502"/>
<path id="Vector_256" d="M393.969 441.477C394.531 441.447 394.769 441.898 394.755 442.701C394.267 442.621 394.009 442.199 393.969 441.477Z" fill="#FFC502"/>
<path id="Vector_257" d="M69.891 444.096C70.2909 444.106 70.6705 444.236 70.5078 444.989C70.4672 445.179 70.074 445.209 69.8435 445.31C69.8638 444.908 69.8774 444.497 69.8842 444.096H69.891Z" fill="#FFC502"/>
<path id="Vector_258" d="M341.824 446.524C342.041 446.734 342.265 446.945 342.482 447.156C342.251 447.346 342.027 447.537 341.797 447.728C341.777 447.326 341.783 446.925 341.824 446.524Z" fill="#FFC502"/>
<path id="Vector_259" d="M69.918 452.734C70.1891 451.54 70.4467 451.671 70.6975 452.755C70.4399 452.755 70.1823 452.755 69.918 452.734Z" fill="#FFC502"/>
<path id="Vector_260" d="M191.066 452.696C191.615 452.766 191.873 453.228 191.913 454.02C191.425 453.87 191.161 453.408 191.066 452.696Z" fill="#FFC502"/>
<path id="Vector_261" d="M218.832 456.408C218.459 456.388 218.086 456.268 218.242 455.545C218.283 455.355 218.656 455.325 218.879 455.224C218.859 455.616 218.846 456.017 218.839 456.408H218.832Z" fill="#FFC502"/>
<path id="Vector_262" d="M49.6697 476.617C49.9408 476.587 50.212 476.617 50.4764 476.698C50.4967 477.079 50.5035 477.46 50.4967 477.832C49.9273 477.872 49.6561 477.46 49.6697 476.607V476.617Z" fill="#FFC502"/>
<path id="Vector_263" d="M6.72538 481.613C7.30159 481.593 7.58631 482.015 7.57275 482.877C7.30837 482.888 7.04399 482.857 6.77961 482.777L6.79317 482.797C6.73894 482.406 6.7186 482.015 6.72538 481.613Z" fill="#FFC502"/>
<path id="Vector_264" d="M50.51 487.916C50.7059 488.097 50.9085 488.278 51.1043 488.458C50.9152 488.649 50.7194 488.84 50.5303 489.03C50.5168 488.659 50.51 488.288 50.51 487.916Z" fill="#FFC502"/>
<path id="Vector_265" d="M34.5253 490.484C34.7965 490.414 35.0608 490.384 35.332 490.424C35.2642 491.126 35.0066 491.528 34.5253 491.578C34.5117 491.217 34.5117 490.855 34.5253 490.484Z" fill="#FFC502"/>
<path id="Vector_266" d="M108.606 707.425C108.694 706.733 108.965 706.321 109.433 706.191C109.325 706.843 109.053 707.265 108.606 707.425Z" fill="#FFC502"/>
<path id="Vector_267" d="M45.4539 706.201C45.9962 706.231 46.3148 706.612 46.3351 707.455C45.8538 707.335 45.542 706.944 45.4539 706.201Z" fill="#FFC502"/>
<path id="Vector_268" d="M244.103 652.156C243.893 651.955 243.691 651.764 243.481 651.564C243.691 651.373 243.907 651.182 244.116 651.002C244.116 651.383 244.116 651.774 244.103 652.156Z" fill="#FFC502"/>
<path id="Vector_269" d="M160.805 698.755C161.015 698.865 161.381 698.925 161.408 699.096C161.516 699.808 161.13 699.808 160.798 699.818C160.777 699.457 160.784 699.106 160.798 698.745L160.805 698.755Z" fill="#FFC502"/>
<path id="Vector_270" d="M242.458 688.7C242.66 688.811 242.998 688.861 243.032 689.042C243.16 689.694 242.789 689.744 242.478 689.834C242.444 689.453 242.438 689.082 242.451 688.7H242.458Z" fill="#FFC502"/>
<path id="Vector_271" d="M321.628 748.866C321.845 749.077 322.069 749.288 322.293 749.498C322.055 749.669 321.825 749.829 321.588 750C321.574 749.619 321.588 749.237 321.628 748.866Z" fill="#FFC502"/>
<path id="Vector_272" d="M244.938 687.267C244.721 687.147 244.348 687.076 244.321 686.896C244.213 686.163 244.619 686.173 244.958 686.143C244.958 686.514 244.958 686.896 244.945 687.267H244.938Z" fill="#FFC502"/>
<path id="Vector_273" d="M142.257 602.045C142.712 602.196 142.983 602.607 143.071 603.29C142.623 603.139 142.359 602.708 142.257 602.045Z" fill="#FFC502"/>
<path id="Vector_274" d="M46.2937 681.074C46.8564 681.094 47.1614 681.495 47.175 682.358C46.6733 682.248 46.3683 681.837 46.2937 681.074Z" fill="#FFC502"/>
<path id="Vector_275" d="M138.041 564.387C137.58 564.267 137.309 563.856 137.214 563.173H137.207C137.485 563.173 137.763 563.183 138.034 563.233C138.034 563.615 138.034 564.006 138.034 564.387H138.041Z" fill="#FFC502"/>
<path id="Vector_276" d="M113.61 589.412L113.21 589.503H112.803C112.837 588.74 113.102 588.319 113.631 588.288C113.631 588.66 113.631 589.041 113.61 589.412Z" fill="#FFC502"/>
<path id="Vector_277" d="M35.3662 676.147C35.6441 676.378 35.9288 676.608 36.2068 676.839C35.9153 677.03 35.6238 677.21 35.3323 677.401C35.3526 676.98 35.3662 676.568 35.3662 676.147Z" fill="#FFC502"/>
<path id="Vector_278" d="M311.454 556.871L311.047 556.891L310.647 556.801C310.627 556.42 310.62 556.028 310.627 555.647C311.203 555.607 311.454 556.058 311.454 556.871Z" fill="#FFC502"/>
<path id="Vector_279" d="M255.921 554.442C256.274 554.442 256.674 554.442 256.558 555.184C256.531 555.365 256.145 555.425 255.928 555.536C255.908 555.174 255.908 554.803 255.921 554.442Z" fill="#FFC502"/>
<path id="Vector_280" d="M253.384 709.964C253.94 709.964 254.238 710.345 254.238 711.198C253.737 711.108 253.445 710.707 253.384 709.964Z" fill="#FFC502"/>
<path id="Vector_281" d="M15.9237 540.616C15.9711 541.017 15.9915 541.418 15.9779 541.82C15.4898 541.719 15.2051 541.318 15.1509 540.585C15.4085 540.585 15.6661 540.595 15.9237 540.616Z" fill="#FFC502"/>
<path id="Vector_282" d="M231.536 539.3C231.536 538.819 231.563 538.287 232.01 538.437C232.126 538.477 232.173 538.989 232.254 539.28L231.895 539.31H231.536V539.3Z" fill="#FFC502"/>
<path id="Vector_283" d="M40.3763 669.697C40.1119 669.787 39.8407 669.817 39.5696 669.787C39.6035 669.025 39.8746 668.623 40.3898 668.593C40.3966 668.964 40.3898 669.326 40.3763 669.697Z" fill="#FFC502"/>
<path id="Vector_284" d="M28.6082 527.992C28.8386 528.102 29.225 528.142 29.2657 528.333C29.4148 529.086 29.042 529.216 28.642 529.206C28.642 528.805 28.6285 528.393 28.6149 527.992H28.6082Z" fill="#FFC502"/>
<path id="Vector_285" d="M239.929 521.832C240.118 522.012 240.314 522.193 240.503 522.383C240.314 522.564 240.125 522.755 239.929 522.935C239.916 522.564 239.916 522.203 239.929 521.832Z" fill="#FFC502"/>
<path id="Vector_286" d="M375.408 652.137C374.845 652.217 374.642 651.766 374.635 651.003C375.171 650.953 375.388 651.404 375.408 652.137Z" fill="#FFC502"/>
<path id="Vector_287" d="M321.554 554.373C321.588 555.166 321.5 555.928 321.053 556.43C320.89 556.611 320.537 556.681 320.361 556.55C319.785 556.119 320.259 555.667 320.422 555.256C320.544 554.925 320.72 554.634 320.876 554.333H321.222L321.561 554.383L321.554 554.373Z" fill="#FFC502"/>
<path id="Vector_288" d="M321.582 549.355C321.527 550.138 321.466 550.92 320.707 550.549C320.592 550.489 320.409 550.268 320.422 550.178C320.578 549.245 321.026 549.144 321.568 549.345L321.582 549.355Z" fill="#FFC502"/>
<path id="Vector_289" d="M319.921 559.369C319.962 558.837 320.11 558.607 320.353 558.737C320.36 558.737 320.347 559.068 320.286 559.139C320.185 559.249 320.036 559.279 319.908 559.339L319.921 559.369Z" fill="#FFC502"/>
<path id="Vector_290" d="M318.151 556.921C318.314 556.61 318.47 556.288 318.633 555.977C319.134 556.971 318.545 556.88 318.172 556.991L318.151 556.921Z" fill="#FFC502"/>
<path id="Vector_291" d="M321.554 554.372L321.215 554.312H320.87C320.822 553.71 320.937 553.268 321.405 553.479C321.507 553.519 321.507 554.061 321.554 554.372Z" fill="#FFC502"/>
<path id="Vector_292" d="M20.1077 502.867C20.223 503.639 20.2229 504.813 19.7755 504.843C19.2671 504.873 19.2332 503.76 19.3349 502.977C19.5925 502.987 19.8501 502.957 20.1077 502.877V502.867Z" fill="#FFC502"/>
<path id="Vector_293" d="M20.1078 502.867C19.8502 502.947 19.5994 502.977 19.335 502.967C19.2469 501.984 19.5655 501.612 20.1892 501.713C20.2231 502.104 20.1959 502.485 20.1146 502.867H20.1078Z" fill="#FFC502"/>
<path id="Vector_294" d="M25.2186 205.56C24.7237 205.581 23.9984 206.303 23.8153 205.219C23.6391 204.156 24.2424 203.202 24.9678 203.463C25.666 203.724 25.1643 204.848 25.205 205.591L25.2186 205.56Z" fill="#FFC502"/>
<path id="Vector_295" d="M293.781 564.396C292.947 564.266 292.608 563.654 292.994 562.45C293.15 561.968 293.381 561.938 293.598 562.219C294.12 562.871 293.747 563.674 293.767 564.406H293.774L293.781 564.396Z" fill="#FFC502"/>
<path id="Vector_296" d="M144.766 170.441C144.549 170.281 144.325 170.13 144.108 169.97C144.23 169.799 144.345 169.639 144.467 169.468C144.562 169.799 144.657 170.13 144.745 170.462L144.766 170.431V170.441Z" fill="#FFC502"/>
<path id="Vector_297" d="M66.5699 174.204C66.6987 173.15 66.3326 171.685 67.5393 171.514C68.0138 171.444 68.2646 171.966 68.2918 172.558C68.3324 173.451 68.6917 174.665 67.885 175.046C67.5393 175.217 66.997 174.475 66.5496 174.153L66.5699 174.204Z" fill="#FFC502"/>
<path id="Vector_298" d="M51.4265 447.88C51.9078 447.92 52.3823 447.96 52.8636 448.011C52.9179 448.934 53.3585 450.268 52.3552 450.409C51.074 450.589 51.3384 449.064 51.4265 447.88Z" fill="#FFC502"/>
<path id="Vector_299" d="M287.87 369.873C288.277 369.682 288.616 369.773 288.785 370.405C288.812 370.515 288.663 370.866 288.582 370.887C288.121 370.977 287.924 370.555 287.85 369.943L287.87 369.873Z" fill="#FFC502"/>
<path id="Vector_300" d="M229.09 345.067C229.287 345.097 229.483 345.097 229.68 345.077C229.741 346.622 230.202 348.178 229.653 350.185C228.399 348.419 229.002 346.683 229.09 345.067Z" fill="#FFC502"/>
<path id="Vector_301" d="M365.287 462.77C365.314 462.388 365.355 462.007 365.396 461.626C365.843 461.465 366.114 461.034 366.216 460.371C367.524 460.943 367.199 461.887 366.487 462.93C366.087 462.88 365.687 462.83 365.287 462.78V462.77Z" fill="#FFC502"/>
<path id="Vector_302" d="M368.723 457.802C369.177 457.953 369.448 458.384 369.564 459.046C369.116 458.886 368.845 458.454 368.723 457.802Z" fill="#FFC502"/>
<path id="Vector_303" d="M16.8325 184.31C17.9713 184.31 18.6831 184.942 18.5475 186.848C16.7443 187.19 16.6698 187.079 16.8325 184.31Z" fill="#FFC502"/>
<path id="Vector_304" d="M17.6791 190.61C17.1097 190.62 16.3572 191.473 16.12 189.958C16.0115 189.255 16.4454 188.824 16.7979 188.733C17.8554 188.452 17.591 189.757 17.6927 190.6L17.6791 190.62V190.61Z" fill="#FFC502"/>
<path id="Vector_305" d="M30.1843 288.896C30.0762 289.167 29.9749 289.428 29.8736 289.679C29.7858 289.548 29.6103 289.378 29.6305 289.277C29.6778 288.996 29.7994 288.745 29.8939 288.484C29.9884 288.615 30.0762 288.745 30.1843 288.886V288.896Z" fill="#FFC502"/>
<path id="Vector_306" d="M242.437 334.843C242.206 334.672 241.982 334.502 241.759 334.341C241.888 334.151 242.016 333.96 242.145 333.779C242.24 334.14 242.342 334.492 242.437 334.853V334.843Z" fill="#FFC502"/>
<path id="Vector_307" d="M17.5853 202.451C17.4226 202.662 17.2056 203.164 17.0633 203.114C16.7175 202.993 16.4057 202.632 16.0803 202.371C16.4125 202.13 16.7311 201.789 17.0768 201.689C17.2056 201.649 17.409 202.18 17.5785 202.441L17.5853 202.451Z" fill="#FFC502"/>
<path id="Vector_308" d="M42.8095 138.05C42.7824 138.412 42.8095 138.763 42.8909 139.104C42.4096 139.586 42.1994 140.94 41.3995 140.318C41.1826 140.148 41.0538 139.204 41.1622 138.763C41.4605 137.549 42.1926 137.96 42.8095 138.04V138.05Z" fill="#FFC502"/>
<path id="Vector_309" d="M178.436 22.4256C178.315 22.245 178.187 22.0744 178.065 21.8938C178.139 21.9239 178.247 21.9139 178.288 21.9941C178.355 22.1146 178.382 22.2952 178.423 22.4457L178.436 22.4256Z" fill="#FFC502"/>
<path id="Vector_310" d="M128.754 372.51C128.767 373.293 129.012 374.186 128.361 374.648C128.266 374.718 127.886 374.296 127.846 374.026C127.683 372.942 128.178 372.651 128.774 372.53L128.754 372.5V372.51Z" fill="#FFC502"/>
<path id="Vector_311" d="M129.615 377.469L129.215 377.489L128.815 377.469C128.897 376.776 129.168 376.385 129.629 376.255C129.649 376.656 129.649 377.057 129.629 377.459L129.615 377.469Z" fill="#FFC502"/>
<path id="Vector_312" d="M99.3535 381.221C99.3196 380.82 99.3128 380.429 99.3467 380.027C99.6993 380.037 100.065 380.128 99.9433 380.82C99.9094 381.011 99.5569 381.091 99.3535 381.221Z" fill="#FFC502"/>
<path id="Vector_313" d="M105.189 194.353C105.122 193.72 105.23 193.219 105.684 193.058C105.766 193.028 105.996 193.299 105.989 193.399C105.942 194.072 105.61 194.302 105.203 194.363H105.183L105.189 194.353Z" fill="#FFC502"/>
<path id="Vector_314" d="M156.595 17.4385C156.723 17.2378 156.858 17.0271 156.987 16.8264C156.966 16.9569 156.973 17.1375 156.919 17.2077C156.831 17.3181 156.696 17.3582 156.581 17.4285L156.595 17.4485V17.4385Z" fill="#FFC502"/>
<path id="Vector_315" d="M18.48 206.695C18.3919 206.324 18.3987 205.962 18.4936 205.591C19.524 205.792 19.2393 206.815 19.1037 207.738L18.7919 207.769L18.48 207.738C18.4597 207.387 18.4597 207.036 18.48 206.685V206.695Z" fill="#FFC502"/>
<path id="Vector_316" d="M111.955 585.74C111.928 586.292 111.785 586.734 111.365 586.774C111.291 586.774 111.128 586.473 111.148 586.372C111.263 585.78 111.575 585.65 111.955 585.74Z" fill="#FFC502"/>
<path id="Vector_317" d="M176.838 594.429C176.817 593.616 176.79 592.813 176.77 592.001C177.265 592.001 177.773 592.001 177.76 593.044C177.746 593.907 177.38 594.319 176.844 594.429H176.838Z" fill="#FFC502"/>
<path id="Vector_318" d="M17.6928 309.827C18.2555 309.967 18.7097 310.288 18.5334 311.302C18.486 311.553 18.1199 311.944 18.0453 311.874C17.4691 311.372 17.7199 310.519 17.7131 309.776L17.6928 309.817V309.827Z" fill="#FFC502"/>
<path id="Vector_319" d="M175.122 314.735C175.386 313.892 175.65 313.049 175.908 312.206C176.491 312.477 176.925 313.059 176.782 313.982C176.552 315.517 175.738 314.775 175.115 314.745L175.122 314.735Z" fill="#FFC502"/>
<path id="Vector_320" d="M136.082 690.899C135.905 690.758 135.729 690.618 135.546 690.467C135.634 690.337 135.743 690.066 135.817 690.086C136.007 690.146 136.183 690.327 136.366 690.457C136.278 690.588 136.19 690.728 136.082 690.889V690.899Z" fill="#FFC502"/>
<path id="Vector_321" d="M144.635 544.899C144.587 545.02 144.54 545.15 144.5 545.271C144.378 545.14 144.257 545 144.135 544.859C144.223 544.739 144.311 544.618 144.398 544.498C144.479 544.628 144.56 544.759 144.642 544.899H144.635Z" fill="#FFC502"/>
<path id="Vector_322" d="M262.32 648.304C262.151 648.164 261.981 648.013 261.805 647.873C261.893 647.742 262.008 647.491 262.076 647.511C262.266 647.582 262.435 647.762 262.612 647.893C262.517 648.023 262.429 648.153 262.32 648.304Z" fill="#FFC502"/>
<path id="Vector_323" d="M127.595 540.415C127.432 540.274 127.269 540.124 127.106 539.973C127.195 539.853 127.303 539.602 127.371 539.622C127.554 539.692 127.71 539.873 127.879 540.013C127.791 540.134 127.703 540.264 127.595 540.415Z" fill="#FFC502"/>
<path id="Vector_324" d="M39.9613 501.693C40.0423 501.954 40.1504 502.215 40.1909 502.486C40.2044 502.587 40.0288 502.727 39.941 502.857C39.86 502.597 39.752 502.336 39.7114 502.065C39.6979 501.964 39.8735 501.824 39.9613 501.693Z" fill="#FFC502"/>
<path id="Vector_325" d="M29.239 657.574C29.2526 658.216 29.2662 658.859 29.2797 659.501C28.5544 659.571 27.4697 660.294 27.6121 658.287C27.707 656.902 28.6221 657.494 29.2458 657.574H29.239Z" fill="#FFC502"/>
<path id="Vector_326" d="M258.733 658.82C258.821 658.82 258.929 658.78 258.983 658.85C259.199 659.091 259.145 659.372 258.828 659.562C258.787 659.582 258.639 659.341 258.598 659.181C258.578 659.091 258.679 658.94 258.726 658.82H258.733Z" fill="#FFC502"/>
<path id="Vector_327" d="M255.596 734.799C255.419 734.648 255.243 734.508 255.067 734.357C255.155 734.227 255.263 733.966 255.331 733.986C255.521 734.046 255.691 734.227 255.867 734.357C255.779 734.498 255.691 734.628 255.589 734.789L255.596 734.799Z" fill="#FFC502"/>
<path id="Vector_328" d="M388.766 514.897C388.671 515.018 388.57 515.238 388.482 515.228C388.395 515.218 388.313 514.977 388.232 514.837C388.327 514.716 388.428 514.496 388.516 514.506C388.604 514.506 388.685 514.757 388.766 514.897Z" fill="#FFC502"/>
<path id="Vector_329" d="M154.755 307.77C154.708 307.92 154.661 308.071 154.607 308.211C154.472 308.061 154.33 307.9 154.195 307.749C154.289 307.599 154.384 307.458 154.478 307.308C154.566 307.458 154.661 307.619 154.749 307.77H154.755Z" fill="#FFC502"/>
<path id="Vector_330" d="M197.458 322.169C197.37 322.099 197.275 322.019 197.188 321.939C197.289 321.738 197.383 321.527 197.485 321.327C197.572 321.477 197.735 321.628 197.728 321.768C197.728 321.909 197.552 322.039 197.458 322.169Z" fill="#FFC502"/>
<path id="Vector_331" d="M342.243 504.05C342.142 503.98 342.047 503.9 341.946 503.83C342.054 503.629 342.155 503.428 342.263 503.218C342.358 503.358 342.459 503.509 342.554 503.649L342.243 504.05Z" fill="#FFC502"/>
<path id="Vector_332" d="M39.5279 224.407C39.0059 224.377 38.4907 224.336 37.9687 224.306C37.9348 223.373 37.5823 222.089 38.5788 221.958C39.8465 221.788 39.677 223.183 39.5279 224.407Z" fill="#FFC502"/>
<path id="Vector_333" d="M192.001 557.001C192.496 557.031 192.984 557.061 193.479 557.091C193.486 557.995 193.838 559.279 192.869 559.419C191.547 559.6 191.927 558.105 192.001 557.001Z" fill="#FFC502"/>
<path id="Vector_334" d="M384.597 559.85C384.503 560.101 384.408 560.352 384.314 560.613C384.226 560.483 384.057 560.312 384.077 560.212C384.118 559.931 384.239 559.68 384.327 559.409C384.415 559.539 384.496 559.68 384.597 559.84V559.85Z" fill="#FFC502"/>
<path id="Vector_335" d="M227.312 597.108C227.508 597.248 227.704 597.389 227.907 597.539C227.799 597.7 227.691 597.85 227.576 598.011C227.495 597.7 227.414 597.389 227.333 597.078L227.312 597.108Z" fill="#FFC502"/>
<path id="Vector_336" d="M99.3173 144.172C99.324 144.603 99.3308 145.024 99.3375 145.456C98.5406 145.065 98.5136 144.633 99.3173 144.172Z" fill="#FFC502"/>
<path id="Vector_337" d="M100.139 146.63L99.7393 146.66H99.3393C99.3325 146.228 99.319 145.807 99.3054 145.385C99.7935 145.496 100.058 145.917 100.132 146.63H100.139Z" fill="#FFC502"/>
<path id="Vector_338" d="M385.549 420.155C385.833 420.155 386.111 420.155 386.396 420.155C386.389 420.987 386.382 421.81 386.376 422.643L384.708 422.673C384.993 421.84 385.271 420.997 385.555 420.155H385.549Z" fill="#FFC502"/>
<path id="Vector_339" d="M126.238 716.145C126.022 716.004 125.805 715.864 125.588 715.713L125.94 715.192C126.035 715.513 126.13 715.844 126.218 716.175L126.238 716.145Z" fill="#FFC502"/>
<path id="Vector_340" d="M286.179 546.877C286.044 547.088 285.909 547.288 285.774 547.499C285.794 547.369 285.788 547.178 285.848 547.108C285.943 546.997 286.078 546.967 286.2 546.897L286.186 546.877H286.179Z" fill="#FFC502"/>
<path id="Vector_341" d="M22.7582 425.111C22.7107 424.73 22.7039 424.338 22.7514 423.957C22.9751 424.148 23.192 424.338 23.4157 424.529C23.1988 424.72 22.9819 424.92 22.7649 425.111H22.7582Z" fill="#FFC502"/>
<path id="Vector_342" d="M200.347 551.874C200.903 551.894 201.147 552.356 201.195 553.138C200.605 553.178 200.368 552.687 200.347 551.874Z" fill="#FFC502"/>
<path id="Vector_343" d="M154.066 579.529C154.289 579.699 154.506 579.88 154.73 580.05C154.133 580.873 154.174 580.01 154.086 579.499L154.066 579.529Z" fill="#FFC502"/>
<path id="Vector_344" d="M328.341 364.896C328.402 364.193 328.652 363.772 329.14 363.702C329.086 364.414 328.822 364.815 328.341 364.896Z" fill="#FFC502"/>
<path id="Vector_345" d="M129.641 430.178C129.743 429.817 129.838 429.466 129.939 429.104C130.061 429.295 130.19 429.496 130.319 429.686C130.095 429.847 129.865 430.007 129.641 430.178Z" fill="#FFC502"/>
<path id="Vector_346" d="M55.4982 648.514C55.4104 648.845 55.3294 649.186 55.2483 649.517C55.1267 649.347 55.0119 649.176 54.8904 649.015C55.0997 648.865 55.3158 648.704 55.5252 648.554L55.4982 648.524V648.514Z" fill="#FFC502"/>
<path id="Vector_347" d="M137.377 269.871C137.539 269.972 137.702 269.982 137.872 269.891C137.851 270.795 138.522 272.179 137.173 272.179C137.241 271.407 137.309 270.634 137.383 269.861L137.377 269.871Z" fill="#FFC502"/>
<path id="Vector_348" d="M170.051 543.124C170.268 543.304 170.479 543.475 170.695 543.656C170.065 544.549 170.173 543.545 170.058 543.114L170.045 543.134L170.051 543.124Z" fill="#FFC502"/>
<path id="Vector_349" d="M17.4568 215.374C16.989 215.474 16.7111 215.855 16.6365 216.558C14.6842 215.032 16.6636 214.43 16.9619 213.427C17.5381 213.848 17.3076 214.721 17.4568 215.374Z" fill="#FFC502"/>
<path id="Vector_350" d="M270.232 658.478C270.232 657.666 270.245 656.863 270.252 656.05C270.747 656.171 271.249 656.311 271.249 657.284C271.249 658.268 270.72 658.358 270.238 658.478H270.232Z" fill="#FFC502"/>
<path id="Vector_351" d="M61.4451 391.304C61.3502 391.967 61.0858 392.388 60.6316 392.518C60.7197 391.836 60.9841 391.425 61.4451 391.304Z" fill="#FFC502"/>
<path id="Vector_352" d="M161.658 127.876C161.36 128.277 161.069 128.678 160.77 129.08C160.153 129.04 159.53 129.03 159.238 127.986C159.469 127.514 159.706 127.053 159.937 126.581C160.689 126.491 161.672 125.698 161.658 127.876Z" fill="#FFC502"/>
<path id="Vector_353" d="M373.731 534.354C373.759 534.745 373.759 535.126 373.731 535.518C373.514 535.397 373.148 535.327 373.115 535.136C372.993 534.414 373.379 534.374 373.731 534.354Z" fill="#FFC502"/>
<path id="Vector_354" d="M20.2222 644.74C21.0763 644.559 21.9847 644.088 22.4863 645.703C21.6051 646.045 20.6018 647.018 20.2222 644.74Z" fill="#FFC502"/>
<path id="Vector_355" d="M2.52846 206.896C2.01326 206.825 1.49806 206.745 0.976074 206.675C0.996411 206.013 1.01675 205.34 1.03708 204.678C2.30475 204.277 2.98943 204.728 2.52168 206.906L2.52846 206.896Z" fill="#FFC502"/>
<path id="Vector_356" d="M117.8 206.825L117.413 206.896L117.027 206.866C117.04 206.364 117.054 205.792 117.529 205.942C117.657 205.983 117.712 206.514 117.8 206.825Z" fill="#FFC502"/>
<path id="Vector_357" d="M329.117 549.407C329.137 549.798 329.137 550.189 329.117 550.591C328.928 550.39 328.732 550.199 328.543 550.009C328.732 549.808 328.921 549.607 329.117 549.417V549.407Z" fill="#FFC502"/>
<path id="Vector_358" d="M319.012 455.233L318.612 455.273L318.212 455.243C318.246 454.721 318.219 454.069 318.741 454.24C318.87 454.28 318.917 454.882 319.005 455.223L319.012 455.233Z" fill="#FFC502"/>
<path id="Vector_359" d="M186.002 47.833C185.724 47.8129 185.453 47.7226 185.188 47.5721C185.202 46.7393 185.222 45.9165 185.236 45.0836C186.192 45.5653 185.961 46.7794 186.002 47.833Z" fill="#FFC502"/>
<path id="Vector_360" d="M234.885 608.357C235.143 608.327 235.401 608.337 235.652 608.387C235.563 608.688 235.509 609.19 235.38 609.24C234.926 609.39 234.892 608.858 234.885 608.357Z" fill="#FFC502"/>
<path id="Vector_361" d="M173.346 23.7797C173.543 23.5088 173.631 23.1676 173.611 22.7663C173.868 22.8265 174.079 22.7061 174.234 22.405C174.729 22.5555 175.122 22.8465 175.095 23.7396C174.512 23.7496 173.923 23.7697 173.34 23.7898L173.346 23.7797Z" fill="#FFC502"/>
<path id="Vector_362" d="M172.538 23.6816C172.843 23.6816 173.141 23.6715 173.446 23.6615C173.562 24.7452 173.263 25.2168 172.524 25.0563C172.524 24.5947 172.531 24.1431 172.538 23.6816Z" fill="#FFC502"/>
<path id="Vector_363" d="M172.586 26.2796C172.302 26.2897 172.01 26.3098 171.725 26.3298C171.725 25.8883 171.725 25.4468 171.725 24.9953C172.017 24.9752 172.302 24.9551 172.593 24.9351C172.593 25.3866 172.586 25.8381 172.586 26.2796Z" fill="#FFC502"/>
<path id="Vector_364" d="M221.341 17.0079C221.429 16.737 221.443 16.456 221.395 16.1751C221.775 16.1149 222.215 16.3657 222.161 16.8474C222.1 17.3591 221.659 17.3591 221.341 17.0079Z" fill="#FFC502"/>
<path id="Vector_365" d="M141.376 520.577C141.389 520.125 141.396 519.684 141.403 519.232C141.688 519.453 141.979 519.684 142.271 519.905C141.972 520.125 141.674 520.356 141.376 520.577Z" fill="#FFC502"/>
<path id="Vector_366" d="M150.69 178.048C150.961 178.017 151.232 178.017 151.504 178.048C151.232 179.131 150.961 179.141 150.69 178.048Z" fill="#FFC502"/>
<path id="Vector_367" d="M195.228 410.009L194.869 410.069C194.869 410.069 194.503 410.039 194.51 410.039C194.523 409.256 194.544 408.464 194.557 407.681C194.774 407.641 194.984 407.631 195.201 407.681C195.208 408.454 195.222 409.236 195.228 410.009Z" fill="#FFC502"/>
<path id="Vector_368" d="M93.4089 61.3989C93.4496 62.2619 93.3411 63.0245 92.7852 63.4861C92.6971 62.593 92.1683 61.409 93.4089 61.3989Z" fill="#FFC502"/>
<path id="Vector_369" d="M263.506 206.847C263.58 207.9 263.79 209.054 262.712 209.275C262.658 208.231 262.143 206.857 263.506 206.847Z" fill="#FFC502"/>
<path id="Vector_370" d="M18.4799 206.697C18.4595 207.048 18.4595 207.399 18.4799 207.75C17.8155 208.272 17.7342 207.58 17.6528 206.867C17.9172 206.707 18.1952 206.656 18.4799 206.697Z" fill="#FFC502"/>
<path id="Vector_371" d="M27.7473 239.537C27.8694 240.651 27.2118 241.193 26.9339 242.006C26.3373 241.845 25.6052 242.126 25.3679 240.882C26.0458 239.979 26.7034 239.006 27.7473 239.547V239.537Z" fill="#FFC502"/>
<path id="Vector_372" d="M126.272 730.001C126.259 731.025 126.218 732.018 125.445 732.479C125.432 731.436 125.445 730.422 126.272 730.001Z" fill="#FFC502"/>
<path id="Vector_373" d="M148.142 421.397H147.736H147.329C147.309 420.986 147.309 420.585 147.322 420.173C147.776 420.314 148.054 420.725 148.149 421.407L148.142 421.397Z" fill="#FFC502"/>
<path id="Vector_374" d="M156.52 499.104L156.141 499.164L155.754 499.144C155.754 498.341 156.005 497.899 156.568 497.93C156.581 498.321 156.568 498.712 156.52 499.104Z" fill="#FFC502"/>
<path id="Vector_375" d="M239.902 24.9653C239.38 24.9151 239.122 24.4836 239.075 23.7411C239.597 23.7812 239.855 24.2227 239.902 24.9653Z" fill="#FFC502"/>
<path id="Vector_376" d="M192.686 540.695C192.653 541.408 192.619 542.12 192.585 542.833C191.839 542.863 191.1 542.883 190.361 542.913C190.341 542.16 190.321 541.408 190.293 540.655C191.093 540.143 191.893 540.153 192.686 540.695Z" fill="#FFC502"/>
<path id="Vector_377" d="M216.365 644.741C216.921 644.721 217.484 644.711 218.039 644.69C218.019 645.513 217.999 646.326 217.978 647.149C217.463 647.129 216.948 647.099 216.433 647.079C216.412 646.296 216.385 645.523 216.365 644.741Z" fill="#FFC502"/>
<path id="Vector_378" d="M60.6445 378.813C60.9021 378.743 61.153 378.743 61.4106 378.813C61.336 379.506 61.2682 380.198 61.1936 380.891H60.8343C60.7733 380.208 60.7123 379.516 60.6445 378.823V378.813Z" fill="#FFC502"/>
<path id="Vector_379" d="M196.978 277.136H196.557H196.137C196.137 276.714 196.137 276.303 196.137 275.881C196.415 275.881 196.7 275.881 196.978 275.881C196.978 276.303 196.978 276.714 196.978 277.136Z" fill="#FFC502"/>
</g>
</g>
</svg>
