<svg width="100" height="130" viewBox="0 0 100 130" fill="none" xmlns="http://www.w3.org/2000/svg">
<g id="empty-roam">
<g id="Rectangle 213" filter="url(#filter0_b_2252_90912)">
<mask id="path-1-inside-1_2252_90912" fill="white">
<path d="M12 4H88V130H12V4Z"/>
</mask>
<path d="M12 4H88V130H12V4Z" fill="url(#paint0_linear_2252_90912)" fill-opacity="0.2"/>
<path d="M12 4V3.34148H11.3415V4H12ZM88 4H88.6585V3.34148H88V4ZM12 4.65852H88V3.34148H12V4.65852ZM87.3415 4V130H88.6585V4H87.3415ZM12.6585 130V4H11.3415V130H12.6585Z" fill="url(#paint1_linear_2252_90912)" mask="url(#path-1-inside-1_2252_90912)"/>
</g>
<rect id="Rectangle 214" x="12" y="4" width="76" height="3" fill="url(#paint2_linear_2252_90912)"/>
<path id="Vector (Stroke)" fill-rule="evenodd" clip-rule="evenodd" d="M50 49.5983L39.5983 60L50 70.4017L60.4017 60L50 49.5983ZM50 49L61 60L50 71L39 60L50 49Z" fill="url(#paint3_linear_2252_90912)"/>
<g id="question_mark">
<path id="question_mark_2" d="M49.6025 61.0596C49.6025 60.5985 49.6556 60.2456 49.7619 60.0007C49.8681 59.7558 50.0899 59.4842 50.4273 59.1861C50.6899 58.9522 50.8889 58.7401 51.0244 58.5497C51.1599 58.3594 51.2277 58.1436 51.2277 57.9024C51.2277 57.5823 51.1187 57.3163 50.9007 57.1043C50.6827 56.8923 50.3826 56.7863 50.0003 56.7863C49.6516 56.7863 49.3801 56.8798 49.1858 57.0667C48.9916 57.2536 48.8441 57.4622 48.7433 57.6925L48 57.3659C48.1582 56.9759 48.4052 56.6507 48.7409 56.3904C49.0767 56.1301 49.4965 56 50.0003 56C50.6582 56 51.1646 56.1855 51.5194 56.5564C51.8742 56.9274 52.0516 57.3677 52.0516 57.8773C52.0516 58.1958 51.9825 58.4769 51.8445 58.7205C51.7063 58.964 51.4968 59.2177 51.2159 59.4814C50.8624 59.8056 50.6435 60.0613 50.5592 60.2485C50.4748 60.4357 50.4327 60.7061 50.4327 61.0596H49.6025ZM50.0003 63.3936C49.8338 63.3936 49.6903 63.3334 49.5699 63.213C49.4496 63.0927 49.3894 62.9492 49.3894 62.7827C49.3894 62.6161 49.4496 62.4726 49.5699 62.3523C49.6903 62.2319 49.8338 62.1717 50.0003 62.1717C50.1669 62.1717 50.3104 62.2319 50.4307 62.3523C50.5511 62.4726 50.6112 62.6161 50.6112 62.7827C50.6112 62.9492 50.5511 63.0927 50.4307 63.213C50.3104 63.3334 50.1669 63.3936 50.0003 63.3936Z" fill="url(#paint4_linear_2252_90912)"/>
</g>
<g id="Group 221">
<path id="Vector 145" d="M100 101L76.0491 130H80.0002L100 104.951V101Z" fill="url(#paint5_linear_2252_90912)"/>
<path id="Vector 146" d="M99 109.178L82 130H84.8222L99 112V109.178Z" fill="url(#paint6_linear_2252_90912)"/>
<path id="Vector 149 (Stroke)" fill-rule="evenodd" clip-rule="evenodd" d="M91 107V10H91.5V107L73.5 130H73L91 107Z" fill="url(#paint7_linear_2252_90912)"/>
<path id="Vector 150 (Stroke)" opacity="0.5" fill-rule="evenodd" clip-rule="evenodd" d="M93.8353 19.0681L84.8835 10.1164L85.1164 9.88354L94.1646 18.9318V105H93.8353V19.0681Z" fill="url(#paint8_linear_2252_90912)"/>
<path id="Vector 153" opacity="0.3" d="M100 4H91V9H95V22H100V4Z" fill="url(#paint9_linear_2252_90912)"/>
</g>
<g id="Group 222">
<path id="Vector 145_2" d="M0 101L23.9509 130H19.9998L0 104.951V101Z" fill="url(#paint10_linear_2252_90912)"/>
<path id="Vector 146_2" d="M1 109.178L18 130H15.1778L1 112V109.178Z" fill="url(#paint11_linear_2252_90912)"/>
<path id="Vector 149 (Stroke)_2" fill-rule="evenodd" clip-rule="evenodd" d="M9 107V10H8.5V107L26.5 130H27L9 107Z" fill="url(#paint12_linear_2252_90912)"/>
<path id="Vector 150 (Stroke)_2" opacity="0.5" fill-rule="evenodd" clip-rule="evenodd" d="M6.16467 19.0681L15.1165 10.1164L14.8836 9.88354L5.83541 18.9318V105H6.16467V19.0681Z" fill="url(#paint13_linear_2252_90912)"/>
<path id="Vector 153_2" opacity="0.3" d="M0 4H9V9H5V22H0V4Z" fill="url(#paint14_linear_2252_90912)"/>
</g>
<g id="diamond">
<path id="Polygon 38" d="M50 0L53 6L50 10L47 6L50 0Z" fill="#AB750F"/>
<path id="Vector 108" d="M47 6L50 0V10L47 6Z" fill="#FFC502"/>
<path id="highlight" d="M49.9621 1.27934L53 6L50 9.29832e-05C48.8284 2.3432 48.1716 3.65689 47 6L49.9621 1.27934Z" fill="white" fill-opacity="0.3"/>
</g>
<path id="Vector" d="M50 48L49 49L50 50L51 49L50 48Z" fill="url(#paint15_linear_2252_90912)"/>
<path id="Vector_2" d="M50 70L49 71L50 72L51 71L50 70Z" fill="url(#paint16_linear_2252_90912)"/>
<path id="Vector_3" d="M61 59L60 60L61 61L62 60L61 59Z" fill="url(#paint17_linear_2252_90912)"/>
<path id="Vector_4" d="M39 59L38 60L39 61L40 60L39 59Z" fill="url(#paint18_linear_2252_90912)"/>
<g id="icon-roam" clip-path="url(#clip0_2252_90912)">
<path id="ROAM" d="M44.3472 116V113.312H45.4531C45.6912 113.312 45.8947 113.35 46.0637 113.427C46.2352 113.504 46.3671 113.614 46.4592 113.757C46.5514 113.901 46.5975 114.071 46.5975 114.268C46.5975 114.465 46.5514 114.636 46.4592 114.779C46.3671 114.92 46.2352 115.028 46.0637 115.105C45.8947 115.18 45.6912 115.217 45.4531 115.217H44.6237L44.8464 114.99V116H44.3472ZM46.1059 116L45.4263 115.025H45.96L46.6435 116H46.1059ZM44.8464 115.044L44.6237 114.806H45.4301C45.6503 114.806 45.8154 114.758 45.9255 114.664C46.0381 114.569 46.0944 114.437 46.0944 114.268C46.0944 114.097 46.0381 113.965 45.9255 113.873C45.8154 113.78 45.6503 113.734 45.4301 113.734H44.6237L44.8464 113.489V115.044ZM48.4155 116.038C48.2056 116.038 48.0123 116.004 47.8356 115.935C47.659 115.866 47.5054 115.77 47.3748 115.647C47.2443 115.521 47.1432 115.375 47.0715 115.209C46.9998 115.04 46.964 114.856 46.964 114.656C46.964 114.456 46.9998 114.273 47.0715 114.107C47.1432 113.938 47.2443 113.792 47.3748 113.669C47.5054 113.544 47.659 113.446 47.8356 113.377C48.0123 113.308 48.2043 113.274 48.4116 113.274C48.6216 113.274 48.8136 113.308 48.9876 113.377C49.1643 113.446 49.3179 113.544 49.4484 113.669C49.579 113.792 49.6801 113.938 49.7518 114.107C49.8235 114.273 49.8593 114.456 49.8593 114.656C49.8593 114.856 49.8235 115.04 49.7518 115.209C49.6801 115.378 49.579 115.524 49.4484 115.647C49.3179 115.77 49.1643 115.866 48.9876 115.935C48.8136 116.004 48.6228 116.038 48.4155 116.038ZM48.4116 115.601C48.5473 115.601 48.6728 115.578 48.788 115.532C48.9032 115.485 49.003 115.42 49.0875 115.336C49.172 115.249 49.2372 115.149 49.2833 115.036C49.332 114.921 49.3563 114.794 49.3563 114.656C49.3563 114.518 49.332 114.392 49.2833 114.28C49.2372 114.164 49.172 114.065 49.0875 113.98C49.003 113.893 48.9032 113.827 48.788 113.78C48.6728 113.734 48.5473 113.711 48.4116 113.711C48.276 113.711 48.1505 113.734 48.0353 113.78C47.9227 113.827 47.8228 113.893 47.7358 113.98C47.6513 114.065 47.5848 114.164 47.5361 114.28C47.49 114.392 47.467 114.518 47.467 114.656C47.467 114.792 47.49 114.917 47.5361 115.032C47.5848 115.148 47.6513 115.249 47.7358 115.336C47.8203 115.42 47.9201 115.485 48.0353 115.532C48.1505 115.578 48.276 115.601 48.4116 115.601ZM49.9708 116L51.1804 113.312H51.6719L52.8854 116H52.3631L51.3225 113.577H51.5222L50.4854 116H49.9708ZM50.5276 115.378L50.662 114.986H52.1135L52.2479 115.378H50.5276ZM53.2272 116V113.312H53.6381L54.8131 115.274H54.5981L55.7539 113.312H56.1648L56.1687 116H55.6963L55.6925 114.053H55.7923L54.8093 115.693H54.5866L53.5882 114.053H53.7034V116H53.2272Z" fill="url(#paint19_linear_2252_90912)"/>
<g id="Roam" clip-path="url(#clip1_2252_90912)">
<path id="Union" fill-rule="evenodd" clip-rule="evenodd" d="M44.3998 109.543V101.12L45.6344 100H47.9838L46.3038 101.568L46.3038 104.816H49.2158L44.3998 109.543ZM47.0879 102.128L49.2159 100H54.8159L52.6879 102.128H47.0879ZM55.6 110.08V101.657L50.784 106.384H53.696V109.632L52.016 111.2H54.3654L55.6 110.08ZM52.9119 109.072L50.7839 111.2H45.1839L47.3119 109.072H52.9119Z" fill="url(#paint20_linear_2252_90912)"/>
</g>
</g>
</g>
<defs>
<filter id="filter0_b_2252_90912" x="7.45139" y="-0.548611" width="85.0972" height="135.097" filterUnits="userSpaceOnUse" color-interpolation-filters="sRGB">
<feFlood flood-opacity="0" result="BackgroundImageFix"/>
<feGaussianBlur in="BackgroundImageFix" stdDeviation="2.27431"/>
<feComposite in2="SourceAlpha" operator="in" result="effect1_backgroundBlur_2252_90912"/>
<feBlend mode="normal" in="SourceGraphic" in2="effect1_backgroundBlur_2252_90912" result="shape"/>
</filter>
<linearGradient id="paint0_linear_2252_90912" x1="50" y1="4" x2="50" y2="130" gradientUnits="userSpaceOnUse">
<stop stop-color="#AB750F"/>
<stop offset="1" stop-color="#997601" stop-opacity="0"/>
</linearGradient>
<linearGradient id="paint1_linear_2252_90912" x1="50" y1="4" x2="50" y2="142.866" gradientUnits="userSpaceOnUse">
<stop stop-color="#D1A14A"/>
<stop offset="1" stop-color="#D1A14A" stop-opacity="0"/>
</linearGradient>
<linearGradient id="paint2_linear_2252_90912" x1="8.44715" y1="5.50001" x2="89.3902" y2="5.50003" gradientUnits="userSpaceOnUse">
<stop stop-color="#AB750F"/>
<stop offset="0.516" stop-color="#D8A956"/>
<stop offset="1" stop-color="#AB750F"/>
</linearGradient>
<linearGradient id="paint3_linear_2252_90912" x1="43.9858" y1="66.0143" x2="55.7013" y2="54.2988" gradientUnits="userSpaceOnUse">
<stop stop-color="#AB750F"/>
<stop offset="0.516" stop-color="#D8A956"/>
<stop offset="1" stop-color="#AB750F"/>
</linearGradient>
<linearGradient id="paint4_linear_2252_90912" x1="50.0258" y1="56" x2="50.0258" y2="63.3936" gradientUnits="userSpaceOnUse">
<stop stop-color="#AB750F"/>
<stop offset="0.516" stop-color="#D8A956"/>
<stop offset="1" stop-color="#AB750F"/>
</linearGradient>
<linearGradient id="paint5_linear_2252_90912" x1="74.9294" y1="115.5" x2="100.438" y2="115.5" gradientUnits="userSpaceOnUse">
<stop stop-color="#AB750F"/>
<stop offset="0.516" stop-color="#D8A956"/>
<stop offset="1" stop-color="#AB750F"/>
</linearGradient>
<linearGradient id="paint6_linear_2252_90912" x1="81.2053" y1="119.589" x2="99.311" y2="119.589" gradientUnits="userSpaceOnUse">
<stop stop-color="#AB750F"/>
<stop offset="0.516" stop-color="#D8A956"/>
<stop offset="1" stop-color="#AB750F"/>
</linearGradient>
<linearGradient id="paint7_linear_2252_90912" x1="72.1352" y1="70.0005" x2="91.8384" y2="70.0005" gradientUnits="userSpaceOnUse">
<stop stop-color="#AB750F"/>
<stop offset="0.516" stop-color="#D8A956"/>
<stop offset="1" stop-color="#AB750F"/>
</linearGradient>
<linearGradient id="paint8_linear_2252_90912" x1="89.5241" y1="9.88354" x2="89.5241" y2="105" gradientUnits="userSpaceOnUse">
<stop stop-color="#AB750F"/>
<stop offset="0.516" stop-color="#D8A956"/>
<stop offset="1" stop-color="#AB750F"/>
</linearGradient>
<linearGradient id="paint9_linear_2252_90912" x1="95.5" y1="4" x2="95.5" y2="22" gradientUnits="userSpaceOnUse">
<stop stop-color="#AB750F"/>
<stop offset="0.516" stop-color="#D8A956"/>
<stop offset="1" stop-color="#AB750F"/>
</linearGradient>
<linearGradient id="paint10_linear_2252_90912" x1="25.0706" y1="115.5" x2="-0.438125" y2="115.5" gradientUnits="userSpaceOnUse">
<stop stop-color="#AB750F"/>
<stop offset="0.516" stop-color="#D8A956"/>
<stop offset="1" stop-color="#AB750F"/>
</linearGradient>
<linearGradient id="paint11_linear_2252_90912" x1="18.7947" y1="119.589" x2="0.689025" y2="119.589" gradientUnits="userSpaceOnUse">
<stop stop-color="#AB750F"/>
<stop offset="0.516" stop-color="#D8A956"/>
<stop offset="1" stop-color="#AB750F"/>
</linearGradient>
<linearGradient id="paint12_linear_2252_90912" x1="27.8648" y1="70.0005" x2="8.16159" y2="70.0005" gradientUnits="userSpaceOnUse">
<stop stop-color="#AB750F"/>
<stop offset="0.516" stop-color="#D8A956"/>
<stop offset="1" stop-color="#AB750F"/>
</linearGradient>
<linearGradient id="paint13_linear_2252_90912" x1="10.4759" y1="9.88354" x2="10.4759" y2="105" gradientUnits="userSpaceOnUse">
<stop stop-color="#AB750F"/>
<stop offset="0.516" stop-color="#D8A956"/>
<stop offset="1" stop-color="#AB750F"/>
</linearGradient>
<linearGradient id="paint14_linear_2252_90912" x1="4.5" y1="4" x2="4.5" y2="22" gradientUnits="userSpaceOnUse">
<stop stop-color="#AB750F"/>
<stop offset="0.516" stop-color="#D8A956"/>
<stop offset="1" stop-color="#AB750F"/>
</linearGradient>
<linearGradient id="paint15_linear_2252_90912" x1="49.5" y1="48.5" x2="50.5" y2="49.5" gradientUnits="userSpaceOnUse">
<stop stop-color="#AB750F"/>
<stop offset="0.516" stop-color="#D8A956"/>
<stop offset="1" stop-color="#AB750F"/>
</linearGradient>
<linearGradient id="paint16_linear_2252_90912" x1="49.5" y1="70.5" x2="50.5" y2="71.5" gradientUnits="userSpaceOnUse">
<stop stop-color="#AB750F"/>
<stop offset="0.516" stop-color="#D8A956"/>
<stop offset="1" stop-color="#AB750F"/>
</linearGradient>
<linearGradient id="paint17_linear_2252_90912" x1="60.5" y1="59.5" x2="61.5" y2="60.5" gradientUnits="userSpaceOnUse">
<stop stop-color="#AB750F"/>
<stop offset="0.516" stop-color="#D8A956"/>
<stop offset="1" stop-color="#AB750F"/>
</linearGradient>
<linearGradient id="paint18_linear_2252_90912" x1="38.5" y1="59.5" x2="39.5" y2="60.5" gradientUnits="userSpaceOnUse">
<stop stop-color="#AB750F"/>
<stop offset="0.516" stop-color="#D8A956"/>
<stop offset="1" stop-color="#AB750F"/>
</linearGradient>
<linearGradient id="paint19_linear_2252_90912" x1="43.1523" y1="114.5" x2="56.9978" y2="114.5" gradientUnits="userSpaceOnUse">
<stop stop-color="#AB750F"/>
<stop offset="0.516" stop-color="#D8A956"/>
<stop offset="1" stop-color="#AB750F"/>
</linearGradient>
<linearGradient id="paint20_linear_2252_90912" x1="43.8763" y1="105.6" x2="55.8048" y2="105.6" gradientUnits="userSpaceOnUse">
<stop stop-color="#AB750F"/>
<stop offset="0.516" stop-color="#D8A956"/>
<stop offset="1" stop-color="#AB750F"/>
</linearGradient>
<clipPath id="clip0_2252_90912">
<rect width="16" height="16" fill="white" transform="translate(42 100)"/>
</clipPath>
<clipPath id="clip1_2252_90912">
<rect width="11.2" height="11.2" fill="white" transform="translate(44.3999 100)"/>
</clipPath>
</defs>
</svg>
