<svg width="100" height="130" viewBox="0 0 100 130" fill="none" xmlns="http://www.w3.org/2000/svg">
<g id="empty-jungle">
<g id="Rectangle 213" filter="url(#filter0_b_2252_91081)">
<mask id="path-1-inside-1_2252_91081" fill="white">
<path d="M12 4H88V130H12V4Z"/>
</mask>
<path d="M12 4H88V130H12V4Z" fill="url(#paint0_linear_2252_91081)" fill-opacity="0.2"/>
<path d="M12 4V3.34148H11.3415V4H12ZM88 4H88.6585V3.34148H88V4ZM12 4.65852H88V3.34148H12V4.65852ZM87.3415 4V130H88.6585V4H87.3415ZM12.6585 130V4H11.3415V130H12.6585Z" fill="url(#paint1_linear_2252_91081)" mask="url(#path-1-inside-1_2252_91081)"/>
</g>
<rect id="Rectangle 214" x="12" y="4" width="76" height="3" fill="url(#paint2_linear_2252_91081)"/>
<path id="Vector (Stroke)" fill-rule="evenodd" clip-rule="evenodd" d="M50 49.5983L39.5983 60L50 70.4017L60.4017 60L50 49.5983ZM50 49L61 60L50 71L39 60L50 49Z" fill="url(#paint3_linear_2252_91081)"/>
<g id="question_mark">
<path id="question_mark_2" d="M49.6025 61.0596C49.6025 60.5985 49.6556 60.2456 49.7619 60.0007C49.8681 59.7558 50.0899 59.4842 50.4273 59.1861C50.6899 58.9522 50.8889 58.7401 51.0244 58.5497C51.1599 58.3594 51.2277 58.1436 51.2277 57.9024C51.2277 57.5823 51.1187 57.3163 50.9007 57.1043C50.6827 56.8923 50.3826 56.7863 50.0003 56.7863C49.6516 56.7863 49.3801 56.8798 49.1858 57.0667C48.9916 57.2536 48.8441 57.4622 48.7433 57.6925L48 57.3659C48.1582 56.9759 48.4052 56.6507 48.7409 56.3904C49.0767 56.1301 49.4965 56 50.0003 56C50.6582 56 51.1646 56.1855 51.5194 56.5564C51.8742 56.9274 52.0516 57.3677 52.0516 57.8773C52.0516 58.1958 51.9825 58.4769 51.8445 58.7205C51.7063 58.964 51.4968 59.2177 51.2159 59.4814C50.8624 59.8056 50.6435 60.0613 50.5592 60.2485C50.4748 60.4357 50.4327 60.7061 50.4327 61.0596H49.6025ZM50.0003 63.3936C49.8338 63.3936 49.6903 63.3334 49.5699 63.213C49.4496 63.0927 49.3894 62.9492 49.3894 62.7827C49.3894 62.6161 49.4496 62.4726 49.5699 62.3523C49.6903 62.2319 49.8338 62.1717 50.0003 62.1717C50.1669 62.1717 50.3104 62.2319 50.4307 62.3523C50.5511 62.4726 50.6112 62.6161 50.6112 62.7827C50.6112 62.9492 50.5511 63.0927 50.4307 63.213C50.3104 63.3334 50.1669 63.3936 50.0003 63.3936Z" fill="url(#paint4_linear_2252_91081)"/>
</g>
<g id="Group 221">
<path id="Vector 145" d="M100 101L76.0491 130H80.0002L100 104.951V101Z" fill="url(#paint5_linear_2252_91081)"/>
<path id="Vector 146" d="M99 109.178L82 130H84.8222L99 112V109.178Z" fill="url(#paint6_linear_2252_91081)"/>
<path id="Vector 149 (Stroke)" fill-rule="evenodd" clip-rule="evenodd" d="M91 107V10H91.5V107L73.5 130H73L91 107Z" fill="url(#paint7_linear_2252_91081)"/>
<path id="Vector 150 (Stroke)" opacity="0.5" fill-rule="evenodd" clip-rule="evenodd" d="M93.8353 19.0681L84.8835 10.1164L85.1164 9.88354L94.1646 18.9318V105H93.8353V19.0681Z" fill="url(#paint8_linear_2252_91081)"/>
<path id="Vector 153" opacity="0.3" d="M100 4H91V9H95V22H100V4Z" fill="url(#paint9_linear_2252_91081)"/>
</g>
<g id="Group 222">
<path id="Vector 145_2" d="M0 101L23.9509 130H19.9998L0 104.951V101Z" fill="url(#paint10_linear_2252_91081)"/>
<path id="Vector 146_2" d="M1 109.178L18 130H15.1778L1 112V109.178Z" fill="url(#paint11_linear_2252_91081)"/>
<path id="Vector 149 (Stroke)_2" fill-rule="evenodd" clip-rule="evenodd" d="M9 107V10H8.5V107L26.5 130H27L9 107Z" fill="url(#paint12_linear_2252_91081)"/>
<path id="Vector 150 (Stroke)_2" opacity="0.5" fill-rule="evenodd" clip-rule="evenodd" d="M6.16467 19.0681L15.1165 10.1164L14.8836 9.88354L5.83541 18.9318V105H6.16467V19.0681Z" fill="url(#paint13_linear_2252_91081)"/>
<path id="Vector 153_2" opacity="0.3" d="M0 4H9V9H5V22H0V4Z" fill="url(#paint14_linear_2252_91081)"/>
</g>
<g id="diamond">
<path id="Polygon 38" d="M50 0L53 6L50 10L47 6L50 0Z" fill="#AB750F"/>
<path id="Vector 108" d="M47 6L50 0V10L47 6Z" fill="#FFC502"/>
<path id="highlight" d="M49.9621 1.27934L53 6L50 9.29832e-05C48.8284 2.3432 48.1716 3.65689 47 6L49.9621 1.27934Z" fill="white" fill-opacity="0.3"/>
</g>
<path id="Vector" d="M50 48L49 49L50 50L51 49L50 48Z" fill="url(#paint15_linear_2252_91081)"/>
<path id="Vector_2" d="M50 70L49 71L50 72L51 71L50 70Z" fill="url(#paint16_linear_2252_91081)"/>
<path id="Vector_3" d="M61 59L60 60L61 61L62 60L61 59Z" fill="url(#paint17_linear_2252_91081)"/>
<path id="Vector_4" d="M39 59L38 60L39 61L40 60L39 59Z" fill="url(#paint18_linear_2252_91081)"/>
<g id="icon-jungle" clip-path="url(#clip0_2252_91081)">
<path id="JUNGLE" d="M43.2789 116.038C43.1074 116.038 42.9487 116.005 42.8027 115.939C42.6594 115.872 42.5416 115.776 42.4495 115.651L42.7336 115.309C42.8079 115.411 42.8885 115.488 42.9755 115.539C43.0651 115.59 43.1624 115.616 43.2674 115.616C43.5464 115.616 43.6859 115.451 43.6859 115.121V113.731H42.7298V113.312H44.1851V115.094C44.1851 115.411 44.1071 115.648 43.9509 115.804C43.7973 115.96 43.5733 116.038 43.2789 116.038ZM46.0412 116.038C45.6725 116.038 45.3833 115.935 45.1733 115.727C44.966 115.52 44.8623 115.22 44.8623 114.829V113.312H45.3615V114.81C45.3615 115.086 45.4204 115.287 45.5381 115.412C45.6585 115.538 45.8274 115.601 46.045 115.601C46.2626 115.601 46.4303 115.538 46.5481 115.412C46.6658 115.287 46.7247 115.086 46.7247 114.81V113.312H47.2162V114.829C47.2162 115.22 47.1113 115.52 46.9013 115.727C46.694 115.935 46.4073 116.038 46.0412 116.038ZM47.9153 116V113.312H48.3262L50.012 115.382H49.8085V113.312H50.3038V116H49.8929L48.2072 113.93H48.4107V116H47.9153ZM52.2798 116.038C52.0698 116.038 51.8766 116.005 51.6999 115.939C51.5258 115.869 51.3735 115.773 51.243 115.651C51.1124 115.525 51.0113 115.378 50.9396 115.209C50.8679 115.04 50.8321 114.856 50.8321 114.656C50.8321 114.456 50.8679 114.272 50.9396 114.103C51.0113 113.934 51.1124 113.788 51.243 113.665C51.3761 113.54 51.531 113.444 51.7076 113.377C51.8842 113.308 52.0775 113.274 52.2874 113.274C52.5153 113.274 52.7201 113.311 52.9018 113.385C53.0862 113.459 53.241 113.568 53.3665 113.711L53.0516 114.019C52.9466 113.914 52.8327 113.837 52.7098 113.788C52.5895 113.737 52.4564 113.711 52.3105 113.711C52.1697 113.711 52.0391 113.734 51.9188 113.78C51.7985 113.827 51.6948 113.892 51.6078 113.976C51.5207 114.061 51.4529 114.161 51.4042 114.276C51.3582 114.391 51.3351 114.518 51.3351 114.656C51.3351 114.792 51.3582 114.917 51.4042 115.032C51.4529 115.148 51.5207 115.249 51.6078 115.336C51.6948 115.42 51.7972 115.485 51.915 115.532C52.0327 115.578 52.1633 115.601 52.3066 115.601C52.4398 115.601 52.5678 115.58 52.6906 115.539C52.8161 115.496 52.9351 115.424 53.0478 115.324L53.3319 115.697C53.1911 115.809 53.0273 115.895 52.8404 115.954C52.6561 116.01 52.4692 116.038 52.2798 116.038ZM52.8596 115.631V114.625H53.3319V115.697L52.8596 115.631ZM53.9903 116V113.312H54.4895V115.578H55.895V116H53.9903ZM56.7499 114.429H58.0862V114.84H56.7499V114.429ZM56.7883 115.581H58.3051V116H56.2891V113.312H58.2513V113.731H56.7883V115.581Z" fill="url(#paint19_linear_2252_91081)"/>
<g id="Jungle" clip-path="url(#clip1_2252_91081)">
<path id="Subtract" fill-rule="evenodd" clip-rule="evenodd" d="M49.8069 100H55.5999L53.2604 103.138C53.2604 103.138 52.6616 104.022 53.2604 104.697C53.8592 105.371 54.2816 105.816 54.2816 105.816L54.2259 107.824L53.019 108.85V109.958H50.3942L50.018 109.534C50.018 109.534 52.919 108.632 51.869 107.449C50.819 106.266 48.7486 106.737 48.7486 106.737L48.2472 107.866L48.9714 107.929L49.4355 108.64H47.2446L46.6597 109.299L47.5417 110.293H48.403L48.65 110.015V110.9L48.3835 111.2H46.2035L44.3999 109.168L44.9646 108.531C45.4951 108.062 46.0493 107.302 46.4856 106.634C46.7319 106.256 46.9418 105.906 47.0901 105.65C47.1643 105.523 47.2231 105.418 47.2634 105.346C47.2835 105.31 47.299 105.281 47.3095 105.262L47.3214 105.24L47.3245 105.235L47.3252 105.233L47.3254 105.233L47.3255 105.233L47.2817 105.209L47.2379 105.186L47.2379 105.186L47.2377 105.186L47.237 105.188L47.234 105.193L47.2223 105.215C47.2119 105.234 47.1965 105.262 47.1765 105.298C47.1365 105.37 47.078 105.473 47.0041 105.601C46.8564 105.855 46.6475 106.204 46.4024 106.579C45.9703 107.241 45.4294 107.981 44.9161 108.442H44.6823L44.7751 107.322L44.3999 106.841L45.1296 106.343C45.3952 106.214 45.6414 106.038 45.8295 105.885C45.9416 105.793 46.0337 105.71 46.0979 105.65C46.13 105.62 46.1551 105.595 46.1723 105.578L46.1919 105.558L46.197 105.553L46.1984 105.552L46.1987 105.551L46.1988 105.551L46.1989 105.551L46.163 105.517L46.1272 105.482L46.1272 105.482L46.1271 105.482L46.1268 105.483L46.1257 105.484L46.121 105.489L46.1022 105.507C46.0856 105.524 46.0611 105.548 46.0297 105.577C45.967 105.637 45.8767 105.718 45.7668 105.807C45.6228 105.925 45.4462 106.054 45.2548 106.164L45.2208 105.147H45.5735V103.975H46.6133V103.557H47.5417L49.593 101.245L49.8069 100Z" fill="url(#paint20_linear_2252_91081)"/>
</g>
</g>
</g>
<defs>
<filter id="filter0_b_2252_91081" x="7.45139" y="-0.548611" width="85.0972" height="135.097" filterUnits="userSpaceOnUse" color-interpolation-filters="sRGB">
<feFlood flood-opacity="0" result="BackgroundImageFix"/>
<feGaussianBlur in="BackgroundImageFix" stdDeviation="2.27431"/>
<feComposite in2="SourceAlpha" operator="in" result="effect1_backgroundBlur_2252_91081"/>
<feBlend mode="normal" in="SourceGraphic" in2="effect1_backgroundBlur_2252_91081" result="shape"/>
</filter>
<linearGradient id="paint0_linear_2252_91081" x1="50" y1="4" x2="50" y2="130" gradientUnits="userSpaceOnUse">
<stop stop-color="#AB750F"/>
<stop offset="1" stop-color="#997601" stop-opacity="0"/>
</linearGradient>
<linearGradient id="paint1_linear_2252_91081" x1="50" y1="4" x2="50" y2="142.866" gradientUnits="userSpaceOnUse">
<stop stop-color="#D1A14A"/>
<stop offset="1" stop-color="#D1A14A" stop-opacity="0"/>
</linearGradient>
<linearGradient id="paint2_linear_2252_91081" x1="8.44715" y1="5.50001" x2="89.3902" y2="5.50003" gradientUnits="userSpaceOnUse">
<stop stop-color="#AB750F"/>
<stop offset="0.516" stop-color="#D8A956"/>
<stop offset="1" stop-color="#AB750F"/>
</linearGradient>
<linearGradient id="paint3_linear_2252_91081" x1="43.9858" y1="66.0143" x2="55.7013" y2="54.2988" gradientUnits="userSpaceOnUse">
<stop stop-color="#AB750F"/>
<stop offset="0.516" stop-color="#D8A956"/>
<stop offset="1" stop-color="#AB750F"/>
</linearGradient>
<linearGradient id="paint4_linear_2252_91081" x1="50.0258" y1="56" x2="50.0258" y2="63.3936" gradientUnits="userSpaceOnUse">
<stop stop-color="#AB750F"/>
<stop offset="0.516" stop-color="#D8A956"/>
<stop offset="1" stop-color="#AB750F"/>
</linearGradient>
<linearGradient id="paint5_linear_2252_91081" x1="74.9294" y1="115.5" x2="100.438" y2="115.5" gradientUnits="userSpaceOnUse">
<stop stop-color="#AB750F"/>
<stop offset="0.516" stop-color="#D8A956"/>
<stop offset="1" stop-color="#AB750F"/>
</linearGradient>
<linearGradient id="paint6_linear_2252_91081" x1="81.2053" y1="119.589" x2="99.311" y2="119.589" gradientUnits="userSpaceOnUse">
<stop stop-color="#AB750F"/>
<stop offset="0.516" stop-color="#D8A956"/>
<stop offset="1" stop-color="#AB750F"/>
</linearGradient>
<linearGradient id="paint7_linear_2252_91081" x1="72.1352" y1="70.0005" x2="91.8384" y2="70.0005" gradientUnits="userSpaceOnUse">
<stop stop-color="#AB750F"/>
<stop offset="0.516" stop-color="#D8A956"/>
<stop offset="1" stop-color="#AB750F"/>
</linearGradient>
<linearGradient id="paint8_linear_2252_91081" x1="89.5241" y1="9.88354" x2="89.5241" y2="105" gradientUnits="userSpaceOnUse">
<stop stop-color="#AB750F"/>
<stop offset="0.516" stop-color="#D8A956"/>
<stop offset="1" stop-color="#AB750F"/>
</linearGradient>
<linearGradient id="paint9_linear_2252_91081" x1="95.5" y1="4" x2="95.5" y2="22" gradientUnits="userSpaceOnUse">
<stop stop-color="#AB750F"/>
<stop offset="0.516" stop-color="#D8A956"/>
<stop offset="1" stop-color="#AB750F"/>
</linearGradient>
<linearGradient id="paint10_linear_2252_91081" x1="25.0706" y1="115.5" x2="-0.438125" y2="115.5" gradientUnits="userSpaceOnUse">
<stop stop-color="#AB750F"/>
<stop offset="0.516" stop-color="#D8A956"/>
<stop offset="1" stop-color="#AB750F"/>
</linearGradient>
<linearGradient id="paint11_linear_2252_91081" x1="18.7947" y1="119.589" x2="0.689025" y2="119.589" gradientUnits="userSpaceOnUse">
<stop stop-color="#AB750F"/>
<stop offset="0.516" stop-color="#D8A956"/>
<stop offset="1" stop-color="#AB750F"/>
</linearGradient>
<linearGradient id="paint12_linear_2252_91081" x1="27.8648" y1="70.0005" x2="8.16159" y2="70.0005" gradientUnits="userSpaceOnUse">
<stop stop-color="#AB750F"/>
<stop offset="0.516" stop-color="#D8A956"/>
<stop offset="1" stop-color="#AB750F"/>
</linearGradient>
<linearGradient id="paint13_linear_2252_91081" x1="10.4759" y1="9.88354" x2="10.4759" y2="105" gradientUnits="userSpaceOnUse">
<stop stop-color="#AB750F"/>
<stop offset="0.516" stop-color="#D8A956"/>
<stop offset="1" stop-color="#AB750F"/>
</linearGradient>
<linearGradient id="paint14_linear_2252_91081" x1="4.5" y1="4" x2="4.5" y2="22" gradientUnits="userSpaceOnUse">
<stop stop-color="#AB750F"/>
<stop offset="0.516" stop-color="#D8A956"/>
<stop offset="1" stop-color="#AB750F"/>
</linearGradient>
<linearGradient id="paint15_linear_2252_91081" x1="49.5" y1="48.5" x2="50.5" y2="49.5" gradientUnits="userSpaceOnUse">
<stop stop-color="#AB750F"/>
<stop offset="0.516" stop-color="#D8A956"/>
<stop offset="1" stop-color="#AB750F"/>
</linearGradient>
<linearGradient id="paint16_linear_2252_91081" x1="49.5" y1="70.5" x2="50.5" y2="71.5" gradientUnits="userSpaceOnUse">
<stop stop-color="#AB750F"/>
<stop offset="0.516" stop-color="#D8A956"/>
<stop offset="1" stop-color="#AB750F"/>
</linearGradient>
<linearGradient id="paint17_linear_2252_91081" x1="60.5" y1="59.5" x2="61.5" y2="60.5" gradientUnits="userSpaceOnUse">
<stop stop-color="#AB750F"/>
<stop offset="0.516" stop-color="#D8A956"/>
<stop offset="1" stop-color="#AB750F"/>
</linearGradient>
<linearGradient id="paint18_linear_2252_91081" x1="38.5" y1="59.5" x2="39.5" y2="60.5" gradientUnits="userSpaceOnUse">
<stop stop-color="#AB750F"/>
<stop offset="0.516" stop-color="#D8A956"/>
<stop offset="1" stop-color="#AB750F"/>
</linearGradient>
<linearGradient id="paint19_linear_2252_91081" x1="41.2053" y1="114.5" x2="59.311" y2="114.5" gradientUnits="userSpaceOnUse">
<stop stop-color="#AB750F"/>
<stop offset="0.516" stop-color="#D8A956"/>
<stop offset="1" stop-color="#AB750F"/>
</linearGradient>
<linearGradient id="paint20_linear_2252_91081" x1="43.8763" y1="105.6" x2="55.8048" y2="105.6" gradientUnits="userSpaceOnUse">
<stop stop-color="#AB750F"/>
<stop offset="0.516" stop-color="#D8A956"/>
<stop offset="1" stop-color="#AB750F"/>
</linearGradient>
<clipPath id="clip0_2252_91081">
<rect width="16" height="16" fill="white" transform="translate(42 100)"/>
</clipPath>
<clipPath id="clip1_2252_91081">
<rect width="11.2" height="11.2" fill="white" transform="translate(44.3999 100)"/>
</clipPath>
</defs>
</svg>
