<svg width="100" height="130" viewBox="0 0 100 130" fill="none" xmlns="http://www.w3.org/2000/svg">
<g id="empty-gold">
<g id="Rectangle 213" filter="url(#filter0_b_2252_91048)">
<mask id="path-1-inside-1_2252_91048" fill="white">
<path d="M12 4H88V130H12V4Z"/>
</mask>
<path d="M12 4H88V130H12V4Z" fill="url(#paint0_linear_2252_91048)" fill-opacity="0.2"/>
<path d="M12 4V3.34148H11.3415V4H12ZM88 4H88.6585V3.34148H88V4ZM12 4.65852H88V3.34148H12V4.65852ZM87.3415 4V130H88.6585V4H87.3415ZM12.6585 130V4H11.3415V130H12.6585Z" fill="url(#paint1_linear_2252_91048)" mask="url(#path-1-inside-1_2252_91048)"/>
</g>
<rect id="Rectangle 214" x="12" y="4" width="76" height="3" fill="url(#paint2_linear_2252_91048)"/>
<path id="Vector (Stroke)" fill-rule="evenodd" clip-rule="evenodd" d="M50 49.5983L39.5983 60L50 70.4017L60.4017 60L50 49.5983ZM50 49L61 60L50 71L39 60L50 49Z" fill="url(#paint3_linear_2252_91048)"/>
<g id="question_mark">
<path id="question_mark_2" d="M49.6025 61.0596C49.6025 60.5985 49.6556 60.2456 49.7619 60.0007C49.8681 59.7558 50.0899 59.4842 50.4273 59.1861C50.6899 58.9522 50.8889 58.7401 51.0244 58.5497C51.1599 58.3594 51.2277 58.1436 51.2277 57.9024C51.2277 57.5823 51.1187 57.3163 50.9007 57.1043C50.6827 56.8923 50.3826 56.7863 50.0003 56.7863C49.6516 56.7863 49.3801 56.8798 49.1858 57.0667C48.9916 57.2536 48.8441 57.4622 48.7433 57.6925L48 57.3659C48.1582 56.9759 48.4052 56.6507 48.7409 56.3904C49.0767 56.1301 49.4965 56 50.0003 56C50.6582 56 51.1646 56.1855 51.5194 56.5564C51.8742 56.9274 52.0516 57.3677 52.0516 57.8773C52.0516 58.1958 51.9825 58.4769 51.8445 58.7205C51.7063 58.964 51.4968 59.2177 51.2159 59.4814C50.8624 59.8056 50.6435 60.0613 50.5592 60.2485C50.4748 60.4357 50.4327 60.7061 50.4327 61.0596H49.6025ZM50.0003 63.3936C49.8338 63.3936 49.6903 63.3334 49.5699 63.213C49.4496 63.0927 49.3894 62.9492 49.3894 62.7827C49.3894 62.6161 49.4496 62.4726 49.5699 62.3523C49.6903 62.2319 49.8338 62.1717 50.0003 62.1717C50.1669 62.1717 50.3104 62.2319 50.4307 62.3523C50.5511 62.4726 50.6112 62.6161 50.6112 62.7827C50.6112 62.9492 50.5511 63.0927 50.4307 63.213C50.3104 63.3334 50.1669 63.3936 50.0003 63.3936Z" fill="url(#paint4_linear_2252_91048)"/>
</g>
<g id="Group 221">
<path id="Vector 145" d="M100 101L76.0491 130H80.0002L100 104.951V101Z" fill="url(#paint5_linear_2252_91048)"/>
<path id="Vector 146" d="M99 109.178L82 130H84.8222L99 112V109.178Z" fill="url(#paint6_linear_2252_91048)"/>
<path id="Vector 149 (Stroke)" fill-rule="evenodd" clip-rule="evenodd" d="M91 107V10H91.5V107L73.5 130H73L91 107Z" fill="url(#paint7_linear_2252_91048)"/>
<path id="Vector 150 (Stroke)" opacity="0.5" fill-rule="evenodd" clip-rule="evenodd" d="M93.8353 19.0681L84.8835 10.1164L85.1164 9.88354L94.1646 18.9318V105H93.8353V19.0681Z" fill="url(#paint8_linear_2252_91048)"/>
<path id="Vector 153" opacity="0.3" d="M100 4H91V9H95V22H100V4Z" fill="url(#paint9_linear_2252_91048)"/>
</g>
<g id="Group 222">
<path id="Vector 145_2" d="M0 101L23.9509 130H19.9998L0 104.951V101Z" fill="url(#paint10_linear_2252_91048)"/>
<path id="Vector 146_2" d="M1 109.178L18 130H15.1778L1 112V109.178Z" fill="url(#paint11_linear_2252_91048)"/>
<path id="Vector 149 (Stroke)_2" fill-rule="evenodd" clip-rule="evenodd" d="M9 107V10H8.5V107L26.5 130H27L9 107Z" fill="url(#paint12_linear_2252_91048)"/>
<path id="Vector 150 (Stroke)_2" opacity="0.5" fill-rule="evenodd" clip-rule="evenodd" d="M6.16467 19.0681L15.1165 10.1164L14.8836 9.88354L5.83541 18.9318V105H6.16467V19.0681Z" fill="url(#paint13_linear_2252_91048)"/>
<path id="Vector 153_2" opacity="0.3" d="M0 4H9V9H5V22H0V4Z" fill="url(#paint14_linear_2252_91048)"/>
</g>
<g id="diamond">
<path id="Polygon 38" d="M50 0L53 6L50 10L47 6L50 0Z" fill="#AB750F"/>
<path id="Vector 108" d="M47 6L50 0V10L47 6Z" fill="#FFC502"/>
<path id="highlight" d="M49.9621 1.27934L53 6L50 9.29832e-05C48.8284 2.3432 48.1716 3.65689 47 6L49.9621 1.27934Z" fill="white" fill-opacity="0.3"/>
</g>
<path id="Vector" d="M50 48L49 49L50 50L51 49L50 48Z" fill="url(#paint15_linear_2252_91048)"/>
<path id="Vector_2" d="M50 70L49 71L50 72L51 71L50 70Z" fill="url(#paint16_linear_2252_91048)"/>
<path id="Vector_3" d="M61 59L60 60L61 61L62 60L61 59Z" fill="url(#paint17_linear_2252_91048)"/>
<path id="Vector_4" d="M39 59L38 60L39 61L40 60L39 59Z" fill="url(#paint18_linear_2252_91048)"/>
<g id="icon-gold" clip-path="url(#clip0_2252_91048)">
<path id="GOLD" d="M46.0216 116.038C45.8117 116.038 45.6184 116.005 45.4418 115.939C45.2677 115.869 45.1154 115.773 44.9848 115.651C44.8543 115.525 44.7532 115.378 44.6815 115.209C44.6098 115.04 44.574 114.856 44.574 114.656C44.574 114.456 44.6098 114.272 44.6815 114.103C44.7532 113.934 44.8543 113.788 44.9848 113.665C45.118 113.54 45.2728 113.444 45.4495 113.377C45.6261 113.308 45.8194 113.274 46.0293 113.274C46.2572 113.274 46.462 113.311 46.6437 113.385C46.828 113.459 46.9829 113.568 47.1084 113.711L46.7935 114.019C46.6885 113.914 46.5746 113.837 46.4517 113.788C46.3314 113.737 46.1983 113.711 46.0524 113.711C45.9116 113.711 45.781 113.734 45.6607 113.78C45.5404 113.827 45.4367 113.892 45.3496 113.976C45.2626 114.061 45.1948 114.161 45.1461 114.276C45.1 114.391 45.077 114.518 45.077 114.656C45.077 114.792 45.1 114.917 45.1461 115.032C45.1948 115.148 45.2626 115.249 45.3496 115.336C45.4367 115.42 45.5391 115.485 45.6568 115.532C45.7746 115.578 45.9052 115.601 46.0485 115.601C46.1816 115.601 46.3096 115.58 46.4325 115.539C46.558 115.496 46.677 115.424 46.7896 115.324L47.0738 115.697C46.933 115.809 46.7692 115.895 46.5823 115.954C46.398 116.01 46.2111 116.038 46.0216 116.038ZM46.6015 115.631V114.625H47.0738V115.697L46.6015 115.631ZM48.9917 116.038C48.7818 116.038 48.5885 116.004 48.4119 115.935C48.2352 115.866 48.0816 115.77 47.9511 115.647C47.8205 115.521 47.7194 115.375 47.6477 115.209C47.576 115.04 47.5402 114.856 47.5402 114.656C47.5402 114.456 47.576 114.273 47.6477 114.107C47.7194 113.938 47.8205 113.792 47.9511 113.669C48.0816 113.544 48.2352 113.446 48.4119 113.377C48.5885 113.308 48.7805 113.274 48.9879 113.274C49.1978 113.274 49.3898 113.308 49.5639 113.377C49.7405 113.446 49.8941 113.544 50.0247 113.669C50.1552 113.792 50.2564 113.938 50.328 114.107C50.3997 114.273 50.4356 114.456 50.4356 114.656C50.4356 114.856 50.3997 115.04 50.328 115.209C50.2564 115.378 50.1552 115.524 50.0247 115.647C49.8941 115.77 49.7405 115.866 49.5639 115.935C49.3898 116.004 49.1991 116.038 48.9917 116.038ZM48.9879 115.601C49.1236 115.601 49.249 115.578 49.3642 115.532C49.4794 115.485 49.5792 115.42 49.6637 115.336C49.7482 115.249 49.8135 115.149 49.8596 115.036C49.9082 114.921 49.9325 114.794 49.9325 114.656C49.9325 114.518 49.9082 114.392 49.8596 114.28C49.8135 114.164 49.7482 114.065 49.6637 113.98C49.5792 113.893 49.4794 113.827 49.3642 113.78C49.249 113.734 49.1236 113.711 48.9879 113.711C48.8522 113.711 48.7268 113.734 48.6116 113.78C48.4989 113.827 48.3991 113.893 48.312 113.98C48.2276 114.065 48.161 114.164 48.1124 114.28C48.0663 114.392 48.0432 114.518 48.0432 114.656C48.0432 114.792 48.0663 114.917 48.1124 115.032C48.161 115.148 48.2276 115.249 48.312 115.336C48.3965 115.42 48.4964 115.485 48.6116 115.532C48.7268 115.578 48.8522 115.601 48.9879 115.601ZM50.9647 116V113.312H51.4639V115.578H52.8693V116H50.9647ZM53.2634 116V113.312H54.4385C54.7303 113.312 54.9863 113.368 55.2065 113.481C55.4266 113.594 55.5982 113.75 55.721 113.949C55.8439 114.149 55.9054 114.385 55.9054 114.656C55.9054 114.925 55.8439 115.16 55.721 115.363C55.5982 115.562 55.4266 115.718 55.2065 115.831C54.9863 115.944 54.7303 116 54.4385 116H53.2634ZM53.7626 115.578H54.4154C54.6177 115.578 54.7918 115.539 54.9377 115.462C55.0862 115.386 55.2001 115.278 55.2794 115.14C55.3614 115.002 55.4023 114.84 55.4023 114.656C55.4023 114.469 55.3614 114.308 55.2794 114.172C55.2001 114.034 55.0862 113.926 54.9377 113.85C54.7918 113.773 54.6177 113.734 54.4154 113.734H53.7626V115.578Z" fill="url(#paint19_linear_2252_91048)"/>
<g id="Gold" clip-path="url(#clip1_2252_91048)">
<path id="Union" fill-rule="evenodd" clip-rule="evenodd" d="M54.0646 102.074L52.1203 103.467C52.1203 103.467 50.3057 101.069 47.8429 103.046L46.725 101.928C46.725 101.928 47.8578 100.625 48.9919 100.56V100H50.7839V100.56C50.7833 100.56 50.7837 100.56 50.7851 100.56C50.835 100.562 52.204 100.623 54.0646 102.074ZM45.9263 109.126L47.8706 107.733C47.8706 107.733 49.6852 110.131 52.148 108.154L53.2659 109.272C53.2659 109.272 52.1421 110.575 51.0079 110.64V111.2H49.2159V110.64C49.2159 110.64 47.8382 110.617 45.9263 109.126ZM50.0112 104.828C46.4467 104.731 46.4739 102.22 46.4739 102.22C45.744 102.8 44.8479 106.481 49.2307 106.481C53.248 106.481 53.6405 108.944 53.6405 108.944C55.2608 106.837 53.5757 104.926 50.0112 104.828Z" fill="url(#paint20_linear_2252_91048)"/>
</g>
</g>
</g>
<defs>
<filter id="filter0_b_2252_91048" x="7.45139" y="-0.548611" width="85.0972" height="135.097" filterUnits="userSpaceOnUse" color-interpolation-filters="sRGB">
<feFlood flood-opacity="0" result="BackgroundImageFix"/>
<feGaussianBlur in="BackgroundImageFix" stdDeviation="2.27431"/>
<feComposite in2="SourceAlpha" operator="in" result="effect1_backgroundBlur_2252_91048"/>
<feBlend mode="normal" in="SourceGraphic" in2="effect1_backgroundBlur_2252_91048" result="shape"/>
</filter>
<linearGradient id="paint0_linear_2252_91048" x1="50" y1="4" x2="50" y2="130" gradientUnits="userSpaceOnUse">
<stop stop-color="#AB750F"/>
<stop offset="1" stop-color="#997601" stop-opacity="0"/>
</linearGradient>
<linearGradient id="paint1_linear_2252_91048" x1="50" y1="4" x2="50" y2="142.866" gradientUnits="userSpaceOnUse">
<stop stop-color="#D1A14A"/>
<stop offset="1" stop-color="#D1A14A" stop-opacity="0"/>
</linearGradient>
<linearGradient id="paint2_linear_2252_91048" x1="8.44715" y1="5.50001" x2="89.3902" y2="5.50003" gradientUnits="userSpaceOnUse">
<stop stop-color="#AB750F"/>
<stop offset="0.516" stop-color="#D8A956"/>
<stop offset="1" stop-color="#AB750F"/>
</linearGradient>
<linearGradient id="paint3_linear_2252_91048" x1="43.9858" y1="66.0143" x2="55.7013" y2="54.2988" gradientUnits="userSpaceOnUse">
<stop stop-color="#AB750F"/>
<stop offset="0.516" stop-color="#D8A956"/>
<stop offset="1" stop-color="#AB750F"/>
</linearGradient>
<linearGradient id="paint4_linear_2252_91048" x1="50.0258" y1="56" x2="50.0258" y2="63.3936" gradientUnits="userSpaceOnUse">
<stop stop-color="#AB750F"/>
<stop offset="0.516" stop-color="#D8A956"/>
<stop offset="1" stop-color="#AB750F"/>
</linearGradient>
<linearGradient id="paint5_linear_2252_91048" x1="74.9294" y1="115.5" x2="100.438" y2="115.5" gradientUnits="userSpaceOnUse">
<stop stop-color="#AB750F"/>
<stop offset="0.516" stop-color="#D8A956"/>
<stop offset="1" stop-color="#AB750F"/>
</linearGradient>
<linearGradient id="paint6_linear_2252_91048" x1="81.2053" y1="119.589" x2="99.311" y2="119.589" gradientUnits="userSpaceOnUse">
<stop stop-color="#AB750F"/>
<stop offset="0.516" stop-color="#D8A956"/>
<stop offset="1" stop-color="#AB750F"/>
</linearGradient>
<linearGradient id="paint7_linear_2252_91048" x1="72.1352" y1="70.0005" x2="91.8384" y2="70.0005" gradientUnits="userSpaceOnUse">
<stop stop-color="#AB750F"/>
<stop offset="0.516" stop-color="#D8A956"/>
<stop offset="1" stop-color="#AB750F"/>
</linearGradient>
<linearGradient id="paint8_linear_2252_91048" x1="89.5241" y1="9.88354" x2="89.5241" y2="105" gradientUnits="userSpaceOnUse">
<stop stop-color="#AB750F"/>
<stop offset="0.516" stop-color="#D8A956"/>
<stop offset="1" stop-color="#AB750F"/>
</linearGradient>
<linearGradient id="paint9_linear_2252_91048" x1="95.5" y1="4" x2="95.5" y2="22" gradientUnits="userSpaceOnUse">
<stop stop-color="#AB750F"/>
<stop offset="0.516" stop-color="#D8A956"/>
<stop offset="1" stop-color="#AB750F"/>
</linearGradient>
<linearGradient id="paint10_linear_2252_91048" x1="25.0706" y1="115.5" x2="-0.438125" y2="115.5" gradientUnits="userSpaceOnUse">
<stop stop-color="#AB750F"/>
<stop offset="0.516" stop-color="#D8A956"/>
<stop offset="1" stop-color="#AB750F"/>
</linearGradient>
<linearGradient id="paint11_linear_2252_91048" x1="18.7947" y1="119.589" x2="0.689025" y2="119.589" gradientUnits="userSpaceOnUse">
<stop stop-color="#AB750F"/>
<stop offset="0.516" stop-color="#D8A956"/>
<stop offset="1" stop-color="#AB750F"/>
</linearGradient>
<linearGradient id="paint12_linear_2252_91048" x1="27.8648" y1="70.0005" x2="8.16159" y2="70.0005" gradientUnits="userSpaceOnUse">
<stop stop-color="#AB750F"/>
<stop offset="0.516" stop-color="#D8A956"/>
<stop offset="1" stop-color="#AB750F"/>
</linearGradient>
<linearGradient id="paint13_linear_2252_91048" x1="10.4759" y1="9.88354" x2="10.4759" y2="105" gradientUnits="userSpaceOnUse">
<stop stop-color="#AB750F"/>
<stop offset="0.516" stop-color="#D8A956"/>
<stop offset="1" stop-color="#AB750F"/>
</linearGradient>
<linearGradient id="paint14_linear_2252_91048" x1="4.5" y1="4" x2="4.5" y2="22" gradientUnits="userSpaceOnUse">
<stop stop-color="#AB750F"/>
<stop offset="0.516" stop-color="#D8A956"/>
<stop offset="1" stop-color="#AB750F"/>
</linearGradient>
<linearGradient id="paint15_linear_2252_91048" x1="49.5" y1="48.5" x2="50.5" y2="49.5" gradientUnits="userSpaceOnUse">
<stop stop-color="#AB750F"/>
<stop offset="0.516" stop-color="#D8A956"/>
<stop offset="1" stop-color="#AB750F"/>
</linearGradient>
<linearGradient id="paint16_linear_2252_91048" x1="49.5" y1="70.5" x2="50.5" y2="71.5" gradientUnits="userSpaceOnUse">
<stop stop-color="#AB750F"/>
<stop offset="0.516" stop-color="#D8A956"/>
<stop offset="1" stop-color="#AB750F"/>
</linearGradient>
<linearGradient id="paint17_linear_2252_91048" x1="60.5" y1="59.5" x2="61.5" y2="60.5" gradientUnits="userSpaceOnUse">
<stop stop-color="#AB750F"/>
<stop offset="0.516" stop-color="#D8A956"/>
<stop offset="1" stop-color="#AB750F"/>
</linearGradient>
<linearGradient id="paint18_linear_2252_91048" x1="38.5" y1="59.5" x2="39.5" y2="60.5" gradientUnits="userSpaceOnUse">
<stop stop-color="#AB750F"/>
<stop offset="0.516" stop-color="#D8A956"/>
<stop offset="1" stop-color="#AB750F"/>
</linearGradient>
<linearGradient id="paint19_linear_2252_91048" x1="43.679" y1="114.5" x2="56.4595" y2="114.5" gradientUnits="userSpaceOnUse">
<stop stop-color="#AB750F"/>
<stop offset="0.516" stop-color="#D8A956"/>
<stop offset="1" stop-color="#AB750F"/>
</linearGradient>
<linearGradient id="paint20_linear_2252_91048" x1="45.4744" y1="105.6" x2="54.4126" y2="105.6" gradientUnits="userSpaceOnUse">
<stop stop-color="#AB750F"/>
<stop offset="0.516" stop-color="#D8A956"/>
<stop offset="1" stop-color="#AB750F"/>
</linearGradient>
<clipPath id="clip0_2252_91048">
<rect width="16" height="16" fill="white" transform="translate(42 100)"/>
</clipPath>
<clipPath id="clip1_2252_91048">
<rect width="11.2" height="11.2" fill="white" transform="translate(44.3999 100)"/>
</clipPath>
</defs>
</svg>
