<svg width="31" height="31" viewBox="0 0 31 31" fill="none" xmlns="http://www.w3.org/2000/svg">
<g id="toncoin-ton-logo 1">
<path id="Vector" d="M15.5 30.1321C23.8207 30.1321 30.566 23.3868 30.566 15.066C30.566 6.74529 23.8207 0 15.5 0C7.17925 0 0.43396 6.74529 0.43396 15.066C0.43396 23.3868 7.17925 30.1321 15.5 30.1321Z" fill="#0088CC"/>
<path id="Vector_2" fill-rule="evenodd" clip-rule="evenodd" d="M11.303 9.9541H19.7507C20.0736 9.9541 20.3426 10.0079 20.6654 10.1693C21.0421 10.3308 21.2573 10.5998 21.3649 10.815C21.3649 10.815 21.3649 10.8688 21.4187 10.8688C21.5802 11.1379 21.6878 11.4607 21.6878 11.8374C21.6878 12.1602 21.634 12.483 21.4187 12.8059L16.0918 21.9531C15.9842 22.1683 15.769 22.276 15.5 22.276C15.2847 22.276 15.0695 22.1683 14.9081 21.9531L9.68877 12.8059C9.58115 12.5907 9.36593 12.3216 9.36593 11.8912C9.31212 11.5145 9.41973 11.1917 9.58115 10.8688C9.74258 10.546 10.0116 10.2769 10.3883 10.1693C10.7111 9.9541 11.0878 9.9541 11.303 9.9541ZM14.8543 11.2455H11.303C11.0878 11.2455 10.9801 11.2455 10.9263 11.2993C10.8187 11.3531 10.7649 11.4069 10.7111 11.5145C10.6573 11.5683 10.6573 11.6759 10.6573 11.7835C10.6573 11.8374 10.7111 11.8912 10.8187 12.1064L14.8543 19.1013V11.2455ZM16.1456 11.2455V19.1551L20.235 12.1064C20.2888 11.9988 20.2888 11.8912 20.2888 11.7835C20.2888 11.6759 20.2888 11.5683 20.235 11.5145C20.1812 11.4607 20.1812 11.4069 20.1274 11.4069L20.0736 11.3531C19.966 11.2993 19.8583 11.2993 19.6969 11.2993H16.1456V11.2455Z" fill="white"/>
</g>
</svg>
