<svg width="100" height="100" viewBox="0 0 100 100" fill="none" xmlns="http://www.w3.org/2000/svg">
<g id="mint-btn" clip-path="url(#clip0_131_23968)">
<circle id="Ellipse 41" cx="50" cy="50" r="48" stroke="url(#paint0_linear_131_23968)" stroke-width="4"/>
<circle id="Ellipse 42" cx="50" cy="50" r="42" fill="url(#paint1_linear_131_23968)"/>
<path id="MINT" d="M39.1322 70.4363L36.776 74.6438H34.4198L32.0636 70.4363V77H29.0342V65.219H32.2319L35.5979 71.4461L38.9639 65.219H42.1616V77H39.1322V70.4363ZM49.7417 77H43.6829V74.6438H45.1976V67.5752H43.6829V65.219H49.7417V67.5752H48.227V74.6438H49.7417V77ZM61.5213 77H58.3236L54.2844 69.9314V77H51.255V65.219H54.4527L58.4919 72.2876V65.219H61.5213V77ZM69.271 77H66.2416V67.5752H62.7073V65.219H72.8053V67.5752H69.271V77Z" fill="#F5F1EE"/>
<g id="deployed_code">
<mask id="mask0_131_23968" style="mask-type:alpha" maskUnits="userSpaceOnUse" x="25" y="14" width="50" height="50">
<rect id="Bounding box" x="25" y="14" width="49.5" height="49.5" fill="#D9D9D9"/>
</mask>
<g mask="url(#mask0_131_23968)">
<path id="deployed_code_2" d="M48.4844 54.3615V39.6383L35.5938 32.1736V46.5399C35.5938 46.6455 35.6202 46.7446 35.6732 46.8375C35.7261 46.9299 35.8053 47.0092 35.9109 47.0752L48.4844 54.3615ZM51.5781 54.3615L64.1516 47.0752C64.2572 47.0092 64.3364 46.9299 64.3893 46.8375C64.4423 46.7446 64.4688 46.6455 64.4688 46.5399V32.1736L51.5781 39.6383V54.3615ZM50.0312 36.973L62.7672 29.6115L50.3484 22.4283C50.2428 22.3623 50.1371 22.3293 50.0312 22.3293C49.9254 22.3293 49.8197 22.3623 49.7141 22.4283L37.2953 29.6115L50.0312 36.973ZM34.3645 49.792C33.7774 49.4537 33.3198 49.0017 32.9919 48.4359C32.664 47.8697 32.5 47.2482 32.5 46.5714V30.9284C32.5 30.2515 32.664 29.63 32.9919 29.0639C33.3198 28.4981 33.7774 28.046 34.3645 27.7078L48.1673 19.763C48.754 19.4244 49.3754 19.2551 50.0312 19.2551C50.6871 19.2551 51.3085 19.4244 51.8952 19.763L65.698 27.7078C66.2851 28.046 66.7427 28.4981 67.0706 29.0639C67.3985 29.63 67.5625 30.2515 67.5625 30.9284V46.5714C67.5625 47.2482 67.3985 47.8697 67.0706 48.4359C66.7427 49.0017 66.2851 49.4537 65.698 49.792L51.8952 57.7367C51.3085 58.0753 50.6871 58.2446 50.0312 58.2446C49.3754 58.2446 48.754 58.0753 48.1673 57.7367L34.3645 49.792Z" fill="#F5F1EE"/>
</g>
</g>
</g>
<defs>
<linearGradient id="paint0_linear_131_23968" x1="50" y1="0" x2="50" y2="100" gradientUnits="userSpaceOnUse">
<stop stop-color="#AB750F"/>
<stop offset="0.516" stop-color="#D8A956"/>
<stop offset="1" stop-color="#AB750F"/>
</linearGradient>
<linearGradient id="paint1_linear_131_23968" x1="50" y1="8" x2="50" y2="92" gradientUnits="userSpaceOnUse">
<stop stop-color="#AB750F"/>
<stop offset="0.516" stop-color="#D8A956"/>
<stop offset="1" stop-color="#AB750F"/>
</linearGradient>
<clipPath id="clip0_131_23968">
<rect width="100" height="100" fill="white"/>
</clipPath>
</defs>
</svg>
