<svg width="100" height="100" viewBox="0 0 100 100" fill="none" xmlns="http://www.w3.org/2000/svg">
<g id="Group 203">
<g id="Group 196">
<path id="Vector 215" d="M41.5 91.5L34 100L3.5 76.5L11 69L41.5 91.5Z" fill="url(#paint0_linear_2158_30556)"/>
<path id="Vector 219" d="M58.5 91.5L66 100L96.5 76.5L89 69L58.5 91.5Z" fill="url(#paint1_linear_2158_30556)"/>
<path id="Union" fill-rule="evenodd" clip-rule="evenodd" d="M20 69.5L50 91L80 69.5V35H50H20V69.5ZM50 44H36V46H50H64V44H50ZM50 50H36V52H50H64V50H50ZM50 56H36V58H50H64V56H50Z" fill="url(#paint2_linear_2158_30556)"/>
<path id="Union_2" fill-rule="evenodd" clip-rule="evenodd" d="M8 31H50H92V18H50H8V31Z" fill="url(#paint3_linear_2158_30556)"/>
<path id="Union_3" fill-rule="evenodd" clip-rule="evenodd" d="M50 0L32 18H37L50 5L63 18H68L50 0Z" fill="url(#paint4_linear_2158_30556)"/>
<path id="Vector 217" d="M7.5 15L0 23.5L7.5 33L15 23.5L7.5 15Z" fill="url(#paint5_linear_2158_30556)"/>
<path id="Vector 220" d="M92.5 15L100 23.5L92.5 33L85 23.5L92.5 15Z" fill="url(#paint6_linear_2158_30556)"/>
</g>
</g>
<defs>
<linearGradient id="paint0_linear_2158_30556" x1="22.5" y1="69" x2="22.5" y2="100" gradientUnits="userSpaceOnUse">
<stop stop-color="#AB750F"/>
<stop offset="0.516" stop-color="#D8A956"/>
<stop offset="1" stop-color="#AB750F"/>
</linearGradient>
<linearGradient id="paint1_linear_2158_30556" x1="77.5" y1="69" x2="77.5" y2="100" gradientUnits="userSpaceOnUse">
<stop stop-color="#AB750F"/>
<stop offset="0.516" stop-color="#D8A956"/>
<stop offset="1" stop-color="#AB750F"/>
</linearGradient>
<linearGradient id="paint2_linear_2158_30556" x1="50" y1="35" x2="50" y2="91" gradientUnits="userSpaceOnUse">
<stop stop-color="#AB750F"/>
<stop offset="0.516" stop-color="#D8A956"/>
<stop offset="1" stop-color="#AB750F"/>
</linearGradient>
<linearGradient id="paint3_linear_2158_30556" x1="50" y1="18" x2="50" y2="31" gradientUnits="userSpaceOnUse">
<stop stop-color="#AB750F"/>
<stop offset="0.516" stop-color="#D8A956"/>
<stop offset="1" stop-color="#AB750F"/>
</linearGradient>
<linearGradient id="paint4_linear_2158_30556" x1="50" y1="0" x2="50" y2="18" gradientUnits="userSpaceOnUse">
<stop stop-color="#AB750F"/>
<stop offset="0.52" stop-color="#D8A956"/>
<stop offset="1" stop-color="#AB750F"/>
</linearGradient>
<linearGradient id="paint5_linear_2158_30556" x1="1.63585e-08" y1="16.0552" x2="17.6829" y2="30.6893" gradientUnits="userSpaceOnUse">
<stop stop-color="#AB750F"/>
<stop offset="0.484" stop-color="#D8A956"/>
<stop offset="1" stop-color="#AB750F"/>
</linearGradient>
<linearGradient id="paint6_linear_2158_30556" x1="100" y1="16.0552" x2="82.3171" y2="30.6893" gradientUnits="userSpaceOnUse">
<stop stop-color="#AB750F"/>
<stop offset="0.484" stop-color="#D8A956"/>
<stop offset="1" stop-color="#AB750F"/>
</linearGradient>
</defs>
</svg>
