<svg width="100" height="100" viewBox="0 0 100 100" fill="none" xmlns="http://www.w3.org/2000/svg">
<g id="Group 208">
<g id="Group 207">
<path id="Union" fill-rule="evenodd" clip-rule="evenodd" d="M50 19L19 50L50 81L81 50L50 19ZM50 29L37 42L50 55L63 42L50 29ZM50 62L34 46L29.5 50.5L50 71L70.5 50.5L66 46L50 62Z" fill="url(#paint0_linear_2158_30586)"/>
<path id="Union_2" fill-rule="evenodd" clip-rule="evenodd" d="M50 88L37 75H31V69L15 54V46H9C9 46 7.10457 46.1046 6 45C4.89543 43.8954 5 42 5 42V32L12 20V0L6 4V16L0 25V51L4 57H7L12 66V81H33L40 100H50H60L67 81H88V66L93 57H96L100 51V25L94 16V4L88 0V20L95 32V42C95 42 95.1046 43.8954 94 45C92.8954 46.1046 91 46 91 46H85V54L69 69V75H63L50 88Z" fill="url(#paint1_linear_2158_30586)"/>
<path id="Vector 225" d="M35 100L30 85H12L6 100H35Z" fill="url(#paint2_linear_2158_30586)"/>
<path id="Vector 233" d="M65 100L70 85H88L94 100H65Z" fill="url(#paint3_linear_2158_30586)"/>
<path id="Union_3" fill-rule="evenodd" clip-rule="evenodd" d="M14 22L18 14H50H82L86 22H57L50 15L43 22H14Z" fill="url(#paint4_linear_2158_30586)"/>
<path id="Vector 230" d="M8 33L12.5 26H38L24 40H8V33Z" fill="url(#paint5_linear_2158_30586)"/>
<path id="Vector 232" d="M92 33L87.5 26H62L76 40H92V33Z" fill="url(#paint6_linear_2158_30586)"/>
</g>
</g>
<defs>
<linearGradient id="paint0_linear_2158_30586" x1="50" y1="19" x2="50" y2="81" gradientUnits="userSpaceOnUse">
<stop stop-color="#AB750F"/>
<stop offset="0.516" stop-color="#D8A956"/>
<stop offset="1" stop-color="#AB750F"/>
</linearGradient>
<linearGradient id="paint1_linear_2158_30586" x1="50" y1="0" x2="50" y2="100" gradientUnits="userSpaceOnUse">
<stop stop-color="#AB750F"/>
<stop offset="0.516" stop-color="#D8A956"/>
<stop offset="1" stop-color="#AB750F"/>
</linearGradient>
<linearGradient id="paint2_linear_2158_30586" x1="20.5" y1="85" x2="20.5" y2="100" gradientUnits="userSpaceOnUse">
<stop stop-color="#AB750F"/>
<stop offset="0.516" stop-color="#D8A956"/>
<stop offset="1" stop-color="#AB750F"/>
</linearGradient>
<linearGradient id="paint3_linear_2158_30586" x1="79.5" y1="85" x2="79.5" y2="100" gradientUnits="userSpaceOnUse">
<stop stop-color="#AB750F"/>
<stop offset="0.516" stop-color="#D8A956"/>
<stop offset="1" stop-color="#AB750F"/>
</linearGradient>
<linearGradient id="paint4_linear_2158_30586" x1="50" y1="14" x2="50" y2="22" gradientUnits="userSpaceOnUse">
<stop stop-color="#AB750F"/>
<stop offset="0.516" stop-color="#D8A956"/>
<stop offset="1" stop-color="#AB750F"/>
</linearGradient>
<linearGradient id="paint5_linear_2158_30586" x1="23" y1="26" x2="23" y2="40" gradientUnits="userSpaceOnUse">
<stop stop-color="#AB750F"/>
<stop offset="0.516" stop-color="#D8A956"/>
<stop offset="1" stop-color="#AB750F"/>
</linearGradient>
<linearGradient id="paint6_linear_2158_30586" x1="77" y1="26" x2="77" y2="40" gradientUnits="userSpaceOnUse">
<stop stop-color="#AB750F"/>
<stop offset="0.516" stop-color="#D8A956"/>
<stop offset="1" stop-color="#AB750F"/>
</linearGradient>
</defs>
</svg>
