<svg width="100" height="130" viewBox="0 0 100 130" fill="none" xmlns="http://www.w3.org/2000/svg">
<g id="loading-athlete">
<g id="local-warrior">
<path id="1 back" fill-rule="evenodd" clip-rule="evenodd" d="M50 16L16 7L19 17V102H11L10 108L45 125V120L50 122L55 120V125L90 108L89 102H81V17L84 7L50 16Z" fill="#E1CFB2"/>
<path id="3 base" fill-rule="evenodd" clip-rule="evenodd" d="M10 105L50 122L90 105V27C90 20.5 94 18 94 18L90 19L95 8L50 19L5 8L10 19L6 18C6 18 10 20.5 10 27V105Z" fill="#EBE5DB"/>
<g id="Frame 62" clip-path="url(#clip0_2003_2)">
<path id="Vector 316" d="M40.15 42H43.75V45.15L40.15 42Z" fill="#E1CFB2"/>
<g id="Subtract">
<path d="M54.6316 76.0811L28 87L35.2 73.725L52.4137 66.6551L54.6316 76.0811Z" fill="#E1CFB2"/>
<path d="M54.0999 65.9625L65.9354 61.1016L69.1842 70.1145L56.3181 75.3896L54.0999 65.9625Z" fill="#E1CFB2"/>
<path d="M70.8512 69.431L67.602 60.417L73 58.2L70.8512 69.431Z" fill="#E1CFB2"/>
</g>
<path id="Subtract_2" fill-rule="evenodd" clip-rule="evenodd" d="M73 80.7L59.05 42H43.75L40.8314 50.3387L48.475 48.525L39.0662 55.3823L28 87L43.3 80.7L51.85 56.4L59.05 87L73 80.7Z" fill="#E1CFB2"/>
</g>
<path id="16 Ouline (Stroke)" fill-rule="evenodd" clip-rule="evenodd" d="M8.38344 20.6574C7.27356 18.796 6 18 6 18L10 19L5 8L50 18L95 8L90 19L94 18C94 18 92.7264 18.796 91.6166 20.6574C90.7595 22.0949 90 24.1677 90 27V105L50 122L10 105V27C10 24.1677 9.24053 22.0949 8.38344 20.6574ZM10.9313 21.2944C11.5577 22.8154 12 24.7054 12 27V103.677L50 119.827L88 103.677V27C88 24.7054 88.4423 22.8154 89.0687 21.2944L86.4642 21.9455L91.5203 10.822L50 20.0488L8.47967 10.822L13.5358 21.9455L10.9313 21.2944Z" fill="#E1CFB2"/>
</g>
</g>
<defs>
<clipPath id="clip0_2003_2">
<rect width="45" height="45" fill="white" transform="translate(28 42)"/>
</clipPath>
</defs>
</svg>
