<svg width="390" height="100" viewBox="0 0 390 100" fill="none" xmlns="http://www.w3.org/2000/svg">
<g id="black">
<path id="shape" d="M42 -3.68152e-06L348 -3.68152e-06L390 49.9999L348 99.9999L42 99.9999L4.35954e-06 50L42 -3.68152e-06Z" fill="#212121"/>
<g id="Group 407">
<mask id="mask0_3425_26169" style="mask-type:alpha" maskUnits="userSpaceOnUse" x="0" y="0" width="390" height="100">
<path id="shape_2" d="M42 -3.68152e-06L348 -3.68152e-06L390 49.9999L348 99.9999L42 99.9999L4.35954e-06 50L42 -3.68152e-06Z" fill="#CB9A40"/>
</mask>
<g mask="url(#mask0_3425_26169)">
<path id="Vector 483" d="M91 24.9995L117 -12.5005H234L203 35.4995L259.5 38.4995L304.5 64.9995L270 113L219.5 117L211.5 72.4995L142.5 76.4995V45.9995L91 24.9995Z" fill="white" fill-opacity="0.04"/>
<path id="Vector 486" d="M346.5 7.50049C352.166 14.6672 363.5 27.0005 363.5 27.0005L358 35.5005L346.5 7.50049Z" fill="white" fill-opacity="0.05"/>
<path id="Vector 487" d="M44.5 71.4999L25.5 65L48 85L55 68L44.5 71.4999Z" fill="white" fill-opacity="0.05"/>
</g>
</g>
<path id="shape (Stroke) (Stroke)" fill-rule="evenodd" clip-rule="evenodd" d="M42 -3.68152e-06L5.22395 50L43.8639 95.9999L346.136 95.9999L384.776 49.9999L348 -3.80117e-06L390 49.9999L348 99.9999L42 99.9999L4.35954e-06 50L42 -3.68152e-06ZM347.999 0L42 -3.68152e-06L5.22395 50L46.6598 89.9999L343.34 89.9999L384.776 49.9999L347.999 0ZM348 -3.80117e-06L347.999 0L42 -3.68152e-06L4.35954e-06 50L42 99.9999L348 99.9999L390 49.9999L348 -3.80117e-06Z" fill="#303030"/>
<path id="shape (Stroke)" fill-rule="evenodd" clip-rule="evenodd" d="M43.8639 4L5.22395 50L43.8639 95.9999L346.136 95.9999L384.776 49.9999L346.136 4L43.8639 4ZM348 -3.68152e-06L42 -3.68152e-06L4.35954e-06 50L42 99.9999L348 99.9999L390 49.9999L348 -3.68152e-06Z" fill="#5C5C5C"/>
</g>
</svg>
