<svg xmlns="http://www.w3.org/2000/svg" width="390" height="100" fill="none" xmlns:v="https://vecta.io/nano"><path d="M348 100H42L0 50 42 0h306l42 50-42 50z" fill="#222"/><g fill-rule="evenodd"><path d="M345.67 95l37.8-45-37.8-45H44.33L6.53 50l37.8 45h301.34zM42 100h306l42-50-42-50H42L0 50l42 50z" fill="url(#A)"/><path d="M23 48l27-32h145 145l27 32h-4l-24-29-144 .114L51 19 27 48h-4z" fill="url(#B)"/><path d="M23 52l27 32h145 145l27-32h-4l-24 29-144-.114L51 81 27 52h-4z" fill="url(#C)"/></g><path d="M28 41l-9 9 9 9 9-9-9-9z" fill="url(#D)"/><path d="M362 41l-9 9 9 9 9-9-9-9z" fill="url(#E)"/><defs><linearGradient id="A" x1="195" y1="100" x2="195" y2="0" href="#F"><stop stop-color="#ab750f"/><stop offset=".516" stop-color="#d8a956"/><stop offset="1" stop-color="#ab750f"/></linearGradient><linearGradient id="B" x1="23" y1="32.211" x2="366.889" y2="32.211" href="#F"><stop stop-color="#ab750f" stop-opacity="0"/><stop offset=".516" stop-color="#d8a956"/><stop offset="1" stop-color="#ab750f" stop-opacity="0"/></linearGradient><linearGradient id="C" x1="23" y1="67.789" x2="366.889" y2="67.789" href="#F"><stop stop-color="#ab750f" stop-opacity="0"/><stop offset=".516" stop-color="#d8a956"/><stop offset="1" stop-color="#ab750f" stop-opacity="0"/></linearGradient><linearGradient id="D" x1="28" y1="41" x2="28" y2="59" href="#F"><stop stop-color="#ab750f"/><stop offset=".516" stop-color="#d8a956"/><stop offset="1" stop-color="#ab750f"/></linearGradient><linearGradient id="E" x1="362" y1="41" x2="362" y2="59" href="#F"><stop stop-color="#ab750f"/><stop offset=".516" stop-color="#d8a956"/><stop offset="1" stop-color="#ab750f"/></linearGradient><linearGradient id="F" gradientUnits="userSpaceOnUse"/></defs></svg>