<svg width="250" height="100" viewBox="0 0 250 100" fill="none" xmlns="http://www.w3.org/2000/svg">
<g id="function">
<path id="shape" d="M217 100L33 100L-4.35954e-06 50.0001L33 7.2427e-05L217 7.91866e-05L250 50L217 100Z" fill="url(#paint0_linear_2242_92806)"/>
<path id="line" fill-rule="evenodd" clip-rule="evenodd" d="M22 43L44 11L104 11L206 11L228 43H225L205 14L104 14.114L45 14L25 43H22Z" fill="url(#paint1_linear_2242_92806)"/>
<path id="line_2" fill-rule="evenodd" clip-rule="evenodd" d="M22 57L44 89L104 89L206 89L228 57H225L205 86L104 85.886L45 86L25 57H22Z" fill="url(#paint2_linear_2242_92806)"/>
<path id="square" d="M26 41L17 50L26 59L35 50L26 41Z" fill="url(#paint3_linear_2242_92806)"/>
<path id="square_2" d="M224 41L215 50L224 59L233 50L224 41Z" fill="url(#paint4_linear_2242_92806)"/>
</g>
<defs>
<linearGradient id="paint0_linear_2242_92806" x1="399.236" y1="94.1379" x2="322.39" y2="-69.8584" gradientUnits="userSpaceOnUse">
<stop stop-color="#FFBA39"/>
<stop offset="0.279" stop-color="#D8A956"/>
<stop offset="0.629" stop-color="#AB750F"/>
</linearGradient>
<linearGradient id="paint1_linear_2242_92806" x1="23" y1="27.211" x2="227" y2="27.211" gradientUnits="userSpaceOnUse">
<stop stop-color="white" stop-opacity="0"/>
<stop offset="0.516" stop-color="white"/>
<stop offset="1" stop-color="white" stop-opacity="0"/>
</linearGradient>
<linearGradient id="paint2_linear_2242_92806" x1="23" y1="72.789" x2="227" y2="72.789" gradientUnits="userSpaceOnUse">
<stop stop-color="white" stop-opacity="0"/>
<stop offset="0.516" stop-color="white"/>
<stop offset="1" stop-color="white" stop-opacity="0"/>
</linearGradient>
<linearGradient id="paint3_linear_2242_92806" x1="26" y1="41" x2="26" y2="59" gradientUnits="userSpaceOnUse">
<stop stop-color="#F5F1EE"/>
<stop offset="1" stop-color="#D8A956"/>
</linearGradient>
<linearGradient id="paint4_linear_2242_92806" x1="224" y1="41" x2="224" y2="59" gradientUnits="userSpaceOnUse">
<stop stop-color="#F5F1EE"/>
<stop offset="1" stop-color="#D8A956"/>
</linearGradient>
</defs>
</svg>
