<svg xmlns="http://www.w3.org/2000/svg" width="250" height="100" fill="none" xmlns:v="https://vecta.io/nano"><path d="M217 100H33L0 50 33 0h184l33 50-33 50z" fill="url(#A)"/><g fill-rule="evenodd"><path d="M22 43l22-32h60 102l22 32h-3l-20-29-101 .114L45 14 25 43h-3z" fill="url(#B)"/><path d="M22 57l22 32h60 102l22-32h-3l-20 29-101-.114L45 86 25 57h-3z" fill="url(#C)"/></g><path d="M26 41l-9 9 9 9 9-9-9-9z" fill="url(#D)"/><path d="M224 41l-9 9 9 9 9-9-9-9z" fill="url(#E)"/><defs><linearGradient id="A" x1="399.236" y1="94.138" x2="322.39" y2="-69.858" href="#F"><stop stop-color="#ffba39"/><stop offset=".279" stop-color="#d8a956"/><stop offset=".629" stop-color="#ab750f"/></linearGradient><linearGradient id="B" x1="23" y1="27.211" x2="227" y2="27.211" href="#F"><stop stop-color="#fff" stop-opacity="0"/><stop offset=".516" stop-color="#fff"/><stop offset="1" stop-color="#fff" stop-opacity="0"/></linearGradient><linearGradient id="C" x1="23" y1="72.789" x2="227" y2="72.789" href="#F"><stop stop-color="#fff" stop-opacity="0"/><stop offset=".516" stop-color="#fff"/><stop offset="1" stop-color="#fff" stop-opacity="0"/></linearGradient><linearGradient id="D" x1="26" y1="41" x2="26" y2="59" href="#F"><stop stop-color="#f5f1ee"/><stop offset="1" stop-color="#d8a956"/></linearGradient><linearGradient id="E" x1="224" y1="41" x2="224" y2="59" href="#F"><stop stop-color="#f5f1ee"/><stop offset="1" stop-color="#d8a956"/></linearGradient><linearGradient id="F" gradientUnits="userSpaceOnUse"/></defs></svg>