<svg xmlns="http://www.w3.org/2000/svg" width="160" height="28" fill="none" xmlns:v="https://vecta.io/nano"><path d="M150.76 28H9.24L0 14 9.24 0h141.52L160 14l-9.24 14z" fill="#212121"/><g fill-rule="evenodd"><path d="M150.222 27l8.58-13-8.58-13H9.778l-8.58 13 8.58 13h140.444zM9.24 28h141.52L160 14l-9.24-14H9.24L0 14l9.24 14z" fill="url(#A)"/><path d="M6.16 12.04l6.16-8.96h135.36l6.16 8.96H153l-5.6-8.12-118.28.032L12.6 3.92 7 12.04h-.84z" fill="url(#B)"/><path d="M6.16 15.96l6.16 8.96h135.36l6.16-8.96H153l-5.6 8.12-118.28-.032-16.52.032L7 15.96h-.84z" fill="url(#B)"/></g><path d="M7.28 11.48L4.76 14l2.52 2.52L9.8 14l-2.52-2.52z" fill="url(#A)"/><path d="M152.72 11.48L150.2 14l2.52 2.52 2.52-2.52-2.52-2.52z" fill="url(#A)"/><defs><linearGradient id="A" x1="80" y1="0" x2="80" y2="28" gradientUnits="userSpaceOnUse"><stop stop-color="#ab750f"/><stop offset=".516" stop-color="#d8a956"/><stop offset="1" stop-color="#ab750f"/></linearGradient><linearGradient id="B" x1="0" y1="14.185" x2="159.948" y2="14.185" gradientUnits="userSpaceOnUse"><stop stop-color="#ab750f" stop-opacity="0"/><stop offset=".516" stop-color="#d8a956"/><stop offset="1" stop-color="#ab750f" stop-opacity="0"/></linearGradient></defs></svg>