<svg xmlns="http://www.w3.org/2000/svg" width="390" height="100" fill="none" xmlns:v="https://vecta.io/nano"><path d="M348 100H42L0 50 42 0h306l42 50-42 50z" fill="url(#A)"/><g fill-rule="evenodd"><path d="M23 43l27-32h145 145l27 32h-4l-24-29-144 .114L51 14 27 43h-4z" fill="url(#B)"/><path d="M23 57l27 32h145 145l27-32h-4l-24 29-144-.114L51 86 27 57h-4z" fill="url(#C)"/></g><path d="M28 41l-9 9 9 9 9-9-9-9z" fill="url(#D)"/><path d="M362 41l-9 9 9 9 9-9-9-9z" fill="url(#E)"/><defs><linearGradient id="A" x1="399.236" y1="94.138" x2="322.39" y2="-69.858" href="#F"><stop stop-color="#ffba39"/><stop offset=".279" stop-color="#d8a956"/><stop offset=".629" stop-color="#ab750f"/></linearGradient><linearGradient id="B" x1="23" y1="27.211" x2="366.889" y2="27.211" href="#F"><stop stop-color="#fff" stop-opacity="0"/><stop offset=".516" stop-color="#fff"/><stop offset="1" stop-color="#fff" stop-opacity="0"/></linearGradient><linearGradient id="C" x1="23" y1="72.789" x2="366.889" y2="72.789" href="#F"><stop stop-color="#fff" stop-opacity="0"/><stop offset=".516" stop-color="#fff"/><stop offset="1" stop-color="#fff" stop-opacity="0"/></linearGradient><linearGradient id="D" x1="28" y1="41" x2="28" y2="59" href="#F"><stop stop-color="#f5f1ee"/><stop offset="1" stop-color="#d8a956"/></linearGradient><linearGradient id="E" x1="362" y1="41" x2="362" y2="59" href="#F"><stop stop-color="#f5f1ee"/><stop offset="1" stop-color="#d8a956"/></linearGradient><linearGradient id="F" gradientUnits="userSpaceOnUse"/></defs></svg>