<svg width="390" height="100" viewBox="0 0 390 100" fill="none" xmlns="http://www.w3.org/2000/svg">
<g id="button-battlepoints">
<path id="shape" d="M348 100L42 100L-4.35954e-06 50L42 6.10216e-05L348 6.47167e-05L390 50L348 100Z" fill="#222222"/>
<path id="outline" fill-rule="evenodd" clip-rule="evenodd" d="M345.67 95L383.47 50L345.67 5.00006L44.3299 5.00006L6.52993 50.0001L44.3299 95L345.67 95ZM42 100L348 100L390 50L348 6.47167e-05L42 6.10216e-05L-4.35954e-06 50.0001L42 100Z" fill="url(#paint0_linear_237_71321)"/>
<path id="line" fill-rule="evenodd" clip-rule="evenodd" d="M23 48L50 16H195H340L367 48H363L339 19L195 19.114L51 19L27 48H23Z" fill="url(#paint1_linear_237_71321)"/>
<path id="line_2" fill-rule="evenodd" clip-rule="evenodd" d="M23 52L50 84H195H340L367 52H363L339 81L195 80.886L51 81L27 52H23Z" fill="url(#paint2_linear_237_71321)"/>
<path id="square" d="M28 41L19 50L28 59L37 50L28 41Z" fill="url(#paint3_linear_237_71321)"/>
<path id="square_2" d="M362 41L353 50L362 59L371 50L362 41Z" fill="url(#paint4_linear_237_71321)"/>
</g>
<defs>
<linearGradient id="paint0_linear_237_71321" x1="195" y1="100" x2="195" y2="4.76104e-05" gradientUnits="userSpaceOnUse">
<stop stop-color="#AB750F"/>
<stop offset="0.516" stop-color="#D8A956"/>
<stop offset="1" stop-color="#AB750F"/>
</linearGradient>
<linearGradient id="paint1_linear_237_71321" x1="23" y1="32.2109" x2="366.889" y2="32.211" gradientUnits="userSpaceOnUse">
<stop stop-color="#AB750F" stop-opacity="0"/>
<stop offset="0.516" stop-color="#D8A956"/>
<stop offset="1" stop-color="#AB750F" stop-opacity="0"/>
</linearGradient>
<linearGradient id="paint2_linear_237_71321" x1="23" y1="67.7891" x2="366.889" y2="67.789" gradientUnits="userSpaceOnUse">
<stop stop-color="#AB750F" stop-opacity="0"/>
<stop offset="0.516" stop-color="#D8A956"/>
<stop offset="1" stop-color="#AB750F" stop-opacity="0"/>
</linearGradient>
<linearGradient id="paint3_linear_237_71321" x1="28" y1="41" x2="28" y2="59" gradientUnits="userSpaceOnUse">
<stop stop-color="#AB750F"/>
<stop offset="0.516" stop-color="#D8A956"/>
<stop offset="1" stop-color="#AB750F"/>
</linearGradient>
<linearGradient id="paint4_linear_237_71321" x1="362" y1="41" x2="362" y2="59" gradientUnits="userSpaceOnUse">
<stop stop-color="#AB750F"/>
<stop offset="0.516" stop-color="#D8A956"/>
<stop offset="1" stop-color="#AB750F"/>
</linearGradient>
</defs>
</svg>
