<svg xmlns="http://www.w3.org/2000/svg" width="221" height="57" fill="none" xmlns:v="https://vecta.io/nano"><path d="M111.759 4l31.931 25.732-31.931 23.393-31.931-23.393L111.759 4z" fill="#ae7813"/><path d="M77.132 29.885l34.627-28.771 34.627 28.771-34.627 26.155-34.627-26.155z" stroke="#9d6d12" stroke-width="1.228"/><path d="M111.759 16.281l15.965 12.866-15.965 11.696-15.966-11.696 15.966-12.866z" fill="#f5f1ee"/><use href="#F" fill="url(#A)"/><use href="#F" fill="url(#B)"/><g stroke-width="1.116"><path d="M5.00118 34.7909L20.6644 16.369L194.441 16.369L210.105 34.7909" stroke="url(#C)"/><path d="M5.00118 23.7378L20.6644 42.1596L194.441 42.1597L210.105 23.7378" stroke="url(#D)"/></g><use href="#G" fill="url(#E)"/><use href="#G" x="-193.171" fill="url(#E)"/><defs><linearGradient id="A" x1="220.855" y1="46.053" x2="208.816" y2="-25.614" href="#H"><stop stop-color="#ab750f"/><stop offset=".484" stop-color="#d8a956"/><stop offset="1" stop-color="#ab750f"/></linearGradient><linearGradient id="B" x1="226.085" y1="46.053" x2="205.53" y2="-21.37" href="#H"><stop stop-color="#ffba39"/><stop offset=".279" stop-color="#d8a956"/><stop offset=".629" stop-color="#ab750f"/></linearGradient><linearGradient id="C" x1="198.437" y1="25.58" x2="11.493" y2="25.58" href="#H"><stop stop-color="#fff" stop-opacity="0"/><stop offset=".524" stop-color="#fff"/><stop offset="1" stop-color="#fff" stop-opacity="0"/></linearGradient><linearGradient id="D" x1="198.437" y1="32.949" x2="11.493" y2="32.949" href="#H"><stop stop-color="#fff" stop-opacity="0"/><stop offset=".524" stop-color="#fff"/><stop offset="1" stop-color="#fff" stop-opacity="0"/></linearGradient><linearGradient id="E" x1="204.841" y1="33.038" x2="204.841" y2="26.371" href="#H"><stop stop-color="#f5f1ee"/><stop offset="1" stop-color="#d8a956"/></linearGradient><path id="F" d="M205.191 48.212H15.662L-.001 29.791 15.63 11.369h189.594l15.631 18.422-15.664 18.422z"/><path id="G" d="M204.841 33.038l-3.334-3.334 3.334-3.334 3.334 3.334-3.334 3.334z"/><linearGradient id="H" gradientUnits="userSpaceOnUse"/></defs></svg>