<svg width="540" height="100" viewBox="0 0 540 100" fill="none" xmlns="http://www.w3.org/2000/svg">
<g id="btn">
<g id="Frame 36280">
<path id="shape" d="M117 -3.68152e-06L423 -3.68151e-06L465 49.9999L423 99.9999L117 99.9999L75 50L117 -3.68152e-06Z" fill="url(#paint0_linear_3401_8284)"/>
<g id="Group 407">
<mask id="mask0_3401_8284" style="mask-type:alpha" maskUnits="userSpaceOnUse" x="75" y="0" width="390" height="100">
<path id="shape_2" d="M117 -3.68152e-06L423 -3.68152e-06L465 49.9999L423 99.9999L117 99.9999L75 50L117 -3.68152e-06Z" fill="#CB9A40"/>
</mask>
<g mask="url(#mask0_3401_8284)">
<path id="Vector 483" d="M165.999 24.9995L191.999 -12.5005H308.999L277.999 35.4995L334.499 38.4995L379.499 64.9995L344.999 113L294.499 117L286.499 72.4995L217.499 76.4995V45.9995L165.999 24.9995Z" fill="black" fill-opacity="0.05"/>
<path id="Vector 486" d="M421.5 7.49951C427.166 14.6662 438.5 26.9995 438.5 26.9995L433 35.4995L421.5 7.49951Z" fill="white" fill-opacity="0.1"/>
<path id="Vector 487" d="M119.5 71.4985L100.5 64.9985L123 84.9985L130 67.9985L119.5 71.4985Z" fill="white" fill-opacity="0.1"/>
</g>
</g>
<path id="shape (Stroke) (Stroke)" fill-rule="evenodd" clip-rule="evenodd" d="M117 -3.68152e-06L80.2239 50L118.864 95.9999L421.136 95.9999L459.776 49.9999L423 -3.80117e-06L465 49.9999L423 99.9999L117 99.9999L75 50L117 -3.68152e-06ZM422.999 0L117 -3.68152e-06L80.2239 50L121.66 89.9999L418.34 89.9999L459.776 49.9999L422.999 0ZM423 -3.80117e-06L422.999 0L117 -3.68152e-06L75 50L117 99.9999L423 99.9999L465 49.9999L423 -3.80117e-06Z" fill="#99690F"/>
<path id="shape (Stroke)" fill-rule="evenodd" clip-rule="evenodd" d="M118.864 4L80.224 50L118.864 95.9999L421.136 95.9999L459.776 49.9999L421.136 4L118.864 4ZM423 -3.68151e-06L117 -3.68152e-06L75 50L117 99.9999L423 99.9999L465 49.9999L423 -3.68151e-06Z" fill="#D8A956"/>
</g>
<path id="shape_3" d="M77 2.1913e-06L105 0L63 50L105 100L77 100L35 49.875L77 2.1913e-06Z" fill="#AB750F"/>
<path id="shape_4" d="M463 2.1913e-06L435 0L477 50L435 100L463 100L505 49.875L463 2.1913e-06Z" fill="#AB750F"/>
<path id="shape_5" d="M33.6 10L55.9999 10L22.4 50L56 89.9999L33.6 89.9999L0 49.9L33.6 10Z" fill="url(#paint1_linear_3401_8284)"/>
<path id="shape_6" d="M506.4 10L484 10L517.6 50L484 89.9999L506.4 89.9999L540 49.9L506.4 10Z" fill="url(#paint2_linear_3401_8284)"/>
</g>
<defs>
<linearGradient id="paint0_linear_3401_8284" x1="85" y1="3.5" x2="258.843" y2="216.335" gradientUnits="userSpaceOnUse">
<stop stop-color="#AB750F"/>
<stop offset="0.544722" stop-color="#EEBB60"/>
<stop offset="1" stop-color="#AB750F"/>
</linearGradient>
<linearGradient id="paint1_linear_3401_8284" x1="28" y1="38" x2="28.0001" y2="79.9999" gradientUnits="userSpaceOnUse">
<stop stop-color="#D8A956"/>
<stop offset="1" stop-color="#AB750F"/>
</linearGradient>
<linearGradient id="paint2_linear_3401_8284" x1="512" y1="38" x2="512" y2="79.9999" gradientUnits="userSpaceOnUse">
<stop stop-color="#D8A956"/>
<stop offset="1" stop-color="#AB750F"/>
</linearGradient>
</defs>
</svg>
