<svg width="100" height="130" viewBox="0 0 100 130" fill="none" xmlns="http://www.w3.org/2000/svg">
<g id="loading-athlete">
<g id="local-warrior">
<path id="Subtract" fill-rule="evenodd" clip-rule="evenodd" d="M16 7L50 16L84 7L82.8058 10.9808L50 19L17.1942 10.9808L16 7ZM10.4669 105.198L10 108L45 125V120L50 122L55 120V125L90 108L89.5331 105.198L50 122L10.4669 105.198Z" fill="#D9D9D9"/>
<path id="10 Playible Logo" d="M32.6394 74.854C32.6394 74.854 30 69.4312 30 63.9571V42H69.9997V64.5941C69.9997 64.5941 70.2586 79.6375 56.6483 86.5489L49.8749 90C49.8749 90 41.2799 86.0706 38.1748 82.6172L42.0726 75.6217H51.717L61.3955 58.3827L56.5415 49.7562L37.055 49.6885L42.0408 58.3827H51.7988L46.8653 67.0442H37.1141L32.6371 74.854H32.6394Z" fill="#D9D9D9"/>
<path id="16 Ouline (Stroke)" fill-rule="evenodd" clip-rule="evenodd" d="M8.38344 20.6574C7.27356 18.796 6 18 6 18L10 19L5 8L50 18L95 8L90 19L94 18C94 18 92.7264 18.796 91.6166 20.6574C90.7595 22.0949 90 24.1677 90 27V105L50 122L10 105V27C10 24.1677 9.24053 22.0949 8.38344 20.6574ZM10.9313 21.2944C11.5577 22.8154 12 24.7054 12 27V103.677L50 119.827L88 103.677V27C88 24.7054 88.4423 22.8154 89.0687 21.2944L86.4642 21.9455L91.5203 10.822L50 20.0488L8.47967 10.822L13.5358 21.9455L10.9313 21.2944Z" fill="#D9D9D9"/>
</g>
</g>
</svg>
