<svg width="100" height="130" viewBox="0 0 100 130" fill="none" xmlns="http://www.w3.org/2000/svg">
<g id="athlete-silver">
<g id="local-warrior">
<path id="Subtract" fill-rule="evenodd" clip-rule="evenodd" d="M16 7L50 16L84 7L82.8058 10.9808L50 19L17.1942 10.9808L16 7ZM10.4669 105.198L10 108L45 125V120L50 122L55 120V125L90 108L89.5331 105.198L50 122L10.4669 105.198Z" fill="#D9D9D9"/>
<path id="16 Ouline (Stroke)" fill-rule="evenodd" clip-rule="evenodd" d="M8.38344 20.6574C7.27356 18.796 6 18 6 18L10 19L5 8L50 18L95 8L90 19L94 18C94 18 92.7264 18.796 91.6166 20.6574C90.7595 22.0949 90 24.1677 90 27V105L50 122L10 105V27C10 24.1677 9.24053 22.0949 8.38344 20.6574ZM10.9313 21.2944C11.5577 22.8154 12 24.7054 12 27V103.677L50 119.827L88 103.677V27C88 24.7054 88.4423 22.8154 89.0687 21.2944L86.4642 21.9455L91.5203 10.822L50 20.0488L8.47967 10.822L13.5358 21.9455L10.9313 21.2944Z" fill="#D9D9D9"/>
<g id="Union">
<path d="M40.8 46H57.6L70 80.4L57.6 86L51.2 58.8L47.3663 69.6959L51.7011 67.9155L53.6725 76.2942L30.0562 85.9769L30 86L39.8366 57.8953L48.2 51.8L41.4057 53.4122L43.2498 48.1435L40.8 46Z" fill="#D9D9D9"/>
<path d="M68.09 70.383L65.2018 62.3706L70 60.3999L68.09 70.383Z" fill="#D9D9D9"/>
</g>
</g>
</g>
</svg>
